<svg class="poloto" width="800" height="500" viewBox="0 0 800 500" xmlns="http://www.w3.org/2000/svg"><style>.poloto{stroke-linecap:round;stroke-linejoin:round;font-family:Roboto,sans-serif;font-size:16px;}.poloto_background{fill:#262626;}.poloto_scatter{stroke-width:7}.poloto_tick_line{stroke:dimgray;stroke-width:0.5}.poloto_line{stroke-width:2}.poloto_text{fill: white;}.poloto_axis_lines{stroke: white;stroke-width:3;fill:none;stroke-dasharray:none}.poloto_title{font-size:24px;dominant-baseline:start;text-anchor:middle;}.poloto_xname{font-size:24px;dominant-baseline:start;text-anchor:middle;}.poloto_yname{font-size:24px;dominant-baseline:start;text-anchor:middle;}.poloto0stroke{stroke:blue;}.poloto1stroke{stroke:red;}.poloto2stroke{stroke:green;}.poloto3stroke{stroke:gold;}.poloto4stroke{stroke:aqua;}.poloto5stroke{stroke:lime;}.poloto6stroke{stroke:orange;}.poloto7stroke{stroke:chocolate;}.poloto0fill{fill:blue;}.poloto1fill{fill:red;}.poloto2fill{fill:green;}.poloto3fill{fill:gold;}.poloto4fill{fill:aqua;}.poloto5fill{fill:lime;}.poloto6fill{fill:orange;}.poloto7fill{fill:chocolate;}</style><circle  r="1e5" class="poloto_background" /><text  class="poloto_text poloto_legend_text" x="675" y="100" >Refinance 15</text><line  class="poloto_line poloto_legend_icon poloto0stroke poloto0legend" stroke="black" x1="680" x2="730" y1="81.25" y2="81.25" /><path  class="poloto_line poloto0stroke" fill="none" stroke="black" d=" M 150.00 393.13 L 151.38 400.00 L 155.52 390.27 L 156.91 381.94 L 158.29 390.27 L 158.29 390.27 L 161.05 362.48 L 165.19 361.01 L 166.57 370.74 L 167.96 349.74 L 169.34 351.21 L 170.72 346.81 L 174.86 348.28 L 176.24 342.41 L 176.24 342.41 L 179.01 342.95 L 180.39 321.95 L 184.53 331.06 L 185.91 333.99 L 187.29 333.99 L 188.67 333.22 L 190.06 328.74 L 195.58 289.53 L 196.96 306.97 L 198.34 293.46 L 199.72 288.21 L 199.72 288.21 L 205.25 308.52 L 208.01 312.22 L 209.39 303.96 L 213.54 294.16 L 214.92 313.69 L 216.30 303.96 L 216.30 303.96 L 219.06 302.42 L 223.20 305.43 L 224.59 315.16 L 224.59 315.16 L 225.97 306.90 L 227.35 316.70 L 228.73 302.42 L 232.87 331.76 L 234.25 331.06 L 235.64 315.16 L 235.64 315.16 L 237.02 321.95 L 238.40 324.96 L 242.54 324.96 L 243.92 335.46 L 245.30 335.46 L 246.69 335.46 L 248.07 335.46 L 253.59 324.96 L 254.97 321.95 L 256.35 323.42 L 257.73 323.42 L 257.73 323.42 L 263.26 313.69 L 264.64 313.69 L 266.02 305.43 L 271.55 291.92 L 272.93 264.05 L 274.31 267.14 L 275.69 267.14 L 277.07 286.67 L 281.22 267.14 L 282.60 267.14 L 283.98 285.13 L 285.36 288.21 L 290.88 288.21 L 292.27 286.67 L 293.65 291.22 L 295.03 295.70 L 296.41 305.43 L 301.93 312.22 L 303.31 303.96 L 304.70 297.17 L 306.08 294.16 L 310.22 295.70 L 312.98 295.70 L 314.36 294.16 L 319.89 292.69 L 319.89 292.69 L 319.89 292.69 L 319.89 292.69 L 319.89 292.69 L 319.89 292.69 L 322.65 292.69 L 322.65 292.69 L 322.65 292.69 L 322.65 292.69 L 322.65 292.69 L 322.65 292.69 L 329.56 303.96 L 332.32 306.90 L 333.70 332.53 L 335.08 335.46 L 339.23 335.46 L 340.61 333.99 L 341.99 313.69 L 343.37 308.44 L 344.75 295.70 L 348.90 305.43 L 348.90 305.43 L 350.28 297.17 L 353.04 305.43 L 353.04 305.43 L 359.94 305.43 L 361.33 274.70 L 362.71 292.69 L 368.23 261.89 L 370.99 261.89 L 370.99 261.89 L 373.76 273.16 L 379.28 267.14 L 379.28 267.14 L 379.28 267.14 L 379.28 267.14 L 379.28 267.14 L 379.28 267.14 L 379.28 267.14 L 379.28 267.14 L 379.28 267.14 L 383.43 267.14 L 391.71 247.53 L 397.24 249.85 L 397.24 249.85 L 401.38 249.85 L 406.91 249.85 L 408.29 249.85 L 408.29 249.85 L 408.29 249.85 L 408.29 249.85 L 408.29 249.85 L 426.24 249.85 L 427.62 249.85 L 435.91 162.92 L 437.29 154.66 L 438.67 154.66 L 488.40 180.60 L 493.92 180.60 L 495.30 180.60 L 496.69 195.50 L 499.45 203.68 L 499.45 203.68 L 504.97 203.68 L 506.35 203.68 L 507.73 203.68 L 509.12 203.68 L 513.26 203.68 L 514.64 203.68 L 517.40 203.68 L 518.78 203.68 L 522.93 203.68 L 524.31 203.68 L 524.31 203.68 L 528.45 203.68 L 532.60 203.68 L 533.98 203.68 L 535.36 203.68 L 536.74 203.68 L 538.12 203.68 L 543.65 226.15 L 545.03 200.21 L 546.41 180.60 L 547.79 190.40 L 551.93 190.40 L 553.31 190.40 L 553.31 190.40 L 556.08 211.48 L 557.46 211.48 L 561.60 211.48 L 562.98 211.48 L 564.36 211.48 L 565.75 211.48 L 567.13 211.48 L 567.13 211.48 L 567.13 211.48 L 567.13 211.48 L 574.03 211.48 L 576.80 211.48 L 580.94 211.48 L 582.32 211.48 L 585.08 211.48 L 586.46 211.48 L 591.99 211.48 L 593.37 211.48 L 594.75 211.48 L 596.13 239.27 L 600.28 245.45 L 601.66 209.93 L 603.04 221.28 L 604.42 219.74 L 605.80 201.75 L 609.94 161.07 L 611.33 161.07 L 612.71 161.07 L 614.09 162.61 L 615.47 170.79 L 619.61 162.61 L 620.99 162.61 L 622.38 151.26 L 623.76 161.07 L 625.14 141.46 L 630.66 151.26 L 632.04 152.80 L 633.43 143.08 L 634.81 149.64 L 638.95 155.97 L 640.33 152.80 L 641.71 151.26 L 643.09 151.26 L 644.48 162.61 L 648.62 161.07 L 650.00 152.80" /><text  class="poloto_text poloto_legend_text" x="675" y="150" >Refinance 20</text><line  class="poloto_line poloto_legend_icon poloto1stroke poloto1legend" stroke="black" x1="680" x2="730" y1="131.25" y2="131.25" /><path  class="poloto_line poloto1stroke" fill="none" stroke="black" d=" M 150.00 350.51 L 151.38 371.13 L 155.52 340.40 L 156.91 330.98 L 158.29 339.63 L 158.29 339.63 L 161.05 312.61 L 165.19 310.29 L 166.57 320.10 L 167.96 309.14 L 169.34 318.94 L 170.72 300.57 L 174.86 328.67 L 176.24 300.57 L 176.24 300.57 L 179.01 300.57 L 179.01 300.57 L 184.53 263.51 L 185.91 293.15 L 187.29 300.57 L 188.67 310.29 L 190.06 291.22 L 195.58 272.47 L 196.96 270.07 L 198.34 265.29 L 199.72 254.32 L 203.87 259.11 L 205.25 279.88 L 208.01 272.47 L 209.39 270.07 L 213.54 262.27 L 214.92 271.31 L 216.30 271.31 L 216.30 271.31 L 219.06 271.31 L 223.20 272.47 L 224.59 292.00 L 224.59 292.00 L 225.97 281.03 L 227.35 299.41 L 228.73 292.00 L 232.87 293.15 L 234.25 292.00 L 235.64 292.00 L 235.64 292.00 L 237.02 293.15 L 238.40 299.41 L 242.54 300.57 L 243.92 304.04 L 245.30 304.04 L 246.69 304.04 L 248.07 304.04 L 253.59 299.41 L 254.97 289.60 L 256.35 292.00 L 257.73 292.00 L 257.73 292.00 L 263.26 279.88 L 264.64 282.19 L 266.02 273.62 L 271.55 232.24 L 272.93 215.11 L 274.31 224.91 L 275.69 232.24 L 277.07 252.93 L 281.22 240.74 L 282.60 234.64 L 283.98 254.17 L 285.36 263.51 L 290.88 263.51 L 292.27 252.93 L 293.65 262.74 L 295.03 272.47 L 296.41 283.43 L 301.93 290.76 L 303.31 281.03 L 304.70 271.31 L 306.08 264.67 L 310.22 270.07 L 312.98 272.47 L 314.36 271.31 L 319.89 272.47 L 319.89 272.47 L 319.89 272.47 L 319.89 272.47 L 319.89 272.47 L 319.89 272.47 L 319.89 272.47 L 319.89 272.47 L 319.89 272.47 L 319.89 272.47 L 319.89 272.47 L 319.89 272.47 L 329.56 290.76 L 332.32 293.15 L 333.70 310.29 L 335.08 312.61 L 339.23 310.06 L 340.61 310.06 L 341.99 300.57 L 343.37 304.04 L 344.75 289.60 L 348.90 282.19 L 348.90 282.19 L 350.28 282.19 L 353.04 292.00 L 353.04 292.00 L 359.94 289.60 L 361.33 272.47 L 362.71 272.47 L 368.23 259.88 L 370.99 249.31 L 370.99 249.31 L 373.76 261.12 L 379.28 232.24 L 379.28 232.24 L 379.28 232.24 L 379.28 232.24 L 379.28 232.24 L 379.28 232.24 L 379.28 232.24 L 379.28 232.24 L 379.28 232.24 L 383.43 232.24 L 391.71 219.97 L 397.24 221.20 L 400.00 221.20 L 401.38 221.20 L 401.38 221.20 L 408.29 221.20 L 409.67 221.20 L 409.67 221.20 L 409.67 221.20 L 409.67 221.20 L 426.24 221.20 L 427.62 221.20 L 435.91 143.85 L 437.29 129.41 L 437.29 129.41 L 491.16 177.12 L 493.92 177.12 L 495.30 177.12 L 498.07 194.26 L 499.45 195.50 L 499.45 195.50 L 504.97 195.50 L 506.35 195.50 L 507.73 195.50 L 509.12 195.50 L 513.26 195.50 L 514.64 195.50 L 517.40 195.50 L 518.78 195.50 L 522.93 195.50 L 524.31 195.50 L 524.31 195.50 L 528.45 195.50 L 532.60 195.50 L 533.98 195.50 L 535.36 195.50 L 536.74 195.50 L 538.12 195.50 L 543.65 178.05 L 545.03 168.55 L 546.41 167.32 L 547.79 169.87 L 551.93 169.87 L 553.31 169.87 L 553.31 169.87 L 556.08 188.16 L 557.46 188.16 L 561.60 188.16 L 562.98 188.16 L 564.36 188.16 L 565.75 188.16 L 567.13 188.16 L 567.13 188.16 L 572.65 188.16 L 572.65 188.16 L 574.03 188.16 L 576.80 188.16 L 580.94 188.16 L 582.32 188.16 L 585.08 188.16 L 586.46 188.16 L 591.99 188.16 L 593.37 188.16 L 594.75 188.16 L 596.13 209.01 L 600.28 207.77 L 601.66 178.36 L 603.04 179.59 L 603.04 179.59 L 605.80 178.36 L 609.94 158.75 L 611.33 158.75 L 612.71 150.26 L 614.09 140.45 L 615.47 149.02 L 619.61 140.45 L 620.99 130.65 L 622.38 140.45 L 623.76 150.26 L 625.14 139.22 L 630.66 140.45 L 632.04 129.41 L 633.43 100.00 L 634.81 129.41 L 638.95 150.26 L 640.33 169.17 L 641.71 140.45 L 643.09 139.22 L 644.48 167.32 L 648.62 160.06 L 650.00 150.26" /><text  class="poloto_text poloto_legend_text" x="675" y="200" >Refinance 30</text><line  class="poloto_line poloto_legend_icon poloto2stroke poloto2legend" stroke="black" x1="680" x2="730" y1="181.25" y2="181.25" /><path  class="poloto_line poloto2stroke" fill="none" stroke="black" d=" M 150.00 348.35 L 151.38 355.69 L 155.52 344.26 L 156.91 335.31 L 158.29 337.00 L 158.29 337.00 L 161.05 318.24 L 165.19 316.62 L 166.57 326.35 L 167.96 315.77 L 169.34 325.50 L 170.72 306.82 L 174.86 315.77 L 176.24 297.01 L 177.62 297.01 L 179.01 296.17 L 180.39 272.47 L 184.53 276.63 L 185.91 287.29 L 187.29 297.01 L 188.67 288.14 L 190.06 277.48 L 195.58 269.38 L 196.96 256.18 L 198.34 254.40 L 199.72 252.55 L 203.87 256.18 L 205.25 271.31 L 208.01 269.38 L 209.39 267.60 L 213.54 257.95 L 214.92 268.45 L 216.30 257.95 L 216.30 257.95 L 219.06 257.95 L 223.20 259.73 L 224.59 276.63 L 224.59 276.63 L 225.97 268.45 L 227.35 269.38 L 228.73 270.23 L 232.87 277.48 L 234.25 269.38 L 235.64 269.38 L 235.64 269.38 L 237.02 278.33 L 238.40 279.26 L 242.54 280.11 L 243.92 288.14 L 245.30 288.14 L 246.69 289.84 L 248.07 289.84 L 253.59 286.36 L 254.97 276.63 L 256.35 278.33 L 257.73 277.48 L 257.73 277.48 L 263.26 268.45 L 264.64 268.45 L 266.02 258.80 L 271.55 219.74 L 272.93 192.10 L 274.31 209.01 L 275.69 219.74 L 277.07 229.46 L 281.22 220.59 L 282.60 219.74 L 283.98 237.49 L 285.36 239.27 L 290.88 239.27 L 292.27 228.62 L 293.65 237.49 L 295.03 247.22 L 296.41 268.45 L 301.93 269.38 L 303.31 258.80 L 304.70 240.20 L 306.08 237.49 L 310.22 255.25 L 312.98 239.27 L 314.36 238.34 L 319.89 256.18 L 319.89 256.18 L 319.89 256.18 L 319.89 256.18 L 319.89 256.18 L 319.89 256.18 L 322.65 256.18 L 322.65 256.18 L 322.65 256.18 L 322.65 256.18 L 322.65 256.18 L 322.65 256.18 L 329.56 267.60 L 332.32 269.38 L 333.70 286.36 L 335.08 297.86 L 339.23 297.01 L 340.61 297.01 L 341.99 277.48 L 343.37 280.11 L 344.75 267.60 L 348.90 277.48 L 348.90 277.48 L 350.28 270.23 L 353.04 278.33 L 353.04 278.33 L 359.94 276.63 L 361.33 259.73 L 362.71 258.80 L 368.23 236.57 L 370.99 228.62 L 370.99 228.62 L 373.76 238.34 L 379.28 227.69 L 379.28 227.69 L 379.28 227.69 L 379.28 227.69 L 379.28 227.69 L 379.28 227.69 L 379.28 227.69 L 379.28 227.69 L 383.43 227.69 L 383.43 226.76 L 391.71 215.11 L 397.24 195.50 L 397.24 195.50 L 401.38 195.50 L 401.38 195.50 L 408.29 195.50 L 409.67 195.50 L 409.67 195.50 L 409.67 195.50 L 409.67 195.50 L 426.24 195.50 L 427.62 195.50 L 435.91 151.34 L 437.29 126.71 L 437.29 126.71 L 491.16 169.02 L 493.92 169.02 L 495.30 169.02 L 496.69 172.95 L 499.45 181.91 L 499.45 181.91 L 504.97 181.91 L 506.35 181.91 L 507.73 181.91 L 509.12 181.91 L 513.26 181.91 L 514.64 181.91 L 517.40 181.91 L 518.78 181.91 L 522.93 181.91 L 524.31 181.91 L 524.31 181.91 L 528.45 181.91 L 532.60 181.91 L 533.98 181.91 L 535.36 181.91 L 536.74 181.91 L 538.12 181.91 L 543.65 167.01 L 545.03 174.88 L 546.41 156.20 L 547.79 174.88 L 551.93 174.88 L 553.31 174.88 L 553.31 174.88 L 556.08 174.88 L 557.46 174.88 L 561.60 174.88 L 562.98 174.88 L 564.36 174.88 L 565.75 174.88 L 567.13 174.88 L 567.13 174.88 L 572.65 174.88 L 572.65 174.88 L 574.03 174.88 L 576.80 174.88 L 580.94 174.88 L 582.32 174.88 L 585.08 174.88 L 586.46 174.88 L 591.99 174.88 L 593.37 174.88 L 594.75 174.88 L 596.13 224.91 L 600.28 215.11 L 601.66 175.89 L 603.04 205.30 L 604.42 175.89 L 605.80 166.01 L 609.94 156.20 L 611.33 156.20 L 612.71 147.32 L 614.09 137.52 L 615.47 146.40 L 619.61 146.40 L 620.99 135.59 L 622.38 127.71 L 623.76 137.52 L 625.14 128.72 L 630.66 127.71 L 632.04 116.91 L 633.43 116.91 L 634.81 126.71 L 638.95 127.71 L 640.33 117.91 L 641.71 125.78 L 643.09 117.91 L 644.48 147.32 L 648.62 147.32 L 650.00 127.71" /><text  class="poloto_labels poloto_text poloto_title" x="400" y="37.5" >lower.com purchase rates</text><text  class="poloto_labels poloto_text poloto_xname" x="400" y="481.25" >Date</text><text  class="poloto_labels poloto_text poloto_yname" transform="rotate(-90,37.5,250)" x="37.5" y="250" >Rate (%)</text><text  class="poloto_tick_labels poloto_text" dominant-baseline="middle" text-anchor="start" x="150" y="70" ></text><line  class="poloto_axis_lines" stroke="black" x1="150" x2="144" y1="391.12197632527017" y2="391.12197632527017" /><line  class="poloto_tick_line" stroke="black" x1="150" x2="650" y1="391.12197632527017" y2="391.12197632527017" /><text  class="poloto_tick_labels poloto_text" dominant-baseline="middle" text-anchor="end" x="135" y="391.12197632527017" >3.625</text><line  class="poloto_axis_lines" stroke="black" x1="150" x2="144" y1="381.4719505918682" y2="381.4719505918682" /><line  class="poloto_tick_line" stroke="black" x1="150" x2="650" y1="381.4719505918682" y2="381.4719505918682" /><text  class="poloto_tick_labels poloto_text" dominant-baseline="middle" text-anchor="end" x="135" y="381.4719505918682" >3.75</text><line  class="poloto_axis_lines" stroke="black" x1="150" x2="144" y1="371.8219248584663" y2="371.8219248584663" /><line  class="poloto_tick_line" stroke="black" x1="150" x2="650" y1="371.8219248584663" y2="371.8219248584663" /><text  class="poloto_tick_labels poloto_text" dominant-baseline="middle" text-anchor="end" x="135" y="371.8219248584663" >3.875</text><line  class="poloto_axis_lines" stroke="black" x1="150" x2="144" y1="362.17189912506433" y2="362.17189912506433" /><line  class="poloto_tick_line" stroke="black" x1="150" x2="650" y1="362.17189912506433" y2="362.17189912506433" /><text  class="poloto_tick_labels poloto_text" dominant-baseline="middle" text-anchor="end" x="135" y="362.17189912506433" >4</text><line  class="poloto_axis_lines" stroke="black" x1="150" x2="144" y1="352.5218733916624" y2="352.5218733916624" /><line  class="poloto_tick_line" stroke="black" x1="150" x2="650" y1="352.5218733916624" y2="352.5218733916624" /><text  class="poloto_tick_labels poloto_text" dominant-baseline="middle" text-anchor="end" x="135" y="352.5218733916624" >4.125</text><line  class="poloto_axis_lines" stroke="black" x1="150" x2="144" y1="342.87184765826044" y2="342.87184765826044" /><line  class="poloto_tick_line" stroke="black" x1="150" x2="650" y1="342.87184765826044" y2="342.87184765826044" /><text  class="poloto_tick_labels poloto_text" dominant-baseline="middle" text-anchor="end" x="135" y="342.87184765826044" >4.25</text><line  class="poloto_axis_lines" stroke="black" x1="150" x2="144" y1="333.2218219248585" y2="333.2218219248585" /><line  class="poloto_tick_line" stroke="black" x1="150" x2="650" y1="333.2218219248585" y2="333.2218219248585" /><text  class="poloto_tick_labels poloto_text" dominant-baseline="middle" text-anchor="end" x="135" y="333.2218219248585" >4.375</text><line  class="poloto_axis_lines" stroke="black" x1="150" x2="144" y1="323.5717961914565" y2="323.5717961914565" /><line  class="poloto_tick_line" stroke="black" x1="150" x2="650" y1="323.5717961914565" y2="323.5717961914565" /><text  class="poloto_tick_labels poloto_text" dominant-baseline="middle" text-anchor="end" x="135" y="323.5717961914565" >4.5</text><line  class="poloto_axis_lines" stroke="black" x1="150" x2="144" y1="313.92177045805454" y2="313.92177045805454" /><line  class="poloto_tick_line" stroke="black" x1="150" x2="650" y1="313.92177045805454" y2="313.92177045805454" /><text  class="poloto_tick_labels poloto_text" dominant-baseline="middle" text-anchor="end" x="135" y="313.92177045805454" >4.625</text><line  class="poloto_axis_lines" stroke="black" x1="150" x2="144" y1="304.2717447246526" y2="304.2717447246526" /><line  class="poloto_tick_line" stroke="black" x1="150" x2="650" y1="304.2717447246526" y2="304.2717447246526" /><text  class="poloto_tick_labels poloto_text" dominant-baseline="middle" text-anchor="end" x="135" y="304.2717447246526" >4.75</text><line  class="poloto_axis_lines" stroke="black" x1="150" x2="144" y1="294.62171899125065" y2="294.62171899125065" /><line  class="poloto_tick_line" stroke="black" x1="150" x2="650" y1="294.62171899125065" y2="294.62171899125065" /><text  class="poloto_tick_labels poloto_text" dominant-baseline="middle" text-anchor="end" x="135" y="294.62171899125065" >4.875</text><line  class="poloto_axis_lines" stroke="black" x1="150" x2="144" y1="284.9716932578487" y2="284.9716932578487" /><line  class="poloto_tick_line" stroke="black" x1="150" x2="650" y1="284.9716932578487" y2="284.9716932578487" /><text  class="poloto_tick_labels poloto_text" dominant-baseline="middle" text-anchor="end" x="135" y="284.9716932578487" >5</text><line  class="poloto_axis_lines" stroke="black" x1="150" x2="144" y1="275.32166752444675" y2="275.32166752444675" /><line  class="poloto_tick_line" stroke="black" x1="150" x2="650" y1="275.32166752444675" y2="275.32166752444675" /><text  class="poloto_tick_labels poloto_text" dominant-baseline="middle" text-anchor="end" x="135" y="275.32166752444675" >5.125</text><line  class="poloto_axis_lines" stroke="black" x1="150" x2="144" y1="265.67164179104475" y2="265.67164179104475" /><line  class="poloto_tick_line" stroke="black" x1="150" x2="650" y1="265.67164179104475" y2="265.67164179104475" /><text  class="poloto_tick_labels poloto_text" dominant-baseline="middle" text-anchor="end" x="135" y="265.67164179104475" >5.25</text><line  class="poloto_axis_lines" stroke="black" x1="150" x2="144" y1="256.0216160576428" y2="256.0216160576428" /><line  class="poloto_tick_line" stroke="black" x1="150" x2="650" y1="256.0216160576428" y2="256.0216160576428" /><text  class="poloto_tick_labels poloto_text" dominant-baseline="middle" text-anchor="end" x="135" y="256.0216160576428" >5.375</text><line  class="poloto_axis_lines" stroke="black" x1="150" x2="144" y1="246.37159032424086" y2="246.37159032424086" /><line  class="poloto_tick_line" stroke="black" x1="150" x2="650" y1="246.37159032424086" y2="246.37159032424086" /><text  class="poloto_tick_labels poloto_text" dominant-baseline="middle" text-anchor="end" x="135" y="246.37159032424086" >5.5</text><line  class="poloto_axis_lines" stroke="black" x1="150" x2="144" y1="236.7215645908389" y2="236.7215645908389" /><line  class="poloto_tick_line" stroke="black" x1="150" x2="650" y1="236.7215645908389" y2="236.7215645908389" /><text  class="poloto_tick_labels poloto_text" dominant-baseline="middle" text-anchor="end" x="135" y="236.7215645908389" >5.625</text><line  class="poloto_axis_lines" stroke="black" x1="150" x2="144" y1="227.07153885743696" y2="227.07153885743696" /><line  class="poloto_tick_line" stroke="black" x1="150" x2="650" y1="227.07153885743696" y2="227.07153885743696" /><text  class="poloto_tick_labels poloto_text" dominant-baseline="middle" text-anchor="end" x="135" y="227.07153885743696" >5.75</text><line  class="poloto_axis_lines" stroke="black" x1="150" x2="144" y1="217.42151312403502" y2="217.42151312403502" /><line  class="poloto_tick_line" stroke="black" x1="150" x2="650" y1="217.42151312403502" y2="217.42151312403502" /><text  class="poloto_tick_labels poloto_text" dominant-baseline="middle" text-anchor="end" x="135" y="217.42151312403502" >5.875</text><line  class="poloto_axis_lines" stroke="black" x1="150" x2="144" y1="207.771487390633" y2="207.771487390633" /><line  class="poloto_tick_line" stroke="black" x1="150" x2="650" y1="207.771487390633" y2="207.771487390633" /><text  class="poloto_tick_labels poloto_text" dominant-baseline="middle" text-anchor="end" x="135" y="207.771487390633" >6</text><line  class="poloto_axis_lines" stroke="black" x1="150" x2="144" y1="198.12146165723107" y2="198.12146165723107" /><line  class="poloto_tick_line" stroke="black" x1="150" x2="650" y1="198.12146165723107" y2="198.12146165723107" /><text  class="poloto_tick_labels poloto_text" dominant-baseline="middle" text-anchor="end" x="135" y="198.12146165723107" >6.125</text><line  class="poloto_axis_lines" stroke="black" x1="150" x2="144" y1="188.47143592382912" y2="188.47143592382912" /><line  class="poloto_tick_line" stroke="black" x1="150" x2="650" y1="188.47143592382912" y2="188.47143592382912" /><text  class="poloto_tick_labels poloto_text" dominant-baseline="middle" text-anchor="end" x="135" y="188.47143592382912" >6.25</text><line  class="poloto_axis_lines" stroke="black" x1="150" x2="144" y1="178.82141019042717" y2="178.82141019042717" /><line  class="poloto_tick_line" stroke="black" x1="150" x2="650" y1="178.82141019042717" y2="178.82141019042717" /><text  class="poloto_tick_labels poloto_text" dominant-baseline="middle" text-anchor="end" x="135" y="178.82141019042717" >6.375</text><line  class="poloto_axis_lines" stroke="black" x1="150" x2="144" y1="169.17138445702523" y2="169.17138445702523" /><line  class="poloto_tick_line" stroke="black" x1="150" x2="650" y1="169.17138445702523" y2="169.17138445702523" /><text  class="poloto_tick_labels poloto_text" dominant-baseline="middle" text-anchor="end" x="135" y="169.17138445702523" >6.5</text><line  class="poloto_axis_lines" stroke="black" x1="150" x2="144" y1="159.52135872362328" y2="159.52135872362328" /><line  class="poloto_tick_line" stroke="black" x1="150" x2="650" y1="159.52135872362328" y2="159.52135872362328" /><text  class="poloto_tick_labels poloto_text" dominant-baseline="middle" text-anchor="end" x="135" y="159.52135872362328" >6.625</text><line  class="poloto_axis_lines" stroke="black" x1="150" x2="144" y1="149.87133299022133" y2="149.87133299022133" /><line  class="poloto_tick_line" stroke="black" x1="150" x2="650" y1="149.87133299022133" y2="149.87133299022133" /><text  class="poloto_tick_labels poloto_text" dominant-baseline="middle" text-anchor="end" x="135" y="149.87133299022133" >6.75</text><line  class="poloto_axis_lines" stroke="black" x1="150" x2="144" y1="140.22130725681933" y2="140.22130725681933" /><line  class="poloto_tick_line" stroke="black" x1="150" x2="650" y1="140.22130725681933" y2="140.22130725681933" /><text  class="poloto_tick_labels poloto_text" dominant-baseline="middle" text-anchor="end" x="135" y="140.22130725681933" >6.875</text><line  class="poloto_axis_lines" stroke="black" x1="150" x2="144" y1="130.57128152341744" y2="130.57128152341744" /><line  class="poloto_tick_line" stroke="black" x1="150" x2="650" y1="130.57128152341744" y2="130.57128152341744" /><text  class="poloto_tick_labels poloto_text" dominant-baseline="middle" text-anchor="end" x="135" y="130.57128152341744" >7</text><line  class="poloto_axis_lines" stroke="black" x1="150" x2="144" y1="120.92125579001544" y2="120.92125579001544" /><line  class="poloto_tick_line" stroke="black" x1="150" x2="650" y1="120.92125579001544" y2="120.92125579001544" /><text  class="poloto_tick_labels poloto_text" dominant-baseline="middle" text-anchor="end" x="135" y="120.92125579001544" >7.125</text><line  class="poloto_axis_lines" stroke="black" x1="150" x2="144" y1="111.27123005661343" y2="111.27123005661343" /><line  class="poloto_tick_line" stroke="black" x1="150" x2="650" y1="111.27123005661343" y2="111.27123005661343" /><text  class="poloto_tick_labels poloto_text" dominant-baseline="middle" text-anchor="end" x="135" y="111.27123005661343" >7.25</text><line  class="poloto_axis_lines" stroke="black" x1="150" x2="144" y1="101.62120432321154" y2="101.62120432321154" /><line  class="poloto_tick_line" stroke="black" x1="150" x2="650" y1="101.62120432321154" y2="101.62120432321154" /><text  class="poloto_tick_labels poloto_text" dominant-baseline="middle" text-anchor="end" x="135" y="101.62120432321154" >7.375</text><text  class="poloto_tick_labels poloto_text" dominant-baseline="middle" text-anchor="start" x="440.00000000000006" y="70" >¹2022-05-01 00:00:00 UTC in Months</text><line  class="poloto_axis_lines" stroke="black" x1="212.15469613259847" x2="212.15469613259847" y1="400" y2="405" /><line  class="poloto_tick_line" stroke="black" x1="212.15469613259847" x2="212.15469613259847" y1="400" y2="100.00000000000006" /><text  class="poloto_tick_labels poloto_text" dominant-baseline="start" text-anchor="middle" x="212.15469613259847" y="430" >2022 May¹</text><line  class="poloto_axis_lines" stroke="black" x1="296.4088397790074" x2="296.4088397790074" y1="400" y2="405" /><line  class="poloto_tick_line" stroke="black" x1="296.4088397790074" x2="296.4088397790074" y1="400" y2="100.00000000000006" /><text  class="poloto_tick_labels poloto_text" dominant-baseline="start" text-anchor="middle" x="296.4088397790074" y="430" >2022 Jul</text><line  class="poloto_axis_lines" stroke="black" x1="382.0441988950297" x2="382.0441988950297" y1="400" y2="405" /><line  class="poloto_tick_line" stroke="black" x1="382.0441988950297" x2="382.0441988950297" y1="400" y2="100.00000000000006" /><text  class="poloto_tick_labels poloto_text" dominant-baseline="start" text-anchor="middle" x="382.0441988950297" y="430" >2022 Sep</text><line  class="poloto_axis_lines" stroke="black" x1="466.2983425414386" x2="466.2983425414386" y1="400" y2="405" /><line  class="poloto_tick_line" stroke="black" x1="466.2983425414386" x2="466.2983425414386" y1="400" y2="100.00000000000006" /><text  class="poloto_tick_labels poloto_text" dominant-baseline="start" text-anchor="middle" x="466.2983425414386" y="430" >2022 Nov</text><line  class="poloto_axis_lines" stroke="black" x1="550.5524861878475" x2="550.5524861878475" y1="400" y2="405" /><line  class="poloto_tick_line" stroke="black" x1="550.5524861878475" x2="550.5524861878475" y1="400" y2="100.00000000000006" /><text  class="poloto_tick_labels poloto_text" dominant-baseline="start" text-anchor="middle" x="550.5524861878475" y="430" >2023 Jan</text><line  class="poloto_axis_lines" stroke="black" x1="632.0441988950297" x2="632.0441988950297" y1="400" y2="405" /><line  class="poloto_tick_line" stroke="black" x1="632.0441988950297" x2="632.0441988950297" y1="400" y2="100.00000000000006" /><text  class="poloto_tick_labels poloto_text" dominant-baseline="start" text-anchor="middle" x="632.0441988950297" y="430" >2023 Mar</text><path  stroke="black" fill="none" class="poloto_axis_lines" d=" M 150 400 L 650 400" /><path  stroke="black" fill="none" class="poloto_axis_lines" d=" M 150 400 L 150 100.00000000000006" /></svg>