<svg class="poloto" width="800" height="500" viewBox="0 0 800 500" xmlns="http://www.w3.org/2000/svg"><style>.poloto{stroke-linecap:round;stroke-linejoin:round;font-family:Roboto,sans-serif;font-size:16px;}.poloto_background{fill:#262626;}.poloto_scatter{stroke-width:7}.poloto_tick_line{stroke:dimgray;stroke-width:0.5}.poloto_line{stroke-width:2}.poloto_text{fill: white;}.poloto_axis_lines{stroke: white;stroke-width:3;fill:none;stroke-dasharray:none}.poloto_title{font-size:24px;dominant-baseline:start;text-anchor:middle;}.poloto_xname{font-size:24px;dominant-baseline:start;text-anchor:middle;}.poloto_yname{font-size:24px;dominant-baseline:start;text-anchor:middle;}.poloto0stroke{stroke:blue;}.poloto1stroke{stroke:red;}.poloto2stroke{stroke:green;}.poloto3stroke{stroke:gold;}.poloto4stroke{stroke:aqua;}.poloto5stroke{stroke:lime;}.poloto6stroke{stroke:orange;}.poloto7stroke{stroke:chocolate;}.poloto0fill{fill:blue;}.poloto1fill{fill:red;}.poloto2fill{fill:green;}.poloto3fill{fill:gold;}.poloto4fill{fill:aqua;}.poloto5fill{fill:lime;}.poloto6fill{fill:orange;}.poloto7fill{fill:chocolate;}</style><circle  r="1e5" class="poloto_background" /><text  class="poloto_text poloto_legend_text" x="675" y="100" >Refinance 15</text><line  class="poloto_line poloto_legend_icon poloto0stroke poloto0legend" stroke="black" x1="680" x2="730" y1="81.25" y2="81.25" /><path  class="poloto_line poloto0stroke" fill="none" stroke="black" d=" M 150.00 392.46 L 151.63 400.00 L 156.51 389.32 L 158.14 380.17 L 159.77 389.32 L 159.77 389.32 L 163.03 358.81 L 167.92 357.20 L 169.54 367.88 L 171.17 344.83 L 172.80 346.44 L 174.43 341.61 L 179.32 343.22 L 180.94 336.78 L 180.94 336.78 L 184.20 337.37 L 185.83 314.32 L 190.72 324.32 L 192.35 327.54 L 193.97 327.54 L 195.60 326.69 L 197.23 321.78 L 203.75 278.73 L 205.37 297.88 L 207.00 283.05 L 208.63 277.29 L 208.63 277.29 L 215.15 299.58 L 218.40 303.64 L 220.03 294.58 L 224.92 283.81 L 226.55 305.25 L 228.18 294.58 L 228.18 294.58 L 231.43 292.88 L 236.32 296.19 L 237.95 306.86 L 237.95 306.86 L 239.58 297.80 L 241.21 308.56 L 242.83 292.88 L 247.72 325.08 L 249.35 324.32 L 250.98 306.86 L 250.98 306.86 L 252.61 314.32 L 254.23 317.63 L 259.12 317.63 L 260.75 329.15 L 262.38 329.15 L 264.01 329.15 L 265.64 329.15 L 272.15 317.63 L 273.78 314.32 L 275.41 315.93 L 277.04 315.93 L 277.04 315.93 L 283.55 305.25 L 285.18 305.25 L 286.81 296.19 L 293.32 281.36 L 294.95 250.76 L 296.58 254.15 L 298.21 254.15 L 299.84 275.59 L 304.72 254.15 L 306.35 254.15 L 307.98 273.90 L 309.61 277.29 L 316.12 277.29 L 317.75 275.59 L 319.38 280.59 L 321.01 285.51 L 322.64 296.19 L 329.15 303.64 L 330.78 294.58 L 332.41 287.12 L 334.04 283.81 L 338.93 285.51 L 342.18 285.51 L 343.81 283.81 L 350.33 282.20 L 350.33 282.20 L 350.33 282.20 L 350.33 282.20 L 350.33 282.20 L 350.33 282.20 L 353.58 282.20 L 353.58 282.20 L 353.58 282.20 L 353.58 282.20 L 353.58 282.20 L 353.58 282.20 L 361.73 294.58 L 364.98 297.80 L 366.61 325.93 L 368.24 329.15 L 373.13 329.15 L 374.76 327.54 L 376.38 305.25 L 378.01 299.49 L 379.64 285.51 L 384.53 296.19 L 384.53 296.19 L 386.16 287.12 L 389.41 296.19 L 389.41 296.19 L 397.56 296.19 L 399.19 262.46 L 400.81 282.20 L 407.33 248.39 L 410.59 248.39 L 410.59 248.39 L 413.84 260.76 L 420.36 254.15 L 420.36 254.15 L 420.36 254.15 L 420.36 254.15 L 420.36 254.15 L 420.36 254.15 L 420.36 254.15 L 420.36 254.15 L 420.36 254.15 L 425.24 254.15 L 435.02 232.63 L 441.53 235.17 L 441.53 235.17 L 446.42 235.17 L 452.93 235.17 L 454.56 235.17 L 454.56 235.17 L 454.56 235.17 L 454.56 235.17 L 454.56 235.17 L 475.73 235.17 L 477.36 235.17 L 487.13 139.75 L 488.76 130.68 L 490.39 130.68 L 549.02 159.15 L 555.54 159.15 L 557.17 159.15 L 558.79 175.51 L 562.05 184.49 L 562.05 184.49 L 568.57 184.49 L 570.20 184.49 L 571.82 184.49 L 573.45 184.49 L 578.34 184.49 L 579.97 184.49 L 583.22 184.49 L 584.85 184.49 L 589.74 184.49 L 591.37 184.49 L 591.37 184.49 L 596.25 184.49 L 601.14 184.49 L 602.77 184.49 L 604.40 184.49 L 606.03 184.49 L 607.65 184.49 L 614.17 209.15 L 615.80 180.68 L 617.43 159.15 L 619.06 169.92 L 623.94 169.92 L 625.57 169.92 L 625.57 169.92 L 628.83 193.05 L 630.46 193.05 L 635.34 193.05 L 636.97 193.05 L 638.60 193.05 L 640.23 193.05 L 641.86 193.05 L 641.86 193.05 L 641.86 193.05 L 641.86 193.05 L 650.00 193.05" /><text  class="poloto_text poloto_legend_text" x="675" y="150" >Refinance 20</text><line  class="poloto_line poloto_legend_icon poloto1stroke poloto1legend" stroke="black" x1="680" x2="730" y1="131.25" y2="131.25" /><path  class="poloto_line poloto1stroke" fill="none" stroke="black" d=" M 150.00 345.68 L 151.63 368.31 L 156.51 334.58 L 158.14 324.24 L 159.77 333.73 L 159.77 333.73 L 163.03 304.07 L 167.92 301.53 L 169.54 312.29 L 171.17 300.25 L 172.80 311.02 L 174.43 290.85 L 179.32 321.69 L 180.94 290.85 L 180.94 290.85 L 184.20 290.85 L 184.20 290.85 L 190.72 250.17 L 192.35 282.71 L 193.97 290.85 L 195.60 301.53 L 197.23 280.59 L 203.75 260.00 L 205.37 257.37 L 207.00 252.12 L 208.63 240.08 L 213.52 245.34 L 215.15 268.14 L 218.40 260.00 L 220.03 257.37 L 224.92 248.81 L 226.55 258.73 L 228.18 258.73 L 228.18 258.73 L 231.43 258.73 L 236.32 260.00 L 237.95 281.44 L 237.95 281.44 L 239.58 269.41 L 241.21 289.58 L 242.83 281.44 L 247.72 282.71 L 249.35 281.44 L 250.98 281.44 L 250.98 281.44 L 252.61 282.71 L 254.23 289.58 L 259.12 290.85 L 260.75 294.66 L 262.38 294.66 L 264.01 294.66 L 265.64 294.66 L 272.15 289.58 L 273.78 278.81 L 275.41 281.44 L 277.04 281.44 L 277.04 281.44 L 283.55 268.14 L 285.18 270.68 L 286.81 261.27 L 293.32 215.85 L 294.95 197.03 L 296.58 207.80 L 298.21 215.85 L 299.84 238.56 L 304.72 225.17 L 306.35 218.47 L 307.98 239.92 L 309.61 250.17 L 316.12 250.17 L 317.75 238.56 L 319.38 249.32 L 321.01 260.00 L 322.64 272.03 L 329.15 280.08 L 330.78 269.41 L 332.41 258.73 L 334.04 251.44 L 338.93 257.37 L 342.18 260.00 L 343.81 258.73 L 350.33 260.00 L 350.33 260.00 L 350.33 260.00 L 350.33 260.00 L 350.33 260.00 L 350.33 260.00 L 350.33 260.00 L 350.33 260.00 L 350.33 260.00 L 350.33 260.00 L 350.33 260.00 L 350.33 260.00 L 361.73 280.08 L 364.98 282.71 L 366.61 301.53 L 368.24 304.07 L 373.13 301.27 L 374.76 301.27 L 376.38 290.85 L 378.01 294.66 L 379.64 278.81 L 384.53 270.68 L 384.53 270.68 L 386.16 270.68 L 389.41 281.44 L 389.41 281.44 L 397.56 278.81 L 399.19 260.00 L 400.81 260.00 L 407.33 246.19 L 410.59 234.58 L 410.59 234.58 L 413.84 247.54 L 420.36 215.85 L 420.36 215.85 L 420.36 215.85 L 420.36 215.85 L 420.36 215.85 L 420.36 215.85 L 420.36 215.85 L 420.36 215.85 L 420.36 215.85 L 425.24 215.85 L 435.02 202.37 L 441.53 203.73 L 444.79 203.73 L 446.42 203.73 L 446.42 203.73 L 454.56 203.73 L 456.19 203.73 L 456.19 203.73 L 456.19 203.73 L 456.19 203.73 L 475.73 203.73 L 477.36 203.73 L 487.13 118.81 L 488.76 102.97 L 488.76 102.97 L 552.28 155.34 L 555.54 155.34 L 557.17 155.34 L 560.42 174.15 L 562.05 175.51 L 562.05 175.51 L 568.57 175.51 L 570.20 175.51 L 571.82 175.51 L 573.45 175.51 L 578.34 175.51 L 579.97 175.51 L 583.22 175.51 L 584.85 175.51 L 589.74 175.51 L 591.37 175.51 L 591.37 175.51 L 596.25 175.51 L 601.14 175.51 L 602.77 175.51 L 604.40 175.51 L 606.03 175.51 L 607.65 175.51 L 614.17 156.36 L 615.80 145.93 L 617.43 144.58 L 619.06 147.37 L 623.94 147.37 L 625.57 147.37 L 625.57 147.37 L 628.83 167.46 L 630.46 167.46 L 635.34 167.46 L 636.97 167.46 L 638.60 167.46 L 640.23 167.46 L 641.86 167.46 L 641.86 167.46 L 648.37 167.46 L 648.37 167.46 L 650.00 167.46" /><text  class="poloto_text poloto_legend_text" x="675" y="200" >Refinance 30</text><line  class="poloto_line poloto_legend_icon poloto2stroke poloto2legend" stroke="black" x1="680" x2="730" y1="181.25" y2="181.25" /><path  class="poloto_line poloto2stroke" fill="none" stroke="black" d=" M 150.00 343.31 L 151.63 351.36 L 156.51 338.81 L 158.14 328.98 L 159.77 330.85 L 159.77 330.85 L 163.03 310.25 L 167.92 308.47 L 169.54 319.15 L 171.17 307.54 L 172.80 318.22 L 174.43 297.71 L 179.32 307.54 L 180.94 286.95 L 182.57 286.95 L 184.20 286.02 L 185.83 260.00 L 190.72 264.58 L 192.35 276.27 L 193.97 286.95 L 195.60 277.20 L 197.23 265.51 L 203.75 256.61 L 205.37 242.12 L 207.00 240.17 L 208.63 238.14 L 213.52 242.12 L 215.15 258.73 L 218.40 256.61 L 220.03 254.66 L 224.92 244.07 L 226.55 255.59 L 228.18 244.07 L 228.18 244.07 L 231.43 244.07 L 236.32 246.02 L 237.95 264.58 L 237.95 264.58 L 239.58 255.59 L 241.21 256.61 L 242.83 257.54 L 247.72 265.51 L 249.35 256.61 L 250.98 256.61 L 250.98 256.61 L 252.61 266.44 L 254.23 267.46 L 259.12 268.39 L 260.75 277.20 L 262.38 277.20 L 264.01 279.07 L 265.64 279.07 L 272.15 275.25 L 273.78 264.58 L 275.41 266.44 L 277.04 265.51 L 277.04 265.51 L 283.55 255.59 L 285.18 255.59 L 286.81 245.00 L 293.32 202.12 L 294.95 171.78 L 296.58 190.34 L 298.21 202.12 L 299.84 212.80 L 304.72 203.05 L 306.35 202.12 L 307.98 221.61 L 309.61 223.56 L 316.12 223.56 L 317.75 211.86 L 319.38 221.61 L 321.01 232.29 L 322.64 255.59 L 329.15 256.61 L 330.78 245.00 L 332.41 224.58 L 334.04 221.61 L 338.93 241.10 L 342.18 223.56 L 343.81 222.54 L 350.33 242.12 L 350.33 242.12 L 350.33 242.12 L 350.33 242.12 L 350.33 242.12 L 350.33 242.12 L 353.58 242.12 L 353.58 242.12 L 353.58 242.12 L 353.58 242.12 L 353.58 242.12 L 353.58 242.12 L 361.73 254.66 L 364.98 256.61 L 366.61 275.25 L 368.24 287.88 L 373.13 286.95 L 374.76 286.95 L 376.38 265.51 L 378.01 268.39 L 379.64 254.66 L 384.53 265.51 L 384.53 265.51 L 386.16 257.54 L 389.41 266.44 L 389.41 266.44 L 397.56 264.58 L 399.19 246.02 L 400.81 245.00 L 407.33 220.59 L 410.59 211.86 L 410.59 211.86 L 413.84 222.54 L 420.36 210.85 L 420.36 210.85 L 420.36 210.85 L 420.36 210.85 L 420.36 210.85 L 420.36 210.85 L 420.36 210.85 L 420.36 210.85 L 425.24 210.85 L 425.24 209.83 L 435.02 197.03 L 441.53 175.51 L 441.53 175.51 L 446.42 175.51 L 446.42 175.51 L 454.56 175.51 L 456.19 175.51 L 456.19 175.51 L 456.19 175.51 L 456.19 175.51 L 475.73 175.51 L 477.36 175.51 L 487.13 127.03 L 488.76 100.00 L 488.76 100.00 L 552.28 146.44 L 555.54 146.44 L 557.17 146.44 L 558.79 150.76 L 562.05 160.59 L 562.05 160.59 L 568.57 160.59 L 570.20 160.59 L 571.82 160.59 L 573.45 160.59 L 578.34 160.59 L 579.97 160.59 L 583.22 160.59 L 584.85 160.59 L 589.74 160.59 L 591.37 160.59 L 591.37 160.59 L 596.25 160.59 L 601.14 160.59 L 602.77 160.59 L 604.40 160.59 L 606.03 160.59 L 607.65 160.59 L 614.17 144.24 L 615.80 152.88 L 617.43 132.37 L 619.06 152.88 L 623.94 152.88 L 625.57 152.88 L 625.57 152.88 L 628.83 152.88 L 630.46 152.88 L 635.34 152.88 L 636.97 152.88 L 638.60 152.88 L 640.23 152.88 L 641.86 152.88 L 641.86 152.88 L 648.37 152.88 L 648.37 152.88 L 650.00 152.88" /><text  class="poloto_labels poloto_text poloto_title" x="400" y="37.5" >lower.com purchase rates</text><text  class="poloto_labels poloto_text poloto_xname" x="400" y="481.25" >Date</text><text  class="poloto_labels poloto_text poloto_yname" transform="rotate(-90,37.5,250)" x="37.5" y="250" >Rate (%)</text><text  class="poloto_tick_labels poloto_text" dominant-baseline="middle" text-anchor="start" x="150" y="70" ></text><line  class="poloto_axis_lines" stroke="black" x1="150" x2="144" y1="390.2542372881356" y2="390.2542372881356" /><line  class="poloto_tick_line" stroke="black" x1="150" x2="650" y1="390.2542372881356" y2="390.2542372881356" /><text  class="poloto_tick_labels poloto_text" dominant-baseline="middle" text-anchor="end" x="135" y="390.2542372881356" >3.625</text><line  class="poloto_axis_lines" stroke="black" x1="150" x2="144" y1="379.66101694915255" y2="379.66101694915255" /><line  class="poloto_tick_line" stroke="black" x1="150" x2="650" y1="379.66101694915255" y2="379.66101694915255" /><text  class="poloto_tick_labels poloto_text" dominant-baseline="middle" text-anchor="end" x="135" y="379.66101694915255" >3.75</text><line  class="poloto_axis_lines" stroke="black" x1="150" x2="144" y1="369.06779661016947" y2="369.06779661016947" /><line  class="poloto_tick_line" stroke="black" x1="150" x2="650" y1="369.06779661016947" y2="369.06779661016947" /><text  class="poloto_tick_labels poloto_text" dominant-baseline="middle" text-anchor="end" x="135" y="369.06779661016947" >3.875</text><line  class="poloto_axis_lines" stroke="black" x1="150" x2="144" y1="358.47457627118644" y2="358.47457627118644" /><line  class="poloto_tick_line" stroke="black" x1="150" x2="650" y1="358.47457627118644" y2="358.47457627118644" /><text  class="poloto_tick_labels poloto_text" dominant-baseline="middle" text-anchor="end" x="135" y="358.47457627118644" >4</text><line  class="poloto_axis_lines" stroke="black" x1="150" x2="144" y1="347.8813559322034" y2="347.8813559322034" /><line  class="poloto_tick_line" stroke="black" x1="150" x2="650" y1="347.8813559322034" y2="347.8813559322034" /><text  class="poloto_tick_labels poloto_text" dominant-baseline="middle" text-anchor="end" x="135" y="347.8813559322034" >4.125</text><line  class="poloto_axis_lines" stroke="black" x1="150" x2="144" y1="337.2881355932203" y2="337.2881355932203" /><line  class="poloto_tick_line" stroke="black" x1="150" x2="650" y1="337.2881355932203" y2="337.2881355932203" /><text  class="poloto_tick_labels poloto_text" dominant-baseline="middle" text-anchor="end" x="135" y="337.2881355932203" >4.25</text><line  class="poloto_axis_lines" stroke="black" x1="150" x2="144" y1="326.6949152542373" y2="326.6949152542373" /><line  class="poloto_tick_line" stroke="black" x1="150" x2="650" y1="326.6949152542373" y2="326.6949152542373" /><text  class="poloto_tick_labels poloto_text" dominant-baseline="middle" text-anchor="end" x="135" y="326.6949152542373" >4.375</text><line  class="poloto_axis_lines" stroke="black" x1="150" x2="144" y1="316.10169491525426" y2="316.10169491525426" /><line  class="poloto_tick_line" stroke="black" x1="150" x2="650" y1="316.10169491525426" y2="316.10169491525426" /><text  class="poloto_tick_labels poloto_text" dominant-baseline="middle" text-anchor="end" x="135" y="316.10169491525426" >4.5</text><line  class="poloto_axis_lines" stroke="black" x1="150" x2="144" y1="305.50847457627117" y2="305.50847457627117" /><line  class="poloto_tick_line" stroke="black" x1="150" x2="650" y1="305.50847457627117" y2="305.50847457627117" /><text  class="poloto_tick_labels poloto_text" dominant-baseline="middle" text-anchor="end" x="135" y="305.50847457627117" >4.625</text><line  class="poloto_axis_lines" stroke="black" x1="150" x2="144" y1="294.91525423728814" y2="294.91525423728814" /><line  class="poloto_tick_line" stroke="black" x1="150" x2="650" y1="294.91525423728814" y2="294.91525423728814" /><text  class="poloto_tick_labels poloto_text" dominant-baseline="middle" text-anchor="end" x="135" y="294.91525423728814" >4.75</text><line  class="poloto_axis_lines" stroke="black" x1="150" x2="144" y1="284.3220338983051" y2="284.3220338983051" /><line  class="poloto_tick_line" stroke="black" x1="150" x2="650" y1="284.3220338983051" y2="284.3220338983051" /><text  class="poloto_tick_labels poloto_text" dominant-baseline="middle" text-anchor="end" x="135" y="284.3220338983051" >4.875</text><line  class="poloto_axis_lines" stroke="black" x1="150" x2="144" y1="273.728813559322" y2="273.728813559322" /><line  class="poloto_tick_line" stroke="black" x1="150" x2="650" y1="273.728813559322" y2="273.728813559322" /><text  class="poloto_tick_labels poloto_text" dominant-baseline="middle" text-anchor="end" x="135" y="273.728813559322" >5</text><line  class="poloto_axis_lines" stroke="black" x1="150" x2="144" y1="263.135593220339" y2="263.135593220339" /><line  class="poloto_tick_line" stroke="black" x1="150" x2="650" y1="263.135593220339" y2="263.135593220339" /><text  class="poloto_tick_labels poloto_text" dominant-baseline="middle" text-anchor="end" x="135" y="263.135593220339" >5.125</text><line  class="poloto_axis_lines" stroke="black" x1="150" x2="144" y1="252.54237288135596" y2="252.54237288135596" /><line  class="poloto_tick_line" stroke="black" x1="150" x2="650" y1="252.54237288135596" y2="252.54237288135596" /><text  class="poloto_tick_labels poloto_text" dominant-baseline="middle" text-anchor="end" x="135" y="252.54237288135596" >5.25</text><line  class="poloto_axis_lines" stroke="black" x1="150" x2="144" y1="241.94915254237287" y2="241.94915254237287" /><line  class="poloto_tick_line" stroke="black" x1="150" x2="650" y1="241.94915254237287" y2="241.94915254237287" /><text  class="poloto_tick_labels poloto_text" dominant-baseline="middle" text-anchor="end" x="135" y="241.94915254237287" >5.375</text><line  class="poloto_axis_lines" stroke="black" x1="150" x2="144" y1="231.35593220338984" y2="231.35593220338984" /><line  class="poloto_tick_line" stroke="black" x1="150" x2="650" y1="231.35593220338984" y2="231.35593220338984" /><text  class="poloto_tick_labels poloto_text" dominant-baseline="middle" text-anchor="end" x="135" y="231.35593220338984" >5.5</text><line  class="poloto_axis_lines" stroke="black" x1="150" x2="144" y1="220.7627118644068" y2="220.7627118644068" /><line  class="poloto_tick_line" stroke="black" x1="150" x2="650" y1="220.7627118644068" y2="220.7627118644068" /><text  class="poloto_tick_labels poloto_text" dominant-baseline="middle" text-anchor="end" x="135" y="220.7627118644068" >5.625</text><line  class="poloto_axis_lines" stroke="black" x1="150" x2="144" y1="210.16949152542372" y2="210.16949152542372" /><line  class="poloto_tick_line" stroke="black" x1="150" x2="650" y1="210.16949152542372" y2="210.16949152542372" /><text  class="poloto_tick_labels poloto_text" dominant-baseline="middle" text-anchor="end" x="135" y="210.16949152542372" >5.75</text><line  class="poloto_axis_lines" stroke="black" x1="150" x2="144" y1="199.5762711864407" y2="199.5762711864407" /><line  class="poloto_tick_line" stroke="black" x1="150" x2="650" y1="199.5762711864407" y2="199.5762711864407" /><text  class="poloto_tick_labels poloto_text" dominant-baseline="middle" text-anchor="end" x="135" y="199.5762711864407" >5.875</text><line  class="poloto_axis_lines" stroke="black" x1="150" x2="144" y1="188.98305084745766" y2="188.98305084745766" /><line  class="poloto_tick_line" stroke="black" x1="150" x2="650" y1="188.98305084745766" y2="188.98305084745766" /><text  class="poloto_tick_labels poloto_text" dominant-baseline="middle" text-anchor="end" x="135" y="188.98305084745766" >6</text><line  class="poloto_axis_lines" stroke="black" x1="150" x2="144" y1="178.38983050847457" y2="178.38983050847457" /><line  class="poloto_tick_line" stroke="black" x1="150" x2="650" y1="178.38983050847457" y2="178.38983050847457" /><text  class="poloto_tick_labels poloto_text" dominant-baseline="middle" text-anchor="end" x="135" y="178.38983050847457" >6.125</text><line  class="poloto_axis_lines" stroke="black" x1="150" x2="144" y1="167.7966101694915" y2="167.7966101694915" /><line  class="poloto_tick_line" stroke="black" x1="150" x2="650" y1="167.7966101694915" y2="167.7966101694915" /><text  class="poloto_tick_labels poloto_text" dominant-baseline="middle" text-anchor="end" x="135" y="167.7966101694915" >6.25</text><line  class="poloto_axis_lines" stroke="black" x1="150" x2="144" y1="157.2033898305085" y2="157.2033898305085" /><line  class="poloto_tick_line" stroke="black" x1="150" x2="650" y1="157.2033898305085" y2="157.2033898305085" /><text  class="poloto_tick_labels poloto_text" dominant-baseline="middle" text-anchor="end" x="135" y="157.2033898305085" >6.375</text><line  class="poloto_axis_lines" stroke="black" x1="150" x2="144" y1="146.61016949152543" y2="146.61016949152543" /><line  class="poloto_tick_line" stroke="black" x1="150" x2="650" y1="146.61016949152543" y2="146.61016949152543" /><text  class="poloto_tick_labels poloto_text" dominant-baseline="middle" text-anchor="end" x="135" y="146.61016949152543" >6.5</text><line  class="poloto_axis_lines" stroke="black" x1="150" x2="144" y1="136.01694915254234" y2="136.01694915254234" /><line  class="poloto_tick_line" stroke="black" x1="150" x2="650" y1="136.01694915254234" y2="136.01694915254234" /><text  class="poloto_tick_labels poloto_text" dominant-baseline="middle" text-anchor="end" x="135" y="136.01694915254234" >6.625</text><line  class="poloto_axis_lines" stroke="black" x1="150" x2="144" y1="125.42372881355936" y2="125.42372881355936" /><line  class="poloto_tick_line" stroke="black" x1="150" x2="650" y1="125.42372881355936" y2="125.42372881355936" /><text  class="poloto_tick_labels poloto_text" dominant-baseline="middle" text-anchor="end" x="135" y="125.42372881355936" >6.75</text><line  class="poloto_axis_lines" stroke="black" x1="150" x2="144" y1="114.83050847457628" y2="114.83050847457628" /><line  class="poloto_tick_line" stroke="black" x1="150" x2="650" y1="114.83050847457628" y2="114.83050847457628" /><text  class="poloto_tick_labels poloto_text" dominant-baseline="middle" text-anchor="end" x="135" y="114.83050847457628" >6.875</text><line  class="poloto_axis_lines" stroke="black" x1="150" x2="144" y1="104.23728813559319" y2="104.23728813559319" /><line  class="poloto_tick_line" stroke="black" x1="150" x2="650" y1="104.23728813559319" y2="104.23728813559319" /><text  class="poloto_tick_labels poloto_text" dominant-baseline="middle" text-anchor="end" x="135" y="104.23728813559319" >7</text><text  class="poloto_tick_labels poloto_text" dominant-baseline="middle" text-anchor="start" x="440.00000000000006" y="70" >¹2022-05-01 00:00:00 UTC in Months</text><line  class="poloto_axis_lines" stroke="black" x1="223.28990228013208" x2="223.28990228013208" y1="400" y2="405" /><line  class="poloto_tick_line" stroke="black" x1="223.28990228013208" x2="223.28990228013208" y1="400" y2="100" /><text  class="poloto_tick_labels poloto_text" dominant-baseline="start" text-anchor="middle" x="223.28990228013208" y="430" >2022 May¹</text><line  class="poloto_axis_lines" stroke="black" x1="322.6384364820842" x2="322.6384364820842" y1="400" y2="405" /><line  class="poloto_tick_line" stroke="black" x1="322.6384364820842" x2="322.6384364820842" y1="400" y2="100" /><text  class="poloto_tick_labels poloto_text" dominant-baseline="start" text-anchor="middle" x="322.6384364820842" y="430" >2022 Jul</text><line  class="poloto_axis_lines" stroke="black" x1="423.6156351791542" x2="423.6156351791542" y1="400" y2="405" /><line  class="poloto_tick_line" stroke="black" x1="423.6156351791542" x2="423.6156351791542" y1="400" y2="100" /><text  class="poloto_tick_labels poloto_text" dominant-baseline="start" text-anchor="middle" x="423.6156351791542" y="430" >2022 Sep</text><line  class="poloto_axis_lines" stroke="black" x1="522.96416938111" x2="522.96416938111" y1="400" y2="405" /><line  class="poloto_tick_line" stroke="black" x1="522.96416938111" x2="522.96416938111" y1="400" y2="100" /><text  class="poloto_tick_labels poloto_text" dominant-baseline="start" text-anchor="middle" x="522.96416938111" y="430" >2022 Nov</text><line  class="poloto_axis_lines" stroke="black" x1="622.3127035830621" x2="622.3127035830621" y1="400" y2="405" /><line  class="poloto_tick_line" stroke="black" x1="622.3127035830621" x2="622.3127035830621" y1="400" y2="100" /><text  class="poloto_tick_labels poloto_text" dominant-baseline="start" text-anchor="middle" x="622.3127035830621" y="430" >2023 Jan</text><path  stroke="black" fill="none" class="poloto_axis_lines" d=" M 150 400 L 650 400" /><path  stroke="black" fill="none" class="poloto_axis_lines" d=" M 150 400 L 150 100" /></svg>