<svg class="poloto" width="800" height="500" viewBox="0 0 800 500" xmlns="http://www.w3.org/2000/svg"><style>.poloto{stroke-linecap:round;stroke-linejoin:round;font-family:Roboto,sans-serif;font-size:16px;}.poloto_background{fill:#262626;}.poloto_scatter{stroke-width:7}.poloto_tick_line{stroke:dimgray;stroke-width:0.5}.poloto_line{stroke-width:2}.poloto_text{fill: white;}.poloto_axis_lines{stroke: white;stroke-width:3;fill:none;stroke-dasharray:none}.poloto_title{font-size:24px;dominant-baseline:start;text-anchor:middle;}.poloto_xname{font-size:24px;dominant-baseline:start;text-anchor:middle;}.poloto_yname{font-size:24px;dominant-baseline:start;text-anchor:middle;}.poloto0stroke{stroke:blue;}.poloto1stroke{stroke:red;}.poloto2stroke{stroke:green;}.poloto3stroke{stroke:gold;}.poloto4stroke{stroke:aqua;}.poloto5stroke{stroke:lime;}.poloto6stroke{stroke:orange;}.poloto7stroke{stroke:chocolate;}.poloto0fill{fill:blue;}.poloto1fill{fill:red;}.poloto2fill{fill:green;}.poloto3fill{fill:gold;}.poloto4fill{fill:aqua;}.poloto5fill{fill:lime;}.poloto6fill{fill:orange;}.poloto7fill{fill:chocolate;}</style><circle  r="1e5" class="poloto_background" /><text  class="poloto_text poloto_legend_text" x="675" y="100" >Refinance 15</text><line  class="poloto_line poloto_legend_icon poloto0stroke poloto0legend" stroke="black" x1="680" x2="730" y1="81.25" y2="81.25" /><path  class="poloto_line poloto0stroke" fill="none" stroke="black" d=" M 150.00 393.13 L 151.40 400.00 L 155.59 390.27 L 156.98 381.94 L 158.38 390.27 L 158.38 390.27 L 161.17 362.48 L 165.36 361.01 L 166.76 370.74 L 168.16 349.74 L 169.55 351.21 L 170.95 346.81 L 175.14 348.28 L 176.54 342.41 L 176.54 342.41 L 179.33 342.95 L 180.73 321.95 L 184.92 331.06 L 186.31 333.99 L 187.71 333.99 L 189.11 333.22 L 190.50 328.74 L 196.09 289.53 L 197.49 306.97 L 198.88 293.46 L 200.28 288.21 L 200.28 288.21 L 205.87 308.52 L 208.66 312.22 L 210.06 303.96 L 214.25 294.16 L 215.64 313.69 L 217.04 303.96 L 217.04 303.96 L 219.83 302.42 L 224.02 305.43 L 225.42 315.16 L 225.42 315.16 L 226.82 306.90 L 228.21 316.70 L 229.61 302.42 L 233.80 331.76 L 235.20 331.06 L 236.59 315.16 L 236.59 315.16 L 237.99 321.95 L 239.39 324.96 L 243.58 324.96 L 244.97 335.46 L 246.37 335.46 L 247.77 335.46 L 249.16 335.46 L 254.75 324.96 L 256.15 321.95 L 257.54 323.42 L 258.94 323.42 L 258.94 323.42 L 264.53 313.69 L 265.92 313.69 L 267.32 305.43 L 272.91 291.92 L 274.30 264.05 L 275.70 267.14 L 277.09 267.14 L 278.49 286.67 L 282.68 267.14 L 284.08 267.14 L 285.47 285.13 L 286.87 288.21 L 292.46 288.21 L 293.85 286.67 L 295.25 291.22 L 296.65 295.70 L 298.04 305.43 L 303.63 312.22 L 305.03 303.96 L 306.42 297.17 L 307.82 294.16 L 312.01 295.70 L 314.80 295.70 L 316.20 294.16 L 321.79 292.69 L 321.79 292.69 L 321.79 292.69 L 321.79 292.69 L 321.79 292.69 L 321.79 292.69 L 324.58 292.69 L 324.58 292.69 L 324.58 292.69 L 324.58 292.69 L 324.58 292.69 L 324.58 292.69 L 331.56 303.96 L 334.36 306.90 L 335.75 332.53 L 337.15 335.46 L 341.34 335.46 L 342.74 333.99 L 344.13 313.69 L 345.53 308.44 L 346.93 295.70 L 351.12 305.43 L 351.12 305.43 L 352.51 297.17 L 355.31 305.43 L 355.31 305.43 L 362.29 305.43 L 363.69 274.70 L 365.08 292.69 L 370.67 261.89 L 373.46 261.89 L 373.46 261.89 L 376.26 273.16 L 381.84 267.14 L 381.84 267.14 L 381.84 267.14 L 381.84 267.14 L 381.84 267.14 L 381.84 267.14 L 381.84 267.14 L 381.84 267.14 L 381.84 267.14 L 386.03 267.14 L 394.41 247.53 L 400.00 249.85 L 400.00 249.85 L 404.19 249.85 L 409.78 249.85 L 411.17 249.85 L 411.17 249.85 L 411.17 249.85 L 411.17 249.85 L 411.17 249.85 L 429.33 249.85 L 430.73 249.85 L 439.11 162.92 L 440.50 154.66 L 441.90 154.66 L 492.18 180.60 L 497.77 180.60 L 499.16 180.60 L 500.56 195.50 L 503.35 203.68 L 503.35 203.68 L 508.94 203.68 L 510.34 203.68 L 511.73 203.68 L 513.13 203.68 L 517.32 203.68 L 518.72 203.68 L 521.51 203.68 L 522.91 203.68 L 527.09 203.68 L 528.49 203.68 L 528.49 203.68 L 532.68 203.68 L 536.87 203.68 L 538.27 203.68 L 539.66 203.68 L 541.06 203.68 L 542.46 203.68 L 548.04 226.15 L 549.44 200.21 L 550.84 180.60 L 552.23 190.40 L 556.42 190.40 L 557.82 190.40 L 557.82 190.40 L 560.61 211.48 L 562.01 211.48 L 566.20 211.48 L 567.60 211.48 L 568.99 211.48 L 570.39 211.48 L 571.79 211.48 L 571.79 211.48 L 571.79 211.48 L 571.79 211.48 L 578.77 211.48 L 581.56 211.48 L 585.75 211.48 L 587.15 211.48 L 589.94 211.48 L 591.34 211.48 L 596.93 211.48 L 598.32 211.48 L 599.72 211.48 L 601.12 239.27 L 605.31 245.45 L 606.70 209.93 L 608.10 221.28 L 609.50 219.74 L 610.89 201.75 L 615.08 161.07 L 616.48 161.07 L 617.88 161.07 L 619.27 162.61 L 620.67 170.79 L 624.86 162.61 L 626.26 162.61 L 627.65 151.26 L 629.05 161.07 L 630.45 141.46 L 636.03 151.26 L 637.43 152.80 L 638.83 143.08 L 640.22 149.64 L 644.41 155.97 L 645.81 152.80 L 647.21 151.26 L 648.60 151.26 L 650.00 162.61" /><text  class="poloto_text poloto_legend_text" x="675" y="150" >Refinance 20</text><line  class="poloto_line poloto_legend_icon poloto1stroke poloto1legend" stroke="black" x1="680" x2="730" y1="131.25" y2="131.25" /><path  class="poloto_line poloto1stroke" fill="none" stroke="black" d=" M 150.00 350.51 L 151.40 371.13 L 155.59 340.40 L 156.98 330.98 L 158.38 339.63 L 158.38 339.63 L 161.17 312.61 L 165.36 310.29 L 166.76 320.10 L 168.16 309.14 L 169.55 318.94 L 170.95 300.57 L 175.14 328.67 L 176.54 300.57 L 176.54 300.57 L 179.33 300.57 L 179.33 300.57 L 184.92 263.51 L 186.31 293.15 L 187.71 300.57 L 189.11 310.29 L 190.50 291.22 L 196.09 272.47 L 197.49 270.07 L 198.88 265.29 L 200.28 254.32 L 204.47 259.11 L 205.87 279.88 L 208.66 272.47 L 210.06 270.07 L 214.25 262.27 L 215.64 271.31 L 217.04 271.31 L 217.04 271.31 L 219.83 271.31 L 224.02 272.47 L 225.42 292.00 L 225.42 292.00 L 226.82 281.03 L 228.21 299.41 L 229.61 292.00 L 233.80 293.15 L 235.20 292.00 L 236.59 292.00 L 236.59 292.00 L 237.99 293.15 L 239.39 299.41 L 243.58 300.57 L 244.97 304.04 L 246.37 304.04 L 247.77 304.04 L 249.16 304.04 L 254.75 299.41 L 256.15 289.60 L 257.54 292.00 L 258.94 292.00 L 258.94 292.00 L 264.53 279.88 L 265.92 282.19 L 267.32 273.62 L 272.91 232.24 L 274.30 215.11 L 275.70 224.91 L 277.09 232.24 L 278.49 252.93 L 282.68 240.74 L 284.08 234.64 L 285.47 254.17 L 286.87 263.51 L 292.46 263.51 L 293.85 252.93 L 295.25 262.74 L 296.65 272.47 L 298.04 283.43 L 303.63 290.76 L 305.03 281.03 L 306.42 271.31 L 307.82 264.67 L 312.01 270.07 L 314.80 272.47 L 316.20 271.31 L 321.79 272.47 L 321.79 272.47 L 321.79 272.47 L 321.79 272.47 L 321.79 272.47 L 321.79 272.47 L 321.79 272.47 L 321.79 272.47 L 321.79 272.47 L 321.79 272.47 L 321.79 272.47 L 321.79 272.47 L 331.56 290.76 L 334.36 293.15 L 335.75 310.29 L 337.15 312.61 L 341.34 310.06 L 342.74 310.06 L 344.13 300.57 L 345.53 304.04 L 346.93 289.60 L 351.12 282.19 L 351.12 282.19 L 352.51 282.19 L 355.31 292.00 L 355.31 292.00 L 362.29 289.60 L 363.69 272.47 L 365.08 272.47 L 370.67 259.88 L 373.46 249.31 L 373.46 249.31 L 376.26 261.12 L 381.84 232.24 L 381.84 232.24 L 381.84 232.24 L 381.84 232.24 L 381.84 232.24 L 381.84 232.24 L 381.84 232.24 L 381.84 232.24 L 381.84 232.24 L 386.03 232.24 L 394.41 219.97 L 400.00 221.20 L 402.79 221.20 L 404.19 221.20 L 404.19 221.20 L 411.17 221.20 L 412.57 221.20 L 412.57 221.20 L 412.57 221.20 L 412.57 221.20 L 429.33 221.20 L 430.73 221.20 L 439.11 143.85 L 440.50 129.41 L 440.50 129.41 L 494.97 177.12 L 497.77 177.12 L 499.16 177.12 L 501.96 194.26 L 503.35 195.50 L 503.35 195.50 L 508.94 195.50 L 510.34 195.50 L 511.73 195.50 L 513.13 195.50 L 517.32 195.50 L 518.72 195.50 L 521.51 195.50 L 522.91 195.50 L 527.09 195.50 L 528.49 195.50 L 528.49 195.50 L 532.68 195.50 L 536.87 195.50 L 538.27 195.50 L 539.66 195.50 L 541.06 195.50 L 542.46 195.50 L 548.04 178.05 L 549.44 168.55 L 550.84 167.32 L 552.23 169.87 L 556.42 169.87 L 557.82 169.87 L 557.82 169.87 L 560.61 188.16 L 562.01 188.16 L 566.20 188.16 L 567.60 188.16 L 568.99 188.16 L 570.39 188.16 L 571.79 188.16 L 571.79 188.16 L 577.37 188.16 L 577.37 188.16 L 578.77 188.16 L 581.56 188.16 L 585.75 188.16 L 587.15 188.16 L 589.94 188.16 L 591.34 188.16 L 596.93 188.16 L 598.32 188.16 L 599.72 188.16 L 601.12 209.01 L 605.31 207.77 L 606.70 178.36 L 608.10 179.59 L 608.10 179.59 L 610.89 178.36 L 615.08 158.75 L 616.48 158.75 L 617.88 150.26 L 619.27 140.45 L 620.67 149.02 L 624.86 140.45 L 626.26 130.65 L 627.65 140.45 L 629.05 150.26 L 630.45 139.22 L 636.03 140.45 L 637.43 129.41 L 638.83 100.00 L 640.22 129.41 L 644.41 150.26 L 645.81 169.17 L 647.21 140.45 L 648.60 139.22 L 650.00 167.32" /><text  class="poloto_text poloto_legend_text" x="675" y="200" >Refinance 30</text><line  class="poloto_line poloto_legend_icon poloto2stroke poloto2legend" stroke="black" x1="680" x2="730" y1="181.25" y2="181.25" /><path  class="poloto_line poloto2stroke" fill="none" stroke="black" d=" M 150.00 348.35 L 151.40 355.69 L 155.59 344.26 L 156.98 335.31 L 158.38 337.00 L 158.38 337.00 L 161.17 318.24 L 165.36 316.62 L 166.76 326.35 L 168.16 315.77 L 169.55 325.50 L 170.95 306.82 L 175.14 315.77 L 176.54 297.01 L 177.93 297.01 L 179.33 296.17 L 180.73 272.47 L 184.92 276.63 L 186.31 287.29 L 187.71 297.01 L 189.11 288.14 L 190.50 277.48 L 196.09 269.38 L 197.49 256.18 L 198.88 254.40 L 200.28 252.55 L 204.47 256.18 L 205.87 271.31 L 208.66 269.38 L 210.06 267.60 L 214.25 257.95 L 215.64 268.45 L 217.04 257.95 L 217.04 257.95 L 219.83 257.95 L 224.02 259.73 L 225.42 276.63 L 225.42 276.63 L 226.82 268.45 L 228.21 269.38 L 229.61 270.23 L 233.80 277.48 L 235.20 269.38 L 236.59 269.38 L 236.59 269.38 L 237.99 278.33 L 239.39 279.26 L 243.58 280.11 L 244.97 288.14 L 246.37 288.14 L 247.77 289.84 L 249.16 289.84 L 254.75 286.36 L 256.15 276.63 L 257.54 278.33 L 258.94 277.48 L 258.94 277.48 L 264.53 268.45 L 265.92 268.45 L 267.32 258.80 L 272.91 219.74 L 274.30 192.10 L 275.70 209.01 L 277.09 219.74 L 278.49 229.46 L 282.68 220.59 L 284.08 219.74 L 285.47 237.49 L 286.87 239.27 L 292.46 239.27 L 293.85 228.62 L 295.25 237.49 L 296.65 247.22 L 298.04 268.45 L 303.63 269.38 L 305.03 258.80 L 306.42 240.20 L 307.82 237.49 L 312.01 255.25 L 314.80 239.27 L 316.20 238.34 L 321.79 256.18 L 321.79 256.18 L 321.79 256.18 L 321.79 256.18 L 321.79 256.18 L 321.79 256.18 L 324.58 256.18 L 324.58 256.18 L 324.58 256.18 L 324.58 256.18 L 324.58 256.18 L 324.58 256.18 L 331.56 267.60 L 334.36 269.38 L 335.75 286.36 L 337.15 297.86 L 341.34 297.01 L 342.74 297.01 L 344.13 277.48 L 345.53 280.11 L 346.93 267.60 L 351.12 277.48 L 351.12 277.48 L 352.51 270.23 L 355.31 278.33 L 355.31 278.33 L 362.29 276.63 L 363.69 259.73 L 365.08 258.80 L 370.67 236.57 L 373.46 228.62 L 373.46 228.62 L 376.26 238.34 L 381.84 227.69 L 381.84 227.69 L 381.84 227.69 L 381.84 227.69 L 381.84 227.69 L 381.84 227.69 L 381.84 227.69 L 381.84 227.69 L 386.03 227.69 L 386.03 226.76 L 394.41 215.11 L 400.00 195.50 L 400.00 195.50 L 404.19 195.50 L 404.19 195.50 L 411.17 195.50 L 412.57 195.50 L 412.57 195.50 L 412.57 195.50 L 412.57 195.50 L 429.33 195.50 L 430.73 195.50 L 439.11 151.34 L 440.50 126.71 L 440.50 126.71 L 494.97 169.02 L 497.77 169.02 L 499.16 169.02 L 500.56 172.95 L 503.35 181.91 L 503.35 181.91 L 508.94 181.91 L 510.34 181.91 L 511.73 181.91 L 513.13 181.91 L 517.32 181.91 L 518.72 181.91 L 521.51 181.91 L 522.91 181.91 L 527.09 181.91 L 528.49 181.91 L 528.49 181.91 L 532.68 181.91 L 536.87 181.91 L 538.27 181.91 L 539.66 181.91 L 541.06 181.91 L 542.46 181.91 L 548.04 167.01 L 549.44 174.88 L 550.84 156.20 L 552.23 174.88 L 556.42 174.88 L 557.82 174.88 L 557.82 174.88 L 560.61 174.88 L 562.01 174.88 L 566.20 174.88 L 567.60 174.88 L 568.99 174.88 L 570.39 174.88 L 571.79 174.88 L 571.79 174.88 L 577.37 174.88 L 577.37 174.88 L 578.77 174.88 L 581.56 174.88 L 585.75 174.88 L 587.15 174.88 L 589.94 174.88 L 591.34 174.88 L 596.93 174.88 L 598.32 174.88 L 599.72 174.88 L 601.12 224.91 L 605.31 215.11 L 606.70 175.89 L 608.10 205.30 L 609.50 175.89 L 610.89 166.01 L 615.08 156.20 L 616.48 156.20 L 617.88 147.32 L 619.27 137.52 L 620.67 146.40 L 624.86 146.40 L 626.26 135.59 L 627.65 127.71 L 629.05 137.52 L 630.45 128.72 L 636.03 127.71 L 637.43 116.91 L 638.83 116.91 L 640.22 126.71 L 644.41 127.71 L 645.81 117.91 L 647.21 125.78 L 648.60 117.91 L 650.00 147.32" /><text  class="poloto_labels poloto_text poloto_title" x="400" y="37.5" >lower.com purchase rates</text><text  class="poloto_labels poloto_text poloto_xname" x="400" y="481.25" >Date</text><text  class="poloto_labels poloto_text poloto_yname" transform="rotate(-90,37.5,250)" x="37.5" y="250" >Rate (%)</text><text  class="poloto_tick_labels poloto_text" dominant-baseline="middle" text-anchor="start" x="150" y="70" ></text><line  class="poloto_axis_lines" stroke="black" x1="150" x2="144" y1="391.12197632527017" y2="391.12197632527017" /><line  class="poloto_tick_line" stroke="black" x1="150" x2="650" y1="391.12197632527017" y2="391.12197632527017" /><text  class="poloto_tick_labels poloto_text" dominant-baseline="middle" text-anchor="end" x="135" y="391.12197632527017" >3.625</text><line  class="poloto_axis_lines" stroke="black" x1="150" x2="144" y1="381.4719505918682" y2="381.4719505918682" /><line  class="poloto_tick_line" stroke="black" x1="150" x2="650" y1="381.4719505918682" y2="381.4719505918682" /><text  class="poloto_tick_labels poloto_text" dominant-baseline="middle" text-anchor="end" x="135" y="381.4719505918682" >3.75</text><line  class="poloto_axis_lines" stroke="black" x1="150" x2="144" y1="371.8219248584663" y2="371.8219248584663" /><line  class="poloto_tick_line" stroke="black" x1="150" x2="650" y1="371.8219248584663" y2="371.8219248584663" /><text  class="poloto_tick_labels poloto_text" dominant-baseline="middle" text-anchor="end" x="135" y="371.8219248584663" >3.875</text><line  class="poloto_axis_lines" stroke="black" x1="150" x2="144" y1="362.17189912506433" y2="362.17189912506433" /><line  class="poloto_tick_line" stroke="black" x1="150" x2="650" y1="362.17189912506433" y2="362.17189912506433" /><text  class="poloto_tick_labels poloto_text" dominant-baseline="middle" text-anchor="end" x="135" y="362.17189912506433" >4</text><line  class="poloto_axis_lines" stroke="black" x1="150" x2="144" y1="352.5218733916624" y2="352.5218733916624" /><line  class="poloto_tick_line" stroke="black" x1="150" x2="650" y1="352.5218733916624" y2="352.5218733916624" /><text  class="poloto_tick_labels poloto_text" dominant-baseline="middle" text-anchor="end" x="135" y="352.5218733916624" >4.125</text><line  class="poloto_axis_lines" stroke="black" x1="150" x2="144" y1="342.87184765826044" y2="342.87184765826044" /><line  class="poloto_tick_line" stroke="black" x1="150" x2="650" y1="342.87184765826044" y2="342.87184765826044" /><text  class="poloto_tick_labels poloto_text" dominant-baseline="middle" text-anchor="end" x="135" y="342.87184765826044" >4.25</text><line  class="poloto_axis_lines" stroke="black" x1="150" x2="144" y1="333.2218219248585" y2="333.2218219248585" /><line  class="poloto_tick_line" stroke="black" x1="150" x2="650" y1="333.2218219248585" y2="333.2218219248585" /><text  class="poloto_tick_labels poloto_text" dominant-baseline="middle" text-anchor="end" x="135" y="333.2218219248585" >4.375</text><line  class="poloto_axis_lines" stroke="black" x1="150" x2="144" y1="323.5717961914565" y2="323.5717961914565" /><line  class="poloto_tick_line" stroke="black" x1="150" x2="650" y1="323.5717961914565" y2="323.5717961914565" /><text  class="poloto_tick_labels poloto_text" dominant-baseline="middle" text-anchor="end" x="135" y="323.5717961914565" >4.5</text><line  class="poloto_axis_lines" stroke="black" x1="150" x2="144" y1="313.92177045805454" y2="313.92177045805454" /><line  class="poloto_tick_line" stroke="black" x1="150" x2="650" y1="313.92177045805454" y2="313.92177045805454" /><text  class="poloto_tick_labels poloto_text" dominant-baseline="middle" text-anchor="end" x="135" y="313.92177045805454" >4.625</text><line  class="poloto_axis_lines" stroke="black" x1="150" x2="144" y1="304.2717447246526" y2="304.2717447246526" /><line  class="poloto_tick_line" stroke="black" x1="150" x2="650" y1="304.2717447246526" y2="304.2717447246526" /><text  class="poloto_tick_labels poloto_text" dominant-baseline="middle" text-anchor="end" x="135" y="304.2717447246526" >4.75</text><line  class="poloto_axis_lines" stroke="black" x1="150" x2="144" y1="294.62171899125065" y2="294.62171899125065" /><line  class="poloto_tick_line" stroke="black" x1="150" x2="650" y1="294.62171899125065" y2="294.62171899125065" /><text  class="poloto_tick_labels poloto_text" dominant-baseline="middle" text-anchor="end" x="135" y="294.62171899125065" >4.875</text><line  class="poloto_axis_lines" stroke="black" x1="150" x2="144" y1="284.9716932578487" y2="284.9716932578487" /><line  class="poloto_tick_line" stroke="black" x1="150" x2="650" y1="284.9716932578487" y2="284.9716932578487" /><text  class="poloto_tick_labels poloto_text" dominant-baseline="middle" text-anchor="end" x="135" y="284.9716932578487" >5</text><line  class="poloto_axis_lines" stroke="black" x1="150" x2="144" y1="275.32166752444675" y2="275.32166752444675" /><line  class="poloto_tick_line" stroke="black" x1="150" x2="650" y1="275.32166752444675" y2="275.32166752444675" /><text  class="poloto_tick_labels poloto_text" dominant-baseline="middle" text-anchor="end" x="135" y="275.32166752444675" >5.125</text><line  class="poloto_axis_lines" stroke="black" x1="150" x2="144" y1="265.67164179104475" y2="265.67164179104475" /><line  class="poloto_tick_line" stroke="black" x1="150" x2="650" y1="265.67164179104475" y2="265.67164179104475" /><text  class="poloto_tick_labels poloto_text" dominant-baseline="middle" text-anchor="end" x="135" y="265.67164179104475" >5.25</text><line  class="poloto_axis_lines" stroke="black" x1="150" x2="144" y1="256.0216160576428" y2="256.0216160576428" /><line  class="poloto_tick_line" stroke="black" x1="150" x2="650" y1="256.0216160576428" y2="256.0216160576428" /><text  class="poloto_tick_labels poloto_text" dominant-baseline="middle" text-anchor="end" x="135" y="256.0216160576428" >5.375</text><line  class="poloto_axis_lines" stroke="black" x1="150" x2="144" y1="246.37159032424086" y2="246.37159032424086" /><line  class="poloto_tick_line" stroke="black" x1="150" x2="650" y1="246.37159032424086" y2="246.37159032424086" /><text  class="poloto_tick_labels poloto_text" dominant-baseline="middle" text-anchor="end" x="135" y="246.37159032424086" >5.5</text><line  class="poloto_axis_lines" stroke="black" x1="150" x2="144" y1="236.7215645908389" y2="236.7215645908389" /><line  class="poloto_tick_line" stroke="black" x1="150" x2="650" y1="236.7215645908389" y2="236.7215645908389" /><text  class="poloto_tick_labels poloto_text" dominant-baseline="middle" text-anchor="end" x="135" y="236.7215645908389" >5.625</text><line  class="poloto_axis_lines" stroke="black" x1="150" x2="144" y1="227.07153885743696" y2="227.07153885743696" /><line  class="poloto_tick_line" stroke="black" x1="150" x2="650" y1="227.07153885743696" y2="227.07153885743696" /><text  class="poloto_tick_labels poloto_text" dominant-baseline="middle" text-anchor="end" x="135" y="227.07153885743696" >5.75</text><line  class="poloto_axis_lines" stroke="black" x1="150" x2="144" y1="217.42151312403502" y2="217.42151312403502" /><line  class="poloto_tick_line" stroke="black" x1="150" x2="650" y1="217.42151312403502" y2="217.42151312403502" /><text  class="poloto_tick_labels poloto_text" dominant-baseline="middle" text-anchor="end" x="135" y="217.42151312403502" >5.875</text><line  class="poloto_axis_lines" stroke="black" x1="150" x2="144" y1="207.771487390633" y2="207.771487390633" /><line  class="poloto_tick_line" stroke="black" x1="150" x2="650" y1="207.771487390633" y2="207.771487390633" /><text  class="poloto_tick_labels poloto_text" dominant-baseline="middle" text-anchor="end" x="135" y="207.771487390633" >6</text><line  class="poloto_axis_lines" stroke="black" x1="150" x2="144" y1="198.12146165723107" y2="198.12146165723107" /><line  class="poloto_tick_line" stroke="black" x1="150" x2="650" y1="198.12146165723107" y2="198.12146165723107" /><text  class="poloto_tick_labels poloto_text" dominant-baseline="middle" text-anchor="end" x="135" y="198.12146165723107" >6.125</text><line  class="poloto_axis_lines" stroke="black" x1="150" x2="144" y1="188.47143592382912" y2="188.47143592382912" /><line  class="poloto_tick_line" stroke="black" x1="150" x2="650" y1="188.47143592382912" y2="188.47143592382912" /><text  class="poloto_tick_labels poloto_text" dominant-baseline="middle" text-anchor="end" x="135" y="188.47143592382912" >6.25</text><line  class="poloto_axis_lines" stroke="black" x1="150" x2="144" y1="178.82141019042717" y2="178.82141019042717" /><line  class="poloto_tick_line" stroke="black" x1="150" x2="650" y1="178.82141019042717" y2="178.82141019042717" /><text  class="poloto_tick_labels poloto_text" dominant-baseline="middle" text-anchor="end" x="135" y="178.82141019042717" >6.375</text><line  class="poloto_axis_lines" stroke="black" x1="150" x2="144" y1="169.17138445702523" y2="169.17138445702523" /><line  class="poloto_tick_line" stroke="black" x1="150" x2="650" y1="169.17138445702523" y2="169.17138445702523" /><text  class="poloto_tick_labels poloto_text" dominant-baseline="middle" text-anchor="end" x="135" y="169.17138445702523" >6.5</text><line  class="poloto_axis_lines" stroke="black" x1="150" x2="144" y1="159.52135872362328" y2="159.52135872362328" /><line  class="poloto_tick_line" stroke="black" x1="150" x2="650" y1="159.52135872362328" y2="159.52135872362328" /><text  class="poloto_tick_labels poloto_text" dominant-baseline="middle" text-anchor="end" x="135" y="159.52135872362328" >6.625</text><line  class="poloto_axis_lines" stroke="black" x1="150" x2="144" y1="149.87133299022133" y2="149.87133299022133" /><line  class="poloto_tick_line" stroke="black" x1="150" x2="650" y1="149.87133299022133" y2="149.87133299022133" /><text  class="poloto_tick_labels poloto_text" dominant-baseline="middle" text-anchor="end" x="135" y="149.87133299022133" >6.75</text><line  class="poloto_axis_lines" stroke="black" x1="150" x2="144" y1="140.22130725681933" y2="140.22130725681933" /><line  class="poloto_tick_line" stroke="black" x1="150" x2="650" y1="140.22130725681933" y2="140.22130725681933" /><text  class="poloto_tick_labels poloto_text" dominant-baseline="middle" text-anchor="end" x="135" y="140.22130725681933" >6.875</text><line  class="poloto_axis_lines" stroke="black" x1="150" x2="144" y1="130.57128152341744" y2="130.57128152341744" /><line  class="poloto_tick_line" stroke="black" x1="150" x2="650" y1="130.57128152341744" y2="130.57128152341744" /><text  class="poloto_tick_labels poloto_text" dominant-baseline="middle" text-anchor="end" x="135" y="130.57128152341744" >7</text><line  class="poloto_axis_lines" stroke="black" x1="150" x2="144" y1="120.92125579001544" y2="120.92125579001544" /><line  class="poloto_tick_line" stroke="black" x1="150" x2="650" y1="120.92125579001544" y2="120.92125579001544" /><text  class="poloto_tick_labels poloto_text" dominant-baseline="middle" text-anchor="end" x="135" y="120.92125579001544" >7.125</text><line  class="poloto_axis_lines" stroke="black" x1="150" x2="144" y1="111.27123005661343" y2="111.27123005661343" /><line  class="poloto_tick_line" stroke="black" x1="150" x2="650" y1="111.27123005661343" y2="111.27123005661343" /><text  class="poloto_tick_labels poloto_text" dominant-baseline="middle" text-anchor="end" x="135" y="111.27123005661343" >7.25</text><line  class="poloto_axis_lines" stroke="black" x1="150" x2="144" y1="101.62120432321154" y2="101.62120432321154" /><line  class="poloto_tick_line" stroke="black" x1="150" x2="650" y1="101.62120432321154" y2="101.62120432321154" /><text  class="poloto_tick_labels poloto_text" dominant-baseline="middle" text-anchor="end" x="135" y="101.62120432321154" >7.375</text><text  class="poloto_tick_labels poloto_text" dominant-baseline="middle" text-anchor="start" x="440.00000000000006" y="70" >¹2022-05-01 00:00:00 UTC in Months</text><line  class="poloto_axis_lines" stroke="black" x1="212.84916201117449" x2="212.84916201117449" y1="400" y2="405" /><line  class="poloto_tick_line" stroke="black" x1="212.84916201117449" x2="212.84916201117449" y1="400" y2="100.00000000000006" /><text  class="poloto_tick_labels poloto_text" dominant-baseline="start" text-anchor="middle" x="212.84916201117449" y="430" >2022 May¹</text><line  class="poloto_axis_lines" stroke="black" x1="298.0446927374287" x2="298.0446927374287" y1="400" y2="405" /><line  class="poloto_tick_line" stroke="black" x1="298.0446927374287" x2="298.0446927374287" y1="400" y2="100.00000000000006" /><text  class="poloto_tick_labels poloto_text" dominant-baseline="start" text-anchor="middle" x="298.0446927374287" y="430" >2022 Jul</text><line  class="poloto_axis_lines" stroke="black" x1="384.63687150838086" x2="384.63687150838086" y1="400" y2="405" /><line  class="poloto_tick_line" stroke="black" x1="384.63687150838086" x2="384.63687150838086" y1="400" y2="100.00000000000006" /><text  class="poloto_tick_labels poloto_text" dominant-baseline="start" text-anchor="middle" x="384.63687150838086" y="430" >2022 Sep</text><line  class="poloto_axis_lines" stroke="black" x1="469.8324022346351" x2="469.8324022346351" y1="400" y2="405" /><line  class="poloto_tick_line" stroke="black" x1="469.8324022346351" x2="469.8324022346351" y1="400" y2="100.00000000000006" /><text  class="poloto_tick_labels poloto_text" dominant-baseline="start" text-anchor="middle" x="469.8324022346351" y="430" >2022 Nov</text><line  class="poloto_axis_lines" stroke="black" x1="555.0279329608929" x2="555.0279329608929" y1="400" y2="405" /><line  class="poloto_tick_line" stroke="black" x1="555.0279329608929" x2="555.0279329608929" y1="400" y2="100.00000000000006" /><text  class="poloto_tick_labels poloto_text" dominant-baseline="start" text-anchor="middle" x="555.0279329608929" y="430" >2023 Jan</text><line  class="poloto_axis_lines" stroke="black" x1="637.4301675977658" x2="637.4301675977658" y1="400" y2="405" /><line  class="poloto_tick_line" stroke="black" x1="637.4301675977658" x2="637.4301675977658" y1="400" y2="100.00000000000006" /><text  class="poloto_tick_labels poloto_text" dominant-baseline="start" text-anchor="middle" x="637.4301675977658" y="430" >2023 Mar</text><path  stroke="black" fill="none" class="poloto_axis_lines" d=" M 150 400 L 650 400" /><path  stroke="black" fill="none" class="poloto_axis_lines" d=" M 150 400 L 150 100.00000000000006" /></svg>