<svg class="poloto" width="800" height="500" viewBox="0 0 800 500" xmlns="http://www.w3.org/2000/svg"><style>.poloto{stroke-linecap:round;stroke-linejoin:round;font-family:Roboto,sans-serif;font-size:16px;}.poloto_background{fill:#262626;}.poloto_scatter{stroke-width:7}.poloto_tick_line{stroke:dimgray;stroke-width:0.5}.poloto_line{stroke-width:2}.poloto_text{fill: white;}.poloto_axis_lines{stroke: white;stroke-width:3;fill:none;stroke-dasharray:none}.poloto_title{font-size:24px;dominant-baseline:start;text-anchor:middle;}.poloto_xname{font-size:24px;dominant-baseline:start;text-anchor:middle;}.poloto_yname{font-size:24px;dominant-baseline:start;text-anchor:middle;}.poloto0stroke{stroke:blue;}.poloto1stroke{stroke:red;}.poloto2stroke{stroke:green;}.poloto3stroke{stroke:gold;}.poloto4stroke{stroke:aqua;}.poloto5stroke{stroke:lime;}.poloto6stroke{stroke:orange;}.poloto7stroke{stroke:chocolate;}.poloto0fill{fill:blue;}.poloto1fill{fill:red;}.poloto2fill{fill:green;}.poloto3fill{fill:gold;}.poloto4fill{fill:aqua;}.poloto5fill{fill:lime;}.poloto6fill{fill:orange;}.poloto7fill{fill:chocolate;}</style><circle  r="1e5" class="poloto_background" /><text  class="poloto_text poloto_legend_text" x="675" y="100" >Refinance 15</text><line  class="poloto_line poloto_legend_icon poloto0stroke poloto0legend" stroke="black" x1="680" x2="730" y1="81.25" y2="81.25" /><path  class="poloto_line poloto0stroke" fill="none" stroke="black" d=" M 150.00 393.13 L 151.40 400.00 L 155.60 390.27 L 157.00 381.94 L 158.40 390.27 L 158.40 390.27 L 161.20 362.48 L 165.41 361.01 L 166.81 370.74 L 168.21 349.74 L 169.61 351.21 L 171.01 346.81 L 175.21 348.28 L 176.61 342.41 L 176.61 342.41 L 179.41 342.95 L 180.81 321.95 L 185.01 331.06 L 186.41 333.99 L 187.82 333.99 L 189.22 333.22 L 190.62 328.74 L 196.22 289.53 L 197.62 306.97 L 199.02 293.46 L 200.42 288.21 L 200.42 288.21 L 206.02 308.52 L 208.82 312.22 L 210.22 303.96 L 214.43 294.16 L 215.83 313.69 L 217.23 303.96 L 217.23 303.96 L 220.03 302.42 L 224.23 305.43 L 225.63 315.16 L 225.63 315.16 L 227.03 306.90 L 228.43 316.70 L 229.83 302.42 L 234.03 331.76 L 235.43 331.06 L 236.83 315.16 L 236.83 315.16 L 238.24 321.95 L 239.64 324.96 L 243.84 324.96 L 245.24 335.46 L 246.64 335.46 L 248.04 335.46 L 249.44 335.46 L 255.04 324.96 L 256.44 321.95 L 257.84 323.42 L 259.24 323.42 L 259.24 323.42 L 264.85 313.69 L 266.25 313.69 L 267.65 305.43 L 273.25 291.92 L 274.65 264.05 L 276.05 267.14 L 277.45 267.14 L 278.85 286.67 L 283.05 267.14 L 284.45 267.14 L 285.85 285.13 L 287.25 288.21 L 292.86 288.21 L 294.26 286.67 L 295.66 291.22 L 297.06 295.70 L 298.46 305.43 L 304.06 312.22 L 305.46 303.96 L 306.86 297.17 L 308.26 294.16 L 312.46 295.70 L 315.27 295.70 L 316.67 294.16 L 322.27 292.69 L 322.27 292.69 L 322.27 292.69 L 322.27 292.69 L 322.27 292.69 L 322.27 292.69 L 325.07 292.69 L 325.07 292.69 L 325.07 292.69 L 325.07 292.69 L 325.07 292.69 L 325.07 292.69 L 332.07 303.96 L 334.87 306.90 L 336.27 332.53 L 337.68 335.46 L 341.88 335.46 L 343.28 333.99 L 344.68 313.69 L 346.08 308.44 L 347.48 295.70 L 351.68 305.43 L 351.68 305.43 L 353.08 297.17 L 355.88 305.43 L 355.88 305.43 L 362.89 305.43 L 364.29 274.70 L 365.69 292.69 L 371.29 261.89 L 374.09 261.89 L 374.09 261.89 L 376.89 273.16 L 382.49 267.14 L 382.49 267.14 L 382.49 267.14 L 382.49 267.14 L 382.49 267.14 L 382.49 267.14 L 382.49 267.14 L 382.49 267.14 L 382.49 267.14 L 386.69 267.14 L 395.10 247.53 L 400.70 249.85 L 400.70 249.85 L 404.90 249.85 L 410.50 249.85 L 411.90 249.85 L 411.90 249.85 L 411.90 249.85 L 411.90 249.85 L 411.90 249.85 L 430.11 249.85 L 431.51 249.85 L 439.92 162.92 L 441.32 154.66 L 442.72 154.66 L 493.14 180.60 L 498.74 180.60 L 500.14 180.60 L 501.54 195.50 L 504.34 203.68 L 504.34 203.68 L 509.94 203.68 L 511.34 203.68 L 512.75 203.68 L 514.15 203.68 L 518.35 203.68 L 519.75 203.68 L 522.55 203.68 L 523.95 203.68 L 528.15 203.68 L 529.55 203.68 L 529.55 203.68 L 533.75 203.68 L 537.96 203.68 L 539.36 203.68 L 540.76 203.68 L 542.16 203.68 L 543.56 203.68 L 549.16 226.15 L 550.56 200.21 L 551.96 180.60 L 553.36 190.40 L 557.56 190.40 L 558.96 190.40 L 558.96 190.40 L 561.76 211.48 L 563.17 211.48 L 567.37 211.48 L 568.77 211.48 L 570.17 211.48 L 571.57 211.48 L 572.97 211.48 L 572.97 211.48 L 572.97 211.48 L 572.97 211.48 L 579.97 211.48 L 582.77 211.48 L 586.97 211.48 L 588.38 211.48 L 591.18 211.48 L 592.58 211.48 L 598.18 211.48 L 599.58 211.48 L 600.98 211.48 L 602.38 239.27 L 606.58 245.45 L 607.98 209.93 L 609.38 221.28 L 610.78 219.74 L 612.18 201.75 L 616.39 161.07 L 617.79 161.07 L 619.19 161.07 L 620.59 162.61 L 621.99 170.79 L 626.19 162.61 L 627.59 162.61 L 628.99 151.26 L 630.39 161.07 L 631.79 141.46 L 637.39 151.26 L 638.80 152.80 L 640.20 143.08 L 641.60 149.64 L 645.80 155.97 L 647.20 152.80 L 648.60 151.26 L 650.00 151.26" /><text  class="poloto_text poloto_legend_text" x="675" y="150" >Refinance 20</text><line  class="poloto_line poloto_legend_icon poloto1stroke poloto1legend" stroke="black" x1="680" x2="730" y1="131.25" y2="131.25" /><path  class="poloto_line poloto1stroke" fill="none" stroke="black" d=" M 150.00 350.51 L 151.40 371.13 L 155.60 340.40 L 157.00 330.98 L 158.40 339.63 L 158.40 339.63 L 161.20 312.61 L 165.41 310.29 L 166.81 320.10 L 168.21 309.14 L 169.61 318.94 L 171.01 300.57 L 175.21 328.67 L 176.61 300.57 L 176.61 300.57 L 179.41 300.57 L 179.41 300.57 L 185.01 263.51 L 186.41 293.15 L 187.82 300.57 L 189.22 310.29 L 190.62 291.22 L 196.22 272.47 L 197.62 270.07 L 199.02 265.29 L 200.42 254.32 L 204.62 259.11 L 206.02 279.88 L 208.82 272.47 L 210.22 270.07 L 214.43 262.27 L 215.83 271.31 L 217.23 271.31 L 217.23 271.31 L 220.03 271.31 L 224.23 272.47 L 225.63 292.00 L 225.63 292.00 L 227.03 281.03 L 228.43 299.41 L 229.83 292.00 L 234.03 293.15 L 235.43 292.00 L 236.83 292.00 L 236.83 292.00 L 238.24 293.15 L 239.64 299.41 L 243.84 300.57 L 245.24 304.04 L 246.64 304.04 L 248.04 304.04 L 249.44 304.04 L 255.04 299.41 L 256.44 289.60 L 257.84 292.00 L 259.24 292.00 L 259.24 292.00 L 264.85 279.88 L 266.25 282.19 L 267.65 273.62 L 273.25 232.24 L 274.65 215.11 L 276.05 224.91 L 277.45 232.24 L 278.85 252.93 L 283.05 240.74 L 284.45 234.64 L 285.85 254.17 L 287.25 263.51 L 292.86 263.51 L 294.26 252.93 L 295.66 262.74 L 297.06 272.47 L 298.46 283.43 L 304.06 290.76 L 305.46 281.03 L 306.86 271.31 L 308.26 264.67 L 312.46 270.07 L 315.27 272.47 L 316.67 271.31 L 322.27 272.47 L 322.27 272.47 L 322.27 272.47 L 322.27 272.47 L 322.27 272.47 L 322.27 272.47 L 322.27 272.47 L 322.27 272.47 L 322.27 272.47 L 322.27 272.47 L 322.27 272.47 L 322.27 272.47 L 332.07 290.76 L 334.87 293.15 L 336.27 310.29 L 337.68 312.61 L 341.88 310.06 L 343.28 310.06 L 344.68 300.57 L 346.08 304.04 L 347.48 289.60 L 351.68 282.19 L 351.68 282.19 L 353.08 282.19 L 355.88 292.00 L 355.88 292.00 L 362.89 289.60 L 364.29 272.47 L 365.69 272.47 L 371.29 259.88 L 374.09 249.31 L 374.09 249.31 L 376.89 261.12 L 382.49 232.24 L 382.49 232.24 L 382.49 232.24 L 382.49 232.24 L 382.49 232.24 L 382.49 232.24 L 382.49 232.24 L 382.49 232.24 L 382.49 232.24 L 386.69 232.24 L 395.10 219.97 L 400.70 221.20 L 403.50 221.20 L 404.90 221.20 L 404.90 221.20 L 411.90 221.20 L 413.31 221.20 L 413.31 221.20 L 413.31 221.20 L 413.31 221.20 L 430.11 221.20 L 431.51 221.20 L 439.92 143.85 L 441.32 129.41 L 441.32 129.41 L 495.94 177.12 L 498.74 177.12 L 500.14 177.12 L 502.94 194.26 L 504.34 195.50 L 504.34 195.50 L 509.94 195.50 L 511.34 195.50 L 512.75 195.50 L 514.15 195.50 L 518.35 195.50 L 519.75 195.50 L 522.55 195.50 L 523.95 195.50 L 528.15 195.50 L 529.55 195.50 L 529.55 195.50 L 533.75 195.50 L 537.96 195.50 L 539.36 195.50 L 540.76 195.50 L 542.16 195.50 L 543.56 195.50 L 549.16 178.05 L 550.56 168.55 L 551.96 167.32 L 553.36 169.87 L 557.56 169.87 L 558.96 169.87 L 558.96 169.87 L 561.76 188.16 L 563.17 188.16 L 567.37 188.16 L 568.77 188.16 L 570.17 188.16 L 571.57 188.16 L 572.97 188.16 L 572.97 188.16 L 578.57 188.16 L 578.57 188.16 L 579.97 188.16 L 582.77 188.16 L 586.97 188.16 L 588.38 188.16 L 591.18 188.16 L 592.58 188.16 L 598.18 188.16 L 599.58 188.16 L 600.98 188.16 L 602.38 209.01 L 606.58 207.77 L 607.98 178.36 L 609.38 179.59 L 609.38 179.59 L 612.18 178.36 L 616.39 158.75 L 617.79 158.75 L 619.19 150.26 L 620.59 140.45 L 621.99 149.02 L 626.19 140.45 L 627.59 130.65 L 628.99 140.45 L 630.39 150.26 L 631.79 139.22 L 637.39 140.45 L 638.80 129.41 L 640.20 100.00 L 641.60 129.41 L 645.80 150.26 L 647.20 169.17 L 648.60 140.45 L 650.00 139.22" /><text  class="poloto_text poloto_legend_text" x="675" y="200" >Refinance 30</text><line  class="poloto_line poloto_legend_icon poloto2stroke poloto2legend" stroke="black" x1="680" x2="730" y1="181.25" y2="181.25" /><path  class="poloto_line poloto2stroke" fill="none" stroke="black" d=" M 150.00 348.35 L 151.40 355.69 L 155.60 344.26 L 157.00 335.31 L 158.40 337.00 L 158.40 337.00 L 161.20 318.24 L 165.41 316.62 L 166.81 326.35 L 168.21 315.77 L 169.61 325.50 L 171.01 306.82 L 175.21 315.77 L 176.61 297.01 L 178.01 297.01 L 179.41 296.17 L 180.81 272.47 L 185.01 276.63 L 186.41 287.29 L 187.82 297.01 L 189.22 288.14 L 190.62 277.48 L 196.22 269.38 L 197.62 256.18 L 199.02 254.40 L 200.42 252.55 L 204.62 256.18 L 206.02 271.31 L 208.82 269.38 L 210.22 267.60 L 214.43 257.95 L 215.83 268.45 L 217.23 257.95 L 217.23 257.95 L 220.03 257.95 L 224.23 259.73 L 225.63 276.63 L 225.63 276.63 L 227.03 268.45 L 228.43 269.38 L 229.83 270.23 L 234.03 277.48 L 235.43 269.38 L 236.83 269.38 L 236.83 269.38 L 238.24 278.33 L 239.64 279.26 L 243.84 280.11 L 245.24 288.14 L 246.64 288.14 L 248.04 289.84 L 249.44 289.84 L 255.04 286.36 L 256.44 276.63 L 257.84 278.33 L 259.24 277.48 L 259.24 277.48 L 264.85 268.45 L 266.25 268.45 L 267.65 258.80 L 273.25 219.74 L 274.65 192.10 L 276.05 209.01 L 277.45 219.74 L 278.85 229.46 L 283.05 220.59 L 284.45 219.74 L 285.85 237.49 L 287.25 239.27 L 292.86 239.27 L 294.26 228.62 L 295.66 237.49 L 297.06 247.22 L 298.46 268.45 L 304.06 269.38 L 305.46 258.80 L 306.86 240.20 L 308.26 237.49 L 312.46 255.25 L 315.27 239.27 L 316.67 238.34 L 322.27 256.18 L 322.27 256.18 L 322.27 256.18 L 322.27 256.18 L 322.27 256.18 L 322.27 256.18 L 325.07 256.18 L 325.07 256.18 L 325.07 256.18 L 325.07 256.18 L 325.07 256.18 L 325.07 256.18 L 332.07 267.60 L 334.87 269.38 L 336.27 286.36 L 337.68 297.86 L 341.88 297.01 L 343.28 297.01 L 344.68 277.48 L 346.08 280.11 L 347.48 267.60 L 351.68 277.48 L 351.68 277.48 L 353.08 270.23 L 355.88 278.33 L 355.88 278.33 L 362.89 276.63 L 364.29 259.73 L 365.69 258.80 L 371.29 236.57 L 374.09 228.62 L 374.09 228.62 L 376.89 238.34 L 382.49 227.69 L 382.49 227.69 L 382.49 227.69 L 382.49 227.69 L 382.49 227.69 L 382.49 227.69 L 382.49 227.69 L 382.49 227.69 L 386.69 227.69 L 386.69 226.76 L 395.10 215.11 L 400.70 195.50 L 400.70 195.50 L 404.90 195.50 L 404.90 195.50 L 411.90 195.50 L 413.31 195.50 L 413.31 195.50 L 413.31 195.50 L 413.31 195.50 L 430.11 195.50 L 431.51 195.50 L 439.92 151.34 L 441.32 126.71 L 441.32 126.71 L 495.94 169.02 L 498.74 169.02 L 500.14 169.02 L 501.54 172.95 L 504.34 181.91 L 504.34 181.91 L 509.94 181.91 L 511.34 181.91 L 512.75 181.91 L 514.15 181.91 L 518.35 181.91 L 519.75 181.91 L 522.55 181.91 L 523.95 181.91 L 528.15 181.91 L 529.55 181.91 L 529.55 181.91 L 533.75 181.91 L 537.96 181.91 L 539.36 181.91 L 540.76 181.91 L 542.16 181.91 L 543.56 181.91 L 549.16 167.01 L 550.56 174.88 L 551.96 156.20 L 553.36 174.88 L 557.56 174.88 L 558.96 174.88 L 558.96 174.88 L 561.76 174.88 L 563.17 174.88 L 567.37 174.88 L 568.77 174.88 L 570.17 174.88 L 571.57 174.88 L 572.97 174.88 L 572.97 174.88 L 578.57 174.88 L 578.57 174.88 L 579.97 174.88 L 582.77 174.88 L 586.97 174.88 L 588.38 174.88 L 591.18 174.88 L 592.58 174.88 L 598.18 174.88 L 599.58 174.88 L 600.98 174.88 L 602.38 224.91 L 606.58 215.11 L 607.98 175.89 L 609.38 205.30 L 610.78 175.89 L 612.18 166.01 L 616.39 156.20 L 617.79 156.20 L 619.19 147.32 L 620.59 137.52 L 621.99 146.40 L 626.19 146.40 L 627.59 135.59 L 628.99 127.71 L 630.39 137.52 L 631.79 128.72 L 637.39 127.71 L 638.80 116.91 L 640.20 116.91 L 641.60 126.71 L 645.80 127.71 L 647.20 117.91 L 648.60 125.78 L 650.00 117.91" /><text  class="poloto_labels poloto_text poloto_title" x="400" y="37.5" >lower.com purchase rates</text><text  class="poloto_labels poloto_text poloto_xname" x="400" y="481.25" >Date</text><text  class="poloto_labels poloto_text poloto_yname" transform="rotate(-90,37.5,250)" x="37.5" y="250" >Rate (%)</text><text  class="poloto_tick_labels poloto_text" dominant-baseline="middle" text-anchor="start" x="150" y="70" ></text><line  class="poloto_axis_lines" stroke="black" x1="150" x2="144" y1="391.12197632527017" y2="391.12197632527017" /><line  class="poloto_tick_line" stroke="black" x1="150" x2="650" y1="391.12197632527017" y2="391.12197632527017" /><text  class="poloto_tick_labels poloto_text" dominant-baseline="middle" text-anchor="end" x="135" y="391.12197632527017" >3.625</text><line  class="poloto_axis_lines" stroke="black" x1="150" x2="144" y1="381.4719505918682" y2="381.4719505918682" /><line  class="poloto_tick_line" stroke="black" x1="150" x2="650" y1="381.4719505918682" y2="381.4719505918682" /><text  class="poloto_tick_labels poloto_text" dominant-baseline="middle" text-anchor="end" x="135" y="381.4719505918682" >3.75</text><line  class="poloto_axis_lines" stroke="black" x1="150" x2="144" y1="371.8219248584663" y2="371.8219248584663" /><line  class="poloto_tick_line" stroke="black" x1="150" x2="650" y1="371.8219248584663" y2="371.8219248584663" /><text  class="poloto_tick_labels poloto_text" dominant-baseline="middle" text-anchor="end" x="135" y="371.8219248584663" >3.875</text><line  class="poloto_axis_lines" stroke="black" x1="150" x2="144" y1="362.17189912506433" y2="362.17189912506433" /><line  class="poloto_tick_line" stroke="black" x1="150" x2="650" y1="362.17189912506433" y2="362.17189912506433" /><text  class="poloto_tick_labels poloto_text" dominant-baseline="middle" text-anchor="end" x="135" y="362.17189912506433" >4</text><line  class="poloto_axis_lines" stroke="black" x1="150" x2="144" y1="352.5218733916624" y2="352.5218733916624" /><line  class="poloto_tick_line" stroke="black" x1="150" x2="650" y1="352.5218733916624" y2="352.5218733916624" /><text  class="poloto_tick_labels poloto_text" dominant-baseline="middle" text-anchor="end" x="135" y="352.5218733916624" >4.125</text><line  class="poloto_axis_lines" stroke="black" x1="150" x2="144" y1="342.87184765826044" y2="342.87184765826044" /><line  class="poloto_tick_line" stroke="black" x1="150" x2="650" y1="342.87184765826044" y2="342.87184765826044" /><text  class="poloto_tick_labels poloto_text" dominant-baseline="middle" text-anchor="end" x="135" y="342.87184765826044" >4.25</text><line  class="poloto_axis_lines" stroke="black" x1="150" x2="144" y1="333.2218219248585" y2="333.2218219248585" /><line  class="poloto_tick_line" stroke="black" x1="150" x2="650" y1="333.2218219248585" y2="333.2218219248585" /><text  class="poloto_tick_labels poloto_text" dominant-baseline="middle" text-anchor="end" x="135" y="333.2218219248585" >4.375</text><line  class="poloto_axis_lines" stroke="black" x1="150" x2="144" y1="323.5717961914565" y2="323.5717961914565" /><line  class="poloto_tick_line" stroke="black" x1="150" x2="650" y1="323.5717961914565" y2="323.5717961914565" /><text  class="poloto_tick_labels poloto_text" dominant-baseline="middle" text-anchor="end" x="135" y="323.5717961914565" >4.5</text><line  class="poloto_axis_lines" stroke="black" x1="150" x2="144" y1="313.92177045805454" y2="313.92177045805454" /><line  class="poloto_tick_line" stroke="black" x1="150" x2="650" y1="313.92177045805454" y2="313.92177045805454" /><text  class="poloto_tick_labels poloto_text" dominant-baseline="middle" text-anchor="end" x="135" y="313.92177045805454" >4.625</text><line  class="poloto_axis_lines" stroke="black" x1="150" x2="144" y1="304.2717447246526" y2="304.2717447246526" /><line  class="poloto_tick_line" stroke="black" x1="150" x2="650" y1="304.2717447246526" y2="304.2717447246526" /><text  class="poloto_tick_labels poloto_text" dominant-baseline="middle" text-anchor="end" x="135" y="304.2717447246526" >4.75</text><line  class="poloto_axis_lines" stroke="black" x1="150" x2="144" y1="294.62171899125065" y2="294.62171899125065" /><line  class="poloto_tick_line" stroke="black" x1="150" x2="650" y1="294.62171899125065" y2="294.62171899125065" /><text  class="poloto_tick_labels poloto_text" dominant-baseline="middle" text-anchor="end" x="135" y="294.62171899125065" >4.875</text><line  class="poloto_axis_lines" stroke="black" x1="150" x2="144" y1="284.9716932578487" y2="284.9716932578487" /><line  class="poloto_tick_line" stroke="black" x1="150" x2="650" y1="284.9716932578487" y2="284.9716932578487" /><text  class="poloto_tick_labels poloto_text" dominant-baseline="middle" text-anchor="end" x="135" y="284.9716932578487" >5</text><line  class="poloto_axis_lines" stroke="black" x1="150" x2="144" y1="275.32166752444675" y2="275.32166752444675" /><line  class="poloto_tick_line" stroke="black" x1="150" x2="650" y1="275.32166752444675" y2="275.32166752444675" /><text  class="poloto_tick_labels poloto_text" dominant-baseline="middle" text-anchor="end" x="135" y="275.32166752444675" >5.125</text><line  class="poloto_axis_lines" stroke="black" x1="150" x2="144" y1="265.67164179104475" y2="265.67164179104475" /><line  class="poloto_tick_line" stroke="black" x1="150" x2="650" y1="265.67164179104475" y2="265.67164179104475" /><text  class="poloto_tick_labels poloto_text" dominant-baseline="middle" text-anchor="end" x="135" y="265.67164179104475" >5.25</text><line  class="poloto_axis_lines" stroke="black" x1="150" x2="144" y1="256.0216160576428" y2="256.0216160576428" /><line  class="poloto_tick_line" stroke="black" x1="150" x2="650" y1="256.0216160576428" y2="256.0216160576428" /><text  class="poloto_tick_labels poloto_text" dominant-baseline="middle" text-anchor="end" x="135" y="256.0216160576428" >5.375</text><line  class="poloto_axis_lines" stroke="black" x1="150" x2="144" y1="246.37159032424086" y2="246.37159032424086" /><line  class="poloto_tick_line" stroke="black" x1="150" x2="650" y1="246.37159032424086" y2="246.37159032424086" /><text  class="poloto_tick_labels poloto_text" dominant-baseline="middle" text-anchor="end" x="135" y="246.37159032424086" >5.5</text><line  class="poloto_axis_lines" stroke="black" x1="150" x2="144" y1="236.7215645908389" y2="236.7215645908389" /><line  class="poloto_tick_line" stroke="black" x1="150" x2="650" y1="236.7215645908389" y2="236.7215645908389" /><text  class="poloto_tick_labels poloto_text" dominant-baseline="middle" text-anchor="end" x="135" y="236.7215645908389" >5.625</text><line  class="poloto_axis_lines" stroke="black" x1="150" x2="144" y1="227.07153885743696" y2="227.07153885743696" /><line  class="poloto_tick_line" stroke="black" x1="150" x2="650" y1="227.07153885743696" y2="227.07153885743696" /><text  class="poloto_tick_labels poloto_text" dominant-baseline="middle" text-anchor="end" x="135" y="227.07153885743696" >5.75</text><line  class="poloto_axis_lines" stroke="black" x1="150" x2="144" y1="217.42151312403502" y2="217.42151312403502" /><line  class="poloto_tick_line" stroke="black" x1="150" x2="650" y1="217.42151312403502" y2="217.42151312403502" /><text  class="poloto_tick_labels poloto_text" dominant-baseline="middle" text-anchor="end" x="135" y="217.42151312403502" >5.875</text><line  class="poloto_axis_lines" stroke="black" x1="150" x2="144" y1="207.771487390633" y2="207.771487390633" /><line  class="poloto_tick_line" stroke="black" x1="150" x2="650" y1="207.771487390633" y2="207.771487390633" /><text  class="poloto_tick_labels poloto_text" dominant-baseline="middle" text-anchor="end" x="135" y="207.771487390633" >6</text><line  class="poloto_axis_lines" stroke="black" x1="150" x2="144" y1="198.12146165723107" y2="198.12146165723107" /><line  class="poloto_tick_line" stroke="black" x1="150" x2="650" y1="198.12146165723107" y2="198.12146165723107" /><text  class="poloto_tick_labels poloto_text" dominant-baseline="middle" text-anchor="end" x="135" y="198.12146165723107" >6.125</text><line  class="poloto_axis_lines" stroke="black" x1="150" x2="144" y1="188.47143592382912" y2="188.47143592382912" /><line  class="poloto_tick_line" stroke="black" x1="150" x2="650" y1="188.47143592382912" y2="188.47143592382912" /><text  class="poloto_tick_labels poloto_text" dominant-baseline="middle" text-anchor="end" x="135" y="188.47143592382912" >6.25</text><line  class="poloto_axis_lines" stroke="black" x1="150" x2="144" y1="178.82141019042717" y2="178.82141019042717" /><line  class="poloto_tick_line" stroke="black" x1="150" x2="650" y1="178.82141019042717" y2="178.82141019042717" /><text  class="poloto_tick_labels poloto_text" dominant-baseline="middle" text-anchor="end" x="135" y="178.82141019042717" >6.375</text><line  class="poloto_axis_lines" stroke="black" x1="150" x2="144" y1="169.17138445702523" y2="169.17138445702523" /><line  class="poloto_tick_line" stroke="black" x1="150" x2="650" y1="169.17138445702523" y2="169.17138445702523" /><text  class="poloto_tick_labels poloto_text" dominant-baseline="middle" text-anchor="end" x="135" y="169.17138445702523" >6.5</text><line  class="poloto_axis_lines" stroke="black" x1="150" x2="144" y1="159.52135872362328" y2="159.52135872362328" /><line  class="poloto_tick_line" stroke="black" x1="150" x2="650" y1="159.52135872362328" y2="159.52135872362328" /><text  class="poloto_tick_labels poloto_text" dominant-baseline="middle" text-anchor="end" x="135" y="159.52135872362328" >6.625</text><line  class="poloto_axis_lines" stroke="black" x1="150" x2="144" y1="149.87133299022133" y2="149.87133299022133" /><line  class="poloto_tick_line" stroke="black" x1="150" x2="650" y1="149.87133299022133" y2="149.87133299022133" /><text  class="poloto_tick_labels poloto_text" dominant-baseline="middle" text-anchor="end" x="135" y="149.87133299022133" >6.75</text><line  class="poloto_axis_lines" stroke="black" x1="150" x2="144" y1="140.22130725681933" y2="140.22130725681933" /><line  class="poloto_tick_line" stroke="black" x1="150" x2="650" y1="140.22130725681933" y2="140.22130725681933" /><text  class="poloto_tick_labels poloto_text" dominant-baseline="middle" text-anchor="end" x="135" y="140.22130725681933" >6.875</text><line  class="poloto_axis_lines" stroke="black" x1="150" x2="144" y1="130.57128152341744" y2="130.57128152341744" /><line  class="poloto_tick_line" stroke="black" x1="150" x2="650" y1="130.57128152341744" y2="130.57128152341744" /><text  class="poloto_tick_labels poloto_text" dominant-baseline="middle" text-anchor="end" x="135" y="130.57128152341744" >7</text><line  class="poloto_axis_lines" stroke="black" x1="150" x2="144" y1="120.92125579001544" y2="120.92125579001544" /><line  class="poloto_tick_line" stroke="black" x1="150" x2="650" y1="120.92125579001544" y2="120.92125579001544" /><text  class="poloto_tick_labels poloto_text" dominant-baseline="middle" text-anchor="end" x="135" y="120.92125579001544" >7.125</text><line  class="poloto_axis_lines" stroke="black" x1="150" x2="144" y1="111.27123005661343" y2="111.27123005661343" /><line  class="poloto_tick_line" stroke="black" x1="150" x2="650" y1="111.27123005661343" y2="111.27123005661343" /><text  class="poloto_tick_labels poloto_text" dominant-baseline="middle" text-anchor="end" x="135" y="111.27123005661343" >7.25</text><line  class="poloto_axis_lines" stroke="black" x1="150" x2="144" y1="101.62120432321154" y2="101.62120432321154" /><line  class="poloto_tick_line" stroke="black" x1="150" x2="650" y1="101.62120432321154" y2="101.62120432321154" /><text  class="poloto_tick_labels poloto_text" dominant-baseline="middle" text-anchor="end" x="135" y="101.62120432321154" >7.375</text><text  class="poloto_tick_labels poloto_text" dominant-baseline="middle" text-anchor="start" x="440.00000000000006" y="70" >¹2022-05-01 00:00:00 UTC in Months</text><line  class="poloto_axis_lines" stroke="black" x1="213.02521008403346" x2="213.02521008403346" y1="400" y2="405" /><line  class="poloto_tick_line" stroke="black" x1="213.02521008403346" x2="213.02521008403346" y1="400" y2="100.00000000000006" /><text  class="poloto_tick_labels poloto_text" dominant-baseline="start" text-anchor="middle" x="213.02521008403346" y="430" >2022 May¹</text><line  class="poloto_axis_lines" stroke="black" x1="298.4593837534994" x2="298.4593837534994" y1="400" y2="405" /><line  class="poloto_tick_line" stroke="black" x1="298.4593837534994" x2="298.4593837534994" y1="400" y2="100.00000000000006" /><text  class="poloto_tick_labels poloto_text" dominant-baseline="start" text-anchor="middle" x="298.4593837534994" y="430" >2022 Jul</text><line  class="poloto_axis_lines" stroke="black" x1="385.29411764705947" x2="385.29411764705947" y1="400" y2="405" /><line  class="poloto_tick_line" stroke="black" x1="385.29411764705947" x2="385.29411764705947" y1="400" y2="100.00000000000006" /><text  class="poloto_tick_labels poloto_text" dominant-baseline="start" text-anchor="middle" x="385.29411764705947" y="430" >2022 Sep</text><line  class="poloto_axis_lines" stroke="black" x1="470.72829131652543" x2="470.72829131652543" y1="400" y2="405" /><line  class="poloto_tick_line" stroke="black" x1="470.72829131652543" x2="470.72829131652543" y1="400" y2="100.00000000000006" /><text  class="poloto_tick_labels poloto_text" dominant-baseline="start" text-anchor="middle" x="470.72829131652543" y="430" >2022 Nov</text><line  class="poloto_axis_lines" stroke="black" x1="556.162464985995" x2="556.162464985995" y1="400" y2="405" /><line  class="poloto_tick_line" stroke="black" x1="556.162464985995" x2="556.162464985995" y1="400" y2="100.00000000000006" /><text  class="poloto_tick_labels poloto_text" dominant-baseline="start" text-anchor="middle" x="556.162464985995" y="430" >2023 Jan</text><line  class="poloto_axis_lines" stroke="black" x1="638.7955182072837" x2="638.7955182072837" y1="400" y2="405" /><line  class="poloto_tick_line" stroke="black" x1="638.7955182072837" x2="638.7955182072837" y1="400" y2="100.00000000000006" /><text  class="poloto_tick_labels poloto_text" dominant-baseline="start" text-anchor="middle" x="638.7955182072837" y="430" >2023 Mar</text><path  stroke="black" fill="none" class="poloto_axis_lines" d=" M 150 400 L 650 400" /><path  stroke="black" fill="none" class="poloto_axis_lines" d=" M 150 400 L 150 100.00000000000006" /></svg>