<svg class="poloto" width="800" height="500" viewBox="0 0 800 500" xmlns="http://www.w3.org/2000/svg"><style>.poloto{stroke-linecap:round;stroke-linejoin:round;font-family:Roboto,sans-serif;font-size:16px;}.poloto_background{fill:#262626;}.poloto_scatter{stroke-width:7}.poloto_tick_line{stroke:dimgray;stroke-width:0.5}.poloto_line{stroke-width:2}.poloto_text{fill: white;}.poloto_axis_lines{stroke: white;stroke-width:3;fill:none;stroke-dasharray:none}.poloto_title{font-size:24px;dominant-baseline:start;text-anchor:middle;}.poloto_xname{font-size:24px;dominant-baseline:start;text-anchor:middle;}.poloto_yname{font-size:24px;dominant-baseline:start;text-anchor:middle;}.poloto0stroke{stroke:blue;}.poloto1stroke{stroke:red;}.poloto2stroke{stroke:green;}.poloto3stroke{stroke:gold;}.poloto4stroke{stroke:aqua;}.poloto5stroke{stroke:lime;}.poloto6stroke{stroke:orange;}.poloto7stroke{stroke:chocolate;}.poloto0fill{fill:blue;}.poloto1fill{fill:red;}.poloto2fill{fill:green;}.poloto3fill{fill:gold;}.poloto4fill{fill:aqua;}.poloto5fill{fill:lime;}.poloto6fill{fill:orange;}.poloto7fill{fill:chocolate;}</style><circle  r="1e5" class="poloto_background" /><text  class="poloto_text poloto_legend_text" x="675" y="100" >Refinance 15</text><line  class="poloto_line poloto_legend_icon poloto0stroke poloto0legend" stroke="black" x1="680" x2="730" y1="81.25" y2="81.25" /><path  class="poloto_line poloto0stroke" fill="none" stroke="black" d=" M 150.00 390.09 L 152.50 400.00 L 160.00 385.96 L 162.50 373.93 L 165.00 385.96 L 165.00 385.96 L 170.00 345.86 L 177.50 343.74 L 180.00 357.78 L 182.50 327.48 L 185.00 329.60 L 187.50 323.25 L 195.00 325.36 L 197.50 316.90 L 197.50 316.90 L 202.50 317.68 L 205.00 287.37 L 212.50 300.52 L 215.00 304.75 L 217.50 304.75 L 220.00 303.64 L 222.50 297.18 L 232.50 240.59 L 235.00 265.76 L 237.50 246.27 L 240.00 238.69 L 240.00 238.69 L 250.00 267.99 L 255.00 273.34 L 257.50 261.42 L 265.00 247.27 L 267.50 275.45 L 270.00 261.42 L 270.00 261.42 L 275.00 259.19 L 282.50 263.54 L 285.00 277.57 L 285.00 277.57 L 287.50 265.65 L 290.00 279.80 L 292.50 259.19 L 300.00 301.52 L 302.50 300.52 L 305.00 277.57 L 305.00 277.57 L 307.50 287.37 L 310.00 291.72 L 317.50 291.72 L 320.00 306.87 L 322.50 306.87 L 325.00 306.87 L 327.50 306.87 L 337.50 291.72 L 340.00 287.37 L 342.50 289.49 L 345.00 289.49 L 345.00 289.49 L 355.00 275.45 L 357.50 275.45 L 360.00 263.54 L 370.00 244.04 L 372.50 203.82 L 375.00 208.28 L 377.50 208.28 L 380.00 236.46 L 387.50 208.28 L 390.00 208.28 L 392.50 234.24 L 395.00 238.69 L 405.00 238.69 L 407.50 236.46 L 410.00 243.04 L 412.50 249.50 L 415.00 263.54 L 425.00 273.34 L 427.50 261.42 L 430.00 251.62 L 432.50 247.27 L 440.00 249.50 L 445.00 249.50 L 447.50 247.27 L 457.50 245.15 L 457.50 245.15 L 457.50 245.15 L 457.50 245.15 L 457.50 245.15 L 457.50 245.15 L 462.50 245.15 L 462.50 245.15 L 462.50 245.15 L 462.50 245.15 L 462.50 245.15 L 462.50 245.15 L 475.00 261.42 L 480.00 265.65 L 482.50 302.64 L 485.00 306.87 L 492.50 306.87 L 495.00 304.75 L 497.50 275.45 L 500.00 267.88 L 502.50 249.50 L 510.00 263.54 L 510.00 263.54 L 512.50 251.62 L 517.50 263.54 L 517.50 263.54 L 530.00 263.54 L 532.50 219.20 L 535.00 245.15 L 545.00 200.71 L 550.00 200.71 L 550.00 200.71 L 555.00 216.97 L 565.00 208.28 L 565.00 208.28 L 565.00 208.28 L 565.00 208.28 L 565.00 208.28 L 565.00 208.28 L 565.00 208.28 L 565.00 208.28 L 565.00 208.28 L 572.50 208.28 L 587.50 179.99 L 597.50 183.33 L 597.50 183.33 L 605.00 183.33 L 615.00 183.33 L 617.50 183.33 L 617.50 183.33 L 617.50 183.33 L 617.50 183.33 L 617.50 183.33 L 650.00 183.33" /><text  class="poloto_text poloto_legend_text" x="675" y="150" >Refinance 20</text><line  class="poloto_line poloto_legend_icon poloto1stroke poloto1legend" stroke="black" x1="680" x2="730" y1="131.25" y2="131.25" /><path  class="poloto_line poloto1stroke" fill="none" stroke="black" d=" M 150.00 328.59 L 152.50 358.34 L 160.00 314.00 L 162.50 300.41 L 165.00 312.89 L 165.00 312.89 L 170.00 273.90 L 177.50 270.55 L 180.00 284.70 L 182.50 268.88 L 185.00 283.03 L 187.50 256.52 L 195.00 297.07 L 197.50 256.52 L 197.50 256.52 L 202.50 256.52 L 202.50 256.52 L 212.50 203.04 L 215.00 245.82 L 217.50 256.52 L 220.00 270.55 L 222.50 243.04 L 232.50 215.97 L 235.00 212.51 L 237.50 205.61 L 240.00 189.79 L 247.50 196.70 L 250.00 226.66 L 255.00 215.97 L 257.50 212.51 L 265.00 201.26 L 267.50 214.30 L 270.00 214.30 L 270.00 214.30 L 275.00 214.30 L 282.50 215.97 L 285.00 244.15 L 285.00 244.15 L 287.50 228.33 L 290.00 254.85 L 292.50 244.15 L 300.00 245.82 L 302.50 244.15 L 305.00 244.15 L 305.00 244.15 L 307.50 245.82 L 310.00 254.85 L 317.50 256.52 L 320.00 261.53 L 322.50 261.53 L 325.00 261.53 L 327.50 261.53 L 337.50 254.85 L 340.00 240.70 L 342.50 244.15 L 345.00 244.15 L 345.00 244.15 L 355.00 226.66 L 357.50 230.00 L 360.00 217.64 L 370.00 157.93 L 372.50 133.20 L 375.00 147.34 L 377.50 157.93 L 380.00 187.78 L 387.50 170.18 L 390.00 161.38 L 392.50 189.57 L 395.00 203.04 L 405.00 203.04 L 407.50 187.78 L 410.00 201.93 L 412.50 215.97 L 415.00 231.79 L 425.00 242.37 L 427.50 228.33 L 430.00 214.30 L 432.50 204.72 L 440.00 212.51 L 445.00 215.97 L 447.50 214.30 L 457.50 215.97 L 457.50 215.97 L 457.50 215.97 L 457.50 215.97 L 457.50 215.97 L 457.50 215.97 L 457.50 215.97 L 457.50 215.97 L 457.50 215.97 L 457.50 215.97 L 457.50 215.97 L 457.50 215.97 L 475.00 242.37 L 480.00 245.82 L 482.50 270.55 L 485.00 273.90 L 492.50 270.22 L 495.00 270.22 L 497.50 256.52 L 500.00 261.53 L 502.50 240.70 L 510.00 230.00 L 510.00 230.00 L 512.50 230.00 L 517.50 244.15 L 517.50 244.15 L 530.00 240.70 L 532.50 215.97 L 535.00 215.97 L 545.00 197.81 L 550.00 182.55 L 550.00 182.55 L 555.00 199.59 L 565.00 157.93 L 565.00 157.93 L 565.00 157.93 L 565.00 157.93 L 565.00 157.93 L 565.00 157.93 L 565.00 157.93 L 565.00 157.93 L 565.00 157.93 L 572.50 157.93 L 587.50 140.22 L 597.50 142.00 L 602.50 142.00 L 605.00 142.00 L 605.00 142.00 L 617.50 142.00 L 620.00 142.00 L 620.00 142.00 L 620.00 142.00 L 620.00 142.00 L 650.00 142.00" /><text  class="poloto_text poloto_legend_text" x="675" y="200" >Refinance 30</text><line  class="poloto_line poloto_legend_icon poloto2stroke poloto2legend" stroke="black" x1="680" x2="730" y1="181.25" y2="181.25" /><path  class="poloto_line poloto2stroke" fill="none" stroke="black" d=" M 150.00 325.47 L 152.50 336.06 L 160.00 319.57 L 162.50 306.65 L 165.00 309.10 L 165.00 309.10 L 170.00 282.03 L 177.50 279.69 L 180.00 293.72 L 182.50 278.46 L 185.00 292.50 L 187.50 265.54 L 195.00 278.46 L 197.50 251.39 L 200.00 251.39 L 202.50 250.17 L 205.00 215.97 L 212.50 221.98 L 215.00 237.36 L 217.50 251.39 L 220.00 238.58 L 222.50 223.21 L 232.50 211.51 L 235.00 192.46 L 237.50 189.90 L 240.00 187.23 L 247.50 192.46 L 250.00 214.30 L 255.00 211.51 L 257.50 208.95 L 265.00 195.02 L 267.50 210.17 L 270.00 195.02 L 270.00 195.02 L 275.00 195.02 L 282.50 197.59 L 285.00 221.98 L 285.00 221.98 L 287.50 210.17 L 290.00 211.51 L 292.50 212.74 L 300.00 223.21 L 302.50 211.51 L 305.00 211.51 L 305.00 211.51 L 307.50 224.43 L 310.00 225.77 L 317.50 227.00 L 320.00 238.58 L 322.50 238.58 L 325.00 241.03 L 327.50 241.03 L 337.50 236.02 L 340.00 221.98 L 342.50 224.43 L 345.00 223.21 L 345.00 223.21 L 355.00 210.17 L 357.50 210.17 L 360.00 196.25 L 370.00 139.88 L 372.50 100.00 L 375.00 124.40 L 377.50 139.88 L 380.00 153.92 L 387.50 141.11 L 390.00 139.88 L 392.50 165.50 L 395.00 168.07 L 405.00 168.07 L 407.50 152.69 L 410.00 165.50 L 412.50 179.54 L 415.00 210.17 L 425.00 211.51 L 427.50 196.25 L 430.00 169.40 L 432.50 165.50 L 440.00 191.13 L 445.00 168.07 L 447.50 166.73 L 457.50 192.46 L 457.50 192.46 L 457.50 192.46 L 457.50 192.46 L 457.50 192.46 L 457.50 192.46 L 462.50 192.46 L 462.50 192.46 L 462.50 192.46 L 462.50 192.46 L 462.50 192.46 L 462.50 192.46 L 475.00 208.95 L 480.00 211.51 L 482.50 236.02 L 485.00 252.62 L 492.50 251.39 L 495.00 251.39 L 497.50 223.21 L 500.00 227.00 L 502.50 208.95 L 510.00 223.21 L 510.00 223.21 L 512.50 212.74 L 517.50 224.43 L 517.50 224.43 L 530.00 221.98 L 532.50 197.59 L 535.00 196.25 L 545.00 164.17 L 550.00 152.69 L 550.00 152.69 L 555.00 166.73 L 565.00 151.36 L 565.00 151.36 L 565.00 151.36 L 565.00 151.36 L 565.00 151.36 L 565.00 151.36 L 565.00 151.36 L 565.00 151.36 L 572.50 151.36 L 572.50 150.02 L 587.50 133.20 L 597.50 104.90 L 597.50 104.90 L 605.00 104.90 L 605.00 104.90 L 617.50 104.90 L 620.00 104.90 L 620.00 104.90 L 620.00 104.90 L 620.00 104.90 L 650.00 104.90" /><text  class="poloto_labels poloto_text poloto_title" x="400" y="37.5" >lower.com purchase rates</text><text  class="poloto_labels poloto_text poloto_xname" x="400" y="481.25" >Date</text><text  class="poloto_labels poloto_text poloto_yname" transform="rotate(-90,37.5,250)" x="37.5" y="250" >Rate (%)</text><text  class="poloto_tick_labels poloto_text" dominant-baseline="middle" text-anchor="start" x="150" y="70" ></text><line  class="poloto_axis_lines" stroke="black" x1="150" x2="144" y1="387.18900854066095" y2="387.18900854066095" /><line  class="poloto_tick_line" stroke="black" x1="150" x2="650" y1="387.18900854066095" y2="387.18900854066095" /><text  class="poloto_tick_labels poloto_text" dominant-baseline="middle" text-anchor="end" x="135" y="387.18900854066095" >3.625</text><line  class="poloto_axis_lines" stroke="black" x1="150" x2="144" y1="373.26401782398807" y2="373.26401782398807" /><line  class="poloto_tick_line" stroke="black" x1="150" x2="650" y1="373.26401782398807" y2="373.26401782398807" /><text  class="poloto_tick_labels poloto_text" dominant-baseline="middle" text-anchor="end" x="135" y="373.26401782398807" >3.75</text><line  class="poloto_axis_lines" stroke="black" x1="150" x2="144" y1="359.33902710731525" y2="359.33902710731525" /><line  class="poloto_tick_line" stroke="black" x1="150" x2="650" y1="359.33902710731525" y2="359.33902710731525" /><text  class="poloto_tick_labels poloto_text" dominant-baseline="middle" text-anchor="end" x="135" y="359.33902710731525" >3.875</text><line  class="poloto_axis_lines" stroke="black" x1="150" x2="144" y1="345.41403639064237" y2="345.41403639064237" /><line  class="poloto_tick_line" stroke="black" x1="150" x2="650" y1="345.41403639064237" y2="345.41403639064237" /><text  class="poloto_tick_labels poloto_text" dominant-baseline="middle" text-anchor="end" x="135" y="345.41403639064237" >4</text><line  class="poloto_axis_lines" stroke="black" x1="150" x2="144" y1="331.4890456739695" y2="331.4890456739695" /><line  class="poloto_tick_line" stroke="black" x1="150" x2="650" y1="331.4890456739695" y2="331.4890456739695" /><text  class="poloto_tick_labels poloto_text" dominant-baseline="middle" text-anchor="end" x="135" y="331.4890456739695" >4.125</text><line  class="poloto_axis_lines" stroke="black" x1="150" x2="144" y1="317.56405495729666" y2="317.56405495729666" /><line  class="poloto_tick_line" stroke="black" x1="150" x2="650" y1="317.56405495729666" y2="317.56405495729666" /><text  class="poloto_tick_labels poloto_text" dominant-baseline="middle" text-anchor="end" x="135" y="317.56405495729666" >4.25</text><line  class="poloto_axis_lines" stroke="black" x1="150" x2="144" y1="303.6390642406238" y2="303.6390642406238" /><line  class="poloto_tick_line" stroke="black" x1="150" x2="650" y1="303.6390642406238" y2="303.6390642406238" /><text  class="poloto_tick_labels poloto_text" dominant-baseline="middle" text-anchor="end" x="135" y="303.6390642406238" >4.375</text><line  class="poloto_axis_lines" stroke="black" x1="150" x2="144" y1="289.71407352395096" y2="289.71407352395096" /><line  class="poloto_tick_line" stroke="black" x1="150" x2="650" y1="289.71407352395096" y2="289.71407352395096" /><text  class="poloto_tick_labels poloto_text" dominant-baseline="middle" text-anchor="end" x="135" y="289.71407352395096" >4.5</text><line  class="poloto_axis_lines" stroke="black" x1="150" x2="144" y1="275.7890828072781" y2="275.7890828072781" /><line  class="poloto_tick_line" stroke="black" x1="150" x2="650" y1="275.7890828072781" y2="275.7890828072781" /><text  class="poloto_tick_labels poloto_text" dominant-baseline="middle" text-anchor="end" x="135" y="275.7890828072781" >4.625</text><line  class="poloto_axis_lines" stroke="black" x1="150" x2="144" y1="261.86409209060525" y2="261.86409209060525" /><line  class="poloto_tick_line" stroke="black" x1="150" x2="650" y1="261.86409209060525" y2="261.86409209060525" /><text  class="poloto_tick_labels poloto_text" dominant-baseline="middle" text-anchor="end" x="135" y="261.86409209060525" >4.75</text><line  class="poloto_axis_lines" stroke="black" x1="150" x2="144" y1="247.93910137393243" y2="247.93910137393243" /><line  class="poloto_tick_line" stroke="black" x1="150" x2="650" y1="247.93910137393243" y2="247.93910137393243" /><text  class="poloto_tick_labels poloto_text" dominant-baseline="middle" text-anchor="end" x="135" y="247.93910137393243" >4.875</text><line  class="poloto_axis_lines" stroke="black" x1="150" x2="144" y1="234.0141106572595" y2="234.0141106572595" /><line  class="poloto_tick_line" stroke="black" x1="150" x2="650" y1="234.0141106572595" y2="234.0141106572595" /><text  class="poloto_tick_labels poloto_text" dominant-baseline="middle" text-anchor="end" x="135" y="234.0141106572595" >5</text><line  class="poloto_axis_lines" stroke="black" x1="150" x2="144" y1="220.08911994058667" y2="220.08911994058667" /><line  class="poloto_tick_line" stroke="black" x1="150" x2="650" y1="220.08911994058667" y2="220.08911994058667" /><text  class="poloto_tick_labels poloto_text" dominant-baseline="middle" text-anchor="end" x="135" y="220.08911994058667" >5.125</text><line  class="poloto_axis_lines" stroke="black" x1="150" x2="144" y1="206.16412922391385" y2="206.16412922391385" /><line  class="poloto_tick_line" stroke="black" x1="150" x2="650" y1="206.16412922391385" y2="206.16412922391385" /><text  class="poloto_tick_labels poloto_text" dominant-baseline="middle" text-anchor="end" x="135" y="206.16412922391385" >5.25</text><line  class="poloto_axis_lines" stroke="black" x1="150" x2="144" y1="192.23913850724102" y2="192.23913850724102" /><line  class="poloto_tick_line" stroke="black" x1="150" x2="650" y1="192.23913850724102" y2="192.23913850724102" /><text  class="poloto_tick_labels poloto_text" dominant-baseline="middle" text-anchor="end" x="135" y="192.23913850724102" >5.375</text><line  class="poloto_axis_lines" stroke="black" x1="150" x2="144" y1="178.3141477905681" y2="178.3141477905681" /><line  class="poloto_tick_line" stroke="black" x1="150" x2="650" y1="178.3141477905681" y2="178.3141477905681" /><text  class="poloto_tick_labels poloto_text" dominant-baseline="middle" text-anchor="end" x="135" y="178.3141477905681" >5.5</text><line  class="poloto_axis_lines" stroke="black" x1="150" x2="144" y1="164.38915707389526" y2="164.38915707389526" /><line  class="poloto_tick_line" stroke="black" x1="150" x2="650" y1="164.38915707389526" y2="164.38915707389526" /><text  class="poloto_tick_labels poloto_text" dominant-baseline="middle" text-anchor="end" x="135" y="164.38915707389526" >5.625</text><line  class="poloto_axis_lines" stroke="black" x1="150" x2="144" y1="150.46416635722244" y2="150.46416635722244" /><line  class="poloto_tick_line" stroke="black" x1="150" x2="650" y1="150.46416635722244" y2="150.46416635722244" /><text  class="poloto_tick_labels poloto_text" dominant-baseline="middle" text-anchor="end" x="135" y="150.46416635722244" >5.75</text><line  class="poloto_axis_lines" stroke="black" x1="150" x2="144" y1="136.53917564054962" y2="136.53917564054962" /><line  class="poloto_tick_line" stroke="black" x1="150" x2="650" y1="136.53917564054962" y2="136.53917564054962" /><text  class="poloto_tick_labels poloto_text" dominant-baseline="middle" text-anchor="end" x="135" y="136.53917564054962" >5.875</text><line  class="poloto_axis_lines" stroke="black" x1="150" x2="144" y1="122.61418492387668" y2="122.61418492387668" /><line  class="poloto_tick_line" stroke="black" x1="150" x2="650" y1="122.61418492387668" y2="122.61418492387668" /><text  class="poloto_tick_labels poloto_text" dominant-baseline="middle" text-anchor="end" x="135" y="122.61418492387668" >6</text><line  class="poloto_axis_lines" stroke="black" x1="150" x2="144" y1="108.68919420720385" y2="108.68919420720385" /><line  class="poloto_tick_line" stroke="black" x1="150" x2="650" y1="108.68919420720385" y2="108.68919420720385" /><text  class="poloto_tick_labels poloto_text" dominant-baseline="middle" text-anchor="end" x="135" y="108.68919420720385" >6.125</text><text  class="poloto_tick_labels poloto_text" dominant-baseline="middle" text-anchor="start" x="440.00000000000006" y="70" >¹2022-04-01 00:00:00 UTC in Months</text><line  class="poloto_axis_lines" stroke="black" x1="187.5" x2="187.5" y1="400" y2="405" /><line  class="poloto_tick_line" stroke="black" x1="187.5" x2="187.5" y1="400" y2="100" /><text  class="poloto_tick_labels poloto_text" dominant-baseline="start" text-anchor="middle" x="187.5" y="430" >2022 Apr¹</text><line  class="poloto_axis_lines" stroke="black" x1="262.5" x2="262.5" y1="400" y2="405" /><line  class="poloto_tick_line" stroke="black" x1="262.5" x2="262.5" y1="400" y2="100" /><text  class="poloto_tick_labels poloto_text" dominant-baseline="start" text-anchor="middle" x="262.5" y="430" >2022 May</text><line  class="poloto_axis_lines" stroke="black" x1="340" x2="340" y1="400" y2="405" /><line  class="poloto_tick_line" stroke="black" x1="340" x2="340" y1="400" y2="100" /><text  class="poloto_tick_labels poloto_text" dominant-baseline="start" text-anchor="middle" x="340" y="430" >2022 Jun</text><line  class="poloto_axis_lines" stroke="black" x1="415" x2="415" y1="400" y2="405" /><line  class="poloto_tick_line" stroke="black" x1="415" x2="415" y1="400" y2="100" /><text  class="poloto_tick_labels poloto_text" dominant-baseline="start" text-anchor="middle" x="415" y="430" >2022 Jul</text><line  class="poloto_axis_lines" stroke="black" x1="492.5" x2="492.5" y1="400" y2="405" /><line  class="poloto_tick_line" stroke="black" x1="492.5" x2="492.5" y1="400" y2="100" /><text  class="poloto_tick_labels poloto_text" dominant-baseline="start" text-anchor="middle" x="492.5" y="430" >2022 Aug</text><line  class="poloto_axis_lines" stroke="black" x1="570" x2="570" y1="400" y2="405" /><line  class="poloto_tick_line" stroke="black" x1="570" x2="570" y1="400" y2="100" /><text  class="poloto_tick_labels poloto_text" dominant-baseline="start" text-anchor="middle" x="570" y="430" >2022 Sep</text><line  class="poloto_axis_lines" stroke="black" x1="645" x2="645" y1="400" y2="405" /><line  class="poloto_tick_line" stroke="black" x1="645" x2="645" y1="400" y2="100" /><text  class="poloto_tick_labels poloto_text" dominant-baseline="start" text-anchor="middle" x="645" y="430" >2022 Oct</text><path  stroke="black" fill="none" class="poloto_axis_lines" d=" M 150 400 L 650 400" /><path  stroke="black" fill="none" class="poloto_axis_lines" d=" M 150 400 L 150 100" /></svg>