<svg class="poloto" width="800" height="500" viewBox="0 0 800 500" xmlns="http://www.w3.org/2000/svg"><style>.poloto{stroke-linecap:round;stroke-linejoin:round;font-family:Roboto,sans-serif;font-size:16px;}.poloto_background{fill:#262626;}.poloto_scatter{stroke-width:7}.poloto_tick_line{stroke:dimgray;stroke-width:0.5}.poloto_line{stroke-width:2}.poloto_text{fill: white;}.poloto_axis_lines{stroke: white;stroke-width:3;fill:none;stroke-dasharray:none}.poloto_title{font-size:24px;dominant-baseline:start;text-anchor:middle;}.poloto_xname{font-size:24px;dominant-baseline:start;text-anchor:middle;}.poloto_yname{font-size:24px;dominant-baseline:start;text-anchor:middle;}.poloto0stroke{stroke:blue;}.poloto1stroke{stroke:red;}.poloto2stroke{stroke:green;}.poloto3stroke{stroke:gold;}.poloto4stroke{stroke:aqua;}.poloto5stroke{stroke:lime;}.poloto6stroke{stroke:orange;}.poloto7stroke{stroke:chocolate;}.poloto0fill{fill:blue;}.poloto1fill{fill:red;}.poloto2fill{fill:green;}.poloto3fill{fill:gold;}.poloto4fill{fill:aqua;}.poloto5fill{fill:lime;}.poloto6fill{fill:orange;}.poloto7fill{fill:chocolate;}</style><circle  r="1e5" class="poloto_background" /><text  class="poloto_text poloto_legend_text" x="675" y="100" >30 years</text><line  class="poloto_line poloto_legend_icon poloto0stroke poloto0legend" stroke="black" x1="680" x2="730" y1="81.25" y2="81.25" /><path  class="poloto_line poloto0stroke" fill="none" stroke="black" d=" M 150.00 333.33 L 157.25 366.67 L 178.99 333.33 L 186.23 300.00 L 193.48 300.00 L 193.48 300.00 L 207.97 233.33 L 229.71 233.33 L 236.96 266.67 L 244.20 300.00 L 251.45 333.33 L 258.70 266.67 L 280.43 300.00 L 287.68 266.67 L 294.93 233.33 L 302.17 200.00 L 309.42 200.00 L 331.16 200.00 L 338.41 233.33 L 345.65 233.33 L 352.90 233.33 L 360.14 166.67 L 389.13 136.00 L 396.38 133.33 L 403.62 133.33 L 410.87 100.00 L 432.61 133.33 L 439.86 166.67 L 454.35 136.00 L 461.59 136.00 L 483.33 136.00 L 490.58 136.00 L 497.83 136.00 L 505.07 136.00 L 512.32 100.00 L 534.06 133.33 L 541.30 136.00 L 541.30 136.00 L 548.55 136.00 L 555.80 136.00 L 563.04 136.00 L 584.78 136.00 L 592.03 136.00 L 599.28 136.00 L 599.28 136.00 L 606.52 136.00 L 613.77 200.00 L 635.51 200.00 L 642.75 233.33 L 650.00 233.33" /><text  class="poloto_labels poloto_text poloto_title" x="400" y="37.5" >lower.com purchase rates</text><text  class="poloto_labels poloto_text poloto_xname" x="400" y="481.25" >Date</text><text  class="poloto_labels poloto_text poloto_yname" transform="rotate(-90,37.5,250)" x="37.5" y="250" >Rate (%)</text><text  class="poloto_tick_labels poloto_text" dominant-baseline="middle" text-anchor="start" x="150" y="70" ></text><line  class="poloto_axis_lines" stroke="black" x1="150" x2="144" y1="400" y2="400" /><line  class="poloto_tick_line" stroke="black" x1="150" x2="650" y1="400" y2="400" /><text  class="poloto_tick_labels poloto_text" dominant-baseline="middle" text-anchor="end" x="135" y="400" >4</text><line  class="poloto_axis_lines" stroke="black" x1="150" x2="144" y1="366.66666666666674" y2="366.66666666666674" /><line  class="poloto_tick_line" stroke="black" x1="150" x2="650" y1="366.66666666666674" y2="366.66666666666674" /><text  class="poloto_tick_labels poloto_text" dominant-baseline="middle" text-anchor="end" x="135" y="366.66666666666674" >4.125</text><line  class="poloto_axis_lines" stroke="black" x1="150" x2="144" y1="333.33333333333326" y2="333.33333333333326" /><line  class="poloto_tick_line" stroke="black" x1="150" x2="650" y1="333.33333333333326" y2="333.33333333333326" /><text  class="poloto_tick_labels poloto_text" dominant-baseline="middle" text-anchor="end" x="135" y="333.33333333333326" >4.25</text><line  class="poloto_axis_lines" stroke="black" x1="150" x2="144" y1="300" y2="300" /><line  class="poloto_tick_line" stroke="black" x1="150" x2="650" y1="300" y2="300" /><text  class="poloto_tick_labels poloto_text" dominant-baseline="middle" text-anchor="end" x="135" y="300" >4.375</text><line  class="poloto_axis_lines" stroke="black" x1="150" x2="144" y1="266.66666666666674" y2="266.66666666666674" /><line  class="poloto_tick_line" stroke="black" x1="150" x2="650" y1="266.66666666666674" y2="266.66666666666674" /><text  class="poloto_tick_labels poloto_text" dominant-baseline="middle" text-anchor="end" x="135" y="266.66666666666674" >4.5</text><line  class="poloto_axis_lines" stroke="black" x1="150" x2="144" y1="233.33333333333326" y2="233.33333333333326" /><line  class="poloto_tick_line" stroke="black" x1="150" x2="650" y1="233.33333333333326" y2="233.33333333333326" /><text  class="poloto_tick_labels poloto_text" dominant-baseline="middle" text-anchor="end" x="135" y="233.33333333333326" >4.625</text><line  class="poloto_axis_lines" stroke="black" x1="150" x2="144" y1="200" y2="200" /><line  class="poloto_tick_line" stroke="black" x1="150" x2="650" y1="200" y2="200" /><text  class="poloto_tick_labels poloto_text" dominant-baseline="middle" text-anchor="end" x="135" y="200" >4.75</text><line  class="poloto_axis_lines" stroke="black" x1="150" x2="144" y1="166.66666666666674" y2="166.66666666666674" /><line  class="poloto_tick_line" stroke="black" x1="150" x2="650" y1="166.66666666666674" y2="166.66666666666674" /><text  class="poloto_tick_labels poloto_text" dominant-baseline="middle" text-anchor="end" x="135" y="166.66666666666674" >4.875</text><line  class="poloto_axis_lines" stroke="black" x1="150" x2="144" y1="133.33333333333326" y2="133.33333333333326" /><line  class="poloto_tick_line" stroke="black" x1="150" x2="650" y1="133.33333333333326" y2="133.33333333333326" /><text  class="poloto_tick_labels poloto_text" dominant-baseline="middle" text-anchor="end" x="135" y="133.33333333333326" >5</text><line  class="poloto_axis_lines" stroke="black" x1="150" x2="144" y1="100" y2="100" /><line  class="poloto_tick_line" stroke="black" x1="150" x2="650" y1="100" y2="100" /><text  class="poloto_tick_labels poloto_text" dominant-baseline="middle" text-anchor="end" x="135" y="100" >5.125</text><text  class="poloto_tick_labels poloto_text" dominant-baseline="middle" text-anchor="start" x="440.00000000000006" y="70" >¹2022-04-01 00:00:00 UTC in Months</text><line  class="poloto_axis_lines" stroke="black" x1="258.69565217391937" x2="258.69565217391937" y1="400" y2="405" /><line  class="poloto_tick_line" stroke="black" x1="258.69565217391937" x2="258.69565217391937" y1="400" y2="100" /><text  class="poloto_tick_labels poloto_text" dominant-baseline="start" text-anchor="middle" x="258.69565217391937" y="430" >2022 Apr¹</text><line  class="poloto_axis_lines" stroke="black" x1="476.086956521729" x2="476.086956521729" y1="400" y2="405" /><line  class="poloto_tick_line" stroke="black" x1="476.086956521729" x2="476.086956521729" y1="400" y2="100" /><text  class="poloto_tick_labels poloto_text" dominant-baseline="start" text-anchor="middle" x="476.086956521729" y="430" >2022 May</text><path  stroke="black" fill="none" class="poloto_axis_lines" d=" M 150 400 L 650 400" /><path  stroke="black" fill="none" class="poloto_axis_lines" d=" M 150 400 L 150 100" /></svg>