<svg class="poloto" width="800" height="500" viewBox="0 0 800 500" xmlns="http://www.w3.org/2000/svg"><style>.poloto{stroke-linecap:round;stroke-linejoin:round;font-family:Roboto,sans-serif;font-size:16px;}.poloto_background{fill:#262626;}.poloto_scatter{stroke-width:7}.poloto_tick_line{stroke:dimgray;stroke-width:0.5}.poloto_line{stroke-width:2}.poloto_text{fill: white;}.poloto_axis_lines{stroke: white;stroke-width:3;fill:none;stroke-dasharray:none}.poloto_title{font-size:24px;dominant-baseline:start;text-anchor:middle;}.poloto_xname{font-size:24px;dominant-baseline:start;text-anchor:middle;}.poloto_yname{font-size:24px;dominant-baseline:start;text-anchor:middle;}.poloto0stroke{stroke:blue;}.poloto1stroke{stroke:red;}.poloto2stroke{stroke:green;}.poloto3stroke{stroke:gold;}.poloto4stroke{stroke:aqua;}.poloto5stroke{stroke:lime;}.poloto6stroke{stroke:orange;}.poloto7stroke{stroke:chocolate;}.poloto0fill{fill:blue;}.poloto1fill{fill:red;}.poloto2fill{fill:green;}.poloto3fill{fill:gold;}.poloto4fill{fill:aqua;}.poloto5fill{fill:lime;}.poloto6fill{fill:orange;}.poloto7fill{fill:chocolate;}</style><circle  r="1e5" class="poloto_background" /><text  class="poloto_text poloto_legend_text" x="675" y="100" >Refinance 15</text><line  class="poloto_line poloto_legend_icon poloto0stroke poloto0legend" stroke="black" x1="680" x2="730" y1="81.25" y2="81.25" /><path  class="poloto_line poloto0stroke" fill="none" stroke="black" d=" M 150.00 392.46 L 151.62 400.00 L 156.47 389.32 L 158.09 380.17 L 159.71 389.32 L 159.71 389.32 L 162.94 358.81 L 167.80 357.20 L 169.42 367.88 L 171.04 344.83 L 172.65 346.44 L 174.27 341.61 L 179.13 343.22 L 180.74 336.78 L 180.74 336.78 L 183.98 337.37 L 185.60 314.32 L 190.45 324.32 L 192.07 327.54 L 193.69 327.54 L 195.31 326.69 L 196.93 321.78 L 203.40 278.73 L 205.02 297.88 L 206.63 283.05 L 208.25 277.29 L 208.25 277.29 L 214.72 299.58 L 217.96 303.64 L 219.58 294.58 L 224.43 283.81 L 226.05 305.25 L 227.67 294.58 L 227.67 294.58 L 230.91 292.88 L 235.76 296.19 L 237.38 306.86 L 237.38 306.86 L 239.00 297.80 L 240.61 308.56 L 242.23 292.88 L 247.09 325.08 L 248.71 324.32 L 250.32 306.86 L 250.32 306.86 L 251.94 314.32 L 253.56 317.63 L 258.41 317.63 L 260.03 329.15 L 261.65 329.15 L 263.27 329.15 L 264.89 329.15 L 271.36 317.63 L 272.98 314.32 L 274.60 315.93 L 276.21 315.93 L 276.21 315.93 L 282.69 305.25 L 284.30 305.25 L 285.92 296.19 L 292.39 281.36 L 294.01 250.76 L 295.63 254.15 L 297.25 254.15 L 298.87 275.59 L 303.72 254.15 L 305.34 254.15 L 306.96 273.90 L 308.58 277.29 L 315.05 277.29 L 316.67 275.59 L 318.28 280.59 L 319.90 285.51 L 321.52 296.19 L 327.99 303.64 L 329.61 294.58 L 331.23 287.12 L 332.85 283.81 L 337.70 285.51 L 340.94 285.51 L 342.56 283.81 L 349.03 282.20 L 349.03 282.20 L 349.03 282.20 L 349.03 282.20 L 349.03 282.20 L 349.03 282.20 L 352.27 282.20 L 352.27 282.20 L 352.27 282.20 L 352.27 282.20 L 352.27 282.20 L 352.27 282.20 L 360.36 294.58 L 363.59 297.80 L 365.21 325.93 L 366.83 329.15 L 371.68 329.15 L 373.30 327.54 L 374.92 305.25 L 376.54 299.49 L 378.16 285.51 L 383.01 296.19 L 383.01 296.19 L 384.63 287.12 L 387.86 296.19 L 387.86 296.19 L 395.95 296.19 L 397.57 262.46 L 399.19 282.20 L 405.66 248.39 L 408.90 248.39 L 408.90 248.39 L 412.14 260.76 L 418.61 254.15 L 418.61 254.15 L 418.61 254.15 L 418.61 254.15 L 418.61 254.15 L 418.61 254.15 L 418.61 254.15 L 418.61 254.15 L 418.61 254.15 L 423.46 254.15 L 433.17 232.63 L 439.64 235.17 L 439.64 235.17 L 444.50 235.17 L 450.97 235.17 L 452.59 235.17 L 452.59 235.17 L 452.59 235.17 L 452.59 235.17 L 452.59 235.17 L 473.62 235.17 L 475.24 235.17 L 484.95 139.75 L 486.57 130.68 L 488.19 130.68 L 546.44 159.15 L 552.91 159.15 L 554.53 159.15 L 556.15 175.51 L 559.39 184.49 L 559.39 184.49 L 565.86 184.49 L 567.48 184.49 L 569.09 184.49 L 570.71 184.49 L 575.57 184.49 L 577.18 184.49 L 580.42 184.49 L 582.04 184.49 L 586.89 184.49 L 588.51 184.49 L 588.51 184.49 L 593.37 184.49 L 598.22 184.49 L 599.84 184.49 L 601.46 184.49 L 603.07 184.49 L 604.69 184.49 L 611.17 209.15 L 612.78 180.68 L 614.40 159.15 L 616.02 169.92 L 620.87 169.92 L 622.49 169.92 L 622.49 169.92 L 625.73 193.05 L 627.35 193.05 L 632.20 193.05 L 633.82 193.05 L 635.44 193.05 L 637.06 193.05 L 638.67 193.05 L 638.67 193.05 L 638.67 193.05 L 638.67 193.05 L 646.76 193.05 L 650.00 193.05" /><text  class="poloto_text poloto_legend_text" x="675" y="150" >Refinance 20</text><line  class="poloto_line poloto_legend_icon poloto1stroke poloto1legend" stroke="black" x1="680" x2="730" y1="131.25" y2="131.25" /><path  class="poloto_line poloto1stroke" fill="none" stroke="black" d=" M 150.00 345.68 L 151.62 368.31 L 156.47 334.58 L 158.09 324.24 L 159.71 333.73 L 159.71 333.73 L 162.94 304.07 L 167.80 301.53 L 169.42 312.29 L 171.04 300.25 L 172.65 311.02 L 174.27 290.85 L 179.13 321.69 L 180.74 290.85 L 180.74 290.85 L 183.98 290.85 L 183.98 290.85 L 190.45 250.17 L 192.07 282.71 L 193.69 290.85 L 195.31 301.53 L 196.93 280.59 L 203.40 260.00 L 205.02 257.37 L 206.63 252.12 L 208.25 240.08 L 213.11 245.34 L 214.72 268.14 L 217.96 260.00 L 219.58 257.37 L 224.43 248.81 L 226.05 258.73 L 227.67 258.73 L 227.67 258.73 L 230.91 258.73 L 235.76 260.00 L 237.38 281.44 L 237.38 281.44 L 239.00 269.41 L 240.61 289.58 L 242.23 281.44 L 247.09 282.71 L 248.71 281.44 L 250.32 281.44 L 250.32 281.44 L 251.94 282.71 L 253.56 289.58 L 258.41 290.85 L 260.03 294.66 L 261.65 294.66 L 263.27 294.66 L 264.89 294.66 L 271.36 289.58 L 272.98 278.81 L 274.60 281.44 L 276.21 281.44 L 276.21 281.44 L 282.69 268.14 L 284.30 270.68 L 285.92 261.27 L 292.39 215.85 L 294.01 197.03 L 295.63 207.80 L 297.25 215.85 L 298.87 238.56 L 303.72 225.17 L 305.34 218.47 L 306.96 239.92 L 308.58 250.17 L 315.05 250.17 L 316.67 238.56 L 318.28 249.32 L 319.90 260.00 L 321.52 272.03 L 327.99 280.08 L 329.61 269.41 L 331.23 258.73 L 332.85 251.44 L 337.70 257.37 L 340.94 260.00 L 342.56 258.73 L 349.03 260.00 L 349.03 260.00 L 349.03 260.00 L 349.03 260.00 L 349.03 260.00 L 349.03 260.00 L 349.03 260.00 L 349.03 260.00 L 349.03 260.00 L 349.03 260.00 L 349.03 260.00 L 349.03 260.00 L 360.36 280.08 L 363.59 282.71 L 365.21 301.53 L 366.83 304.07 L 371.68 301.27 L 373.30 301.27 L 374.92 290.85 L 376.54 294.66 L 378.16 278.81 L 383.01 270.68 L 383.01 270.68 L 384.63 270.68 L 387.86 281.44 L 387.86 281.44 L 395.95 278.81 L 397.57 260.00 L 399.19 260.00 L 405.66 246.19 L 408.90 234.58 L 408.90 234.58 L 412.14 247.54 L 418.61 215.85 L 418.61 215.85 L 418.61 215.85 L 418.61 215.85 L 418.61 215.85 L 418.61 215.85 L 418.61 215.85 L 418.61 215.85 L 418.61 215.85 L 423.46 215.85 L 433.17 202.37 L 439.64 203.73 L 442.88 203.73 L 444.50 203.73 L 444.50 203.73 L 452.59 203.73 L 454.21 203.73 L 454.21 203.73 L 454.21 203.73 L 454.21 203.73 L 473.62 203.73 L 475.24 203.73 L 484.95 118.81 L 486.57 102.97 L 486.57 102.97 L 549.68 155.34 L 552.91 155.34 L 554.53 155.34 L 557.77 174.15 L 559.39 175.51 L 559.39 175.51 L 565.86 175.51 L 567.48 175.51 L 569.09 175.51 L 570.71 175.51 L 575.57 175.51 L 577.18 175.51 L 580.42 175.51 L 582.04 175.51 L 586.89 175.51 L 588.51 175.51 L 588.51 175.51 L 593.37 175.51 L 598.22 175.51 L 599.84 175.51 L 601.46 175.51 L 603.07 175.51 L 604.69 175.51 L 611.17 156.36 L 612.78 145.93 L 614.40 144.58 L 616.02 147.37 L 620.87 147.37 L 622.49 147.37 L 622.49 147.37 L 625.73 167.46 L 627.35 167.46 L 632.20 167.46 L 633.82 167.46 L 635.44 167.46 L 637.06 167.46 L 638.67 167.46 L 638.67 167.46 L 645.15 167.46 L 645.15 167.46 L 646.76 167.46 L 650.00 167.46" /><text  class="poloto_text poloto_legend_text" x="675" y="200" >Refinance 30</text><line  class="poloto_line poloto_legend_icon poloto2stroke poloto2legend" stroke="black" x1="680" x2="730" y1="181.25" y2="181.25" /><path  class="poloto_line poloto2stroke" fill="none" stroke="black" d=" M 150.00 343.31 L 151.62 351.36 L 156.47 338.81 L 158.09 328.98 L 159.71 330.85 L 159.71 330.85 L 162.94 310.25 L 167.80 308.47 L 169.42 319.15 L 171.04 307.54 L 172.65 318.22 L 174.27 297.71 L 179.13 307.54 L 180.74 286.95 L 182.36 286.95 L 183.98 286.02 L 185.60 260.00 L 190.45 264.58 L 192.07 276.27 L 193.69 286.95 L 195.31 277.20 L 196.93 265.51 L 203.40 256.61 L 205.02 242.12 L 206.63 240.17 L 208.25 238.14 L 213.11 242.12 L 214.72 258.73 L 217.96 256.61 L 219.58 254.66 L 224.43 244.07 L 226.05 255.59 L 227.67 244.07 L 227.67 244.07 L 230.91 244.07 L 235.76 246.02 L 237.38 264.58 L 237.38 264.58 L 239.00 255.59 L 240.61 256.61 L 242.23 257.54 L 247.09 265.51 L 248.71 256.61 L 250.32 256.61 L 250.32 256.61 L 251.94 266.44 L 253.56 267.46 L 258.41 268.39 L 260.03 277.20 L 261.65 277.20 L 263.27 279.07 L 264.89 279.07 L 271.36 275.25 L 272.98 264.58 L 274.60 266.44 L 276.21 265.51 L 276.21 265.51 L 282.69 255.59 L 284.30 255.59 L 285.92 245.00 L 292.39 202.12 L 294.01 171.78 L 295.63 190.34 L 297.25 202.12 L 298.87 212.80 L 303.72 203.05 L 305.34 202.12 L 306.96 221.61 L 308.58 223.56 L 315.05 223.56 L 316.67 211.86 L 318.28 221.61 L 319.90 232.29 L 321.52 255.59 L 327.99 256.61 L 329.61 245.00 L 331.23 224.58 L 332.85 221.61 L 337.70 241.10 L 340.94 223.56 L 342.56 222.54 L 349.03 242.12 L 349.03 242.12 L 349.03 242.12 L 349.03 242.12 L 349.03 242.12 L 349.03 242.12 L 352.27 242.12 L 352.27 242.12 L 352.27 242.12 L 352.27 242.12 L 352.27 242.12 L 352.27 242.12 L 360.36 254.66 L 363.59 256.61 L 365.21 275.25 L 366.83 287.88 L 371.68 286.95 L 373.30 286.95 L 374.92 265.51 L 376.54 268.39 L 378.16 254.66 L 383.01 265.51 L 383.01 265.51 L 384.63 257.54 L 387.86 266.44 L 387.86 266.44 L 395.95 264.58 L 397.57 246.02 L 399.19 245.00 L 405.66 220.59 L 408.90 211.86 L 408.90 211.86 L 412.14 222.54 L 418.61 210.85 L 418.61 210.85 L 418.61 210.85 L 418.61 210.85 L 418.61 210.85 L 418.61 210.85 L 418.61 210.85 L 418.61 210.85 L 423.46 210.85 L 423.46 209.83 L 433.17 197.03 L 439.64 175.51 L 439.64 175.51 L 444.50 175.51 L 444.50 175.51 L 452.59 175.51 L 454.21 175.51 L 454.21 175.51 L 454.21 175.51 L 454.21 175.51 L 473.62 175.51 L 475.24 175.51 L 484.95 127.03 L 486.57 100.00 L 486.57 100.00 L 549.68 146.44 L 552.91 146.44 L 554.53 146.44 L 556.15 150.76 L 559.39 160.59 L 559.39 160.59 L 565.86 160.59 L 567.48 160.59 L 569.09 160.59 L 570.71 160.59 L 575.57 160.59 L 577.18 160.59 L 580.42 160.59 L 582.04 160.59 L 586.89 160.59 L 588.51 160.59 L 588.51 160.59 L 593.37 160.59 L 598.22 160.59 L 599.84 160.59 L 601.46 160.59 L 603.07 160.59 L 604.69 160.59 L 611.17 144.24 L 612.78 152.88 L 614.40 132.37 L 616.02 152.88 L 620.87 152.88 L 622.49 152.88 L 622.49 152.88 L 625.73 152.88 L 627.35 152.88 L 632.20 152.88 L 633.82 152.88 L 635.44 152.88 L 637.06 152.88 L 638.67 152.88 L 638.67 152.88 L 645.15 152.88 L 645.15 152.88 L 646.76 152.88 L 650.00 152.88" /><text  class="poloto_labels poloto_text poloto_title" x="400" y="37.5" >lower.com purchase rates</text><text  class="poloto_labels poloto_text poloto_xname" x="400" y="481.25" >Date</text><text  class="poloto_labels poloto_text poloto_yname" transform="rotate(-90,37.5,250)" x="37.5" y="250" >Rate (%)</text><text  class="poloto_tick_labels poloto_text" dominant-baseline="middle" text-anchor="start" x="150" y="70" ></text><line  class="poloto_axis_lines" stroke="black" x1="150" x2="144" y1="390.2542372881356" y2="390.2542372881356" /><line  class="poloto_tick_line" stroke="black" x1="150" x2="650" y1="390.2542372881356" y2="390.2542372881356" /><text  class="poloto_tick_labels poloto_text" dominant-baseline="middle" text-anchor="end" x="135" y="390.2542372881356" >3.625</text><line  class="poloto_axis_lines" stroke="black" x1="150" x2="144" y1="379.66101694915255" y2="379.66101694915255" /><line  class="poloto_tick_line" stroke="black" x1="150" x2="650" y1="379.66101694915255" y2="379.66101694915255" /><text  class="poloto_tick_labels poloto_text" dominant-baseline="middle" text-anchor="end" x="135" y="379.66101694915255" >3.75</text><line  class="poloto_axis_lines" stroke="black" x1="150" x2="144" y1="369.06779661016947" y2="369.06779661016947" /><line  class="poloto_tick_line" stroke="black" x1="150" x2="650" y1="369.06779661016947" y2="369.06779661016947" /><text  class="poloto_tick_labels poloto_text" dominant-baseline="middle" text-anchor="end" x="135" y="369.06779661016947" >3.875</text><line  class="poloto_axis_lines" stroke="black" x1="150" x2="144" y1="358.47457627118644" y2="358.47457627118644" /><line  class="poloto_tick_line" stroke="black" x1="150" x2="650" y1="358.47457627118644" y2="358.47457627118644" /><text  class="poloto_tick_labels poloto_text" dominant-baseline="middle" text-anchor="end" x="135" y="358.47457627118644" >4</text><line  class="poloto_axis_lines" stroke="black" x1="150" x2="144" y1="347.8813559322034" y2="347.8813559322034" /><line  class="poloto_tick_line" stroke="black" x1="150" x2="650" y1="347.8813559322034" y2="347.8813559322034" /><text  class="poloto_tick_labels poloto_text" dominant-baseline="middle" text-anchor="end" x="135" y="347.8813559322034" >4.125</text><line  class="poloto_axis_lines" stroke="black" x1="150" x2="144" y1="337.2881355932203" y2="337.2881355932203" /><line  class="poloto_tick_line" stroke="black" x1="150" x2="650" y1="337.2881355932203" y2="337.2881355932203" /><text  class="poloto_tick_labels poloto_text" dominant-baseline="middle" text-anchor="end" x="135" y="337.2881355932203" >4.25</text><line  class="poloto_axis_lines" stroke="black" x1="150" x2="144" y1="326.6949152542373" y2="326.6949152542373" /><line  class="poloto_tick_line" stroke="black" x1="150" x2="650" y1="326.6949152542373" y2="326.6949152542373" /><text  class="poloto_tick_labels poloto_text" dominant-baseline="middle" text-anchor="end" x="135" y="326.6949152542373" >4.375</text><line  class="poloto_axis_lines" stroke="black" x1="150" x2="144" y1="316.10169491525426" y2="316.10169491525426" /><line  class="poloto_tick_line" stroke="black" x1="150" x2="650" y1="316.10169491525426" y2="316.10169491525426" /><text  class="poloto_tick_labels poloto_text" dominant-baseline="middle" text-anchor="end" x="135" y="316.10169491525426" >4.5</text><line  class="poloto_axis_lines" stroke="black" x1="150" x2="144" y1="305.50847457627117" y2="305.50847457627117" /><line  class="poloto_tick_line" stroke="black" x1="150" x2="650" y1="305.50847457627117" y2="305.50847457627117" /><text  class="poloto_tick_labels poloto_text" dominant-baseline="middle" text-anchor="end" x="135" y="305.50847457627117" >4.625</text><line  class="poloto_axis_lines" stroke="black" x1="150" x2="144" y1="294.91525423728814" y2="294.91525423728814" /><line  class="poloto_tick_line" stroke="black" x1="150" x2="650" y1="294.91525423728814" y2="294.91525423728814" /><text  class="poloto_tick_labels poloto_text" dominant-baseline="middle" text-anchor="end" x="135" y="294.91525423728814" >4.75</text><line  class="poloto_axis_lines" stroke="black" x1="150" x2="144" y1="284.3220338983051" y2="284.3220338983051" /><line  class="poloto_tick_line" stroke="black" x1="150" x2="650" y1="284.3220338983051" y2="284.3220338983051" /><text  class="poloto_tick_labels poloto_text" dominant-baseline="middle" text-anchor="end" x="135" y="284.3220338983051" >4.875</text><line  class="poloto_axis_lines" stroke="black" x1="150" x2="144" y1="273.728813559322" y2="273.728813559322" /><line  class="poloto_tick_line" stroke="black" x1="150" x2="650" y1="273.728813559322" y2="273.728813559322" /><text  class="poloto_tick_labels poloto_text" dominant-baseline="middle" text-anchor="end" x="135" y="273.728813559322" >5</text><line  class="poloto_axis_lines" stroke="black" x1="150" x2="144" y1="263.135593220339" y2="263.135593220339" /><line  class="poloto_tick_line" stroke="black" x1="150" x2="650" y1="263.135593220339" y2="263.135593220339" /><text  class="poloto_tick_labels poloto_text" dominant-baseline="middle" text-anchor="end" x="135" y="263.135593220339" >5.125</text><line  class="poloto_axis_lines" stroke="black" x1="150" x2="144" y1="252.54237288135596" y2="252.54237288135596" /><line  class="poloto_tick_line" stroke="black" x1="150" x2="650" y1="252.54237288135596" y2="252.54237288135596" /><text  class="poloto_tick_labels poloto_text" dominant-baseline="middle" text-anchor="end" x="135" y="252.54237288135596" >5.25</text><line  class="poloto_axis_lines" stroke="black" x1="150" x2="144" y1="241.94915254237287" y2="241.94915254237287" /><line  class="poloto_tick_line" stroke="black" x1="150" x2="650" y1="241.94915254237287" y2="241.94915254237287" /><text  class="poloto_tick_labels poloto_text" dominant-baseline="middle" text-anchor="end" x="135" y="241.94915254237287" >5.375</text><line  class="poloto_axis_lines" stroke="black" x1="150" x2="144" y1="231.35593220338984" y2="231.35593220338984" /><line  class="poloto_tick_line" stroke="black" x1="150" x2="650" y1="231.35593220338984" y2="231.35593220338984" /><text  class="poloto_tick_labels poloto_text" dominant-baseline="middle" text-anchor="end" x="135" y="231.35593220338984" >5.5</text><line  class="poloto_axis_lines" stroke="black" x1="150" x2="144" y1="220.7627118644068" y2="220.7627118644068" /><line  class="poloto_tick_line" stroke="black" x1="150" x2="650" y1="220.7627118644068" y2="220.7627118644068" /><text  class="poloto_tick_labels poloto_text" dominant-baseline="middle" text-anchor="end" x="135" y="220.7627118644068" >5.625</text><line  class="poloto_axis_lines" stroke="black" x1="150" x2="144" y1="210.16949152542372" y2="210.16949152542372" /><line  class="poloto_tick_line" stroke="black" x1="150" x2="650" y1="210.16949152542372" y2="210.16949152542372" /><text  class="poloto_tick_labels poloto_text" dominant-baseline="middle" text-anchor="end" x="135" y="210.16949152542372" >5.75</text><line  class="poloto_axis_lines" stroke="black" x1="150" x2="144" y1="199.5762711864407" y2="199.5762711864407" /><line  class="poloto_tick_line" stroke="black" x1="150" x2="650" y1="199.5762711864407" y2="199.5762711864407" /><text  class="poloto_tick_labels poloto_text" dominant-baseline="middle" text-anchor="end" x="135" y="199.5762711864407" >5.875</text><line  class="poloto_axis_lines" stroke="black" x1="150" x2="144" y1="188.98305084745766" y2="188.98305084745766" /><line  class="poloto_tick_line" stroke="black" x1="150" x2="650" y1="188.98305084745766" y2="188.98305084745766" /><text  class="poloto_tick_labels poloto_text" dominant-baseline="middle" text-anchor="end" x="135" y="188.98305084745766" >6</text><line  class="poloto_axis_lines" stroke="black" x1="150" x2="144" y1="178.38983050847457" y2="178.38983050847457" /><line  class="poloto_tick_line" stroke="black" x1="150" x2="650" y1="178.38983050847457" y2="178.38983050847457" /><text  class="poloto_tick_labels poloto_text" dominant-baseline="middle" text-anchor="end" x="135" y="178.38983050847457" >6.125</text><line  class="poloto_axis_lines" stroke="black" x1="150" x2="144" y1="167.7966101694915" y2="167.7966101694915" /><line  class="poloto_tick_line" stroke="black" x1="150" x2="650" y1="167.7966101694915" y2="167.7966101694915" /><text  class="poloto_tick_labels poloto_text" dominant-baseline="middle" text-anchor="end" x="135" y="167.7966101694915" >6.25</text><line  class="poloto_axis_lines" stroke="black" x1="150" x2="144" y1="157.2033898305085" y2="157.2033898305085" /><line  class="poloto_tick_line" stroke="black" x1="150" x2="650" y1="157.2033898305085" y2="157.2033898305085" /><text  class="poloto_tick_labels poloto_text" dominant-baseline="middle" text-anchor="end" x="135" y="157.2033898305085" >6.375</text><line  class="poloto_axis_lines" stroke="black" x1="150" x2="144" y1="146.61016949152543" y2="146.61016949152543" /><line  class="poloto_tick_line" stroke="black" x1="150" x2="650" y1="146.61016949152543" y2="146.61016949152543" /><text  class="poloto_tick_labels poloto_text" dominant-baseline="middle" text-anchor="end" x="135" y="146.61016949152543" >6.5</text><line  class="poloto_axis_lines" stroke="black" x1="150" x2="144" y1="136.01694915254234" y2="136.01694915254234" /><line  class="poloto_tick_line" stroke="black" x1="150" x2="650" y1="136.01694915254234" y2="136.01694915254234" /><text  class="poloto_tick_labels poloto_text" dominant-baseline="middle" text-anchor="end" x="135" y="136.01694915254234" >6.625</text><line  class="poloto_axis_lines" stroke="black" x1="150" x2="144" y1="125.42372881355936" y2="125.42372881355936" /><line  class="poloto_tick_line" stroke="black" x1="150" x2="650" y1="125.42372881355936" y2="125.42372881355936" /><text  class="poloto_tick_labels poloto_text" dominant-baseline="middle" text-anchor="end" x="135" y="125.42372881355936" >6.75</text><line  class="poloto_axis_lines" stroke="black" x1="150" x2="144" y1="114.83050847457628" y2="114.83050847457628" /><line  class="poloto_tick_line" stroke="black" x1="150" x2="650" y1="114.83050847457628" y2="114.83050847457628" /><text  class="poloto_tick_labels poloto_text" dominant-baseline="middle" text-anchor="end" x="135" y="114.83050847457628" >6.875</text><line  class="poloto_axis_lines" stroke="black" x1="150" x2="144" y1="104.23728813559319" y2="104.23728813559319" /><line  class="poloto_tick_line" stroke="black" x1="150" x2="650" y1="104.23728813559319" y2="104.23728813559319" /><text  class="poloto_tick_labels poloto_text" dominant-baseline="middle" text-anchor="end" x="135" y="104.23728813559319" >7</text><text  class="poloto_tick_labels poloto_text" dominant-baseline="middle" text-anchor="start" x="440.00000000000006" y="70" >¹2022-05-01 00:00:00 UTC in Months</text><line  class="poloto_axis_lines" stroke="black" x1="222.81553398058531" x2="222.81553398058531" y1="400" y2="405" /><line  class="poloto_tick_line" stroke="black" x1="222.81553398058531" x2="222.81553398058531" y1="400" y2="100" /><text  class="poloto_tick_labels poloto_text" dominant-baseline="start" text-anchor="middle" x="222.81553398058531" y="430" >2022 May¹</text><line  class="poloto_axis_lines" stroke="black" x1="321.5210355987074" x2="321.5210355987074" y1="400" y2="405" /><line  class="poloto_tick_line" stroke="black" x1="321.5210355987074" x2="321.5210355987074" y1="400" y2="100" /><text  class="poloto_tick_labels poloto_text" dominant-baseline="start" text-anchor="middle" x="321.5210355987074" y="430" >2022 Jul</text><line  class="poloto_axis_lines" stroke="black" x1="421.84466019417596" x2="421.84466019417596" y1="400" y2="405" /><line  class="poloto_tick_line" stroke="black" x1="421.84466019417596" x2="421.84466019417596" y1="400" y2="100" /><text  class="poloto_tick_labels poloto_text" dominant-baseline="start" text-anchor="middle" x="421.84466019417596" y="430" >2022 Sep</text><line  class="poloto_axis_lines" stroke="black" x1="520.550161812298" x2="520.550161812298" y1="400" y2="405" /><line  class="poloto_tick_line" stroke="black" x1="520.550161812298" x2="520.550161812298" y1="400" y2="100" /><text  class="poloto_tick_labels poloto_text" dominant-baseline="start" text-anchor="middle" x="520.550161812298" y="430" >2022 Nov</text><line  class="poloto_axis_lines" stroke="black" x1="619.2556634304237" x2="619.2556634304237" y1="400" y2="405" /><line  class="poloto_tick_line" stroke="black" x1="619.2556634304237" x2="619.2556634304237" y1="400" y2="100" /><text  class="poloto_tick_labels poloto_text" dominant-baseline="start" text-anchor="middle" x="619.2556634304237" y="430" >2023 Jan</text><path  stroke="black" fill="none" class="poloto_axis_lines" d=" M 150 400 L 650 400" /><path  stroke="black" fill="none" class="poloto_axis_lines" d=" M 150 400 L 150 100" /></svg>