<svg class="poloto" width="800" height="500" viewBox="0 0 800 500" xmlns="http://www.w3.org/2000/svg"><style>.poloto{stroke-linecap:round;stroke-linejoin:round;font-family:Roboto,sans-serif;font-size:16px;}.poloto_background{fill:#262626;}.poloto_scatter{stroke-width:7}.poloto_tick_line{stroke:dimgray;stroke-width:0.5}.poloto_line{stroke-width:2}.poloto_text{fill: white;}.poloto_axis_lines{stroke: white;stroke-width:3;fill:none;stroke-dasharray:none}.poloto_title{font-size:24px;dominant-baseline:start;text-anchor:middle;}.poloto_xname{font-size:24px;dominant-baseline:start;text-anchor:middle;}.poloto_yname{font-size:24px;dominant-baseline:start;text-anchor:middle;}.poloto0stroke{stroke:blue;}.poloto1stroke{stroke:red;}.poloto2stroke{stroke:green;}.poloto3stroke{stroke:gold;}.poloto4stroke{stroke:aqua;}.poloto5stroke{stroke:lime;}.poloto6stroke{stroke:orange;}.poloto7stroke{stroke:chocolate;}.poloto0fill{fill:blue;}.poloto1fill{fill:red;}.poloto2fill{fill:green;}.poloto3fill{fill:gold;}.poloto4fill{fill:aqua;}.poloto5fill{fill:lime;}.poloto6fill{fill:orange;}.poloto7fill{fill:chocolate;}</style><circle  r="1e5" class="poloto_background" /><text  class="poloto_text poloto_legend_text" x="675" y="100" >Refinance 15</text><line  class="poloto_line poloto_legend_icon poloto0stroke poloto0legend" stroke="black" x1="680" x2="730" y1="81.25" y2="81.25" /><path  class="poloto_line poloto0stroke" fill="none" stroke="black" d=" M 150.00 392.46 L 151.79 400.00 L 157.14 389.32 L 158.93 380.17 L 160.71 389.32 L 160.71 389.32 L 164.29 358.81 L 169.64 357.20 L 171.43 367.88 L 173.21 344.83 L 175.00 346.44 L 176.79 341.61 L 182.14 343.22 L 183.93 336.78 L 183.93 336.78 L 187.50 337.37 L 189.29 314.32 L 194.64 324.32 L 196.43 327.54 L 198.21 327.54 L 200.00 326.69 L 201.79 321.78 L 208.93 278.73 L 210.71 297.88 L 212.50 283.05 L 214.29 277.29 L 214.29 277.29 L 221.43 299.58 L 225.00 303.64 L 226.79 294.58 L 232.14 283.81 L 233.93 305.25 L 235.71 294.58 L 235.71 294.58 L 239.29 292.88 L 244.64 296.19 L 246.43 306.86 L 246.43 306.86 L 248.21 297.80 L 250.00 308.56 L 251.79 292.88 L 257.14 325.08 L 258.93 324.32 L 260.71 306.86 L 260.71 306.86 L 262.50 314.32 L 264.29 317.63 L 269.64 317.63 L 271.43 329.15 L 273.21 329.15 L 275.00 329.15 L 276.79 329.15 L 283.93 317.63 L 285.71 314.32 L 287.50 315.93 L 289.29 315.93 L 289.29 315.93 L 296.43 305.25 L 298.21 305.25 L 300.00 296.19 L 307.14 281.36 L 308.93 250.76 L 310.71 254.15 L 312.50 254.15 L 314.29 275.59 L 319.64 254.15 L 321.43 254.15 L 323.21 273.90 L 325.00 277.29 L 332.14 277.29 L 333.93 275.59 L 335.71 280.59 L 337.50 285.51 L 339.29 296.19 L 346.43 303.64 L 348.21 294.58 L 350.00 287.12 L 351.79 283.81 L 357.14 285.51 L 360.71 285.51 L 362.50 283.81 L 369.64 282.20 L 369.64 282.20 L 369.64 282.20 L 369.64 282.20 L 369.64 282.20 L 369.64 282.20 L 373.21 282.20 L 373.21 282.20 L 373.21 282.20 L 373.21 282.20 L 373.21 282.20 L 373.21 282.20 L 382.14 294.58 L 385.71 297.80 L 387.50 325.93 L 389.29 329.15 L 394.64 329.15 L 396.43 327.54 L 398.21 305.25 L 400.00 299.49 L 401.79 285.51 L 407.14 296.19 L 407.14 296.19 L 408.93 287.12 L 412.50 296.19 L 412.50 296.19 L 421.43 296.19 L 423.21 262.46 L 425.00 282.20 L 432.14 248.39 L 435.71 248.39 L 435.71 248.39 L 439.29 260.76 L 446.43 254.15 L 446.43 254.15 L 446.43 254.15 L 446.43 254.15 L 446.43 254.15 L 446.43 254.15 L 446.43 254.15 L 446.43 254.15 L 446.43 254.15 L 451.79 254.15 L 462.50 232.63 L 469.64 235.17 L 469.64 235.17 L 475.00 235.17 L 482.14 235.17 L 483.93 235.17 L 483.93 235.17 L 483.93 235.17 L 483.93 235.17 L 483.93 235.17 L 507.14 235.17 L 508.93 235.17 L 519.64 139.75 L 521.43 130.68 L 523.21 130.68 L 587.50 159.15 L 594.64 159.15 L 596.43 159.15 L 598.21 175.51 L 601.79 184.49 L 601.79 184.49 L 608.93 184.49 L 610.71 184.49 L 612.50 184.49 L 614.29 184.49 L 619.64 184.49 L 621.43 184.49 L 625.00 184.49 L 626.79 184.49 L 632.14 184.49 L 633.93 184.49 L 633.93 184.49 L 639.29 184.49 L 644.64 184.49 L 646.43 184.49 L 648.21 184.49 L 650.00 184.49" /><text  class="poloto_text poloto_legend_text" x="675" y="150" >Refinance 20</text><line  class="poloto_line poloto_legend_icon poloto1stroke poloto1legend" stroke="black" x1="680" x2="730" y1="131.25" y2="131.25" /><path  class="poloto_line poloto1stroke" fill="none" stroke="black" d=" M 150.00 345.68 L 151.79 368.31 L 157.14 334.58 L 158.93 324.24 L 160.71 333.73 L 160.71 333.73 L 164.29 304.07 L 169.64 301.53 L 171.43 312.29 L 173.21 300.25 L 175.00 311.02 L 176.79 290.85 L 182.14 321.69 L 183.93 290.85 L 183.93 290.85 L 187.50 290.85 L 187.50 290.85 L 194.64 250.17 L 196.43 282.71 L 198.21 290.85 L 200.00 301.53 L 201.79 280.59 L 208.93 260.00 L 210.71 257.37 L 212.50 252.12 L 214.29 240.08 L 219.64 245.34 L 221.43 268.14 L 225.00 260.00 L 226.79 257.37 L 232.14 248.81 L 233.93 258.73 L 235.71 258.73 L 235.71 258.73 L 239.29 258.73 L 244.64 260.00 L 246.43 281.44 L 246.43 281.44 L 248.21 269.41 L 250.00 289.58 L 251.79 281.44 L 257.14 282.71 L 258.93 281.44 L 260.71 281.44 L 260.71 281.44 L 262.50 282.71 L 264.29 289.58 L 269.64 290.85 L 271.43 294.66 L 273.21 294.66 L 275.00 294.66 L 276.79 294.66 L 283.93 289.58 L 285.71 278.81 L 287.50 281.44 L 289.29 281.44 L 289.29 281.44 L 296.43 268.14 L 298.21 270.68 L 300.00 261.27 L 307.14 215.85 L 308.93 197.03 L 310.71 207.80 L 312.50 215.85 L 314.29 238.56 L 319.64 225.17 L 321.43 218.47 L 323.21 239.92 L 325.00 250.17 L 332.14 250.17 L 333.93 238.56 L 335.71 249.32 L 337.50 260.00 L 339.29 272.03 L 346.43 280.08 L 348.21 269.41 L 350.00 258.73 L 351.79 251.44 L 357.14 257.37 L 360.71 260.00 L 362.50 258.73 L 369.64 260.00 L 369.64 260.00 L 369.64 260.00 L 369.64 260.00 L 369.64 260.00 L 369.64 260.00 L 369.64 260.00 L 369.64 260.00 L 369.64 260.00 L 369.64 260.00 L 369.64 260.00 L 369.64 260.00 L 382.14 280.08 L 385.71 282.71 L 387.50 301.53 L 389.29 304.07 L 394.64 301.27 L 396.43 301.27 L 398.21 290.85 L 400.00 294.66 L 401.79 278.81 L 407.14 270.68 L 407.14 270.68 L 408.93 270.68 L 412.50 281.44 L 412.50 281.44 L 421.43 278.81 L 423.21 260.00 L 425.00 260.00 L 432.14 246.19 L 435.71 234.58 L 435.71 234.58 L 439.29 247.54 L 446.43 215.85 L 446.43 215.85 L 446.43 215.85 L 446.43 215.85 L 446.43 215.85 L 446.43 215.85 L 446.43 215.85 L 446.43 215.85 L 446.43 215.85 L 451.79 215.85 L 462.50 202.37 L 469.64 203.73 L 473.21 203.73 L 475.00 203.73 L 475.00 203.73 L 483.93 203.73 L 485.71 203.73 L 485.71 203.73 L 485.71 203.73 L 485.71 203.73 L 507.14 203.73 L 508.93 203.73 L 519.64 118.81 L 521.43 102.97 L 521.43 102.97 L 591.07 155.34 L 594.64 155.34 L 596.43 155.34 L 600.00 174.15 L 601.79 175.51 L 601.79 175.51 L 608.93 175.51 L 610.71 175.51 L 612.50 175.51 L 614.29 175.51 L 619.64 175.51 L 621.43 175.51 L 625.00 175.51 L 626.79 175.51 L 632.14 175.51 L 633.93 175.51 L 633.93 175.51 L 639.29 175.51 L 644.64 175.51 L 646.43 175.51 L 648.21 175.51 L 650.00 175.51" /><text  class="poloto_text poloto_legend_text" x="675" y="200" >Refinance 30</text><line  class="poloto_line poloto_legend_icon poloto2stroke poloto2legend" stroke="black" x1="680" x2="730" y1="181.25" y2="181.25" /><path  class="poloto_line poloto2stroke" fill="none" stroke="black" d=" M 150.00 343.31 L 151.79 351.36 L 157.14 338.81 L 158.93 328.98 L 160.71 330.85 L 160.71 330.85 L 164.29 310.25 L 169.64 308.47 L 171.43 319.15 L 173.21 307.54 L 175.00 318.22 L 176.79 297.71 L 182.14 307.54 L 183.93 286.95 L 185.71 286.95 L 187.50 286.02 L 189.29 260.00 L 194.64 264.58 L 196.43 276.27 L 198.21 286.95 L 200.00 277.20 L 201.79 265.51 L 208.93 256.61 L 210.71 242.12 L 212.50 240.17 L 214.29 238.14 L 219.64 242.12 L 221.43 258.73 L 225.00 256.61 L 226.79 254.66 L 232.14 244.07 L 233.93 255.59 L 235.71 244.07 L 235.71 244.07 L 239.29 244.07 L 244.64 246.02 L 246.43 264.58 L 246.43 264.58 L 248.21 255.59 L 250.00 256.61 L 251.79 257.54 L 257.14 265.51 L 258.93 256.61 L 260.71 256.61 L 260.71 256.61 L 262.50 266.44 L 264.29 267.46 L 269.64 268.39 L 271.43 277.20 L 273.21 277.20 L 275.00 279.07 L 276.79 279.07 L 283.93 275.25 L 285.71 264.58 L 287.50 266.44 L 289.29 265.51 L 289.29 265.51 L 296.43 255.59 L 298.21 255.59 L 300.00 245.00 L 307.14 202.12 L 308.93 171.78 L 310.71 190.34 L 312.50 202.12 L 314.29 212.80 L 319.64 203.05 L 321.43 202.12 L 323.21 221.61 L 325.00 223.56 L 332.14 223.56 L 333.93 211.86 L 335.71 221.61 L 337.50 232.29 L 339.29 255.59 L 346.43 256.61 L 348.21 245.00 L 350.00 224.58 L 351.79 221.61 L 357.14 241.10 L 360.71 223.56 L 362.50 222.54 L 369.64 242.12 L 369.64 242.12 L 369.64 242.12 L 369.64 242.12 L 369.64 242.12 L 369.64 242.12 L 373.21 242.12 L 373.21 242.12 L 373.21 242.12 L 373.21 242.12 L 373.21 242.12 L 373.21 242.12 L 382.14 254.66 L 385.71 256.61 L 387.50 275.25 L 389.29 287.88 L 394.64 286.95 L 396.43 286.95 L 398.21 265.51 L 400.00 268.39 L 401.79 254.66 L 407.14 265.51 L 407.14 265.51 L 408.93 257.54 L 412.50 266.44 L 412.50 266.44 L 421.43 264.58 L 423.21 246.02 L 425.00 245.00 L 432.14 220.59 L 435.71 211.86 L 435.71 211.86 L 439.29 222.54 L 446.43 210.85 L 446.43 210.85 L 446.43 210.85 L 446.43 210.85 L 446.43 210.85 L 446.43 210.85 L 446.43 210.85 L 446.43 210.85 L 451.79 210.85 L 451.79 209.83 L 462.50 197.03 L 469.64 175.51 L 469.64 175.51 L 475.00 175.51 L 475.00 175.51 L 483.93 175.51 L 485.71 175.51 L 485.71 175.51 L 485.71 175.51 L 485.71 175.51 L 507.14 175.51 L 508.93 175.51 L 519.64 127.03 L 521.43 100.00 L 521.43 100.00 L 591.07 146.44 L 594.64 146.44 L 596.43 146.44 L 598.21 150.76 L 601.79 160.59 L 601.79 160.59 L 608.93 160.59 L 610.71 160.59 L 612.50 160.59 L 614.29 160.59 L 619.64 160.59 L 621.43 160.59 L 625.00 160.59 L 626.79 160.59 L 632.14 160.59 L 633.93 160.59 L 633.93 160.59 L 639.29 160.59 L 644.64 160.59 L 646.43 160.59 L 648.21 160.59 L 650.00 160.59" /><text  class="poloto_labels poloto_text poloto_title" x="400" y="37.5" >lower.com purchase rates</text><text  class="poloto_labels poloto_text poloto_xname" x="400" y="481.25" >Date</text><text  class="poloto_labels poloto_text poloto_yname" transform="rotate(-90,37.5,250)" x="37.5" y="250" >Rate (%)</text><text  class="poloto_tick_labels poloto_text" dominant-baseline="middle" text-anchor="start" x="150" y="70" ></text><line  class="poloto_axis_lines" stroke="black" x1="150" x2="144" y1="390.2542372881356" y2="390.2542372881356" /><line  class="poloto_tick_line" stroke="black" x1="150" x2="650" y1="390.2542372881356" y2="390.2542372881356" /><text  class="poloto_tick_labels poloto_text" dominant-baseline="middle" text-anchor="end" x="135" y="390.2542372881356" >3.625</text><line  class="poloto_axis_lines" stroke="black" x1="150" x2="144" y1="379.66101694915255" y2="379.66101694915255" /><line  class="poloto_tick_line" stroke="black" x1="150" x2="650" y1="379.66101694915255" y2="379.66101694915255" /><text  class="poloto_tick_labels poloto_text" dominant-baseline="middle" text-anchor="end" x="135" y="379.66101694915255" >3.75</text><line  class="poloto_axis_lines" stroke="black" x1="150" x2="144" y1="369.06779661016947" y2="369.06779661016947" /><line  class="poloto_tick_line" stroke="black" x1="150" x2="650" y1="369.06779661016947" y2="369.06779661016947" /><text  class="poloto_tick_labels poloto_text" dominant-baseline="middle" text-anchor="end" x="135" y="369.06779661016947" >3.875</text><line  class="poloto_axis_lines" stroke="black" x1="150" x2="144" y1="358.47457627118644" y2="358.47457627118644" /><line  class="poloto_tick_line" stroke="black" x1="150" x2="650" y1="358.47457627118644" y2="358.47457627118644" /><text  class="poloto_tick_labels poloto_text" dominant-baseline="middle" text-anchor="end" x="135" y="358.47457627118644" >4</text><line  class="poloto_axis_lines" stroke="black" x1="150" x2="144" y1="347.8813559322034" y2="347.8813559322034" /><line  class="poloto_tick_line" stroke="black" x1="150" x2="650" y1="347.8813559322034" y2="347.8813559322034" /><text  class="poloto_tick_labels poloto_text" dominant-baseline="middle" text-anchor="end" x="135" y="347.8813559322034" >4.125</text><line  class="poloto_axis_lines" stroke="black" x1="150" x2="144" y1="337.2881355932203" y2="337.2881355932203" /><line  class="poloto_tick_line" stroke="black" x1="150" x2="650" y1="337.2881355932203" y2="337.2881355932203" /><text  class="poloto_tick_labels poloto_text" dominant-baseline="middle" text-anchor="end" x="135" y="337.2881355932203" >4.25</text><line  class="poloto_axis_lines" stroke="black" x1="150" x2="144" y1="326.6949152542373" y2="326.6949152542373" /><line  class="poloto_tick_line" stroke="black" x1="150" x2="650" y1="326.6949152542373" y2="326.6949152542373" /><text  class="poloto_tick_labels poloto_text" dominant-baseline="middle" text-anchor="end" x="135" y="326.6949152542373" >4.375</text><line  class="poloto_axis_lines" stroke="black" x1="150" x2="144" y1="316.10169491525426" y2="316.10169491525426" /><line  class="poloto_tick_line" stroke="black" x1="150" x2="650" y1="316.10169491525426" y2="316.10169491525426" /><text  class="poloto_tick_labels poloto_text" dominant-baseline="middle" text-anchor="end" x="135" y="316.10169491525426" >4.5</text><line  class="poloto_axis_lines" stroke="black" x1="150" x2="144" y1="305.50847457627117" y2="305.50847457627117" /><line  class="poloto_tick_line" stroke="black" x1="150" x2="650" y1="305.50847457627117" y2="305.50847457627117" /><text  class="poloto_tick_labels poloto_text" dominant-baseline="middle" text-anchor="end" x="135" y="305.50847457627117" >4.625</text><line  class="poloto_axis_lines" stroke="black" x1="150" x2="144" y1="294.91525423728814" y2="294.91525423728814" /><line  class="poloto_tick_line" stroke="black" x1="150" x2="650" y1="294.91525423728814" y2="294.91525423728814" /><text  class="poloto_tick_labels poloto_text" dominant-baseline="middle" text-anchor="end" x="135" y="294.91525423728814" >4.75</text><line  class="poloto_axis_lines" stroke="black" x1="150" x2="144" y1="284.3220338983051" y2="284.3220338983051" /><line  class="poloto_tick_line" stroke="black" x1="150" x2="650" y1="284.3220338983051" y2="284.3220338983051" /><text  class="poloto_tick_labels poloto_text" dominant-baseline="middle" text-anchor="end" x="135" y="284.3220338983051" >4.875</text><line  class="poloto_axis_lines" stroke="black" x1="150" x2="144" y1="273.728813559322" y2="273.728813559322" /><line  class="poloto_tick_line" stroke="black" x1="150" x2="650" y1="273.728813559322" y2="273.728813559322" /><text  class="poloto_tick_labels poloto_text" dominant-baseline="middle" text-anchor="end" x="135" y="273.728813559322" >5</text><line  class="poloto_axis_lines" stroke="black" x1="150" x2="144" y1="263.135593220339" y2="263.135593220339" /><line  class="poloto_tick_line" stroke="black" x1="150" x2="650" y1="263.135593220339" y2="263.135593220339" /><text  class="poloto_tick_labels poloto_text" dominant-baseline="middle" text-anchor="end" x="135" y="263.135593220339" >5.125</text><line  class="poloto_axis_lines" stroke="black" x1="150" x2="144" y1="252.54237288135596" y2="252.54237288135596" /><line  class="poloto_tick_line" stroke="black" x1="150" x2="650" y1="252.54237288135596" y2="252.54237288135596" /><text  class="poloto_tick_labels poloto_text" dominant-baseline="middle" text-anchor="end" x="135" y="252.54237288135596" >5.25</text><line  class="poloto_axis_lines" stroke="black" x1="150" x2="144" y1="241.94915254237287" y2="241.94915254237287" /><line  class="poloto_tick_line" stroke="black" x1="150" x2="650" y1="241.94915254237287" y2="241.94915254237287" /><text  class="poloto_tick_labels poloto_text" dominant-baseline="middle" text-anchor="end" x="135" y="241.94915254237287" >5.375</text><line  class="poloto_axis_lines" stroke="black" x1="150" x2="144" y1="231.35593220338984" y2="231.35593220338984" /><line  class="poloto_tick_line" stroke="black" x1="150" x2="650" y1="231.35593220338984" y2="231.35593220338984" /><text  class="poloto_tick_labels poloto_text" dominant-baseline="middle" text-anchor="end" x="135" y="231.35593220338984" >5.5</text><line  class="poloto_axis_lines" stroke="black" x1="150" x2="144" y1="220.7627118644068" y2="220.7627118644068" /><line  class="poloto_tick_line" stroke="black" x1="150" x2="650" y1="220.7627118644068" y2="220.7627118644068" /><text  class="poloto_tick_labels poloto_text" dominant-baseline="middle" text-anchor="end" x="135" y="220.7627118644068" >5.625</text><line  class="poloto_axis_lines" stroke="black" x1="150" x2="144" y1="210.16949152542372" y2="210.16949152542372" /><line  class="poloto_tick_line" stroke="black" x1="150" x2="650" y1="210.16949152542372" y2="210.16949152542372" /><text  class="poloto_tick_labels poloto_text" dominant-baseline="middle" text-anchor="end" x="135" y="210.16949152542372" >5.75</text><line  class="poloto_axis_lines" stroke="black" x1="150" x2="144" y1="199.5762711864407" y2="199.5762711864407" /><line  class="poloto_tick_line" stroke="black" x1="150" x2="650" y1="199.5762711864407" y2="199.5762711864407" /><text  class="poloto_tick_labels poloto_text" dominant-baseline="middle" text-anchor="end" x="135" y="199.5762711864407" >5.875</text><line  class="poloto_axis_lines" stroke="black" x1="150" x2="144" y1="188.98305084745766" y2="188.98305084745766" /><line  class="poloto_tick_line" stroke="black" x1="150" x2="650" y1="188.98305084745766" y2="188.98305084745766" /><text  class="poloto_tick_labels poloto_text" dominant-baseline="middle" text-anchor="end" x="135" y="188.98305084745766" >6</text><line  class="poloto_axis_lines" stroke="black" x1="150" x2="144" y1="178.38983050847457" y2="178.38983050847457" /><line  class="poloto_tick_line" stroke="black" x1="150" x2="650" y1="178.38983050847457" y2="178.38983050847457" /><text  class="poloto_tick_labels poloto_text" dominant-baseline="middle" text-anchor="end" x="135" y="178.38983050847457" >6.125</text><line  class="poloto_axis_lines" stroke="black" x1="150" x2="144" y1="167.7966101694915" y2="167.7966101694915" /><line  class="poloto_tick_line" stroke="black" x1="150" x2="650" y1="167.7966101694915" y2="167.7966101694915" /><text  class="poloto_tick_labels poloto_text" dominant-baseline="middle" text-anchor="end" x="135" y="167.7966101694915" >6.25</text><line  class="poloto_axis_lines" stroke="black" x1="150" x2="144" y1="157.2033898305085" y2="157.2033898305085" /><line  class="poloto_tick_line" stroke="black" x1="150" x2="650" y1="157.2033898305085" y2="157.2033898305085" /><text  class="poloto_tick_labels poloto_text" dominant-baseline="middle" text-anchor="end" x="135" y="157.2033898305085" >6.375</text><line  class="poloto_axis_lines" stroke="black" x1="150" x2="144" y1="146.61016949152543" y2="146.61016949152543" /><line  class="poloto_tick_line" stroke="black" x1="150" x2="650" y1="146.61016949152543" y2="146.61016949152543" /><text  class="poloto_tick_labels poloto_text" dominant-baseline="middle" text-anchor="end" x="135" y="146.61016949152543" >6.5</text><line  class="poloto_axis_lines" stroke="black" x1="150" x2="144" y1="136.01694915254234" y2="136.01694915254234" /><line  class="poloto_tick_line" stroke="black" x1="150" x2="650" y1="136.01694915254234" y2="136.01694915254234" /><text  class="poloto_tick_labels poloto_text" dominant-baseline="middle" text-anchor="end" x="135" y="136.01694915254234" >6.625</text><line  class="poloto_axis_lines" stroke="black" x1="150" x2="144" y1="125.42372881355936" y2="125.42372881355936" /><line  class="poloto_tick_line" stroke="black" x1="150" x2="650" y1="125.42372881355936" y2="125.42372881355936" /><text  class="poloto_tick_labels poloto_text" dominant-baseline="middle" text-anchor="end" x="135" y="125.42372881355936" >6.75</text><line  class="poloto_axis_lines" stroke="black" x1="150" x2="144" y1="114.83050847457628" y2="114.83050847457628" /><line  class="poloto_tick_line" stroke="black" x1="150" x2="650" y1="114.83050847457628" y2="114.83050847457628" /><text  class="poloto_tick_labels poloto_text" dominant-baseline="middle" text-anchor="end" x="135" y="114.83050847457628" >6.875</text><line  class="poloto_axis_lines" stroke="black" x1="150" x2="144" y1="104.23728813559319" y2="104.23728813559319" /><line  class="poloto_tick_line" stroke="black" x1="150" x2="650" y1="104.23728813559319" y2="104.23728813559319" /><text  class="poloto_tick_labels poloto_text" dominant-baseline="middle" text-anchor="end" x="135" y="104.23728813559319" >7</text><text  class="poloto_tick_labels poloto_text" dominant-baseline="middle" text-anchor="start" x="440.00000000000006" y="70" >¹2022-05-01 00:00:00 UTC in Months</text><line  class="poloto_axis_lines" stroke="black" x1="230.35714285713766" x2="230.35714285713766" y1="400" y2="405" /><line  class="poloto_tick_line" stroke="black" x1="230.35714285713766" x2="230.35714285713766" y1="400" y2="100" /><text  class="poloto_tick_labels poloto_text" dominant-baseline="start" text-anchor="middle" x="230.35714285713766" y="430" >2022 May¹</text><line  class="poloto_axis_lines" stroke="black" x1="339.2857142857101" x2="339.2857142857101" y1="400" y2="405" /><line  class="poloto_tick_line" stroke="black" x1="339.2857142857101" x2="339.2857142857101" y1="400" y2="100" /><text  class="poloto_tick_labels poloto_text" dominant-baseline="start" text-anchor="middle" x="339.2857142857101" y="430" >2022 Jul</text><line  class="poloto_axis_lines" stroke="black" x1="450" x2="450" y1="400" y2="405" /><line  class="poloto_tick_line" stroke="black" x1="450" x2="450" y1="400" y2="100" /><text  class="poloto_tick_labels poloto_text" dominant-baseline="start" text-anchor="middle" x="450" y="430" >2022 Sep</text><line  class="poloto_axis_lines" stroke="black" x1="558.9285714285725" x2="558.9285714285725" y1="400" y2="405" /><line  class="poloto_tick_line" stroke="black" x1="558.9285714285725" x2="558.9285714285725" y1="400" y2="100" /><text  class="poloto_tick_labels poloto_text" dominant-baseline="start" text-anchor="middle" x="558.9285714285725" y="430" >2022 Nov</text><path  stroke="black" fill="none" class="poloto_axis_lines" d=" M 150 400 L 650 400" /><path  stroke="black" fill="none" class="poloto_axis_lines" d=" M 150 400 L 150 100" /></svg>