<svg class="poloto" width="800" height="500" viewBox="0 0 800 500" xmlns="http://www.w3.org/2000/svg"><style>.poloto{stroke-linecap:round;stroke-linejoin:round;font-family:Roboto,sans-serif;font-size:16px;}.poloto_background{fill:#262626;}.poloto_scatter{stroke-width:7}.poloto_tick_line{stroke:dimgray;stroke-width:0.5}.poloto_line{stroke-width:2}.poloto_text{fill: white;}.poloto_axis_lines{stroke: white;stroke-width:3;fill:none;stroke-dasharray:none}.poloto_title{font-size:24px;dominant-baseline:start;text-anchor:middle;}.poloto_xname{font-size:24px;dominant-baseline:start;text-anchor:middle;}.poloto_yname{font-size:24px;dominant-baseline:start;text-anchor:middle;}.poloto0stroke{stroke:blue;}.poloto1stroke{stroke:red;}.poloto2stroke{stroke:green;}.poloto3stroke{stroke:gold;}.poloto4stroke{stroke:aqua;}.poloto5stroke{stroke:lime;}.poloto6stroke{stroke:orange;}.poloto7stroke{stroke:chocolate;}.poloto0fill{fill:blue;}.poloto1fill{fill:red;}.poloto2fill{fill:green;}.poloto3fill{fill:gold;}.poloto4fill{fill:aqua;}.poloto5fill{fill:lime;}.poloto6fill{fill:orange;}.poloto7fill{fill:chocolate;}</style><circle  r="1e5" class="poloto_background" /><text  class="poloto_text poloto_legend_text" x="675" y="100" >Refinance 15</text><line  class="poloto_line poloto_legend_icon poloto0stroke poloto0legend" stroke="black" x1="680" x2="730" y1="81.25" y2="81.25" /><path  class="poloto_line poloto0stroke" fill="none" stroke="black" d=" M 150.00 392.46 L 151.68 400.00 L 156.71 389.32 L 158.39 380.17 L 160.07 389.32 L 160.07 389.32 L 163.42 358.81 L 168.46 357.20 L 170.13 367.88 L 171.81 344.83 L 173.49 346.44 L 175.17 341.61 L 180.20 343.22 L 181.88 336.78 L 181.88 336.78 L 185.23 337.37 L 186.91 314.32 L 191.95 324.32 L 193.62 327.54 L 195.30 327.54 L 196.98 326.69 L 198.66 321.78 L 205.37 278.73 L 207.05 297.88 L 208.72 283.05 L 210.40 277.29 L 210.40 277.29 L 217.11 299.58 L 220.47 303.64 L 222.15 294.58 L 227.18 283.81 L 228.86 305.25 L 230.54 294.58 L 230.54 294.58 L 233.89 292.88 L 238.93 296.19 L 240.60 306.86 L 240.60 306.86 L 242.28 297.80 L 243.96 308.56 L 245.64 292.88 L 250.67 325.08 L 252.35 324.32 L 254.03 306.86 L 254.03 306.86 L 255.70 314.32 L 257.38 317.63 L 262.42 317.63 L 264.09 329.15 L 265.77 329.15 L 267.45 329.15 L 269.13 329.15 L 275.84 317.63 L 277.52 314.32 L 279.19 315.93 L 280.87 315.93 L 280.87 315.93 L 287.58 305.25 L 289.26 305.25 L 290.94 296.19 L 297.65 281.36 L 299.33 250.76 L 301.01 254.15 L 302.68 254.15 L 304.36 275.59 L 309.40 254.15 L 311.07 254.15 L 312.75 273.90 L 314.43 277.29 L 321.14 277.29 L 322.82 275.59 L 324.50 280.59 L 326.17 285.51 L 327.85 296.19 L 334.56 303.64 L 336.24 294.58 L 337.92 287.12 L 339.60 283.81 L 344.63 285.51 L 347.99 285.51 L 349.66 283.81 L 356.38 282.20 L 356.38 282.20 L 356.38 282.20 L 356.38 282.20 L 356.38 282.20 L 356.38 282.20 L 359.73 282.20 L 359.73 282.20 L 359.73 282.20 L 359.73 282.20 L 359.73 282.20 L 359.73 282.20 L 368.12 294.58 L 371.48 297.80 L 373.15 325.93 L 374.83 329.15 L 379.87 329.15 L 381.54 327.54 L 383.22 305.25 L 384.90 299.49 L 386.58 285.51 L 391.61 296.19 L 391.61 296.19 L 393.29 287.12 L 396.64 296.19 L 396.64 296.19 L 405.03 296.19 L 406.71 262.46 L 408.39 282.20 L 415.10 248.39 L 418.46 248.39 L 418.46 248.39 L 421.81 260.76 L 428.52 254.15 L 428.52 254.15 L 428.52 254.15 L 428.52 254.15 L 428.52 254.15 L 428.52 254.15 L 428.52 254.15 L 428.52 254.15 L 428.52 254.15 L 433.56 254.15 L 443.62 232.63 L 450.34 235.17 L 450.34 235.17 L 455.37 235.17 L 462.08 235.17 L 463.76 235.17 L 463.76 235.17 L 463.76 235.17 L 463.76 235.17 L 463.76 235.17 L 485.57 235.17 L 487.25 235.17 L 497.32 139.75 L 498.99 130.68 L 500.67 130.68 L 561.07 159.15 L 567.79 159.15 L 569.46 159.15 L 571.14 175.51 L 574.50 184.49 L 574.50 184.49 L 581.21 184.49 L 582.89 184.49 L 584.56 184.49 L 586.24 184.49 L 591.28 184.49 L 592.95 184.49 L 596.31 184.49 L 597.99 184.49 L 603.02 184.49 L 604.70 184.49 L 604.70 184.49 L 609.73 184.49 L 614.77 184.49 L 616.44 184.49 L 618.12 184.49 L 619.80 184.49 L 621.48 184.49 L 628.19 209.15 L 629.87 180.68 L 631.54 159.15 L 633.22 169.92 L 638.26 169.92 L 639.93 169.92 L 639.93 169.92 L 643.29 193.05 L 644.97 193.05 L 650.00 193.05" /><text  class="poloto_text poloto_legend_text" x="675" y="150" >Refinance 20</text><line  class="poloto_line poloto_legend_icon poloto1stroke poloto1legend" stroke="black" x1="680" x2="730" y1="131.25" y2="131.25" /><path  class="poloto_line poloto1stroke" fill="none" stroke="black" d=" M 150.00 345.68 L 151.68 368.31 L 156.71 334.58 L 158.39 324.24 L 160.07 333.73 L 160.07 333.73 L 163.42 304.07 L 168.46 301.53 L 170.13 312.29 L 171.81 300.25 L 173.49 311.02 L 175.17 290.85 L 180.20 321.69 L 181.88 290.85 L 181.88 290.85 L 185.23 290.85 L 185.23 290.85 L 191.95 250.17 L 193.62 282.71 L 195.30 290.85 L 196.98 301.53 L 198.66 280.59 L 205.37 260.00 L 207.05 257.37 L 208.72 252.12 L 210.40 240.08 L 215.44 245.34 L 217.11 268.14 L 220.47 260.00 L 222.15 257.37 L 227.18 248.81 L 228.86 258.73 L 230.54 258.73 L 230.54 258.73 L 233.89 258.73 L 238.93 260.00 L 240.60 281.44 L 240.60 281.44 L 242.28 269.41 L 243.96 289.58 L 245.64 281.44 L 250.67 282.71 L 252.35 281.44 L 254.03 281.44 L 254.03 281.44 L 255.70 282.71 L 257.38 289.58 L 262.42 290.85 L 264.09 294.66 L 265.77 294.66 L 267.45 294.66 L 269.13 294.66 L 275.84 289.58 L 277.52 278.81 L 279.19 281.44 L 280.87 281.44 L 280.87 281.44 L 287.58 268.14 L 289.26 270.68 L 290.94 261.27 L 297.65 215.85 L 299.33 197.03 L 301.01 207.80 L 302.68 215.85 L 304.36 238.56 L 309.40 225.17 L 311.07 218.47 L 312.75 239.92 L 314.43 250.17 L 321.14 250.17 L 322.82 238.56 L 324.50 249.32 L 326.17 260.00 L 327.85 272.03 L 334.56 280.08 L 336.24 269.41 L 337.92 258.73 L 339.60 251.44 L 344.63 257.37 L 347.99 260.00 L 349.66 258.73 L 356.38 260.00 L 356.38 260.00 L 356.38 260.00 L 356.38 260.00 L 356.38 260.00 L 356.38 260.00 L 356.38 260.00 L 356.38 260.00 L 356.38 260.00 L 356.38 260.00 L 356.38 260.00 L 356.38 260.00 L 368.12 280.08 L 371.48 282.71 L 373.15 301.53 L 374.83 304.07 L 379.87 301.27 L 381.54 301.27 L 383.22 290.85 L 384.90 294.66 L 386.58 278.81 L 391.61 270.68 L 391.61 270.68 L 393.29 270.68 L 396.64 281.44 L 396.64 281.44 L 405.03 278.81 L 406.71 260.00 L 408.39 260.00 L 415.10 246.19 L 418.46 234.58 L 418.46 234.58 L 421.81 247.54 L 428.52 215.85 L 428.52 215.85 L 428.52 215.85 L 428.52 215.85 L 428.52 215.85 L 428.52 215.85 L 428.52 215.85 L 428.52 215.85 L 428.52 215.85 L 433.56 215.85 L 443.62 202.37 L 450.34 203.73 L 453.69 203.73 L 455.37 203.73 L 455.37 203.73 L 463.76 203.73 L 465.44 203.73 L 465.44 203.73 L 465.44 203.73 L 465.44 203.73 L 485.57 203.73 L 487.25 203.73 L 497.32 118.81 L 498.99 102.97 L 498.99 102.97 L 564.43 155.34 L 567.79 155.34 L 569.46 155.34 L 572.82 174.15 L 574.50 175.51 L 574.50 175.51 L 581.21 175.51 L 582.89 175.51 L 584.56 175.51 L 586.24 175.51 L 591.28 175.51 L 592.95 175.51 L 596.31 175.51 L 597.99 175.51 L 603.02 175.51 L 604.70 175.51 L 604.70 175.51 L 609.73 175.51 L 614.77 175.51 L 616.44 175.51 L 618.12 175.51 L 619.80 175.51 L 621.48 175.51 L 628.19 156.36 L 629.87 145.93 L 631.54 144.58 L 633.22 147.37 L 638.26 147.37 L 639.93 147.37 L 639.93 147.37 L 643.29 167.46 L 644.97 167.46 L 650.00 167.46" /><text  class="poloto_text poloto_legend_text" x="675" y="200" >Refinance 30</text><line  class="poloto_line poloto_legend_icon poloto2stroke poloto2legend" stroke="black" x1="680" x2="730" y1="181.25" y2="181.25" /><path  class="poloto_line poloto2stroke" fill="none" stroke="black" d=" M 150.00 343.31 L 151.68 351.36 L 156.71 338.81 L 158.39 328.98 L 160.07 330.85 L 160.07 330.85 L 163.42 310.25 L 168.46 308.47 L 170.13 319.15 L 171.81 307.54 L 173.49 318.22 L 175.17 297.71 L 180.20 307.54 L 181.88 286.95 L 183.56 286.95 L 185.23 286.02 L 186.91 260.00 L 191.95 264.58 L 193.62 276.27 L 195.30 286.95 L 196.98 277.20 L 198.66 265.51 L 205.37 256.61 L 207.05 242.12 L 208.72 240.17 L 210.40 238.14 L 215.44 242.12 L 217.11 258.73 L 220.47 256.61 L 222.15 254.66 L 227.18 244.07 L 228.86 255.59 L 230.54 244.07 L 230.54 244.07 L 233.89 244.07 L 238.93 246.02 L 240.60 264.58 L 240.60 264.58 L 242.28 255.59 L 243.96 256.61 L 245.64 257.54 L 250.67 265.51 L 252.35 256.61 L 254.03 256.61 L 254.03 256.61 L 255.70 266.44 L 257.38 267.46 L 262.42 268.39 L 264.09 277.20 L 265.77 277.20 L 267.45 279.07 L 269.13 279.07 L 275.84 275.25 L 277.52 264.58 L 279.19 266.44 L 280.87 265.51 L 280.87 265.51 L 287.58 255.59 L 289.26 255.59 L 290.94 245.00 L 297.65 202.12 L 299.33 171.78 L 301.01 190.34 L 302.68 202.12 L 304.36 212.80 L 309.40 203.05 L 311.07 202.12 L 312.75 221.61 L 314.43 223.56 L 321.14 223.56 L 322.82 211.86 L 324.50 221.61 L 326.17 232.29 L 327.85 255.59 L 334.56 256.61 L 336.24 245.00 L 337.92 224.58 L 339.60 221.61 L 344.63 241.10 L 347.99 223.56 L 349.66 222.54 L 356.38 242.12 L 356.38 242.12 L 356.38 242.12 L 356.38 242.12 L 356.38 242.12 L 356.38 242.12 L 359.73 242.12 L 359.73 242.12 L 359.73 242.12 L 359.73 242.12 L 359.73 242.12 L 359.73 242.12 L 368.12 254.66 L 371.48 256.61 L 373.15 275.25 L 374.83 287.88 L 379.87 286.95 L 381.54 286.95 L 383.22 265.51 L 384.90 268.39 L 386.58 254.66 L 391.61 265.51 L 391.61 265.51 L 393.29 257.54 L 396.64 266.44 L 396.64 266.44 L 405.03 264.58 L 406.71 246.02 L 408.39 245.00 L 415.10 220.59 L 418.46 211.86 L 418.46 211.86 L 421.81 222.54 L 428.52 210.85 L 428.52 210.85 L 428.52 210.85 L 428.52 210.85 L 428.52 210.85 L 428.52 210.85 L 428.52 210.85 L 428.52 210.85 L 433.56 210.85 L 433.56 209.83 L 443.62 197.03 L 450.34 175.51 L 450.34 175.51 L 455.37 175.51 L 455.37 175.51 L 463.76 175.51 L 465.44 175.51 L 465.44 175.51 L 465.44 175.51 L 465.44 175.51 L 485.57 175.51 L 487.25 175.51 L 497.32 127.03 L 498.99 100.00 L 498.99 100.00 L 564.43 146.44 L 567.79 146.44 L 569.46 146.44 L 571.14 150.76 L 574.50 160.59 L 574.50 160.59 L 581.21 160.59 L 582.89 160.59 L 584.56 160.59 L 586.24 160.59 L 591.28 160.59 L 592.95 160.59 L 596.31 160.59 L 597.99 160.59 L 603.02 160.59 L 604.70 160.59 L 604.70 160.59 L 609.73 160.59 L 614.77 160.59 L 616.44 160.59 L 618.12 160.59 L 619.80 160.59 L 621.48 160.59 L 628.19 144.24 L 629.87 152.88 L 631.54 132.37 L 633.22 152.88 L 638.26 152.88 L 639.93 152.88 L 639.93 152.88 L 643.29 152.88 L 644.97 152.88 L 650.00 152.88" /><text  class="poloto_labels poloto_text poloto_title" x="400" y="37.5" >lower.com purchase rates</text><text  class="poloto_labels poloto_text poloto_xname" x="400" y="481.25" >Date</text><text  class="poloto_labels poloto_text poloto_yname" transform="rotate(-90,37.5,250)" x="37.5" y="250" >Rate (%)</text><text  class="poloto_tick_labels poloto_text" dominant-baseline="middle" text-anchor="start" x="150" y="70" ></text><line  class="poloto_axis_lines" stroke="black" x1="150" x2="144" y1="390.2542372881356" y2="390.2542372881356" /><line  class="poloto_tick_line" stroke="black" x1="150" x2="650" y1="390.2542372881356" y2="390.2542372881356" /><text  class="poloto_tick_labels poloto_text" dominant-baseline="middle" text-anchor="end" x="135" y="390.2542372881356" >3.625</text><line  class="poloto_axis_lines" stroke="black" x1="150" x2="144" y1="379.66101694915255" y2="379.66101694915255" /><line  class="poloto_tick_line" stroke="black" x1="150" x2="650" y1="379.66101694915255" y2="379.66101694915255" /><text  class="poloto_tick_labels poloto_text" dominant-baseline="middle" text-anchor="end" x="135" y="379.66101694915255" >3.75</text><line  class="poloto_axis_lines" stroke="black" x1="150" x2="144" y1="369.06779661016947" y2="369.06779661016947" /><line  class="poloto_tick_line" stroke="black" x1="150" x2="650" y1="369.06779661016947" y2="369.06779661016947" /><text  class="poloto_tick_labels poloto_text" dominant-baseline="middle" text-anchor="end" x="135" y="369.06779661016947" >3.875</text><line  class="poloto_axis_lines" stroke="black" x1="150" x2="144" y1="358.47457627118644" y2="358.47457627118644" /><line  class="poloto_tick_line" stroke="black" x1="150" x2="650" y1="358.47457627118644" y2="358.47457627118644" /><text  class="poloto_tick_labels poloto_text" dominant-baseline="middle" text-anchor="end" x="135" y="358.47457627118644" >4</text><line  class="poloto_axis_lines" stroke="black" x1="150" x2="144" y1="347.8813559322034" y2="347.8813559322034" /><line  class="poloto_tick_line" stroke="black" x1="150" x2="650" y1="347.8813559322034" y2="347.8813559322034" /><text  class="poloto_tick_labels poloto_text" dominant-baseline="middle" text-anchor="end" x="135" y="347.8813559322034" >4.125</text><line  class="poloto_axis_lines" stroke="black" x1="150" x2="144" y1="337.2881355932203" y2="337.2881355932203" /><line  class="poloto_tick_line" stroke="black" x1="150" x2="650" y1="337.2881355932203" y2="337.2881355932203" /><text  class="poloto_tick_labels poloto_text" dominant-baseline="middle" text-anchor="end" x="135" y="337.2881355932203" >4.25</text><line  class="poloto_axis_lines" stroke="black" x1="150" x2="144" y1="326.6949152542373" y2="326.6949152542373" /><line  class="poloto_tick_line" stroke="black" x1="150" x2="650" y1="326.6949152542373" y2="326.6949152542373" /><text  class="poloto_tick_labels poloto_text" dominant-baseline="middle" text-anchor="end" x="135" y="326.6949152542373" >4.375</text><line  class="poloto_axis_lines" stroke="black" x1="150" x2="144" y1="316.10169491525426" y2="316.10169491525426" /><line  class="poloto_tick_line" stroke="black" x1="150" x2="650" y1="316.10169491525426" y2="316.10169491525426" /><text  class="poloto_tick_labels poloto_text" dominant-baseline="middle" text-anchor="end" x="135" y="316.10169491525426" >4.5</text><line  class="poloto_axis_lines" stroke="black" x1="150" x2="144" y1="305.50847457627117" y2="305.50847457627117" /><line  class="poloto_tick_line" stroke="black" x1="150" x2="650" y1="305.50847457627117" y2="305.50847457627117" /><text  class="poloto_tick_labels poloto_text" dominant-baseline="middle" text-anchor="end" x="135" y="305.50847457627117" >4.625</text><line  class="poloto_axis_lines" stroke="black" x1="150" x2="144" y1="294.91525423728814" y2="294.91525423728814" /><line  class="poloto_tick_line" stroke="black" x1="150" x2="650" y1="294.91525423728814" y2="294.91525423728814" /><text  class="poloto_tick_labels poloto_text" dominant-baseline="middle" text-anchor="end" x="135" y="294.91525423728814" >4.75</text><line  class="poloto_axis_lines" stroke="black" x1="150" x2="144" y1="284.3220338983051" y2="284.3220338983051" /><line  class="poloto_tick_line" stroke="black" x1="150" x2="650" y1="284.3220338983051" y2="284.3220338983051" /><text  class="poloto_tick_labels poloto_text" dominant-baseline="middle" text-anchor="end" x="135" y="284.3220338983051" >4.875</text><line  class="poloto_axis_lines" stroke="black" x1="150" x2="144" y1="273.728813559322" y2="273.728813559322" /><line  class="poloto_tick_line" stroke="black" x1="150" x2="650" y1="273.728813559322" y2="273.728813559322" /><text  class="poloto_tick_labels poloto_text" dominant-baseline="middle" text-anchor="end" x="135" y="273.728813559322" >5</text><line  class="poloto_axis_lines" stroke="black" x1="150" x2="144" y1="263.135593220339" y2="263.135593220339" /><line  class="poloto_tick_line" stroke="black" x1="150" x2="650" y1="263.135593220339" y2="263.135593220339" /><text  class="poloto_tick_labels poloto_text" dominant-baseline="middle" text-anchor="end" x="135" y="263.135593220339" >5.125</text><line  class="poloto_axis_lines" stroke="black" x1="150" x2="144" y1="252.54237288135596" y2="252.54237288135596" /><line  class="poloto_tick_line" stroke="black" x1="150" x2="650" y1="252.54237288135596" y2="252.54237288135596" /><text  class="poloto_tick_labels poloto_text" dominant-baseline="middle" text-anchor="end" x="135" y="252.54237288135596" >5.25</text><line  class="poloto_axis_lines" stroke="black" x1="150" x2="144" y1="241.94915254237287" y2="241.94915254237287" /><line  class="poloto_tick_line" stroke="black" x1="150" x2="650" y1="241.94915254237287" y2="241.94915254237287" /><text  class="poloto_tick_labels poloto_text" dominant-baseline="middle" text-anchor="end" x="135" y="241.94915254237287" >5.375</text><line  class="poloto_axis_lines" stroke="black" x1="150" x2="144" y1="231.35593220338984" y2="231.35593220338984" /><line  class="poloto_tick_line" stroke="black" x1="150" x2="650" y1="231.35593220338984" y2="231.35593220338984" /><text  class="poloto_tick_labels poloto_text" dominant-baseline="middle" text-anchor="end" x="135" y="231.35593220338984" >5.5</text><line  class="poloto_axis_lines" stroke="black" x1="150" x2="144" y1="220.7627118644068" y2="220.7627118644068" /><line  class="poloto_tick_line" stroke="black" x1="150" x2="650" y1="220.7627118644068" y2="220.7627118644068" /><text  class="poloto_tick_labels poloto_text" dominant-baseline="middle" text-anchor="end" x="135" y="220.7627118644068" >5.625</text><line  class="poloto_axis_lines" stroke="black" x1="150" x2="144" y1="210.16949152542372" y2="210.16949152542372" /><line  class="poloto_tick_line" stroke="black" x1="150" x2="650" y1="210.16949152542372" y2="210.16949152542372" /><text  class="poloto_tick_labels poloto_text" dominant-baseline="middle" text-anchor="end" x="135" y="210.16949152542372" >5.75</text><line  class="poloto_axis_lines" stroke="black" x1="150" x2="144" y1="199.5762711864407" y2="199.5762711864407" /><line  class="poloto_tick_line" stroke="black" x1="150" x2="650" y1="199.5762711864407" y2="199.5762711864407" /><text  class="poloto_tick_labels poloto_text" dominant-baseline="middle" text-anchor="end" x="135" y="199.5762711864407" >5.875</text><line  class="poloto_axis_lines" stroke="black" x1="150" x2="144" y1="188.98305084745766" y2="188.98305084745766" /><line  class="poloto_tick_line" stroke="black" x1="150" x2="650" y1="188.98305084745766" y2="188.98305084745766" /><text  class="poloto_tick_labels poloto_text" dominant-baseline="middle" text-anchor="end" x="135" y="188.98305084745766" >6</text><line  class="poloto_axis_lines" stroke="black" x1="150" x2="144" y1="178.38983050847457" y2="178.38983050847457" /><line  class="poloto_tick_line" stroke="black" x1="150" x2="650" y1="178.38983050847457" y2="178.38983050847457" /><text  class="poloto_tick_labels poloto_text" dominant-baseline="middle" text-anchor="end" x="135" y="178.38983050847457" >6.125</text><line  class="poloto_axis_lines" stroke="black" x1="150" x2="144" y1="167.7966101694915" y2="167.7966101694915" /><line  class="poloto_tick_line" stroke="black" x1="150" x2="650" y1="167.7966101694915" y2="167.7966101694915" /><text  class="poloto_tick_labels poloto_text" dominant-baseline="middle" text-anchor="end" x="135" y="167.7966101694915" >6.25</text><line  class="poloto_axis_lines" stroke="black" x1="150" x2="144" y1="157.2033898305085" y2="157.2033898305085" /><line  class="poloto_tick_line" stroke="black" x1="150" x2="650" y1="157.2033898305085" y2="157.2033898305085" /><text  class="poloto_tick_labels poloto_text" dominant-baseline="middle" text-anchor="end" x="135" y="157.2033898305085" >6.375</text><line  class="poloto_axis_lines" stroke="black" x1="150" x2="144" y1="146.61016949152543" y2="146.61016949152543" /><line  class="poloto_tick_line" stroke="black" x1="150" x2="650" y1="146.61016949152543" y2="146.61016949152543" /><text  class="poloto_tick_labels poloto_text" dominant-baseline="middle" text-anchor="end" x="135" y="146.61016949152543" >6.5</text><line  class="poloto_axis_lines" stroke="black" x1="150" x2="144" y1="136.01694915254234" y2="136.01694915254234" /><line  class="poloto_tick_line" stroke="black" x1="150" x2="650" y1="136.01694915254234" y2="136.01694915254234" /><text  class="poloto_tick_labels poloto_text" dominant-baseline="middle" text-anchor="end" x="135" y="136.01694915254234" >6.625</text><line  class="poloto_axis_lines" stroke="black" x1="150" x2="144" y1="125.42372881355936" y2="125.42372881355936" /><line  class="poloto_tick_line" stroke="black" x1="150" x2="650" y1="125.42372881355936" y2="125.42372881355936" /><text  class="poloto_tick_labels poloto_text" dominant-baseline="middle" text-anchor="end" x="135" y="125.42372881355936" >6.75</text><line  class="poloto_axis_lines" stroke="black" x1="150" x2="144" y1="114.83050847457628" y2="114.83050847457628" /><line  class="poloto_tick_line" stroke="black" x1="150" x2="650" y1="114.83050847457628" y2="114.83050847457628" /><text  class="poloto_tick_labels poloto_text" dominant-baseline="middle" text-anchor="end" x="135" y="114.83050847457628" >6.875</text><line  class="poloto_axis_lines" stroke="black" x1="150" x2="144" y1="104.23728813559319" y2="104.23728813559319" /><line  class="poloto_tick_line" stroke="black" x1="150" x2="650" y1="104.23728813559319" y2="104.23728813559319" /><text  class="poloto_tick_labels poloto_text" dominant-baseline="middle" text-anchor="end" x="135" y="104.23728813559319" >7</text><text  class="poloto_tick_labels poloto_text" dominant-baseline="middle" text-anchor="start" x="440.00000000000006" y="70" >¹2022-05-01 00:00:00 UTC in Months</text><line  class="poloto_axis_lines" stroke="black" x1="225.50335570469542" x2="225.50335570469542" y1="400" y2="405" /><line  class="poloto_tick_line" stroke="black" x1="225.50335570469542" x2="225.50335570469542" y1="400" y2="100" /><text  class="poloto_tick_labels poloto_text" dominant-baseline="start" text-anchor="middle" x="225.50335570469542" y="430" >2022 May¹</text><line  class="poloto_axis_lines" stroke="black" x1="327.8523489932886" x2="327.8523489932886" y1="400" y2="405" /><line  class="poloto_tick_line" stroke="black" x1="327.8523489932886" x2="327.8523489932886" y1="400" y2="100" /><text  class="poloto_tick_labels poloto_text" dominant-baseline="start" text-anchor="middle" x="327.8523489932886" y="430" >2022 Jul</text><line  class="poloto_axis_lines" stroke="black" x1="431.8791946308702" x2="431.8791946308702" y1="400" y2="405" /><line  class="poloto_tick_line" stroke="black" x1="431.8791946308702" x2="431.8791946308702" y1="400" y2="100" /><text  class="poloto_tick_labels poloto_text" dominant-baseline="start" text-anchor="middle" x="431.8791946308702" y="430" >2022 Sep</text><line  class="poloto_axis_lines" stroke="black" x1="534.2281879194634" x2="534.2281879194634" y1="400" y2="405" /><line  class="poloto_tick_line" stroke="black" x1="534.2281879194634" x2="534.2281879194634" y1="400" y2="100" /><text  class="poloto_tick_labels poloto_text" dominant-baseline="start" text-anchor="middle" x="534.2281879194634" y="430" >2022 Nov</text><line  class="poloto_axis_lines" stroke="black" x1="636.5771812080529" x2="636.5771812080529" y1="400" y2="405" /><line  class="poloto_tick_line" stroke="black" x1="636.5771812080529" x2="636.5771812080529" y1="400" y2="100" /><text  class="poloto_tick_labels poloto_text" dominant-baseline="start" text-anchor="middle" x="636.5771812080529" y="430" >2023 Jan</text><path  stroke="black" fill="none" class="poloto_axis_lines" d=" M 150 400 L 650 400" /><path  stroke="black" fill="none" class="poloto_axis_lines" d=" M 150 400 L 150 100" /></svg>