<svg class="poloto" width="800" height="500" viewBox="0 0 800 500" xmlns="http://www.w3.org/2000/svg"><style>.poloto{stroke-linecap:round;stroke-linejoin:round;font-family:Roboto,sans-serif;font-size:16px;}.poloto_background{fill:#262626;}.poloto_scatter{stroke-width:7}.poloto_tick_line{stroke:dimgray;stroke-width:0.5}.poloto_line{stroke-width:2}.poloto_text{fill: white;}.poloto_axis_lines{stroke: white;stroke-width:3;fill:none;stroke-dasharray:none}.poloto_title{font-size:24px;dominant-baseline:start;text-anchor:middle;}.poloto_xname{font-size:24px;dominant-baseline:start;text-anchor:middle;}.poloto_yname{font-size:24px;dominant-baseline:start;text-anchor:middle;}.poloto0stroke{stroke:blue;}.poloto1stroke{stroke:red;}.poloto2stroke{stroke:green;}.poloto3stroke{stroke:gold;}.poloto4stroke{stroke:aqua;}.poloto5stroke{stroke:lime;}.poloto6stroke{stroke:orange;}.poloto7stroke{stroke:chocolate;}.poloto0fill{fill:blue;}.poloto1fill{fill:red;}.poloto2fill{fill:green;}.poloto3fill{fill:gold;}.poloto4fill{fill:aqua;}.poloto5fill{fill:lime;}.poloto6fill{fill:orange;}.poloto7fill{fill:chocolate;}</style><circle  r="1e5" class="poloto_background" /><text  class="poloto_text poloto_legend_text" x="675" y="100" >30 years</text><line  class="poloto_line poloto_legend_icon poloto0stroke poloto0legend" stroke="black" x1="680" x2="730" y1="81.25" y2="81.25" /><path  class="poloto_line poloto0stroke" fill="none" stroke="black" d=" M 150.00 333.33 L 158.06 366.67 L 182.26 333.33 L 190.32 300.00 L 198.39 300.00 L 198.39 300.00 L 214.52 233.33 L 238.71 233.33 L 246.77 266.67 L 254.84 300.00 L 262.90 333.33 L 270.97 266.67 L 295.16 300.00 L 303.23 266.67 L 311.29 233.33 L 319.35 200.00 L 327.42 200.00 L 351.61 200.00 L 359.68 233.33 L 367.74 233.33 L 375.81 233.33 L 383.87 166.67 L 416.13 136.00 L 424.19 133.33 L 432.26 133.33 L 440.32 100.00 L 464.52 133.33 L 472.58 166.67 L 488.71 136.00 L 496.77 136.00 L 520.97 136.00 L 529.03 136.00 L 537.10 136.00 L 545.16 136.00 L 553.23 100.00 L 577.42 133.33 L 585.48 136.00 L 585.48 136.00 L 593.55 136.00 L 601.61 136.00 L 609.68 136.00 L 633.87 136.00 L 641.94 136.00 L 650.00 136.00 L 650.00 136.00" /><text  class="poloto_labels poloto_text poloto_title" x="400" y="37.5" >lower.com purchase rates</text><text  class="poloto_labels poloto_text poloto_xname" x="400" y="481.25" >Date</text><text  class="poloto_labels poloto_text poloto_yname" transform="rotate(-90,37.5,250)" x="37.5" y="250" >Rate (%)</text><text  class="poloto_tick_labels poloto_text" dominant-baseline="middle" text-anchor="start" x="150" y="70" ></text><line  class="poloto_axis_lines" stroke="black" x1="150" x2="144" y1="400" y2="400" /><line  class="poloto_tick_line" stroke="black" x1="150" x2="650" y1="400" y2="400" /><text  class="poloto_tick_labels poloto_text" dominant-baseline="middle" text-anchor="end" x="135" y="400" >4</text><line  class="poloto_axis_lines" stroke="black" x1="150" x2="144" y1="366.66666666666674" y2="366.66666666666674" /><line  class="poloto_tick_line" stroke="black" x1="150" x2="650" y1="366.66666666666674" y2="366.66666666666674" /><text  class="poloto_tick_labels poloto_text" dominant-baseline="middle" text-anchor="end" x="135" y="366.66666666666674" >4.125</text><line  class="poloto_axis_lines" stroke="black" x1="150" x2="144" y1="333.33333333333326" y2="333.33333333333326" /><line  class="poloto_tick_line" stroke="black" x1="150" x2="650" y1="333.33333333333326" y2="333.33333333333326" /><text  class="poloto_tick_labels poloto_text" dominant-baseline="middle" text-anchor="end" x="135" y="333.33333333333326" >4.25</text><line  class="poloto_axis_lines" stroke="black" x1="150" x2="144" y1="300" y2="300" /><line  class="poloto_tick_line" stroke="black" x1="150" x2="650" y1="300" y2="300" /><text  class="poloto_tick_labels poloto_text" dominant-baseline="middle" text-anchor="end" x="135" y="300" >4.375</text><line  class="poloto_axis_lines" stroke="black" x1="150" x2="144" y1="266.66666666666674" y2="266.66666666666674" /><line  class="poloto_tick_line" stroke="black" x1="150" x2="650" y1="266.66666666666674" y2="266.66666666666674" /><text  class="poloto_tick_labels poloto_text" dominant-baseline="middle" text-anchor="end" x="135" y="266.66666666666674" >4.5</text><line  class="poloto_axis_lines" stroke="black" x1="150" x2="144" y1="233.33333333333326" y2="233.33333333333326" /><line  class="poloto_tick_line" stroke="black" x1="150" x2="650" y1="233.33333333333326" y2="233.33333333333326" /><text  class="poloto_tick_labels poloto_text" dominant-baseline="middle" text-anchor="end" x="135" y="233.33333333333326" >4.625</text><line  class="poloto_axis_lines" stroke="black" x1="150" x2="144" y1="200" y2="200" /><line  class="poloto_tick_line" stroke="black" x1="150" x2="650" y1="200" y2="200" /><text  class="poloto_tick_labels poloto_text" dominant-baseline="middle" text-anchor="end" x="135" y="200" >4.75</text><line  class="poloto_axis_lines" stroke="black" x1="150" x2="144" y1="166.66666666666674" y2="166.66666666666674" /><line  class="poloto_tick_line" stroke="black" x1="150" x2="650" y1="166.66666666666674" y2="166.66666666666674" /><text  class="poloto_tick_labels poloto_text" dominant-baseline="middle" text-anchor="end" x="135" y="166.66666666666674" >4.875</text><line  class="poloto_axis_lines" stroke="black" x1="150" x2="144" y1="133.33333333333326" y2="133.33333333333326" /><line  class="poloto_tick_line" stroke="black" x1="150" x2="650" y1="133.33333333333326" y2="133.33333333333326" /><text  class="poloto_tick_labels poloto_text" dominant-baseline="middle" text-anchor="end" x="135" y="133.33333333333326" >5</text><line  class="poloto_axis_lines" stroke="black" x1="150" x2="144" y1="100" y2="100" /><line  class="poloto_tick_line" stroke="black" x1="150" x2="650" y1="100" y2="100" /><text  class="poloto_tick_labels poloto_text" dominant-baseline="middle" text-anchor="end" x="135" y="100" >5.125</text><text  class="poloto_tick_labels poloto_text" dominant-baseline="middle" text-anchor="start" x="440.00000000000006" y="70" >ยน2022-03-22 00:00:00 UTC in Days</text><line  class="poloto_axis_lines" stroke="black" x1="190.322580645181" x2="190.322580645181" y1="400" y2="405" /><line  class="poloto_tick_line" stroke="black" x1="190.322580645181" x2="190.322580645181" y1="400" y2="100" /><text  class="poloto_tick_labels poloto_text" dominant-baseline="start" text-anchor="middle" x="190.322580645181" y="430" >Mar 22ยน</text><line  class="poloto_axis_lines" stroke="black" x1="246.77419354839367" x2="246.77419354839367" y1="400" y2="405" /><line  class="poloto_tick_line" stroke="black" x1="246.77419354839367" x2="246.77419354839367" y1="400" y2="100" /><text  class="poloto_tick_labels poloto_text" dominant-baseline="start" text-anchor="middle" x="246.77419354839367" y="430" >Mar 29</text><line  class="poloto_axis_lines" stroke="black" x1="303.22580645163544" x2="303.22580645163544" y1="400" y2="405" /><line  class="poloto_tick_line" stroke="black" x1="303.22580645163544" x2="303.22580645163544" y1="400" y2="100" /><text  class="poloto_tick_labels poloto_text" dominant-baseline="start" text-anchor="middle" x="303.22580645163544" y="430" >Apr 05</text><line  class="poloto_axis_lines" stroke="black" x1="359.6774193548481" x2="359.6774193548481" y1="400" y2="405" /><line  class="poloto_tick_line" stroke="black" x1="359.6774193548481" x2="359.6774193548481" y1="400" y2="100" /><text  class="poloto_tick_labels poloto_text" dominant-baseline="start" text-anchor="middle" x="359.6774193548481" y="430" >Apr 12</text><line  class="poloto_axis_lines" stroke="black" x1="416.12903225808986" x2="416.12903225808986" y1="400" y2="405" /><line  class="poloto_tick_line" stroke="black" x1="416.12903225808986" x2="416.12903225808986" y1="400" y2="100" /><text  class="poloto_tick_labels poloto_text" dominant-baseline="start" text-anchor="middle" x="416.12903225808986" y="430" >Apr 19</text><line  class="poloto_axis_lines" stroke="black" x1="472.5806451613025" x2="472.5806451613025" y1="400" y2="405" /><line  class="poloto_tick_line" stroke="black" x1="472.5806451613025" x2="472.5806451613025" y1="400" y2="100" /><text  class="poloto_tick_labels poloto_text" dominant-baseline="start" text-anchor="middle" x="472.5806451613025" y="430" >Apr 26</text><line  class="poloto_axis_lines" stroke="black" x1="529.0322580645152" x2="529.0322580645152" y1="400" y2="405" /><line  class="poloto_tick_line" stroke="black" x1="529.0322580645152" x2="529.0322580645152" y1="400" y2="100" /><text  class="poloto_tick_labels poloto_text" dominant-baseline="start" text-anchor="middle" x="529.0322580645152" y="430" >May 03</text><line  class="poloto_axis_lines" stroke="black" x1="585.483870967757" x2="585.483870967757" y1="400" y2="405" /><line  class="poloto_tick_line" stroke="black" x1="585.483870967757" x2="585.483870967757" y1="400" y2="100" /><text  class="poloto_tick_labels poloto_text" dominant-baseline="start" text-anchor="middle" x="585.483870967757" y="430" >May 10</text><line  class="poloto_axis_lines" stroke="black" x1="641.9354838709696" x2="641.9354838709696" y1="400" y2="405" /><line  class="poloto_tick_line" stroke="black" x1="641.9354838709696" x2="641.9354838709696" y1="400" y2="100" /><text  class="poloto_tick_labels poloto_text" dominant-baseline="start" text-anchor="middle" x="641.9354838709696" y="430" >May 17</text><path  stroke="black" fill="none" class="poloto_axis_lines" d=" M 150 400 L 650 400" /><path  stroke="black" fill="none" class="poloto_axis_lines" d=" M 150 400 L 150 100" /></svg>