<svg class="poloto" width="800" height="500" viewBox="0 0 800 500" xmlns="http://www.w3.org/2000/svg"><style>.poloto{stroke-linecap:round;stroke-linejoin:round;font-family:Roboto,sans-serif;font-size:16px;}.poloto_background{fill:#262626;}.poloto_scatter{stroke-width:7}.poloto_tick_line{stroke:dimgray;stroke-width:0.5}.poloto_line{stroke-width:2}.poloto_text{fill: white;}.poloto_axis_lines{stroke: white;stroke-width:3;fill:none;stroke-dasharray:none}.poloto_title{font-size:24px;dominant-baseline:start;text-anchor:middle;}.poloto_xname{font-size:24px;dominant-baseline:start;text-anchor:middle;}.poloto_yname{font-size:24px;dominant-baseline:start;text-anchor:middle;}.poloto0stroke{stroke:blue;}.poloto1stroke{stroke:red;}.poloto2stroke{stroke:green;}.poloto3stroke{stroke:gold;}.poloto4stroke{stroke:aqua;}.poloto5stroke{stroke:lime;}.poloto6stroke{stroke:orange;}.poloto7stroke{stroke:chocolate;}.poloto0fill{fill:blue;}.poloto1fill{fill:red;}.poloto2fill{fill:green;}.poloto3fill{fill:gold;}.poloto4fill{fill:aqua;}.poloto5fill{fill:lime;}.poloto6fill{fill:orange;}.poloto7fill{fill:chocolate;}</style><circle  r="1e5" class="poloto_background" /><text  class="poloto_text poloto_legend_text" x="675" y="100" >Refinance 15</text><line  class="poloto_line poloto_legend_icon poloto0stroke poloto0legend" stroke="black" x1="680" x2="730" y1="81.25" y2="81.25" /><path  class="poloto_line poloto0stroke" fill="none" stroke="black" d=" M 150.00 392.46 L 151.59 400.00 L 156.35 389.32 L 157.94 380.17 L 159.52 389.32 L 159.52 389.32 L 162.70 358.81 L 167.46 357.20 L 169.05 367.88 L 170.63 344.83 L 172.22 346.44 L 173.81 341.61 L 178.57 343.22 L 180.16 336.78 L 180.16 336.78 L 183.33 337.37 L 184.92 314.32 L 189.68 324.32 L 191.27 327.54 L 192.86 327.54 L 194.44 326.69 L 196.03 321.78 L 202.38 278.73 L 203.97 297.88 L 205.56 283.05 L 207.14 277.29 L 207.14 277.29 L 213.49 299.58 L 216.67 303.64 L 218.25 294.58 L 223.02 283.81 L 224.60 305.25 L 226.19 294.58 L 226.19 294.58 L 229.37 292.88 L 234.13 296.19 L 235.71 306.86 L 235.71 306.86 L 237.30 297.80 L 238.89 308.56 L 240.48 292.88 L 245.24 325.08 L 246.83 324.32 L 248.41 306.86 L 248.41 306.86 L 250.00 314.32 L 251.59 317.63 L 256.35 317.63 L 257.94 329.15 L 259.52 329.15 L 261.11 329.15 L 262.70 329.15 L 269.05 317.63 L 270.63 314.32 L 272.22 315.93 L 273.81 315.93 L 273.81 315.93 L 280.16 305.25 L 281.75 305.25 L 283.33 296.19 L 289.68 281.36 L 291.27 250.76 L 292.86 254.15 L 294.44 254.15 L 296.03 275.59 L 300.79 254.15 L 302.38 254.15 L 303.97 273.90 L 305.56 277.29 L 311.90 277.29 L 313.49 275.59 L 315.08 280.59 L 316.67 285.51 L 318.25 296.19 L 324.60 303.64 L 326.19 294.58 L 327.78 287.12 L 329.37 283.81 L 334.13 285.51 L 337.30 285.51 L 338.89 283.81 L 345.24 282.20 L 345.24 282.20 L 345.24 282.20 L 345.24 282.20 L 345.24 282.20 L 345.24 282.20 L 348.41 282.20 L 348.41 282.20 L 348.41 282.20 L 348.41 282.20 L 348.41 282.20 L 348.41 282.20 L 356.35 294.58 L 359.52 297.80 L 361.11 325.93 L 362.70 329.15 L 367.46 329.15 L 369.05 327.54 L 370.63 305.25 L 372.22 299.49 L 373.81 285.51 L 378.57 296.19 L 378.57 296.19 L 380.16 287.12 L 383.33 296.19 L 383.33 296.19 L 391.27 296.19 L 392.86 262.46 L 394.44 282.20 L 400.79 248.39 L 403.97 248.39 L 403.97 248.39 L 407.14 260.76 L 413.49 254.15 L 413.49 254.15 L 413.49 254.15 L 413.49 254.15 L 413.49 254.15 L 413.49 254.15 L 413.49 254.15 L 413.49 254.15 L 413.49 254.15 L 418.25 254.15 L 427.78 232.63 L 434.13 235.17 L 434.13 235.17 L 438.89 235.17 L 445.24 235.17 L 446.83 235.17 L 446.83 235.17 L 446.83 235.17 L 446.83 235.17 L 446.83 235.17 L 467.46 235.17 L 469.05 235.17 L 478.57 139.75 L 480.16 130.68 L 481.75 130.68 L 538.89 159.15 L 545.24 159.15 L 546.83 159.15 L 548.41 175.51 L 551.59 184.49 L 551.59 184.49 L 557.94 184.49 L 559.52 184.49 L 561.11 184.49 L 562.70 184.49 L 567.46 184.49 L 569.05 184.49 L 572.22 184.49 L 573.81 184.49 L 578.57 184.49 L 580.16 184.49 L 580.16 184.49 L 584.92 184.49 L 589.68 184.49 L 591.27 184.49 L 592.86 184.49 L 594.44 184.49 L 596.03 184.49 L 602.38 209.15 L 603.97 180.68 L 605.56 159.15 L 607.14 169.92 L 611.90 169.92 L 613.49 169.92 L 613.49 169.92 L 616.67 193.05 L 618.25 193.05 L 623.02 193.05 L 624.60 193.05 L 626.19 193.05 L 627.78 193.05 L 629.37 193.05 L 629.37 193.05 L 629.37 193.05 L 629.37 193.05 L 637.30 193.05 L 640.48 193.05 L 645.24 193.05 L 646.83 193.05 L 650.00 193.05" /><text  class="poloto_text poloto_legend_text" x="675" y="150" >Refinance 20</text><line  class="poloto_line poloto_legend_icon poloto1stroke poloto1legend" stroke="black" x1="680" x2="730" y1="131.25" y2="131.25" /><path  class="poloto_line poloto1stroke" fill="none" stroke="black" d=" M 150.00 345.68 L 151.59 368.31 L 156.35 334.58 L 157.94 324.24 L 159.52 333.73 L 159.52 333.73 L 162.70 304.07 L 167.46 301.53 L 169.05 312.29 L 170.63 300.25 L 172.22 311.02 L 173.81 290.85 L 178.57 321.69 L 180.16 290.85 L 180.16 290.85 L 183.33 290.85 L 183.33 290.85 L 189.68 250.17 L 191.27 282.71 L 192.86 290.85 L 194.44 301.53 L 196.03 280.59 L 202.38 260.00 L 203.97 257.37 L 205.56 252.12 L 207.14 240.08 L 211.90 245.34 L 213.49 268.14 L 216.67 260.00 L 218.25 257.37 L 223.02 248.81 L 224.60 258.73 L 226.19 258.73 L 226.19 258.73 L 229.37 258.73 L 234.13 260.00 L 235.71 281.44 L 235.71 281.44 L 237.30 269.41 L 238.89 289.58 L 240.48 281.44 L 245.24 282.71 L 246.83 281.44 L 248.41 281.44 L 248.41 281.44 L 250.00 282.71 L 251.59 289.58 L 256.35 290.85 L 257.94 294.66 L 259.52 294.66 L 261.11 294.66 L 262.70 294.66 L 269.05 289.58 L 270.63 278.81 L 272.22 281.44 L 273.81 281.44 L 273.81 281.44 L 280.16 268.14 L 281.75 270.68 L 283.33 261.27 L 289.68 215.85 L 291.27 197.03 L 292.86 207.80 L 294.44 215.85 L 296.03 238.56 L 300.79 225.17 L 302.38 218.47 L 303.97 239.92 L 305.56 250.17 L 311.90 250.17 L 313.49 238.56 L 315.08 249.32 L 316.67 260.00 L 318.25 272.03 L 324.60 280.08 L 326.19 269.41 L 327.78 258.73 L 329.37 251.44 L 334.13 257.37 L 337.30 260.00 L 338.89 258.73 L 345.24 260.00 L 345.24 260.00 L 345.24 260.00 L 345.24 260.00 L 345.24 260.00 L 345.24 260.00 L 345.24 260.00 L 345.24 260.00 L 345.24 260.00 L 345.24 260.00 L 345.24 260.00 L 345.24 260.00 L 356.35 280.08 L 359.52 282.71 L 361.11 301.53 L 362.70 304.07 L 367.46 301.27 L 369.05 301.27 L 370.63 290.85 L 372.22 294.66 L 373.81 278.81 L 378.57 270.68 L 378.57 270.68 L 380.16 270.68 L 383.33 281.44 L 383.33 281.44 L 391.27 278.81 L 392.86 260.00 L 394.44 260.00 L 400.79 246.19 L 403.97 234.58 L 403.97 234.58 L 407.14 247.54 L 413.49 215.85 L 413.49 215.85 L 413.49 215.85 L 413.49 215.85 L 413.49 215.85 L 413.49 215.85 L 413.49 215.85 L 413.49 215.85 L 413.49 215.85 L 418.25 215.85 L 427.78 202.37 L 434.13 203.73 L 437.30 203.73 L 438.89 203.73 L 438.89 203.73 L 446.83 203.73 L 448.41 203.73 L 448.41 203.73 L 448.41 203.73 L 448.41 203.73 L 467.46 203.73 L 469.05 203.73 L 478.57 118.81 L 480.16 102.97 L 480.16 102.97 L 542.06 155.34 L 545.24 155.34 L 546.83 155.34 L 550.00 174.15 L 551.59 175.51 L 551.59 175.51 L 557.94 175.51 L 559.52 175.51 L 561.11 175.51 L 562.70 175.51 L 567.46 175.51 L 569.05 175.51 L 572.22 175.51 L 573.81 175.51 L 578.57 175.51 L 580.16 175.51 L 580.16 175.51 L 584.92 175.51 L 589.68 175.51 L 591.27 175.51 L 592.86 175.51 L 594.44 175.51 L 596.03 175.51 L 602.38 156.36 L 603.97 145.93 L 605.56 144.58 L 607.14 147.37 L 611.90 147.37 L 613.49 147.37 L 613.49 147.37 L 616.67 167.46 L 618.25 167.46 L 623.02 167.46 L 624.60 167.46 L 626.19 167.46 L 627.78 167.46 L 629.37 167.46 L 629.37 167.46 L 635.71 167.46 L 635.71 167.46 L 637.30 167.46 L 640.48 167.46 L 645.24 167.46 L 646.83 167.46 L 650.00 167.46" /><text  class="poloto_text poloto_legend_text" x="675" y="200" >Refinance 30</text><line  class="poloto_line poloto_legend_icon poloto2stroke poloto2legend" stroke="black" x1="680" x2="730" y1="181.25" y2="181.25" /><path  class="poloto_line poloto2stroke" fill="none" stroke="black" d=" M 150.00 343.31 L 151.59 351.36 L 156.35 338.81 L 157.94 328.98 L 159.52 330.85 L 159.52 330.85 L 162.70 310.25 L 167.46 308.47 L 169.05 319.15 L 170.63 307.54 L 172.22 318.22 L 173.81 297.71 L 178.57 307.54 L 180.16 286.95 L 181.75 286.95 L 183.33 286.02 L 184.92 260.00 L 189.68 264.58 L 191.27 276.27 L 192.86 286.95 L 194.44 277.20 L 196.03 265.51 L 202.38 256.61 L 203.97 242.12 L 205.56 240.17 L 207.14 238.14 L 211.90 242.12 L 213.49 258.73 L 216.67 256.61 L 218.25 254.66 L 223.02 244.07 L 224.60 255.59 L 226.19 244.07 L 226.19 244.07 L 229.37 244.07 L 234.13 246.02 L 235.71 264.58 L 235.71 264.58 L 237.30 255.59 L 238.89 256.61 L 240.48 257.54 L 245.24 265.51 L 246.83 256.61 L 248.41 256.61 L 248.41 256.61 L 250.00 266.44 L 251.59 267.46 L 256.35 268.39 L 257.94 277.20 L 259.52 277.20 L 261.11 279.07 L 262.70 279.07 L 269.05 275.25 L 270.63 264.58 L 272.22 266.44 L 273.81 265.51 L 273.81 265.51 L 280.16 255.59 L 281.75 255.59 L 283.33 245.00 L 289.68 202.12 L 291.27 171.78 L 292.86 190.34 L 294.44 202.12 L 296.03 212.80 L 300.79 203.05 L 302.38 202.12 L 303.97 221.61 L 305.56 223.56 L 311.90 223.56 L 313.49 211.86 L 315.08 221.61 L 316.67 232.29 L 318.25 255.59 L 324.60 256.61 L 326.19 245.00 L 327.78 224.58 L 329.37 221.61 L 334.13 241.10 L 337.30 223.56 L 338.89 222.54 L 345.24 242.12 L 345.24 242.12 L 345.24 242.12 L 345.24 242.12 L 345.24 242.12 L 345.24 242.12 L 348.41 242.12 L 348.41 242.12 L 348.41 242.12 L 348.41 242.12 L 348.41 242.12 L 348.41 242.12 L 356.35 254.66 L 359.52 256.61 L 361.11 275.25 L 362.70 287.88 L 367.46 286.95 L 369.05 286.95 L 370.63 265.51 L 372.22 268.39 L 373.81 254.66 L 378.57 265.51 L 378.57 265.51 L 380.16 257.54 L 383.33 266.44 L 383.33 266.44 L 391.27 264.58 L 392.86 246.02 L 394.44 245.00 L 400.79 220.59 L 403.97 211.86 L 403.97 211.86 L 407.14 222.54 L 413.49 210.85 L 413.49 210.85 L 413.49 210.85 L 413.49 210.85 L 413.49 210.85 L 413.49 210.85 L 413.49 210.85 L 413.49 210.85 L 418.25 210.85 L 418.25 209.83 L 427.78 197.03 L 434.13 175.51 L 434.13 175.51 L 438.89 175.51 L 438.89 175.51 L 446.83 175.51 L 448.41 175.51 L 448.41 175.51 L 448.41 175.51 L 448.41 175.51 L 467.46 175.51 L 469.05 175.51 L 478.57 127.03 L 480.16 100.00 L 480.16 100.00 L 542.06 146.44 L 545.24 146.44 L 546.83 146.44 L 548.41 150.76 L 551.59 160.59 L 551.59 160.59 L 557.94 160.59 L 559.52 160.59 L 561.11 160.59 L 562.70 160.59 L 567.46 160.59 L 569.05 160.59 L 572.22 160.59 L 573.81 160.59 L 578.57 160.59 L 580.16 160.59 L 580.16 160.59 L 584.92 160.59 L 589.68 160.59 L 591.27 160.59 L 592.86 160.59 L 594.44 160.59 L 596.03 160.59 L 602.38 144.24 L 603.97 152.88 L 605.56 132.37 L 607.14 152.88 L 611.90 152.88 L 613.49 152.88 L 613.49 152.88 L 616.67 152.88 L 618.25 152.88 L 623.02 152.88 L 624.60 152.88 L 626.19 152.88 L 627.78 152.88 L 629.37 152.88 L 629.37 152.88 L 635.71 152.88 L 635.71 152.88 L 637.30 152.88 L 640.48 152.88 L 645.24 152.88 L 646.83 152.88 L 650.00 152.88" /><text  class="poloto_labels poloto_text poloto_title" x="400" y="37.5" >lower.com purchase rates</text><text  class="poloto_labels poloto_text poloto_xname" x="400" y="481.25" >Date</text><text  class="poloto_labels poloto_text poloto_yname" transform="rotate(-90,37.5,250)" x="37.5" y="250" >Rate (%)</text><text  class="poloto_tick_labels poloto_text" dominant-baseline="middle" text-anchor="start" x="150" y="70" ></text><line  class="poloto_axis_lines" stroke="black" x1="150" x2="144" y1="390.2542372881356" y2="390.2542372881356" /><line  class="poloto_tick_line" stroke="black" x1="150" x2="650" y1="390.2542372881356" y2="390.2542372881356" /><text  class="poloto_tick_labels poloto_text" dominant-baseline="middle" text-anchor="end" x="135" y="390.2542372881356" >3.625</text><line  class="poloto_axis_lines" stroke="black" x1="150" x2="144" y1="379.66101694915255" y2="379.66101694915255" /><line  class="poloto_tick_line" stroke="black" x1="150" x2="650" y1="379.66101694915255" y2="379.66101694915255" /><text  class="poloto_tick_labels poloto_text" dominant-baseline="middle" text-anchor="end" x="135" y="379.66101694915255" >3.75</text><line  class="poloto_axis_lines" stroke="black" x1="150" x2="144" y1="369.06779661016947" y2="369.06779661016947" /><line  class="poloto_tick_line" stroke="black" x1="150" x2="650" y1="369.06779661016947" y2="369.06779661016947" /><text  class="poloto_tick_labels poloto_text" dominant-baseline="middle" text-anchor="end" x="135" y="369.06779661016947" >3.875</text><line  class="poloto_axis_lines" stroke="black" x1="150" x2="144" y1="358.47457627118644" y2="358.47457627118644" /><line  class="poloto_tick_line" stroke="black" x1="150" x2="650" y1="358.47457627118644" y2="358.47457627118644" /><text  class="poloto_tick_labels poloto_text" dominant-baseline="middle" text-anchor="end" x="135" y="358.47457627118644" >4</text><line  class="poloto_axis_lines" stroke="black" x1="150" x2="144" y1="347.8813559322034" y2="347.8813559322034" /><line  class="poloto_tick_line" stroke="black" x1="150" x2="650" y1="347.8813559322034" y2="347.8813559322034" /><text  class="poloto_tick_labels poloto_text" dominant-baseline="middle" text-anchor="end" x="135" y="347.8813559322034" >4.125</text><line  class="poloto_axis_lines" stroke="black" x1="150" x2="144" y1="337.2881355932203" y2="337.2881355932203" /><line  class="poloto_tick_line" stroke="black" x1="150" x2="650" y1="337.2881355932203" y2="337.2881355932203" /><text  class="poloto_tick_labels poloto_text" dominant-baseline="middle" text-anchor="end" x="135" y="337.2881355932203" >4.25</text><line  class="poloto_axis_lines" stroke="black" x1="150" x2="144" y1="326.6949152542373" y2="326.6949152542373" /><line  class="poloto_tick_line" stroke="black" x1="150" x2="650" y1="326.6949152542373" y2="326.6949152542373" /><text  class="poloto_tick_labels poloto_text" dominant-baseline="middle" text-anchor="end" x="135" y="326.6949152542373" >4.375</text><line  class="poloto_axis_lines" stroke="black" x1="150" x2="144" y1="316.10169491525426" y2="316.10169491525426" /><line  class="poloto_tick_line" stroke="black" x1="150" x2="650" y1="316.10169491525426" y2="316.10169491525426" /><text  class="poloto_tick_labels poloto_text" dominant-baseline="middle" text-anchor="end" x="135" y="316.10169491525426" >4.5</text><line  class="poloto_axis_lines" stroke="black" x1="150" x2="144" y1="305.50847457627117" y2="305.50847457627117" /><line  class="poloto_tick_line" stroke="black" x1="150" x2="650" y1="305.50847457627117" y2="305.50847457627117" /><text  class="poloto_tick_labels poloto_text" dominant-baseline="middle" text-anchor="end" x="135" y="305.50847457627117" >4.625</text><line  class="poloto_axis_lines" stroke="black" x1="150" x2="144" y1="294.91525423728814" y2="294.91525423728814" /><line  class="poloto_tick_line" stroke="black" x1="150" x2="650" y1="294.91525423728814" y2="294.91525423728814" /><text  class="poloto_tick_labels poloto_text" dominant-baseline="middle" text-anchor="end" x="135" y="294.91525423728814" >4.75</text><line  class="poloto_axis_lines" stroke="black" x1="150" x2="144" y1="284.3220338983051" y2="284.3220338983051" /><line  class="poloto_tick_line" stroke="black" x1="150" x2="650" y1="284.3220338983051" y2="284.3220338983051" /><text  class="poloto_tick_labels poloto_text" dominant-baseline="middle" text-anchor="end" x="135" y="284.3220338983051" >4.875</text><line  class="poloto_axis_lines" stroke="black" x1="150" x2="144" y1="273.728813559322" y2="273.728813559322" /><line  class="poloto_tick_line" stroke="black" x1="150" x2="650" y1="273.728813559322" y2="273.728813559322" /><text  class="poloto_tick_labels poloto_text" dominant-baseline="middle" text-anchor="end" x="135" y="273.728813559322" >5</text><line  class="poloto_axis_lines" stroke="black" x1="150" x2="144" y1="263.135593220339" y2="263.135593220339" /><line  class="poloto_tick_line" stroke="black" x1="150" x2="650" y1="263.135593220339" y2="263.135593220339" /><text  class="poloto_tick_labels poloto_text" dominant-baseline="middle" text-anchor="end" x="135" y="263.135593220339" >5.125</text><line  class="poloto_axis_lines" stroke="black" x1="150" x2="144" y1="252.54237288135596" y2="252.54237288135596" /><line  class="poloto_tick_line" stroke="black" x1="150" x2="650" y1="252.54237288135596" y2="252.54237288135596" /><text  class="poloto_tick_labels poloto_text" dominant-baseline="middle" text-anchor="end" x="135" y="252.54237288135596" >5.25</text><line  class="poloto_axis_lines" stroke="black" x1="150" x2="144" y1="241.94915254237287" y2="241.94915254237287" /><line  class="poloto_tick_line" stroke="black" x1="150" x2="650" y1="241.94915254237287" y2="241.94915254237287" /><text  class="poloto_tick_labels poloto_text" dominant-baseline="middle" text-anchor="end" x="135" y="241.94915254237287" >5.375</text><line  class="poloto_axis_lines" stroke="black" x1="150" x2="144" y1="231.35593220338984" y2="231.35593220338984" /><line  class="poloto_tick_line" stroke="black" x1="150" x2="650" y1="231.35593220338984" y2="231.35593220338984" /><text  class="poloto_tick_labels poloto_text" dominant-baseline="middle" text-anchor="end" x="135" y="231.35593220338984" >5.5</text><line  class="poloto_axis_lines" stroke="black" x1="150" x2="144" y1="220.7627118644068" y2="220.7627118644068" /><line  class="poloto_tick_line" stroke="black" x1="150" x2="650" y1="220.7627118644068" y2="220.7627118644068" /><text  class="poloto_tick_labels poloto_text" dominant-baseline="middle" text-anchor="end" x="135" y="220.7627118644068" >5.625</text><line  class="poloto_axis_lines" stroke="black" x1="150" x2="144" y1="210.16949152542372" y2="210.16949152542372" /><line  class="poloto_tick_line" stroke="black" x1="150" x2="650" y1="210.16949152542372" y2="210.16949152542372" /><text  class="poloto_tick_labels poloto_text" dominant-baseline="middle" text-anchor="end" x="135" y="210.16949152542372" >5.75</text><line  class="poloto_axis_lines" stroke="black" x1="150" x2="144" y1="199.5762711864407" y2="199.5762711864407" /><line  class="poloto_tick_line" stroke="black" x1="150" x2="650" y1="199.5762711864407" y2="199.5762711864407" /><text  class="poloto_tick_labels poloto_text" dominant-baseline="middle" text-anchor="end" x="135" y="199.5762711864407" >5.875</text><line  class="poloto_axis_lines" stroke="black" x1="150" x2="144" y1="188.98305084745766" y2="188.98305084745766" /><line  class="poloto_tick_line" stroke="black" x1="150" x2="650" y1="188.98305084745766" y2="188.98305084745766" /><text  class="poloto_tick_labels poloto_text" dominant-baseline="middle" text-anchor="end" x="135" y="188.98305084745766" >6</text><line  class="poloto_axis_lines" stroke="black" x1="150" x2="144" y1="178.38983050847457" y2="178.38983050847457" /><line  class="poloto_tick_line" stroke="black" x1="150" x2="650" y1="178.38983050847457" y2="178.38983050847457" /><text  class="poloto_tick_labels poloto_text" dominant-baseline="middle" text-anchor="end" x="135" y="178.38983050847457" >6.125</text><line  class="poloto_axis_lines" stroke="black" x1="150" x2="144" y1="167.7966101694915" y2="167.7966101694915" /><line  class="poloto_tick_line" stroke="black" x1="150" x2="650" y1="167.7966101694915" y2="167.7966101694915" /><text  class="poloto_tick_labels poloto_text" dominant-baseline="middle" text-anchor="end" x="135" y="167.7966101694915" >6.25</text><line  class="poloto_axis_lines" stroke="black" x1="150" x2="144" y1="157.2033898305085" y2="157.2033898305085" /><line  class="poloto_tick_line" stroke="black" x1="150" x2="650" y1="157.2033898305085" y2="157.2033898305085" /><text  class="poloto_tick_labels poloto_text" dominant-baseline="middle" text-anchor="end" x="135" y="157.2033898305085" >6.375</text><line  class="poloto_axis_lines" stroke="black" x1="150" x2="144" y1="146.61016949152543" y2="146.61016949152543" /><line  class="poloto_tick_line" stroke="black" x1="150" x2="650" y1="146.61016949152543" y2="146.61016949152543" /><text  class="poloto_tick_labels poloto_text" dominant-baseline="middle" text-anchor="end" x="135" y="146.61016949152543" >6.5</text><line  class="poloto_axis_lines" stroke="black" x1="150" x2="144" y1="136.01694915254234" y2="136.01694915254234" /><line  class="poloto_tick_line" stroke="black" x1="150" x2="650" y1="136.01694915254234" y2="136.01694915254234" /><text  class="poloto_tick_labels poloto_text" dominant-baseline="middle" text-anchor="end" x="135" y="136.01694915254234" >6.625</text><line  class="poloto_axis_lines" stroke="black" x1="150" x2="144" y1="125.42372881355936" y2="125.42372881355936" /><line  class="poloto_tick_line" stroke="black" x1="150" x2="650" y1="125.42372881355936" y2="125.42372881355936" /><text  class="poloto_tick_labels poloto_text" dominant-baseline="middle" text-anchor="end" x="135" y="125.42372881355936" >6.75</text><line  class="poloto_axis_lines" stroke="black" x1="150" x2="144" y1="114.83050847457628" y2="114.83050847457628" /><line  class="poloto_tick_line" stroke="black" x1="150" x2="650" y1="114.83050847457628" y2="114.83050847457628" /><text  class="poloto_tick_labels poloto_text" dominant-baseline="middle" text-anchor="end" x="135" y="114.83050847457628" >6.875</text><line  class="poloto_axis_lines" stroke="black" x1="150" x2="144" y1="104.23728813559319" y2="104.23728813559319" /><line  class="poloto_tick_line" stroke="black" x1="150" x2="650" y1="104.23728813559319" y2="104.23728813559319" /><text  class="poloto_tick_labels poloto_text" dominant-baseline="middle" text-anchor="end" x="135" y="104.23728813559319" >7</text><text  class="poloto_tick_labels poloto_text" dominant-baseline="middle" text-anchor="start" x="440.00000000000006" y="70" >¹2022-05-01 00:00:00 UTC in Months</text><line  class="poloto_axis_lines" stroke="black" x1="221.42857142856883" x2="221.42857142856883" y1="400" y2="405" /><line  class="poloto_tick_line" stroke="black" x1="221.42857142856883" x2="221.42857142856883" y1="400" y2="100" /><text  class="poloto_tick_labels poloto_text" dominant-baseline="start" text-anchor="middle" x="221.42857142856883" y="430" >2022 May¹</text><line  class="poloto_axis_lines" stroke="black" x1="318.2539682539682" x2="318.2539682539682" y1="400" y2="405" /><line  class="poloto_tick_line" stroke="black" x1="318.2539682539682" x2="318.2539682539682" y1="400" y2="100" /><text  class="poloto_tick_labels poloto_text" dominant-baseline="start" text-anchor="middle" x="318.2539682539682" y="430" >2022 Jul</text><line  class="poloto_axis_lines" stroke="black" x1="416.66666666666424" x2="416.66666666666424" y1="400" y2="405" /><line  class="poloto_tick_line" stroke="black" x1="416.66666666666424" x2="416.66666666666424" y1="400" y2="100" /><text  class="poloto_tick_labels poloto_text" dominant-baseline="start" text-anchor="middle" x="416.66666666666424" y="430" >2022 Sep</text><line  class="poloto_axis_lines" stroke="black" x1="513.4920634920636" x2="513.4920634920636" y1="400" y2="405" /><line  class="poloto_tick_line" stroke="black" x1="513.4920634920636" x2="513.4920634920636" y1="400" y2="100" /><text  class="poloto_tick_labels poloto_text" dominant-baseline="start" text-anchor="middle" x="513.4920634920636" y="430" >2022 Nov</text><line  class="poloto_axis_lines" stroke="black" x1="610.3174603174593" x2="610.3174603174593" y1="400" y2="405" /><line  class="poloto_tick_line" stroke="black" x1="610.3174603174593" x2="610.3174603174593" y1="400" y2="100" /><text  class="poloto_tick_labels poloto_text" dominant-baseline="start" text-anchor="middle" x="610.3174603174593" y="430" >2023 Jan</text><path  stroke="black" fill="none" class="poloto_axis_lines" d=" M 150 400 L 650 400" /><path  stroke="black" fill="none" class="poloto_axis_lines" d=" M 150 400 L 150 100" /></svg>