<svg class="poloto" width="800" height="500" viewBox="0 0 800 500" xmlns="http://www.w3.org/2000/svg"><style>.poloto{stroke-linecap:round;stroke-linejoin:round;font-family:Roboto,sans-serif;font-size:16px;}.poloto_background{fill:#262626;}.poloto_scatter{stroke-width:7}.poloto_tick_line{stroke:dimgray;stroke-width:0.5}.poloto_line{stroke-width:2}.poloto_text{fill: white;}.poloto_axis_lines{stroke: white;stroke-width:3;fill:none;stroke-dasharray:none}.poloto_title{font-size:24px;dominant-baseline:start;text-anchor:middle;}.poloto_xname{font-size:24px;dominant-baseline:start;text-anchor:middle;}.poloto_yname{font-size:24px;dominant-baseline:start;text-anchor:middle;}.poloto0stroke{stroke:blue;}.poloto1stroke{stroke:red;}.poloto2stroke{stroke:green;}.poloto3stroke{stroke:gold;}.poloto4stroke{stroke:aqua;}.poloto5stroke{stroke:lime;}.poloto6stroke{stroke:orange;}.poloto7stroke{stroke:chocolate;}.poloto0fill{fill:blue;}.poloto1fill{fill:red;}.poloto2fill{fill:green;}.poloto3fill{fill:gold;}.poloto4fill{fill:aqua;}.poloto5fill{fill:lime;}.poloto6fill{fill:orange;}.poloto7fill{fill:chocolate;}</style><circle  r="1e5" class="poloto_background" /><text  class="poloto_text poloto_legend_text" x="675" y="100" >30 years</text><line  class="poloto_line poloto_legend_icon poloto0stroke poloto0legend" stroke="black" x1="680" x2="730" y1="81.25" y2="81.25" /><path  class="poloto_line poloto0stroke" fill="none" stroke="black" d=" M 150.00 333.33 L 159.43 366.67 L 187.74 333.33 L 197.17 300.00 L 206.60 300.00 L 206.60 300.00 L 225.47 233.33 L 253.77 233.33 L 263.21 266.67 L 272.64 300.00 L 282.08 333.33 L 291.51 266.67 L 319.81 300.00 L 329.25 266.67 L 338.68 233.33 L 348.11 200.00 L 357.55 200.00 L 385.85 200.00 L 395.28 233.33 L 404.72 233.33 L 414.15 233.33 L 423.58 166.67 L 461.32 136.00 L 470.75 133.33 L 480.19 133.33 L 489.62 100.00 L 517.92 133.33 L 527.36 166.67 L 546.23 136.00 L 555.66 136.00 L 583.96 136.00 L 593.40 136.00 L 602.83 136.00 L 612.26 136.00 L 621.70 100.00 L 650.00 133.33" /><text  class="poloto_labels poloto_text poloto_title" x="400" y="37.5" >lower.com purchase rates</text><text  class="poloto_labels poloto_text poloto_xname" x="400" y="481.25" >Date</text><text  class="poloto_labels poloto_text poloto_yname" transform="rotate(-90,37.5,250)" x="37.5" y="250" >Rate (%)</text><text  class="poloto_tick_labels poloto_text" dominant-baseline="middle" text-anchor="start" x="150" y="70" ></text><line  class="poloto_axis_lines" stroke="black" x1="150" x2="144" y1="400" y2="400" /><line  class="poloto_tick_line" stroke="black" x1="150" x2="650" y1="400" y2="400" /><text  class="poloto_tick_labels poloto_text" dominant-baseline="middle" text-anchor="end" x="135" y="400" >4</text><line  class="poloto_axis_lines" stroke="black" x1="150" x2="144" y1="366.66666666666674" y2="366.66666666666674" /><line  class="poloto_tick_line" stroke="black" x1="150" x2="650" y1="366.66666666666674" y2="366.66666666666674" /><text  class="poloto_tick_labels poloto_text" dominant-baseline="middle" text-anchor="end" x="135" y="366.66666666666674" >4.125</text><line  class="poloto_axis_lines" stroke="black" x1="150" x2="144" y1="333.33333333333326" y2="333.33333333333326" /><line  class="poloto_tick_line" stroke="black" x1="150" x2="650" y1="333.33333333333326" y2="333.33333333333326" /><text  class="poloto_tick_labels poloto_text" dominant-baseline="middle" text-anchor="end" x="135" y="333.33333333333326" >4.25</text><line  class="poloto_axis_lines" stroke="black" x1="150" x2="144" y1="300" y2="300" /><line  class="poloto_tick_line" stroke="black" x1="150" x2="650" y1="300" y2="300" /><text  class="poloto_tick_labels poloto_text" dominant-baseline="middle" text-anchor="end" x="135" y="300" >4.375</text><line  class="poloto_axis_lines" stroke="black" x1="150" x2="144" y1="266.66666666666674" y2="266.66666666666674" /><line  class="poloto_tick_line" stroke="black" x1="150" x2="650" y1="266.66666666666674" y2="266.66666666666674" /><text  class="poloto_tick_labels poloto_text" dominant-baseline="middle" text-anchor="end" x="135" y="266.66666666666674" >4.5</text><line  class="poloto_axis_lines" stroke="black" x1="150" x2="144" y1="233.33333333333326" y2="233.33333333333326" /><line  class="poloto_tick_line" stroke="black" x1="150" x2="650" y1="233.33333333333326" y2="233.33333333333326" /><text  class="poloto_tick_labels poloto_text" dominant-baseline="middle" text-anchor="end" x="135" y="233.33333333333326" >4.625</text><line  class="poloto_axis_lines" stroke="black" x1="150" x2="144" y1="200" y2="200" /><line  class="poloto_tick_line" stroke="black" x1="150" x2="650" y1="200" y2="200" /><text  class="poloto_tick_labels poloto_text" dominant-baseline="middle" text-anchor="end" x="135" y="200" >4.75</text><line  class="poloto_axis_lines" stroke="black" x1="150" x2="144" y1="166.66666666666674" y2="166.66666666666674" /><line  class="poloto_tick_line" stroke="black" x1="150" x2="650" y1="166.66666666666674" y2="166.66666666666674" /><text  class="poloto_tick_labels poloto_text" dominant-baseline="middle" text-anchor="end" x="135" y="166.66666666666674" >4.875</text><line  class="poloto_axis_lines" stroke="black" x1="150" x2="144" y1="133.33333333333326" y2="133.33333333333326" /><line  class="poloto_tick_line" stroke="black" x1="150" x2="650" y1="133.33333333333326" y2="133.33333333333326" /><text  class="poloto_tick_labels poloto_text" dominant-baseline="middle" text-anchor="end" x="135" y="133.33333333333326" >5</text><line  class="poloto_axis_lines" stroke="black" x1="150" x2="144" y1="100" y2="100" /><line  class="poloto_tick_line" stroke="black" x1="150" x2="650" y1="100" y2="100" /><text  class="poloto_tick_labels poloto_text" dominant-baseline="middle" text-anchor="end" x="135" y="100" >5.125</text><text  class="poloto_tick_labels poloto_text" dominant-baseline="middle" text-anchor="start" x="440.00000000000006" y="70" >ยน2022-03-22 00:00:00 UTC in Days</text><line  class="poloto_axis_lines" stroke="black" x1="197.16981132075307" x2="197.16981132075307" y1="400" y2="405" /><line  class="poloto_tick_line" stroke="black" x1="197.16981132075307" x2="197.16981132075307" y1="400" y2="100" /><text  class="poloto_tick_labels poloto_text" dominant-baseline="start" text-anchor="middle" x="197.16981132075307" y="430" >Mar 22ยน</text><line  class="poloto_axis_lines" stroke="black" x1="263.207547169819" x2="263.207547169819" y1="400" y2="405" /><line  class="poloto_tick_line" stroke="black" x1="263.207547169819" x2="263.207547169819" y1="400" y2="100" /><text  class="poloto_tick_labels poloto_text" dominant-baseline="start" text-anchor="middle" x="263.207547169819" y="430" >Mar 29</text><line  class="poloto_axis_lines" stroke="black" x1="329.24528301888495" x2="329.24528301888495" y1="400" y2="405" /><line  class="poloto_tick_line" stroke="black" x1="329.24528301888495" x2="329.24528301888495" y1="400" y2="100" /><text  class="poloto_tick_labels poloto_text" dominant-baseline="start" text-anchor="middle" x="329.24528301888495" y="430" >Apr 05</text><line  class="poloto_axis_lines" stroke="black" x1="395.2830188679218" x2="395.2830188679218" y1="400" y2="405" /><line  class="poloto_tick_line" stroke="black" x1="395.2830188679218" x2="395.2830188679218" y1="400" y2="100" /><text  class="poloto_tick_labels poloto_text" dominant-baseline="start" text-anchor="middle" x="395.2830188679218" y="430" >Apr 12</text><line  class="poloto_axis_lines" stroke="black" x1="461.3207547169877" x2="461.3207547169877" y1="400" y2="405" /><line  class="poloto_tick_line" stroke="black" x1="461.3207547169877" x2="461.3207547169877" y1="400" y2="100" /><text  class="poloto_tick_labels poloto_text" dominant-baseline="start" text-anchor="middle" x="461.3207547169877" y="430" >Apr 19</text><line  class="poloto_axis_lines" stroke="black" x1="527.3584905660537" x2="527.3584905660537" y1="400" y2="405" /><line  class="poloto_tick_line" stroke="black" x1="527.3584905660537" x2="527.3584905660537" y1="400" y2="100" /><text  class="poloto_tick_labels poloto_text" dominant-baseline="start" text-anchor="middle" x="527.3584905660537" y="430" >Apr 26</text><line  class="poloto_axis_lines" stroke="black" x1="593.3962264150905" x2="593.3962264150905" y1="400" y2="405" /><line  class="poloto_tick_line" stroke="black" x1="593.3962264150905" x2="593.3962264150905" y1="400" y2="100" /><text  class="poloto_tick_labels poloto_text" dominant-baseline="start" text-anchor="middle" x="593.3962264150905" y="430" >May 03</text><path  stroke="black" fill="none" class="poloto_axis_lines" d=" M 150 400 L 650 400" /><path  stroke="black" fill="none" class="poloto_axis_lines" d=" M 150 400 L 150 100" /></svg>