<svg class="poloto" width="800" height="500" viewBox="0 0 800 500" xmlns="http://www.w3.org/2000/svg"><style>.poloto{stroke-linecap:round;stroke-linejoin:round;font-family:Roboto,sans-serif;font-size:16px;}.poloto_background{fill:#262626;}.poloto_scatter{stroke-width:7}.poloto_tick_line{stroke:dimgray;stroke-width:0.5}.poloto_line{stroke-width:2}.poloto_text{fill: white;}.poloto_axis_lines{stroke: white;stroke-width:3;fill:none;stroke-dasharray:none}.poloto_title{font-size:24px;dominant-baseline:start;text-anchor:middle;}.poloto_xname{font-size:24px;dominant-baseline:start;text-anchor:middle;}.poloto_yname{font-size:24px;dominant-baseline:start;text-anchor:middle;}.poloto0stroke{stroke:blue;}.poloto1stroke{stroke:red;}.poloto2stroke{stroke:green;}.poloto3stroke{stroke:gold;}.poloto4stroke{stroke:aqua;}.poloto5stroke{stroke:lime;}.poloto6stroke{stroke:orange;}.poloto7stroke{stroke:chocolate;}.poloto0fill{fill:blue;}.poloto1fill{fill:red;}.poloto2fill{fill:green;}.poloto3fill{fill:gold;}.poloto4fill{fill:aqua;}.poloto5fill{fill:lime;}.poloto6fill{fill:orange;}.poloto7fill{fill:chocolate;}</style><circle  r="1e5" class="poloto_background" /><text  class="poloto_text poloto_legend_text" x="675" y="100" >Refinance 15</text><line  class="poloto_line poloto_legend_icon poloto0stroke poloto0legend" stroke="black" x1="680" x2="730" y1="81.25" y2="81.25" /><path  class="poloto_line poloto0stroke" fill="none" stroke="black" d=" M 150.00 392.46 L 151.74 400.00 L 156.94 389.32 L 158.68 380.17 L 160.42 389.32 L 160.42 389.32 L 163.89 358.81 L 169.10 357.20 L 170.83 367.88 L 172.57 344.83 L 174.31 346.44 L 176.04 341.61 L 181.25 343.22 L 182.99 336.78 L 182.99 336.78 L 186.46 337.37 L 188.19 314.32 L 193.40 324.32 L 195.14 327.54 L 196.88 327.54 L 198.61 326.69 L 200.35 321.78 L 207.29 278.73 L 209.03 297.88 L 210.76 283.05 L 212.50 277.29 L 212.50 277.29 L 219.44 299.58 L 222.92 303.64 L 224.65 294.58 L 229.86 283.81 L 231.60 305.25 L 233.33 294.58 L 233.33 294.58 L 236.81 292.88 L 242.01 296.19 L 243.75 306.86 L 243.75 306.86 L 245.49 297.80 L 247.22 308.56 L 248.96 292.88 L 254.17 325.08 L 255.90 324.32 L 257.64 306.86 L 257.64 306.86 L 259.38 314.32 L 261.11 317.63 L 266.32 317.63 L 268.06 329.15 L 269.79 329.15 L 271.53 329.15 L 273.26 329.15 L 280.21 317.63 L 281.94 314.32 L 283.68 315.93 L 285.42 315.93 L 285.42 315.93 L 292.36 305.25 L 294.10 305.25 L 295.83 296.19 L 302.78 281.36 L 304.51 250.76 L 306.25 254.15 L 307.99 254.15 L 309.72 275.59 L 314.93 254.15 L 316.67 254.15 L 318.40 273.90 L 320.14 277.29 L 327.08 277.29 L 328.82 275.59 L 330.56 280.59 L 332.29 285.51 L 334.03 296.19 L 340.97 303.64 L 342.71 294.58 L 344.44 287.12 L 346.18 283.81 L 351.39 285.51 L 354.86 285.51 L 356.60 283.81 L 363.54 282.20 L 363.54 282.20 L 363.54 282.20 L 363.54 282.20 L 363.54 282.20 L 363.54 282.20 L 367.01 282.20 L 367.01 282.20 L 367.01 282.20 L 367.01 282.20 L 367.01 282.20 L 367.01 282.20 L 375.69 294.58 L 379.17 297.80 L 380.90 325.93 L 382.64 329.15 L 387.85 329.15 L 389.58 327.54 L 391.32 305.25 L 393.06 299.49 L 394.79 285.51 L 400.00 296.19 L 400.00 296.19 L 401.74 287.12 L 405.21 296.19 L 405.21 296.19 L 413.89 296.19 L 415.62 262.46 L 417.36 282.20 L 424.31 248.39 L 427.78 248.39 L 427.78 248.39 L 431.25 260.76 L 438.19 254.15 L 438.19 254.15 L 438.19 254.15 L 438.19 254.15 L 438.19 254.15 L 438.19 254.15 L 438.19 254.15 L 438.19 254.15 L 438.19 254.15 L 443.40 254.15 L 453.82 232.63 L 460.76 235.17 L 460.76 235.17 L 465.97 235.17 L 472.92 235.17 L 474.65 235.17 L 474.65 235.17 L 474.65 235.17 L 474.65 235.17 L 474.65 235.17 L 497.22 235.17 L 498.96 235.17 L 509.38 139.75 L 511.11 130.68 L 512.85 130.68 L 575.35 159.15 L 582.29 159.15 L 584.03 159.15 L 585.76 175.51 L 589.24 184.49 L 589.24 184.49 L 596.18 184.49 L 597.92 184.49 L 599.65 184.49 L 601.39 184.49 L 606.60 184.49 L 608.33 184.49 L 611.81 184.49 L 613.54 184.49 L 618.75 184.49 L 620.49 184.49 L 620.49 184.49 L 625.69 184.49 L 630.90 184.49 L 632.64 184.49 L 634.38 184.49 L 636.11 184.49 L 637.85 184.49 L 644.79 209.15 L 646.53 180.68 L 648.26 159.15 L 650.00 169.92" /><text  class="poloto_text poloto_legend_text" x="675" y="150" >Refinance 20</text><line  class="poloto_line poloto_legend_icon poloto1stroke poloto1legend" stroke="black" x1="680" x2="730" y1="131.25" y2="131.25" /><path  class="poloto_line poloto1stroke" fill="none" stroke="black" d=" M 150.00 345.68 L 151.74 368.31 L 156.94 334.58 L 158.68 324.24 L 160.42 333.73 L 160.42 333.73 L 163.89 304.07 L 169.10 301.53 L 170.83 312.29 L 172.57 300.25 L 174.31 311.02 L 176.04 290.85 L 181.25 321.69 L 182.99 290.85 L 182.99 290.85 L 186.46 290.85 L 186.46 290.85 L 193.40 250.17 L 195.14 282.71 L 196.88 290.85 L 198.61 301.53 L 200.35 280.59 L 207.29 260.00 L 209.03 257.37 L 210.76 252.12 L 212.50 240.08 L 217.71 245.34 L 219.44 268.14 L 222.92 260.00 L 224.65 257.37 L 229.86 248.81 L 231.60 258.73 L 233.33 258.73 L 233.33 258.73 L 236.81 258.73 L 242.01 260.00 L 243.75 281.44 L 243.75 281.44 L 245.49 269.41 L 247.22 289.58 L 248.96 281.44 L 254.17 282.71 L 255.90 281.44 L 257.64 281.44 L 257.64 281.44 L 259.38 282.71 L 261.11 289.58 L 266.32 290.85 L 268.06 294.66 L 269.79 294.66 L 271.53 294.66 L 273.26 294.66 L 280.21 289.58 L 281.94 278.81 L 283.68 281.44 L 285.42 281.44 L 285.42 281.44 L 292.36 268.14 L 294.10 270.68 L 295.83 261.27 L 302.78 215.85 L 304.51 197.03 L 306.25 207.80 L 307.99 215.85 L 309.72 238.56 L 314.93 225.17 L 316.67 218.47 L 318.40 239.92 L 320.14 250.17 L 327.08 250.17 L 328.82 238.56 L 330.56 249.32 L 332.29 260.00 L 334.03 272.03 L 340.97 280.08 L 342.71 269.41 L 344.44 258.73 L 346.18 251.44 L 351.39 257.37 L 354.86 260.00 L 356.60 258.73 L 363.54 260.00 L 363.54 260.00 L 363.54 260.00 L 363.54 260.00 L 363.54 260.00 L 363.54 260.00 L 363.54 260.00 L 363.54 260.00 L 363.54 260.00 L 363.54 260.00 L 363.54 260.00 L 363.54 260.00 L 375.69 280.08 L 379.17 282.71 L 380.90 301.53 L 382.64 304.07 L 387.85 301.27 L 389.58 301.27 L 391.32 290.85 L 393.06 294.66 L 394.79 278.81 L 400.00 270.68 L 400.00 270.68 L 401.74 270.68 L 405.21 281.44 L 405.21 281.44 L 413.89 278.81 L 415.62 260.00 L 417.36 260.00 L 424.31 246.19 L 427.78 234.58 L 427.78 234.58 L 431.25 247.54 L 438.19 215.85 L 438.19 215.85 L 438.19 215.85 L 438.19 215.85 L 438.19 215.85 L 438.19 215.85 L 438.19 215.85 L 438.19 215.85 L 438.19 215.85 L 443.40 215.85 L 453.82 202.37 L 460.76 203.73 L 464.24 203.73 L 465.97 203.73 L 465.97 203.73 L 474.65 203.73 L 476.39 203.73 L 476.39 203.73 L 476.39 203.73 L 476.39 203.73 L 497.22 203.73 L 498.96 203.73 L 509.38 118.81 L 511.11 102.97 L 511.11 102.97 L 578.82 155.34 L 582.29 155.34 L 584.03 155.34 L 587.50 174.15 L 589.24 175.51 L 589.24 175.51 L 596.18 175.51 L 597.92 175.51 L 599.65 175.51 L 601.39 175.51 L 606.60 175.51 L 608.33 175.51 L 611.81 175.51 L 613.54 175.51 L 618.75 175.51 L 620.49 175.51 L 620.49 175.51 L 625.69 175.51 L 630.90 175.51 L 632.64 175.51 L 634.38 175.51 L 636.11 175.51 L 637.85 175.51 L 644.79 156.36 L 646.53 145.93 L 648.26 144.58 L 650.00 147.37" /><text  class="poloto_text poloto_legend_text" x="675" y="200" >Refinance 30</text><line  class="poloto_line poloto_legend_icon poloto2stroke poloto2legend" stroke="black" x1="680" x2="730" y1="181.25" y2="181.25" /><path  class="poloto_line poloto2stroke" fill="none" stroke="black" d=" M 150.00 343.31 L 151.74 351.36 L 156.94 338.81 L 158.68 328.98 L 160.42 330.85 L 160.42 330.85 L 163.89 310.25 L 169.10 308.47 L 170.83 319.15 L 172.57 307.54 L 174.31 318.22 L 176.04 297.71 L 181.25 307.54 L 182.99 286.95 L 184.72 286.95 L 186.46 286.02 L 188.19 260.00 L 193.40 264.58 L 195.14 276.27 L 196.88 286.95 L 198.61 277.20 L 200.35 265.51 L 207.29 256.61 L 209.03 242.12 L 210.76 240.17 L 212.50 238.14 L 217.71 242.12 L 219.44 258.73 L 222.92 256.61 L 224.65 254.66 L 229.86 244.07 L 231.60 255.59 L 233.33 244.07 L 233.33 244.07 L 236.81 244.07 L 242.01 246.02 L 243.75 264.58 L 243.75 264.58 L 245.49 255.59 L 247.22 256.61 L 248.96 257.54 L 254.17 265.51 L 255.90 256.61 L 257.64 256.61 L 257.64 256.61 L 259.38 266.44 L 261.11 267.46 L 266.32 268.39 L 268.06 277.20 L 269.79 277.20 L 271.53 279.07 L 273.26 279.07 L 280.21 275.25 L 281.94 264.58 L 283.68 266.44 L 285.42 265.51 L 285.42 265.51 L 292.36 255.59 L 294.10 255.59 L 295.83 245.00 L 302.78 202.12 L 304.51 171.78 L 306.25 190.34 L 307.99 202.12 L 309.72 212.80 L 314.93 203.05 L 316.67 202.12 L 318.40 221.61 L 320.14 223.56 L 327.08 223.56 L 328.82 211.86 L 330.56 221.61 L 332.29 232.29 L 334.03 255.59 L 340.97 256.61 L 342.71 245.00 L 344.44 224.58 L 346.18 221.61 L 351.39 241.10 L 354.86 223.56 L 356.60 222.54 L 363.54 242.12 L 363.54 242.12 L 363.54 242.12 L 363.54 242.12 L 363.54 242.12 L 363.54 242.12 L 367.01 242.12 L 367.01 242.12 L 367.01 242.12 L 367.01 242.12 L 367.01 242.12 L 367.01 242.12 L 375.69 254.66 L 379.17 256.61 L 380.90 275.25 L 382.64 287.88 L 387.85 286.95 L 389.58 286.95 L 391.32 265.51 L 393.06 268.39 L 394.79 254.66 L 400.00 265.51 L 400.00 265.51 L 401.74 257.54 L 405.21 266.44 L 405.21 266.44 L 413.89 264.58 L 415.62 246.02 L 417.36 245.00 L 424.31 220.59 L 427.78 211.86 L 427.78 211.86 L 431.25 222.54 L 438.19 210.85 L 438.19 210.85 L 438.19 210.85 L 438.19 210.85 L 438.19 210.85 L 438.19 210.85 L 438.19 210.85 L 438.19 210.85 L 443.40 210.85 L 443.40 209.83 L 453.82 197.03 L 460.76 175.51 L 460.76 175.51 L 465.97 175.51 L 465.97 175.51 L 474.65 175.51 L 476.39 175.51 L 476.39 175.51 L 476.39 175.51 L 476.39 175.51 L 497.22 175.51 L 498.96 175.51 L 509.38 127.03 L 511.11 100.00 L 511.11 100.00 L 578.82 146.44 L 582.29 146.44 L 584.03 146.44 L 585.76 150.76 L 589.24 160.59 L 589.24 160.59 L 596.18 160.59 L 597.92 160.59 L 599.65 160.59 L 601.39 160.59 L 606.60 160.59 L 608.33 160.59 L 611.81 160.59 L 613.54 160.59 L 618.75 160.59 L 620.49 160.59 L 620.49 160.59 L 625.69 160.59 L 630.90 160.59 L 632.64 160.59 L 634.38 160.59 L 636.11 160.59 L 637.85 160.59 L 644.79 144.24 L 646.53 152.88 L 648.26 132.37 L 650.00 152.88" /><text  class="poloto_labels poloto_text poloto_title" x="400" y="37.5" >lower.com purchase rates</text><text  class="poloto_labels poloto_text poloto_xname" x="400" y="481.25" >Date</text><text  class="poloto_labels poloto_text poloto_yname" transform="rotate(-90,37.5,250)" x="37.5" y="250" >Rate (%)</text><text  class="poloto_tick_labels poloto_text" dominant-baseline="middle" text-anchor="start" x="150" y="70" ></text><line  class="poloto_axis_lines" stroke="black" x1="150" x2="144" y1="390.2542372881356" y2="390.2542372881356" /><line  class="poloto_tick_line" stroke="black" x1="150" x2="650" y1="390.2542372881356" y2="390.2542372881356" /><text  class="poloto_tick_labels poloto_text" dominant-baseline="middle" text-anchor="end" x="135" y="390.2542372881356" >3.625</text><line  class="poloto_axis_lines" stroke="black" x1="150" x2="144" y1="379.66101694915255" y2="379.66101694915255" /><line  class="poloto_tick_line" stroke="black" x1="150" x2="650" y1="379.66101694915255" y2="379.66101694915255" /><text  class="poloto_tick_labels poloto_text" dominant-baseline="middle" text-anchor="end" x="135" y="379.66101694915255" >3.75</text><line  class="poloto_axis_lines" stroke="black" x1="150" x2="144" y1="369.06779661016947" y2="369.06779661016947" /><line  class="poloto_tick_line" stroke="black" x1="150" x2="650" y1="369.06779661016947" y2="369.06779661016947" /><text  class="poloto_tick_labels poloto_text" dominant-baseline="middle" text-anchor="end" x="135" y="369.06779661016947" >3.875</text><line  class="poloto_axis_lines" stroke="black" x1="150" x2="144" y1="358.47457627118644" y2="358.47457627118644" /><line  class="poloto_tick_line" stroke="black" x1="150" x2="650" y1="358.47457627118644" y2="358.47457627118644" /><text  class="poloto_tick_labels poloto_text" dominant-baseline="middle" text-anchor="end" x="135" y="358.47457627118644" >4</text><line  class="poloto_axis_lines" stroke="black" x1="150" x2="144" y1="347.8813559322034" y2="347.8813559322034" /><line  class="poloto_tick_line" stroke="black" x1="150" x2="650" y1="347.8813559322034" y2="347.8813559322034" /><text  class="poloto_tick_labels poloto_text" dominant-baseline="middle" text-anchor="end" x="135" y="347.8813559322034" >4.125</text><line  class="poloto_axis_lines" stroke="black" x1="150" x2="144" y1="337.2881355932203" y2="337.2881355932203" /><line  class="poloto_tick_line" stroke="black" x1="150" x2="650" y1="337.2881355932203" y2="337.2881355932203" /><text  class="poloto_tick_labels poloto_text" dominant-baseline="middle" text-anchor="end" x="135" y="337.2881355932203" >4.25</text><line  class="poloto_axis_lines" stroke="black" x1="150" x2="144" y1="326.6949152542373" y2="326.6949152542373" /><line  class="poloto_tick_line" stroke="black" x1="150" x2="650" y1="326.6949152542373" y2="326.6949152542373" /><text  class="poloto_tick_labels poloto_text" dominant-baseline="middle" text-anchor="end" x="135" y="326.6949152542373" >4.375</text><line  class="poloto_axis_lines" stroke="black" x1="150" x2="144" y1="316.10169491525426" y2="316.10169491525426" /><line  class="poloto_tick_line" stroke="black" x1="150" x2="650" y1="316.10169491525426" y2="316.10169491525426" /><text  class="poloto_tick_labels poloto_text" dominant-baseline="middle" text-anchor="end" x="135" y="316.10169491525426" >4.5</text><line  class="poloto_axis_lines" stroke="black" x1="150" x2="144" y1="305.50847457627117" y2="305.50847457627117" /><line  class="poloto_tick_line" stroke="black" x1="150" x2="650" y1="305.50847457627117" y2="305.50847457627117" /><text  class="poloto_tick_labels poloto_text" dominant-baseline="middle" text-anchor="end" x="135" y="305.50847457627117" >4.625</text><line  class="poloto_axis_lines" stroke="black" x1="150" x2="144" y1="294.91525423728814" y2="294.91525423728814" /><line  class="poloto_tick_line" stroke="black" x1="150" x2="650" y1="294.91525423728814" y2="294.91525423728814" /><text  class="poloto_tick_labels poloto_text" dominant-baseline="middle" text-anchor="end" x="135" y="294.91525423728814" >4.75</text><line  class="poloto_axis_lines" stroke="black" x1="150" x2="144" y1="284.3220338983051" y2="284.3220338983051" /><line  class="poloto_tick_line" stroke="black" x1="150" x2="650" y1="284.3220338983051" y2="284.3220338983051" /><text  class="poloto_tick_labels poloto_text" dominant-baseline="middle" text-anchor="end" x="135" y="284.3220338983051" >4.875</text><line  class="poloto_axis_lines" stroke="black" x1="150" x2="144" y1="273.728813559322" y2="273.728813559322" /><line  class="poloto_tick_line" stroke="black" x1="150" x2="650" y1="273.728813559322" y2="273.728813559322" /><text  class="poloto_tick_labels poloto_text" dominant-baseline="middle" text-anchor="end" x="135" y="273.728813559322" >5</text><line  class="poloto_axis_lines" stroke="black" x1="150" x2="144" y1="263.135593220339" y2="263.135593220339" /><line  class="poloto_tick_line" stroke="black" x1="150" x2="650" y1="263.135593220339" y2="263.135593220339" /><text  class="poloto_tick_labels poloto_text" dominant-baseline="middle" text-anchor="end" x="135" y="263.135593220339" >5.125</text><line  class="poloto_axis_lines" stroke="black" x1="150" x2="144" y1="252.54237288135596" y2="252.54237288135596" /><line  class="poloto_tick_line" stroke="black" x1="150" x2="650" y1="252.54237288135596" y2="252.54237288135596" /><text  class="poloto_tick_labels poloto_text" dominant-baseline="middle" text-anchor="end" x="135" y="252.54237288135596" >5.25</text><line  class="poloto_axis_lines" stroke="black" x1="150" x2="144" y1="241.94915254237287" y2="241.94915254237287" /><line  class="poloto_tick_line" stroke="black" x1="150" x2="650" y1="241.94915254237287" y2="241.94915254237287" /><text  class="poloto_tick_labels poloto_text" dominant-baseline="middle" text-anchor="end" x="135" y="241.94915254237287" >5.375</text><line  class="poloto_axis_lines" stroke="black" x1="150" x2="144" y1="231.35593220338984" y2="231.35593220338984" /><line  class="poloto_tick_line" stroke="black" x1="150" x2="650" y1="231.35593220338984" y2="231.35593220338984" /><text  class="poloto_tick_labels poloto_text" dominant-baseline="middle" text-anchor="end" x="135" y="231.35593220338984" >5.5</text><line  class="poloto_axis_lines" stroke="black" x1="150" x2="144" y1="220.7627118644068" y2="220.7627118644068" /><line  class="poloto_tick_line" stroke="black" x1="150" x2="650" y1="220.7627118644068" y2="220.7627118644068" /><text  class="poloto_tick_labels poloto_text" dominant-baseline="middle" text-anchor="end" x="135" y="220.7627118644068" >5.625</text><line  class="poloto_axis_lines" stroke="black" x1="150" x2="144" y1="210.16949152542372" y2="210.16949152542372" /><line  class="poloto_tick_line" stroke="black" x1="150" x2="650" y1="210.16949152542372" y2="210.16949152542372" /><text  class="poloto_tick_labels poloto_text" dominant-baseline="middle" text-anchor="end" x="135" y="210.16949152542372" >5.75</text><line  class="poloto_axis_lines" stroke="black" x1="150" x2="144" y1="199.5762711864407" y2="199.5762711864407" /><line  class="poloto_tick_line" stroke="black" x1="150" x2="650" y1="199.5762711864407" y2="199.5762711864407" /><text  class="poloto_tick_labels poloto_text" dominant-baseline="middle" text-anchor="end" x="135" y="199.5762711864407" >5.875</text><line  class="poloto_axis_lines" stroke="black" x1="150" x2="144" y1="188.98305084745766" y2="188.98305084745766" /><line  class="poloto_tick_line" stroke="black" x1="150" x2="650" y1="188.98305084745766" y2="188.98305084745766" /><text  class="poloto_tick_labels poloto_text" dominant-baseline="middle" text-anchor="end" x="135" y="188.98305084745766" >6</text><line  class="poloto_axis_lines" stroke="black" x1="150" x2="144" y1="178.38983050847457" y2="178.38983050847457" /><line  class="poloto_tick_line" stroke="black" x1="150" x2="650" y1="178.38983050847457" y2="178.38983050847457" /><text  class="poloto_tick_labels poloto_text" dominant-baseline="middle" text-anchor="end" x="135" y="178.38983050847457" >6.125</text><line  class="poloto_axis_lines" stroke="black" x1="150" x2="144" y1="167.7966101694915" y2="167.7966101694915" /><line  class="poloto_tick_line" stroke="black" x1="150" x2="650" y1="167.7966101694915" y2="167.7966101694915" /><text  class="poloto_tick_labels poloto_text" dominant-baseline="middle" text-anchor="end" x="135" y="167.7966101694915" >6.25</text><line  class="poloto_axis_lines" stroke="black" x1="150" x2="144" y1="157.2033898305085" y2="157.2033898305085" /><line  class="poloto_tick_line" stroke="black" x1="150" x2="650" y1="157.2033898305085" y2="157.2033898305085" /><text  class="poloto_tick_labels poloto_text" dominant-baseline="middle" text-anchor="end" x="135" y="157.2033898305085" >6.375</text><line  class="poloto_axis_lines" stroke="black" x1="150" x2="144" y1="146.61016949152543" y2="146.61016949152543" /><line  class="poloto_tick_line" stroke="black" x1="150" x2="650" y1="146.61016949152543" y2="146.61016949152543" /><text  class="poloto_tick_labels poloto_text" dominant-baseline="middle" text-anchor="end" x="135" y="146.61016949152543" >6.5</text><line  class="poloto_axis_lines" stroke="black" x1="150" x2="144" y1="136.01694915254234" y2="136.01694915254234" /><line  class="poloto_tick_line" stroke="black" x1="150" x2="650" y1="136.01694915254234" y2="136.01694915254234" /><text  class="poloto_tick_labels poloto_text" dominant-baseline="middle" text-anchor="end" x="135" y="136.01694915254234" >6.625</text><line  class="poloto_axis_lines" stroke="black" x1="150" x2="144" y1="125.42372881355936" y2="125.42372881355936" /><line  class="poloto_tick_line" stroke="black" x1="150" x2="650" y1="125.42372881355936" y2="125.42372881355936" /><text  class="poloto_tick_labels poloto_text" dominant-baseline="middle" text-anchor="end" x="135" y="125.42372881355936" >6.75</text><line  class="poloto_axis_lines" stroke="black" x1="150" x2="144" y1="114.83050847457628" y2="114.83050847457628" /><line  class="poloto_tick_line" stroke="black" x1="150" x2="650" y1="114.83050847457628" y2="114.83050847457628" /><text  class="poloto_tick_labels poloto_text" dominant-baseline="middle" text-anchor="end" x="135" y="114.83050847457628" >6.875</text><line  class="poloto_axis_lines" stroke="black" x1="150" x2="144" y1="104.23728813559319" y2="104.23728813559319" /><line  class="poloto_tick_line" stroke="black" x1="150" x2="650" y1="104.23728813559319" y2="104.23728813559319" /><text  class="poloto_tick_labels poloto_text" dominant-baseline="middle" text-anchor="end" x="135" y="104.23728813559319" >7</text><text  class="poloto_tick_labels poloto_text" dominant-baseline="middle" text-anchor="start" x="440.00000000000006" y="70" >¹2022-05-01 00:00:00 UTC in Months</text><line  class="poloto_axis_lines" stroke="black" x1="228.125" x2="228.125" y1="400" y2="405" /><line  class="poloto_tick_line" stroke="black" x1="228.125" x2="228.125" y1="400" y2="100" /><text  class="poloto_tick_labels poloto_text" dominant-baseline="start" text-anchor="middle" x="228.125" y="430" >2022 May¹</text><line  class="poloto_axis_lines" stroke="black" x1="334.027777777781" x2="334.027777777781" y1="400" y2="405" /><line  class="poloto_tick_line" stroke="black" x1="334.027777777781" x2="334.027777777781" y1="400" y2="100" /><text  class="poloto_tick_labels poloto_text" dominant-baseline="start" text-anchor="middle" x="334.027777777781" y="430" >2022 Jul</text><line  class="poloto_axis_lines" stroke="black" x1="441.6666666666715" x2="441.6666666666715" y1="400" y2="405" /><line  class="poloto_tick_line" stroke="black" x1="441.6666666666715" x2="441.6666666666715" y1="400" y2="100" /><text  class="poloto_tick_labels poloto_text" dominant-baseline="start" text-anchor="middle" x="441.6666666666715" y="430" >2022 Sep</text><line  class="poloto_axis_lines" stroke="black" x1="547.5694444444453" x2="547.5694444444453" y1="400" y2="405" /><line  class="poloto_tick_line" stroke="black" x1="547.5694444444453" x2="547.5694444444453" y1="400" y2="100" /><text  class="poloto_tick_labels poloto_text" dominant-baseline="start" text-anchor="middle" x="547.5694444444453" y="430" >2022 Nov</text><path  stroke="black" fill="none" class="poloto_axis_lines" d=" M 150 400 L 650 400" /><path  stroke="black" fill="none" class="poloto_axis_lines" d=" M 150 400 L 150 100" /></svg>