<svg class="poloto" width="800" height="500" viewBox="0 0 800 500" xmlns="http://www.w3.org/2000/svg"><style>.poloto{stroke-linecap:round;stroke-linejoin:round;font-family:Roboto,sans-serif;font-size:16px;}.poloto_background{fill:#262626;}.poloto_scatter{stroke-width:7}.poloto_tick_line{stroke:dimgray;stroke-width:0.5}.poloto_line{stroke-width:2}.poloto_text{fill: white;}.poloto_axis_lines{stroke: white;stroke-width:3;fill:none;stroke-dasharray:none}.poloto_title{font-size:24px;dominant-baseline:start;text-anchor:middle;}.poloto_xname{font-size:24px;dominant-baseline:start;text-anchor:middle;}.poloto_yname{font-size:24px;dominant-baseline:start;text-anchor:middle;}.poloto0stroke{stroke:blue;}.poloto1stroke{stroke:red;}.poloto2stroke{stroke:green;}.poloto3stroke{stroke:gold;}.poloto4stroke{stroke:aqua;}.poloto5stroke{stroke:lime;}.poloto6stroke{stroke:orange;}.poloto7stroke{stroke:chocolate;}.poloto0fill{fill:blue;}.poloto1fill{fill:red;}.poloto2fill{fill:green;}.poloto3fill{fill:gold;}.poloto4fill{fill:aqua;}.poloto5fill{fill:lime;}.poloto6fill{fill:orange;}.poloto7fill{fill:chocolate;}</style><circle  r="1e5" class="poloto_background" /><text  class="poloto_text poloto_legend_text" x="675" y="100" >Refinance 30</text><line  class="poloto_line poloto_legend_icon poloto0stroke poloto0legend" stroke="black" x1="680" x2="730" y1="81.25" y2="81.25" /><path  class="poloto_line poloto0stroke" fill="none" stroke="black" d=" M 150.00 386.55 L 152.96 400.00 L 161.83 379.05 L 164.79 362.62 L 167.75 365.74 L 167.75 365.74 L 173.67 331.34 L 182.54 328.36 L 185.50 346.20 L 188.46 326.81 L 191.42 344.64 L 194.38 310.38 L 203.25 326.81 L 206.21 292.40 L 209.17 292.40 L 212.13 290.84 L 215.09 247.38 L 223.96 255.03 L 226.92 274.56 L 229.88 292.40 L 232.84 276.12 L 235.80 256.58 L 247.63 241.72 L 250.59 217.51 L 253.55 214.25 L 256.51 210.85 L 265.38 217.51 L 268.34 245.26 L 274.26 241.72 L 277.22 238.46 L 286.09 220.76 L 289.05 240.02 L 292.01 220.76 L 292.01 220.76 L 297.93 220.76 L 306.80 224.02 L 309.76 255.03 L 309.76 255.03 L 312.72 240.02 L 315.68 241.72 L 318.64 243.28 L 327.51 256.58 L 330.47 241.72 L 333.43 241.72 L 333.43 241.72 L 336.39 258.14 L 339.35 259.84 L 348.22 261.40 L 351.18 276.12 L 354.14 276.12 L 357.10 279.24 L 360.06 279.24 L 371.89 272.86 L 374.85 255.03 L 377.81 258.14 L 380.77 256.58 L 380.77 256.58 L 392.60 240.02 L 395.56 240.02 L 398.52 222.32 L 410.36 150.68 L 413.31 100.00 L 416.27 131.01 L 419.23 150.68 L 422.19 168.52 L 431.07 152.24 L 434.02 150.68 L 436.98 183.25 L 439.94 186.50 L 451.78 186.50 L 454.73 166.97 L 457.69 183.25 L 460.65 201.09 L 463.61 240.02 L 475.44 241.72 L 478.40 222.32 L 481.36 188.20 L 484.32 183.25 L 493.20 215.81 L 499.11 186.50 L 502.07 184.80 L 513.91 217.51 L 513.91 217.51 L 513.91 217.51 L 513.91 217.51 L 513.91 217.51 L 513.91 217.51 L 519.82 217.51 L 519.82 217.51 L 519.82 217.51 L 519.82 217.51 L 519.82 217.51 L 519.82 217.51 L 534.62 238.46 L 540.53 241.72 L 543.49 272.86 L 546.45 293.96 L 555.33 292.40 L 558.28 292.40 L 561.24 256.58 L 564.20 261.40 L 567.16 238.46 L 576.04 256.58 L 576.04 256.58 L 578.99 243.28 L 584.91 258.14 L 584.91 258.14 L 599.70 255.03 L 602.66 224.02 L 605.62 222.32 L 617.46 181.55 L 623.37 166.97 L 623.37 166.97 L 629.29 184.80 L 641.12 165.27 L 641.12 165.27 L 641.12 165.27 L 641.12 165.27 L 641.12 165.27 L 641.12 165.27 L 641.12 165.27 L 641.12 165.27 L 650.00 165.27 L 650.00 163.57" /><text  class="poloto_labels poloto_text poloto_title" x="400" y="37.5" >lower.com purchase rates</text><text  class="poloto_labels poloto_text poloto_xname" x="400" y="481.25" >Date</text><text  class="poloto_labels poloto_text poloto_yname" transform="rotate(-90,37.5,250)" x="37.5" y="250" >Rate (%)</text><text  class="poloto_tick_labels poloto_text" dominant-baseline="middle" text-anchor="start" x="150" y="70" ></text><line  class="poloto_axis_lines" stroke="black" x1="150" x2="144" y1="394.1953751769702" y2="394.1953751769702" /><line  class="poloto_tick_line" stroke="black" x1="150" x2="650" y1="394.1953751769702" y2="394.1953751769702" /><text  class="poloto_tick_labels poloto_text" dominant-baseline="middle" text-anchor="end" x="135" y="394.1953751769702" >4.125</text><line  class="poloto_axis_lines" stroke="black" x1="150" x2="144" y1="376.4983482774893" y2="376.4983482774893" /><line  class="poloto_tick_line" stroke="black" x1="150" x2="650" y1="376.4983482774893" y2="376.4983482774893" /><text  class="poloto_tick_labels poloto_text" dominant-baseline="middle" text-anchor="end" x="135" y="376.4983482774893" >4.25</text><line  class="poloto_axis_lines" stroke="black" x1="150" x2="144" y1="358.8013213780084" y2="358.8013213780084" /><line  class="poloto_tick_line" stroke="black" x1="150" x2="650" y1="358.8013213780084" y2="358.8013213780084" /><text  class="poloto_tick_labels poloto_text" dominant-baseline="middle" text-anchor="end" x="135" y="358.8013213780084" >4.375</text><line  class="poloto_axis_lines" stroke="black" x1="150" x2="144" y1="341.10429447852755" y2="341.10429447852755" /><line  class="poloto_tick_line" stroke="black" x1="150" x2="650" y1="341.10429447852755" y2="341.10429447852755" /><text  class="poloto_tick_labels poloto_text" dominant-baseline="middle" text-anchor="end" x="135" y="341.10429447852755" >4.5</text><line  class="poloto_axis_lines" stroke="black" x1="150" x2="144" y1="323.4072675790467" y2="323.4072675790467" /><line  class="poloto_tick_line" stroke="black" x1="150" x2="650" y1="323.4072675790467" y2="323.4072675790467" /><text  class="poloto_tick_labels poloto_text" dominant-baseline="middle" text-anchor="end" x="135" y="323.4072675790467" >4.625</text><line  class="poloto_axis_lines" stroke="black" x1="150" x2="144" y1="305.7102406795658" y2="305.7102406795658" /><line  class="poloto_tick_line" stroke="black" x1="150" x2="650" y1="305.7102406795658" y2="305.7102406795658" /><text  class="poloto_tick_labels poloto_text" dominant-baseline="middle" text-anchor="end" x="135" y="305.7102406795658" >4.75</text><line  class="poloto_axis_lines" stroke="black" x1="150" x2="144" y1="288.0132137800849" y2="288.0132137800849" /><line  class="poloto_tick_line" stroke="black" x1="150" x2="650" y1="288.0132137800849" y2="288.0132137800849" /><text  class="poloto_tick_labels poloto_text" dominant-baseline="middle" text-anchor="end" x="135" y="288.0132137800849" >4.875</text><line  class="poloto_axis_lines" stroke="black" x1="150" x2="144" y1="270.31618688060405" y2="270.31618688060405" /><line  class="poloto_tick_line" stroke="black" x1="150" x2="650" y1="270.31618688060405" y2="270.31618688060405" /><text  class="poloto_tick_labels poloto_text" dominant-baseline="middle" text-anchor="end" x="135" y="270.31618688060405" >5</text><line  class="poloto_axis_lines" stroke="black" x1="150" x2="144" y1="252.61915998112306" y2="252.61915998112306" /><line  class="poloto_tick_line" stroke="black" x1="150" x2="650" y1="252.61915998112306" y2="252.61915998112306" /><text  class="poloto_tick_labels poloto_text" dominant-baseline="middle" text-anchor="end" x="135" y="252.61915998112306" >5.125</text><line  class="poloto_axis_lines" stroke="black" x1="150" x2="144" y1="234.9221330816422" y2="234.9221330816422" /><line  class="poloto_tick_line" stroke="black" x1="150" x2="650" y1="234.9221330816422" y2="234.9221330816422" /><text  class="poloto_tick_labels poloto_text" dominant-baseline="middle" text-anchor="end" x="135" y="234.9221330816422" >5.25</text><line  class="poloto_axis_lines" stroke="black" x1="150" x2="144" y1="217.2251061821613" y2="217.2251061821613" /><line  class="poloto_tick_line" stroke="black" x1="150" x2="650" y1="217.2251061821613" y2="217.2251061821613" /><text  class="poloto_tick_labels poloto_text" dominant-baseline="middle" text-anchor="end" x="135" y="217.2251061821613" >5.375</text><line  class="poloto_axis_lines" stroke="black" x1="150" x2="144" y1="199.52807928268044" y2="199.52807928268044" /><line  class="poloto_tick_line" stroke="black" x1="150" x2="650" y1="199.52807928268044" y2="199.52807928268044" /><text  class="poloto_tick_labels poloto_text" dominant-baseline="middle" text-anchor="end" x="135" y="199.52807928268044" >5.5</text><line  class="poloto_axis_lines" stroke="black" x1="150" x2="144" y1="181.83105238319956" y2="181.83105238319956" /><line  class="poloto_tick_line" stroke="black" x1="150" x2="650" y1="181.83105238319956" y2="181.83105238319956" /><text  class="poloto_tick_labels poloto_text" dominant-baseline="middle" text-anchor="end" x="135" y="181.83105238319956" >5.625</text><line  class="poloto_axis_lines" stroke="black" x1="150" x2="144" y1="164.1340254837187" y2="164.1340254837187" /><line  class="poloto_tick_line" stroke="black" x1="150" x2="650" y1="164.1340254837187" y2="164.1340254837187" /><text  class="poloto_tick_labels poloto_text" dominant-baseline="middle" text-anchor="end" x="135" y="164.1340254837187" >5.75</text><line  class="poloto_axis_lines" stroke="black" x1="150" x2="144" y1="146.4369985842378" y2="146.4369985842378" /><line  class="poloto_tick_line" stroke="black" x1="150" x2="650" y1="146.4369985842378" y2="146.4369985842378" /><text  class="poloto_tick_labels poloto_text" dominant-baseline="middle" text-anchor="end" x="135" y="146.4369985842378" >5.875</text><line  class="poloto_axis_lines" stroke="black" x1="150" x2="144" y1="128.73997168475694" y2="128.73997168475694" /><line  class="poloto_tick_line" stroke="black" x1="150" x2="650" y1="128.73997168475694" y2="128.73997168475694" /><text  class="poloto_tick_labels poloto_text" dominant-baseline="middle" text-anchor="end" x="135" y="128.73997168475694" >6</text><text  class="poloto_tick_labels poloto_text" dominant-baseline="middle" text-anchor="start" x="440.00000000000006" y="70" >¹2022-04-01 00:00:00 UTC in Months</text><line  class="poloto_axis_lines" stroke="black" x1="194.37869822484936" x2="194.37869822484936" y1="400" y2="405" /><line  class="poloto_tick_line" stroke="black" x1="194.37869822484936" x2="194.37869822484936" y1="400" y2="100" /><text  class="poloto_tick_labels poloto_text" dominant-baseline="start" text-anchor="middle" x="194.37869822484936" y="430" >2022 Apr¹</text><line  class="poloto_axis_lines" stroke="black" x1="283.13609467455535" x2="283.13609467455535" y1="400" y2="405" /><line  class="poloto_tick_line" stroke="black" x1="283.13609467455535" x2="283.13609467455535" y1="400" y2="100" /><text  class="poloto_tick_labels poloto_text" dominant-baseline="start" text-anchor="middle" x="283.13609467455535" y="430" >2022 May</text><line  class="poloto_axis_lines" stroke="black" x1="374.8520710059165" x2="374.8520710059165" y1="400" y2="405" /><line  class="poloto_tick_line" stroke="black" x1="374.8520710059165" x2="374.8520710059165" y1="400" y2="100" /><text  class="poloto_tick_labels poloto_text" dominant-baseline="start" text-anchor="middle" x="374.8520710059165" y="430" >2022 Jun</text><line  class="poloto_axis_lines" stroke="black" x1="463.6094674556225" x2="463.6094674556225" y1="400" y2="405" /><line  class="poloto_tick_line" stroke="black" x1="463.6094674556225" x2="463.6094674556225" y1="400" y2="100" /><text  class="poloto_tick_labels poloto_text" dominant-baseline="start" text-anchor="middle" x="463.6094674556225" y="430" >2022 Jul</text><line  class="poloto_axis_lines" stroke="black" x1="555.3254437869837" x2="555.3254437869837" y1="400" y2="405" /><line  class="poloto_tick_line" stroke="black" x1="555.3254437869837" x2="555.3254437869837" y1="400" y2="100" /><text  class="poloto_tick_labels poloto_text" dominant-baseline="start" text-anchor="middle" x="555.3254437869837" y="430" >2022 Aug</text><line  class="poloto_axis_lines" stroke="black" x1="647.0414201183448" x2="647.0414201183448" y1="400" y2="405" /><line  class="poloto_tick_line" stroke="black" x1="647.0414201183448" x2="647.0414201183448" y1="400" y2="100" /><text  class="poloto_tick_labels poloto_text" dominant-baseline="start" text-anchor="middle" x="647.0414201183448" y="430" >2022 Sep</text><path  stroke="black" fill="none" class="poloto_axis_lines" d=" M 150 400 L 650 400" /><path  stroke="black" fill="none" class="poloto_axis_lines" d=" M 150 400 L 150 100" /></svg>