<svg class="poloto" width="800" height="500" viewBox="0 0 800 500" xmlns="http://www.w3.org/2000/svg"><style>.poloto{stroke-linecap:round;stroke-linejoin:round;font-family:Roboto,sans-serif;font-size:16px;}.poloto_background{fill:#262626;}.poloto_scatter{stroke-width:7}.poloto_tick_line{stroke:dimgray;stroke-width:0.5}.poloto_line{stroke-width:2}.poloto_text{fill: white;}.poloto_axis_lines{stroke: white;stroke-width:3;fill:none;stroke-dasharray:none}.poloto_title{font-size:24px;dominant-baseline:start;text-anchor:middle;}.poloto_xname{font-size:24px;dominant-baseline:start;text-anchor:middle;}.poloto_yname{font-size:24px;dominant-baseline:start;text-anchor:middle;}.poloto0stroke{stroke:blue;}.poloto1stroke{stroke:red;}.poloto2stroke{stroke:green;}.poloto3stroke{stroke:gold;}.poloto4stroke{stroke:aqua;}.poloto5stroke{stroke:lime;}.poloto6stroke{stroke:orange;}.poloto7stroke{stroke:chocolate;}.poloto0fill{fill:blue;}.poloto1fill{fill:red;}.poloto2fill{fill:green;}.poloto3fill{fill:gold;}.poloto4fill{fill:aqua;}.poloto5fill{fill:lime;}.poloto6fill{fill:orange;}.poloto7fill{fill:chocolate;}</style><circle  r="1e5" class="poloto_background" /><text  class="poloto_text poloto_legend_text" x="675" y="100" >Refinance 15</text><line  class="poloto_line poloto_legend_icon poloto0stroke poloto0legend" stroke="black" x1="680" x2="730" y1="81.25" y2="81.25" /><path  class="poloto_line poloto0stroke" fill="none" stroke="black" d=" M 150.00 392.46 L 151.60 400.00 L 156.39 389.32 L 157.99 380.17 L 159.58 389.32 L 159.58 389.32 L 162.78 358.81 L 167.57 357.20 L 169.17 367.88 L 170.77 344.83 L 172.36 346.44 L 173.96 341.61 L 178.75 343.22 L 180.35 336.78 L 180.35 336.78 L 183.55 337.37 L 185.14 314.32 L 189.94 324.32 L 191.53 327.54 L 193.13 327.54 L 194.73 326.69 L 196.33 321.78 L 202.72 278.73 L 204.31 297.88 L 205.91 283.05 L 207.51 277.29 L 207.51 277.29 L 213.90 299.58 L 217.09 303.64 L 218.69 294.58 L 223.48 283.81 L 225.08 305.25 L 226.68 294.58 L 226.68 294.58 L 229.87 292.88 L 234.66 296.19 L 236.26 306.86 L 236.26 306.86 L 237.86 297.80 L 239.46 308.56 L 241.05 292.88 L 245.85 325.08 L 247.44 324.32 L 249.04 306.86 L 249.04 306.86 L 250.64 314.32 L 252.24 317.63 L 257.03 317.63 L 258.63 329.15 L 260.22 329.15 L 261.82 329.15 L 263.42 329.15 L 269.81 317.63 L 271.41 314.32 L 273.00 315.93 L 274.60 315.93 L 274.60 315.93 L 280.99 305.25 L 282.59 305.25 L 284.19 296.19 L 290.58 281.36 L 292.17 250.76 L 293.77 254.15 L 295.37 254.15 L 296.96 275.59 L 301.76 254.15 L 303.35 254.15 L 304.95 273.90 L 306.55 277.29 L 312.94 277.29 L 314.54 275.59 L 316.13 280.59 L 317.73 285.51 L 319.33 296.19 L 325.72 303.64 L 327.32 294.58 L 328.91 287.12 L 330.51 283.81 L 335.30 285.51 L 338.50 285.51 L 340.10 283.81 L 346.49 282.20 L 346.49 282.20 L 346.49 282.20 L 346.49 282.20 L 346.49 282.20 L 346.49 282.20 L 349.68 282.20 L 349.68 282.20 L 349.68 282.20 L 349.68 282.20 L 349.68 282.20 L 349.68 282.20 L 357.67 294.58 L 360.86 297.80 L 362.46 325.93 L 364.06 329.15 L 368.85 329.15 L 370.45 327.54 L 372.04 305.25 L 373.64 299.49 L 375.24 285.51 L 380.03 296.19 L 380.03 296.19 L 381.63 287.12 L 384.82 296.19 L 384.82 296.19 L 392.81 296.19 L 394.41 262.46 L 396.01 282.20 L 402.40 248.39 L 405.59 248.39 L 405.59 248.39 L 408.79 260.76 L 415.18 254.15 L 415.18 254.15 L 415.18 254.15 L 415.18 254.15 L 415.18 254.15 L 415.18 254.15 L 415.18 254.15 L 415.18 254.15 L 415.18 254.15 L 419.97 254.15 L 429.55 232.63 L 435.94 235.17 L 435.94 235.17 L 440.73 235.17 L 447.12 235.17 L 448.72 235.17 L 448.72 235.17 L 448.72 235.17 L 448.72 235.17 L 448.72 235.17 L 469.49 235.17 L 471.09 235.17 L 480.67 139.75 L 482.27 130.68 L 483.87 130.68 L 541.37 159.15 L 547.76 159.15 L 549.36 159.15 L 550.96 175.51 L 554.15 184.49 L 554.15 184.49 L 560.54 184.49 L 562.14 184.49 L 563.74 184.49 L 565.34 184.49 L 570.13 184.49 L 571.73 184.49 L 574.92 184.49 L 576.52 184.49 L 581.31 184.49 L 582.91 184.49 L 582.91 184.49 L 587.70 184.49 L 592.49 184.49 L 594.09 184.49 L 595.69 184.49 L 597.28 184.49 L 598.88 184.49 L 605.27 209.15 L 606.87 180.68 L 608.47 159.15 L 610.06 169.92 L 614.86 169.92 L 616.45 169.92 L 616.45 169.92 L 619.65 193.05 L 621.25 193.05 L 626.04 193.05 L 627.64 193.05 L 629.23 193.05 L 630.83 193.05 L 632.43 193.05 L 632.43 193.05 L 632.43 193.05 L 632.43 193.05 L 640.42 193.05 L 643.61 193.05 L 648.40 193.05 L 650.00 193.05" /><text  class="poloto_text poloto_legend_text" x="675" y="150" >Refinance 20</text><line  class="poloto_line poloto_legend_icon poloto1stroke poloto1legend" stroke="black" x1="680" x2="730" y1="131.25" y2="131.25" /><path  class="poloto_line poloto1stroke" fill="none" stroke="black" d=" M 150.00 345.68 L 151.60 368.31 L 156.39 334.58 L 157.99 324.24 L 159.58 333.73 L 159.58 333.73 L 162.78 304.07 L 167.57 301.53 L 169.17 312.29 L 170.77 300.25 L 172.36 311.02 L 173.96 290.85 L 178.75 321.69 L 180.35 290.85 L 180.35 290.85 L 183.55 290.85 L 183.55 290.85 L 189.94 250.17 L 191.53 282.71 L 193.13 290.85 L 194.73 301.53 L 196.33 280.59 L 202.72 260.00 L 204.31 257.37 L 205.91 252.12 L 207.51 240.08 L 212.30 245.34 L 213.90 268.14 L 217.09 260.00 L 218.69 257.37 L 223.48 248.81 L 225.08 258.73 L 226.68 258.73 L 226.68 258.73 L 229.87 258.73 L 234.66 260.00 L 236.26 281.44 L 236.26 281.44 L 237.86 269.41 L 239.46 289.58 L 241.05 281.44 L 245.85 282.71 L 247.44 281.44 L 249.04 281.44 L 249.04 281.44 L 250.64 282.71 L 252.24 289.58 L 257.03 290.85 L 258.63 294.66 L 260.22 294.66 L 261.82 294.66 L 263.42 294.66 L 269.81 289.58 L 271.41 278.81 L 273.00 281.44 L 274.60 281.44 L 274.60 281.44 L 280.99 268.14 L 282.59 270.68 L 284.19 261.27 L 290.58 215.85 L 292.17 197.03 L 293.77 207.80 L 295.37 215.85 L 296.96 238.56 L 301.76 225.17 L 303.35 218.47 L 304.95 239.92 L 306.55 250.17 L 312.94 250.17 L 314.54 238.56 L 316.13 249.32 L 317.73 260.00 L 319.33 272.03 L 325.72 280.08 L 327.32 269.41 L 328.91 258.73 L 330.51 251.44 L 335.30 257.37 L 338.50 260.00 L 340.10 258.73 L 346.49 260.00 L 346.49 260.00 L 346.49 260.00 L 346.49 260.00 L 346.49 260.00 L 346.49 260.00 L 346.49 260.00 L 346.49 260.00 L 346.49 260.00 L 346.49 260.00 L 346.49 260.00 L 346.49 260.00 L 357.67 280.08 L 360.86 282.71 L 362.46 301.53 L 364.06 304.07 L 368.85 301.27 L 370.45 301.27 L 372.04 290.85 L 373.64 294.66 L 375.24 278.81 L 380.03 270.68 L 380.03 270.68 L 381.63 270.68 L 384.82 281.44 L 384.82 281.44 L 392.81 278.81 L 394.41 260.00 L 396.01 260.00 L 402.40 246.19 L 405.59 234.58 L 405.59 234.58 L 408.79 247.54 L 415.18 215.85 L 415.18 215.85 L 415.18 215.85 L 415.18 215.85 L 415.18 215.85 L 415.18 215.85 L 415.18 215.85 L 415.18 215.85 L 415.18 215.85 L 419.97 215.85 L 429.55 202.37 L 435.94 203.73 L 439.14 203.73 L 440.73 203.73 L 440.73 203.73 L 448.72 203.73 L 450.32 203.73 L 450.32 203.73 L 450.32 203.73 L 450.32 203.73 L 469.49 203.73 L 471.09 203.73 L 480.67 118.81 L 482.27 102.97 L 482.27 102.97 L 544.57 155.34 L 547.76 155.34 L 549.36 155.34 L 552.56 174.15 L 554.15 175.51 L 554.15 175.51 L 560.54 175.51 L 562.14 175.51 L 563.74 175.51 L 565.34 175.51 L 570.13 175.51 L 571.73 175.51 L 574.92 175.51 L 576.52 175.51 L 581.31 175.51 L 582.91 175.51 L 582.91 175.51 L 587.70 175.51 L 592.49 175.51 L 594.09 175.51 L 595.69 175.51 L 597.28 175.51 L 598.88 175.51 L 605.27 156.36 L 606.87 145.93 L 608.47 144.58 L 610.06 147.37 L 614.86 147.37 L 616.45 147.37 L 616.45 147.37 L 619.65 167.46 L 621.25 167.46 L 626.04 167.46 L 627.64 167.46 L 629.23 167.46 L 630.83 167.46 L 632.43 167.46 L 632.43 167.46 L 638.82 167.46 L 638.82 167.46 L 640.42 167.46 L 643.61 167.46 L 648.40 167.46 L 650.00 167.46" /><text  class="poloto_text poloto_legend_text" x="675" y="200" >Refinance 30</text><line  class="poloto_line poloto_legend_icon poloto2stroke poloto2legend" stroke="black" x1="680" x2="730" y1="181.25" y2="181.25" /><path  class="poloto_line poloto2stroke" fill="none" stroke="black" d=" M 150.00 343.31 L 151.60 351.36 L 156.39 338.81 L 157.99 328.98 L 159.58 330.85 L 159.58 330.85 L 162.78 310.25 L 167.57 308.47 L 169.17 319.15 L 170.77 307.54 L 172.36 318.22 L 173.96 297.71 L 178.75 307.54 L 180.35 286.95 L 181.95 286.95 L 183.55 286.02 L 185.14 260.00 L 189.94 264.58 L 191.53 276.27 L 193.13 286.95 L 194.73 277.20 L 196.33 265.51 L 202.72 256.61 L 204.31 242.12 L 205.91 240.17 L 207.51 238.14 L 212.30 242.12 L 213.90 258.73 L 217.09 256.61 L 218.69 254.66 L 223.48 244.07 L 225.08 255.59 L 226.68 244.07 L 226.68 244.07 L 229.87 244.07 L 234.66 246.02 L 236.26 264.58 L 236.26 264.58 L 237.86 255.59 L 239.46 256.61 L 241.05 257.54 L 245.85 265.51 L 247.44 256.61 L 249.04 256.61 L 249.04 256.61 L 250.64 266.44 L 252.24 267.46 L 257.03 268.39 L 258.63 277.20 L 260.22 277.20 L 261.82 279.07 L 263.42 279.07 L 269.81 275.25 L 271.41 264.58 L 273.00 266.44 L 274.60 265.51 L 274.60 265.51 L 280.99 255.59 L 282.59 255.59 L 284.19 245.00 L 290.58 202.12 L 292.17 171.78 L 293.77 190.34 L 295.37 202.12 L 296.96 212.80 L 301.76 203.05 L 303.35 202.12 L 304.95 221.61 L 306.55 223.56 L 312.94 223.56 L 314.54 211.86 L 316.13 221.61 L 317.73 232.29 L 319.33 255.59 L 325.72 256.61 L 327.32 245.00 L 328.91 224.58 L 330.51 221.61 L 335.30 241.10 L 338.50 223.56 L 340.10 222.54 L 346.49 242.12 L 346.49 242.12 L 346.49 242.12 L 346.49 242.12 L 346.49 242.12 L 346.49 242.12 L 349.68 242.12 L 349.68 242.12 L 349.68 242.12 L 349.68 242.12 L 349.68 242.12 L 349.68 242.12 L 357.67 254.66 L 360.86 256.61 L 362.46 275.25 L 364.06 287.88 L 368.85 286.95 L 370.45 286.95 L 372.04 265.51 L 373.64 268.39 L 375.24 254.66 L 380.03 265.51 L 380.03 265.51 L 381.63 257.54 L 384.82 266.44 L 384.82 266.44 L 392.81 264.58 L 394.41 246.02 L 396.01 245.00 L 402.40 220.59 L 405.59 211.86 L 405.59 211.86 L 408.79 222.54 L 415.18 210.85 L 415.18 210.85 L 415.18 210.85 L 415.18 210.85 L 415.18 210.85 L 415.18 210.85 L 415.18 210.85 L 415.18 210.85 L 419.97 210.85 L 419.97 209.83 L 429.55 197.03 L 435.94 175.51 L 435.94 175.51 L 440.73 175.51 L 440.73 175.51 L 448.72 175.51 L 450.32 175.51 L 450.32 175.51 L 450.32 175.51 L 450.32 175.51 L 469.49 175.51 L 471.09 175.51 L 480.67 127.03 L 482.27 100.00 L 482.27 100.00 L 544.57 146.44 L 547.76 146.44 L 549.36 146.44 L 550.96 150.76 L 554.15 160.59 L 554.15 160.59 L 560.54 160.59 L 562.14 160.59 L 563.74 160.59 L 565.34 160.59 L 570.13 160.59 L 571.73 160.59 L 574.92 160.59 L 576.52 160.59 L 581.31 160.59 L 582.91 160.59 L 582.91 160.59 L 587.70 160.59 L 592.49 160.59 L 594.09 160.59 L 595.69 160.59 L 597.28 160.59 L 598.88 160.59 L 605.27 144.24 L 606.87 152.88 L 608.47 132.37 L 610.06 152.88 L 614.86 152.88 L 616.45 152.88 L 616.45 152.88 L 619.65 152.88 L 621.25 152.88 L 626.04 152.88 L 627.64 152.88 L 629.23 152.88 L 630.83 152.88 L 632.43 152.88 L 632.43 152.88 L 638.82 152.88 L 638.82 152.88 L 640.42 152.88 L 643.61 152.88 L 648.40 152.88 L 650.00 152.88" /><text  class="poloto_labels poloto_text poloto_title" x="400" y="37.5" >lower.com purchase rates</text><text  class="poloto_labels poloto_text poloto_xname" x="400" y="481.25" >Date</text><text  class="poloto_labels poloto_text poloto_yname" transform="rotate(-90,37.5,250)" x="37.5" y="250" >Rate (%)</text><text  class="poloto_tick_labels poloto_text" dominant-baseline="middle" text-anchor="start" x="150" y="70" ></text><line  class="poloto_axis_lines" stroke="black" x1="150" x2="144" y1="390.2542372881356" y2="390.2542372881356" /><line  class="poloto_tick_line" stroke="black" x1="150" x2="650" y1="390.2542372881356" y2="390.2542372881356" /><text  class="poloto_tick_labels poloto_text" dominant-baseline="middle" text-anchor="end" x="135" y="390.2542372881356" >3.625</text><line  class="poloto_axis_lines" stroke="black" x1="150" x2="144" y1="379.66101694915255" y2="379.66101694915255" /><line  class="poloto_tick_line" stroke="black" x1="150" x2="650" y1="379.66101694915255" y2="379.66101694915255" /><text  class="poloto_tick_labels poloto_text" dominant-baseline="middle" text-anchor="end" x="135" y="379.66101694915255" >3.75</text><line  class="poloto_axis_lines" stroke="black" x1="150" x2="144" y1="369.06779661016947" y2="369.06779661016947" /><line  class="poloto_tick_line" stroke="black" x1="150" x2="650" y1="369.06779661016947" y2="369.06779661016947" /><text  class="poloto_tick_labels poloto_text" dominant-baseline="middle" text-anchor="end" x="135" y="369.06779661016947" >3.875</text><line  class="poloto_axis_lines" stroke="black" x1="150" x2="144" y1="358.47457627118644" y2="358.47457627118644" /><line  class="poloto_tick_line" stroke="black" x1="150" x2="650" y1="358.47457627118644" y2="358.47457627118644" /><text  class="poloto_tick_labels poloto_text" dominant-baseline="middle" text-anchor="end" x="135" y="358.47457627118644" >4</text><line  class="poloto_axis_lines" stroke="black" x1="150" x2="144" y1="347.8813559322034" y2="347.8813559322034" /><line  class="poloto_tick_line" stroke="black" x1="150" x2="650" y1="347.8813559322034" y2="347.8813559322034" /><text  class="poloto_tick_labels poloto_text" dominant-baseline="middle" text-anchor="end" x="135" y="347.8813559322034" >4.125</text><line  class="poloto_axis_lines" stroke="black" x1="150" x2="144" y1="337.2881355932203" y2="337.2881355932203" /><line  class="poloto_tick_line" stroke="black" x1="150" x2="650" y1="337.2881355932203" y2="337.2881355932203" /><text  class="poloto_tick_labels poloto_text" dominant-baseline="middle" text-anchor="end" x="135" y="337.2881355932203" >4.25</text><line  class="poloto_axis_lines" stroke="black" x1="150" x2="144" y1="326.6949152542373" y2="326.6949152542373" /><line  class="poloto_tick_line" stroke="black" x1="150" x2="650" y1="326.6949152542373" y2="326.6949152542373" /><text  class="poloto_tick_labels poloto_text" dominant-baseline="middle" text-anchor="end" x="135" y="326.6949152542373" >4.375</text><line  class="poloto_axis_lines" stroke="black" x1="150" x2="144" y1="316.10169491525426" y2="316.10169491525426" /><line  class="poloto_tick_line" stroke="black" x1="150" x2="650" y1="316.10169491525426" y2="316.10169491525426" /><text  class="poloto_tick_labels poloto_text" dominant-baseline="middle" text-anchor="end" x="135" y="316.10169491525426" >4.5</text><line  class="poloto_axis_lines" stroke="black" x1="150" x2="144" y1="305.50847457627117" y2="305.50847457627117" /><line  class="poloto_tick_line" stroke="black" x1="150" x2="650" y1="305.50847457627117" y2="305.50847457627117" /><text  class="poloto_tick_labels poloto_text" dominant-baseline="middle" text-anchor="end" x="135" y="305.50847457627117" >4.625</text><line  class="poloto_axis_lines" stroke="black" x1="150" x2="144" y1="294.91525423728814" y2="294.91525423728814" /><line  class="poloto_tick_line" stroke="black" x1="150" x2="650" y1="294.91525423728814" y2="294.91525423728814" /><text  class="poloto_tick_labels poloto_text" dominant-baseline="middle" text-anchor="end" x="135" y="294.91525423728814" >4.75</text><line  class="poloto_axis_lines" stroke="black" x1="150" x2="144" y1="284.3220338983051" y2="284.3220338983051" /><line  class="poloto_tick_line" stroke="black" x1="150" x2="650" y1="284.3220338983051" y2="284.3220338983051" /><text  class="poloto_tick_labels poloto_text" dominant-baseline="middle" text-anchor="end" x="135" y="284.3220338983051" >4.875</text><line  class="poloto_axis_lines" stroke="black" x1="150" x2="144" y1="273.728813559322" y2="273.728813559322" /><line  class="poloto_tick_line" stroke="black" x1="150" x2="650" y1="273.728813559322" y2="273.728813559322" /><text  class="poloto_tick_labels poloto_text" dominant-baseline="middle" text-anchor="end" x="135" y="273.728813559322" >5</text><line  class="poloto_axis_lines" stroke="black" x1="150" x2="144" y1="263.135593220339" y2="263.135593220339" /><line  class="poloto_tick_line" stroke="black" x1="150" x2="650" y1="263.135593220339" y2="263.135593220339" /><text  class="poloto_tick_labels poloto_text" dominant-baseline="middle" text-anchor="end" x="135" y="263.135593220339" >5.125</text><line  class="poloto_axis_lines" stroke="black" x1="150" x2="144" y1="252.54237288135596" y2="252.54237288135596" /><line  class="poloto_tick_line" stroke="black" x1="150" x2="650" y1="252.54237288135596" y2="252.54237288135596" /><text  class="poloto_tick_labels poloto_text" dominant-baseline="middle" text-anchor="end" x="135" y="252.54237288135596" >5.25</text><line  class="poloto_axis_lines" stroke="black" x1="150" x2="144" y1="241.94915254237287" y2="241.94915254237287" /><line  class="poloto_tick_line" stroke="black" x1="150" x2="650" y1="241.94915254237287" y2="241.94915254237287" /><text  class="poloto_tick_labels poloto_text" dominant-baseline="middle" text-anchor="end" x="135" y="241.94915254237287" >5.375</text><line  class="poloto_axis_lines" stroke="black" x1="150" x2="144" y1="231.35593220338984" y2="231.35593220338984" /><line  class="poloto_tick_line" stroke="black" x1="150" x2="650" y1="231.35593220338984" y2="231.35593220338984" /><text  class="poloto_tick_labels poloto_text" dominant-baseline="middle" text-anchor="end" x="135" y="231.35593220338984" >5.5</text><line  class="poloto_axis_lines" stroke="black" x1="150" x2="144" y1="220.7627118644068" y2="220.7627118644068" /><line  class="poloto_tick_line" stroke="black" x1="150" x2="650" y1="220.7627118644068" y2="220.7627118644068" /><text  class="poloto_tick_labels poloto_text" dominant-baseline="middle" text-anchor="end" x="135" y="220.7627118644068" >5.625</text><line  class="poloto_axis_lines" stroke="black" x1="150" x2="144" y1="210.16949152542372" y2="210.16949152542372" /><line  class="poloto_tick_line" stroke="black" x1="150" x2="650" y1="210.16949152542372" y2="210.16949152542372" /><text  class="poloto_tick_labels poloto_text" dominant-baseline="middle" text-anchor="end" x="135" y="210.16949152542372" >5.75</text><line  class="poloto_axis_lines" stroke="black" x1="150" x2="144" y1="199.5762711864407" y2="199.5762711864407" /><line  class="poloto_tick_line" stroke="black" x1="150" x2="650" y1="199.5762711864407" y2="199.5762711864407" /><text  class="poloto_tick_labels poloto_text" dominant-baseline="middle" text-anchor="end" x="135" y="199.5762711864407" >5.875</text><line  class="poloto_axis_lines" stroke="black" x1="150" x2="144" y1="188.98305084745766" y2="188.98305084745766" /><line  class="poloto_tick_line" stroke="black" x1="150" x2="650" y1="188.98305084745766" y2="188.98305084745766" /><text  class="poloto_tick_labels poloto_text" dominant-baseline="middle" text-anchor="end" x="135" y="188.98305084745766" >6</text><line  class="poloto_axis_lines" stroke="black" x1="150" x2="144" y1="178.38983050847457" y2="178.38983050847457" /><line  class="poloto_tick_line" stroke="black" x1="150" x2="650" y1="178.38983050847457" y2="178.38983050847457" /><text  class="poloto_tick_labels poloto_text" dominant-baseline="middle" text-anchor="end" x="135" y="178.38983050847457" >6.125</text><line  class="poloto_axis_lines" stroke="black" x1="150" x2="144" y1="167.7966101694915" y2="167.7966101694915" /><line  class="poloto_tick_line" stroke="black" x1="150" x2="650" y1="167.7966101694915" y2="167.7966101694915" /><text  class="poloto_tick_labels poloto_text" dominant-baseline="middle" text-anchor="end" x="135" y="167.7966101694915" >6.25</text><line  class="poloto_axis_lines" stroke="black" x1="150" x2="144" y1="157.2033898305085" y2="157.2033898305085" /><line  class="poloto_tick_line" stroke="black" x1="150" x2="650" y1="157.2033898305085" y2="157.2033898305085" /><text  class="poloto_tick_labels poloto_text" dominant-baseline="middle" text-anchor="end" x="135" y="157.2033898305085" >6.375</text><line  class="poloto_axis_lines" stroke="black" x1="150" x2="144" y1="146.61016949152543" y2="146.61016949152543" /><line  class="poloto_tick_line" stroke="black" x1="150" x2="650" y1="146.61016949152543" y2="146.61016949152543" /><text  class="poloto_tick_labels poloto_text" dominant-baseline="middle" text-anchor="end" x="135" y="146.61016949152543" >6.5</text><line  class="poloto_axis_lines" stroke="black" x1="150" x2="144" y1="136.01694915254234" y2="136.01694915254234" /><line  class="poloto_tick_line" stroke="black" x1="150" x2="650" y1="136.01694915254234" y2="136.01694915254234" /><text  class="poloto_tick_labels poloto_text" dominant-baseline="middle" text-anchor="end" x="135" y="136.01694915254234" >6.625</text><line  class="poloto_axis_lines" stroke="black" x1="150" x2="144" y1="125.42372881355936" y2="125.42372881355936" /><line  class="poloto_tick_line" stroke="black" x1="150" x2="650" y1="125.42372881355936" y2="125.42372881355936" /><text  class="poloto_tick_labels poloto_text" dominant-baseline="middle" text-anchor="end" x="135" y="125.42372881355936" >6.75</text><line  class="poloto_axis_lines" stroke="black" x1="150" x2="144" y1="114.83050847457628" y2="114.83050847457628" /><line  class="poloto_tick_line" stroke="black" x1="150" x2="650" y1="114.83050847457628" y2="114.83050847457628" /><text  class="poloto_tick_labels poloto_text" dominant-baseline="middle" text-anchor="end" x="135" y="114.83050847457628" >6.875</text><line  class="poloto_axis_lines" stroke="black" x1="150" x2="144" y1="104.23728813559319" y2="104.23728813559319" /><line  class="poloto_tick_line" stroke="black" x1="150" x2="650" y1="104.23728813559319" y2="104.23728813559319" /><text  class="poloto_tick_labels poloto_text" dominant-baseline="middle" text-anchor="end" x="135" y="104.23728813559319" >7</text><text  class="poloto_tick_labels poloto_text" dominant-baseline="middle" text-anchor="start" x="440.00000000000006" y="70" >¹2022-05-01 00:00:00 UTC in Months</text><line  class="poloto_axis_lines" stroke="black" x1="221.8849840255607" x2="221.8849840255607" y1="400" y2="405" /><line  class="poloto_tick_line" stroke="black" x1="221.8849840255607" x2="221.8849840255607" y1="400" y2="100" /><text  class="poloto_tick_labels poloto_text" dominant-baseline="start" text-anchor="middle" x="221.8849840255607" y="430" >2022 May¹</text><line  class="poloto_axis_lines" stroke="black" x1="319.3290734824295" x2="319.3290734824295" y1="400" y2="405" /><line  class="poloto_tick_line" stroke="black" x1="319.3290734824295" x2="319.3290734824295" y1="400" y2="100" /><text  class="poloto_tick_labels poloto_text" dominant-baseline="start" text-anchor="middle" x="319.3290734824295" y="430" >2022 Jul</text><line  class="poloto_axis_lines" stroke="black" x1="418.37060702875533" x2="418.37060702875533" y1="400" y2="405" /><line  class="poloto_tick_line" stroke="black" x1="418.37060702875533" x2="418.37060702875533" y1="400" y2="100" /><text  class="poloto_tick_labels poloto_text" dominant-baseline="start" text-anchor="middle" x="418.37060702875533" y="430" >2022 Sep</text><line  class="poloto_axis_lines" stroke="black" x1="515.8146964856242" x2="515.8146964856242" y1="400" y2="405" /><line  class="poloto_tick_line" stroke="black" x1="515.8146964856242" x2="515.8146964856242" y1="400" y2="100" /><text  class="poloto_tick_labels poloto_text" dominant-baseline="start" text-anchor="middle" x="515.8146964856242" y="430" >2022 Nov</text><line  class="poloto_axis_lines" stroke="black" x1="613.258785942493" x2="613.258785942493" y1="400" y2="405" /><line  class="poloto_tick_line" stroke="black" x1="613.258785942493" x2="613.258785942493" y1="400" y2="100" /><text  class="poloto_tick_labels poloto_text" dominant-baseline="start" text-anchor="middle" x="613.258785942493" y="430" >2023 Jan</text><path  stroke="black" fill="none" class="poloto_axis_lines" d=" M 150 400 L 650 400" /><path  stroke="black" fill="none" class="poloto_axis_lines" d=" M 150 400 L 150 100" /></svg>