<svg class="poloto" width="800" height="500" viewBox="0 0 800 500" xmlns="http://www.w3.org/2000/svg"><style>.poloto{stroke-linecap:round;stroke-linejoin:round;font-family:Roboto,sans-serif;font-size:16px;}.poloto_background{fill:#262626;}.poloto_scatter{stroke-width:7}.poloto_tick_line{stroke:dimgray;stroke-width:0.5}.poloto_line{stroke-width:2}.poloto_text{fill: white;}.poloto_axis_lines{stroke: white;stroke-width:3;fill:none;stroke-dasharray:none}.poloto_title{font-size:24px;dominant-baseline:start;text-anchor:middle;}.poloto_xname{font-size:24px;dominant-baseline:start;text-anchor:middle;}.poloto_yname{font-size:24px;dominant-baseline:start;text-anchor:middle;}.poloto0stroke{stroke:blue;}.poloto1stroke{stroke:red;}.poloto2stroke{stroke:green;}.poloto3stroke{stroke:gold;}.poloto4stroke{stroke:aqua;}.poloto5stroke{stroke:lime;}.poloto6stroke{stroke:orange;}.poloto7stroke{stroke:chocolate;}.poloto0fill{fill:blue;}.poloto1fill{fill:red;}.poloto2fill{fill:green;}.poloto3fill{fill:gold;}.poloto4fill{fill:aqua;}.poloto5fill{fill:lime;}.poloto6fill{fill:orange;}.poloto7fill{fill:chocolate;}</style><circle  r="1e5" class="poloto_background" /><text  class="poloto_text poloto_legend_text" x="675" y="100" >30 years</text><line  class="poloto_line poloto_legend_icon poloto0stroke poloto0legend" stroke="black" x1="680" x2="730" y1="81.25" y2="81.25" /><path  class="poloto_line poloto0stroke" fill="none" stroke="black" d=" M 150.00 211.56 L 172.73 230.40 L 240.91 211.56 L 263.64 192.71 L 286.36 192.71 L 286.36 192.71 L 331.82 155.03 L 400.00 155.03 L 422.73 173.87 L 445.45 192.71 L 468.18 211.56 L 490.91 173.87 L 559.09 192.71 L 581.82 173.87 L 604.55 155.03 L 627.27 136.18 L 650.00 136.18" /><text  class="poloto_text poloto_legend_text" x="675" y="150" >20 years</text><line  class="poloto_line poloto_legend_icon poloto1stroke poloto1legend" stroke="black" x1="680" x2="730" y1="131.25" y2="131.25" /><path  class="poloto_line poloto1stroke" fill="none" stroke="black" d=" M 150.00 211.56 L 172.73 230.40 L 240.91 192.71 L 263.64 173.87 L 286.36 173.87 L 286.36 173.87 L 331.82 155.03 L 400.00 136.18 L 422.73 155.03 L 445.45 173.87 L 468.18 192.71 L 490.91 155.03 L 559.09 192.71 L 581.82 155.03 L 604.55 155.03 L 627.27 155.03 L 650.00 100.00" /><text  class="poloto_text poloto_legend_text" x="675" y="200" >15 years</text><line  class="poloto_line poloto_legend_icon poloto2stroke poloto2legend" stroke="black" x1="680" x2="730" y1="181.25" y2="181.25" /><path  class="poloto_line poloto2stroke" fill="none" stroke="black" d=" M 150.00 305.78 L 172.73 305.78 L 240.91 305.78 L 263.64 268.09 L 286.36 268.09 L 286.36 268.09 L 331.82 250.75 L 400.00 268.09 L 422.73 268.09 L 445.45 286.93 L 468.18 286.93 L 490.91 268.09 L 559.09 286.93 L 581.82 268.09 L 604.55 249.25 L 627.27 250.75 L 650.00 249.25" /><text  class="poloto_labels poloto_text poloto_title" x="400" y="37.5" >Number of rides at theme park hourly</text><text  class="poloto_labels poloto_text poloto_xname" x="400" y="481.25" >Hour</text><text  class="poloto_labels poloto_text poloto_yname" transform="rotate(-90,37.5,250)" x="37.5" y="250" >Number of rides</text><text  class="poloto_tick_labels poloto_text" dominant-baseline="middle" text-anchor="start" x="150" y="70" ></text><line  class="poloto_axis_lines" stroke="black" x1="150" x2="144" y1="400" y2="400" /><line  class="poloto_tick_line" stroke="black" x1="150" x2="650" y1="400" y2="400" /><text  class="poloto_tick_labels poloto_text" dominant-baseline="middle" text-anchor="end" x="135" y="400" >3</text><line  class="poloto_axis_lines" stroke="black" x1="150" x2="144" y1="362.3115577889447" y2="362.3115577889447" /><line  class="poloto_tick_line" stroke="black" x1="150" x2="650" y1="362.3115577889447" y2="362.3115577889447" /><text  class="poloto_tick_labels poloto_text" dominant-baseline="middle" text-anchor="end" x="135" y="362.3115577889447" >3.25</text><line  class="poloto_axis_lines" stroke="black" x1="150" x2="144" y1="324.6231155778895" y2="324.6231155778895" /><line  class="poloto_tick_line" stroke="black" x1="150" x2="650" y1="324.6231155778895" y2="324.6231155778895" /><text  class="poloto_tick_labels poloto_text" dominant-baseline="middle" text-anchor="end" x="135" y="324.6231155778895" >3.5</text><line  class="poloto_axis_lines" stroke="black" x1="150" x2="144" y1="286.9346733668342" y2="286.9346733668342" /><line  class="poloto_tick_line" stroke="black" x1="150" x2="650" y1="286.9346733668342" y2="286.9346733668342" /><text  class="poloto_tick_labels poloto_text" dominant-baseline="middle" text-anchor="end" x="135" y="286.9346733668342" >3.75</text><line  class="poloto_axis_lines" stroke="black" x1="150" x2="144" y1="249.2462311557789" y2="249.2462311557789" /><line  class="poloto_tick_line" stroke="black" x1="150" x2="650" y1="249.2462311557789" y2="249.2462311557789" /><text  class="poloto_tick_labels poloto_text" dominant-baseline="middle" text-anchor="end" x="135" y="249.2462311557789" >4</text><line  class="poloto_axis_lines" stroke="black" x1="150" x2="144" y1="211.5577889447236" y2="211.5577889447236" /><line  class="poloto_tick_line" stroke="black" x1="150" x2="650" y1="211.5577889447236" y2="211.5577889447236" /><text  class="poloto_tick_labels poloto_text" dominant-baseline="middle" text-anchor="end" x="135" y="211.5577889447236" >4.25</text><line  class="poloto_axis_lines" stroke="black" x1="150" x2="144" y1="173.8693467336683" y2="173.8693467336683" /><line  class="poloto_tick_line" stroke="black" x1="150" x2="650" y1="173.8693467336683" y2="173.8693467336683" /><text  class="poloto_tick_labels poloto_text" dominant-baseline="middle" text-anchor="end" x="135" y="173.8693467336683" >4.5</text><line  class="poloto_axis_lines" stroke="black" x1="150" x2="144" y1="136.1809045226131" y2="136.1809045226131" /><line  class="poloto_tick_line" stroke="black" x1="150" x2="650" y1="136.1809045226131" y2="136.1809045226131" /><text  class="poloto_tick_labels poloto_text" dominant-baseline="middle" text-anchor="end" x="135" y="136.1809045226131" >4.75</text><text  class="poloto_tick_labels poloto_text" dominant-baseline="middle" text-anchor="start" x="440.00000000000006" y="70" >ยน2022-03-17 00:00:00 UTC in Days</text><line  class="poloto_axis_lines" stroke="black" x1="150" x2="150" y1="400" y2="405" /><line  class="poloto_tick_line" stroke="black" x1="150" x2="150" y1="400" y2="100" /><text  class="poloto_tick_labels poloto_text" dominant-baseline="start" text-anchor="middle" x="150" y="430" >Mar 17ยน</text><line  class="poloto_axis_lines" stroke="black" x1="240.90909090911737" x2="240.90909090911737" y1="400" y2="405" /><line  class="poloto_tick_line" stroke="black" x1="240.90909090911737" x2="240.90909090911737" y1="400" y2="100" /><text  class="poloto_tick_labels poloto_text" dominant-baseline="start" text-anchor="middle" x="240.90909090911737" y="430" >Mar 21</text><line  class="poloto_axis_lines" stroke="black" x1="331.8181818181765" x2="331.8181818181765" y1="400" y2="405" /><line  class="poloto_tick_line" stroke="black" x1="331.8181818181765" x2="331.8181818181765" y1="400" y2="100" /><text  class="poloto_tick_labels poloto_text" dominant-baseline="start" text-anchor="middle" x="331.8181818181765" y="430" >Mar 25</text><line  class="poloto_axis_lines" stroke="black" x1="422.7272727272939" x2="422.7272727272939" y1="400" y2="405" /><line  class="poloto_tick_line" stroke="black" x1="422.7272727272939" x2="422.7272727272939" y1="400" y2="100" /><text  class="poloto_tick_labels poloto_text" dominant-baseline="start" text-anchor="middle" x="422.7272727272939" y="430" >Mar 29</text><line  class="poloto_axis_lines" stroke="black" x1="513.636363636353" x2="513.636363636353" y1="400" y2="405" /><line  class="poloto_tick_line" stroke="black" x1="513.636363636353" x2="513.636363636353" y1="400" y2="100" /><text  class="poloto_tick_labels poloto_text" dominant-baseline="start" text-anchor="middle" x="513.636363636353" y="430" >Apr 02</text><line  class="poloto_axis_lines" stroke="black" x1="604.5454545454704" x2="604.5454545454704" y1="400" y2="405" /><line  class="poloto_tick_line" stroke="black" x1="604.5454545454704" x2="604.5454545454704" y1="400" y2="100" /><text  class="poloto_tick_labels poloto_text" dominant-baseline="start" text-anchor="middle" x="604.5454545454704" y="430" >Apr 06</text><path  stroke="black" fill="none" class="poloto_axis_lines" d=" M 150 400 L 650 400" /><path  stroke="black" fill="none" class="poloto_axis_lines" d=" M 150 400 L 150 100" /></svg>