<svg class="poloto" width="800" height="500" viewBox="0 0 800 500" xmlns="http://www.w3.org/2000/svg"><style>.poloto{stroke-linecap:round;stroke-linejoin:round;font-family:Roboto,sans-serif;font-size:16px;}.poloto_background{fill:#262626;}.poloto_scatter{stroke-width:7}.poloto_tick_line{stroke:dimgray;stroke-width:0.5}.poloto_line{stroke-width:2}.poloto_text{fill: white;}.poloto_axis_lines{stroke: white;stroke-width:3;fill:none;stroke-dasharray:none}.poloto_title{font-size:24px;dominant-baseline:start;text-anchor:middle;}.poloto_xname{font-size:24px;dominant-baseline:start;text-anchor:middle;}.poloto_yname{font-size:24px;dominant-baseline:start;text-anchor:middle;}.poloto0stroke{stroke:blue;}.poloto1stroke{stroke:red;}.poloto2stroke{stroke:green;}.poloto3stroke{stroke:gold;}.poloto4stroke{stroke:aqua;}.poloto5stroke{stroke:lime;}.poloto6stroke{stroke:orange;}.poloto7stroke{stroke:chocolate;}.poloto0fill{fill:blue;}.poloto1fill{fill:red;}.poloto2fill{fill:green;}.poloto3fill{fill:gold;}.poloto4fill{fill:aqua;}.poloto5fill{fill:lime;}.poloto6fill{fill:orange;}.poloto7fill{fill:chocolate;}</style><circle  r="1e5" class="poloto_background" /><text  class="poloto_text poloto_legend_text" x="675" y="100" >Refinance 15</text><line  class="poloto_line poloto_legend_icon poloto0stroke poloto0legend" stroke="black" x1="680" x2="730" y1="81.25" y2="81.25" /><path  class="poloto_line poloto0stroke" fill="none" stroke="black" d=" M 150.00 392.46 L 151.72 400.00 L 156.87 389.32 L 158.59 380.17 L 160.31 389.32 L 160.31 389.32 L 163.75 358.81 L 168.90 357.20 L 170.62 367.88 L 172.34 344.83 L 174.05 346.44 L 175.77 341.61 L 180.93 343.22 L 182.65 336.78 L 182.65 336.78 L 186.08 337.37 L 187.80 314.32 L 192.96 324.32 L 194.67 327.54 L 196.39 327.54 L 198.11 326.69 L 199.83 321.78 L 206.70 278.73 L 208.42 297.88 L 210.14 283.05 L 211.86 277.29 L 211.86 277.29 L 218.73 299.58 L 222.16 303.64 L 223.88 294.58 L 229.04 283.81 L 230.76 305.25 L 232.47 294.58 L 232.47 294.58 L 235.91 292.88 L 241.07 296.19 L 242.78 306.86 L 242.78 306.86 L 244.50 297.80 L 246.22 308.56 L 247.94 292.88 L 253.09 325.08 L 254.81 324.32 L 256.53 306.86 L 256.53 306.86 L 258.25 314.32 L 259.97 317.63 L 265.12 317.63 L 266.84 329.15 L 268.56 329.15 L 270.27 329.15 L 271.99 329.15 L 278.87 317.63 L 280.58 314.32 L 282.30 315.93 L 284.02 315.93 L 284.02 315.93 L 290.89 305.25 L 292.61 305.25 L 294.33 296.19 L 301.20 281.36 L 302.92 250.76 L 304.64 254.15 L 306.36 254.15 L 308.08 275.59 L 313.23 254.15 L 314.95 254.15 L 316.67 273.90 L 318.38 277.29 L 325.26 277.29 L 326.98 275.59 L 328.69 280.59 L 330.41 285.51 L 332.13 296.19 L 339.00 303.64 L 340.72 294.58 L 342.44 287.12 L 344.16 283.81 L 349.31 285.51 L 352.75 285.51 L 354.47 283.81 L 361.34 282.20 L 361.34 282.20 L 361.34 282.20 L 361.34 282.20 L 361.34 282.20 L 361.34 282.20 L 364.78 282.20 L 364.78 282.20 L 364.78 282.20 L 364.78 282.20 L 364.78 282.20 L 364.78 282.20 L 373.37 294.58 L 376.80 297.80 L 378.52 325.93 L 380.24 329.15 L 385.40 329.15 L 387.11 327.54 L 388.83 305.25 L 390.55 299.49 L 392.27 285.51 L 397.42 296.19 L 397.42 296.19 L 399.14 287.12 L 402.58 296.19 L 402.58 296.19 L 411.17 296.19 L 412.89 262.46 L 414.60 282.20 L 421.48 248.39 L 424.91 248.39 L 424.91 248.39 L 428.35 260.76 L 435.22 254.15 L 435.22 254.15 L 435.22 254.15 L 435.22 254.15 L 435.22 254.15 L 435.22 254.15 L 435.22 254.15 L 435.22 254.15 L 435.22 254.15 L 440.38 254.15 L 450.69 232.63 L 457.56 235.17 L 457.56 235.17 L 462.71 235.17 L 469.59 235.17 L 471.31 235.17 L 471.31 235.17 L 471.31 235.17 L 471.31 235.17 L 471.31 235.17 L 493.64 235.17 L 495.36 235.17 L 505.67 139.75 L 507.39 130.68 L 509.11 130.68 L 570.96 159.15 L 577.84 159.15 L 579.55 159.15 L 581.27 175.51 L 584.71 184.49 L 584.71 184.49 L 591.58 184.49 L 593.30 184.49 L 595.02 184.49 L 596.74 184.49 L 601.89 184.49 L 603.61 184.49 L 607.04 184.49 L 608.76 184.49 L 613.92 184.49 L 615.64 184.49 L 615.64 184.49 L 620.79 184.49 L 625.95 184.49 L 627.66 184.49 L 629.38 184.49 L 631.10 184.49 L 632.82 184.49 L 639.69 209.15 L 641.41 180.68 L 643.13 159.15 L 644.85 169.92 L 650.00 169.92" /><text  class="poloto_text poloto_legend_text" x="675" y="150" >Refinance 20</text><line  class="poloto_line poloto_legend_icon poloto1stroke poloto1legend" stroke="black" x1="680" x2="730" y1="131.25" y2="131.25" /><path  class="poloto_line poloto1stroke" fill="none" stroke="black" d=" M 150.00 345.68 L 151.72 368.31 L 156.87 334.58 L 158.59 324.24 L 160.31 333.73 L 160.31 333.73 L 163.75 304.07 L 168.90 301.53 L 170.62 312.29 L 172.34 300.25 L 174.05 311.02 L 175.77 290.85 L 180.93 321.69 L 182.65 290.85 L 182.65 290.85 L 186.08 290.85 L 186.08 290.85 L 192.96 250.17 L 194.67 282.71 L 196.39 290.85 L 198.11 301.53 L 199.83 280.59 L 206.70 260.00 L 208.42 257.37 L 210.14 252.12 L 211.86 240.08 L 217.01 245.34 L 218.73 268.14 L 222.16 260.00 L 223.88 257.37 L 229.04 248.81 L 230.76 258.73 L 232.47 258.73 L 232.47 258.73 L 235.91 258.73 L 241.07 260.00 L 242.78 281.44 L 242.78 281.44 L 244.50 269.41 L 246.22 289.58 L 247.94 281.44 L 253.09 282.71 L 254.81 281.44 L 256.53 281.44 L 256.53 281.44 L 258.25 282.71 L 259.97 289.58 L 265.12 290.85 L 266.84 294.66 L 268.56 294.66 L 270.27 294.66 L 271.99 294.66 L 278.87 289.58 L 280.58 278.81 L 282.30 281.44 L 284.02 281.44 L 284.02 281.44 L 290.89 268.14 L 292.61 270.68 L 294.33 261.27 L 301.20 215.85 L 302.92 197.03 L 304.64 207.80 L 306.36 215.85 L 308.08 238.56 L 313.23 225.17 L 314.95 218.47 L 316.67 239.92 L 318.38 250.17 L 325.26 250.17 L 326.98 238.56 L 328.69 249.32 L 330.41 260.00 L 332.13 272.03 L 339.00 280.08 L 340.72 269.41 L 342.44 258.73 L 344.16 251.44 L 349.31 257.37 L 352.75 260.00 L 354.47 258.73 L 361.34 260.00 L 361.34 260.00 L 361.34 260.00 L 361.34 260.00 L 361.34 260.00 L 361.34 260.00 L 361.34 260.00 L 361.34 260.00 L 361.34 260.00 L 361.34 260.00 L 361.34 260.00 L 361.34 260.00 L 373.37 280.08 L 376.80 282.71 L 378.52 301.53 L 380.24 304.07 L 385.40 301.27 L 387.11 301.27 L 388.83 290.85 L 390.55 294.66 L 392.27 278.81 L 397.42 270.68 L 397.42 270.68 L 399.14 270.68 L 402.58 281.44 L 402.58 281.44 L 411.17 278.81 L 412.89 260.00 L 414.60 260.00 L 421.48 246.19 L 424.91 234.58 L 424.91 234.58 L 428.35 247.54 L 435.22 215.85 L 435.22 215.85 L 435.22 215.85 L 435.22 215.85 L 435.22 215.85 L 435.22 215.85 L 435.22 215.85 L 435.22 215.85 L 435.22 215.85 L 440.38 215.85 L 450.69 202.37 L 457.56 203.73 L 461.00 203.73 L 462.71 203.73 L 462.71 203.73 L 471.31 203.73 L 473.02 203.73 L 473.02 203.73 L 473.02 203.73 L 473.02 203.73 L 493.64 203.73 L 495.36 203.73 L 505.67 118.81 L 507.39 102.97 L 507.39 102.97 L 574.40 155.34 L 577.84 155.34 L 579.55 155.34 L 582.99 174.15 L 584.71 175.51 L 584.71 175.51 L 591.58 175.51 L 593.30 175.51 L 595.02 175.51 L 596.74 175.51 L 601.89 175.51 L 603.61 175.51 L 607.04 175.51 L 608.76 175.51 L 613.92 175.51 L 615.64 175.51 L 615.64 175.51 L 620.79 175.51 L 625.95 175.51 L 627.66 175.51 L 629.38 175.51 L 631.10 175.51 L 632.82 175.51 L 639.69 156.36 L 641.41 145.93 L 643.13 144.58 L 644.85 147.37 L 650.00 147.37" /><text  class="poloto_text poloto_legend_text" x="675" y="200" >Refinance 30</text><line  class="poloto_line poloto_legend_icon poloto2stroke poloto2legend" stroke="black" x1="680" x2="730" y1="181.25" y2="181.25" /><path  class="poloto_line poloto2stroke" fill="none" stroke="black" d=" M 150.00 343.31 L 151.72 351.36 L 156.87 338.81 L 158.59 328.98 L 160.31 330.85 L 160.31 330.85 L 163.75 310.25 L 168.90 308.47 L 170.62 319.15 L 172.34 307.54 L 174.05 318.22 L 175.77 297.71 L 180.93 307.54 L 182.65 286.95 L 184.36 286.95 L 186.08 286.02 L 187.80 260.00 L 192.96 264.58 L 194.67 276.27 L 196.39 286.95 L 198.11 277.20 L 199.83 265.51 L 206.70 256.61 L 208.42 242.12 L 210.14 240.17 L 211.86 238.14 L 217.01 242.12 L 218.73 258.73 L 222.16 256.61 L 223.88 254.66 L 229.04 244.07 L 230.76 255.59 L 232.47 244.07 L 232.47 244.07 L 235.91 244.07 L 241.07 246.02 L 242.78 264.58 L 242.78 264.58 L 244.50 255.59 L 246.22 256.61 L 247.94 257.54 L 253.09 265.51 L 254.81 256.61 L 256.53 256.61 L 256.53 256.61 L 258.25 266.44 L 259.97 267.46 L 265.12 268.39 L 266.84 277.20 L 268.56 277.20 L 270.27 279.07 L 271.99 279.07 L 278.87 275.25 L 280.58 264.58 L 282.30 266.44 L 284.02 265.51 L 284.02 265.51 L 290.89 255.59 L 292.61 255.59 L 294.33 245.00 L 301.20 202.12 L 302.92 171.78 L 304.64 190.34 L 306.36 202.12 L 308.08 212.80 L 313.23 203.05 L 314.95 202.12 L 316.67 221.61 L 318.38 223.56 L 325.26 223.56 L 326.98 211.86 L 328.69 221.61 L 330.41 232.29 L 332.13 255.59 L 339.00 256.61 L 340.72 245.00 L 342.44 224.58 L 344.16 221.61 L 349.31 241.10 L 352.75 223.56 L 354.47 222.54 L 361.34 242.12 L 361.34 242.12 L 361.34 242.12 L 361.34 242.12 L 361.34 242.12 L 361.34 242.12 L 364.78 242.12 L 364.78 242.12 L 364.78 242.12 L 364.78 242.12 L 364.78 242.12 L 364.78 242.12 L 373.37 254.66 L 376.80 256.61 L 378.52 275.25 L 380.24 287.88 L 385.40 286.95 L 387.11 286.95 L 388.83 265.51 L 390.55 268.39 L 392.27 254.66 L 397.42 265.51 L 397.42 265.51 L 399.14 257.54 L 402.58 266.44 L 402.58 266.44 L 411.17 264.58 L 412.89 246.02 L 414.60 245.00 L 421.48 220.59 L 424.91 211.86 L 424.91 211.86 L 428.35 222.54 L 435.22 210.85 L 435.22 210.85 L 435.22 210.85 L 435.22 210.85 L 435.22 210.85 L 435.22 210.85 L 435.22 210.85 L 435.22 210.85 L 440.38 210.85 L 440.38 209.83 L 450.69 197.03 L 457.56 175.51 L 457.56 175.51 L 462.71 175.51 L 462.71 175.51 L 471.31 175.51 L 473.02 175.51 L 473.02 175.51 L 473.02 175.51 L 473.02 175.51 L 493.64 175.51 L 495.36 175.51 L 505.67 127.03 L 507.39 100.00 L 507.39 100.00 L 574.40 146.44 L 577.84 146.44 L 579.55 146.44 L 581.27 150.76 L 584.71 160.59 L 584.71 160.59 L 591.58 160.59 L 593.30 160.59 L 595.02 160.59 L 596.74 160.59 L 601.89 160.59 L 603.61 160.59 L 607.04 160.59 L 608.76 160.59 L 613.92 160.59 L 615.64 160.59 L 615.64 160.59 L 620.79 160.59 L 625.95 160.59 L 627.66 160.59 L 629.38 160.59 L 631.10 160.59 L 632.82 160.59 L 639.69 144.24 L 641.41 152.88 L 643.13 132.37 L 644.85 152.88 L 650.00 152.88" /><text  class="poloto_labels poloto_text poloto_title" x="400" y="37.5" >lower.com purchase rates</text><text  class="poloto_labels poloto_text poloto_xname" x="400" y="481.25" >Date</text><text  class="poloto_labels poloto_text poloto_yname" transform="rotate(-90,37.5,250)" x="37.5" y="250" >Rate (%)</text><text  class="poloto_tick_labels poloto_text" dominant-baseline="middle" text-anchor="start" x="150" y="70" ></text><line  class="poloto_axis_lines" stroke="black" x1="150" x2="144" y1="390.2542372881356" y2="390.2542372881356" /><line  class="poloto_tick_line" stroke="black" x1="150" x2="650.0000000000036" y1="390.2542372881356" y2="390.2542372881356" /><text  class="poloto_tick_labels poloto_text" dominant-baseline="middle" text-anchor="end" x="135" y="390.2542372881356" >3.625</text><line  class="poloto_axis_lines" stroke="black" x1="150" x2="144" y1="379.66101694915255" y2="379.66101694915255" /><line  class="poloto_tick_line" stroke="black" x1="150" x2="650.0000000000036" y1="379.66101694915255" y2="379.66101694915255" /><text  class="poloto_tick_labels poloto_text" dominant-baseline="middle" text-anchor="end" x="135" y="379.66101694915255" >3.75</text><line  class="poloto_axis_lines" stroke="black" x1="150" x2="144" y1="369.06779661016947" y2="369.06779661016947" /><line  class="poloto_tick_line" stroke="black" x1="150" x2="650.0000000000036" y1="369.06779661016947" y2="369.06779661016947" /><text  class="poloto_tick_labels poloto_text" dominant-baseline="middle" text-anchor="end" x="135" y="369.06779661016947" >3.875</text><line  class="poloto_axis_lines" stroke="black" x1="150" x2="144" y1="358.47457627118644" y2="358.47457627118644" /><line  class="poloto_tick_line" stroke="black" x1="150" x2="650.0000000000036" y1="358.47457627118644" y2="358.47457627118644" /><text  class="poloto_tick_labels poloto_text" dominant-baseline="middle" text-anchor="end" x="135" y="358.47457627118644" >4</text><line  class="poloto_axis_lines" stroke="black" x1="150" x2="144" y1="347.8813559322034" y2="347.8813559322034" /><line  class="poloto_tick_line" stroke="black" x1="150" x2="650.0000000000036" y1="347.8813559322034" y2="347.8813559322034" /><text  class="poloto_tick_labels poloto_text" dominant-baseline="middle" text-anchor="end" x="135" y="347.8813559322034" >4.125</text><line  class="poloto_axis_lines" stroke="black" x1="150" x2="144" y1="337.2881355932203" y2="337.2881355932203" /><line  class="poloto_tick_line" stroke="black" x1="150" x2="650.0000000000036" y1="337.2881355932203" y2="337.2881355932203" /><text  class="poloto_tick_labels poloto_text" dominant-baseline="middle" text-anchor="end" x="135" y="337.2881355932203" >4.25</text><line  class="poloto_axis_lines" stroke="black" x1="150" x2="144" y1="326.6949152542373" y2="326.6949152542373" /><line  class="poloto_tick_line" stroke="black" x1="150" x2="650.0000000000036" y1="326.6949152542373" y2="326.6949152542373" /><text  class="poloto_tick_labels poloto_text" dominant-baseline="middle" text-anchor="end" x="135" y="326.6949152542373" >4.375</text><line  class="poloto_axis_lines" stroke="black" x1="150" x2="144" y1="316.10169491525426" y2="316.10169491525426" /><line  class="poloto_tick_line" stroke="black" x1="150" x2="650.0000000000036" y1="316.10169491525426" y2="316.10169491525426" /><text  class="poloto_tick_labels poloto_text" dominant-baseline="middle" text-anchor="end" x="135" y="316.10169491525426" >4.5</text><line  class="poloto_axis_lines" stroke="black" x1="150" x2="144" y1="305.50847457627117" y2="305.50847457627117" /><line  class="poloto_tick_line" stroke="black" x1="150" x2="650.0000000000036" y1="305.50847457627117" y2="305.50847457627117" /><text  class="poloto_tick_labels poloto_text" dominant-baseline="middle" text-anchor="end" x="135" y="305.50847457627117" >4.625</text><line  class="poloto_axis_lines" stroke="black" x1="150" x2="144" y1="294.91525423728814" y2="294.91525423728814" /><line  class="poloto_tick_line" stroke="black" x1="150" x2="650.0000000000036" y1="294.91525423728814" y2="294.91525423728814" /><text  class="poloto_tick_labels poloto_text" dominant-baseline="middle" text-anchor="end" x="135" y="294.91525423728814" >4.75</text><line  class="poloto_axis_lines" stroke="black" x1="150" x2="144" y1="284.3220338983051" y2="284.3220338983051" /><line  class="poloto_tick_line" stroke="black" x1="150" x2="650.0000000000036" y1="284.3220338983051" y2="284.3220338983051" /><text  class="poloto_tick_labels poloto_text" dominant-baseline="middle" text-anchor="end" x="135" y="284.3220338983051" >4.875</text><line  class="poloto_axis_lines" stroke="black" x1="150" x2="144" y1="273.728813559322" y2="273.728813559322" /><line  class="poloto_tick_line" stroke="black" x1="150" x2="650.0000000000036" y1="273.728813559322" y2="273.728813559322" /><text  class="poloto_tick_labels poloto_text" dominant-baseline="middle" text-anchor="end" x="135" y="273.728813559322" >5</text><line  class="poloto_axis_lines" stroke="black" x1="150" x2="144" y1="263.135593220339" y2="263.135593220339" /><line  class="poloto_tick_line" stroke="black" x1="150" x2="650.0000000000036" y1="263.135593220339" y2="263.135593220339" /><text  class="poloto_tick_labels poloto_text" dominant-baseline="middle" text-anchor="end" x="135" y="263.135593220339" >5.125</text><line  class="poloto_axis_lines" stroke="black" x1="150" x2="144" y1="252.54237288135596" y2="252.54237288135596" /><line  class="poloto_tick_line" stroke="black" x1="150" x2="650.0000000000036" y1="252.54237288135596" y2="252.54237288135596" /><text  class="poloto_tick_labels poloto_text" dominant-baseline="middle" text-anchor="end" x="135" y="252.54237288135596" >5.25</text><line  class="poloto_axis_lines" stroke="black" x1="150" x2="144" y1="241.94915254237287" y2="241.94915254237287" /><line  class="poloto_tick_line" stroke="black" x1="150" x2="650.0000000000036" y1="241.94915254237287" y2="241.94915254237287" /><text  class="poloto_tick_labels poloto_text" dominant-baseline="middle" text-anchor="end" x="135" y="241.94915254237287" >5.375</text><line  class="poloto_axis_lines" stroke="black" x1="150" x2="144" y1="231.35593220338984" y2="231.35593220338984" /><line  class="poloto_tick_line" stroke="black" x1="150" x2="650.0000000000036" y1="231.35593220338984" y2="231.35593220338984" /><text  class="poloto_tick_labels poloto_text" dominant-baseline="middle" text-anchor="end" x="135" y="231.35593220338984" >5.5</text><line  class="poloto_axis_lines" stroke="black" x1="150" x2="144" y1="220.7627118644068" y2="220.7627118644068" /><line  class="poloto_tick_line" stroke="black" x1="150" x2="650.0000000000036" y1="220.7627118644068" y2="220.7627118644068" /><text  class="poloto_tick_labels poloto_text" dominant-baseline="middle" text-anchor="end" x="135" y="220.7627118644068" >5.625</text><line  class="poloto_axis_lines" stroke="black" x1="150" x2="144" y1="210.16949152542372" y2="210.16949152542372" /><line  class="poloto_tick_line" stroke="black" x1="150" x2="650.0000000000036" y1="210.16949152542372" y2="210.16949152542372" /><text  class="poloto_tick_labels poloto_text" dominant-baseline="middle" text-anchor="end" x="135" y="210.16949152542372" >5.75</text><line  class="poloto_axis_lines" stroke="black" x1="150" x2="144" y1="199.5762711864407" y2="199.5762711864407" /><line  class="poloto_tick_line" stroke="black" x1="150" x2="650.0000000000036" y1="199.5762711864407" y2="199.5762711864407" /><text  class="poloto_tick_labels poloto_text" dominant-baseline="middle" text-anchor="end" x="135" y="199.5762711864407" >5.875</text><line  class="poloto_axis_lines" stroke="black" x1="150" x2="144" y1="188.98305084745766" y2="188.98305084745766" /><line  class="poloto_tick_line" stroke="black" x1="150" x2="650.0000000000036" y1="188.98305084745766" y2="188.98305084745766" /><text  class="poloto_tick_labels poloto_text" dominant-baseline="middle" text-anchor="end" x="135" y="188.98305084745766" >6</text><line  class="poloto_axis_lines" stroke="black" x1="150" x2="144" y1="178.38983050847457" y2="178.38983050847457" /><line  class="poloto_tick_line" stroke="black" x1="150" x2="650.0000000000036" y1="178.38983050847457" y2="178.38983050847457" /><text  class="poloto_tick_labels poloto_text" dominant-baseline="middle" text-anchor="end" x="135" y="178.38983050847457" >6.125</text><line  class="poloto_axis_lines" stroke="black" x1="150" x2="144" y1="167.7966101694915" y2="167.7966101694915" /><line  class="poloto_tick_line" stroke="black" x1="150" x2="650.0000000000036" y1="167.7966101694915" y2="167.7966101694915" /><text  class="poloto_tick_labels poloto_text" dominant-baseline="middle" text-anchor="end" x="135" y="167.7966101694915" >6.25</text><line  class="poloto_axis_lines" stroke="black" x1="150" x2="144" y1="157.2033898305085" y2="157.2033898305085" /><line  class="poloto_tick_line" stroke="black" x1="150" x2="650.0000000000036" y1="157.2033898305085" y2="157.2033898305085" /><text  class="poloto_tick_labels poloto_text" dominant-baseline="middle" text-anchor="end" x="135" y="157.2033898305085" >6.375</text><line  class="poloto_axis_lines" stroke="black" x1="150" x2="144" y1="146.61016949152543" y2="146.61016949152543" /><line  class="poloto_tick_line" stroke="black" x1="150" x2="650.0000000000036" y1="146.61016949152543" y2="146.61016949152543" /><text  class="poloto_tick_labels poloto_text" dominant-baseline="middle" text-anchor="end" x="135" y="146.61016949152543" >6.5</text><line  class="poloto_axis_lines" stroke="black" x1="150" x2="144" y1="136.01694915254234" y2="136.01694915254234" /><line  class="poloto_tick_line" stroke="black" x1="150" x2="650.0000000000036" y1="136.01694915254234" y2="136.01694915254234" /><text  class="poloto_tick_labels poloto_text" dominant-baseline="middle" text-anchor="end" x="135" y="136.01694915254234" >6.625</text><line  class="poloto_axis_lines" stroke="black" x1="150" x2="144" y1="125.42372881355936" y2="125.42372881355936" /><line  class="poloto_tick_line" stroke="black" x1="150" x2="650.0000000000036" y1="125.42372881355936" y2="125.42372881355936" /><text  class="poloto_tick_labels poloto_text" dominant-baseline="middle" text-anchor="end" x="135" y="125.42372881355936" >6.75</text><line  class="poloto_axis_lines" stroke="black" x1="150" x2="144" y1="114.83050847457628" y2="114.83050847457628" /><line  class="poloto_tick_line" stroke="black" x1="150" x2="650.0000000000036" y1="114.83050847457628" y2="114.83050847457628" /><text  class="poloto_tick_labels poloto_text" dominant-baseline="middle" text-anchor="end" x="135" y="114.83050847457628" >6.875</text><line  class="poloto_axis_lines" stroke="black" x1="150" x2="144" y1="104.23728813559319" y2="104.23728813559319" /><line  class="poloto_tick_line" stroke="black" x1="150" x2="650.0000000000036" y1="104.23728813559319" y2="104.23728813559319" /><text  class="poloto_tick_labels poloto_text" dominant-baseline="middle" text-anchor="end" x="135" y="104.23728813559319" >7</text><text  class="poloto_tick_labels poloto_text" dominant-baseline="middle" text-anchor="start" x="440.00000000000006" y="70" >¹2022-05-01 00:00:00 UTC in Months</text><line  class="poloto_axis_lines" stroke="black" x1="227.31958762887007" x2="227.31958762887007" y1="400" y2="405" /><line  class="poloto_tick_line" stroke="black" x1="227.31958762887007" x2="227.31958762887007" y1="400" y2="100" /><text  class="poloto_tick_labels poloto_text" dominant-baseline="start" text-anchor="middle" x="227.31958762887007" y="430" >2022 May¹</text><line  class="poloto_axis_lines" stroke="black" x1="332.1305841924441" x2="332.1305841924441" y1="400" y2="405" /><line  class="poloto_tick_line" stroke="black" x1="332.1305841924441" x2="332.1305841924441" y1="400" y2="100" /><text  class="poloto_tick_labels poloto_text" dominant-baseline="start" text-anchor="middle" x="332.1305841924441" y="430" >2022 Jul</text><line  class="poloto_axis_lines" stroke="black" x1="438.65979381443685" x2="438.65979381443685" y1="400" y2="405" /><line  class="poloto_tick_line" stroke="black" x1="438.65979381443685" x2="438.65979381443685" y1="400" y2="100" /><text  class="poloto_tick_labels poloto_text" dominant-baseline="start" text-anchor="middle" x="438.65979381443685" y="430" >2022 Sep</text><line  class="poloto_axis_lines" stroke="black" x1="543.4707903780109" x2="543.4707903780109" y1="400" y2="405" /><line  class="poloto_tick_line" stroke="black" x1="543.4707903780109" x2="543.4707903780109" y1="400" y2="100" /><text  class="poloto_tick_labels poloto_text" dominant-baseline="start" text-anchor="middle" x="543.4707903780109" y="430" >2022 Nov</text><line  class="poloto_axis_lines" stroke="black" x1="648.2817869415849" x2="648.2817869415849" y1="400" y2="405" /><line  class="poloto_tick_line" stroke="black" x1="648.2817869415849" x2="648.2817869415849" y1="400" y2="100" /><text  class="poloto_tick_labels poloto_text" dominant-baseline="start" text-anchor="middle" x="648.2817869415849" y="430" >2023 Jan</text><path  stroke="black" fill="none" class="poloto_axis_lines" d=" M 150 400 L 650.0000000000036 400" /><path  stroke="black" fill="none" class="poloto_axis_lines" d=" M 150 400 L 150 100" /></svg>