<svg class="poloto" width="800" height="500" viewBox="0 0 800 500" xmlns="http://www.w3.org/2000/svg"><style>.poloto{stroke-linecap:round;stroke-linejoin:round;font-family:Roboto,sans-serif;font-size:16px;}.poloto_background{fill:#262626;}.poloto_scatter{stroke-width:7}.poloto_tick_line{stroke:dimgray;stroke-width:0.5}.poloto_line{stroke-width:2}.poloto_text{fill: white;}.poloto_axis_lines{stroke: white;stroke-width:3;fill:none;stroke-dasharray:none}.poloto_title{font-size:24px;dominant-baseline:start;text-anchor:middle;}.poloto_xname{font-size:24px;dominant-baseline:start;text-anchor:middle;}.poloto_yname{font-size:24px;dominant-baseline:start;text-anchor:middle;}.poloto0stroke{stroke:blue;}.poloto1stroke{stroke:red;}.poloto2stroke{stroke:green;}.poloto3stroke{stroke:gold;}.poloto4stroke{stroke:aqua;}.poloto5stroke{stroke:lime;}.poloto6stroke{stroke:orange;}.poloto7stroke{stroke:chocolate;}.poloto0fill{fill:blue;}.poloto1fill{fill:red;}.poloto2fill{fill:green;}.poloto3fill{fill:gold;}.poloto4fill{fill:aqua;}.poloto5fill{fill:lime;}.poloto6fill{fill:orange;}.poloto7fill{fill:chocolate;}</style><circle  r="1e5" class="poloto_background" /><text  class="poloto_text poloto_legend_text" x="675" y="100" >Refinance 15</text><line  class="poloto_line poloto_legend_icon poloto0stroke poloto0legend" stroke="black" x1="680" x2="730" y1="81.25" y2="81.25" /><path  class="poloto_line poloto0stroke" fill="none" stroke="black" d=" M 150.00 392.46 L 151.82 400.00 L 157.30 389.32 L 159.12 380.17 L 160.95 389.32 L 160.95 389.32 L 164.60 358.81 L 170.07 357.20 L 171.90 367.88 L 173.72 344.83 L 175.55 346.44 L 177.37 341.61 L 182.85 343.22 L 184.67 336.78 L 184.67 336.78 L 188.32 337.37 L 190.15 314.32 L 195.62 324.32 L 197.45 327.54 L 199.27 327.54 L 201.09 326.69 L 202.92 321.78 L 210.22 278.73 L 212.04 297.88 L 213.87 283.05 L 215.69 277.29 L 215.69 277.29 L 222.99 299.58 L 226.64 303.64 L 228.47 294.58 L 233.94 283.81 L 235.77 305.25 L 237.59 294.58 L 237.59 294.58 L 241.24 292.88 L 246.72 296.19 L 248.54 306.86 L 248.54 306.86 L 250.36 297.80 L 252.19 308.56 L 254.01 292.88 L 259.49 325.08 L 261.31 324.32 L 263.14 306.86 L 263.14 306.86 L 264.96 314.32 L 266.79 317.63 L 272.26 317.63 L 274.09 329.15 L 275.91 329.15 L 277.74 329.15 L 279.56 329.15 L 286.86 317.63 L 288.69 314.32 L 290.51 315.93 L 292.34 315.93 L 292.34 315.93 L 299.64 305.25 L 301.46 305.25 L 303.28 296.19 L 310.58 281.36 L 312.41 250.76 L 314.23 254.15 L 316.06 254.15 L 317.88 275.59 L 323.36 254.15 L 325.18 254.15 L 327.01 273.90 L 328.83 277.29 L 336.13 277.29 L 337.96 275.59 L 339.78 280.59 L 341.61 285.51 L 343.43 296.19 L 350.73 303.64 L 352.55 294.58 L 354.38 287.12 L 356.20 283.81 L 361.68 285.51 L 365.33 285.51 L 367.15 283.81 L 374.45 282.20 L 374.45 282.20 L 374.45 282.20 L 374.45 282.20 L 374.45 282.20 L 374.45 282.20 L 378.10 282.20 L 378.10 282.20 L 378.10 282.20 L 378.10 282.20 L 378.10 282.20 L 378.10 282.20 L 387.23 294.58 L 390.88 297.80 L 392.70 325.93 L 394.53 329.15 L 400.00 329.15 L 401.82 327.54 L 403.65 305.25 L 405.47 299.49 L 407.30 285.51 L 412.77 296.19 L 412.77 296.19 L 414.60 287.12 L 418.25 296.19 L 418.25 296.19 L 427.37 296.19 L 429.20 262.46 L 431.02 282.20 L 438.32 248.39 L 441.97 248.39 L 441.97 248.39 L 445.62 260.76 L 452.92 254.15 L 452.92 254.15 L 452.92 254.15 L 452.92 254.15 L 452.92 254.15 L 452.92 254.15 L 452.92 254.15 L 452.92 254.15 L 452.92 254.15 L 458.39 254.15 L 469.34 232.63 L 476.64 235.17 L 476.64 235.17 L 482.12 235.17 L 489.42 235.17 L 491.24 235.17 L 491.24 235.17 L 491.24 235.17 L 491.24 235.17 L 491.24 235.17 L 514.96 235.17 L 516.79 235.17 L 527.74 139.75 L 529.56 130.68 L 531.39 130.68 L 597.08 159.15 L 604.38 159.15 L 606.20 159.15 L 608.03 175.51 L 611.68 184.49 L 611.68 184.49 L 618.98 184.49 L 620.80 184.49 L 622.63 184.49 L 624.45 184.49 L 629.93 184.49 L 631.75 184.49 L 635.40 184.49 L 637.23 184.49 L 642.70 184.49 L 644.53 184.49 L 644.53 184.49 L 650.00 184.49" /><text  class="poloto_text poloto_legend_text" x="675" y="150" >Refinance 20</text><line  class="poloto_line poloto_legend_icon poloto1stroke poloto1legend" stroke="black" x1="680" x2="730" y1="131.25" y2="131.25" /><path  class="poloto_line poloto1stroke" fill="none" stroke="black" d=" M 150.00 345.68 L 151.82 368.31 L 157.30 334.58 L 159.12 324.24 L 160.95 333.73 L 160.95 333.73 L 164.60 304.07 L 170.07 301.53 L 171.90 312.29 L 173.72 300.25 L 175.55 311.02 L 177.37 290.85 L 182.85 321.69 L 184.67 290.85 L 184.67 290.85 L 188.32 290.85 L 188.32 290.85 L 195.62 250.17 L 197.45 282.71 L 199.27 290.85 L 201.09 301.53 L 202.92 280.59 L 210.22 260.00 L 212.04 257.37 L 213.87 252.12 L 215.69 240.08 L 221.17 245.34 L 222.99 268.14 L 226.64 260.00 L 228.47 257.37 L 233.94 248.81 L 235.77 258.73 L 237.59 258.73 L 237.59 258.73 L 241.24 258.73 L 246.72 260.00 L 248.54 281.44 L 248.54 281.44 L 250.36 269.41 L 252.19 289.58 L 254.01 281.44 L 259.49 282.71 L 261.31 281.44 L 263.14 281.44 L 263.14 281.44 L 264.96 282.71 L 266.79 289.58 L 272.26 290.85 L 274.09 294.66 L 275.91 294.66 L 277.74 294.66 L 279.56 294.66 L 286.86 289.58 L 288.69 278.81 L 290.51 281.44 L 292.34 281.44 L 292.34 281.44 L 299.64 268.14 L 301.46 270.68 L 303.28 261.27 L 310.58 215.85 L 312.41 197.03 L 314.23 207.80 L 316.06 215.85 L 317.88 238.56 L 323.36 225.17 L 325.18 218.47 L 327.01 239.92 L 328.83 250.17 L 336.13 250.17 L 337.96 238.56 L 339.78 249.32 L 341.61 260.00 L 343.43 272.03 L 350.73 280.08 L 352.55 269.41 L 354.38 258.73 L 356.20 251.44 L 361.68 257.37 L 365.33 260.00 L 367.15 258.73 L 374.45 260.00 L 374.45 260.00 L 374.45 260.00 L 374.45 260.00 L 374.45 260.00 L 374.45 260.00 L 374.45 260.00 L 374.45 260.00 L 374.45 260.00 L 374.45 260.00 L 374.45 260.00 L 374.45 260.00 L 387.23 280.08 L 390.88 282.71 L 392.70 301.53 L 394.53 304.07 L 400.00 301.27 L 401.82 301.27 L 403.65 290.85 L 405.47 294.66 L 407.30 278.81 L 412.77 270.68 L 412.77 270.68 L 414.60 270.68 L 418.25 281.44 L 418.25 281.44 L 427.37 278.81 L 429.20 260.00 L 431.02 260.00 L 438.32 246.19 L 441.97 234.58 L 441.97 234.58 L 445.62 247.54 L 452.92 215.85 L 452.92 215.85 L 452.92 215.85 L 452.92 215.85 L 452.92 215.85 L 452.92 215.85 L 452.92 215.85 L 452.92 215.85 L 452.92 215.85 L 458.39 215.85 L 469.34 202.37 L 476.64 203.73 L 480.29 203.73 L 482.12 203.73 L 482.12 203.73 L 491.24 203.73 L 493.07 203.73 L 493.07 203.73 L 493.07 203.73 L 493.07 203.73 L 514.96 203.73 L 516.79 203.73 L 527.74 118.81 L 529.56 102.97 L 529.56 102.97 L 600.73 155.34 L 604.38 155.34 L 606.20 155.34 L 609.85 174.15 L 611.68 175.51 L 611.68 175.51 L 618.98 175.51 L 620.80 175.51 L 622.63 175.51 L 624.45 175.51 L 629.93 175.51 L 631.75 175.51 L 635.40 175.51 L 637.23 175.51 L 642.70 175.51 L 644.53 175.51 L 644.53 175.51 L 650.00 175.51" /><text  class="poloto_text poloto_legend_text" x="675" y="200" >Refinance 30</text><line  class="poloto_line poloto_legend_icon poloto2stroke poloto2legend" stroke="black" x1="680" x2="730" y1="181.25" y2="181.25" /><path  class="poloto_line poloto2stroke" fill="none" stroke="black" d=" M 150.00 343.31 L 151.82 351.36 L 157.30 338.81 L 159.12 328.98 L 160.95 330.85 L 160.95 330.85 L 164.60 310.25 L 170.07 308.47 L 171.90 319.15 L 173.72 307.54 L 175.55 318.22 L 177.37 297.71 L 182.85 307.54 L 184.67 286.95 L 186.50 286.95 L 188.32 286.02 L 190.15 260.00 L 195.62 264.58 L 197.45 276.27 L 199.27 286.95 L 201.09 277.20 L 202.92 265.51 L 210.22 256.61 L 212.04 242.12 L 213.87 240.17 L 215.69 238.14 L 221.17 242.12 L 222.99 258.73 L 226.64 256.61 L 228.47 254.66 L 233.94 244.07 L 235.77 255.59 L 237.59 244.07 L 237.59 244.07 L 241.24 244.07 L 246.72 246.02 L 248.54 264.58 L 248.54 264.58 L 250.36 255.59 L 252.19 256.61 L 254.01 257.54 L 259.49 265.51 L 261.31 256.61 L 263.14 256.61 L 263.14 256.61 L 264.96 266.44 L 266.79 267.46 L 272.26 268.39 L 274.09 277.20 L 275.91 277.20 L 277.74 279.07 L 279.56 279.07 L 286.86 275.25 L 288.69 264.58 L 290.51 266.44 L 292.34 265.51 L 292.34 265.51 L 299.64 255.59 L 301.46 255.59 L 303.28 245.00 L 310.58 202.12 L 312.41 171.78 L 314.23 190.34 L 316.06 202.12 L 317.88 212.80 L 323.36 203.05 L 325.18 202.12 L 327.01 221.61 L 328.83 223.56 L 336.13 223.56 L 337.96 211.86 L 339.78 221.61 L 341.61 232.29 L 343.43 255.59 L 350.73 256.61 L 352.55 245.00 L 354.38 224.58 L 356.20 221.61 L 361.68 241.10 L 365.33 223.56 L 367.15 222.54 L 374.45 242.12 L 374.45 242.12 L 374.45 242.12 L 374.45 242.12 L 374.45 242.12 L 374.45 242.12 L 378.10 242.12 L 378.10 242.12 L 378.10 242.12 L 378.10 242.12 L 378.10 242.12 L 378.10 242.12 L 387.23 254.66 L 390.88 256.61 L 392.70 275.25 L 394.53 287.88 L 400.00 286.95 L 401.82 286.95 L 403.65 265.51 L 405.47 268.39 L 407.30 254.66 L 412.77 265.51 L 412.77 265.51 L 414.60 257.54 L 418.25 266.44 L 418.25 266.44 L 427.37 264.58 L 429.20 246.02 L 431.02 245.00 L 438.32 220.59 L 441.97 211.86 L 441.97 211.86 L 445.62 222.54 L 452.92 210.85 L 452.92 210.85 L 452.92 210.85 L 452.92 210.85 L 452.92 210.85 L 452.92 210.85 L 452.92 210.85 L 452.92 210.85 L 458.39 210.85 L 458.39 209.83 L 469.34 197.03 L 476.64 175.51 L 476.64 175.51 L 482.12 175.51 L 482.12 175.51 L 491.24 175.51 L 493.07 175.51 L 493.07 175.51 L 493.07 175.51 L 493.07 175.51 L 514.96 175.51 L 516.79 175.51 L 527.74 127.03 L 529.56 100.00 L 529.56 100.00 L 600.73 146.44 L 604.38 146.44 L 606.20 146.44 L 608.03 150.76 L 611.68 160.59 L 611.68 160.59 L 618.98 160.59 L 620.80 160.59 L 622.63 160.59 L 624.45 160.59 L 629.93 160.59 L 631.75 160.59 L 635.40 160.59 L 637.23 160.59 L 642.70 160.59 L 644.53 160.59 L 644.53 160.59 L 650.00 160.59" /><text  class="poloto_labels poloto_text poloto_title" x="400" y="37.5" >lower.com purchase rates</text><text  class="poloto_labels poloto_text poloto_xname" x="400" y="481.25" >Date</text><text  class="poloto_labels poloto_text poloto_yname" transform="rotate(-90,37.5,250)" x="37.5" y="250" >Rate (%)</text><text  class="poloto_tick_labels poloto_text" dominant-baseline="middle" text-anchor="start" x="150" y="70" ></text><line  class="poloto_axis_lines" stroke="black" x1="150" x2="144" y1="390.2542372881356" y2="390.2542372881356" /><line  class="poloto_tick_line" stroke="black" x1="150" x2="650" y1="390.2542372881356" y2="390.2542372881356" /><text  class="poloto_tick_labels poloto_text" dominant-baseline="middle" text-anchor="end" x="135" y="390.2542372881356" >3.625</text><line  class="poloto_axis_lines" stroke="black" x1="150" x2="144" y1="379.66101694915255" y2="379.66101694915255" /><line  class="poloto_tick_line" stroke="black" x1="150" x2="650" y1="379.66101694915255" y2="379.66101694915255" /><text  class="poloto_tick_labels poloto_text" dominant-baseline="middle" text-anchor="end" x="135" y="379.66101694915255" >3.75</text><line  class="poloto_axis_lines" stroke="black" x1="150" x2="144" y1="369.06779661016947" y2="369.06779661016947" /><line  class="poloto_tick_line" stroke="black" x1="150" x2="650" y1="369.06779661016947" y2="369.06779661016947" /><text  class="poloto_tick_labels poloto_text" dominant-baseline="middle" text-anchor="end" x="135" y="369.06779661016947" >3.875</text><line  class="poloto_axis_lines" stroke="black" x1="150" x2="144" y1="358.47457627118644" y2="358.47457627118644" /><line  class="poloto_tick_line" stroke="black" x1="150" x2="650" y1="358.47457627118644" y2="358.47457627118644" /><text  class="poloto_tick_labels poloto_text" dominant-baseline="middle" text-anchor="end" x="135" y="358.47457627118644" >4</text><line  class="poloto_axis_lines" stroke="black" x1="150" x2="144" y1="347.8813559322034" y2="347.8813559322034" /><line  class="poloto_tick_line" stroke="black" x1="150" x2="650" y1="347.8813559322034" y2="347.8813559322034" /><text  class="poloto_tick_labels poloto_text" dominant-baseline="middle" text-anchor="end" x="135" y="347.8813559322034" >4.125</text><line  class="poloto_axis_lines" stroke="black" x1="150" x2="144" y1="337.2881355932203" y2="337.2881355932203" /><line  class="poloto_tick_line" stroke="black" x1="150" x2="650" y1="337.2881355932203" y2="337.2881355932203" /><text  class="poloto_tick_labels poloto_text" dominant-baseline="middle" text-anchor="end" x="135" y="337.2881355932203" >4.25</text><line  class="poloto_axis_lines" stroke="black" x1="150" x2="144" y1="326.6949152542373" y2="326.6949152542373" /><line  class="poloto_tick_line" stroke="black" x1="150" x2="650" y1="326.6949152542373" y2="326.6949152542373" /><text  class="poloto_tick_labels poloto_text" dominant-baseline="middle" text-anchor="end" x="135" y="326.6949152542373" >4.375</text><line  class="poloto_axis_lines" stroke="black" x1="150" x2="144" y1="316.10169491525426" y2="316.10169491525426" /><line  class="poloto_tick_line" stroke="black" x1="150" x2="650" y1="316.10169491525426" y2="316.10169491525426" /><text  class="poloto_tick_labels poloto_text" dominant-baseline="middle" text-anchor="end" x="135" y="316.10169491525426" >4.5</text><line  class="poloto_axis_lines" stroke="black" x1="150" x2="144" y1="305.50847457627117" y2="305.50847457627117" /><line  class="poloto_tick_line" stroke="black" x1="150" x2="650" y1="305.50847457627117" y2="305.50847457627117" /><text  class="poloto_tick_labels poloto_text" dominant-baseline="middle" text-anchor="end" x="135" y="305.50847457627117" >4.625</text><line  class="poloto_axis_lines" stroke="black" x1="150" x2="144" y1="294.91525423728814" y2="294.91525423728814" /><line  class="poloto_tick_line" stroke="black" x1="150" x2="650" y1="294.91525423728814" y2="294.91525423728814" /><text  class="poloto_tick_labels poloto_text" dominant-baseline="middle" text-anchor="end" x="135" y="294.91525423728814" >4.75</text><line  class="poloto_axis_lines" stroke="black" x1="150" x2="144" y1="284.3220338983051" y2="284.3220338983051" /><line  class="poloto_tick_line" stroke="black" x1="150" x2="650" y1="284.3220338983051" y2="284.3220338983051" /><text  class="poloto_tick_labels poloto_text" dominant-baseline="middle" text-anchor="end" x="135" y="284.3220338983051" >4.875</text><line  class="poloto_axis_lines" stroke="black" x1="150" x2="144" y1="273.728813559322" y2="273.728813559322" /><line  class="poloto_tick_line" stroke="black" x1="150" x2="650" y1="273.728813559322" y2="273.728813559322" /><text  class="poloto_tick_labels poloto_text" dominant-baseline="middle" text-anchor="end" x="135" y="273.728813559322" >5</text><line  class="poloto_axis_lines" stroke="black" x1="150" x2="144" y1="263.135593220339" y2="263.135593220339" /><line  class="poloto_tick_line" stroke="black" x1="150" x2="650" y1="263.135593220339" y2="263.135593220339" /><text  class="poloto_tick_labels poloto_text" dominant-baseline="middle" text-anchor="end" x="135" y="263.135593220339" >5.125</text><line  class="poloto_axis_lines" stroke="black" x1="150" x2="144" y1="252.54237288135596" y2="252.54237288135596" /><line  class="poloto_tick_line" stroke="black" x1="150" x2="650" y1="252.54237288135596" y2="252.54237288135596" /><text  class="poloto_tick_labels poloto_text" dominant-baseline="middle" text-anchor="end" x="135" y="252.54237288135596" >5.25</text><line  class="poloto_axis_lines" stroke="black" x1="150" x2="144" y1="241.94915254237287" y2="241.94915254237287" /><line  class="poloto_tick_line" stroke="black" x1="150" x2="650" y1="241.94915254237287" y2="241.94915254237287" /><text  class="poloto_tick_labels poloto_text" dominant-baseline="middle" text-anchor="end" x="135" y="241.94915254237287" >5.375</text><line  class="poloto_axis_lines" stroke="black" x1="150" x2="144" y1="231.35593220338984" y2="231.35593220338984" /><line  class="poloto_tick_line" stroke="black" x1="150" x2="650" y1="231.35593220338984" y2="231.35593220338984" /><text  class="poloto_tick_labels poloto_text" dominant-baseline="middle" text-anchor="end" x="135" y="231.35593220338984" >5.5</text><line  class="poloto_axis_lines" stroke="black" x1="150" x2="144" y1="220.7627118644068" y2="220.7627118644068" /><line  class="poloto_tick_line" stroke="black" x1="150" x2="650" y1="220.7627118644068" y2="220.7627118644068" /><text  class="poloto_tick_labels poloto_text" dominant-baseline="middle" text-anchor="end" x="135" y="220.7627118644068" >5.625</text><line  class="poloto_axis_lines" stroke="black" x1="150" x2="144" y1="210.16949152542372" y2="210.16949152542372" /><line  class="poloto_tick_line" stroke="black" x1="150" x2="650" y1="210.16949152542372" y2="210.16949152542372" /><text  class="poloto_tick_labels poloto_text" dominant-baseline="middle" text-anchor="end" x="135" y="210.16949152542372" >5.75</text><line  class="poloto_axis_lines" stroke="black" x1="150" x2="144" y1="199.5762711864407" y2="199.5762711864407" /><line  class="poloto_tick_line" stroke="black" x1="150" x2="650" y1="199.5762711864407" y2="199.5762711864407" /><text  class="poloto_tick_labels poloto_text" dominant-baseline="middle" text-anchor="end" x="135" y="199.5762711864407" >5.875</text><line  class="poloto_axis_lines" stroke="black" x1="150" x2="144" y1="188.98305084745766" y2="188.98305084745766" /><line  class="poloto_tick_line" stroke="black" x1="150" x2="650" y1="188.98305084745766" y2="188.98305084745766" /><text  class="poloto_tick_labels poloto_text" dominant-baseline="middle" text-anchor="end" x="135" y="188.98305084745766" >6</text><line  class="poloto_axis_lines" stroke="black" x1="150" x2="144" y1="178.38983050847457" y2="178.38983050847457" /><line  class="poloto_tick_line" stroke="black" x1="150" x2="650" y1="178.38983050847457" y2="178.38983050847457" /><text  class="poloto_tick_labels poloto_text" dominant-baseline="middle" text-anchor="end" x="135" y="178.38983050847457" >6.125</text><line  class="poloto_axis_lines" stroke="black" x1="150" x2="144" y1="167.7966101694915" y2="167.7966101694915" /><line  class="poloto_tick_line" stroke="black" x1="150" x2="650" y1="167.7966101694915" y2="167.7966101694915" /><text  class="poloto_tick_labels poloto_text" dominant-baseline="middle" text-anchor="end" x="135" y="167.7966101694915" >6.25</text><line  class="poloto_axis_lines" stroke="black" x1="150" x2="144" y1="157.2033898305085" y2="157.2033898305085" /><line  class="poloto_tick_line" stroke="black" x1="150" x2="650" y1="157.2033898305085" y2="157.2033898305085" /><text  class="poloto_tick_labels poloto_text" dominant-baseline="middle" text-anchor="end" x="135" y="157.2033898305085" >6.375</text><line  class="poloto_axis_lines" stroke="black" x1="150" x2="144" y1="146.61016949152543" y2="146.61016949152543" /><line  class="poloto_tick_line" stroke="black" x1="150" x2="650" y1="146.61016949152543" y2="146.61016949152543" /><text  class="poloto_tick_labels poloto_text" dominant-baseline="middle" text-anchor="end" x="135" y="146.61016949152543" >6.5</text><line  class="poloto_axis_lines" stroke="black" x1="150" x2="144" y1="136.01694915254234" y2="136.01694915254234" /><line  class="poloto_tick_line" stroke="black" x1="150" x2="650" y1="136.01694915254234" y2="136.01694915254234" /><text  class="poloto_tick_labels poloto_text" dominant-baseline="middle" text-anchor="end" x="135" y="136.01694915254234" >6.625</text><line  class="poloto_axis_lines" stroke="black" x1="150" x2="144" y1="125.42372881355936" y2="125.42372881355936" /><line  class="poloto_tick_line" stroke="black" x1="150" x2="650" y1="125.42372881355936" y2="125.42372881355936" /><text  class="poloto_tick_labels poloto_text" dominant-baseline="middle" text-anchor="end" x="135" y="125.42372881355936" >6.75</text><line  class="poloto_axis_lines" stroke="black" x1="150" x2="144" y1="114.83050847457628" y2="114.83050847457628" /><line  class="poloto_tick_line" stroke="black" x1="150" x2="650" y1="114.83050847457628" y2="114.83050847457628" /><text  class="poloto_tick_labels poloto_text" dominant-baseline="middle" text-anchor="end" x="135" y="114.83050847457628" >6.875</text><line  class="poloto_axis_lines" stroke="black" x1="150" x2="144" y1="104.23728813559319" y2="104.23728813559319" /><line  class="poloto_tick_line" stroke="black" x1="150" x2="650" y1="104.23728813559319" y2="104.23728813559319" /><text  class="poloto_tick_labels poloto_text" dominant-baseline="middle" text-anchor="end" x="135" y="104.23728813559319" >7</text><text  class="poloto_tick_labels poloto_text" dominant-baseline="middle" text-anchor="start" x="440.00000000000006" y="70" >¹2022-05-01 00:00:00 UTC in Months</text><line  class="poloto_axis_lines" stroke="black" x1="232.1167883211674" x2="232.1167883211674" y1="400" y2="405" /><line  class="poloto_tick_line" stroke="black" x1="232.1167883211674" x2="232.1167883211674" y1="400" y2="100" /><text  class="poloto_tick_labels poloto_text" dominant-baseline="start" text-anchor="middle" x="232.1167883211674" y="430" >2022 May¹</text><line  class="poloto_axis_lines" stroke="black" x1="343.4306569343098" x2="343.4306569343098" y1="400" y2="405" /><line  class="poloto_tick_line" stroke="black" x1="343.4306569343098" x2="343.4306569343098" y1="400" y2="100" /><text  class="poloto_tick_labels poloto_text" dominant-baseline="start" text-anchor="middle" x="343.4306569343098" y="430" >2022 Jul</text><line  class="poloto_axis_lines" stroke="black" x1="456.56934306569747" x2="456.56934306569747" y1="400" y2="405" /><line  class="poloto_tick_line" stroke="black" x1="456.56934306569747" x2="456.56934306569747" y1="400" y2="100" /><text  class="poloto_tick_labels poloto_text" dominant-baseline="start" text-anchor="middle" x="456.56934306569747" y="430" >2022 Sep</text><line  class="poloto_axis_lines" stroke="black" x1="567.8832116788326" x2="567.8832116788326" y1="400" y2="405" /><line  class="poloto_tick_line" stroke="black" x1="567.8832116788326" x2="567.8832116788326" y1="400" y2="100" /><text  class="poloto_tick_labels poloto_text" dominant-baseline="start" text-anchor="middle" x="567.8832116788326" y="430" >2022 Nov</text><path  stroke="black" fill="none" class="poloto_axis_lines" d=" M 150 400 L 650 400" /><path  stroke="black" fill="none" class="poloto_axis_lines" d=" M 150 400 L 150 100" /></svg>