<svg class="poloto" width="800" height="500" viewBox="0 0 800 500" xmlns="http://www.w3.org/2000/svg"><style>.poloto{stroke-linecap:round;stroke-linejoin:round;font-family:Roboto,sans-serif;font-size:16px;}.poloto_background{fill:#262626;}.poloto_scatter{stroke-width:7}.poloto_tick_line{stroke:dimgray;stroke-width:0.5}.poloto_line{stroke-width:2}.poloto_text{fill: white;}.poloto_axis_lines{stroke: white;stroke-width:3;fill:none;stroke-dasharray:none}.poloto_title{font-size:24px;dominant-baseline:start;text-anchor:middle;}.poloto_xname{font-size:24px;dominant-baseline:start;text-anchor:middle;}.poloto_yname{font-size:24px;dominant-baseline:start;text-anchor:middle;}.poloto0stroke{stroke:blue;}.poloto1stroke{stroke:red;}.poloto2stroke{stroke:green;}.poloto3stroke{stroke:gold;}.poloto4stroke{stroke:aqua;}.poloto5stroke{stroke:lime;}.poloto6stroke{stroke:orange;}.poloto7stroke{stroke:chocolate;}.poloto0fill{fill:blue;}.poloto1fill{fill:red;}.poloto2fill{fill:green;}.poloto3fill{fill:gold;}.poloto4fill{fill:aqua;}.poloto5fill{fill:lime;}.poloto6fill{fill:orange;}.poloto7fill{fill:chocolate;}</style><circle  r="1e5" class="poloto_background" /><text  class="poloto_text poloto_legend_text" x="675" y="100" >Refinance 15</text><line  class="poloto_line poloto_legend_icon poloto0stroke poloto0legend" stroke="black" x1="680" x2="730" y1="81.25" y2="81.25" /><path  class="poloto_line poloto0stroke" fill="none" stroke="black" d=" M 150.00 392.46 L 151.52 400.00 L 156.08 389.32 L 157.60 380.17 L 159.12 389.32 L 159.12 389.32 L 162.16 358.81 L 166.72 357.20 L 168.24 367.88 L 169.76 344.83 L 171.28 346.44 L 172.80 341.61 L 177.36 343.22 L 178.88 336.78 L 178.88 336.78 L 181.91 337.37 L 183.43 314.32 L 187.99 324.32 L 189.51 327.54 L 191.03 327.54 L 192.55 326.69 L 194.07 321.78 L 200.15 278.73 L 201.67 297.88 L 203.19 283.05 L 204.71 277.29 L 204.71 277.29 L 210.79 299.58 L 213.83 303.64 L 215.35 294.58 L 219.91 283.81 L 221.43 305.25 L 222.95 294.58 L 222.95 294.58 L 225.99 292.88 L 230.55 296.19 L 232.07 306.86 L 232.07 306.86 L 233.59 297.80 L 235.11 308.56 L 236.63 292.88 L 241.19 325.08 L 242.71 324.32 L 244.22 306.86 L 244.22 306.86 L 245.74 314.32 L 247.26 317.63 L 251.82 317.63 L 253.34 329.15 L 254.86 329.15 L 256.38 329.15 L 257.90 329.15 L 263.98 317.63 L 265.50 314.32 L 267.02 315.93 L 268.54 315.93 L 268.54 315.93 L 274.62 305.25 L 276.14 305.25 L 277.66 296.19 L 283.74 281.36 L 285.26 250.76 L 286.78 254.15 L 288.30 254.15 L 289.82 275.59 L 294.38 254.15 L 295.90 254.15 L 297.42 273.90 L 298.94 277.29 L 305.02 277.29 L 306.53 275.59 L 308.05 280.59 L 309.57 285.51 L 311.09 296.19 L 317.17 303.64 L 318.69 294.58 L 320.21 287.12 L 321.73 283.81 L 326.29 285.51 L 329.33 285.51 L 330.85 283.81 L 336.93 282.20 L 336.93 282.20 L 336.93 282.20 L 336.93 282.20 L 336.93 282.20 L 336.93 282.20 L 339.97 282.20 L 339.97 282.20 L 339.97 282.20 L 339.97 282.20 L 339.97 282.20 L 339.97 282.20 L 347.57 294.58 L 350.61 297.80 L 352.13 325.93 L 353.65 329.15 L 358.21 329.15 L 359.73 327.54 L 361.25 305.25 L 362.77 299.49 L 364.29 285.51 L 368.84 296.19 L 368.84 296.19 L 370.36 287.12 L 373.40 296.19 L 373.40 296.19 L 381.00 296.19 L 382.52 262.46 L 384.04 282.20 L 390.12 248.39 L 393.16 248.39 L 393.16 248.39 L 396.20 260.76 L 402.28 254.15 L 402.28 254.15 L 402.28 254.15 L 402.28 254.15 L 402.28 254.15 L 402.28 254.15 L 402.28 254.15 L 402.28 254.15 L 402.28 254.15 L 406.84 254.15 L 415.96 232.63 L 422.04 235.17 L 422.04 235.17 L 426.60 235.17 L 432.67 235.17 L 434.19 235.17 L 434.19 235.17 L 434.19 235.17 L 434.19 235.17 L 434.19 235.17 L 453.95 235.17 L 455.47 235.17 L 464.59 139.75 L 466.11 130.68 L 467.63 130.68 L 522.34 159.15 L 528.42 159.15 L 529.94 159.15 L 531.46 175.51 L 534.50 184.49 L 534.50 184.49 L 540.58 184.49 L 542.10 184.49 L 543.62 184.49 L 545.14 184.49 L 549.70 184.49 L 551.22 184.49 L 554.26 184.49 L 555.78 184.49 L 560.33 184.49 L 561.85 184.49 L 561.85 184.49 L 566.41 184.49 L 570.97 184.49 L 572.49 184.49 L 574.01 184.49 L 575.53 184.49 L 577.05 184.49 L 583.13 209.15 L 584.65 180.68 L 586.17 159.15 L 587.69 169.92 L 592.25 169.92 L 593.77 169.92 L 593.77 169.92 L 596.81 193.05 L 598.33 193.05 L 602.89 193.05 L 604.41 193.05 L 605.93 193.05 L 607.45 193.05 L 608.97 193.05 L 608.97 193.05 L 608.97 193.05 L 608.97 193.05 L 616.57 193.05 L 619.60 193.05 L 624.16 193.05 L 625.68 193.05 L 628.72 193.05 L 630.24 193.05 L 636.32 193.05 L 637.84 193.05 L 639.36 193.05 L 640.88 223.56 L 645.44 230.34 L 646.96 191.36 L 648.48 203.81 L 650.00 202.12" /><text  class="poloto_text poloto_legend_text" x="675" y="150" >Refinance 20</text><line  class="poloto_line poloto_legend_icon poloto1stroke poloto1legend" stroke="black" x1="680" x2="730" y1="131.25" y2="131.25" /><path  class="poloto_line poloto1stroke" fill="none" stroke="black" d=" M 150.00 345.68 L 151.52 368.31 L 156.08 334.58 L 157.60 324.24 L 159.12 333.73 L 159.12 333.73 L 162.16 304.07 L 166.72 301.53 L 168.24 312.29 L 169.76 300.25 L 171.28 311.02 L 172.80 290.85 L 177.36 321.69 L 178.88 290.85 L 178.88 290.85 L 181.91 290.85 L 181.91 290.85 L 187.99 250.17 L 189.51 282.71 L 191.03 290.85 L 192.55 301.53 L 194.07 280.59 L 200.15 260.00 L 201.67 257.37 L 203.19 252.12 L 204.71 240.08 L 209.27 245.34 L 210.79 268.14 L 213.83 260.00 L 215.35 257.37 L 219.91 248.81 L 221.43 258.73 L 222.95 258.73 L 222.95 258.73 L 225.99 258.73 L 230.55 260.00 L 232.07 281.44 L 232.07 281.44 L 233.59 269.41 L 235.11 289.58 L 236.63 281.44 L 241.19 282.71 L 242.71 281.44 L 244.22 281.44 L 244.22 281.44 L 245.74 282.71 L 247.26 289.58 L 251.82 290.85 L 253.34 294.66 L 254.86 294.66 L 256.38 294.66 L 257.90 294.66 L 263.98 289.58 L 265.50 278.81 L 267.02 281.44 L 268.54 281.44 L 268.54 281.44 L 274.62 268.14 L 276.14 270.68 L 277.66 261.27 L 283.74 215.85 L 285.26 197.03 L 286.78 207.80 L 288.30 215.85 L 289.82 238.56 L 294.38 225.17 L 295.90 218.47 L 297.42 239.92 L 298.94 250.17 L 305.02 250.17 L 306.53 238.56 L 308.05 249.32 L 309.57 260.00 L 311.09 272.03 L 317.17 280.08 L 318.69 269.41 L 320.21 258.73 L 321.73 251.44 L 326.29 257.37 L 329.33 260.00 L 330.85 258.73 L 336.93 260.00 L 336.93 260.00 L 336.93 260.00 L 336.93 260.00 L 336.93 260.00 L 336.93 260.00 L 336.93 260.00 L 336.93 260.00 L 336.93 260.00 L 336.93 260.00 L 336.93 260.00 L 336.93 260.00 L 347.57 280.08 L 350.61 282.71 L 352.13 301.53 L 353.65 304.07 L 358.21 301.27 L 359.73 301.27 L 361.25 290.85 L 362.77 294.66 L 364.29 278.81 L 368.84 270.68 L 368.84 270.68 L 370.36 270.68 L 373.40 281.44 L 373.40 281.44 L 381.00 278.81 L 382.52 260.00 L 384.04 260.00 L 390.12 246.19 L 393.16 234.58 L 393.16 234.58 L 396.20 247.54 L 402.28 215.85 L 402.28 215.85 L 402.28 215.85 L 402.28 215.85 L 402.28 215.85 L 402.28 215.85 L 402.28 215.85 L 402.28 215.85 L 402.28 215.85 L 406.84 215.85 L 415.96 202.37 L 422.04 203.73 L 425.08 203.73 L 426.60 203.73 L 426.60 203.73 L 434.19 203.73 L 435.71 203.73 L 435.71 203.73 L 435.71 203.73 L 435.71 203.73 L 453.95 203.73 L 455.47 203.73 L 464.59 118.81 L 466.11 102.97 L 466.11 102.97 L 525.38 155.34 L 528.42 155.34 L 529.94 155.34 L 532.98 174.15 L 534.50 175.51 L 534.50 175.51 L 540.58 175.51 L 542.10 175.51 L 543.62 175.51 L 545.14 175.51 L 549.70 175.51 L 551.22 175.51 L 554.26 175.51 L 555.78 175.51 L 560.33 175.51 L 561.85 175.51 L 561.85 175.51 L 566.41 175.51 L 570.97 175.51 L 572.49 175.51 L 574.01 175.51 L 575.53 175.51 L 577.05 175.51 L 583.13 156.36 L 584.65 145.93 L 586.17 144.58 L 587.69 147.37 L 592.25 147.37 L 593.77 147.37 L 593.77 147.37 L 596.81 167.46 L 598.33 167.46 L 602.89 167.46 L 604.41 167.46 L 605.93 167.46 L 607.45 167.46 L 608.97 167.46 L 608.97 167.46 L 615.05 167.46 L 615.05 167.46 L 616.57 167.46 L 619.60 167.46 L 624.16 167.46 L 625.68 167.46 L 628.72 167.46 L 630.24 167.46 L 636.32 167.46 L 637.84 167.46 L 639.36 167.46 L 640.88 190.34 L 645.44 188.98 L 646.96 156.69 L 648.48 158.05 L 648.48 158.05" /><text  class="poloto_text poloto_legend_text" x="675" y="200" >Refinance 30</text><line  class="poloto_line poloto_legend_icon poloto2stroke poloto2legend" stroke="black" x1="680" x2="730" y1="181.25" y2="181.25" /><path  class="poloto_line poloto2stroke" fill="none" stroke="black" d=" M 150.00 343.31 L 151.52 351.36 L 156.08 338.81 L 157.60 328.98 L 159.12 330.85 L 159.12 330.85 L 162.16 310.25 L 166.72 308.47 L 168.24 319.15 L 169.76 307.54 L 171.28 318.22 L 172.80 297.71 L 177.36 307.54 L 178.88 286.95 L 180.40 286.95 L 181.91 286.02 L 183.43 260.00 L 187.99 264.58 L 189.51 276.27 L 191.03 286.95 L 192.55 277.20 L 194.07 265.51 L 200.15 256.61 L 201.67 242.12 L 203.19 240.17 L 204.71 238.14 L 209.27 242.12 L 210.79 258.73 L 213.83 256.61 L 215.35 254.66 L 219.91 244.07 L 221.43 255.59 L 222.95 244.07 L 222.95 244.07 L 225.99 244.07 L 230.55 246.02 L 232.07 264.58 L 232.07 264.58 L 233.59 255.59 L 235.11 256.61 L 236.63 257.54 L 241.19 265.51 L 242.71 256.61 L 244.22 256.61 L 244.22 256.61 L 245.74 266.44 L 247.26 267.46 L 251.82 268.39 L 253.34 277.20 L 254.86 277.20 L 256.38 279.07 L 257.90 279.07 L 263.98 275.25 L 265.50 264.58 L 267.02 266.44 L 268.54 265.51 L 268.54 265.51 L 274.62 255.59 L 276.14 255.59 L 277.66 245.00 L 283.74 202.12 L 285.26 171.78 L 286.78 190.34 L 288.30 202.12 L 289.82 212.80 L 294.38 203.05 L 295.90 202.12 L 297.42 221.61 L 298.94 223.56 L 305.02 223.56 L 306.53 211.86 L 308.05 221.61 L 309.57 232.29 L 311.09 255.59 L 317.17 256.61 L 318.69 245.00 L 320.21 224.58 L 321.73 221.61 L 326.29 241.10 L 329.33 223.56 L 330.85 222.54 L 336.93 242.12 L 336.93 242.12 L 336.93 242.12 L 336.93 242.12 L 336.93 242.12 L 336.93 242.12 L 339.97 242.12 L 339.97 242.12 L 339.97 242.12 L 339.97 242.12 L 339.97 242.12 L 339.97 242.12 L 347.57 254.66 L 350.61 256.61 L 352.13 275.25 L 353.65 287.88 L 358.21 286.95 L 359.73 286.95 L 361.25 265.51 L 362.77 268.39 L 364.29 254.66 L 368.84 265.51 L 368.84 265.51 L 370.36 257.54 L 373.40 266.44 L 373.40 266.44 L 381.00 264.58 L 382.52 246.02 L 384.04 245.00 L 390.12 220.59 L 393.16 211.86 L 393.16 211.86 L 396.20 222.54 L 402.28 210.85 L 402.28 210.85 L 402.28 210.85 L 402.28 210.85 L 402.28 210.85 L 402.28 210.85 L 402.28 210.85 L 402.28 210.85 L 406.84 210.85 L 406.84 209.83 L 415.96 197.03 L 422.04 175.51 L 422.04 175.51 L 426.60 175.51 L 426.60 175.51 L 434.19 175.51 L 435.71 175.51 L 435.71 175.51 L 435.71 175.51 L 435.71 175.51 L 453.95 175.51 L 455.47 175.51 L 464.59 127.03 L 466.11 100.00 L 466.11 100.00 L 525.38 146.44 L 528.42 146.44 L 529.94 146.44 L 531.46 150.76 L 534.50 160.59 L 534.50 160.59 L 540.58 160.59 L 542.10 160.59 L 543.62 160.59 L 545.14 160.59 L 549.70 160.59 L 551.22 160.59 L 554.26 160.59 L 555.78 160.59 L 560.33 160.59 L 561.85 160.59 L 561.85 160.59 L 566.41 160.59 L 570.97 160.59 L 572.49 160.59 L 574.01 160.59 L 575.53 160.59 L 577.05 160.59 L 583.13 144.24 L 584.65 152.88 L 586.17 132.37 L 587.69 152.88 L 592.25 152.88 L 593.77 152.88 L 593.77 152.88 L 596.81 152.88 L 598.33 152.88 L 602.89 152.88 L 604.41 152.88 L 605.93 152.88 L 607.45 152.88 L 608.97 152.88 L 608.97 152.88 L 615.05 152.88 L 615.05 152.88 L 616.57 152.88 L 619.60 152.88 L 624.16 152.88 L 625.68 152.88 L 628.72 152.88 L 630.24 152.88 L 636.32 152.88 L 637.84 152.88 L 639.36 152.88 L 640.88 207.80 L 645.44 197.03 L 646.96 153.98 L 648.48 186.27 L 650.00 153.98" /><text  class="poloto_labels poloto_text poloto_title" x="400" y="37.5" >lower.com purchase rates</text><text  class="poloto_labels poloto_text poloto_xname" x="400" y="481.25" >Date</text><text  class="poloto_labels poloto_text poloto_yname" transform="rotate(-90,37.5,250)" x="37.5" y="250" >Rate (%)</text><text  class="poloto_tick_labels poloto_text" dominant-baseline="middle" text-anchor="start" x="150" y="70" ></text><line  class="poloto_axis_lines" stroke="black" x1="150" x2="144" y1="390.2542372881356" y2="390.2542372881356" /><line  class="poloto_tick_line" stroke="black" x1="150" x2="650" y1="390.2542372881356" y2="390.2542372881356" /><text  class="poloto_tick_labels poloto_text" dominant-baseline="middle" text-anchor="end" x="135" y="390.2542372881356" >3.625</text><line  class="poloto_axis_lines" stroke="black" x1="150" x2="144" y1="379.66101694915255" y2="379.66101694915255" /><line  class="poloto_tick_line" stroke="black" x1="150" x2="650" y1="379.66101694915255" y2="379.66101694915255" /><text  class="poloto_tick_labels poloto_text" dominant-baseline="middle" text-anchor="end" x="135" y="379.66101694915255" >3.75</text><line  class="poloto_axis_lines" stroke="black" x1="150" x2="144" y1="369.06779661016947" y2="369.06779661016947" /><line  class="poloto_tick_line" stroke="black" x1="150" x2="650" y1="369.06779661016947" y2="369.06779661016947" /><text  class="poloto_tick_labels poloto_text" dominant-baseline="middle" text-anchor="end" x="135" y="369.06779661016947" >3.875</text><line  class="poloto_axis_lines" stroke="black" x1="150" x2="144" y1="358.47457627118644" y2="358.47457627118644" /><line  class="poloto_tick_line" stroke="black" x1="150" x2="650" y1="358.47457627118644" y2="358.47457627118644" /><text  class="poloto_tick_labels poloto_text" dominant-baseline="middle" text-anchor="end" x="135" y="358.47457627118644" >4</text><line  class="poloto_axis_lines" stroke="black" x1="150" x2="144" y1="347.8813559322034" y2="347.8813559322034" /><line  class="poloto_tick_line" stroke="black" x1="150" x2="650" y1="347.8813559322034" y2="347.8813559322034" /><text  class="poloto_tick_labels poloto_text" dominant-baseline="middle" text-anchor="end" x="135" y="347.8813559322034" >4.125</text><line  class="poloto_axis_lines" stroke="black" x1="150" x2="144" y1="337.2881355932203" y2="337.2881355932203" /><line  class="poloto_tick_line" stroke="black" x1="150" x2="650" y1="337.2881355932203" y2="337.2881355932203" /><text  class="poloto_tick_labels poloto_text" dominant-baseline="middle" text-anchor="end" x="135" y="337.2881355932203" >4.25</text><line  class="poloto_axis_lines" stroke="black" x1="150" x2="144" y1="326.6949152542373" y2="326.6949152542373" /><line  class="poloto_tick_line" stroke="black" x1="150" x2="650" y1="326.6949152542373" y2="326.6949152542373" /><text  class="poloto_tick_labels poloto_text" dominant-baseline="middle" text-anchor="end" x="135" y="326.6949152542373" >4.375</text><line  class="poloto_axis_lines" stroke="black" x1="150" x2="144" y1="316.10169491525426" y2="316.10169491525426" /><line  class="poloto_tick_line" stroke="black" x1="150" x2="650" y1="316.10169491525426" y2="316.10169491525426" /><text  class="poloto_tick_labels poloto_text" dominant-baseline="middle" text-anchor="end" x="135" y="316.10169491525426" >4.5</text><line  class="poloto_axis_lines" stroke="black" x1="150" x2="144" y1="305.50847457627117" y2="305.50847457627117" /><line  class="poloto_tick_line" stroke="black" x1="150" x2="650" y1="305.50847457627117" y2="305.50847457627117" /><text  class="poloto_tick_labels poloto_text" dominant-baseline="middle" text-anchor="end" x="135" y="305.50847457627117" >4.625</text><line  class="poloto_axis_lines" stroke="black" x1="150" x2="144" y1="294.91525423728814" y2="294.91525423728814" /><line  class="poloto_tick_line" stroke="black" x1="150" x2="650" y1="294.91525423728814" y2="294.91525423728814" /><text  class="poloto_tick_labels poloto_text" dominant-baseline="middle" text-anchor="end" x="135" y="294.91525423728814" >4.75</text><line  class="poloto_axis_lines" stroke="black" x1="150" x2="144" y1="284.3220338983051" y2="284.3220338983051" /><line  class="poloto_tick_line" stroke="black" x1="150" x2="650" y1="284.3220338983051" y2="284.3220338983051" /><text  class="poloto_tick_labels poloto_text" dominant-baseline="middle" text-anchor="end" x="135" y="284.3220338983051" >4.875</text><line  class="poloto_axis_lines" stroke="black" x1="150" x2="144" y1="273.728813559322" y2="273.728813559322" /><line  class="poloto_tick_line" stroke="black" x1="150" x2="650" y1="273.728813559322" y2="273.728813559322" /><text  class="poloto_tick_labels poloto_text" dominant-baseline="middle" text-anchor="end" x="135" y="273.728813559322" >5</text><line  class="poloto_axis_lines" stroke="black" x1="150" x2="144" y1="263.135593220339" y2="263.135593220339" /><line  class="poloto_tick_line" stroke="black" x1="150" x2="650" y1="263.135593220339" y2="263.135593220339" /><text  class="poloto_tick_labels poloto_text" dominant-baseline="middle" text-anchor="end" x="135" y="263.135593220339" >5.125</text><line  class="poloto_axis_lines" stroke="black" x1="150" x2="144" y1="252.54237288135596" y2="252.54237288135596" /><line  class="poloto_tick_line" stroke="black" x1="150" x2="650" y1="252.54237288135596" y2="252.54237288135596" /><text  class="poloto_tick_labels poloto_text" dominant-baseline="middle" text-anchor="end" x="135" y="252.54237288135596" >5.25</text><line  class="poloto_axis_lines" stroke="black" x1="150" x2="144" y1="241.94915254237287" y2="241.94915254237287" /><line  class="poloto_tick_line" stroke="black" x1="150" x2="650" y1="241.94915254237287" y2="241.94915254237287" /><text  class="poloto_tick_labels poloto_text" dominant-baseline="middle" text-anchor="end" x="135" y="241.94915254237287" >5.375</text><line  class="poloto_axis_lines" stroke="black" x1="150" x2="144" y1="231.35593220338984" y2="231.35593220338984" /><line  class="poloto_tick_line" stroke="black" x1="150" x2="650" y1="231.35593220338984" y2="231.35593220338984" /><text  class="poloto_tick_labels poloto_text" dominant-baseline="middle" text-anchor="end" x="135" y="231.35593220338984" >5.5</text><line  class="poloto_axis_lines" stroke="black" x1="150" x2="144" y1="220.7627118644068" y2="220.7627118644068" /><line  class="poloto_tick_line" stroke="black" x1="150" x2="650" y1="220.7627118644068" y2="220.7627118644068" /><text  class="poloto_tick_labels poloto_text" dominant-baseline="middle" text-anchor="end" x="135" y="220.7627118644068" >5.625</text><line  class="poloto_axis_lines" stroke="black" x1="150" x2="144" y1="210.16949152542372" y2="210.16949152542372" /><line  class="poloto_tick_line" stroke="black" x1="150" x2="650" y1="210.16949152542372" y2="210.16949152542372" /><text  class="poloto_tick_labels poloto_text" dominant-baseline="middle" text-anchor="end" x="135" y="210.16949152542372" >5.75</text><line  class="poloto_axis_lines" stroke="black" x1="150" x2="144" y1="199.5762711864407" y2="199.5762711864407" /><line  class="poloto_tick_line" stroke="black" x1="150" x2="650" y1="199.5762711864407" y2="199.5762711864407" /><text  class="poloto_tick_labels poloto_text" dominant-baseline="middle" text-anchor="end" x="135" y="199.5762711864407" >5.875</text><line  class="poloto_axis_lines" stroke="black" x1="150" x2="144" y1="188.98305084745766" y2="188.98305084745766" /><line  class="poloto_tick_line" stroke="black" x1="150" x2="650" y1="188.98305084745766" y2="188.98305084745766" /><text  class="poloto_tick_labels poloto_text" dominant-baseline="middle" text-anchor="end" x="135" y="188.98305084745766" >6</text><line  class="poloto_axis_lines" stroke="black" x1="150" x2="144" y1="178.38983050847457" y2="178.38983050847457" /><line  class="poloto_tick_line" stroke="black" x1="150" x2="650" y1="178.38983050847457" y2="178.38983050847457" /><text  class="poloto_tick_labels poloto_text" dominant-baseline="middle" text-anchor="end" x="135" y="178.38983050847457" >6.125</text><line  class="poloto_axis_lines" stroke="black" x1="150" x2="144" y1="167.7966101694915" y2="167.7966101694915" /><line  class="poloto_tick_line" stroke="black" x1="150" x2="650" y1="167.7966101694915" y2="167.7966101694915" /><text  class="poloto_tick_labels poloto_text" dominant-baseline="middle" text-anchor="end" x="135" y="167.7966101694915" >6.25</text><line  class="poloto_axis_lines" stroke="black" x1="150" x2="144" y1="157.2033898305085" y2="157.2033898305085" /><line  class="poloto_tick_line" stroke="black" x1="150" x2="650" y1="157.2033898305085" y2="157.2033898305085" /><text  class="poloto_tick_labels poloto_text" dominant-baseline="middle" text-anchor="end" x="135" y="157.2033898305085" >6.375</text><line  class="poloto_axis_lines" stroke="black" x1="150" x2="144" y1="146.61016949152543" y2="146.61016949152543" /><line  class="poloto_tick_line" stroke="black" x1="150" x2="650" y1="146.61016949152543" y2="146.61016949152543" /><text  class="poloto_tick_labels poloto_text" dominant-baseline="middle" text-anchor="end" x="135" y="146.61016949152543" >6.5</text><line  class="poloto_axis_lines" stroke="black" x1="150" x2="144" y1="136.01694915254234" y2="136.01694915254234" /><line  class="poloto_tick_line" stroke="black" x1="150" x2="650" y1="136.01694915254234" y2="136.01694915254234" /><text  class="poloto_tick_labels poloto_text" dominant-baseline="middle" text-anchor="end" x="135" y="136.01694915254234" >6.625</text><line  class="poloto_axis_lines" stroke="black" x1="150" x2="144" y1="125.42372881355936" y2="125.42372881355936" /><line  class="poloto_tick_line" stroke="black" x1="150" x2="650" y1="125.42372881355936" y2="125.42372881355936" /><text  class="poloto_tick_labels poloto_text" dominant-baseline="middle" text-anchor="end" x="135" y="125.42372881355936" >6.75</text><line  class="poloto_axis_lines" stroke="black" x1="150" x2="144" y1="114.83050847457628" y2="114.83050847457628" /><line  class="poloto_tick_line" stroke="black" x1="150" x2="650" y1="114.83050847457628" y2="114.83050847457628" /><text  class="poloto_tick_labels poloto_text" dominant-baseline="middle" text-anchor="end" x="135" y="114.83050847457628" >6.875</text><line  class="poloto_axis_lines" stroke="black" x1="150" x2="144" y1="104.23728813559319" y2="104.23728813559319" /><line  class="poloto_tick_line" stroke="black" x1="150" x2="650" y1="104.23728813559319" y2="104.23728813559319" /><text  class="poloto_tick_labels poloto_text" dominant-baseline="middle" text-anchor="end" x="135" y="104.23728813559319" >7</text><text  class="poloto_tick_labels poloto_text" dominant-baseline="middle" text-anchor="start" x="440.00000000000006" y="70" >¹2022-05-01 00:00:00 UTC in Months</text><line  class="poloto_axis_lines" stroke="black" x1="218.3890577507591" x2="218.3890577507591" y1="400" y2="405" /><line  class="poloto_tick_line" stroke="black" x1="218.3890577507591" x2="218.3890577507591" y1="400" y2="100" /><text  class="poloto_tick_labels poloto_text" dominant-baseline="start" text-anchor="middle" x="218.3890577507591" y="430" >2022 May¹</text><line  class="poloto_axis_lines" stroke="black" x1="311.09422492401063" x2="311.09422492401063" y1="400" y2="405" /><line  class="poloto_tick_line" stroke="black" x1="311.09422492401063" x2="311.09422492401063" y1="400" y2="100" /><text  class="poloto_tick_labels poloto_text" dominant-baseline="start" text-anchor="middle" x="311.09422492401063" y="430" >2022 Jul</text><line  class="poloto_axis_lines" stroke="black" x1="405.3191489361707" x2="405.3191489361707" y1="400" y2="405" /><line  class="poloto_tick_line" stroke="black" x1="405.3191489361707" x2="405.3191489361707" y1="400" y2="100" /><text  class="poloto_tick_labels poloto_text" dominant-baseline="start" text-anchor="middle" x="405.3191489361707" y="430" >2022 Sep</text><line  class="poloto_axis_lines" stroke="black" x1="498.0243161094222" x2="498.0243161094222" y1="400" y2="405" /><line  class="poloto_tick_line" stroke="black" x1="498.0243161094222" x2="498.0243161094222" y1="400" y2="100" /><text  class="poloto_tick_labels poloto_text" dominant-baseline="start" text-anchor="middle" x="498.0243161094222" y="430" >2022 Nov</text><line  class="poloto_axis_lines" stroke="black" x1="590.7294832826738" x2="590.7294832826738" y1="400" y2="405" /><line  class="poloto_tick_line" stroke="black" x1="590.7294832826738" x2="590.7294832826738" y1="400" y2="100" /><text  class="poloto_tick_labels poloto_text" dominant-baseline="start" text-anchor="middle" x="590.7294832826738" y="430" >2023 Jan</text><path  stroke="black" fill="none" class="poloto_axis_lines" d=" M 150 400 L 650 400" /><path  stroke="black" fill="none" class="poloto_axis_lines" d=" M 150 400 L 150 100" /></svg>