<svg class="poloto" width="800" height="500" viewBox="0 0 800 500" xmlns="http://www.w3.org/2000/svg"><style>.poloto{stroke-linecap:round;stroke-linejoin:round;font-family:Roboto,sans-serif;font-size:16px;}.poloto_background{fill:#262626;}.poloto_scatter{stroke-width:7}.poloto_tick_line{stroke:dimgray;stroke-width:0.5}.poloto_line{stroke-width:2}.poloto_text{fill: white;}.poloto_axis_lines{stroke: white;stroke-width:3;fill:none;stroke-dasharray:none}.poloto_title{font-size:24px;dominant-baseline:start;text-anchor:middle;}.poloto_xname{font-size:24px;dominant-baseline:start;text-anchor:middle;}.poloto_yname{font-size:24px;dominant-baseline:start;text-anchor:middle;}.poloto0stroke{stroke:blue;}.poloto1stroke{stroke:red;}.poloto2stroke{stroke:green;}.poloto3stroke{stroke:gold;}.poloto4stroke{stroke:aqua;}.poloto5stroke{stroke:lime;}.poloto6stroke{stroke:orange;}.poloto7stroke{stroke:chocolate;}.poloto0fill{fill:blue;}.poloto1fill{fill:red;}.poloto2fill{fill:green;}.poloto3fill{fill:gold;}.poloto4fill{fill:aqua;}.poloto5fill{fill:lime;}.poloto6fill{fill:orange;}.poloto7fill{fill:chocolate;}</style><circle  r="1e5" class="poloto_background" /><text  class="poloto_text poloto_legend_text" x="675" y="100" >Refinance 15</text><line  class="poloto_line poloto_legend_icon poloto0stroke poloto0legend" stroke="black" x1="680" x2="730" y1="81.25" y2="81.25" /><path  class="poloto_line poloto0stroke" fill="none" stroke="black" d=" M 150.00 392.46 L 151.63 400.00 L 156.54 389.32 L 158.17 380.17 L 159.80 389.32 L 159.80 389.32 L 163.07 358.81 L 167.97 357.20 L 169.61 367.88 L 171.24 344.83 L 172.88 346.44 L 174.51 341.61 L 179.41 343.22 L 181.05 336.78 L 181.05 336.78 L 184.31 337.37 L 185.95 314.32 L 190.85 324.32 L 192.48 327.54 L 194.12 327.54 L 195.75 326.69 L 197.39 321.78 L 203.92 278.73 L 205.56 297.88 L 207.19 283.05 L 208.82 277.29 L 208.82 277.29 L 215.36 299.58 L 218.63 303.64 L 220.26 294.58 L 225.16 283.81 L 226.80 305.25 L 228.43 294.58 L 228.43 294.58 L 231.70 292.88 L 236.60 296.19 L 238.24 306.86 L 238.24 306.86 L 239.87 297.80 L 241.50 308.56 L 243.14 292.88 L 248.04 325.08 L 249.67 324.32 L 251.31 306.86 L 251.31 306.86 L 252.94 314.32 L 254.58 317.63 L 259.48 317.63 L 261.11 329.15 L 262.75 329.15 L 264.38 329.15 L 266.01 329.15 L 272.55 317.63 L 274.18 314.32 L 275.82 315.93 L 277.45 315.93 L 277.45 315.93 L 283.99 305.25 L 285.62 305.25 L 287.25 296.19 L 293.79 281.36 L 295.42 250.76 L 297.06 254.15 L 298.69 254.15 L 300.33 275.59 L 305.23 254.15 L 306.86 254.15 L 308.50 273.90 L 310.13 277.29 L 316.67 277.29 L 318.30 275.59 L 319.93 280.59 L 321.57 285.51 L 323.20 296.19 L 329.74 303.64 L 331.37 294.58 L 333.01 287.12 L 334.64 283.81 L 339.54 285.51 L 342.81 285.51 L 344.44 283.81 L 350.98 282.20 L 350.98 282.20 L 350.98 282.20 L 350.98 282.20 L 350.98 282.20 L 350.98 282.20 L 354.25 282.20 L 354.25 282.20 L 354.25 282.20 L 354.25 282.20 L 354.25 282.20 L 354.25 282.20 L 362.42 294.58 L 365.69 297.80 L 367.32 325.93 L 368.95 329.15 L 373.86 329.15 L 375.49 327.54 L 377.12 305.25 L 378.76 299.49 L 380.39 285.51 L 385.29 296.19 L 385.29 296.19 L 386.93 287.12 L 390.20 296.19 L 390.20 296.19 L 398.37 296.19 L 400.00 262.46 L 401.63 282.20 L 408.17 248.39 L 411.44 248.39 L 411.44 248.39 L 414.71 260.76 L 421.24 254.15 L 421.24 254.15 L 421.24 254.15 L 421.24 254.15 L 421.24 254.15 L 421.24 254.15 L 421.24 254.15 L 421.24 254.15 L 421.24 254.15 L 426.14 254.15 L 435.95 232.63 L 442.48 235.17 L 442.48 235.17 L 447.39 235.17 L 453.92 235.17 L 455.56 235.17 L 455.56 235.17 L 455.56 235.17 L 455.56 235.17 L 455.56 235.17 L 476.80 235.17 L 478.43 235.17 L 488.24 139.75 L 489.87 130.68 L 491.50 130.68 L 550.33 159.15 L 556.86 159.15 L 558.50 159.15 L 560.13 175.51 L 563.40 184.49 L 563.40 184.49 L 569.93 184.49 L 571.57 184.49 L 573.20 184.49 L 574.84 184.49 L 579.74 184.49 L 581.37 184.49 L 584.64 184.49 L 586.27 184.49 L 591.18 184.49 L 592.81 184.49 L 592.81 184.49 L 597.71 184.49 L 602.61 184.49 L 604.25 184.49 L 605.88 184.49 L 607.52 184.49 L 609.15 184.49 L 615.69 209.15 L 617.32 180.68 L 618.95 159.15 L 620.59 169.92 L 625.49 169.92 L 627.12 169.92 L 627.12 169.92 L 630.39 193.05 L 632.03 193.05 L 636.93 193.05 L 638.56 193.05 L 640.20 193.05 L 641.83 193.05 L 643.46 193.05 L 643.46 193.05 L 643.46 193.05 L 643.46 193.05" /><text  class="poloto_text poloto_legend_text" x="675" y="150" >Refinance 20</text><line  class="poloto_line poloto_legend_icon poloto1stroke poloto1legend" stroke="black" x1="680" x2="730" y1="131.25" y2="131.25" /><path  class="poloto_line poloto1stroke" fill="none" stroke="black" d=" M 150.00 345.68 L 151.63 368.31 L 156.54 334.58 L 158.17 324.24 L 159.80 333.73 L 159.80 333.73 L 163.07 304.07 L 167.97 301.53 L 169.61 312.29 L 171.24 300.25 L 172.88 311.02 L 174.51 290.85 L 179.41 321.69 L 181.05 290.85 L 181.05 290.85 L 184.31 290.85 L 184.31 290.85 L 190.85 250.17 L 192.48 282.71 L 194.12 290.85 L 195.75 301.53 L 197.39 280.59 L 203.92 260.00 L 205.56 257.37 L 207.19 252.12 L 208.82 240.08 L 213.73 245.34 L 215.36 268.14 L 218.63 260.00 L 220.26 257.37 L 225.16 248.81 L 226.80 258.73 L 228.43 258.73 L 228.43 258.73 L 231.70 258.73 L 236.60 260.00 L 238.24 281.44 L 238.24 281.44 L 239.87 269.41 L 241.50 289.58 L 243.14 281.44 L 248.04 282.71 L 249.67 281.44 L 251.31 281.44 L 251.31 281.44 L 252.94 282.71 L 254.58 289.58 L 259.48 290.85 L 261.11 294.66 L 262.75 294.66 L 264.38 294.66 L 266.01 294.66 L 272.55 289.58 L 274.18 278.81 L 275.82 281.44 L 277.45 281.44 L 277.45 281.44 L 283.99 268.14 L 285.62 270.68 L 287.25 261.27 L 293.79 215.85 L 295.42 197.03 L 297.06 207.80 L 298.69 215.85 L 300.33 238.56 L 305.23 225.17 L 306.86 218.47 L 308.50 239.92 L 310.13 250.17 L 316.67 250.17 L 318.30 238.56 L 319.93 249.32 L 321.57 260.00 L 323.20 272.03 L 329.74 280.08 L 331.37 269.41 L 333.01 258.73 L 334.64 251.44 L 339.54 257.37 L 342.81 260.00 L 344.44 258.73 L 350.98 260.00 L 350.98 260.00 L 350.98 260.00 L 350.98 260.00 L 350.98 260.00 L 350.98 260.00 L 350.98 260.00 L 350.98 260.00 L 350.98 260.00 L 350.98 260.00 L 350.98 260.00 L 350.98 260.00 L 362.42 280.08 L 365.69 282.71 L 367.32 301.53 L 368.95 304.07 L 373.86 301.27 L 375.49 301.27 L 377.12 290.85 L 378.76 294.66 L 380.39 278.81 L 385.29 270.68 L 385.29 270.68 L 386.93 270.68 L 390.20 281.44 L 390.20 281.44 L 398.37 278.81 L 400.00 260.00 L 401.63 260.00 L 408.17 246.19 L 411.44 234.58 L 411.44 234.58 L 414.71 247.54 L 421.24 215.85 L 421.24 215.85 L 421.24 215.85 L 421.24 215.85 L 421.24 215.85 L 421.24 215.85 L 421.24 215.85 L 421.24 215.85 L 421.24 215.85 L 426.14 215.85 L 435.95 202.37 L 442.48 203.73 L 445.75 203.73 L 447.39 203.73 L 447.39 203.73 L 455.56 203.73 L 457.19 203.73 L 457.19 203.73 L 457.19 203.73 L 457.19 203.73 L 476.80 203.73 L 478.43 203.73 L 488.24 118.81 L 489.87 102.97 L 489.87 102.97 L 553.59 155.34 L 556.86 155.34 L 558.50 155.34 L 561.76 174.15 L 563.40 175.51 L 563.40 175.51 L 569.93 175.51 L 571.57 175.51 L 573.20 175.51 L 574.84 175.51 L 579.74 175.51 L 581.37 175.51 L 584.64 175.51 L 586.27 175.51 L 591.18 175.51 L 592.81 175.51 L 592.81 175.51 L 597.71 175.51 L 602.61 175.51 L 604.25 175.51 L 605.88 175.51 L 607.52 175.51 L 609.15 175.51 L 615.69 156.36 L 617.32 145.93 L 618.95 144.58 L 620.59 147.37 L 625.49 147.37 L 627.12 147.37 L 627.12 147.37 L 630.39 167.46 L 632.03 167.46 L 636.93 167.46 L 638.56 167.46 L 640.20 167.46 L 641.83 167.46 L 643.46 167.46 L 643.46 167.46 L 650.00 167.46 L 650.00 167.46" /><text  class="poloto_text poloto_legend_text" x="675" y="200" >Refinance 30</text><line  class="poloto_line poloto_legend_icon poloto2stroke poloto2legend" stroke="black" x1="680" x2="730" y1="181.25" y2="181.25" /><path  class="poloto_line poloto2stroke" fill="none" stroke="black" d=" M 150.00 343.31 L 151.63 351.36 L 156.54 338.81 L 158.17 328.98 L 159.80 330.85 L 159.80 330.85 L 163.07 310.25 L 167.97 308.47 L 169.61 319.15 L 171.24 307.54 L 172.88 318.22 L 174.51 297.71 L 179.41 307.54 L 181.05 286.95 L 182.68 286.95 L 184.31 286.02 L 185.95 260.00 L 190.85 264.58 L 192.48 276.27 L 194.12 286.95 L 195.75 277.20 L 197.39 265.51 L 203.92 256.61 L 205.56 242.12 L 207.19 240.17 L 208.82 238.14 L 213.73 242.12 L 215.36 258.73 L 218.63 256.61 L 220.26 254.66 L 225.16 244.07 L 226.80 255.59 L 228.43 244.07 L 228.43 244.07 L 231.70 244.07 L 236.60 246.02 L 238.24 264.58 L 238.24 264.58 L 239.87 255.59 L 241.50 256.61 L 243.14 257.54 L 248.04 265.51 L 249.67 256.61 L 251.31 256.61 L 251.31 256.61 L 252.94 266.44 L 254.58 267.46 L 259.48 268.39 L 261.11 277.20 L 262.75 277.20 L 264.38 279.07 L 266.01 279.07 L 272.55 275.25 L 274.18 264.58 L 275.82 266.44 L 277.45 265.51 L 277.45 265.51 L 283.99 255.59 L 285.62 255.59 L 287.25 245.00 L 293.79 202.12 L 295.42 171.78 L 297.06 190.34 L 298.69 202.12 L 300.33 212.80 L 305.23 203.05 L 306.86 202.12 L 308.50 221.61 L 310.13 223.56 L 316.67 223.56 L 318.30 211.86 L 319.93 221.61 L 321.57 232.29 L 323.20 255.59 L 329.74 256.61 L 331.37 245.00 L 333.01 224.58 L 334.64 221.61 L 339.54 241.10 L 342.81 223.56 L 344.44 222.54 L 350.98 242.12 L 350.98 242.12 L 350.98 242.12 L 350.98 242.12 L 350.98 242.12 L 350.98 242.12 L 354.25 242.12 L 354.25 242.12 L 354.25 242.12 L 354.25 242.12 L 354.25 242.12 L 354.25 242.12 L 362.42 254.66 L 365.69 256.61 L 367.32 275.25 L 368.95 287.88 L 373.86 286.95 L 375.49 286.95 L 377.12 265.51 L 378.76 268.39 L 380.39 254.66 L 385.29 265.51 L 385.29 265.51 L 386.93 257.54 L 390.20 266.44 L 390.20 266.44 L 398.37 264.58 L 400.00 246.02 L 401.63 245.00 L 408.17 220.59 L 411.44 211.86 L 411.44 211.86 L 414.71 222.54 L 421.24 210.85 L 421.24 210.85 L 421.24 210.85 L 421.24 210.85 L 421.24 210.85 L 421.24 210.85 L 421.24 210.85 L 421.24 210.85 L 426.14 210.85 L 426.14 209.83 L 435.95 197.03 L 442.48 175.51 L 442.48 175.51 L 447.39 175.51 L 447.39 175.51 L 455.56 175.51 L 457.19 175.51 L 457.19 175.51 L 457.19 175.51 L 457.19 175.51 L 476.80 175.51 L 478.43 175.51 L 488.24 127.03 L 489.87 100.00 L 489.87 100.00 L 553.59 146.44 L 556.86 146.44 L 558.50 146.44 L 560.13 150.76 L 563.40 160.59 L 563.40 160.59 L 569.93 160.59 L 571.57 160.59 L 573.20 160.59 L 574.84 160.59 L 579.74 160.59 L 581.37 160.59 L 584.64 160.59 L 586.27 160.59 L 591.18 160.59 L 592.81 160.59 L 592.81 160.59 L 597.71 160.59 L 602.61 160.59 L 604.25 160.59 L 605.88 160.59 L 607.52 160.59 L 609.15 160.59 L 615.69 144.24 L 617.32 152.88 L 618.95 132.37 L 620.59 152.88 L 625.49 152.88 L 627.12 152.88 L 627.12 152.88 L 630.39 152.88 L 632.03 152.88 L 636.93 152.88 L 638.56 152.88 L 640.20 152.88 L 641.83 152.88 L 643.46 152.88 L 643.46 152.88 L 650.00 152.88 L 650.00 152.88" /><text  class="poloto_labels poloto_text poloto_title" x="400" y="37.5" >lower.com purchase rates</text><text  class="poloto_labels poloto_text poloto_xname" x="400" y="481.25" >Date</text><text  class="poloto_labels poloto_text poloto_yname" transform="rotate(-90,37.5,250)" x="37.5" y="250" >Rate (%)</text><text  class="poloto_tick_labels poloto_text" dominant-baseline="middle" text-anchor="start" x="150" y="70" ></text><line  class="poloto_axis_lines" stroke="black" x1="150" x2="144" y1="390.2542372881356" y2="390.2542372881356" /><line  class="poloto_tick_line" stroke="black" x1="150" x2="650" y1="390.2542372881356" y2="390.2542372881356" /><text  class="poloto_tick_labels poloto_text" dominant-baseline="middle" text-anchor="end" x="135" y="390.2542372881356" >3.625</text><line  class="poloto_axis_lines" stroke="black" x1="150" x2="144" y1="379.66101694915255" y2="379.66101694915255" /><line  class="poloto_tick_line" stroke="black" x1="150" x2="650" y1="379.66101694915255" y2="379.66101694915255" /><text  class="poloto_tick_labels poloto_text" dominant-baseline="middle" text-anchor="end" x="135" y="379.66101694915255" >3.75</text><line  class="poloto_axis_lines" stroke="black" x1="150" x2="144" y1="369.06779661016947" y2="369.06779661016947" /><line  class="poloto_tick_line" stroke="black" x1="150" x2="650" y1="369.06779661016947" y2="369.06779661016947" /><text  class="poloto_tick_labels poloto_text" dominant-baseline="middle" text-anchor="end" x="135" y="369.06779661016947" >3.875</text><line  class="poloto_axis_lines" stroke="black" x1="150" x2="144" y1="358.47457627118644" y2="358.47457627118644" /><line  class="poloto_tick_line" stroke="black" x1="150" x2="650" y1="358.47457627118644" y2="358.47457627118644" /><text  class="poloto_tick_labels poloto_text" dominant-baseline="middle" text-anchor="end" x="135" y="358.47457627118644" >4</text><line  class="poloto_axis_lines" stroke="black" x1="150" x2="144" y1="347.8813559322034" y2="347.8813559322034" /><line  class="poloto_tick_line" stroke="black" x1="150" x2="650" y1="347.8813559322034" y2="347.8813559322034" /><text  class="poloto_tick_labels poloto_text" dominant-baseline="middle" text-anchor="end" x="135" y="347.8813559322034" >4.125</text><line  class="poloto_axis_lines" stroke="black" x1="150" x2="144" y1="337.2881355932203" y2="337.2881355932203" /><line  class="poloto_tick_line" stroke="black" x1="150" x2="650" y1="337.2881355932203" y2="337.2881355932203" /><text  class="poloto_tick_labels poloto_text" dominant-baseline="middle" text-anchor="end" x="135" y="337.2881355932203" >4.25</text><line  class="poloto_axis_lines" stroke="black" x1="150" x2="144" y1="326.6949152542373" y2="326.6949152542373" /><line  class="poloto_tick_line" stroke="black" x1="150" x2="650" y1="326.6949152542373" y2="326.6949152542373" /><text  class="poloto_tick_labels poloto_text" dominant-baseline="middle" text-anchor="end" x="135" y="326.6949152542373" >4.375</text><line  class="poloto_axis_lines" stroke="black" x1="150" x2="144" y1="316.10169491525426" y2="316.10169491525426" /><line  class="poloto_tick_line" stroke="black" x1="150" x2="650" y1="316.10169491525426" y2="316.10169491525426" /><text  class="poloto_tick_labels poloto_text" dominant-baseline="middle" text-anchor="end" x="135" y="316.10169491525426" >4.5</text><line  class="poloto_axis_lines" stroke="black" x1="150" x2="144" y1="305.50847457627117" y2="305.50847457627117" /><line  class="poloto_tick_line" stroke="black" x1="150" x2="650" y1="305.50847457627117" y2="305.50847457627117" /><text  class="poloto_tick_labels poloto_text" dominant-baseline="middle" text-anchor="end" x="135" y="305.50847457627117" >4.625</text><line  class="poloto_axis_lines" stroke="black" x1="150" x2="144" y1="294.91525423728814" y2="294.91525423728814" /><line  class="poloto_tick_line" stroke="black" x1="150" x2="650" y1="294.91525423728814" y2="294.91525423728814" /><text  class="poloto_tick_labels poloto_text" dominant-baseline="middle" text-anchor="end" x="135" y="294.91525423728814" >4.75</text><line  class="poloto_axis_lines" stroke="black" x1="150" x2="144" y1="284.3220338983051" y2="284.3220338983051" /><line  class="poloto_tick_line" stroke="black" x1="150" x2="650" y1="284.3220338983051" y2="284.3220338983051" /><text  class="poloto_tick_labels poloto_text" dominant-baseline="middle" text-anchor="end" x="135" y="284.3220338983051" >4.875</text><line  class="poloto_axis_lines" stroke="black" x1="150" x2="144" y1="273.728813559322" y2="273.728813559322" /><line  class="poloto_tick_line" stroke="black" x1="150" x2="650" y1="273.728813559322" y2="273.728813559322" /><text  class="poloto_tick_labels poloto_text" dominant-baseline="middle" text-anchor="end" x="135" y="273.728813559322" >5</text><line  class="poloto_axis_lines" stroke="black" x1="150" x2="144" y1="263.135593220339" y2="263.135593220339" /><line  class="poloto_tick_line" stroke="black" x1="150" x2="650" y1="263.135593220339" y2="263.135593220339" /><text  class="poloto_tick_labels poloto_text" dominant-baseline="middle" text-anchor="end" x="135" y="263.135593220339" >5.125</text><line  class="poloto_axis_lines" stroke="black" x1="150" x2="144" y1="252.54237288135596" y2="252.54237288135596" /><line  class="poloto_tick_line" stroke="black" x1="150" x2="650" y1="252.54237288135596" y2="252.54237288135596" /><text  class="poloto_tick_labels poloto_text" dominant-baseline="middle" text-anchor="end" x="135" y="252.54237288135596" >5.25</text><line  class="poloto_axis_lines" stroke="black" x1="150" x2="144" y1="241.94915254237287" y2="241.94915254237287" /><line  class="poloto_tick_line" stroke="black" x1="150" x2="650" y1="241.94915254237287" y2="241.94915254237287" /><text  class="poloto_tick_labels poloto_text" dominant-baseline="middle" text-anchor="end" x="135" y="241.94915254237287" >5.375</text><line  class="poloto_axis_lines" stroke="black" x1="150" x2="144" y1="231.35593220338984" y2="231.35593220338984" /><line  class="poloto_tick_line" stroke="black" x1="150" x2="650" y1="231.35593220338984" y2="231.35593220338984" /><text  class="poloto_tick_labels poloto_text" dominant-baseline="middle" text-anchor="end" x="135" y="231.35593220338984" >5.5</text><line  class="poloto_axis_lines" stroke="black" x1="150" x2="144" y1="220.7627118644068" y2="220.7627118644068" /><line  class="poloto_tick_line" stroke="black" x1="150" x2="650" y1="220.7627118644068" y2="220.7627118644068" /><text  class="poloto_tick_labels poloto_text" dominant-baseline="middle" text-anchor="end" x="135" y="220.7627118644068" >5.625</text><line  class="poloto_axis_lines" stroke="black" x1="150" x2="144" y1="210.16949152542372" y2="210.16949152542372" /><line  class="poloto_tick_line" stroke="black" x1="150" x2="650" y1="210.16949152542372" y2="210.16949152542372" /><text  class="poloto_tick_labels poloto_text" dominant-baseline="middle" text-anchor="end" x="135" y="210.16949152542372" >5.75</text><line  class="poloto_axis_lines" stroke="black" x1="150" x2="144" y1="199.5762711864407" y2="199.5762711864407" /><line  class="poloto_tick_line" stroke="black" x1="150" x2="650" y1="199.5762711864407" y2="199.5762711864407" /><text  class="poloto_tick_labels poloto_text" dominant-baseline="middle" text-anchor="end" x="135" y="199.5762711864407" >5.875</text><line  class="poloto_axis_lines" stroke="black" x1="150" x2="144" y1="188.98305084745766" y2="188.98305084745766" /><line  class="poloto_tick_line" stroke="black" x1="150" x2="650" y1="188.98305084745766" y2="188.98305084745766" /><text  class="poloto_tick_labels poloto_text" dominant-baseline="middle" text-anchor="end" x="135" y="188.98305084745766" >6</text><line  class="poloto_axis_lines" stroke="black" x1="150" x2="144" y1="178.38983050847457" y2="178.38983050847457" /><line  class="poloto_tick_line" stroke="black" x1="150" x2="650" y1="178.38983050847457" y2="178.38983050847457" /><text  class="poloto_tick_labels poloto_text" dominant-baseline="middle" text-anchor="end" x="135" y="178.38983050847457" >6.125</text><line  class="poloto_axis_lines" stroke="black" x1="150" x2="144" y1="167.7966101694915" y2="167.7966101694915" /><line  class="poloto_tick_line" stroke="black" x1="150" x2="650" y1="167.7966101694915" y2="167.7966101694915" /><text  class="poloto_tick_labels poloto_text" dominant-baseline="middle" text-anchor="end" x="135" y="167.7966101694915" >6.25</text><line  class="poloto_axis_lines" stroke="black" x1="150" x2="144" y1="157.2033898305085" y2="157.2033898305085" /><line  class="poloto_tick_line" stroke="black" x1="150" x2="650" y1="157.2033898305085" y2="157.2033898305085" /><text  class="poloto_tick_labels poloto_text" dominant-baseline="middle" text-anchor="end" x="135" y="157.2033898305085" >6.375</text><line  class="poloto_axis_lines" stroke="black" x1="150" x2="144" y1="146.61016949152543" y2="146.61016949152543" /><line  class="poloto_tick_line" stroke="black" x1="150" x2="650" y1="146.61016949152543" y2="146.61016949152543" /><text  class="poloto_tick_labels poloto_text" dominant-baseline="middle" text-anchor="end" x="135" y="146.61016949152543" >6.5</text><line  class="poloto_axis_lines" stroke="black" x1="150" x2="144" y1="136.01694915254234" y2="136.01694915254234" /><line  class="poloto_tick_line" stroke="black" x1="150" x2="650" y1="136.01694915254234" y2="136.01694915254234" /><text  class="poloto_tick_labels poloto_text" dominant-baseline="middle" text-anchor="end" x="135" y="136.01694915254234" >6.625</text><line  class="poloto_axis_lines" stroke="black" x1="150" x2="144" y1="125.42372881355936" y2="125.42372881355936" /><line  class="poloto_tick_line" stroke="black" x1="150" x2="650" y1="125.42372881355936" y2="125.42372881355936" /><text  class="poloto_tick_labels poloto_text" dominant-baseline="middle" text-anchor="end" x="135" y="125.42372881355936" >6.75</text><line  class="poloto_axis_lines" stroke="black" x1="150" x2="144" y1="114.83050847457628" y2="114.83050847457628" /><line  class="poloto_tick_line" stroke="black" x1="150" x2="650" y1="114.83050847457628" y2="114.83050847457628" /><text  class="poloto_tick_labels poloto_text" dominant-baseline="middle" text-anchor="end" x="135" y="114.83050847457628" >6.875</text><line  class="poloto_axis_lines" stroke="black" x1="150" x2="144" y1="104.23728813559319" y2="104.23728813559319" /><line  class="poloto_tick_line" stroke="black" x1="150" x2="650" y1="104.23728813559319" y2="104.23728813559319" /><text  class="poloto_tick_labels poloto_text" dominant-baseline="middle" text-anchor="end" x="135" y="104.23728813559319" >7</text><text  class="poloto_tick_labels poloto_text" dominant-baseline="middle" text-anchor="start" x="440.00000000000006" y="70" >¹2022-05-01 00:00:00 UTC in Months</text><line  class="poloto_axis_lines" stroke="black" x1="223.5294117647063" x2="223.5294117647063" y1="400" y2="405" /><line  class="poloto_tick_line" stroke="black" x1="223.5294117647063" x2="223.5294117647063" y1="400" y2="100" /><text  class="poloto_tick_labels poloto_text" dominant-baseline="start" text-anchor="middle" x="223.5294117647063" y="430" >2022 May¹</text><line  class="poloto_axis_lines" stroke="black" x1="323.20261437908266" x2="323.20261437908266" y1="400" y2="405" /><line  class="poloto_tick_line" stroke="black" x1="323.20261437908266" x2="323.20261437908266" y1="400" y2="100" /><text  class="poloto_tick_labels poloto_text" dominant-baseline="start" text-anchor="middle" x="323.20261437908266" y="430" >2022 Jul</text><line  class="poloto_axis_lines" stroke="black" x1="424.50980392156634" x2="424.50980392156634" y1="400" y2="405" /><line  class="poloto_tick_line" stroke="black" x1="424.50980392156634" x2="424.50980392156634" y1="400" y2="100" /><text  class="poloto_tick_labels poloto_text" dominant-baseline="start" text-anchor="middle" x="424.50980392156634" y="430" >2022 Sep</text><line  class="poloto_axis_lines" stroke="black" x1="524.1830065359463" x2="524.1830065359463" y1="400" y2="405" /><line  class="poloto_tick_line" stroke="black" x1="524.1830065359463" x2="524.1830065359463" y1="400" y2="100" /><text  class="poloto_tick_labels poloto_text" dominant-baseline="start" text-anchor="middle" x="524.1830065359463" y="430" >2022 Nov</text><line  class="poloto_axis_lines" stroke="black" x1="623.8562091503263" x2="623.8562091503263" y1="400" y2="405" /><line  class="poloto_tick_line" stroke="black" x1="623.8562091503263" x2="623.8562091503263" y1="400" y2="100" /><text  class="poloto_tick_labels poloto_text" dominant-baseline="start" text-anchor="middle" x="623.8562091503263" y="430" >2023 Jan</text><path  stroke="black" fill="none" class="poloto_axis_lines" d=" M 150 400 L 650 400" /><path  stroke="black" fill="none" class="poloto_axis_lines" d=" M 150 400 L 150 100" /></svg>