<svg class="poloto" width="800" height="500" viewBox="0 0 800 500" xmlns="http://www.w3.org/2000/svg"><style>.poloto{stroke-linecap:round;stroke-linejoin:round;font-family:Roboto,sans-serif;font-size:16px;}.poloto_background{fill:#262626;}.poloto_scatter{stroke-width:7}.poloto_tick_line{stroke:dimgray;stroke-width:0.5}.poloto_line{stroke-width:2}.poloto_text{fill: white;}.poloto_axis_lines{stroke: white;stroke-width:3;fill:none;stroke-dasharray:none}.poloto_title{font-size:24px;dominant-baseline:start;text-anchor:middle;}.poloto_xname{font-size:24px;dominant-baseline:start;text-anchor:middle;}.poloto_yname{font-size:24px;dominant-baseline:start;text-anchor:middle;}.poloto0stroke{stroke:blue;}.poloto1stroke{stroke:red;}.poloto2stroke{stroke:green;}.poloto3stroke{stroke:gold;}.poloto4stroke{stroke:aqua;}.poloto5stroke{stroke:lime;}.poloto6stroke{stroke:orange;}.poloto7stroke{stroke:chocolate;}.poloto0fill{fill:blue;}.poloto1fill{fill:red;}.poloto2fill{fill:green;}.poloto3fill{fill:gold;}.poloto4fill{fill:aqua;}.poloto5fill{fill:lime;}.poloto6fill{fill:orange;}.poloto7fill{fill:chocolate;}</style><circle  r="1e5" class="poloto_background" /><text  class="poloto_text poloto_legend_text" x="675" y="100" >Refinance 15</text><line  class="poloto_line poloto_legend_icon poloto0stroke poloto0legend" stroke="black" x1="680" x2="730" y1="81.25" y2="81.25" /><path  class="poloto_line poloto0stroke" fill="none" stroke="black" d=" M 150.00 392.46 L 151.95 400.00 L 157.78 389.32 L 159.73 380.17 L 161.67 389.32 L 161.67 389.32 L 165.56 358.81 L 171.40 357.20 L 173.35 367.88 L 175.29 344.83 L 177.24 346.44 L 179.18 341.61 L 185.02 343.22 L 186.96 336.78 L 186.96 336.78 L 190.86 337.37 L 192.80 314.32 L 198.64 324.32 L 200.58 327.54 L 202.53 327.54 L 204.47 326.69 L 206.42 321.78 L 214.20 278.73 L 216.15 297.88 L 218.09 283.05 L 220.04 277.29 L 220.04 277.29 L 227.82 299.58 L 231.71 303.64 L 233.66 294.58 L 239.49 283.81 L 241.44 305.25 L 243.39 294.58 L 243.39 294.58 L 247.28 292.88 L 253.11 296.19 L 255.06 306.86 L 255.06 306.86 L 257.00 297.80 L 258.95 308.56 L 260.89 292.88 L 266.73 325.08 L 268.68 324.32 L 270.62 306.86 L 270.62 306.86 L 272.57 314.32 L 274.51 317.63 L 280.35 317.63 L 282.30 329.15 L 284.24 329.15 L 286.19 329.15 L 288.13 329.15 L 295.91 317.63 L 297.86 314.32 L 299.81 315.93 L 301.75 315.93 L 301.75 315.93 L 309.53 305.25 L 311.48 305.25 L 313.42 296.19 L 321.21 281.36 L 323.15 250.76 L 325.10 254.15 L 327.04 254.15 L 328.99 275.59 L 334.82 254.15 L 336.77 254.15 L 338.72 273.90 L 340.66 277.29 L 348.44 277.29 L 350.39 275.59 L 352.33 280.59 L 354.28 285.51 L 356.23 296.19 L 364.01 303.64 L 365.95 294.58 L 367.90 287.12 L 369.84 283.81 L 375.68 285.51 L 379.57 285.51 L 381.52 283.81 L 389.30 282.20 L 389.30 282.20 L 389.30 282.20 L 389.30 282.20 L 389.30 282.20 L 389.30 282.20 L 393.19 282.20 L 393.19 282.20 L 393.19 282.20 L 393.19 282.20 L 393.19 282.20 L 393.19 282.20 L 402.92 294.58 L 406.81 297.80 L 408.75 325.93 L 410.70 329.15 L 416.54 329.15 L 418.48 327.54 L 420.43 305.25 L 422.37 299.49 L 424.32 285.51 L 430.16 296.19 L 430.16 296.19 L 432.10 287.12 L 435.99 296.19 L 435.99 296.19 L 445.72 296.19 L 447.67 262.46 L 449.61 282.20 L 457.39 248.39 L 461.28 248.39 L 461.28 248.39 L 465.18 260.76 L 472.96 254.15 L 472.96 254.15 L 472.96 254.15 L 472.96 254.15 L 472.96 254.15 L 472.96 254.15 L 472.96 254.15 L 472.96 254.15 L 472.96 254.15 L 478.79 254.15 L 490.47 232.63 L 498.25 235.17 L 498.25 235.17 L 504.09 235.17 L 511.87 235.17 L 513.81 235.17 L 513.81 235.17 L 513.81 235.17 L 513.81 235.17 L 513.81 235.17 L 539.11 235.17 L 541.05 235.17 L 552.72 139.75 L 554.67 130.68 L 556.61 130.68 L 626.65 159.15 L 634.44 159.15 L 636.38 159.15 L 638.33 175.51 L 642.22 184.49 L 642.22 184.49 L 650.00 184.49" /><text  class="poloto_text poloto_legend_text" x="675" y="150" >Refinance 20</text><line  class="poloto_line poloto_legend_icon poloto1stroke poloto1legend" stroke="black" x1="680" x2="730" y1="131.25" y2="131.25" /><path  class="poloto_line poloto1stroke" fill="none" stroke="black" d=" M 150.00 345.68 L 151.95 368.31 L 157.78 334.58 L 159.73 324.24 L 161.67 333.73 L 161.67 333.73 L 165.56 304.07 L 171.40 301.53 L 173.35 312.29 L 175.29 300.25 L 177.24 311.02 L 179.18 290.85 L 185.02 321.69 L 186.96 290.85 L 186.96 290.85 L 190.86 290.85 L 190.86 290.85 L 198.64 250.17 L 200.58 282.71 L 202.53 290.85 L 204.47 301.53 L 206.42 280.59 L 214.20 260.00 L 216.15 257.37 L 218.09 252.12 L 220.04 240.08 L 225.88 245.34 L 227.82 268.14 L 231.71 260.00 L 233.66 257.37 L 239.49 248.81 L 241.44 258.73 L 243.39 258.73 L 243.39 258.73 L 247.28 258.73 L 253.11 260.00 L 255.06 281.44 L 255.06 281.44 L 257.00 269.41 L 258.95 289.58 L 260.89 281.44 L 266.73 282.71 L 268.68 281.44 L 270.62 281.44 L 270.62 281.44 L 272.57 282.71 L 274.51 289.58 L 280.35 290.85 L 282.30 294.66 L 284.24 294.66 L 286.19 294.66 L 288.13 294.66 L 295.91 289.58 L 297.86 278.81 L 299.81 281.44 L 301.75 281.44 L 301.75 281.44 L 309.53 268.14 L 311.48 270.68 L 313.42 261.27 L 321.21 215.85 L 323.15 197.03 L 325.10 207.80 L 327.04 215.85 L 328.99 238.56 L 334.82 225.17 L 336.77 218.47 L 338.72 239.92 L 340.66 250.17 L 348.44 250.17 L 350.39 238.56 L 352.33 249.32 L 354.28 260.00 L 356.23 272.03 L 364.01 280.08 L 365.95 269.41 L 367.90 258.73 L 369.84 251.44 L 375.68 257.37 L 379.57 260.00 L 381.52 258.73 L 389.30 260.00 L 389.30 260.00 L 389.30 260.00 L 389.30 260.00 L 389.30 260.00 L 389.30 260.00 L 389.30 260.00 L 389.30 260.00 L 389.30 260.00 L 389.30 260.00 L 389.30 260.00 L 389.30 260.00 L 402.92 280.08 L 406.81 282.71 L 408.75 301.53 L 410.70 304.07 L 416.54 301.27 L 418.48 301.27 L 420.43 290.85 L 422.37 294.66 L 424.32 278.81 L 430.16 270.68 L 430.16 270.68 L 432.10 270.68 L 435.99 281.44 L 435.99 281.44 L 445.72 278.81 L 447.67 260.00 L 449.61 260.00 L 457.39 246.19 L 461.28 234.58 L 461.28 234.58 L 465.18 247.54 L 472.96 215.85 L 472.96 215.85 L 472.96 215.85 L 472.96 215.85 L 472.96 215.85 L 472.96 215.85 L 472.96 215.85 L 472.96 215.85 L 472.96 215.85 L 478.79 215.85 L 490.47 202.37 L 498.25 203.73 L 502.14 203.73 L 504.09 203.73 L 504.09 203.73 L 513.81 203.73 L 515.76 203.73 L 515.76 203.73 L 515.76 203.73 L 515.76 203.73 L 539.11 203.73 L 541.05 203.73 L 552.72 118.81 L 554.67 102.97 L 554.67 102.97 L 630.54 155.34 L 634.44 155.34 L 636.38 155.34 L 640.27 174.15 L 642.22 175.51 L 642.22 175.51 L 650.00 175.51" /><text  class="poloto_text poloto_legend_text" x="675" y="200" >Refinance 30</text><line  class="poloto_line poloto_legend_icon poloto2stroke poloto2legend" stroke="black" x1="680" x2="730" y1="181.25" y2="181.25" /><path  class="poloto_line poloto2stroke" fill="none" stroke="black" d=" M 150.00 343.31 L 151.95 351.36 L 157.78 338.81 L 159.73 328.98 L 161.67 330.85 L 161.67 330.85 L 165.56 310.25 L 171.40 308.47 L 173.35 319.15 L 175.29 307.54 L 177.24 318.22 L 179.18 297.71 L 185.02 307.54 L 186.96 286.95 L 188.91 286.95 L 190.86 286.02 L 192.80 260.00 L 198.64 264.58 L 200.58 276.27 L 202.53 286.95 L 204.47 277.20 L 206.42 265.51 L 214.20 256.61 L 216.15 242.12 L 218.09 240.17 L 220.04 238.14 L 225.88 242.12 L 227.82 258.73 L 231.71 256.61 L 233.66 254.66 L 239.49 244.07 L 241.44 255.59 L 243.39 244.07 L 243.39 244.07 L 247.28 244.07 L 253.11 246.02 L 255.06 264.58 L 255.06 264.58 L 257.00 255.59 L 258.95 256.61 L 260.89 257.54 L 266.73 265.51 L 268.68 256.61 L 270.62 256.61 L 270.62 256.61 L 272.57 266.44 L 274.51 267.46 L 280.35 268.39 L 282.30 277.20 L 284.24 277.20 L 286.19 279.07 L 288.13 279.07 L 295.91 275.25 L 297.86 264.58 L 299.81 266.44 L 301.75 265.51 L 301.75 265.51 L 309.53 255.59 L 311.48 255.59 L 313.42 245.00 L 321.21 202.12 L 323.15 171.78 L 325.10 190.34 L 327.04 202.12 L 328.99 212.80 L 334.82 203.05 L 336.77 202.12 L 338.72 221.61 L 340.66 223.56 L 348.44 223.56 L 350.39 211.86 L 352.33 221.61 L 354.28 232.29 L 356.23 255.59 L 364.01 256.61 L 365.95 245.00 L 367.90 224.58 L 369.84 221.61 L 375.68 241.10 L 379.57 223.56 L 381.52 222.54 L 389.30 242.12 L 389.30 242.12 L 389.30 242.12 L 389.30 242.12 L 389.30 242.12 L 389.30 242.12 L 393.19 242.12 L 393.19 242.12 L 393.19 242.12 L 393.19 242.12 L 393.19 242.12 L 393.19 242.12 L 402.92 254.66 L 406.81 256.61 L 408.75 275.25 L 410.70 287.88 L 416.54 286.95 L 418.48 286.95 L 420.43 265.51 L 422.37 268.39 L 424.32 254.66 L 430.16 265.51 L 430.16 265.51 L 432.10 257.54 L 435.99 266.44 L 435.99 266.44 L 445.72 264.58 L 447.67 246.02 L 449.61 245.00 L 457.39 220.59 L 461.28 211.86 L 461.28 211.86 L 465.18 222.54 L 472.96 210.85 L 472.96 210.85 L 472.96 210.85 L 472.96 210.85 L 472.96 210.85 L 472.96 210.85 L 472.96 210.85 L 472.96 210.85 L 478.79 210.85 L 478.79 209.83 L 490.47 197.03 L 498.25 175.51 L 498.25 175.51 L 504.09 175.51 L 504.09 175.51 L 513.81 175.51 L 515.76 175.51 L 515.76 175.51 L 515.76 175.51 L 515.76 175.51 L 539.11 175.51 L 541.05 175.51 L 552.72 127.03 L 554.67 100.00 L 554.67 100.00 L 630.54 146.44 L 634.44 146.44 L 636.38 146.44 L 638.33 150.76 L 642.22 160.59 L 642.22 160.59 L 650.00 160.59" /><text  class="poloto_labels poloto_text poloto_title" x="400" y="37.5" >lower.com purchase rates</text><text  class="poloto_labels poloto_text poloto_xname" x="400" y="481.25" >Date</text><text  class="poloto_labels poloto_text poloto_yname" transform="rotate(-90,37.5,250)" x="37.5" y="250" >Rate (%)</text><text  class="poloto_tick_labels poloto_text" dominant-baseline="middle" text-anchor="start" x="150" y="70" ></text><line  class="poloto_axis_lines" stroke="black" x1="150" x2="144" y1="390.2542372881356" y2="390.2542372881356" /><line  class="poloto_tick_line" stroke="black" x1="150" x2="650" y1="390.2542372881356" y2="390.2542372881356" /><text  class="poloto_tick_labels poloto_text" dominant-baseline="middle" text-anchor="end" x="135" y="390.2542372881356" >3.625</text><line  class="poloto_axis_lines" stroke="black" x1="150" x2="144" y1="379.66101694915255" y2="379.66101694915255" /><line  class="poloto_tick_line" stroke="black" x1="150" x2="650" y1="379.66101694915255" y2="379.66101694915255" /><text  class="poloto_tick_labels poloto_text" dominant-baseline="middle" text-anchor="end" x="135" y="379.66101694915255" >3.75</text><line  class="poloto_axis_lines" stroke="black" x1="150" x2="144" y1="369.06779661016947" y2="369.06779661016947" /><line  class="poloto_tick_line" stroke="black" x1="150" x2="650" y1="369.06779661016947" y2="369.06779661016947" /><text  class="poloto_tick_labels poloto_text" dominant-baseline="middle" text-anchor="end" x="135" y="369.06779661016947" >3.875</text><line  class="poloto_axis_lines" stroke="black" x1="150" x2="144" y1="358.47457627118644" y2="358.47457627118644" /><line  class="poloto_tick_line" stroke="black" x1="150" x2="650" y1="358.47457627118644" y2="358.47457627118644" /><text  class="poloto_tick_labels poloto_text" dominant-baseline="middle" text-anchor="end" x="135" y="358.47457627118644" >4</text><line  class="poloto_axis_lines" stroke="black" x1="150" x2="144" y1="347.8813559322034" y2="347.8813559322034" /><line  class="poloto_tick_line" stroke="black" x1="150" x2="650" y1="347.8813559322034" y2="347.8813559322034" /><text  class="poloto_tick_labels poloto_text" dominant-baseline="middle" text-anchor="end" x="135" y="347.8813559322034" >4.125</text><line  class="poloto_axis_lines" stroke="black" x1="150" x2="144" y1="337.2881355932203" y2="337.2881355932203" /><line  class="poloto_tick_line" stroke="black" x1="150" x2="650" y1="337.2881355932203" y2="337.2881355932203" /><text  class="poloto_tick_labels poloto_text" dominant-baseline="middle" text-anchor="end" x="135" y="337.2881355932203" >4.25</text><line  class="poloto_axis_lines" stroke="black" x1="150" x2="144" y1="326.6949152542373" y2="326.6949152542373" /><line  class="poloto_tick_line" stroke="black" x1="150" x2="650" y1="326.6949152542373" y2="326.6949152542373" /><text  class="poloto_tick_labels poloto_text" dominant-baseline="middle" text-anchor="end" x="135" y="326.6949152542373" >4.375</text><line  class="poloto_axis_lines" stroke="black" x1="150" x2="144" y1="316.10169491525426" y2="316.10169491525426" /><line  class="poloto_tick_line" stroke="black" x1="150" x2="650" y1="316.10169491525426" y2="316.10169491525426" /><text  class="poloto_tick_labels poloto_text" dominant-baseline="middle" text-anchor="end" x="135" y="316.10169491525426" >4.5</text><line  class="poloto_axis_lines" stroke="black" x1="150" x2="144" y1="305.50847457627117" y2="305.50847457627117" /><line  class="poloto_tick_line" stroke="black" x1="150" x2="650" y1="305.50847457627117" y2="305.50847457627117" /><text  class="poloto_tick_labels poloto_text" dominant-baseline="middle" text-anchor="end" x="135" y="305.50847457627117" >4.625</text><line  class="poloto_axis_lines" stroke="black" x1="150" x2="144" y1="294.91525423728814" y2="294.91525423728814" /><line  class="poloto_tick_line" stroke="black" x1="150" x2="650" y1="294.91525423728814" y2="294.91525423728814" /><text  class="poloto_tick_labels poloto_text" dominant-baseline="middle" text-anchor="end" x="135" y="294.91525423728814" >4.75</text><line  class="poloto_axis_lines" stroke="black" x1="150" x2="144" y1="284.3220338983051" y2="284.3220338983051" /><line  class="poloto_tick_line" stroke="black" x1="150" x2="650" y1="284.3220338983051" y2="284.3220338983051" /><text  class="poloto_tick_labels poloto_text" dominant-baseline="middle" text-anchor="end" x="135" y="284.3220338983051" >4.875</text><line  class="poloto_axis_lines" stroke="black" x1="150" x2="144" y1="273.728813559322" y2="273.728813559322" /><line  class="poloto_tick_line" stroke="black" x1="150" x2="650" y1="273.728813559322" y2="273.728813559322" /><text  class="poloto_tick_labels poloto_text" dominant-baseline="middle" text-anchor="end" x="135" y="273.728813559322" >5</text><line  class="poloto_axis_lines" stroke="black" x1="150" x2="144" y1="263.135593220339" y2="263.135593220339" /><line  class="poloto_tick_line" stroke="black" x1="150" x2="650" y1="263.135593220339" y2="263.135593220339" /><text  class="poloto_tick_labels poloto_text" dominant-baseline="middle" text-anchor="end" x="135" y="263.135593220339" >5.125</text><line  class="poloto_axis_lines" stroke="black" x1="150" x2="144" y1="252.54237288135596" y2="252.54237288135596" /><line  class="poloto_tick_line" stroke="black" x1="150" x2="650" y1="252.54237288135596" y2="252.54237288135596" /><text  class="poloto_tick_labels poloto_text" dominant-baseline="middle" text-anchor="end" x="135" y="252.54237288135596" >5.25</text><line  class="poloto_axis_lines" stroke="black" x1="150" x2="144" y1="241.94915254237287" y2="241.94915254237287" /><line  class="poloto_tick_line" stroke="black" x1="150" x2="650" y1="241.94915254237287" y2="241.94915254237287" /><text  class="poloto_tick_labels poloto_text" dominant-baseline="middle" text-anchor="end" x="135" y="241.94915254237287" >5.375</text><line  class="poloto_axis_lines" stroke="black" x1="150" x2="144" y1="231.35593220338984" y2="231.35593220338984" /><line  class="poloto_tick_line" stroke="black" x1="150" x2="650" y1="231.35593220338984" y2="231.35593220338984" /><text  class="poloto_tick_labels poloto_text" dominant-baseline="middle" text-anchor="end" x="135" y="231.35593220338984" >5.5</text><line  class="poloto_axis_lines" stroke="black" x1="150" x2="144" y1="220.7627118644068" y2="220.7627118644068" /><line  class="poloto_tick_line" stroke="black" x1="150" x2="650" y1="220.7627118644068" y2="220.7627118644068" /><text  class="poloto_tick_labels poloto_text" dominant-baseline="middle" text-anchor="end" x="135" y="220.7627118644068" >5.625</text><line  class="poloto_axis_lines" stroke="black" x1="150" x2="144" y1="210.16949152542372" y2="210.16949152542372" /><line  class="poloto_tick_line" stroke="black" x1="150" x2="650" y1="210.16949152542372" y2="210.16949152542372" /><text  class="poloto_tick_labels poloto_text" dominant-baseline="middle" text-anchor="end" x="135" y="210.16949152542372" >5.75</text><line  class="poloto_axis_lines" stroke="black" x1="150" x2="144" y1="199.5762711864407" y2="199.5762711864407" /><line  class="poloto_tick_line" stroke="black" x1="150" x2="650" y1="199.5762711864407" y2="199.5762711864407" /><text  class="poloto_tick_labels poloto_text" dominant-baseline="middle" text-anchor="end" x="135" y="199.5762711864407" >5.875</text><line  class="poloto_axis_lines" stroke="black" x1="150" x2="144" y1="188.98305084745766" y2="188.98305084745766" /><line  class="poloto_tick_line" stroke="black" x1="150" x2="650" y1="188.98305084745766" y2="188.98305084745766" /><text  class="poloto_tick_labels poloto_text" dominant-baseline="middle" text-anchor="end" x="135" y="188.98305084745766" >6</text><line  class="poloto_axis_lines" stroke="black" x1="150" x2="144" y1="178.38983050847457" y2="178.38983050847457" /><line  class="poloto_tick_line" stroke="black" x1="150" x2="650" y1="178.38983050847457" y2="178.38983050847457" /><text  class="poloto_tick_labels poloto_text" dominant-baseline="middle" text-anchor="end" x="135" y="178.38983050847457" >6.125</text><line  class="poloto_axis_lines" stroke="black" x1="150" x2="144" y1="167.7966101694915" y2="167.7966101694915" /><line  class="poloto_tick_line" stroke="black" x1="150" x2="650" y1="167.7966101694915" y2="167.7966101694915" /><text  class="poloto_tick_labels poloto_text" dominant-baseline="middle" text-anchor="end" x="135" y="167.7966101694915" >6.25</text><line  class="poloto_axis_lines" stroke="black" x1="150" x2="144" y1="157.2033898305085" y2="157.2033898305085" /><line  class="poloto_tick_line" stroke="black" x1="150" x2="650" y1="157.2033898305085" y2="157.2033898305085" /><text  class="poloto_tick_labels poloto_text" dominant-baseline="middle" text-anchor="end" x="135" y="157.2033898305085" >6.375</text><line  class="poloto_axis_lines" stroke="black" x1="150" x2="144" y1="146.61016949152543" y2="146.61016949152543" /><line  class="poloto_tick_line" stroke="black" x1="150" x2="650" y1="146.61016949152543" y2="146.61016949152543" /><text  class="poloto_tick_labels poloto_text" dominant-baseline="middle" text-anchor="end" x="135" y="146.61016949152543" >6.5</text><line  class="poloto_axis_lines" stroke="black" x1="150" x2="144" y1="136.01694915254234" y2="136.01694915254234" /><line  class="poloto_tick_line" stroke="black" x1="150" x2="650" y1="136.01694915254234" y2="136.01694915254234" /><text  class="poloto_tick_labels poloto_text" dominant-baseline="middle" text-anchor="end" x="135" y="136.01694915254234" >6.625</text><line  class="poloto_axis_lines" stroke="black" x1="150" x2="144" y1="125.42372881355936" y2="125.42372881355936" /><line  class="poloto_tick_line" stroke="black" x1="150" x2="650" y1="125.42372881355936" y2="125.42372881355936" /><text  class="poloto_tick_labels poloto_text" dominant-baseline="middle" text-anchor="end" x="135" y="125.42372881355936" >6.75</text><line  class="poloto_axis_lines" stroke="black" x1="150" x2="144" y1="114.83050847457628" y2="114.83050847457628" /><line  class="poloto_tick_line" stroke="black" x1="150" x2="650" y1="114.83050847457628" y2="114.83050847457628" /><text  class="poloto_tick_labels poloto_text" dominant-baseline="middle" text-anchor="end" x="135" y="114.83050847457628" >6.875</text><line  class="poloto_axis_lines" stroke="black" x1="150" x2="144" y1="104.23728813559319" y2="104.23728813559319" /><line  class="poloto_tick_line" stroke="black" x1="150" x2="650" y1="104.23728813559319" y2="104.23728813559319" /><text  class="poloto_tick_labels poloto_text" dominant-baseline="middle" text-anchor="end" x="135" y="104.23728813559319" >7</text><text  class="poloto_tick_labels poloto_text" dominant-baseline="middle" text-anchor="start" x="440.00000000000006" y="70" >¹2022-05-01 00:00:00 UTC in Months</text><line  class="poloto_axis_lines" stroke="black" x1="237.54863813229167" x2="237.54863813229167" y1="400" y2="405" /><line  class="poloto_tick_line" stroke="black" x1="237.54863813229167" x2="237.54863813229167" y1="400" y2="100" /><text  class="poloto_tick_labels poloto_text" dominant-baseline="start" text-anchor="middle" x="237.54863813229167" y="430" >2022 May¹</text><line  class="poloto_axis_lines" stroke="black" x1="356.2256809338505" x2="356.2256809338505" y1="400" y2="405" /><line  class="poloto_tick_line" stroke="black" x1="356.2256809338505" x2="356.2256809338505" y1="400" y2="100" /><text  class="poloto_tick_labels poloto_text" dominant-baseline="start" text-anchor="middle" x="356.2256809338505" y="430" >2022 Jul</text><line  class="poloto_axis_lines" stroke="black" x1="476.8482490272363" x2="476.8482490272363" y1="400" y2="405" /><line  class="poloto_tick_line" stroke="black" x1="476.8482490272363" x2="476.8482490272363" y1="400" y2="100" /><text  class="poloto_tick_labels poloto_text" dominant-baseline="start" text-anchor="middle" x="476.8482490272363" y="430" >2022 Sep</text><line  class="poloto_axis_lines" stroke="black" x1="595.5252918287952" x2="595.5252918287952" y1="400" y2="405" /><line  class="poloto_tick_line" stroke="black" x1="595.5252918287952" x2="595.5252918287952" y1="400" y2="100" /><text  class="poloto_tick_labels poloto_text" dominant-baseline="start" text-anchor="middle" x="595.5252918287952" y="430" >2022 Nov</text><path  stroke="black" fill="none" class="poloto_axis_lines" d=" M 150 400 L 650 400" /><path  stroke="black" fill="none" class="poloto_axis_lines" d=" M 150 400 L 150 100" /></svg>