<svg class="poloto" width="800" height="500" viewBox="0 0 800 500" xmlns="http://www.w3.org/2000/svg"><style>.poloto{stroke-linecap:round;stroke-linejoin:round;font-family:Roboto,sans-serif;font-size:16px;}.poloto_background{fill:#262626;}.poloto_scatter{stroke-width:7}.poloto_tick_line{stroke:dimgray;stroke-width:0.5}.poloto_line{stroke-width:2}.poloto_text{fill: white;}.poloto_axis_lines{stroke: white;stroke-width:3;fill:none;stroke-dasharray:none}.poloto_title{font-size:24px;dominant-baseline:start;text-anchor:middle;}.poloto_xname{font-size:24px;dominant-baseline:start;text-anchor:middle;}.poloto_yname{font-size:24px;dominant-baseline:start;text-anchor:middle;}.poloto0stroke{stroke:blue;}.poloto1stroke{stroke:red;}.poloto2stroke{stroke:green;}.poloto3stroke{stroke:gold;}.poloto4stroke{stroke:aqua;}.poloto5stroke{stroke:lime;}.poloto6stroke{stroke:orange;}.poloto7stroke{stroke:chocolate;}.poloto0fill{fill:blue;}.poloto1fill{fill:red;}.poloto2fill{fill:green;}.poloto3fill{fill:gold;}.poloto4fill{fill:aqua;}.poloto5fill{fill:lime;}.poloto6fill{fill:orange;}.poloto7fill{fill:chocolate;}</style><circle  r="1e5" class="poloto_background" /><text  class="poloto_text poloto_legend_text" x="675" y="100" >Refinance 15</text><line  class="poloto_line poloto_legend_icon poloto0stroke poloto0legend" stroke="black" x1="680" x2="730" y1="81.25" y2="81.25" /><path  class="poloto_line poloto0stroke" fill="none" stroke="black" d=" M 150.00 393.13 L 151.31 400.00 L 155.24 390.27 L 156.54 381.94 L 157.85 390.27 L 157.85 390.27 L 160.47 362.48 L 164.40 361.01 L 165.71 370.74 L 167.02 349.74 L 168.32 351.21 L 169.63 346.81 L 173.56 348.28 L 174.87 342.41 L 174.87 342.41 L 177.49 342.95 L 178.80 321.95 L 182.72 331.06 L 184.03 333.99 L 185.34 333.99 L 186.65 333.22 L 187.96 328.74 L 193.19 289.53 L 194.50 306.97 L 195.81 293.46 L 197.12 288.21 L 197.12 288.21 L 202.36 308.52 L 204.97 312.22 L 206.28 303.96 L 210.21 294.16 L 211.52 313.69 L 212.83 303.96 L 212.83 303.96 L 215.45 302.42 L 219.37 305.43 L 220.68 315.16 L 220.68 315.16 L 221.99 306.90 L 223.30 316.70 L 224.61 302.42 L 228.53 331.76 L 229.84 331.06 L 231.15 315.16 L 231.15 315.16 L 232.46 321.95 L 233.77 324.96 L 237.70 324.96 L 239.01 335.46 L 240.31 335.46 L 241.62 335.46 L 242.93 335.46 L 248.17 324.96 L 249.48 321.95 L 250.79 323.42 L 252.09 323.42 L 252.09 323.42 L 257.33 313.69 L 258.64 313.69 L 259.95 305.43 L 265.18 291.92 L 266.49 264.05 L 267.80 267.14 L 269.11 267.14 L 270.42 286.67 L 274.35 267.14 L 275.65 267.14 L 276.96 285.13 L 278.27 288.21 L 283.51 288.21 L 284.82 286.67 L 286.13 291.22 L 287.43 295.70 L 288.74 305.43 L 293.98 312.22 L 295.29 303.96 L 296.60 297.17 L 297.91 294.16 L 301.83 295.70 L 304.45 295.70 L 305.76 294.16 L 310.99 292.69 L 310.99 292.69 L 310.99 292.69 L 310.99 292.69 L 310.99 292.69 L 310.99 292.69 L 313.61 292.69 L 313.61 292.69 L 313.61 292.69 L 313.61 292.69 L 313.61 292.69 L 313.61 292.69 L 320.16 303.96 L 322.77 306.90 L 324.08 332.53 L 325.39 335.46 L 329.32 335.46 L 330.63 333.99 L 331.94 313.69 L 333.25 308.44 L 334.55 295.70 L 338.48 305.43 L 338.48 305.43 L 339.79 297.17 L 342.41 305.43 L 342.41 305.43 L 348.95 305.43 L 350.26 274.70 L 351.57 292.69 L 356.81 261.89 L 359.42 261.89 L 359.42 261.89 L 362.04 273.16 L 367.28 267.14 L 367.28 267.14 L 367.28 267.14 L 367.28 267.14 L 367.28 267.14 L 367.28 267.14 L 367.28 267.14 L 367.28 267.14 L 367.28 267.14 L 371.20 267.14 L 379.06 247.53 L 384.29 249.85 L 384.29 249.85 L 388.22 249.85 L 393.46 249.85 L 394.76 249.85 L 394.76 249.85 L 394.76 249.85 L 394.76 249.85 L 394.76 249.85 L 411.78 249.85 L 413.09 249.85 L 420.94 162.92 L 422.25 154.66 L 423.56 154.66 L 470.68 180.60 L 475.92 180.60 L 477.23 180.60 L 478.53 195.50 L 481.15 203.68 L 481.15 203.68 L 486.39 203.68 L 487.70 203.68 L 489.01 203.68 L 490.31 203.68 L 494.24 203.68 L 495.55 203.68 L 498.17 203.68 L 499.48 203.68 L 503.40 203.68 L 504.71 203.68 L 504.71 203.68 L 508.64 203.68 L 512.57 203.68 L 513.87 203.68 L 515.18 203.68 L 516.49 203.68 L 517.80 203.68 L 523.04 226.15 L 524.35 200.21 L 525.65 180.60 L 526.96 190.40 L 530.89 190.40 L 532.20 190.40 L 532.20 190.40 L 534.82 211.48 L 536.13 211.48 L 540.05 211.48 L 541.36 211.48 L 542.67 211.48 L 543.98 211.48 L 545.29 211.48 L 545.29 211.48 L 545.29 211.48 L 545.29 211.48 L 551.83 211.48 L 554.45 211.48 L 558.38 211.48 L 559.69 211.48 L 562.30 211.48 L 563.61 211.48 L 568.85 211.48 L 570.16 211.48 L 571.47 211.48 L 572.77 239.27 L 576.70 245.45 L 578.01 209.93 L 579.32 221.28 L 580.63 219.74 L 581.94 201.75 L 585.86 161.07 L 587.17 161.07 L 588.48 161.07 L 589.79 162.61 L 591.10 170.79 L 595.03 162.61 L 596.34 162.61 L 597.64 151.26 L 598.95 161.07 L 600.26 141.46 L 605.50 151.26 L 606.81 152.80 L 608.12 143.08 L 609.42 149.64 L 613.35 155.97 L 614.66 152.80 L 615.97 151.26 L 617.28 151.26 L 618.59 162.61 L 622.51 161.07 L 623.82 152.80 L 627.75 240.81 L 631.68 180.60 L 632.98 182.14 L 634.29 172.41 L 635.60 209.93 L 636.91 239.27 L 640.84 191.95 L 642.15 190.40 L 643.46 180.60 L 644.76 180.60 L 646.07 183.53 L 650.00 197.43" /><text  class="poloto_text poloto_legend_text" x="675" y="150" >Refinance 20</text><line  class="poloto_line poloto_legend_icon poloto1stroke poloto1legend" stroke="black" x1="680" x2="730" y1="131.25" y2="131.25" /><path  class="poloto_line poloto1stroke" fill="none" stroke="black" d=" M 150.00 350.51 L 151.31 371.13 L 155.24 340.40 L 156.54 330.98 L 157.85 339.63 L 157.85 339.63 L 160.47 312.61 L 164.40 310.29 L 165.71 320.10 L 167.02 309.14 L 168.32 318.94 L 169.63 300.57 L 173.56 328.67 L 174.87 300.57 L 174.87 300.57 L 177.49 300.57 L 177.49 300.57 L 182.72 263.51 L 184.03 293.15 L 185.34 300.57 L 186.65 310.29 L 187.96 291.22 L 193.19 272.47 L 194.50 270.07 L 195.81 265.29 L 197.12 254.32 L 201.05 259.11 L 202.36 279.88 L 204.97 272.47 L 206.28 270.07 L 210.21 262.27 L 211.52 271.31 L 212.83 271.31 L 212.83 271.31 L 215.45 271.31 L 219.37 272.47 L 220.68 292.00 L 220.68 292.00 L 221.99 281.03 L 223.30 299.41 L 224.61 292.00 L 228.53 293.15 L 229.84 292.00 L 231.15 292.00 L 231.15 292.00 L 232.46 293.15 L 233.77 299.41 L 237.70 300.57 L 239.01 304.04 L 240.31 304.04 L 241.62 304.04 L 242.93 304.04 L 248.17 299.41 L 249.48 289.60 L 250.79 292.00 L 252.09 292.00 L 252.09 292.00 L 257.33 279.88 L 258.64 282.19 L 259.95 273.62 L 265.18 232.24 L 266.49 215.11 L 267.80 224.91 L 269.11 232.24 L 270.42 252.93 L 274.35 240.74 L 275.65 234.64 L 276.96 254.17 L 278.27 263.51 L 283.51 263.51 L 284.82 252.93 L 286.13 262.74 L 287.43 272.47 L 288.74 283.43 L 293.98 290.76 L 295.29 281.03 L 296.60 271.31 L 297.91 264.67 L 301.83 270.07 L 304.45 272.47 L 305.76 271.31 L 310.99 272.47 L 310.99 272.47 L 310.99 272.47 L 310.99 272.47 L 310.99 272.47 L 310.99 272.47 L 310.99 272.47 L 310.99 272.47 L 310.99 272.47 L 310.99 272.47 L 310.99 272.47 L 310.99 272.47 L 320.16 290.76 L 322.77 293.15 L 324.08 310.29 L 325.39 312.61 L 329.32 310.06 L 330.63 310.06 L 331.94 300.57 L 333.25 304.04 L 334.55 289.60 L 338.48 282.19 L 338.48 282.19 L 339.79 282.19 L 342.41 292.00 L 342.41 292.00 L 348.95 289.60 L 350.26 272.47 L 351.57 272.47 L 356.81 259.88 L 359.42 249.31 L 359.42 249.31 L 362.04 261.12 L 367.28 232.24 L 367.28 232.24 L 367.28 232.24 L 367.28 232.24 L 367.28 232.24 L 367.28 232.24 L 367.28 232.24 L 367.28 232.24 L 367.28 232.24 L 371.20 232.24 L 379.06 219.97 L 384.29 221.20 L 386.91 221.20 L 388.22 221.20 L 388.22 221.20 L 394.76 221.20 L 396.07 221.20 L 396.07 221.20 L 396.07 221.20 L 396.07 221.20 L 411.78 221.20 L 413.09 221.20 L 420.94 143.85 L 422.25 129.41 L 422.25 129.41 L 473.30 177.12 L 475.92 177.12 L 477.23 177.12 L 479.84 194.26 L 481.15 195.50 L 481.15 195.50 L 486.39 195.50 L 487.70 195.50 L 489.01 195.50 L 490.31 195.50 L 494.24 195.50 L 495.55 195.50 L 498.17 195.50 L 499.48 195.50 L 503.40 195.50 L 504.71 195.50 L 504.71 195.50 L 508.64 195.50 L 512.57 195.50 L 513.87 195.50 L 515.18 195.50 L 516.49 195.50 L 517.80 195.50 L 523.04 178.05 L 524.35 168.55 L 525.65 167.32 L 526.96 169.87 L 530.89 169.87 L 532.20 169.87 L 532.20 169.87 L 534.82 188.16 L 536.13 188.16 L 540.05 188.16 L 541.36 188.16 L 542.67 188.16 L 543.98 188.16 L 545.29 188.16 L 545.29 188.16 L 550.52 188.16 L 550.52 188.16 L 551.83 188.16 L 554.45 188.16 L 558.38 188.16 L 559.69 188.16 L 562.30 188.16 L 563.61 188.16 L 568.85 188.16 L 570.16 188.16 L 571.47 188.16 L 572.77 209.01 L 576.70 207.77 L 578.01 178.36 L 579.32 179.59 L 579.32 179.59 L 581.94 178.36 L 585.86 158.75 L 587.17 158.75 L 588.48 150.26 L 589.79 140.45 L 591.10 149.02 L 595.03 140.45 L 596.34 130.65 L 597.64 140.45 L 598.95 150.26 L 600.26 139.22 L 605.50 140.45 L 606.81 129.41 L 608.12 100.00 L 609.42 129.41 L 613.35 150.26 L 614.66 169.17 L 615.97 140.45 L 617.28 139.22 L 618.59 167.32 L 622.51 160.06 L 623.82 150.26 L 627.75 210.24 L 631.68 168.55 L 632.98 158.75 L 634.29 160.06 L 635.60 188.16 L 636.91 189.40 L 640.84 169.87 L 642.15 160.06 L 643.46 160.06 L 644.76 160.06 L 644.76 160.06 L 644.76 160.06" /><text  class="poloto_text poloto_legend_text" x="675" y="200" >Refinance 30</text><line  class="poloto_line poloto_legend_icon poloto2stroke poloto2legend" stroke="black" x1="680" x2="730" y1="181.25" y2="181.25" /><path  class="poloto_line poloto2stroke" fill="none" stroke="black" d=" M 150.00 348.35 L 151.31 355.69 L 155.24 344.26 L 156.54 335.31 L 157.85 337.00 L 157.85 337.00 L 160.47 318.24 L 164.40 316.62 L 165.71 326.35 L 167.02 315.77 L 168.32 325.50 L 169.63 306.82 L 173.56 315.77 L 174.87 297.01 L 176.18 297.01 L 177.49 296.17 L 178.80 272.47 L 182.72 276.63 L 184.03 287.29 L 185.34 297.01 L 186.65 288.14 L 187.96 277.48 L 193.19 269.38 L 194.50 256.18 L 195.81 254.40 L 197.12 252.55 L 201.05 256.18 L 202.36 271.31 L 204.97 269.38 L 206.28 267.60 L 210.21 257.95 L 211.52 268.45 L 212.83 257.95 L 212.83 257.95 L 215.45 257.95 L 219.37 259.73 L 220.68 276.63 L 220.68 276.63 L 221.99 268.45 L 223.30 269.38 L 224.61 270.23 L 228.53 277.48 L 229.84 269.38 L 231.15 269.38 L 231.15 269.38 L 232.46 278.33 L 233.77 279.26 L 237.70 280.11 L 239.01 288.14 L 240.31 288.14 L 241.62 289.84 L 242.93 289.84 L 248.17 286.36 L 249.48 276.63 L 250.79 278.33 L 252.09 277.48 L 252.09 277.48 L 257.33 268.45 L 258.64 268.45 L 259.95 258.80 L 265.18 219.74 L 266.49 192.10 L 267.80 209.01 L 269.11 219.74 L 270.42 229.46 L 274.35 220.59 L 275.65 219.74 L 276.96 237.49 L 278.27 239.27 L 283.51 239.27 L 284.82 228.62 L 286.13 237.49 L 287.43 247.22 L 288.74 268.45 L 293.98 269.38 L 295.29 258.80 L 296.60 240.20 L 297.91 237.49 L 301.83 255.25 L 304.45 239.27 L 305.76 238.34 L 310.99 256.18 L 310.99 256.18 L 310.99 256.18 L 310.99 256.18 L 310.99 256.18 L 310.99 256.18 L 313.61 256.18 L 313.61 256.18 L 313.61 256.18 L 313.61 256.18 L 313.61 256.18 L 313.61 256.18 L 320.16 267.60 L 322.77 269.38 L 324.08 286.36 L 325.39 297.86 L 329.32 297.01 L 330.63 297.01 L 331.94 277.48 L 333.25 280.11 L 334.55 267.60 L 338.48 277.48 L 338.48 277.48 L 339.79 270.23 L 342.41 278.33 L 342.41 278.33 L 348.95 276.63 L 350.26 259.73 L 351.57 258.80 L 356.81 236.57 L 359.42 228.62 L 359.42 228.62 L 362.04 238.34 L 367.28 227.69 L 367.28 227.69 L 367.28 227.69 L 367.28 227.69 L 367.28 227.69 L 367.28 227.69 L 367.28 227.69 L 367.28 227.69 L 371.20 227.69 L 371.20 226.76 L 379.06 215.11 L 384.29 195.50 L 384.29 195.50 L 388.22 195.50 L 388.22 195.50 L 394.76 195.50 L 396.07 195.50 L 396.07 195.50 L 396.07 195.50 L 396.07 195.50 L 411.78 195.50 L 413.09 195.50 L 420.94 151.34 L 422.25 126.71 L 422.25 126.71 L 473.30 169.02 L 475.92 169.02 L 477.23 169.02 L 478.53 172.95 L 481.15 181.91 L 481.15 181.91 L 486.39 181.91 L 487.70 181.91 L 489.01 181.91 L 490.31 181.91 L 494.24 181.91 L 495.55 181.91 L 498.17 181.91 L 499.48 181.91 L 503.40 181.91 L 504.71 181.91 L 504.71 181.91 L 508.64 181.91 L 512.57 181.91 L 513.87 181.91 L 515.18 181.91 L 516.49 181.91 L 517.80 181.91 L 523.04 167.01 L 524.35 174.88 L 525.65 156.20 L 526.96 174.88 L 530.89 174.88 L 532.20 174.88 L 532.20 174.88 L 534.82 174.88 L 536.13 174.88 L 540.05 174.88 L 541.36 174.88 L 542.67 174.88 L 543.98 174.88 L 545.29 174.88 L 545.29 174.88 L 550.52 174.88 L 550.52 174.88 L 551.83 174.88 L 554.45 174.88 L 558.38 174.88 L 559.69 174.88 L 562.30 174.88 L 563.61 174.88 L 568.85 174.88 L 570.16 174.88 L 571.47 174.88 L 572.77 224.91 L 576.70 215.11 L 578.01 175.89 L 579.32 205.30 L 580.63 175.89 L 581.94 166.01 L 585.86 156.20 L 587.17 156.20 L 588.48 147.32 L 589.79 137.52 L 591.10 146.40 L 595.03 146.40 L 596.34 135.59 L 597.64 127.71 L 598.95 137.52 L 600.26 128.72 L 605.50 127.71 L 606.81 116.91 L 608.12 116.91 L 609.42 126.71 L 613.35 127.71 L 614.66 117.91 L 615.97 125.78 L 617.28 117.91 L 618.59 147.32 L 622.51 147.32 L 623.82 127.71 L 627.75 206.23 L 631.68 147.32 L 632.98 146.40 L 634.29 146.40 L 635.60 176.81 L 636.91 176.81 L 640.84 157.21 L 642.15 157.21 L 643.46 156.20 L 644.76 156.20 L 646.07 148.02 L 650.00 149.02" /><text  class="poloto_labels poloto_text poloto_title" x="400" y="37.5" >lower.com purchase rates</text><text  class="poloto_labels poloto_text poloto_xname" x="400" y="481.25" >Date</text><text  class="poloto_labels poloto_text poloto_yname" transform="rotate(-90,37.5,250)" x="37.5" y="250" >Rate (%)</text><text  class="poloto_tick_labels poloto_text" dominant-baseline="middle" text-anchor="start" x="150" y="70" ></text><line  class="poloto_axis_lines" stroke="black" x1="150" x2="144" y1="391.12197632527017" y2="391.12197632527017" /><line  class="poloto_tick_line" stroke="black" x1="150" x2="650" y1="391.12197632527017" y2="391.12197632527017" /><text  class="poloto_tick_labels poloto_text" dominant-baseline="middle" text-anchor="end" x="135" y="391.12197632527017" >3.625</text><line  class="poloto_axis_lines" stroke="black" x1="150" x2="144" y1="381.4719505918682" y2="381.4719505918682" /><line  class="poloto_tick_line" stroke="black" x1="150" x2="650" y1="381.4719505918682" y2="381.4719505918682" /><text  class="poloto_tick_labels poloto_text" dominant-baseline="middle" text-anchor="end" x="135" y="381.4719505918682" >3.75</text><line  class="poloto_axis_lines" stroke="black" x1="150" x2="144" y1="371.8219248584663" y2="371.8219248584663" /><line  class="poloto_tick_line" stroke="black" x1="150" x2="650" y1="371.8219248584663" y2="371.8219248584663" /><text  class="poloto_tick_labels poloto_text" dominant-baseline="middle" text-anchor="end" x="135" y="371.8219248584663" >3.875</text><line  class="poloto_axis_lines" stroke="black" x1="150" x2="144" y1="362.17189912506433" y2="362.17189912506433" /><line  class="poloto_tick_line" stroke="black" x1="150" x2="650" y1="362.17189912506433" y2="362.17189912506433" /><text  class="poloto_tick_labels poloto_text" dominant-baseline="middle" text-anchor="end" x="135" y="362.17189912506433" >4</text><line  class="poloto_axis_lines" stroke="black" x1="150" x2="144" y1="352.5218733916624" y2="352.5218733916624" /><line  class="poloto_tick_line" stroke="black" x1="150" x2="650" y1="352.5218733916624" y2="352.5218733916624" /><text  class="poloto_tick_labels poloto_text" dominant-baseline="middle" text-anchor="end" x="135" y="352.5218733916624" >4.125</text><line  class="poloto_axis_lines" stroke="black" x1="150" x2="144" y1="342.87184765826044" y2="342.87184765826044" /><line  class="poloto_tick_line" stroke="black" x1="150" x2="650" y1="342.87184765826044" y2="342.87184765826044" /><text  class="poloto_tick_labels poloto_text" dominant-baseline="middle" text-anchor="end" x="135" y="342.87184765826044" >4.25</text><line  class="poloto_axis_lines" stroke="black" x1="150" x2="144" y1="333.2218219248585" y2="333.2218219248585" /><line  class="poloto_tick_line" stroke="black" x1="150" x2="650" y1="333.2218219248585" y2="333.2218219248585" /><text  class="poloto_tick_labels poloto_text" dominant-baseline="middle" text-anchor="end" x="135" y="333.2218219248585" >4.375</text><line  class="poloto_axis_lines" stroke="black" x1="150" x2="144" y1="323.5717961914565" y2="323.5717961914565" /><line  class="poloto_tick_line" stroke="black" x1="150" x2="650" y1="323.5717961914565" y2="323.5717961914565" /><text  class="poloto_tick_labels poloto_text" dominant-baseline="middle" text-anchor="end" x="135" y="323.5717961914565" >4.5</text><line  class="poloto_axis_lines" stroke="black" x1="150" x2="144" y1="313.92177045805454" y2="313.92177045805454" /><line  class="poloto_tick_line" stroke="black" x1="150" x2="650" y1="313.92177045805454" y2="313.92177045805454" /><text  class="poloto_tick_labels poloto_text" dominant-baseline="middle" text-anchor="end" x="135" y="313.92177045805454" >4.625</text><line  class="poloto_axis_lines" stroke="black" x1="150" x2="144" y1="304.2717447246526" y2="304.2717447246526" /><line  class="poloto_tick_line" stroke="black" x1="150" x2="650" y1="304.2717447246526" y2="304.2717447246526" /><text  class="poloto_tick_labels poloto_text" dominant-baseline="middle" text-anchor="end" x="135" y="304.2717447246526" >4.75</text><line  class="poloto_axis_lines" stroke="black" x1="150" x2="144" y1="294.62171899125065" y2="294.62171899125065" /><line  class="poloto_tick_line" stroke="black" x1="150" x2="650" y1="294.62171899125065" y2="294.62171899125065" /><text  class="poloto_tick_labels poloto_text" dominant-baseline="middle" text-anchor="end" x="135" y="294.62171899125065" >4.875</text><line  class="poloto_axis_lines" stroke="black" x1="150" x2="144" y1="284.9716932578487" y2="284.9716932578487" /><line  class="poloto_tick_line" stroke="black" x1="150" x2="650" y1="284.9716932578487" y2="284.9716932578487" /><text  class="poloto_tick_labels poloto_text" dominant-baseline="middle" text-anchor="end" x="135" y="284.9716932578487" >5</text><line  class="poloto_axis_lines" stroke="black" x1="150" x2="144" y1="275.32166752444675" y2="275.32166752444675" /><line  class="poloto_tick_line" stroke="black" x1="150" x2="650" y1="275.32166752444675" y2="275.32166752444675" /><text  class="poloto_tick_labels poloto_text" dominant-baseline="middle" text-anchor="end" x="135" y="275.32166752444675" >5.125</text><line  class="poloto_axis_lines" stroke="black" x1="150" x2="144" y1="265.67164179104475" y2="265.67164179104475" /><line  class="poloto_tick_line" stroke="black" x1="150" x2="650" y1="265.67164179104475" y2="265.67164179104475" /><text  class="poloto_tick_labels poloto_text" dominant-baseline="middle" text-anchor="end" x="135" y="265.67164179104475" >5.25</text><line  class="poloto_axis_lines" stroke="black" x1="150" x2="144" y1="256.0216160576428" y2="256.0216160576428" /><line  class="poloto_tick_line" stroke="black" x1="150" x2="650" y1="256.0216160576428" y2="256.0216160576428" /><text  class="poloto_tick_labels poloto_text" dominant-baseline="middle" text-anchor="end" x="135" y="256.0216160576428" >5.375</text><line  class="poloto_axis_lines" stroke="black" x1="150" x2="144" y1="246.37159032424086" y2="246.37159032424086" /><line  class="poloto_tick_line" stroke="black" x1="150" x2="650" y1="246.37159032424086" y2="246.37159032424086" /><text  class="poloto_tick_labels poloto_text" dominant-baseline="middle" text-anchor="end" x="135" y="246.37159032424086" >5.5</text><line  class="poloto_axis_lines" stroke="black" x1="150" x2="144" y1="236.7215645908389" y2="236.7215645908389" /><line  class="poloto_tick_line" stroke="black" x1="150" x2="650" y1="236.7215645908389" y2="236.7215645908389" /><text  class="poloto_tick_labels poloto_text" dominant-baseline="middle" text-anchor="end" x="135" y="236.7215645908389" >5.625</text><line  class="poloto_axis_lines" stroke="black" x1="150" x2="144" y1="227.07153885743696" y2="227.07153885743696" /><line  class="poloto_tick_line" stroke="black" x1="150" x2="650" y1="227.07153885743696" y2="227.07153885743696" /><text  class="poloto_tick_labels poloto_text" dominant-baseline="middle" text-anchor="end" x="135" y="227.07153885743696" >5.75</text><line  class="poloto_axis_lines" stroke="black" x1="150" x2="144" y1="217.42151312403502" y2="217.42151312403502" /><line  class="poloto_tick_line" stroke="black" x1="150" x2="650" y1="217.42151312403502" y2="217.42151312403502" /><text  class="poloto_tick_labels poloto_text" dominant-baseline="middle" text-anchor="end" x="135" y="217.42151312403502" >5.875</text><line  class="poloto_axis_lines" stroke="black" x1="150" x2="144" y1="207.771487390633" y2="207.771487390633" /><line  class="poloto_tick_line" stroke="black" x1="150" x2="650" y1="207.771487390633" y2="207.771487390633" /><text  class="poloto_tick_labels poloto_text" dominant-baseline="middle" text-anchor="end" x="135" y="207.771487390633" >6</text><line  class="poloto_axis_lines" stroke="black" x1="150" x2="144" y1="198.12146165723107" y2="198.12146165723107" /><line  class="poloto_tick_line" stroke="black" x1="150" x2="650" y1="198.12146165723107" y2="198.12146165723107" /><text  class="poloto_tick_labels poloto_text" dominant-baseline="middle" text-anchor="end" x="135" y="198.12146165723107" >6.125</text><line  class="poloto_axis_lines" stroke="black" x1="150" x2="144" y1="188.47143592382912" y2="188.47143592382912" /><line  class="poloto_tick_line" stroke="black" x1="150" x2="650" y1="188.47143592382912" y2="188.47143592382912" /><text  class="poloto_tick_labels poloto_text" dominant-baseline="middle" text-anchor="end" x="135" y="188.47143592382912" >6.25</text><line  class="poloto_axis_lines" stroke="black" x1="150" x2="144" y1="178.82141019042717" y2="178.82141019042717" /><line  class="poloto_tick_line" stroke="black" x1="150" x2="650" y1="178.82141019042717" y2="178.82141019042717" /><text  class="poloto_tick_labels poloto_text" dominant-baseline="middle" text-anchor="end" x="135" y="178.82141019042717" >6.375</text><line  class="poloto_axis_lines" stroke="black" x1="150" x2="144" y1="169.17138445702523" y2="169.17138445702523" /><line  class="poloto_tick_line" stroke="black" x1="150" x2="650" y1="169.17138445702523" y2="169.17138445702523" /><text  class="poloto_tick_labels poloto_text" dominant-baseline="middle" text-anchor="end" x="135" y="169.17138445702523" >6.5</text><line  class="poloto_axis_lines" stroke="black" x1="150" x2="144" y1="159.52135872362328" y2="159.52135872362328" /><line  class="poloto_tick_line" stroke="black" x1="150" x2="650" y1="159.52135872362328" y2="159.52135872362328" /><text  class="poloto_tick_labels poloto_text" dominant-baseline="middle" text-anchor="end" x="135" y="159.52135872362328" >6.625</text><line  class="poloto_axis_lines" stroke="black" x1="150" x2="144" y1="149.87133299022133" y2="149.87133299022133" /><line  class="poloto_tick_line" stroke="black" x1="150" x2="650" y1="149.87133299022133" y2="149.87133299022133" /><text  class="poloto_tick_labels poloto_text" dominant-baseline="middle" text-anchor="end" x="135" y="149.87133299022133" >6.75</text><line  class="poloto_axis_lines" stroke="black" x1="150" x2="144" y1="140.22130725681933" y2="140.22130725681933" /><line  class="poloto_tick_line" stroke="black" x1="150" x2="650" y1="140.22130725681933" y2="140.22130725681933" /><text  class="poloto_tick_labels poloto_text" dominant-baseline="middle" text-anchor="end" x="135" y="140.22130725681933" >6.875</text><line  class="poloto_axis_lines" stroke="black" x1="150" x2="144" y1="130.57128152341744" y2="130.57128152341744" /><line  class="poloto_tick_line" stroke="black" x1="150" x2="650" y1="130.57128152341744" y2="130.57128152341744" /><text  class="poloto_tick_labels poloto_text" dominant-baseline="middle" text-anchor="end" x="135" y="130.57128152341744" >7</text><line  class="poloto_axis_lines" stroke="black" x1="150" x2="144" y1="120.92125579001544" y2="120.92125579001544" /><line  class="poloto_tick_line" stroke="black" x1="150" x2="650" y1="120.92125579001544" y2="120.92125579001544" /><text  class="poloto_tick_labels poloto_text" dominant-baseline="middle" text-anchor="end" x="135" y="120.92125579001544" >7.125</text><line  class="poloto_axis_lines" stroke="black" x1="150" x2="144" y1="111.27123005661343" y2="111.27123005661343" /><line  class="poloto_tick_line" stroke="black" x1="150" x2="650" y1="111.27123005661343" y2="111.27123005661343" /><text  class="poloto_tick_labels poloto_text" dominant-baseline="middle" text-anchor="end" x="135" y="111.27123005661343" >7.25</text><line  class="poloto_axis_lines" stroke="black" x1="150" x2="144" y1="101.62120432321154" y2="101.62120432321154" /><line  class="poloto_tick_line" stroke="black" x1="150" x2="650" y1="101.62120432321154" y2="101.62120432321154" /><text  class="poloto_tick_labels poloto_text" dominant-baseline="middle" text-anchor="end" x="135" y="101.62120432321154" >7.375</text><text  class="poloto_tick_labels poloto_text" dominant-baseline="middle" text-anchor="start" x="440.00000000000006" y="70" >¹2022-05-01 00:00:00 UTC in Months</text><line  class="poloto_axis_lines" stroke="black" x1="208.90052356020897" x2="208.90052356020897" y1="400" y2="405" /><line  class="poloto_tick_line" stroke="black" x1="208.90052356020897" x2="208.90052356020897" y1="400" y2="100.00000000000006" /><text  class="poloto_tick_labels poloto_text" dominant-baseline="start" text-anchor="middle" x="208.90052356020897" y="430" >2022 May¹</text><line  class="poloto_axis_lines" stroke="black" x1="288.74345549738064" x2="288.74345549738064" y1="400" y2="405" /><line  class="poloto_tick_line" stroke="black" x1="288.74345549738064" x2="288.74345549738064" y1="400" y2="100.00000000000006" /><text  class="poloto_tick_labels poloto_text" dominant-baseline="start" text-anchor="middle" x="288.74345549738064" y="430" >2022 Jul</text><line  class="poloto_axis_lines" stroke="black" x1="369.89528795811566" x2="369.89528795811566" y1="400" y2="405" /><line  class="poloto_tick_line" stroke="black" x1="369.89528795811566" x2="369.89528795811566" y1="400" y2="100.00000000000006" /><text  class="poloto_tick_labels poloto_text" dominant-baseline="start" text-anchor="middle" x="369.89528795811566" y="430" >2022 Sep</text><line  class="poloto_axis_lines" stroke="black" x1="449.73821989528733" x2="449.73821989528733" y1="400" y2="405" /><line  class="poloto_tick_line" stroke="black" x1="449.73821989528733" x2="449.73821989528733" y1="400" y2="100.00000000000006" /><text  class="poloto_tick_labels poloto_text" dominant-baseline="start" text-anchor="middle" x="449.73821989528733" y="430" >2022 Nov</text><line  class="poloto_axis_lines" stroke="black" x1="529.581151832459" x2="529.581151832459" y1="400" y2="405" /><line  class="poloto_tick_line" stroke="black" x1="529.581151832459" x2="529.581151832459" y1="400" y2="100.00000000000006" /><text  class="poloto_tick_labels poloto_text" dominant-baseline="start" text-anchor="middle" x="529.581151832459" y="430" >2023 Jan</text><line  class="poloto_axis_lines" stroke="black" x1="606.8062827225112" x2="606.8062827225112" y1="400" y2="405" /><line  class="poloto_tick_line" stroke="black" x1="606.8062827225112" x2="606.8062827225112" y1="400" y2="100.00000000000006" /><text  class="poloto_tick_labels poloto_text" dominant-baseline="start" text-anchor="middle" x="606.8062827225112" y="430" >2023 Mar</text><path  stroke="black" fill="none" class="poloto_axis_lines" d=" M 150 400 L 650 400" /><path  stroke="black" fill="none" class="poloto_axis_lines" d=" M 150 400 L 150 100.00000000000006" /></svg>