<svg class="poloto" width="800" height="500" viewBox="0 0 800 500" xmlns="http://www.w3.org/2000/svg"><style>.poloto{stroke-linecap:round;stroke-linejoin:round;font-family:Roboto,sans-serif;font-size:16px;}.poloto_background{fill:#262626;}.poloto_scatter{stroke-width:7}.poloto_tick_line{stroke:dimgray;stroke-width:0.5}.poloto_line{stroke-width:2}.poloto_text{fill: white;}.poloto_axis_lines{stroke: white;stroke-width:3;fill:none;stroke-dasharray:none}.poloto_title{font-size:24px;dominant-baseline:start;text-anchor:middle;}.poloto_xname{font-size:24px;dominant-baseline:start;text-anchor:middle;}.poloto_yname{font-size:24px;dominant-baseline:start;text-anchor:middle;}.poloto0stroke{stroke:blue;}.poloto1stroke{stroke:red;}.poloto2stroke{stroke:green;}.poloto3stroke{stroke:gold;}.poloto4stroke{stroke:aqua;}.poloto5stroke{stroke:lime;}.poloto6stroke{stroke:orange;}.poloto7stroke{stroke:chocolate;}.poloto0fill{fill:blue;}.poloto1fill{fill:red;}.poloto2fill{fill:green;}.poloto3fill{fill:gold;}.poloto4fill{fill:aqua;}.poloto5fill{fill:lime;}.poloto6fill{fill:orange;}.poloto7fill{fill:chocolate;}</style><circle  r="1e5" class="poloto_background" /><text  class="poloto_text poloto_legend_text" x="675" y="100" >30 years</text><line  class="poloto_line poloto_legend_icon poloto0stroke poloto0legend" stroke="black" x1="680" x2="730" y1="81.25" y2="81.25" /><path  class="poloto_line poloto0stroke" fill="none" stroke="black" d=" M 150.00 353.85 L 153.16 376.92 L 162.66 353.85 L 165.82 330.77 L 168.99 330.77 L 168.99 330.77 L 175.32 284.62 L 184.81 284.62 L 187.97 307.69 L 191.14 330.77 L 194.30 353.85 L 197.47 307.69 L 206.96 330.77 L 210.13 307.69 L 213.29 284.62 L 216.46 261.54 L 219.62 261.54 L 229.11 261.54 L 232.28 284.62 L 235.44 284.62 L 238.61 284.62 L 241.77 238.46 L 254.43 217.23 L 257.59 215.38 L 260.76 215.38 L 263.92 192.31 L 273.42 215.38 L 276.58 238.46 L 282.91 217.23 L 286.08 217.23 L 295.57 217.23 L 298.73 217.23 L 301.90 217.23 L 305.06 217.23 L 308.23 192.31 L 317.72 215.38 L 320.89 217.23 L 320.89 217.23 L 324.05 217.23 L 327.22 217.23 L 330.38 217.23 L 339.87 217.23 L 343.04 217.23 L 346.20 217.23 L 346.20 217.23 L 349.37 217.23 L 352.53 261.54 L 362.03 261.54 L 365.19 284.62 L 368.35 284.62 L 371.52 307.69 L 374.68 284.62 L 387.34 261.54 L 390.51 238.46 L 393.67 261.54 L 396.84 261.54 L 406.33 238.46 L 409.49 217.23 L 412.66 217.23 L 415.82 217.23 L 428.48 123.08 L 431.65 100.00 L 434.81 100.00 L 437.97 123.08 L 441.14 146.15 L 450.63 123.08 L 453.80 123.08 L 456.96 146.15 L 460.13 169.23 L 472.78 169.23 L 475.95 123.08 L 479.11 146.15 L 482.28 192.31 L 485.44 217.23 L 498.10 217.23 L 501.27 217.23 L 504.43 192.31 L 507.59 146.15 L 517.09 192.31 L 523.42 146.15 L 526.58 192.31 L 539.24 192.31 L 539.24 192.31 L 539.24 192.31 L 539.24 192.31 L 539.24 192.31 L 545.57 192.31 L 545.57 192.31 L 545.57 192.31 L 545.57 192.31 L 545.57 192.31 L 545.57 192.31 L 551.90 217.23 L 561.39 217.23 L 567.72 217.23 L 570.89 261.54 L 574.05 307.69 L 583.54 307.69 L 586.71 307.69 L 589.87 284.62 L 593.04 284.62 L 596.20 217.23 L 605.70 217.23 L 605.70 217.23 L 608.86 217.23 L 608.86 217.23 L 615.19 217.23 L 631.01 217.23 L 634.18 192.31 L 637.34 192.31 L 650.00 146.15" /><text  class="poloto_labels poloto_text poloto_title" x="400" y="37.5" >lower.com purchase rates</text><text  class="poloto_labels poloto_text poloto_xname" x="400" y="481.25" >Date</text><text  class="poloto_labels poloto_text poloto_yname" transform="rotate(-90,37.5,250)" x="37.5" y="250" >Rate (%)</text><text  class="poloto_tick_labels poloto_text" dominant-baseline="middle" text-anchor="start" x="150" y="70" ></text><line  class="poloto_axis_lines" stroke="black" x1="150" x2="144" y1="400" y2="400" /><line  class="poloto_tick_line" stroke="black" x1="150" x2="650" y1="400" y2="400" /><text  class="poloto_tick_labels poloto_text" dominant-baseline="middle" text-anchor="end" x="135" y="400" >4</text><line  class="poloto_axis_lines" stroke="black" x1="150" x2="144" y1="376.9230769230769" y2="376.9230769230769" /><line  class="poloto_tick_line" stroke="black" x1="150" x2="650" y1="376.9230769230769" y2="376.9230769230769" /><text  class="poloto_tick_labels poloto_text" dominant-baseline="middle" text-anchor="end" x="135" y="376.9230769230769" >4.125</text><line  class="poloto_axis_lines" stroke="black" x1="150" x2="144" y1="353.8461538461538" y2="353.8461538461538" /><line  class="poloto_tick_line" stroke="black" x1="150" x2="650" y1="353.8461538461538" y2="353.8461538461538" /><text  class="poloto_tick_labels poloto_text" dominant-baseline="middle" text-anchor="end" x="135" y="353.8461538461538" >4.25</text><line  class="poloto_axis_lines" stroke="black" x1="150" x2="144" y1="330.7692307692307" y2="330.7692307692307" /><line  class="poloto_tick_line" stroke="black" x1="150" x2="650" y1="330.7692307692307" y2="330.7692307692307" /><text  class="poloto_tick_labels poloto_text" dominant-baseline="middle" text-anchor="end" x="135" y="330.7692307692307" >4.375</text><line  class="poloto_axis_lines" stroke="black" x1="150" x2="144" y1="307.69230769230774" y2="307.69230769230774" /><line  class="poloto_tick_line" stroke="black" x1="150" x2="650" y1="307.69230769230774" y2="307.69230769230774" /><text  class="poloto_tick_labels poloto_text" dominant-baseline="middle" text-anchor="end" x="135" y="307.69230769230774" >4.5</text><line  class="poloto_axis_lines" stroke="black" x1="150" x2="144" y1="284.61538461538464" y2="284.61538461538464" /><line  class="poloto_tick_line" stroke="black" x1="150" x2="650" y1="284.61538461538464" y2="284.61538461538464" /><text  class="poloto_tick_labels poloto_text" dominant-baseline="middle" text-anchor="end" x="135" y="284.61538461538464" >4.625</text><line  class="poloto_axis_lines" stroke="black" x1="150" x2="144" y1="261.53846153846155" y2="261.53846153846155" /><line  class="poloto_tick_line" stroke="black" x1="150" x2="650" y1="261.53846153846155" y2="261.53846153846155" /><text  class="poloto_tick_labels poloto_text" dominant-baseline="middle" text-anchor="end" x="135" y="261.53846153846155" >4.75</text><line  class="poloto_axis_lines" stroke="black" x1="150" x2="144" y1="238.46153846153845" y2="238.46153846153845" /><line  class="poloto_tick_line" stroke="black" x1="150" x2="650" y1="238.46153846153845" y2="238.46153846153845" /><text  class="poloto_tick_labels poloto_text" dominant-baseline="middle" text-anchor="end" x="135" y="238.46153846153845" >4.875</text><line  class="poloto_axis_lines" stroke="black" x1="150" x2="144" y1="215.38461538461536" y2="215.38461538461536" /><line  class="poloto_tick_line" stroke="black" x1="150" x2="650" y1="215.38461538461536" y2="215.38461538461536" /><text  class="poloto_tick_labels poloto_text" dominant-baseline="middle" text-anchor="end" x="135" y="215.38461538461536" >5</text><line  class="poloto_axis_lines" stroke="black" x1="150" x2="144" y1="192.30769230769226" y2="192.30769230769226" /><line  class="poloto_tick_line" stroke="black" x1="150" x2="650" y1="192.30769230769226" y2="192.30769230769226" /><text  class="poloto_tick_labels poloto_text" dominant-baseline="middle" text-anchor="end" x="135" y="192.30769230769226" >5.125</text><line  class="poloto_axis_lines" stroke="black" x1="150" x2="144" y1="169.23076923076928" y2="169.23076923076928" /><line  class="poloto_tick_line" stroke="black" x1="150" x2="650" y1="169.23076923076928" y2="169.23076923076928" /><text  class="poloto_tick_labels poloto_text" dominant-baseline="middle" text-anchor="end" x="135" y="169.23076923076928" >5.25</text><line  class="poloto_axis_lines" stroke="black" x1="150" x2="144" y1="146.1538461538462" y2="146.1538461538462" /><line  class="poloto_tick_line" stroke="black" x1="150" x2="650" y1="146.1538461538462" y2="146.1538461538462" /><text  class="poloto_tick_labels poloto_text" dominant-baseline="middle" text-anchor="end" x="135" y="146.1538461538462" >5.375</text><line  class="poloto_axis_lines" stroke="black" x1="150" x2="144" y1="123.0769230769231" y2="123.0769230769231" /><line  class="poloto_tick_line" stroke="black" x1="150" x2="650" y1="123.0769230769231" y2="123.0769230769231" /><text  class="poloto_tick_labels poloto_text" dominant-baseline="middle" text-anchor="end" x="135" y="123.0769230769231" >5.5</text><line  class="poloto_axis_lines" stroke="black" x1="150" x2="144" y1="100.00000000000011" y2="100.00000000000011" /><line  class="poloto_tick_line" stroke="black" x1="150" x2="650" y1="100.00000000000011" y2="100.00000000000011" /><text  class="poloto_tick_labels poloto_text" dominant-baseline="middle" text-anchor="end" x="135" y="100.00000000000011" >5.625</text><text  class="poloto_tick_labels poloto_text" dominant-baseline="middle" text-anchor="start" x="440.00000000000006" y="70" >¹2022-04-01 00:00:00 UTC in Months</text><line  class="poloto_axis_lines" stroke="black" x1="197.46835443037708" x2="197.46835443037708" y1="400" y2="405" /><line  class="poloto_tick_line" stroke="black" x1="197.46835443037708" x2="197.46835443037708" y1="400" y2="100.00000000000011" /><text  class="poloto_tick_labels poloto_text" dominant-baseline="start" text-anchor="middle" x="197.46835443037708" y="430" >2022 Apr¹</text><line  class="poloto_axis_lines" stroke="black" x1="292.4050632911385" x2="292.4050632911385" y1="400" y2="405" /><line  class="poloto_tick_line" stroke="black" x1="292.4050632911385" x2="292.4050632911385" y1="400" y2="100.00000000000011" /><text  class="poloto_tick_labels poloto_text" dominant-baseline="start" text-anchor="middle" x="292.4050632911385" y="430" >2022 May</text><line  class="poloto_axis_lines" stroke="black" x1="390.50632911392313" x2="390.50632911392313" y1="400" y2="405" /><line  class="poloto_tick_line" stroke="black" x1="390.50632911392313" x2="390.50632911392313" y1="400" y2="100.00000000000011" /><text  class="poloto_tick_labels poloto_text" dominant-baseline="start" text-anchor="middle" x="390.50632911392313" y="430" >2022 Jun</text><line  class="poloto_axis_lines" stroke="black" x1="485.44303797468456" x2="485.44303797468456" y1="400" y2="405" /><line  class="poloto_tick_line" stroke="black" x1="485.44303797468456" x2="485.44303797468456" y1="400" y2="100.00000000000011" /><text  class="poloto_tick_labels poloto_text" dominant-baseline="start" text-anchor="middle" x="485.44303797468456" y="430" >2022 Jul</text><line  class="poloto_axis_lines" stroke="black" x1="583.5443037974692" x2="583.5443037974692" y1="400" y2="405" /><line  class="poloto_tick_line" stroke="black" x1="583.5443037974692" x2="583.5443037974692" y1="400" y2="100.00000000000011" /><text  class="poloto_tick_labels poloto_text" dominant-baseline="start" text-anchor="middle" x="583.5443037974692" y="430" >2022 Aug</text><path  stroke="black" fill="none" class="poloto_axis_lines" d=" M 150 400 L 650 400" /><path  stroke="black" fill="none" class="poloto_axis_lines" d=" M 150 400 L 150 100.00000000000011" /></svg>