<svg class="poloto" width="800" height="500" viewBox="0 0 800 500" xmlns="http://www.w3.org/2000/svg"><style>.poloto{stroke-linecap:round;stroke-linejoin:round;font-family:Roboto,sans-serif;font-size:16px;}.poloto_background{fill:#262626;}.poloto_scatter{stroke-width:7}.poloto_tick_line{stroke:dimgray;stroke-width:0.5}.poloto_line{stroke-width:2}.poloto_text{fill: white;}.poloto_axis_lines{stroke: white;stroke-width:3;fill:none;stroke-dasharray:none}.poloto_title{font-size:24px;dominant-baseline:start;text-anchor:middle;}.poloto_xname{font-size:24px;dominant-baseline:start;text-anchor:middle;}.poloto_yname{font-size:24px;dominant-baseline:start;text-anchor:middle;}.poloto0stroke{stroke:blue;}.poloto1stroke{stroke:red;}.poloto2stroke{stroke:green;}.poloto3stroke{stroke:gold;}.poloto4stroke{stroke:aqua;}.poloto5stroke{stroke:lime;}.poloto6stroke{stroke:orange;}.poloto7stroke{stroke:chocolate;}.poloto0fill{fill:blue;}.poloto1fill{fill:red;}.poloto2fill{fill:green;}.poloto3fill{fill:gold;}.poloto4fill{fill:aqua;}.poloto5fill{fill:lime;}.poloto6fill{fill:orange;}.poloto7fill{fill:chocolate;}</style><circle  r="1e5" class="poloto_background" /><text  class="poloto_text poloto_legend_text" x="675" y="100" >Refinance 15</text><line  class="poloto_line poloto_legend_icon poloto0stroke poloto0legend" stroke="black" x1="680" x2="730" y1="81.25" y2="81.25" /><path  class="poloto_line poloto0stroke" fill="none" stroke="black" d=" M 150.00 392.46 L 151.89 400.00 L 157.58 389.32 L 159.47 380.17 L 161.36 389.32 L 161.36 389.32 L 165.15 358.81 L 170.83 357.20 L 172.73 367.88 L 174.62 344.83 L 176.52 346.44 L 178.41 341.61 L 184.09 343.22 L 185.98 336.78 L 185.98 336.78 L 189.77 337.37 L 191.67 314.32 L 197.35 324.32 L 199.24 327.54 L 201.14 327.54 L 203.03 326.69 L 204.92 321.78 L 212.50 278.73 L 214.39 297.88 L 216.29 283.05 L 218.18 277.29 L 218.18 277.29 L 225.76 299.58 L 229.55 303.64 L 231.44 294.58 L 237.12 283.81 L 239.02 305.25 L 240.91 294.58 L 240.91 294.58 L 244.70 292.88 L 250.38 296.19 L 252.27 306.86 L 252.27 306.86 L 254.17 297.80 L 256.06 308.56 L 257.95 292.88 L 263.64 325.08 L 265.53 324.32 L 267.42 306.86 L 267.42 306.86 L 269.32 314.32 L 271.21 317.63 L 276.89 317.63 L 278.79 329.15 L 280.68 329.15 L 282.58 329.15 L 284.47 329.15 L 292.05 317.63 L 293.94 314.32 L 295.83 315.93 L 297.73 315.93 L 297.73 315.93 L 305.30 305.25 L 307.20 305.25 L 309.09 296.19 L 316.67 281.36 L 318.56 250.76 L 320.45 254.15 L 322.35 254.15 L 324.24 275.59 L 329.92 254.15 L 331.82 254.15 L 333.71 273.90 L 335.61 277.29 L 343.18 277.29 L 345.08 275.59 L 346.97 280.59 L 348.86 285.51 L 350.76 296.19 L 358.33 303.64 L 360.23 294.58 L 362.12 287.12 L 364.02 283.81 L 369.70 285.51 L 373.48 285.51 L 375.38 283.81 L 382.95 282.20 L 382.95 282.20 L 382.95 282.20 L 382.95 282.20 L 382.95 282.20 L 382.95 282.20 L 386.74 282.20 L 386.74 282.20 L 386.74 282.20 L 386.74 282.20 L 386.74 282.20 L 386.74 282.20 L 396.21 294.58 L 400.00 297.80 L 401.89 325.93 L 403.79 329.15 L 409.47 329.15 L 411.36 327.54 L 413.26 305.25 L 415.15 299.49 L 417.05 285.51 L 422.73 296.19 L 422.73 296.19 L 424.62 287.12 L 428.41 296.19 L 428.41 296.19 L 437.88 296.19 L 439.77 262.46 L 441.67 282.20 L 449.24 248.39 L 453.03 248.39 L 453.03 248.39 L 456.82 260.76 L 464.39 254.15 L 464.39 254.15 L 464.39 254.15 L 464.39 254.15 L 464.39 254.15 L 464.39 254.15 L 464.39 254.15 L 464.39 254.15 L 464.39 254.15 L 470.08 254.15 L 481.44 232.63 L 489.02 235.17 L 489.02 235.17 L 494.70 235.17 L 502.27 235.17 L 504.17 235.17 L 504.17 235.17 L 504.17 235.17 L 504.17 235.17 L 504.17 235.17 L 528.79 235.17 L 530.68 235.17 L 542.05 139.75 L 543.94 130.68 L 545.83 130.68 L 614.02 159.15 L 621.59 159.15 L 623.48 159.15 L 625.38 175.51 L 629.17 184.49 L 629.17 184.49 L 636.74 184.49 L 638.64 184.49 L 640.53 184.49 L 642.42 184.49 L 648.11 184.49 L 650.00 184.49" /><text  class="poloto_text poloto_legend_text" x="675" y="150" >Refinance 20</text><line  class="poloto_line poloto_legend_icon poloto1stroke poloto1legend" stroke="black" x1="680" x2="730" y1="131.25" y2="131.25" /><path  class="poloto_line poloto1stroke" fill="none" stroke="black" d=" M 150.00 345.68 L 151.89 368.31 L 157.58 334.58 L 159.47 324.24 L 161.36 333.73 L 161.36 333.73 L 165.15 304.07 L 170.83 301.53 L 172.73 312.29 L 174.62 300.25 L 176.52 311.02 L 178.41 290.85 L 184.09 321.69 L 185.98 290.85 L 185.98 290.85 L 189.77 290.85 L 189.77 290.85 L 197.35 250.17 L 199.24 282.71 L 201.14 290.85 L 203.03 301.53 L 204.92 280.59 L 212.50 260.00 L 214.39 257.37 L 216.29 252.12 L 218.18 240.08 L 223.86 245.34 L 225.76 268.14 L 229.55 260.00 L 231.44 257.37 L 237.12 248.81 L 239.02 258.73 L 240.91 258.73 L 240.91 258.73 L 244.70 258.73 L 250.38 260.00 L 252.27 281.44 L 252.27 281.44 L 254.17 269.41 L 256.06 289.58 L 257.95 281.44 L 263.64 282.71 L 265.53 281.44 L 267.42 281.44 L 267.42 281.44 L 269.32 282.71 L 271.21 289.58 L 276.89 290.85 L 278.79 294.66 L 280.68 294.66 L 282.58 294.66 L 284.47 294.66 L 292.05 289.58 L 293.94 278.81 L 295.83 281.44 L 297.73 281.44 L 297.73 281.44 L 305.30 268.14 L 307.20 270.68 L 309.09 261.27 L 316.67 215.85 L 318.56 197.03 L 320.45 207.80 L 322.35 215.85 L 324.24 238.56 L 329.92 225.17 L 331.82 218.47 L 333.71 239.92 L 335.61 250.17 L 343.18 250.17 L 345.08 238.56 L 346.97 249.32 L 348.86 260.00 L 350.76 272.03 L 358.33 280.08 L 360.23 269.41 L 362.12 258.73 L 364.02 251.44 L 369.70 257.37 L 373.48 260.00 L 375.38 258.73 L 382.95 260.00 L 382.95 260.00 L 382.95 260.00 L 382.95 260.00 L 382.95 260.00 L 382.95 260.00 L 382.95 260.00 L 382.95 260.00 L 382.95 260.00 L 382.95 260.00 L 382.95 260.00 L 382.95 260.00 L 396.21 280.08 L 400.00 282.71 L 401.89 301.53 L 403.79 304.07 L 409.47 301.27 L 411.36 301.27 L 413.26 290.85 L 415.15 294.66 L 417.05 278.81 L 422.73 270.68 L 422.73 270.68 L 424.62 270.68 L 428.41 281.44 L 428.41 281.44 L 437.88 278.81 L 439.77 260.00 L 441.67 260.00 L 449.24 246.19 L 453.03 234.58 L 453.03 234.58 L 456.82 247.54 L 464.39 215.85 L 464.39 215.85 L 464.39 215.85 L 464.39 215.85 L 464.39 215.85 L 464.39 215.85 L 464.39 215.85 L 464.39 215.85 L 464.39 215.85 L 470.08 215.85 L 481.44 202.37 L 489.02 203.73 L 492.80 203.73 L 494.70 203.73 L 494.70 203.73 L 504.17 203.73 L 506.06 203.73 L 506.06 203.73 L 506.06 203.73 L 506.06 203.73 L 528.79 203.73 L 530.68 203.73 L 542.05 118.81 L 543.94 102.97 L 543.94 102.97 L 617.80 155.34 L 621.59 155.34 L 623.48 155.34 L 627.27 174.15 L 629.17 175.51 L 629.17 175.51 L 636.74 175.51 L 638.64 175.51 L 640.53 175.51 L 642.42 175.51 L 648.11 175.51 L 650.00 175.51" /><text  class="poloto_text poloto_legend_text" x="675" y="200" >Refinance 30</text><line  class="poloto_line poloto_legend_icon poloto2stroke poloto2legend" stroke="black" x1="680" x2="730" y1="181.25" y2="181.25" /><path  class="poloto_line poloto2stroke" fill="none" stroke="black" d=" M 150.00 343.31 L 151.89 351.36 L 157.58 338.81 L 159.47 328.98 L 161.36 330.85 L 161.36 330.85 L 165.15 310.25 L 170.83 308.47 L 172.73 319.15 L 174.62 307.54 L 176.52 318.22 L 178.41 297.71 L 184.09 307.54 L 185.98 286.95 L 187.88 286.95 L 189.77 286.02 L 191.67 260.00 L 197.35 264.58 L 199.24 276.27 L 201.14 286.95 L 203.03 277.20 L 204.92 265.51 L 212.50 256.61 L 214.39 242.12 L 216.29 240.17 L 218.18 238.14 L 223.86 242.12 L 225.76 258.73 L 229.55 256.61 L 231.44 254.66 L 237.12 244.07 L 239.02 255.59 L 240.91 244.07 L 240.91 244.07 L 244.70 244.07 L 250.38 246.02 L 252.27 264.58 L 252.27 264.58 L 254.17 255.59 L 256.06 256.61 L 257.95 257.54 L 263.64 265.51 L 265.53 256.61 L 267.42 256.61 L 267.42 256.61 L 269.32 266.44 L 271.21 267.46 L 276.89 268.39 L 278.79 277.20 L 280.68 277.20 L 282.58 279.07 L 284.47 279.07 L 292.05 275.25 L 293.94 264.58 L 295.83 266.44 L 297.73 265.51 L 297.73 265.51 L 305.30 255.59 L 307.20 255.59 L 309.09 245.00 L 316.67 202.12 L 318.56 171.78 L 320.45 190.34 L 322.35 202.12 L 324.24 212.80 L 329.92 203.05 L 331.82 202.12 L 333.71 221.61 L 335.61 223.56 L 343.18 223.56 L 345.08 211.86 L 346.97 221.61 L 348.86 232.29 L 350.76 255.59 L 358.33 256.61 L 360.23 245.00 L 362.12 224.58 L 364.02 221.61 L 369.70 241.10 L 373.48 223.56 L 375.38 222.54 L 382.95 242.12 L 382.95 242.12 L 382.95 242.12 L 382.95 242.12 L 382.95 242.12 L 382.95 242.12 L 386.74 242.12 L 386.74 242.12 L 386.74 242.12 L 386.74 242.12 L 386.74 242.12 L 386.74 242.12 L 396.21 254.66 L 400.00 256.61 L 401.89 275.25 L 403.79 287.88 L 409.47 286.95 L 411.36 286.95 L 413.26 265.51 L 415.15 268.39 L 417.05 254.66 L 422.73 265.51 L 422.73 265.51 L 424.62 257.54 L 428.41 266.44 L 428.41 266.44 L 437.88 264.58 L 439.77 246.02 L 441.67 245.00 L 449.24 220.59 L 453.03 211.86 L 453.03 211.86 L 456.82 222.54 L 464.39 210.85 L 464.39 210.85 L 464.39 210.85 L 464.39 210.85 L 464.39 210.85 L 464.39 210.85 L 464.39 210.85 L 464.39 210.85 L 470.08 210.85 L 470.08 209.83 L 481.44 197.03 L 489.02 175.51 L 489.02 175.51 L 494.70 175.51 L 494.70 175.51 L 504.17 175.51 L 506.06 175.51 L 506.06 175.51 L 506.06 175.51 L 506.06 175.51 L 528.79 175.51 L 530.68 175.51 L 542.05 127.03 L 543.94 100.00 L 543.94 100.00 L 617.80 146.44 L 621.59 146.44 L 623.48 146.44 L 625.38 150.76 L 629.17 160.59 L 629.17 160.59 L 636.74 160.59 L 638.64 160.59 L 640.53 160.59 L 642.42 160.59 L 648.11 160.59 L 650.00 160.59" /><text  class="poloto_labels poloto_text poloto_title" x="400" y="37.5" >lower.com purchase rates</text><text  class="poloto_labels poloto_text poloto_xname" x="400" y="481.25" >Date</text><text  class="poloto_labels poloto_text poloto_yname" transform="rotate(-90,37.5,250)" x="37.5" y="250" >Rate (%)</text><text  class="poloto_tick_labels poloto_text" dominant-baseline="middle" text-anchor="start" x="150" y="70" ></text><line  class="poloto_axis_lines" stroke="black" x1="150" x2="144" y1="390.2542372881356" y2="390.2542372881356" /><line  class="poloto_tick_line" stroke="black" x1="150" x2="650" y1="390.2542372881356" y2="390.2542372881356" /><text  class="poloto_tick_labels poloto_text" dominant-baseline="middle" text-anchor="end" x="135" y="390.2542372881356" >3.625</text><line  class="poloto_axis_lines" stroke="black" x1="150" x2="144" y1="379.66101694915255" y2="379.66101694915255" /><line  class="poloto_tick_line" stroke="black" x1="150" x2="650" y1="379.66101694915255" y2="379.66101694915255" /><text  class="poloto_tick_labels poloto_text" dominant-baseline="middle" text-anchor="end" x="135" y="379.66101694915255" >3.75</text><line  class="poloto_axis_lines" stroke="black" x1="150" x2="144" y1="369.06779661016947" y2="369.06779661016947" /><line  class="poloto_tick_line" stroke="black" x1="150" x2="650" y1="369.06779661016947" y2="369.06779661016947" /><text  class="poloto_tick_labels poloto_text" dominant-baseline="middle" text-anchor="end" x="135" y="369.06779661016947" >3.875</text><line  class="poloto_axis_lines" stroke="black" x1="150" x2="144" y1="358.47457627118644" y2="358.47457627118644" /><line  class="poloto_tick_line" stroke="black" x1="150" x2="650" y1="358.47457627118644" y2="358.47457627118644" /><text  class="poloto_tick_labels poloto_text" dominant-baseline="middle" text-anchor="end" x="135" y="358.47457627118644" >4</text><line  class="poloto_axis_lines" stroke="black" x1="150" x2="144" y1="347.8813559322034" y2="347.8813559322034" /><line  class="poloto_tick_line" stroke="black" x1="150" x2="650" y1="347.8813559322034" y2="347.8813559322034" /><text  class="poloto_tick_labels poloto_text" dominant-baseline="middle" text-anchor="end" x="135" y="347.8813559322034" >4.125</text><line  class="poloto_axis_lines" stroke="black" x1="150" x2="144" y1="337.2881355932203" y2="337.2881355932203" /><line  class="poloto_tick_line" stroke="black" x1="150" x2="650" y1="337.2881355932203" y2="337.2881355932203" /><text  class="poloto_tick_labels poloto_text" dominant-baseline="middle" text-anchor="end" x="135" y="337.2881355932203" >4.25</text><line  class="poloto_axis_lines" stroke="black" x1="150" x2="144" y1="326.6949152542373" y2="326.6949152542373" /><line  class="poloto_tick_line" stroke="black" x1="150" x2="650" y1="326.6949152542373" y2="326.6949152542373" /><text  class="poloto_tick_labels poloto_text" dominant-baseline="middle" text-anchor="end" x="135" y="326.6949152542373" >4.375</text><line  class="poloto_axis_lines" stroke="black" x1="150" x2="144" y1="316.10169491525426" y2="316.10169491525426" /><line  class="poloto_tick_line" stroke="black" x1="150" x2="650" y1="316.10169491525426" y2="316.10169491525426" /><text  class="poloto_tick_labels poloto_text" dominant-baseline="middle" text-anchor="end" x="135" y="316.10169491525426" >4.5</text><line  class="poloto_axis_lines" stroke="black" x1="150" x2="144" y1="305.50847457627117" y2="305.50847457627117" /><line  class="poloto_tick_line" stroke="black" x1="150" x2="650" y1="305.50847457627117" y2="305.50847457627117" /><text  class="poloto_tick_labels poloto_text" dominant-baseline="middle" text-anchor="end" x="135" y="305.50847457627117" >4.625</text><line  class="poloto_axis_lines" stroke="black" x1="150" x2="144" y1="294.91525423728814" y2="294.91525423728814" /><line  class="poloto_tick_line" stroke="black" x1="150" x2="650" y1="294.91525423728814" y2="294.91525423728814" /><text  class="poloto_tick_labels poloto_text" dominant-baseline="middle" text-anchor="end" x="135" y="294.91525423728814" >4.75</text><line  class="poloto_axis_lines" stroke="black" x1="150" x2="144" y1="284.3220338983051" y2="284.3220338983051" /><line  class="poloto_tick_line" stroke="black" x1="150" x2="650" y1="284.3220338983051" y2="284.3220338983051" /><text  class="poloto_tick_labels poloto_text" dominant-baseline="middle" text-anchor="end" x="135" y="284.3220338983051" >4.875</text><line  class="poloto_axis_lines" stroke="black" x1="150" x2="144" y1="273.728813559322" y2="273.728813559322" /><line  class="poloto_tick_line" stroke="black" x1="150" x2="650" y1="273.728813559322" y2="273.728813559322" /><text  class="poloto_tick_labels poloto_text" dominant-baseline="middle" text-anchor="end" x="135" y="273.728813559322" >5</text><line  class="poloto_axis_lines" stroke="black" x1="150" x2="144" y1="263.135593220339" y2="263.135593220339" /><line  class="poloto_tick_line" stroke="black" x1="150" x2="650" y1="263.135593220339" y2="263.135593220339" /><text  class="poloto_tick_labels poloto_text" dominant-baseline="middle" text-anchor="end" x="135" y="263.135593220339" >5.125</text><line  class="poloto_axis_lines" stroke="black" x1="150" x2="144" y1="252.54237288135596" y2="252.54237288135596" /><line  class="poloto_tick_line" stroke="black" x1="150" x2="650" y1="252.54237288135596" y2="252.54237288135596" /><text  class="poloto_tick_labels poloto_text" dominant-baseline="middle" text-anchor="end" x="135" y="252.54237288135596" >5.25</text><line  class="poloto_axis_lines" stroke="black" x1="150" x2="144" y1="241.94915254237287" y2="241.94915254237287" /><line  class="poloto_tick_line" stroke="black" x1="150" x2="650" y1="241.94915254237287" y2="241.94915254237287" /><text  class="poloto_tick_labels poloto_text" dominant-baseline="middle" text-anchor="end" x="135" y="241.94915254237287" >5.375</text><line  class="poloto_axis_lines" stroke="black" x1="150" x2="144" y1="231.35593220338984" y2="231.35593220338984" /><line  class="poloto_tick_line" stroke="black" x1="150" x2="650" y1="231.35593220338984" y2="231.35593220338984" /><text  class="poloto_tick_labels poloto_text" dominant-baseline="middle" text-anchor="end" x="135" y="231.35593220338984" >5.5</text><line  class="poloto_axis_lines" stroke="black" x1="150" x2="144" y1="220.7627118644068" y2="220.7627118644068" /><line  class="poloto_tick_line" stroke="black" x1="150" x2="650" y1="220.7627118644068" y2="220.7627118644068" /><text  class="poloto_tick_labels poloto_text" dominant-baseline="middle" text-anchor="end" x="135" y="220.7627118644068" >5.625</text><line  class="poloto_axis_lines" stroke="black" x1="150" x2="144" y1="210.16949152542372" y2="210.16949152542372" /><line  class="poloto_tick_line" stroke="black" x1="150" x2="650" y1="210.16949152542372" y2="210.16949152542372" /><text  class="poloto_tick_labels poloto_text" dominant-baseline="middle" text-anchor="end" x="135" y="210.16949152542372" >5.75</text><line  class="poloto_axis_lines" stroke="black" x1="150" x2="144" y1="199.5762711864407" y2="199.5762711864407" /><line  class="poloto_tick_line" stroke="black" x1="150" x2="650" y1="199.5762711864407" y2="199.5762711864407" /><text  class="poloto_tick_labels poloto_text" dominant-baseline="middle" text-anchor="end" x="135" y="199.5762711864407" >5.875</text><line  class="poloto_axis_lines" stroke="black" x1="150" x2="144" y1="188.98305084745766" y2="188.98305084745766" /><line  class="poloto_tick_line" stroke="black" x1="150" x2="650" y1="188.98305084745766" y2="188.98305084745766" /><text  class="poloto_tick_labels poloto_text" dominant-baseline="middle" text-anchor="end" x="135" y="188.98305084745766" >6</text><line  class="poloto_axis_lines" stroke="black" x1="150" x2="144" y1="178.38983050847457" y2="178.38983050847457" /><line  class="poloto_tick_line" stroke="black" x1="150" x2="650" y1="178.38983050847457" y2="178.38983050847457" /><text  class="poloto_tick_labels poloto_text" dominant-baseline="middle" text-anchor="end" x="135" y="178.38983050847457" >6.125</text><line  class="poloto_axis_lines" stroke="black" x1="150" x2="144" y1="167.7966101694915" y2="167.7966101694915" /><line  class="poloto_tick_line" stroke="black" x1="150" x2="650" y1="167.7966101694915" y2="167.7966101694915" /><text  class="poloto_tick_labels poloto_text" dominant-baseline="middle" text-anchor="end" x="135" y="167.7966101694915" >6.25</text><line  class="poloto_axis_lines" stroke="black" x1="150" x2="144" y1="157.2033898305085" y2="157.2033898305085" /><line  class="poloto_tick_line" stroke="black" x1="150" x2="650" y1="157.2033898305085" y2="157.2033898305085" /><text  class="poloto_tick_labels poloto_text" dominant-baseline="middle" text-anchor="end" x="135" y="157.2033898305085" >6.375</text><line  class="poloto_axis_lines" stroke="black" x1="150" x2="144" y1="146.61016949152543" y2="146.61016949152543" /><line  class="poloto_tick_line" stroke="black" x1="150" x2="650" y1="146.61016949152543" y2="146.61016949152543" /><text  class="poloto_tick_labels poloto_text" dominant-baseline="middle" text-anchor="end" x="135" y="146.61016949152543" >6.5</text><line  class="poloto_axis_lines" stroke="black" x1="150" x2="144" y1="136.01694915254234" y2="136.01694915254234" /><line  class="poloto_tick_line" stroke="black" x1="150" x2="650" y1="136.01694915254234" y2="136.01694915254234" /><text  class="poloto_tick_labels poloto_text" dominant-baseline="middle" text-anchor="end" x="135" y="136.01694915254234" >6.625</text><line  class="poloto_axis_lines" stroke="black" x1="150" x2="144" y1="125.42372881355936" y2="125.42372881355936" /><line  class="poloto_tick_line" stroke="black" x1="150" x2="650" y1="125.42372881355936" y2="125.42372881355936" /><text  class="poloto_tick_labels poloto_text" dominant-baseline="middle" text-anchor="end" x="135" y="125.42372881355936" >6.75</text><line  class="poloto_axis_lines" stroke="black" x1="150" x2="144" y1="114.83050847457628" y2="114.83050847457628" /><line  class="poloto_tick_line" stroke="black" x1="150" x2="650" y1="114.83050847457628" y2="114.83050847457628" /><text  class="poloto_tick_labels poloto_text" dominant-baseline="middle" text-anchor="end" x="135" y="114.83050847457628" >6.875</text><line  class="poloto_axis_lines" stroke="black" x1="150" x2="144" y1="104.23728813559319" y2="104.23728813559319" /><line  class="poloto_tick_line" stroke="black" x1="150" x2="650" y1="104.23728813559319" y2="104.23728813559319" /><text  class="poloto_tick_labels poloto_text" dominant-baseline="middle" text-anchor="end" x="135" y="104.23728813559319" >7</text><text  class="poloto_tick_labels poloto_text" dominant-baseline="middle" text-anchor="start" x="440.00000000000006" y="70" >¹2022-05-01 00:00:00 UTC in Months</text><line  class="poloto_axis_lines" stroke="black" x1="235.22727272727207" x2="235.22727272727207" y1="400" y2="405" /><line  class="poloto_tick_line" stroke="black" x1="235.22727272727207" x2="235.22727272727207" y1="400" y2="100" /><text  class="poloto_tick_labels poloto_text" dominant-baseline="start" text-anchor="middle" x="235.22727272727207" y="430" >2022 May¹</text><line  class="poloto_axis_lines" stroke="black" x1="350.757575757576" x2="350.757575757576" y1="400" y2="405" /><line  class="poloto_tick_line" stroke="black" x1="350.757575757576" x2="350.757575757576" y1="400" y2="100" /><text  class="poloto_tick_labels poloto_text" dominant-baseline="start" text-anchor="middle" x="350.757575757576" y="430" >2022 Jul</text><line  class="poloto_axis_lines" stroke="black" x1="468.1818181818162" x2="468.1818181818162" y1="400" y2="405" /><line  class="poloto_tick_line" stroke="black" x1="468.1818181818162" x2="468.1818181818162" y1="400" y2="100" /><text  class="poloto_tick_labels poloto_text" dominant-baseline="start" text-anchor="middle" x="468.1818181818162" y="430" >2022 Sep</text><line  class="poloto_axis_lines" stroke="black" x1="583.7121212121201" x2="583.7121212121201" y1="400" y2="405" /><line  class="poloto_tick_line" stroke="black" x1="583.7121212121201" x2="583.7121212121201" y1="400" y2="100" /><text  class="poloto_tick_labels poloto_text" dominant-baseline="start" text-anchor="middle" x="583.7121212121201" y="430" >2022 Nov</text><path  stroke="black" fill="none" class="poloto_axis_lines" d=" M 150 400 L 650 400" /><path  stroke="black" fill="none" class="poloto_axis_lines" d=" M 150 400 L 150 100" /></svg>