<svg class="poloto" width="800" height="500" viewBox="0 0 800 500" xmlns="http://www.w3.org/2000/svg"><style>.poloto{stroke-linecap:round;stroke-linejoin:round;font-family:Roboto,sans-serif;font-size:16px;}.poloto_background{fill:#262626;}.poloto_scatter{stroke-width:7}.poloto_tick_line{stroke:dimgray;stroke-width:0.5}.poloto_line{stroke-width:2}.poloto_text{fill: white;}.poloto_axis_lines{stroke: white;stroke-width:3;fill:none;stroke-dasharray:none}.poloto_title{font-size:24px;dominant-baseline:start;text-anchor:middle;}.poloto_xname{font-size:24px;dominant-baseline:start;text-anchor:middle;}.poloto_yname{font-size:24px;dominant-baseline:start;text-anchor:middle;}.poloto0stroke{stroke:blue;}.poloto1stroke{stroke:red;}.poloto2stroke{stroke:green;}.poloto3stroke{stroke:gold;}.poloto4stroke{stroke:aqua;}.poloto5stroke{stroke:lime;}.poloto6stroke{stroke:orange;}.poloto7stroke{stroke:chocolate;}.poloto0fill{fill:blue;}.poloto1fill{fill:red;}.poloto2fill{fill:green;}.poloto3fill{fill:gold;}.poloto4fill{fill:aqua;}.poloto5fill{fill:lime;}.poloto6fill{fill:orange;}.poloto7fill{fill:chocolate;}</style><circle  r="1e5" class="poloto_background" /><text  class="poloto_text poloto_legend_text" x="675" y="100" >Refinance 15</text><line  class="poloto_line poloto_legend_icon poloto0stroke poloto0legend" stroke="black" x1="680" x2="730" y1="81.25" y2="81.25" /><path  class="poloto_line poloto0stroke" fill="none" stroke="black" d=" M 150.00 392.46 L 151.50 400.00 L 156.01 389.32 L 157.51 380.17 L 159.01 389.32 L 159.01 389.32 L 162.01 358.81 L 166.52 357.20 L 168.02 367.88 L 169.52 344.83 L 171.02 346.44 L 172.52 341.61 L 177.03 343.22 L 178.53 336.78 L 178.53 336.78 L 181.53 337.37 L 183.03 314.32 L 187.54 324.32 L 189.04 327.54 L 190.54 327.54 L 192.04 326.69 L 193.54 321.78 L 199.55 278.73 L 201.05 297.88 L 202.55 283.05 L 204.05 277.29 L 204.05 277.29 L 210.06 299.58 L 213.06 303.64 L 214.56 294.58 L 219.07 283.81 L 220.57 305.25 L 222.07 294.58 L 222.07 294.58 L 225.08 292.88 L 229.58 296.19 L 231.08 306.86 L 231.08 306.86 L 232.58 297.80 L 234.08 308.56 L 235.59 292.88 L 240.09 325.08 L 241.59 324.32 L 243.09 306.86 L 243.09 306.86 L 244.59 314.32 L 246.10 317.63 L 250.60 317.63 L 252.10 329.15 L 253.60 329.15 L 255.11 329.15 L 256.61 329.15 L 262.61 317.63 L 264.11 314.32 L 265.62 315.93 L 267.12 315.93 L 267.12 315.93 L 273.12 305.25 L 274.62 305.25 L 276.13 296.19 L 282.13 281.36 L 283.63 250.76 L 285.14 254.15 L 286.64 254.15 L 288.14 275.59 L 292.64 254.15 L 294.14 254.15 L 295.65 273.90 L 297.15 277.29 L 303.15 277.29 L 304.65 275.59 L 306.16 280.59 L 307.66 285.51 L 309.16 296.19 L 315.17 303.64 L 316.67 294.58 L 318.17 287.12 L 319.67 283.81 L 324.17 285.51 L 327.18 285.51 L 328.68 283.81 L 334.68 282.20 L 334.68 282.20 L 334.68 282.20 L 334.68 282.20 L 334.68 282.20 L 334.68 282.20 L 337.69 282.20 L 337.69 282.20 L 337.69 282.20 L 337.69 282.20 L 337.69 282.20 L 337.69 282.20 L 345.20 294.58 L 348.20 297.80 L 349.70 325.93 L 351.20 329.15 L 355.71 329.15 L 357.21 327.54 L 358.71 305.25 L 360.21 299.49 L 361.71 285.51 L 366.22 296.19 L 366.22 296.19 L 367.72 287.12 L 370.72 296.19 L 370.72 296.19 L 378.23 296.19 L 379.73 262.46 L 381.23 282.20 L 387.24 248.39 L 390.24 248.39 L 390.24 248.39 L 393.24 260.76 L 399.25 254.15 L 399.25 254.15 L 399.25 254.15 L 399.25 254.15 L 399.25 254.15 L 399.25 254.15 L 399.25 254.15 L 399.25 254.15 L 399.25 254.15 L 403.75 254.15 L 412.76 232.63 L 418.77 235.17 L 418.77 235.17 L 423.27 235.17 L 429.28 235.17 L 430.78 235.17 L 430.78 235.17 L 430.78 235.17 L 430.78 235.17 L 430.78 235.17 L 450.30 235.17 L 451.80 235.17 L 460.81 139.75 L 462.31 130.68 L 463.81 130.68 L 517.87 159.15 L 523.87 159.15 L 525.38 159.15 L 526.88 175.51 L 529.88 184.49 L 529.88 184.49 L 535.89 184.49 L 537.39 184.49 L 538.89 184.49 L 540.39 184.49 L 544.89 184.49 L 546.40 184.49 L 549.40 184.49 L 550.90 184.49 L 555.41 184.49 L 556.91 184.49 L 556.91 184.49 L 561.41 184.49 L 565.92 184.49 L 567.42 184.49 L 568.92 184.49 L 570.42 184.49 L 571.92 184.49 L 577.93 209.15 L 579.43 180.68 L 580.93 159.15 L 582.43 169.92 L 586.94 169.92 L 588.44 169.92 L 588.44 169.92 L 591.44 193.05 L 592.94 193.05 L 597.45 193.05 L 598.95 193.05 L 600.45 193.05 L 601.95 193.05 L 603.45 193.05 L 603.45 193.05 L 603.45 193.05 L 603.45 193.05 L 610.96 193.05 L 613.96 193.05 L 618.47 193.05 L 619.97 193.05 L 622.97 193.05 L 624.47 193.05 L 630.48 193.05 L 631.98 193.05 L 633.48 193.05 L 634.98 223.56 L 639.49 230.34 L 640.99 191.36 L 642.49 203.81 L 643.99 202.12 L 645.50 182.37 L 650.00 137.71" /><text  class="poloto_text poloto_legend_text" x="675" y="150" >Refinance 20</text><line  class="poloto_line poloto_legend_icon poloto1stroke poloto1legend" stroke="black" x1="680" x2="730" y1="131.25" y2="131.25" /><path  class="poloto_line poloto1stroke" fill="none" stroke="black" d=" M 150.00 345.68 L 151.50 368.31 L 156.01 334.58 L 157.51 324.24 L 159.01 333.73 L 159.01 333.73 L 162.01 304.07 L 166.52 301.53 L 168.02 312.29 L 169.52 300.25 L 171.02 311.02 L 172.52 290.85 L 177.03 321.69 L 178.53 290.85 L 178.53 290.85 L 181.53 290.85 L 181.53 290.85 L 187.54 250.17 L 189.04 282.71 L 190.54 290.85 L 192.04 301.53 L 193.54 280.59 L 199.55 260.00 L 201.05 257.37 L 202.55 252.12 L 204.05 240.08 L 208.56 245.34 L 210.06 268.14 L 213.06 260.00 L 214.56 257.37 L 219.07 248.81 L 220.57 258.73 L 222.07 258.73 L 222.07 258.73 L 225.08 258.73 L 229.58 260.00 L 231.08 281.44 L 231.08 281.44 L 232.58 269.41 L 234.08 289.58 L 235.59 281.44 L 240.09 282.71 L 241.59 281.44 L 243.09 281.44 L 243.09 281.44 L 244.59 282.71 L 246.10 289.58 L 250.60 290.85 L 252.10 294.66 L 253.60 294.66 L 255.11 294.66 L 256.61 294.66 L 262.61 289.58 L 264.11 278.81 L 265.62 281.44 L 267.12 281.44 L 267.12 281.44 L 273.12 268.14 L 274.62 270.68 L 276.13 261.27 L 282.13 215.85 L 283.63 197.03 L 285.14 207.80 L 286.64 215.85 L 288.14 238.56 L 292.64 225.17 L 294.14 218.47 L 295.65 239.92 L 297.15 250.17 L 303.15 250.17 L 304.65 238.56 L 306.16 249.32 L 307.66 260.00 L 309.16 272.03 L 315.17 280.08 L 316.67 269.41 L 318.17 258.73 L 319.67 251.44 L 324.17 257.37 L 327.18 260.00 L 328.68 258.73 L 334.68 260.00 L 334.68 260.00 L 334.68 260.00 L 334.68 260.00 L 334.68 260.00 L 334.68 260.00 L 334.68 260.00 L 334.68 260.00 L 334.68 260.00 L 334.68 260.00 L 334.68 260.00 L 334.68 260.00 L 345.20 280.08 L 348.20 282.71 L 349.70 301.53 L 351.20 304.07 L 355.71 301.27 L 357.21 301.27 L 358.71 290.85 L 360.21 294.66 L 361.71 278.81 L 366.22 270.68 L 366.22 270.68 L 367.72 270.68 L 370.72 281.44 L 370.72 281.44 L 378.23 278.81 L 379.73 260.00 L 381.23 260.00 L 387.24 246.19 L 390.24 234.58 L 390.24 234.58 L 393.24 247.54 L 399.25 215.85 L 399.25 215.85 L 399.25 215.85 L 399.25 215.85 L 399.25 215.85 L 399.25 215.85 L 399.25 215.85 L 399.25 215.85 L 399.25 215.85 L 403.75 215.85 L 412.76 202.37 L 418.77 203.73 L 421.77 203.73 L 423.27 203.73 L 423.27 203.73 L 430.78 203.73 L 432.28 203.73 L 432.28 203.73 L 432.28 203.73 L 432.28 203.73 L 450.30 203.73 L 451.80 203.73 L 460.81 118.81 L 462.31 102.97 L 462.31 102.97 L 520.87 155.34 L 523.87 155.34 L 525.38 155.34 L 528.38 174.15 L 529.88 175.51 L 529.88 175.51 L 535.89 175.51 L 537.39 175.51 L 538.89 175.51 L 540.39 175.51 L 544.89 175.51 L 546.40 175.51 L 549.40 175.51 L 550.90 175.51 L 555.41 175.51 L 556.91 175.51 L 556.91 175.51 L 561.41 175.51 L 565.92 175.51 L 567.42 175.51 L 568.92 175.51 L 570.42 175.51 L 571.92 175.51 L 577.93 156.36 L 579.43 145.93 L 580.93 144.58 L 582.43 147.37 L 586.94 147.37 L 588.44 147.37 L 588.44 147.37 L 591.44 167.46 L 592.94 167.46 L 597.45 167.46 L 598.95 167.46 L 600.45 167.46 L 601.95 167.46 L 603.45 167.46 L 603.45 167.46 L 609.46 167.46 L 609.46 167.46 L 610.96 167.46 L 613.96 167.46 L 618.47 167.46 L 619.97 167.46 L 622.97 167.46 L 624.47 167.46 L 630.48 167.46 L 631.98 167.46 L 633.48 167.46 L 634.98 190.34 L 639.49 188.98 L 640.99 156.69 L 642.49 158.05 L 642.49 158.05 L 645.50 156.69 L 650.00 135.17" /><text  class="poloto_text poloto_legend_text" x="675" y="200" >Refinance 30</text><line  class="poloto_line poloto_legend_icon poloto2stroke poloto2legend" stroke="black" x1="680" x2="730" y1="181.25" y2="181.25" /><path  class="poloto_line poloto2stroke" fill="none" stroke="black" d=" M 150.00 343.31 L 151.50 351.36 L 156.01 338.81 L 157.51 328.98 L 159.01 330.85 L 159.01 330.85 L 162.01 310.25 L 166.52 308.47 L 168.02 319.15 L 169.52 307.54 L 171.02 318.22 L 172.52 297.71 L 177.03 307.54 L 178.53 286.95 L 180.03 286.95 L 181.53 286.02 L 183.03 260.00 L 187.54 264.58 L 189.04 276.27 L 190.54 286.95 L 192.04 277.20 L 193.54 265.51 L 199.55 256.61 L 201.05 242.12 L 202.55 240.17 L 204.05 238.14 L 208.56 242.12 L 210.06 258.73 L 213.06 256.61 L 214.56 254.66 L 219.07 244.07 L 220.57 255.59 L 222.07 244.07 L 222.07 244.07 L 225.08 244.07 L 229.58 246.02 L 231.08 264.58 L 231.08 264.58 L 232.58 255.59 L 234.08 256.61 L 235.59 257.54 L 240.09 265.51 L 241.59 256.61 L 243.09 256.61 L 243.09 256.61 L 244.59 266.44 L 246.10 267.46 L 250.60 268.39 L 252.10 277.20 L 253.60 277.20 L 255.11 279.07 L 256.61 279.07 L 262.61 275.25 L 264.11 264.58 L 265.62 266.44 L 267.12 265.51 L 267.12 265.51 L 273.12 255.59 L 274.62 255.59 L 276.13 245.00 L 282.13 202.12 L 283.63 171.78 L 285.14 190.34 L 286.64 202.12 L 288.14 212.80 L 292.64 203.05 L 294.14 202.12 L 295.65 221.61 L 297.15 223.56 L 303.15 223.56 L 304.65 211.86 L 306.16 221.61 L 307.66 232.29 L 309.16 255.59 L 315.17 256.61 L 316.67 245.00 L 318.17 224.58 L 319.67 221.61 L 324.17 241.10 L 327.18 223.56 L 328.68 222.54 L 334.68 242.12 L 334.68 242.12 L 334.68 242.12 L 334.68 242.12 L 334.68 242.12 L 334.68 242.12 L 337.69 242.12 L 337.69 242.12 L 337.69 242.12 L 337.69 242.12 L 337.69 242.12 L 337.69 242.12 L 345.20 254.66 L 348.20 256.61 L 349.70 275.25 L 351.20 287.88 L 355.71 286.95 L 357.21 286.95 L 358.71 265.51 L 360.21 268.39 L 361.71 254.66 L 366.22 265.51 L 366.22 265.51 L 367.72 257.54 L 370.72 266.44 L 370.72 266.44 L 378.23 264.58 L 379.73 246.02 L 381.23 245.00 L 387.24 220.59 L 390.24 211.86 L 390.24 211.86 L 393.24 222.54 L 399.25 210.85 L 399.25 210.85 L 399.25 210.85 L 399.25 210.85 L 399.25 210.85 L 399.25 210.85 L 399.25 210.85 L 399.25 210.85 L 403.75 210.85 L 403.75 209.83 L 412.76 197.03 L 418.77 175.51 L 418.77 175.51 L 423.27 175.51 L 423.27 175.51 L 430.78 175.51 L 432.28 175.51 L 432.28 175.51 L 432.28 175.51 L 432.28 175.51 L 450.30 175.51 L 451.80 175.51 L 460.81 127.03 L 462.31 100.00 L 462.31 100.00 L 520.87 146.44 L 523.87 146.44 L 525.38 146.44 L 526.88 150.76 L 529.88 160.59 L 529.88 160.59 L 535.89 160.59 L 537.39 160.59 L 538.89 160.59 L 540.39 160.59 L 544.89 160.59 L 546.40 160.59 L 549.40 160.59 L 550.90 160.59 L 555.41 160.59 L 556.91 160.59 L 556.91 160.59 L 561.41 160.59 L 565.92 160.59 L 567.42 160.59 L 568.92 160.59 L 570.42 160.59 L 571.92 160.59 L 577.93 144.24 L 579.43 152.88 L 580.93 132.37 L 582.43 152.88 L 586.94 152.88 L 588.44 152.88 L 588.44 152.88 L 591.44 152.88 L 592.94 152.88 L 597.45 152.88 L 598.95 152.88 L 600.45 152.88 L 601.95 152.88 L 603.45 152.88 L 603.45 152.88 L 609.46 152.88 L 609.46 152.88 L 610.96 152.88 L 613.96 152.88 L 618.47 152.88 L 619.97 152.88 L 622.97 152.88 L 624.47 152.88 L 630.48 152.88 L 631.98 152.88 L 633.48 152.88 L 634.98 207.80 L 639.49 197.03 L 640.99 153.98 L 642.49 186.27 L 643.99 153.98 L 645.50 143.14 L 650.00 132.37" /><text  class="poloto_labels poloto_text poloto_title" x="400" y="37.5" >lower.com purchase rates</text><text  class="poloto_labels poloto_text poloto_xname" x="400" y="481.25" >Date</text><text  class="poloto_labels poloto_text poloto_yname" transform="rotate(-90,37.5,250)" x="37.5" y="250" >Rate (%)</text><text  class="poloto_tick_labels poloto_text" dominant-baseline="middle" text-anchor="start" x="150" y="70" ></text><line  class="poloto_axis_lines" stroke="black" x1="150" x2="144" y1="390.2542372881356" y2="390.2542372881356" /><line  class="poloto_tick_line" stroke="black" x1="150" x2="650" y1="390.2542372881356" y2="390.2542372881356" /><text  class="poloto_tick_labels poloto_text" dominant-baseline="middle" text-anchor="end" x="135" y="390.2542372881356" >3.625</text><line  class="poloto_axis_lines" stroke="black" x1="150" x2="144" y1="379.66101694915255" y2="379.66101694915255" /><line  class="poloto_tick_line" stroke="black" x1="150" x2="650" y1="379.66101694915255" y2="379.66101694915255" /><text  class="poloto_tick_labels poloto_text" dominant-baseline="middle" text-anchor="end" x="135" y="379.66101694915255" >3.75</text><line  class="poloto_axis_lines" stroke="black" x1="150" x2="144" y1="369.06779661016947" y2="369.06779661016947" /><line  class="poloto_tick_line" stroke="black" x1="150" x2="650" y1="369.06779661016947" y2="369.06779661016947" /><text  class="poloto_tick_labels poloto_text" dominant-baseline="middle" text-anchor="end" x="135" y="369.06779661016947" >3.875</text><line  class="poloto_axis_lines" stroke="black" x1="150" x2="144" y1="358.47457627118644" y2="358.47457627118644" /><line  class="poloto_tick_line" stroke="black" x1="150" x2="650" y1="358.47457627118644" y2="358.47457627118644" /><text  class="poloto_tick_labels poloto_text" dominant-baseline="middle" text-anchor="end" x="135" y="358.47457627118644" >4</text><line  class="poloto_axis_lines" stroke="black" x1="150" x2="144" y1="347.8813559322034" y2="347.8813559322034" /><line  class="poloto_tick_line" stroke="black" x1="150" x2="650" y1="347.8813559322034" y2="347.8813559322034" /><text  class="poloto_tick_labels poloto_text" dominant-baseline="middle" text-anchor="end" x="135" y="347.8813559322034" >4.125</text><line  class="poloto_axis_lines" stroke="black" x1="150" x2="144" y1="337.2881355932203" y2="337.2881355932203" /><line  class="poloto_tick_line" stroke="black" x1="150" x2="650" y1="337.2881355932203" y2="337.2881355932203" /><text  class="poloto_tick_labels poloto_text" dominant-baseline="middle" text-anchor="end" x="135" y="337.2881355932203" >4.25</text><line  class="poloto_axis_lines" stroke="black" x1="150" x2="144" y1="326.6949152542373" y2="326.6949152542373" /><line  class="poloto_tick_line" stroke="black" x1="150" x2="650" y1="326.6949152542373" y2="326.6949152542373" /><text  class="poloto_tick_labels poloto_text" dominant-baseline="middle" text-anchor="end" x="135" y="326.6949152542373" >4.375</text><line  class="poloto_axis_lines" stroke="black" x1="150" x2="144" y1="316.10169491525426" y2="316.10169491525426" /><line  class="poloto_tick_line" stroke="black" x1="150" x2="650" y1="316.10169491525426" y2="316.10169491525426" /><text  class="poloto_tick_labels poloto_text" dominant-baseline="middle" text-anchor="end" x="135" y="316.10169491525426" >4.5</text><line  class="poloto_axis_lines" stroke="black" x1="150" x2="144" y1="305.50847457627117" y2="305.50847457627117" /><line  class="poloto_tick_line" stroke="black" x1="150" x2="650" y1="305.50847457627117" y2="305.50847457627117" /><text  class="poloto_tick_labels poloto_text" dominant-baseline="middle" text-anchor="end" x="135" y="305.50847457627117" >4.625</text><line  class="poloto_axis_lines" stroke="black" x1="150" x2="144" y1="294.91525423728814" y2="294.91525423728814" /><line  class="poloto_tick_line" stroke="black" x1="150" x2="650" y1="294.91525423728814" y2="294.91525423728814" /><text  class="poloto_tick_labels poloto_text" dominant-baseline="middle" text-anchor="end" x="135" y="294.91525423728814" >4.75</text><line  class="poloto_axis_lines" stroke="black" x1="150" x2="144" y1="284.3220338983051" y2="284.3220338983051" /><line  class="poloto_tick_line" stroke="black" x1="150" x2="650" y1="284.3220338983051" y2="284.3220338983051" /><text  class="poloto_tick_labels poloto_text" dominant-baseline="middle" text-anchor="end" x="135" y="284.3220338983051" >4.875</text><line  class="poloto_axis_lines" stroke="black" x1="150" x2="144" y1="273.728813559322" y2="273.728813559322" /><line  class="poloto_tick_line" stroke="black" x1="150" x2="650" y1="273.728813559322" y2="273.728813559322" /><text  class="poloto_tick_labels poloto_text" dominant-baseline="middle" text-anchor="end" x="135" y="273.728813559322" >5</text><line  class="poloto_axis_lines" stroke="black" x1="150" x2="144" y1="263.135593220339" y2="263.135593220339" /><line  class="poloto_tick_line" stroke="black" x1="150" x2="650" y1="263.135593220339" y2="263.135593220339" /><text  class="poloto_tick_labels poloto_text" dominant-baseline="middle" text-anchor="end" x="135" y="263.135593220339" >5.125</text><line  class="poloto_axis_lines" stroke="black" x1="150" x2="144" y1="252.54237288135596" y2="252.54237288135596" /><line  class="poloto_tick_line" stroke="black" x1="150" x2="650" y1="252.54237288135596" y2="252.54237288135596" /><text  class="poloto_tick_labels poloto_text" dominant-baseline="middle" text-anchor="end" x="135" y="252.54237288135596" >5.25</text><line  class="poloto_axis_lines" stroke="black" x1="150" x2="144" y1="241.94915254237287" y2="241.94915254237287" /><line  class="poloto_tick_line" stroke="black" x1="150" x2="650" y1="241.94915254237287" y2="241.94915254237287" /><text  class="poloto_tick_labels poloto_text" dominant-baseline="middle" text-anchor="end" x="135" y="241.94915254237287" >5.375</text><line  class="poloto_axis_lines" stroke="black" x1="150" x2="144" y1="231.35593220338984" y2="231.35593220338984" /><line  class="poloto_tick_line" stroke="black" x1="150" x2="650" y1="231.35593220338984" y2="231.35593220338984" /><text  class="poloto_tick_labels poloto_text" dominant-baseline="middle" text-anchor="end" x="135" y="231.35593220338984" >5.5</text><line  class="poloto_axis_lines" stroke="black" x1="150" x2="144" y1="220.7627118644068" y2="220.7627118644068" /><line  class="poloto_tick_line" stroke="black" x1="150" x2="650" y1="220.7627118644068" y2="220.7627118644068" /><text  class="poloto_tick_labels poloto_text" dominant-baseline="middle" text-anchor="end" x="135" y="220.7627118644068" >5.625</text><line  class="poloto_axis_lines" stroke="black" x1="150" x2="144" y1="210.16949152542372" y2="210.16949152542372" /><line  class="poloto_tick_line" stroke="black" x1="150" x2="650" y1="210.16949152542372" y2="210.16949152542372" /><text  class="poloto_tick_labels poloto_text" dominant-baseline="middle" text-anchor="end" x="135" y="210.16949152542372" >5.75</text><line  class="poloto_axis_lines" stroke="black" x1="150" x2="144" y1="199.5762711864407" y2="199.5762711864407" /><line  class="poloto_tick_line" stroke="black" x1="150" x2="650" y1="199.5762711864407" y2="199.5762711864407" /><text  class="poloto_tick_labels poloto_text" dominant-baseline="middle" text-anchor="end" x="135" y="199.5762711864407" >5.875</text><line  class="poloto_axis_lines" stroke="black" x1="150" x2="144" y1="188.98305084745766" y2="188.98305084745766" /><line  class="poloto_tick_line" stroke="black" x1="150" x2="650" y1="188.98305084745766" y2="188.98305084745766" /><text  class="poloto_tick_labels poloto_text" dominant-baseline="middle" text-anchor="end" x="135" y="188.98305084745766" >6</text><line  class="poloto_axis_lines" stroke="black" x1="150" x2="144" y1="178.38983050847457" y2="178.38983050847457" /><line  class="poloto_tick_line" stroke="black" x1="150" x2="650" y1="178.38983050847457" y2="178.38983050847457" /><text  class="poloto_tick_labels poloto_text" dominant-baseline="middle" text-anchor="end" x="135" y="178.38983050847457" >6.125</text><line  class="poloto_axis_lines" stroke="black" x1="150" x2="144" y1="167.7966101694915" y2="167.7966101694915" /><line  class="poloto_tick_line" stroke="black" x1="150" x2="650" y1="167.7966101694915" y2="167.7966101694915" /><text  class="poloto_tick_labels poloto_text" dominant-baseline="middle" text-anchor="end" x="135" y="167.7966101694915" >6.25</text><line  class="poloto_axis_lines" stroke="black" x1="150" x2="144" y1="157.2033898305085" y2="157.2033898305085" /><line  class="poloto_tick_line" stroke="black" x1="150" x2="650" y1="157.2033898305085" y2="157.2033898305085" /><text  class="poloto_tick_labels poloto_text" dominant-baseline="middle" text-anchor="end" x="135" y="157.2033898305085" >6.375</text><line  class="poloto_axis_lines" stroke="black" x1="150" x2="144" y1="146.61016949152543" y2="146.61016949152543" /><line  class="poloto_tick_line" stroke="black" x1="150" x2="650" y1="146.61016949152543" y2="146.61016949152543" /><text  class="poloto_tick_labels poloto_text" dominant-baseline="middle" text-anchor="end" x="135" y="146.61016949152543" >6.5</text><line  class="poloto_axis_lines" stroke="black" x1="150" x2="144" y1="136.01694915254234" y2="136.01694915254234" /><line  class="poloto_tick_line" stroke="black" x1="150" x2="650" y1="136.01694915254234" y2="136.01694915254234" /><text  class="poloto_tick_labels poloto_text" dominant-baseline="middle" text-anchor="end" x="135" y="136.01694915254234" >6.625</text><line  class="poloto_axis_lines" stroke="black" x1="150" x2="144" y1="125.42372881355936" y2="125.42372881355936" /><line  class="poloto_tick_line" stroke="black" x1="150" x2="650" y1="125.42372881355936" y2="125.42372881355936" /><text  class="poloto_tick_labels poloto_text" dominant-baseline="middle" text-anchor="end" x="135" y="125.42372881355936" >6.75</text><line  class="poloto_axis_lines" stroke="black" x1="150" x2="144" y1="114.83050847457628" y2="114.83050847457628" /><line  class="poloto_tick_line" stroke="black" x1="150" x2="650" y1="114.83050847457628" y2="114.83050847457628" /><text  class="poloto_tick_labels poloto_text" dominant-baseline="middle" text-anchor="end" x="135" y="114.83050847457628" >6.875</text><line  class="poloto_axis_lines" stroke="black" x1="150" x2="144" y1="104.23728813559319" y2="104.23728813559319" /><line  class="poloto_tick_line" stroke="black" x1="150" x2="650" y1="104.23728813559319" y2="104.23728813559319" /><text  class="poloto_tick_labels poloto_text" dominant-baseline="middle" text-anchor="end" x="135" y="104.23728813559319" >7</text><text  class="poloto_tick_labels poloto_text" dominant-baseline="middle" text-anchor="start" x="440.00000000000006" y="70" >¹2022-05-01 00:00:00 UTC in Months</text><line  class="poloto_axis_lines" stroke="black" x1="217.56756756756658" x2="217.56756756756658" y1="400" y2="405" /><line  class="poloto_tick_line" stroke="black" x1="217.56756756756658" x2="217.56756756756658" y1="400" y2="100" /><text  class="poloto_tick_labels poloto_text" dominant-baseline="start" text-anchor="middle" x="217.56756756756658" y="430" >2022 May¹</text><line  class="poloto_axis_lines" stroke="black" x1="309.1591591591605" x2="309.1591591591605" y1="400" y2="405" /><line  class="poloto_tick_line" stroke="black" x1="309.1591591591605" x2="309.1591591591605" y1="400" y2="100" /><text  class="poloto_tick_labels poloto_text" dominant-baseline="start" text-anchor="middle" x="309.1591591591605" y="430" >2022 Jul</text><line  class="poloto_axis_lines" stroke="black" x1="402.2522522522522" x2="402.2522522522522" y1="400" y2="405" /><line  class="poloto_tick_line" stroke="black" x1="402.2522522522522" x2="402.2522522522522" y1="400" y2="100" /><text  class="poloto_tick_labels poloto_text" dominant-baseline="start" text-anchor="middle" x="402.2522522522522" y="430" >2022 Sep</text><line  class="poloto_axis_lines" stroke="black" x1="493.8438438438425" x2="493.8438438438425" y1="400" y2="405" /><line  class="poloto_tick_line" stroke="black" x1="493.8438438438425" x2="493.8438438438425" y1="400" y2="100" /><text  class="poloto_tick_labels poloto_text" dominant-baseline="start" text-anchor="middle" x="493.8438438438425" y="430" >2022 Nov</text><line  class="poloto_axis_lines" stroke="black" x1="585.4354354354364" x2="585.4354354354364" y1="400" y2="405" /><line  class="poloto_tick_line" stroke="black" x1="585.4354354354364" x2="585.4354354354364" y1="400" y2="100" /><text  class="poloto_tick_labels poloto_text" dominant-baseline="start" text-anchor="middle" x="585.4354354354364" y="430" >2023 Jan</text><path  stroke="black" fill="none" class="poloto_axis_lines" d=" M 150 400 L 650 400" /><path  stroke="black" fill="none" class="poloto_axis_lines" d=" M 150 400 L 150 100" /></svg>