<svg class="poloto" width="800" height="500" viewBox="0 0 800 500" xmlns="http://www.w3.org/2000/svg"><style>.poloto{stroke-linecap:round;stroke-linejoin:round;font-family:Roboto,sans-serif;font-size:16px;}.poloto_background{fill:#262626;}.poloto_scatter{stroke-width:7}.poloto_tick_line{stroke:dimgray;stroke-width:0.5}.poloto_line{stroke-width:2}.poloto_text{fill: white;}.poloto_axis_lines{stroke: white;stroke-width:3;fill:none;stroke-dasharray:none}.poloto_title{font-size:24px;dominant-baseline:start;text-anchor:middle;}.poloto_xname{font-size:24px;dominant-baseline:start;text-anchor:middle;}.poloto_yname{font-size:24px;dominant-baseline:start;text-anchor:middle;}.poloto0stroke{stroke:blue;}.poloto1stroke{stroke:red;}.poloto2stroke{stroke:green;}.poloto3stroke{stroke:gold;}.poloto4stroke{stroke:aqua;}.poloto5stroke{stroke:lime;}.poloto6stroke{stroke:orange;}.poloto7stroke{stroke:chocolate;}.poloto0fill{fill:blue;}.poloto1fill{fill:red;}.poloto2fill{fill:green;}.poloto3fill{fill:gold;}.poloto4fill{fill:aqua;}.poloto5fill{fill:lime;}.poloto6fill{fill:orange;}.poloto7fill{fill:chocolate;}</style><circle  r="1e5" class="poloto_background" /><text  class="poloto_text poloto_legend_text" x="675" y="100" >Refinance 15</text><line  class="poloto_line poloto_legend_icon poloto0stroke poloto0legend" stroke="black" x1="680" x2="730" y1="81.25" y2="81.25" /><path  class="poloto_line poloto0stroke" fill="none" stroke="black" d=" M 150.00 392.46 L 151.55 400.00 L 156.19 389.32 L 157.74 380.17 L 159.29 389.32 L 159.29 389.32 L 162.38 358.81 L 167.03 357.20 L 168.58 367.88 L 170.12 344.83 L 171.67 346.44 L 173.22 341.61 L 177.86 343.22 L 179.41 336.78 L 179.41 336.78 L 182.51 337.37 L 184.06 314.32 L 188.70 324.32 L 190.25 327.54 L 191.80 327.54 L 193.34 326.69 L 194.89 321.78 L 201.08 278.73 L 202.63 297.88 L 204.18 283.05 L 205.73 277.29 L 205.73 277.29 L 211.92 299.58 L 215.02 303.64 L 216.56 294.58 L 221.21 283.81 L 222.76 305.25 L 224.30 294.58 L 224.30 294.58 L 227.40 292.88 L 232.04 296.19 L 233.59 306.86 L 233.59 306.86 L 235.14 297.80 L 236.69 308.56 L 238.24 292.88 L 242.88 325.08 L 244.43 324.32 L 245.98 306.86 L 245.98 306.86 L 247.52 314.32 L 249.07 317.63 L 253.72 317.63 L 255.26 329.15 L 256.81 329.15 L 258.36 329.15 L 259.91 329.15 L 266.10 317.63 L 267.65 314.32 L 269.20 315.93 L 270.74 315.93 L 270.74 315.93 L 276.93 305.25 L 278.48 305.25 L 280.03 296.19 L 286.22 281.36 L 287.77 250.76 L 289.32 254.15 L 290.87 254.15 L 292.41 275.59 L 297.06 254.15 L 298.61 254.15 L 300.15 273.90 L 301.70 277.29 L 307.89 277.29 L 309.44 275.59 L 310.99 280.59 L 312.54 285.51 L 314.09 296.19 L 320.28 303.64 L 321.83 294.58 L 323.37 287.12 L 324.92 283.81 L 329.57 285.51 L 332.66 285.51 L 334.21 283.81 L 340.40 282.20 L 340.40 282.20 L 340.40 282.20 L 340.40 282.20 L 340.40 282.20 L 340.40 282.20 L 343.50 282.20 L 343.50 282.20 L 343.50 282.20 L 343.50 282.20 L 343.50 282.20 L 343.50 282.20 L 351.24 294.58 L 354.33 297.80 L 355.88 325.93 L 357.43 329.15 L 362.07 329.15 L 363.62 327.54 L 365.17 305.25 L 366.72 299.49 L 368.27 285.51 L 372.91 296.19 L 372.91 296.19 L 374.46 287.12 L 377.55 296.19 L 377.55 296.19 L 385.29 296.19 L 386.84 262.46 L 388.39 282.20 L 394.58 248.39 L 397.68 248.39 L 397.68 248.39 L 400.77 260.76 L 406.97 254.15 L 406.97 254.15 L 406.97 254.15 L 406.97 254.15 L 406.97 254.15 L 406.97 254.15 L 406.97 254.15 L 406.97 254.15 L 406.97 254.15 L 411.61 254.15 L 420.90 232.63 L 427.09 235.17 L 427.09 235.17 L 431.73 235.17 L 437.93 235.17 L 439.47 235.17 L 439.47 235.17 L 439.47 235.17 L 439.47 235.17 L 439.47 235.17 L 459.60 235.17 L 461.15 235.17 L 470.43 139.75 L 471.98 130.68 L 473.53 130.68 L 529.26 159.15 L 535.45 159.15 L 537.00 159.15 L 538.54 175.51 L 541.64 184.49 L 541.64 184.49 L 547.83 184.49 L 549.38 184.49 L 550.93 184.49 L 552.48 184.49 L 557.12 184.49 L 558.67 184.49 L 561.76 184.49 L 563.31 184.49 L 567.96 184.49 L 569.50 184.49 L 569.50 184.49 L 574.15 184.49 L 578.79 184.49 L 580.34 184.49 L 581.89 184.49 L 583.44 184.49 L 584.98 184.49 L 591.18 209.15 L 592.72 180.68 L 594.27 159.15 L 595.82 169.92 L 600.46 169.92 L 602.01 169.92 L 602.01 169.92 L 605.11 193.05 L 606.66 193.05 L 611.30 193.05 L 612.85 193.05 L 614.40 193.05 L 615.94 193.05 L 617.49 193.05 L 617.49 193.05 L 617.49 193.05 L 617.49 193.05 L 625.23 193.05 L 628.33 193.05 L 632.97 193.05 L 634.52 193.05 L 637.62 193.05 L 639.16 193.05 L 645.36 193.05 L 646.90 193.05 L 648.45 193.05 L 650.00 223.56" /><text  class="poloto_text poloto_legend_text" x="675" y="150" >Refinance 20</text><line  class="poloto_line poloto_legend_icon poloto1stroke poloto1legend" stroke="black" x1="680" x2="730" y1="131.25" y2="131.25" /><path  class="poloto_line poloto1stroke" fill="none" stroke="black" d=" M 150.00 345.68 L 151.55 368.31 L 156.19 334.58 L 157.74 324.24 L 159.29 333.73 L 159.29 333.73 L 162.38 304.07 L 167.03 301.53 L 168.58 312.29 L 170.12 300.25 L 171.67 311.02 L 173.22 290.85 L 177.86 321.69 L 179.41 290.85 L 179.41 290.85 L 182.51 290.85 L 182.51 290.85 L 188.70 250.17 L 190.25 282.71 L 191.80 290.85 L 193.34 301.53 L 194.89 280.59 L 201.08 260.00 L 202.63 257.37 L 204.18 252.12 L 205.73 240.08 L 210.37 245.34 L 211.92 268.14 L 215.02 260.00 L 216.56 257.37 L 221.21 248.81 L 222.76 258.73 L 224.30 258.73 L 224.30 258.73 L 227.40 258.73 L 232.04 260.00 L 233.59 281.44 L 233.59 281.44 L 235.14 269.41 L 236.69 289.58 L 238.24 281.44 L 242.88 282.71 L 244.43 281.44 L 245.98 281.44 L 245.98 281.44 L 247.52 282.71 L 249.07 289.58 L 253.72 290.85 L 255.26 294.66 L 256.81 294.66 L 258.36 294.66 L 259.91 294.66 L 266.10 289.58 L 267.65 278.81 L 269.20 281.44 L 270.74 281.44 L 270.74 281.44 L 276.93 268.14 L 278.48 270.68 L 280.03 261.27 L 286.22 215.85 L 287.77 197.03 L 289.32 207.80 L 290.87 215.85 L 292.41 238.56 L 297.06 225.17 L 298.61 218.47 L 300.15 239.92 L 301.70 250.17 L 307.89 250.17 L 309.44 238.56 L 310.99 249.32 L 312.54 260.00 L 314.09 272.03 L 320.28 280.08 L 321.83 269.41 L 323.37 258.73 L 324.92 251.44 L 329.57 257.37 L 332.66 260.00 L 334.21 258.73 L 340.40 260.00 L 340.40 260.00 L 340.40 260.00 L 340.40 260.00 L 340.40 260.00 L 340.40 260.00 L 340.40 260.00 L 340.40 260.00 L 340.40 260.00 L 340.40 260.00 L 340.40 260.00 L 340.40 260.00 L 351.24 280.08 L 354.33 282.71 L 355.88 301.53 L 357.43 304.07 L 362.07 301.27 L 363.62 301.27 L 365.17 290.85 L 366.72 294.66 L 368.27 278.81 L 372.91 270.68 L 372.91 270.68 L 374.46 270.68 L 377.55 281.44 L 377.55 281.44 L 385.29 278.81 L 386.84 260.00 L 388.39 260.00 L 394.58 246.19 L 397.68 234.58 L 397.68 234.58 L 400.77 247.54 L 406.97 215.85 L 406.97 215.85 L 406.97 215.85 L 406.97 215.85 L 406.97 215.85 L 406.97 215.85 L 406.97 215.85 L 406.97 215.85 L 406.97 215.85 L 411.61 215.85 L 420.90 202.37 L 427.09 203.73 L 430.19 203.73 L 431.73 203.73 L 431.73 203.73 L 439.47 203.73 L 441.02 203.73 L 441.02 203.73 L 441.02 203.73 L 441.02 203.73 L 459.60 203.73 L 461.15 203.73 L 470.43 118.81 L 471.98 102.97 L 471.98 102.97 L 532.35 155.34 L 535.45 155.34 L 537.00 155.34 L 540.09 174.15 L 541.64 175.51 L 541.64 175.51 L 547.83 175.51 L 549.38 175.51 L 550.93 175.51 L 552.48 175.51 L 557.12 175.51 L 558.67 175.51 L 561.76 175.51 L 563.31 175.51 L 567.96 175.51 L 569.50 175.51 L 569.50 175.51 L 574.15 175.51 L 578.79 175.51 L 580.34 175.51 L 581.89 175.51 L 583.44 175.51 L 584.98 175.51 L 591.18 156.36 L 592.72 145.93 L 594.27 144.58 L 595.82 147.37 L 600.46 147.37 L 602.01 147.37 L 602.01 147.37 L 605.11 167.46 L 606.66 167.46 L 611.30 167.46 L 612.85 167.46 L 614.40 167.46 L 615.94 167.46 L 617.49 167.46 L 617.49 167.46 L 623.68 167.46 L 623.68 167.46 L 625.23 167.46 L 628.33 167.46 L 632.97 167.46 L 634.52 167.46 L 637.62 167.46 L 639.16 167.46 L 645.36 167.46 L 646.90 167.46 L 648.45 167.46 L 650.00 190.34" /><text  class="poloto_text poloto_legend_text" x="675" y="200" >Refinance 30</text><line  class="poloto_line poloto_legend_icon poloto2stroke poloto2legend" stroke="black" x1="680" x2="730" y1="181.25" y2="181.25" /><path  class="poloto_line poloto2stroke" fill="none" stroke="black" d=" M 150.00 343.31 L 151.55 351.36 L 156.19 338.81 L 157.74 328.98 L 159.29 330.85 L 159.29 330.85 L 162.38 310.25 L 167.03 308.47 L 168.58 319.15 L 170.12 307.54 L 171.67 318.22 L 173.22 297.71 L 177.86 307.54 L 179.41 286.95 L 180.96 286.95 L 182.51 286.02 L 184.06 260.00 L 188.70 264.58 L 190.25 276.27 L 191.80 286.95 L 193.34 277.20 L 194.89 265.51 L 201.08 256.61 L 202.63 242.12 L 204.18 240.17 L 205.73 238.14 L 210.37 242.12 L 211.92 258.73 L 215.02 256.61 L 216.56 254.66 L 221.21 244.07 L 222.76 255.59 L 224.30 244.07 L 224.30 244.07 L 227.40 244.07 L 232.04 246.02 L 233.59 264.58 L 233.59 264.58 L 235.14 255.59 L 236.69 256.61 L 238.24 257.54 L 242.88 265.51 L 244.43 256.61 L 245.98 256.61 L 245.98 256.61 L 247.52 266.44 L 249.07 267.46 L 253.72 268.39 L 255.26 277.20 L 256.81 277.20 L 258.36 279.07 L 259.91 279.07 L 266.10 275.25 L 267.65 264.58 L 269.20 266.44 L 270.74 265.51 L 270.74 265.51 L 276.93 255.59 L 278.48 255.59 L 280.03 245.00 L 286.22 202.12 L 287.77 171.78 L 289.32 190.34 L 290.87 202.12 L 292.41 212.80 L 297.06 203.05 L 298.61 202.12 L 300.15 221.61 L 301.70 223.56 L 307.89 223.56 L 309.44 211.86 L 310.99 221.61 L 312.54 232.29 L 314.09 255.59 L 320.28 256.61 L 321.83 245.00 L 323.37 224.58 L 324.92 221.61 L 329.57 241.10 L 332.66 223.56 L 334.21 222.54 L 340.40 242.12 L 340.40 242.12 L 340.40 242.12 L 340.40 242.12 L 340.40 242.12 L 340.40 242.12 L 343.50 242.12 L 343.50 242.12 L 343.50 242.12 L 343.50 242.12 L 343.50 242.12 L 343.50 242.12 L 351.24 254.66 L 354.33 256.61 L 355.88 275.25 L 357.43 287.88 L 362.07 286.95 L 363.62 286.95 L 365.17 265.51 L 366.72 268.39 L 368.27 254.66 L 372.91 265.51 L 372.91 265.51 L 374.46 257.54 L 377.55 266.44 L 377.55 266.44 L 385.29 264.58 L 386.84 246.02 L 388.39 245.00 L 394.58 220.59 L 397.68 211.86 L 397.68 211.86 L 400.77 222.54 L 406.97 210.85 L 406.97 210.85 L 406.97 210.85 L 406.97 210.85 L 406.97 210.85 L 406.97 210.85 L 406.97 210.85 L 406.97 210.85 L 411.61 210.85 L 411.61 209.83 L 420.90 197.03 L 427.09 175.51 L 427.09 175.51 L 431.73 175.51 L 431.73 175.51 L 439.47 175.51 L 441.02 175.51 L 441.02 175.51 L 441.02 175.51 L 441.02 175.51 L 459.60 175.51 L 461.15 175.51 L 470.43 127.03 L 471.98 100.00 L 471.98 100.00 L 532.35 146.44 L 535.45 146.44 L 537.00 146.44 L 538.54 150.76 L 541.64 160.59 L 541.64 160.59 L 547.83 160.59 L 549.38 160.59 L 550.93 160.59 L 552.48 160.59 L 557.12 160.59 L 558.67 160.59 L 561.76 160.59 L 563.31 160.59 L 567.96 160.59 L 569.50 160.59 L 569.50 160.59 L 574.15 160.59 L 578.79 160.59 L 580.34 160.59 L 581.89 160.59 L 583.44 160.59 L 584.98 160.59 L 591.18 144.24 L 592.72 152.88 L 594.27 132.37 L 595.82 152.88 L 600.46 152.88 L 602.01 152.88 L 602.01 152.88 L 605.11 152.88 L 606.66 152.88 L 611.30 152.88 L 612.85 152.88 L 614.40 152.88 L 615.94 152.88 L 617.49 152.88 L 617.49 152.88 L 623.68 152.88 L 623.68 152.88 L 625.23 152.88 L 628.33 152.88 L 632.97 152.88 L 634.52 152.88 L 637.62 152.88 L 639.16 152.88 L 645.36 152.88 L 646.90 152.88 L 648.45 152.88 L 650.00 207.80" /><text  class="poloto_labels poloto_text poloto_title" x="400" y="37.5" >lower.com purchase rates</text><text  class="poloto_labels poloto_text poloto_xname" x="400" y="481.25" >Date</text><text  class="poloto_labels poloto_text poloto_yname" transform="rotate(-90,37.5,250)" x="37.5" y="250" >Rate (%)</text><text  class="poloto_tick_labels poloto_text" dominant-baseline="middle" text-anchor="start" x="150" y="70" ></text><line  class="poloto_axis_lines" stroke="black" x1="150" x2="144" y1="390.2542372881356" y2="390.2542372881356" /><line  class="poloto_tick_line" stroke="black" x1="150" x2="650" y1="390.2542372881356" y2="390.2542372881356" /><text  class="poloto_tick_labels poloto_text" dominant-baseline="middle" text-anchor="end" x="135" y="390.2542372881356" >3.625</text><line  class="poloto_axis_lines" stroke="black" x1="150" x2="144" y1="379.66101694915255" y2="379.66101694915255" /><line  class="poloto_tick_line" stroke="black" x1="150" x2="650" y1="379.66101694915255" y2="379.66101694915255" /><text  class="poloto_tick_labels poloto_text" dominant-baseline="middle" text-anchor="end" x="135" y="379.66101694915255" >3.75</text><line  class="poloto_axis_lines" stroke="black" x1="150" x2="144" y1="369.06779661016947" y2="369.06779661016947" /><line  class="poloto_tick_line" stroke="black" x1="150" x2="650" y1="369.06779661016947" y2="369.06779661016947" /><text  class="poloto_tick_labels poloto_text" dominant-baseline="middle" text-anchor="end" x="135" y="369.06779661016947" >3.875</text><line  class="poloto_axis_lines" stroke="black" x1="150" x2="144" y1="358.47457627118644" y2="358.47457627118644" /><line  class="poloto_tick_line" stroke="black" x1="150" x2="650" y1="358.47457627118644" y2="358.47457627118644" /><text  class="poloto_tick_labels poloto_text" dominant-baseline="middle" text-anchor="end" x="135" y="358.47457627118644" >4</text><line  class="poloto_axis_lines" stroke="black" x1="150" x2="144" y1="347.8813559322034" y2="347.8813559322034" /><line  class="poloto_tick_line" stroke="black" x1="150" x2="650" y1="347.8813559322034" y2="347.8813559322034" /><text  class="poloto_tick_labels poloto_text" dominant-baseline="middle" text-anchor="end" x="135" y="347.8813559322034" >4.125</text><line  class="poloto_axis_lines" stroke="black" x1="150" x2="144" y1="337.2881355932203" y2="337.2881355932203" /><line  class="poloto_tick_line" stroke="black" x1="150" x2="650" y1="337.2881355932203" y2="337.2881355932203" /><text  class="poloto_tick_labels poloto_text" dominant-baseline="middle" text-anchor="end" x="135" y="337.2881355932203" >4.25</text><line  class="poloto_axis_lines" stroke="black" x1="150" x2="144" y1="326.6949152542373" y2="326.6949152542373" /><line  class="poloto_tick_line" stroke="black" x1="150" x2="650" y1="326.6949152542373" y2="326.6949152542373" /><text  class="poloto_tick_labels poloto_text" dominant-baseline="middle" text-anchor="end" x="135" y="326.6949152542373" >4.375</text><line  class="poloto_axis_lines" stroke="black" x1="150" x2="144" y1="316.10169491525426" y2="316.10169491525426" /><line  class="poloto_tick_line" stroke="black" x1="150" x2="650" y1="316.10169491525426" y2="316.10169491525426" /><text  class="poloto_tick_labels poloto_text" dominant-baseline="middle" text-anchor="end" x="135" y="316.10169491525426" >4.5</text><line  class="poloto_axis_lines" stroke="black" x1="150" x2="144" y1="305.50847457627117" y2="305.50847457627117" /><line  class="poloto_tick_line" stroke="black" x1="150" x2="650" y1="305.50847457627117" y2="305.50847457627117" /><text  class="poloto_tick_labels poloto_text" dominant-baseline="middle" text-anchor="end" x="135" y="305.50847457627117" >4.625</text><line  class="poloto_axis_lines" stroke="black" x1="150" x2="144" y1="294.91525423728814" y2="294.91525423728814" /><line  class="poloto_tick_line" stroke="black" x1="150" x2="650" y1="294.91525423728814" y2="294.91525423728814" /><text  class="poloto_tick_labels poloto_text" dominant-baseline="middle" text-anchor="end" x="135" y="294.91525423728814" >4.75</text><line  class="poloto_axis_lines" stroke="black" x1="150" x2="144" y1="284.3220338983051" y2="284.3220338983051" /><line  class="poloto_tick_line" stroke="black" x1="150" x2="650" y1="284.3220338983051" y2="284.3220338983051" /><text  class="poloto_tick_labels poloto_text" dominant-baseline="middle" text-anchor="end" x="135" y="284.3220338983051" >4.875</text><line  class="poloto_axis_lines" stroke="black" x1="150" x2="144" y1="273.728813559322" y2="273.728813559322" /><line  class="poloto_tick_line" stroke="black" x1="150" x2="650" y1="273.728813559322" y2="273.728813559322" /><text  class="poloto_tick_labels poloto_text" dominant-baseline="middle" text-anchor="end" x="135" y="273.728813559322" >5</text><line  class="poloto_axis_lines" stroke="black" x1="150" x2="144" y1="263.135593220339" y2="263.135593220339" /><line  class="poloto_tick_line" stroke="black" x1="150" x2="650" y1="263.135593220339" y2="263.135593220339" /><text  class="poloto_tick_labels poloto_text" dominant-baseline="middle" text-anchor="end" x="135" y="263.135593220339" >5.125</text><line  class="poloto_axis_lines" stroke="black" x1="150" x2="144" y1="252.54237288135596" y2="252.54237288135596" /><line  class="poloto_tick_line" stroke="black" x1="150" x2="650" y1="252.54237288135596" y2="252.54237288135596" /><text  class="poloto_tick_labels poloto_text" dominant-baseline="middle" text-anchor="end" x="135" y="252.54237288135596" >5.25</text><line  class="poloto_axis_lines" stroke="black" x1="150" x2="144" y1="241.94915254237287" y2="241.94915254237287" /><line  class="poloto_tick_line" stroke="black" x1="150" x2="650" y1="241.94915254237287" y2="241.94915254237287" /><text  class="poloto_tick_labels poloto_text" dominant-baseline="middle" text-anchor="end" x="135" y="241.94915254237287" >5.375</text><line  class="poloto_axis_lines" stroke="black" x1="150" x2="144" y1="231.35593220338984" y2="231.35593220338984" /><line  class="poloto_tick_line" stroke="black" x1="150" x2="650" y1="231.35593220338984" y2="231.35593220338984" /><text  class="poloto_tick_labels poloto_text" dominant-baseline="middle" text-anchor="end" x="135" y="231.35593220338984" >5.5</text><line  class="poloto_axis_lines" stroke="black" x1="150" x2="144" y1="220.7627118644068" y2="220.7627118644068" /><line  class="poloto_tick_line" stroke="black" x1="150" x2="650" y1="220.7627118644068" y2="220.7627118644068" /><text  class="poloto_tick_labels poloto_text" dominant-baseline="middle" text-anchor="end" x="135" y="220.7627118644068" >5.625</text><line  class="poloto_axis_lines" stroke="black" x1="150" x2="144" y1="210.16949152542372" y2="210.16949152542372" /><line  class="poloto_tick_line" stroke="black" x1="150" x2="650" y1="210.16949152542372" y2="210.16949152542372" /><text  class="poloto_tick_labels poloto_text" dominant-baseline="middle" text-anchor="end" x="135" y="210.16949152542372" >5.75</text><line  class="poloto_axis_lines" stroke="black" x1="150" x2="144" y1="199.5762711864407" y2="199.5762711864407" /><line  class="poloto_tick_line" stroke="black" x1="150" x2="650" y1="199.5762711864407" y2="199.5762711864407" /><text  class="poloto_tick_labels poloto_text" dominant-baseline="middle" text-anchor="end" x="135" y="199.5762711864407" >5.875</text><line  class="poloto_axis_lines" stroke="black" x1="150" x2="144" y1="188.98305084745766" y2="188.98305084745766" /><line  class="poloto_tick_line" stroke="black" x1="150" x2="650" y1="188.98305084745766" y2="188.98305084745766" /><text  class="poloto_tick_labels poloto_text" dominant-baseline="middle" text-anchor="end" x="135" y="188.98305084745766" >6</text><line  class="poloto_axis_lines" stroke="black" x1="150" x2="144" y1="178.38983050847457" y2="178.38983050847457" /><line  class="poloto_tick_line" stroke="black" x1="150" x2="650" y1="178.38983050847457" y2="178.38983050847457" /><text  class="poloto_tick_labels poloto_text" dominant-baseline="middle" text-anchor="end" x="135" y="178.38983050847457" >6.125</text><line  class="poloto_axis_lines" stroke="black" x1="150" x2="144" y1="167.7966101694915" y2="167.7966101694915" /><line  class="poloto_tick_line" stroke="black" x1="150" x2="650" y1="167.7966101694915" y2="167.7966101694915" /><text  class="poloto_tick_labels poloto_text" dominant-baseline="middle" text-anchor="end" x="135" y="167.7966101694915" >6.25</text><line  class="poloto_axis_lines" stroke="black" x1="150" x2="144" y1="157.2033898305085" y2="157.2033898305085" /><line  class="poloto_tick_line" stroke="black" x1="150" x2="650" y1="157.2033898305085" y2="157.2033898305085" /><text  class="poloto_tick_labels poloto_text" dominant-baseline="middle" text-anchor="end" x="135" y="157.2033898305085" >6.375</text><line  class="poloto_axis_lines" stroke="black" x1="150" x2="144" y1="146.61016949152543" y2="146.61016949152543" /><line  class="poloto_tick_line" stroke="black" x1="150" x2="650" y1="146.61016949152543" y2="146.61016949152543" /><text  class="poloto_tick_labels poloto_text" dominant-baseline="middle" text-anchor="end" x="135" y="146.61016949152543" >6.5</text><line  class="poloto_axis_lines" stroke="black" x1="150" x2="144" y1="136.01694915254234" y2="136.01694915254234" /><line  class="poloto_tick_line" stroke="black" x1="150" x2="650" y1="136.01694915254234" y2="136.01694915254234" /><text  class="poloto_tick_labels poloto_text" dominant-baseline="middle" text-anchor="end" x="135" y="136.01694915254234" >6.625</text><line  class="poloto_axis_lines" stroke="black" x1="150" x2="144" y1="125.42372881355936" y2="125.42372881355936" /><line  class="poloto_tick_line" stroke="black" x1="150" x2="650" y1="125.42372881355936" y2="125.42372881355936" /><text  class="poloto_tick_labels poloto_text" dominant-baseline="middle" text-anchor="end" x="135" y="125.42372881355936" >6.75</text><line  class="poloto_axis_lines" stroke="black" x1="150" x2="144" y1="114.83050847457628" y2="114.83050847457628" /><line  class="poloto_tick_line" stroke="black" x1="150" x2="650" y1="114.83050847457628" y2="114.83050847457628" /><text  class="poloto_tick_labels poloto_text" dominant-baseline="middle" text-anchor="end" x="135" y="114.83050847457628" >6.875</text><line  class="poloto_axis_lines" stroke="black" x1="150" x2="144" y1="104.23728813559319" y2="104.23728813559319" /><line  class="poloto_tick_line" stroke="black" x1="150" x2="650" y1="104.23728813559319" y2="104.23728813559319" /><text  class="poloto_tick_labels poloto_text" dominant-baseline="middle" text-anchor="end" x="135" y="104.23728813559319" >7</text><text  class="poloto_tick_labels poloto_text" dominant-baseline="middle" text-anchor="start" x="440.00000000000006" y="70" >¹2022-05-01 00:00:00 UTC in Months</text><line  class="poloto_axis_lines" stroke="black" x1="219.6594427244563" x2="219.6594427244563" y1="400" y2="405" /><line  class="poloto_tick_line" stroke="black" x1="219.6594427244563" x2="219.6594427244563" y1="400" y2="100" /><text  class="poloto_tick_labels poloto_text" dominant-baseline="start" text-anchor="middle" x="219.6594427244563" y="430" >2022 May¹</text><line  class="poloto_axis_lines" stroke="black" x1="314.0866873064988" x2="314.0866873064988" y1="400" y2="405" /><line  class="poloto_tick_line" stroke="black" x1="314.0866873064988" x2="314.0866873064988" y1="400" y2="100" /><text  class="poloto_tick_labels poloto_text" dominant-baseline="start" text-anchor="middle" x="314.0866873064988" y="430" >2022 Jul</text><line  class="poloto_axis_lines" stroke="black" x1="410.061919504642" x2="410.061919504642" y1="400" y2="405" /><line  class="poloto_tick_line" stroke="black" x1="410.061919504642" x2="410.061919504642" y1="400" y2="100" /><text  class="poloto_tick_labels poloto_text" dominant-baseline="start" text-anchor="middle" x="410.061919504642" y="430" >2022 Sep</text><line  class="poloto_axis_lines" stroke="black" x1="504.48916408668447" x2="504.48916408668447" y1="400" y2="405" /><line  class="poloto_tick_line" stroke="black" x1="504.48916408668447" x2="504.48916408668447" y1="400" y2="100" /><text  class="poloto_tick_labels poloto_text" dominant-baseline="start" text-anchor="middle" x="504.48916408668447" y="430" >2022 Nov</text><line  class="poloto_axis_lines" stroke="black" x1="598.9164086687306" x2="598.9164086687306" y1="400" y2="405" /><line  class="poloto_tick_line" stroke="black" x1="598.9164086687306" x2="598.9164086687306" y1="400" y2="100" /><text  class="poloto_tick_labels poloto_text" dominant-baseline="start" text-anchor="middle" x="598.9164086687306" y="430" >2023 Jan</text><path  stroke="black" fill="none" class="poloto_axis_lines" d=" M 150 400 L 650 400" /><path  stroke="black" fill="none" class="poloto_axis_lines" d=" M 150 400 L 150 100" /></svg>