<svg class="poloto" width="800" height="500" viewBox="0 0 800 500" xmlns="http://www.w3.org/2000/svg"><style>.poloto{stroke-linecap:round;stroke-linejoin:round;font-family:Roboto,sans-serif;font-size:16px;}.poloto_background{fill:#262626;}.poloto_scatter{stroke-width:7}.poloto_tick_line{stroke:dimgray;stroke-width:0.5}.poloto_line{stroke-width:2}.poloto_text{fill: white;}.poloto_axis_lines{stroke: white;stroke-width:3;fill:none;stroke-dasharray:none}.poloto_title{font-size:24px;dominant-baseline:start;text-anchor:middle;}.poloto_xname{font-size:24px;dominant-baseline:start;text-anchor:middle;}.poloto_yname{font-size:24px;dominant-baseline:start;text-anchor:middle;}.poloto0stroke{stroke:blue;}.poloto1stroke{stroke:red;}.poloto2stroke{stroke:green;}.poloto3stroke{stroke:gold;}.poloto4stroke{stroke:aqua;}.poloto5stroke{stroke:lime;}.poloto6stroke{stroke:orange;}.poloto7stroke{stroke:chocolate;}.poloto0fill{fill:blue;}.poloto1fill{fill:red;}.poloto2fill{fill:green;}.poloto3fill{fill:gold;}.poloto4fill{fill:aqua;}.poloto5fill{fill:lime;}.poloto6fill{fill:orange;}.poloto7fill{fill:chocolate;}</style><circle  r="1e5" class="poloto_background" /><text  class="poloto_text poloto_legend_text" x="675" y="100" >Refinance 15</text><line  class="poloto_line poloto_legend_icon poloto0stroke poloto0legend" stroke="black" x1="680" x2="730" y1="81.25" y2="81.25" /><path  class="poloto_line poloto0stroke" fill="none" stroke="black" d=" M 150.00 392.46 L 151.94 400.00 L 157.75 389.32 L 159.69 380.17 L 161.63 389.32 L 161.63 389.32 L 165.50 358.81 L 171.32 357.20 L 173.26 367.88 L 175.19 344.83 L 177.13 346.44 L 179.07 341.61 L 184.88 343.22 L 186.82 336.78 L 186.82 336.78 L 190.70 337.37 L 192.64 314.32 L 198.45 324.32 L 200.39 327.54 L 202.33 327.54 L 204.26 326.69 L 206.20 321.78 L 213.95 278.73 L 215.89 297.88 L 217.83 283.05 L 219.77 277.29 L 219.77 277.29 L 227.52 299.58 L 231.40 303.64 L 233.33 294.58 L 239.15 283.81 L 241.09 305.25 L 243.02 294.58 L 243.02 294.58 L 246.90 292.88 L 252.71 296.19 L 254.65 306.86 L 254.65 306.86 L 256.59 297.80 L 258.53 308.56 L 260.47 292.88 L 266.28 325.08 L 268.22 324.32 L 270.16 306.86 L 270.16 306.86 L 272.09 314.32 L 274.03 317.63 L 279.84 317.63 L 281.78 329.15 L 283.72 329.15 L 285.66 329.15 L 287.60 329.15 L 295.35 317.63 L 297.29 314.32 L 299.22 315.93 L 301.16 315.93 L 301.16 315.93 L 308.91 305.25 L 310.85 305.25 L 312.79 296.19 L 320.54 281.36 L 322.48 250.76 L 324.42 254.15 L 326.36 254.15 L 328.29 275.59 L 334.11 254.15 L 336.05 254.15 L 337.98 273.90 L 339.92 277.29 L 347.67 277.29 L 349.61 275.59 L 351.55 280.59 L 353.49 285.51 L 355.43 296.19 L 363.18 303.64 L 365.12 294.58 L 367.05 287.12 L 368.99 283.81 L 374.81 285.51 L 378.68 285.51 L 380.62 283.81 L 388.37 282.20 L 388.37 282.20 L 388.37 282.20 L 388.37 282.20 L 388.37 282.20 L 388.37 282.20 L 392.25 282.20 L 392.25 282.20 L 392.25 282.20 L 392.25 282.20 L 392.25 282.20 L 392.25 282.20 L 401.94 294.58 L 405.81 297.80 L 407.75 325.93 L 409.69 329.15 L 415.50 329.15 L 417.44 327.54 L 419.38 305.25 L 421.32 299.49 L 423.26 285.51 L 429.07 296.19 L 429.07 296.19 L 431.01 287.12 L 434.88 296.19 L 434.88 296.19 L 444.57 296.19 L 446.51 262.46 L 448.45 282.20 L 456.20 248.39 L 460.08 248.39 L 460.08 248.39 L 463.95 260.76 L 471.71 254.15 L 471.71 254.15 L 471.71 254.15 L 471.71 254.15 L 471.71 254.15 L 471.71 254.15 L 471.71 254.15 L 471.71 254.15 L 471.71 254.15 L 477.52 254.15 L 489.15 232.63 L 496.90 235.17 L 496.90 235.17 L 502.71 235.17 L 510.47 235.17 L 512.40 235.17 L 512.40 235.17 L 512.40 235.17 L 512.40 235.17 L 512.40 235.17 L 537.60 235.17 L 539.53 235.17 L 551.16 139.75 L 553.10 130.68 L 555.04 130.68 L 624.81 159.15 L 632.56 159.15 L 634.50 159.15 L 636.43 175.51 L 640.31 184.49 L 640.31 184.49 L 648.06 184.49 L 650.00 184.49" /><text  class="poloto_text poloto_legend_text" x="675" y="150" >Refinance 20</text><line  class="poloto_line poloto_legend_icon poloto1stroke poloto1legend" stroke="black" x1="680" x2="730" y1="131.25" y2="131.25" /><path  class="poloto_line poloto1stroke" fill="none" stroke="black" d=" M 150.00 345.68 L 151.94 368.31 L 157.75 334.58 L 159.69 324.24 L 161.63 333.73 L 161.63 333.73 L 165.50 304.07 L 171.32 301.53 L 173.26 312.29 L 175.19 300.25 L 177.13 311.02 L 179.07 290.85 L 184.88 321.69 L 186.82 290.85 L 186.82 290.85 L 190.70 290.85 L 190.70 290.85 L 198.45 250.17 L 200.39 282.71 L 202.33 290.85 L 204.26 301.53 L 206.20 280.59 L 213.95 260.00 L 215.89 257.37 L 217.83 252.12 L 219.77 240.08 L 225.58 245.34 L 227.52 268.14 L 231.40 260.00 L 233.33 257.37 L 239.15 248.81 L 241.09 258.73 L 243.02 258.73 L 243.02 258.73 L 246.90 258.73 L 252.71 260.00 L 254.65 281.44 L 254.65 281.44 L 256.59 269.41 L 258.53 289.58 L 260.47 281.44 L 266.28 282.71 L 268.22 281.44 L 270.16 281.44 L 270.16 281.44 L 272.09 282.71 L 274.03 289.58 L 279.84 290.85 L 281.78 294.66 L 283.72 294.66 L 285.66 294.66 L 287.60 294.66 L 295.35 289.58 L 297.29 278.81 L 299.22 281.44 L 301.16 281.44 L 301.16 281.44 L 308.91 268.14 L 310.85 270.68 L 312.79 261.27 L 320.54 215.85 L 322.48 197.03 L 324.42 207.80 L 326.36 215.85 L 328.29 238.56 L 334.11 225.17 L 336.05 218.47 L 337.98 239.92 L 339.92 250.17 L 347.67 250.17 L 349.61 238.56 L 351.55 249.32 L 353.49 260.00 L 355.43 272.03 L 363.18 280.08 L 365.12 269.41 L 367.05 258.73 L 368.99 251.44 L 374.81 257.37 L 378.68 260.00 L 380.62 258.73 L 388.37 260.00 L 388.37 260.00 L 388.37 260.00 L 388.37 260.00 L 388.37 260.00 L 388.37 260.00 L 388.37 260.00 L 388.37 260.00 L 388.37 260.00 L 388.37 260.00 L 388.37 260.00 L 388.37 260.00 L 401.94 280.08 L 405.81 282.71 L 407.75 301.53 L 409.69 304.07 L 415.50 301.27 L 417.44 301.27 L 419.38 290.85 L 421.32 294.66 L 423.26 278.81 L 429.07 270.68 L 429.07 270.68 L 431.01 270.68 L 434.88 281.44 L 434.88 281.44 L 444.57 278.81 L 446.51 260.00 L 448.45 260.00 L 456.20 246.19 L 460.08 234.58 L 460.08 234.58 L 463.95 247.54 L 471.71 215.85 L 471.71 215.85 L 471.71 215.85 L 471.71 215.85 L 471.71 215.85 L 471.71 215.85 L 471.71 215.85 L 471.71 215.85 L 471.71 215.85 L 477.52 215.85 L 489.15 202.37 L 496.90 203.73 L 500.78 203.73 L 502.71 203.73 L 502.71 203.73 L 512.40 203.73 L 514.34 203.73 L 514.34 203.73 L 514.34 203.73 L 514.34 203.73 L 537.60 203.73 L 539.53 203.73 L 551.16 118.81 L 553.10 102.97 L 553.10 102.97 L 628.68 155.34 L 632.56 155.34 L 634.50 155.34 L 638.37 174.15 L 640.31 175.51 L 640.31 175.51 L 648.06 175.51 L 650.00 175.51" /><text  class="poloto_text poloto_legend_text" x="675" y="200" >Refinance 30</text><line  class="poloto_line poloto_legend_icon poloto2stroke poloto2legend" stroke="black" x1="680" x2="730" y1="181.25" y2="181.25" /><path  class="poloto_line poloto2stroke" fill="none" stroke="black" d=" M 150.00 343.31 L 151.94 351.36 L 157.75 338.81 L 159.69 328.98 L 161.63 330.85 L 161.63 330.85 L 165.50 310.25 L 171.32 308.47 L 173.26 319.15 L 175.19 307.54 L 177.13 318.22 L 179.07 297.71 L 184.88 307.54 L 186.82 286.95 L 188.76 286.95 L 190.70 286.02 L 192.64 260.00 L 198.45 264.58 L 200.39 276.27 L 202.33 286.95 L 204.26 277.20 L 206.20 265.51 L 213.95 256.61 L 215.89 242.12 L 217.83 240.17 L 219.77 238.14 L 225.58 242.12 L 227.52 258.73 L 231.40 256.61 L 233.33 254.66 L 239.15 244.07 L 241.09 255.59 L 243.02 244.07 L 243.02 244.07 L 246.90 244.07 L 252.71 246.02 L 254.65 264.58 L 254.65 264.58 L 256.59 255.59 L 258.53 256.61 L 260.47 257.54 L 266.28 265.51 L 268.22 256.61 L 270.16 256.61 L 270.16 256.61 L 272.09 266.44 L 274.03 267.46 L 279.84 268.39 L 281.78 277.20 L 283.72 277.20 L 285.66 279.07 L 287.60 279.07 L 295.35 275.25 L 297.29 264.58 L 299.22 266.44 L 301.16 265.51 L 301.16 265.51 L 308.91 255.59 L 310.85 255.59 L 312.79 245.00 L 320.54 202.12 L 322.48 171.78 L 324.42 190.34 L 326.36 202.12 L 328.29 212.80 L 334.11 203.05 L 336.05 202.12 L 337.98 221.61 L 339.92 223.56 L 347.67 223.56 L 349.61 211.86 L 351.55 221.61 L 353.49 232.29 L 355.43 255.59 L 363.18 256.61 L 365.12 245.00 L 367.05 224.58 L 368.99 221.61 L 374.81 241.10 L 378.68 223.56 L 380.62 222.54 L 388.37 242.12 L 388.37 242.12 L 388.37 242.12 L 388.37 242.12 L 388.37 242.12 L 388.37 242.12 L 392.25 242.12 L 392.25 242.12 L 392.25 242.12 L 392.25 242.12 L 392.25 242.12 L 392.25 242.12 L 401.94 254.66 L 405.81 256.61 L 407.75 275.25 L 409.69 287.88 L 415.50 286.95 L 417.44 286.95 L 419.38 265.51 L 421.32 268.39 L 423.26 254.66 L 429.07 265.51 L 429.07 265.51 L 431.01 257.54 L 434.88 266.44 L 434.88 266.44 L 444.57 264.58 L 446.51 246.02 L 448.45 245.00 L 456.20 220.59 L 460.08 211.86 L 460.08 211.86 L 463.95 222.54 L 471.71 210.85 L 471.71 210.85 L 471.71 210.85 L 471.71 210.85 L 471.71 210.85 L 471.71 210.85 L 471.71 210.85 L 471.71 210.85 L 477.52 210.85 L 477.52 209.83 L 489.15 197.03 L 496.90 175.51 L 496.90 175.51 L 502.71 175.51 L 502.71 175.51 L 512.40 175.51 L 514.34 175.51 L 514.34 175.51 L 514.34 175.51 L 514.34 175.51 L 537.60 175.51 L 539.53 175.51 L 551.16 127.03 L 553.10 100.00 L 553.10 100.00 L 628.68 146.44 L 632.56 146.44 L 634.50 146.44 L 636.43 150.76 L 640.31 160.59 L 640.31 160.59 L 648.06 160.59 L 650.00 160.59" /><text  class="poloto_labels poloto_text poloto_title" x="400" y="37.5" >lower.com purchase rates</text><text  class="poloto_labels poloto_text poloto_xname" x="400" y="481.25" >Date</text><text  class="poloto_labels poloto_text poloto_yname" transform="rotate(-90,37.5,250)" x="37.5" y="250" >Rate (%)</text><text  class="poloto_tick_labels poloto_text" dominant-baseline="middle" text-anchor="start" x="150" y="70" ></text><line  class="poloto_axis_lines" stroke="black" x1="150" x2="144" y1="390.2542372881356" y2="390.2542372881356" /><line  class="poloto_tick_line" stroke="black" x1="150" x2="650" y1="390.2542372881356" y2="390.2542372881356" /><text  class="poloto_tick_labels poloto_text" dominant-baseline="middle" text-anchor="end" x="135" y="390.2542372881356" >3.625</text><line  class="poloto_axis_lines" stroke="black" x1="150" x2="144" y1="379.66101694915255" y2="379.66101694915255" /><line  class="poloto_tick_line" stroke="black" x1="150" x2="650" y1="379.66101694915255" y2="379.66101694915255" /><text  class="poloto_tick_labels poloto_text" dominant-baseline="middle" text-anchor="end" x="135" y="379.66101694915255" >3.75</text><line  class="poloto_axis_lines" stroke="black" x1="150" x2="144" y1="369.06779661016947" y2="369.06779661016947" /><line  class="poloto_tick_line" stroke="black" x1="150" x2="650" y1="369.06779661016947" y2="369.06779661016947" /><text  class="poloto_tick_labels poloto_text" dominant-baseline="middle" text-anchor="end" x="135" y="369.06779661016947" >3.875</text><line  class="poloto_axis_lines" stroke="black" x1="150" x2="144" y1="358.47457627118644" y2="358.47457627118644" /><line  class="poloto_tick_line" stroke="black" x1="150" x2="650" y1="358.47457627118644" y2="358.47457627118644" /><text  class="poloto_tick_labels poloto_text" dominant-baseline="middle" text-anchor="end" x="135" y="358.47457627118644" >4</text><line  class="poloto_axis_lines" stroke="black" x1="150" x2="144" y1="347.8813559322034" y2="347.8813559322034" /><line  class="poloto_tick_line" stroke="black" x1="150" x2="650" y1="347.8813559322034" y2="347.8813559322034" /><text  class="poloto_tick_labels poloto_text" dominant-baseline="middle" text-anchor="end" x="135" y="347.8813559322034" >4.125</text><line  class="poloto_axis_lines" stroke="black" x1="150" x2="144" y1="337.2881355932203" y2="337.2881355932203" /><line  class="poloto_tick_line" stroke="black" x1="150" x2="650" y1="337.2881355932203" y2="337.2881355932203" /><text  class="poloto_tick_labels poloto_text" dominant-baseline="middle" text-anchor="end" x="135" y="337.2881355932203" >4.25</text><line  class="poloto_axis_lines" stroke="black" x1="150" x2="144" y1="326.6949152542373" y2="326.6949152542373" /><line  class="poloto_tick_line" stroke="black" x1="150" x2="650" y1="326.6949152542373" y2="326.6949152542373" /><text  class="poloto_tick_labels poloto_text" dominant-baseline="middle" text-anchor="end" x="135" y="326.6949152542373" >4.375</text><line  class="poloto_axis_lines" stroke="black" x1="150" x2="144" y1="316.10169491525426" y2="316.10169491525426" /><line  class="poloto_tick_line" stroke="black" x1="150" x2="650" y1="316.10169491525426" y2="316.10169491525426" /><text  class="poloto_tick_labels poloto_text" dominant-baseline="middle" text-anchor="end" x="135" y="316.10169491525426" >4.5</text><line  class="poloto_axis_lines" stroke="black" x1="150" x2="144" y1="305.50847457627117" y2="305.50847457627117" /><line  class="poloto_tick_line" stroke="black" x1="150" x2="650" y1="305.50847457627117" y2="305.50847457627117" /><text  class="poloto_tick_labels poloto_text" dominant-baseline="middle" text-anchor="end" x="135" y="305.50847457627117" >4.625</text><line  class="poloto_axis_lines" stroke="black" x1="150" x2="144" y1="294.91525423728814" y2="294.91525423728814" /><line  class="poloto_tick_line" stroke="black" x1="150" x2="650" y1="294.91525423728814" y2="294.91525423728814" /><text  class="poloto_tick_labels poloto_text" dominant-baseline="middle" text-anchor="end" x="135" y="294.91525423728814" >4.75</text><line  class="poloto_axis_lines" stroke="black" x1="150" x2="144" y1="284.3220338983051" y2="284.3220338983051" /><line  class="poloto_tick_line" stroke="black" x1="150" x2="650" y1="284.3220338983051" y2="284.3220338983051" /><text  class="poloto_tick_labels poloto_text" dominant-baseline="middle" text-anchor="end" x="135" y="284.3220338983051" >4.875</text><line  class="poloto_axis_lines" stroke="black" x1="150" x2="144" y1="273.728813559322" y2="273.728813559322" /><line  class="poloto_tick_line" stroke="black" x1="150" x2="650" y1="273.728813559322" y2="273.728813559322" /><text  class="poloto_tick_labels poloto_text" dominant-baseline="middle" text-anchor="end" x="135" y="273.728813559322" >5</text><line  class="poloto_axis_lines" stroke="black" x1="150" x2="144" y1="263.135593220339" y2="263.135593220339" /><line  class="poloto_tick_line" stroke="black" x1="150" x2="650" y1="263.135593220339" y2="263.135593220339" /><text  class="poloto_tick_labels poloto_text" dominant-baseline="middle" text-anchor="end" x="135" y="263.135593220339" >5.125</text><line  class="poloto_axis_lines" stroke="black" x1="150" x2="144" y1="252.54237288135596" y2="252.54237288135596" /><line  class="poloto_tick_line" stroke="black" x1="150" x2="650" y1="252.54237288135596" y2="252.54237288135596" /><text  class="poloto_tick_labels poloto_text" dominant-baseline="middle" text-anchor="end" x="135" y="252.54237288135596" >5.25</text><line  class="poloto_axis_lines" stroke="black" x1="150" x2="144" y1="241.94915254237287" y2="241.94915254237287" /><line  class="poloto_tick_line" stroke="black" x1="150" x2="650" y1="241.94915254237287" y2="241.94915254237287" /><text  class="poloto_tick_labels poloto_text" dominant-baseline="middle" text-anchor="end" x="135" y="241.94915254237287" >5.375</text><line  class="poloto_axis_lines" stroke="black" x1="150" x2="144" y1="231.35593220338984" y2="231.35593220338984" /><line  class="poloto_tick_line" stroke="black" x1="150" x2="650" y1="231.35593220338984" y2="231.35593220338984" /><text  class="poloto_tick_labels poloto_text" dominant-baseline="middle" text-anchor="end" x="135" y="231.35593220338984" >5.5</text><line  class="poloto_axis_lines" stroke="black" x1="150" x2="144" y1="220.7627118644068" y2="220.7627118644068" /><line  class="poloto_tick_line" stroke="black" x1="150" x2="650" y1="220.7627118644068" y2="220.7627118644068" /><text  class="poloto_tick_labels poloto_text" dominant-baseline="middle" text-anchor="end" x="135" y="220.7627118644068" >5.625</text><line  class="poloto_axis_lines" stroke="black" x1="150" x2="144" y1="210.16949152542372" y2="210.16949152542372" /><line  class="poloto_tick_line" stroke="black" x1="150" x2="650" y1="210.16949152542372" y2="210.16949152542372" /><text  class="poloto_tick_labels poloto_text" dominant-baseline="middle" text-anchor="end" x="135" y="210.16949152542372" >5.75</text><line  class="poloto_axis_lines" stroke="black" x1="150" x2="144" y1="199.5762711864407" y2="199.5762711864407" /><line  class="poloto_tick_line" stroke="black" x1="150" x2="650" y1="199.5762711864407" y2="199.5762711864407" /><text  class="poloto_tick_labels poloto_text" dominant-baseline="middle" text-anchor="end" x="135" y="199.5762711864407" >5.875</text><line  class="poloto_axis_lines" stroke="black" x1="150" x2="144" y1="188.98305084745766" y2="188.98305084745766" /><line  class="poloto_tick_line" stroke="black" x1="150" x2="650" y1="188.98305084745766" y2="188.98305084745766" /><text  class="poloto_tick_labels poloto_text" dominant-baseline="middle" text-anchor="end" x="135" y="188.98305084745766" >6</text><line  class="poloto_axis_lines" stroke="black" x1="150" x2="144" y1="178.38983050847457" y2="178.38983050847457" /><line  class="poloto_tick_line" stroke="black" x1="150" x2="650" y1="178.38983050847457" y2="178.38983050847457" /><text  class="poloto_tick_labels poloto_text" dominant-baseline="middle" text-anchor="end" x="135" y="178.38983050847457" >6.125</text><line  class="poloto_axis_lines" stroke="black" x1="150" x2="144" y1="167.7966101694915" y2="167.7966101694915" /><line  class="poloto_tick_line" stroke="black" x1="150" x2="650" y1="167.7966101694915" y2="167.7966101694915" /><text  class="poloto_tick_labels poloto_text" dominant-baseline="middle" text-anchor="end" x="135" y="167.7966101694915" >6.25</text><line  class="poloto_axis_lines" stroke="black" x1="150" x2="144" y1="157.2033898305085" y2="157.2033898305085" /><line  class="poloto_tick_line" stroke="black" x1="150" x2="650" y1="157.2033898305085" y2="157.2033898305085" /><text  class="poloto_tick_labels poloto_text" dominant-baseline="middle" text-anchor="end" x="135" y="157.2033898305085" >6.375</text><line  class="poloto_axis_lines" stroke="black" x1="150" x2="144" y1="146.61016949152543" y2="146.61016949152543" /><line  class="poloto_tick_line" stroke="black" x1="150" x2="650" y1="146.61016949152543" y2="146.61016949152543" /><text  class="poloto_tick_labels poloto_text" dominant-baseline="middle" text-anchor="end" x="135" y="146.61016949152543" >6.5</text><line  class="poloto_axis_lines" stroke="black" x1="150" x2="144" y1="136.01694915254234" y2="136.01694915254234" /><line  class="poloto_tick_line" stroke="black" x1="150" x2="650" y1="136.01694915254234" y2="136.01694915254234" /><text  class="poloto_tick_labels poloto_text" dominant-baseline="middle" text-anchor="end" x="135" y="136.01694915254234" >6.625</text><line  class="poloto_axis_lines" stroke="black" x1="150" x2="144" y1="125.42372881355936" y2="125.42372881355936" /><line  class="poloto_tick_line" stroke="black" x1="150" x2="650" y1="125.42372881355936" y2="125.42372881355936" /><text  class="poloto_tick_labels poloto_text" dominant-baseline="middle" text-anchor="end" x="135" y="125.42372881355936" >6.75</text><line  class="poloto_axis_lines" stroke="black" x1="150" x2="144" y1="114.83050847457628" y2="114.83050847457628" /><line  class="poloto_tick_line" stroke="black" x1="150" x2="650" y1="114.83050847457628" y2="114.83050847457628" /><text  class="poloto_tick_labels poloto_text" dominant-baseline="middle" text-anchor="end" x="135" y="114.83050847457628" >6.875</text><line  class="poloto_axis_lines" stroke="black" x1="150" x2="144" y1="104.23728813559319" y2="104.23728813559319" /><line  class="poloto_tick_line" stroke="black" x1="150" x2="650" y1="104.23728813559319" y2="104.23728813559319" /><text  class="poloto_tick_labels poloto_text" dominant-baseline="middle" text-anchor="end" x="135" y="104.23728813559319" >7</text><text  class="poloto_tick_labels poloto_text" dominant-baseline="middle" text-anchor="start" x="440.00000000000006" y="70" >¹2022-05-01 00:00:00 UTC in Months</text><line  class="poloto_axis_lines" stroke="black" x1="237.2093023255802" x2="237.2093023255802" y1="400" y2="405" /><line  class="poloto_tick_line" stroke="black" x1="237.2093023255802" x2="237.2093023255802" y1="400" y2="100" /><text  class="poloto_tick_labels poloto_text" dominant-baseline="start" text-anchor="middle" x="237.2093023255802" y="430" >2022 May¹</text><line  class="poloto_axis_lines" stroke="black" x1="355.42635658914514" x2="355.42635658914514" y1="400" y2="405" /><line  class="poloto_tick_line" stroke="black" x1="355.42635658914514" x2="355.42635658914514" y1="400" y2="100" /><text  class="poloto_tick_labels poloto_text" dominant-baseline="start" text-anchor="middle" x="355.42635658914514" y="430" >2022 Jul</text><line  class="poloto_axis_lines" stroke="black" x1="475.5813953488396" x2="475.5813953488396" y1="400" y2="405" /><line  class="poloto_tick_line" stroke="black" x1="475.5813953488396" x2="475.5813953488396" y1="400" y2="100" /><text  class="poloto_tick_labels poloto_text" dominant-baseline="start" text-anchor="middle" x="475.5813953488396" y="430" >2022 Sep</text><line  class="poloto_axis_lines" stroke="black" x1="593.7984496124045" x2="593.7984496124045" y1="400" y2="405" /><line  class="poloto_tick_line" stroke="black" x1="593.7984496124045" x2="593.7984496124045" y1="400" y2="100" /><text  class="poloto_tick_labels poloto_text" dominant-baseline="start" text-anchor="middle" x="593.7984496124045" y="430" >2022 Nov</text><path  stroke="black" fill="none" class="poloto_axis_lines" d=" M 150 400 L 650 400" /><path  stroke="black" fill="none" class="poloto_axis_lines" d=" M 150 400 L 150 100" /></svg>