<svg class="poloto" width="800" height="500" viewBox="0 0 800 500" xmlns="http://www.w3.org/2000/svg"><style>.poloto{stroke-linecap:round;stroke-linejoin:round;font-family:Roboto,sans-serif;font-size:16px;}.poloto_background{fill:#262626;}.poloto_scatter{stroke-width:7}.poloto_tick_line{stroke:dimgray;stroke-width:0.5}.poloto_line{stroke-width:2}.poloto_text{fill: white;}.poloto_axis_lines{stroke: white;stroke-width:3;fill:none;stroke-dasharray:none}.poloto_title{font-size:24px;dominant-baseline:start;text-anchor:middle;}.poloto_xname{font-size:24px;dominant-baseline:start;text-anchor:middle;}.poloto_yname{font-size:24px;dominant-baseline:start;text-anchor:middle;}.poloto0stroke{stroke:blue;}.poloto1stroke{stroke:red;}.poloto2stroke{stroke:green;}.poloto3stroke{stroke:gold;}.poloto4stroke{stroke:aqua;}.poloto5stroke{stroke:lime;}.poloto6stroke{stroke:orange;}.poloto7stroke{stroke:chocolate;}.poloto0fill{fill:blue;}.poloto1fill{fill:red;}.poloto2fill{fill:green;}.poloto3fill{fill:gold;}.poloto4fill{fill:aqua;}.poloto5fill{fill:lime;}.poloto6fill{fill:orange;}.poloto7fill{fill:chocolate;}</style><circle  r="1e5" class="poloto_background" /><text  class="poloto_text poloto_legend_text" x="675" y="100" >Refinance 15</text><line  class="poloto_line poloto_legend_icon poloto0stroke poloto0legend" stroke="black" x1="680" x2="730" y1="81.25" y2="81.25" /><path  class="poloto_line poloto0stroke" fill="none" stroke="black" d=" M 150.00 392.46 L 151.46 400.00 L 155.83 389.32 L 157.29 380.17 L 158.75 389.32 L 158.75 389.32 L 161.66 358.81 L 166.03 357.20 L 167.49 367.88 L 168.95 344.83 L 170.41 346.44 L 171.87 341.61 L 176.24 343.22 L 177.70 336.78 L 177.70 336.78 L 180.61 337.37 L 182.07 314.32 L 186.44 324.32 L 187.90 327.54 L 189.36 327.54 L 190.82 326.69 L 192.27 321.78 L 198.10 278.73 L 199.56 297.88 L 201.02 283.05 L 202.48 277.29 L 202.48 277.29 L 208.31 299.58 L 211.22 303.64 L 212.68 294.58 L 217.06 283.81 L 218.51 305.25 L 219.97 294.58 L 219.97 294.58 L 222.89 292.88 L 227.26 296.19 L 228.72 306.86 L 228.72 306.86 L 230.17 297.80 L 231.63 308.56 L 233.09 292.88 L 237.46 325.08 L 238.92 324.32 L 240.38 306.86 L 240.38 306.86 L 241.84 314.32 L 243.29 317.63 L 247.67 317.63 L 249.13 329.15 L 250.58 329.15 L 252.04 329.15 L 253.50 329.15 L 259.33 317.63 L 260.79 314.32 L 262.24 315.93 L 263.70 315.93 L 263.70 315.93 L 269.53 305.25 L 270.99 305.25 L 272.45 296.19 L 278.28 281.36 L 279.74 250.76 L 281.20 254.15 L 282.65 254.15 L 284.11 275.59 L 288.48 254.15 L 289.94 254.15 L 291.40 273.90 L 292.86 277.29 L 298.69 277.29 L 300.15 275.59 L 301.60 280.59 L 303.06 285.51 L 304.52 296.19 L 310.35 303.64 L 311.81 294.58 L 313.27 287.12 L 314.72 283.81 L 319.10 285.51 L 322.01 285.51 L 323.47 283.81 L 329.30 282.20 L 329.30 282.20 L 329.30 282.20 L 329.30 282.20 L 329.30 282.20 L 329.30 282.20 L 332.22 282.20 L 332.22 282.20 L 332.22 282.20 L 332.22 282.20 L 332.22 282.20 L 332.22 282.20 L 339.50 294.58 L 342.42 297.80 L 343.88 325.93 L 345.34 329.15 L 349.71 329.15 L 351.17 327.54 L 352.62 305.25 L 354.08 299.49 L 355.54 285.51 L 359.91 296.19 L 359.91 296.19 L 361.37 287.12 L 364.29 296.19 L 364.29 296.19 L 371.57 296.19 L 373.03 262.46 L 374.49 282.20 L 380.32 248.39 L 383.24 248.39 L 383.24 248.39 L 386.15 260.76 L 391.98 254.15 L 391.98 254.15 L 391.98 254.15 L 391.98 254.15 L 391.98 254.15 L 391.98 254.15 L 391.98 254.15 L 391.98 254.15 L 391.98 254.15 L 396.36 254.15 L 405.10 232.63 L 410.93 235.17 L 410.93 235.17 L 415.31 235.17 L 421.14 235.17 L 422.59 235.17 L 422.59 235.17 L 422.59 235.17 L 422.59 235.17 L 422.59 235.17 L 441.55 235.17 L 443.00 235.17 L 451.75 139.75 L 453.21 130.68 L 454.66 130.68 L 507.14 159.15 L 512.97 159.15 L 514.43 159.15 L 515.89 175.51 L 518.80 184.49 L 518.80 184.49 L 524.64 184.49 L 526.09 184.49 L 527.55 184.49 L 529.01 184.49 L 533.38 184.49 L 534.84 184.49 L 537.76 184.49 L 539.21 184.49 L 543.59 184.49 L 545.04 184.49 L 545.04 184.49 L 549.42 184.49 L 553.79 184.49 L 555.25 184.49 L 556.71 184.49 L 558.16 184.49 L 559.62 184.49 L 565.45 209.15 L 566.91 180.68 L 568.37 159.15 L 569.83 169.92 L 574.20 169.92 L 575.66 169.92 L 575.66 169.92 L 578.57 193.05 L 580.03 193.05 L 584.40 193.05 L 585.86 193.05 L 587.32 193.05 L 588.78 193.05 L 590.23 193.05 L 590.23 193.05 L 590.23 193.05 L 590.23 193.05 L 597.52 193.05 L 600.44 193.05 L 604.81 193.05 L 606.27 193.05 L 609.18 193.05 L 610.64 193.05 L 616.47 193.05 L 617.93 193.05 L 619.39 193.05 L 620.85 223.56 L 625.22 230.34 L 626.68 191.36 L 628.13 203.81 L 629.59 202.12 L 631.05 182.37 L 635.42 137.71 L 636.88 137.71 L 638.34 137.71 L 639.80 139.41 L 641.25 148.39 L 645.63 139.41 L 647.08 139.41 L 648.54 126.95 L 650.00 137.71" /><text  class="poloto_text poloto_legend_text" x="675" y="150" >Refinance 20</text><line  class="poloto_line poloto_legend_icon poloto1stroke poloto1legend" stroke="black" x1="680" x2="730" y1="131.25" y2="131.25" /><path  class="poloto_line poloto1stroke" fill="none" stroke="black" d=" M 150.00 345.68 L 151.46 368.31 L 155.83 334.58 L 157.29 324.24 L 158.75 333.73 L 158.75 333.73 L 161.66 304.07 L 166.03 301.53 L 167.49 312.29 L 168.95 300.25 L 170.41 311.02 L 171.87 290.85 L 176.24 321.69 L 177.70 290.85 L 177.70 290.85 L 180.61 290.85 L 180.61 290.85 L 186.44 250.17 L 187.90 282.71 L 189.36 290.85 L 190.82 301.53 L 192.27 280.59 L 198.10 260.00 L 199.56 257.37 L 201.02 252.12 L 202.48 240.08 L 206.85 245.34 L 208.31 268.14 L 211.22 260.00 L 212.68 257.37 L 217.06 248.81 L 218.51 258.73 L 219.97 258.73 L 219.97 258.73 L 222.89 258.73 L 227.26 260.00 L 228.72 281.44 L 228.72 281.44 L 230.17 269.41 L 231.63 289.58 L 233.09 281.44 L 237.46 282.71 L 238.92 281.44 L 240.38 281.44 L 240.38 281.44 L 241.84 282.71 L 243.29 289.58 L 247.67 290.85 L 249.13 294.66 L 250.58 294.66 L 252.04 294.66 L 253.50 294.66 L 259.33 289.58 L 260.79 278.81 L 262.24 281.44 L 263.70 281.44 L 263.70 281.44 L 269.53 268.14 L 270.99 270.68 L 272.45 261.27 L 278.28 215.85 L 279.74 197.03 L 281.20 207.80 L 282.65 215.85 L 284.11 238.56 L 288.48 225.17 L 289.94 218.47 L 291.40 239.92 L 292.86 250.17 L 298.69 250.17 L 300.15 238.56 L 301.60 249.32 L 303.06 260.00 L 304.52 272.03 L 310.35 280.08 L 311.81 269.41 L 313.27 258.73 L 314.72 251.44 L 319.10 257.37 L 322.01 260.00 L 323.47 258.73 L 329.30 260.00 L 329.30 260.00 L 329.30 260.00 L 329.30 260.00 L 329.30 260.00 L 329.30 260.00 L 329.30 260.00 L 329.30 260.00 L 329.30 260.00 L 329.30 260.00 L 329.30 260.00 L 329.30 260.00 L 339.50 280.08 L 342.42 282.71 L 343.88 301.53 L 345.34 304.07 L 349.71 301.27 L 351.17 301.27 L 352.62 290.85 L 354.08 294.66 L 355.54 278.81 L 359.91 270.68 L 359.91 270.68 L 361.37 270.68 L 364.29 281.44 L 364.29 281.44 L 371.57 278.81 L 373.03 260.00 L 374.49 260.00 L 380.32 246.19 L 383.24 234.58 L 383.24 234.58 L 386.15 247.54 L 391.98 215.85 L 391.98 215.85 L 391.98 215.85 L 391.98 215.85 L 391.98 215.85 L 391.98 215.85 L 391.98 215.85 L 391.98 215.85 L 391.98 215.85 L 396.36 215.85 L 405.10 202.37 L 410.93 203.73 L 413.85 203.73 L 415.31 203.73 L 415.31 203.73 L 422.59 203.73 L 424.05 203.73 L 424.05 203.73 L 424.05 203.73 L 424.05 203.73 L 441.55 203.73 L 443.00 203.73 L 451.75 118.81 L 453.21 102.97 L 453.21 102.97 L 510.06 155.34 L 512.97 155.34 L 514.43 155.34 L 517.35 174.15 L 518.80 175.51 L 518.80 175.51 L 524.64 175.51 L 526.09 175.51 L 527.55 175.51 L 529.01 175.51 L 533.38 175.51 L 534.84 175.51 L 537.76 175.51 L 539.21 175.51 L 543.59 175.51 L 545.04 175.51 L 545.04 175.51 L 549.42 175.51 L 553.79 175.51 L 555.25 175.51 L 556.71 175.51 L 558.16 175.51 L 559.62 175.51 L 565.45 156.36 L 566.91 145.93 L 568.37 144.58 L 569.83 147.37 L 574.20 147.37 L 575.66 147.37 L 575.66 147.37 L 578.57 167.46 L 580.03 167.46 L 584.40 167.46 L 585.86 167.46 L 587.32 167.46 L 588.78 167.46 L 590.23 167.46 L 590.23 167.46 L 596.06 167.46 L 596.06 167.46 L 597.52 167.46 L 600.44 167.46 L 604.81 167.46 L 606.27 167.46 L 609.18 167.46 L 610.64 167.46 L 616.47 167.46 L 617.93 167.46 L 619.39 167.46 L 620.85 190.34 L 625.22 188.98 L 626.68 156.69 L 628.13 158.05 L 628.13 158.05 L 631.05 156.69 L 635.42 135.17 L 636.88 135.17 L 638.34 125.85 L 639.80 115.08 L 641.25 124.49 L 645.63 115.08 L 647.08 104.32 L 648.54 115.08 L 650.00 125.85" /><text  class="poloto_text poloto_legend_text" x="675" y="200" >Refinance 30</text><line  class="poloto_line poloto_legend_icon poloto2stroke poloto2legend" stroke="black" x1="680" x2="730" y1="181.25" y2="181.25" /><path  class="poloto_line poloto2stroke" fill="none" stroke="black" d=" M 150.00 343.31 L 151.46 351.36 L 155.83 338.81 L 157.29 328.98 L 158.75 330.85 L 158.75 330.85 L 161.66 310.25 L 166.03 308.47 L 167.49 319.15 L 168.95 307.54 L 170.41 318.22 L 171.87 297.71 L 176.24 307.54 L 177.70 286.95 L 179.15 286.95 L 180.61 286.02 L 182.07 260.00 L 186.44 264.58 L 187.90 276.27 L 189.36 286.95 L 190.82 277.20 L 192.27 265.51 L 198.10 256.61 L 199.56 242.12 L 201.02 240.17 L 202.48 238.14 L 206.85 242.12 L 208.31 258.73 L 211.22 256.61 L 212.68 254.66 L 217.06 244.07 L 218.51 255.59 L 219.97 244.07 L 219.97 244.07 L 222.89 244.07 L 227.26 246.02 L 228.72 264.58 L 228.72 264.58 L 230.17 255.59 L 231.63 256.61 L 233.09 257.54 L 237.46 265.51 L 238.92 256.61 L 240.38 256.61 L 240.38 256.61 L 241.84 266.44 L 243.29 267.46 L 247.67 268.39 L 249.13 277.20 L 250.58 277.20 L 252.04 279.07 L 253.50 279.07 L 259.33 275.25 L 260.79 264.58 L 262.24 266.44 L 263.70 265.51 L 263.70 265.51 L 269.53 255.59 L 270.99 255.59 L 272.45 245.00 L 278.28 202.12 L 279.74 171.78 L 281.20 190.34 L 282.65 202.12 L 284.11 212.80 L 288.48 203.05 L 289.94 202.12 L 291.40 221.61 L 292.86 223.56 L 298.69 223.56 L 300.15 211.86 L 301.60 221.61 L 303.06 232.29 L 304.52 255.59 L 310.35 256.61 L 311.81 245.00 L 313.27 224.58 L 314.72 221.61 L 319.10 241.10 L 322.01 223.56 L 323.47 222.54 L 329.30 242.12 L 329.30 242.12 L 329.30 242.12 L 329.30 242.12 L 329.30 242.12 L 329.30 242.12 L 332.22 242.12 L 332.22 242.12 L 332.22 242.12 L 332.22 242.12 L 332.22 242.12 L 332.22 242.12 L 339.50 254.66 L 342.42 256.61 L 343.88 275.25 L 345.34 287.88 L 349.71 286.95 L 351.17 286.95 L 352.62 265.51 L 354.08 268.39 L 355.54 254.66 L 359.91 265.51 L 359.91 265.51 L 361.37 257.54 L 364.29 266.44 L 364.29 266.44 L 371.57 264.58 L 373.03 246.02 L 374.49 245.00 L 380.32 220.59 L 383.24 211.86 L 383.24 211.86 L 386.15 222.54 L 391.98 210.85 L 391.98 210.85 L 391.98 210.85 L 391.98 210.85 L 391.98 210.85 L 391.98 210.85 L 391.98 210.85 L 391.98 210.85 L 396.36 210.85 L 396.36 209.83 L 405.10 197.03 L 410.93 175.51 L 410.93 175.51 L 415.31 175.51 L 415.31 175.51 L 422.59 175.51 L 424.05 175.51 L 424.05 175.51 L 424.05 175.51 L 424.05 175.51 L 441.55 175.51 L 443.00 175.51 L 451.75 127.03 L 453.21 100.00 L 453.21 100.00 L 510.06 146.44 L 512.97 146.44 L 514.43 146.44 L 515.89 150.76 L 518.80 160.59 L 518.80 160.59 L 524.64 160.59 L 526.09 160.59 L 527.55 160.59 L 529.01 160.59 L 533.38 160.59 L 534.84 160.59 L 537.76 160.59 L 539.21 160.59 L 543.59 160.59 L 545.04 160.59 L 545.04 160.59 L 549.42 160.59 L 553.79 160.59 L 555.25 160.59 L 556.71 160.59 L 558.16 160.59 L 559.62 160.59 L 565.45 144.24 L 566.91 152.88 L 568.37 132.37 L 569.83 152.88 L 574.20 152.88 L 575.66 152.88 L 575.66 152.88 L 578.57 152.88 L 580.03 152.88 L 584.40 152.88 L 585.86 152.88 L 587.32 152.88 L 588.78 152.88 L 590.23 152.88 L 590.23 152.88 L 596.06 152.88 L 596.06 152.88 L 597.52 152.88 L 600.44 152.88 L 604.81 152.88 L 606.27 152.88 L 609.18 152.88 L 610.64 152.88 L 616.47 152.88 L 617.93 152.88 L 619.39 152.88 L 620.85 207.80 L 625.22 197.03 L 626.68 153.98 L 628.13 186.27 L 629.59 153.98 L 631.05 143.14 L 635.42 132.37 L 636.88 132.37 L 638.34 122.63 L 639.80 111.86 L 641.25 121.61 L 645.63 121.61 L 647.08 109.75 L 648.54 101.10 L 650.00 111.86" /><text  class="poloto_labels poloto_text poloto_title" x="400" y="37.5" >lower.com purchase rates</text><text  class="poloto_labels poloto_text poloto_xname" x="400" y="481.25" >Date</text><text  class="poloto_labels poloto_text poloto_yname" transform="rotate(-90,37.5,250)" x="37.5" y="250" >Rate (%)</text><text  class="poloto_tick_labels poloto_text" dominant-baseline="middle" text-anchor="start" x="150" y="70" ></text><line  class="poloto_axis_lines" stroke="black" x1="150" x2="144" y1="390.2542372881356" y2="390.2542372881356" /><line  class="poloto_tick_line" stroke="black" x1="150" x2="650" y1="390.2542372881356" y2="390.2542372881356" /><text  class="poloto_tick_labels poloto_text" dominant-baseline="middle" text-anchor="end" x="135" y="390.2542372881356" >3.625</text><line  class="poloto_axis_lines" stroke="black" x1="150" x2="144" y1="379.66101694915255" y2="379.66101694915255" /><line  class="poloto_tick_line" stroke="black" x1="150" x2="650" y1="379.66101694915255" y2="379.66101694915255" /><text  class="poloto_tick_labels poloto_text" dominant-baseline="middle" text-anchor="end" x="135" y="379.66101694915255" >3.75</text><line  class="poloto_axis_lines" stroke="black" x1="150" x2="144" y1="369.06779661016947" y2="369.06779661016947" /><line  class="poloto_tick_line" stroke="black" x1="150" x2="650" y1="369.06779661016947" y2="369.06779661016947" /><text  class="poloto_tick_labels poloto_text" dominant-baseline="middle" text-anchor="end" x="135" y="369.06779661016947" >3.875</text><line  class="poloto_axis_lines" stroke="black" x1="150" x2="144" y1="358.47457627118644" y2="358.47457627118644" /><line  class="poloto_tick_line" stroke="black" x1="150" x2="650" y1="358.47457627118644" y2="358.47457627118644" /><text  class="poloto_tick_labels poloto_text" dominant-baseline="middle" text-anchor="end" x="135" y="358.47457627118644" >4</text><line  class="poloto_axis_lines" stroke="black" x1="150" x2="144" y1="347.8813559322034" y2="347.8813559322034" /><line  class="poloto_tick_line" stroke="black" x1="150" x2="650" y1="347.8813559322034" y2="347.8813559322034" /><text  class="poloto_tick_labels poloto_text" dominant-baseline="middle" text-anchor="end" x="135" y="347.8813559322034" >4.125</text><line  class="poloto_axis_lines" stroke="black" x1="150" x2="144" y1="337.2881355932203" y2="337.2881355932203" /><line  class="poloto_tick_line" stroke="black" x1="150" x2="650" y1="337.2881355932203" y2="337.2881355932203" /><text  class="poloto_tick_labels poloto_text" dominant-baseline="middle" text-anchor="end" x="135" y="337.2881355932203" >4.25</text><line  class="poloto_axis_lines" stroke="black" x1="150" x2="144" y1="326.6949152542373" y2="326.6949152542373" /><line  class="poloto_tick_line" stroke="black" x1="150" x2="650" y1="326.6949152542373" y2="326.6949152542373" /><text  class="poloto_tick_labels poloto_text" dominant-baseline="middle" text-anchor="end" x="135" y="326.6949152542373" >4.375</text><line  class="poloto_axis_lines" stroke="black" x1="150" x2="144" y1="316.10169491525426" y2="316.10169491525426" /><line  class="poloto_tick_line" stroke="black" x1="150" x2="650" y1="316.10169491525426" y2="316.10169491525426" /><text  class="poloto_tick_labels poloto_text" dominant-baseline="middle" text-anchor="end" x="135" y="316.10169491525426" >4.5</text><line  class="poloto_axis_lines" stroke="black" x1="150" x2="144" y1="305.50847457627117" y2="305.50847457627117" /><line  class="poloto_tick_line" stroke="black" x1="150" x2="650" y1="305.50847457627117" y2="305.50847457627117" /><text  class="poloto_tick_labels poloto_text" dominant-baseline="middle" text-anchor="end" x="135" y="305.50847457627117" >4.625</text><line  class="poloto_axis_lines" stroke="black" x1="150" x2="144" y1="294.91525423728814" y2="294.91525423728814" /><line  class="poloto_tick_line" stroke="black" x1="150" x2="650" y1="294.91525423728814" y2="294.91525423728814" /><text  class="poloto_tick_labels poloto_text" dominant-baseline="middle" text-anchor="end" x="135" y="294.91525423728814" >4.75</text><line  class="poloto_axis_lines" stroke="black" x1="150" x2="144" y1="284.3220338983051" y2="284.3220338983051" /><line  class="poloto_tick_line" stroke="black" x1="150" x2="650" y1="284.3220338983051" y2="284.3220338983051" /><text  class="poloto_tick_labels poloto_text" dominant-baseline="middle" text-anchor="end" x="135" y="284.3220338983051" >4.875</text><line  class="poloto_axis_lines" stroke="black" x1="150" x2="144" y1="273.728813559322" y2="273.728813559322" /><line  class="poloto_tick_line" stroke="black" x1="150" x2="650" y1="273.728813559322" y2="273.728813559322" /><text  class="poloto_tick_labels poloto_text" dominant-baseline="middle" text-anchor="end" x="135" y="273.728813559322" >5</text><line  class="poloto_axis_lines" stroke="black" x1="150" x2="144" y1="263.135593220339" y2="263.135593220339" /><line  class="poloto_tick_line" stroke="black" x1="150" x2="650" y1="263.135593220339" y2="263.135593220339" /><text  class="poloto_tick_labels poloto_text" dominant-baseline="middle" text-anchor="end" x="135" y="263.135593220339" >5.125</text><line  class="poloto_axis_lines" stroke="black" x1="150" x2="144" y1="252.54237288135596" y2="252.54237288135596" /><line  class="poloto_tick_line" stroke="black" x1="150" x2="650" y1="252.54237288135596" y2="252.54237288135596" /><text  class="poloto_tick_labels poloto_text" dominant-baseline="middle" text-anchor="end" x="135" y="252.54237288135596" >5.25</text><line  class="poloto_axis_lines" stroke="black" x1="150" x2="144" y1="241.94915254237287" y2="241.94915254237287" /><line  class="poloto_tick_line" stroke="black" x1="150" x2="650" y1="241.94915254237287" y2="241.94915254237287" /><text  class="poloto_tick_labels poloto_text" dominant-baseline="middle" text-anchor="end" x="135" y="241.94915254237287" >5.375</text><line  class="poloto_axis_lines" stroke="black" x1="150" x2="144" y1="231.35593220338984" y2="231.35593220338984" /><line  class="poloto_tick_line" stroke="black" x1="150" x2="650" y1="231.35593220338984" y2="231.35593220338984" /><text  class="poloto_tick_labels poloto_text" dominant-baseline="middle" text-anchor="end" x="135" y="231.35593220338984" >5.5</text><line  class="poloto_axis_lines" stroke="black" x1="150" x2="144" y1="220.7627118644068" y2="220.7627118644068" /><line  class="poloto_tick_line" stroke="black" x1="150" x2="650" y1="220.7627118644068" y2="220.7627118644068" /><text  class="poloto_tick_labels poloto_text" dominant-baseline="middle" text-anchor="end" x="135" y="220.7627118644068" >5.625</text><line  class="poloto_axis_lines" stroke="black" x1="150" x2="144" y1="210.16949152542372" y2="210.16949152542372" /><line  class="poloto_tick_line" stroke="black" x1="150" x2="650" y1="210.16949152542372" y2="210.16949152542372" /><text  class="poloto_tick_labels poloto_text" dominant-baseline="middle" text-anchor="end" x="135" y="210.16949152542372" >5.75</text><line  class="poloto_axis_lines" stroke="black" x1="150" x2="144" y1="199.5762711864407" y2="199.5762711864407" /><line  class="poloto_tick_line" stroke="black" x1="150" x2="650" y1="199.5762711864407" y2="199.5762711864407" /><text  class="poloto_tick_labels poloto_text" dominant-baseline="middle" text-anchor="end" x="135" y="199.5762711864407" >5.875</text><line  class="poloto_axis_lines" stroke="black" x1="150" x2="144" y1="188.98305084745766" y2="188.98305084745766" /><line  class="poloto_tick_line" stroke="black" x1="150" x2="650" y1="188.98305084745766" y2="188.98305084745766" /><text  class="poloto_tick_labels poloto_text" dominant-baseline="middle" text-anchor="end" x="135" y="188.98305084745766" >6</text><line  class="poloto_axis_lines" stroke="black" x1="150" x2="144" y1="178.38983050847457" y2="178.38983050847457" /><line  class="poloto_tick_line" stroke="black" x1="150" x2="650" y1="178.38983050847457" y2="178.38983050847457" /><text  class="poloto_tick_labels poloto_text" dominant-baseline="middle" text-anchor="end" x="135" y="178.38983050847457" >6.125</text><line  class="poloto_axis_lines" stroke="black" x1="150" x2="144" y1="167.7966101694915" y2="167.7966101694915" /><line  class="poloto_tick_line" stroke="black" x1="150" x2="650" y1="167.7966101694915" y2="167.7966101694915" /><text  class="poloto_tick_labels poloto_text" dominant-baseline="middle" text-anchor="end" x="135" y="167.7966101694915" >6.25</text><line  class="poloto_axis_lines" stroke="black" x1="150" x2="144" y1="157.2033898305085" y2="157.2033898305085" /><line  class="poloto_tick_line" stroke="black" x1="150" x2="650" y1="157.2033898305085" y2="157.2033898305085" /><text  class="poloto_tick_labels poloto_text" dominant-baseline="middle" text-anchor="end" x="135" y="157.2033898305085" >6.375</text><line  class="poloto_axis_lines" stroke="black" x1="150" x2="144" y1="146.61016949152543" y2="146.61016949152543" /><line  class="poloto_tick_line" stroke="black" x1="150" x2="650" y1="146.61016949152543" y2="146.61016949152543" /><text  class="poloto_tick_labels poloto_text" dominant-baseline="middle" text-anchor="end" x="135" y="146.61016949152543" >6.5</text><line  class="poloto_axis_lines" stroke="black" x1="150" x2="144" y1="136.01694915254234" y2="136.01694915254234" /><line  class="poloto_tick_line" stroke="black" x1="150" x2="650" y1="136.01694915254234" y2="136.01694915254234" /><text  class="poloto_tick_labels poloto_text" dominant-baseline="middle" text-anchor="end" x="135" y="136.01694915254234" >6.625</text><line  class="poloto_axis_lines" stroke="black" x1="150" x2="144" y1="125.42372881355936" y2="125.42372881355936" /><line  class="poloto_tick_line" stroke="black" x1="150" x2="650" y1="125.42372881355936" y2="125.42372881355936" /><text  class="poloto_tick_labels poloto_text" dominant-baseline="middle" text-anchor="end" x="135" y="125.42372881355936" >6.75</text><line  class="poloto_axis_lines" stroke="black" x1="150" x2="144" y1="114.83050847457628" y2="114.83050847457628" /><line  class="poloto_tick_line" stroke="black" x1="150" x2="650" y1="114.83050847457628" y2="114.83050847457628" /><text  class="poloto_tick_labels poloto_text" dominant-baseline="middle" text-anchor="end" x="135" y="114.83050847457628" >6.875</text><line  class="poloto_axis_lines" stroke="black" x1="150" x2="144" y1="104.23728813559319" y2="104.23728813559319" /><line  class="poloto_tick_line" stroke="black" x1="150" x2="650" y1="104.23728813559319" y2="104.23728813559319" /><text  class="poloto_tick_labels poloto_text" dominant-baseline="middle" text-anchor="end" x="135" y="104.23728813559319" >7</text><text  class="poloto_tick_labels poloto_text" dominant-baseline="middle" text-anchor="start" x="440.00000000000006" y="70" >¹2022-05-01 00:00:00 UTC in Months</text><line  class="poloto_axis_lines" stroke="black" x1="215.5976676384853" x2="215.5976676384853" y1="400" y2="405" /><line  class="poloto_tick_line" stroke="black" x1="215.5976676384853" x2="215.5976676384853" y1="400" y2="100" /><text  class="poloto_tick_labels poloto_text" dominant-baseline="start" text-anchor="middle" x="215.5976676384853" y="430" >2022 May¹</text><line  class="poloto_axis_lines" stroke="black" x1="304.5189504373193" x2="304.5189504373193" y1="400" y2="405" /><line  class="poloto_tick_line" stroke="black" x1="304.5189504373193" x2="304.5189504373193" y1="400" y2="100" /><text  class="poloto_tick_labels poloto_text" dominant-baseline="start" text-anchor="middle" x="304.5189504373193" y="430" >2022 Jul</text><line  class="poloto_axis_lines" stroke="black" x1="394.89795918367236" x2="394.89795918367236" y1="400" y2="405" /><line  class="poloto_tick_line" stroke="black" x1="394.89795918367236" x2="394.89795918367236" y1="400" y2="100" /><text  class="poloto_tick_labels poloto_text" dominant-baseline="start" text-anchor="middle" x="394.89795918367236" y="430" >2022 Sep</text><line  class="poloto_axis_lines" stroke="black" x1="483.81924198250636" x2="483.81924198250636" y1="400" y2="405" /><line  class="poloto_tick_line" stroke="black" x1="483.81924198250636" x2="483.81924198250636" y1="400" y2="100" /><text  class="poloto_tick_labels poloto_text" dominant-baseline="start" text-anchor="middle" x="483.81924198250636" y="430" >2022 Nov</text><line  class="poloto_axis_lines" stroke="black" x1="572.7405247813404" x2="572.7405247813404" y1="400" y2="405" /><line  class="poloto_tick_line" stroke="black" x1="572.7405247813404" x2="572.7405247813404" y1="400" y2="100" /><text  class="poloto_tick_labels poloto_text" dominant-baseline="start" text-anchor="middle" x="572.7405247813404" y="430" >2023 Jan</text><path  stroke="black" fill="none" class="poloto_axis_lines" d=" M 150 400 L 650 400" /><path  stroke="black" fill="none" class="poloto_axis_lines" d=" M 150 400 L 150 100" /></svg>