<svg class="poloto" width="800" height="500" viewBox="0 0 800 500" xmlns="http://www.w3.org/2000/svg"><style>.poloto{stroke-linecap:round;stroke-linejoin:round;font-family:Roboto,sans-serif;font-size:16px;}.poloto_background{fill:#262626;}.poloto_scatter{stroke-width:7}.poloto_tick_line{stroke:dimgray;stroke-width:0.5}.poloto_line{stroke-width:2}.poloto_text{fill: white;}.poloto_axis_lines{stroke: white;stroke-width:3;fill:none;stroke-dasharray:none}.poloto_title{font-size:24px;dominant-baseline:start;text-anchor:middle;}.poloto_xname{font-size:24px;dominant-baseline:start;text-anchor:middle;}.poloto_yname{font-size:24px;dominant-baseline:start;text-anchor:middle;}.poloto0stroke{stroke:blue;}.poloto1stroke{stroke:red;}.poloto2stroke{stroke:green;}.poloto3stroke{stroke:gold;}.poloto4stroke{stroke:aqua;}.poloto5stroke{stroke:lime;}.poloto6stroke{stroke:orange;}.poloto7stroke{stroke:chocolate;}.poloto0fill{fill:blue;}.poloto1fill{fill:red;}.poloto2fill{fill:green;}.poloto3fill{fill:gold;}.poloto4fill{fill:aqua;}.poloto5fill{fill:lime;}.poloto6fill{fill:orange;}.poloto7fill{fill:chocolate;}</style><circle  r="1e5" class="poloto_background" /><text  class="poloto_text poloto_legend_text" x="675" y="100" >Refinance 15</text><line  class="poloto_line poloto_legend_icon poloto0stroke poloto0legend" stroke="black" x1="680" x2="730" y1="81.25" y2="81.25" /><path  class="poloto_line poloto0stroke" fill="none" stroke="black" d=" M 150.00 392.46 L 151.47 400.00 L 155.88 389.32 L 157.35 380.17 L 158.82 389.32 L 158.82 389.32 L 161.76 358.81 L 166.18 357.20 L 167.65 367.88 L 169.12 344.83 L 170.59 346.44 L 172.06 341.61 L 176.47 343.22 L 177.94 336.78 L 177.94 336.78 L 180.88 337.37 L 182.35 314.32 L 186.76 324.32 L 188.24 327.54 L 189.71 327.54 L 191.18 326.69 L 192.65 321.78 L 198.53 278.73 L 200.00 297.88 L 201.47 283.05 L 202.94 277.29 L 202.94 277.29 L 208.82 299.58 L 211.76 303.64 L 213.24 294.58 L 217.65 283.81 L 219.12 305.25 L 220.59 294.58 L 220.59 294.58 L 223.53 292.88 L 227.94 296.19 L 229.41 306.86 L 229.41 306.86 L 230.88 297.80 L 232.35 308.56 L 233.82 292.88 L 238.24 325.08 L 239.71 324.32 L 241.18 306.86 L 241.18 306.86 L 242.65 314.32 L 244.12 317.63 L 248.53 317.63 L 250.00 329.15 L 251.47 329.15 L 252.94 329.15 L 254.41 329.15 L 260.29 317.63 L 261.76 314.32 L 263.24 315.93 L 264.71 315.93 L 264.71 315.93 L 270.59 305.25 L 272.06 305.25 L 273.53 296.19 L 279.41 281.36 L 280.88 250.76 L 282.35 254.15 L 283.82 254.15 L 285.29 275.59 L 289.71 254.15 L 291.18 254.15 L 292.65 273.90 L 294.12 277.29 L 300.00 277.29 L 301.47 275.59 L 302.94 280.59 L 304.41 285.51 L 305.88 296.19 L 311.76 303.64 L 313.24 294.58 L 314.71 287.12 L 316.18 283.81 L 320.59 285.51 L 323.53 285.51 L 325.00 283.81 L 330.88 282.20 L 330.88 282.20 L 330.88 282.20 L 330.88 282.20 L 330.88 282.20 L 330.88 282.20 L 333.82 282.20 L 333.82 282.20 L 333.82 282.20 L 333.82 282.20 L 333.82 282.20 L 333.82 282.20 L 341.18 294.58 L 344.12 297.80 L 345.59 325.93 L 347.06 329.15 L 351.47 329.15 L 352.94 327.54 L 354.41 305.25 L 355.88 299.49 L 357.35 285.51 L 361.76 296.19 L 361.76 296.19 L 363.24 287.12 L 366.18 296.19 L 366.18 296.19 L 373.53 296.19 L 375.00 262.46 L 376.47 282.20 L 382.35 248.39 L 385.29 248.39 L 385.29 248.39 L 388.24 260.76 L 394.12 254.15 L 394.12 254.15 L 394.12 254.15 L 394.12 254.15 L 394.12 254.15 L 394.12 254.15 L 394.12 254.15 L 394.12 254.15 L 394.12 254.15 L 398.53 254.15 L 407.35 232.63 L 413.24 235.17 L 413.24 235.17 L 417.65 235.17 L 423.53 235.17 L 425.00 235.17 L 425.00 235.17 L 425.00 235.17 L 425.00 235.17 L 425.00 235.17 L 444.12 235.17 L 445.59 235.17 L 454.41 139.75 L 455.88 130.68 L 457.35 130.68 L 510.29 159.15 L 516.18 159.15 L 517.65 159.15 L 519.12 175.51 L 522.06 184.49 L 522.06 184.49 L 527.94 184.49 L 529.41 184.49 L 530.88 184.49 L 532.35 184.49 L 536.76 184.49 L 538.24 184.49 L 541.18 184.49 L 542.65 184.49 L 547.06 184.49 L 548.53 184.49 L 548.53 184.49 L 552.94 184.49 L 557.35 184.49 L 558.82 184.49 L 560.29 184.49 L 561.76 184.49 L 563.24 184.49 L 569.12 209.15 L 570.59 180.68 L 572.06 159.15 L 573.53 169.92 L 577.94 169.92 L 579.41 169.92 L 579.41 169.92 L 582.35 193.05 L 583.82 193.05 L 588.24 193.05 L 589.71 193.05 L 591.18 193.05 L 592.65 193.05 L 594.12 193.05 L 594.12 193.05 L 594.12 193.05 L 594.12 193.05 L 601.47 193.05 L 604.41 193.05 L 608.82 193.05 L 610.29 193.05 L 613.24 193.05 L 614.71 193.05 L 620.59 193.05 L 622.06 193.05 L 623.53 193.05 L 625.00 223.56 L 629.41 230.34 L 630.88 191.36 L 632.35 203.81 L 633.82 202.12 L 635.29 182.37 L 639.71 137.71 L 641.18 137.71 L 642.65 137.71 L 644.12 139.41 L 645.59 148.39 L 650.00 139.41" /><text  class="poloto_text poloto_legend_text" x="675" y="150" >Refinance 20</text><line  class="poloto_line poloto_legend_icon poloto1stroke poloto1legend" stroke="black" x1="680" x2="730" y1="131.25" y2="131.25" /><path  class="poloto_line poloto1stroke" fill="none" stroke="black" d=" M 150.00 345.68 L 151.47 368.31 L 155.88 334.58 L 157.35 324.24 L 158.82 333.73 L 158.82 333.73 L 161.76 304.07 L 166.18 301.53 L 167.65 312.29 L 169.12 300.25 L 170.59 311.02 L 172.06 290.85 L 176.47 321.69 L 177.94 290.85 L 177.94 290.85 L 180.88 290.85 L 180.88 290.85 L 186.76 250.17 L 188.24 282.71 L 189.71 290.85 L 191.18 301.53 L 192.65 280.59 L 198.53 260.00 L 200.00 257.37 L 201.47 252.12 L 202.94 240.08 L 207.35 245.34 L 208.82 268.14 L 211.76 260.00 L 213.24 257.37 L 217.65 248.81 L 219.12 258.73 L 220.59 258.73 L 220.59 258.73 L 223.53 258.73 L 227.94 260.00 L 229.41 281.44 L 229.41 281.44 L 230.88 269.41 L 232.35 289.58 L 233.82 281.44 L 238.24 282.71 L 239.71 281.44 L 241.18 281.44 L 241.18 281.44 L 242.65 282.71 L 244.12 289.58 L 248.53 290.85 L 250.00 294.66 L 251.47 294.66 L 252.94 294.66 L 254.41 294.66 L 260.29 289.58 L 261.76 278.81 L 263.24 281.44 L 264.71 281.44 L 264.71 281.44 L 270.59 268.14 L 272.06 270.68 L 273.53 261.27 L 279.41 215.85 L 280.88 197.03 L 282.35 207.80 L 283.82 215.85 L 285.29 238.56 L 289.71 225.17 L 291.18 218.47 L 292.65 239.92 L 294.12 250.17 L 300.00 250.17 L 301.47 238.56 L 302.94 249.32 L 304.41 260.00 L 305.88 272.03 L 311.76 280.08 L 313.24 269.41 L 314.71 258.73 L 316.18 251.44 L 320.59 257.37 L 323.53 260.00 L 325.00 258.73 L 330.88 260.00 L 330.88 260.00 L 330.88 260.00 L 330.88 260.00 L 330.88 260.00 L 330.88 260.00 L 330.88 260.00 L 330.88 260.00 L 330.88 260.00 L 330.88 260.00 L 330.88 260.00 L 330.88 260.00 L 341.18 280.08 L 344.12 282.71 L 345.59 301.53 L 347.06 304.07 L 351.47 301.27 L 352.94 301.27 L 354.41 290.85 L 355.88 294.66 L 357.35 278.81 L 361.76 270.68 L 361.76 270.68 L 363.24 270.68 L 366.18 281.44 L 366.18 281.44 L 373.53 278.81 L 375.00 260.00 L 376.47 260.00 L 382.35 246.19 L 385.29 234.58 L 385.29 234.58 L 388.24 247.54 L 394.12 215.85 L 394.12 215.85 L 394.12 215.85 L 394.12 215.85 L 394.12 215.85 L 394.12 215.85 L 394.12 215.85 L 394.12 215.85 L 394.12 215.85 L 398.53 215.85 L 407.35 202.37 L 413.24 203.73 L 416.18 203.73 L 417.65 203.73 L 417.65 203.73 L 425.00 203.73 L 426.47 203.73 L 426.47 203.73 L 426.47 203.73 L 426.47 203.73 L 444.12 203.73 L 445.59 203.73 L 454.41 118.81 L 455.88 102.97 L 455.88 102.97 L 513.24 155.34 L 516.18 155.34 L 517.65 155.34 L 520.59 174.15 L 522.06 175.51 L 522.06 175.51 L 527.94 175.51 L 529.41 175.51 L 530.88 175.51 L 532.35 175.51 L 536.76 175.51 L 538.24 175.51 L 541.18 175.51 L 542.65 175.51 L 547.06 175.51 L 548.53 175.51 L 548.53 175.51 L 552.94 175.51 L 557.35 175.51 L 558.82 175.51 L 560.29 175.51 L 561.76 175.51 L 563.24 175.51 L 569.12 156.36 L 570.59 145.93 L 572.06 144.58 L 573.53 147.37 L 577.94 147.37 L 579.41 147.37 L 579.41 147.37 L 582.35 167.46 L 583.82 167.46 L 588.24 167.46 L 589.71 167.46 L 591.18 167.46 L 592.65 167.46 L 594.12 167.46 L 594.12 167.46 L 600.00 167.46 L 600.00 167.46 L 601.47 167.46 L 604.41 167.46 L 608.82 167.46 L 610.29 167.46 L 613.24 167.46 L 614.71 167.46 L 620.59 167.46 L 622.06 167.46 L 623.53 167.46 L 625.00 190.34 L 629.41 188.98 L 630.88 156.69 L 632.35 158.05 L 632.35 158.05 L 635.29 156.69 L 639.71 135.17 L 641.18 135.17 L 642.65 125.85 L 644.12 115.08 L 645.59 124.49 L 650.00 115.08" /><text  class="poloto_text poloto_legend_text" x="675" y="200" >Refinance 30</text><line  class="poloto_line poloto_legend_icon poloto2stroke poloto2legend" stroke="black" x1="680" x2="730" y1="181.25" y2="181.25" /><path  class="poloto_line poloto2stroke" fill="none" stroke="black" d=" M 150.00 343.31 L 151.47 351.36 L 155.88 338.81 L 157.35 328.98 L 158.82 330.85 L 158.82 330.85 L 161.76 310.25 L 166.18 308.47 L 167.65 319.15 L 169.12 307.54 L 170.59 318.22 L 172.06 297.71 L 176.47 307.54 L 177.94 286.95 L 179.41 286.95 L 180.88 286.02 L 182.35 260.00 L 186.76 264.58 L 188.24 276.27 L 189.71 286.95 L 191.18 277.20 L 192.65 265.51 L 198.53 256.61 L 200.00 242.12 L 201.47 240.17 L 202.94 238.14 L 207.35 242.12 L 208.82 258.73 L 211.76 256.61 L 213.24 254.66 L 217.65 244.07 L 219.12 255.59 L 220.59 244.07 L 220.59 244.07 L 223.53 244.07 L 227.94 246.02 L 229.41 264.58 L 229.41 264.58 L 230.88 255.59 L 232.35 256.61 L 233.82 257.54 L 238.24 265.51 L 239.71 256.61 L 241.18 256.61 L 241.18 256.61 L 242.65 266.44 L 244.12 267.46 L 248.53 268.39 L 250.00 277.20 L 251.47 277.20 L 252.94 279.07 L 254.41 279.07 L 260.29 275.25 L 261.76 264.58 L 263.24 266.44 L 264.71 265.51 L 264.71 265.51 L 270.59 255.59 L 272.06 255.59 L 273.53 245.00 L 279.41 202.12 L 280.88 171.78 L 282.35 190.34 L 283.82 202.12 L 285.29 212.80 L 289.71 203.05 L 291.18 202.12 L 292.65 221.61 L 294.12 223.56 L 300.00 223.56 L 301.47 211.86 L 302.94 221.61 L 304.41 232.29 L 305.88 255.59 L 311.76 256.61 L 313.24 245.00 L 314.71 224.58 L 316.18 221.61 L 320.59 241.10 L 323.53 223.56 L 325.00 222.54 L 330.88 242.12 L 330.88 242.12 L 330.88 242.12 L 330.88 242.12 L 330.88 242.12 L 330.88 242.12 L 333.82 242.12 L 333.82 242.12 L 333.82 242.12 L 333.82 242.12 L 333.82 242.12 L 333.82 242.12 L 341.18 254.66 L 344.12 256.61 L 345.59 275.25 L 347.06 287.88 L 351.47 286.95 L 352.94 286.95 L 354.41 265.51 L 355.88 268.39 L 357.35 254.66 L 361.76 265.51 L 361.76 265.51 L 363.24 257.54 L 366.18 266.44 L 366.18 266.44 L 373.53 264.58 L 375.00 246.02 L 376.47 245.00 L 382.35 220.59 L 385.29 211.86 L 385.29 211.86 L 388.24 222.54 L 394.12 210.85 L 394.12 210.85 L 394.12 210.85 L 394.12 210.85 L 394.12 210.85 L 394.12 210.85 L 394.12 210.85 L 394.12 210.85 L 398.53 210.85 L 398.53 209.83 L 407.35 197.03 L 413.24 175.51 L 413.24 175.51 L 417.65 175.51 L 417.65 175.51 L 425.00 175.51 L 426.47 175.51 L 426.47 175.51 L 426.47 175.51 L 426.47 175.51 L 444.12 175.51 L 445.59 175.51 L 454.41 127.03 L 455.88 100.00 L 455.88 100.00 L 513.24 146.44 L 516.18 146.44 L 517.65 146.44 L 519.12 150.76 L 522.06 160.59 L 522.06 160.59 L 527.94 160.59 L 529.41 160.59 L 530.88 160.59 L 532.35 160.59 L 536.76 160.59 L 538.24 160.59 L 541.18 160.59 L 542.65 160.59 L 547.06 160.59 L 548.53 160.59 L 548.53 160.59 L 552.94 160.59 L 557.35 160.59 L 558.82 160.59 L 560.29 160.59 L 561.76 160.59 L 563.24 160.59 L 569.12 144.24 L 570.59 152.88 L 572.06 132.37 L 573.53 152.88 L 577.94 152.88 L 579.41 152.88 L 579.41 152.88 L 582.35 152.88 L 583.82 152.88 L 588.24 152.88 L 589.71 152.88 L 591.18 152.88 L 592.65 152.88 L 594.12 152.88 L 594.12 152.88 L 600.00 152.88 L 600.00 152.88 L 601.47 152.88 L 604.41 152.88 L 608.82 152.88 L 610.29 152.88 L 613.24 152.88 L 614.71 152.88 L 620.59 152.88 L 622.06 152.88 L 623.53 152.88 L 625.00 207.80 L 629.41 197.03 L 630.88 153.98 L 632.35 186.27 L 633.82 153.98 L 635.29 143.14 L 639.71 132.37 L 641.18 132.37 L 642.65 122.63 L 644.12 111.86 L 645.59 121.61 L 650.00 121.61" /><text  class="poloto_labels poloto_text poloto_title" x="400" y="37.5" >lower.com purchase rates</text><text  class="poloto_labels poloto_text poloto_xname" x="400" y="481.25" >Date</text><text  class="poloto_labels poloto_text poloto_yname" transform="rotate(-90,37.5,250)" x="37.5" y="250" >Rate (%)</text><text  class="poloto_tick_labels poloto_text" dominant-baseline="middle" text-anchor="start" x="150" y="70" ></text><line  class="poloto_axis_lines" stroke="black" x1="150" x2="144" y1="390.2542372881356" y2="390.2542372881356" /><line  class="poloto_tick_line" stroke="black" x1="150" x2="650" y1="390.2542372881356" y2="390.2542372881356" /><text  class="poloto_tick_labels poloto_text" dominant-baseline="middle" text-anchor="end" x="135" y="390.2542372881356" >3.625</text><line  class="poloto_axis_lines" stroke="black" x1="150" x2="144" y1="379.66101694915255" y2="379.66101694915255" /><line  class="poloto_tick_line" stroke="black" x1="150" x2="650" y1="379.66101694915255" y2="379.66101694915255" /><text  class="poloto_tick_labels poloto_text" dominant-baseline="middle" text-anchor="end" x="135" y="379.66101694915255" >3.75</text><line  class="poloto_axis_lines" stroke="black" x1="150" x2="144" y1="369.06779661016947" y2="369.06779661016947" /><line  class="poloto_tick_line" stroke="black" x1="150" x2="650" y1="369.06779661016947" y2="369.06779661016947" /><text  class="poloto_tick_labels poloto_text" dominant-baseline="middle" text-anchor="end" x="135" y="369.06779661016947" >3.875</text><line  class="poloto_axis_lines" stroke="black" x1="150" x2="144" y1="358.47457627118644" y2="358.47457627118644" /><line  class="poloto_tick_line" stroke="black" x1="150" x2="650" y1="358.47457627118644" y2="358.47457627118644" /><text  class="poloto_tick_labels poloto_text" dominant-baseline="middle" text-anchor="end" x="135" y="358.47457627118644" >4</text><line  class="poloto_axis_lines" stroke="black" x1="150" x2="144" y1="347.8813559322034" y2="347.8813559322034" /><line  class="poloto_tick_line" stroke="black" x1="150" x2="650" y1="347.8813559322034" y2="347.8813559322034" /><text  class="poloto_tick_labels poloto_text" dominant-baseline="middle" text-anchor="end" x="135" y="347.8813559322034" >4.125</text><line  class="poloto_axis_lines" stroke="black" x1="150" x2="144" y1="337.2881355932203" y2="337.2881355932203" /><line  class="poloto_tick_line" stroke="black" x1="150" x2="650" y1="337.2881355932203" y2="337.2881355932203" /><text  class="poloto_tick_labels poloto_text" dominant-baseline="middle" text-anchor="end" x="135" y="337.2881355932203" >4.25</text><line  class="poloto_axis_lines" stroke="black" x1="150" x2="144" y1="326.6949152542373" y2="326.6949152542373" /><line  class="poloto_tick_line" stroke="black" x1="150" x2="650" y1="326.6949152542373" y2="326.6949152542373" /><text  class="poloto_tick_labels poloto_text" dominant-baseline="middle" text-anchor="end" x="135" y="326.6949152542373" >4.375</text><line  class="poloto_axis_lines" stroke="black" x1="150" x2="144" y1="316.10169491525426" y2="316.10169491525426" /><line  class="poloto_tick_line" stroke="black" x1="150" x2="650" y1="316.10169491525426" y2="316.10169491525426" /><text  class="poloto_tick_labels poloto_text" dominant-baseline="middle" text-anchor="end" x="135" y="316.10169491525426" >4.5</text><line  class="poloto_axis_lines" stroke="black" x1="150" x2="144" y1="305.50847457627117" y2="305.50847457627117" /><line  class="poloto_tick_line" stroke="black" x1="150" x2="650" y1="305.50847457627117" y2="305.50847457627117" /><text  class="poloto_tick_labels poloto_text" dominant-baseline="middle" text-anchor="end" x="135" y="305.50847457627117" >4.625</text><line  class="poloto_axis_lines" stroke="black" x1="150" x2="144" y1="294.91525423728814" y2="294.91525423728814" /><line  class="poloto_tick_line" stroke="black" x1="150" x2="650" y1="294.91525423728814" y2="294.91525423728814" /><text  class="poloto_tick_labels poloto_text" dominant-baseline="middle" text-anchor="end" x="135" y="294.91525423728814" >4.75</text><line  class="poloto_axis_lines" stroke="black" x1="150" x2="144" y1="284.3220338983051" y2="284.3220338983051" /><line  class="poloto_tick_line" stroke="black" x1="150" x2="650" y1="284.3220338983051" y2="284.3220338983051" /><text  class="poloto_tick_labels poloto_text" dominant-baseline="middle" text-anchor="end" x="135" y="284.3220338983051" >4.875</text><line  class="poloto_axis_lines" stroke="black" x1="150" x2="144" y1="273.728813559322" y2="273.728813559322" /><line  class="poloto_tick_line" stroke="black" x1="150" x2="650" y1="273.728813559322" y2="273.728813559322" /><text  class="poloto_tick_labels poloto_text" dominant-baseline="middle" text-anchor="end" x="135" y="273.728813559322" >5</text><line  class="poloto_axis_lines" stroke="black" x1="150" x2="144" y1="263.135593220339" y2="263.135593220339" /><line  class="poloto_tick_line" stroke="black" x1="150" x2="650" y1="263.135593220339" y2="263.135593220339" /><text  class="poloto_tick_labels poloto_text" dominant-baseline="middle" text-anchor="end" x="135" y="263.135593220339" >5.125</text><line  class="poloto_axis_lines" stroke="black" x1="150" x2="144" y1="252.54237288135596" y2="252.54237288135596" /><line  class="poloto_tick_line" stroke="black" x1="150" x2="650" y1="252.54237288135596" y2="252.54237288135596" /><text  class="poloto_tick_labels poloto_text" dominant-baseline="middle" text-anchor="end" x="135" y="252.54237288135596" >5.25</text><line  class="poloto_axis_lines" stroke="black" x1="150" x2="144" y1="241.94915254237287" y2="241.94915254237287" /><line  class="poloto_tick_line" stroke="black" x1="150" x2="650" y1="241.94915254237287" y2="241.94915254237287" /><text  class="poloto_tick_labels poloto_text" dominant-baseline="middle" text-anchor="end" x="135" y="241.94915254237287" >5.375</text><line  class="poloto_axis_lines" stroke="black" x1="150" x2="144" y1="231.35593220338984" y2="231.35593220338984" /><line  class="poloto_tick_line" stroke="black" x1="150" x2="650" y1="231.35593220338984" y2="231.35593220338984" /><text  class="poloto_tick_labels poloto_text" dominant-baseline="middle" text-anchor="end" x="135" y="231.35593220338984" >5.5</text><line  class="poloto_axis_lines" stroke="black" x1="150" x2="144" y1="220.7627118644068" y2="220.7627118644068" /><line  class="poloto_tick_line" stroke="black" x1="150" x2="650" y1="220.7627118644068" y2="220.7627118644068" /><text  class="poloto_tick_labels poloto_text" dominant-baseline="middle" text-anchor="end" x="135" y="220.7627118644068" >5.625</text><line  class="poloto_axis_lines" stroke="black" x1="150" x2="144" y1="210.16949152542372" y2="210.16949152542372" /><line  class="poloto_tick_line" stroke="black" x1="150" x2="650" y1="210.16949152542372" y2="210.16949152542372" /><text  class="poloto_tick_labels poloto_text" dominant-baseline="middle" text-anchor="end" x="135" y="210.16949152542372" >5.75</text><line  class="poloto_axis_lines" stroke="black" x1="150" x2="144" y1="199.5762711864407" y2="199.5762711864407" /><line  class="poloto_tick_line" stroke="black" x1="150" x2="650" y1="199.5762711864407" y2="199.5762711864407" /><text  class="poloto_tick_labels poloto_text" dominant-baseline="middle" text-anchor="end" x="135" y="199.5762711864407" >5.875</text><line  class="poloto_axis_lines" stroke="black" x1="150" x2="144" y1="188.98305084745766" y2="188.98305084745766" /><line  class="poloto_tick_line" stroke="black" x1="150" x2="650" y1="188.98305084745766" y2="188.98305084745766" /><text  class="poloto_tick_labels poloto_text" dominant-baseline="middle" text-anchor="end" x="135" y="188.98305084745766" >6</text><line  class="poloto_axis_lines" stroke="black" x1="150" x2="144" y1="178.38983050847457" y2="178.38983050847457" /><line  class="poloto_tick_line" stroke="black" x1="150" x2="650" y1="178.38983050847457" y2="178.38983050847457" /><text  class="poloto_tick_labels poloto_text" dominant-baseline="middle" text-anchor="end" x="135" y="178.38983050847457" >6.125</text><line  class="poloto_axis_lines" stroke="black" x1="150" x2="144" y1="167.7966101694915" y2="167.7966101694915" /><line  class="poloto_tick_line" stroke="black" x1="150" x2="650" y1="167.7966101694915" y2="167.7966101694915" /><text  class="poloto_tick_labels poloto_text" dominant-baseline="middle" text-anchor="end" x="135" y="167.7966101694915" >6.25</text><line  class="poloto_axis_lines" stroke="black" x1="150" x2="144" y1="157.2033898305085" y2="157.2033898305085" /><line  class="poloto_tick_line" stroke="black" x1="150" x2="650" y1="157.2033898305085" y2="157.2033898305085" /><text  class="poloto_tick_labels poloto_text" dominant-baseline="middle" text-anchor="end" x="135" y="157.2033898305085" >6.375</text><line  class="poloto_axis_lines" stroke="black" x1="150" x2="144" y1="146.61016949152543" y2="146.61016949152543" /><line  class="poloto_tick_line" stroke="black" x1="150" x2="650" y1="146.61016949152543" y2="146.61016949152543" /><text  class="poloto_tick_labels poloto_text" dominant-baseline="middle" text-anchor="end" x="135" y="146.61016949152543" >6.5</text><line  class="poloto_axis_lines" stroke="black" x1="150" x2="144" y1="136.01694915254234" y2="136.01694915254234" /><line  class="poloto_tick_line" stroke="black" x1="150" x2="650" y1="136.01694915254234" y2="136.01694915254234" /><text  class="poloto_tick_labels poloto_text" dominant-baseline="middle" text-anchor="end" x="135" y="136.01694915254234" >6.625</text><line  class="poloto_axis_lines" stroke="black" x1="150" x2="144" y1="125.42372881355936" y2="125.42372881355936" /><line  class="poloto_tick_line" stroke="black" x1="150" x2="650" y1="125.42372881355936" y2="125.42372881355936" /><text  class="poloto_tick_labels poloto_text" dominant-baseline="middle" text-anchor="end" x="135" y="125.42372881355936" >6.75</text><line  class="poloto_axis_lines" stroke="black" x1="150" x2="144" y1="114.83050847457628" y2="114.83050847457628" /><line  class="poloto_tick_line" stroke="black" x1="150" x2="650" y1="114.83050847457628" y2="114.83050847457628" /><text  class="poloto_tick_labels poloto_text" dominant-baseline="middle" text-anchor="end" x="135" y="114.83050847457628" >6.875</text><line  class="poloto_axis_lines" stroke="black" x1="150" x2="144" y1="104.23728813559319" y2="104.23728813559319" /><line  class="poloto_tick_line" stroke="black" x1="150" x2="650" y1="104.23728813559319" y2="104.23728813559319" /><text  class="poloto_tick_labels poloto_text" dominant-baseline="middle" text-anchor="end" x="135" y="104.23728813559319" >7</text><text  class="poloto_tick_labels poloto_text" dominant-baseline="middle" text-anchor="start" x="440.00000000000006" y="70" >¹2022-05-01 00:00:00 UTC in Months</text><line  class="poloto_axis_lines" stroke="black" x1="216.17647058823422" x2="216.17647058823422" y1="400" y2="405" /><line  class="poloto_tick_line" stroke="black" x1="216.17647058823422" x2="216.17647058823422" y1="400" y2="100" /><text  class="poloto_tick_labels poloto_text" dominant-baseline="start" text-anchor="middle" x="216.17647058823422" y="430" >2022 May¹</text><line  class="poloto_axis_lines" stroke="black" x1="305.8823529411784" x2="305.8823529411784" y1="400" y2="405" /><line  class="poloto_tick_line" stroke="black" x1="305.8823529411784" x2="305.8823529411784" y1="400" y2="100" /><text  class="poloto_tick_labels poloto_text" dominant-baseline="start" text-anchor="middle" x="305.8823529411784" y="430" >2022 Jul</text><line  class="poloto_axis_lines" stroke="black" x1="397.0588235294126" x2="397.0588235294126" y1="400" y2="405" /><line  class="poloto_tick_line" stroke="black" x1="397.0588235294126" x2="397.0588235294126" y1="400" y2="100" /><text  class="poloto_tick_labels poloto_text" dominant-baseline="start" text-anchor="middle" x="397.0588235294126" y="430" >2022 Sep</text><line  class="poloto_axis_lines" stroke="black" x1="486.76470588235316" x2="486.76470588235316" y1="400" y2="405" /><line  class="poloto_tick_line" stroke="black" x1="486.76470588235316" x2="486.76470588235316" y1="400" y2="100" /><text  class="poloto_tick_labels poloto_text" dominant-baseline="start" text-anchor="middle" x="486.76470588235316" y="430" >2022 Nov</text><line  class="poloto_axis_lines" stroke="black" x1="576.4705882352937" x2="576.4705882352937" y1="400" y2="405" /><line  class="poloto_tick_line" stroke="black" x1="576.4705882352937" x2="576.4705882352937" y1="400" y2="100" /><text  class="poloto_tick_labels poloto_text" dominant-baseline="start" text-anchor="middle" x="576.4705882352937" y="430" >2023 Jan</text><path  stroke="black" fill="none" class="poloto_axis_lines" d=" M 150 400 L 650 400" /><path  stroke="black" fill="none" class="poloto_axis_lines" d=" M 150 400 L 150 100" /></svg>