<svg class="poloto" width="800" height="500" viewBox="0 0 800 500" xmlns="http://www.w3.org/2000/svg"><style>.poloto{stroke-linecap:round;stroke-linejoin:round;font-family:Roboto,sans-serif;font-size:16px;}.poloto_background{fill:#262626;}.poloto_scatter{stroke-width:7}.poloto_tick_line{stroke:dimgray;stroke-width:0.5}.poloto_line{stroke-width:2}.poloto_text{fill: white;}.poloto_axis_lines{stroke: white;stroke-width:3;fill:none;stroke-dasharray:none}.poloto_title{font-size:24px;dominant-baseline:start;text-anchor:middle;}.poloto_xname{font-size:24px;dominant-baseline:start;text-anchor:middle;}.poloto_yname{font-size:24px;dominant-baseline:start;text-anchor:middle;}.poloto0stroke{stroke:blue;}.poloto1stroke{stroke:red;}.poloto2stroke{stroke:green;}.poloto3stroke{stroke:gold;}.poloto4stroke{stroke:aqua;}.poloto5stroke{stroke:lime;}.poloto6stroke{stroke:orange;}.poloto7stroke{stroke:chocolate;}.poloto0fill{fill:blue;}.poloto1fill{fill:red;}.poloto2fill{fill:green;}.poloto3fill{fill:gold;}.poloto4fill{fill:aqua;}.poloto5fill{fill:lime;}.poloto6fill{fill:orange;}.poloto7fill{fill:chocolate;}</style><circle  r="1e5" class="poloto_background" /><text  class="poloto_text poloto_legend_text" x="675" y="100" >Refinance 15</text><line  class="poloto_line poloto_legend_icon poloto0stroke poloto0legend" stroke="black" x1="680" x2="730" y1="81.25" y2="81.25" /><path  class="poloto_line poloto0stroke" fill="none" stroke="black" d=" M 150.00 390.09 L 152.66 400.00 L 160.64 385.96 L 163.30 373.93 L 165.96 385.96 L 165.96 385.96 L 171.28 345.86 L 179.26 343.74 L 181.91 357.78 L 184.57 327.48 L 187.23 329.60 L 189.89 323.25 L 197.87 325.36 L 200.53 316.90 L 200.53 316.90 L 205.85 317.68 L 208.51 287.37 L 216.49 300.52 L 219.15 304.75 L 221.81 304.75 L 224.47 303.64 L 227.13 297.18 L 237.77 240.59 L 240.43 265.76 L 243.09 246.27 L 245.74 238.69 L 245.74 238.69 L 256.38 267.99 L 261.70 273.34 L 264.36 261.42 L 272.34 247.27 L 275.00 275.45 L 277.66 261.42 L 277.66 261.42 L 282.98 259.19 L 290.96 263.54 L 293.62 277.57 L 293.62 277.57 L 296.28 265.65 L 298.94 279.80 L 301.60 259.19 L 309.57 301.52 L 312.23 300.52 L 314.89 277.57 L 314.89 277.57 L 317.55 287.37 L 320.21 291.72 L 328.19 291.72 L 330.85 306.87 L 333.51 306.87 L 336.17 306.87 L 338.83 306.87 L 349.47 291.72 L 352.13 287.37 L 354.79 289.49 L 357.45 289.49 L 357.45 289.49 L 368.09 275.45 L 370.74 275.45 L 373.40 263.54 L 384.04 244.04 L 386.70 203.82 L 389.36 208.28 L 392.02 208.28 L 394.68 236.46 L 402.66 208.28 L 405.32 208.28 L 407.98 234.24 L 410.64 238.69 L 421.28 238.69 L 423.94 236.46 L 426.60 243.04 L 429.26 249.50 L 431.91 263.54 L 442.55 273.34 L 445.21 261.42 L 447.87 251.62 L 450.53 247.27 L 458.51 249.50 L 463.83 249.50 L 466.49 247.27 L 477.13 245.15 L 477.13 245.15 L 477.13 245.15 L 477.13 245.15 L 477.13 245.15 L 477.13 245.15 L 482.45 245.15 L 482.45 245.15 L 482.45 245.15 L 482.45 245.15 L 482.45 245.15 L 482.45 245.15 L 495.74 261.42 L 501.06 265.65 L 503.72 302.64 L 506.38 306.87 L 514.36 306.87 L 517.02 304.75 L 519.68 275.45 L 522.34 267.88 L 525.00 249.50 L 532.98 263.54 L 532.98 263.54 L 535.64 251.62 L 540.96 263.54 L 540.96 263.54 L 554.26 263.54 L 556.91 219.20 L 559.57 245.15 L 570.21 200.71 L 575.53 200.71 L 575.53 200.71 L 580.85 216.97 L 591.49 208.28 L 591.49 208.28 L 591.49 208.28 L 591.49 208.28 L 591.49 208.28 L 591.49 208.28 L 591.49 208.28 L 591.49 208.28 L 591.49 208.28 L 599.47 208.28 L 615.43 179.99 L 626.06 183.33 L 626.06 183.33 L 634.04 183.33 L 644.68 183.33 L 647.34 183.33 L 647.34 183.33 L 647.34 183.33 L 647.34 183.33" /><text  class="poloto_text poloto_legend_text" x="675" y="150" >Refinance 20</text><line  class="poloto_line poloto_legend_icon poloto1stroke poloto1legend" stroke="black" x1="680" x2="730" y1="131.25" y2="131.25" /><path  class="poloto_line poloto1stroke" fill="none" stroke="black" d=" M 150.00 328.59 L 152.66 358.34 L 160.64 314.00 L 163.30 300.41 L 165.96 312.89 L 165.96 312.89 L 171.28 273.90 L 179.26 270.55 L 181.91 284.70 L 184.57 268.88 L 187.23 283.03 L 189.89 256.52 L 197.87 297.07 L 200.53 256.52 L 200.53 256.52 L 205.85 256.52 L 205.85 256.52 L 216.49 203.04 L 219.15 245.82 L 221.81 256.52 L 224.47 270.55 L 227.13 243.04 L 237.77 215.97 L 240.43 212.51 L 243.09 205.61 L 245.74 189.79 L 253.72 196.70 L 256.38 226.66 L 261.70 215.97 L 264.36 212.51 L 272.34 201.26 L 275.00 214.30 L 277.66 214.30 L 277.66 214.30 L 282.98 214.30 L 290.96 215.97 L 293.62 244.15 L 293.62 244.15 L 296.28 228.33 L 298.94 254.85 L 301.60 244.15 L 309.57 245.82 L 312.23 244.15 L 314.89 244.15 L 314.89 244.15 L 317.55 245.82 L 320.21 254.85 L 328.19 256.52 L 330.85 261.53 L 333.51 261.53 L 336.17 261.53 L 338.83 261.53 L 349.47 254.85 L 352.13 240.70 L 354.79 244.15 L 357.45 244.15 L 357.45 244.15 L 368.09 226.66 L 370.74 230.00 L 373.40 217.64 L 384.04 157.93 L 386.70 133.20 L 389.36 147.34 L 392.02 157.93 L 394.68 187.78 L 402.66 170.18 L 405.32 161.38 L 407.98 189.57 L 410.64 203.04 L 421.28 203.04 L 423.94 187.78 L 426.60 201.93 L 429.26 215.97 L 431.91 231.79 L 442.55 242.37 L 445.21 228.33 L 447.87 214.30 L 450.53 204.72 L 458.51 212.51 L 463.83 215.97 L 466.49 214.30 L 477.13 215.97 L 477.13 215.97 L 477.13 215.97 L 477.13 215.97 L 477.13 215.97 L 477.13 215.97 L 477.13 215.97 L 477.13 215.97 L 477.13 215.97 L 477.13 215.97 L 477.13 215.97 L 477.13 215.97 L 495.74 242.37 L 501.06 245.82 L 503.72 270.55 L 506.38 273.90 L 514.36 270.22 L 517.02 270.22 L 519.68 256.52 L 522.34 261.53 L 525.00 240.70 L 532.98 230.00 L 532.98 230.00 L 535.64 230.00 L 540.96 244.15 L 540.96 244.15 L 554.26 240.70 L 556.91 215.97 L 559.57 215.97 L 570.21 197.81 L 575.53 182.55 L 575.53 182.55 L 580.85 199.59 L 591.49 157.93 L 591.49 157.93 L 591.49 157.93 L 591.49 157.93 L 591.49 157.93 L 591.49 157.93 L 591.49 157.93 L 591.49 157.93 L 591.49 157.93 L 599.47 157.93 L 615.43 140.22 L 626.06 142.00 L 631.38 142.00 L 634.04 142.00 L 634.04 142.00 L 647.34 142.00 L 650.00 142.00 L 650.00 142.00 L 650.00 142.00" /><text  class="poloto_text poloto_legend_text" x="675" y="200" >Refinance 30</text><line  class="poloto_line poloto_legend_icon poloto2stroke poloto2legend" stroke="black" x1="680" x2="730" y1="181.25" y2="181.25" /><path  class="poloto_line poloto2stroke" fill="none" stroke="black" d=" M 150.00 325.47 L 152.66 336.06 L 160.64 319.57 L 163.30 306.65 L 165.96 309.10 L 165.96 309.10 L 171.28 282.03 L 179.26 279.69 L 181.91 293.72 L 184.57 278.46 L 187.23 292.50 L 189.89 265.54 L 197.87 278.46 L 200.53 251.39 L 203.19 251.39 L 205.85 250.17 L 208.51 215.97 L 216.49 221.98 L 219.15 237.36 L 221.81 251.39 L 224.47 238.58 L 227.13 223.21 L 237.77 211.51 L 240.43 192.46 L 243.09 189.90 L 245.74 187.23 L 253.72 192.46 L 256.38 214.30 L 261.70 211.51 L 264.36 208.95 L 272.34 195.02 L 275.00 210.17 L 277.66 195.02 L 277.66 195.02 L 282.98 195.02 L 290.96 197.59 L 293.62 221.98 L 293.62 221.98 L 296.28 210.17 L 298.94 211.51 L 301.60 212.74 L 309.57 223.21 L 312.23 211.51 L 314.89 211.51 L 314.89 211.51 L 317.55 224.43 L 320.21 225.77 L 328.19 227.00 L 330.85 238.58 L 333.51 238.58 L 336.17 241.03 L 338.83 241.03 L 349.47 236.02 L 352.13 221.98 L 354.79 224.43 L 357.45 223.21 L 357.45 223.21 L 368.09 210.17 L 370.74 210.17 L 373.40 196.25 L 384.04 139.88 L 386.70 100.00 L 389.36 124.40 L 392.02 139.88 L 394.68 153.92 L 402.66 141.11 L 405.32 139.88 L 407.98 165.50 L 410.64 168.07 L 421.28 168.07 L 423.94 152.69 L 426.60 165.50 L 429.26 179.54 L 431.91 210.17 L 442.55 211.51 L 445.21 196.25 L 447.87 169.40 L 450.53 165.50 L 458.51 191.13 L 463.83 168.07 L 466.49 166.73 L 477.13 192.46 L 477.13 192.46 L 477.13 192.46 L 477.13 192.46 L 477.13 192.46 L 477.13 192.46 L 482.45 192.46 L 482.45 192.46 L 482.45 192.46 L 482.45 192.46 L 482.45 192.46 L 482.45 192.46 L 495.74 208.95 L 501.06 211.51 L 503.72 236.02 L 506.38 252.62 L 514.36 251.39 L 517.02 251.39 L 519.68 223.21 L 522.34 227.00 L 525.00 208.95 L 532.98 223.21 L 532.98 223.21 L 535.64 212.74 L 540.96 224.43 L 540.96 224.43 L 554.26 221.98 L 556.91 197.59 L 559.57 196.25 L 570.21 164.17 L 575.53 152.69 L 575.53 152.69 L 580.85 166.73 L 591.49 151.36 L 591.49 151.36 L 591.49 151.36 L 591.49 151.36 L 591.49 151.36 L 591.49 151.36 L 591.49 151.36 L 591.49 151.36 L 599.47 151.36 L 599.47 150.02 L 615.43 133.20 L 626.06 104.90 L 626.06 104.90 L 634.04 104.90 L 634.04 104.90 L 647.34 104.90 L 650.00 104.90 L 650.00 104.90 L 650.00 104.90" /><text  class="poloto_labels poloto_text poloto_title" x="400" y="37.5" >lower.com purchase rates</text><text  class="poloto_labels poloto_text poloto_xname" x="400" y="481.25" >Date</text><text  class="poloto_labels poloto_text poloto_yname" transform="rotate(-90,37.5,250)" x="37.5" y="250" >Rate (%)</text><text  class="poloto_tick_labels poloto_text" dominant-baseline="middle" text-anchor="start" x="150" y="70" ></text><line  class="poloto_axis_lines" stroke="black" x1="150" x2="144" y1="387.18900854066095" y2="387.18900854066095" /><line  class="poloto_tick_line" stroke="black" x1="150" x2="650" y1="387.18900854066095" y2="387.18900854066095" /><text  class="poloto_tick_labels poloto_text" dominant-baseline="middle" text-anchor="end" x="135" y="387.18900854066095" >3.625</text><line  class="poloto_axis_lines" stroke="black" x1="150" x2="144" y1="373.26401782398807" y2="373.26401782398807" /><line  class="poloto_tick_line" stroke="black" x1="150" x2="650" y1="373.26401782398807" y2="373.26401782398807" /><text  class="poloto_tick_labels poloto_text" dominant-baseline="middle" text-anchor="end" x="135" y="373.26401782398807" >3.75</text><line  class="poloto_axis_lines" stroke="black" x1="150" x2="144" y1="359.33902710731525" y2="359.33902710731525" /><line  class="poloto_tick_line" stroke="black" x1="150" x2="650" y1="359.33902710731525" y2="359.33902710731525" /><text  class="poloto_tick_labels poloto_text" dominant-baseline="middle" text-anchor="end" x="135" y="359.33902710731525" >3.875</text><line  class="poloto_axis_lines" stroke="black" x1="150" x2="144" y1="345.41403639064237" y2="345.41403639064237" /><line  class="poloto_tick_line" stroke="black" x1="150" x2="650" y1="345.41403639064237" y2="345.41403639064237" /><text  class="poloto_tick_labels poloto_text" dominant-baseline="middle" text-anchor="end" x="135" y="345.41403639064237" >4</text><line  class="poloto_axis_lines" stroke="black" x1="150" x2="144" y1="331.4890456739695" y2="331.4890456739695" /><line  class="poloto_tick_line" stroke="black" x1="150" x2="650" y1="331.4890456739695" y2="331.4890456739695" /><text  class="poloto_tick_labels poloto_text" dominant-baseline="middle" text-anchor="end" x="135" y="331.4890456739695" >4.125</text><line  class="poloto_axis_lines" stroke="black" x1="150" x2="144" y1="317.56405495729666" y2="317.56405495729666" /><line  class="poloto_tick_line" stroke="black" x1="150" x2="650" y1="317.56405495729666" y2="317.56405495729666" /><text  class="poloto_tick_labels poloto_text" dominant-baseline="middle" text-anchor="end" x="135" y="317.56405495729666" >4.25</text><line  class="poloto_axis_lines" stroke="black" x1="150" x2="144" y1="303.6390642406238" y2="303.6390642406238" /><line  class="poloto_tick_line" stroke="black" x1="150" x2="650" y1="303.6390642406238" y2="303.6390642406238" /><text  class="poloto_tick_labels poloto_text" dominant-baseline="middle" text-anchor="end" x="135" y="303.6390642406238" >4.375</text><line  class="poloto_axis_lines" stroke="black" x1="150" x2="144" y1="289.71407352395096" y2="289.71407352395096" /><line  class="poloto_tick_line" stroke="black" x1="150" x2="650" y1="289.71407352395096" y2="289.71407352395096" /><text  class="poloto_tick_labels poloto_text" dominant-baseline="middle" text-anchor="end" x="135" y="289.71407352395096" >4.5</text><line  class="poloto_axis_lines" stroke="black" x1="150" x2="144" y1="275.7890828072781" y2="275.7890828072781" /><line  class="poloto_tick_line" stroke="black" x1="150" x2="650" y1="275.7890828072781" y2="275.7890828072781" /><text  class="poloto_tick_labels poloto_text" dominant-baseline="middle" text-anchor="end" x="135" y="275.7890828072781" >4.625</text><line  class="poloto_axis_lines" stroke="black" x1="150" x2="144" y1="261.86409209060525" y2="261.86409209060525" /><line  class="poloto_tick_line" stroke="black" x1="150" x2="650" y1="261.86409209060525" y2="261.86409209060525" /><text  class="poloto_tick_labels poloto_text" dominant-baseline="middle" text-anchor="end" x="135" y="261.86409209060525" >4.75</text><line  class="poloto_axis_lines" stroke="black" x1="150" x2="144" y1="247.93910137393243" y2="247.93910137393243" /><line  class="poloto_tick_line" stroke="black" x1="150" x2="650" y1="247.93910137393243" y2="247.93910137393243" /><text  class="poloto_tick_labels poloto_text" dominant-baseline="middle" text-anchor="end" x="135" y="247.93910137393243" >4.875</text><line  class="poloto_axis_lines" stroke="black" x1="150" x2="144" y1="234.0141106572595" y2="234.0141106572595" /><line  class="poloto_tick_line" stroke="black" x1="150" x2="650" y1="234.0141106572595" y2="234.0141106572595" /><text  class="poloto_tick_labels poloto_text" dominant-baseline="middle" text-anchor="end" x="135" y="234.0141106572595" >5</text><line  class="poloto_axis_lines" stroke="black" x1="150" x2="144" y1="220.08911994058667" y2="220.08911994058667" /><line  class="poloto_tick_line" stroke="black" x1="150" x2="650" y1="220.08911994058667" y2="220.08911994058667" /><text  class="poloto_tick_labels poloto_text" dominant-baseline="middle" text-anchor="end" x="135" y="220.08911994058667" >5.125</text><line  class="poloto_axis_lines" stroke="black" x1="150" x2="144" y1="206.16412922391385" y2="206.16412922391385" /><line  class="poloto_tick_line" stroke="black" x1="150" x2="650" y1="206.16412922391385" y2="206.16412922391385" /><text  class="poloto_tick_labels poloto_text" dominant-baseline="middle" text-anchor="end" x="135" y="206.16412922391385" >5.25</text><line  class="poloto_axis_lines" stroke="black" x1="150" x2="144" y1="192.23913850724102" y2="192.23913850724102" /><line  class="poloto_tick_line" stroke="black" x1="150" x2="650" y1="192.23913850724102" y2="192.23913850724102" /><text  class="poloto_tick_labels poloto_text" dominant-baseline="middle" text-anchor="end" x="135" y="192.23913850724102" >5.375</text><line  class="poloto_axis_lines" stroke="black" x1="150" x2="144" y1="178.3141477905681" y2="178.3141477905681" /><line  class="poloto_tick_line" stroke="black" x1="150" x2="650" y1="178.3141477905681" y2="178.3141477905681" /><text  class="poloto_tick_labels poloto_text" dominant-baseline="middle" text-anchor="end" x="135" y="178.3141477905681" >5.5</text><line  class="poloto_axis_lines" stroke="black" x1="150" x2="144" y1="164.38915707389526" y2="164.38915707389526" /><line  class="poloto_tick_line" stroke="black" x1="150" x2="650" y1="164.38915707389526" y2="164.38915707389526" /><text  class="poloto_tick_labels poloto_text" dominant-baseline="middle" text-anchor="end" x="135" y="164.38915707389526" >5.625</text><line  class="poloto_axis_lines" stroke="black" x1="150" x2="144" y1="150.46416635722244" y2="150.46416635722244" /><line  class="poloto_tick_line" stroke="black" x1="150" x2="650" y1="150.46416635722244" y2="150.46416635722244" /><text  class="poloto_tick_labels poloto_text" dominant-baseline="middle" text-anchor="end" x="135" y="150.46416635722244" >5.75</text><line  class="poloto_axis_lines" stroke="black" x1="150" x2="144" y1="136.53917564054962" y2="136.53917564054962" /><line  class="poloto_tick_line" stroke="black" x1="150" x2="650" y1="136.53917564054962" y2="136.53917564054962" /><text  class="poloto_tick_labels poloto_text" dominant-baseline="middle" text-anchor="end" x="135" y="136.53917564054962" >5.875</text><line  class="poloto_axis_lines" stroke="black" x1="150" x2="144" y1="122.61418492387668" y2="122.61418492387668" /><line  class="poloto_tick_line" stroke="black" x1="150" x2="650" y1="122.61418492387668" y2="122.61418492387668" /><text  class="poloto_tick_labels poloto_text" dominant-baseline="middle" text-anchor="end" x="135" y="122.61418492387668" >6</text><line  class="poloto_axis_lines" stroke="black" x1="150" x2="144" y1="108.68919420720385" y2="108.68919420720385" /><line  class="poloto_tick_line" stroke="black" x1="150" x2="650" y1="108.68919420720385" y2="108.68919420720385" /><text  class="poloto_tick_labels poloto_text" dominant-baseline="middle" text-anchor="end" x="135" y="108.68919420720385" >6.125</text><text  class="poloto_tick_labels poloto_text" dominant-baseline="middle" text-anchor="start" x="440.00000000000006" y="70" >¹2022-04-01 00:00:00 UTC in Months</text><line  class="poloto_axis_lines" stroke="black" x1="189.89361702127644" x2="189.89361702127644" y1="400" y2="405" /><line  class="poloto_tick_line" stroke="black" x1="189.89361702127644" x2="189.89361702127644" y1="400" y2="100" /><text  class="poloto_tick_labels poloto_text" dominant-baseline="start" text-anchor="middle" x="189.89361702127644" y="430" >2022 Apr¹</text><line  class="poloto_axis_lines" stroke="black" x1="269.6808510638293" x2="269.6808510638293" y1="400" y2="405" /><line  class="poloto_tick_line" stroke="black" x1="269.6808510638293" x2="269.6808510638293" y1="400" y2="100" /><text  class="poloto_tick_labels poloto_text" dominant-baseline="start" text-anchor="middle" x="269.6808510638293" y="430" >2022 May</text><line  class="poloto_axis_lines" stroke="black" x1="352.1276595744639" x2="352.1276595744639" y1="400" y2="405" /><line  class="poloto_tick_line" stroke="black" x1="352.1276595744639" x2="352.1276595744639" y1="400" y2="100" /><text  class="poloto_tick_labels poloto_text" dominant-baseline="start" text-anchor="middle" x="352.1276595744639" y="430" >2022 Jun</text><line  class="poloto_axis_lines" stroke="black" x1="431.9148936170168" x2="431.9148936170168" y1="400" y2="405" /><line  class="poloto_tick_line" stroke="black" x1="431.9148936170168" x2="431.9148936170168" y1="400" y2="100" /><text  class="poloto_tick_labels poloto_text" dominant-baseline="start" text-anchor="middle" x="431.9148936170168" y="430" >2022 Jul</text><line  class="poloto_axis_lines" stroke="black" x1="514.3617021276586" x2="514.3617021276586" y1="400" y2="405" /><line  class="poloto_tick_line" stroke="black" x1="514.3617021276586" x2="514.3617021276586" y1="400" y2="100" /><text  class="poloto_tick_labels poloto_text" dominant-baseline="start" text-anchor="middle" x="514.3617021276586" y="430" >2022 Aug</text><line  class="poloto_axis_lines" stroke="black" x1="596.8085106382932" x2="596.8085106382932" y1="400" y2="405" /><line  class="poloto_tick_line" stroke="black" x1="596.8085106382932" x2="596.8085106382932" y1="400" y2="100" /><text  class="poloto_tick_labels poloto_text" dominant-baseline="start" text-anchor="middle" x="596.8085106382932" y="430" >2022 Sep</text><path  stroke="black" fill="none" class="poloto_axis_lines" d=" M 150 400 L 650 400" /><path  stroke="black" fill="none" class="poloto_axis_lines" d=" M 150 400 L 150 100" /></svg>