<svg class="poloto" width="800" height="500" viewBox="0 0 800 500" xmlns="http://www.w3.org/2000/svg"><style>.poloto{stroke-linecap:round;stroke-linejoin:round;font-family:Roboto,sans-serif;font-size:16px;}.poloto_background{fill:#262626;}.poloto_scatter{stroke-width:7}.poloto_tick_line{stroke:dimgray;stroke-width:0.5}.poloto_line{stroke-width:2}.poloto_text{fill: white;}.poloto_axis_lines{stroke: white;stroke-width:3;fill:none;stroke-dasharray:none}.poloto_title{font-size:24px;dominant-baseline:start;text-anchor:middle;}.poloto_xname{font-size:24px;dominant-baseline:start;text-anchor:middle;}.poloto_yname{font-size:24px;dominant-baseline:start;text-anchor:middle;}.poloto0stroke{stroke:blue;}.poloto1stroke{stroke:red;}.poloto2stroke{stroke:green;}.poloto3stroke{stroke:gold;}.poloto4stroke{stroke:aqua;}.poloto5stroke{stroke:lime;}.poloto6stroke{stroke:orange;}.poloto7stroke{stroke:chocolate;}.poloto0fill{fill:blue;}.poloto1fill{fill:red;}.poloto2fill{fill:green;}.poloto3fill{fill:gold;}.poloto4fill{fill:aqua;}.poloto5fill{fill:lime;}.poloto6fill{fill:orange;}.poloto7fill{fill:chocolate;}</style><circle  r="1e5" class="poloto_background" /><text  class="poloto_text poloto_legend_text" x="675" y="100" >Refinance 15</text><line  class="poloto_line poloto_legend_icon poloto0stroke poloto0legend" stroke="black" x1="680" x2="730" y1="81.25" y2="81.25" /><path  class="poloto_line poloto0stroke" fill="none" stroke="black" d=" M 150.00 393.13 L 151.32 400.00 L 155.29 390.27 L 156.61 381.94 L 157.94 390.27 L 157.94 390.27 L 160.58 362.48 L 164.55 361.01 L 165.87 370.74 L 167.20 349.74 L 168.52 351.21 L 169.84 346.81 L 173.81 348.28 L 175.13 342.41 L 175.13 342.41 L 177.78 342.95 L 179.10 321.95 L 183.07 331.06 L 184.39 333.99 L 185.71 333.99 L 187.04 333.22 L 188.36 328.74 L 193.65 289.53 L 194.97 306.97 L 196.30 293.46 L 197.62 288.21 L 197.62 288.21 L 202.91 308.52 L 205.56 312.22 L 206.88 303.96 L 210.85 294.16 L 212.17 313.69 L 213.49 303.96 L 213.49 303.96 L 216.14 302.42 L 220.11 305.43 L 221.43 315.16 L 221.43 315.16 L 222.75 306.90 L 224.07 316.70 L 225.40 302.42 L 229.37 331.76 L 230.69 331.06 L 232.01 315.16 L 232.01 315.16 L 233.33 321.95 L 234.66 324.96 L 238.62 324.96 L 239.95 335.46 L 241.27 335.46 L 242.59 335.46 L 243.92 335.46 L 249.21 324.96 L 250.53 321.95 L 251.85 323.42 L 253.17 323.42 L 253.17 323.42 L 258.47 313.69 L 259.79 313.69 L 261.11 305.43 L 266.40 291.92 L 267.72 264.05 L 269.05 267.14 L 270.37 267.14 L 271.69 286.67 L 275.66 267.14 L 276.98 267.14 L 278.31 285.13 L 279.63 288.21 L 284.92 288.21 L 286.24 286.67 L 287.57 291.22 L 288.89 295.70 L 290.21 305.43 L 295.50 312.22 L 296.83 303.96 L 298.15 297.17 L 299.47 294.16 L 303.44 295.70 L 306.08 295.70 L 307.41 294.16 L 312.70 292.69 L 312.70 292.69 L 312.70 292.69 L 312.70 292.69 L 312.70 292.69 L 312.70 292.69 L 315.34 292.69 L 315.34 292.69 L 315.34 292.69 L 315.34 292.69 L 315.34 292.69 L 315.34 292.69 L 321.96 303.96 L 324.60 306.90 L 325.93 332.53 L 327.25 335.46 L 331.22 335.46 L 332.54 333.99 L 333.86 313.69 L 335.19 308.44 L 336.51 295.70 L 340.48 305.43 L 340.48 305.43 L 341.80 297.17 L 344.44 305.43 L 344.44 305.43 L 351.06 305.43 L 352.38 274.70 L 353.70 292.69 L 358.99 261.89 L 361.64 261.89 L 361.64 261.89 L 364.29 273.16 L 369.58 267.14 L 369.58 267.14 L 369.58 267.14 L 369.58 267.14 L 369.58 267.14 L 369.58 267.14 L 369.58 267.14 L 369.58 267.14 L 369.58 267.14 L 373.54 267.14 L 381.48 247.53 L 386.77 249.85 L 386.77 249.85 L 390.74 249.85 L 396.03 249.85 L 397.35 249.85 L 397.35 249.85 L 397.35 249.85 L 397.35 249.85 L 397.35 249.85 L 414.55 249.85 L 415.87 249.85 L 423.81 162.92 L 425.13 154.66 L 426.46 154.66 L 474.07 180.60 L 479.37 180.60 L 480.69 180.60 L 482.01 195.50 L 484.66 203.68 L 484.66 203.68 L 489.95 203.68 L 491.27 203.68 L 492.59 203.68 L 493.92 203.68 L 497.88 203.68 L 499.21 203.68 L 501.85 203.68 L 503.17 203.68 L 507.14 203.68 L 508.47 203.68 L 508.47 203.68 L 512.43 203.68 L 516.40 203.68 L 517.72 203.68 L 519.05 203.68 L 520.37 203.68 L 521.69 203.68 L 526.98 226.15 L 528.31 200.21 L 529.63 180.60 L 530.95 190.40 L 534.92 190.40 L 536.24 190.40 L 536.24 190.40 L 538.89 211.48 L 540.21 211.48 L 544.18 211.48 L 545.50 211.48 L 546.83 211.48 L 548.15 211.48 L 549.47 211.48 L 549.47 211.48 L 549.47 211.48 L 549.47 211.48 L 556.08 211.48 L 558.73 211.48 L 562.70 211.48 L 564.02 211.48 L 566.67 211.48 L 567.99 211.48 L 573.28 211.48 L 574.60 211.48 L 575.93 211.48 L 577.25 239.27 L 581.22 245.45 L 582.54 209.93 L 583.86 221.28 L 585.19 219.74 L 586.51 201.75 L 590.48 161.07 L 591.80 161.07 L 593.12 161.07 L 594.44 162.61 L 595.77 170.79 L 599.74 162.61 L 601.06 162.61 L 602.38 151.26 L 603.70 161.07 L 605.03 141.46 L 610.32 151.26 L 611.64 152.80 L 612.96 143.08 L 614.29 149.64 L 618.25 155.97 L 619.58 152.80 L 620.90 151.26 L 622.22 151.26 L 623.54 162.61 L 627.51 161.07 L 628.84 152.80 L 632.80 240.81 L 636.77 180.60 L 638.10 182.14 L 639.42 172.41 L 640.74 209.93 L 642.06 239.27 L 646.03 191.95 L 647.35 190.40 L 648.68 180.60 L 650.00 180.60" /><text  class="poloto_text poloto_legend_text" x="675" y="150" >Refinance 20</text><line  class="poloto_line poloto_legend_icon poloto1stroke poloto1legend" stroke="black" x1="680" x2="730" y1="131.25" y2="131.25" /><path  class="poloto_line poloto1stroke" fill="none" stroke="black" d=" M 150.00 350.51 L 151.32 371.13 L 155.29 340.40 L 156.61 330.98 L 157.94 339.63 L 157.94 339.63 L 160.58 312.61 L 164.55 310.29 L 165.87 320.10 L 167.20 309.14 L 168.52 318.94 L 169.84 300.57 L 173.81 328.67 L 175.13 300.57 L 175.13 300.57 L 177.78 300.57 L 177.78 300.57 L 183.07 263.51 L 184.39 293.15 L 185.71 300.57 L 187.04 310.29 L 188.36 291.22 L 193.65 272.47 L 194.97 270.07 L 196.30 265.29 L 197.62 254.32 L 201.59 259.11 L 202.91 279.88 L 205.56 272.47 L 206.88 270.07 L 210.85 262.27 L 212.17 271.31 L 213.49 271.31 L 213.49 271.31 L 216.14 271.31 L 220.11 272.47 L 221.43 292.00 L 221.43 292.00 L 222.75 281.03 L 224.07 299.41 L 225.40 292.00 L 229.37 293.15 L 230.69 292.00 L 232.01 292.00 L 232.01 292.00 L 233.33 293.15 L 234.66 299.41 L 238.62 300.57 L 239.95 304.04 L 241.27 304.04 L 242.59 304.04 L 243.92 304.04 L 249.21 299.41 L 250.53 289.60 L 251.85 292.00 L 253.17 292.00 L 253.17 292.00 L 258.47 279.88 L 259.79 282.19 L 261.11 273.62 L 266.40 232.24 L 267.72 215.11 L 269.05 224.91 L 270.37 232.24 L 271.69 252.93 L 275.66 240.74 L 276.98 234.64 L 278.31 254.17 L 279.63 263.51 L 284.92 263.51 L 286.24 252.93 L 287.57 262.74 L 288.89 272.47 L 290.21 283.43 L 295.50 290.76 L 296.83 281.03 L 298.15 271.31 L 299.47 264.67 L 303.44 270.07 L 306.08 272.47 L 307.41 271.31 L 312.70 272.47 L 312.70 272.47 L 312.70 272.47 L 312.70 272.47 L 312.70 272.47 L 312.70 272.47 L 312.70 272.47 L 312.70 272.47 L 312.70 272.47 L 312.70 272.47 L 312.70 272.47 L 312.70 272.47 L 321.96 290.76 L 324.60 293.15 L 325.93 310.29 L 327.25 312.61 L 331.22 310.06 L 332.54 310.06 L 333.86 300.57 L 335.19 304.04 L 336.51 289.60 L 340.48 282.19 L 340.48 282.19 L 341.80 282.19 L 344.44 292.00 L 344.44 292.00 L 351.06 289.60 L 352.38 272.47 L 353.70 272.47 L 358.99 259.88 L 361.64 249.31 L 361.64 249.31 L 364.29 261.12 L 369.58 232.24 L 369.58 232.24 L 369.58 232.24 L 369.58 232.24 L 369.58 232.24 L 369.58 232.24 L 369.58 232.24 L 369.58 232.24 L 369.58 232.24 L 373.54 232.24 L 381.48 219.97 L 386.77 221.20 L 389.42 221.20 L 390.74 221.20 L 390.74 221.20 L 397.35 221.20 L 398.68 221.20 L 398.68 221.20 L 398.68 221.20 L 398.68 221.20 L 414.55 221.20 L 415.87 221.20 L 423.81 143.85 L 425.13 129.41 L 425.13 129.41 L 476.72 177.12 L 479.37 177.12 L 480.69 177.12 L 483.33 194.26 L 484.66 195.50 L 484.66 195.50 L 489.95 195.50 L 491.27 195.50 L 492.59 195.50 L 493.92 195.50 L 497.88 195.50 L 499.21 195.50 L 501.85 195.50 L 503.17 195.50 L 507.14 195.50 L 508.47 195.50 L 508.47 195.50 L 512.43 195.50 L 516.40 195.50 L 517.72 195.50 L 519.05 195.50 L 520.37 195.50 L 521.69 195.50 L 526.98 178.05 L 528.31 168.55 L 529.63 167.32 L 530.95 169.87 L 534.92 169.87 L 536.24 169.87 L 536.24 169.87 L 538.89 188.16 L 540.21 188.16 L 544.18 188.16 L 545.50 188.16 L 546.83 188.16 L 548.15 188.16 L 549.47 188.16 L 549.47 188.16 L 554.76 188.16 L 554.76 188.16 L 556.08 188.16 L 558.73 188.16 L 562.70 188.16 L 564.02 188.16 L 566.67 188.16 L 567.99 188.16 L 573.28 188.16 L 574.60 188.16 L 575.93 188.16 L 577.25 209.01 L 581.22 207.77 L 582.54 178.36 L 583.86 179.59 L 583.86 179.59 L 586.51 178.36 L 590.48 158.75 L 591.80 158.75 L 593.12 150.26 L 594.44 140.45 L 595.77 149.02 L 599.74 140.45 L 601.06 130.65 L 602.38 140.45 L 603.70 150.26 L 605.03 139.22 L 610.32 140.45 L 611.64 129.41 L 612.96 100.00 L 614.29 129.41 L 618.25 150.26 L 619.58 169.17 L 620.90 140.45 L 622.22 139.22 L 623.54 167.32 L 627.51 160.06 L 628.84 150.26 L 632.80 210.24 L 636.77 168.55 L 638.10 158.75 L 639.42 160.06 L 640.74 188.16 L 642.06 189.40 L 646.03 169.87 L 647.35 160.06 L 648.68 160.06 L 650.00 160.06" /><text  class="poloto_text poloto_legend_text" x="675" y="200" >Refinance 30</text><line  class="poloto_line poloto_legend_icon poloto2stroke poloto2legend" stroke="black" x1="680" x2="730" y1="181.25" y2="181.25" /><path  class="poloto_line poloto2stroke" fill="none" stroke="black" d=" M 150.00 348.35 L 151.32 355.69 L 155.29 344.26 L 156.61 335.31 L 157.94 337.00 L 157.94 337.00 L 160.58 318.24 L 164.55 316.62 L 165.87 326.35 L 167.20 315.77 L 168.52 325.50 L 169.84 306.82 L 173.81 315.77 L 175.13 297.01 L 176.46 297.01 L 177.78 296.17 L 179.10 272.47 L 183.07 276.63 L 184.39 287.29 L 185.71 297.01 L 187.04 288.14 L 188.36 277.48 L 193.65 269.38 L 194.97 256.18 L 196.30 254.40 L 197.62 252.55 L 201.59 256.18 L 202.91 271.31 L 205.56 269.38 L 206.88 267.60 L 210.85 257.95 L 212.17 268.45 L 213.49 257.95 L 213.49 257.95 L 216.14 257.95 L 220.11 259.73 L 221.43 276.63 L 221.43 276.63 L 222.75 268.45 L 224.07 269.38 L 225.40 270.23 L 229.37 277.48 L 230.69 269.38 L 232.01 269.38 L 232.01 269.38 L 233.33 278.33 L 234.66 279.26 L 238.62 280.11 L 239.95 288.14 L 241.27 288.14 L 242.59 289.84 L 243.92 289.84 L 249.21 286.36 L 250.53 276.63 L 251.85 278.33 L 253.17 277.48 L 253.17 277.48 L 258.47 268.45 L 259.79 268.45 L 261.11 258.80 L 266.40 219.74 L 267.72 192.10 L 269.05 209.01 L 270.37 219.74 L 271.69 229.46 L 275.66 220.59 L 276.98 219.74 L 278.31 237.49 L 279.63 239.27 L 284.92 239.27 L 286.24 228.62 L 287.57 237.49 L 288.89 247.22 L 290.21 268.45 L 295.50 269.38 L 296.83 258.80 L 298.15 240.20 L 299.47 237.49 L 303.44 255.25 L 306.08 239.27 L 307.41 238.34 L 312.70 256.18 L 312.70 256.18 L 312.70 256.18 L 312.70 256.18 L 312.70 256.18 L 312.70 256.18 L 315.34 256.18 L 315.34 256.18 L 315.34 256.18 L 315.34 256.18 L 315.34 256.18 L 315.34 256.18 L 321.96 267.60 L 324.60 269.38 L 325.93 286.36 L 327.25 297.86 L 331.22 297.01 L 332.54 297.01 L 333.86 277.48 L 335.19 280.11 L 336.51 267.60 L 340.48 277.48 L 340.48 277.48 L 341.80 270.23 L 344.44 278.33 L 344.44 278.33 L 351.06 276.63 L 352.38 259.73 L 353.70 258.80 L 358.99 236.57 L 361.64 228.62 L 361.64 228.62 L 364.29 238.34 L 369.58 227.69 L 369.58 227.69 L 369.58 227.69 L 369.58 227.69 L 369.58 227.69 L 369.58 227.69 L 369.58 227.69 L 369.58 227.69 L 373.54 227.69 L 373.54 226.76 L 381.48 215.11 L 386.77 195.50 L 386.77 195.50 L 390.74 195.50 L 390.74 195.50 L 397.35 195.50 L 398.68 195.50 L 398.68 195.50 L 398.68 195.50 L 398.68 195.50 L 414.55 195.50 L 415.87 195.50 L 423.81 151.34 L 425.13 126.71 L 425.13 126.71 L 476.72 169.02 L 479.37 169.02 L 480.69 169.02 L 482.01 172.95 L 484.66 181.91 L 484.66 181.91 L 489.95 181.91 L 491.27 181.91 L 492.59 181.91 L 493.92 181.91 L 497.88 181.91 L 499.21 181.91 L 501.85 181.91 L 503.17 181.91 L 507.14 181.91 L 508.47 181.91 L 508.47 181.91 L 512.43 181.91 L 516.40 181.91 L 517.72 181.91 L 519.05 181.91 L 520.37 181.91 L 521.69 181.91 L 526.98 167.01 L 528.31 174.88 L 529.63 156.20 L 530.95 174.88 L 534.92 174.88 L 536.24 174.88 L 536.24 174.88 L 538.89 174.88 L 540.21 174.88 L 544.18 174.88 L 545.50 174.88 L 546.83 174.88 L 548.15 174.88 L 549.47 174.88 L 549.47 174.88 L 554.76 174.88 L 554.76 174.88 L 556.08 174.88 L 558.73 174.88 L 562.70 174.88 L 564.02 174.88 L 566.67 174.88 L 567.99 174.88 L 573.28 174.88 L 574.60 174.88 L 575.93 174.88 L 577.25 224.91 L 581.22 215.11 L 582.54 175.89 L 583.86 205.30 L 585.19 175.89 L 586.51 166.01 L 590.48 156.20 L 591.80 156.20 L 593.12 147.32 L 594.44 137.52 L 595.77 146.40 L 599.74 146.40 L 601.06 135.59 L 602.38 127.71 L 603.70 137.52 L 605.03 128.72 L 610.32 127.71 L 611.64 116.91 L 612.96 116.91 L 614.29 126.71 L 618.25 127.71 L 619.58 117.91 L 620.90 125.78 L 622.22 117.91 L 623.54 147.32 L 627.51 147.32 L 628.84 127.71 L 632.80 206.23 L 636.77 147.32 L 638.10 146.40 L 639.42 146.40 L 640.74 176.81 L 642.06 176.81 L 646.03 157.21 L 647.35 157.21 L 648.68 156.20 L 650.00 156.20" /><text  class="poloto_labels poloto_text poloto_title" x="400" y="37.5" >lower.com purchase rates</text><text  class="poloto_labels poloto_text poloto_xname" x="400" y="481.25" >Date</text><text  class="poloto_labels poloto_text poloto_yname" transform="rotate(-90,37.5,250)" x="37.5" y="250" >Rate (%)</text><text  class="poloto_tick_labels poloto_text" dominant-baseline="middle" text-anchor="start" x="150" y="70" ></text><line  class="poloto_axis_lines" stroke="black" x1="150" x2="144" y1="391.12197632527017" y2="391.12197632527017" /><line  class="poloto_tick_line" stroke="black" x1="150" x2="650" y1="391.12197632527017" y2="391.12197632527017" /><text  class="poloto_tick_labels poloto_text" dominant-baseline="middle" text-anchor="end" x="135" y="391.12197632527017" >3.625</text><line  class="poloto_axis_lines" stroke="black" x1="150" x2="144" y1="381.4719505918682" y2="381.4719505918682" /><line  class="poloto_tick_line" stroke="black" x1="150" x2="650" y1="381.4719505918682" y2="381.4719505918682" /><text  class="poloto_tick_labels poloto_text" dominant-baseline="middle" text-anchor="end" x="135" y="381.4719505918682" >3.75</text><line  class="poloto_axis_lines" stroke="black" x1="150" x2="144" y1="371.8219248584663" y2="371.8219248584663" /><line  class="poloto_tick_line" stroke="black" x1="150" x2="650" y1="371.8219248584663" y2="371.8219248584663" /><text  class="poloto_tick_labels poloto_text" dominant-baseline="middle" text-anchor="end" x="135" y="371.8219248584663" >3.875</text><line  class="poloto_axis_lines" stroke="black" x1="150" x2="144" y1="362.17189912506433" y2="362.17189912506433" /><line  class="poloto_tick_line" stroke="black" x1="150" x2="650" y1="362.17189912506433" y2="362.17189912506433" /><text  class="poloto_tick_labels poloto_text" dominant-baseline="middle" text-anchor="end" x="135" y="362.17189912506433" >4</text><line  class="poloto_axis_lines" stroke="black" x1="150" x2="144" y1="352.5218733916624" y2="352.5218733916624" /><line  class="poloto_tick_line" stroke="black" x1="150" x2="650" y1="352.5218733916624" y2="352.5218733916624" /><text  class="poloto_tick_labels poloto_text" dominant-baseline="middle" text-anchor="end" x="135" y="352.5218733916624" >4.125</text><line  class="poloto_axis_lines" stroke="black" x1="150" x2="144" y1="342.87184765826044" y2="342.87184765826044" /><line  class="poloto_tick_line" stroke="black" x1="150" x2="650" y1="342.87184765826044" y2="342.87184765826044" /><text  class="poloto_tick_labels poloto_text" dominant-baseline="middle" text-anchor="end" x="135" y="342.87184765826044" >4.25</text><line  class="poloto_axis_lines" stroke="black" x1="150" x2="144" y1="333.2218219248585" y2="333.2218219248585" /><line  class="poloto_tick_line" stroke="black" x1="150" x2="650" y1="333.2218219248585" y2="333.2218219248585" /><text  class="poloto_tick_labels poloto_text" dominant-baseline="middle" text-anchor="end" x="135" y="333.2218219248585" >4.375</text><line  class="poloto_axis_lines" stroke="black" x1="150" x2="144" y1="323.5717961914565" y2="323.5717961914565" /><line  class="poloto_tick_line" stroke="black" x1="150" x2="650" y1="323.5717961914565" y2="323.5717961914565" /><text  class="poloto_tick_labels poloto_text" dominant-baseline="middle" text-anchor="end" x="135" y="323.5717961914565" >4.5</text><line  class="poloto_axis_lines" stroke="black" x1="150" x2="144" y1="313.92177045805454" y2="313.92177045805454" /><line  class="poloto_tick_line" stroke="black" x1="150" x2="650" y1="313.92177045805454" y2="313.92177045805454" /><text  class="poloto_tick_labels poloto_text" dominant-baseline="middle" text-anchor="end" x="135" y="313.92177045805454" >4.625</text><line  class="poloto_axis_lines" stroke="black" x1="150" x2="144" y1="304.2717447246526" y2="304.2717447246526" /><line  class="poloto_tick_line" stroke="black" x1="150" x2="650" y1="304.2717447246526" y2="304.2717447246526" /><text  class="poloto_tick_labels poloto_text" dominant-baseline="middle" text-anchor="end" x="135" y="304.2717447246526" >4.75</text><line  class="poloto_axis_lines" stroke="black" x1="150" x2="144" y1="294.62171899125065" y2="294.62171899125065" /><line  class="poloto_tick_line" stroke="black" x1="150" x2="650" y1="294.62171899125065" y2="294.62171899125065" /><text  class="poloto_tick_labels poloto_text" dominant-baseline="middle" text-anchor="end" x="135" y="294.62171899125065" >4.875</text><line  class="poloto_axis_lines" stroke="black" x1="150" x2="144" y1="284.9716932578487" y2="284.9716932578487" /><line  class="poloto_tick_line" stroke="black" x1="150" x2="650" y1="284.9716932578487" y2="284.9716932578487" /><text  class="poloto_tick_labels poloto_text" dominant-baseline="middle" text-anchor="end" x="135" y="284.9716932578487" >5</text><line  class="poloto_axis_lines" stroke="black" x1="150" x2="144" y1="275.32166752444675" y2="275.32166752444675" /><line  class="poloto_tick_line" stroke="black" x1="150" x2="650" y1="275.32166752444675" y2="275.32166752444675" /><text  class="poloto_tick_labels poloto_text" dominant-baseline="middle" text-anchor="end" x="135" y="275.32166752444675" >5.125</text><line  class="poloto_axis_lines" stroke="black" x1="150" x2="144" y1="265.67164179104475" y2="265.67164179104475" /><line  class="poloto_tick_line" stroke="black" x1="150" x2="650" y1="265.67164179104475" y2="265.67164179104475" /><text  class="poloto_tick_labels poloto_text" dominant-baseline="middle" text-anchor="end" x="135" y="265.67164179104475" >5.25</text><line  class="poloto_axis_lines" stroke="black" x1="150" x2="144" y1="256.0216160576428" y2="256.0216160576428" /><line  class="poloto_tick_line" stroke="black" x1="150" x2="650" y1="256.0216160576428" y2="256.0216160576428" /><text  class="poloto_tick_labels poloto_text" dominant-baseline="middle" text-anchor="end" x="135" y="256.0216160576428" >5.375</text><line  class="poloto_axis_lines" stroke="black" x1="150" x2="144" y1="246.37159032424086" y2="246.37159032424086" /><line  class="poloto_tick_line" stroke="black" x1="150" x2="650" y1="246.37159032424086" y2="246.37159032424086" /><text  class="poloto_tick_labels poloto_text" dominant-baseline="middle" text-anchor="end" x="135" y="246.37159032424086" >5.5</text><line  class="poloto_axis_lines" stroke="black" x1="150" x2="144" y1="236.7215645908389" y2="236.7215645908389" /><line  class="poloto_tick_line" stroke="black" x1="150" x2="650" y1="236.7215645908389" y2="236.7215645908389" /><text  class="poloto_tick_labels poloto_text" dominant-baseline="middle" text-anchor="end" x="135" y="236.7215645908389" >5.625</text><line  class="poloto_axis_lines" stroke="black" x1="150" x2="144" y1="227.07153885743696" y2="227.07153885743696" /><line  class="poloto_tick_line" stroke="black" x1="150" x2="650" y1="227.07153885743696" y2="227.07153885743696" /><text  class="poloto_tick_labels poloto_text" dominant-baseline="middle" text-anchor="end" x="135" y="227.07153885743696" >5.75</text><line  class="poloto_axis_lines" stroke="black" x1="150" x2="144" y1="217.42151312403502" y2="217.42151312403502" /><line  class="poloto_tick_line" stroke="black" x1="150" x2="650" y1="217.42151312403502" y2="217.42151312403502" /><text  class="poloto_tick_labels poloto_text" dominant-baseline="middle" text-anchor="end" x="135" y="217.42151312403502" >5.875</text><line  class="poloto_axis_lines" stroke="black" x1="150" x2="144" y1="207.771487390633" y2="207.771487390633" /><line  class="poloto_tick_line" stroke="black" x1="150" x2="650" y1="207.771487390633" y2="207.771487390633" /><text  class="poloto_tick_labels poloto_text" dominant-baseline="middle" text-anchor="end" x="135" y="207.771487390633" >6</text><line  class="poloto_axis_lines" stroke="black" x1="150" x2="144" y1="198.12146165723107" y2="198.12146165723107" /><line  class="poloto_tick_line" stroke="black" x1="150" x2="650" y1="198.12146165723107" y2="198.12146165723107" /><text  class="poloto_tick_labels poloto_text" dominant-baseline="middle" text-anchor="end" x="135" y="198.12146165723107" >6.125</text><line  class="poloto_axis_lines" stroke="black" x1="150" x2="144" y1="188.47143592382912" y2="188.47143592382912" /><line  class="poloto_tick_line" stroke="black" x1="150" x2="650" y1="188.47143592382912" y2="188.47143592382912" /><text  class="poloto_tick_labels poloto_text" dominant-baseline="middle" text-anchor="end" x="135" y="188.47143592382912" >6.25</text><line  class="poloto_axis_lines" stroke="black" x1="150" x2="144" y1="178.82141019042717" y2="178.82141019042717" /><line  class="poloto_tick_line" stroke="black" x1="150" x2="650" y1="178.82141019042717" y2="178.82141019042717" /><text  class="poloto_tick_labels poloto_text" dominant-baseline="middle" text-anchor="end" x="135" y="178.82141019042717" >6.375</text><line  class="poloto_axis_lines" stroke="black" x1="150" x2="144" y1="169.17138445702523" y2="169.17138445702523" /><line  class="poloto_tick_line" stroke="black" x1="150" x2="650" y1="169.17138445702523" y2="169.17138445702523" /><text  class="poloto_tick_labels poloto_text" dominant-baseline="middle" text-anchor="end" x="135" y="169.17138445702523" >6.5</text><line  class="poloto_axis_lines" stroke="black" x1="150" x2="144" y1="159.52135872362328" y2="159.52135872362328" /><line  class="poloto_tick_line" stroke="black" x1="150" x2="650" y1="159.52135872362328" y2="159.52135872362328" /><text  class="poloto_tick_labels poloto_text" dominant-baseline="middle" text-anchor="end" x="135" y="159.52135872362328" >6.625</text><line  class="poloto_axis_lines" stroke="black" x1="150" x2="144" y1="149.87133299022133" y2="149.87133299022133" /><line  class="poloto_tick_line" stroke="black" x1="150" x2="650" y1="149.87133299022133" y2="149.87133299022133" /><text  class="poloto_tick_labels poloto_text" dominant-baseline="middle" text-anchor="end" x="135" y="149.87133299022133" >6.75</text><line  class="poloto_axis_lines" stroke="black" x1="150" x2="144" y1="140.22130725681933" y2="140.22130725681933" /><line  class="poloto_tick_line" stroke="black" x1="150" x2="650" y1="140.22130725681933" y2="140.22130725681933" /><text  class="poloto_tick_labels poloto_text" dominant-baseline="middle" text-anchor="end" x="135" y="140.22130725681933" >6.875</text><line  class="poloto_axis_lines" stroke="black" x1="150" x2="144" y1="130.57128152341744" y2="130.57128152341744" /><line  class="poloto_tick_line" stroke="black" x1="150" x2="650" y1="130.57128152341744" y2="130.57128152341744" /><text  class="poloto_tick_labels poloto_text" dominant-baseline="middle" text-anchor="end" x="135" y="130.57128152341744" >7</text><line  class="poloto_axis_lines" stroke="black" x1="150" x2="144" y1="120.92125579001544" y2="120.92125579001544" /><line  class="poloto_tick_line" stroke="black" x1="150" x2="650" y1="120.92125579001544" y2="120.92125579001544" /><text  class="poloto_tick_labels poloto_text" dominant-baseline="middle" text-anchor="end" x="135" y="120.92125579001544" >7.125</text><line  class="poloto_axis_lines" stroke="black" x1="150" x2="144" y1="111.27123005661343" y2="111.27123005661343" /><line  class="poloto_tick_line" stroke="black" x1="150" x2="650" y1="111.27123005661343" y2="111.27123005661343" /><text  class="poloto_tick_labels poloto_text" dominant-baseline="middle" text-anchor="end" x="135" y="111.27123005661343" >7.25</text><line  class="poloto_axis_lines" stroke="black" x1="150" x2="144" y1="101.62120432321154" y2="101.62120432321154" /><line  class="poloto_tick_line" stroke="black" x1="150" x2="650" y1="101.62120432321154" y2="101.62120432321154" /><text  class="poloto_tick_labels poloto_text" dominant-baseline="middle" text-anchor="end" x="135" y="101.62120432321154" >7.375</text><text  class="poloto_tick_labels poloto_text" dominant-baseline="middle" text-anchor="start" x="440.00000000000006" y="70" >¹2022-05-01 00:00:00 UTC in Months</text><line  class="poloto_axis_lines" stroke="black" x1="209.52380952380918" x2="209.52380952380918" y1="400" y2="405" /><line  class="poloto_tick_line" stroke="black" x1="209.52380952380918" x2="209.52380952380918" y1="400" y2="100.00000000000006" /><text  class="poloto_tick_labels poloto_text" dominant-baseline="start" text-anchor="middle" x="209.52380952380918" y="430" >2022 May¹</text><line  class="poloto_axis_lines" stroke="black" x1="290.21164021164077" x2="290.21164021164077" y1="400" y2="405" /><line  class="poloto_tick_line" stroke="black" x1="290.21164021164077" x2="290.21164021164077" y1="400" y2="100.00000000000006" /><text  class="poloto_tick_labels poloto_text" dominant-baseline="start" text-anchor="middle" x="290.21164021164077" y="430" >2022 Jul</text><line  class="poloto_axis_lines" stroke="black" x1="372.2222222222226" x2="372.2222222222226" y1="400" y2="405" /><line  class="poloto_tick_line" stroke="black" x1="372.2222222222226" x2="372.2222222222226" y1="400" y2="100.00000000000006" /><text  class="poloto_tick_labels poloto_text" dominant-baseline="start" text-anchor="middle" x="372.2222222222226" y="430" >2022 Sep</text><line  class="poloto_axis_lines" stroke="black" x1="452.9100529100542" x2="452.9100529100542" y1="400" y2="405" /><line  class="poloto_tick_line" stroke="black" x1="452.9100529100542" x2="452.9100529100542" y1="400" y2="100.00000000000006" /><text  class="poloto_tick_labels poloto_text" dominant-baseline="start" text-anchor="middle" x="452.9100529100542" y="430" >2022 Nov</text><line  class="poloto_axis_lines" stroke="black" x1="533.5978835978858" x2="533.5978835978858" y1="400" y2="405" /><line  class="poloto_tick_line" stroke="black" x1="533.5978835978858" x2="533.5978835978858" y1="400" y2="100.00000000000006" /><text  class="poloto_tick_labels poloto_text" dominant-baseline="start" text-anchor="middle" x="533.5978835978858" y="430" >2023 Jan</text><line  class="poloto_axis_lines" stroke="black" x1="611.6402116402132" x2="611.6402116402132" y1="400" y2="405" /><line  class="poloto_tick_line" stroke="black" x1="611.6402116402132" x2="611.6402116402132" y1="400" y2="100.00000000000006" /><text  class="poloto_tick_labels poloto_text" dominant-baseline="start" text-anchor="middle" x="611.6402116402132" y="430" >2023 Mar</text><path  stroke="black" fill="none" class="poloto_axis_lines" d=" M 150 400 L 650 400" /><path  stroke="black" fill="none" class="poloto_axis_lines" d=" M 150 400 L 150 100.00000000000006" /></svg>