<svg class="poloto" width="800" height="500" viewBox="0 0 800 500" xmlns="http://www.w3.org/2000/svg"><style>.poloto{stroke-linecap:round;stroke-linejoin:round;font-family:Roboto,sans-serif;font-size:16px;}.poloto_background{fill:#262626;}.poloto_scatter{stroke-width:7}.poloto_tick_line{stroke:dimgray;stroke-width:0.5}.poloto_line{stroke-width:2}.poloto_text{fill: white;}.poloto_axis_lines{stroke: white;stroke-width:3;fill:none;stroke-dasharray:none}.poloto_title{font-size:24px;dominant-baseline:start;text-anchor:middle;}.poloto_xname{font-size:24px;dominant-baseline:start;text-anchor:middle;}.poloto_yname{font-size:24px;dominant-baseline:start;text-anchor:middle;}.poloto0stroke{stroke:blue;}.poloto1stroke{stroke:red;}.poloto2stroke{stroke:green;}.poloto3stroke{stroke:gold;}.poloto4stroke{stroke:aqua;}.poloto5stroke{stroke:lime;}.poloto6stroke{stroke:orange;}.poloto7stroke{stroke:chocolate;}.poloto0fill{fill:blue;}.poloto1fill{fill:red;}.poloto2fill{fill:green;}.poloto3fill{fill:gold;}.poloto4fill{fill:aqua;}.poloto5fill{fill:lime;}.poloto6fill{fill:orange;}.poloto7fill{fill:chocolate;}</style><circle  r="1e5" class="poloto_background" /><text  class="poloto_text poloto_legend_text" x="675" y="100" >Refinance 15</text><line  class="poloto_line poloto_legend_icon poloto0stroke poloto0legend" stroke="black" x1="680" x2="730" y1="81.25" y2="81.25" /><path  class="poloto_line poloto0stroke" fill="none" stroke="black" d=" M 150.00 393.13 L 151.36 400.00 L 155.43 390.27 L 156.79 381.94 L 158.15 390.27 L 158.15 390.27 L 160.87 362.48 L 164.95 361.01 L 166.30 370.74 L 167.66 349.74 L 169.02 351.21 L 170.38 346.81 L 174.46 348.28 L 175.82 342.41 L 175.82 342.41 L 178.53 342.95 L 179.89 321.95 L 183.97 331.06 L 185.33 333.99 L 186.68 333.99 L 188.04 333.22 L 189.40 328.74 L 194.84 289.53 L 196.20 306.97 L 197.55 293.46 L 198.91 288.21 L 198.91 288.21 L 204.35 308.52 L 207.07 312.22 L 208.42 303.96 L 212.50 294.16 L 213.86 313.69 L 215.22 303.96 L 215.22 303.96 L 217.93 302.42 L 222.01 305.43 L 223.37 315.16 L 223.37 315.16 L 224.73 306.90 L 226.09 316.70 L 227.45 302.42 L 231.52 331.76 L 232.88 331.06 L 234.24 315.16 L 234.24 315.16 L 235.60 321.95 L 236.96 324.96 L 241.03 324.96 L 242.39 335.46 L 243.75 335.46 L 245.11 335.46 L 246.47 335.46 L 251.90 324.96 L 253.26 321.95 L 254.62 323.42 L 255.98 323.42 L 255.98 323.42 L 261.41 313.69 L 262.77 313.69 L 264.13 305.43 L 269.57 291.92 L 270.92 264.05 L 272.28 267.14 L 273.64 267.14 L 275.00 286.67 L 279.08 267.14 L 280.43 267.14 L 281.79 285.13 L 283.15 288.21 L 288.59 288.21 L 289.95 286.67 L 291.30 291.22 L 292.66 295.70 L 294.02 305.43 L 299.46 312.22 L 300.82 303.96 L 302.17 297.17 L 303.53 294.16 L 307.61 295.70 L 310.33 295.70 L 311.68 294.16 L 317.12 292.69 L 317.12 292.69 L 317.12 292.69 L 317.12 292.69 L 317.12 292.69 L 317.12 292.69 L 319.84 292.69 L 319.84 292.69 L 319.84 292.69 L 319.84 292.69 L 319.84 292.69 L 319.84 292.69 L 326.63 303.96 L 329.35 306.90 L 330.71 332.53 L 332.07 335.46 L 336.14 335.46 L 337.50 333.99 L 338.86 313.69 L 340.22 308.44 L 341.58 295.70 L 345.65 305.43 L 345.65 305.43 L 347.01 297.17 L 349.73 305.43 L 349.73 305.43 L 356.52 305.43 L 357.88 274.70 L 359.24 292.69 L 364.67 261.89 L 367.39 261.89 L 367.39 261.89 L 370.11 273.16 L 375.54 267.14 L 375.54 267.14 L 375.54 267.14 L 375.54 267.14 L 375.54 267.14 L 375.54 267.14 L 375.54 267.14 L 375.54 267.14 L 375.54 267.14 L 379.62 267.14 L 387.77 247.53 L 393.21 249.85 L 393.21 249.85 L 397.28 249.85 L 402.72 249.85 L 404.08 249.85 L 404.08 249.85 L 404.08 249.85 L 404.08 249.85 L 404.08 249.85 L 421.74 249.85 L 423.10 249.85 L 431.25 162.92 L 432.61 154.66 L 433.97 154.66 L 482.88 180.60 L 488.32 180.60 L 489.67 180.60 L 491.03 195.50 L 493.75 203.68 L 493.75 203.68 L 499.18 203.68 L 500.54 203.68 L 501.90 203.68 L 503.26 203.68 L 507.34 203.68 L 508.70 203.68 L 511.41 203.68 L 512.77 203.68 L 516.85 203.68 L 518.21 203.68 L 518.21 203.68 L 522.28 203.68 L 526.36 203.68 L 527.72 203.68 L 529.08 203.68 L 530.43 203.68 L 531.79 203.68 L 537.23 226.15 L 538.59 200.21 L 539.95 180.60 L 541.30 190.40 L 545.38 190.40 L 546.74 190.40 L 546.74 190.40 L 549.46 211.48 L 550.82 211.48 L 554.89 211.48 L 556.25 211.48 L 557.61 211.48 L 558.97 211.48 L 560.33 211.48 L 560.33 211.48 L 560.33 211.48 L 560.33 211.48 L 567.12 211.48 L 569.84 211.48 L 573.91 211.48 L 575.27 211.48 L 577.99 211.48 L 579.35 211.48 L 584.78 211.48 L 586.14 211.48 L 587.50 211.48 L 588.86 239.27 L 592.93 245.45 L 594.29 209.93 L 595.65 221.28 L 597.01 219.74 L 598.37 201.75 L 602.45 161.07 L 603.80 161.07 L 605.16 161.07 L 606.52 162.61 L 607.88 170.79 L 611.96 162.61 L 613.32 162.61 L 614.67 151.26 L 616.03 161.07 L 617.39 141.46 L 622.83 151.26 L 624.18 152.80 L 625.54 143.08 L 626.90 149.64 L 630.98 155.97 L 632.34 152.80 L 633.70 151.26 L 635.05 151.26 L 636.41 162.61 L 640.49 161.07 L 641.85 152.80 L 645.92 240.81 L 650.00 180.60" /><text  class="poloto_text poloto_legend_text" x="675" y="150" >Refinance 20</text><line  class="poloto_line poloto_legend_icon poloto1stroke poloto1legend" stroke="black" x1="680" x2="730" y1="131.25" y2="131.25" /><path  class="poloto_line poloto1stroke" fill="none" stroke="black" d=" M 150.00 350.51 L 151.36 371.13 L 155.43 340.40 L 156.79 330.98 L 158.15 339.63 L 158.15 339.63 L 160.87 312.61 L 164.95 310.29 L 166.30 320.10 L 167.66 309.14 L 169.02 318.94 L 170.38 300.57 L 174.46 328.67 L 175.82 300.57 L 175.82 300.57 L 178.53 300.57 L 178.53 300.57 L 183.97 263.51 L 185.33 293.15 L 186.68 300.57 L 188.04 310.29 L 189.40 291.22 L 194.84 272.47 L 196.20 270.07 L 197.55 265.29 L 198.91 254.32 L 202.99 259.11 L 204.35 279.88 L 207.07 272.47 L 208.42 270.07 L 212.50 262.27 L 213.86 271.31 L 215.22 271.31 L 215.22 271.31 L 217.93 271.31 L 222.01 272.47 L 223.37 292.00 L 223.37 292.00 L 224.73 281.03 L 226.09 299.41 L 227.45 292.00 L 231.52 293.15 L 232.88 292.00 L 234.24 292.00 L 234.24 292.00 L 235.60 293.15 L 236.96 299.41 L 241.03 300.57 L 242.39 304.04 L 243.75 304.04 L 245.11 304.04 L 246.47 304.04 L 251.90 299.41 L 253.26 289.60 L 254.62 292.00 L 255.98 292.00 L 255.98 292.00 L 261.41 279.88 L 262.77 282.19 L 264.13 273.62 L 269.57 232.24 L 270.92 215.11 L 272.28 224.91 L 273.64 232.24 L 275.00 252.93 L 279.08 240.74 L 280.43 234.64 L 281.79 254.17 L 283.15 263.51 L 288.59 263.51 L 289.95 252.93 L 291.30 262.74 L 292.66 272.47 L 294.02 283.43 L 299.46 290.76 L 300.82 281.03 L 302.17 271.31 L 303.53 264.67 L 307.61 270.07 L 310.33 272.47 L 311.68 271.31 L 317.12 272.47 L 317.12 272.47 L 317.12 272.47 L 317.12 272.47 L 317.12 272.47 L 317.12 272.47 L 317.12 272.47 L 317.12 272.47 L 317.12 272.47 L 317.12 272.47 L 317.12 272.47 L 317.12 272.47 L 326.63 290.76 L 329.35 293.15 L 330.71 310.29 L 332.07 312.61 L 336.14 310.06 L 337.50 310.06 L 338.86 300.57 L 340.22 304.04 L 341.58 289.60 L 345.65 282.19 L 345.65 282.19 L 347.01 282.19 L 349.73 292.00 L 349.73 292.00 L 356.52 289.60 L 357.88 272.47 L 359.24 272.47 L 364.67 259.88 L 367.39 249.31 L 367.39 249.31 L 370.11 261.12 L 375.54 232.24 L 375.54 232.24 L 375.54 232.24 L 375.54 232.24 L 375.54 232.24 L 375.54 232.24 L 375.54 232.24 L 375.54 232.24 L 375.54 232.24 L 379.62 232.24 L 387.77 219.97 L 393.21 221.20 L 395.92 221.20 L 397.28 221.20 L 397.28 221.20 L 404.08 221.20 L 405.43 221.20 L 405.43 221.20 L 405.43 221.20 L 405.43 221.20 L 421.74 221.20 L 423.10 221.20 L 431.25 143.85 L 432.61 129.41 L 432.61 129.41 L 485.60 177.12 L 488.32 177.12 L 489.67 177.12 L 492.39 194.26 L 493.75 195.50 L 493.75 195.50 L 499.18 195.50 L 500.54 195.50 L 501.90 195.50 L 503.26 195.50 L 507.34 195.50 L 508.70 195.50 L 511.41 195.50 L 512.77 195.50 L 516.85 195.50 L 518.21 195.50 L 518.21 195.50 L 522.28 195.50 L 526.36 195.50 L 527.72 195.50 L 529.08 195.50 L 530.43 195.50 L 531.79 195.50 L 537.23 178.05 L 538.59 168.55 L 539.95 167.32 L 541.30 169.87 L 545.38 169.87 L 546.74 169.87 L 546.74 169.87 L 549.46 188.16 L 550.82 188.16 L 554.89 188.16 L 556.25 188.16 L 557.61 188.16 L 558.97 188.16 L 560.33 188.16 L 560.33 188.16 L 565.76 188.16 L 565.76 188.16 L 567.12 188.16 L 569.84 188.16 L 573.91 188.16 L 575.27 188.16 L 577.99 188.16 L 579.35 188.16 L 584.78 188.16 L 586.14 188.16 L 587.50 188.16 L 588.86 209.01 L 592.93 207.77 L 594.29 178.36 L 595.65 179.59 L 595.65 179.59 L 598.37 178.36 L 602.45 158.75 L 603.80 158.75 L 605.16 150.26 L 606.52 140.45 L 607.88 149.02 L 611.96 140.45 L 613.32 130.65 L 614.67 140.45 L 616.03 150.26 L 617.39 139.22 L 622.83 140.45 L 624.18 129.41 L 625.54 100.00 L 626.90 129.41 L 630.98 150.26 L 632.34 169.17 L 633.70 140.45 L 635.05 139.22 L 636.41 167.32 L 640.49 160.06 L 641.85 150.26 L 645.92 210.24 L 650.00 168.55" /><text  class="poloto_text poloto_legend_text" x="675" y="200" >Refinance 30</text><line  class="poloto_line poloto_legend_icon poloto2stroke poloto2legend" stroke="black" x1="680" x2="730" y1="181.25" y2="181.25" /><path  class="poloto_line poloto2stroke" fill="none" stroke="black" d=" M 150.00 348.35 L 151.36 355.69 L 155.43 344.26 L 156.79 335.31 L 158.15 337.00 L 158.15 337.00 L 160.87 318.24 L 164.95 316.62 L 166.30 326.35 L 167.66 315.77 L 169.02 325.50 L 170.38 306.82 L 174.46 315.77 L 175.82 297.01 L 177.17 297.01 L 178.53 296.17 L 179.89 272.47 L 183.97 276.63 L 185.33 287.29 L 186.68 297.01 L 188.04 288.14 L 189.40 277.48 L 194.84 269.38 L 196.20 256.18 L 197.55 254.40 L 198.91 252.55 L 202.99 256.18 L 204.35 271.31 L 207.07 269.38 L 208.42 267.60 L 212.50 257.95 L 213.86 268.45 L 215.22 257.95 L 215.22 257.95 L 217.93 257.95 L 222.01 259.73 L 223.37 276.63 L 223.37 276.63 L 224.73 268.45 L 226.09 269.38 L 227.45 270.23 L 231.52 277.48 L 232.88 269.38 L 234.24 269.38 L 234.24 269.38 L 235.60 278.33 L 236.96 279.26 L 241.03 280.11 L 242.39 288.14 L 243.75 288.14 L 245.11 289.84 L 246.47 289.84 L 251.90 286.36 L 253.26 276.63 L 254.62 278.33 L 255.98 277.48 L 255.98 277.48 L 261.41 268.45 L 262.77 268.45 L 264.13 258.80 L 269.57 219.74 L 270.92 192.10 L 272.28 209.01 L 273.64 219.74 L 275.00 229.46 L 279.08 220.59 L 280.43 219.74 L 281.79 237.49 L 283.15 239.27 L 288.59 239.27 L 289.95 228.62 L 291.30 237.49 L 292.66 247.22 L 294.02 268.45 L 299.46 269.38 L 300.82 258.80 L 302.17 240.20 L 303.53 237.49 L 307.61 255.25 L 310.33 239.27 L 311.68 238.34 L 317.12 256.18 L 317.12 256.18 L 317.12 256.18 L 317.12 256.18 L 317.12 256.18 L 317.12 256.18 L 319.84 256.18 L 319.84 256.18 L 319.84 256.18 L 319.84 256.18 L 319.84 256.18 L 319.84 256.18 L 326.63 267.60 L 329.35 269.38 L 330.71 286.36 L 332.07 297.86 L 336.14 297.01 L 337.50 297.01 L 338.86 277.48 L 340.22 280.11 L 341.58 267.60 L 345.65 277.48 L 345.65 277.48 L 347.01 270.23 L 349.73 278.33 L 349.73 278.33 L 356.52 276.63 L 357.88 259.73 L 359.24 258.80 L 364.67 236.57 L 367.39 228.62 L 367.39 228.62 L 370.11 238.34 L 375.54 227.69 L 375.54 227.69 L 375.54 227.69 L 375.54 227.69 L 375.54 227.69 L 375.54 227.69 L 375.54 227.69 L 375.54 227.69 L 379.62 227.69 L 379.62 226.76 L 387.77 215.11 L 393.21 195.50 L 393.21 195.50 L 397.28 195.50 L 397.28 195.50 L 404.08 195.50 L 405.43 195.50 L 405.43 195.50 L 405.43 195.50 L 405.43 195.50 L 421.74 195.50 L 423.10 195.50 L 431.25 151.34 L 432.61 126.71 L 432.61 126.71 L 485.60 169.02 L 488.32 169.02 L 489.67 169.02 L 491.03 172.95 L 493.75 181.91 L 493.75 181.91 L 499.18 181.91 L 500.54 181.91 L 501.90 181.91 L 503.26 181.91 L 507.34 181.91 L 508.70 181.91 L 511.41 181.91 L 512.77 181.91 L 516.85 181.91 L 518.21 181.91 L 518.21 181.91 L 522.28 181.91 L 526.36 181.91 L 527.72 181.91 L 529.08 181.91 L 530.43 181.91 L 531.79 181.91 L 537.23 167.01 L 538.59 174.88 L 539.95 156.20 L 541.30 174.88 L 545.38 174.88 L 546.74 174.88 L 546.74 174.88 L 549.46 174.88 L 550.82 174.88 L 554.89 174.88 L 556.25 174.88 L 557.61 174.88 L 558.97 174.88 L 560.33 174.88 L 560.33 174.88 L 565.76 174.88 L 565.76 174.88 L 567.12 174.88 L 569.84 174.88 L 573.91 174.88 L 575.27 174.88 L 577.99 174.88 L 579.35 174.88 L 584.78 174.88 L 586.14 174.88 L 587.50 174.88 L 588.86 224.91 L 592.93 215.11 L 594.29 175.89 L 595.65 205.30 L 597.01 175.89 L 598.37 166.01 L 602.45 156.20 L 603.80 156.20 L 605.16 147.32 L 606.52 137.52 L 607.88 146.40 L 611.96 146.40 L 613.32 135.59 L 614.67 127.71 L 616.03 137.52 L 617.39 128.72 L 622.83 127.71 L 624.18 116.91 L 625.54 116.91 L 626.90 126.71 L 630.98 127.71 L 632.34 117.91 L 633.70 125.78 L 635.05 117.91 L 636.41 147.32 L 640.49 147.32 L 641.85 127.71 L 645.92 206.23 L 650.00 147.32" /><text  class="poloto_labels poloto_text poloto_title" x="400" y="37.5" >lower.com purchase rates</text><text  class="poloto_labels poloto_text poloto_xname" x="400" y="481.25" >Date</text><text  class="poloto_labels poloto_text poloto_yname" transform="rotate(-90,37.5,250)" x="37.5" y="250" >Rate (%)</text><text  class="poloto_tick_labels poloto_text" dominant-baseline="middle" text-anchor="start" x="150" y="70" ></text><line  class="poloto_axis_lines" stroke="black" x1="150" x2="144" y1="391.12197632527017" y2="391.12197632527017" /><line  class="poloto_tick_line" stroke="black" x1="150" x2="650" y1="391.12197632527017" y2="391.12197632527017" /><text  class="poloto_tick_labels poloto_text" dominant-baseline="middle" text-anchor="end" x="135" y="391.12197632527017" >3.625</text><line  class="poloto_axis_lines" stroke="black" x1="150" x2="144" y1="381.4719505918682" y2="381.4719505918682" /><line  class="poloto_tick_line" stroke="black" x1="150" x2="650" y1="381.4719505918682" y2="381.4719505918682" /><text  class="poloto_tick_labels poloto_text" dominant-baseline="middle" text-anchor="end" x="135" y="381.4719505918682" >3.75</text><line  class="poloto_axis_lines" stroke="black" x1="150" x2="144" y1="371.8219248584663" y2="371.8219248584663" /><line  class="poloto_tick_line" stroke="black" x1="150" x2="650" y1="371.8219248584663" y2="371.8219248584663" /><text  class="poloto_tick_labels poloto_text" dominant-baseline="middle" text-anchor="end" x="135" y="371.8219248584663" >3.875</text><line  class="poloto_axis_lines" stroke="black" x1="150" x2="144" y1="362.17189912506433" y2="362.17189912506433" /><line  class="poloto_tick_line" stroke="black" x1="150" x2="650" y1="362.17189912506433" y2="362.17189912506433" /><text  class="poloto_tick_labels poloto_text" dominant-baseline="middle" text-anchor="end" x="135" y="362.17189912506433" >4</text><line  class="poloto_axis_lines" stroke="black" x1="150" x2="144" y1="352.5218733916624" y2="352.5218733916624" /><line  class="poloto_tick_line" stroke="black" x1="150" x2="650" y1="352.5218733916624" y2="352.5218733916624" /><text  class="poloto_tick_labels poloto_text" dominant-baseline="middle" text-anchor="end" x="135" y="352.5218733916624" >4.125</text><line  class="poloto_axis_lines" stroke="black" x1="150" x2="144" y1="342.87184765826044" y2="342.87184765826044" /><line  class="poloto_tick_line" stroke="black" x1="150" x2="650" y1="342.87184765826044" y2="342.87184765826044" /><text  class="poloto_tick_labels poloto_text" dominant-baseline="middle" text-anchor="end" x="135" y="342.87184765826044" >4.25</text><line  class="poloto_axis_lines" stroke="black" x1="150" x2="144" y1="333.2218219248585" y2="333.2218219248585" /><line  class="poloto_tick_line" stroke="black" x1="150" x2="650" y1="333.2218219248585" y2="333.2218219248585" /><text  class="poloto_tick_labels poloto_text" dominant-baseline="middle" text-anchor="end" x="135" y="333.2218219248585" >4.375</text><line  class="poloto_axis_lines" stroke="black" x1="150" x2="144" y1="323.5717961914565" y2="323.5717961914565" /><line  class="poloto_tick_line" stroke="black" x1="150" x2="650" y1="323.5717961914565" y2="323.5717961914565" /><text  class="poloto_tick_labels poloto_text" dominant-baseline="middle" text-anchor="end" x="135" y="323.5717961914565" >4.5</text><line  class="poloto_axis_lines" stroke="black" x1="150" x2="144" y1="313.92177045805454" y2="313.92177045805454" /><line  class="poloto_tick_line" stroke="black" x1="150" x2="650" y1="313.92177045805454" y2="313.92177045805454" /><text  class="poloto_tick_labels poloto_text" dominant-baseline="middle" text-anchor="end" x="135" y="313.92177045805454" >4.625</text><line  class="poloto_axis_lines" stroke="black" x1="150" x2="144" y1="304.2717447246526" y2="304.2717447246526" /><line  class="poloto_tick_line" stroke="black" x1="150" x2="650" y1="304.2717447246526" y2="304.2717447246526" /><text  class="poloto_tick_labels poloto_text" dominant-baseline="middle" text-anchor="end" x="135" y="304.2717447246526" >4.75</text><line  class="poloto_axis_lines" stroke="black" x1="150" x2="144" y1="294.62171899125065" y2="294.62171899125065" /><line  class="poloto_tick_line" stroke="black" x1="150" x2="650" y1="294.62171899125065" y2="294.62171899125065" /><text  class="poloto_tick_labels poloto_text" dominant-baseline="middle" text-anchor="end" x="135" y="294.62171899125065" >4.875</text><line  class="poloto_axis_lines" stroke="black" x1="150" x2="144" y1="284.9716932578487" y2="284.9716932578487" /><line  class="poloto_tick_line" stroke="black" x1="150" x2="650" y1="284.9716932578487" y2="284.9716932578487" /><text  class="poloto_tick_labels poloto_text" dominant-baseline="middle" text-anchor="end" x="135" y="284.9716932578487" >5</text><line  class="poloto_axis_lines" stroke="black" x1="150" x2="144" y1="275.32166752444675" y2="275.32166752444675" /><line  class="poloto_tick_line" stroke="black" x1="150" x2="650" y1="275.32166752444675" y2="275.32166752444675" /><text  class="poloto_tick_labels poloto_text" dominant-baseline="middle" text-anchor="end" x="135" y="275.32166752444675" >5.125</text><line  class="poloto_axis_lines" stroke="black" x1="150" x2="144" y1="265.67164179104475" y2="265.67164179104475" /><line  class="poloto_tick_line" stroke="black" x1="150" x2="650" y1="265.67164179104475" y2="265.67164179104475" /><text  class="poloto_tick_labels poloto_text" dominant-baseline="middle" text-anchor="end" x="135" y="265.67164179104475" >5.25</text><line  class="poloto_axis_lines" stroke="black" x1="150" x2="144" y1="256.0216160576428" y2="256.0216160576428" /><line  class="poloto_tick_line" stroke="black" x1="150" x2="650" y1="256.0216160576428" y2="256.0216160576428" /><text  class="poloto_tick_labels poloto_text" dominant-baseline="middle" text-anchor="end" x="135" y="256.0216160576428" >5.375</text><line  class="poloto_axis_lines" stroke="black" x1="150" x2="144" y1="246.37159032424086" y2="246.37159032424086" /><line  class="poloto_tick_line" stroke="black" x1="150" x2="650" y1="246.37159032424086" y2="246.37159032424086" /><text  class="poloto_tick_labels poloto_text" dominant-baseline="middle" text-anchor="end" x="135" y="246.37159032424086" >5.5</text><line  class="poloto_axis_lines" stroke="black" x1="150" x2="144" y1="236.7215645908389" y2="236.7215645908389" /><line  class="poloto_tick_line" stroke="black" x1="150" x2="650" y1="236.7215645908389" y2="236.7215645908389" /><text  class="poloto_tick_labels poloto_text" dominant-baseline="middle" text-anchor="end" x="135" y="236.7215645908389" >5.625</text><line  class="poloto_axis_lines" stroke="black" x1="150" x2="144" y1="227.07153885743696" y2="227.07153885743696" /><line  class="poloto_tick_line" stroke="black" x1="150" x2="650" y1="227.07153885743696" y2="227.07153885743696" /><text  class="poloto_tick_labels poloto_text" dominant-baseline="middle" text-anchor="end" x="135" y="227.07153885743696" >5.75</text><line  class="poloto_axis_lines" stroke="black" x1="150" x2="144" y1="217.42151312403502" y2="217.42151312403502" /><line  class="poloto_tick_line" stroke="black" x1="150" x2="650" y1="217.42151312403502" y2="217.42151312403502" /><text  class="poloto_tick_labels poloto_text" dominant-baseline="middle" text-anchor="end" x="135" y="217.42151312403502" >5.875</text><line  class="poloto_axis_lines" stroke="black" x1="150" x2="144" y1="207.771487390633" y2="207.771487390633" /><line  class="poloto_tick_line" stroke="black" x1="150" x2="650" y1="207.771487390633" y2="207.771487390633" /><text  class="poloto_tick_labels poloto_text" dominant-baseline="middle" text-anchor="end" x="135" y="207.771487390633" >6</text><line  class="poloto_axis_lines" stroke="black" x1="150" x2="144" y1="198.12146165723107" y2="198.12146165723107" /><line  class="poloto_tick_line" stroke="black" x1="150" x2="650" y1="198.12146165723107" y2="198.12146165723107" /><text  class="poloto_tick_labels poloto_text" dominant-baseline="middle" text-anchor="end" x="135" y="198.12146165723107" >6.125</text><line  class="poloto_axis_lines" stroke="black" x1="150" x2="144" y1="188.47143592382912" y2="188.47143592382912" /><line  class="poloto_tick_line" stroke="black" x1="150" x2="650" y1="188.47143592382912" y2="188.47143592382912" /><text  class="poloto_tick_labels poloto_text" dominant-baseline="middle" text-anchor="end" x="135" y="188.47143592382912" >6.25</text><line  class="poloto_axis_lines" stroke="black" x1="150" x2="144" y1="178.82141019042717" y2="178.82141019042717" /><line  class="poloto_tick_line" stroke="black" x1="150" x2="650" y1="178.82141019042717" y2="178.82141019042717" /><text  class="poloto_tick_labels poloto_text" dominant-baseline="middle" text-anchor="end" x="135" y="178.82141019042717" >6.375</text><line  class="poloto_axis_lines" stroke="black" x1="150" x2="144" y1="169.17138445702523" y2="169.17138445702523" /><line  class="poloto_tick_line" stroke="black" x1="150" x2="650" y1="169.17138445702523" y2="169.17138445702523" /><text  class="poloto_tick_labels poloto_text" dominant-baseline="middle" text-anchor="end" x="135" y="169.17138445702523" >6.5</text><line  class="poloto_axis_lines" stroke="black" x1="150" x2="144" y1="159.52135872362328" y2="159.52135872362328" /><line  class="poloto_tick_line" stroke="black" x1="150" x2="650" y1="159.52135872362328" y2="159.52135872362328" /><text  class="poloto_tick_labels poloto_text" dominant-baseline="middle" text-anchor="end" x="135" y="159.52135872362328" >6.625</text><line  class="poloto_axis_lines" stroke="black" x1="150" x2="144" y1="149.87133299022133" y2="149.87133299022133" /><line  class="poloto_tick_line" stroke="black" x1="150" x2="650" y1="149.87133299022133" y2="149.87133299022133" /><text  class="poloto_tick_labels poloto_text" dominant-baseline="middle" text-anchor="end" x="135" y="149.87133299022133" >6.75</text><line  class="poloto_axis_lines" stroke="black" x1="150" x2="144" y1="140.22130725681933" y2="140.22130725681933" /><line  class="poloto_tick_line" stroke="black" x1="150" x2="650" y1="140.22130725681933" y2="140.22130725681933" /><text  class="poloto_tick_labels poloto_text" dominant-baseline="middle" text-anchor="end" x="135" y="140.22130725681933" >6.875</text><line  class="poloto_axis_lines" stroke="black" x1="150" x2="144" y1="130.57128152341744" y2="130.57128152341744" /><line  class="poloto_tick_line" stroke="black" x1="150" x2="650" y1="130.57128152341744" y2="130.57128152341744" /><text  class="poloto_tick_labels poloto_text" dominant-baseline="middle" text-anchor="end" x="135" y="130.57128152341744" >7</text><line  class="poloto_axis_lines" stroke="black" x1="150" x2="144" y1="120.92125579001544" y2="120.92125579001544" /><line  class="poloto_tick_line" stroke="black" x1="150" x2="650" y1="120.92125579001544" y2="120.92125579001544" /><text  class="poloto_tick_labels poloto_text" dominant-baseline="middle" text-anchor="end" x="135" y="120.92125579001544" >7.125</text><line  class="poloto_axis_lines" stroke="black" x1="150" x2="144" y1="111.27123005661343" y2="111.27123005661343" /><line  class="poloto_tick_line" stroke="black" x1="150" x2="650" y1="111.27123005661343" y2="111.27123005661343" /><text  class="poloto_tick_labels poloto_text" dominant-baseline="middle" text-anchor="end" x="135" y="111.27123005661343" >7.25</text><line  class="poloto_axis_lines" stroke="black" x1="150" x2="144" y1="101.62120432321154" y2="101.62120432321154" /><line  class="poloto_tick_line" stroke="black" x1="150" x2="650" y1="101.62120432321154" y2="101.62120432321154" /><text  class="poloto_tick_labels poloto_text" dominant-baseline="middle" text-anchor="end" x="135" y="101.62120432321154" >7.375</text><text  class="poloto_tick_labels poloto_text" dominant-baseline="middle" text-anchor="start" x="440.00000000000006" y="70" >¹2022-05-01 00:00:00 UTC in Months</text><line  class="poloto_axis_lines" stroke="black" x1="211.1413043478242" x2="211.1413043478242" y1="400" y2="405" /><line  class="poloto_tick_line" stroke="black" x1="211.1413043478242" x2="211.1413043478242" y1="400" y2="100.00000000000006" /><text  class="poloto_tick_labels poloto_text" dominant-baseline="start" text-anchor="middle" x="211.1413043478242" y="430" >2022 May¹</text><line  class="poloto_axis_lines" stroke="black" x1="294.0217391304359" x2="294.0217391304359" y1="400" y2="405" /><line  class="poloto_tick_line" stroke="black" x1="294.0217391304359" x2="294.0217391304359" y1="400" y2="100.00000000000006" /><text  class="poloto_tick_labels poloto_text" dominant-baseline="start" text-anchor="middle" x="294.0217391304359" y="430" >2022 Jul</text><line  class="poloto_axis_lines" stroke="black" x1="378.2608695652161" x2="378.2608695652161" y1="400" y2="405" /><line  class="poloto_tick_line" stroke="black" x1="378.2608695652161" x2="378.2608695652161" y1="400" y2="100.00000000000006" /><text  class="poloto_tick_labels poloto_text" dominant-baseline="start" text-anchor="middle" x="378.2608695652161" y="430" >2022 Sep</text><line  class="poloto_axis_lines" stroke="black" x1="461.1413043478242" x2="461.1413043478242" y1="400" y2="405" /><line  class="poloto_tick_line" stroke="black" x1="461.1413043478242" x2="461.1413043478242" y1="400" y2="100.00000000000006" /><text  class="poloto_tick_labels poloto_text" dominant-baseline="start" text-anchor="middle" x="461.1413043478242" y="430" >2022 Nov</text><line  class="poloto_axis_lines" stroke="black" x1="544.0217391304359" x2="544.0217391304359" y1="400" y2="405" /><line  class="poloto_tick_line" stroke="black" x1="544.0217391304359" x2="544.0217391304359" y1="400" y2="100.00000000000006" /><text  class="poloto_tick_labels poloto_text" dominant-baseline="start" text-anchor="middle" x="544.0217391304359" y="430" >2023 Jan</text><line  class="poloto_axis_lines" stroke="black" x1="624.184782608696" x2="624.184782608696" y1="400" y2="405" /><line  class="poloto_tick_line" stroke="black" x1="624.184782608696" x2="624.184782608696" y1="400" y2="100.00000000000006" /><text  class="poloto_tick_labels poloto_text" dominant-baseline="start" text-anchor="middle" x="624.184782608696" y="430" >2023 Mar</text><path  stroke="black" fill="none" class="poloto_axis_lines" d=" M 150 400 L 650 400" /><path  stroke="black" fill="none" class="poloto_axis_lines" d=" M 150 400 L 150 100.00000000000006" /></svg>