<svg class="poloto" width="800" height="500" viewBox="0 0 800 500" xmlns="http://www.w3.org/2000/svg"><style>.poloto{stroke-linecap:round;stroke-linejoin:round;font-family:Roboto,sans-serif;font-size:16px;}.poloto_background{fill:#262626;}.poloto_scatter{stroke-width:7}.poloto_tick_line{stroke:dimgray;stroke-width:0.5}.poloto_line{stroke-width:2}.poloto_text{fill: white;}.poloto_axis_lines{stroke: white;stroke-width:3;fill:none;stroke-dasharray:none}.poloto_title{font-size:24px;dominant-baseline:start;text-anchor:middle;}.poloto_xname{font-size:24px;dominant-baseline:start;text-anchor:middle;}.poloto_yname{font-size:24px;dominant-baseline:start;text-anchor:middle;}.poloto0stroke{stroke:blue;}.poloto1stroke{stroke:red;}.poloto2stroke{stroke:green;}.poloto3stroke{stroke:gold;}.poloto4stroke{stroke:aqua;}.poloto5stroke{stroke:lime;}.poloto6stroke{stroke:orange;}.poloto7stroke{stroke:chocolate;}.poloto0fill{fill:blue;}.poloto1fill{fill:red;}.poloto2fill{fill:green;}.poloto3fill{fill:gold;}.poloto4fill{fill:aqua;}.poloto5fill{fill:lime;}.poloto6fill{fill:orange;}.poloto7fill{fill:chocolate;}</style><circle  r="1e5" class="poloto_background" /><text  class="poloto_text poloto_legend_text" x="675" y="100" >30 years</text><line  class="poloto_line poloto_legend_icon poloto0stroke poloto0legend" stroke="black" x1="680" x2="730" y1="81.25" y2="81.25" /><path  class="poloto_line poloto0stroke" fill="none" stroke="black" d=" M 150.00 333.33 L 159.09 366.67 L 186.36 333.33 L 195.45 300.00 L 204.55 300.00 L 204.55 300.00 L 222.73 233.33 L 250.00 233.33 L 259.09 266.67 L 268.18 300.00 L 277.27 333.33 L 286.36 266.67 L 313.64 300.00 L 322.73 266.67 L 331.82 233.33 L 340.91 200.00 L 350.00 200.00 L 377.27 200.00 L 386.36 233.33 L 395.45 233.33 L 404.55 233.33 L 413.64 166.67 L 450.00 136.00 L 459.09 133.33 L 468.18 133.33 L 477.27 100.00 L 504.55 133.33 L 513.64 166.67 L 531.82 136.00 L 540.91 136.00 L 568.18 136.00 L 577.27 136.00 L 586.36 136.00 L 595.45 136.00 L 604.55 100.00 L 631.82 133.33 L 640.91 136.00 L 640.91 136.00 L 650.00 136.00" /><text  class="poloto_labels poloto_text poloto_title" x="400" y="37.5" >lower.com purchase rates</text><text  class="poloto_labels poloto_text poloto_xname" x="400" y="481.25" >Date</text><text  class="poloto_labels poloto_text poloto_yname" transform="rotate(-90,37.5,250)" x="37.5" y="250" >Rate (%)</text><text  class="poloto_tick_labels poloto_text" dominant-baseline="middle" text-anchor="start" x="150" y="70" ></text><line  class="poloto_axis_lines" stroke="black" x1="150" x2="144" y1="400" y2="400" /><line  class="poloto_tick_line" stroke="black" x1="150" x2="650" y1="400" y2="400" /><text  class="poloto_tick_labels poloto_text" dominant-baseline="middle" text-anchor="end" x="135" y="400" >4</text><line  class="poloto_axis_lines" stroke="black" x1="150" x2="144" y1="366.66666666666674" y2="366.66666666666674" /><line  class="poloto_tick_line" stroke="black" x1="150" x2="650" y1="366.66666666666674" y2="366.66666666666674" /><text  class="poloto_tick_labels poloto_text" dominant-baseline="middle" text-anchor="end" x="135" y="366.66666666666674" >4.125</text><line  class="poloto_axis_lines" stroke="black" x1="150" x2="144" y1="333.33333333333326" y2="333.33333333333326" /><line  class="poloto_tick_line" stroke="black" x1="150" x2="650" y1="333.33333333333326" y2="333.33333333333326" /><text  class="poloto_tick_labels poloto_text" dominant-baseline="middle" text-anchor="end" x="135" y="333.33333333333326" >4.25</text><line  class="poloto_axis_lines" stroke="black" x1="150" x2="144" y1="300" y2="300" /><line  class="poloto_tick_line" stroke="black" x1="150" x2="650" y1="300" y2="300" /><text  class="poloto_tick_labels poloto_text" dominant-baseline="middle" text-anchor="end" x="135" y="300" >4.375</text><line  class="poloto_axis_lines" stroke="black" x1="150" x2="144" y1="266.66666666666674" y2="266.66666666666674" /><line  class="poloto_tick_line" stroke="black" x1="150" x2="650" y1="266.66666666666674" y2="266.66666666666674" /><text  class="poloto_tick_labels poloto_text" dominant-baseline="middle" text-anchor="end" x="135" y="266.66666666666674" >4.5</text><line  class="poloto_axis_lines" stroke="black" x1="150" x2="144" y1="233.33333333333326" y2="233.33333333333326" /><line  class="poloto_tick_line" stroke="black" x1="150" x2="650" y1="233.33333333333326" y2="233.33333333333326" /><text  class="poloto_tick_labels poloto_text" dominant-baseline="middle" text-anchor="end" x="135" y="233.33333333333326" >4.625</text><line  class="poloto_axis_lines" stroke="black" x1="150" x2="144" y1="200" y2="200" /><line  class="poloto_tick_line" stroke="black" x1="150" x2="650" y1="200" y2="200" /><text  class="poloto_tick_labels poloto_text" dominant-baseline="middle" text-anchor="end" x="135" y="200" >4.75</text><line  class="poloto_axis_lines" stroke="black" x1="150" x2="144" y1="166.66666666666674" y2="166.66666666666674" /><line  class="poloto_tick_line" stroke="black" x1="150" x2="650" y1="166.66666666666674" y2="166.66666666666674" /><text  class="poloto_tick_labels poloto_text" dominant-baseline="middle" text-anchor="end" x="135" y="166.66666666666674" >4.875</text><line  class="poloto_axis_lines" stroke="black" x1="150" x2="144" y1="133.33333333333326" y2="133.33333333333326" /><line  class="poloto_tick_line" stroke="black" x1="150" x2="650" y1="133.33333333333326" y2="133.33333333333326" /><text  class="poloto_tick_labels poloto_text" dominant-baseline="middle" text-anchor="end" x="135" y="133.33333333333326" >5</text><line  class="poloto_axis_lines" stroke="black" x1="150" x2="144" y1="100" y2="100" /><line  class="poloto_tick_line" stroke="black" x1="150" x2="650" y1="100" y2="100" /><text  class="poloto_tick_labels poloto_text" dominant-baseline="middle" text-anchor="end" x="135" y="100" >5.125</text><text  class="poloto_tick_labels poloto_text" dominant-baseline="middle" text-anchor="start" x="440.00000000000006" y="70" >ยน2022-03-22 00:00:00 UTC in Days</text><line  class="poloto_axis_lines" stroke="black" x1="195.45454545455868" x2="195.45454545455868" y1="400" y2="405" /><line  class="poloto_tick_line" stroke="black" x1="195.45454545455868" x2="195.45454545455868" y1="400" y2="100" /><text  class="poloto_tick_labels poloto_text" dominant-baseline="start" text-anchor="middle" x="195.45454545455868" y="430" >Mar 22ยน</text><line  class="poloto_axis_lines" stroke="black" x1="259.09090909091174" x2="259.09090909091174" y1="400" y2="405" /><line  class="poloto_tick_line" stroke="black" x1="259.09090909091174" x2="259.09090909091174" y1="400" y2="100" /><text  class="poloto_tick_labels poloto_text" dominant-baseline="start" text-anchor="middle" x="259.09090909091174" y="430" >Mar 29</text><line  class="poloto_axis_lines" stroke="black" x1="322.7272727272939" x2="322.7272727272939" y1="400" y2="405" /><line  class="poloto_tick_line" stroke="black" x1="322.7272727272939" x2="322.7272727272939" y1="400" y2="100" /><text  class="poloto_tick_labels poloto_text" dominant-baseline="start" text-anchor="middle" x="322.7272727272939" y="430" >Apr 05</text><line  class="poloto_axis_lines" stroke="black" x1="386.36363636364695" x2="386.36363636364695" y1="400" y2="405" /><line  class="poloto_tick_line" stroke="black" x1="386.36363636364695" x2="386.36363636364695" y1="400" y2="100" /><text  class="poloto_tick_labels poloto_text" dominant-baseline="start" text-anchor="middle" x="386.36363636364695" y="430" >Apr 12</text><line  class="poloto_axis_lines" stroke="black" x1="450" x2="450" y1="400" y2="405" /><line  class="poloto_tick_line" stroke="black" x1="450" x2="450" y1="400" y2="100" /><text  class="poloto_tick_labels poloto_text" dominant-baseline="start" text-anchor="middle" x="450" y="430" >Apr 19</text><line  class="poloto_axis_lines" stroke="black" x1="513.6363636363822" x2="513.6363636363822" y1="400" y2="405" /><line  class="poloto_tick_line" stroke="black" x1="513.6363636363822" x2="513.6363636363822" y1="400" y2="100" /><text  class="poloto_tick_labels poloto_text" dominant-baseline="start" text-anchor="middle" x="513.6363636363822" y="430" >Apr 26</text><line  class="poloto_axis_lines" stroke="black" x1="577.2727272727352" x2="577.2727272727352" y1="400" y2="405" /><line  class="poloto_tick_line" stroke="black" x1="577.2727272727352" x2="577.2727272727352" y1="400" y2="100" /><text  class="poloto_tick_labels poloto_text" dominant-baseline="start" text-anchor="middle" x="577.2727272727352" y="430" >May 03</text><line  class="poloto_axis_lines" stroke="black" x1="640.9090909090883" x2="640.9090909090883" y1="400" y2="405" /><line  class="poloto_tick_line" stroke="black" x1="640.9090909090883" x2="640.9090909090883" y1="400" y2="100" /><text  class="poloto_tick_labels poloto_text" dominant-baseline="start" text-anchor="middle" x="640.9090909090883" y="430" >May 10</text><path  stroke="black" fill="none" class="poloto_axis_lines" d=" M 150 400 L 650 400" /><path  stroke="black" fill="none" class="poloto_axis_lines" d=" M 150 400 L 150 100" /></svg>