<svg class="poloto" width="800" height="500" viewBox="0 0 800 500" xmlns="http://www.w3.org/2000/svg"><style>.poloto{stroke-linecap:round;stroke-linejoin:round;font-family:Roboto,sans-serif;font-size:16px;}.poloto_background{fill:#262626;}.poloto_scatter{stroke-width:7}.poloto_tick_line{stroke:dimgray;stroke-width:0.5}.poloto_line{stroke-width:2}.poloto_text{fill: white;}.poloto_axis_lines{stroke: white;stroke-width:3;fill:none;stroke-dasharray:none}.poloto_title{font-size:24px;dominant-baseline:start;text-anchor:middle;}.poloto_xname{font-size:24px;dominant-baseline:start;text-anchor:middle;}.poloto_yname{font-size:24px;dominant-baseline:start;text-anchor:middle;}.poloto0stroke{stroke:blue;}.poloto1stroke{stroke:red;}.poloto2stroke{stroke:green;}.poloto3stroke{stroke:gold;}.poloto4stroke{stroke:aqua;}.poloto5stroke{stroke:lime;}.poloto6stroke{stroke:orange;}.poloto7stroke{stroke:chocolate;}.poloto0fill{fill:blue;}.poloto1fill{fill:red;}.poloto2fill{fill:green;}.poloto3fill{fill:gold;}.poloto4fill{fill:aqua;}.poloto5fill{fill:lime;}.poloto6fill{fill:orange;}.poloto7fill{fill:chocolate;}</style><circle  r="1e5" class="poloto_background" /><text  class="poloto_text poloto_legend_text" x="675" y="100" >Refinance 15</text><line  class="poloto_line poloto_legend_icon poloto0stroke poloto0legend" stroke="black" x1="680" x2="730" y1="81.25" y2="81.25" /><path  class="poloto_line poloto0stroke" fill="none" stroke="black" d=" M 150.00 392.46 L 152.00 400.00 L 158.00 389.32 L 160.00 380.17 L 162.00 389.32 L 162.00 389.32 L 166.00 358.81 L 172.00 357.20 L 174.00 367.88 L 176.00 344.83 L 178.00 346.44 L 180.00 341.61 L 186.00 343.22 L 188.00 336.78 L 188.00 336.78 L 192.00 337.37 L 194.00 314.32 L 200.00 324.32 L 202.00 327.54 L 204.00 327.54 L 206.00 326.69 L 208.00 321.78 L 216.00 278.73 L 218.00 297.88 L 220.00 283.05 L 222.00 277.29 L 222.00 277.29 L 230.00 299.58 L 234.00 303.64 L 236.00 294.58 L 242.00 283.81 L 244.00 305.25 L 246.00 294.58 L 246.00 294.58 L 250.00 292.88 L 256.00 296.19 L 258.00 306.86 L 258.00 306.86 L 260.00 297.80 L 262.00 308.56 L 264.00 292.88 L 270.00 325.08 L 272.00 324.32 L 274.00 306.86 L 274.00 306.86 L 276.00 314.32 L 278.00 317.63 L 284.00 317.63 L 286.00 329.15 L 288.00 329.15 L 290.00 329.15 L 292.00 329.15 L 300.00 317.63 L 302.00 314.32 L 304.00 315.93 L 306.00 315.93 L 306.00 315.93 L 314.00 305.25 L 316.00 305.25 L 318.00 296.19 L 326.00 281.36 L 328.00 250.76 L 330.00 254.15 L 332.00 254.15 L 334.00 275.59 L 340.00 254.15 L 342.00 254.15 L 344.00 273.90 L 346.00 277.29 L 354.00 277.29 L 356.00 275.59 L 358.00 280.59 L 360.00 285.51 L 362.00 296.19 L 370.00 303.64 L 372.00 294.58 L 374.00 287.12 L 376.00 283.81 L 382.00 285.51 L 386.00 285.51 L 388.00 283.81 L 396.00 282.20 L 396.00 282.20 L 396.00 282.20 L 396.00 282.20 L 396.00 282.20 L 396.00 282.20 L 400.00 282.20 L 400.00 282.20 L 400.00 282.20 L 400.00 282.20 L 400.00 282.20 L 400.00 282.20 L 410.00 294.58 L 414.00 297.80 L 416.00 325.93 L 418.00 329.15 L 424.00 329.15 L 426.00 327.54 L 428.00 305.25 L 430.00 299.49 L 432.00 285.51 L 438.00 296.19 L 438.00 296.19 L 440.00 287.12 L 444.00 296.19 L 444.00 296.19 L 454.00 296.19 L 456.00 262.46 L 458.00 282.20 L 466.00 248.39 L 470.00 248.39 L 470.00 248.39 L 474.00 260.76 L 482.00 254.15 L 482.00 254.15 L 482.00 254.15 L 482.00 254.15 L 482.00 254.15 L 482.00 254.15 L 482.00 254.15 L 482.00 254.15 L 482.00 254.15 L 488.00 254.15 L 500.00 232.63 L 508.00 235.17 L 508.00 235.17 L 514.00 235.17 L 522.00 235.17 L 524.00 235.17 L 524.00 235.17 L 524.00 235.17 L 524.00 235.17 L 524.00 235.17 L 550.00 235.17 L 552.00 235.17 L 564.00 139.75 L 566.00 130.68 L 568.00 130.68 L 640.00 159.15 L 648.00 159.15 L 650.00 159.15" /><text  class="poloto_text poloto_legend_text" x="675" y="150" >Refinance 20</text><line  class="poloto_line poloto_legend_icon poloto1stroke poloto1legend" stroke="black" x1="680" x2="730" y1="131.25" y2="131.25" /><path  class="poloto_line poloto1stroke" fill="none" stroke="black" d=" M 150.00 345.68 L 152.00 368.31 L 158.00 334.58 L 160.00 324.24 L 162.00 333.73 L 162.00 333.73 L 166.00 304.07 L 172.00 301.53 L 174.00 312.29 L 176.00 300.25 L 178.00 311.02 L 180.00 290.85 L 186.00 321.69 L 188.00 290.85 L 188.00 290.85 L 192.00 290.85 L 192.00 290.85 L 200.00 250.17 L 202.00 282.71 L 204.00 290.85 L 206.00 301.53 L 208.00 280.59 L 216.00 260.00 L 218.00 257.37 L 220.00 252.12 L 222.00 240.08 L 228.00 245.34 L 230.00 268.14 L 234.00 260.00 L 236.00 257.37 L 242.00 248.81 L 244.00 258.73 L 246.00 258.73 L 246.00 258.73 L 250.00 258.73 L 256.00 260.00 L 258.00 281.44 L 258.00 281.44 L 260.00 269.41 L 262.00 289.58 L 264.00 281.44 L 270.00 282.71 L 272.00 281.44 L 274.00 281.44 L 274.00 281.44 L 276.00 282.71 L 278.00 289.58 L 284.00 290.85 L 286.00 294.66 L 288.00 294.66 L 290.00 294.66 L 292.00 294.66 L 300.00 289.58 L 302.00 278.81 L 304.00 281.44 L 306.00 281.44 L 306.00 281.44 L 314.00 268.14 L 316.00 270.68 L 318.00 261.27 L 326.00 215.85 L 328.00 197.03 L 330.00 207.80 L 332.00 215.85 L 334.00 238.56 L 340.00 225.17 L 342.00 218.47 L 344.00 239.92 L 346.00 250.17 L 354.00 250.17 L 356.00 238.56 L 358.00 249.32 L 360.00 260.00 L 362.00 272.03 L 370.00 280.08 L 372.00 269.41 L 374.00 258.73 L 376.00 251.44 L 382.00 257.37 L 386.00 260.00 L 388.00 258.73 L 396.00 260.00 L 396.00 260.00 L 396.00 260.00 L 396.00 260.00 L 396.00 260.00 L 396.00 260.00 L 396.00 260.00 L 396.00 260.00 L 396.00 260.00 L 396.00 260.00 L 396.00 260.00 L 396.00 260.00 L 410.00 280.08 L 414.00 282.71 L 416.00 301.53 L 418.00 304.07 L 424.00 301.27 L 426.00 301.27 L 428.00 290.85 L 430.00 294.66 L 432.00 278.81 L 438.00 270.68 L 438.00 270.68 L 440.00 270.68 L 444.00 281.44 L 444.00 281.44 L 454.00 278.81 L 456.00 260.00 L 458.00 260.00 L 466.00 246.19 L 470.00 234.58 L 470.00 234.58 L 474.00 247.54 L 482.00 215.85 L 482.00 215.85 L 482.00 215.85 L 482.00 215.85 L 482.00 215.85 L 482.00 215.85 L 482.00 215.85 L 482.00 215.85 L 482.00 215.85 L 488.00 215.85 L 500.00 202.37 L 508.00 203.73 L 512.00 203.73 L 514.00 203.73 L 514.00 203.73 L 524.00 203.73 L 526.00 203.73 L 526.00 203.73 L 526.00 203.73 L 526.00 203.73 L 550.00 203.73 L 552.00 203.73 L 564.00 118.81 L 566.00 102.97 L 566.00 102.97 L 644.00 155.34 L 648.00 155.34 L 650.00 155.34" /><text  class="poloto_text poloto_legend_text" x="675" y="200" >Refinance 30</text><line  class="poloto_line poloto_legend_icon poloto2stroke poloto2legend" stroke="black" x1="680" x2="730" y1="181.25" y2="181.25" /><path  class="poloto_line poloto2stroke" fill="none" stroke="black" d=" M 150.00 343.31 L 152.00 351.36 L 158.00 338.81 L 160.00 328.98 L 162.00 330.85 L 162.00 330.85 L 166.00 310.25 L 172.00 308.47 L 174.00 319.15 L 176.00 307.54 L 178.00 318.22 L 180.00 297.71 L 186.00 307.54 L 188.00 286.95 L 190.00 286.95 L 192.00 286.02 L 194.00 260.00 L 200.00 264.58 L 202.00 276.27 L 204.00 286.95 L 206.00 277.20 L 208.00 265.51 L 216.00 256.61 L 218.00 242.12 L 220.00 240.17 L 222.00 238.14 L 228.00 242.12 L 230.00 258.73 L 234.00 256.61 L 236.00 254.66 L 242.00 244.07 L 244.00 255.59 L 246.00 244.07 L 246.00 244.07 L 250.00 244.07 L 256.00 246.02 L 258.00 264.58 L 258.00 264.58 L 260.00 255.59 L 262.00 256.61 L 264.00 257.54 L 270.00 265.51 L 272.00 256.61 L 274.00 256.61 L 274.00 256.61 L 276.00 266.44 L 278.00 267.46 L 284.00 268.39 L 286.00 277.20 L 288.00 277.20 L 290.00 279.07 L 292.00 279.07 L 300.00 275.25 L 302.00 264.58 L 304.00 266.44 L 306.00 265.51 L 306.00 265.51 L 314.00 255.59 L 316.00 255.59 L 318.00 245.00 L 326.00 202.12 L 328.00 171.78 L 330.00 190.34 L 332.00 202.12 L 334.00 212.80 L 340.00 203.05 L 342.00 202.12 L 344.00 221.61 L 346.00 223.56 L 354.00 223.56 L 356.00 211.86 L 358.00 221.61 L 360.00 232.29 L 362.00 255.59 L 370.00 256.61 L 372.00 245.00 L 374.00 224.58 L 376.00 221.61 L 382.00 241.10 L 386.00 223.56 L 388.00 222.54 L 396.00 242.12 L 396.00 242.12 L 396.00 242.12 L 396.00 242.12 L 396.00 242.12 L 396.00 242.12 L 400.00 242.12 L 400.00 242.12 L 400.00 242.12 L 400.00 242.12 L 400.00 242.12 L 400.00 242.12 L 410.00 254.66 L 414.00 256.61 L 416.00 275.25 L 418.00 287.88 L 424.00 286.95 L 426.00 286.95 L 428.00 265.51 L 430.00 268.39 L 432.00 254.66 L 438.00 265.51 L 438.00 265.51 L 440.00 257.54 L 444.00 266.44 L 444.00 266.44 L 454.00 264.58 L 456.00 246.02 L 458.00 245.00 L 466.00 220.59 L 470.00 211.86 L 470.00 211.86 L 474.00 222.54 L 482.00 210.85 L 482.00 210.85 L 482.00 210.85 L 482.00 210.85 L 482.00 210.85 L 482.00 210.85 L 482.00 210.85 L 482.00 210.85 L 488.00 210.85 L 488.00 209.83 L 500.00 197.03 L 508.00 175.51 L 508.00 175.51 L 514.00 175.51 L 514.00 175.51 L 524.00 175.51 L 526.00 175.51 L 526.00 175.51 L 526.00 175.51 L 526.00 175.51 L 550.00 175.51 L 552.00 175.51 L 564.00 127.03 L 566.00 100.00 L 566.00 100.00 L 644.00 146.44 L 648.00 146.44 L 650.00 146.44" /><text  class="poloto_labels poloto_text poloto_title" x="400" y="37.5" >lower.com purchase rates</text><text  class="poloto_labels poloto_text poloto_xname" x="400" y="481.25" >Date</text><text  class="poloto_labels poloto_text poloto_yname" transform="rotate(-90,37.5,250)" x="37.5" y="250" >Rate (%)</text><text  class="poloto_tick_labels poloto_text" dominant-baseline="middle" text-anchor="start" x="150" y="70" ></text><line  class="poloto_axis_lines" stroke="black" x1="150" x2="144" y1="390.2542372881356" y2="390.2542372881356" /><line  class="poloto_tick_line" stroke="black" x1="150" x2="650" y1="390.2542372881356" y2="390.2542372881356" /><text  class="poloto_tick_labels poloto_text" dominant-baseline="middle" text-anchor="end" x="135" y="390.2542372881356" >3.625</text><line  class="poloto_axis_lines" stroke="black" x1="150" x2="144" y1="379.66101694915255" y2="379.66101694915255" /><line  class="poloto_tick_line" stroke="black" x1="150" x2="650" y1="379.66101694915255" y2="379.66101694915255" /><text  class="poloto_tick_labels poloto_text" dominant-baseline="middle" text-anchor="end" x="135" y="379.66101694915255" >3.75</text><line  class="poloto_axis_lines" stroke="black" x1="150" x2="144" y1="369.06779661016947" y2="369.06779661016947" /><line  class="poloto_tick_line" stroke="black" x1="150" x2="650" y1="369.06779661016947" y2="369.06779661016947" /><text  class="poloto_tick_labels poloto_text" dominant-baseline="middle" text-anchor="end" x="135" y="369.06779661016947" >3.875</text><line  class="poloto_axis_lines" stroke="black" x1="150" x2="144" y1="358.47457627118644" y2="358.47457627118644" /><line  class="poloto_tick_line" stroke="black" x1="150" x2="650" y1="358.47457627118644" y2="358.47457627118644" /><text  class="poloto_tick_labels poloto_text" dominant-baseline="middle" text-anchor="end" x="135" y="358.47457627118644" >4</text><line  class="poloto_axis_lines" stroke="black" x1="150" x2="144" y1="347.8813559322034" y2="347.8813559322034" /><line  class="poloto_tick_line" stroke="black" x1="150" x2="650" y1="347.8813559322034" y2="347.8813559322034" /><text  class="poloto_tick_labels poloto_text" dominant-baseline="middle" text-anchor="end" x="135" y="347.8813559322034" >4.125</text><line  class="poloto_axis_lines" stroke="black" x1="150" x2="144" y1="337.2881355932203" y2="337.2881355932203" /><line  class="poloto_tick_line" stroke="black" x1="150" x2="650" y1="337.2881355932203" y2="337.2881355932203" /><text  class="poloto_tick_labels poloto_text" dominant-baseline="middle" text-anchor="end" x="135" y="337.2881355932203" >4.25</text><line  class="poloto_axis_lines" stroke="black" x1="150" x2="144" y1="326.6949152542373" y2="326.6949152542373" /><line  class="poloto_tick_line" stroke="black" x1="150" x2="650" y1="326.6949152542373" y2="326.6949152542373" /><text  class="poloto_tick_labels poloto_text" dominant-baseline="middle" text-anchor="end" x="135" y="326.6949152542373" >4.375</text><line  class="poloto_axis_lines" stroke="black" x1="150" x2="144" y1="316.10169491525426" y2="316.10169491525426" /><line  class="poloto_tick_line" stroke="black" x1="150" x2="650" y1="316.10169491525426" y2="316.10169491525426" /><text  class="poloto_tick_labels poloto_text" dominant-baseline="middle" text-anchor="end" x="135" y="316.10169491525426" >4.5</text><line  class="poloto_axis_lines" stroke="black" x1="150" x2="144" y1="305.50847457627117" y2="305.50847457627117" /><line  class="poloto_tick_line" stroke="black" x1="150" x2="650" y1="305.50847457627117" y2="305.50847457627117" /><text  class="poloto_tick_labels poloto_text" dominant-baseline="middle" text-anchor="end" x="135" y="305.50847457627117" >4.625</text><line  class="poloto_axis_lines" stroke="black" x1="150" x2="144" y1="294.91525423728814" y2="294.91525423728814" /><line  class="poloto_tick_line" stroke="black" x1="150" x2="650" y1="294.91525423728814" y2="294.91525423728814" /><text  class="poloto_tick_labels poloto_text" dominant-baseline="middle" text-anchor="end" x="135" y="294.91525423728814" >4.75</text><line  class="poloto_axis_lines" stroke="black" x1="150" x2="144" y1="284.3220338983051" y2="284.3220338983051" /><line  class="poloto_tick_line" stroke="black" x1="150" x2="650" y1="284.3220338983051" y2="284.3220338983051" /><text  class="poloto_tick_labels poloto_text" dominant-baseline="middle" text-anchor="end" x="135" y="284.3220338983051" >4.875</text><line  class="poloto_axis_lines" stroke="black" x1="150" x2="144" y1="273.728813559322" y2="273.728813559322" /><line  class="poloto_tick_line" stroke="black" x1="150" x2="650" y1="273.728813559322" y2="273.728813559322" /><text  class="poloto_tick_labels poloto_text" dominant-baseline="middle" text-anchor="end" x="135" y="273.728813559322" >5</text><line  class="poloto_axis_lines" stroke="black" x1="150" x2="144" y1="263.135593220339" y2="263.135593220339" /><line  class="poloto_tick_line" stroke="black" x1="150" x2="650" y1="263.135593220339" y2="263.135593220339" /><text  class="poloto_tick_labels poloto_text" dominant-baseline="middle" text-anchor="end" x="135" y="263.135593220339" >5.125</text><line  class="poloto_axis_lines" stroke="black" x1="150" x2="144" y1="252.54237288135596" y2="252.54237288135596" /><line  class="poloto_tick_line" stroke="black" x1="150" x2="650" y1="252.54237288135596" y2="252.54237288135596" /><text  class="poloto_tick_labels poloto_text" dominant-baseline="middle" text-anchor="end" x="135" y="252.54237288135596" >5.25</text><line  class="poloto_axis_lines" stroke="black" x1="150" x2="144" y1="241.94915254237287" y2="241.94915254237287" /><line  class="poloto_tick_line" stroke="black" x1="150" x2="650" y1="241.94915254237287" y2="241.94915254237287" /><text  class="poloto_tick_labels poloto_text" dominant-baseline="middle" text-anchor="end" x="135" y="241.94915254237287" >5.375</text><line  class="poloto_axis_lines" stroke="black" x1="150" x2="144" y1="231.35593220338984" y2="231.35593220338984" /><line  class="poloto_tick_line" stroke="black" x1="150" x2="650" y1="231.35593220338984" y2="231.35593220338984" /><text  class="poloto_tick_labels poloto_text" dominant-baseline="middle" text-anchor="end" x="135" y="231.35593220338984" >5.5</text><line  class="poloto_axis_lines" stroke="black" x1="150" x2="144" y1="220.7627118644068" y2="220.7627118644068" /><line  class="poloto_tick_line" stroke="black" x1="150" x2="650" y1="220.7627118644068" y2="220.7627118644068" /><text  class="poloto_tick_labels poloto_text" dominant-baseline="middle" text-anchor="end" x="135" y="220.7627118644068" >5.625</text><line  class="poloto_axis_lines" stroke="black" x1="150" x2="144" y1="210.16949152542372" y2="210.16949152542372" /><line  class="poloto_tick_line" stroke="black" x1="150" x2="650" y1="210.16949152542372" y2="210.16949152542372" /><text  class="poloto_tick_labels poloto_text" dominant-baseline="middle" text-anchor="end" x="135" y="210.16949152542372" >5.75</text><line  class="poloto_axis_lines" stroke="black" x1="150" x2="144" y1="199.5762711864407" y2="199.5762711864407" /><line  class="poloto_tick_line" stroke="black" x1="150" x2="650" y1="199.5762711864407" y2="199.5762711864407" /><text  class="poloto_tick_labels poloto_text" dominant-baseline="middle" text-anchor="end" x="135" y="199.5762711864407" >5.875</text><line  class="poloto_axis_lines" stroke="black" x1="150" x2="144" y1="188.98305084745766" y2="188.98305084745766" /><line  class="poloto_tick_line" stroke="black" x1="150" x2="650" y1="188.98305084745766" y2="188.98305084745766" /><text  class="poloto_tick_labels poloto_text" dominant-baseline="middle" text-anchor="end" x="135" y="188.98305084745766" >6</text><line  class="poloto_axis_lines" stroke="black" x1="150" x2="144" y1="178.38983050847457" y2="178.38983050847457" /><line  class="poloto_tick_line" stroke="black" x1="150" x2="650" y1="178.38983050847457" y2="178.38983050847457" /><text  class="poloto_tick_labels poloto_text" dominant-baseline="middle" text-anchor="end" x="135" y="178.38983050847457" >6.125</text><line  class="poloto_axis_lines" stroke="black" x1="150" x2="144" y1="167.7966101694915" y2="167.7966101694915" /><line  class="poloto_tick_line" stroke="black" x1="150" x2="650" y1="167.7966101694915" y2="167.7966101694915" /><text  class="poloto_tick_labels poloto_text" dominant-baseline="middle" text-anchor="end" x="135" y="167.7966101694915" >6.25</text><line  class="poloto_axis_lines" stroke="black" x1="150" x2="144" y1="157.2033898305085" y2="157.2033898305085" /><line  class="poloto_tick_line" stroke="black" x1="150" x2="650" y1="157.2033898305085" y2="157.2033898305085" /><text  class="poloto_tick_labels poloto_text" dominant-baseline="middle" text-anchor="end" x="135" y="157.2033898305085" >6.375</text><line  class="poloto_axis_lines" stroke="black" x1="150" x2="144" y1="146.61016949152543" y2="146.61016949152543" /><line  class="poloto_tick_line" stroke="black" x1="150" x2="650" y1="146.61016949152543" y2="146.61016949152543" /><text  class="poloto_tick_labels poloto_text" dominant-baseline="middle" text-anchor="end" x="135" y="146.61016949152543" >6.5</text><line  class="poloto_axis_lines" stroke="black" x1="150" x2="144" y1="136.01694915254234" y2="136.01694915254234" /><line  class="poloto_tick_line" stroke="black" x1="150" x2="650" y1="136.01694915254234" y2="136.01694915254234" /><text  class="poloto_tick_labels poloto_text" dominant-baseline="middle" text-anchor="end" x="135" y="136.01694915254234" >6.625</text><line  class="poloto_axis_lines" stroke="black" x1="150" x2="144" y1="125.42372881355936" y2="125.42372881355936" /><line  class="poloto_tick_line" stroke="black" x1="150" x2="650" y1="125.42372881355936" y2="125.42372881355936" /><text  class="poloto_tick_labels poloto_text" dominant-baseline="middle" text-anchor="end" x="135" y="125.42372881355936" >6.75</text><line  class="poloto_axis_lines" stroke="black" x1="150" x2="144" y1="114.83050847457628" y2="114.83050847457628" /><line  class="poloto_tick_line" stroke="black" x1="150" x2="650" y1="114.83050847457628" y2="114.83050847457628" /><text  class="poloto_tick_labels poloto_text" dominant-baseline="middle" text-anchor="end" x="135" y="114.83050847457628" >6.875</text><line  class="poloto_axis_lines" stroke="black" x1="150" x2="144" y1="104.23728813559319" y2="104.23728813559319" /><line  class="poloto_tick_line" stroke="black" x1="150" x2="650" y1="104.23728813559319" y2="104.23728813559319" /><text  class="poloto_tick_labels poloto_text" dominant-baseline="middle" text-anchor="end" x="135" y="104.23728813559319" >7</text><text  class="poloto_tick_labels poloto_text" dominant-baseline="middle" text-anchor="start" x="440.00000000000006" y="70" >¹2022-05-01 00:00:00 UTC in Months</text><line  class="poloto_axis_lines" stroke="black" x1="240" x2="240" y1="400" y2="405" /><line  class="poloto_tick_line" stroke="black" x1="240" x2="240" y1="400" y2="100" /><text  class="poloto_tick_labels poloto_text" dominant-baseline="start" text-anchor="middle" x="240" y="430" >2022 May¹</text><line  class="poloto_axis_lines" stroke="black" x1="362" x2="362" y1="400" y2="405" /><line  class="poloto_tick_line" stroke="black" x1="362" x2="362" y1="400" y2="100" /><text  class="poloto_tick_labels poloto_text" dominant-baseline="start" text-anchor="middle" x="362" y="430" >2022 Jul</text><line  class="poloto_axis_lines" stroke="black" x1="486" x2="486" y1="400" y2="405" /><line  class="poloto_tick_line" stroke="black" x1="486" x2="486" y1="400" y2="100" /><text  class="poloto_tick_labels poloto_text" dominant-baseline="start" text-anchor="middle" x="486" y="430" >2022 Sep</text><line  class="poloto_axis_lines" stroke="black" x1="608" x2="608" y1="400" y2="405" /><line  class="poloto_tick_line" stroke="black" x1="608" x2="608" y1="400" y2="100" /><text  class="poloto_tick_labels poloto_text" dominant-baseline="start" text-anchor="middle" x="608" y="430" >2022 Nov</text><path  stroke="black" fill="none" class="poloto_axis_lines" d=" M 150 400 L 650 400" /><path  stroke="black" fill="none" class="poloto_axis_lines" d=" M 150 400 L 150 100" /></svg>