<svg class="poloto" width="800" height="500" viewBox="0 0 800 500" xmlns="http://www.w3.org/2000/svg"><style>.poloto{stroke-linecap:round;stroke-linejoin:round;font-family:Roboto,sans-serif;font-size:16px;}.poloto_background{fill:#262626;}.poloto_scatter{stroke-width:7}.poloto_tick_line{stroke:dimgray;stroke-width:0.5}.poloto_line{stroke-width:2}.poloto_text{fill: white;}.poloto_axis_lines{stroke: white;stroke-width:3;fill:none;stroke-dasharray:none}.poloto_title{font-size:24px;dominant-baseline:start;text-anchor:middle;}.poloto_xname{font-size:24px;dominant-baseline:start;text-anchor:middle;}.poloto_yname{font-size:24px;dominant-baseline:start;text-anchor:middle;}.poloto0stroke{stroke:blue;}.poloto1stroke{stroke:red;}.poloto2stroke{stroke:green;}.poloto3stroke{stroke:gold;}.poloto4stroke{stroke:aqua;}.poloto5stroke{stroke:lime;}.poloto6stroke{stroke:orange;}.poloto7stroke{stroke:chocolate;}.poloto0fill{fill:blue;}.poloto1fill{fill:red;}.poloto2fill{fill:green;}.poloto3fill{fill:gold;}.poloto4fill{fill:aqua;}.poloto5fill{fill:lime;}.poloto6fill{fill:orange;}.poloto7fill{fill:chocolate;}</style><circle  r="1e5" class="poloto_background" /><text  class="poloto_text poloto_legend_text" x="675" y="100" >Refinance 15</text><line  class="poloto_line poloto_legend_icon poloto0stroke poloto0legend" stroke="black" x1="680" x2="730" y1="81.25" y2="81.25" /><path  class="poloto_line poloto0stroke" fill="none" stroke="black" d=" M 150.00 393.13 L 151.34 400.00 L 155.38 390.27 L 156.72 381.94 L 158.06 390.27 L 158.06 390.27 L 160.75 362.48 L 164.78 361.01 L 166.13 370.74 L 167.47 349.74 L 168.82 351.21 L 170.16 346.81 L 174.19 348.28 L 175.54 342.41 L 175.54 342.41 L 178.23 342.95 L 179.57 321.95 L 183.60 331.06 L 184.95 333.99 L 186.29 333.99 L 187.63 333.22 L 188.98 328.74 L 194.35 289.53 L 195.70 306.97 L 197.04 293.46 L 198.39 288.21 L 198.39 288.21 L 203.76 308.52 L 206.45 312.22 L 207.80 303.96 L 211.83 294.16 L 213.17 313.69 L 214.52 303.96 L 214.52 303.96 L 217.20 302.42 L 221.24 305.43 L 222.58 315.16 L 222.58 315.16 L 223.92 306.90 L 225.27 316.70 L 226.61 302.42 L 230.65 331.76 L 231.99 331.06 L 233.33 315.16 L 233.33 315.16 L 234.68 321.95 L 236.02 324.96 L 240.05 324.96 L 241.40 335.46 L 242.74 335.46 L 244.09 335.46 L 245.43 335.46 L 250.81 324.96 L 252.15 321.95 L 253.49 323.42 L 254.84 323.42 L 254.84 323.42 L 260.22 313.69 L 261.56 313.69 L 262.90 305.43 L 268.28 291.92 L 269.62 264.05 L 270.97 267.14 L 272.31 267.14 L 273.66 286.67 L 277.69 267.14 L 279.03 267.14 L 280.38 285.13 L 281.72 288.21 L 287.10 288.21 L 288.44 286.67 L 289.78 291.22 L 291.13 295.70 L 292.47 305.43 L 297.85 312.22 L 299.19 303.96 L 300.54 297.17 L 301.88 294.16 L 305.91 295.70 L 308.60 295.70 L 309.95 294.16 L 315.32 292.69 L 315.32 292.69 L 315.32 292.69 L 315.32 292.69 L 315.32 292.69 L 315.32 292.69 L 318.01 292.69 L 318.01 292.69 L 318.01 292.69 L 318.01 292.69 L 318.01 292.69 L 318.01 292.69 L 324.73 303.96 L 327.42 306.90 L 328.76 332.53 L 330.11 335.46 L 334.14 335.46 L 335.48 333.99 L 336.83 313.69 L 338.17 308.44 L 339.52 295.70 L 343.55 305.43 L 343.55 305.43 L 344.89 297.17 L 347.58 305.43 L 347.58 305.43 L 354.30 305.43 L 355.65 274.70 L 356.99 292.69 L 362.37 261.89 L 365.05 261.89 L 365.05 261.89 L 367.74 273.16 L 373.12 267.14 L 373.12 267.14 L 373.12 267.14 L 373.12 267.14 L 373.12 267.14 L 373.12 267.14 L 373.12 267.14 L 373.12 267.14 L 373.12 267.14 L 377.15 267.14 L 385.22 247.53 L 390.59 249.85 L 390.59 249.85 L 394.62 249.85 L 400.00 249.85 L 401.34 249.85 L 401.34 249.85 L 401.34 249.85 L 401.34 249.85 L 401.34 249.85 L 418.82 249.85 L 420.16 249.85 L 428.23 162.92 L 429.57 154.66 L 430.91 154.66 L 479.30 180.60 L 484.68 180.60 L 486.02 180.60 L 487.37 195.50 L 490.05 203.68 L 490.05 203.68 L 495.43 203.68 L 496.77 203.68 L 498.12 203.68 L 499.46 203.68 L 503.49 203.68 L 504.84 203.68 L 507.53 203.68 L 508.87 203.68 L 512.90 203.68 L 514.25 203.68 L 514.25 203.68 L 518.28 203.68 L 522.31 203.68 L 523.66 203.68 L 525.00 203.68 L 526.34 203.68 L 527.69 203.68 L 533.06 226.15 L 534.41 200.21 L 535.75 180.60 L 537.10 190.40 L 541.13 190.40 L 542.47 190.40 L 542.47 190.40 L 545.16 211.48 L 546.51 211.48 L 550.54 211.48 L 551.88 211.48 L 553.23 211.48 L 554.57 211.48 L 555.91 211.48 L 555.91 211.48 L 555.91 211.48 L 555.91 211.48 L 562.63 211.48 L 565.32 211.48 L 569.35 211.48 L 570.70 211.48 L 573.39 211.48 L 574.73 211.48 L 580.11 211.48 L 581.45 211.48 L 582.80 211.48 L 584.14 239.27 L 588.17 245.45 L 589.52 209.93 L 590.86 221.28 L 592.20 219.74 L 593.55 201.75 L 597.58 161.07 L 598.92 161.07 L 600.27 161.07 L 601.61 162.61 L 602.96 170.79 L 606.99 162.61 L 608.33 162.61 L 609.68 151.26 L 611.02 161.07 L 612.37 141.46 L 617.74 151.26 L 619.09 152.80 L 620.43 143.08 L 621.77 149.64 L 625.81 155.97 L 627.15 152.80 L 628.49 151.26 L 629.84 151.26 L 631.18 162.61 L 635.22 161.07 L 636.56 152.80 L 640.59 240.81 L 644.62 180.60 L 645.97 182.14 L 647.31 172.41 L 648.66 209.93 L 650.00 239.27" /><text  class="poloto_text poloto_legend_text" x="675" y="150" >Refinance 20</text><line  class="poloto_line poloto_legend_icon poloto1stroke poloto1legend" stroke="black" x1="680" x2="730" y1="131.25" y2="131.25" /><path  class="poloto_line poloto1stroke" fill="none" stroke="black" d=" M 150.00 350.51 L 151.34 371.13 L 155.38 340.40 L 156.72 330.98 L 158.06 339.63 L 158.06 339.63 L 160.75 312.61 L 164.78 310.29 L 166.13 320.10 L 167.47 309.14 L 168.82 318.94 L 170.16 300.57 L 174.19 328.67 L 175.54 300.57 L 175.54 300.57 L 178.23 300.57 L 178.23 300.57 L 183.60 263.51 L 184.95 293.15 L 186.29 300.57 L 187.63 310.29 L 188.98 291.22 L 194.35 272.47 L 195.70 270.07 L 197.04 265.29 L 198.39 254.32 L 202.42 259.11 L 203.76 279.88 L 206.45 272.47 L 207.80 270.07 L 211.83 262.27 L 213.17 271.31 L 214.52 271.31 L 214.52 271.31 L 217.20 271.31 L 221.24 272.47 L 222.58 292.00 L 222.58 292.00 L 223.92 281.03 L 225.27 299.41 L 226.61 292.00 L 230.65 293.15 L 231.99 292.00 L 233.33 292.00 L 233.33 292.00 L 234.68 293.15 L 236.02 299.41 L 240.05 300.57 L 241.40 304.04 L 242.74 304.04 L 244.09 304.04 L 245.43 304.04 L 250.81 299.41 L 252.15 289.60 L 253.49 292.00 L 254.84 292.00 L 254.84 292.00 L 260.22 279.88 L 261.56 282.19 L 262.90 273.62 L 268.28 232.24 L 269.62 215.11 L 270.97 224.91 L 272.31 232.24 L 273.66 252.93 L 277.69 240.74 L 279.03 234.64 L 280.38 254.17 L 281.72 263.51 L 287.10 263.51 L 288.44 252.93 L 289.78 262.74 L 291.13 272.47 L 292.47 283.43 L 297.85 290.76 L 299.19 281.03 L 300.54 271.31 L 301.88 264.67 L 305.91 270.07 L 308.60 272.47 L 309.95 271.31 L 315.32 272.47 L 315.32 272.47 L 315.32 272.47 L 315.32 272.47 L 315.32 272.47 L 315.32 272.47 L 315.32 272.47 L 315.32 272.47 L 315.32 272.47 L 315.32 272.47 L 315.32 272.47 L 315.32 272.47 L 324.73 290.76 L 327.42 293.15 L 328.76 310.29 L 330.11 312.61 L 334.14 310.06 L 335.48 310.06 L 336.83 300.57 L 338.17 304.04 L 339.52 289.60 L 343.55 282.19 L 343.55 282.19 L 344.89 282.19 L 347.58 292.00 L 347.58 292.00 L 354.30 289.60 L 355.65 272.47 L 356.99 272.47 L 362.37 259.88 L 365.05 249.31 L 365.05 249.31 L 367.74 261.12 L 373.12 232.24 L 373.12 232.24 L 373.12 232.24 L 373.12 232.24 L 373.12 232.24 L 373.12 232.24 L 373.12 232.24 L 373.12 232.24 L 373.12 232.24 L 377.15 232.24 L 385.22 219.97 L 390.59 221.20 L 393.28 221.20 L 394.62 221.20 L 394.62 221.20 L 401.34 221.20 L 402.69 221.20 L 402.69 221.20 L 402.69 221.20 L 402.69 221.20 L 418.82 221.20 L 420.16 221.20 L 428.23 143.85 L 429.57 129.41 L 429.57 129.41 L 481.99 177.12 L 484.68 177.12 L 486.02 177.12 L 488.71 194.26 L 490.05 195.50 L 490.05 195.50 L 495.43 195.50 L 496.77 195.50 L 498.12 195.50 L 499.46 195.50 L 503.49 195.50 L 504.84 195.50 L 507.53 195.50 L 508.87 195.50 L 512.90 195.50 L 514.25 195.50 L 514.25 195.50 L 518.28 195.50 L 522.31 195.50 L 523.66 195.50 L 525.00 195.50 L 526.34 195.50 L 527.69 195.50 L 533.06 178.05 L 534.41 168.55 L 535.75 167.32 L 537.10 169.87 L 541.13 169.87 L 542.47 169.87 L 542.47 169.87 L 545.16 188.16 L 546.51 188.16 L 550.54 188.16 L 551.88 188.16 L 553.23 188.16 L 554.57 188.16 L 555.91 188.16 L 555.91 188.16 L 561.29 188.16 L 561.29 188.16 L 562.63 188.16 L 565.32 188.16 L 569.35 188.16 L 570.70 188.16 L 573.39 188.16 L 574.73 188.16 L 580.11 188.16 L 581.45 188.16 L 582.80 188.16 L 584.14 209.01 L 588.17 207.77 L 589.52 178.36 L 590.86 179.59 L 590.86 179.59 L 593.55 178.36 L 597.58 158.75 L 598.92 158.75 L 600.27 150.26 L 601.61 140.45 L 602.96 149.02 L 606.99 140.45 L 608.33 130.65 L 609.68 140.45 L 611.02 150.26 L 612.37 139.22 L 617.74 140.45 L 619.09 129.41 L 620.43 100.00 L 621.77 129.41 L 625.81 150.26 L 627.15 169.17 L 628.49 140.45 L 629.84 139.22 L 631.18 167.32 L 635.22 160.06 L 636.56 150.26 L 640.59 210.24 L 644.62 168.55 L 645.97 158.75 L 647.31 160.06 L 648.66 188.16 L 650.00 189.40" /><text  class="poloto_text poloto_legend_text" x="675" y="200" >Refinance 30</text><line  class="poloto_line poloto_legend_icon poloto2stroke poloto2legend" stroke="black" x1="680" x2="730" y1="181.25" y2="181.25" /><path  class="poloto_line poloto2stroke" fill="none" stroke="black" d=" M 150.00 348.35 L 151.34 355.69 L 155.38 344.26 L 156.72 335.31 L 158.06 337.00 L 158.06 337.00 L 160.75 318.24 L 164.78 316.62 L 166.13 326.35 L 167.47 315.77 L 168.82 325.50 L 170.16 306.82 L 174.19 315.77 L 175.54 297.01 L 176.88 297.01 L 178.23 296.17 L 179.57 272.47 L 183.60 276.63 L 184.95 287.29 L 186.29 297.01 L 187.63 288.14 L 188.98 277.48 L 194.35 269.38 L 195.70 256.18 L 197.04 254.40 L 198.39 252.55 L 202.42 256.18 L 203.76 271.31 L 206.45 269.38 L 207.80 267.60 L 211.83 257.95 L 213.17 268.45 L 214.52 257.95 L 214.52 257.95 L 217.20 257.95 L 221.24 259.73 L 222.58 276.63 L 222.58 276.63 L 223.92 268.45 L 225.27 269.38 L 226.61 270.23 L 230.65 277.48 L 231.99 269.38 L 233.33 269.38 L 233.33 269.38 L 234.68 278.33 L 236.02 279.26 L 240.05 280.11 L 241.40 288.14 L 242.74 288.14 L 244.09 289.84 L 245.43 289.84 L 250.81 286.36 L 252.15 276.63 L 253.49 278.33 L 254.84 277.48 L 254.84 277.48 L 260.22 268.45 L 261.56 268.45 L 262.90 258.80 L 268.28 219.74 L 269.62 192.10 L 270.97 209.01 L 272.31 219.74 L 273.66 229.46 L 277.69 220.59 L 279.03 219.74 L 280.38 237.49 L 281.72 239.27 L 287.10 239.27 L 288.44 228.62 L 289.78 237.49 L 291.13 247.22 L 292.47 268.45 L 297.85 269.38 L 299.19 258.80 L 300.54 240.20 L 301.88 237.49 L 305.91 255.25 L 308.60 239.27 L 309.95 238.34 L 315.32 256.18 L 315.32 256.18 L 315.32 256.18 L 315.32 256.18 L 315.32 256.18 L 315.32 256.18 L 318.01 256.18 L 318.01 256.18 L 318.01 256.18 L 318.01 256.18 L 318.01 256.18 L 318.01 256.18 L 324.73 267.60 L 327.42 269.38 L 328.76 286.36 L 330.11 297.86 L 334.14 297.01 L 335.48 297.01 L 336.83 277.48 L 338.17 280.11 L 339.52 267.60 L 343.55 277.48 L 343.55 277.48 L 344.89 270.23 L 347.58 278.33 L 347.58 278.33 L 354.30 276.63 L 355.65 259.73 L 356.99 258.80 L 362.37 236.57 L 365.05 228.62 L 365.05 228.62 L 367.74 238.34 L 373.12 227.69 L 373.12 227.69 L 373.12 227.69 L 373.12 227.69 L 373.12 227.69 L 373.12 227.69 L 373.12 227.69 L 373.12 227.69 L 377.15 227.69 L 377.15 226.76 L 385.22 215.11 L 390.59 195.50 L 390.59 195.50 L 394.62 195.50 L 394.62 195.50 L 401.34 195.50 L 402.69 195.50 L 402.69 195.50 L 402.69 195.50 L 402.69 195.50 L 418.82 195.50 L 420.16 195.50 L 428.23 151.34 L 429.57 126.71 L 429.57 126.71 L 481.99 169.02 L 484.68 169.02 L 486.02 169.02 L 487.37 172.95 L 490.05 181.91 L 490.05 181.91 L 495.43 181.91 L 496.77 181.91 L 498.12 181.91 L 499.46 181.91 L 503.49 181.91 L 504.84 181.91 L 507.53 181.91 L 508.87 181.91 L 512.90 181.91 L 514.25 181.91 L 514.25 181.91 L 518.28 181.91 L 522.31 181.91 L 523.66 181.91 L 525.00 181.91 L 526.34 181.91 L 527.69 181.91 L 533.06 167.01 L 534.41 174.88 L 535.75 156.20 L 537.10 174.88 L 541.13 174.88 L 542.47 174.88 L 542.47 174.88 L 545.16 174.88 L 546.51 174.88 L 550.54 174.88 L 551.88 174.88 L 553.23 174.88 L 554.57 174.88 L 555.91 174.88 L 555.91 174.88 L 561.29 174.88 L 561.29 174.88 L 562.63 174.88 L 565.32 174.88 L 569.35 174.88 L 570.70 174.88 L 573.39 174.88 L 574.73 174.88 L 580.11 174.88 L 581.45 174.88 L 582.80 174.88 L 584.14 224.91 L 588.17 215.11 L 589.52 175.89 L 590.86 205.30 L 592.20 175.89 L 593.55 166.01 L 597.58 156.20 L 598.92 156.20 L 600.27 147.32 L 601.61 137.52 L 602.96 146.40 L 606.99 146.40 L 608.33 135.59 L 609.68 127.71 L 611.02 137.52 L 612.37 128.72 L 617.74 127.71 L 619.09 116.91 L 620.43 116.91 L 621.77 126.71 L 625.81 127.71 L 627.15 117.91 L 628.49 125.78 L 629.84 117.91 L 631.18 147.32 L 635.22 147.32 L 636.56 127.71 L 640.59 206.23 L 644.62 147.32 L 645.97 146.40 L 647.31 146.40 L 648.66 176.81 L 650.00 176.81" /><text  class="poloto_labels poloto_text poloto_title" x="400" y="37.5" >lower.com purchase rates</text><text  class="poloto_labels poloto_text poloto_xname" x="400" y="481.25" >Date</text><text  class="poloto_labels poloto_text poloto_yname" transform="rotate(-90,37.5,250)" x="37.5" y="250" >Rate (%)</text><text  class="poloto_tick_labels poloto_text" dominant-baseline="middle" text-anchor="start" x="150" y="70" ></text><line  class="poloto_axis_lines" stroke="black" x1="150" x2="144" y1="391.12197632527017" y2="391.12197632527017" /><line  class="poloto_tick_line" stroke="black" x1="150" x2="650" y1="391.12197632527017" y2="391.12197632527017" /><text  class="poloto_tick_labels poloto_text" dominant-baseline="middle" text-anchor="end" x="135" y="391.12197632527017" >3.625</text><line  class="poloto_axis_lines" stroke="black" x1="150" x2="144" y1="381.4719505918682" y2="381.4719505918682" /><line  class="poloto_tick_line" stroke="black" x1="150" x2="650" y1="381.4719505918682" y2="381.4719505918682" /><text  class="poloto_tick_labels poloto_text" dominant-baseline="middle" text-anchor="end" x="135" y="381.4719505918682" >3.75</text><line  class="poloto_axis_lines" stroke="black" x1="150" x2="144" y1="371.8219248584663" y2="371.8219248584663" /><line  class="poloto_tick_line" stroke="black" x1="150" x2="650" y1="371.8219248584663" y2="371.8219248584663" /><text  class="poloto_tick_labels poloto_text" dominant-baseline="middle" text-anchor="end" x="135" y="371.8219248584663" >3.875</text><line  class="poloto_axis_lines" stroke="black" x1="150" x2="144" y1="362.17189912506433" y2="362.17189912506433" /><line  class="poloto_tick_line" stroke="black" x1="150" x2="650" y1="362.17189912506433" y2="362.17189912506433" /><text  class="poloto_tick_labels poloto_text" dominant-baseline="middle" text-anchor="end" x="135" y="362.17189912506433" >4</text><line  class="poloto_axis_lines" stroke="black" x1="150" x2="144" y1="352.5218733916624" y2="352.5218733916624" /><line  class="poloto_tick_line" stroke="black" x1="150" x2="650" y1="352.5218733916624" y2="352.5218733916624" /><text  class="poloto_tick_labels poloto_text" dominant-baseline="middle" text-anchor="end" x="135" y="352.5218733916624" >4.125</text><line  class="poloto_axis_lines" stroke="black" x1="150" x2="144" y1="342.87184765826044" y2="342.87184765826044" /><line  class="poloto_tick_line" stroke="black" x1="150" x2="650" y1="342.87184765826044" y2="342.87184765826044" /><text  class="poloto_tick_labels poloto_text" dominant-baseline="middle" text-anchor="end" x="135" y="342.87184765826044" >4.25</text><line  class="poloto_axis_lines" stroke="black" x1="150" x2="144" y1="333.2218219248585" y2="333.2218219248585" /><line  class="poloto_tick_line" stroke="black" x1="150" x2="650" y1="333.2218219248585" y2="333.2218219248585" /><text  class="poloto_tick_labels poloto_text" dominant-baseline="middle" text-anchor="end" x="135" y="333.2218219248585" >4.375</text><line  class="poloto_axis_lines" stroke="black" x1="150" x2="144" y1="323.5717961914565" y2="323.5717961914565" /><line  class="poloto_tick_line" stroke="black" x1="150" x2="650" y1="323.5717961914565" y2="323.5717961914565" /><text  class="poloto_tick_labels poloto_text" dominant-baseline="middle" text-anchor="end" x="135" y="323.5717961914565" >4.5</text><line  class="poloto_axis_lines" stroke="black" x1="150" x2="144" y1="313.92177045805454" y2="313.92177045805454" /><line  class="poloto_tick_line" stroke="black" x1="150" x2="650" y1="313.92177045805454" y2="313.92177045805454" /><text  class="poloto_tick_labels poloto_text" dominant-baseline="middle" text-anchor="end" x="135" y="313.92177045805454" >4.625</text><line  class="poloto_axis_lines" stroke="black" x1="150" x2="144" y1="304.2717447246526" y2="304.2717447246526" /><line  class="poloto_tick_line" stroke="black" x1="150" x2="650" y1="304.2717447246526" y2="304.2717447246526" /><text  class="poloto_tick_labels poloto_text" dominant-baseline="middle" text-anchor="end" x="135" y="304.2717447246526" >4.75</text><line  class="poloto_axis_lines" stroke="black" x1="150" x2="144" y1="294.62171899125065" y2="294.62171899125065" /><line  class="poloto_tick_line" stroke="black" x1="150" x2="650" y1="294.62171899125065" y2="294.62171899125065" /><text  class="poloto_tick_labels poloto_text" dominant-baseline="middle" text-anchor="end" x="135" y="294.62171899125065" >4.875</text><line  class="poloto_axis_lines" stroke="black" x1="150" x2="144" y1="284.9716932578487" y2="284.9716932578487" /><line  class="poloto_tick_line" stroke="black" x1="150" x2="650" y1="284.9716932578487" y2="284.9716932578487" /><text  class="poloto_tick_labels poloto_text" dominant-baseline="middle" text-anchor="end" x="135" y="284.9716932578487" >5</text><line  class="poloto_axis_lines" stroke="black" x1="150" x2="144" y1="275.32166752444675" y2="275.32166752444675" /><line  class="poloto_tick_line" stroke="black" x1="150" x2="650" y1="275.32166752444675" y2="275.32166752444675" /><text  class="poloto_tick_labels poloto_text" dominant-baseline="middle" text-anchor="end" x="135" y="275.32166752444675" >5.125</text><line  class="poloto_axis_lines" stroke="black" x1="150" x2="144" y1="265.67164179104475" y2="265.67164179104475" /><line  class="poloto_tick_line" stroke="black" x1="150" x2="650" y1="265.67164179104475" y2="265.67164179104475" /><text  class="poloto_tick_labels poloto_text" dominant-baseline="middle" text-anchor="end" x="135" y="265.67164179104475" >5.25</text><line  class="poloto_axis_lines" stroke="black" x1="150" x2="144" y1="256.0216160576428" y2="256.0216160576428" /><line  class="poloto_tick_line" stroke="black" x1="150" x2="650" y1="256.0216160576428" y2="256.0216160576428" /><text  class="poloto_tick_labels poloto_text" dominant-baseline="middle" text-anchor="end" x="135" y="256.0216160576428" >5.375</text><line  class="poloto_axis_lines" stroke="black" x1="150" x2="144" y1="246.37159032424086" y2="246.37159032424086" /><line  class="poloto_tick_line" stroke="black" x1="150" x2="650" y1="246.37159032424086" y2="246.37159032424086" /><text  class="poloto_tick_labels poloto_text" dominant-baseline="middle" text-anchor="end" x="135" y="246.37159032424086" >5.5</text><line  class="poloto_axis_lines" stroke="black" x1="150" x2="144" y1="236.7215645908389" y2="236.7215645908389" /><line  class="poloto_tick_line" stroke="black" x1="150" x2="650" y1="236.7215645908389" y2="236.7215645908389" /><text  class="poloto_tick_labels poloto_text" dominant-baseline="middle" text-anchor="end" x="135" y="236.7215645908389" >5.625</text><line  class="poloto_axis_lines" stroke="black" x1="150" x2="144" y1="227.07153885743696" y2="227.07153885743696" /><line  class="poloto_tick_line" stroke="black" x1="150" x2="650" y1="227.07153885743696" y2="227.07153885743696" /><text  class="poloto_tick_labels poloto_text" dominant-baseline="middle" text-anchor="end" x="135" y="227.07153885743696" >5.75</text><line  class="poloto_axis_lines" stroke="black" x1="150" x2="144" y1="217.42151312403502" y2="217.42151312403502" /><line  class="poloto_tick_line" stroke="black" x1="150" x2="650" y1="217.42151312403502" y2="217.42151312403502" /><text  class="poloto_tick_labels poloto_text" dominant-baseline="middle" text-anchor="end" x="135" y="217.42151312403502" >5.875</text><line  class="poloto_axis_lines" stroke="black" x1="150" x2="144" y1="207.771487390633" y2="207.771487390633" /><line  class="poloto_tick_line" stroke="black" x1="150" x2="650" y1="207.771487390633" y2="207.771487390633" /><text  class="poloto_tick_labels poloto_text" dominant-baseline="middle" text-anchor="end" x="135" y="207.771487390633" >6</text><line  class="poloto_axis_lines" stroke="black" x1="150" x2="144" y1="198.12146165723107" y2="198.12146165723107" /><line  class="poloto_tick_line" stroke="black" x1="150" x2="650" y1="198.12146165723107" y2="198.12146165723107" /><text  class="poloto_tick_labels poloto_text" dominant-baseline="middle" text-anchor="end" x="135" y="198.12146165723107" >6.125</text><line  class="poloto_axis_lines" stroke="black" x1="150" x2="144" y1="188.47143592382912" y2="188.47143592382912" /><line  class="poloto_tick_line" stroke="black" x1="150" x2="650" y1="188.47143592382912" y2="188.47143592382912" /><text  class="poloto_tick_labels poloto_text" dominant-baseline="middle" text-anchor="end" x="135" y="188.47143592382912" >6.25</text><line  class="poloto_axis_lines" stroke="black" x1="150" x2="144" y1="178.82141019042717" y2="178.82141019042717" /><line  class="poloto_tick_line" stroke="black" x1="150" x2="650" y1="178.82141019042717" y2="178.82141019042717" /><text  class="poloto_tick_labels poloto_text" dominant-baseline="middle" text-anchor="end" x="135" y="178.82141019042717" >6.375</text><line  class="poloto_axis_lines" stroke="black" x1="150" x2="144" y1="169.17138445702523" y2="169.17138445702523" /><line  class="poloto_tick_line" stroke="black" x1="150" x2="650" y1="169.17138445702523" y2="169.17138445702523" /><text  class="poloto_tick_labels poloto_text" dominant-baseline="middle" text-anchor="end" x="135" y="169.17138445702523" >6.5</text><line  class="poloto_axis_lines" stroke="black" x1="150" x2="144" y1="159.52135872362328" y2="159.52135872362328" /><line  class="poloto_tick_line" stroke="black" x1="150" x2="650" y1="159.52135872362328" y2="159.52135872362328" /><text  class="poloto_tick_labels poloto_text" dominant-baseline="middle" text-anchor="end" x="135" y="159.52135872362328" >6.625</text><line  class="poloto_axis_lines" stroke="black" x1="150" x2="144" y1="149.87133299022133" y2="149.87133299022133" /><line  class="poloto_tick_line" stroke="black" x1="150" x2="650" y1="149.87133299022133" y2="149.87133299022133" /><text  class="poloto_tick_labels poloto_text" dominant-baseline="middle" text-anchor="end" x="135" y="149.87133299022133" >6.75</text><line  class="poloto_axis_lines" stroke="black" x1="150" x2="144" y1="140.22130725681933" y2="140.22130725681933" /><line  class="poloto_tick_line" stroke="black" x1="150" x2="650" y1="140.22130725681933" y2="140.22130725681933" /><text  class="poloto_tick_labels poloto_text" dominant-baseline="middle" text-anchor="end" x="135" y="140.22130725681933" >6.875</text><line  class="poloto_axis_lines" stroke="black" x1="150" x2="144" y1="130.57128152341744" y2="130.57128152341744" /><line  class="poloto_tick_line" stroke="black" x1="150" x2="650" y1="130.57128152341744" y2="130.57128152341744" /><text  class="poloto_tick_labels poloto_text" dominant-baseline="middle" text-anchor="end" x="135" y="130.57128152341744" >7</text><line  class="poloto_axis_lines" stroke="black" x1="150" x2="144" y1="120.92125579001544" y2="120.92125579001544" /><line  class="poloto_tick_line" stroke="black" x1="150" x2="650" y1="120.92125579001544" y2="120.92125579001544" /><text  class="poloto_tick_labels poloto_text" dominant-baseline="middle" text-anchor="end" x="135" y="120.92125579001544" >7.125</text><line  class="poloto_axis_lines" stroke="black" x1="150" x2="144" y1="111.27123005661343" y2="111.27123005661343" /><line  class="poloto_tick_line" stroke="black" x1="150" x2="650" y1="111.27123005661343" y2="111.27123005661343" /><text  class="poloto_tick_labels poloto_text" dominant-baseline="middle" text-anchor="end" x="135" y="111.27123005661343" >7.25</text><line  class="poloto_axis_lines" stroke="black" x1="150" x2="144" y1="101.62120432321154" y2="101.62120432321154" /><line  class="poloto_tick_line" stroke="black" x1="150" x2="650" y1="101.62120432321154" y2="101.62120432321154" /><text  class="poloto_tick_labels poloto_text" dominant-baseline="middle" text-anchor="end" x="135" y="101.62120432321154" >7.375</text><text  class="poloto_tick_labels poloto_text" dominant-baseline="middle" text-anchor="start" x="440.00000000000006" y="70" >¹2022-05-01 00:00:00 UTC in Months</text><line  class="poloto_axis_lines" stroke="black" x1="210.48387096773877" x2="210.48387096773877" y1="400" y2="405" /><line  class="poloto_tick_line" stroke="black" x1="210.48387096773877" x2="210.48387096773877" y1="400" y2="100.00000000000006" /><text  class="poloto_tick_labels poloto_text" dominant-baseline="start" text-anchor="middle" x="210.48387096773877" y="430" >2022 May¹</text><line  class="poloto_axis_lines" stroke="black" x1="292.47311827956946" x2="292.47311827956946" y1="400" y2="405" /><line  class="poloto_tick_line" stroke="black" x1="292.47311827956946" x2="292.47311827956946" y1="400" y2="100.00000000000006" /><text  class="poloto_tick_labels poloto_text" dominant-baseline="start" text-anchor="middle" x="292.47311827956946" y="430" >2022 Jul</text><line  class="poloto_axis_lines" stroke="black" x1="375.8064516129016" x2="375.8064516129016" y1="400" y2="405" /><line  class="poloto_tick_line" stroke="black" x1="375.8064516129016" x2="375.8064516129016" y1="400" y2="100.00000000000006" /><text  class="poloto_tick_labels poloto_text" dominant-baseline="start" text-anchor="middle" x="375.8064516129016" y="430" >2022 Sep</text><line  class="poloto_axis_lines" stroke="black" x1="457.79569892472864" x2="457.79569892472864" y1="400" y2="405" /><line  class="poloto_tick_line" stroke="black" x1="457.79569892472864" x2="457.79569892472864" y1="400" y2="100.00000000000006" /><text  class="poloto_tick_labels poloto_text" dominant-baseline="start" text-anchor="middle" x="457.79569892472864" y="430" >2022 Nov</text><line  class="poloto_axis_lines" stroke="black" x1="539.7849462365593" x2="539.7849462365593" y1="400" y2="405" /><line  class="poloto_tick_line" stroke="black" x1="539.7849462365593" x2="539.7849462365593" y1="400" y2="100.00000000000006" /><text  class="poloto_tick_labels poloto_text" dominant-baseline="start" text-anchor="middle" x="539.7849462365593" y="430" >2023 Jan</text><line  class="poloto_axis_lines" stroke="black" x1="619.0860215053763" x2="619.0860215053763" y1="400" y2="405" /><line  class="poloto_tick_line" stroke="black" x1="619.0860215053763" x2="619.0860215053763" y1="400" y2="100.00000000000006" /><text  class="poloto_tick_labels poloto_text" dominant-baseline="start" text-anchor="middle" x="619.0860215053763" y="430" >2023 Mar</text><path  stroke="black" fill="none" class="poloto_axis_lines" d=" M 150 400 L 650 400" /><path  stroke="black" fill="none" class="poloto_axis_lines" d=" M 150 400 L 150 100.00000000000006" /></svg>