<svg class="poloto" width="800" height="500" viewBox="0 0 800 500" xmlns="http://www.w3.org/2000/svg"><style>.poloto{stroke-linecap:round;stroke-linejoin:round;font-family:Roboto,sans-serif;font-size:16px;}.poloto_background{fill:#262626;}.poloto_scatter{stroke-width:7}.poloto_tick_line{stroke:dimgray;stroke-width:0.5}.poloto_line{stroke-width:2}.poloto_text{fill: white;}.poloto_axis_lines{stroke: white;stroke-width:3;fill:none;stroke-dasharray:none}.poloto_title{font-size:24px;dominant-baseline:start;text-anchor:middle;}.poloto_xname{font-size:24px;dominant-baseline:start;text-anchor:middle;}.poloto_yname{font-size:24px;dominant-baseline:start;text-anchor:middle;}.poloto0stroke{stroke:blue;}.poloto1stroke{stroke:red;}.poloto2stroke{stroke:green;}.poloto3stroke{stroke:gold;}.poloto4stroke{stroke:aqua;}.poloto5stroke{stroke:lime;}.poloto6stroke{stroke:orange;}.poloto7stroke{stroke:chocolate;}.poloto0fill{fill:blue;}.poloto1fill{fill:red;}.poloto2fill{fill:green;}.poloto3fill{fill:gold;}.poloto4fill{fill:aqua;}.poloto5fill{fill:lime;}.poloto6fill{fill:orange;}.poloto7fill{fill:chocolate;}</style><circle  r="1e5" class="poloto_background" /><text  class="poloto_text poloto_legend_text" x="675" y="100" >Refinance 15</text><line  class="poloto_line poloto_legend_icon poloto0stroke poloto0legend" stroke="black" x1="680" x2="730" y1="81.25" y2="81.25" /><path  class="poloto_line poloto0stroke" fill="none" stroke="black" d=" M 150.00 392.46 L 151.48 400.00 L 155.93 389.32 L 157.42 380.17 L 158.90 389.32 L 158.90 389.32 L 161.87 358.81 L 166.32 357.20 L 167.80 367.88 L 169.29 344.83 L 170.77 346.44 L 172.26 341.61 L 176.71 343.22 L 178.19 336.78 L 178.19 336.78 L 181.16 337.37 L 182.64 314.32 L 187.09 324.32 L 188.58 327.54 L 190.06 327.54 L 191.54 326.69 L 193.03 321.78 L 198.96 278.73 L 200.45 297.88 L 201.93 283.05 L 203.41 277.29 L 203.41 277.29 L 209.35 299.58 L 212.31 303.64 L 213.80 294.58 L 218.25 283.81 L 219.73 305.25 L 221.22 294.58 L 221.22 294.58 L 224.18 292.88 L 228.64 296.19 L 230.12 306.86 L 230.12 306.86 L 231.60 297.80 L 233.09 308.56 L 234.57 292.88 L 239.02 325.08 L 240.50 324.32 L 241.99 306.86 L 241.99 306.86 L 243.47 314.32 L 244.96 317.63 L 249.41 317.63 L 250.89 329.15 L 252.37 329.15 L 253.86 329.15 L 255.34 329.15 L 261.28 317.63 L 262.76 314.32 L 264.24 315.93 L 265.73 315.93 L 265.73 315.93 L 271.66 305.25 L 273.15 305.25 L 274.63 296.19 L 280.56 281.36 L 282.05 250.76 L 283.53 254.15 L 285.01 254.15 L 286.50 275.59 L 290.95 254.15 L 292.43 254.15 L 293.92 273.90 L 295.40 277.29 L 301.34 277.29 L 302.82 275.59 L 304.30 280.59 L 305.79 285.51 L 307.27 296.19 L 313.20 303.64 L 314.69 294.58 L 316.17 287.12 L 317.66 283.81 L 322.11 285.51 L 325.07 285.51 L 326.56 283.81 L 332.49 282.20 L 332.49 282.20 L 332.49 282.20 L 332.49 282.20 L 332.49 282.20 L 332.49 282.20 L 335.46 282.20 L 335.46 282.20 L 335.46 282.20 L 335.46 282.20 L 335.46 282.20 L 335.46 282.20 L 342.88 294.58 L 345.85 297.80 L 347.33 325.93 L 348.81 329.15 L 353.26 329.15 L 354.75 327.54 L 356.23 305.25 L 357.72 299.49 L 359.20 285.51 L 363.65 296.19 L 363.65 296.19 L 365.13 287.12 L 368.10 296.19 L 368.10 296.19 L 375.52 296.19 L 377.00 262.46 L 378.49 282.20 L 384.42 248.39 L 387.39 248.39 L 387.39 248.39 L 390.36 260.76 L 396.29 254.15 L 396.29 254.15 L 396.29 254.15 L 396.29 254.15 L 396.29 254.15 L 396.29 254.15 L 396.29 254.15 L 396.29 254.15 L 396.29 254.15 L 400.74 254.15 L 409.64 232.63 L 415.58 235.17 L 415.58 235.17 L 420.03 235.17 L 425.96 235.17 L 427.45 235.17 L 427.45 235.17 L 427.45 235.17 L 427.45 235.17 L 427.45 235.17 L 446.74 235.17 L 448.22 235.17 L 457.12 139.75 L 458.61 130.68 L 460.09 130.68 L 513.50 159.15 L 519.44 159.15 L 520.92 159.15 L 522.40 175.51 L 525.37 184.49 L 525.37 184.49 L 531.31 184.49 L 532.79 184.49 L 534.27 184.49 L 535.76 184.49 L 540.21 184.49 L 541.69 184.49 L 544.66 184.49 L 546.14 184.49 L 550.59 184.49 L 552.08 184.49 L 552.08 184.49 L 556.53 184.49 L 560.98 184.49 L 562.46 184.49 L 563.95 184.49 L 565.43 184.49 L 566.91 184.49 L 572.85 209.15 L 574.33 180.68 L 575.82 159.15 L 577.30 169.92 L 581.75 169.92 L 583.23 169.92 L 583.23 169.92 L 586.20 193.05 L 587.69 193.05 L 592.14 193.05 L 593.62 193.05 L 595.10 193.05 L 596.59 193.05 L 598.07 193.05 L 598.07 193.05 L 598.07 193.05 L 598.07 193.05 L 605.49 193.05 L 608.46 193.05 L 612.91 193.05 L 614.39 193.05 L 617.36 193.05 L 618.84 193.05 L 624.78 193.05 L 626.26 193.05 L 627.74 193.05 L 629.23 223.56 L 633.68 230.34 L 635.16 191.36 L 636.65 203.81 L 638.13 202.12 L 639.61 182.37 L 644.07 137.71 L 645.55 137.71 L 647.03 137.71 L 648.52 139.41 L 650.00 148.39" /><text  class="poloto_text poloto_legend_text" x="675" y="150" >Refinance 20</text><line  class="poloto_line poloto_legend_icon poloto1stroke poloto1legend" stroke="black" x1="680" x2="730" y1="131.25" y2="131.25" /><path  class="poloto_line poloto1stroke" fill="none" stroke="black" d=" M 150.00 345.68 L 151.48 368.31 L 155.93 334.58 L 157.42 324.24 L 158.90 333.73 L 158.90 333.73 L 161.87 304.07 L 166.32 301.53 L 167.80 312.29 L 169.29 300.25 L 170.77 311.02 L 172.26 290.85 L 176.71 321.69 L 178.19 290.85 L 178.19 290.85 L 181.16 290.85 L 181.16 290.85 L 187.09 250.17 L 188.58 282.71 L 190.06 290.85 L 191.54 301.53 L 193.03 280.59 L 198.96 260.00 L 200.45 257.37 L 201.93 252.12 L 203.41 240.08 L 207.86 245.34 L 209.35 268.14 L 212.31 260.00 L 213.80 257.37 L 218.25 248.81 L 219.73 258.73 L 221.22 258.73 L 221.22 258.73 L 224.18 258.73 L 228.64 260.00 L 230.12 281.44 L 230.12 281.44 L 231.60 269.41 L 233.09 289.58 L 234.57 281.44 L 239.02 282.71 L 240.50 281.44 L 241.99 281.44 L 241.99 281.44 L 243.47 282.71 L 244.96 289.58 L 249.41 290.85 L 250.89 294.66 L 252.37 294.66 L 253.86 294.66 L 255.34 294.66 L 261.28 289.58 L 262.76 278.81 L 264.24 281.44 L 265.73 281.44 L 265.73 281.44 L 271.66 268.14 L 273.15 270.68 L 274.63 261.27 L 280.56 215.85 L 282.05 197.03 L 283.53 207.80 L 285.01 215.85 L 286.50 238.56 L 290.95 225.17 L 292.43 218.47 L 293.92 239.92 L 295.40 250.17 L 301.34 250.17 L 302.82 238.56 L 304.30 249.32 L 305.79 260.00 L 307.27 272.03 L 313.20 280.08 L 314.69 269.41 L 316.17 258.73 L 317.66 251.44 L 322.11 257.37 L 325.07 260.00 L 326.56 258.73 L 332.49 260.00 L 332.49 260.00 L 332.49 260.00 L 332.49 260.00 L 332.49 260.00 L 332.49 260.00 L 332.49 260.00 L 332.49 260.00 L 332.49 260.00 L 332.49 260.00 L 332.49 260.00 L 332.49 260.00 L 342.88 280.08 L 345.85 282.71 L 347.33 301.53 L 348.81 304.07 L 353.26 301.27 L 354.75 301.27 L 356.23 290.85 L 357.72 294.66 L 359.20 278.81 L 363.65 270.68 L 363.65 270.68 L 365.13 270.68 L 368.10 281.44 L 368.10 281.44 L 375.52 278.81 L 377.00 260.00 L 378.49 260.00 L 384.42 246.19 L 387.39 234.58 L 387.39 234.58 L 390.36 247.54 L 396.29 215.85 L 396.29 215.85 L 396.29 215.85 L 396.29 215.85 L 396.29 215.85 L 396.29 215.85 L 396.29 215.85 L 396.29 215.85 L 396.29 215.85 L 400.74 215.85 L 409.64 202.37 L 415.58 203.73 L 418.55 203.73 L 420.03 203.73 L 420.03 203.73 L 427.45 203.73 L 428.93 203.73 L 428.93 203.73 L 428.93 203.73 L 428.93 203.73 L 446.74 203.73 L 448.22 203.73 L 457.12 118.81 L 458.61 102.97 L 458.61 102.97 L 516.47 155.34 L 519.44 155.34 L 520.92 155.34 L 523.89 174.15 L 525.37 175.51 L 525.37 175.51 L 531.31 175.51 L 532.79 175.51 L 534.27 175.51 L 535.76 175.51 L 540.21 175.51 L 541.69 175.51 L 544.66 175.51 L 546.14 175.51 L 550.59 175.51 L 552.08 175.51 L 552.08 175.51 L 556.53 175.51 L 560.98 175.51 L 562.46 175.51 L 563.95 175.51 L 565.43 175.51 L 566.91 175.51 L 572.85 156.36 L 574.33 145.93 L 575.82 144.58 L 577.30 147.37 L 581.75 147.37 L 583.23 147.37 L 583.23 147.37 L 586.20 167.46 L 587.69 167.46 L 592.14 167.46 L 593.62 167.46 L 595.10 167.46 L 596.59 167.46 L 598.07 167.46 L 598.07 167.46 L 604.01 167.46 L 604.01 167.46 L 605.49 167.46 L 608.46 167.46 L 612.91 167.46 L 614.39 167.46 L 617.36 167.46 L 618.84 167.46 L 624.78 167.46 L 626.26 167.46 L 627.74 167.46 L 629.23 190.34 L 633.68 188.98 L 635.16 156.69 L 636.65 158.05 L 636.65 158.05 L 639.61 156.69 L 644.07 135.17 L 645.55 135.17 L 647.03 125.85 L 648.52 115.08 L 650.00 124.49" /><text  class="poloto_text poloto_legend_text" x="675" y="200" >Refinance 30</text><line  class="poloto_line poloto_legend_icon poloto2stroke poloto2legend" stroke="black" x1="680" x2="730" y1="181.25" y2="181.25" /><path  class="poloto_line poloto2stroke" fill="none" stroke="black" d=" M 150.00 343.31 L 151.48 351.36 L 155.93 338.81 L 157.42 328.98 L 158.90 330.85 L 158.90 330.85 L 161.87 310.25 L 166.32 308.47 L 167.80 319.15 L 169.29 307.54 L 170.77 318.22 L 172.26 297.71 L 176.71 307.54 L 178.19 286.95 L 179.67 286.95 L 181.16 286.02 L 182.64 260.00 L 187.09 264.58 L 188.58 276.27 L 190.06 286.95 L 191.54 277.20 L 193.03 265.51 L 198.96 256.61 L 200.45 242.12 L 201.93 240.17 L 203.41 238.14 L 207.86 242.12 L 209.35 258.73 L 212.31 256.61 L 213.80 254.66 L 218.25 244.07 L 219.73 255.59 L 221.22 244.07 L 221.22 244.07 L 224.18 244.07 L 228.64 246.02 L 230.12 264.58 L 230.12 264.58 L 231.60 255.59 L 233.09 256.61 L 234.57 257.54 L 239.02 265.51 L 240.50 256.61 L 241.99 256.61 L 241.99 256.61 L 243.47 266.44 L 244.96 267.46 L 249.41 268.39 L 250.89 277.20 L 252.37 277.20 L 253.86 279.07 L 255.34 279.07 L 261.28 275.25 L 262.76 264.58 L 264.24 266.44 L 265.73 265.51 L 265.73 265.51 L 271.66 255.59 L 273.15 255.59 L 274.63 245.00 L 280.56 202.12 L 282.05 171.78 L 283.53 190.34 L 285.01 202.12 L 286.50 212.80 L 290.95 203.05 L 292.43 202.12 L 293.92 221.61 L 295.40 223.56 L 301.34 223.56 L 302.82 211.86 L 304.30 221.61 L 305.79 232.29 L 307.27 255.59 L 313.20 256.61 L 314.69 245.00 L 316.17 224.58 L 317.66 221.61 L 322.11 241.10 L 325.07 223.56 L 326.56 222.54 L 332.49 242.12 L 332.49 242.12 L 332.49 242.12 L 332.49 242.12 L 332.49 242.12 L 332.49 242.12 L 335.46 242.12 L 335.46 242.12 L 335.46 242.12 L 335.46 242.12 L 335.46 242.12 L 335.46 242.12 L 342.88 254.66 L 345.85 256.61 L 347.33 275.25 L 348.81 287.88 L 353.26 286.95 L 354.75 286.95 L 356.23 265.51 L 357.72 268.39 L 359.20 254.66 L 363.65 265.51 L 363.65 265.51 L 365.13 257.54 L 368.10 266.44 L 368.10 266.44 L 375.52 264.58 L 377.00 246.02 L 378.49 245.00 L 384.42 220.59 L 387.39 211.86 L 387.39 211.86 L 390.36 222.54 L 396.29 210.85 L 396.29 210.85 L 396.29 210.85 L 396.29 210.85 L 396.29 210.85 L 396.29 210.85 L 396.29 210.85 L 396.29 210.85 L 400.74 210.85 L 400.74 209.83 L 409.64 197.03 L 415.58 175.51 L 415.58 175.51 L 420.03 175.51 L 420.03 175.51 L 427.45 175.51 L 428.93 175.51 L 428.93 175.51 L 428.93 175.51 L 428.93 175.51 L 446.74 175.51 L 448.22 175.51 L 457.12 127.03 L 458.61 100.00 L 458.61 100.00 L 516.47 146.44 L 519.44 146.44 L 520.92 146.44 L 522.40 150.76 L 525.37 160.59 L 525.37 160.59 L 531.31 160.59 L 532.79 160.59 L 534.27 160.59 L 535.76 160.59 L 540.21 160.59 L 541.69 160.59 L 544.66 160.59 L 546.14 160.59 L 550.59 160.59 L 552.08 160.59 L 552.08 160.59 L 556.53 160.59 L 560.98 160.59 L 562.46 160.59 L 563.95 160.59 L 565.43 160.59 L 566.91 160.59 L 572.85 144.24 L 574.33 152.88 L 575.82 132.37 L 577.30 152.88 L 581.75 152.88 L 583.23 152.88 L 583.23 152.88 L 586.20 152.88 L 587.69 152.88 L 592.14 152.88 L 593.62 152.88 L 595.10 152.88 L 596.59 152.88 L 598.07 152.88 L 598.07 152.88 L 604.01 152.88 L 604.01 152.88 L 605.49 152.88 L 608.46 152.88 L 612.91 152.88 L 614.39 152.88 L 617.36 152.88 L 618.84 152.88 L 624.78 152.88 L 626.26 152.88 L 627.74 152.88 L 629.23 207.80 L 633.68 197.03 L 635.16 153.98 L 636.65 186.27 L 638.13 153.98 L 639.61 143.14 L 644.07 132.37 L 645.55 132.37 L 647.03 122.63 L 648.52 111.86 L 650.00 121.61" /><text  class="poloto_labels poloto_text poloto_title" x="400" y="37.5" >lower.com purchase rates</text><text  class="poloto_labels poloto_text poloto_xname" x="400" y="481.25" >Date</text><text  class="poloto_labels poloto_text poloto_yname" transform="rotate(-90,37.5,250)" x="37.5" y="250" >Rate (%)</text><text  class="poloto_tick_labels poloto_text" dominant-baseline="middle" text-anchor="start" x="150" y="70" ></text><line  class="poloto_axis_lines" stroke="black" x1="150" x2="144" y1="390.2542372881356" y2="390.2542372881356" /><line  class="poloto_tick_line" stroke="black" x1="150" x2="650" y1="390.2542372881356" y2="390.2542372881356" /><text  class="poloto_tick_labels poloto_text" dominant-baseline="middle" text-anchor="end" x="135" y="390.2542372881356" >3.625</text><line  class="poloto_axis_lines" stroke="black" x1="150" x2="144" y1="379.66101694915255" y2="379.66101694915255" /><line  class="poloto_tick_line" stroke="black" x1="150" x2="650" y1="379.66101694915255" y2="379.66101694915255" /><text  class="poloto_tick_labels poloto_text" dominant-baseline="middle" text-anchor="end" x="135" y="379.66101694915255" >3.75</text><line  class="poloto_axis_lines" stroke="black" x1="150" x2="144" y1="369.06779661016947" y2="369.06779661016947" /><line  class="poloto_tick_line" stroke="black" x1="150" x2="650" y1="369.06779661016947" y2="369.06779661016947" /><text  class="poloto_tick_labels poloto_text" dominant-baseline="middle" text-anchor="end" x="135" y="369.06779661016947" >3.875</text><line  class="poloto_axis_lines" stroke="black" x1="150" x2="144" y1="358.47457627118644" y2="358.47457627118644" /><line  class="poloto_tick_line" stroke="black" x1="150" x2="650" y1="358.47457627118644" y2="358.47457627118644" /><text  class="poloto_tick_labels poloto_text" dominant-baseline="middle" text-anchor="end" x="135" y="358.47457627118644" >4</text><line  class="poloto_axis_lines" stroke="black" x1="150" x2="144" y1="347.8813559322034" y2="347.8813559322034" /><line  class="poloto_tick_line" stroke="black" x1="150" x2="650" y1="347.8813559322034" y2="347.8813559322034" /><text  class="poloto_tick_labels poloto_text" dominant-baseline="middle" text-anchor="end" x="135" y="347.8813559322034" >4.125</text><line  class="poloto_axis_lines" stroke="black" x1="150" x2="144" y1="337.2881355932203" y2="337.2881355932203" /><line  class="poloto_tick_line" stroke="black" x1="150" x2="650" y1="337.2881355932203" y2="337.2881355932203" /><text  class="poloto_tick_labels poloto_text" dominant-baseline="middle" text-anchor="end" x="135" y="337.2881355932203" >4.25</text><line  class="poloto_axis_lines" stroke="black" x1="150" x2="144" y1="326.6949152542373" y2="326.6949152542373" /><line  class="poloto_tick_line" stroke="black" x1="150" x2="650" y1="326.6949152542373" y2="326.6949152542373" /><text  class="poloto_tick_labels poloto_text" dominant-baseline="middle" text-anchor="end" x="135" y="326.6949152542373" >4.375</text><line  class="poloto_axis_lines" stroke="black" x1="150" x2="144" y1="316.10169491525426" y2="316.10169491525426" /><line  class="poloto_tick_line" stroke="black" x1="150" x2="650" y1="316.10169491525426" y2="316.10169491525426" /><text  class="poloto_tick_labels poloto_text" dominant-baseline="middle" text-anchor="end" x="135" y="316.10169491525426" >4.5</text><line  class="poloto_axis_lines" stroke="black" x1="150" x2="144" y1="305.50847457627117" y2="305.50847457627117" /><line  class="poloto_tick_line" stroke="black" x1="150" x2="650" y1="305.50847457627117" y2="305.50847457627117" /><text  class="poloto_tick_labels poloto_text" dominant-baseline="middle" text-anchor="end" x="135" y="305.50847457627117" >4.625</text><line  class="poloto_axis_lines" stroke="black" x1="150" x2="144" y1="294.91525423728814" y2="294.91525423728814" /><line  class="poloto_tick_line" stroke="black" x1="150" x2="650" y1="294.91525423728814" y2="294.91525423728814" /><text  class="poloto_tick_labels poloto_text" dominant-baseline="middle" text-anchor="end" x="135" y="294.91525423728814" >4.75</text><line  class="poloto_axis_lines" stroke="black" x1="150" x2="144" y1="284.3220338983051" y2="284.3220338983051" /><line  class="poloto_tick_line" stroke="black" x1="150" x2="650" y1="284.3220338983051" y2="284.3220338983051" /><text  class="poloto_tick_labels poloto_text" dominant-baseline="middle" text-anchor="end" x="135" y="284.3220338983051" >4.875</text><line  class="poloto_axis_lines" stroke="black" x1="150" x2="144" y1="273.728813559322" y2="273.728813559322" /><line  class="poloto_tick_line" stroke="black" x1="150" x2="650" y1="273.728813559322" y2="273.728813559322" /><text  class="poloto_tick_labels poloto_text" dominant-baseline="middle" text-anchor="end" x="135" y="273.728813559322" >5</text><line  class="poloto_axis_lines" stroke="black" x1="150" x2="144" y1="263.135593220339" y2="263.135593220339" /><line  class="poloto_tick_line" stroke="black" x1="150" x2="650" y1="263.135593220339" y2="263.135593220339" /><text  class="poloto_tick_labels poloto_text" dominant-baseline="middle" text-anchor="end" x="135" y="263.135593220339" >5.125</text><line  class="poloto_axis_lines" stroke="black" x1="150" x2="144" y1="252.54237288135596" y2="252.54237288135596" /><line  class="poloto_tick_line" stroke="black" x1="150" x2="650" y1="252.54237288135596" y2="252.54237288135596" /><text  class="poloto_tick_labels poloto_text" dominant-baseline="middle" text-anchor="end" x="135" y="252.54237288135596" >5.25</text><line  class="poloto_axis_lines" stroke="black" x1="150" x2="144" y1="241.94915254237287" y2="241.94915254237287" /><line  class="poloto_tick_line" stroke="black" x1="150" x2="650" y1="241.94915254237287" y2="241.94915254237287" /><text  class="poloto_tick_labels poloto_text" dominant-baseline="middle" text-anchor="end" x="135" y="241.94915254237287" >5.375</text><line  class="poloto_axis_lines" stroke="black" x1="150" x2="144" y1="231.35593220338984" y2="231.35593220338984" /><line  class="poloto_tick_line" stroke="black" x1="150" x2="650" y1="231.35593220338984" y2="231.35593220338984" /><text  class="poloto_tick_labels poloto_text" dominant-baseline="middle" text-anchor="end" x="135" y="231.35593220338984" >5.5</text><line  class="poloto_axis_lines" stroke="black" x1="150" x2="144" y1="220.7627118644068" y2="220.7627118644068" /><line  class="poloto_tick_line" stroke="black" x1="150" x2="650" y1="220.7627118644068" y2="220.7627118644068" /><text  class="poloto_tick_labels poloto_text" dominant-baseline="middle" text-anchor="end" x="135" y="220.7627118644068" >5.625</text><line  class="poloto_axis_lines" stroke="black" x1="150" x2="144" y1="210.16949152542372" y2="210.16949152542372" /><line  class="poloto_tick_line" stroke="black" x1="150" x2="650" y1="210.16949152542372" y2="210.16949152542372" /><text  class="poloto_tick_labels poloto_text" dominant-baseline="middle" text-anchor="end" x="135" y="210.16949152542372" >5.75</text><line  class="poloto_axis_lines" stroke="black" x1="150" x2="144" y1="199.5762711864407" y2="199.5762711864407" /><line  class="poloto_tick_line" stroke="black" x1="150" x2="650" y1="199.5762711864407" y2="199.5762711864407" /><text  class="poloto_tick_labels poloto_text" dominant-baseline="middle" text-anchor="end" x="135" y="199.5762711864407" >5.875</text><line  class="poloto_axis_lines" stroke="black" x1="150" x2="144" y1="188.98305084745766" y2="188.98305084745766" /><line  class="poloto_tick_line" stroke="black" x1="150" x2="650" y1="188.98305084745766" y2="188.98305084745766" /><text  class="poloto_tick_labels poloto_text" dominant-baseline="middle" text-anchor="end" x="135" y="188.98305084745766" >6</text><line  class="poloto_axis_lines" stroke="black" x1="150" x2="144" y1="178.38983050847457" y2="178.38983050847457" /><line  class="poloto_tick_line" stroke="black" x1="150" x2="650" y1="178.38983050847457" y2="178.38983050847457" /><text  class="poloto_tick_labels poloto_text" dominant-baseline="middle" text-anchor="end" x="135" y="178.38983050847457" >6.125</text><line  class="poloto_axis_lines" stroke="black" x1="150" x2="144" y1="167.7966101694915" y2="167.7966101694915" /><line  class="poloto_tick_line" stroke="black" x1="150" x2="650" y1="167.7966101694915" y2="167.7966101694915" /><text  class="poloto_tick_labels poloto_text" dominant-baseline="middle" text-anchor="end" x="135" y="167.7966101694915" >6.25</text><line  class="poloto_axis_lines" stroke="black" x1="150" x2="144" y1="157.2033898305085" y2="157.2033898305085" /><line  class="poloto_tick_line" stroke="black" x1="150" x2="650" y1="157.2033898305085" y2="157.2033898305085" /><text  class="poloto_tick_labels poloto_text" dominant-baseline="middle" text-anchor="end" x="135" y="157.2033898305085" >6.375</text><line  class="poloto_axis_lines" stroke="black" x1="150" x2="144" y1="146.61016949152543" y2="146.61016949152543" /><line  class="poloto_tick_line" stroke="black" x1="150" x2="650" y1="146.61016949152543" y2="146.61016949152543" /><text  class="poloto_tick_labels poloto_text" dominant-baseline="middle" text-anchor="end" x="135" y="146.61016949152543" >6.5</text><line  class="poloto_axis_lines" stroke="black" x1="150" x2="144" y1="136.01694915254234" y2="136.01694915254234" /><line  class="poloto_tick_line" stroke="black" x1="150" x2="650" y1="136.01694915254234" y2="136.01694915254234" /><text  class="poloto_tick_labels poloto_text" dominant-baseline="middle" text-anchor="end" x="135" y="136.01694915254234" >6.625</text><line  class="poloto_axis_lines" stroke="black" x1="150" x2="144" y1="125.42372881355936" y2="125.42372881355936" /><line  class="poloto_tick_line" stroke="black" x1="150" x2="650" y1="125.42372881355936" y2="125.42372881355936" /><text  class="poloto_tick_labels poloto_text" dominant-baseline="middle" text-anchor="end" x="135" y="125.42372881355936" >6.75</text><line  class="poloto_axis_lines" stroke="black" x1="150" x2="144" y1="114.83050847457628" y2="114.83050847457628" /><line  class="poloto_tick_line" stroke="black" x1="150" x2="650" y1="114.83050847457628" y2="114.83050847457628" /><text  class="poloto_tick_labels poloto_text" dominant-baseline="middle" text-anchor="end" x="135" y="114.83050847457628" >6.875</text><line  class="poloto_axis_lines" stroke="black" x1="150" x2="144" y1="104.23728813559319" y2="104.23728813559319" /><line  class="poloto_tick_line" stroke="black" x1="150" x2="650" y1="104.23728813559319" y2="104.23728813559319" /><text  class="poloto_tick_labels poloto_text" dominant-baseline="middle" text-anchor="end" x="135" y="104.23728813559319" >7</text><text  class="poloto_tick_labels poloto_text" dominant-baseline="middle" text-anchor="start" x="440.00000000000006" y="70" >¹2022-05-01 00:00:00 UTC in Months</text><line  class="poloto_axis_lines" stroke="black" x1="216.76557863501148" x2="216.76557863501148" y1="400" y2="405" /><line  class="poloto_tick_line" stroke="black" x1="216.76557863501148" x2="216.76557863501148" y1="400" y2="100" /><text  class="poloto_tick_labels poloto_text" dominant-baseline="start" text-anchor="middle" x="216.76557863501148" y="430" >2022 May¹</text><line  class="poloto_axis_lines" stroke="black" x1="307.2700296735893" x2="307.2700296735893" y1="400" y2="405" /><line  class="poloto_tick_line" stroke="black" x1="307.2700296735893" x2="307.2700296735893" y1="400" y2="100" /><text  class="poloto_tick_labels poloto_text" dominant-baseline="start" text-anchor="middle" x="307.2700296735893" y="430" >2022 Jul</text><line  class="poloto_axis_lines" stroke="black" x1="399.2581602373866" x2="399.2581602373866" y1="400" y2="405" /><line  class="poloto_tick_line" stroke="black" x1="399.2581602373866" x2="399.2581602373866" y1="400" y2="100" /><text  class="poloto_tick_labels poloto_text" dominant-baseline="start" text-anchor="middle" x="399.2581602373866" y="430" >2022 Sep</text><line  class="poloto_axis_lines" stroke="black" x1="489.76261127596445" x2="489.76261127596445" y1="400" y2="405" /><line  class="poloto_tick_line" stroke="black" x1="489.76261127596445" x2="489.76261127596445" y1="400" y2="100" /><text  class="poloto_tick_labels poloto_text" dominant-baseline="start" text-anchor="middle" x="489.76261127596445" y="430" >2022 Nov</text><line  class="poloto_axis_lines" stroke="black" x1="580.2670623145386" x2="580.2670623145386" y1="400" y2="405" /><line  class="poloto_tick_line" stroke="black" x1="580.2670623145386" x2="580.2670623145386" y1="400" y2="100" /><text  class="poloto_tick_labels poloto_text" dominant-baseline="start" text-anchor="middle" x="580.2670623145386" y="430" >2023 Jan</text><path  stroke="black" fill="none" class="poloto_axis_lines" d=" M 150 400 L 650 400" /><path  stroke="black" fill="none" class="poloto_axis_lines" d=" M 150 400 L 150 100" /></svg>