<svg class="poloto" width="800" height="500" viewBox="0 0 800 500" xmlns="http://www.w3.org/2000/svg"><style>.poloto{stroke-linecap:round;stroke-linejoin:round;font-family:Roboto,sans-serif;font-size:16px;}.poloto_background{fill:#262626;}.poloto_scatter{stroke-width:7}.poloto_tick_line{stroke:dimgray;stroke-width:0.5}.poloto_line{stroke-width:2}.poloto_text{fill: white;}.poloto_axis_lines{stroke: white;stroke-width:3;fill:none;stroke-dasharray:none}.poloto_title{font-size:24px;dominant-baseline:start;text-anchor:middle;}.poloto_xname{font-size:24px;dominant-baseline:start;text-anchor:middle;}.poloto_yname{font-size:24px;dominant-baseline:start;text-anchor:middle;}.poloto0stroke{stroke:blue;}.poloto1stroke{stroke:red;}.poloto2stroke{stroke:green;}.poloto3stroke{stroke:gold;}.poloto4stroke{stroke:aqua;}.poloto5stroke{stroke:lime;}.poloto6stroke{stroke:orange;}.poloto7stroke{stroke:chocolate;}.poloto0fill{fill:blue;}.poloto1fill{fill:red;}.poloto2fill{fill:green;}.poloto3fill{fill:gold;}.poloto4fill{fill:aqua;}.poloto5fill{fill:lime;}.poloto6fill{fill:orange;}.poloto7fill{fill:chocolate;}</style><circle  r="1e5" class="poloto_background" /><text  class="poloto_text poloto_legend_text" x="675" y="100" >Refinance 15</text><line  class="poloto_line poloto_legend_icon poloto0stroke poloto0legend" stroke="black" x1="680" x2="730" y1="81.25" y2="81.25" /><path  class="poloto_line poloto0stroke" fill="none" stroke="black" d=" M 150.00 392.46 L 152.40 400.00 L 159.62 389.32 L 162.02 380.17 L 164.42 389.32 L 164.42 389.32 L 169.23 358.81 L 176.44 357.20 L 178.85 367.88 L 181.25 344.83 L 183.65 346.44 L 186.06 341.61 L 193.27 343.22 L 195.67 336.78 L 195.67 336.78 L 200.48 337.37 L 202.88 314.32 L 210.10 324.32 L 212.50 327.54 L 214.90 327.54 L 217.31 326.69 L 219.71 321.78 L 229.33 278.73 L 231.73 297.88 L 234.13 283.05 L 236.54 277.29 L 236.54 277.29 L 246.15 299.58 L 250.96 303.64 L 253.37 294.58 L 260.58 283.81 L 262.98 305.25 L 265.38 294.58 L 265.38 294.58 L 270.19 292.88 L 277.40 296.19 L 279.81 306.86 L 279.81 306.86 L 282.21 297.80 L 284.62 308.56 L 287.02 292.88 L 294.23 325.08 L 296.63 324.32 L 299.04 306.86 L 299.04 306.86 L 301.44 314.32 L 303.85 317.63 L 311.06 317.63 L 313.46 329.15 L 315.87 329.15 L 318.27 329.15 L 320.67 329.15 L 330.29 317.63 L 332.69 314.32 L 335.10 315.93 L 337.50 315.93 L 337.50 315.93 L 347.12 305.25 L 349.52 305.25 L 351.92 296.19 L 361.54 281.36 L 363.94 250.76 L 366.35 254.15 L 368.75 254.15 L 371.15 275.59 L 378.37 254.15 L 380.77 254.15 L 383.17 273.90 L 385.58 277.29 L 395.19 277.29 L 397.60 275.59 L 400.00 280.59 L 402.40 285.51 L 404.81 296.19 L 414.42 303.64 L 416.83 294.58 L 419.23 287.12 L 421.63 283.81 L 428.85 285.51 L 433.65 285.51 L 436.06 283.81 L 445.67 282.20 L 445.67 282.20 L 445.67 282.20 L 445.67 282.20 L 445.67 282.20 L 445.67 282.20 L 450.48 282.20 L 450.48 282.20 L 450.48 282.20 L 450.48 282.20 L 450.48 282.20 L 450.48 282.20 L 462.50 294.58 L 467.31 297.80 L 469.71 325.93 L 472.12 329.15 L 479.33 329.15 L 481.73 327.54 L 484.13 305.25 L 486.54 299.49 L 488.94 285.51 L 496.15 296.19 L 496.15 296.19 L 498.56 287.12 L 503.37 296.19 L 503.37 296.19 L 515.38 296.19 L 517.79 262.46 L 520.19 282.20 L 529.81 248.39 L 534.62 248.39 L 534.62 248.39 L 539.42 260.76 L 549.04 254.15 L 549.04 254.15 L 549.04 254.15 L 549.04 254.15 L 549.04 254.15 L 549.04 254.15 L 549.04 254.15 L 549.04 254.15 L 549.04 254.15 L 556.25 254.15 L 570.67 232.63 L 580.29 235.17 L 580.29 235.17 L 587.50 235.17 L 597.12 235.17 L 599.52 235.17 L 599.52 235.17 L 599.52 235.17 L 599.52 235.17 L 599.52 235.17 L 630.77 235.17 L 633.17 235.17 L 647.60 139.75 L 650.00 130.68" /><text  class="poloto_text poloto_legend_text" x="675" y="150" >Refinance 20</text><line  class="poloto_line poloto_legend_icon poloto1stroke poloto1legend" stroke="black" x1="680" x2="730" y1="131.25" y2="131.25" /><path  class="poloto_line poloto1stroke" fill="none" stroke="black" d=" M 150.00 345.68 L 152.40 368.31 L 159.62 334.58 L 162.02 324.24 L 164.42 333.73 L 164.42 333.73 L 169.23 304.07 L 176.44 301.53 L 178.85 312.29 L 181.25 300.25 L 183.65 311.02 L 186.06 290.85 L 193.27 321.69 L 195.67 290.85 L 195.67 290.85 L 200.48 290.85 L 200.48 290.85 L 210.10 250.17 L 212.50 282.71 L 214.90 290.85 L 217.31 301.53 L 219.71 280.59 L 229.33 260.00 L 231.73 257.37 L 234.13 252.12 L 236.54 240.08 L 243.75 245.34 L 246.15 268.14 L 250.96 260.00 L 253.37 257.37 L 260.58 248.81 L 262.98 258.73 L 265.38 258.73 L 265.38 258.73 L 270.19 258.73 L 277.40 260.00 L 279.81 281.44 L 279.81 281.44 L 282.21 269.41 L 284.62 289.58 L 287.02 281.44 L 294.23 282.71 L 296.63 281.44 L 299.04 281.44 L 299.04 281.44 L 301.44 282.71 L 303.85 289.58 L 311.06 290.85 L 313.46 294.66 L 315.87 294.66 L 318.27 294.66 L 320.67 294.66 L 330.29 289.58 L 332.69 278.81 L 335.10 281.44 L 337.50 281.44 L 337.50 281.44 L 347.12 268.14 L 349.52 270.68 L 351.92 261.27 L 361.54 215.85 L 363.94 197.03 L 366.35 207.80 L 368.75 215.85 L 371.15 238.56 L 378.37 225.17 L 380.77 218.47 L 383.17 239.92 L 385.58 250.17 L 395.19 250.17 L 397.60 238.56 L 400.00 249.32 L 402.40 260.00 L 404.81 272.03 L 414.42 280.08 L 416.83 269.41 L 419.23 258.73 L 421.63 251.44 L 428.85 257.37 L 433.65 260.00 L 436.06 258.73 L 445.67 260.00 L 445.67 260.00 L 445.67 260.00 L 445.67 260.00 L 445.67 260.00 L 445.67 260.00 L 445.67 260.00 L 445.67 260.00 L 445.67 260.00 L 445.67 260.00 L 445.67 260.00 L 445.67 260.00 L 462.50 280.08 L 467.31 282.71 L 469.71 301.53 L 472.12 304.07 L 479.33 301.27 L 481.73 301.27 L 484.13 290.85 L 486.54 294.66 L 488.94 278.81 L 496.15 270.68 L 496.15 270.68 L 498.56 270.68 L 503.37 281.44 L 503.37 281.44 L 515.38 278.81 L 517.79 260.00 L 520.19 260.00 L 529.81 246.19 L 534.62 234.58 L 534.62 234.58 L 539.42 247.54 L 549.04 215.85 L 549.04 215.85 L 549.04 215.85 L 549.04 215.85 L 549.04 215.85 L 549.04 215.85 L 549.04 215.85 L 549.04 215.85 L 549.04 215.85 L 556.25 215.85 L 570.67 202.37 L 580.29 203.73 L 585.10 203.73 L 587.50 203.73 L 587.50 203.73 L 599.52 203.73 L 601.92 203.73 L 601.92 203.73 L 601.92 203.73 L 601.92 203.73 L 630.77 203.73 L 633.17 203.73 L 647.60 118.81 L 650.00 102.97" /><text  class="poloto_text poloto_legend_text" x="675" y="200" >Refinance 30</text><line  class="poloto_line poloto_legend_icon poloto2stroke poloto2legend" stroke="black" x1="680" x2="730" y1="181.25" y2="181.25" /><path  class="poloto_line poloto2stroke" fill="none" stroke="black" d=" M 150.00 343.31 L 152.40 351.36 L 159.62 338.81 L 162.02 328.98 L 164.42 330.85 L 164.42 330.85 L 169.23 310.25 L 176.44 308.47 L 178.85 319.15 L 181.25 307.54 L 183.65 318.22 L 186.06 297.71 L 193.27 307.54 L 195.67 286.95 L 198.08 286.95 L 200.48 286.02 L 202.88 260.00 L 210.10 264.58 L 212.50 276.27 L 214.90 286.95 L 217.31 277.20 L 219.71 265.51 L 229.33 256.61 L 231.73 242.12 L 234.13 240.17 L 236.54 238.14 L 243.75 242.12 L 246.15 258.73 L 250.96 256.61 L 253.37 254.66 L 260.58 244.07 L 262.98 255.59 L 265.38 244.07 L 265.38 244.07 L 270.19 244.07 L 277.40 246.02 L 279.81 264.58 L 279.81 264.58 L 282.21 255.59 L 284.62 256.61 L 287.02 257.54 L 294.23 265.51 L 296.63 256.61 L 299.04 256.61 L 299.04 256.61 L 301.44 266.44 L 303.85 267.46 L 311.06 268.39 L 313.46 277.20 L 315.87 277.20 L 318.27 279.07 L 320.67 279.07 L 330.29 275.25 L 332.69 264.58 L 335.10 266.44 L 337.50 265.51 L 337.50 265.51 L 347.12 255.59 L 349.52 255.59 L 351.92 245.00 L 361.54 202.12 L 363.94 171.78 L 366.35 190.34 L 368.75 202.12 L 371.15 212.80 L 378.37 203.05 L 380.77 202.12 L 383.17 221.61 L 385.58 223.56 L 395.19 223.56 L 397.60 211.86 L 400.00 221.61 L 402.40 232.29 L 404.81 255.59 L 414.42 256.61 L 416.83 245.00 L 419.23 224.58 L 421.63 221.61 L 428.85 241.10 L 433.65 223.56 L 436.06 222.54 L 445.67 242.12 L 445.67 242.12 L 445.67 242.12 L 445.67 242.12 L 445.67 242.12 L 445.67 242.12 L 450.48 242.12 L 450.48 242.12 L 450.48 242.12 L 450.48 242.12 L 450.48 242.12 L 450.48 242.12 L 462.50 254.66 L 467.31 256.61 L 469.71 275.25 L 472.12 287.88 L 479.33 286.95 L 481.73 286.95 L 484.13 265.51 L 486.54 268.39 L 488.94 254.66 L 496.15 265.51 L 496.15 265.51 L 498.56 257.54 L 503.37 266.44 L 503.37 266.44 L 515.38 264.58 L 517.79 246.02 L 520.19 245.00 L 529.81 220.59 L 534.62 211.86 L 534.62 211.86 L 539.42 222.54 L 549.04 210.85 L 549.04 210.85 L 549.04 210.85 L 549.04 210.85 L 549.04 210.85 L 549.04 210.85 L 549.04 210.85 L 549.04 210.85 L 556.25 210.85 L 556.25 209.83 L 570.67 197.03 L 580.29 175.51 L 580.29 175.51 L 587.50 175.51 L 587.50 175.51 L 599.52 175.51 L 601.92 175.51 L 601.92 175.51 L 601.92 175.51 L 601.92 175.51 L 630.77 175.51 L 633.17 175.51 L 647.60 127.03 L 650.00 100.00" /><text  class="poloto_labels poloto_text poloto_title" x="400" y="37.5" >lower.com purchase rates</text><text  class="poloto_labels poloto_text poloto_xname" x="400" y="481.25" >Date</text><text  class="poloto_labels poloto_text poloto_yname" transform="rotate(-90,37.5,250)" x="37.5" y="250" >Rate (%)</text><text  class="poloto_tick_labels poloto_text" dominant-baseline="middle" text-anchor="start" x="150" y="70" ></text><line  class="poloto_axis_lines" stroke="black" x1="150" x2="144" y1="390.2542372881356" y2="390.2542372881356" /><line  class="poloto_tick_line" stroke="black" x1="150" x2="650" y1="390.2542372881356" y2="390.2542372881356" /><text  class="poloto_tick_labels poloto_text" dominant-baseline="middle" text-anchor="end" x="135" y="390.2542372881356" >3.625</text><line  class="poloto_axis_lines" stroke="black" x1="150" x2="144" y1="379.66101694915255" y2="379.66101694915255" /><line  class="poloto_tick_line" stroke="black" x1="150" x2="650" y1="379.66101694915255" y2="379.66101694915255" /><text  class="poloto_tick_labels poloto_text" dominant-baseline="middle" text-anchor="end" x="135" y="379.66101694915255" >3.75</text><line  class="poloto_axis_lines" stroke="black" x1="150" x2="144" y1="369.06779661016947" y2="369.06779661016947" /><line  class="poloto_tick_line" stroke="black" x1="150" x2="650" y1="369.06779661016947" y2="369.06779661016947" /><text  class="poloto_tick_labels poloto_text" dominant-baseline="middle" text-anchor="end" x="135" y="369.06779661016947" >3.875</text><line  class="poloto_axis_lines" stroke="black" x1="150" x2="144" y1="358.47457627118644" y2="358.47457627118644" /><line  class="poloto_tick_line" stroke="black" x1="150" x2="650" y1="358.47457627118644" y2="358.47457627118644" /><text  class="poloto_tick_labels poloto_text" dominant-baseline="middle" text-anchor="end" x="135" y="358.47457627118644" >4</text><line  class="poloto_axis_lines" stroke="black" x1="150" x2="144" y1="347.8813559322034" y2="347.8813559322034" /><line  class="poloto_tick_line" stroke="black" x1="150" x2="650" y1="347.8813559322034" y2="347.8813559322034" /><text  class="poloto_tick_labels poloto_text" dominant-baseline="middle" text-anchor="end" x="135" y="347.8813559322034" >4.125</text><line  class="poloto_axis_lines" stroke="black" x1="150" x2="144" y1="337.2881355932203" y2="337.2881355932203" /><line  class="poloto_tick_line" stroke="black" x1="150" x2="650" y1="337.2881355932203" y2="337.2881355932203" /><text  class="poloto_tick_labels poloto_text" dominant-baseline="middle" text-anchor="end" x="135" y="337.2881355932203" >4.25</text><line  class="poloto_axis_lines" stroke="black" x1="150" x2="144" y1="326.6949152542373" y2="326.6949152542373" /><line  class="poloto_tick_line" stroke="black" x1="150" x2="650" y1="326.6949152542373" y2="326.6949152542373" /><text  class="poloto_tick_labels poloto_text" dominant-baseline="middle" text-anchor="end" x="135" y="326.6949152542373" >4.375</text><line  class="poloto_axis_lines" stroke="black" x1="150" x2="144" y1="316.10169491525426" y2="316.10169491525426" /><line  class="poloto_tick_line" stroke="black" x1="150" x2="650" y1="316.10169491525426" y2="316.10169491525426" /><text  class="poloto_tick_labels poloto_text" dominant-baseline="middle" text-anchor="end" x="135" y="316.10169491525426" >4.5</text><line  class="poloto_axis_lines" stroke="black" x1="150" x2="144" y1="305.50847457627117" y2="305.50847457627117" /><line  class="poloto_tick_line" stroke="black" x1="150" x2="650" y1="305.50847457627117" y2="305.50847457627117" /><text  class="poloto_tick_labels poloto_text" dominant-baseline="middle" text-anchor="end" x="135" y="305.50847457627117" >4.625</text><line  class="poloto_axis_lines" stroke="black" x1="150" x2="144" y1="294.91525423728814" y2="294.91525423728814" /><line  class="poloto_tick_line" stroke="black" x1="150" x2="650" y1="294.91525423728814" y2="294.91525423728814" /><text  class="poloto_tick_labels poloto_text" dominant-baseline="middle" text-anchor="end" x="135" y="294.91525423728814" >4.75</text><line  class="poloto_axis_lines" stroke="black" x1="150" x2="144" y1="284.3220338983051" y2="284.3220338983051" /><line  class="poloto_tick_line" stroke="black" x1="150" x2="650" y1="284.3220338983051" y2="284.3220338983051" /><text  class="poloto_tick_labels poloto_text" dominant-baseline="middle" text-anchor="end" x="135" y="284.3220338983051" >4.875</text><line  class="poloto_axis_lines" stroke="black" x1="150" x2="144" y1="273.728813559322" y2="273.728813559322" /><line  class="poloto_tick_line" stroke="black" x1="150" x2="650" y1="273.728813559322" y2="273.728813559322" /><text  class="poloto_tick_labels poloto_text" dominant-baseline="middle" text-anchor="end" x="135" y="273.728813559322" >5</text><line  class="poloto_axis_lines" stroke="black" x1="150" x2="144" y1="263.135593220339" y2="263.135593220339" /><line  class="poloto_tick_line" stroke="black" x1="150" x2="650" y1="263.135593220339" y2="263.135593220339" /><text  class="poloto_tick_labels poloto_text" dominant-baseline="middle" text-anchor="end" x="135" y="263.135593220339" >5.125</text><line  class="poloto_axis_lines" stroke="black" x1="150" x2="144" y1="252.54237288135596" y2="252.54237288135596" /><line  class="poloto_tick_line" stroke="black" x1="150" x2="650" y1="252.54237288135596" y2="252.54237288135596" /><text  class="poloto_tick_labels poloto_text" dominant-baseline="middle" text-anchor="end" x="135" y="252.54237288135596" >5.25</text><line  class="poloto_axis_lines" stroke="black" x1="150" x2="144" y1="241.94915254237287" y2="241.94915254237287" /><line  class="poloto_tick_line" stroke="black" x1="150" x2="650" y1="241.94915254237287" y2="241.94915254237287" /><text  class="poloto_tick_labels poloto_text" dominant-baseline="middle" text-anchor="end" x="135" y="241.94915254237287" >5.375</text><line  class="poloto_axis_lines" stroke="black" x1="150" x2="144" y1="231.35593220338984" y2="231.35593220338984" /><line  class="poloto_tick_line" stroke="black" x1="150" x2="650" y1="231.35593220338984" y2="231.35593220338984" /><text  class="poloto_tick_labels poloto_text" dominant-baseline="middle" text-anchor="end" x="135" y="231.35593220338984" >5.5</text><line  class="poloto_axis_lines" stroke="black" x1="150" x2="144" y1="220.7627118644068" y2="220.7627118644068" /><line  class="poloto_tick_line" stroke="black" x1="150" x2="650" y1="220.7627118644068" y2="220.7627118644068" /><text  class="poloto_tick_labels poloto_text" dominant-baseline="middle" text-anchor="end" x="135" y="220.7627118644068" >5.625</text><line  class="poloto_axis_lines" stroke="black" x1="150" x2="144" y1="210.16949152542372" y2="210.16949152542372" /><line  class="poloto_tick_line" stroke="black" x1="150" x2="650" y1="210.16949152542372" y2="210.16949152542372" /><text  class="poloto_tick_labels poloto_text" dominant-baseline="middle" text-anchor="end" x="135" y="210.16949152542372" >5.75</text><line  class="poloto_axis_lines" stroke="black" x1="150" x2="144" y1="199.5762711864407" y2="199.5762711864407" /><line  class="poloto_tick_line" stroke="black" x1="150" x2="650" y1="199.5762711864407" y2="199.5762711864407" /><text  class="poloto_tick_labels poloto_text" dominant-baseline="middle" text-anchor="end" x="135" y="199.5762711864407" >5.875</text><line  class="poloto_axis_lines" stroke="black" x1="150" x2="144" y1="188.98305084745766" y2="188.98305084745766" /><line  class="poloto_tick_line" stroke="black" x1="150" x2="650" y1="188.98305084745766" y2="188.98305084745766" /><text  class="poloto_tick_labels poloto_text" dominant-baseline="middle" text-anchor="end" x="135" y="188.98305084745766" >6</text><line  class="poloto_axis_lines" stroke="black" x1="150" x2="144" y1="178.38983050847457" y2="178.38983050847457" /><line  class="poloto_tick_line" stroke="black" x1="150" x2="650" y1="178.38983050847457" y2="178.38983050847457" /><text  class="poloto_tick_labels poloto_text" dominant-baseline="middle" text-anchor="end" x="135" y="178.38983050847457" >6.125</text><line  class="poloto_axis_lines" stroke="black" x1="150" x2="144" y1="167.7966101694915" y2="167.7966101694915" /><line  class="poloto_tick_line" stroke="black" x1="150" x2="650" y1="167.7966101694915" y2="167.7966101694915" /><text  class="poloto_tick_labels poloto_text" dominant-baseline="middle" text-anchor="end" x="135" y="167.7966101694915" >6.25</text><line  class="poloto_axis_lines" stroke="black" x1="150" x2="144" y1="157.2033898305085" y2="157.2033898305085" /><line  class="poloto_tick_line" stroke="black" x1="150" x2="650" y1="157.2033898305085" y2="157.2033898305085" /><text  class="poloto_tick_labels poloto_text" dominant-baseline="middle" text-anchor="end" x="135" y="157.2033898305085" >6.375</text><line  class="poloto_axis_lines" stroke="black" x1="150" x2="144" y1="146.61016949152543" y2="146.61016949152543" /><line  class="poloto_tick_line" stroke="black" x1="150" x2="650" y1="146.61016949152543" y2="146.61016949152543" /><text  class="poloto_tick_labels poloto_text" dominant-baseline="middle" text-anchor="end" x="135" y="146.61016949152543" >6.5</text><line  class="poloto_axis_lines" stroke="black" x1="150" x2="144" y1="136.01694915254234" y2="136.01694915254234" /><line  class="poloto_tick_line" stroke="black" x1="150" x2="650" y1="136.01694915254234" y2="136.01694915254234" /><text  class="poloto_tick_labels poloto_text" dominant-baseline="middle" text-anchor="end" x="135" y="136.01694915254234" >6.625</text><line  class="poloto_axis_lines" stroke="black" x1="150" x2="144" y1="125.42372881355936" y2="125.42372881355936" /><line  class="poloto_tick_line" stroke="black" x1="150" x2="650" y1="125.42372881355936" y2="125.42372881355936" /><text  class="poloto_tick_labels poloto_text" dominant-baseline="middle" text-anchor="end" x="135" y="125.42372881355936" >6.75</text><line  class="poloto_axis_lines" stroke="black" x1="150" x2="144" y1="114.83050847457628" y2="114.83050847457628" /><line  class="poloto_tick_line" stroke="black" x1="150" x2="650" y1="114.83050847457628" y2="114.83050847457628" /><text  class="poloto_tick_labels poloto_text" dominant-baseline="middle" text-anchor="end" x="135" y="114.83050847457628" >6.875</text><line  class="poloto_axis_lines" stroke="black" x1="150" x2="144" y1="104.23728813559319" y2="104.23728813559319" /><line  class="poloto_tick_line" stroke="black" x1="150" x2="650" y1="104.23728813559319" y2="104.23728813559319" /><text  class="poloto_tick_labels poloto_text" dominant-baseline="middle" text-anchor="end" x="135" y="104.23728813559319" >7</text><text  class="poloto_tick_labels poloto_text" dominant-baseline="middle" text-anchor="start" x="440.00000000000006" y="70" >¹2022-04-01 00:00:00 UTC in Months</text><line  class="poloto_axis_lines" stroke="black" x1="186.0576923076951" x2="186.0576923076951" y1="400" y2="405" /><line  class="poloto_tick_line" stroke="black" x1="186.0576923076951" x2="186.0576923076951" y1="400" y2="100" /><text  class="poloto_tick_labels poloto_text" dominant-baseline="start" text-anchor="middle" x="186.0576923076951" y="430" >2022 Apr¹</text><line  class="poloto_axis_lines" stroke="black" x1="258.17307692307804" x2="258.17307692307804" y1="400" y2="405" /><line  class="poloto_tick_line" stroke="black" x1="258.17307692307804" x2="258.17307692307804" y1="400" y2="100" /><text  class="poloto_tick_labels poloto_text" dominant-baseline="start" text-anchor="middle" x="258.17307692307804" y="430" >2022 May</text><line  class="poloto_axis_lines" stroke="black" x1="332.69230769231217" x2="332.69230769231217" y1="400" y2="405" /><line  class="poloto_tick_line" stroke="black" x1="332.69230769231217" x2="332.69230769231217" y1="400" y2="100" /><text  class="poloto_tick_labels poloto_text" dominant-baseline="start" text-anchor="middle" x="332.69230769231217" y="430" >2022 Jun</text><line  class="poloto_axis_lines" stroke="black" x1="404.8076923076951" x2="404.8076923076951" y1="400" y2="405" /><line  class="poloto_tick_line" stroke="black" x1="404.8076923076951" x2="404.8076923076951" y1="400" y2="100" /><text  class="poloto_tick_labels poloto_text" dominant-baseline="start" text-anchor="middle" x="404.8076923076951" y="430" >2022 Jul</text><line  class="poloto_axis_lines" stroke="black" x1="479.32692307692196" x2="479.32692307692196" y1="400" y2="405" /><line  class="poloto_tick_line" stroke="black" x1="479.32692307692196" x2="479.32692307692196" y1="400" y2="100" /><text  class="poloto_tick_labels poloto_text" dominant-baseline="start" text-anchor="middle" x="479.32692307692196" y="430" >2022 Aug</text><line  class="poloto_axis_lines" stroke="black" x1="553.8461538461561" x2="553.8461538461561" y1="400" y2="405" /><line  class="poloto_tick_line" stroke="black" x1="553.8461538461561" x2="553.8461538461561" y1="400" y2="100" /><text  class="poloto_tick_labels poloto_text" dominant-baseline="start" text-anchor="middle" x="553.8461538461561" y="430" >2022 Sep</text><line  class="poloto_axis_lines" stroke="black" x1="625.961538461539" x2="625.961538461539" y1="400" y2="405" /><line  class="poloto_tick_line" stroke="black" x1="625.961538461539" x2="625.961538461539" y1="400" y2="100" /><text  class="poloto_tick_labels poloto_text" dominant-baseline="start" text-anchor="middle" x="625.961538461539" y="430" >2022 Oct</text><path  stroke="black" fill="none" class="poloto_axis_lines" d=" M 150 400 L 650 400" /><path  stroke="black" fill="none" class="poloto_axis_lines" d=" M 150 400 L 150 100" /></svg>