<svg class="poloto" width="800" height="500" viewBox="0 0 800 500" xmlns="http://www.w3.org/2000/svg"><style>.poloto{stroke-linecap:round;stroke-linejoin:round;font-family:Roboto,sans-serif;font-size:16px;}.poloto_background{fill:#262626;}.poloto_scatter{stroke-width:7}.poloto_tick_line{stroke:dimgray;stroke-width:0.5}.poloto_line{stroke-width:2}.poloto_text{fill: white;}.poloto_axis_lines{stroke: white;stroke-width:3;fill:none;stroke-dasharray:none}.poloto_title{font-size:24px;dominant-baseline:start;text-anchor:middle;}.poloto_xname{font-size:24px;dominant-baseline:start;text-anchor:middle;}.poloto_yname{font-size:24px;dominant-baseline:start;text-anchor:middle;}.poloto0stroke{stroke:blue;}.poloto1stroke{stroke:red;}.poloto2stroke{stroke:green;}.poloto3stroke{stroke:gold;}.poloto4stroke{stroke:aqua;}.poloto5stroke{stroke:lime;}.poloto6stroke{stroke:orange;}.poloto7stroke{stroke:chocolate;}.poloto0fill{fill:blue;}.poloto1fill{fill:red;}.poloto2fill{fill:green;}.poloto3fill{fill:gold;}.poloto4fill{fill:aqua;}.poloto5fill{fill:lime;}.poloto6fill{fill:orange;}.poloto7fill{fill:chocolate;}</style><circle  r="1e5" class="poloto_background" /><text  class="poloto_text poloto_legend_text" x="675" y="100" >Refinance 15</text><line  class="poloto_line poloto_legend_icon poloto0stroke poloto0legend" stroke="black" x1="680" x2="730" y1="81.25" y2="81.25" /><path  class="poloto_line poloto0stroke" fill="none" stroke="black" d=" M 150.00 392.46 L 151.80 400.00 L 157.19 389.32 L 158.99 380.17 L 160.79 389.32 L 160.79 389.32 L 164.39 358.81 L 169.78 357.20 L 171.58 367.88 L 173.38 344.83 L 175.18 346.44 L 176.98 341.61 L 182.37 343.22 L 184.17 336.78 L 184.17 336.78 L 187.77 337.37 L 189.57 314.32 L 194.96 324.32 L 196.76 327.54 L 198.56 327.54 L 200.36 326.69 L 202.16 321.78 L 209.35 278.73 L 211.15 297.88 L 212.95 283.05 L 214.75 277.29 L 214.75 277.29 L 221.94 299.58 L 225.54 303.64 L 227.34 294.58 L 232.73 283.81 L 234.53 305.25 L 236.33 294.58 L 236.33 294.58 L 239.93 292.88 L 245.32 296.19 L 247.12 306.86 L 247.12 306.86 L 248.92 297.80 L 250.72 308.56 L 252.52 292.88 L 257.91 325.08 L 259.71 324.32 L 261.51 306.86 L 261.51 306.86 L 263.31 314.32 L 265.11 317.63 L 270.50 317.63 L 272.30 329.15 L 274.10 329.15 L 275.90 329.15 L 277.70 329.15 L 284.89 317.63 L 286.69 314.32 L 288.49 315.93 L 290.29 315.93 L 290.29 315.93 L 297.48 305.25 L 299.28 305.25 L 301.08 296.19 L 308.27 281.36 L 310.07 250.76 L 311.87 254.15 L 313.67 254.15 L 315.47 275.59 L 320.86 254.15 L 322.66 254.15 L 324.46 273.90 L 326.26 277.29 L 333.45 277.29 L 335.25 275.59 L 337.05 280.59 L 338.85 285.51 L 340.65 296.19 L 347.84 303.64 L 349.64 294.58 L 351.44 287.12 L 353.24 283.81 L 358.63 285.51 L 362.23 285.51 L 364.03 283.81 L 371.22 282.20 L 371.22 282.20 L 371.22 282.20 L 371.22 282.20 L 371.22 282.20 L 371.22 282.20 L 374.82 282.20 L 374.82 282.20 L 374.82 282.20 L 374.82 282.20 L 374.82 282.20 L 374.82 282.20 L 383.81 294.58 L 387.41 297.80 L 389.21 325.93 L 391.01 329.15 L 396.40 329.15 L 398.20 327.54 L 400.00 305.25 L 401.80 299.49 L 403.60 285.51 L 408.99 296.19 L 408.99 296.19 L 410.79 287.12 L 414.39 296.19 L 414.39 296.19 L 423.38 296.19 L 425.18 262.46 L 426.98 282.20 L 434.17 248.39 L 437.77 248.39 L 437.77 248.39 L 441.37 260.76 L 448.56 254.15 L 448.56 254.15 L 448.56 254.15 L 448.56 254.15 L 448.56 254.15 L 448.56 254.15 L 448.56 254.15 L 448.56 254.15 L 448.56 254.15 L 453.96 254.15 L 464.75 232.63 L 471.94 235.17 L 471.94 235.17 L 477.34 235.17 L 484.53 235.17 L 486.33 235.17 L 486.33 235.17 L 486.33 235.17 L 486.33 235.17 L 486.33 235.17 L 509.71 235.17 L 511.51 235.17 L 522.30 139.75 L 524.10 130.68 L 525.90 130.68 L 590.65 159.15 L 597.84 159.15 L 599.64 159.15 L 601.44 175.51 L 605.04 184.49 L 605.04 184.49 L 612.23 184.49 L 614.03 184.49 L 615.83 184.49 L 617.63 184.49 L 623.02 184.49 L 624.82 184.49 L 628.42 184.49 L 630.22 184.49 L 635.61 184.49 L 637.41 184.49 L 637.41 184.49 L 642.81 184.49 L 648.20 184.49 L 650.00 184.49" /><text  class="poloto_text poloto_legend_text" x="675" y="150" >Refinance 20</text><line  class="poloto_line poloto_legend_icon poloto1stroke poloto1legend" stroke="black" x1="680" x2="730" y1="131.25" y2="131.25" /><path  class="poloto_line poloto1stroke" fill="none" stroke="black" d=" M 150.00 345.68 L 151.80 368.31 L 157.19 334.58 L 158.99 324.24 L 160.79 333.73 L 160.79 333.73 L 164.39 304.07 L 169.78 301.53 L 171.58 312.29 L 173.38 300.25 L 175.18 311.02 L 176.98 290.85 L 182.37 321.69 L 184.17 290.85 L 184.17 290.85 L 187.77 290.85 L 187.77 290.85 L 194.96 250.17 L 196.76 282.71 L 198.56 290.85 L 200.36 301.53 L 202.16 280.59 L 209.35 260.00 L 211.15 257.37 L 212.95 252.12 L 214.75 240.08 L 220.14 245.34 L 221.94 268.14 L 225.54 260.00 L 227.34 257.37 L 232.73 248.81 L 234.53 258.73 L 236.33 258.73 L 236.33 258.73 L 239.93 258.73 L 245.32 260.00 L 247.12 281.44 L 247.12 281.44 L 248.92 269.41 L 250.72 289.58 L 252.52 281.44 L 257.91 282.71 L 259.71 281.44 L 261.51 281.44 L 261.51 281.44 L 263.31 282.71 L 265.11 289.58 L 270.50 290.85 L 272.30 294.66 L 274.10 294.66 L 275.90 294.66 L 277.70 294.66 L 284.89 289.58 L 286.69 278.81 L 288.49 281.44 L 290.29 281.44 L 290.29 281.44 L 297.48 268.14 L 299.28 270.68 L 301.08 261.27 L 308.27 215.85 L 310.07 197.03 L 311.87 207.80 L 313.67 215.85 L 315.47 238.56 L 320.86 225.17 L 322.66 218.47 L 324.46 239.92 L 326.26 250.17 L 333.45 250.17 L 335.25 238.56 L 337.05 249.32 L 338.85 260.00 L 340.65 272.03 L 347.84 280.08 L 349.64 269.41 L 351.44 258.73 L 353.24 251.44 L 358.63 257.37 L 362.23 260.00 L 364.03 258.73 L 371.22 260.00 L 371.22 260.00 L 371.22 260.00 L 371.22 260.00 L 371.22 260.00 L 371.22 260.00 L 371.22 260.00 L 371.22 260.00 L 371.22 260.00 L 371.22 260.00 L 371.22 260.00 L 371.22 260.00 L 383.81 280.08 L 387.41 282.71 L 389.21 301.53 L 391.01 304.07 L 396.40 301.27 L 398.20 301.27 L 400.00 290.85 L 401.80 294.66 L 403.60 278.81 L 408.99 270.68 L 408.99 270.68 L 410.79 270.68 L 414.39 281.44 L 414.39 281.44 L 423.38 278.81 L 425.18 260.00 L 426.98 260.00 L 434.17 246.19 L 437.77 234.58 L 437.77 234.58 L 441.37 247.54 L 448.56 215.85 L 448.56 215.85 L 448.56 215.85 L 448.56 215.85 L 448.56 215.85 L 448.56 215.85 L 448.56 215.85 L 448.56 215.85 L 448.56 215.85 L 453.96 215.85 L 464.75 202.37 L 471.94 203.73 L 475.54 203.73 L 477.34 203.73 L 477.34 203.73 L 486.33 203.73 L 488.13 203.73 L 488.13 203.73 L 488.13 203.73 L 488.13 203.73 L 509.71 203.73 L 511.51 203.73 L 522.30 118.81 L 524.10 102.97 L 524.10 102.97 L 594.24 155.34 L 597.84 155.34 L 599.64 155.34 L 603.24 174.15 L 605.04 175.51 L 605.04 175.51 L 612.23 175.51 L 614.03 175.51 L 615.83 175.51 L 617.63 175.51 L 623.02 175.51 L 624.82 175.51 L 628.42 175.51 L 630.22 175.51 L 635.61 175.51 L 637.41 175.51 L 637.41 175.51 L 642.81 175.51 L 648.20 175.51 L 650.00 175.51" /><text  class="poloto_text poloto_legend_text" x="675" y="200" >Refinance 30</text><line  class="poloto_line poloto_legend_icon poloto2stroke poloto2legend" stroke="black" x1="680" x2="730" y1="181.25" y2="181.25" /><path  class="poloto_line poloto2stroke" fill="none" stroke="black" d=" M 150.00 343.31 L 151.80 351.36 L 157.19 338.81 L 158.99 328.98 L 160.79 330.85 L 160.79 330.85 L 164.39 310.25 L 169.78 308.47 L 171.58 319.15 L 173.38 307.54 L 175.18 318.22 L 176.98 297.71 L 182.37 307.54 L 184.17 286.95 L 185.97 286.95 L 187.77 286.02 L 189.57 260.00 L 194.96 264.58 L 196.76 276.27 L 198.56 286.95 L 200.36 277.20 L 202.16 265.51 L 209.35 256.61 L 211.15 242.12 L 212.95 240.17 L 214.75 238.14 L 220.14 242.12 L 221.94 258.73 L 225.54 256.61 L 227.34 254.66 L 232.73 244.07 L 234.53 255.59 L 236.33 244.07 L 236.33 244.07 L 239.93 244.07 L 245.32 246.02 L 247.12 264.58 L 247.12 264.58 L 248.92 255.59 L 250.72 256.61 L 252.52 257.54 L 257.91 265.51 L 259.71 256.61 L 261.51 256.61 L 261.51 256.61 L 263.31 266.44 L 265.11 267.46 L 270.50 268.39 L 272.30 277.20 L 274.10 277.20 L 275.90 279.07 L 277.70 279.07 L 284.89 275.25 L 286.69 264.58 L 288.49 266.44 L 290.29 265.51 L 290.29 265.51 L 297.48 255.59 L 299.28 255.59 L 301.08 245.00 L 308.27 202.12 L 310.07 171.78 L 311.87 190.34 L 313.67 202.12 L 315.47 212.80 L 320.86 203.05 L 322.66 202.12 L 324.46 221.61 L 326.26 223.56 L 333.45 223.56 L 335.25 211.86 L 337.05 221.61 L 338.85 232.29 L 340.65 255.59 L 347.84 256.61 L 349.64 245.00 L 351.44 224.58 L 353.24 221.61 L 358.63 241.10 L 362.23 223.56 L 364.03 222.54 L 371.22 242.12 L 371.22 242.12 L 371.22 242.12 L 371.22 242.12 L 371.22 242.12 L 371.22 242.12 L 374.82 242.12 L 374.82 242.12 L 374.82 242.12 L 374.82 242.12 L 374.82 242.12 L 374.82 242.12 L 383.81 254.66 L 387.41 256.61 L 389.21 275.25 L 391.01 287.88 L 396.40 286.95 L 398.20 286.95 L 400.00 265.51 L 401.80 268.39 L 403.60 254.66 L 408.99 265.51 L 408.99 265.51 L 410.79 257.54 L 414.39 266.44 L 414.39 266.44 L 423.38 264.58 L 425.18 246.02 L 426.98 245.00 L 434.17 220.59 L 437.77 211.86 L 437.77 211.86 L 441.37 222.54 L 448.56 210.85 L 448.56 210.85 L 448.56 210.85 L 448.56 210.85 L 448.56 210.85 L 448.56 210.85 L 448.56 210.85 L 448.56 210.85 L 453.96 210.85 L 453.96 209.83 L 464.75 197.03 L 471.94 175.51 L 471.94 175.51 L 477.34 175.51 L 477.34 175.51 L 486.33 175.51 L 488.13 175.51 L 488.13 175.51 L 488.13 175.51 L 488.13 175.51 L 509.71 175.51 L 511.51 175.51 L 522.30 127.03 L 524.10 100.00 L 524.10 100.00 L 594.24 146.44 L 597.84 146.44 L 599.64 146.44 L 601.44 150.76 L 605.04 160.59 L 605.04 160.59 L 612.23 160.59 L 614.03 160.59 L 615.83 160.59 L 617.63 160.59 L 623.02 160.59 L 624.82 160.59 L 628.42 160.59 L 630.22 160.59 L 635.61 160.59 L 637.41 160.59 L 637.41 160.59 L 642.81 160.59 L 648.20 160.59 L 650.00 160.59" /><text  class="poloto_labels poloto_text poloto_title" x="400" y="37.5" >lower.com purchase rates</text><text  class="poloto_labels poloto_text poloto_xname" x="400" y="481.25" >Date</text><text  class="poloto_labels poloto_text poloto_yname" transform="rotate(-90,37.5,250)" x="37.5" y="250" >Rate (%)</text><text  class="poloto_tick_labels poloto_text" dominant-baseline="middle" text-anchor="start" x="150" y="70" ></text><line  class="poloto_axis_lines" stroke="black" x1="150" x2="144" y1="390.2542372881356" y2="390.2542372881356" /><line  class="poloto_tick_line" stroke="black" x1="150" x2="650" y1="390.2542372881356" y2="390.2542372881356" /><text  class="poloto_tick_labels poloto_text" dominant-baseline="middle" text-anchor="end" x="135" y="390.2542372881356" >3.625</text><line  class="poloto_axis_lines" stroke="black" x1="150" x2="144" y1="379.66101694915255" y2="379.66101694915255" /><line  class="poloto_tick_line" stroke="black" x1="150" x2="650" y1="379.66101694915255" y2="379.66101694915255" /><text  class="poloto_tick_labels poloto_text" dominant-baseline="middle" text-anchor="end" x="135" y="379.66101694915255" >3.75</text><line  class="poloto_axis_lines" stroke="black" x1="150" x2="144" y1="369.06779661016947" y2="369.06779661016947" /><line  class="poloto_tick_line" stroke="black" x1="150" x2="650" y1="369.06779661016947" y2="369.06779661016947" /><text  class="poloto_tick_labels poloto_text" dominant-baseline="middle" text-anchor="end" x="135" y="369.06779661016947" >3.875</text><line  class="poloto_axis_lines" stroke="black" x1="150" x2="144" y1="358.47457627118644" y2="358.47457627118644" /><line  class="poloto_tick_line" stroke="black" x1="150" x2="650" y1="358.47457627118644" y2="358.47457627118644" /><text  class="poloto_tick_labels poloto_text" dominant-baseline="middle" text-anchor="end" x="135" y="358.47457627118644" >4</text><line  class="poloto_axis_lines" stroke="black" x1="150" x2="144" y1="347.8813559322034" y2="347.8813559322034" /><line  class="poloto_tick_line" stroke="black" x1="150" x2="650" y1="347.8813559322034" y2="347.8813559322034" /><text  class="poloto_tick_labels poloto_text" dominant-baseline="middle" text-anchor="end" x="135" y="347.8813559322034" >4.125</text><line  class="poloto_axis_lines" stroke="black" x1="150" x2="144" y1="337.2881355932203" y2="337.2881355932203" /><line  class="poloto_tick_line" stroke="black" x1="150" x2="650" y1="337.2881355932203" y2="337.2881355932203" /><text  class="poloto_tick_labels poloto_text" dominant-baseline="middle" text-anchor="end" x="135" y="337.2881355932203" >4.25</text><line  class="poloto_axis_lines" stroke="black" x1="150" x2="144" y1="326.6949152542373" y2="326.6949152542373" /><line  class="poloto_tick_line" stroke="black" x1="150" x2="650" y1="326.6949152542373" y2="326.6949152542373" /><text  class="poloto_tick_labels poloto_text" dominant-baseline="middle" text-anchor="end" x="135" y="326.6949152542373" >4.375</text><line  class="poloto_axis_lines" stroke="black" x1="150" x2="144" y1="316.10169491525426" y2="316.10169491525426" /><line  class="poloto_tick_line" stroke="black" x1="150" x2="650" y1="316.10169491525426" y2="316.10169491525426" /><text  class="poloto_tick_labels poloto_text" dominant-baseline="middle" text-anchor="end" x="135" y="316.10169491525426" >4.5</text><line  class="poloto_axis_lines" stroke="black" x1="150" x2="144" y1="305.50847457627117" y2="305.50847457627117" /><line  class="poloto_tick_line" stroke="black" x1="150" x2="650" y1="305.50847457627117" y2="305.50847457627117" /><text  class="poloto_tick_labels poloto_text" dominant-baseline="middle" text-anchor="end" x="135" y="305.50847457627117" >4.625</text><line  class="poloto_axis_lines" stroke="black" x1="150" x2="144" y1="294.91525423728814" y2="294.91525423728814" /><line  class="poloto_tick_line" stroke="black" x1="150" x2="650" y1="294.91525423728814" y2="294.91525423728814" /><text  class="poloto_tick_labels poloto_text" dominant-baseline="middle" text-anchor="end" x="135" y="294.91525423728814" >4.75</text><line  class="poloto_axis_lines" stroke="black" x1="150" x2="144" y1="284.3220338983051" y2="284.3220338983051" /><line  class="poloto_tick_line" stroke="black" x1="150" x2="650" y1="284.3220338983051" y2="284.3220338983051" /><text  class="poloto_tick_labels poloto_text" dominant-baseline="middle" text-anchor="end" x="135" y="284.3220338983051" >4.875</text><line  class="poloto_axis_lines" stroke="black" x1="150" x2="144" y1="273.728813559322" y2="273.728813559322" /><line  class="poloto_tick_line" stroke="black" x1="150" x2="650" y1="273.728813559322" y2="273.728813559322" /><text  class="poloto_tick_labels poloto_text" dominant-baseline="middle" text-anchor="end" x="135" y="273.728813559322" >5</text><line  class="poloto_axis_lines" stroke="black" x1="150" x2="144" y1="263.135593220339" y2="263.135593220339" /><line  class="poloto_tick_line" stroke="black" x1="150" x2="650" y1="263.135593220339" y2="263.135593220339" /><text  class="poloto_tick_labels poloto_text" dominant-baseline="middle" text-anchor="end" x="135" y="263.135593220339" >5.125</text><line  class="poloto_axis_lines" stroke="black" x1="150" x2="144" y1="252.54237288135596" y2="252.54237288135596" /><line  class="poloto_tick_line" stroke="black" x1="150" x2="650" y1="252.54237288135596" y2="252.54237288135596" /><text  class="poloto_tick_labels poloto_text" dominant-baseline="middle" text-anchor="end" x="135" y="252.54237288135596" >5.25</text><line  class="poloto_axis_lines" stroke="black" x1="150" x2="144" y1="241.94915254237287" y2="241.94915254237287" /><line  class="poloto_tick_line" stroke="black" x1="150" x2="650" y1="241.94915254237287" y2="241.94915254237287" /><text  class="poloto_tick_labels poloto_text" dominant-baseline="middle" text-anchor="end" x="135" y="241.94915254237287" >5.375</text><line  class="poloto_axis_lines" stroke="black" x1="150" x2="144" y1="231.35593220338984" y2="231.35593220338984" /><line  class="poloto_tick_line" stroke="black" x1="150" x2="650" y1="231.35593220338984" y2="231.35593220338984" /><text  class="poloto_tick_labels poloto_text" dominant-baseline="middle" text-anchor="end" x="135" y="231.35593220338984" >5.5</text><line  class="poloto_axis_lines" stroke="black" x1="150" x2="144" y1="220.7627118644068" y2="220.7627118644068" /><line  class="poloto_tick_line" stroke="black" x1="150" x2="650" y1="220.7627118644068" y2="220.7627118644068" /><text  class="poloto_tick_labels poloto_text" dominant-baseline="middle" text-anchor="end" x="135" y="220.7627118644068" >5.625</text><line  class="poloto_axis_lines" stroke="black" x1="150" x2="144" y1="210.16949152542372" y2="210.16949152542372" /><line  class="poloto_tick_line" stroke="black" x1="150" x2="650" y1="210.16949152542372" y2="210.16949152542372" /><text  class="poloto_tick_labels poloto_text" dominant-baseline="middle" text-anchor="end" x="135" y="210.16949152542372" >5.75</text><line  class="poloto_axis_lines" stroke="black" x1="150" x2="144" y1="199.5762711864407" y2="199.5762711864407" /><line  class="poloto_tick_line" stroke="black" x1="150" x2="650" y1="199.5762711864407" y2="199.5762711864407" /><text  class="poloto_tick_labels poloto_text" dominant-baseline="middle" text-anchor="end" x="135" y="199.5762711864407" >5.875</text><line  class="poloto_axis_lines" stroke="black" x1="150" x2="144" y1="188.98305084745766" y2="188.98305084745766" /><line  class="poloto_tick_line" stroke="black" x1="150" x2="650" y1="188.98305084745766" y2="188.98305084745766" /><text  class="poloto_tick_labels poloto_text" dominant-baseline="middle" text-anchor="end" x="135" y="188.98305084745766" >6</text><line  class="poloto_axis_lines" stroke="black" x1="150" x2="144" y1="178.38983050847457" y2="178.38983050847457" /><line  class="poloto_tick_line" stroke="black" x1="150" x2="650" y1="178.38983050847457" y2="178.38983050847457" /><text  class="poloto_tick_labels poloto_text" dominant-baseline="middle" text-anchor="end" x="135" y="178.38983050847457" >6.125</text><line  class="poloto_axis_lines" stroke="black" x1="150" x2="144" y1="167.7966101694915" y2="167.7966101694915" /><line  class="poloto_tick_line" stroke="black" x1="150" x2="650" y1="167.7966101694915" y2="167.7966101694915" /><text  class="poloto_tick_labels poloto_text" dominant-baseline="middle" text-anchor="end" x="135" y="167.7966101694915" >6.25</text><line  class="poloto_axis_lines" stroke="black" x1="150" x2="144" y1="157.2033898305085" y2="157.2033898305085" /><line  class="poloto_tick_line" stroke="black" x1="150" x2="650" y1="157.2033898305085" y2="157.2033898305085" /><text  class="poloto_tick_labels poloto_text" dominant-baseline="middle" text-anchor="end" x="135" y="157.2033898305085" >6.375</text><line  class="poloto_axis_lines" stroke="black" x1="150" x2="144" y1="146.61016949152543" y2="146.61016949152543" /><line  class="poloto_tick_line" stroke="black" x1="150" x2="650" y1="146.61016949152543" y2="146.61016949152543" /><text  class="poloto_tick_labels poloto_text" dominant-baseline="middle" text-anchor="end" x="135" y="146.61016949152543" >6.5</text><line  class="poloto_axis_lines" stroke="black" x1="150" x2="144" y1="136.01694915254234" y2="136.01694915254234" /><line  class="poloto_tick_line" stroke="black" x1="150" x2="650" y1="136.01694915254234" y2="136.01694915254234" /><text  class="poloto_tick_labels poloto_text" dominant-baseline="middle" text-anchor="end" x="135" y="136.01694915254234" >6.625</text><line  class="poloto_axis_lines" stroke="black" x1="150" x2="144" y1="125.42372881355936" y2="125.42372881355936" /><line  class="poloto_tick_line" stroke="black" x1="150" x2="650" y1="125.42372881355936" y2="125.42372881355936" /><text  class="poloto_tick_labels poloto_text" dominant-baseline="middle" text-anchor="end" x="135" y="125.42372881355936" >6.75</text><line  class="poloto_axis_lines" stroke="black" x1="150" x2="144" y1="114.83050847457628" y2="114.83050847457628" /><line  class="poloto_tick_line" stroke="black" x1="150" x2="650" y1="114.83050847457628" y2="114.83050847457628" /><text  class="poloto_tick_labels poloto_text" dominant-baseline="middle" text-anchor="end" x="135" y="114.83050847457628" >6.875</text><line  class="poloto_axis_lines" stroke="black" x1="150" x2="144" y1="104.23728813559319" y2="104.23728813559319" /><line  class="poloto_tick_line" stroke="black" x1="150" x2="650" y1="104.23728813559319" y2="104.23728813559319" /><text  class="poloto_tick_labels poloto_text" dominant-baseline="middle" text-anchor="end" x="135" y="104.23728813559319" >7</text><text  class="poloto_tick_labels poloto_text" dominant-baseline="middle" text-anchor="start" x="440.00000000000006" y="70" >¹2022-05-01 00:00:00 UTC in Months</text><line  class="poloto_axis_lines" stroke="black" x1="230.93525179856078" x2="230.93525179856078" y1="400" y2="405" /><line  class="poloto_tick_line" stroke="black" x1="230.93525179856078" x2="230.93525179856078" y1="400" y2="100" /><text  class="poloto_tick_labels poloto_text" dominant-baseline="start" text-anchor="middle" x="230.93525179856078" y="430" >2022 May¹</text><line  class="poloto_axis_lines" stroke="black" x1="340.64748201439215" x2="340.64748201439215" y1="400" y2="405" /><line  class="poloto_tick_line" stroke="black" x1="340.64748201439215" x2="340.64748201439215" y1="400" y2="100" /><text  class="poloto_tick_labels poloto_text" dominant-baseline="start" text-anchor="middle" x="340.64748201439215" y="430" >2022 Jul</text><line  class="poloto_axis_lines" stroke="black" x1="452.1582733812975" x2="452.1582733812975" y1="400" y2="405" /><line  class="poloto_tick_line" stroke="black" x1="452.1582733812975" x2="452.1582733812975" y1="400" y2="100" /><text  class="poloto_tick_labels poloto_text" dominant-baseline="start" text-anchor="middle" x="452.1582733812975" y="430" >2022 Sep</text><line  class="poloto_axis_lines" stroke="black" x1="561.8705035971216" x2="561.8705035971216" y1="400" y2="405" /><line  class="poloto_tick_line" stroke="black" x1="561.8705035971216" x2="561.8705035971216" y1="400" y2="100" /><text  class="poloto_tick_labels poloto_text" dominant-baseline="start" text-anchor="middle" x="561.8705035971216" y="430" >2022 Nov</text><path  stroke="black" fill="none" class="poloto_axis_lines" d=" M 150 400 L 650 400" /><path  stroke="black" fill="none" class="poloto_axis_lines" d=" M 150 400 L 150 100" /></svg>