<svg class="poloto" width="800" height="500" viewBox="0 0 800 500" xmlns="http://www.w3.org/2000/svg"><style>.poloto{stroke-linecap:round;stroke-linejoin:round;font-family:Roboto,sans-serif;font-size:16px;}.poloto_background{fill:#262626;}.poloto_scatter{stroke-width:7}.poloto_tick_line{stroke:dimgray;stroke-width:0.5}.poloto_line{stroke-width:2}.poloto_text{fill: white;}.poloto_axis_lines{stroke: white;stroke-width:3;fill:none;stroke-dasharray:none}.poloto_title{font-size:24px;dominant-baseline:start;text-anchor:middle;}.poloto_xname{font-size:24px;dominant-baseline:start;text-anchor:middle;}.poloto_yname{font-size:24px;dominant-baseline:start;text-anchor:middle;}.poloto0stroke{stroke:blue;}.poloto1stroke{stroke:red;}.poloto2stroke{stroke:green;}.poloto3stroke{stroke:gold;}.poloto4stroke{stroke:aqua;}.poloto5stroke{stroke:lime;}.poloto6stroke{stroke:orange;}.poloto7stroke{stroke:chocolate;}.poloto0fill{fill:blue;}.poloto1fill{fill:red;}.poloto2fill{fill:green;}.poloto3fill{fill:gold;}.poloto4fill{fill:aqua;}.poloto5fill{fill:lime;}.poloto6fill{fill:orange;}.poloto7fill{fill:chocolate;}</style><circle  r="1e5" class="poloto_background" /><text  class="poloto_text poloto_legend_text" x="675" y="100" >Refinance 15</text><line  class="poloto_line poloto_legend_icon poloto0stroke poloto0legend" stroke="black" x1="680" x2="730" y1="81.25" y2="81.25" /><path  class="poloto_line poloto0stroke" fill="none" stroke="black" d=" M 150.00 392.46 L 151.79 400.00 L 157.17 389.32 L 158.96 380.17 L 160.75 389.32 L 160.75 389.32 L 164.34 358.81 L 169.71 357.20 L 171.51 367.88 L 173.30 344.83 L 175.09 346.44 L 176.88 341.61 L 182.26 343.22 L 184.05 336.78 L 184.05 336.78 L 187.63 337.37 L 189.43 314.32 L 194.80 324.32 L 196.59 327.54 L 198.39 327.54 L 200.18 326.69 L 201.97 321.78 L 209.14 278.73 L 210.93 297.88 L 212.72 283.05 L 214.52 277.29 L 214.52 277.29 L 221.68 299.58 L 225.27 303.64 L 227.06 294.58 L 232.44 283.81 L 234.23 305.25 L 236.02 294.58 L 236.02 294.58 L 239.61 292.88 L 244.98 296.19 L 246.77 306.86 L 246.77 306.86 L 248.57 297.80 L 250.36 308.56 L 252.15 292.88 L 257.53 325.08 L 259.32 324.32 L 261.11 306.86 L 261.11 306.86 L 262.90 314.32 L 264.70 317.63 L 270.07 317.63 L 271.86 329.15 L 273.66 329.15 L 275.45 329.15 L 277.24 329.15 L 284.41 317.63 L 286.20 314.32 L 287.99 315.93 L 289.78 315.93 L 289.78 315.93 L 296.95 305.25 L 298.75 305.25 L 300.54 296.19 L 307.71 281.36 L 309.50 250.76 L 311.29 254.15 L 313.08 254.15 L 314.87 275.59 L 320.25 254.15 L 322.04 254.15 L 323.84 273.90 L 325.63 277.29 L 332.80 277.29 L 334.59 275.59 L 336.38 280.59 L 338.17 285.51 L 339.96 296.19 L 347.13 303.64 L 348.92 294.58 L 350.72 287.12 L 352.51 283.81 L 357.89 285.51 L 361.47 285.51 L 363.26 283.81 L 370.43 282.20 L 370.43 282.20 L 370.43 282.20 L 370.43 282.20 L 370.43 282.20 L 370.43 282.20 L 374.01 282.20 L 374.01 282.20 L 374.01 282.20 L 374.01 282.20 L 374.01 282.20 L 374.01 282.20 L 382.97 294.58 L 386.56 297.80 L 388.35 325.93 L 390.14 329.15 L 395.52 329.15 L 397.31 327.54 L 399.10 305.25 L 400.90 299.49 L 402.69 285.51 L 408.06 296.19 L 408.06 296.19 L 409.86 287.12 L 413.44 296.19 L 413.44 296.19 L 422.40 296.19 L 424.19 262.46 L 425.99 282.20 L 433.15 248.39 L 436.74 248.39 L 436.74 248.39 L 440.32 260.76 L 447.49 254.15 L 447.49 254.15 L 447.49 254.15 L 447.49 254.15 L 447.49 254.15 L 447.49 254.15 L 447.49 254.15 L 447.49 254.15 L 447.49 254.15 L 452.87 254.15 L 463.62 232.63 L 470.79 235.17 L 470.79 235.17 L 476.16 235.17 L 483.33 235.17 L 485.13 235.17 L 485.13 235.17 L 485.13 235.17 L 485.13 235.17 L 485.13 235.17 L 508.42 235.17 L 510.22 235.17 L 520.97 139.75 L 522.76 130.68 L 524.55 130.68 L 589.07 159.15 L 596.24 159.15 L 598.03 159.15 L 599.82 175.51 L 603.41 184.49 L 603.41 184.49 L 610.57 184.49 L 612.37 184.49 L 614.16 184.49 L 615.95 184.49 L 621.33 184.49 L 623.12 184.49 L 626.70 184.49 L 628.49 184.49 L 633.87 184.49 L 635.66 184.49 L 635.66 184.49 L 641.04 184.49 L 646.42 184.49 L 648.21 184.49 L 650.00 184.49" /><text  class="poloto_text poloto_legend_text" x="675" y="150" >Refinance 20</text><line  class="poloto_line poloto_legend_icon poloto1stroke poloto1legend" stroke="black" x1="680" x2="730" y1="131.25" y2="131.25" /><path  class="poloto_line poloto1stroke" fill="none" stroke="black" d=" M 150.00 345.68 L 151.79 368.31 L 157.17 334.58 L 158.96 324.24 L 160.75 333.73 L 160.75 333.73 L 164.34 304.07 L 169.71 301.53 L 171.51 312.29 L 173.30 300.25 L 175.09 311.02 L 176.88 290.85 L 182.26 321.69 L 184.05 290.85 L 184.05 290.85 L 187.63 290.85 L 187.63 290.85 L 194.80 250.17 L 196.59 282.71 L 198.39 290.85 L 200.18 301.53 L 201.97 280.59 L 209.14 260.00 L 210.93 257.37 L 212.72 252.12 L 214.52 240.08 L 219.89 245.34 L 221.68 268.14 L 225.27 260.00 L 227.06 257.37 L 232.44 248.81 L 234.23 258.73 L 236.02 258.73 L 236.02 258.73 L 239.61 258.73 L 244.98 260.00 L 246.77 281.44 L 246.77 281.44 L 248.57 269.41 L 250.36 289.58 L 252.15 281.44 L 257.53 282.71 L 259.32 281.44 L 261.11 281.44 L 261.11 281.44 L 262.90 282.71 L 264.70 289.58 L 270.07 290.85 L 271.86 294.66 L 273.66 294.66 L 275.45 294.66 L 277.24 294.66 L 284.41 289.58 L 286.20 278.81 L 287.99 281.44 L 289.78 281.44 L 289.78 281.44 L 296.95 268.14 L 298.75 270.68 L 300.54 261.27 L 307.71 215.85 L 309.50 197.03 L 311.29 207.80 L 313.08 215.85 L 314.87 238.56 L 320.25 225.17 L 322.04 218.47 L 323.84 239.92 L 325.63 250.17 L 332.80 250.17 L 334.59 238.56 L 336.38 249.32 L 338.17 260.00 L 339.96 272.03 L 347.13 280.08 L 348.92 269.41 L 350.72 258.73 L 352.51 251.44 L 357.89 257.37 L 361.47 260.00 L 363.26 258.73 L 370.43 260.00 L 370.43 260.00 L 370.43 260.00 L 370.43 260.00 L 370.43 260.00 L 370.43 260.00 L 370.43 260.00 L 370.43 260.00 L 370.43 260.00 L 370.43 260.00 L 370.43 260.00 L 370.43 260.00 L 382.97 280.08 L 386.56 282.71 L 388.35 301.53 L 390.14 304.07 L 395.52 301.27 L 397.31 301.27 L 399.10 290.85 L 400.90 294.66 L 402.69 278.81 L 408.06 270.68 L 408.06 270.68 L 409.86 270.68 L 413.44 281.44 L 413.44 281.44 L 422.40 278.81 L 424.19 260.00 L 425.99 260.00 L 433.15 246.19 L 436.74 234.58 L 436.74 234.58 L 440.32 247.54 L 447.49 215.85 L 447.49 215.85 L 447.49 215.85 L 447.49 215.85 L 447.49 215.85 L 447.49 215.85 L 447.49 215.85 L 447.49 215.85 L 447.49 215.85 L 452.87 215.85 L 463.62 202.37 L 470.79 203.73 L 474.37 203.73 L 476.16 203.73 L 476.16 203.73 L 485.13 203.73 L 486.92 203.73 L 486.92 203.73 L 486.92 203.73 L 486.92 203.73 L 508.42 203.73 L 510.22 203.73 L 520.97 118.81 L 522.76 102.97 L 522.76 102.97 L 592.65 155.34 L 596.24 155.34 L 598.03 155.34 L 601.61 174.15 L 603.41 175.51 L 603.41 175.51 L 610.57 175.51 L 612.37 175.51 L 614.16 175.51 L 615.95 175.51 L 621.33 175.51 L 623.12 175.51 L 626.70 175.51 L 628.49 175.51 L 633.87 175.51 L 635.66 175.51 L 635.66 175.51 L 641.04 175.51 L 646.42 175.51 L 648.21 175.51 L 650.00 175.51" /><text  class="poloto_text poloto_legend_text" x="675" y="200" >Refinance 30</text><line  class="poloto_line poloto_legend_icon poloto2stroke poloto2legend" stroke="black" x1="680" x2="730" y1="181.25" y2="181.25" /><path  class="poloto_line poloto2stroke" fill="none" stroke="black" d=" M 150.00 343.31 L 151.79 351.36 L 157.17 338.81 L 158.96 328.98 L 160.75 330.85 L 160.75 330.85 L 164.34 310.25 L 169.71 308.47 L 171.51 319.15 L 173.30 307.54 L 175.09 318.22 L 176.88 297.71 L 182.26 307.54 L 184.05 286.95 L 185.84 286.95 L 187.63 286.02 L 189.43 260.00 L 194.80 264.58 L 196.59 276.27 L 198.39 286.95 L 200.18 277.20 L 201.97 265.51 L 209.14 256.61 L 210.93 242.12 L 212.72 240.17 L 214.52 238.14 L 219.89 242.12 L 221.68 258.73 L 225.27 256.61 L 227.06 254.66 L 232.44 244.07 L 234.23 255.59 L 236.02 244.07 L 236.02 244.07 L 239.61 244.07 L 244.98 246.02 L 246.77 264.58 L 246.77 264.58 L 248.57 255.59 L 250.36 256.61 L 252.15 257.54 L 257.53 265.51 L 259.32 256.61 L 261.11 256.61 L 261.11 256.61 L 262.90 266.44 L 264.70 267.46 L 270.07 268.39 L 271.86 277.20 L 273.66 277.20 L 275.45 279.07 L 277.24 279.07 L 284.41 275.25 L 286.20 264.58 L 287.99 266.44 L 289.78 265.51 L 289.78 265.51 L 296.95 255.59 L 298.75 255.59 L 300.54 245.00 L 307.71 202.12 L 309.50 171.78 L 311.29 190.34 L 313.08 202.12 L 314.87 212.80 L 320.25 203.05 L 322.04 202.12 L 323.84 221.61 L 325.63 223.56 L 332.80 223.56 L 334.59 211.86 L 336.38 221.61 L 338.17 232.29 L 339.96 255.59 L 347.13 256.61 L 348.92 245.00 L 350.72 224.58 L 352.51 221.61 L 357.89 241.10 L 361.47 223.56 L 363.26 222.54 L 370.43 242.12 L 370.43 242.12 L 370.43 242.12 L 370.43 242.12 L 370.43 242.12 L 370.43 242.12 L 374.01 242.12 L 374.01 242.12 L 374.01 242.12 L 374.01 242.12 L 374.01 242.12 L 374.01 242.12 L 382.97 254.66 L 386.56 256.61 L 388.35 275.25 L 390.14 287.88 L 395.52 286.95 L 397.31 286.95 L 399.10 265.51 L 400.90 268.39 L 402.69 254.66 L 408.06 265.51 L 408.06 265.51 L 409.86 257.54 L 413.44 266.44 L 413.44 266.44 L 422.40 264.58 L 424.19 246.02 L 425.99 245.00 L 433.15 220.59 L 436.74 211.86 L 436.74 211.86 L 440.32 222.54 L 447.49 210.85 L 447.49 210.85 L 447.49 210.85 L 447.49 210.85 L 447.49 210.85 L 447.49 210.85 L 447.49 210.85 L 447.49 210.85 L 452.87 210.85 L 452.87 209.83 L 463.62 197.03 L 470.79 175.51 L 470.79 175.51 L 476.16 175.51 L 476.16 175.51 L 485.13 175.51 L 486.92 175.51 L 486.92 175.51 L 486.92 175.51 L 486.92 175.51 L 508.42 175.51 L 510.22 175.51 L 520.97 127.03 L 522.76 100.00 L 522.76 100.00 L 592.65 146.44 L 596.24 146.44 L 598.03 146.44 L 599.82 150.76 L 603.41 160.59 L 603.41 160.59 L 610.57 160.59 L 612.37 160.59 L 614.16 160.59 L 615.95 160.59 L 621.33 160.59 L 623.12 160.59 L 626.70 160.59 L 628.49 160.59 L 633.87 160.59 L 635.66 160.59 L 635.66 160.59 L 641.04 160.59 L 646.42 160.59 L 648.21 160.59 L 650.00 160.59" /><text  class="poloto_labels poloto_text poloto_title" x="400" y="37.5" >lower.com purchase rates</text><text  class="poloto_labels poloto_text poloto_xname" x="400" y="481.25" >Date</text><text  class="poloto_labels poloto_text poloto_yname" transform="rotate(-90,37.5,250)" x="37.5" y="250" >Rate (%)</text><text  class="poloto_tick_labels poloto_text" dominant-baseline="middle" text-anchor="start" x="150" y="70" ></text><line  class="poloto_axis_lines" stroke="black" x1="150" x2="144" y1="390.2542372881356" y2="390.2542372881356" /><line  class="poloto_tick_line" stroke="black" x1="150" x2="650" y1="390.2542372881356" y2="390.2542372881356" /><text  class="poloto_tick_labels poloto_text" dominant-baseline="middle" text-anchor="end" x="135" y="390.2542372881356" >3.625</text><line  class="poloto_axis_lines" stroke="black" x1="150" x2="144" y1="379.66101694915255" y2="379.66101694915255" /><line  class="poloto_tick_line" stroke="black" x1="150" x2="650" y1="379.66101694915255" y2="379.66101694915255" /><text  class="poloto_tick_labels poloto_text" dominant-baseline="middle" text-anchor="end" x="135" y="379.66101694915255" >3.75</text><line  class="poloto_axis_lines" stroke="black" x1="150" x2="144" y1="369.06779661016947" y2="369.06779661016947" /><line  class="poloto_tick_line" stroke="black" x1="150" x2="650" y1="369.06779661016947" y2="369.06779661016947" /><text  class="poloto_tick_labels poloto_text" dominant-baseline="middle" text-anchor="end" x="135" y="369.06779661016947" >3.875</text><line  class="poloto_axis_lines" stroke="black" x1="150" x2="144" y1="358.47457627118644" y2="358.47457627118644" /><line  class="poloto_tick_line" stroke="black" x1="150" x2="650" y1="358.47457627118644" y2="358.47457627118644" /><text  class="poloto_tick_labels poloto_text" dominant-baseline="middle" text-anchor="end" x="135" y="358.47457627118644" >4</text><line  class="poloto_axis_lines" stroke="black" x1="150" x2="144" y1="347.8813559322034" y2="347.8813559322034" /><line  class="poloto_tick_line" stroke="black" x1="150" x2="650" y1="347.8813559322034" y2="347.8813559322034" /><text  class="poloto_tick_labels poloto_text" dominant-baseline="middle" text-anchor="end" x="135" y="347.8813559322034" >4.125</text><line  class="poloto_axis_lines" stroke="black" x1="150" x2="144" y1="337.2881355932203" y2="337.2881355932203" /><line  class="poloto_tick_line" stroke="black" x1="150" x2="650" y1="337.2881355932203" y2="337.2881355932203" /><text  class="poloto_tick_labels poloto_text" dominant-baseline="middle" text-anchor="end" x="135" y="337.2881355932203" >4.25</text><line  class="poloto_axis_lines" stroke="black" x1="150" x2="144" y1="326.6949152542373" y2="326.6949152542373" /><line  class="poloto_tick_line" stroke="black" x1="150" x2="650" y1="326.6949152542373" y2="326.6949152542373" /><text  class="poloto_tick_labels poloto_text" dominant-baseline="middle" text-anchor="end" x="135" y="326.6949152542373" >4.375</text><line  class="poloto_axis_lines" stroke="black" x1="150" x2="144" y1="316.10169491525426" y2="316.10169491525426" /><line  class="poloto_tick_line" stroke="black" x1="150" x2="650" y1="316.10169491525426" y2="316.10169491525426" /><text  class="poloto_tick_labels poloto_text" dominant-baseline="middle" text-anchor="end" x="135" y="316.10169491525426" >4.5</text><line  class="poloto_axis_lines" stroke="black" x1="150" x2="144" y1="305.50847457627117" y2="305.50847457627117" /><line  class="poloto_tick_line" stroke="black" x1="150" x2="650" y1="305.50847457627117" y2="305.50847457627117" /><text  class="poloto_tick_labels poloto_text" dominant-baseline="middle" text-anchor="end" x="135" y="305.50847457627117" >4.625</text><line  class="poloto_axis_lines" stroke="black" x1="150" x2="144" y1="294.91525423728814" y2="294.91525423728814" /><line  class="poloto_tick_line" stroke="black" x1="150" x2="650" y1="294.91525423728814" y2="294.91525423728814" /><text  class="poloto_tick_labels poloto_text" dominant-baseline="middle" text-anchor="end" x="135" y="294.91525423728814" >4.75</text><line  class="poloto_axis_lines" stroke="black" x1="150" x2="144" y1="284.3220338983051" y2="284.3220338983051" /><line  class="poloto_tick_line" stroke="black" x1="150" x2="650" y1="284.3220338983051" y2="284.3220338983051" /><text  class="poloto_tick_labels poloto_text" dominant-baseline="middle" text-anchor="end" x="135" y="284.3220338983051" >4.875</text><line  class="poloto_axis_lines" stroke="black" x1="150" x2="144" y1="273.728813559322" y2="273.728813559322" /><line  class="poloto_tick_line" stroke="black" x1="150" x2="650" y1="273.728813559322" y2="273.728813559322" /><text  class="poloto_tick_labels poloto_text" dominant-baseline="middle" text-anchor="end" x="135" y="273.728813559322" >5</text><line  class="poloto_axis_lines" stroke="black" x1="150" x2="144" y1="263.135593220339" y2="263.135593220339" /><line  class="poloto_tick_line" stroke="black" x1="150" x2="650" y1="263.135593220339" y2="263.135593220339" /><text  class="poloto_tick_labels poloto_text" dominant-baseline="middle" text-anchor="end" x="135" y="263.135593220339" >5.125</text><line  class="poloto_axis_lines" stroke="black" x1="150" x2="144" y1="252.54237288135596" y2="252.54237288135596" /><line  class="poloto_tick_line" stroke="black" x1="150" x2="650" y1="252.54237288135596" y2="252.54237288135596" /><text  class="poloto_tick_labels poloto_text" dominant-baseline="middle" text-anchor="end" x="135" y="252.54237288135596" >5.25</text><line  class="poloto_axis_lines" stroke="black" x1="150" x2="144" y1="241.94915254237287" y2="241.94915254237287" /><line  class="poloto_tick_line" stroke="black" x1="150" x2="650" y1="241.94915254237287" y2="241.94915254237287" /><text  class="poloto_tick_labels poloto_text" dominant-baseline="middle" text-anchor="end" x="135" y="241.94915254237287" >5.375</text><line  class="poloto_axis_lines" stroke="black" x1="150" x2="144" y1="231.35593220338984" y2="231.35593220338984" /><line  class="poloto_tick_line" stroke="black" x1="150" x2="650" y1="231.35593220338984" y2="231.35593220338984" /><text  class="poloto_tick_labels poloto_text" dominant-baseline="middle" text-anchor="end" x="135" y="231.35593220338984" >5.5</text><line  class="poloto_axis_lines" stroke="black" x1="150" x2="144" y1="220.7627118644068" y2="220.7627118644068" /><line  class="poloto_tick_line" stroke="black" x1="150" x2="650" y1="220.7627118644068" y2="220.7627118644068" /><text  class="poloto_tick_labels poloto_text" dominant-baseline="middle" text-anchor="end" x="135" y="220.7627118644068" >5.625</text><line  class="poloto_axis_lines" stroke="black" x1="150" x2="144" y1="210.16949152542372" y2="210.16949152542372" /><line  class="poloto_tick_line" stroke="black" x1="150" x2="650" y1="210.16949152542372" y2="210.16949152542372" /><text  class="poloto_tick_labels poloto_text" dominant-baseline="middle" text-anchor="end" x="135" y="210.16949152542372" >5.75</text><line  class="poloto_axis_lines" stroke="black" x1="150" x2="144" y1="199.5762711864407" y2="199.5762711864407" /><line  class="poloto_tick_line" stroke="black" x1="150" x2="650" y1="199.5762711864407" y2="199.5762711864407" /><text  class="poloto_tick_labels poloto_text" dominant-baseline="middle" text-anchor="end" x="135" y="199.5762711864407" >5.875</text><line  class="poloto_axis_lines" stroke="black" x1="150" x2="144" y1="188.98305084745766" y2="188.98305084745766" /><line  class="poloto_tick_line" stroke="black" x1="150" x2="650" y1="188.98305084745766" y2="188.98305084745766" /><text  class="poloto_tick_labels poloto_text" dominant-baseline="middle" text-anchor="end" x="135" y="188.98305084745766" >6</text><line  class="poloto_axis_lines" stroke="black" x1="150" x2="144" y1="178.38983050847457" y2="178.38983050847457" /><line  class="poloto_tick_line" stroke="black" x1="150" x2="650" y1="178.38983050847457" y2="178.38983050847457" /><text  class="poloto_tick_labels poloto_text" dominant-baseline="middle" text-anchor="end" x="135" y="178.38983050847457" >6.125</text><line  class="poloto_axis_lines" stroke="black" x1="150" x2="144" y1="167.7966101694915" y2="167.7966101694915" /><line  class="poloto_tick_line" stroke="black" x1="150" x2="650" y1="167.7966101694915" y2="167.7966101694915" /><text  class="poloto_tick_labels poloto_text" dominant-baseline="middle" text-anchor="end" x="135" y="167.7966101694915" >6.25</text><line  class="poloto_axis_lines" stroke="black" x1="150" x2="144" y1="157.2033898305085" y2="157.2033898305085" /><line  class="poloto_tick_line" stroke="black" x1="150" x2="650" y1="157.2033898305085" y2="157.2033898305085" /><text  class="poloto_tick_labels poloto_text" dominant-baseline="middle" text-anchor="end" x="135" y="157.2033898305085" >6.375</text><line  class="poloto_axis_lines" stroke="black" x1="150" x2="144" y1="146.61016949152543" y2="146.61016949152543" /><line  class="poloto_tick_line" stroke="black" x1="150" x2="650" y1="146.61016949152543" y2="146.61016949152543" /><text  class="poloto_tick_labels poloto_text" dominant-baseline="middle" text-anchor="end" x="135" y="146.61016949152543" >6.5</text><line  class="poloto_axis_lines" stroke="black" x1="150" x2="144" y1="136.01694915254234" y2="136.01694915254234" /><line  class="poloto_tick_line" stroke="black" x1="150" x2="650" y1="136.01694915254234" y2="136.01694915254234" /><text  class="poloto_tick_labels poloto_text" dominant-baseline="middle" text-anchor="end" x="135" y="136.01694915254234" >6.625</text><line  class="poloto_axis_lines" stroke="black" x1="150" x2="144" y1="125.42372881355936" y2="125.42372881355936" /><line  class="poloto_tick_line" stroke="black" x1="150" x2="650" y1="125.42372881355936" y2="125.42372881355936" /><text  class="poloto_tick_labels poloto_text" dominant-baseline="middle" text-anchor="end" x="135" y="125.42372881355936" >6.75</text><line  class="poloto_axis_lines" stroke="black" x1="150" x2="144" y1="114.83050847457628" y2="114.83050847457628" /><line  class="poloto_tick_line" stroke="black" x1="150" x2="650" y1="114.83050847457628" y2="114.83050847457628" /><text  class="poloto_tick_labels poloto_text" dominant-baseline="middle" text-anchor="end" x="135" y="114.83050847457628" >6.875</text><line  class="poloto_axis_lines" stroke="black" x1="150" x2="144" y1="104.23728813559319" y2="104.23728813559319" /><line  class="poloto_tick_line" stroke="black" x1="150" x2="650" y1="104.23728813559319" y2="104.23728813559319" /><text  class="poloto_tick_labels poloto_text" dominant-baseline="middle" text-anchor="end" x="135" y="104.23728813559319" >7</text><text  class="poloto_tick_labels poloto_text" dominant-baseline="middle" text-anchor="start" x="440.00000000000006" y="70" >¹2022-05-01 00:00:00 UTC in Months</text><line  class="poloto_axis_lines" stroke="black" x1="230.64516129031836" x2="230.64516129031836" y1="400" y2="405" /><line  class="poloto_tick_line" stroke="black" x1="230.64516129031836" x2="230.64516129031836" y1="400" y2="100" /><text  class="poloto_tick_labels poloto_text" dominant-baseline="start" text-anchor="middle" x="230.64516129031836" y="430" >2022 May¹</text><line  class="poloto_axis_lines" stroke="black" x1="339.9641577060902" x2="339.9641577060902" y1="400" y2="405" /><line  class="poloto_tick_line" stroke="black" x1="339.9641577060902" x2="339.9641577060902" y1="400" y2="100" /><text  class="poloto_tick_labels poloto_text" dominant-baseline="start" text-anchor="middle" x="339.9641577060902" y="430" >2022 Jul</text><line  class="poloto_axis_lines" stroke="black" x1="451.0752688171997" x2="451.0752688171997" y1="400" y2="405" /><line  class="poloto_tick_line" stroke="black" x1="451.0752688171997" x2="451.0752688171997" y1="400" y2="100" /><text  class="poloto_tick_labels poloto_text" dominant-baseline="start" text-anchor="middle" x="451.0752688171997" y="430" >2022 Sep</text><line  class="poloto_axis_lines" stroke="black" x1="560.3942652329715" x2="560.3942652329715" y1="400" y2="405" /><line  class="poloto_tick_line" stroke="black" x1="560.3942652329715" x2="560.3942652329715" y1="400" y2="100" /><text  class="poloto_tick_labels poloto_text" dominant-baseline="start" text-anchor="middle" x="560.3942652329715" y="430" >2022 Nov</text><path  stroke="black" fill="none" class="poloto_axis_lines" d=" M 150 400 L 650 400" /><path  stroke="black" fill="none" class="poloto_axis_lines" d=" M 150 400 L 150 100" /></svg>