<svg class="poloto" width="800" height="500" viewBox="0 0 800 500" xmlns="http://www.w3.org/2000/svg"><style>.poloto{stroke-linecap:round;stroke-linejoin:round;font-family:Roboto,sans-serif;font-size:16px;}.poloto_background{fill:#262626;}.poloto_scatter{stroke-width:7}.poloto_tick_line{stroke:dimgray;stroke-width:0.5}.poloto_line{stroke-width:2}.poloto_text{fill: white;}.poloto_axis_lines{stroke: white;stroke-width:3;fill:none;stroke-dasharray:none}.poloto_title{font-size:24px;dominant-baseline:start;text-anchor:middle;}.poloto_xname{font-size:24px;dominant-baseline:start;text-anchor:middle;}.poloto_yname{font-size:24px;dominant-baseline:start;text-anchor:middle;}.poloto0stroke{stroke:blue;}.poloto1stroke{stroke:red;}.poloto2stroke{stroke:green;}.poloto3stroke{stroke:gold;}.poloto4stroke{stroke:aqua;}.poloto5stroke{stroke:lime;}.poloto6stroke{stroke:orange;}.poloto7stroke{stroke:chocolate;}.poloto0fill{fill:blue;}.poloto1fill{fill:red;}.poloto2fill{fill:green;}.poloto3fill{fill:gold;}.poloto4fill{fill:aqua;}.poloto5fill{fill:lime;}.poloto6fill{fill:orange;}.poloto7fill{fill:chocolate;}</style><circle  r="1e5" class="poloto_background" /><text  class="poloto_text poloto_legend_text" x="675" y="100" >30 years</text><line  class="poloto_line poloto_legend_icon poloto0stroke poloto0legend" stroke="black" x1="680" x2="730" y1="81.25" y2="81.25" /><path  class="poloto_line poloto0stroke" fill="none" stroke="black" d=" M 150.00 350.00 L 155.68 375.00 L 172.73 350.00 L 178.41 325.00 L 184.09 325.00 L 184.09 325.00 L 195.45 275.00 L 212.50 275.00 L 218.18 300.00 L 223.86 325.00 L 229.55 350.00 L 235.23 300.00 L 252.27 325.00 L 257.95 300.00 L 263.64 275.00 L 269.32 250.00 L 275.00 250.00 L 292.05 250.00 L 297.73 275.00 L 303.41 275.00 L 309.09 275.00 L 314.77 225.00 L 337.50 202.00 L 343.18 200.00 L 348.86 200.00 L 354.55 175.00 L 371.59 200.00 L 377.27 225.00 L 388.64 202.00 L 394.32 202.00 L 411.36 202.00 L 417.05 202.00 L 422.73 202.00 L 428.41 202.00 L 434.09 175.00 L 451.14 200.00 L 456.82 202.00 L 456.82 202.00 L 462.50 202.00 L 468.18 202.00 L 473.86 202.00 L 490.91 202.00 L 496.59 202.00 L 502.27 202.00 L 502.27 202.00 L 507.95 202.00 L 513.64 250.00 L 530.68 250.00 L 536.36 275.00 L 542.05 275.00 L 547.73 300.00 L 553.41 275.00 L 576.14 250.00 L 581.82 225.00 L 587.50 250.00 L 593.18 250.00 L 610.23 225.00 L 615.91 202.00 L 621.59 202.00 L 627.27 202.00 L 650.00 100.00" /><text  class="poloto_labels poloto_text poloto_title" x="400" y="37.5" >lower.com purchase rates</text><text  class="poloto_labels poloto_text poloto_xname" x="400" y="481.25" >Date</text><text  class="poloto_labels poloto_text poloto_yname" transform="rotate(-90,37.5,250)" x="37.5" y="250" >Rate (%)</text><text  class="poloto_tick_labels poloto_text" dominant-baseline="middle" text-anchor="start" x="150" y="70" ></text><line  class="poloto_axis_lines" stroke="black" x1="150" x2="144" y1="400" y2="400" /><line  class="poloto_tick_line" stroke="black" x1="150" x2="650" y1="400" y2="400" /><text  class="poloto_tick_labels poloto_text" dominant-baseline="middle" text-anchor="end" x="135" y="400" >4</text><line  class="poloto_axis_lines" stroke="black" x1="150" x2="144" y1="375" y2="375" /><line  class="poloto_tick_line" stroke="black" x1="150" x2="650" y1="375" y2="375" /><text  class="poloto_tick_labels poloto_text" dominant-baseline="middle" text-anchor="end" x="135" y="375" >4.125</text><line  class="poloto_axis_lines" stroke="black" x1="150" x2="144" y1="350" y2="350" /><line  class="poloto_tick_line" stroke="black" x1="150" x2="650" y1="350" y2="350" /><text  class="poloto_tick_labels poloto_text" dominant-baseline="middle" text-anchor="end" x="135" y="350" >4.25</text><line  class="poloto_axis_lines" stroke="black" x1="150" x2="144" y1="325" y2="325" /><line  class="poloto_tick_line" stroke="black" x1="150" x2="650" y1="325" y2="325" /><text  class="poloto_tick_labels poloto_text" dominant-baseline="middle" text-anchor="end" x="135" y="325" >4.375</text><line  class="poloto_axis_lines" stroke="black" x1="150" x2="144" y1="300" y2="300" /><line  class="poloto_tick_line" stroke="black" x1="150" x2="650" y1="300" y2="300" /><text  class="poloto_tick_labels poloto_text" dominant-baseline="middle" text-anchor="end" x="135" y="300" >4.5</text><line  class="poloto_axis_lines" stroke="black" x1="150" x2="144" y1="275" y2="275" /><line  class="poloto_tick_line" stroke="black" x1="150" x2="650" y1="275" y2="275" /><text  class="poloto_tick_labels poloto_text" dominant-baseline="middle" text-anchor="end" x="135" y="275" >4.625</text><line  class="poloto_axis_lines" stroke="black" x1="150" x2="144" y1="250" y2="250" /><line  class="poloto_tick_line" stroke="black" x1="150" x2="650" y1="250" y2="250" /><text  class="poloto_tick_labels poloto_text" dominant-baseline="middle" text-anchor="end" x="135" y="250" >4.75</text><line  class="poloto_axis_lines" stroke="black" x1="150" x2="144" y1="225" y2="225" /><line  class="poloto_tick_line" stroke="black" x1="150" x2="650" y1="225" y2="225" /><text  class="poloto_tick_labels poloto_text" dominant-baseline="middle" text-anchor="end" x="135" y="225" >4.875</text><line  class="poloto_axis_lines" stroke="black" x1="150" x2="144" y1="200" y2="200" /><line  class="poloto_tick_line" stroke="black" x1="150" x2="650" y1="200" y2="200" /><text  class="poloto_tick_labels poloto_text" dominant-baseline="middle" text-anchor="end" x="135" y="200" >5</text><line  class="poloto_axis_lines" stroke="black" x1="150" x2="144" y1="175" y2="175" /><line  class="poloto_tick_line" stroke="black" x1="150" x2="650" y1="175" y2="175" /><text  class="poloto_tick_labels poloto_text" dominant-baseline="middle" text-anchor="end" x="135" y="175" >5.125</text><line  class="poloto_axis_lines" stroke="black" x1="150" x2="144" y1="150" y2="150" /><line  class="poloto_tick_line" stroke="black" x1="150" x2="650" y1="150" y2="150" /><text  class="poloto_tick_labels poloto_text" dominant-baseline="middle" text-anchor="end" x="135" y="150" >5.25</text><line  class="poloto_axis_lines" stroke="black" x1="150" x2="144" y1="125" y2="125" /><line  class="poloto_tick_line" stroke="black" x1="150" x2="650" y1="125" y2="125" /><text  class="poloto_tick_labels poloto_text" dominant-baseline="middle" text-anchor="end" x="135" y="125" >5.375</text><line  class="poloto_axis_lines" stroke="black" x1="150" x2="144" y1="100" y2="100" /><line  class="poloto_tick_line" stroke="black" x1="150" x2="650" y1="100" y2="100" /><text  class="poloto_tick_labels poloto_text" dominant-baseline="middle" text-anchor="end" x="135" y="100" >5.5</text><text  class="poloto_tick_labels poloto_text" dominant-baseline="middle" text-anchor="start" x="440.00000000000006" y="70" >¹2022-04-01 00:00:00 UTC in Months</text><line  class="poloto_axis_lines" stroke="black" x1="235.22727272727934" x2="235.22727272727934" y1="400" y2="405" /><line  class="poloto_tick_line" stroke="black" x1="235.22727272727934" x2="235.22727272727934" y1="400" y2="100" /><text  class="poloto_tick_labels poloto_text" dominant-baseline="start" text-anchor="middle" x="235.22727272727934" y="430" >2022 Apr¹</text><line  class="poloto_axis_lines" stroke="black" x1="405.6818181818235" x2="405.6818181818235" y1="400" y2="405" /><line  class="poloto_tick_line" stroke="black" x1="405.6818181818235" x2="405.6818181818235" y1="400" y2="100" /><text  class="poloto_tick_labels poloto_text" dominant-baseline="start" text-anchor="middle" x="405.6818181818235" y="430" >2022 May</text><line  class="poloto_axis_lines" stroke="black" x1="581.8181818181765" x2="581.8181818181765" y1="400" y2="405" /><line  class="poloto_tick_line" stroke="black" x1="581.8181818181765" x2="581.8181818181765" y1="400" y2="100" /><text  class="poloto_tick_labels poloto_text" dominant-baseline="start" text-anchor="middle" x="581.8181818181765" y="430" >2022 Jun</text><path  stroke="black" fill="none" class="poloto_axis_lines" d=" M 150 400 L 650 400" /><path  stroke="black" fill="none" class="poloto_axis_lines" d=" M 150 400 L 150 100" /></svg>