<svg class="poloto" width="800" height="500" viewBox="0 0 800 500" xmlns="http://www.w3.org/2000/svg"><style>.poloto{stroke-linecap:round;stroke-linejoin:round;font-family:Roboto,sans-serif;font-size:16px;}.poloto_background{fill:#262626;}.poloto_scatter{stroke-width:7}.poloto_tick_line{stroke:dimgray;stroke-width:0.5}.poloto_line{stroke-width:2}.poloto_text{fill: white;}.poloto_axis_lines{stroke: white;stroke-width:3;fill:none;stroke-dasharray:none}.poloto_title{font-size:24px;dominant-baseline:start;text-anchor:middle;}.poloto_xname{font-size:24px;dominant-baseline:start;text-anchor:middle;}.poloto_yname{font-size:24px;dominant-baseline:start;text-anchor:middle;}.poloto0stroke{stroke:blue;}.poloto1stroke{stroke:red;}.poloto2stroke{stroke:green;}.poloto3stroke{stroke:gold;}.poloto4stroke{stroke:aqua;}.poloto5stroke{stroke:lime;}.poloto6stroke{stroke:orange;}.poloto7stroke{stroke:chocolate;}.poloto0fill{fill:blue;}.poloto1fill{fill:red;}.poloto2fill{fill:green;}.poloto3fill{fill:gold;}.poloto4fill{fill:aqua;}.poloto5fill{fill:lime;}.poloto6fill{fill:orange;}.poloto7fill{fill:chocolate;}</style><circle  r="1e5" class="poloto_background" /><text  class="poloto_text poloto_legend_text" x="675" y="100" >Refinance 15</text><line  class="poloto_line poloto_legend_icon poloto0stroke poloto0legend" stroke="black" x1="680" x2="730" y1="81.25" y2="81.25" /><path  class="poloto_line poloto0stroke" fill="none" stroke="black" d=" M 150.00 392.46 L 152.01 400.00 L 158.03 389.32 L 160.04 380.17 L 162.05 389.32 L 162.05 389.32 L 166.06 358.81 L 172.09 357.20 L 174.10 367.88 L 176.10 344.83 L 178.11 346.44 L 180.12 341.61 L 186.14 343.22 L 188.15 336.78 L 188.15 336.78 L 192.17 337.37 L 194.18 314.32 L 200.20 324.32 L 202.21 327.54 L 204.22 327.54 L 206.22 326.69 L 208.23 321.78 L 216.27 278.73 L 218.27 297.88 L 220.28 283.05 L 222.29 277.29 L 222.29 277.29 L 230.32 299.58 L 234.34 303.64 L 236.35 294.58 L 242.37 283.81 L 244.38 305.25 L 246.39 294.58 L 246.39 294.58 L 250.40 292.88 L 256.43 296.19 L 258.43 306.86 L 258.43 306.86 L 260.44 297.80 L 262.45 308.56 L 264.46 292.88 L 270.48 325.08 L 272.49 324.32 L 274.50 306.86 L 274.50 306.86 L 276.51 314.32 L 278.51 317.63 L 284.54 317.63 L 286.55 329.15 L 288.55 329.15 L 290.56 329.15 L 292.57 329.15 L 300.60 317.63 L 302.61 314.32 L 304.62 315.93 L 306.63 315.93 L 306.63 315.93 L 314.66 305.25 L 316.67 305.25 L 318.67 296.19 L 326.71 281.36 L 328.71 250.76 L 330.72 254.15 L 332.73 254.15 L 334.74 275.59 L 340.76 254.15 L 342.77 254.15 L 344.78 273.90 L 346.79 277.29 L 354.82 277.29 L 356.83 275.59 L 358.84 280.59 L 360.84 285.51 L 362.85 296.19 L 370.88 303.64 L 372.89 294.58 L 374.90 287.12 L 376.91 283.81 L 382.93 285.51 L 386.95 285.51 L 388.96 283.81 L 396.99 282.20 L 396.99 282.20 L 396.99 282.20 L 396.99 282.20 L 396.99 282.20 L 396.99 282.20 L 401.00 282.20 L 401.00 282.20 L 401.00 282.20 L 401.00 282.20 L 401.00 282.20 L 401.00 282.20 L 411.04 294.58 L 415.06 297.80 L 417.07 325.93 L 419.08 329.15 L 425.10 329.15 L 427.11 327.54 L 429.12 305.25 L 431.12 299.49 L 433.13 285.51 L 439.16 296.19 L 439.16 296.19 L 441.16 287.12 L 445.18 296.19 L 445.18 296.19 L 455.22 296.19 L 457.23 262.46 L 459.24 282.20 L 467.27 248.39 L 471.29 248.39 L 471.29 248.39 L 475.30 260.76 L 483.33 254.15 L 483.33 254.15 L 483.33 254.15 L 483.33 254.15 L 483.33 254.15 L 483.33 254.15 L 483.33 254.15 L 483.33 254.15 L 483.33 254.15 L 489.36 254.15 L 501.41 232.63 L 509.44 235.17 L 509.44 235.17 L 515.46 235.17 L 523.49 235.17 L 525.50 235.17 L 525.50 235.17 L 525.50 235.17 L 525.50 235.17 L 525.50 235.17 L 551.61 235.17 L 553.61 235.17 L 565.66 139.75 L 567.67 130.68 L 569.68 130.68 L 641.97 159.15 L 650.00 159.15" /><text  class="poloto_text poloto_legend_text" x="675" y="150" >Refinance 20</text><line  class="poloto_line poloto_legend_icon poloto1stroke poloto1legend" stroke="black" x1="680" x2="730" y1="131.25" y2="131.25" /><path  class="poloto_line poloto1stroke" fill="none" stroke="black" d=" M 150.00 345.68 L 152.01 368.31 L 158.03 334.58 L 160.04 324.24 L 162.05 333.73 L 162.05 333.73 L 166.06 304.07 L 172.09 301.53 L 174.10 312.29 L 176.10 300.25 L 178.11 311.02 L 180.12 290.85 L 186.14 321.69 L 188.15 290.85 L 188.15 290.85 L 192.17 290.85 L 192.17 290.85 L 200.20 250.17 L 202.21 282.71 L 204.22 290.85 L 206.22 301.53 L 208.23 280.59 L 216.27 260.00 L 218.27 257.37 L 220.28 252.12 L 222.29 240.08 L 228.31 245.34 L 230.32 268.14 L 234.34 260.00 L 236.35 257.37 L 242.37 248.81 L 244.38 258.73 L 246.39 258.73 L 246.39 258.73 L 250.40 258.73 L 256.43 260.00 L 258.43 281.44 L 258.43 281.44 L 260.44 269.41 L 262.45 289.58 L 264.46 281.44 L 270.48 282.71 L 272.49 281.44 L 274.50 281.44 L 274.50 281.44 L 276.51 282.71 L 278.51 289.58 L 284.54 290.85 L 286.55 294.66 L 288.55 294.66 L 290.56 294.66 L 292.57 294.66 L 300.60 289.58 L 302.61 278.81 L 304.62 281.44 L 306.63 281.44 L 306.63 281.44 L 314.66 268.14 L 316.67 270.68 L 318.67 261.27 L 326.71 215.85 L 328.71 197.03 L 330.72 207.80 L 332.73 215.85 L 334.74 238.56 L 340.76 225.17 L 342.77 218.47 L 344.78 239.92 L 346.79 250.17 L 354.82 250.17 L 356.83 238.56 L 358.84 249.32 L 360.84 260.00 L 362.85 272.03 L 370.88 280.08 L 372.89 269.41 L 374.90 258.73 L 376.91 251.44 L 382.93 257.37 L 386.95 260.00 L 388.96 258.73 L 396.99 260.00 L 396.99 260.00 L 396.99 260.00 L 396.99 260.00 L 396.99 260.00 L 396.99 260.00 L 396.99 260.00 L 396.99 260.00 L 396.99 260.00 L 396.99 260.00 L 396.99 260.00 L 396.99 260.00 L 411.04 280.08 L 415.06 282.71 L 417.07 301.53 L 419.08 304.07 L 425.10 301.27 L 427.11 301.27 L 429.12 290.85 L 431.12 294.66 L 433.13 278.81 L 439.16 270.68 L 439.16 270.68 L 441.16 270.68 L 445.18 281.44 L 445.18 281.44 L 455.22 278.81 L 457.23 260.00 L 459.24 260.00 L 467.27 246.19 L 471.29 234.58 L 471.29 234.58 L 475.30 247.54 L 483.33 215.85 L 483.33 215.85 L 483.33 215.85 L 483.33 215.85 L 483.33 215.85 L 483.33 215.85 L 483.33 215.85 L 483.33 215.85 L 483.33 215.85 L 489.36 215.85 L 501.41 202.37 L 509.44 203.73 L 513.45 203.73 L 515.46 203.73 L 515.46 203.73 L 525.50 203.73 L 527.51 203.73 L 527.51 203.73 L 527.51 203.73 L 527.51 203.73 L 551.61 203.73 L 553.61 203.73 L 565.66 118.81 L 567.67 102.97 L 567.67 102.97 L 645.98 155.34 L 650.00 155.34" /><text  class="poloto_text poloto_legend_text" x="675" y="200" >Refinance 30</text><line  class="poloto_line poloto_legend_icon poloto2stroke poloto2legend" stroke="black" x1="680" x2="730" y1="181.25" y2="181.25" /><path  class="poloto_line poloto2stroke" fill="none" stroke="black" d=" M 150.00 343.31 L 152.01 351.36 L 158.03 338.81 L 160.04 328.98 L 162.05 330.85 L 162.05 330.85 L 166.06 310.25 L 172.09 308.47 L 174.10 319.15 L 176.10 307.54 L 178.11 318.22 L 180.12 297.71 L 186.14 307.54 L 188.15 286.95 L 190.16 286.95 L 192.17 286.02 L 194.18 260.00 L 200.20 264.58 L 202.21 276.27 L 204.22 286.95 L 206.22 277.20 L 208.23 265.51 L 216.27 256.61 L 218.27 242.12 L 220.28 240.17 L 222.29 238.14 L 228.31 242.12 L 230.32 258.73 L 234.34 256.61 L 236.35 254.66 L 242.37 244.07 L 244.38 255.59 L 246.39 244.07 L 246.39 244.07 L 250.40 244.07 L 256.43 246.02 L 258.43 264.58 L 258.43 264.58 L 260.44 255.59 L 262.45 256.61 L 264.46 257.54 L 270.48 265.51 L 272.49 256.61 L 274.50 256.61 L 274.50 256.61 L 276.51 266.44 L 278.51 267.46 L 284.54 268.39 L 286.55 277.20 L 288.55 277.20 L 290.56 279.07 L 292.57 279.07 L 300.60 275.25 L 302.61 264.58 L 304.62 266.44 L 306.63 265.51 L 306.63 265.51 L 314.66 255.59 L 316.67 255.59 L 318.67 245.00 L 326.71 202.12 L 328.71 171.78 L 330.72 190.34 L 332.73 202.12 L 334.74 212.80 L 340.76 203.05 L 342.77 202.12 L 344.78 221.61 L 346.79 223.56 L 354.82 223.56 L 356.83 211.86 L 358.84 221.61 L 360.84 232.29 L 362.85 255.59 L 370.88 256.61 L 372.89 245.00 L 374.90 224.58 L 376.91 221.61 L 382.93 241.10 L 386.95 223.56 L 388.96 222.54 L 396.99 242.12 L 396.99 242.12 L 396.99 242.12 L 396.99 242.12 L 396.99 242.12 L 396.99 242.12 L 401.00 242.12 L 401.00 242.12 L 401.00 242.12 L 401.00 242.12 L 401.00 242.12 L 401.00 242.12 L 411.04 254.66 L 415.06 256.61 L 417.07 275.25 L 419.08 287.88 L 425.10 286.95 L 427.11 286.95 L 429.12 265.51 L 431.12 268.39 L 433.13 254.66 L 439.16 265.51 L 439.16 265.51 L 441.16 257.54 L 445.18 266.44 L 445.18 266.44 L 455.22 264.58 L 457.23 246.02 L 459.24 245.00 L 467.27 220.59 L 471.29 211.86 L 471.29 211.86 L 475.30 222.54 L 483.33 210.85 L 483.33 210.85 L 483.33 210.85 L 483.33 210.85 L 483.33 210.85 L 483.33 210.85 L 483.33 210.85 L 483.33 210.85 L 489.36 210.85 L 489.36 209.83 L 501.41 197.03 L 509.44 175.51 L 509.44 175.51 L 515.46 175.51 L 515.46 175.51 L 525.50 175.51 L 527.51 175.51 L 527.51 175.51 L 527.51 175.51 L 527.51 175.51 L 551.61 175.51 L 553.61 175.51 L 565.66 127.03 L 567.67 100.00 L 567.67 100.00 L 645.98 146.44 L 650.00 146.44" /><text  class="poloto_labels poloto_text poloto_title" x="400" y="37.5" >lower.com purchase rates</text><text  class="poloto_labels poloto_text poloto_xname" x="400" y="481.25" >Date</text><text  class="poloto_labels poloto_text poloto_yname" transform="rotate(-90,37.5,250)" x="37.5" y="250" >Rate (%)</text><text  class="poloto_tick_labels poloto_text" dominant-baseline="middle" text-anchor="start" x="150" y="70" ></text><line  class="poloto_axis_lines" stroke="black" x1="150" x2="144" y1="390.2542372881356" y2="390.2542372881356" /><line  class="poloto_tick_line" stroke="black" x1="150" x2="650" y1="390.2542372881356" y2="390.2542372881356" /><text  class="poloto_tick_labels poloto_text" dominant-baseline="middle" text-anchor="end" x="135" y="390.2542372881356" >3.625</text><line  class="poloto_axis_lines" stroke="black" x1="150" x2="144" y1="379.66101694915255" y2="379.66101694915255" /><line  class="poloto_tick_line" stroke="black" x1="150" x2="650" y1="379.66101694915255" y2="379.66101694915255" /><text  class="poloto_tick_labels poloto_text" dominant-baseline="middle" text-anchor="end" x="135" y="379.66101694915255" >3.75</text><line  class="poloto_axis_lines" stroke="black" x1="150" x2="144" y1="369.06779661016947" y2="369.06779661016947" /><line  class="poloto_tick_line" stroke="black" x1="150" x2="650" y1="369.06779661016947" y2="369.06779661016947" /><text  class="poloto_tick_labels poloto_text" dominant-baseline="middle" text-anchor="end" x="135" y="369.06779661016947" >3.875</text><line  class="poloto_axis_lines" stroke="black" x1="150" x2="144" y1="358.47457627118644" y2="358.47457627118644" /><line  class="poloto_tick_line" stroke="black" x1="150" x2="650" y1="358.47457627118644" y2="358.47457627118644" /><text  class="poloto_tick_labels poloto_text" dominant-baseline="middle" text-anchor="end" x="135" y="358.47457627118644" >4</text><line  class="poloto_axis_lines" stroke="black" x1="150" x2="144" y1="347.8813559322034" y2="347.8813559322034" /><line  class="poloto_tick_line" stroke="black" x1="150" x2="650" y1="347.8813559322034" y2="347.8813559322034" /><text  class="poloto_tick_labels poloto_text" dominant-baseline="middle" text-anchor="end" x="135" y="347.8813559322034" >4.125</text><line  class="poloto_axis_lines" stroke="black" x1="150" x2="144" y1="337.2881355932203" y2="337.2881355932203" /><line  class="poloto_tick_line" stroke="black" x1="150" x2="650" y1="337.2881355932203" y2="337.2881355932203" /><text  class="poloto_tick_labels poloto_text" dominant-baseline="middle" text-anchor="end" x="135" y="337.2881355932203" >4.25</text><line  class="poloto_axis_lines" stroke="black" x1="150" x2="144" y1="326.6949152542373" y2="326.6949152542373" /><line  class="poloto_tick_line" stroke="black" x1="150" x2="650" y1="326.6949152542373" y2="326.6949152542373" /><text  class="poloto_tick_labels poloto_text" dominant-baseline="middle" text-anchor="end" x="135" y="326.6949152542373" >4.375</text><line  class="poloto_axis_lines" stroke="black" x1="150" x2="144" y1="316.10169491525426" y2="316.10169491525426" /><line  class="poloto_tick_line" stroke="black" x1="150" x2="650" y1="316.10169491525426" y2="316.10169491525426" /><text  class="poloto_tick_labels poloto_text" dominant-baseline="middle" text-anchor="end" x="135" y="316.10169491525426" >4.5</text><line  class="poloto_axis_lines" stroke="black" x1="150" x2="144" y1="305.50847457627117" y2="305.50847457627117" /><line  class="poloto_tick_line" stroke="black" x1="150" x2="650" y1="305.50847457627117" y2="305.50847457627117" /><text  class="poloto_tick_labels poloto_text" dominant-baseline="middle" text-anchor="end" x="135" y="305.50847457627117" >4.625</text><line  class="poloto_axis_lines" stroke="black" x1="150" x2="144" y1="294.91525423728814" y2="294.91525423728814" /><line  class="poloto_tick_line" stroke="black" x1="150" x2="650" y1="294.91525423728814" y2="294.91525423728814" /><text  class="poloto_tick_labels poloto_text" dominant-baseline="middle" text-anchor="end" x="135" y="294.91525423728814" >4.75</text><line  class="poloto_axis_lines" stroke="black" x1="150" x2="144" y1="284.3220338983051" y2="284.3220338983051" /><line  class="poloto_tick_line" stroke="black" x1="150" x2="650" y1="284.3220338983051" y2="284.3220338983051" /><text  class="poloto_tick_labels poloto_text" dominant-baseline="middle" text-anchor="end" x="135" y="284.3220338983051" >4.875</text><line  class="poloto_axis_lines" stroke="black" x1="150" x2="144" y1="273.728813559322" y2="273.728813559322" /><line  class="poloto_tick_line" stroke="black" x1="150" x2="650" y1="273.728813559322" y2="273.728813559322" /><text  class="poloto_tick_labels poloto_text" dominant-baseline="middle" text-anchor="end" x="135" y="273.728813559322" >5</text><line  class="poloto_axis_lines" stroke="black" x1="150" x2="144" y1="263.135593220339" y2="263.135593220339" /><line  class="poloto_tick_line" stroke="black" x1="150" x2="650" y1="263.135593220339" y2="263.135593220339" /><text  class="poloto_tick_labels poloto_text" dominant-baseline="middle" text-anchor="end" x="135" y="263.135593220339" >5.125</text><line  class="poloto_axis_lines" stroke="black" x1="150" x2="144" y1="252.54237288135596" y2="252.54237288135596" /><line  class="poloto_tick_line" stroke="black" x1="150" x2="650" y1="252.54237288135596" y2="252.54237288135596" /><text  class="poloto_tick_labels poloto_text" dominant-baseline="middle" text-anchor="end" x="135" y="252.54237288135596" >5.25</text><line  class="poloto_axis_lines" stroke="black" x1="150" x2="144" y1="241.94915254237287" y2="241.94915254237287" /><line  class="poloto_tick_line" stroke="black" x1="150" x2="650" y1="241.94915254237287" y2="241.94915254237287" /><text  class="poloto_tick_labels poloto_text" dominant-baseline="middle" text-anchor="end" x="135" y="241.94915254237287" >5.375</text><line  class="poloto_axis_lines" stroke="black" x1="150" x2="144" y1="231.35593220338984" y2="231.35593220338984" /><line  class="poloto_tick_line" stroke="black" x1="150" x2="650" y1="231.35593220338984" y2="231.35593220338984" /><text  class="poloto_tick_labels poloto_text" dominant-baseline="middle" text-anchor="end" x="135" y="231.35593220338984" >5.5</text><line  class="poloto_axis_lines" stroke="black" x1="150" x2="144" y1="220.7627118644068" y2="220.7627118644068" /><line  class="poloto_tick_line" stroke="black" x1="150" x2="650" y1="220.7627118644068" y2="220.7627118644068" /><text  class="poloto_tick_labels poloto_text" dominant-baseline="middle" text-anchor="end" x="135" y="220.7627118644068" >5.625</text><line  class="poloto_axis_lines" stroke="black" x1="150" x2="144" y1="210.16949152542372" y2="210.16949152542372" /><line  class="poloto_tick_line" stroke="black" x1="150" x2="650" y1="210.16949152542372" y2="210.16949152542372" /><text  class="poloto_tick_labels poloto_text" dominant-baseline="middle" text-anchor="end" x="135" y="210.16949152542372" >5.75</text><line  class="poloto_axis_lines" stroke="black" x1="150" x2="144" y1="199.5762711864407" y2="199.5762711864407" /><line  class="poloto_tick_line" stroke="black" x1="150" x2="650" y1="199.5762711864407" y2="199.5762711864407" /><text  class="poloto_tick_labels poloto_text" dominant-baseline="middle" text-anchor="end" x="135" y="199.5762711864407" >5.875</text><line  class="poloto_axis_lines" stroke="black" x1="150" x2="144" y1="188.98305084745766" y2="188.98305084745766" /><line  class="poloto_tick_line" stroke="black" x1="150" x2="650" y1="188.98305084745766" y2="188.98305084745766" /><text  class="poloto_tick_labels poloto_text" dominant-baseline="middle" text-anchor="end" x="135" y="188.98305084745766" >6</text><line  class="poloto_axis_lines" stroke="black" x1="150" x2="144" y1="178.38983050847457" y2="178.38983050847457" /><line  class="poloto_tick_line" stroke="black" x1="150" x2="650" y1="178.38983050847457" y2="178.38983050847457" /><text  class="poloto_tick_labels poloto_text" dominant-baseline="middle" text-anchor="end" x="135" y="178.38983050847457" >6.125</text><line  class="poloto_axis_lines" stroke="black" x1="150" x2="144" y1="167.7966101694915" y2="167.7966101694915" /><line  class="poloto_tick_line" stroke="black" x1="150" x2="650" y1="167.7966101694915" y2="167.7966101694915" /><text  class="poloto_tick_labels poloto_text" dominant-baseline="middle" text-anchor="end" x="135" y="167.7966101694915" >6.25</text><line  class="poloto_axis_lines" stroke="black" x1="150" x2="144" y1="157.2033898305085" y2="157.2033898305085" /><line  class="poloto_tick_line" stroke="black" x1="150" x2="650" y1="157.2033898305085" y2="157.2033898305085" /><text  class="poloto_tick_labels poloto_text" dominant-baseline="middle" text-anchor="end" x="135" y="157.2033898305085" >6.375</text><line  class="poloto_axis_lines" stroke="black" x1="150" x2="144" y1="146.61016949152543" y2="146.61016949152543" /><line  class="poloto_tick_line" stroke="black" x1="150" x2="650" y1="146.61016949152543" y2="146.61016949152543" /><text  class="poloto_tick_labels poloto_text" dominant-baseline="middle" text-anchor="end" x="135" y="146.61016949152543" >6.5</text><line  class="poloto_axis_lines" stroke="black" x1="150" x2="144" y1="136.01694915254234" y2="136.01694915254234" /><line  class="poloto_tick_line" stroke="black" x1="150" x2="650" y1="136.01694915254234" y2="136.01694915254234" /><text  class="poloto_tick_labels poloto_text" dominant-baseline="middle" text-anchor="end" x="135" y="136.01694915254234" >6.625</text><line  class="poloto_axis_lines" stroke="black" x1="150" x2="144" y1="125.42372881355936" y2="125.42372881355936" /><line  class="poloto_tick_line" stroke="black" x1="150" x2="650" y1="125.42372881355936" y2="125.42372881355936" /><text  class="poloto_tick_labels poloto_text" dominant-baseline="middle" text-anchor="end" x="135" y="125.42372881355936" >6.75</text><line  class="poloto_axis_lines" stroke="black" x1="150" x2="144" y1="114.83050847457628" y2="114.83050847457628" /><line  class="poloto_tick_line" stroke="black" x1="150" x2="650" y1="114.83050847457628" y2="114.83050847457628" /><text  class="poloto_tick_labels poloto_text" dominant-baseline="middle" text-anchor="end" x="135" y="114.83050847457628" >6.875</text><line  class="poloto_axis_lines" stroke="black" x1="150" x2="144" y1="104.23728813559319" y2="104.23728813559319" /><line  class="poloto_tick_line" stroke="black" x1="150" x2="650" y1="104.23728813559319" y2="104.23728813559319" /><text  class="poloto_tick_labels poloto_text" dominant-baseline="middle" text-anchor="end" x="135" y="104.23728813559319" >7</text><text  class="poloto_tick_labels poloto_text" dominant-baseline="middle" text-anchor="start" x="440.00000000000006" y="70" >¹2022-05-01 00:00:00 UTC in Months</text><line  class="poloto_axis_lines" stroke="black" x1="240.36144578312815" x2="240.36144578312815" y1="400" y2="405" /><line  class="poloto_tick_line" stroke="black" x1="240.36144578312815" x2="240.36144578312815" y1="400" y2="100" /><text  class="poloto_tick_labels poloto_text" dominant-baseline="start" text-anchor="middle" x="240.36144578312815" y="430" >2022 May¹</text><line  class="poloto_axis_lines" stroke="black" x1="362.8514056224885" x2="362.8514056224885" y1="400" y2="405" /><line  class="poloto_tick_line" stroke="black" x1="362.8514056224885" x2="362.8514056224885" y1="400" y2="100" /><text  class="poloto_tick_labels poloto_text" dominant-baseline="start" text-anchor="middle" x="362.8514056224885" y="430" >2022 Jul</text><line  class="poloto_axis_lines" stroke="black" x1="487.34939759036206" x2="487.34939759036206" y1="400" y2="405" /><line  class="poloto_tick_line" stroke="black" x1="487.34939759036206" x2="487.34939759036206" y1="400" y2="100" /><text  class="poloto_tick_labels poloto_text" dominant-baseline="start" text-anchor="middle" x="487.34939759036206" y="430" >2022 Sep</text><line  class="poloto_axis_lines" stroke="black" x1="609.8393574297152" x2="609.8393574297152" y1="400" y2="405" /><line  class="poloto_tick_line" stroke="black" x1="609.8393574297152" x2="609.8393574297152" y1="400" y2="100" /><text  class="poloto_tick_labels poloto_text" dominant-baseline="start" text-anchor="middle" x="609.8393574297152" y="430" >2022 Nov</text><path  stroke="black" fill="none" class="poloto_axis_lines" d=" M 150 400 L 650 400" /><path  stroke="black" fill="none" class="poloto_axis_lines" d=" M 150 400 L 150 100" /></svg>