<svg class="poloto" width="800" height="500" viewBox="0 0 800 500" xmlns="http://www.w3.org/2000/svg"><style>.poloto{stroke-linecap:round;stroke-linejoin:round;font-family:Roboto,sans-serif;font-size:16px;}.poloto_background{fill:#262626;}.poloto_scatter{stroke-width:7}.poloto_tick_line{stroke:dimgray;stroke-width:0.5}.poloto_line{stroke-width:2}.poloto_text{fill: white;}.poloto_axis_lines{stroke: white;stroke-width:3;fill:none;stroke-dasharray:none}.poloto_title{font-size:24px;dominant-baseline:start;text-anchor:middle;}.poloto_xname{font-size:24px;dominant-baseline:start;text-anchor:middle;}.poloto_yname{font-size:24px;dominant-baseline:start;text-anchor:middle;}.poloto0stroke{stroke:blue;}.poloto1stroke{stroke:red;}.poloto2stroke{stroke:green;}.poloto3stroke{stroke:gold;}.poloto4stroke{stroke:aqua;}.poloto5stroke{stroke:lime;}.poloto6stroke{stroke:orange;}.poloto7stroke{stroke:chocolate;}.poloto0fill{fill:blue;}.poloto1fill{fill:red;}.poloto2fill{fill:green;}.poloto3fill{fill:gold;}.poloto4fill{fill:aqua;}.poloto5fill{fill:lime;}.poloto6fill{fill:orange;}.poloto7fill{fill:chocolate;}</style><circle  r="1e5" class="poloto_background" /><text  class="poloto_text poloto_legend_text" x="675" y="100" >Refinance 15</text><line  class="poloto_line poloto_legend_icon poloto0stroke poloto0legend" stroke="black" x1="680" x2="730" y1="81.25" y2="81.25" /><path  class="poloto_line poloto0stroke" fill="none" stroke="black" d=" M 150.00 392.46 L 151.53 400.00 L 156.12 389.32 L 157.65 380.17 L 159.17 389.32 L 159.17 389.32 L 162.23 358.81 L 166.82 357.20 L 168.35 367.88 L 169.88 344.83 L 171.41 346.44 L 172.94 341.61 L 177.52 343.22 L 179.05 336.78 L 179.05 336.78 L 182.11 337.37 L 183.64 314.32 L 188.23 324.32 L 189.76 327.54 L 191.28 327.54 L 192.81 326.69 L 194.34 321.78 L 200.46 278.73 L 201.99 297.88 L 203.52 283.05 L 205.05 277.29 L 205.05 277.29 L 211.16 299.58 L 214.22 303.64 L 215.75 294.58 L 220.34 283.81 L 221.87 305.25 L 223.39 294.58 L 223.39 294.58 L 226.45 292.88 L 231.04 296.19 L 232.57 306.86 L 232.57 306.86 L 234.10 297.80 L 235.63 308.56 L 237.16 292.88 L 241.74 325.08 L 243.27 324.32 L 244.80 306.86 L 244.80 306.86 L 246.33 314.32 L 247.86 317.63 L 252.45 317.63 L 253.98 329.15 L 255.50 329.15 L 257.03 329.15 L 258.56 329.15 L 264.68 317.63 L 266.21 314.32 L 267.74 315.93 L 269.27 315.93 L 269.27 315.93 L 275.38 305.25 L 276.91 305.25 L 278.44 296.19 L 284.56 281.36 L 286.09 250.76 L 287.61 254.15 L 289.14 254.15 L 290.67 275.59 L 295.26 254.15 L 296.79 254.15 L 298.32 273.90 L 299.85 277.29 L 305.96 277.29 L 307.49 275.59 L 309.02 280.59 L 310.55 285.51 L 312.08 296.19 L 318.20 303.64 L 319.72 294.58 L 321.25 287.12 L 322.78 283.81 L 327.37 285.51 L 330.43 285.51 L 331.96 283.81 L 338.07 282.20 L 338.07 282.20 L 338.07 282.20 L 338.07 282.20 L 338.07 282.20 L 338.07 282.20 L 341.13 282.20 L 341.13 282.20 L 341.13 282.20 L 341.13 282.20 L 341.13 282.20 L 341.13 282.20 L 348.78 294.58 L 351.83 297.80 L 353.36 325.93 L 354.89 329.15 L 359.48 329.15 L 361.01 327.54 L 362.54 305.25 L 364.07 299.49 L 365.60 285.51 L 370.18 296.19 L 370.18 296.19 L 371.71 287.12 L 374.77 296.19 L 374.77 296.19 L 382.42 296.19 L 383.94 262.46 L 385.47 282.20 L 391.59 248.39 L 394.65 248.39 L 394.65 248.39 L 397.71 260.76 L 403.82 254.15 L 403.82 254.15 L 403.82 254.15 L 403.82 254.15 L 403.82 254.15 L 403.82 254.15 L 403.82 254.15 L 403.82 254.15 L 403.82 254.15 L 408.41 254.15 L 417.58 232.63 L 423.70 235.17 L 423.70 235.17 L 428.29 235.17 L 434.40 235.17 L 435.93 235.17 L 435.93 235.17 L 435.93 235.17 L 435.93 235.17 L 435.93 235.17 L 455.81 235.17 L 457.34 235.17 L 466.51 139.75 L 468.04 130.68 L 469.57 130.68 L 524.62 159.15 L 530.73 159.15 L 532.26 159.15 L 533.79 175.51 L 536.85 184.49 L 536.85 184.49 L 542.97 184.49 L 544.50 184.49 L 546.02 184.49 L 547.55 184.49 L 552.14 184.49 L 553.67 184.49 L 556.73 184.49 L 558.26 184.49 L 562.84 184.49 L 564.37 184.49 L 564.37 184.49 L 568.96 184.49 L 573.55 184.49 L 575.08 184.49 L 576.61 184.49 L 578.13 184.49 L 579.66 184.49 L 585.78 209.15 L 587.31 180.68 L 588.84 159.15 L 590.37 169.92 L 594.95 169.92 L 596.48 169.92 L 596.48 169.92 L 599.54 193.05 L 601.07 193.05 L 605.66 193.05 L 607.19 193.05 L 608.72 193.05 L 610.24 193.05 L 611.77 193.05 L 611.77 193.05 L 611.77 193.05 L 611.77 193.05 L 619.42 193.05 L 622.48 193.05 L 627.06 193.05 L 628.59 193.05 L 631.65 193.05 L 633.18 193.05 L 639.30 193.05 L 640.83 193.05 L 642.35 193.05 L 643.88 223.56 L 648.47 230.34 L 650.00 191.36" /><text  class="poloto_text poloto_legend_text" x="675" y="150" >Refinance 20</text><line  class="poloto_line poloto_legend_icon poloto1stroke poloto1legend" stroke="black" x1="680" x2="730" y1="131.25" y2="131.25" /><path  class="poloto_line poloto1stroke" fill="none" stroke="black" d=" M 150.00 345.68 L 151.53 368.31 L 156.12 334.58 L 157.65 324.24 L 159.17 333.73 L 159.17 333.73 L 162.23 304.07 L 166.82 301.53 L 168.35 312.29 L 169.88 300.25 L 171.41 311.02 L 172.94 290.85 L 177.52 321.69 L 179.05 290.85 L 179.05 290.85 L 182.11 290.85 L 182.11 290.85 L 188.23 250.17 L 189.76 282.71 L 191.28 290.85 L 192.81 301.53 L 194.34 280.59 L 200.46 260.00 L 201.99 257.37 L 203.52 252.12 L 205.05 240.08 L 209.63 245.34 L 211.16 268.14 L 214.22 260.00 L 215.75 257.37 L 220.34 248.81 L 221.87 258.73 L 223.39 258.73 L 223.39 258.73 L 226.45 258.73 L 231.04 260.00 L 232.57 281.44 L 232.57 281.44 L 234.10 269.41 L 235.63 289.58 L 237.16 281.44 L 241.74 282.71 L 243.27 281.44 L 244.80 281.44 L 244.80 281.44 L 246.33 282.71 L 247.86 289.58 L 252.45 290.85 L 253.98 294.66 L 255.50 294.66 L 257.03 294.66 L 258.56 294.66 L 264.68 289.58 L 266.21 278.81 L 267.74 281.44 L 269.27 281.44 L 269.27 281.44 L 275.38 268.14 L 276.91 270.68 L 278.44 261.27 L 284.56 215.85 L 286.09 197.03 L 287.61 207.80 L 289.14 215.85 L 290.67 238.56 L 295.26 225.17 L 296.79 218.47 L 298.32 239.92 L 299.85 250.17 L 305.96 250.17 L 307.49 238.56 L 309.02 249.32 L 310.55 260.00 L 312.08 272.03 L 318.20 280.08 L 319.72 269.41 L 321.25 258.73 L 322.78 251.44 L 327.37 257.37 L 330.43 260.00 L 331.96 258.73 L 338.07 260.00 L 338.07 260.00 L 338.07 260.00 L 338.07 260.00 L 338.07 260.00 L 338.07 260.00 L 338.07 260.00 L 338.07 260.00 L 338.07 260.00 L 338.07 260.00 L 338.07 260.00 L 338.07 260.00 L 348.78 280.08 L 351.83 282.71 L 353.36 301.53 L 354.89 304.07 L 359.48 301.27 L 361.01 301.27 L 362.54 290.85 L 364.07 294.66 L 365.60 278.81 L 370.18 270.68 L 370.18 270.68 L 371.71 270.68 L 374.77 281.44 L 374.77 281.44 L 382.42 278.81 L 383.94 260.00 L 385.47 260.00 L 391.59 246.19 L 394.65 234.58 L 394.65 234.58 L 397.71 247.54 L 403.82 215.85 L 403.82 215.85 L 403.82 215.85 L 403.82 215.85 L 403.82 215.85 L 403.82 215.85 L 403.82 215.85 L 403.82 215.85 L 403.82 215.85 L 408.41 215.85 L 417.58 202.37 L 423.70 203.73 L 426.76 203.73 L 428.29 203.73 L 428.29 203.73 L 435.93 203.73 L 437.46 203.73 L 437.46 203.73 L 437.46 203.73 L 437.46 203.73 L 455.81 203.73 L 457.34 203.73 L 466.51 118.81 L 468.04 102.97 L 468.04 102.97 L 527.68 155.34 L 530.73 155.34 L 532.26 155.34 L 535.32 174.15 L 536.85 175.51 L 536.85 175.51 L 542.97 175.51 L 544.50 175.51 L 546.02 175.51 L 547.55 175.51 L 552.14 175.51 L 553.67 175.51 L 556.73 175.51 L 558.26 175.51 L 562.84 175.51 L 564.37 175.51 L 564.37 175.51 L 568.96 175.51 L 573.55 175.51 L 575.08 175.51 L 576.61 175.51 L 578.13 175.51 L 579.66 175.51 L 585.78 156.36 L 587.31 145.93 L 588.84 144.58 L 590.37 147.37 L 594.95 147.37 L 596.48 147.37 L 596.48 147.37 L 599.54 167.46 L 601.07 167.46 L 605.66 167.46 L 607.19 167.46 L 608.72 167.46 L 610.24 167.46 L 611.77 167.46 L 611.77 167.46 L 617.89 167.46 L 617.89 167.46 L 619.42 167.46 L 622.48 167.46 L 627.06 167.46 L 628.59 167.46 L 631.65 167.46 L 633.18 167.46 L 639.30 167.46 L 640.83 167.46 L 642.35 167.46 L 643.88 190.34 L 648.47 188.98 L 650.00 156.69" /><text  class="poloto_text poloto_legend_text" x="675" y="200" >Refinance 30</text><line  class="poloto_line poloto_legend_icon poloto2stroke poloto2legend" stroke="black" x1="680" x2="730" y1="181.25" y2="181.25" /><path  class="poloto_line poloto2stroke" fill="none" stroke="black" d=" M 150.00 343.31 L 151.53 351.36 L 156.12 338.81 L 157.65 328.98 L 159.17 330.85 L 159.17 330.85 L 162.23 310.25 L 166.82 308.47 L 168.35 319.15 L 169.88 307.54 L 171.41 318.22 L 172.94 297.71 L 177.52 307.54 L 179.05 286.95 L 180.58 286.95 L 182.11 286.02 L 183.64 260.00 L 188.23 264.58 L 189.76 276.27 L 191.28 286.95 L 192.81 277.20 L 194.34 265.51 L 200.46 256.61 L 201.99 242.12 L 203.52 240.17 L 205.05 238.14 L 209.63 242.12 L 211.16 258.73 L 214.22 256.61 L 215.75 254.66 L 220.34 244.07 L 221.87 255.59 L 223.39 244.07 L 223.39 244.07 L 226.45 244.07 L 231.04 246.02 L 232.57 264.58 L 232.57 264.58 L 234.10 255.59 L 235.63 256.61 L 237.16 257.54 L 241.74 265.51 L 243.27 256.61 L 244.80 256.61 L 244.80 256.61 L 246.33 266.44 L 247.86 267.46 L 252.45 268.39 L 253.98 277.20 L 255.50 277.20 L 257.03 279.07 L 258.56 279.07 L 264.68 275.25 L 266.21 264.58 L 267.74 266.44 L 269.27 265.51 L 269.27 265.51 L 275.38 255.59 L 276.91 255.59 L 278.44 245.00 L 284.56 202.12 L 286.09 171.78 L 287.61 190.34 L 289.14 202.12 L 290.67 212.80 L 295.26 203.05 L 296.79 202.12 L 298.32 221.61 L 299.85 223.56 L 305.96 223.56 L 307.49 211.86 L 309.02 221.61 L 310.55 232.29 L 312.08 255.59 L 318.20 256.61 L 319.72 245.00 L 321.25 224.58 L 322.78 221.61 L 327.37 241.10 L 330.43 223.56 L 331.96 222.54 L 338.07 242.12 L 338.07 242.12 L 338.07 242.12 L 338.07 242.12 L 338.07 242.12 L 338.07 242.12 L 341.13 242.12 L 341.13 242.12 L 341.13 242.12 L 341.13 242.12 L 341.13 242.12 L 341.13 242.12 L 348.78 254.66 L 351.83 256.61 L 353.36 275.25 L 354.89 287.88 L 359.48 286.95 L 361.01 286.95 L 362.54 265.51 L 364.07 268.39 L 365.60 254.66 L 370.18 265.51 L 370.18 265.51 L 371.71 257.54 L 374.77 266.44 L 374.77 266.44 L 382.42 264.58 L 383.94 246.02 L 385.47 245.00 L 391.59 220.59 L 394.65 211.86 L 394.65 211.86 L 397.71 222.54 L 403.82 210.85 L 403.82 210.85 L 403.82 210.85 L 403.82 210.85 L 403.82 210.85 L 403.82 210.85 L 403.82 210.85 L 403.82 210.85 L 408.41 210.85 L 408.41 209.83 L 417.58 197.03 L 423.70 175.51 L 423.70 175.51 L 428.29 175.51 L 428.29 175.51 L 435.93 175.51 L 437.46 175.51 L 437.46 175.51 L 437.46 175.51 L 437.46 175.51 L 455.81 175.51 L 457.34 175.51 L 466.51 127.03 L 468.04 100.00 L 468.04 100.00 L 527.68 146.44 L 530.73 146.44 L 532.26 146.44 L 533.79 150.76 L 536.85 160.59 L 536.85 160.59 L 542.97 160.59 L 544.50 160.59 L 546.02 160.59 L 547.55 160.59 L 552.14 160.59 L 553.67 160.59 L 556.73 160.59 L 558.26 160.59 L 562.84 160.59 L 564.37 160.59 L 564.37 160.59 L 568.96 160.59 L 573.55 160.59 L 575.08 160.59 L 576.61 160.59 L 578.13 160.59 L 579.66 160.59 L 585.78 144.24 L 587.31 152.88 L 588.84 132.37 L 590.37 152.88 L 594.95 152.88 L 596.48 152.88 L 596.48 152.88 L 599.54 152.88 L 601.07 152.88 L 605.66 152.88 L 607.19 152.88 L 608.72 152.88 L 610.24 152.88 L 611.77 152.88 L 611.77 152.88 L 617.89 152.88 L 617.89 152.88 L 619.42 152.88 L 622.48 152.88 L 627.06 152.88 L 628.59 152.88 L 631.65 152.88 L 633.18 152.88 L 639.30 152.88 L 640.83 152.88 L 642.35 152.88 L 643.88 207.80 L 648.47 197.03 L 650.00 153.98" /><text  class="poloto_labels poloto_text poloto_title" x="400" y="37.5" >lower.com purchase rates</text><text  class="poloto_labels poloto_text poloto_xname" x="400" y="481.25" >Date</text><text  class="poloto_labels poloto_text poloto_yname" transform="rotate(-90,37.5,250)" x="37.5" y="250" >Rate (%)</text><text  class="poloto_tick_labels poloto_text" dominant-baseline="middle" text-anchor="start" x="150" y="70" ></text><line  class="poloto_axis_lines" stroke="black" x1="150" x2="144" y1="390.2542372881356" y2="390.2542372881356" /><line  class="poloto_tick_line" stroke="black" x1="150" x2="650" y1="390.2542372881356" y2="390.2542372881356" /><text  class="poloto_tick_labels poloto_text" dominant-baseline="middle" text-anchor="end" x="135" y="390.2542372881356" >3.625</text><line  class="poloto_axis_lines" stroke="black" x1="150" x2="144" y1="379.66101694915255" y2="379.66101694915255" /><line  class="poloto_tick_line" stroke="black" x1="150" x2="650" y1="379.66101694915255" y2="379.66101694915255" /><text  class="poloto_tick_labels poloto_text" dominant-baseline="middle" text-anchor="end" x="135" y="379.66101694915255" >3.75</text><line  class="poloto_axis_lines" stroke="black" x1="150" x2="144" y1="369.06779661016947" y2="369.06779661016947" /><line  class="poloto_tick_line" stroke="black" x1="150" x2="650" y1="369.06779661016947" y2="369.06779661016947" /><text  class="poloto_tick_labels poloto_text" dominant-baseline="middle" text-anchor="end" x="135" y="369.06779661016947" >3.875</text><line  class="poloto_axis_lines" stroke="black" x1="150" x2="144" y1="358.47457627118644" y2="358.47457627118644" /><line  class="poloto_tick_line" stroke="black" x1="150" x2="650" y1="358.47457627118644" y2="358.47457627118644" /><text  class="poloto_tick_labels poloto_text" dominant-baseline="middle" text-anchor="end" x="135" y="358.47457627118644" >4</text><line  class="poloto_axis_lines" stroke="black" x1="150" x2="144" y1="347.8813559322034" y2="347.8813559322034" /><line  class="poloto_tick_line" stroke="black" x1="150" x2="650" y1="347.8813559322034" y2="347.8813559322034" /><text  class="poloto_tick_labels poloto_text" dominant-baseline="middle" text-anchor="end" x="135" y="347.8813559322034" >4.125</text><line  class="poloto_axis_lines" stroke="black" x1="150" x2="144" y1="337.2881355932203" y2="337.2881355932203" /><line  class="poloto_tick_line" stroke="black" x1="150" x2="650" y1="337.2881355932203" y2="337.2881355932203" /><text  class="poloto_tick_labels poloto_text" dominant-baseline="middle" text-anchor="end" x="135" y="337.2881355932203" >4.25</text><line  class="poloto_axis_lines" stroke="black" x1="150" x2="144" y1="326.6949152542373" y2="326.6949152542373" /><line  class="poloto_tick_line" stroke="black" x1="150" x2="650" y1="326.6949152542373" y2="326.6949152542373" /><text  class="poloto_tick_labels poloto_text" dominant-baseline="middle" text-anchor="end" x="135" y="326.6949152542373" >4.375</text><line  class="poloto_axis_lines" stroke="black" x1="150" x2="144" y1="316.10169491525426" y2="316.10169491525426" /><line  class="poloto_tick_line" stroke="black" x1="150" x2="650" y1="316.10169491525426" y2="316.10169491525426" /><text  class="poloto_tick_labels poloto_text" dominant-baseline="middle" text-anchor="end" x="135" y="316.10169491525426" >4.5</text><line  class="poloto_axis_lines" stroke="black" x1="150" x2="144" y1="305.50847457627117" y2="305.50847457627117" /><line  class="poloto_tick_line" stroke="black" x1="150" x2="650" y1="305.50847457627117" y2="305.50847457627117" /><text  class="poloto_tick_labels poloto_text" dominant-baseline="middle" text-anchor="end" x="135" y="305.50847457627117" >4.625</text><line  class="poloto_axis_lines" stroke="black" x1="150" x2="144" y1="294.91525423728814" y2="294.91525423728814" /><line  class="poloto_tick_line" stroke="black" x1="150" x2="650" y1="294.91525423728814" y2="294.91525423728814" /><text  class="poloto_tick_labels poloto_text" dominant-baseline="middle" text-anchor="end" x="135" y="294.91525423728814" >4.75</text><line  class="poloto_axis_lines" stroke="black" x1="150" x2="144" y1="284.3220338983051" y2="284.3220338983051" /><line  class="poloto_tick_line" stroke="black" x1="150" x2="650" y1="284.3220338983051" y2="284.3220338983051" /><text  class="poloto_tick_labels poloto_text" dominant-baseline="middle" text-anchor="end" x="135" y="284.3220338983051" >4.875</text><line  class="poloto_axis_lines" stroke="black" x1="150" x2="144" y1="273.728813559322" y2="273.728813559322" /><line  class="poloto_tick_line" stroke="black" x1="150" x2="650" y1="273.728813559322" y2="273.728813559322" /><text  class="poloto_tick_labels poloto_text" dominant-baseline="middle" text-anchor="end" x="135" y="273.728813559322" >5</text><line  class="poloto_axis_lines" stroke="black" x1="150" x2="144" y1="263.135593220339" y2="263.135593220339" /><line  class="poloto_tick_line" stroke="black" x1="150" x2="650" y1="263.135593220339" y2="263.135593220339" /><text  class="poloto_tick_labels poloto_text" dominant-baseline="middle" text-anchor="end" x="135" y="263.135593220339" >5.125</text><line  class="poloto_axis_lines" stroke="black" x1="150" x2="144" y1="252.54237288135596" y2="252.54237288135596" /><line  class="poloto_tick_line" stroke="black" x1="150" x2="650" y1="252.54237288135596" y2="252.54237288135596" /><text  class="poloto_tick_labels poloto_text" dominant-baseline="middle" text-anchor="end" x="135" y="252.54237288135596" >5.25</text><line  class="poloto_axis_lines" stroke="black" x1="150" x2="144" y1="241.94915254237287" y2="241.94915254237287" /><line  class="poloto_tick_line" stroke="black" x1="150" x2="650" y1="241.94915254237287" y2="241.94915254237287" /><text  class="poloto_tick_labels poloto_text" dominant-baseline="middle" text-anchor="end" x="135" y="241.94915254237287" >5.375</text><line  class="poloto_axis_lines" stroke="black" x1="150" x2="144" y1="231.35593220338984" y2="231.35593220338984" /><line  class="poloto_tick_line" stroke="black" x1="150" x2="650" y1="231.35593220338984" y2="231.35593220338984" /><text  class="poloto_tick_labels poloto_text" dominant-baseline="middle" text-anchor="end" x="135" y="231.35593220338984" >5.5</text><line  class="poloto_axis_lines" stroke="black" x1="150" x2="144" y1="220.7627118644068" y2="220.7627118644068" /><line  class="poloto_tick_line" stroke="black" x1="150" x2="650" y1="220.7627118644068" y2="220.7627118644068" /><text  class="poloto_tick_labels poloto_text" dominant-baseline="middle" text-anchor="end" x="135" y="220.7627118644068" >5.625</text><line  class="poloto_axis_lines" stroke="black" x1="150" x2="144" y1="210.16949152542372" y2="210.16949152542372" /><line  class="poloto_tick_line" stroke="black" x1="150" x2="650" y1="210.16949152542372" y2="210.16949152542372" /><text  class="poloto_tick_labels poloto_text" dominant-baseline="middle" text-anchor="end" x="135" y="210.16949152542372" >5.75</text><line  class="poloto_axis_lines" stroke="black" x1="150" x2="144" y1="199.5762711864407" y2="199.5762711864407" /><line  class="poloto_tick_line" stroke="black" x1="150" x2="650" y1="199.5762711864407" y2="199.5762711864407" /><text  class="poloto_tick_labels poloto_text" dominant-baseline="middle" text-anchor="end" x="135" y="199.5762711864407" >5.875</text><line  class="poloto_axis_lines" stroke="black" x1="150" x2="144" y1="188.98305084745766" y2="188.98305084745766" /><line  class="poloto_tick_line" stroke="black" x1="150" x2="650" y1="188.98305084745766" y2="188.98305084745766" /><text  class="poloto_tick_labels poloto_text" dominant-baseline="middle" text-anchor="end" x="135" y="188.98305084745766" >6</text><line  class="poloto_axis_lines" stroke="black" x1="150" x2="144" y1="178.38983050847457" y2="178.38983050847457" /><line  class="poloto_tick_line" stroke="black" x1="150" x2="650" y1="178.38983050847457" y2="178.38983050847457" /><text  class="poloto_tick_labels poloto_text" dominant-baseline="middle" text-anchor="end" x="135" y="178.38983050847457" >6.125</text><line  class="poloto_axis_lines" stroke="black" x1="150" x2="144" y1="167.7966101694915" y2="167.7966101694915" /><line  class="poloto_tick_line" stroke="black" x1="150" x2="650" y1="167.7966101694915" y2="167.7966101694915" /><text  class="poloto_tick_labels poloto_text" dominant-baseline="middle" text-anchor="end" x="135" y="167.7966101694915" >6.25</text><line  class="poloto_axis_lines" stroke="black" x1="150" x2="144" y1="157.2033898305085" y2="157.2033898305085" /><line  class="poloto_tick_line" stroke="black" x1="150" x2="650" y1="157.2033898305085" y2="157.2033898305085" /><text  class="poloto_tick_labels poloto_text" dominant-baseline="middle" text-anchor="end" x="135" y="157.2033898305085" >6.375</text><line  class="poloto_axis_lines" stroke="black" x1="150" x2="144" y1="146.61016949152543" y2="146.61016949152543" /><line  class="poloto_tick_line" stroke="black" x1="150" x2="650" y1="146.61016949152543" y2="146.61016949152543" /><text  class="poloto_tick_labels poloto_text" dominant-baseline="middle" text-anchor="end" x="135" y="146.61016949152543" >6.5</text><line  class="poloto_axis_lines" stroke="black" x1="150" x2="144" y1="136.01694915254234" y2="136.01694915254234" /><line  class="poloto_tick_line" stroke="black" x1="150" x2="650" y1="136.01694915254234" y2="136.01694915254234" /><text  class="poloto_tick_labels poloto_text" dominant-baseline="middle" text-anchor="end" x="135" y="136.01694915254234" >6.625</text><line  class="poloto_axis_lines" stroke="black" x1="150" x2="144" y1="125.42372881355936" y2="125.42372881355936" /><line  class="poloto_tick_line" stroke="black" x1="150" x2="650" y1="125.42372881355936" y2="125.42372881355936" /><text  class="poloto_tick_labels poloto_text" dominant-baseline="middle" text-anchor="end" x="135" y="125.42372881355936" >6.75</text><line  class="poloto_axis_lines" stroke="black" x1="150" x2="144" y1="114.83050847457628" y2="114.83050847457628" /><line  class="poloto_tick_line" stroke="black" x1="150" x2="650" y1="114.83050847457628" y2="114.83050847457628" /><text  class="poloto_tick_labels poloto_text" dominant-baseline="middle" text-anchor="end" x="135" y="114.83050847457628" >6.875</text><line  class="poloto_axis_lines" stroke="black" x1="150" x2="144" y1="104.23728813559319" y2="104.23728813559319" /><line  class="poloto_tick_line" stroke="black" x1="150" x2="650" y1="104.23728813559319" y2="104.23728813559319" /><text  class="poloto_tick_labels poloto_text" dominant-baseline="middle" text-anchor="end" x="135" y="104.23728813559319" >7</text><text  class="poloto_tick_labels poloto_text" dominant-baseline="middle" text-anchor="start" x="440.00000000000006" y="70" >¹2022-05-01 00:00:00 UTC in Months</text><line  class="poloto_axis_lines" stroke="black" x1="218.8073394495441" x2="218.8073394495441" y1="400" y2="405" /><line  class="poloto_tick_line" stroke="black" x1="218.8073394495441" x2="218.8073394495441" y1="400" y2="100" /><text  class="poloto_tick_labels poloto_text" dominant-baseline="start" text-anchor="middle" x="218.8073394495441" y="430" >2022 May¹</text><line  class="poloto_axis_lines" stroke="black" x1="312.0795107033664" x2="312.0795107033664" y1="400" y2="405" /><line  class="poloto_tick_line" stroke="black" x1="312.0795107033664" x2="312.0795107033664" y1="400" y2="100" /><text  class="poloto_tick_labels poloto_text" dominant-baseline="start" text-anchor="middle" x="312.0795107033664" y="430" >2022 Jul</text><line  class="poloto_axis_lines" stroke="black" x1="406.88073394495586" x2="406.88073394495586" y1="400" y2="405" /><line  class="poloto_tick_line" stroke="black" x1="406.88073394495586" x2="406.88073394495586" y1="400" y2="100" /><text  class="poloto_tick_labels poloto_text" dominant-baseline="start" text-anchor="middle" x="406.88073394495586" y="430" >2022 Sep</text><line  class="poloto_axis_lines" stroke="black" x1="500.15290519877817" x2="500.15290519877817" y1="400" y2="405" /><line  class="poloto_tick_line" stroke="black" x1="500.15290519877817" x2="500.15290519877817" y1="400" y2="100" /><text  class="poloto_tick_labels poloto_text" dominant-baseline="start" text-anchor="middle" x="500.15290519877817" y="430" >2022 Nov</text><line  class="poloto_axis_lines" stroke="black" x1="593.4250764526005" x2="593.4250764526005" y1="400" y2="405" /><line  class="poloto_tick_line" stroke="black" x1="593.4250764526005" x2="593.4250764526005" y1="400" y2="100" /><text  class="poloto_tick_labels poloto_text" dominant-baseline="start" text-anchor="middle" x="593.4250764526005" y="430" >2023 Jan</text><path  stroke="black" fill="none" class="poloto_axis_lines" d=" M 150 400 L 650 400" /><path  stroke="black" fill="none" class="poloto_axis_lines" d=" M 150 400 L 150 100" /></svg>