<svg class="poloto" width="800" height="500" viewBox="0 0 800 500" xmlns="http://www.w3.org/2000/svg"><style>.poloto{stroke-linecap:round;stroke-linejoin:round;font-family:Roboto,sans-serif;font-size:16px;}.poloto_background{fill:#262626;}.poloto_scatter{stroke-width:7}.poloto_tick_line{stroke:dimgray;stroke-width:0.5}.poloto_line{stroke-width:2}.poloto_text{fill: white;}.poloto_axis_lines{stroke: white;stroke-width:3;fill:none;stroke-dasharray:none}.poloto_title{font-size:24px;dominant-baseline:start;text-anchor:middle;}.poloto_xname{font-size:24px;dominant-baseline:start;text-anchor:middle;}.poloto_yname{font-size:24px;dominant-baseline:start;text-anchor:middle;}.poloto0stroke{stroke:blue;}.poloto1stroke{stroke:red;}.poloto2stroke{stroke:green;}.poloto3stroke{stroke:gold;}.poloto4stroke{stroke:aqua;}.poloto5stroke{stroke:lime;}.poloto6stroke{stroke:orange;}.poloto7stroke{stroke:chocolate;}.poloto0fill{fill:blue;}.poloto1fill{fill:red;}.poloto2fill{fill:green;}.poloto3fill{fill:gold;}.poloto4fill{fill:aqua;}.poloto5fill{fill:lime;}.poloto6fill{fill:orange;}.poloto7fill{fill:chocolate;}</style><circle  r="1e5" class="poloto_background" /><text  class="poloto_text poloto_legend_text" x="675" y="100" >Refinance 15</text><line  class="poloto_line poloto_legend_icon poloto0stroke poloto0legend" stroke="black" x1="680" x2="730" y1="81.25" y2="81.25" /><path  class="poloto_line poloto0stroke" fill="none" stroke="black" d=" M 150.00 392.46 L 151.90 400.00 L 157.60 389.32 L 159.51 380.17 L 161.41 389.32 L 161.41 389.32 L 165.21 358.81 L 170.91 357.20 L 172.81 367.88 L 174.71 344.83 L 176.62 346.44 L 178.52 341.61 L 184.22 343.22 L 186.12 336.78 L 186.12 336.78 L 189.92 337.37 L 191.83 314.32 L 197.53 324.32 L 199.43 327.54 L 201.33 327.54 L 203.23 326.69 L 205.13 321.78 L 212.74 278.73 L 214.64 297.88 L 216.54 283.05 L 218.44 277.29 L 218.44 277.29 L 226.05 299.58 L 229.85 303.64 L 231.75 294.58 L 237.45 283.81 L 239.35 305.25 L 241.25 294.58 L 241.25 294.58 L 245.06 292.88 L 250.76 296.19 L 252.66 306.86 L 252.66 306.86 L 254.56 297.80 L 256.46 308.56 L 258.37 292.88 L 264.07 325.08 L 265.97 324.32 L 267.87 306.86 L 267.87 306.86 L 269.77 314.32 L 271.67 317.63 L 277.38 317.63 L 279.28 329.15 L 281.18 329.15 L 283.08 329.15 L 284.98 329.15 L 292.59 317.63 L 294.49 314.32 L 296.39 315.93 L 298.29 315.93 L 298.29 315.93 L 305.89 305.25 L 307.79 305.25 L 309.70 296.19 L 317.30 281.36 L 319.20 250.76 L 321.10 254.15 L 323.00 254.15 L 324.90 275.59 L 330.61 254.15 L 332.51 254.15 L 334.41 273.90 L 336.31 277.29 L 343.92 277.29 L 345.82 275.59 L 347.72 280.59 L 349.62 285.51 L 351.52 296.19 L 359.13 303.64 L 361.03 294.58 L 362.93 287.12 L 364.83 283.81 L 370.53 285.51 L 374.33 285.51 L 376.24 283.81 L 383.84 282.20 L 383.84 282.20 L 383.84 282.20 L 383.84 282.20 L 383.84 282.20 L 383.84 282.20 L 387.64 282.20 L 387.64 282.20 L 387.64 282.20 L 387.64 282.20 L 387.64 282.20 L 387.64 282.20 L 397.15 294.58 L 400.95 297.80 L 402.85 325.93 L 404.75 329.15 L 410.46 329.15 L 412.36 327.54 L 414.26 305.25 L 416.16 299.49 L 418.06 285.51 L 423.76 296.19 L 423.76 296.19 L 425.67 287.12 L 429.47 296.19 L 429.47 296.19 L 438.97 296.19 L 440.87 262.46 L 442.78 282.20 L 450.38 248.39 L 454.18 248.39 L 454.18 248.39 L 457.98 260.76 L 465.59 254.15 L 465.59 254.15 L 465.59 254.15 L 465.59 254.15 L 465.59 254.15 L 465.59 254.15 L 465.59 254.15 L 465.59 254.15 L 465.59 254.15 L 471.29 254.15 L 482.70 232.63 L 490.30 235.17 L 490.30 235.17 L 496.01 235.17 L 503.61 235.17 L 505.51 235.17 L 505.51 235.17 L 505.51 235.17 L 505.51 235.17 L 505.51 235.17 L 530.23 235.17 L 532.13 235.17 L 543.54 139.75 L 545.44 130.68 L 547.34 130.68 L 615.78 159.15 L 623.38 159.15 L 625.29 159.15 L 627.19 175.51 L 630.99 184.49 L 630.99 184.49 L 638.59 184.49 L 640.49 184.49 L 642.40 184.49 L 644.30 184.49 L 650.00 184.49" /><text  class="poloto_text poloto_legend_text" x="675" y="150" >Refinance 20</text><line  class="poloto_line poloto_legend_icon poloto1stroke poloto1legend" stroke="black" x1="680" x2="730" y1="131.25" y2="131.25" /><path  class="poloto_line poloto1stroke" fill="none" stroke="black" d=" M 150.00 345.68 L 151.90 368.31 L 157.60 334.58 L 159.51 324.24 L 161.41 333.73 L 161.41 333.73 L 165.21 304.07 L 170.91 301.53 L 172.81 312.29 L 174.71 300.25 L 176.62 311.02 L 178.52 290.85 L 184.22 321.69 L 186.12 290.85 L 186.12 290.85 L 189.92 290.85 L 189.92 290.85 L 197.53 250.17 L 199.43 282.71 L 201.33 290.85 L 203.23 301.53 L 205.13 280.59 L 212.74 260.00 L 214.64 257.37 L 216.54 252.12 L 218.44 240.08 L 224.14 245.34 L 226.05 268.14 L 229.85 260.00 L 231.75 257.37 L 237.45 248.81 L 239.35 258.73 L 241.25 258.73 L 241.25 258.73 L 245.06 258.73 L 250.76 260.00 L 252.66 281.44 L 252.66 281.44 L 254.56 269.41 L 256.46 289.58 L 258.37 281.44 L 264.07 282.71 L 265.97 281.44 L 267.87 281.44 L 267.87 281.44 L 269.77 282.71 L 271.67 289.58 L 277.38 290.85 L 279.28 294.66 L 281.18 294.66 L 283.08 294.66 L 284.98 294.66 L 292.59 289.58 L 294.49 278.81 L 296.39 281.44 L 298.29 281.44 L 298.29 281.44 L 305.89 268.14 L 307.79 270.68 L 309.70 261.27 L 317.30 215.85 L 319.20 197.03 L 321.10 207.80 L 323.00 215.85 L 324.90 238.56 L 330.61 225.17 L 332.51 218.47 L 334.41 239.92 L 336.31 250.17 L 343.92 250.17 L 345.82 238.56 L 347.72 249.32 L 349.62 260.00 L 351.52 272.03 L 359.13 280.08 L 361.03 269.41 L 362.93 258.73 L 364.83 251.44 L 370.53 257.37 L 374.33 260.00 L 376.24 258.73 L 383.84 260.00 L 383.84 260.00 L 383.84 260.00 L 383.84 260.00 L 383.84 260.00 L 383.84 260.00 L 383.84 260.00 L 383.84 260.00 L 383.84 260.00 L 383.84 260.00 L 383.84 260.00 L 383.84 260.00 L 397.15 280.08 L 400.95 282.71 L 402.85 301.53 L 404.75 304.07 L 410.46 301.27 L 412.36 301.27 L 414.26 290.85 L 416.16 294.66 L 418.06 278.81 L 423.76 270.68 L 423.76 270.68 L 425.67 270.68 L 429.47 281.44 L 429.47 281.44 L 438.97 278.81 L 440.87 260.00 L 442.78 260.00 L 450.38 246.19 L 454.18 234.58 L 454.18 234.58 L 457.98 247.54 L 465.59 215.85 L 465.59 215.85 L 465.59 215.85 L 465.59 215.85 L 465.59 215.85 L 465.59 215.85 L 465.59 215.85 L 465.59 215.85 L 465.59 215.85 L 471.29 215.85 L 482.70 202.37 L 490.30 203.73 L 494.11 203.73 L 496.01 203.73 L 496.01 203.73 L 505.51 203.73 L 507.41 203.73 L 507.41 203.73 L 507.41 203.73 L 507.41 203.73 L 530.23 203.73 L 532.13 203.73 L 543.54 118.81 L 545.44 102.97 L 545.44 102.97 L 619.58 155.34 L 623.38 155.34 L 625.29 155.34 L 629.09 174.15 L 630.99 175.51 L 630.99 175.51 L 638.59 175.51 L 640.49 175.51 L 642.40 175.51 L 644.30 175.51 L 650.00 175.51" /><text  class="poloto_text poloto_legend_text" x="675" y="200" >Refinance 30</text><line  class="poloto_line poloto_legend_icon poloto2stroke poloto2legend" stroke="black" x1="680" x2="730" y1="181.25" y2="181.25" /><path  class="poloto_line poloto2stroke" fill="none" stroke="black" d=" M 150.00 343.31 L 151.90 351.36 L 157.60 338.81 L 159.51 328.98 L 161.41 330.85 L 161.41 330.85 L 165.21 310.25 L 170.91 308.47 L 172.81 319.15 L 174.71 307.54 L 176.62 318.22 L 178.52 297.71 L 184.22 307.54 L 186.12 286.95 L 188.02 286.95 L 189.92 286.02 L 191.83 260.00 L 197.53 264.58 L 199.43 276.27 L 201.33 286.95 L 203.23 277.20 L 205.13 265.51 L 212.74 256.61 L 214.64 242.12 L 216.54 240.17 L 218.44 238.14 L 224.14 242.12 L 226.05 258.73 L 229.85 256.61 L 231.75 254.66 L 237.45 244.07 L 239.35 255.59 L 241.25 244.07 L 241.25 244.07 L 245.06 244.07 L 250.76 246.02 L 252.66 264.58 L 252.66 264.58 L 254.56 255.59 L 256.46 256.61 L 258.37 257.54 L 264.07 265.51 L 265.97 256.61 L 267.87 256.61 L 267.87 256.61 L 269.77 266.44 L 271.67 267.46 L 277.38 268.39 L 279.28 277.20 L 281.18 277.20 L 283.08 279.07 L 284.98 279.07 L 292.59 275.25 L 294.49 264.58 L 296.39 266.44 L 298.29 265.51 L 298.29 265.51 L 305.89 255.59 L 307.79 255.59 L 309.70 245.00 L 317.30 202.12 L 319.20 171.78 L 321.10 190.34 L 323.00 202.12 L 324.90 212.80 L 330.61 203.05 L 332.51 202.12 L 334.41 221.61 L 336.31 223.56 L 343.92 223.56 L 345.82 211.86 L 347.72 221.61 L 349.62 232.29 L 351.52 255.59 L 359.13 256.61 L 361.03 245.00 L 362.93 224.58 L 364.83 221.61 L 370.53 241.10 L 374.33 223.56 L 376.24 222.54 L 383.84 242.12 L 383.84 242.12 L 383.84 242.12 L 383.84 242.12 L 383.84 242.12 L 383.84 242.12 L 387.64 242.12 L 387.64 242.12 L 387.64 242.12 L 387.64 242.12 L 387.64 242.12 L 387.64 242.12 L 397.15 254.66 L 400.95 256.61 L 402.85 275.25 L 404.75 287.88 L 410.46 286.95 L 412.36 286.95 L 414.26 265.51 L 416.16 268.39 L 418.06 254.66 L 423.76 265.51 L 423.76 265.51 L 425.67 257.54 L 429.47 266.44 L 429.47 266.44 L 438.97 264.58 L 440.87 246.02 L 442.78 245.00 L 450.38 220.59 L 454.18 211.86 L 454.18 211.86 L 457.98 222.54 L 465.59 210.85 L 465.59 210.85 L 465.59 210.85 L 465.59 210.85 L 465.59 210.85 L 465.59 210.85 L 465.59 210.85 L 465.59 210.85 L 471.29 210.85 L 471.29 209.83 L 482.70 197.03 L 490.30 175.51 L 490.30 175.51 L 496.01 175.51 L 496.01 175.51 L 505.51 175.51 L 507.41 175.51 L 507.41 175.51 L 507.41 175.51 L 507.41 175.51 L 530.23 175.51 L 532.13 175.51 L 543.54 127.03 L 545.44 100.00 L 545.44 100.00 L 619.58 146.44 L 623.38 146.44 L 625.29 146.44 L 627.19 150.76 L 630.99 160.59 L 630.99 160.59 L 638.59 160.59 L 640.49 160.59 L 642.40 160.59 L 644.30 160.59 L 650.00 160.59" /><text  class="poloto_labels poloto_text poloto_title" x="400" y="37.5" >lower.com purchase rates</text><text  class="poloto_labels poloto_text poloto_xname" x="400" y="481.25" >Date</text><text  class="poloto_labels poloto_text poloto_yname" transform="rotate(-90,37.5,250)" x="37.5" y="250" >Rate (%)</text><text  class="poloto_tick_labels poloto_text" dominant-baseline="middle" text-anchor="start" x="150" y="70" ></text><line  class="poloto_axis_lines" stroke="black" x1="150" x2="144" y1="390.2542372881356" y2="390.2542372881356" /><line  class="poloto_tick_line" stroke="black" x1="150" x2="650" y1="390.2542372881356" y2="390.2542372881356" /><text  class="poloto_tick_labels poloto_text" dominant-baseline="middle" text-anchor="end" x="135" y="390.2542372881356" >3.625</text><line  class="poloto_axis_lines" stroke="black" x1="150" x2="144" y1="379.66101694915255" y2="379.66101694915255" /><line  class="poloto_tick_line" stroke="black" x1="150" x2="650" y1="379.66101694915255" y2="379.66101694915255" /><text  class="poloto_tick_labels poloto_text" dominant-baseline="middle" text-anchor="end" x="135" y="379.66101694915255" >3.75</text><line  class="poloto_axis_lines" stroke="black" x1="150" x2="144" y1="369.06779661016947" y2="369.06779661016947" /><line  class="poloto_tick_line" stroke="black" x1="150" x2="650" y1="369.06779661016947" y2="369.06779661016947" /><text  class="poloto_tick_labels poloto_text" dominant-baseline="middle" text-anchor="end" x="135" y="369.06779661016947" >3.875</text><line  class="poloto_axis_lines" stroke="black" x1="150" x2="144" y1="358.47457627118644" y2="358.47457627118644" /><line  class="poloto_tick_line" stroke="black" x1="150" x2="650" y1="358.47457627118644" y2="358.47457627118644" /><text  class="poloto_tick_labels poloto_text" dominant-baseline="middle" text-anchor="end" x="135" y="358.47457627118644" >4</text><line  class="poloto_axis_lines" stroke="black" x1="150" x2="144" y1="347.8813559322034" y2="347.8813559322034" /><line  class="poloto_tick_line" stroke="black" x1="150" x2="650" y1="347.8813559322034" y2="347.8813559322034" /><text  class="poloto_tick_labels poloto_text" dominant-baseline="middle" text-anchor="end" x="135" y="347.8813559322034" >4.125</text><line  class="poloto_axis_lines" stroke="black" x1="150" x2="144" y1="337.2881355932203" y2="337.2881355932203" /><line  class="poloto_tick_line" stroke="black" x1="150" x2="650" y1="337.2881355932203" y2="337.2881355932203" /><text  class="poloto_tick_labels poloto_text" dominant-baseline="middle" text-anchor="end" x="135" y="337.2881355932203" >4.25</text><line  class="poloto_axis_lines" stroke="black" x1="150" x2="144" y1="326.6949152542373" y2="326.6949152542373" /><line  class="poloto_tick_line" stroke="black" x1="150" x2="650" y1="326.6949152542373" y2="326.6949152542373" /><text  class="poloto_tick_labels poloto_text" dominant-baseline="middle" text-anchor="end" x="135" y="326.6949152542373" >4.375</text><line  class="poloto_axis_lines" stroke="black" x1="150" x2="144" y1="316.10169491525426" y2="316.10169491525426" /><line  class="poloto_tick_line" stroke="black" x1="150" x2="650" y1="316.10169491525426" y2="316.10169491525426" /><text  class="poloto_tick_labels poloto_text" dominant-baseline="middle" text-anchor="end" x="135" y="316.10169491525426" >4.5</text><line  class="poloto_axis_lines" stroke="black" x1="150" x2="144" y1="305.50847457627117" y2="305.50847457627117" /><line  class="poloto_tick_line" stroke="black" x1="150" x2="650" y1="305.50847457627117" y2="305.50847457627117" /><text  class="poloto_tick_labels poloto_text" dominant-baseline="middle" text-anchor="end" x="135" y="305.50847457627117" >4.625</text><line  class="poloto_axis_lines" stroke="black" x1="150" x2="144" y1="294.91525423728814" y2="294.91525423728814" /><line  class="poloto_tick_line" stroke="black" x1="150" x2="650" y1="294.91525423728814" y2="294.91525423728814" /><text  class="poloto_tick_labels poloto_text" dominant-baseline="middle" text-anchor="end" x="135" y="294.91525423728814" >4.75</text><line  class="poloto_axis_lines" stroke="black" x1="150" x2="144" y1="284.3220338983051" y2="284.3220338983051" /><line  class="poloto_tick_line" stroke="black" x1="150" x2="650" y1="284.3220338983051" y2="284.3220338983051" /><text  class="poloto_tick_labels poloto_text" dominant-baseline="middle" text-anchor="end" x="135" y="284.3220338983051" >4.875</text><line  class="poloto_axis_lines" stroke="black" x1="150" x2="144" y1="273.728813559322" y2="273.728813559322" /><line  class="poloto_tick_line" stroke="black" x1="150" x2="650" y1="273.728813559322" y2="273.728813559322" /><text  class="poloto_tick_labels poloto_text" dominant-baseline="middle" text-anchor="end" x="135" y="273.728813559322" >5</text><line  class="poloto_axis_lines" stroke="black" x1="150" x2="144" y1="263.135593220339" y2="263.135593220339" /><line  class="poloto_tick_line" stroke="black" x1="150" x2="650" y1="263.135593220339" y2="263.135593220339" /><text  class="poloto_tick_labels poloto_text" dominant-baseline="middle" text-anchor="end" x="135" y="263.135593220339" >5.125</text><line  class="poloto_axis_lines" stroke="black" x1="150" x2="144" y1="252.54237288135596" y2="252.54237288135596" /><line  class="poloto_tick_line" stroke="black" x1="150" x2="650" y1="252.54237288135596" y2="252.54237288135596" /><text  class="poloto_tick_labels poloto_text" dominant-baseline="middle" text-anchor="end" x="135" y="252.54237288135596" >5.25</text><line  class="poloto_axis_lines" stroke="black" x1="150" x2="144" y1="241.94915254237287" y2="241.94915254237287" /><line  class="poloto_tick_line" stroke="black" x1="150" x2="650" y1="241.94915254237287" y2="241.94915254237287" /><text  class="poloto_tick_labels poloto_text" dominant-baseline="middle" text-anchor="end" x="135" y="241.94915254237287" >5.375</text><line  class="poloto_axis_lines" stroke="black" x1="150" x2="144" y1="231.35593220338984" y2="231.35593220338984" /><line  class="poloto_tick_line" stroke="black" x1="150" x2="650" y1="231.35593220338984" y2="231.35593220338984" /><text  class="poloto_tick_labels poloto_text" dominant-baseline="middle" text-anchor="end" x="135" y="231.35593220338984" >5.5</text><line  class="poloto_axis_lines" stroke="black" x1="150" x2="144" y1="220.7627118644068" y2="220.7627118644068" /><line  class="poloto_tick_line" stroke="black" x1="150" x2="650" y1="220.7627118644068" y2="220.7627118644068" /><text  class="poloto_tick_labels poloto_text" dominant-baseline="middle" text-anchor="end" x="135" y="220.7627118644068" >5.625</text><line  class="poloto_axis_lines" stroke="black" x1="150" x2="144" y1="210.16949152542372" y2="210.16949152542372" /><line  class="poloto_tick_line" stroke="black" x1="150" x2="650" y1="210.16949152542372" y2="210.16949152542372" /><text  class="poloto_tick_labels poloto_text" dominant-baseline="middle" text-anchor="end" x="135" y="210.16949152542372" >5.75</text><line  class="poloto_axis_lines" stroke="black" x1="150" x2="144" y1="199.5762711864407" y2="199.5762711864407" /><line  class="poloto_tick_line" stroke="black" x1="150" x2="650" y1="199.5762711864407" y2="199.5762711864407" /><text  class="poloto_tick_labels poloto_text" dominant-baseline="middle" text-anchor="end" x="135" y="199.5762711864407" >5.875</text><line  class="poloto_axis_lines" stroke="black" x1="150" x2="144" y1="188.98305084745766" y2="188.98305084745766" /><line  class="poloto_tick_line" stroke="black" x1="150" x2="650" y1="188.98305084745766" y2="188.98305084745766" /><text  class="poloto_tick_labels poloto_text" dominant-baseline="middle" text-anchor="end" x="135" y="188.98305084745766" >6</text><line  class="poloto_axis_lines" stroke="black" x1="150" x2="144" y1="178.38983050847457" y2="178.38983050847457" /><line  class="poloto_tick_line" stroke="black" x1="150" x2="650" y1="178.38983050847457" y2="178.38983050847457" /><text  class="poloto_tick_labels poloto_text" dominant-baseline="middle" text-anchor="end" x="135" y="178.38983050847457" >6.125</text><line  class="poloto_axis_lines" stroke="black" x1="150" x2="144" y1="167.7966101694915" y2="167.7966101694915" /><line  class="poloto_tick_line" stroke="black" x1="150" x2="650" y1="167.7966101694915" y2="167.7966101694915" /><text  class="poloto_tick_labels poloto_text" dominant-baseline="middle" text-anchor="end" x="135" y="167.7966101694915" >6.25</text><line  class="poloto_axis_lines" stroke="black" x1="150" x2="144" y1="157.2033898305085" y2="157.2033898305085" /><line  class="poloto_tick_line" stroke="black" x1="150" x2="650" y1="157.2033898305085" y2="157.2033898305085" /><text  class="poloto_tick_labels poloto_text" dominant-baseline="middle" text-anchor="end" x="135" y="157.2033898305085" >6.375</text><line  class="poloto_axis_lines" stroke="black" x1="150" x2="144" y1="146.61016949152543" y2="146.61016949152543" /><line  class="poloto_tick_line" stroke="black" x1="150" x2="650" y1="146.61016949152543" y2="146.61016949152543" /><text  class="poloto_tick_labels poloto_text" dominant-baseline="middle" text-anchor="end" x="135" y="146.61016949152543" >6.5</text><line  class="poloto_axis_lines" stroke="black" x1="150" x2="144" y1="136.01694915254234" y2="136.01694915254234" /><line  class="poloto_tick_line" stroke="black" x1="150" x2="650" y1="136.01694915254234" y2="136.01694915254234" /><text  class="poloto_tick_labels poloto_text" dominant-baseline="middle" text-anchor="end" x="135" y="136.01694915254234" >6.625</text><line  class="poloto_axis_lines" stroke="black" x1="150" x2="144" y1="125.42372881355936" y2="125.42372881355936" /><line  class="poloto_tick_line" stroke="black" x1="150" x2="650" y1="125.42372881355936" y2="125.42372881355936" /><text  class="poloto_tick_labels poloto_text" dominant-baseline="middle" text-anchor="end" x="135" y="125.42372881355936" >6.75</text><line  class="poloto_axis_lines" stroke="black" x1="150" x2="144" y1="114.83050847457628" y2="114.83050847457628" /><line  class="poloto_tick_line" stroke="black" x1="150" x2="650" y1="114.83050847457628" y2="114.83050847457628" /><text  class="poloto_tick_labels poloto_text" dominant-baseline="middle" text-anchor="end" x="135" y="114.83050847457628" >6.875</text><line  class="poloto_axis_lines" stroke="black" x1="150" x2="144" y1="104.23728813559319" y2="104.23728813559319" /><line  class="poloto_tick_line" stroke="black" x1="150" x2="650" y1="104.23728813559319" y2="104.23728813559319" /><text  class="poloto_tick_labels poloto_text" dominant-baseline="middle" text-anchor="end" x="135" y="104.23728813559319" >7</text><text  class="poloto_tick_labels poloto_text" dominant-baseline="middle" text-anchor="start" x="440.00000000000006" y="70" >¹2022-05-01 00:00:00 UTC in Months</text><line  class="poloto_axis_lines" stroke="black" x1="235.5513307984802" x2="235.5513307984802" y1="400" y2="405" /><line  class="poloto_tick_line" stroke="black" x1="235.5513307984802" x2="235.5513307984802" y1="400" y2="100" /><text  class="poloto_tick_labels poloto_text" dominant-baseline="start" text-anchor="middle" x="235.5513307984802" y="430" >2022 May¹</text><line  class="poloto_axis_lines" stroke="black" x1="351.5209125475303" x2="351.5209125475303" y1="400" y2="405" /><line  class="poloto_tick_line" stroke="black" x1="351.5209125475303" x2="351.5209125475303" y1="400" y2="100" /><text  class="poloto_tick_labels poloto_text" dominant-baseline="start" text-anchor="middle" x="351.5209125475303" y="430" >2022 Jul</text><line  class="poloto_axis_lines" stroke="black" x1="469.3916349809879" x2="469.3916349809879" y1="400" y2="405" /><line  class="poloto_tick_line" stroke="black" x1="469.3916349809879" x2="469.3916349809879" y1="400" y2="100" /><text  class="poloto_tick_labels poloto_text" dominant-baseline="start" text-anchor="middle" x="469.3916349809879" y="430" >2022 Sep</text><line  class="poloto_axis_lines" stroke="black" x1="585.361216730038" x2="585.361216730038" y1="400" y2="405" /><line  class="poloto_tick_line" stroke="black" x1="585.361216730038" x2="585.361216730038" y1="400" y2="100" /><text  class="poloto_tick_labels poloto_text" dominant-baseline="start" text-anchor="middle" x="585.361216730038" y="430" >2022 Nov</text><path  stroke="black" fill="none" class="poloto_axis_lines" d=" M 150 400 L 650 400" /><path  stroke="black" fill="none" class="poloto_axis_lines" d=" M 150 400 L 150 100" /></svg>