<svg class="poloto" width="800" height="500" viewBox="0 0 800 500" xmlns="http://www.w3.org/2000/svg"><style>.poloto{stroke-linecap:round;stroke-linejoin:round;font-family:Roboto,sans-serif;font-size:16px;}.poloto_background{fill:#262626;}.poloto_scatter{stroke-width:7}.poloto_tick_line{stroke:dimgray;stroke-width:0.5}.poloto_line{stroke-width:2}.poloto_text{fill: white;}.poloto_axis_lines{stroke: white;stroke-width:3;fill:none;stroke-dasharray:none}.poloto_title{font-size:24px;dominant-baseline:start;text-anchor:middle;}.poloto_xname{font-size:24px;dominant-baseline:start;text-anchor:middle;}.poloto_yname{font-size:24px;dominant-baseline:start;text-anchor:middle;}.poloto0stroke{stroke:blue;}.poloto1stroke{stroke:red;}.poloto2stroke{stroke:green;}.poloto3stroke{stroke:gold;}.poloto4stroke{stroke:aqua;}.poloto5stroke{stroke:lime;}.poloto6stroke{stroke:orange;}.poloto7stroke{stroke:chocolate;}.poloto0fill{fill:blue;}.poloto1fill{fill:red;}.poloto2fill{fill:green;}.poloto3fill{fill:gold;}.poloto4fill{fill:aqua;}.poloto5fill{fill:lime;}.poloto6fill{fill:orange;}.poloto7fill{fill:chocolate;}</style><circle  r="1e5" class="poloto_background" /><text  class="poloto_text poloto_legend_text" x="675" y="100" >Refinance 15</text><line  class="poloto_line poloto_legend_icon poloto0stroke poloto0legend" stroke="black" x1="680" x2="730" y1="81.25" y2="81.25" /><path  class="poloto_line poloto0stroke" fill="none" stroke="black" d=" M 150.00 392.46 L 151.49 400.00 L 155.97 389.32 L 157.46 380.17 L 158.96 389.32 L 158.96 389.32 L 161.94 358.81 L 166.42 357.20 L 167.91 367.88 L 169.40 344.83 L 170.90 346.44 L 172.39 341.61 L 176.87 343.22 L 178.36 336.78 L 178.36 336.78 L 181.34 337.37 L 182.84 314.32 L 187.31 324.32 L 188.81 327.54 L 190.30 327.54 L 191.79 326.69 L 193.28 321.78 L 199.25 278.73 L 200.75 297.88 L 202.24 283.05 L 203.73 277.29 L 203.73 277.29 L 209.70 299.58 L 212.69 303.64 L 214.18 294.58 L 218.66 283.81 L 220.15 305.25 L 221.64 294.58 L 221.64 294.58 L 224.63 292.88 L 229.10 296.19 L 230.60 306.86 L 230.60 306.86 L 232.09 297.80 L 233.58 308.56 L 235.07 292.88 L 239.55 325.08 L 241.04 324.32 L 242.54 306.86 L 242.54 306.86 L 244.03 314.32 L 245.52 317.63 L 250.00 317.63 L 251.49 329.15 L 252.99 329.15 L 254.48 329.15 L 255.97 329.15 L 261.94 317.63 L 263.43 314.32 L 264.93 315.93 L 266.42 315.93 L 266.42 315.93 L 272.39 305.25 L 273.88 305.25 L 275.37 296.19 L 281.34 281.36 L 282.84 250.76 L 284.33 254.15 L 285.82 254.15 L 287.31 275.59 L 291.79 254.15 L 293.28 254.15 L 294.78 273.90 L 296.27 277.29 L 302.24 277.29 L 303.73 275.59 L 305.22 280.59 L 306.72 285.51 L 308.21 296.19 L 314.18 303.64 L 315.67 294.58 L 317.16 287.12 L 318.66 283.81 L 323.13 285.51 L 326.12 285.51 L 327.61 283.81 L 333.58 282.20 L 333.58 282.20 L 333.58 282.20 L 333.58 282.20 L 333.58 282.20 L 333.58 282.20 L 336.57 282.20 L 336.57 282.20 L 336.57 282.20 L 336.57 282.20 L 336.57 282.20 L 336.57 282.20 L 344.03 294.58 L 347.01 297.80 L 348.51 325.93 L 350.00 329.15 L 354.48 329.15 L 355.97 327.54 L 357.46 305.25 L 358.96 299.49 L 360.45 285.51 L 364.93 296.19 L 364.93 296.19 L 366.42 287.12 L 369.40 296.19 L 369.40 296.19 L 376.87 296.19 L 378.36 262.46 L 379.85 282.20 L 385.82 248.39 L 388.81 248.39 L 388.81 248.39 L 391.79 260.76 L 397.76 254.15 L 397.76 254.15 L 397.76 254.15 L 397.76 254.15 L 397.76 254.15 L 397.76 254.15 L 397.76 254.15 L 397.76 254.15 L 397.76 254.15 L 402.24 254.15 L 411.19 232.63 L 417.16 235.17 L 417.16 235.17 L 421.64 235.17 L 427.61 235.17 L 429.10 235.17 L 429.10 235.17 L 429.10 235.17 L 429.10 235.17 L 429.10 235.17 L 448.51 235.17 L 450.00 235.17 L 458.96 139.75 L 460.45 130.68 L 461.94 130.68 L 515.67 159.15 L 521.64 159.15 L 523.13 159.15 L 524.63 175.51 L 527.61 184.49 L 527.61 184.49 L 533.58 184.49 L 535.07 184.49 L 536.57 184.49 L 538.06 184.49 L 542.54 184.49 L 544.03 184.49 L 547.01 184.49 L 548.51 184.49 L 552.99 184.49 L 554.48 184.49 L 554.48 184.49 L 558.96 184.49 L 563.43 184.49 L 564.93 184.49 L 566.42 184.49 L 567.91 184.49 L 569.40 184.49 L 575.37 209.15 L 576.87 180.68 L 578.36 159.15 L 579.85 169.92 L 584.33 169.92 L 585.82 169.92 L 585.82 169.92 L 588.81 193.05 L 590.30 193.05 L 594.78 193.05 L 596.27 193.05 L 597.76 193.05 L 599.25 193.05 L 600.75 193.05 L 600.75 193.05 L 600.75 193.05 L 600.75 193.05 L 608.21 193.05 L 611.19 193.05 L 615.67 193.05 L 617.16 193.05 L 620.15 193.05 L 621.64 193.05 L 627.61 193.05 L 629.10 193.05 L 630.60 193.05 L 632.09 223.56 L 636.57 230.34 L 638.06 191.36 L 639.55 203.81 L 641.04 202.12 L 642.54 182.37 L 647.01 137.71 L 648.51 137.71 L 650.00 137.71" /><text  class="poloto_text poloto_legend_text" x="675" y="150" >Refinance 20</text><line  class="poloto_line poloto_legend_icon poloto1stroke poloto1legend" stroke="black" x1="680" x2="730" y1="131.25" y2="131.25" /><path  class="poloto_line poloto1stroke" fill="none" stroke="black" d=" M 150.00 345.68 L 151.49 368.31 L 155.97 334.58 L 157.46 324.24 L 158.96 333.73 L 158.96 333.73 L 161.94 304.07 L 166.42 301.53 L 167.91 312.29 L 169.40 300.25 L 170.90 311.02 L 172.39 290.85 L 176.87 321.69 L 178.36 290.85 L 178.36 290.85 L 181.34 290.85 L 181.34 290.85 L 187.31 250.17 L 188.81 282.71 L 190.30 290.85 L 191.79 301.53 L 193.28 280.59 L 199.25 260.00 L 200.75 257.37 L 202.24 252.12 L 203.73 240.08 L 208.21 245.34 L 209.70 268.14 L 212.69 260.00 L 214.18 257.37 L 218.66 248.81 L 220.15 258.73 L 221.64 258.73 L 221.64 258.73 L 224.63 258.73 L 229.10 260.00 L 230.60 281.44 L 230.60 281.44 L 232.09 269.41 L 233.58 289.58 L 235.07 281.44 L 239.55 282.71 L 241.04 281.44 L 242.54 281.44 L 242.54 281.44 L 244.03 282.71 L 245.52 289.58 L 250.00 290.85 L 251.49 294.66 L 252.99 294.66 L 254.48 294.66 L 255.97 294.66 L 261.94 289.58 L 263.43 278.81 L 264.93 281.44 L 266.42 281.44 L 266.42 281.44 L 272.39 268.14 L 273.88 270.68 L 275.37 261.27 L 281.34 215.85 L 282.84 197.03 L 284.33 207.80 L 285.82 215.85 L 287.31 238.56 L 291.79 225.17 L 293.28 218.47 L 294.78 239.92 L 296.27 250.17 L 302.24 250.17 L 303.73 238.56 L 305.22 249.32 L 306.72 260.00 L 308.21 272.03 L 314.18 280.08 L 315.67 269.41 L 317.16 258.73 L 318.66 251.44 L 323.13 257.37 L 326.12 260.00 L 327.61 258.73 L 333.58 260.00 L 333.58 260.00 L 333.58 260.00 L 333.58 260.00 L 333.58 260.00 L 333.58 260.00 L 333.58 260.00 L 333.58 260.00 L 333.58 260.00 L 333.58 260.00 L 333.58 260.00 L 333.58 260.00 L 344.03 280.08 L 347.01 282.71 L 348.51 301.53 L 350.00 304.07 L 354.48 301.27 L 355.97 301.27 L 357.46 290.85 L 358.96 294.66 L 360.45 278.81 L 364.93 270.68 L 364.93 270.68 L 366.42 270.68 L 369.40 281.44 L 369.40 281.44 L 376.87 278.81 L 378.36 260.00 L 379.85 260.00 L 385.82 246.19 L 388.81 234.58 L 388.81 234.58 L 391.79 247.54 L 397.76 215.85 L 397.76 215.85 L 397.76 215.85 L 397.76 215.85 L 397.76 215.85 L 397.76 215.85 L 397.76 215.85 L 397.76 215.85 L 397.76 215.85 L 402.24 215.85 L 411.19 202.37 L 417.16 203.73 L 420.15 203.73 L 421.64 203.73 L 421.64 203.73 L 429.10 203.73 L 430.60 203.73 L 430.60 203.73 L 430.60 203.73 L 430.60 203.73 L 448.51 203.73 L 450.00 203.73 L 458.96 118.81 L 460.45 102.97 L 460.45 102.97 L 518.66 155.34 L 521.64 155.34 L 523.13 155.34 L 526.12 174.15 L 527.61 175.51 L 527.61 175.51 L 533.58 175.51 L 535.07 175.51 L 536.57 175.51 L 538.06 175.51 L 542.54 175.51 L 544.03 175.51 L 547.01 175.51 L 548.51 175.51 L 552.99 175.51 L 554.48 175.51 L 554.48 175.51 L 558.96 175.51 L 563.43 175.51 L 564.93 175.51 L 566.42 175.51 L 567.91 175.51 L 569.40 175.51 L 575.37 156.36 L 576.87 145.93 L 578.36 144.58 L 579.85 147.37 L 584.33 147.37 L 585.82 147.37 L 585.82 147.37 L 588.81 167.46 L 590.30 167.46 L 594.78 167.46 L 596.27 167.46 L 597.76 167.46 L 599.25 167.46 L 600.75 167.46 L 600.75 167.46 L 606.72 167.46 L 606.72 167.46 L 608.21 167.46 L 611.19 167.46 L 615.67 167.46 L 617.16 167.46 L 620.15 167.46 L 621.64 167.46 L 627.61 167.46 L 629.10 167.46 L 630.60 167.46 L 632.09 190.34 L 636.57 188.98 L 638.06 156.69 L 639.55 158.05 L 639.55 158.05 L 642.54 156.69 L 647.01 135.17 L 648.51 135.17 L 650.00 125.85" /><text  class="poloto_text poloto_legend_text" x="675" y="200" >Refinance 30</text><line  class="poloto_line poloto_legend_icon poloto2stroke poloto2legend" stroke="black" x1="680" x2="730" y1="181.25" y2="181.25" /><path  class="poloto_line poloto2stroke" fill="none" stroke="black" d=" M 150.00 343.31 L 151.49 351.36 L 155.97 338.81 L 157.46 328.98 L 158.96 330.85 L 158.96 330.85 L 161.94 310.25 L 166.42 308.47 L 167.91 319.15 L 169.40 307.54 L 170.90 318.22 L 172.39 297.71 L 176.87 307.54 L 178.36 286.95 L 179.85 286.95 L 181.34 286.02 L 182.84 260.00 L 187.31 264.58 L 188.81 276.27 L 190.30 286.95 L 191.79 277.20 L 193.28 265.51 L 199.25 256.61 L 200.75 242.12 L 202.24 240.17 L 203.73 238.14 L 208.21 242.12 L 209.70 258.73 L 212.69 256.61 L 214.18 254.66 L 218.66 244.07 L 220.15 255.59 L 221.64 244.07 L 221.64 244.07 L 224.63 244.07 L 229.10 246.02 L 230.60 264.58 L 230.60 264.58 L 232.09 255.59 L 233.58 256.61 L 235.07 257.54 L 239.55 265.51 L 241.04 256.61 L 242.54 256.61 L 242.54 256.61 L 244.03 266.44 L 245.52 267.46 L 250.00 268.39 L 251.49 277.20 L 252.99 277.20 L 254.48 279.07 L 255.97 279.07 L 261.94 275.25 L 263.43 264.58 L 264.93 266.44 L 266.42 265.51 L 266.42 265.51 L 272.39 255.59 L 273.88 255.59 L 275.37 245.00 L 281.34 202.12 L 282.84 171.78 L 284.33 190.34 L 285.82 202.12 L 287.31 212.80 L 291.79 203.05 L 293.28 202.12 L 294.78 221.61 L 296.27 223.56 L 302.24 223.56 L 303.73 211.86 L 305.22 221.61 L 306.72 232.29 L 308.21 255.59 L 314.18 256.61 L 315.67 245.00 L 317.16 224.58 L 318.66 221.61 L 323.13 241.10 L 326.12 223.56 L 327.61 222.54 L 333.58 242.12 L 333.58 242.12 L 333.58 242.12 L 333.58 242.12 L 333.58 242.12 L 333.58 242.12 L 336.57 242.12 L 336.57 242.12 L 336.57 242.12 L 336.57 242.12 L 336.57 242.12 L 336.57 242.12 L 344.03 254.66 L 347.01 256.61 L 348.51 275.25 L 350.00 287.88 L 354.48 286.95 L 355.97 286.95 L 357.46 265.51 L 358.96 268.39 L 360.45 254.66 L 364.93 265.51 L 364.93 265.51 L 366.42 257.54 L 369.40 266.44 L 369.40 266.44 L 376.87 264.58 L 378.36 246.02 L 379.85 245.00 L 385.82 220.59 L 388.81 211.86 L 388.81 211.86 L 391.79 222.54 L 397.76 210.85 L 397.76 210.85 L 397.76 210.85 L 397.76 210.85 L 397.76 210.85 L 397.76 210.85 L 397.76 210.85 L 397.76 210.85 L 402.24 210.85 L 402.24 209.83 L 411.19 197.03 L 417.16 175.51 L 417.16 175.51 L 421.64 175.51 L 421.64 175.51 L 429.10 175.51 L 430.60 175.51 L 430.60 175.51 L 430.60 175.51 L 430.60 175.51 L 448.51 175.51 L 450.00 175.51 L 458.96 127.03 L 460.45 100.00 L 460.45 100.00 L 518.66 146.44 L 521.64 146.44 L 523.13 146.44 L 524.63 150.76 L 527.61 160.59 L 527.61 160.59 L 533.58 160.59 L 535.07 160.59 L 536.57 160.59 L 538.06 160.59 L 542.54 160.59 L 544.03 160.59 L 547.01 160.59 L 548.51 160.59 L 552.99 160.59 L 554.48 160.59 L 554.48 160.59 L 558.96 160.59 L 563.43 160.59 L 564.93 160.59 L 566.42 160.59 L 567.91 160.59 L 569.40 160.59 L 575.37 144.24 L 576.87 152.88 L 578.36 132.37 L 579.85 152.88 L 584.33 152.88 L 585.82 152.88 L 585.82 152.88 L 588.81 152.88 L 590.30 152.88 L 594.78 152.88 L 596.27 152.88 L 597.76 152.88 L 599.25 152.88 L 600.75 152.88 L 600.75 152.88 L 606.72 152.88 L 606.72 152.88 L 608.21 152.88 L 611.19 152.88 L 615.67 152.88 L 617.16 152.88 L 620.15 152.88 L 621.64 152.88 L 627.61 152.88 L 629.10 152.88 L 630.60 152.88 L 632.09 207.80 L 636.57 197.03 L 638.06 153.98 L 639.55 186.27 L 641.04 153.98 L 642.54 143.14 L 647.01 132.37 L 648.51 132.37 L 650.00 122.63" /><text  class="poloto_labels poloto_text poloto_title" x="400" y="37.5" >lower.com purchase rates</text><text  class="poloto_labels poloto_text poloto_xname" x="400" y="481.25" >Date</text><text  class="poloto_labels poloto_text poloto_yname" transform="rotate(-90,37.5,250)" x="37.5" y="250" >Rate (%)</text><text  class="poloto_tick_labels poloto_text" dominant-baseline="middle" text-anchor="start" x="150" y="70" ></text><line  class="poloto_axis_lines" stroke="black" x1="150" x2="144" y1="390.2542372881356" y2="390.2542372881356" /><line  class="poloto_tick_line" stroke="black" x1="150" x2="650" y1="390.2542372881356" y2="390.2542372881356" /><text  class="poloto_tick_labels poloto_text" dominant-baseline="middle" text-anchor="end" x="135" y="390.2542372881356" >3.625</text><line  class="poloto_axis_lines" stroke="black" x1="150" x2="144" y1="379.66101694915255" y2="379.66101694915255" /><line  class="poloto_tick_line" stroke="black" x1="150" x2="650" y1="379.66101694915255" y2="379.66101694915255" /><text  class="poloto_tick_labels poloto_text" dominant-baseline="middle" text-anchor="end" x="135" y="379.66101694915255" >3.75</text><line  class="poloto_axis_lines" stroke="black" x1="150" x2="144" y1="369.06779661016947" y2="369.06779661016947" /><line  class="poloto_tick_line" stroke="black" x1="150" x2="650" y1="369.06779661016947" y2="369.06779661016947" /><text  class="poloto_tick_labels poloto_text" dominant-baseline="middle" text-anchor="end" x="135" y="369.06779661016947" >3.875</text><line  class="poloto_axis_lines" stroke="black" x1="150" x2="144" y1="358.47457627118644" y2="358.47457627118644" /><line  class="poloto_tick_line" stroke="black" x1="150" x2="650" y1="358.47457627118644" y2="358.47457627118644" /><text  class="poloto_tick_labels poloto_text" dominant-baseline="middle" text-anchor="end" x="135" y="358.47457627118644" >4</text><line  class="poloto_axis_lines" stroke="black" x1="150" x2="144" y1="347.8813559322034" y2="347.8813559322034" /><line  class="poloto_tick_line" stroke="black" x1="150" x2="650" y1="347.8813559322034" y2="347.8813559322034" /><text  class="poloto_tick_labels poloto_text" dominant-baseline="middle" text-anchor="end" x="135" y="347.8813559322034" >4.125</text><line  class="poloto_axis_lines" stroke="black" x1="150" x2="144" y1="337.2881355932203" y2="337.2881355932203" /><line  class="poloto_tick_line" stroke="black" x1="150" x2="650" y1="337.2881355932203" y2="337.2881355932203" /><text  class="poloto_tick_labels poloto_text" dominant-baseline="middle" text-anchor="end" x="135" y="337.2881355932203" >4.25</text><line  class="poloto_axis_lines" stroke="black" x1="150" x2="144" y1="326.6949152542373" y2="326.6949152542373" /><line  class="poloto_tick_line" stroke="black" x1="150" x2="650" y1="326.6949152542373" y2="326.6949152542373" /><text  class="poloto_tick_labels poloto_text" dominant-baseline="middle" text-anchor="end" x="135" y="326.6949152542373" >4.375</text><line  class="poloto_axis_lines" stroke="black" x1="150" x2="144" y1="316.10169491525426" y2="316.10169491525426" /><line  class="poloto_tick_line" stroke="black" x1="150" x2="650" y1="316.10169491525426" y2="316.10169491525426" /><text  class="poloto_tick_labels poloto_text" dominant-baseline="middle" text-anchor="end" x="135" y="316.10169491525426" >4.5</text><line  class="poloto_axis_lines" stroke="black" x1="150" x2="144" y1="305.50847457627117" y2="305.50847457627117" /><line  class="poloto_tick_line" stroke="black" x1="150" x2="650" y1="305.50847457627117" y2="305.50847457627117" /><text  class="poloto_tick_labels poloto_text" dominant-baseline="middle" text-anchor="end" x="135" y="305.50847457627117" >4.625</text><line  class="poloto_axis_lines" stroke="black" x1="150" x2="144" y1="294.91525423728814" y2="294.91525423728814" /><line  class="poloto_tick_line" stroke="black" x1="150" x2="650" y1="294.91525423728814" y2="294.91525423728814" /><text  class="poloto_tick_labels poloto_text" dominant-baseline="middle" text-anchor="end" x="135" y="294.91525423728814" >4.75</text><line  class="poloto_axis_lines" stroke="black" x1="150" x2="144" y1="284.3220338983051" y2="284.3220338983051" /><line  class="poloto_tick_line" stroke="black" x1="150" x2="650" y1="284.3220338983051" y2="284.3220338983051" /><text  class="poloto_tick_labels poloto_text" dominant-baseline="middle" text-anchor="end" x="135" y="284.3220338983051" >4.875</text><line  class="poloto_axis_lines" stroke="black" x1="150" x2="144" y1="273.728813559322" y2="273.728813559322" /><line  class="poloto_tick_line" stroke="black" x1="150" x2="650" y1="273.728813559322" y2="273.728813559322" /><text  class="poloto_tick_labels poloto_text" dominant-baseline="middle" text-anchor="end" x="135" y="273.728813559322" >5</text><line  class="poloto_axis_lines" stroke="black" x1="150" x2="144" y1="263.135593220339" y2="263.135593220339" /><line  class="poloto_tick_line" stroke="black" x1="150" x2="650" y1="263.135593220339" y2="263.135593220339" /><text  class="poloto_tick_labels poloto_text" dominant-baseline="middle" text-anchor="end" x="135" y="263.135593220339" >5.125</text><line  class="poloto_axis_lines" stroke="black" x1="150" x2="144" y1="252.54237288135596" y2="252.54237288135596" /><line  class="poloto_tick_line" stroke="black" x1="150" x2="650" y1="252.54237288135596" y2="252.54237288135596" /><text  class="poloto_tick_labels poloto_text" dominant-baseline="middle" text-anchor="end" x="135" y="252.54237288135596" >5.25</text><line  class="poloto_axis_lines" stroke="black" x1="150" x2="144" y1="241.94915254237287" y2="241.94915254237287" /><line  class="poloto_tick_line" stroke="black" x1="150" x2="650" y1="241.94915254237287" y2="241.94915254237287" /><text  class="poloto_tick_labels poloto_text" dominant-baseline="middle" text-anchor="end" x="135" y="241.94915254237287" >5.375</text><line  class="poloto_axis_lines" stroke="black" x1="150" x2="144" y1="231.35593220338984" y2="231.35593220338984" /><line  class="poloto_tick_line" stroke="black" x1="150" x2="650" y1="231.35593220338984" y2="231.35593220338984" /><text  class="poloto_tick_labels poloto_text" dominant-baseline="middle" text-anchor="end" x="135" y="231.35593220338984" >5.5</text><line  class="poloto_axis_lines" stroke="black" x1="150" x2="144" y1="220.7627118644068" y2="220.7627118644068" /><line  class="poloto_tick_line" stroke="black" x1="150" x2="650" y1="220.7627118644068" y2="220.7627118644068" /><text  class="poloto_tick_labels poloto_text" dominant-baseline="middle" text-anchor="end" x="135" y="220.7627118644068" >5.625</text><line  class="poloto_axis_lines" stroke="black" x1="150" x2="144" y1="210.16949152542372" y2="210.16949152542372" /><line  class="poloto_tick_line" stroke="black" x1="150" x2="650" y1="210.16949152542372" y2="210.16949152542372" /><text  class="poloto_tick_labels poloto_text" dominant-baseline="middle" text-anchor="end" x="135" y="210.16949152542372" >5.75</text><line  class="poloto_axis_lines" stroke="black" x1="150" x2="144" y1="199.5762711864407" y2="199.5762711864407" /><line  class="poloto_tick_line" stroke="black" x1="150" x2="650" y1="199.5762711864407" y2="199.5762711864407" /><text  class="poloto_tick_labels poloto_text" dominant-baseline="middle" text-anchor="end" x="135" y="199.5762711864407" >5.875</text><line  class="poloto_axis_lines" stroke="black" x1="150" x2="144" y1="188.98305084745766" y2="188.98305084745766" /><line  class="poloto_tick_line" stroke="black" x1="150" x2="650" y1="188.98305084745766" y2="188.98305084745766" /><text  class="poloto_tick_labels poloto_text" dominant-baseline="middle" text-anchor="end" x="135" y="188.98305084745766" >6</text><line  class="poloto_axis_lines" stroke="black" x1="150" x2="144" y1="178.38983050847457" y2="178.38983050847457" /><line  class="poloto_tick_line" stroke="black" x1="150" x2="650" y1="178.38983050847457" y2="178.38983050847457" /><text  class="poloto_tick_labels poloto_text" dominant-baseline="middle" text-anchor="end" x="135" y="178.38983050847457" >6.125</text><line  class="poloto_axis_lines" stroke="black" x1="150" x2="144" y1="167.7966101694915" y2="167.7966101694915" /><line  class="poloto_tick_line" stroke="black" x1="150" x2="650" y1="167.7966101694915" y2="167.7966101694915" /><text  class="poloto_tick_labels poloto_text" dominant-baseline="middle" text-anchor="end" x="135" y="167.7966101694915" >6.25</text><line  class="poloto_axis_lines" stroke="black" x1="150" x2="144" y1="157.2033898305085" y2="157.2033898305085" /><line  class="poloto_tick_line" stroke="black" x1="150" x2="650" y1="157.2033898305085" y2="157.2033898305085" /><text  class="poloto_tick_labels poloto_text" dominant-baseline="middle" text-anchor="end" x="135" y="157.2033898305085" >6.375</text><line  class="poloto_axis_lines" stroke="black" x1="150" x2="144" y1="146.61016949152543" y2="146.61016949152543" /><line  class="poloto_tick_line" stroke="black" x1="150" x2="650" y1="146.61016949152543" y2="146.61016949152543" /><text  class="poloto_tick_labels poloto_text" dominant-baseline="middle" text-anchor="end" x="135" y="146.61016949152543" >6.5</text><line  class="poloto_axis_lines" stroke="black" x1="150" x2="144" y1="136.01694915254234" y2="136.01694915254234" /><line  class="poloto_tick_line" stroke="black" x1="150" x2="650" y1="136.01694915254234" y2="136.01694915254234" /><text  class="poloto_tick_labels poloto_text" dominant-baseline="middle" text-anchor="end" x="135" y="136.01694915254234" >6.625</text><line  class="poloto_axis_lines" stroke="black" x1="150" x2="144" y1="125.42372881355936" y2="125.42372881355936" /><line  class="poloto_tick_line" stroke="black" x1="150" x2="650" y1="125.42372881355936" y2="125.42372881355936" /><text  class="poloto_tick_labels poloto_text" dominant-baseline="middle" text-anchor="end" x="135" y="125.42372881355936" >6.75</text><line  class="poloto_axis_lines" stroke="black" x1="150" x2="144" y1="114.83050847457628" y2="114.83050847457628" /><line  class="poloto_tick_line" stroke="black" x1="150" x2="650" y1="114.83050847457628" y2="114.83050847457628" /><text  class="poloto_tick_labels poloto_text" dominant-baseline="middle" text-anchor="end" x="135" y="114.83050847457628" >6.875</text><line  class="poloto_axis_lines" stroke="black" x1="150" x2="144" y1="104.23728813559319" y2="104.23728813559319" /><line  class="poloto_tick_line" stroke="black" x1="150" x2="650" y1="104.23728813559319" y2="104.23728813559319" /><text  class="poloto_tick_labels poloto_text" dominant-baseline="middle" text-anchor="end" x="135" y="104.23728813559319" >7</text><text  class="poloto_tick_labels poloto_text" dominant-baseline="middle" text-anchor="start" x="440.00000000000006" y="70" >¹2022-05-01 00:00:00 UTC in Months</text><line  class="poloto_axis_lines" stroke="black" x1="217.16417910447854" x2="217.16417910447854" y1="400" y2="405" /><line  class="poloto_tick_line" stroke="black" x1="217.16417910447854" x2="217.16417910447854" y1="400" y2="100" /><text  class="poloto_tick_labels poloto_text" dominant-baseline="start" text-anchor="middle" x="217.16417910447854" y="430" >2022 May¹</text><line  class="poloto_axis_lines" stroke="black" x1="308.2089552238831" x2="308.2089552238831" y1="400" y2="405" /><line  class="poloto_tick_line" stroke="black" x1="308.2089552238831" x2="308.2089552238831" y1="400" y2="100" /><text  class="poloto_tick_labels poloto_text" dominant-baseline="start" text-anchor="middle" x="308.2089552238831" y="430" >2022 Jul</text><line  class="poloto_axis_lines" stroke="black" x1="400.746268656716" x2="400.746268656716" y1="400" y2="405" /><line  class="poloto_tick_line" stroke="black" x1="400.746268656716" x2="400.746268656716" y1="400" y2="100" /><text  class="poloto_tick_labels poloto_text" dominant-baseline="start" text-anchor="middle" x="400.746268656716" y="430" >2022 Sep</text><line  class="poloto_axis_lines" stroke="black" x1="491.79104477612054" x2="491.79104477612054" y1="400" y2="405" /><line  class="poloto_tick_line" stroke="black" x1="491.79104477612054" x2="491.79104477612054" y1="400" y2="100" /><text  class="poloto_tick_labels poloto_text" dominant-baseline="start" text-anchor="middle" x="491.79104477612054" y="430" >2022 Nov</text><line  class="poloto_axis_lines" stroke="black" x1="582.8358208955215" x2="582.8358208955215" y1="400" y2="405" /><line  class="poloto_tick_line" stroke="black" x1="582.8358208955215" x2="582.8358208955215" y1="400" y2="100" /><text  class="poloto_tick_labels poloto_text" dominant-baseline="start" text-anchor="middle" x="582.8358208955215" y="430" >2023 Jan</text><path  stroke="black" fill="none" class="poloto_axis_lines" d=" M 150 400 L 650 400" /><path  stroke="black" fill="none" class="poloto_axis_lines" d=" M 150 400 L 150 100" /></svg>