<svg class="poloto" width="800" height="500" viewBox="0 0 800 500" xmlns="http://www.w3.org/2000/svg"><style>.poloto{stroke-linecap:round;stroke-linejoin:round;font-family:Roboto,sans-serif;font-size:16px;}.poloto_background{fill:#262626;}.poloto_scatter{stroke-width:7}.poloto_tick_line{stroke:dimgray;stroke-width:0.5}.poloto_line{stroke-width:2}.poloto_text{fill: white;}.poloto_axis_lines{stroke: white;stroke-width:3;fill:none;stroke-dasharray:none}.poloto_title{font-size:24px;dominant-baseline:start;text-anchor:middle;}.poloto_xname{font-size:24px;dominant-baseline:start;text-anchor:middle;}.poloto_yname{font-size:24px;dominant-baseline:start;text-anchor:middle;}.poloto0stroke{stroke:blue;}.poloto1stroke{stroke:red;}.poloto2stroke{stroke:green;}.poloto3stroke{stroke:gold;}.poloto4stroke{stroke:aqua;}.poloto5stroke{stroke:lime;}.poloto6stroke{stroke:orange;}.poloto7stroke{stroke:chocolate;}.poloto0fill{fill:blue;}.poloto1fill{fill:red;}.poloto2fill{fill:green;}.poloto3fill{fill:gold;}.poloto4fill{fill:aqua;}.poloto5fill{fill:lime;}.poloto6fill{fill:orange;}.poloto7fill{fill:chocolate;}</style><circle  r="1e5" class="poloto_background" /><text  class="poloto_text poloto_legend_text" x="675" y="100" >Refinance 15</text><line  class="poloto_line poloto_legend_icon poloto0stroke poloto0legend" stroke="black" x1="680" x2="730" y1="81.25" y2="81.25" /><path  class="poloto_line poloto0stroke" fill="none" stroke="black" d=" M 150.00 390.09 L 152.86 400.00 L 161.43 385.96 L 164.29 373.93 L 167.14 385.96 L 167.14 385.96 L 172.86 345.86 L 181.43 343.74 L 184.29 357.78 L 187.14 327.48 L 190.00 329.60 L 192.86 323.25 L 201.43 325.36 L 204.29 316.90 L 204.29 316.90 L 210.00 317.68 L 212.86 287.37 L 221.43 300.52 L 224.29 304.75 L 227.14 304.75 L 230.00 303.64 L 232.86 297.18 L 244.29 240.59 L 247.14 265.76 L 250.00 246.27 L 252.86 238.69 L 252.86 238.69 L 264.29 267.99 L 270.00 273.34 L 272.86 261.42 L 281.43 247.27 L 284.29 275.45 L 287.14 261.42 L 287.14 261.42 L 292.86 259.19 L 301.43 263.54 L 304.29 277.57 L 304.29 277.57 L 307.14 265.65 L 310.00 279.80 L 312.86 259.19 L 321.43 301.52 L 324.29 300.52 L 327.14 277.57 L 327.14 277.57 L 330.00 287.37 L 332.86 291.72 L 341.43 291.72 L 344.29 306.87 L 347.14 306.87 L 350.00 306.87 L 352.86 306.87 L 364.29 291.72 L 367.14 287.37 L 370.00 289.49 L 372.86 289.49 L 372.86 289.49 L 384.29 275.45 L 387.14 275.45 L 390.00 263.54 L 401.43 244.04 L 404.29 203.82 L 407.14 208.28 L 410.00 208.28 L 412.86 236.46 L 421.43 208.28 L 424.29 208.28 L 427.14 234.24 L 430.00 238.69 L 441.43 238.69 L 444.29 236.46 L 447.14 243.04 L 450.00 249.50 L 452.86 263.54 L 464.29 273.34 L 467.14 261.42 L 470.00 251.62 L 472.86 247.27 L 481.43 249.50 L 487.14 249.50 L 490.00 247.27 L 501.43 245.15 L 501.43 245.15 L 501.43 245.15 L 501.43 245.15 L 501.43 245.15 L 501.43 245.15 L 507.14 245.15 L 507.14 245.15 L 507.14 245.15 L 507.14 245.15 L 507.14 245.15 L 507.14 245.15 L 521.43 261.42 L 527.14 265.65 L 530.00 302.64 L 532.86 306.87 L 541.43 306.87 L 544.29 304.75 L 547.14 275.45 L 550.00 267.88 L 552.86 249.50 L 561.43 263.54 L 561.43 263.54 L 564.29 251.62 L 570.00 263.54 L 570.00 263.54 L 584.29 263.54 L 587.14 219.20 L 590.00 245.15 L 601.43 200.71 L 607.14 200.71 L 607.14 200.71 L 612.86 216.97 L 624.29 208.28 L 624.29 208.28 L 624.29 208.28 L 624.29 208.28 L 624.29 208.28 L 624.29 208.28 L 624.29 208.28 L 624.29 208.28 L 624.29 208.28 L 632.86 208.28 L 650.00 179.99" /><text  class="poloto_text poloto_legend_text" x="675" y="150" >Refinance 20</text><line  class="poloto_line poloto_legend_icon poloto1stroke poloto1legend" stroke="black" x1="680" x2="730" y1="131.25" y2="131.25" /><path  class="poloto_line poloto1stroke" fill="none" stroke="black" d=" M 150.00 328.59 L 152.86 358.34 L 161.43 314.00 L 164.29 300.41 L 167.14 312.89 L 167.14 312.89 L 172.86 273.90 L 181.43 270.55 L 184.29 284.70 L 187.14 268.88 L 190.00 283.03 L 192.86 256.52 L 201.43 297.07 L 204.29 256.52 L 204.29 256.52 L 210.00 256.52 L 210.00 256.52 L 221.43 203.04 L 224.29 245.82 L 227.14 256.52 L 230.00 270.55 L 232.86 243.04 L 244.29 215.97 L 247.14 212.51 L 250.00 205.61 L 252.86 189.79 L 261.43 196.70 L 264.29 226.66 L 270.00 215.97 L 272.86 212.51 L 281.43 201.26 L 284.29 214.30 L 287.14 214.30 L 287.14 214.30 L 292.86 214.30 L 301.43 215.97 L 304.29 244.15 L 304.29 244.15 L 307.14 228.33 L 310.00 254.85 L 312.86 244.15 L 321.43 245.82 L 324.29 244.15 L 327.14 244.15 L 327.14 244.15 L 330.00 245.82 L 332.86 254.85 L 341.43 256.52 L 344.29 261.53 L 347.14 261.53 L 350.00 261.53 L 352.86 261.53 L 364.29 254.85 L 367.14 240.70 L 370.00 244.15 L 372.86 244.15 L 372.86 244.15 L 384.29 226.66 L 387.14 230.00 L 390.00 217.64 L 401.43 157.93 L 404.29 133.20 L 407.14 147.34 L 410.00 157.93 L 412.86 187.78 L 421.43 170.18 L 424.29 161.38 L 427.14 189.57 L 430.00 203.04 L 441.43 203.04 L 444.29 187.78 L 447.14 201.93 L 450.00 215.97 L 452.86 231.79 L 464.29 242.37 L 467.14 228.33 L 470.00 214.30 L 472.86 204.72 L 481.43 212.51 L 487.14 215.97 L 490.00 214.30 L 501.43 215.97 L 501.43 215.97 L 501.43 215.97 L 501.43 215.97 L 501.43 215.97 L 501.43 215.97 L 501.43 215.97 L 501.43 215.97 L 501.43 215.97 L 501.43 215.97 L 501.43 215.97 L 501.43 215.97 L 521.43 242.37 L 527.14 245.82 L 530.00 270.55 L 532.86 273.90 L 541.43 270.22 L 544.29 270.22 L 547.14 256.52 L 550.00 261.53 L 552.86 240.70 L 561.43 230.00 L 561.43 230.00 L 564.29 230.00 L 570.00 244.15 L 570.00 244.15 L 584.29 240.70 L 587.14 215.97 L 590.00 215.97 L 601.43 197.81 L 607.14 182.55 L 607.14 182.55 L 612.86 199.59 L 624.29 157.93 L 624.29 157.93 L 624.29 157.93 L 624.29 157.93 L 624.29 157.93 L 624.29 157.93 L 624.29 157.93 L 624.29 157.93 L 624.29 157.93 L 632.86 157.93 L 650.00 140.22" /><text  class="poloto_text poloto_legend_text" x="675" y="200" >Refinance 30</text><line  class="poloto_line poloto_legend_icon poloto2stroke poloto2legend" stroke="black" x1="680" x2="730" y1="181.25" y2="181.25" /><path  class="poloto_line poloto2stroke" fill="none" stroke="black" d=" M 150.00 325.47 L 152.86 336.06 L 161.43 319.57 L 164.29 306.65 L 167.14 309.10 L 167.14 309.10 L 172.86 282.03 L 181.43 279.69 L 184.29 293.72 L 187.14 278.46 L 190.00 292.50 L 192.86 265.54 L 201.43 278.46 L 204.29 251.39 L 207.14 251.39 L 210.00 250.17 L 212.86 215.97 L 221.43 221.98 L 224.29 237.36 L 227.14 251.39 L 230.00 238.58 L 232.86 223.21 L 244.29 211.51 L 247.14 192.46 L 250.00 189.90 L 252.86 187.23 L 261.43 192.46 L 264.29 214.30 L 270.00 211.51 L 272.86 208.95 L 281.43 195.02 L 284.29 210.17 L 287.14 195.02 L 287.14 195.02 L 292.86 195.02 L 301.43 197.59 L 304.29 221.98 L 304.29 221.98 L 307.14 210.17 L 310.00 211.51 L 312.86 212.74 L 321.43 223.21 L 324.29 211.51 L 327.14 211.51 L 327.14 211.51 L 330.00 224.43 L 332.86 225.77 L 341.43 227.00 L 344.29 238.58 L 347.14 238.58 L 350.00 241.03 L 352.86 241.03 L 364.29 236.02 L 367.14 221.98 L 370.00 224.43 L 372.86 223.21 L 372.86 223.21 L 384.29 210.17 L 387.14 210.17 L 390.00 196.25 L 401.43 139.88 L 404.29 100.00 L 407.14 124.40 L 410.00 139.88 L 412.86 153.92 L 421.43 141.11 L 424.29 139.88 L 427.14 165.50 L 430.00 168.07 L 441.43 168.07 L 444.29 152.69 L 447.14 165.50 L 450.00 179.54 L 452.86 210.17 L 464.29 211.51 L 467.14 196.25 L 470.00 169.40 L 472.86 165.50 L 481.43 191.13 L 487.14 168.07 L 490.00 166.73 L 501.43 192.46 L 501.43 192.46 L 501.43 192.46 L 501.43 192.46 L 501.43 192.46 L 501.43 192.46 L 507.14 192.46 L 507.14 192.46 L 507.14 192.46 L 507.14 192.46 L 507.14 192.46 L 507.14 192.46 L 521.43 208.95 L 527.14 211.51 L 530.00 236.02 L 532.86 252.62 L 541.43 251.39 L 544.29 251.39 L 547.14 223.21 L 550.00 227.00 L 552.86 208.95 L 561.43 223.21 L 561.43 223.21 L 564.29 212.74 L 570.00 224.43 L 570.00 224.43 L 584.29 221.98 L 587.14 197.59 L 590.00 196.25 L 601.43 164.17 L 607.14 152.69 L 607.14 152.69 L 612.86 166.73 L 624.29 151.36 L 624.29 151.36 L 624.29 151.36 L 624.29 151.36 L 624.29 151.36 L 624.29 151.36 L 624.29 151.36 L 624.29 151.36 L 632.86 151.36 L 632.86 150.02 L 650.00 133.20" /><text  class="poloto_labels poloto_text poloto_title" x="400" y="37.5" >lower.com purchase rates</text><text  class="poloto_labels poloto_text poloto_xname" x="400" y="481.25" >Date</text><text  class="poloto_labels poloto_text poloto_yname" transform="rotate(-90,37.5,250)" x="37.5" y="250" >Rate (%)</text><text  class="poloto_tick_labels poloto_text" dominant-baseline="middle" text-anchor="start" x="150" y="70" ></text><line  class="poloto_axis_lines" stroke="black" x1="150" x2="144" y1="387.18900854066095" y2="387.18900854066095" /><line  class="poloto_tick_line" stroke="black" x1="150" x2="650" y1="387.18900854066095" y2="387.18900854066095" /><text  class="poloto_tick_labels poloto_text" dominant-baseline="middle" text-anchor="end" x="135" y="387.18900854066095" >3.625</text><line  class="poloto_axis_lines" stroke="black" x1="150" x2="144" y1="373.26401782398807" y2="373.26401782398807" /><line  class="poloto_tick_line" stroke="black" x1="150" x2="650" y1="373.26401782398807" y2="373.26401782398807" /><text  class="poloto_tick_labels poloto_text" dominant-baseline="middle" text-anchor="end" x="135" y="373.26401782398807" >3.75</text><line  class="poloto_axis_lines" stroke="black" x1="150" x2="144" y1="359.33902710731525" y2="359.33902710731525" /><line  class="poloto_tick_line" stroke="black" x1="150" x2="650" y1="359.33902710731525" y2="359.33902710731525" /><text  class="poloto_tick_labels poloto_text" dominant-baseline="middle" text-anchor="end" x="135" y="359.33902710731525" >3.875</text><line  class="poloto_axis_lines" stroke="black" x1="150" x2="144" y1="345.41403639064237" y2="345.41403639064237" /><line  class="poloto_tick_line" stroke="black" x1="150" x2="650" y1="345.41403639064237" y2="345.41403639064237" /><text  class="poloto_tick_labels poloto_text" dominant-baseline="middle" text-anchor="end" x="135" y="345.41403639064237" >4</text><line  class="poloto_axis_lines" stroke="black" x1="150" x2="144" y1="331.4890456739695" y2="331.4890456739695" /><line  class="poloto_tick_line" stroke="black" x1="150" x2="650" y1="331.4890456739695" y2="331.4890456739695" /><text  class="poloto_tick_labels poloto_text" dominant-baseline="middle" text-anchor="end" x="135" y="331.4890456739695" >4.125</text><line  class="poloto_axis_lines" stroke="black" x1="150" x2="144" y1="317.56405495729666" y2="317.56405495729666" /><line  class="poloto_tick_line" stroke="black" x1="150" x2="650" y1="317.56405495729666" y2="317.56405495729666" /><text  class="poloto_tick_labels poloto_text" dominant-baseline="middle" text-anchor="end" x="135" y="317.56405495729666" >4.25</text><line  class="poloto_axis_lines" stroke="black" x1="150" x2="144" y1="303.6390642406238" y2="303.6390642406238" /><line  class="poloto_tick_line" stroke="black" x1="150" x2="650" y1="303.6390642406238" y2="303.6390642406238" /><text  class="poloto_tick_labels poloto_text" dominant-baseline="middle" text-anchor="end" x="135" y="303.6390642406238" >4.375</text><line  class="poloto_axis_lines" stroke="black" x1="150" x2="144" y1="289.71407352395096" y2="289.71407352395096" /><line  class="poloto_tick_line" stroke="black" x1="150" x2="650" y1="289.71407352395096" y2="289.71407352395096" /><text  class="poloto_tick_labels poloto_text" dominant-baseline="middle" text-anchor="end" x="135" y="289.71407352395096" >4.5</text><line  class="poloto_axis_lines" stroke="black" x1="150" x2="144" y1="275.7890828072781" y2="275.7890828072781" /><line  class="poloto_tick_line" stroke="black" x1="150" x2="650" y1="275.7890828072781" y2="275.7890828072781" /><text  class="poloto_tick_labels poloto_text" dominant-baseline="middle" text-anchor="end" x="135" y="275.7890828072781" >4.625</text><line  class="poloto_axis_lines" stroke="black" x1="150" x2="144" y1="261.86409209060525" y2="261.86409209060525" /><line  class="poloto_tick_line" stroke="black" x1="150" x2="650" y1="261.86409209060525" y2="261.86409209060525" /><text  class="poloto_tick_labels poloto_text" dominant-baseline="middle" text-anchor="end" x="135" y="261.86409209060525" >4.75</text><line  class="poloto_axis_lines" stroke="black" x1="150" x2="144" y1="247.93910137393243" y2="247.93910137393243" /><line  class="poloto_tick_line" stroke="black" x1="150" x2="650" y1="247.93910137393243" y2="247.93910137393243" /><text  class="poloto_tick_labels poloto_text" dominant-baseline="middle" text-anchor="end" x="135" y="247.93910137393243" >4.875</text><line  class="poloto_axis_lines" stroke="black" x1="150" x2="144" y1="234.0141106572595" y2="234.0141106572595" /><line  class="poloto_tick_line" stroke="black" x1="150" x2="650" y1="234.0141106572595" y2="234.0141106572595" /><text  class="poloto_tick_labels poloto_text" dominant-baseline="middle" text-anchor="end" x="135" y="234.0141106572595" >5</text><line  class="poloto_axis_lines" stroke="black" x1="150" x2="144" y1="220.08911994058667" y2="220.08911994058667" /><line  class="poloto_tick_line" stroke="black" x1="150" x2="650" y1="220.08911994058667" y2="220.08911994058667" /><text  class="poloto_tick_labels poloto_text" dominant-baseline="middle" text-anchor="end" x="135" y="220.08911994058667" >5.125</text><line  class="poloto_axis_lines" stroke="black" x1="150" x2="144" y1="206.16412922391385" y2="206.16412922391385" /><line  class="poloto_tick_line" stroke="black" x1="150" x2="650" y1="206.16412922391385" y2="206.16412922391385" /><text  class="poloto_tick_labels poloto_text" dominant-baseline="middle" text-anchor="end" x="135" y="206.16412922391385" >5.25</text><line  class="poloto_axis_lines" stroke="black" x1="150" x2="144" y1="192.23913850724102" y2="192.23913850724102" /><line  class="poloto_tick_line" stroke="black" x1="150" x2="650" y1="192.23913850724102" y2="192.23913850724102" /><text  class="poloto_tick_labels poloto_text" dominant-baseline="middle" text-anchor="end" x="135" y="192.23913850724102" >5.375</text><line  class="poloto_axis_lines" stroke="black" x1="150" x2="144" y1="178.3141477905681" y2="178.3141477905681" /><line  class="poloto_tick_line" stroke="black" x1="150" x2="650" y1="178.3141477905681" y2="178.3141477905681" /><text  class="poloto_tick_labels poloto_text" dominant-baseline="middle" text-anchor="end" x="135" y="178.3141477905681" >5.5</text><line  class="poloto_axis_lines" stroke="black" x1="150" x2="144" y1="164.38915707389526" y2="164.38915707389526" /><line  class="poloto_tick_line" stroke="black" x1="150" x2="650" y1="164.38915707389526" y2="164.38915707389526" /><text  class="poloto_tick_labels poloto_text" dominant-baseline="middle" text-anchor="end" x="135" y="164.38915707389526" >5.625</text><line  class="poloto_axis_lines" stroke="black" x1="150" x2="144" y1="150.46416635722244" y2="150.46416635722244" /><line  class="poloto_tick_line" stroke="black" x1="150" x2="650" y1="150.46416635722244" y2="150.46416635722244" /><text  class="poloto_tick_labels poloto_text" dominant-baseline="middle" text-anchor="end" x="135" y="150.46416635722244" >5.75</text><line  class="poloto_axis_lines" stroke="black" x1="150" x2="144" y1="136.53917564054962" y2="136.53917564054962" /><line  class="poloto_tick_line" stroke="black" x1="150" x2="650" y1="136.53917564054962" y2="136.53917564054962" /><text  class="poloto_tick_labels poloto_text" dominant-baseline="middle" text-anchor="end" x="135" y="136.53917564054962" >5.875</text><line  class="poloto_axis_lines" stroke="black" x1="150" x2="144" y1="122.61418492387668" y2="122.61418492387668" /><line  class="poloto_tick_line" stroke="black" x1="150" x2="650" y1="122.61418492387668" y2="122.61418492387668" /><text  class="poloto_tick_labels poloto_text" dominant-baseline="middle" text-anchor="end" x="135" y="122.61418492387668" >6</text><line  class="poloto_axis_lines" stroke="black" x1="150" x2="144" y1="108.68919420720385" y2="108.68919420720385" /><line  class="poloto_tick_line" stroke="black" x1="150" x2="650" y1="108.68919420720385" y2="108.68919420720385" /><text  class="poloto_tick_labels poloto_text" dominant-baseline="middle" text-anchor="end" x="135" y="108.68919420720385" >6.125</text><text  class="poloto_tick_labels poloto_text" dominant-baseline="middle" text-anchor="start" x="440.00000000000006" y="70" >¹2022-04-01 00:00:00 UTC in Months</text><line  class="poloto_axis_lines" stroke="black" x1="192.85714285713766" x2="192.85714285713766" y1="400" y2="405" /><line  class="poloto_tick_line" stroke="black" x1="192.85714285713766" x2="192.85714285713766" y1="400" y2="100" /><text  class="poloto_tick_labels poloto_text" dominant-baseline="start" text-anchor="middle" x="192.85714285713766" y="430" >2022 Apr¹</text><line  class="poloto_axis_lines" stroke="black" x1="278.57142857142753" x2="278.57142857142753" y1="400" y2="405" /><line  class="poloto_tick_line" stroke="black" x1="278.57142857142753" x2="278.57142857142753" y1="400" y2="100" /><text  class="poloto_tick_labels poloto_text" dominant-baseline="start" text-anchor="middle" x="278.57142857142753" y="430" >2022 May</text><line  class="poloto_axis_lines" stroke="black" x1="367.14285714285506" x2="367.14285714285506" y1="400" y2="405" /><line  class="poloto_tick_line" stroke="black" x1="367.14285714285506" x2="367.14285714285506" y1="400" y2="100" /><text  class="poloto_tick_labels poloto_text" dominant-baseline="start" text-anchor="middle" x="367.14285714285506" y="430" >2022 Jun</text><line  class="poloto_axis_lines" stroke="black" x1="452.85714285713766" x2="452.85714285713766" y1="400" y2="405" /><line  class="poloto_tick_line" stroke="black" x1="452.85714285713766" x2="452.85714285713766" y1="400" y2="100" /><text  class="poloto_tick_labels poloto_text" dominant-baseline="start" text-anchor="middle" x="452.85714285713766" y="430" >2022 Jul</text><line  class="poloto_axis_lines" stroke="black" x1="541.4285714285652" x2="541.4285714285652" y1="400" y2="405" /><line  class="poloto_tick_line" stroke="black" x1="541.4285714285652" x2="541.4285714285652" y1="400" y2="100" /><text  class="poloto_tick_labels poloto_text" dominant-baseline="start" text-anchor="middle" x="541.4285714285652" y="430" >2022 Aug</text><line  class="poloto_axis_lines" stroke="black" x1="630" x2="630" y1="400" y2="405" /><line  class="poloto_tick_line" stroke="black" x1="630" x2="630" y1="400" y2="100" /><text  class="poloto_tick_labels poloto_text" dominant-baseline="start" text-anchor="middle" x="630" y="430" >2022 Sep</text><path  stroke="black" fill="none" class="poloto_axis_lines" d=" M 150 400 L 650 400" /><path  stroke="black" fill="none" class="poloto_axis_lines" d=" M 150 400 L 150 100" /></svg>