<svg class="poloto" width="800" height="500" viewBox="0 0 800 500" xmlns="http://www.w3.org/2000/svg"><style>.poloto{stroke-linecap:round;stroke-linejoin:round;font-family:Roboto,sans-serif;font-size:16px;}.poloto_background{fill:#262626;}.poloto_scatter{stroke-width:7}.poloto_tick_line{stroke:dimgray;stroke-width:0.5}.poloto_line{stroke-width:2}.poloto_text{fill: white;}.poloto_axis_lines{stroke: white;stroke-width:3;fill:none;stroke-dasharray:none}.poloto_title{font-size:24px;dominant-baseline:start;text-anchor:middle;}.poloto_xname{font-size:24px;dominant-baseline:start;text-anchor:middle;}.poloto_yname{font-size:24px;dominant-baseline:start;text-anchor:middle;}.poloto0stroke{stroke:blue;}.poloto1stroke{stroke:red;}.poloto2stroke{stroke:green;}.poloto3stroke{stroke:gold;}.poloto4stroke{stroke:aqua;}.poloto5stroke{stroke:lime;}.poloto6stroke{stroke:orange;}.poloto7stroke{stroke:chocolate;}.poloto0fill{fill:blue;}.poloto1fill{fill:red;}.poloto2fill{fill:green;}.poloto3fill{fill:gold;}.poloto4fill{fill:aqua;}.poloto5fill{fill:lime;}.poloto6fill{fill:orange;}.poloto7fill{fill:chocolate;}</style><circle  r="1e5" class="poloto_background" /><text  class="poloto_text poloto_legend_text" x="675" y="100" >Refinance 15</text><line  class="poloto_line poloto_legend_icon poloto0stroke poloto0legend" stroke="black" x1="680" x2="730" y1="81.25" y2="81.25" /><path  class="poloto_line poloto0stroke" fill="none" stroke="black" d=" M 150.00 393.13 L 151.40 400.00 L 155.62 390.27 L 157.02 381.94 L 158.43 390.27 L 158.43 390.27 L 161.24 362.48 L 165.45 361.01 L 166.85 370.74 L 168.26 349.74 L 169.66 351.21 L 171.07 346.81 L 175.28 348.28 L 176.69 342.41 L 176.69 342.41 L 179.49 342.95 L 180.90 321.95 L 185.11 331.06 L 186.52 333.99 L 187.92 333.99 L 189.33 333.22 L 190.73 328.74 L 196.35 289.53 L 197.75 306.97 L 199.16 293.46 L 200.56 288.21 L 200.56 288.21 L 206.18 308.52 L 208.99 312.22 L 210.39 303.96 L 214.61 294.16 L 216.01 313.69 L 217.42 303.96 L 217.42 303.96 L 220.22 302.42 L 224.44 305.43 L 225.84 315.16 L 225.84 315.16 L 227.25 306.90 L 228.65 316.70 L 230.06 302.42 L 234.27 331.76 L 235.67 331.06 L 237.08 315.16 L 237.08 315.16 L 238.48 321.95 L 239.89 324.96 L 244.10 324.96 L 245.51 335.46 L 246.91 335.46 L 248.31 335.46 L 249.72 335.46 L 255.34 324.96 L 256.74 321.95 L 258.15 323.42 L 259.55 323.42 L 259.55 323.42 L 265.17 313.69 L 266.57 313.69 L 267.98 305.43 L 273.60 291.92 L 275.00 264.05 L 276.40 267.14 L 277.81 267.14 L 279.21 286.67 L 283.43 267.14 L 284.83 267.14 L 286.24 285.13 L 287.64 288.21 L 293.26 288.21 L 294.66 286.67 L 296.07 291.22 L 297.47 295.70 L 298.88 305.43 L 304.49 312.22 L 305.90 303.96 L 307.30 297.17 L 308.71 294.16 L 312.92 295.70 L 315.73 295.70 L 317.13 294.16 L 322.75 292.69 L 322.75 292.69 L 322.75 292.69 L 322.75 292.69 L 322.75 292.69 L 322.75 292.69 L 325.56 292.69 L 325.56 292.69 L 325.56 292.69 L 325.56 292.69 L 325.56 292.69 L 325.56 292.69 L 332.58 303.96 L 335.39 306.90 L 336.80 332.53 L 338.20 335.46 L 342.42 335.46 L 343.82 333.99 L 345.22 313.69 L 346.63 308.44 L 348.03 295.70 L 352.25 305.43 L 352.25 305.43 L 353.65 297.17 L 356.46 305.43 L 356.46 305.43 L 363.48 305.43 L 364.89 274.70 L 366.29 292.69 L 371.91 261.89 L 374.72 261.89 L 374.72 261.89 L 377.53 273.16 L 383.15 267.14 L 383.15 267.14 L 383.15 267.14 L 383.15 267.14 L 383.15 267.14 L 383.15 267.14 L 383.15 267.14 L 383.15 267.14 L 383.15 267.14 L 387.36 267.14 L 395.79 247.53 L 401.40 249.85 L 401.40 249.85 L 405.62 249.85 L 411.24 249.85 L 412.64 249.85 L 412.64 249.85 L 412.64 249.85 L 412.64 249.85 L 412.64 249.85 L 430.90 249.85 L 432.30 249.85 L 440.73 162.92 L 442.13 154.66 L 443.54 154.66 L 494.10 180.60 L 499.72 180.60 L 501.12 180.60 L 502.53 195.50 L 505.34 203.68 L 505.34 203.68 L 510.96 203.68 L 512.36 203.68 L 513.76 203.68 L 515.17 203.68 L 519.38 203.68 L 520.79 203.68 L 523.60 203.68 L 525.00 203.68 L 529.21 203.68 L 530.62 203.68 L 530.62 203.68 L 534.83 203.68 L 539.04 203.68 L 540.45 203.68 L 541.85 203.68 L 543.26 203.68 L 544.66 203.68 L 550.28 226.15 L 551.69 200.21 L 553.09 180.60 L 554.49 190.40 L 558.71 190.40 L 560.11 190.40 L 560.11 190.40 L 562.92 211.48 L 564.33 211.48 L 568.54 211.48 L 569.94 211.48 L 571.35 211.48 L 572.75 211.48 L 574.16 211.48 L 574.16 211.48 L 574.16 211.48 L 574.16 211.48 L 581.18 211.48 L 583.99 211.48 L 588.20 211.48 L 589.61 211.48 L 592.42 211.48 L 593.82 211.48 L 599.44 211.48 L 600.84 211.48 L 602.25 211.48 L 603.65 239.27 L 607.87 245.45 L 609.27 209.93 L 610.67 221.28 L 612.08 219.74 L 613.48 201.75 L 617.70 161.07 L 619.10 161.07 L 620.51 161.07 L 621.91 162.61 L 623.31 170.79 L 627.53 162.61 L 628.93 162.61 L 630.34 151.26 L 631.74 161.07 L 633.15 141.46 L 638.76 151.26 L 640.17 152.80 L 641.57 143.08 L 642.98 149.64 L 647.19 155.97 L 648.60 152.80 L 650.00 151.26" /><text  class="poloto_text poloto_legend_text" x="675" y="150" >Refinance 20</text><line  class="poloto_line poloto_legend_icon poloto1stroke poloto1legend" stroke="black" x1="680" x2="730" y1="131.25" y2="131.25" /><path  class="poloto_line poloto1stroke" fill="none" stroke="black" d=" M 150.00 350.51 L 151.40 371.13 L 155.62 340.40 L 157.02 330.98 L 158.43 339.63 L 158.43 339.63 L 161.24 312.61 L 165.45 310.29 L 166.85 320.10 L 168.26 309.14 L 169.66 318.94 L 171.07 300.57 L 175.28 328.67 L 176.69 300.57 L 176.69 300.57 L 179.49 300.57 L 179.49 300.57 L 185.11 263.51 L 186.52 293.15 L 187.92 300.57 L 189.33 310.29 L 190.73 291.22 L 196.35 272.47 L 197.75 270.07 L 199.16 265.29 L 200.56 254.32 L 204.78 259.11 L 206.18 279.88 L 208.99 272.47 L 210.39 270.07 L 214.61 262.27 L 216.01 271.31 L 217.42 271.31 L 217.42 271.31 L 220.22 271.31 L 224.44 272.47 L 225.84 292.00 L 225.84 292.00 L 227.25 281.03 L 228.65 299.41 L 230.06 292.00 L 234.27 293.15 L 235.67 292.00 L 237.08 292.00 L 237.08 292.00 L 238.48 293.15 L 239.89 299.41 L 244.10 300.57 L 245.51 304.04 L 246.91 304.04 L 248.31 304.04 L 249.72 304.04 L 255.34 299.41 L 256.74 289.60 L 258.15 292.00 L 259.55 292.00 L 259.55 292.00 L 265.17 279.88 L 266.57 282.19 L 267.98 273.62 L 273.60 232.24 L 275.00 215.11 L 276.40 224.91 L 277.81 232.24 L 279.21 252.93 L 283.43 240.74 L 284.83 234.64 L 286.24 254.17 L 287.64 263.51 L 293.26 263.51 L 294.66 252.93 L 296.07 262.74 L 297.47 272.47 L 298.88 283.43 L 304.49 290.76 L 305.90 281.03 L 307.30 271.31 L 308.71 264.67 L 312.92 270.07 L 315.73 272.47 L 317.13 271.31 L 322.75 272.47 L 322.75 272.47 L 322.75 272.47 L 322.75 272.47 L 322.75 272.47 L 322.75 272.47 L 322.75 272.47 L 322.75 272.47 L 322.75 272.47 L 322.75 272.47 L 322.75 272.47 L 322.75 272.47 L 332.58 290.76 L 335.39 293.15 L 336.80 310.29 L 338.20 312.61 L 342.42 310.06 L 343.82 310.06 L 345.22 300.57 L 346.63 304.04 L 348.03 289.60 L 352.25 282.19 L 352.25 282.19 L 353.65 282.19 L 356.46 292.00 L 356.46 292.00 L 363.48 289.60 L 364.89 272.47 L 366.29 272.47 L 371.91 259.88 L 374.72 249.31 L 374.72 249.31 L 377.53 261.12 L 383.15 232.24 L 383.15 232.24 L 383.15 232.24 L 383.15 232.24 L 383.15 232.24 L 383.15 232.24 L 383.15 232.24 L 383.15 232.24 L 383.15 232.24 L 387.36 232.24 L 395.79 219.97 L 401.40 221.20 L 404.21 221.20 L 405.62 221.20 L 405.62 221.20 L 412.64 221.20 L 414.04 221.20 L 414.04 221.20 L 414.04 221.20 L 414.04 221.20 L 430.90 221.20 L 432.30 221.20 L 440.73 143.85 L 442.13 129.41 L 442.13 129.41 L 496.91 177.12 L 499.72 177.12 L 501.12 177.12 L 503.93 194.26 L 505.34 195.50 L 505.34 195.50 L 510.96 195.50 L 512.36 195.50 L 513.76 195.50 L 515.17 195.50 L 519.38 195.50 L 520.79 195.50 L 523.60 195.50 L 525.00 195.50 L 529.21 195.50 L 530.62 195.50 L 530.62 195.50 L 534.83 195.50 L 539.04 195.50 L 540.45 195.50 L 541.85 195.50 L 543.26 195.50 L 544.66 195.50 L 550.28 178.05 L 551.69 168.55 L 553.09 167.32 L 554.49 169.87 L 558.71 169.87 L 560.11 169.87 L 560.11 169.87 L 562.92 188.16 L 564.33 188.16 L 568.54 188.16 L 569.94 188.16 L 571.35 188.16 L 572.75 188.16 L 574.16 188.16 L 574.16 188.16 L 579.78 188.16 L 579.78 188.16 L 581.18 188.16 L 583.99 188.16 L 588.20 188.16 L 589.61 188.16 L 592.42 188.16 L 593.82 188.16 L 599.44 188.16 L 600.84 188.16 L 602.25 188.16 L 603.65 209.01 L 607.87 207.77 L 609.27 178.36 L 610.67 179.59 L 610.67 179.59 L 613.48 178.36 L 617.70 158.75 L 619.10 158.75 L 620.51 150.26 L 621.91 140.45 L 623.31 149.02 L 627.53 140.45 L 628.93 130.65 L 630.34 140.45 L 631.74 150.26 L 633.15 139.22 L 638.76 140.45 L 640.17 129.41 L 641.57 100.00 L 642.98 129.41 L 647.19 150.26 L 648.60 169.17 L 650.00 140.45" /><text  class="poloto_text poloto_legend_text" x="675" y="200" >Refinance 30</text><line  class="poloto_line poloto_legend_icon poloto2stroke poloto2legend" stroke="black" x1="680" x2="730" y1="181.25" y2="181.25" /><path  class="poloto_line poloto2stroke" fill="none" stroke="black" d=" M 150.00 348.35 L 151.40 355.69 L 155.62 344.26 L 157.02 335.31 L 158.43 337.00 L 158.43 337.00 L 161.24 318.24 L 165.45 316.62 L 166.85 326.35 L 168.26 315.77 L 169.66 325.50 L 171.07 306.82 L 175.28 315.77 L 176.69 297.01 L 178.09 297.01 L 179.49 296.17 L 180.90 272.47 L 185.11 276.63 L 186.52 287.29 L 187.92 297.01 L 189.33 288.14 L 190.73 277.48 L 196.35 269.38 L 197.75 256.18 L 199.16 254.40 L 200.56 252.55 L 204.78 256.18 L 206.18 271.31 L 208.99 269.38 L 210.39 267.60 L 214.61 257.95 L 216.01 268.45 L 217.42 257.95 L 217.42 257.95 L 220.22 257.95 L 224.44 259.73 L 225.84 276.63 L 225.84 276.63 L 227.25 268.45 L 228.65 269.38 L 230.06 270.23 L 234.27 277.48 L 235.67 269.38 L 237.08 269.38 L 237.08 269.38 L 238.48 278.33 L 239.89 279.26 L 244.10 280.11 L 245.51 288.14 L 246.91 288.14 L 248.31 289.84 L 249.72 289.84 L 255.34 286.36 L 256.74 276.63 L 258.15 278.33 L 259.55 277.48 L 259.55 277.48 L 265.17 268.45 L 266.57 268.45 L 267.98 258.80 L 273.60 219.74 L 275.00 192.10 L 276.40 209.01 L 277.81 219.74 L 279.21 229.46 L 283.43 220.59 L 284.83 219.74 L 286.24 237.49 L 287.64 239.27 L 293.26 239.27 L 294.66 228.62 L 296.07 237.49 L 297.47 247.22 L 298.88 268.45 L 304.49 269.38 L 305.90 258.80 L 307.30 240.20 L 308.71 237.49 L 312.92 255.25 L 315.73 239.27 L 317.13 238.34 L 322.75 256.18 L 322.75 256.18 L 322.75 256.18 L 322.75 256.18 L 322.75 256.18 L 322.75 256.18 L 325.56 256.18 L 325.56 256.18 L 325.56 256.18 L 325.56 256.18 L 325.56 256.18 L 325.56 256.18 L 332.58 267.60 L 335.39 269.38 L 336.80 286.36 L 338.20 297.86 L 342.42 297.01 L 343.82 297.01 L 345.22 277.48 L 346.63 280.11 L 348.03 267.60 L 352.25 277.48 L 352.25 277.48 L 353.65 270.23 L 356.46 278.33 L 356.46 278.33 L 363.48 276.63 L 364.89 259.73 L 366.29 258.80 L 371.91 236.57 L 374.72 228.62 L 374.72 228.62 L 377.53 238.34 L 383.15 227.69 L 383.15 227.69 L 383.15 227.69 L 383.15 227.69 L 383.15 227.69 L 383.15 227.69 L 383.15 227.69 L 383.15 227.69 L 387.36 227.69 L 387.36 226.76 L 395.79 215.11 L 401.40 195.50 L 401.40 195.50 L 405.62 195.50 L 405.62 195.50 L 412.64 195.50 L 414.04 195.50 L 414.04 195.50 L 414.04 195.50 L 414.04 195.50 L 430.90 195.50 L 432.30 195.50 L 440.73 151.34 L 442.13 126.71 L 442.13 126.71 L 496.91 169.02 L 499.72 169.02 L 501.12 169.02 L 502.53 172.95 L 505.34 181.91 L 505.34 181.91 L 510.96 181.91 L 512.36 181.91 L 513.76 181.91 L 515.17 181.91 L 519.38 181.91 L 520.79 181.91 L 523.60 181.91 L 525.00 181.91 L 529.21 181.91 L 530.62 181.91 L 530.62 181.91 L 534.83 181.91 L 539.04 181.91 L 540.45 181.91 L 541.85 181.91 L 543.26 181.91 L 544.66 181.91 L 550.28 167.01 L 551.69 174.88 L 553.09 156.20 L 554.49 174.88 L 558.71 174.88 L 560.11 174.88 L 560.11 174.88 L 562.92 174.88 L 564.33 174.88 L 568.54 174.88 L 569.94 174.88 L 571.35 174.88 L 572.75 174.88 L 574.16 174.88 L 574.16 174.88 L 579.78 174.88 L 579.78 174.88 L 581.18 174.88 L 583.99 174.88 L 588.20 174.88 L 589.61 174.88 L 592.42 174.88 L 593.82 174.88 L 599.44 174.88 L 600.84 174.88 L 602.25 174.88 L 603.65 224.91 L 607.87 215.11 L 609.27 175.89 L 610.67 205.30 L 612.08 175.89 L 613.48 166.01 L 617.70 156.20 L 619.10 156.20 L 620.51 147.32 L 621.91 137.52 L 623.31 146.40 L 627.53 146.40 L 628.93 135.59 L 630.34 127.71 L 631.74 137.52 L 633.15 128.72 L 638.76 127.71 L 640.17 116.91 L 641.57 116.91 L 642.98 126.71 L 647.19 127.71 L 648.60 117.91 L 650.00 125.78" /><text  class="poloto_labels poloto_text poloto_title" x="400" y="37.5" >lower.com purchase rates</text><text  class="poloto_labels poloto_text poloto_xname" x="400" y="481.25" >Date</text><text  class="poloto_labels poloto_text poloto_yname" transform="rotate(-90,37.5,250)" x="37.5" y="250" >Rate (%)</text><text  class="poloto_tick_labels poloto_text" dominant-baseline="middle" text-anchor="start" x="150" y="70" ></text><line  class="poloto_axis_lines" stroke="black" x1="150" x2="144" y1="391.12197632527017" y2="391.12197632527017" /><line  class="poloto_tick_line" stroke="black" x1="150" x2="650" y1="391.12197632527017" y2="391.12197632527017" /><text  class="poloto_tick_labels poloto_text" dominant-baseline="middle" text-anchor="end" x="135" y="391.12197632527017" >3.625</text><line  class="poloto_axis_lines" stroke="black" x1="150" x2="144" y1="381.4719505918682" y2="381.4719505918682" /><line  class="poloto_tick_line" stroke="black" x1="150" x2="650" y1="381.4719505918682" y2="381.4719505918682" /><text  class="poloto_tick_labels poloto_text" dominant-baseline="middle" text-anchor="end" x="135" y="381.4719505918682" >3.75</text><line  class="poloto_axis_lines" stroke="black" x1="150" x2="144" y1="371.8219248584663" y2="371.8219248584663" /><line  class="poloto_tick_line" stroke="black" x1="150" x2="650" y1="371.8219248584663" y2="371.8219248584663" /><text  class="poloto_tick_labels poloto_text" dominant-baseline="middle" text-anchor="end" x="135" y="371.8219248584663" >3.875</text><line  class="poloto_axis_lines" stroke="black" x1="150" x2="144" y1="362.17189912506433" y2="362.17189912506433" /><line  class="poloto_tick_line" stroke="black" x1="150" x2="650" y1="362.17189912506433" y2="362.17189912506433" /><text  class="poloto_tick_labels poloto_text" dominant-baseline="middle" text-anchor="end" x="135" y="362.17189912506433" >4</text><line  class="poloto_axis_lines" stroke="black" x1="150" x2="144" y1="352.5218733916624" y2="352.5218733916624" /><line  class="poloto_tick_line" stroke="black" x1="150" x2="650" y1="352.5218733916624" y2="352.5218733916624" /><text  class="poloto_tick_labels poloto_text" dominant-baseline="middle" text-anchor="end" x="135" y="352.5218733916624" >4.125</text><line  class="poloto_axis_lines" stroke="black" x1="150" x2="144" y1="342.87184765826044" y2="342.87184765826044" /><line  class="poloto_tick_line" stroke="black" x1="150" x2="650" y1="342.87184765826044" y2="342.87184765826044" /><text  class="poloto_tick_labels poloto_text" dominant-baseline="middle" text-anchor="end" x="135" y="342.87184765826044" >4.25</text><line  class="poloto_axis_lines" stroke="black" x1="150" x2="144" y1="333.2218219248585" y2="333.2218219248585" /><line  class="poloto_tick_line" stroke="black" x1="150" x2="650" y1="333.2218219248585" y2="333.2218219248585" /><text  class="poloto_tick_labels poloto_text" dominant-baseline="middle" text-anchor="end" x="135" y="333.2218219248585" >4.375</text><line  class="poloto_axis_lines" stroke="black" x1="150" x2="144" y1="323.5717961914565" y2="323.5717961914565" /><line  class="poloto_tick_line" stroke="black" x1="150" x2="650" y1="323.5717961914565" y2="323.5717961914565" /><text  class="poloto_tick_labels poloto_text" dominant-baseline="middle" text-anchor="end" x="135" y="323.5717961914565" >4.5</text><line  class="poloto_axis_lines" stroke="black" x1="150" x2="144" y1="313.92177045805454" y2="313.92177045805454" /><line  class="poloto_tick_line" stroke="black" x1="150" x2="650" y1="313.92177045805454" y2="313.92177045805454" /><text  class="poloto_tick_labels poloto_text" dominant-baseline="middle" text-anchor="end" x="135" y="313.92177045805454" >4.625</text><line  class="poloto_axis_lines" stroke="black" x1="150" x2="144" y1="304.2717447246526" y2="304.2717447246526" /><line  class="poloto_tick_line" stroke="black" x1="150" x2="650" y1="304.2717447246526" y2="304.2717447246526" /><text  class="poloto_tick_labels poloto_text" dominant-baseline="middle" text-anchor="end" x="135" y="304.2717447246526" >4.75</text><line  class="poloto_axis_lines" stroke="black" x1="150" x2="144" y1="294.62171899125065" y2="294.62171899125065" /><line  class="poloto_tick_line" stroke="black" x1="150" x2="650" y1="294.62171899125065" y2="294.62171899125065" /><text  class="poloto_tick_labels poloto_text" dominant-baseline="middle" text-anchor="end" x="135" y="294.62171899125065" >4.875</text><line  class="poloto_axis_lines" stroke="black" x1="150" x2="144" y1="284.9716932578487" y2="284.9716932578487" /><line  class="poloto_tick_line" stroke="black" x1="150" x2="650" y1="284.9716932578487" y2="284.9716932578487" /><text  class="poloto_tick_labels poloto_text" dominant-baseline="middle" text-anchor="end" x="135" y="284.9716932578487" >5</text><line  class="poloto_axis_lines" stroke="black" x1="150" x2="144" y1="275.32166752444675" y2="275.32166752444675" /><line  class="poloto_tick_line" stroke="black" x1="150" x2="650" y1="275.32166752444675" y2="275.32166752444675" /><text  class="poloto_tick_labels poloto_text" dominant-baseline="middle" text-anchor="end" x="135" y="275.32166752444675" >5.125</text><line  class="poloto_axis_lines" stroke="black" x1="150" x2="144" y1="265.67164179104475" y2="265.67164179104475" /><line  class="poloto_tick_line" stroke="black" x1="150" x2="650" y1="265.67164179104475" y2="265.67164179104475" /><text  class="poloto_tick_labels poloto_text" dominant-baseline="middle" text-anchor="end" x="135" y="265.67164179104475" >5.25</text><line  class="poloto_axis_lines" stroke="black" x1="150" x2="144" y1="256.0216160576428" y2="256.0216160576428" /><line  class="poloto_tick_line" stroke="black" x1="150" x2="650" y1="256.0216160576428" y2="256.0216160576428" /><text  class="poloto_tick_labels poloto_text" dominant-baseline="middle" text-anchor="end" x="135" y="256.0216160576428" >5.375</text><line  class="poloto_axis_lines" stroke="black" x1="150" x2="144" y1="246.37159032424086" y2="246.37159032424086" /><line  class="poloto_tick_line" stroke="black" x1="150" x2="650" y1="246.37159032424086" y2="246.37159032424086" /><text  class="poloto_tick_labels poloto_text" dominant-baseline="middle" text-anchor="end" x="135" y="246.37159032424086" >5.5</text><line  class="poloto_axis_lines" stroke="black" x1="150" x2="144" y1="236.7215645908389" y2="236.7215645908389" /><line  class="poloto_tick_line" stroke="black" x1="150" x2="650" y1="236.7215645908389" y2="236.7215645908389" /><text  class="poloto_tick_labels poloto_text" dominant-baseline="middle" text-anchor="end" x="135" y="236.7215645908389" >5.625</text><line  class="poloto_axis_lines" stroke="black" x1="150" x2="144" y1="227.07153885743696" y2="227.07153885743696" /><line  class="poloto_tick_line" stroke="black" x1="150" x2="650" y1="227.07153885743696" y2="227.07153885743696" /><text  class="poloto_tick_labels poloto_text" dominant-baseline="middle" text-anchor="end" x="135" y="227.07153885743696" >5.75</text><line  class="poloto_axis_lines" stroke="black" x1="150" x2="144" y1="217.42151312403502" y2="217.42151312403502" /><line  class="poloto_tick_line" stroke="black" x1="150" x2="650" y1="217.42151312403502" y2="217.42151312403502" /><text  class="poloto_tick_labels poloto_text" dominant-baseline="middle" text-anchor="end" x="135" y="217.42151312403502" >5.875</text><line  class="poloto_axis_lines" stroke="black" x1="150" x2="144" y1="207.771487390633" y2="207.771487390633" /><line  class="poloto_tick_line" stroke="black" x1="150" x2="650" y1="207.771487390633" y2="207.771487390633" /><text  class="poloto_tick_labels poloto_text" dominant-baseline="middle" text-anchor="end" x="135" y="207.771487390633" >6</text><line  class="poloto_axis_lines" stroke="black" x1="150" x2="144" y1="198.12146165723107" y2="198.12146165723107" /><line  class="poloto_tick_line" stroke="black" x1="150" x2="650" y1="198.12146165723107" y2="198.12146165723107" /><text  class="poloto_tick_labels poloto_text" dominant-baseline="middle" text-anchor="end" x="135" y="198.12146165723107" >6.125</text><line  class="poloto_axis_lines" stroke="black" x1="150" x2="144" y1="188.47143592382912" y2="188.47143592382912" /><line  class="poloto_tick_line" stroke="black" x1="150" x2="650" y1="188.47143592382912" y2="188.47143592382912" /><text  class="poloto_tick_labels poloto_text" dominant-baseline="middle" text-anchor="end" x="135" y="188.47143592382912" >6.25</text><line  class="poloto_axis_lines" stroke="black" x1="150" x2="144" y1="178.82141019042717" y2="178.82141019042717" /><line  class="poloto_tick_line" stroke="black" x1="150" x2="650" y1="178.82141019042717" y2="178.82141019042717" /><text  class="poloto_tick_labels poloto_text" dominant-baseline="middle" text-anchor="end" x="135" y="178.82141019042717" >6.375</text><line  class="poloto_axis_lines" stroke="black" x1="150" x2="144" y1="169.17138445702523" y2="169.17138445702523" /><line  class="poloto_tick_line" stroke="black" x1="150" x2="650" y1="169.17138445702523" y2="169.17138445702523" /><text  class="poloto_tick_labels poloto_text" dominant-baseline="middle" text-anchor="end" x="135" y="169.17138445702523" >6.5</text><line  class="poloto_axis_lines" stroke="black" x1="150" x2="144" y1="159.52135872362328" y2="159.52135872362328" /><line  class="poloto_tick_line" stroke="black" x1="150" x2="650" y1="159.52135872362328" y2="159.52135872362328" /><text  class="poloto_tick_labels poloto_text" dominant-baseline="middle" text-anchor="end" x="135" y="159.52135872362328" >6.625</text><line  class="poloto_axis_lines" stroke="black" x1="150" x2="144" y1="149.87133299022133" y2="149.87133299022133" /><line  class="poloto_tick_line" stroke="black" x1="150" x2="650" y1="149.87133299022133" y2="149.87133299022133" /><text  class="poloto_tick_labels poloto_text" dominant-baseline="middle" text-anchor="end" x="135" y="149.87133299022133" >6.75</text><line  class="poloto_axis_lines" stroke="black" x1="150" x2="144" y1="140.22130725681933" y2="140.22130725681933" /><line  class="poloto_tick_line" stroke="black" x1="150" x2="650" y1="140.22130725681933" y2="140.22130725681933" /><text  class="poloto_tick_labels poloto_text" dominant-baseline="middle" text-anchor="end" x="135" y="140.22130725681933" >6.875</text><line  class="poloto_axis_lines" stroke="black" x1="150" x2="144" y1="130.57128152341744" y2="130.57128152341744" /><line  class="poloto_tick_line" stroke="black" x1="150" x2="650" y1="130.57128152341744" y2="130.57128152341744" /><text  class="poloto_tick_labels poloto_text" dominant-baseline="middle" text-anchor="end" x="135" y="130.57128152341744" >7</text><line  class="poloto_axis_lines" stroke="black" x1="150" x2="144" y1="120.92125579001544" y2="120.92125579001544" /><line  class="poloto_tick_line" stroke="black" x1="150" x2="650" y1="120.92125579001544" y2="120.92125579001544" /><text  class="poloto_tick_labels poloto_text" dominant-baseline="middle" text-anchor="end" x="135" y="120.92125579001544" >7.125</text><line  class="poloto_axis_lines" stroke="black" x1="150" x2="144" y1="111.27123005661343" y2="111.27123005661343" /><line  class="poloto_tick_line" stroke="black" x1="150" x2="650" y1="111.27123005661343" y2="111.27123005661343" /><text  class="poloto_tick_labels poloto_text" dominant-baseline="middle" text-anchor="end" x="135" y="111.27123005661343" >7.25</text><line  class="poloto_axis_lines" stroke="black" x1="150" x2="144" y1="101.62120432321154" y2="101.62120432321154" /><line  class="poloto_tick_line" stroke="black" x1="150" x2="650" y1="101.62120432321154" y2="101.62120432321154" /><text  class="poloto_tick_labels poloto_text" dominant-baseline="middle" text-anchor="end" x="135" y="101.62120432321154" >7.375</text><text  class="poloto_tick_labels poloto_text" dominant-baseline="middle" text-anchor="start" x="440.00000000000006" y="70" >¹2022-05-01 00:00:00 UTC in Months</text><line  class="poloto_axis_lines" stroke="black" x1="213.20224719101316" x2="213.20224719101316" y1="400" y2="405" /><line  class="poloto_tick_line" stroke="black" x1="213.20224719101316" x2="213.20224719101316" y1="400" y2="100.00000000000006" /><text  class="poloto_tick_labels poloto_text" dominant-baseline="start" text-anchor="middle" x="213.20224719101316" y="430" >2022 May¹</text><line  class="poloto_axis_lines" stroke="black" x1="298.87640449438186" x2="298.87640449438186" y1="400" y2="405" /><line  class="poloto_tick_line" stroke="black" x1="298.87640449438186" x2="298.87640449438186" y1="400" y2="100.00000000000006" /><text  class="poloto_tick_labels poloto_text" dominant-baseline="start" text-anchor="middle" x="298.87640449438186" y="430" >2022 Jul</text><line  class="poloto_axis_lines" stroke="black" x1="385.9550561797769" x2="385.9550561797769" y1="400" y2="405" /><line  class="poloto_tick_line" stroke="black" x1="385.9550561797769" x2="385.9550561797769" y1="400" y2="100.00000000000006" /><text  class="poloto_tick_labels poloto_text" dominant-baseline="start" text-anchor="middle" x="385.9550561797769" y="430" >2022 Sep</text><line  class="poloto_axis_lines" stroke="black" x1="471.6292134831456" x2="471.6292134831456" y1="400" y2="405" /><line  class="poloto_tick_line" stroke="black" x1="471.6292134831456" x2="471.6292134831456" y1="400" y2="100.00000000000006" /><text  class="poloto_tick_labels poloto_text" dominant-baseline="start" text-anchor="middle" x="471.6292134831456" y="430" >2022 Nov</text><line  class="poloto_axis_lines" stroke="black" x1="557.3033707865179" x2="557.3033707865179" y1="400" y2="405" /><line  class="poloto_tick_line" stroke="black" x1="557.3033707865179" x2="557.3033707865179" y1="400" y2="100.00000000000006" /><text  class="poloto_tick_labels poloto_text" dominant-baseline="start" text-anchor="middle" x="557.3033707865179" y="430" >2023 Jan</text><line  class="poloto_axis_lines" stroke="black" x1="640.1685393258449" x2="640.1685393258449" y1="400" y2="405" /><line  class="poloto_tick_line" stroke="black" x1="640.1685393258449" x2="640.1685393258449" y1="400" y2="100.00000000000006" /><text  class="poloto_tick_labels poloto_text" dominant-baseline="start" text-anchor="middle" x="640.1685393258449" y="430" >2023 Mar</text><path  stroke="black" fill="none" class="poloto_axis_lines" d=" M 150 400 L 650 400" /><path  stroke="black" fill="none" class="poloto_axis_lines" d=" M 150 400 L 150 100.00000000000006" /></svg>