<svg class="poloto" width="800" height="500" viewBox="0 0 800 500" xmlns="http://www.w3.org/2000/svg"><style>.poloto{stroke-linecap:round;stroke-linejoin:round;font-family:Roboto,sans-serif;font-size:16px;}.poloto_background{fill:#262626;}.poloto_scatter{stroke-width:7}.poloto_tick_line{stroke:dimgray;stroke-width:0.5}.poloto_line{stroke-width:2}.poloto_text{fill: white;}.poloto_axis_lines{stroke: white;stroke-width:3;fill:none;stroke-dasharray:none}.poloto_title{font-size:24px;dominant-baseline:start;text-anchor:middle;}.poloto_xname{font-size:24px;dominant-baseline:start;text-anchor:middle;}.poloto_yname{font-size:24px;dominant-baseline:start;text-anchor:middle;}.poloto0stroke{stroke:blue;}.poloto1stroke{stroke:red;}.poloto2stroke{stroke:green;}.poloto3stroke{stroke:gold;}.poloto4stroke{stroke:aqua;}.poloto5stroke{stroke:lime;}.poloto6stroke{stroke:orange;}.poloto7stroke{stroke:chocolate;}.poloto0fill{fill:blue;}.poloto1fill{fill:red;}.poloto2fill{fill:green;}.poloto3fill{fill:gold;}.poloto4fill{fill:aqua;}.poloto5fill{fill:lime;}.poloto6fill{fill:orange;}.poloto7fill{fill:chocolate;}</style><circle  r="1e5" class="poloto_background" /><text  class="poloto_text poloto_legend_text" x="675" y="100" >Refinance 15</text><line  class="poloto_line poloto_legend_icon poloto0stroke poloto0legend" stroke="black" x1="680" x2="730" y1="81.25" y2="81.25" /><path  class="poloto_line poloto0stroke" fill="none" stroke="black" d=" M 150.00 392.46 L 151.60 400.00 L 156.41 389.32 L 158.01 380.17 L 159.62 389.32 L 159.62 389.32 L 162.82 358.81 L 167.63 357.20 L 169.23 367.88 L 170.83 344.83 L 172.44 346.44 L 174.04 341.61 L 178.85 343.22 L 180.45 336.78 L 180.45 336.78 L 183.65 337.37 L 185.26 314.32 L 190.06 324.32 L 191.67 327.54 L 193.27 327.54 L 194.87 326.69 L 196.47 321.78 L 202.88 278.73 L 204.49 297.88 L 206.09 283.05 L 207.69 277.29 L 207.69 277.29 L 214.10 299.58 L 217.31 303.64 L 218.91 294.58 L 223.72 283.81 L 225.32 305.25 L 226.92 294.58 L 226.92 294.58 L 230.13 292.88 L 234.94 296.19 L 236.54 306.86 L 236.54 306.86 L 238.14 297.80 L 239.74 308.56 L 241.35 292.88 L 246.15 325.08 L 247.76 324.32 L 249.36 306.86 L 249.36 306.86 L 250.96 314.32 L 252.56 317.63 L 257.37 317.63 L 258.97 329.15 L 260.58 329.15 L 262.18 329.15 L 263.78 329.15 L 270.19 317.63 L 271.79 314.32 L 273.40 315.93 L 275.00 315.93 L 275.00 315.93 L 281.41 305.25 L 283.01 305.25 L 284.62 296.19 L 291.03 281.36 L 292.63 250.76 L 294.23 254.15 L 295.83 254.15 L 297.44 275.59 L 302.24 254.15 L 303.85 254.15 L 305.45 273.90 L 307.05 277.29 L 313.46 277.29 L 315.06 275.59 L 316.67 280.59 L 318.27 285.51 L 319.87 296.19 L 326.28 303.64 L 327.88 294.58 L 329.49 287.12 L 331.09 283.81 L 335.90 285.51 L 339.10 285.51 L 340.71 283.81 L 347.12 282.20 L 347.12 282.20 L 347.12 282.20 L 347.12 282.20 L 347.12 282.20 L 347.12 282.20 L 350.32 282.20 L 350.32 282.20 L 350.32 282.20 L 350.32 282.20 L 350.32 282.20 L 350.32 282.20 L 358.33 294.58 L 361.54 297.80 L 363.14 325.93 L 364.74 329.15 L 369.55 329.15 L 371.15 327.54 L 372.76 305.25 L 374.36 299.49 L 375.96 285.51 L 380.77 296.19 L 380.77 296.19 L 382.37 287.12 L 385.58 296.19 L 385.58 296.19 L 393.59 296.19 L 395.19 262.46 L 396.79 282.20 L 403.21 248.39 L 406.41 248.39 L 406.41 248.39 L 409.62 260.76 L 416.03 254.15 L 416.03 254.15 L 416.03 254.15 L 416.03 254.15 L 416.03 254.15 L 416.03 254.15 L 416.03 254.15 L 416.03 254.15 L 416.03 254.15 L 420.83 254.15 L 430.45 232.63 L 436.86 235.17 L 436.86 235.17 L 441.67 235.17 L 448.08 235.17 L 449.68 235.17 L 449.68 235.17 L 449.68 235.17 L 449.68 235.17 L 449.68 235.17 L 470.51 235.17 L 472.12 235.17 L 481.73 139.75 L 483.33 130.68 L 484.94 130.68 L 542.63 159.15 L 549.04 159.15 L 550.64 159.15 L 552.24 175.51 L 555.45 184.49 L 555.45 184.49 L 561.86 184.49 L 563.46 184.49 L 565.06 184.49 L 566.67 184.49 L 571.47 184.49 L 573.08 184.49 L 576.28 184.49 L 577.88 184.49 L 582.69 184.49 L 584.29 184.49 L 584.29 184.49 L 589.10 184.49 L 593.91 184.49 L 595.51 184.49 L 597.12 184.49 L 598.72 184.49 L 600.32 184.49 L 606.73 209.15 L 608.33 180.68 L 609.94 159.15 L 611.54 169.92 L 616.35 169.92 L 617.95 169.92 L 617.95 169.92 L 621.15 193.05 L 622.76 193.05 L 627.56 193.05 L 629.17 193.05 L 630.77 193.05 L 632.37 193.05 L 633.97 193.05 L 633.97 193.05 L 633.97 193.05 L 633.97 193.05 L 641.99 193.05 L 645.19 193.05 L 650.00 193.05" /><text  class="poloto_text poloto_legend_text" x="675" y="150" >Refinance 20</text><line  class="poloto_line poloto_legend_icon poloto1stroke poloto1legend" stroke="black" x1="680" x2="730" y1="131.25" y2="131.25" /><path  class="poloto_line poloto1stroke" fill="none" stroke="black" d=" M 150.00 345.68 L 151.60 368.31 L 156.41 334.58 L 158.01 324.24 L 159.62 333.73 L 159.62 333.73 L 162.82 304.07 L 167.63 301.53 L 169.23 312.29 L 170.83 300.25 L 172.44 311.02 L 174.04 290.85 L 178.85 321.69 L 180.45 290.85 L 180.45 290.85 L 183.65 290.85 L 183.65 290.85 L 190.06 250.17 L 191.67 282.71 L 193.27 290.85 L 194.87 301.53 L 196.47 280.59 L 202.88 260.00 L 204.49 257.37 L 206.09 252.12 L 207.69 240.08 L 212.50 245.34 L 214.10 268.14 L 217.31 260.00 L 218.91 257.37 L 223.72 248.81 L 225.32 258.73 L 226.92 258.73 L 226.92 258.73 L 230.13 258.73 L 234.94 260.00 L 236.54 281.44 L 236.54 281.44 L 238.14 269.41 L 239.74 289.58 L 241.35 281.44 L 246.15 282.71 L 247.76 281.44 L 249.36 281.44 L 249.36 281.44 L 250.96 282.71 L 252.56 289.58 L 257.37 290.85 L 258.97 294.66 L 260.58 294.66 L 262.18 294.66 L 263.78 294.66 L 270.19 289.58 L 271.79 278.81 L 273.40 281.44 L 275.00 281.44 L 275.00 281.44 L 281.41 268.14 L 283.01 270.68 L 284.62 261.27 L 291.03 215.85 L 292.63 197.03 L 294.23 207.80 L 295.83 215.85 L 297.44 238.56 L 302.24 225.17 L 303.85 218.47 L 305.45 239.92 L 307.05 250.17 L 313.46 250.17 L 315.06 238.56 L 316.67 249.32 L 318.27 260.00 L 319.87 272.03 L 326.28 280.08 L 327.88 269.41 L 329.49 258.73 L 331.09 251.44 L 335.90 257.37 L 339.10 260.00 L 340.71 258.73 L 347.12 260.00 L 347.12 260.00 L 347.12 260.00 L 347.12 260.00 L 347.12 260.00 L 347.12 260.00 L 347.12 260.00 L 347.12 260.00 L 347.12 260.00 L 347.12 260.00 L 347.12 260.00 L 347.12 260.00 L 358.33 280.08 L 361.54 282.71 L 363.14 301.53 L 364.74 304.07 L 369.55 301.27 L 371.15 301.27 L 372.76 290.85 L 374.36 294.66 L 375.96 278.81 L 380.77 270.68 L 380.77 270.68 L 382.37 270.68 L 385.58 281.44 L 385.58 281.44 L 393.59 278.81 L 395.19 260.00 L 396.79 260.00 L 403.21 246.19 L 406.41 234.58 L 406.41 234.58 L 409.62 247.54 L 416.03 215.85 L 416.03 215.85 L 416.03 215.85 L 416.03 215.85 L 416.03 215.85 L 416.03 215.85 L 416.03 215.85 L 416.03 215.85 L 416.03 215.85 L 420.83 215.85 L 430.45 202.37 L 436.86 203.73 L 440.06 203.73 L 441.67 203.73 L 441.67 203.73 L 449.68 203.73 L 451.28 203.73 L 451.28 203.73 L 451.28 203.73 L 451.28 203.73 L 470.51 203.73 L 472.12 203.73 L 481.73 118.81 L 483.33 102.97 L 483.33 102.97 L 545.83 155.34 L 549.04 155.34 L 550.64 155.34 L 553.85 174.15 L 555.45 175.51 L 555.45 175.51 L 561.86 175.51 L 563.46 175.51 L 565.06 175.51 L 566.67 175.51 L 571.47 175.51 L 573.08 175.51 L 576.28 175.51 L 577.88 175.51 L 582.69 175.51 L 584.29 175.51 L 584.29 175.51 L 589.10 175.51 L 593.91 175.51 L 595.51 175.51 L 597.12 175.51 L 598.72 175.51 L 600.32 175.51 L 606.73 156.36 L 608.33 145.93 L 609.94 144.58 L 611.54 147.37 L 616.35 147.37 L 617.95 147.37 L 617.95 147.37 L 621.15 167.46 L 622.76 167.46 L 627.56 167.46 L 629.17 167.46 L 630.77 167.46 L 632.37 167.46 L 633.97 167.46 L 633.97 167.46 L 640.38 167.46 L 640.38 167.46 L 641.99 167.46 L 645.19 167.46 L 650.00 167.46" /><text  class="poloto_text poloto_legend_text" x="675" y="200" >Refinance 30</text><line  class="poloto_line poloto_legend_icon poloto2stroke poloto2legend" stroke="black" x1="680" x2="730" y1="181.25" y2="181.25" /><path  class="poloto_line poloto2stroke" fill="none" stroke="black" d=" M 150.00 343.31 L 151.60 351.36 L 156.41 338.81 L 158.01 328.98 L 159.62 330.85 L 159.62 330.85 L 162.82 310.25 L 167.63 308.47 L 169.23 319.15 L 170.83 307.54 L 172.44 318.22 L 174.04 297.71 L 178.85 307.54 L 180.45 286.95 L 182.05 286.95 L 183.65 286.02 L 185.26 260.00 L 190.06 264.58 L 191.67 276.27 L 193.27 286.95 L 194.87 277.20 L 196.47 265.51 L 202.88 256.61 L 204.49 242.12 L 206.09 240.17 L 207.69 238.14 L 212.50 242.12 L 214.10 258.73 L 217.31 256.61 L 218.91 254.66 L 223.72 244.07 L 225.32 255.59 L 226.92 244.07 L 226.92 244.07 L 230.13 244.07 L 234.94 246.02 L 236.54 264.58 L 236.54 264.58 L 238.14 255.59 L 239.74 256.61 L 241.35 257.54 L 246.15 265.51 L 247.76 256.61 L 249.36 256.61 L 249.36 256.61 L 250.96 266.44 L 252.56 267.46 L 257.37 268.39 L 258.97 277.20 L 260.58 277.20 L 262.18 279.07 L 263.78 279.07 L 270.19 275.25 L 271.79 264.58 L 273.40 266.44 L 275.00 265.51 L 275.00 265.51 L 281.41 255.59 L 283.01 255.59 L 284.62 245.00 L 291.03 202.12 L 292.63 171.78 L 294.23 190.34 L 295.83 202.12 L 297.44 212.80 L 302.24 203.05 L 303.85 202.12 L 305.45 221.61 L 307.05 223.56 L 313.46 223.56 L 315.06 211.86 L 316.67 221.61 L 318.27 232.29 L 319.87 255.59 L 326.28 256.61 L 327.88 245.00 L 329.49 224.58 L 331.09 221.61 L 335.90 241.10 L 339.10 223.56 L 340.71 222.54 L 347.12 242.12 L 347.12 242.12 L 347.12 242.12 L 347.12 242.12 L 347.12 242.12 L 347.12 242.12 L 350.32 242.12 L 350.32 242.12 L 350.32 242.12 L 350.32 242.12 L 350.32 242.12 L 350.32 242.12 L 358.33 254.66 L 361.54 256.61 L 363.14 275.25 L 364.74 287.88 L 369.55 286.95 L 371.15 286.95 L 372.76 265.51 L 374.36 268.39 L 375.96 254.66 L 380.77 265.51 L 380.77 265.51 L 382.37 257.54 L 385.58 266.44 L 385.58 266.44 L 393.59 264.58 L 395.19 246.02 L 396.79 245.00 L 403.21 220.59 L 406.41 211.86 L 406.41 211.86 L 409.62 222.54 L 416.03 210.85 L 416.03 210.85 L 416.03 210.85 L 416.03 210.85 L 416.03 210.85 L 416.03 210.85 L 416.03 210.85 L 416.03 210.85 L 420.83 210.85 L 420.83 209.83 L 430.45 197.03 L 436.86 175.51 L 436.86 175.51 L 441.67 175.51 L 441.67 175.51 L 449.68 175.51 L 451.28 175.51 L 451.28 175.51 L 451.28 175.51 L 451.28 175.51 L 470.51 175.51 L 472.12 175.51 L 481.73 127.03 L 483.33 100.00 L 483.33 100.00 L 545.83 146.44 L 549.04 146.44 L 550.64 146.44 L 552.24 150.76 L 555.45 160.59 L 555.45 160.59 L 561.86 160.59 L 563.46 160.59 L 565.06 160.59 L 566.67 160.59 L 571.47 160.59 L 573.08 160.59 L 576.28 160.59 L 577.88 160.59 L 582.69 160.59 L 584.29 160.59 L 584.29 160.59 L 589.10 160.59 L 593.91 160.59 L 595.51 160.59 L 597.12 160.59 L 598.72 160.59 L 600.32 160.59 L 606.73 144.24 L 608.33 152.88 L 609.94 132.37 L 611.54 152.88 L 616.35 152.88 L 617.95 152.88 L 617.95 152.88 L 621.15 152.88 L 622.76 152.88 L 627.56 152.88 L 629.17 152.88 L 630.77 152.88 L 632.37 152.88 L 633.97 152.88 L 633.97 152.88 L 640.38 152.88 L 640.38 152.88 L 641.99 152.88 L 645.19 152.88 L 650.00 152.88" /><text  class="poloto_labels poloto_text poloto_title" x="400" y="37.5" >lower.com purchase rates</text><text  class="poloto_labels poloto_text poloto_xname" x="400" y="481.25" >Date</text><text  class="poloto_labels poloto_text poloto_yname" transform="rotate(-90,37.5,250)" x="37.5" y="250" >Rate (%)</text><text  class="poloto_tick_labels poloto_text" dominant-baseline="middle" text-anchor="start" x="150" y="70" ></text><line  class="poloto_axis_lines" stroke="black" x1="150" x2="144" y1="390.2542372881356" y2="390.2542372881356" /><line  class="poloto_tick_line" stroke="black" x1="150" x2="650" y1="390.2542372881356" y2="390.2542372881356" /><text  class="poloto_tick_labels poloto_text" dominant-baseline="middle" text-anchor="end" x="135" y="390.2542372881356" >3.625</text><line  class="poloto_axis_lines" stroke="black" x1="150" x2="144" y1="379.66101694915255" y2="379.66101694915255" /><line  class="poloto_tick_line" stroke="black" x1="150" x2="650" y1="379.66101694915255" y2="379.66101694915255" /><text  class="poloto_tick_labels poloto_text" dominant-baseline="middle" text-anchor="end" x="135" y="379.66101694915255" >3.75</text><line  class="poloto_axis_lines" stroke="black" x1="150" x2="144" y1="369.06779661016947" y2="369.06779661016947" /><line  class="poloto_tick_line" stroke="black" x1="150" x2="650" y1="369.06779661016947" y2="369.06779661016947" /><text  class="poloto_tick_labels poloto_text" dominant-baseline="middle" text-anchor="end" x="135" y="369.06779661016947" >3.875</text><line  class="poloto_axis_lines" stroke="black" x1="150" x2="144" y1="358.47457627118644" y2="358.47457627118644" /><line  class="poloto_tick_line" stroke="black" x1="150" x2="650" y1="358.47457627118644" y2="358.47457627118644" /><text  class="poloto_tick_labels poloto_text" dominant-baseline="middle" text-anchor="end" x="135" y="358.47457627118644" >4</text><line  class="poloto_axis_lines" stroke="black" x1="150" x2="144" y1="347.8813559322034" y2="347.8813559322034" /><line  class="poloto_tick_line" stroke="black" x1="150" x2="650" y1="347.8813559322034" y2="347.8813559322034" /><text  class="poloto_tick_labels poloto_text" dominant-baseline="middle" text-anchor="end" x="135" y="347.8813559322034" >4.125</text><line  class="poloto_axis_lines" stroke="black" x1="150" x2="144" y1="337.2881355932203" y2="337.2881355932203" /><line  class="poloto_tick_line" stroke="black" x1="150" x2="650" y1="337.2881355932203" y2="337.2881355932203" /><text  class="poloto_tick_labels poloto_text" dominant-baseline="middle" text-anchor="end" x="135" y="337.2881355932203" >4.25</text><line  class="poloto_axis_lines" stroke="black" x1="150" x2="144" y1="326.6949152542373" y2="326.6949152542373" /><line  class="poloto_tick_line" stroke="black" x1="150" x2="650" y1="326.6949152542373" y2="326.6949152542373" /><text  class="poloto_tick_labels poloto_text" dominant-baseline="middle" text-anchor="end" x="135" y="326.6949152542373" >4.375</text><line  class="poloto_axis_lines" stroke="black" x1="150" x2="144" y1="316.10169491525426" y2="316.10169491525426" /><line  class="poloto_tick_line" stroke="black" x1="150" x2="650" y1="316.10169491525426" y2="316.10169491525426" /><text  class="poloto_tick_labels poloto_text" dominant-baseline="middle" text-anchor="end" x="135" y="316.10169491525426" >4.5</text><line  class="poloto_axis_lines" stroke="black" x1="150" x2="144" y1="305.50847457627117" y2="305.50847457627117" /><line  class="poloto_tick_line" stroke="black" x1="150" x2="650" y1="305.50847457627117" y2="305.50847457627117" /><text  class="poloto_tick_labels poloto_text" dominant-baseline="middle" text-anchor="end" x="135" y="305.50847457627117" >4.625</text><line  class="poloto_axis_lines" stroke="black" x1="150" x2="144" y1="294.91525423728814" y2="294.91525423728814" /><line  class="poloto_tick_line" stroke="black" x1="150" x2="650" y1="294.91525423728814" y2="294.91525423728814" /><text  class="poloto_tick_labels poloto_text" dominant-baseline="middle" text-anchor="end" x="135" y="294.91525423728814" >4.75</text><line  class="poloto_axis_lines" stroke="black" x1="150" x2="144" y1="284.3220338983051" y2="284.3220338983051" /><line  class="poloto_tick_line" stroke="black" x1="150" x2="650" y1="284.3220338983051" y2="284.3220338983051" /><text  class="poloto_tick_labels poloto_text" dominant-baseline="middle" text-anchor="end" x="135" y="284.3220338983051" >4.875</text><line  class="poloto_axis_lines" stroke="black" x1="150" x2="144" y1="273.728813559322" y2="273.728813559322" /><line  class="poloto_tick_line" stroke="black" x1="150" x2="650" y1="273.728813559322" y2="273.728813559322" /><text  class="poloto_tick_labels poloto_text" dominant-baseline="middle" text-anchor="end" x="135" y="273.728813559322" >5</text><line  class="poloto_axis_lines" stroke="black" x1="150" x2="144" y1="263.135593220339" y2="263.135593220339" /><line  class="poloto_tick_line" stroke="black" x1="150" x2="650" y1="263.135593220339" y2="263.135593220339" /><text  class="poloto_tick_labels poloto_text" dominant-baseline="middle" text-anchor="end" x="135" y="263.135593220339" >5.125</text><line  class="poloto_axis_lines" stroke="black" x1="150" x2="144" y1="252.54237288135596" y2="252.54237288135596" /><line  class="poloto_tick_line" stroke="black" x1="150" x2="650" y1="252.54237288135596" y2="252.54237288135596" /><text  class="poloto_tick_labels poloto_text" dominant-baseline="middle" text-anchor="end" x="135" y="252.54237288135596" >5.25</text><line  class="poloto_axis_lines" stroke="black" x1="150" x2="144" y1="241.94915254237287" y2="241.94915254237287" /><line  class="poloto_tick_line" stroke="black" x1="150" x2="650" y1="241.94915254237287" y2="241.94915254237287" /><text  class="poloto_tick_labels poloto_text" dominant-baseline="middle" text-anchor="end" x="135" y="241.94915254237287" >5.375</text><line  class="poloto_axis_lines" stroke="black" x1="150" x2="144" y1="231.35593220338984" y2="231.35593220338984" /><line  class="poloto_tick_line" stroke="black" x1="150" x2="650" y1="231.35593220338984" y2="231.35593220338984" /><text  class="poloto_tick_labels poloto_text" dominant-baseline="middle" text-anchor="end" x="135" y="231.35593220338984" >5.5</text><line  class="poloto_axis_lines" stroke="black" x1="150" x2="144" y1="220.7627118644068" y2="220.7627118644068" /><line  class="poloto_tick_line" stroke="black" x1="150" x2="650" y1="220.7627118644068" y2="220.7627118644068" /><text  class="poloto_tick_labels poloto_text" dominant-baseline="middle" text-anchor="end" x="135" y="220.7627118644068" >5.625</text><line  class="poloto_axis_lines" stroke="black" x1="150" x2="144" y1="210.16949152542372" y2="210.16949152542372" /><line  class="poloto_tick_line" stroke="black" x1="150" x2="650" y1="210.16949152542372" y2="210.16949152542372" /><text  class="poloto_tick_labels poloto_text" dominant-baseline="middle" text-anchor="end" x="135" y="210.16949152542372" >5.75</text><line  class="poloto_axis_lines" stroke="black" x1="150" x2="144" y1="199.5762711864407" y2="199.5762711864407" /><line  class="poloto_tick_line" stroke="black" x1="150" x2="650" y1="199.5762711864407" y2="199.5762711864407" /><text  class="poloto_tick_labels poloto_text" dominant-baseline="middle" text-anchor="end" x="135" y="199.5762711864407" >5.875</text><line  class="poloto_axis_lines" stroke="black" x1="150" x2="144" y1="188.98305084745766" y2="188.98305084745766" /><line  class="poloto_tick_line" stroke="black" x1="150" x2="650" y1="188.98305084745766" y2="188.98305084745766" /><text  class="poloto_tick_labels poloto_text" dominant-baseline="middle" text-anchor="end" x="135" y="188.98305084745766" >6</text><line  class="poloto_axis_lines" stroke="black" x1="150" x2="144" y1="178.38983050847457" y2="178.38983050847457" /><line  class="poloto_tick_line" stroke="black" x1="150" x2="650" y1="178.38983050847457" y2="178.38983050847457" /><text  class="poloto_tick_labels poloto_text" dominant-baseline="middle" text-anchor="end" x="135" y="178.38983050847457" >6.125</text><line  class="poloto_axis_lines" stroke="black" x1="150" x2="144" y1="167.7966101694915" y2="167.7966101694915" /><line  class="poloto_tick_line" stroke="black" x1="150" x2="650" y1="167.7966101694915" y2="167.7966101694915" /><text  class="poloto_tick_labels poloto_text" dominant-baseline="middle" text-anchor="end" x="135" y="167.7966101694915" >6.25</text><line  class="poloto_axis_lines" stroke="black" x1="150" x2="144" y1="157.2033898305085" y2="157.2033898305085" /><line  class="poloto_tick_line" stroke="black" x1="150" x2="650" y1="157.2033898305085" y2="157.2033898305085" /><text  class="poloto_tick_labels poloto_text" dominant-baseline="middle" text-anchor="end" x="135" y="157.2033898305085" >6.375</text><line  class="poloto_axis_lines" stroke="black" x1="150" x2="144" y1="146.61016949152543" y2="146.61016949152543" /><line  class="poloto_tick_line" stroke="black" x1="150" x2="650" y1="146.61016949152543" y2="146.61016949152543" /><text  class="poloto_tick_labels poloto_text" dominant-baseline="middle" text-anchor="end" x="135" y="146.61016949152543" >6.5</text><line  class="poloto_axis_lines" stroke="black" x1="150" x2="144" y1="136.01694915254234" y2="136.01694915254234" /><line  class="poloto_tick_line" stroke="black" x1="150" x2="650" y1="136.01694915254234" y2="136.01694915254234" /><text  class="poloto_tick_labels poloto_text" dominant-baseline="middle" text-anchor="end" x="135" y="136.01694915254234" >6.625</text><line  class="poloto_axis_lines" stroke="black" x1="150" x2="144" y1="125.42372881355936" y2="125.42372881355936" /><line  class="poloto_tick_line" stroke="black" x1="150" x2="650" y1="125.42372881355936" y2="125.42372881355936" /><text  class="poloto_tick_labels poloto_text" dominant-baseline="middle" text-anchor="end" x="135" y="125.42372881355936" >6.75</text><line  class="poloto_axis_lines" stroke="black" x1="150" x2="144" y1="114.83050847457628" y2="114.83050847457628" /><line  class="poloto_tick_line" stroke="black" x1="150" x2="650" y1="114.83050847457628" y2="114.83050847457628" /><text  class="poloto_tick_labels poloto_text" dominant-baseline="middle" text-anchor="end" x="135" y="114.83050847457628" >6.875</text><line  class="poloto_axis_lines" stroke="black" x1="150" x2="144" y1="104.23728813559319" y2="104.23728813559319" /><line  class="poloto_tick_line" stroke="black" x1="150" x2="650" y1="104.23728813559319" y2="104.23728813559319" /><text  class="poloto_tick_labels poloto_text" dominant-baseline="middle" text-anchor="end" x="135" y="104.23728813559319" >7</text><text  class="poloto_tick_labels poloto_text" dominant-baseline="middle" text-anchor="start" x="440.00000000000006" y="70" >¹2022-05-01 00:00:00 UTC in Months</text><line  class="poloto_axis_lines" stroke="black" x1="222.11538461538657" x2="222.11538461538657" y1="400" y2="405" /><line  class="poloto_tick_line" stroke="black" x1="222.11538461538657" x2="222.11538461538657" y1="400" y2="100" /><text  class="poloto_tick_labels poloto_text" dominant-baseline="start" text-anchor="middle" x="222.11538461538657" y="430" >2022 May¹</text><line  class="poloto_axis_lines" stroke="black" x1="319.87179487179674" x2="319.87179487179674" y1="400" y2="405" /><line  class="poloto_tick_line" stroke="black" x1="319.87179487179674" x2="319.87179487179674" y1="400" y2="100" /><text  class="poloto_tick_labels poloto_text" dominant-baseline="start" text-anchor="middle" x="319.87179487179674" y="430" >2022 Jul</text><line  class="poloto_axis_lines" stroke="black" x1="419.2307692307695" x2="419.2307692307695" y1="400" y2="405" /><line  class="poloto_tick_line" stroke="black" x1="419.2307692307695" x2="419.2307692307695" y1="400" y2="100" /><text  class="poloto_tick_labels poloto_text" dominant-baseline="start" text-anchor="middle" x="419.2307692307695" y="430" >2022 Sep</text><line  class="poloto_axis_lines" stroke="black" x1="516.9871794871797" x2="516.9871794871797" y1="400" y2="405" /><line  class="poloto_tick_line" stroke="black" x1="516.9871794871797" x2="516.9871794871797" y1="400" y2="100" /><text  class="poloto_tick_labels poloto_text" dominant-baseline="start" text-anchor="middle" x="516.9871794871797" y="430" >2022 Nov</text><line  class="poloto_axis_lines" stroke="black" x1="614.7435897435898" x2="614.7435897435898" y1="400" y2="405" /><line  class="poloto_tick_line" stroke="black" x1="614.7435897435898" x2="614.7435897435898" y1="400" y2="100" /><text  class="poloto_tick_labels poloto_text" dominant-baseline="start" text-anchor="middle" x="614.7435897435898" y="430" >2023 Jan</text><path  stroke="black" fill="none" class="poloto_axis_lines" d=" M 150 400 L 650 400" /><path  stroke="black" fill="none" class="poloto_axis_lines" d=" M 150 400 L 150 100" /></svg>