<svg class="poloto" width="800" height="500" viewBox="0 0 800 500" xmlns="http://www.w3.org/2000/svg"><style>.poloto{stroke-linecap:round;stroke-linejoin:round;font-family:Roboto,sans-serif;font-size:16px;}.poloto_background{fill:#262626;}.poloto_scatter{stroke-width:7}.poloto_tick_line{stroke:dimgray;stroke-width:0.5}.poloto_line{stroke-width:2}.poloto_text{fill: white;}.poloto_axis_lines{stroke: white;stroke-width:3;fill:none;stroke-dasharray:none}.poloto_title{font-size:24px;dominant-baseline:start;text-anchor:middle;}.poloto_xname{font-size:24px;dominant-baseline:start;text-anchor:middle;}.poloto_yname{font-size:24px;dominant-baseline:start;text-anchor:middle;}.poloto0stroke{stroke:blue;}.poloto1stroke{stroke:red;}.poloto2stroke{stroke:green;}.poloto3stroke{stroke:gold;}.poloto4stroke{stroke:aqua;}.poloto5stroke{stroke:lime;}.poloto6stroke{stroke:orange;}.poloto7stroke{stroke:chocolate;}.poloto0fill{fill:blue;}.poloto1fill{fill:red;}.poloto2fill{fill:green;}.poloto3fill{fill:gold;}.poloto4fill{fill:aqua;}.poloto5fill{fill:lime;}.poloto6fill{fill:orange;}.poloto7fill{fill:chocolate;}</style><circle  r="1e5" class="poloto_background" /><text  class="poloto_text poloto_legend_text" x="675" y="100" >Refinance 15</text><line  class="poloto_line poloto_legend_icon poloto0stroke poloto0legend" stroke="black" x1="680" x2="730" y1="81.25" y2="81.25" /><path  class="poloto_line poloto0stroke" fill="none" stroke="black" d=" M 150.00 393.13 L 151.36 400.00 L 155.42 390.27 L 156.78 381.94 L 158.13 390.27 L 158.13 390.27 L 160.84 362.48 L 164.91 361.01 L 166.26 370.74 L 167.62 349.74 L 168.97 351.21 L 170.33 346.81 L 174.39 348.28 L 175.75 342.41 L 175.75 342.41 L 178.46 342.95 L 179.81 321.95 L 183.88 331.06 L 185.23 333.99 L 186.59 333.99 L 187.94 333.22 L 189.30 328.74 L 194.72 289.53 L 196.07 306.97 L 197.43 293.46 L 198.78 288.21 L 198.78 288.21 L 204.20 308.52 L 206.91 312.22 L 208.27 303.96 L 212.33 294.16 L 213.69 313.69 L 215.04 303.96 L 215.04 303.96 L 217.75 302.42 L 221.82 305.43 L 223.17 315.16 L 223.17 315.16 L 224.53 306.90 L 225.88 316.70 L 227.24 302.42 L 231.30 331.76 L 232.66 331.06 L 234.01 315.16 L 234.01 315.16 L 235.37 321.95 L 236.72 324.96 L 240.79 324.96 L 242.14 335.46 L 243.50 335.46 L 244.85 335.46 L 246.21 335.46 L 251.63 324.96 L 252.98 321.95 L 254.34 323.42 L 255.69 323.42 L 255.69 323.42 L 261.11 313.69 L 262.47 313.69 L 263.82 305.43 L 269.24 291.92 L 270.60 264.05 L 271.95 267.14 L 273.31 267.14 L 274.66 286.67 L 278.73 267.14 L 280.08 267.14 L 281.44 285.13 L 282.79 288.21 L 288.21 288.21 L 289.57 286.67 L 290.92 291.22 L 292.28 295.70 L 293.63 305.43 L 299.05 312.22 L 300.41 303.96 L 301.76 297.17 L 303.12 294.16 L 307.18 295.70 L 309.89 295.70 L 311.25 294.16 L 316.67 292.69 L 316.67 292.69 L 316.67 292.69 L 316.67 292.69 L 316.67 292.69 L 316.67 292.69 L 319.38 292.69 L 319.38 292.69 L 319.38 292.69 L 319.38 292.69 L 319.38 292.69 L 319.38 292.69 L 326.15 303.96 L 328.86 306.90 L 330.22 332.53 L 331.57 335.46 L 335.64 335.46 L 336.99 333.99 L 338.35 313.69 L 339.70 308.44 L 341.06 295.70 L 345.12 305.43 L 345.12 305.43 L 346.48 297.17 L 349.19 305.43 L 349.19 305.43 L 355.96 305.43 L 357.32 274.70 L 358.67 292.69 L 364.09 261.89 L 366.80 261.89 L 366.80 261.89 L 369.51 273.16 L 374.93 267.14 L 374.93 267.14 L 374.93 267.14 L 374.93 267.14 L 374.93 267.14 L 374.93 267.14 L 374.93 267.14 L 374.93 267.14 L 374.93 267.14 L 379.00 267.14 L 387.13 247.53 L 392.55 249.85 L 392.55 249.85 L 396.61 249.85 L 402.03 249.85 L 403.39 249.85 L 403.39 249.85 L 403.39 249.85 L 403.39 249.85 L 403.39 249.85 L 421.00 249.85 L 422.36 249.85 L 430.49 162.92 L 431.84 154.66 L 433.20 154.66 L 481.98 180.60 L 487.40 180.60 L 488.75 180.60 L 490.11 195.50 L 492.82 203.68 L 492.82 203.68 L 498.24 203.68 L 499.59 203.68 L 500.95 203.68 L 502.30 203.68 L 506.37 203.68 L 507.72 203.68 L 510.43 203.68 L 511.79 203.68 L 515.85 203.68 L 517.21 203.68 L 517.21 203.68 L 521.27 203.68 L 525.34 203.68 L 526.69 203.68 L 528.05 203.68 L 529.40 203.68 L 530.76 203.68 L 536.18 226.15 L 537.53 200.21 L 538.89 180.60 L 540.24 190.40 L 544.31 190.40 L 545.66 190.40 L 545.66 190.40 L 548.37 211.48 L 549.73 211.48 L 553.79 211.48 L 555.15 211.48 L 556.50 211.48 L 557.86 211.48 L 559.21 211.48 L 559.21 211.48 L 559.21 211.48 L 559.21 211.48 L 565.99 211.48 L 568.70 211.48 L 572.76 211.48 L 574.12 211.48 L 576.83 211.48 L 578.18 211.48 L 583.60 211.48 L 584.96 211.48 L 586.31 211.48 L 587.67 239.27 L 591.73 245.45 L 593.09 209.93 L 594.44 221.28 L 595.80 219.74 L 597.15 201.75 L 601.22 161.07 L 602.57 161.07 L 603.93 161.07 L 605.28 162.61 L 606.64 170.79 L 610.70 162.61 L 612.06 162.61 L 613.41 151.26 L 614.77 161.07 L 616.12 141.46 L 621.54 151.26 L 622.90 152.80 L 624.25 143.08 L 625.61 149.64 L 629.67 155.97 L 631.03 152.80 L 632.38 151.26 L 633.74 151.26 L 635.09 162.61 L 639.16 161.07 L 640.51 152.80 L 644.58 240.81 L 648.64 180.60 L 650.00 182.14" /><text  class="poloto_text poloto_legend_text" x="675" y="150" >Refinance 20</text><line  class="poloto_line poloto_legend_icon poloto1stroke poloto1legend" stroke="black" x1="680" x2="730" y1="131.25" y2="131.25" /><path  class="poloto_line poloto1stroke" fill="none" stroke="black" d=" M 150.00 350.51 L 151.36 371.13 L 155.42 340.40 L 156.78 330.98 L 158.13 339.63 L 158.13 339.63 L 160.84 312.61 L 164.91 310.29 L 166.26 320.10 L 167.62 309.14 L 168.97 318.94 L 170.33 300.57 L 174.39 328.67 L 175.75 300.57 L 175.75 300.57 L 178.46 300.57 L 178.46 300.57 L 183.88 263.51 L 185.23 293.15 L 186.59 300.57 L 187.94 310.29 L 189.30 291.22 L 194.72 272.47 L 196.07 270.07 L 197.43 265.29 L 198.78 254.32 L 202.85 259.11 L 204.20 279.88 L 206.91 272.47 L 208.27 270.07 L 212.33 262.27 L 213.69 271.31 L 215.04 271.31 L 215.04 271.31 L 217.75 271.31 L 221.82 272.47 L 223.17 292.00 L 223.17 292.00 L 224.53 281.03 L 225.88 299.41 L 227.24 292.00 L 231.30 293.15 L 232.66 292.00 L 234.01 292.00 L 234.01 292.00 L 235.37 293.15 L 236.72 299.41 L 240.79 300.57 L 242.14 304.04 L 243.50 304.04 L 244.85 304.04 L 246.21 304.04 L 251.63 299.41 L 252.98 289.60 L 254.34 292.00 L 255.69 292.00 L 255.69 292.00 L 261.11 279.88 L 262.47 282.19 L 263.82 273.62 L 269.24 232.24 L 270.60 215.11 L 271.95 224.91 L 273.31 232.24 L 274.66 252.93 L 278.73 240.74 L 280.08 234.64 L 281.44 254.17 L 282.79 263.51 L 288.21 263.51 L 289.57 252.93 L 290.92 262.74 L 292.28 272.47 L 293.63 283.43 L 299.05 290.76 L 300.41 281.03 L 301.76 271.31 L 303.12 264.67 L 307.18 270.07 L 309.89 272.47 L 311.25 271.31 L 316.67 272.47 L 316.67 272.47 L 316.67 272.47 L 316.67 272.47 L 316.67 272.47 L 316.67 272.47 L 316.67 272.47 L 316.67 272.47 L 316.67 272.47 L 316.67 272.47 L 316.67 272.47 L 316.67 272.47 L 326.15 290.76 L 328.86 293.15 L 330.22 310.29 L 331.57 312.61 L 335.64 310.06 L 336.99 310.06 L 338.35 300.57 L 339.70 304.04 L 341.06 289.60 L 345.12 282.19 L 345.12 282.19 L 346.48 282.19 L 349.19 292.00 L 349.19 292.00 L 355.96 289.60 L 357.32 272.47 L 358.67 272.47 L 364.09 259.88 L 366.80 249.31 L 366.80 249.31 L 369.51 261.12 L 374.93 232.24 L 374.93 232.24 L 374.93 232.24 L 374.93 232.24 L 374.93 232.24 L 374.93 232.24 L 374.93 232.24 L 374.93 232.24 L 374.93 232.24 L 379.00 232.24 L 387.13 219.97 L 392.55 221.20 L 395.26 221.20 L 396.61 221.20 L 396.61 221.20 L 403.39 221.20 L 404.74 221.20 L 404.74 221.20 L 404.74 221.20 L 404.74 221.20 L 421.00 221.20 L 422.36 221.20 L 430.49 143.85 L 431.84 129.41 L 431.84 129.41 L 484.69 177.12 L 487.40 177.12 L 488.75 177.12 L 491.46 194.26 L 492.82 195.50 L 492.82 195.50 L 498.24 195.50 L 499.59 195.50 L 500.95 195.50 L 502.30 195.50 L 506.37 195.50 L 507.72 195.50 L 510.43 195.50 L 511.79 195.50 L 515.85 195.50 L 517.21 195.50 L 517.21 195.50 L 521.27 195.50 L 525.34 195.50 L 526.69 195.50 L 528.05 195.50 L 529.40 195.50 L 530.76 195.50 L 536.18 178.05 L 537.53 168.55 L 538.89 167.32 L 540.24 169.87 L 544.31 169.87 L 545.66 169.87 L 545.66 169.87 L 548.37 188.16 L 549.73 188.16 L 553.79 188.16 L 555.15 188.16 L 556.50 188.16 L 557.86 188.16 L 559.21 188.16 L 559.21 188.16 L 564.63 188.16 L 564.63 188.16 L 565.99 188.16 L 568.70 188.16 L 572.76 188.16 L 574.12 188.16 L 576.83 188.16 L 578.18 188.16 L 583.60 188.16 L 584.96 188.16 L 586.31 188.16 L 587.67 209.01 L 591.73 207.77 L 593.09 178.36 L 594.44 179.59 L 594.44 179.59 L 597.15 178.36 L 601.22 158.75 L 602.57 158.75 L 603.93 150.26 L 605.28 140.45 L 606.64 149.02 L 610.70 140.45 L 612.06 130.65 L 613.41 140.45 L 614.77 150.26 L 616.12 139.22 L 621.54 140.45 L 622.90 129.41 L 624.25 100.00 L 625.61 129.41 L 629.67 150.26 L 631.03 169.17 L 632.38 140.45 L 633.74 139.22 L 635.09 167.32 L 639.16 160.06 L 640.51 150.26 L 644.58 210.24 L 648.64 168.55 L 650.00 158.75" /><text  class="poloto_text poloto_legend_text" x="675" y="200" >Refinance 30</text><line  class="poloto_line poloto_legend_icon poloto2stroke poloto2legend" stroke="black" x1="680" x2="730" y1="181.25" y2="181.25" /><path  class="poloto_line poloto2stroke" fill="none" stroke="black" d=" M 150.00 348.35 L 151.36 355.69 L 155.42 344.26 L 156.78 335.31 L 158.13 337.00 L 158.13 337.00 L 160.84 318.24 L 164.91 316.62 L 166.26 326.35 L 167.62 315.77 L 168.97 325.50 L 170.33 306.82 L 174.39 315.77 L 175.75 297.01 L 177.10 297.01 L 178.46 296.17 L 179.81 272.47 L 183.88 276.63 L 185.23 287.29 L 186.59 297.01 L 187.94 288.14 L 189.30 277.48 L 194.72 269.38 L 196.07 256.18 L 197.43 254.40 L 198.78 252.55 L 202.85 256.18 L 204.20 271.31 L 206.91 269.38 L 208.27 267.60 L 212.33 257.95 L 213.69 268.45 L 215.04 257.95 L 215.04 257.95 L 217.75 257.95 L 221.82 259.73 L 223.17 276.63 L 223.17 276.63 L 224.53 268.45 L 225.88 269.38 L 227.24 270.23 L 231.30 277.48 L 232.66 269.38 L 234.01 269.38 L 234.01 269.38 L 235.37 278.33 L 236.72 279.26 L 240.79 280.11 L 242.14 288.14 L 243.50 288.14 L 244.85 289.84 L 246.21 289.84 L 251.63 286.36 L 252.98 276.63 L 254.34 278.33 L 255.69 277.48 L 255.69 277.48 L 261.11 268.45 L 262.47 268.45 L 263.82 258.80 L 269.24 219.74 L 270.60 192.10 L 271.95 209.01 L 273.31 219.74 L 274.66 229.46 L 278.73 220.59 L 280.08 219.74 L 281.44 237.49 L 282.79 239.27 L 288.21 239.27 L 289.57 228.62 L 290.92 237.49 L 292.28 247.22 L 293.63 268.45 L 299.05 269.38 L 300.41 258.80 L 301.76 240.20 L 303.12 237.49 L 307.18 255.25 L 309.89 239.27 L 311.25 238.34 L 316.67 256.18 L 316.67 256.18 L 316.67 256.18 L 316.67 256.18 L 316.67 256.18 L 316.67 256.18 L 319.38 256.18 L 319.38 256.18 L 319.38 256.18 L 319.38 256.18 L 319.38 256.18 L 319.38 256.18 L 326.15 267.60 L 328.86 269.38 L 330.22 286.36 L 331.57 297.86 L 335.64 297.01 L 336.99 297.01 L 338.35 277.48 L 339.70 280.11 L 341.06 267.60 L 345.12 277.48 L 345.12 277.48 L 346.48 270.23 L 349.19 278.33 L 349.19 278.33 L 355.96 276.63 L 357.32 259.73 L 358.67 258.80 L 364.09 236.57 L 366.80 228.62 L 366.80 228.62 L 369.51 238.34 L 374.93 227.69 L 374.93 227.69 L 374.93 227.69 L 374.93 227.69 L 374.93 227.69 L 374.93 227.69 L 374.93 227.69 L 374.93 227.69 L 379.00 227.69 L 379.00 226.76 L 387.13 215.11 L 392.55 195.50 L 392.55 195.50 L 396.61 195.50 L 396.61 195.50 L 403.39 195.50 L 404.74 195.50 L 404.74 195.50 L 404.74 195.50 L 404.74 195.50 L 421.00 195.50 L 422.36 195.50 L 430.49 151.34 L 431.84 126.71 L 431.84 126.71 L 484.69 169.02 L 487.40 169.02 L 488.75 169.02 L 490.11 172.95 L 492.82 181.91 L 492.82 181.91 L 498.24 181.91 L 499.59 181.91 L 500.95 181.91 L 502.30 181.91 L 506.37 181.91 L 507.72 181.91 L 510.43 181.91 L 511.79 181.91 L 515.85 181.91 L 517.21 181.91 L 517.21 181.91 L 521.27 181.91 L 525.34 181.91 L 526.69 181.91 L 528.05 181.91 L 529.40 181.91 L 530.76 181.91 L 536.18 167.01 L 537.53 174.88 L 538.89 156.20 L 540.24 174.88 L 544.31 174.88 L 545.66 174.88 L 545.66 174.88 L 548.37 174.88 L 549.73 174.88 L 553.79 174.88 L 555.15 174.88 L 556.50 174.88 L 557.86 174.88 L 559.21 174.88 L 559.21 174.88 L 564.63 174.88 L 564.63 174.88 L 565.99 174.88 L 568.70 174.88 L 572.76 174.88 L 574.12 174.88 L 576.83 174.88 L 578.18 174.88 L 583.60 174.88 L 584.96 174.88 L 586.31 174.88 L 587.67 224.91 L 591.73 215.11 L 593.09 175.89 L 594.44 205.30 L 595.80 175.89 L 597.15 166.01 L 601.22 156.20 L 602.57 156.20 L 603.93 147.32 L 605.28 137.52 L 606.64 146.40 L 610.70 146.40 L 612.06 135.59 L 613.41 127.71 L 614.77 137.52 L 616.12 128.72 L 621.54 127.71 L 622.90 116.91 L 624.25 116.91 L 625.61 126.71 L 629.67 127.71 L 631.03 117.91 L 632.38 125.78 L 633.74 117.91 L 635.09 147.32 L 639.16 147.32 L 640.51 127.71 L 644.58 206.23 L 648.64 147.32 L 650.00 146.40" /><text  class="poloto_labels poloto_text poloto_title" x="400" y="37.5" >lower.com purchase rates</text><text  class="poloto_labels poloto_text poloto_xname" x="400" y="481.25" >Date</text><text  class="poloto_labels poloto_text poloto_yname" transform="rotate(-90,37.5,250)" x="37.5" y="250" >Rate (%)</text><text  class="poloto_tick_labels poloto_text" dominant-baseline="middle" text-anchor="start" x="150" y="70" ></text><line  class="poloto_axis_lines" stroke="black" x1="150" x2="144" y1="391.12197632527017" y2="391.12197632527017" /><line  class="poloto_tick_line" stroke="black" x1="150" x2="650" y1="391.12197632527017" y2="391.12197632527017" /><text  class="poloto_tick_labels poloto_text" dominant-baseline="middle" text-anchor="end" x="135" y="391.12197632527017" >3.625</text><line  class="poloto_axis_lines" stroke="black" x1="150" x2="144" y1="381.4719505918682" y2="381.4719505918682" /><line  class="poloto_tick_line" stroke="black" x1="150" x2="650" y1="381.4719505918682" y2="381.4719505918682" /><text  class="poloto_tick_labels poloto_text" dominant-baseline="middle" text-anchor="end" x="135" y="381.4719505918682" >3.75</text><line  class="poloto_axis_lines" stroke="black" x1="150" x2="144" y1="371.8219248584663" y2="371.8219248584663" /><line  class="poloto_tick_line" stroke="black" x1="150" x2="650" y1="371.8219248584663" y2="371.8219248584663" /><text  class="poloto_tick_labels poloto_text" dominant-baseline="middle" text-anchor="end" x="135" y="371.8219248584663" >3.875</text><line  class="poloto_axis_lines" stroke="black" x1="150" x2="144" y1="362.17189912506433" y2="362.17189912506433" /><line  class="poloto_tick_line" stroke="black" x1="150" x2="650" y1="362.17189912506433" y2="362.17189912506433" /><text  class="poloto_tick_labels poloto_text" dominant-baseline="middle" text-anchor="end" x="135" y="362.17189912506433" >4</text><line  class="poloto_axis_lines" stroke="black" x1="150" x2="144" y1="352.5218733916624" y2="352.5218733916624" /><line  class="poloto_tick_line" stroke="black" x1="150" x2="650" y1="352.5218733916624" y2="352.5218733916624" /><text  class="poloto_tick_labels poloto_text" dominant-baseline="middle" text-anchor="end" x="135" y="352.5218733916624" >4.125</text><line  class="poloto_axis_lines" stroke="black" x1="150" x2="144" y1="342.87184765826044" y2="342.87184765826044" /><line  class="poloto_tick_line" stroke="black" x1="150" x2="650" y1="342.87184765826044" y2="342.87184765826044" /><text  class="poloto_tick_labels poloto_text" dominant-baseline="middle" text-anchor="end" x="135" y="342.87184765826044" >4.25</text><line  class="poloto_axis_lines" stroke="black" x1="150" x2="144" y1="333.2218219248585" y2="333.2218219248585" /><line  class="poloto_tick_line" stroke="black" x1="150" x2="650" y1="333.2218219248585" y2="333.2218219248585" /><text  class="poloto_tick_labels poloto_text" dominant-baseline="middle" text-anchor="end" x="135" y="333.2218219248585" >4.375</text><line  class="poloto_axis_lines" stroke="black" x1="150" x2="144" y1="323.5717961914565" y2="323.5717961914565" /><line  class="poloto_tick_line" stroke="black" x1="150" x2="650" y1="323.5717961914565" y2="323.5717961914565" /><text  class="poloto_tick_labels poloto_text" dominant-baseline="middle" text-anchor="end" x="135" y="323.5717961914565" >4.5</text><line  class="poloto_axis_lines" stroke="black" x1="150" x2="144" y1="313.92177045805454" y2="313.92177045805454" /><line  class="poloto_tick_line" stroke="black" x1="150" x2="650" y1="313.92177045805454" y2="313.92177045805454" /><text  class="poloto_tick_labels poloto_text" dominant-baseline="middle" text-anchor="end" x="135" y="313.92177045805454" >4.625</text><line  class="poloto_axis_lines" stroke="black" x1="150" x2="144" y1="304.2717447246526" y2="304.2717447246526" /><line  class="poloto_tick_line" stroke="black" x1="150" x2="650" y1="304.2717447246526" y2="304.2717447246526" /><text  class="poloto_tick_labels poloto_text" dominant-baseline="middle" text-anchor="end" x="135" y="304.2717447246526" >4.75</text><line  class="poloto_axis_lines" stroke="black" x1="150" x2="144" y1="294.62171899125065" y2="294.62171899125065" /><line  class="poloto_tick_line" stroke="black" x1="150" x2="650" y1="294.62171899125065" y2="294.62171899125065" /><text  class="poloto_tick_labels poloto_text" dominant-baseline="middle" text-anchor="end" x="135" y="294.62171899125065" >4.875</text><line  class="poloto_axis_lines" stroke="black" x1="150" x2="144" y1="284.9716932578487" y2="284.9716932578487" /><line  class="poloto_tick_line" stroke="black" x1="150" x2="650" y1="284.9716932578487" y2="284.9716932578487" /><text  class="poloto_tick_labels poloto_text" dominant-baseline="middle" text-anchor="end" x="135" y="284.9716932578487" >5</text><line  class="poloto_axis_lines" stroke="black" x1="150" x2="144" y1="275.32166752444675" y2="275.32166752444675" /><line  class="poloto_tick_line" stroke="black" x1="150" x2="650" y1="275.32166752444675" y2="275.32166752444675" /><text  class="poloto_tick_labels poloto_text" dominant-baseline="middle" text-anchor="end" x="135" y="275.32166752444675" >5.125</text><line  class="poloto_axis_lines" stroke="black" x1="150" x2="144" y1="265.67164179104475" y2="265.67164179104475" /><line  class="poloto_tick_line" stroke="black" x1="150" x2="650" y1="265.67164179104475" y2="265.67164179104475" /><text  class="poloto_tick_labels poloto_text" dominant-baseline="middle" text-anchor="end" x="135" y="265.67164179104475" >5.25</text><line  class="poloto_axis_lines" stroke="black" x1="150" x2="144" y1="256.0216160576428" y2="256.0216160576428" /><line  class="poloto_tick_line" stroke="black" x1="150" x2="650" y1="256.0216160576428" y2="256.0216160576428" /><text  class="poloto_tick_labels poloto_text" dominant-baseline="middle" text-anchor="end" x="135" y="256.0216160576428" >5.375</text><line  class="poloto_axis_lines" stroke="black" x1="150" x2="144" y1="246.37159032424086" y2="246.37159032424086" /><line  class="poloto_tick_line" stroke="black" x1="150" x2="650" y1="246.37159032424086" y2="246.37159032424086" /><text  class="poloto_tick_labels poloto_text" dominant-baseline="middle" text-anchor="end" x="135" y="246.37159032424086" >5.5</text><line  class="poloto_axis_lines" stroke="black" x1="150" x2="144" y1="236.7215645908389" y2="236.7215645908389" /><line  class="poloto_tick_line" stroke="black" x1="150" x2="650" y1="236.7215645908389" y2="236.7215645908389" /><text  class="poloto_tick_labels poloto_text" dominant-baseline="middle" text-anchor="end" x="135" y="236.7215645908389" >5.625</text><line  class="poloto_axis_lines" stroke="black" x1="150" x2="144" y1="227.07153885743696" y2="227.07153885743696" /><line  class="poloto_tick_line" stroke="black" x1="150" x2="650" y1="227.07153885743696" y2="227.07153885743696" /><text  class="poloto_tick_labels poloto_text" dominant-baseline="middle" text-anchor="end" x="135" y="227.07153885743696" >5.75</text><line  class="poloto_axis_lines" stroke="black" x1="150" x2="144" y1="217.42151312403502" y2="217.42151312403502" /><line  class="poloto_tick_line" stroke="black" x1="150" x2="650" y1="217.42151312403502" y2="217.42151312403502" /><text  class="poloto_tick_labels poloto_text" dominant-baseline="middle" text-anchor="end" x="135" y="217.42151312403502" >5.875</text><line  class="poloto_axis_lines" stroke="black" x1="150" x2="144" y1="207.771487390633" y2="207.771487390633" /><line  class="poloto_tick_line" stroke="black" x1="150" x2="650" y1="207.771487390633" y2="207.771487390633" /><text  class="poloto_tick_labels poloto_text" dominant-baseline="middle" text-anchor="end" x="135" y="207.771487390633" >6</text><line  class="poloto_axis_lines" stroke="black" x1="150" x2="144" y1="198.12146165723107" y2="198.12146165723107" /><line  class="poloto_tick_line" stroke="black" x1="150" x2="650" y1="198.12146165723107" y2="198.12146165723107" /><text  class="poloto_tick_labels poloto_text" dominant-baseline="middle" text-anchor="end" x="135" y="198.12146165723107" >6.125</text><line  class="poloto_axis_lines" stroke="black" x1="150" x2="144" y1="188.47143592382912" y2="188.47143592382912" /><line  class="poloto_tick_line" stroke="black" x1="150" x2="650" y1="188.47143592382912" y2="188.47143592382912" /><text  class="poloto_tick_labels poloto_text" dominant-baseline="middle" text-anchor="end" x="135" y="188.47143592382912" >6.25</text><line  class="poloto_axis_lines" stroke="black" x1="150" x2="144" y1="178.82141019042717" y2="178.82141019042717" /><line  class="poloto_tick_line" stroke="black" x1="150" x2="650" y1="178.82141019042717" y2="178.82141019042717" /><text  class="poloto_tick_labels poloto_text" dominant-baseline="middle" text-anchor="end" x="135" y="178.82141019042717" >6.375</text><line  class="poloto_axis_lines" stroke="black" x1="150" x2="144" y1="169.17138445702523" y2="169.17138445702523" /><line  class="poloto_tick_line" stroke="black" x1="150" x2="650" y1="169.17138445702523" y2="169.17138445702523" /><text  class="poloto_tick_labels poloto_text" dominant-baseline="middle" text-anchor="end" x="135" y="169.17138445702523" >6.5</text><line  class="poloto_axis_lines" stroke="black" x1="150" x2="144" y1="159.52135872362328" y2="159.52135872362328" /><line  class="poloto_tick_line" stroke="black" x1="150" x2="650" y1="159.52135872362328" y2="159.52135872362328" /><text  class="poloto_tick_labels poloto_text" dominant-baseline="middle" text-anchor="end" x="135" y="159.52135872362328" >6.625</text><line  class="poloto_axis_lines" stroke="black" x1="150" x2="144" y1="149.87133299022133" y2="149.87133299022133" /><line  class="poloto_tick_line" stroke="black" x1="150" x2="650" y1="149.87133299022133" y2="149.87133299022133" /><text  class="poloto_tick_labels poloto_text" dominant-baseline="middle" text-anchor="end" x="135" y="149.87133299022133" >6.75</text><line  class="poloto_axis_lines" stroke="black" x1="150" x2="144" y1="140.22130725681933" y2="140.22130725681933" /><line  class="poloto_tick_line" stroke="black" x1="150" x2="650" y1="140.22130725681933" y2="140.22130725681933" /><text  class="poloto_tick_labels poloto_text" dominant-baseline="middle" text-anchor="end" x="135" y="140.22130725681933" >6.875</text><line  class="poloto_axis_lines" stroke="black" x1="150" x2="144" y1="130.57128152341744" y2="130.57128152341744" /><line  class="poloto_tick_line" stroke="black" x1="150" x2="650" y1="130.57128152341744" y2="130.57128152341744" /><text  class="poloto_tick_labels poloto_text" dominant-baseline="middle" text-anchor="end" x="135" y="130.57128152341744" >7</text><line  class="poloto_axis_lines" stroke="black" x1="150" x2="144" y1="120.92125579001544" y2="120.92125579001544" /><line  class="poloto_tick_line" stroke="black" x1="150" x2="650" y1="120.92125579001544" y2="120.92125579001544" /><text  class="poloto_tick_labels poloto_text" dominant-baseline="middle" text-anchor="end" x="135" y="120.92125579001544" >7.125</text><line  class="poloto_axis_lines" stroke="black" x1="150" x2="144" y1="111.27123005661343" y2="111.27123005661343" /><line  class="poloto_tick_line" stroke="black" x1="150" x2="650" y1="111.27123005661343" y2="111.27123005661343" /><text  class="poloto_tick_labels poloto_text" dominant-baseline="middle" text-anchor="end" x="135" y="111.27123005661343" >7.25</text><line  class="poloto_axis_lines" stroke="black" x1="150" x2="144" y1="101.62120432321154" y2="101.62120432321154" /><line  class="poloto_tick_line" stroke="black" x1="150" x2="650" y1="101.62120432321154" y2="101.62120432321154" /><text  class="poloto_tick_labels poloto_text" dominant-baseline="middle" text-anchor="end" x="135" y="101.62120432321154" >7.375</text><text  class="poloto_tick_labels poloto_text" dominant-baseline="middle" text-anchor="start" x="440.00000000000006" y="70" >¹2022-05-01 00:00:00 UTC in Months</text><line  class="poloto_axis_lines" stroke="black" x1="210.97560975609667" x2="210.97560975609667" y1="400" y2="405" /><line  class="poloto_tick_line" stroke="black" x1="210.97560975609667" x2="210.97560975609667" y1="400" y2="100.00000000000006" /><text  class="poloto_tick_labels poloto_text" dominant-baseline="start" text-anchor="middle" x="210.97560975609667" y="430" >2022 May¹</text><line  class="poloto_axis_lines" stroke="black" x1="293.63143631436105" x2="293.63143631436105" y1="400" y2="405" /><line  class="poloto_tick_line" stroke="black" x1="293.63143631436105" x2="293.63143631436105" y1="400" y2="100.00000000000006" /><text  class="poloto_tick_labels poloto_text" dominant-baseline="start" text-anchor="middle" x="293.63143631436105" y="430" >2022 Jul</text><line  class="poloto_axis_lines" stroke="black" x1="377.64227642276455" x2="377.64227642276455" y1="400" y2="405" /><line  class="poloto_tick_line" stroke="black" x1="377.64227642276455" x2="377.64227642276455" y1="400" y2="100.00000000000006" /><text  class="poloto_tick_labels poloto_text" dominant-baseline="start" text-anchor="middle" x="377.64227642276455" y="430" >2022 Sep</text><line  class="poloto_axis_lines" stroke="black" x1="460.29810298102893" x2="460.29810298102893" y1="400" y2="405" /><line  class="poloto_tick_line" stroke="black" x1="460.29810298102893" x2="460.29810298102893" y1="400" y2="100.00000000000006" /><text  class="poloto_tick_labels poloto_text" dominant-baseline="start" text-anchor="middle" x="460.29810298102893" y="430" >2022 Nov</text><line  class="poloto_axis_lines" stroke="black" x1="542.9539295392933" x2="542.9539295392933" y1="400" y2="405" /><line  class="poloto_tick_line" stroke="black" x1="542.9539295392933" x2="542.9539295392933" y1="400" y2="100.00000000000006" /><text  class="poloto_tick_labels poloto_text" dominant-baseline="start" text-anchor="middle" x="542.9539295392933" y="430" >2023 Jan</text><line  class="poloto_axis_lines" stroke="black" x1="622.8997289972904" x2="622.8997289972904" y1="400" y2="405" /><line  class="poloto_tick_line" stroke="black" x1="622.8997289972904" x2="622.8997289972904" y1="400" y2="100.00000000000006" /><text  class="poloto_tick_labels poloto_text" dominant-baseline="start" text-anchor="middle" x="622.8997289972904" y="430" >2023 Mar</text><path  stroke="black" fill="none" class="poloto_axis_lines" d=" M 150 400 L 650 400" /><path  stroke="black" fill="none" class="poloto_axis_lines" d=" M 150 400 L 150 100.00000000000006" /></svg>