<svg class="poloto" width="800" height="500" viewBox="0 0 800 500" xmlns="http://www.w3.org/2000/svg"><style>.poloto{stroke-linecap:round;stroke-linejoin:round;font-family:Roboto,sans-serif;font-size:16px;}.poloto_background{fill:#262626;}.poloto_scatter{stroke-width:7}.poloto_tick_line{stroke:dimgray;stroke-width:0.5}.poloto_line{stroke-width:2}.poloto_text{fill: white;}.poloto_axis_lines{stroke: white;stroke-width:3;fill:none;stroke-dasharray:none}.poloto_title{font-size:24px;dominant-baseline:start;text-anchor:middle;}.poloto_xname{font-size:24px;dominant-baseline:start;text-anchor:middle;}.poloto_yname{font-size:24px;dominant-baseline:start;text-anchor:middle;}.poloto0stroke{stroke:blue;}.poloto1stroke{stroke:red;}.poloto2stroke{stroke:green;}.poloto3stroke{stroke:gold;}.poloto4stroke{stroke:aqua;}.poloto5stroke{stroke:lime;}.poloto6stroke{stroke:orange;}.poloto7stroke{stroke:chocolate;}.poloto0fill{fill:blue;}.poloto1fill{fill:red;}.poloto2fill{fill:green;}.poloto3fill{fill:gold;}.poloto4fill{fill:aqua;}.poloto5fill{fill:lime;}.poloto6fill{fill:orange;}.poloto7fill{fill:chocolate;}</style><circle  r="1e5" class="poloto_background" /><text  class="poloto_text poloto_legend_text" x="675" y="100" >Refinance 15</text><line  class="poloto_line poloto_legend_icon poloto0stroke poloto0legend" stroke="black" x1="680" x2="730" y1="81.25" y2="81.25" /><path  class="poloto_line poloto0stroke" fill="none" stroke="black" d=" M 150.00 392.46 L 151.75 400.00 L 156.99 389.32 L 158.74 380.17 L 160.49 389.32 L 160.49 389.32 L 163.99 358.81 L 169.23 357.20 L 170.98 367.88 L 172.73 344.83 L 174.48 346.44 L 176.22 341.61 L 181.47 343.22 L 183.22 336.78 L 183.22 336.78 L 186.71 337.37 L 188.46 314.32 L 193.71 324.32 L 195.45 327.54 L 197.20 327.54 L 198.95 326.69 L 200.70 321.78 L 207.69 278.73 L 209.44 297.88 L 211.19 283.05 L 212.94 277.29 L 212.94 277.29 L 219.93 299.58 L 223.43 303.64 L 225.17 294.58 L 230.42 283.81 L 232.17 305.25 L 233.92 294.58 L 233.92 294.58 L 237.41 292.88 L 242.66 296.19 L 244.41 306.86 L 244.41 306.86 L 246.15 297.80 L 247.90 308.56 L 249.65 292.88 L 254.90 325.08 L 256.64 324.32 L 258.39 306.86 L 258.39 306.86 L 260.14 314.32 L 261.89 317.63 L 267.13 317.63 L 268.88 329.15 L 270.63 329.15 L 272.38 329.15 L 274.13 329.15 L 281.12 317.63 L 282.87 314.32 L 284.62 315.93 L 286.36 315.93 L 286.36 315.93 L 293.36 305.25 L 295.10 305.25 L 296.85 296.19 L 303.85 281.36 L 305.59 250.76 L 307.34 254.15 L 309.09 254.15 L 310.84 275.59 L 316.08 254.15 L 317.83 254.15 L 319.58 273.90 L 321.33 277.29 L 328.32 277.29 L 330.07 275.59 L 331.82 280.59 L 333.57 285.51 L 335.31 296.19 L 342.31 303.64 L 344.06 294.58 L 345.80 287.12 L 347.55 283.81 L 352.80 285.51 L 356.29 285.51 L 358.04 283.81 L 365.03 282.20 L 365.03 282.20 L 365.03 282.20 L 365.03 282.20 L 365.03 282.20 L 365.03 282.20 L 368.53 282.20 L 368.53 282.20 L 368.53 282.20 L 368.53 282.20 L 368.53 282.20 L 368.53 282.20 L 377.27 294.58 L 380.77 297.80 L 382.52 325.93 L 384.27 329.15 L 389.51 329.15 L 391.26 327.54 L 393.01 305.25 L 394.76 299.49 L 396.50 285.51 L 401.75 296.19 L 401.75 296.19 L 403.50 287.12 L 406.99 296.19 L 406.99 296.19 L 415.73 296.19 L 417.48 262.46 L 419.23 282.20 L 426.22 248.39 L 429.72 248.39 L 429.72 248.39 L 433.22 260.76 L 440.21 254.15 L 440.21 254.15 L 440.21 254.15 L 440.21 254.15 L 440.21 254.15 L 440.21 254.15 L 440.21 254.15 L 440.21 254.15 L 440.21 254.15 L 445.45 254.15 L 455.94 232.63 L 462.94 235.17 L 462.94 235.17 L 468.18 235.17 L 475.17 235.17 L 476.92 235.17 L 476.92 235.17 L 476.92 235.17 L 476.92 235.17 L 476.92 235.17 L 499.65 235.17 L 501.40 235.17 L 511.89 139.75 L 513.64 130.68 L 515.38 130.68 L 578.32 159.15 L 585.31 159.15 L 587.06 159.15 L 588.81 175.51 L 592.31 184.49 L 592.31 184.49 L 599.30 184.49 L 601.05 184.49 L 602.80 184.49 L 604.55 184.49 L 609.79 184.49 L 611.54 184.49 L 615.03 184.49 L 616.78 184.49 L 622.03 184.49 L 623.78 184.49 L 623.78 184.49 L 629.02 184.49 L 634.27 184.49 L 636.01 184.49 L 637.76 184.49 L 639.51 184.49 L 641.26 184.49 L 648.25 209.15 L 650.00 180.68" /><text  class="poloto_text poloto_legend_text" x="675" y="150" >Refinance 20</text><line  class="poloto_line poloto_legend_icon poloto1stroke poloto1legend" stroke="black" x1="680" x2="730" y1="131.25" y2="131.25" /><path  class="poloto_line poloto1stroke" fill="none" stroke="black" d=" M 150.00 345.68 L 151.75 368.31 L 156.99 334.58 L 158.74 324.24 L 160.49 333.73 L 160.49 333.73 L 163.99 304.07 L 169.23 301.53 L 170.98 312.29 L 172.73 300.25 L 174.48 311.02 L 176.22 290.85 L 181.47 321.69 L 183.22 290.85 L 183.22 290.85 L 186.71 290.85 L 186.71 290.85 L 193.71 250.17 L 195.45 282.71 L 197.20 290.85 L 198.95 301.53 L 200.70 280.59 L 207.69 260.00 L 209.44 257.37 L 211.19 252.12 L 212.94 240.08 L 218.18 245.34 L 219.93 268.14 L 223.43 260.00 L 225.17 257.37 L 230.42 248.81 L 232.17 258.73 L 233.92 258.73 L 233.92 258.73 L 237.41 258.73 L 242.66 260.00 L 244.41 281.44 L 244.41 281.44 L 246.15 269.41 L 247.90 289.58 L 249.65 281.44 L 254.90 282.71 L 256.64 281.44 L 258.39 281.44 L 258.39 281.44 L 260.14 282.71 L 261.89 289.58 L 267.13 290.85 L 268.88 294.66 L 270.63 294.66 L 272.38 294.66 L 274.13 294.66 L 281.12 289.58 L 282.87 278.81 L 284.62 281.44 L 286.36 281.44 L 286.36 281.44 L 293.36 268.14 L 295.10 270.68 L 296.85 261.27 L 303.85 215.85 L 305.59 197.03 L 307.34 207.80 L 309.09 215.85 L 310.84 238.56 L 316.08 225.17 L 317.83 218.47 L 319.58 239.92 L 321.33 250.17 L 328.32 250.17 L 330.07 238.56 L 331.82 249.32 L 333.57 260.00 L 335.31 272.03 L 342.31 280.08 L 344.06 269.41 L 345.80 258.73 L 347.55 251.44 L 352.80 257.37 L 356.29 260.00 L 358.04 258.73 L 365.03 260.00 L 365.03 260.00 L 365.03 260.00 L 365.03 260.00 L 365.03 260.00 L 365.03 260.00 L 365.03 260.00 L 365.03 260.00 L 365.03 260.00 L 365.03 260.00 L 365.03 260.00 L 365.03 260.00 L 377.27 280.08 L 380.77 282.71 L 382.52 301.53 L 384.27 304.07 L 389.51 301.27 L 391.26 301.27 L 393.01 290.85 L 394.76 294.66 L 396.50 278.81 L 401.75 270.68 L 401.75 270.68 L 403.50 270.68 L 406.99 281.44 L 406.99 281.44 L 415.73 278.81 L 417.48 260.00 L 419.23 260.00 L 426.22 246.19 L 429.72 234.58 L 429.72 234.58 L 433.22 247.54 L 440.21 215.85 L 440.21 215.85 L 440.21 215.85 L 440.21 215.85 L 440.21 215.85 L 440.21 215.85 L 440.21 215.85 L 440.21 215.85 L 440.21 215.85 L 445.45 215.85 L 455.94 202.37 L 462.94 203.73 L 466.43 203.73 L 468.18 203.73 L 468.18 203.73 L 476.92 203.73 L 478.67 203.73 L 478.67 203.73 L 478.67 203.73 L 478.67 203.73 L 499.65 203.73 L 501.40 203.73 L 511.89 118.81 L 513.64 102.97 L 513.64 102.97 L 581.82 155.34 L 585.31 155.34 L 587.06 155.34 L 590.56 174.15 L 592.31 175.51 L 592.31 175.51 L 599.30 175.51 L 601.05 175.51 L 602.80 175.51 L 604.55 175.51 L 609.79 175.51 L 611.54 175.51 L 615.03 175.51 L 616.78 175.51 L 622.03 175.51 L 623.78 175.51 L 623.78 175.51 L 629.02 175.51 L 634.27 175.51 L 636.01 175.51 L 637.76 175.51 L 639.51 175.51 L 641.26 175.51 L 648.25 156.36 L 650.00 145.93" /><text  class="poloto_text poloto_legend_text" x="675" y="200" >Refinance 30</text><line  class="poloto_line poloto_legend_icon poloto2stroke poloto2legend" stroke="black" x1="680" x2="730" y1="181.25" y2="181.25" /><path  class="poloto_line poloto2stroke" fill="none" stroke="black" d=" M 150.00 343.31 L 151.75 351.36 L 156.99 338.81 L 158.74 328.98 L 160.49 330.85 L 160.49 330.85 L 163.99 310.25 L 169.23 308.47 L 170.98 319.15 L 172.73 307.54 L 174.48 318.22 L 176.22 297.71 L 181.47 307.54 L 183.22 286.95 L 184.97 286.95 L 186.71 286.02 L 188.46 260.00 L 193.71 264.58 L 195.45 276.27 L 197.20 286.95 L 198.95 277.20 L 200.70 265.51 L 207.69 256.61 L 209.44 242.12 L 211.19 240.17 L 212.94 238.14 L 218.18 242.12 L 219.93 258.73 L 223.43 256.61 L 225.17 254.66 L 230.42 244.07 L 232.17 255.59 L 233.92 244.07 L 233.92 244.07 L 237.41 244.07 L 242.66 246.02 L 244.41 264.58 L 244.41 264.58 L 246.15 255.59 L 247.90 256.61 L 249.65 257.54 L 254.90 265.51 L 256.64 256.61 L 258.39 256.61 L 258.39 256.61 L 260.14 266.44 L 261.89 267.46 L 267.13 268.39 L 268.88 277.20 L 270.63 277.20 L 272.38 279.07 L 274.13 279.07 L 281.12 275.25 L 282.87 264.58 L 284.62 266.44 L 286.36 265.51 L 286.36 265.51 L 293.36 255.59 L 295.10 255.59 L 296.85 245.00 L 303.85 202.12 L 305.59 171.78 L 307.34 190.34 L 309.09 202.12 L 310.84 212.80 L 316.08 203.05 L 317.83 202.12 L 319.58 221.61 L 321.33 223.56 L 328.32 223.56 L 330.07 211.86 L 331.82 221.61 L 333.57 232.29 L 335.31 255.59 L 342.31 256.61 L 344.06 245.00 L 345.80 224.58 L 347.55 221.61 L 352.80 241.10 L 356.29 223.56 L 358.04 222.54 L 365.03 242.12 L 365.03 242.12 L 365.03 242.12 L 365.03 242.12 L 365.03 242.12 L 365.03 242.12 L 368.53 242.12 L 368.53 242.12 L 368.53 242.12 L 368.53 242.12 L 368.53 242.12 L 368.53 242.12 L 377.27 254.66 L 380.77 256.61 L 382.52 275.25 L 384.27 287.88 L 389.51 286.95 L 391.26 286.95 L 393.01 265.51 L 394.76 268.39 L 396.50 254.66 L 401.75 265.51 L 401.75 265.51 L 403.50 257.54 L 406.99 266.44 L 406.99 266.44 L 415.73 264.58 L 417.48 246.02 L 419.23 245.00 L 426.22 220.59 L 429.72 211.86 L 429.72 211.86 L 433.22 222.54 L 440.21 210.85 L 440.21 210.85 L 440.21 210.85 L 440.21 210.85 L 440.21 210.85 L 440.21 210.85 L 440.21 210.85 L 440.21 210.85 L 445.45 210.85 L 445.45 209.83 L 455.94 197.03 L 462.94 175.51 L 462.94 175.51 L 468.18 175.51 L 468.18 175.51 L 476.92 175.51 L 478.67 175.51 L 478.67 175.51 L 478.67 175.51 L 478.67 175.51 L 499.65 175.51 L 501.40 175.51 L 511.89 127.03 L 513.64 100.00 L 513.64 100.00 L 581.82 146.44 L 585.31 146.44 L 587.06 146.44 L 588.81 150.76 L 592.31 160.59 L 592.31 160.59 L 599.30 160.59 L 601.05 160.59 L 602.80 160.59 L 604.55 160.59 L 609.79 160.59 L 611.54 160.59 L 615.03 160.59 L 616.78 160.59 L 622.03 160.59 L 623.78 160.59 L 623.78 160.59 L 629.02 160.59 L 634.27 160.59 L 636.01 160.59 L 637.76 160.59 L 639.51 160.59 L 641.26 160.59 L 648.25 144.24 L 650.00 152.88" /><text  class="poloto_labels poloto_text poloto_title" x="400" y="37.5" >lower.com purchase rates</text><text  class="poloto_labels poloto_text poloto_xname" x="400" y="481.25" >Date</text><text  class="poloto_labels poloto_text poloto_yname" transform="rotate(-90,37.5,250)" x="37.5" y="250" >Rate (%)</text><text  class="poloto_tick_labels poloto_text" dominant-baseline="middle" text-anchor="start" x="150" y="70" ></text><line  class="poloto_axis_lines" stroke="black" x1="150" x2="144" y1="390.2542372881356" y2="390.2542372881356" /><line  class="poloto_tick_line" stroke="black" x1="150" x2="650" y1="390.2542372881356" y2="390.2542372881356" /><text  class="poloto_tick_labels poloto_text" dominant-baseline="middle" text-anchor="end" x="135" y="390.2542372881356" >3.625</text><line  class="poloto_axis_lines" stroke="black" x1="150" x2="144" y1="379.66101694915255" y2="379.66101694915255" /><line  class="poloto_tick_line" stroke="black" x1="150" x2="650" y1="379.66101694915255" y2="379.66101694915255" /><text  class="poloto_tick_labels poloto_text" dominant-baseline="middle" text-anchor="end" x="135" y="379.66101694915255" >3.75</text><line  class="poloto_axis_lines" stroke="black" x1="150" x2="144" y1="369.06779661016947" y2="369.06779661016947" /><line  class="poloto_tick_line" stroke="black" x1="150" x2="650" y1="369.06779661016947" y2="369.06779661016947" /><text  class="poloto_tick_labels poloto_text" dominant-baseline="middle" text-anchor="end" x="135" y="369.06779661016947" >3.875</text><line  class="poloto_axis_lines" stroke="black" x1="150" x2="144" y1="358.47457627118644" y2="358.47457627118644" /><line  class="poloto_tick_line" stroke="black" x1="150" x2="650" y1="358.47457627118644" y2="358.47457627118644" /><text  class="poloto_tick_labels poloto_text" dominant-baseline="middle" text-anchor="end" x="135" y="358.47457627118644" >4</text><line  class="poloto_axis_lines" stroke="black" x1="150" x2="144" y1="347.8813559322034" y2="347.8813559322034" /><line  class="poloto_tick_line" stroke="black" x1="150" x2="650" y1="347.8813559322034" y2="347.8813559322034" /><text  class="poloto_tick_labels poloto_text" dominant-baseline="middle" text-anchor="end" x="135" y="347.8813559322034" >4.125</text><line  class="poloto_axis_lines" stroke="black" x1="150" x2="144" y1="337.2881355932203" y2="337.2881355932203" /><line  class="poloto_tick_line" stroke="black" x1="150" x2="650" y1="337.2881355932203" y2="337.2881355932203" /><text  class="poloto_tick_labels poloto_text" dominant-baseline="middle" text-anchor="end" x="135" y="337.2881355932203" >4.25</text><line  class="poloto_axis_lines" stroke="black" x1="150" x2="144" y1="326.6949152542373" y2="326.6949152542373" /><line  class="poloto_tick_line" stroke="black" x1="150" x2="650" y1="326.6949152542373" y2="326.6949152542373" /><text  class="poloto_tick_labels poloto_text" dominant-baseline="middle" text-anchor="end" x="135" y="326.6949152542373" >4.375</text><line  class="poloto_axis_lines" stroke="black" x1="150" x2="144" y1="316.10169491525426" y2="316.10169491525426" /><line  class="poloto_tick_line" stroke="black" x1="150" x2="650" y1="316.10169491525426" y2="316.10169491525426" /><text  class="poloto_tick_labels poloto_text" dominant-baseline="middle" text-anchor="end" x="135" y="316.10169491525426" >4.5</text><line  class="poloto_axis_lines" stroke="black" x1="150" x2="144" y1="305.50847457627117" y2="305.50847457627117" /><line  class="poloto_tick_line" stroke="black" x1="150" x2="650" y1="305.50847457627117" y2="305.50847457627117" /><text  class="poloto_tick_labels poloto_text" dominant-baseline="middle" text-anchor="end" x="135" y="305.50847457627117" >4.625</text><line  class="poloto_axis_lines" stroke="black" x1="150" x2="144" y1="294.91525423728814" y2="294.91525423728814" /><line  class="poloto_tick_line" stroke="black" x1="150" x2="650" y1="294.91525423728814" y2="294.91525423728814" /><text  class="poloto_tick_labels poloto_text" dominant-baseline="middle" text-anchor="end" x="135" y="294.91525423728814" >4.75</text><line  class="poloto_axis_lines" stroke="black" x1="150" x2="144" y1="284.3220338983051" y2="284.3220338983051" /><line  class="poloto_tick_line" stroke="black" x1="150" x2="650" y1="284.3220338983051" y2="284.3220338983051" /><text  class="poloto_tick_labels poloto_text" dominant-baseline="middle" text-anchor="end" x="135" y="284.3220338983051" >4.875</text><line  class="poloto_axis_lines" stroke="black" x1="150" x2="144" y1="273.728813559322" y2="273.728813559322" /><line  class="poloto_tick_line" stroke="black" x1="150" x2="650" y1="273.728813559322" y2="273.728813559322" /><text  class="poloto_tick_labels poloto_text" dominant-baseline="middle" text-anchor="end" x="135" y="273.728813559322" >5</text><line  class="poloto_axis_lines" stroke="black" x1="150" x2="144" y1="263.135593220339" y2="263.135593220339" /><line  class="poloto_tick_line" stroke="black" x1="150" x2="650" y1="263.135593220339" y2="263.135593220339" /><text  class="poloto_tick_labels poloto_text" dominant-baseline="middle" text-anchor="end" x="135" y="263.135593220339" >5.125</text><line  class="poloto_axis_lines" stroke="black" x1="150" x2="144" y1="252.54237288135596" y2="252.54237288135596" /><line  class="poloto_tick_line" stroke="black" x1="150" x2="650" y1="252.54237288135596" y2="252.54237288135596" /><text  class="poloto_tick_labels poloto_text" dominant-baseline="middle" text-anchor="end" x="135" y="252.54237288135596" >5.25</text><line  class="poloto_axis_lines" stroke="black" x1="150" x2="144" y1="241.94915254237287" y2="241.94915254237287" /><line  class="poloto_tick_line" stroke="black" x1="150" x2="650" y1="241.94915254237287" y2="241.94915254237287" /><text  class="poloto_tick_labels poloto_text" dominant-baseline="middle" text-anchor="end" x="135" y="241.94915254237287" >5.375</text><line  class="poloto_axis_lines" stroke="black" x1="150" x2="144" y1="231.35593220338984" y2="231.35593220338984" /><line  class="poloto_tick_line" stroke="black" x1="150" x2="650" y1="231.35593220338984" y2="231.35593220338984" /><text  class="poloto_tick_labels poloto_text" dominant-baseline="middle" text-anchor="end" x="135" y="231.35593220338984" >5.5</text><line  class="poloto_axis_lines" stroke="black" x1="150" x2="144" y1="220.7627118644068" y2="220.7627118644068" /><line  class="poloto_tick_line" stroke="black" x1="150" x2="650" y1="220.7627118644068" y2="220.7627118644068" /><text  class="poloto_tick_labels poloto_text" dominant-baseline="middle" text-anchor="end" x="135" y="220.7627118644068" >5.625</text><line  class="poloto_axis_lines" stroke="black" x1="150" x2="144" y1="210.16949152542372" y2="210.16949152542372" /><line  class="poloto_tick_line" stroke="black" x1="150" x2="650" y1="210.16949152542372" y2="210.16949152542372" /><text  class="poloto_tick_labels poloto_text" dominant-baseline="middle" text-anchor="end" x="135" y="210.16949152542372" >5.75</text><line  class="poloto_axis_lines" stroke="black" x1="150" x2="144" y1="199.5762711864407" y2="199.5762711864407" /><line  class="poloto_tick_line" stroke="black" x1="150" x2="650" y1="199.5762711864407" y2="199.5762711864407" /><text  class="poloto_tick_labels poloto_text" dominant-baseline="middle" text-anchor="end" x="135" y="199.5762711864407" >5.875</text><line  class="poloto_axis_lines" stroke="black" x1="150" x2="144" y1="188.98305084745766" y2="188.98305084745766" /><line  class="poloto_tick_line" stroke="black" x1="150" x2="650" y1="188.98305084745766" y2="188.98305084745766" /><text  class="poloto_tick_labels poloto_text" dominant-baseline="middle" text-anchor="end" x="135" y="188.98305084745766" >6</text><line  class="poloto_axis_lines" stroke="black" x1="150" x2="144" y1="178.38983050847457" y2="178.38983050847457" /><line  class="poloto_tick_line" stroke="black" x1="150" x2="650" y1="178.38983050847457" y2="178.38983050847457" /><text  class="poloto_tick_labels poloto_text" dominant-baseline="middle" text-anchor="end" x="135" y="178.38983050847457" >6.125</text><line  class="poloto_axis_lines" stroke="black" x1="150" x2="144" y1="167.7966101694915" y2="167.7966101694915" /><line  class="poloto_tick_line" stroke="black" x1="150" x2="650" y1="167.7966101694915" y2="167.7966101694915" /><text  class="poloto_tick_labels poloto_text" dominant-baseline="middle" text-anchor="end" x="135" y="167.7966101694915" >6.25</text><line  class="poloto_axis_lines" stroke="black" x1="150" x2="144" y1="157.2033898305085" y2="157.2033898305085" /><line  class="poloto_tick_line" stroke="black" x1="150" x2="650" y1="157.2033898305085" y2="157.2033898305085" /><text  class="poloto_tick_labels poloto_text" dominant-baseline="middle" text-anchor="end" x="135" y="157.2033898305085" >6.375</text><line  class="poloto_axis_lines" stroke="black" x1="150" x2="144" y1="146.61016949152543" y2="146.61016949152543" /><line  class="poloto_tick_line" stroke="black" x1="150" x2="650" y1="146.61016949152543" y2="146.61016949152543" /><text  class="poloto_tick_labels poloto_text" dominant-baseline="middle" text-anchor="end" x="135" y="146.61016949152543" >6.5</text><line  class="poloto_axis_lines" stroke="black" x1="150" x2="144" y1="136.01694915254234" y2="136.01694915254234" /><line  class="poloto_tick_line" stroke="black" x1="150" x2="650" y1="136.01694915254234" y2="136.01694915254234" /><text  class="poloto_tick_labels poloto_text" dominant-baseline="middle" text-anchor="end" x="135" y="136.01694915254234" >6.625</text><line  class="poloto_axis_lines" stroke="black" x1="150" x2="144" y1="125.42372881355936" y2="125.42372881355936" /><line  class="poloto_tick_line" stroke="black" x1="150" x2="650" y1="125.42372881355936" y2="125.42372881355936" /><text  class="poloto_tick_labels poloto_text" dominant-baseline="middle" text-anchor="end" x="135" y="125.42372881355936" >6.75</text><line  class="poloto_axis_lines" stroke="black" x1="150" x2="144" y1="114.83050847457628" y2="114.83050847457628" /><line  class="poloto_tick_line" stroke="black" x1="150" x2="650" y1="114.83050847457628" y2="114.83050847457628" /><text  class="poloto_tick_labels poloto_text" dominant-baseline="middle" text-anchor="end" x="135" y="114.83050847457628" >6.875</text><line  class="poloto_axis_lines" stroke="black" x1="150" x2="144" y1="104.23728813559319" y2="104.23728813559319" /><line  class="poloto_tick_line" stroke="black" x1="150" x2="650" y1="104.23728813559319" y2="104.23728813559319" /><text  class="poloto_tick_labels poloto_text" dominant-baseline="middle" text-anchor="end" x="135" y="104.23728813559319" >7</text><text  class="poloto_tick_labels poloto_text" dominant-baseline="middle" text-anchor="start" x="440.00000000000006" y="70" >¹2022-05-01 00:00:00 UTC in Months</text><line  class="poloto_axis_lines" stroke="black" x1="228.6713286713275" x2="228.6713286713275" y1="400" y2="405" /><line  class="poloto_tick_line" stroke="black" x1="228.6713286713275" x2="228.6713286713275" y1="400" y2="100" /><text  class="poloto_tick_labels poloto_text" dominant-baseline="start" text-anchor="middle" x="228.6713286713275" y="430" >2022 May¹</text><line  class="poloto_axis_lines" stroke="black" x1="335.31468531469" x2="335.31468531469" y1="400" y2="405" /><line  class="poloto_tick_line" stroke="black" x1="335.31468531469" x2="335.31468531469" y1="400" y2="100" /><text  class="poloto_tick_labels poloto_text" dominant-baseline="start" text-anchor="middle" x="335.31468531469" y="430" >2022 Jul</text><line  class="poloto_axis_lines" stroke="black" x1="443.7062937062947" x2="443.7062937062947" y1="400" y2="405" /><line  class="poloto_tick_line" stroke="black" x1="443.7062937062947" x2="443.7062937062947" y1="400" y2="100" /><text  class="poloto_tick_labels poloto_text" dominant-baseline="start" text-anchor="middle" x="443.7062937062947" y="430" >2022 Sep</text><line  class="poloto_axis_lines" stroke="black" x1="550.3496503496499" x2="550.3496503496499" y1="400" y2="405" /><line  class="poloto_tick_line" stroke="black" x1="550.3496503496499" x2="550.3496503496499" y1="400" y2="100" /><text  class="poloto_tick_labels poloto_text" dominant-baseline="start" text-anchor="middle" x="550.3496503496499" y="430" >2022 Nov</text><path  stroke="black" fill="none" class="poloto_axis_lines" d=" M 150 400 L 650 400" /><path  stroke="black" fill="none" class="poloto_axis_lines" d=" M 150 400 L 150 100" /></svg>