<svg class="poloto" width="800" height="500" viewBox="0 0 800 500" xmlns="http://www.w3.org/2000/svg"><style>.poloto{stroke-linecap:round;stroke-linejoin:round;font-family:Roboto,sans-serif;font-size:16px;}.poloto_background{fill:#262626;}.poloto_scatter{stroke-width:7}.poloto_tick_line{stroke:dimgray;stroke-width:0.5}.poloto_line{stroke-width:2}.poloto_text{fill: white;}.poloto_axis_lines{stroke: white;stroke-width:3;fill:none;stroke-dasharray:none}.poloto_title{font-size:24px;dominant-baseline:start;text-anchor:middle;}.poloto_xname{font-size:24px;dominant-baseline:start;text-anchor:middle;}.poloto_yname{font-size:24px;dominant-baseline:start;text-anchor:middle;}.poloto0stroke{stroke:blue;}.poloto1stroke{stroke:red;}.poloto2stroke{stroke:green;}.poloto3stroke{stroke:gold;}.poloto4stroke{stroke:aqua;}.poloto5stroke{stroke:lime;}.poloto6stroke{stroke:orange;}.poloto7stroke{stroke:chocolate;}.poloto0fill{fill:blue;}.poloto1fill{fill:red;}.poloto2fill{fill:green;}.poloto3fill{fill:gold;}.poloto4fill{fill:aqua;}.poloto5fill{fill:lime;}.poloto6fill{fill:orange;}.poloto7fill{fill:chocolate;}</style><circle  r="1e5" class="poloto_background" /><text  class="poloto_text poloto_legend_text" x="675" y="100" >Refinance 15</text><line  class="poloto_line poloto_legend_icon poloto0stroke poloto0legend" stroke="black" x1="680" x2="730" y1="81.25" y2="81.25" /><path  class="poloto_line poloto0stroke" fill="none" stroke="black" d=" M 150.00 392.46 L 151.98 400.00 L 157.94 389.32 L 159.92 380.17 L 161.90 389.32 L 161.90 389.32 L 165.87 358.81 L 171.83 357.20 L 173.81 367.88 L 175.79 344.83 L 177.78 346.44 L 179.76 341.61 L 185.71 343.22 L 187.70 336.78 L 187.70 336.78 L 191.67 337.37 L 193.65 314.32 L 199.60 324.32 L 201.59 327.54 L 203.57 327.54 L 205.56 326.69 L 207.54 321.78 L 215.48 278.73 L 217.46 297.88 L 219.44 283.05 L 221.43 277.29 L 221.43 277.29 L 229.37 299.58 L 233.33 303.64 L 235.32 294.58 L 241.27 283.81 L 243.25 305.25 L 245.24 294.58 L 245.24 294.58 L 249.21 292.88 L 255.16 296.19 L 257.14 306.86 L 257.14 306.86 L 259.13 297.80 L 261.11 308.56 L 263.10 292.88 L 269.05 325.08 L 271.03 324.32 L 273.02 306.86 L 273.02 306.86 L 275.00 314.32 L 276.98 317.63 L 282.94 317.63 L 284.92 329.15 L 286.90 329.15 L 288.89 329.15 L 290.87 329.15 L 298.81 317.63 L 300.79 314.32 L 302.78 315.93 L 304.76 315.93 L 304.76 315.93 L 312.70 305.25 L 314.68 305.25 L 316.67 296.19 L 324.60 281.36 L 326.59 250.76 L 328.57 254.15 L 330.56 254.15 L 332.54 275.59 L 338.49 254.15 L 340.48 254.15 L 342.46 273.90 L 344.44 277.29 L 352.38 277.29 L 354.37 275.59 L 356.35 280.59 L 358.33 285.51 L 360.32 296.19 L 368.25 303.64 L 370.24 294.58 L 372.22 287.12 L 374.21 283.81 L 380.16 285.51 L 384.13 285.51 L 386.11 283.81 L 394.05 282.20 L 394.05 282.20 L 394.05 282.20 L 394.05 282.20 L 394.05 282.20 L 394.05 282.20 L 398.02 282.20 L 398.02 282.20 L 398.02 282.20 L 398.02 282.20 L 398.02 282.20 L 398.02 282.20 L 407.94 294.58 L 411.90 297.80 L 413.89 325.93 L 415.87 329.15 L 421.83 329.15 L 423.81 327.54 L 425.79 305.25 L 427.78 299.49 L 429.76 285.51 L 435.71 296.19 L 435.71 296.19 L 437.70 287.12 L 441.67 296.19 L 441.67 296.19 L 451.59 296.19 L 453.57 262.46 L 455.56 282.20 L 463.49 248.39 L 467.46 248.39 L 467.46 248.39 L 471.43 260.76 L 479.37 254.15 L 479.37 254.15 L 479.37 254.15 L 479.37 254.15 L 479.37 254.15 L 479.37 254.15 L 479.37 254.15 L 479.37 254.15 L 479.37 254.15 L 485.32 254.15 L 497.22 232.63 L 505.16 235.17 L 505.16 235.17 L 511.11 235.17 L 519.05 235.17 L 521.03 235.17 L 521.03 235.17 L 521.03 235.17 L 521.03 235.17 L 521.03 235.17 L 546.83 235.17 L 548.81 235.17 L 560.71 139.75 L 562.70 130.68 L 564.68 130.68 L 636.11 159.15 L 644.05 159.15 L 646.03 159.15 L 648.02 175.51" /><text  class="poloto_text poloto_legend_text" x="675" y="150" >Refinance 20</text><line  class="poloto_line poloto_legend_icon poloto1stroke poloto1legend" stroke="black" x1="680" x2="730" y1="131.25" y2="131.25" /><path  class="poloto_line poloto1stroke" fill="none" stroke="black" d=" M 150.00 345.68 L 151.98 368.31 L 157.94 334.58 L 159.92 324.24 L 161.90 333.73 L 161.90 333.73 L 165.87 304.07 L 171.83 301.53 L 173.81 312.29 L 175.79 300.25 L 177.78 311.02 L 179.76 290.85 L 185.71 321.69 L 187.70 290.85 L 187.70 290.85 L 191.67 290.85 L 191.67 290.85 L 199.60 250.17 L 201.59 282.71 L 203.57 290.85 L 205.56 301.53 L 207.54 280.59 L 215.48 260.00 L 217.46 257.37 L 219.44 252.12 L 221.43 240.08 L 227.38 245.34 L 229.37 268.14 L 233.33 260.00 L 235.32 257.37 L 241.27 248.81 L 243.25 258.73 L 245.24 258.73 L 245.24 258.73 L 249.21 258.73 L 255.16 260.00 L 257.14 281.44 L 257.14 281.44 L 259.13 269.41 L 261.11 289.58 L 263.10 281.44 L 269.05 282.71 L 271.03 281.44 L 273.02 281.44 L 273.02 281.44 L 275.00 282.71 L 276.98 289.58 L 282.94 290.85 L 284.92 294.66 L 286.90 294.66 L 288.89 294.66 L 290.87 294.66 L 298.81 289.58 L 300.79 278.81 L 302.78 281.44 L 304.76 281.44 L 304.76 281.44 L 312.70 268.14 L 314.68 270.68 L 316.67 261.27 L 324.60 215.85 L 326.59 197.03 L 328.57 207.80 L 330.56 215.85 L 332.54 238.56 L 338.49 225.17 L 340.48 218.47 L 342.46 239.92 L 344.44 250.17 L 352.38 250.17 L 354.37 238.56 L 356.35 249.32 L 358.33 260.00 L 360.32 272.03 L 368.25 280.08 L 370.24 269.41 L 372.22 258.73 L 374.21 251.44 L 380.16 257.37 L 384.13 260.00 L 386.11 258.73 L 394.05 260.00 L 394.05 260.00 L 394.05 260.00 L 394.05 260.00 L 394.05 260.00 L 394.05 260.00 L 394.05 260.00 L 394.05 260.00 L 394.05 260.00 L 394.05 260.00 L 394.05 260.00 L 394.05 260.00 L 407.94 280.08 L 411.90 282.71 L 413.89 301.53 L 415.87 304.07 L 421.83 301.27 L 423.81 301.27 L 425.79 290.85 L 427.78 294.66 L 429.76 278.81 L 435.71 270.68 L 435.71 270.68 L 437.70 270.68 L 441.67 281.44 L 441.67 281.44 L 451.59 278.81 L 453.57 260.00 L 455.56 260.00 L 463.49 246.19 L 467.46 234.58 L 467.46 234.58 L 471.43 247.54 L 479.37 215.85 L 479.37 215.85 L 479.37 215.85 L 479.37 215.85 L 479.37 215.85 L 479.37 215.85 L 479.37 215.85 L 479.37 215.85 L 479.37 215.85 L 485.32 215.85 L 497.22 202.37 L 505.16 203.73 L 509.13 203.73 L 511.11 203.73 L 511.11 203.73 L 521.03 203.73 L 523.02 203.73 L 523.02 203.73 L 523.02 203.73 L 523.02 203.73 L 546.83 203.73 L 548.81 203.73 L 560.71 118.81 L 562.70 102.97 L 562.70 102.97 L 640.08 155.34 L 644.05 155.34 L 646.03 155.34 L 650.00 174.15" /><text  class="poloto_text poloto_legend_text" x="675" y="200" >Refinance 30</text><line  class="poloto_line poloto_legend_icon poloto2stroke poloto2legend" stroke="black" x1="680" x2="730" y1="181.25" y2="181.25" /><path  class="poloto_line poloto2stroke" fill="none" stroke="black" d=" M 150.00 343.31 L 151.98 351.36 L 157.94 338.81 L 159.92 328.98 L 161.90 330.85 L 161.90 330.85 L 165.87 310.25 L 171.83 308.47 L 173.81 319.15 L 175.79 307.54 L 177.78 318.22 L 179.76 297.71 L 185.71 307.54 L 187.70 286.95 L 189.68 286.95 L 191.67 286.02 L 193.65 260.00 L 199.60 264.58 L 201.59 276.27 L 203.57 286.95 L 205.56 277.20 L 207.54 265.51 L 215.48 256.61 L 217.46 242.12 L 219.44 240.17 L 221.43 238.14 L 227.38 242.12 L 229.37 258.73 L 233.33 256.61 L 235.32 254.66 L 241.27 244.07 L 243.25 255.59 L 245.24 244.07 L 245.24 244.07 L 249.21 244.07 L 255.16 246.02 L 257.14 264.58 L 257.14 264.58 L 259.13 255.59 L 261.11 256.61 L 263.10 257.54 L 269.05 265.51 L 271.03 256.61 L 273.02 256.61 L 273.02 256.61 L 275.00 266.44 L 276.98 267.46 L 282.94 268.39 L 284.92 277.20 L 286.90 277.20 L 288.89 279.07 L 290.87 279.07 L 298.81 275.25 L 300.79 264.58 L 302.78 266.44 L 304.76 265.51 L 304.76 265.51 L 312.70 255.59 L 314.68 255.59 L 316.67 245.00 L 324.60 202.12 L 326.59 171.78 L 328.57 190.34 L 330.56 202.12 L 332.54 212.80 L 338.49 203.05 L 340.48 202.12 L 342.46 221.61 L 344.44 223.56 L 352.38 223.56 L 354.37 211.86 L 356.35 221.61 L 358.33 232.29 L 360.32 255.59 L 368.25 256.61 L 370.24 245.00 L 372.22 224.58 L 374.21 221.61 L 380.16 241.10 L 384.13 223.56 L 386.11 222.54 L 394.05 242.12 L 394.05 242.12 L 394.05 242.12 L 394.05 242.12 L 394.05 242.12 L 394.05 242.12 L 398.02 242.12 L 398.02 242.12 L 398.02 242.12 L 398.02 242.12 L 398.02 242.12 L 398.02 242.12 L 407.94 254.66 L 411.90 256.61 L 413.89 275.25 L 415.87 287.88 L 421.83 286.95 L 423.81 286.95 L 425.79 265.51 L 427.78 268.39 L 429.76 254.66 L 435.71 265.51 L 435.71 265.51 L 437.70 257.54 L 441.67 266.44 L 441.67 266.44 L 451.59 264.58 L 453.57 246.02 L 455.56 245.00 L 463.49 220.59 L 467.46 211.86 L 467.46 211.86 L 471.43 222.54 L 479.37 210.85 L 479.37 210.85 L 479.37 210.85 L 479.37 210.85 L 479.37 210.85 L 479.37 210.85 L 479.37 210.85 L 479.37 210.85 L 485.32 210.85 L 485.32 209.83 L 497.22 197.03 L 505.16 175.51 L 505.16 175.51 L 511.11 175.51 L 511.11 175.51 L 521.03 175.51 L 523.02 175.51 L 523.02 175.51 L 523.02 175.51 L 523.02 175.51 L 546.83 175.51 L 548.81 175.51 L 560.71 127.03 L 562.70 100.00 L 562.70 100.00 L 640.08 146.44 L 644.05 146.44 L 646.03 146.44 L 648.02 150.76" /><text  class="poloto_labels poloto_text poloto_title" x="400" y="37.5" >lower.com purchase rates</text><text  class="poloto_labels poloto_text poloto_xname" x="400" y="481.25" >Date</text><text  class="poloto_labels poloto_text poloto_yname" transform="rotate(-90,37.5,250)" x="37.5" y="250" >Rate (%)</text><text  class="poloto_tick_labels poloto_text" dominant-baseline="middle" text-anchor="start" x="150" y="70" ></text><line  class="poloto_axis_lines" stroke="black" x1="150" x2="144" y1="390.2542372881356" y2="390.2542372881356" /><line  class="poloto_tick_line" stroke="black" x1="150" x2="650" y1="390.2542372881356" y2="390.2542372881356" /><text  class="poloto_tick_labels poloto_text" dominant-baseline="middle" text-anchor="end" x="135" y="390.2542372881356" >3.625</text><line  class="poloto_axis_lines" stroke="black" x1="150" x2="144" y1="379.66101694915255" y2="379.66101694915255" /><line  class="poloto_tick_line" stroke="black" x1="150" x2="650" y1="379.66101694915255" y2="379.66101694915255" /><text  class="poloto_tick_labels poloto_text" dominant-baseline="middle" text-anchor="end" x="135" y="379.66101694915255" >3.75</text><line  class="poloto_axis_lines" stroke="black" x1="150" x2="144" y1="369.06779661016947" y2="369.06779661016947" /><line  class="poloto_tick_line" stroke="black" x1="150" x2="650" y1="369.06779661016947" y2="369.06779661016947" /><text  class="poloto_tick_labels poloto_text" dominant-baseline="middle" text-anchor="end" x="135" y="369.06779661016947" >3.875</text><line  class="poloto_axis_lines" stroke="black" x1="150" x2="144" y1="358.47457627118644" y2="358.47457627118644" /><line  class="poloto_tick_line" stroke="black" x1="150" x2="650" y1="358.47457627118644" y2="358.47457627118644" /><text  class="poloto_tick_labels poloto_text" dominant-baseline="middle" text-anchor="end" x="135" y="358.47457627118644" >4</text><line  class="poloto_axis_lines" stroke="black" x1="150" x2="144" y1="347.8813559322034" y2="347.8813559322034" /><line  class="poloto_tick_line" stroke="black" x1="150" x2="650" y1="347.8813559322034" y2="347.8813559322034" /><text  class="poloto_tick_labels poloto_text" dominant-baseline="middle" text-anchor="end" x="135" y="347.8813559322034" >4.125</text><line  class="poloto_axis_lines" stroke="black" x1="150" x2="144" y1="337.2881355932203" y2="337.2881355932203" /><line  class="poloto_tick_line" stroke="black" x1="150" x2="650" y1="337.2881355932203" y2="337.2881355932203" /><text  class="poloto_tick_labels poloto_text" dominant-baseline="middle" text-anchor="end" x="135" y="337.2881355932203" >4.25</text><line  class="poloto_axis_lines" stroke="black" x1="150" x2="144" y1="326.6949152542373" y2="326.6949152542373" /><line  class="poloto_tick_line" stroke="black" x1="150" x2="650" y1="326.6949152542373" y2="326.6949152542373" /><text  class="poloto_tick_labels poloto_text" dominant-baseline="middle" text-anchor="end" x="135" y="326.6949152542373" >4.375</text><line  class="poloto_axis_lines" stroke="black" x1="150" x2="144" y1="316.10169491525426" y2="316.10169491525426" /><line  class="poloto_tick_line" stroke="black" x1="150" x2="650" y1="316.10169491525426" y2="316.10169491525426" /><text  class="poloto_tick_labels poloto_text" dominant-baseline="middle" text-anchor="end" x="135" y="316.10169491525426" >4.5</text><line  class="poloto_axis_lines" stroke="black" x1="150" x2="144" y1="305.50847457627117" y2="305.50847457627117" /><line  class="poloto_tick_line" stroke="black" x1="150" x2="650" y1="305.50847457627117" y2="305.50847457627117" /><text  class="poloto_tick_labels poloto_text" dominant-baseline="middle" text-anchor="end" x="135" y="305.50847457627117" >4.625</text><line  class="poloto_axis_lines" stroke="black" x1="150" x2="144" y1="294.91525423728814" y2="294.91525423728814" /><line  class="poloto_tick_line" stroke="black" x1="150" x2="650" y1="294.91525423728814" y2="294.91525423728814" /><text  class="poloto_tick_labels poloto_text" dominant-baseline="middle" text-anchor="end" x="135" y="294.91525423728814" >4.75</text><line  class="poloto_axis_lines" stroke="black" x1="150" x2="144" y1="284.3220338983051" y2="284.3220338983051" /><line  class="poloto_tick_line" stroke="black" x1="150" x2="650" y1="284.3220338983051" y2="284.3220338983051" /><text  class="poloto_tick_labels poloto_text" dominant-baseline="middle" text-anchor="end" x="135" y="284.3220338983051" >4.875</text><line  class="poloto_axis_lines" stroke="black" x1="150" x2="144" y1="273.728813559322" y2="273.728813559322" /><line  class="poloto_tick_line" stroke="black" x1="150" x2="650" y1="273.728813559322" y2="273.728813559322" /><text  class="poloto_tick_labels poloto_text" dominant-baseline="middle" text-anchor="end" x="135" y="273.728813559322" >5</text><line  class="poloto_axis_lines" stroke="black" x1="150" x2="144" y1="263.135593220339" y2="263.135593220339" /><line  class="poloto_tick_line" stroke="black" x1="150" x2="650" y1="263.135593220339" y2="263.135593220339" /><text  class="poloto_tick_labels poloto_text" dominant-baseline="middle" text-anchor="end" x="135" y="263.135593220339" >5.125</text><line  class="poloto_axis_lines" stroke="black" x1="150" x2="144" y1="252.54237288135596" y2="252.54237288135596" /><line  class="poloto_tick_line" stroke="black" x1="150" x2="650" y1="252.54237288135596" y2="252.54237288135596" /><text  class="poloto_tick_labels poloto_text" dominant-baseline="middle" text-anchor="end" x="135" y="252.54237288135596" >5.25</text><line  class="poloto_axis_lines" stroke="black" x1="150" x2="144" y1="241.94915254237287" y2="241.94915254237287" /><line  class="poloto_tick_line" stroke="black" x1="150" x2="650" y1="241.94915254237287" y2="241.94915254237287" /><text  class="poloto_tick_labels poloto_text" dominant-baseline="middle" text-anchor="end" x="135" y="241.94915254237287" >5.375</text><line  class="poloto_axis_lines" stroke="black" x1="150" x2="144" y1="231.35593220338984" y2="231.35593220338984" /><line  class="poloto_tick_line" stroke="black" x1="150" x2="650" y1="231.35593220338984" y2="231.35593220338984" /><text  class="poloto_tick_labels poloto_text" dominant-baseline="middle" text-anchor="end" x="135" y="231.35593220338984" >5.5</text><line  class="poloto_axis_lines" stroke="black" x1="150" x2="144" y1="220.7627118644068" y2="220.7627118644068" /><line  class="poloto_tick_line" stroke="black" x1="150" x2="650" y1="220.7627118644068" y2="220.7627118644068" /><text  class="poloto_tick_labels poloto_text" dominant-baseline="middle" text-anchor="end" x="135" y="220.7627118644068" >5.625</text><line  class="poloto_axis_lines" stroke="black" x1="150" x2="144" y1="210.16949152542372" y2="210.16949152542372" /><line  class="poloto_tick_line" stroke="black" x1="150" x2="650" y1="210.16949152542372" y2="210.16949152542372" /><text  class="poloto_tick_labels poloto_text" dominant-baseline="middle" text-anchor="end" x="135" y="210.16949152542372" >5.75</text><line  class="poloto_axis_lines" stroke="black" x1="150" x2="144" y1="199.5762711864407" y2="199.5762711864407" /><line  class="poloto_tick_line" stroke="black" x1="150" x2="650" y1="199.5762711864407" y2="199.5762711864407" /><text  class="poloto_tick_labels poloto_text" dominant-baseline="middle" text-anchor="end" x="135" y="199.5762711864407" >5.875</text><line  class="poloto_axis_lines" stroke="black" x1="150" x2="144" y1="188.98305084745766" y2="188.98305084745766" /><line  class="poloto_tick_line" stroke="black" x1="150" x2="650" y1="188.98305084745766" y2="188.98305084745766" /><text  class="poloto_tick_labels poloto_text" dominant-baseline="middle" text-anchor="end" x="135" y="188.98305084745766" >6</text><line  class="poloto_axis_lines" stroke="black" x1="150" x2="144" y1="178.38983050847457" y2="178.38983050847457" /><line  class="poloto_tick_line" stroke="black" x1="150" x2="650" y1="178.38983050847457" y2="178.38983050847457" /><text  class="poloto_tick_labels poloto_text" dominant-baseline="middle" text-anchor="end" x="135" y="178.38983050847457" >6.125</text><line  class="poloto_axis_lines" stroke="black" x1="150" x2="144" y1="167.7966101694915" y2="167.7966101694915" /><line  class="poloto_tick_line" stroke="black" x1="150" x2="650" y1="167.7966101694915" y2="167.7966101694915" /><text  class="poloto_tick_labels poloto_text" dominant-baseline="middle" text-anchor="end" x="135" y="167.7966101694915" >6.25</text><line  class="poloto_axis_lines" stroke="black" x1="150" x2="144" y1="157.2033898305085" y2="157.2033898305085" /><line  class="poloto_tick_line" stroke="black" x1="150" x2="650" y1="157.2033898305085" y2="157.2033898305085" /><text  class="poloto_tick_labels poloto_text" dominant-baseline="middle" text-anchor="end" x="135" y="157.2033898305085" >6.375</text><line  class="poloto_axis_lines" stroke="black" x1="150" x2="144" y1="146.61016949152543" y2="146.61016949152543" /><line  class="poloto_tick_line" stroke="black" x1="150" x2="650" y1="146.61016949152543" y2="146.61016949152543" /><text  class="poloto_tick_labels poloto_text" dominant-baseline="middle" text-anchor="end" x="135" y="146.61016949152543" >6.5</text><line  class="poloto_axis_lines" stroke="black" x1="150" x2="144" y1="136.01694915254234" y2="136.01694915254234" /><line  class="poloto_tick_line" stroke="black" x1="150" x2="650" y1="136.01694915254234" y2="136.01694915254234" /><text  class="poloto_tick_labels poloto_text" dominant-baseline="middle" text-anchor="end" x="135" y="136.01694915254234" >6.625</text><line  class="poloto_axis_lines" stroke="black" x1="150" x2="144" y1="125.42372881355936" y2="125.42372881355936" /><line  class="poloto_tick_line" stroke="black" x1="150" x2="650" y1="125.42372881355936" y2="125.42372881355936" /><text  class="poloto_tick_labels poloto_text" dominant-baseline="middle" text-anchor="end" x="135" y="125.42372881355936" >6.75</text><line  class="poloto_axis_lines" stroke="black" x1="150" x2="144" y1="114.83050847457628" y2="114.83050847457628" /><line  class="poloto_tick_line" stroke="black" x1="150" x2="650" y1="114.83050847457628" y2="114.83050847457628" /><text  class="poloto_tick_labels poloto_text" dominant-baseline="middle" text-anchor="end" x="135" y="114.83050847457628" >6.875</text><line  class="poloto_axis_lines" stroke="black" x1="150" x2="144" y1="104.23728813559319" y2="104.23728813559319" /><line  class="poloto_tick_line" stroke="black" x1="150" x2="650" y1="104.23728813559319" y2="104.23728813559319" /><text  class="poloto_tick_labels poloto_text" dominant-baseline="middle" text-anchor="end" x="135" y="104.23728813559319" >7</text><text  class="poloto_tick_labels poloto_text" dominant-baseline="middle" text-anchor="start" x="440.00000000000006" y="70" >¹2022-05-01 00:00:00 UTC in Months</text><line  class="poloto_axis_lines" stroke="black" x1="239.28571428571013" x2="239.28571428571013" y1="400" y2="405" /><line  class="poloto_tick_line" stroke="black" x1="239.28571428571013" x2="239.28571428571013" y1="400" y2="100" /><text  class="poloto_tick_labels poloto_text" dominant-baseline="start" text-anchor="middle" x="239.28571428571013" y="430" >2022 May¹</text><line  class="poloto_axis_lines" stroke="black" x1="360.317460317463" x2="360.317460317463" y1="400" y2="405" /><line  class="poloto_tick_line" stroke="black" x1="360.317460317463" x2="360.317460317463" y1="400" y2="100" /><text  class="poloto_tick_labels poloto_text" dominant-baseline="start" text-anchor="middle" x="360.317460317463" y="430" >2022 Jul</text><line  class="poloto_axis_lines" stroke="black" x1="483.33333333333576" x2="483.33333333333576" y1="400" y2="405" /><line  class="poloto_tick_line" stroke="black" x1="483.33333333333576" x2="483.33333333333576" y1="400" y2="100" /><text  class="poloto_tick_labels poloto_text" dominant-baseline="start" text-anchor="middle" x="483.33333333333576" y="430" >2022 Sep</text><line  class="poloto_axis_lines" stroke="black" x1="604.3650793650813" x2="604.3650793650813" y1="400" y2="405" /><line  class="poloto_tick_line" stroke="black" x1="604.3650793650813" x2="604.3650793650813" y1="400" y2="100" /><text  class="poloto_tick_labels poloto_text" dominant-baseline="start" text-anchor="middle" x="604.3650793650813" y="430" >2022 Nov</text><path  stroke="black" fill="none" class="poloto_axis_lines" d=" M 150 400 L 650 400" /><path  stroke="black" fill="none" class="poloto_axis_lines" d=" M 150 400 L 150 100" /></svg>