<svg class="poloto" width="800" height="500" viewBox="0 0 800 500" xmlns="http://www.w3.org/2000/svg"><style>.poloto{stroke-linecap:round;stroke-linejoin:round;font-family:Roboto,sans-serif;font-size:16px;}.poloto_background{fill:#262626;}.poloto_scatter{stroke-width:7}.poloto_tick_line{stroke:dimgray;stroke-width:0.5}.poloto_line{stroke-width:2}.poloto_text{fill: white;}.poloto_axis_lines{stroke: white;stroke-width:3;fill:none;stroke-dasharray:none}.poloto_title{font-size:24px;dominant-baseline:start;text-anchor:middle;}.poloto_xname{font-size:24px;dominant-baseline:start;text-anchor:middle;}.poloto_yname{font-size:24px;dominant-baseline:start;text-anchor:middle;}.poloto0stroke{stroke:blue;}.poloto1stroke{stroke:red;}.poloto2stroke{stroke:green;}.poloto3stroke{stroke:gold;}.poloto4stroke{stroke:aqua;}.poloto5stroke{stroke:lime;}.poloto6stroke{stroke:orange;}.poloto7stroke{stroke:chocolate;}.poloto0fill{fill:blue;}.poloto1fill{fill:red;}.poloto2fill{fill:green;}.poloto3fill{fill:gold;}.poloto4fill{fill:aqua;}.poloto5fill{fill:lime;}.poloto6fill{fill:orange;}.poloto7fill{fill:chocolate;}</style><circle  r="1e5" class="poloto_background" /><text  class="poloto_text poloto_legend_text" x="675" y="100" >Refinance 15</text><line  class="poloto_line poloto_legend_icon poloto0stroke poloto0legend" stroke="black" x1="680" x2="730" y1="81.25" y2="81.25" /><path  class="poloto_line poloto0stroke" fill="none" stroke="black" d=" M 150.00 392.46 L 151.56 400.00 L 156.25 389.32 L 157.81 380.17 L 159.38 389.32 L 159.38 389.32 L 162.50 358.81 L 167.19 357.20 L 168.75 367.88 L 170.31 344.83 L 171.88 346.44 L 173.44 341.61 L 178.12 343.22 L 179.69 336.78 L 179.69 336.78 L 182.81 337.37 L 184.38 314.32 L 189.06 324.32 L 190.62 327.54 L 192.19 327.54 L 193.75 326.69 L 195.31 321.78 L 201.56 278.73 L 203.12 297.88 L 204.69 283.05 L 206.25 277.29 L 206.25 277.29 L 212.50 299.58 L 215.62 303.64 L 217.19 294.58 L 221.88 283.81 L 223.44 305.25 L 225.00 294.58 L 225.00 294.58 L 228.12 292.88 L 232.81 296.19 L 234.38 306.86 L 234.38 306.86 L 235.94 297.80 L 237.50 308.56 L 239.06 292.88 L 243.75 325.08 L 245.31 324.32 L 246.88 306.86 L 246.88 306.86 L 248.44 314.32 L 250.00 317.63 L 254.69 317.63 L 256.25 329.15 L 257.81 329.15 L 259.38 329.15 L 260.94 329.15 L 267.19 317.63 L 268.75 314.32 L 270.31 315.93 L 271.88 315.93 L 271.88 315.93 L 278.12 305.25 L 279.69 305.25 L 281.25 296.19 L 287.50 281.36 L 289.06 250.76 L 290.62 254.15 L 292.19 254.15 L 293.75 275.59 L 298.44 254.15 L 300.00 254.15 L 301.56 273.90 L 303.12 277.29 L 309.38 277.29 L 310.94 275.59 L 312.50 280.59 L 314.06 285.51 L 315.62 296.19 L 321.88 303.64 L 323.44 294.58 L 325.00 287.12 L 326.56 283.81 L 331.25 285.51 L 334.38 285.51 L 335.94 283.81 L 342.19 282.20 L 342.19 282.20 L 342.19 282.20 L 342.19 282.20 L 342.19 282.20 L 342.19 282.20 L 345.31 282.20 L 345.31 282.20 L 345.31 282.20 L 345.31 282.20 L 345.31 282.20 L 345.31 282.20 L 353.12 294.58 L 356.25 297.80 L 357.81 325.93 L 359.38 329.15 L 364.06 329.15 L 365.62 327.54 L 367.19 305.25 L 368.75 299.49 L 370.31 285.51 L 375.00 296.19 L 375.00 296.19 L 376.56 287.12 L 379.69 296.19 L 379.69 296.19 L 387.50 296.19 L 389.06 262.46 L 390.62 282.20 L 396.88 248.39 L 400.00 248.39 L 400.00 248.39 L 403.12 260.76 L 409.38 254.15 L 409.38 254.15 L 409.38 254.15 L 409.38 254.15 L 409.38 254.15 L 409.38 254.15 L 409.38 254.15 L 409.38 254.15 L 409.38 254.15 L 414.06 254.15 L 423.44 232.63 L 429.69 235.17 L 429.69 235.17 L 434.38 235.17 L 440.62 235.17 L 442.19 235.17 L 442.19 235.17 L 442.19 235.17 L 442.19 235.17 L 442.19 235.17 L 462.50 235.17 L 464.06 235.17 L 473.44 139.75 L 475.00 130.68 L 476.56 130.68 L 532.81 159.15 L 539.06 159.15 L 540.62 159.15 L 542.19 175.51 L 545.31 184.49 L 545.31 184.49 L 551.56 184.49 L 553.12 184.49 L 554.69 184.49 L 556.25 184.49 L 560.94 184.49 L 562.50 184.49 L 565.62 184.49 L 567.19 184.49 L 571.88 184.49 L 573.44 184.49 L 573.44 184.49 L 578.12 184.49 L 582.81 184.49 L 584.38 184.49 L 585.94 184.49 L 587.50 184.49 L 589.06 184.49 L 595.31 209.15 L 596.88 180.68 L 598.44 159.15 L 600.00 169.92 L 604.69 169.92 L 606.25 169.92 L 606.25 169.92 L 609.38 193.05 L 610.94 193.05 L 615.62 193.05 L 617.19 193.05 L 618.75 193.05 L 620.31 193.05 L 621.88 193.05 L 621.88 193.05 L 621.88 193.05 L 621.88 193.05 L 629.69 193.05 L 632.81 193.05 L 637.50 193.05 L 639.06 193.05 L 642.19 193.05 L 643.75 193.05 L 650.00 193.05" /><text  class="poloto_text poloto_legend_text" x="675" y="150" >Refinance 20</text><line  class="poloto_line poloto_legend_icon poloto1stroke poloto1legend" stroke="black" x1="680" x2="730" y1="131.25" y2="131.25" /><path  class="poloto_line poloto1stroke" fill="none" stroke="black" d=" M 150.00 345.68 L 151.56 368.31 L 156.25 334.58 L 157.81 324.24 L 159.38 333.73 L 159.38 333.73 L 162.50 304.07 L 167.19 301.53 L 168.75 312.29 L 170.31 300.25 L 171.88 311.02 L 173.44 290.85 L 178.12 321.69 L 179.69 290.85 L 179.69 290.85 L 182.81 290.85 L 182.81 290.85 L 189.06 250.17 L 190.62 282.71 L 192.19 290.85 L 193.75 301.53 L 195.31 280.59 L 201.56 260.00 L 203.12 257.37 L 204.69 252.12 L 206.25 240.08 L 210.94 245.34 L 212.50 268.14 L 215.62 260.00 L 217.19 257.37 L 221.88 248.81 L 223.44 258.73 L 225.00 258.73 L 225.00 258.73 L 228.12 258.73 L 232.81 260.00 L 234.38 281.44 L 234.38 281.44 L 235.94 269.41 L 237.50 289.58 L 239.06 281.44 L 243.75 282.71 L 245.31 281.44 L 246.88 281.44 L 246.88 281.44 L 248.44 282.71 L 250.00 289.58 L 254.69 290.85 L 256.25 294.66 L 257.81 294.66 L 259.38 294.66 L 260.94 294.66 L 267.19 289.58 L 268.75 278.81 L 270.31 281.44 L 271.88 281.44 L 271.88 281.44 L 278.12 268.14 L 279.69 270.68 L 281.25 261.27 L 287.50 215.85 L 289.06 197.03 L 290.62 207.80 L 292.19 215.85 L 293.75 238.56 L 298.44 225.17 L 300.00 218.47 L 301.56 239.92 L 303.12 250.17 L 309.38 250.17 L 310.94 238.56 L 312.50 249.32 L 314.06 260.00 L 315.62 272.03 L 321.88 280.08 L 323.44 269.41 L 325.00 258.73 L 326.56 251.44 L 331.25 257.37 L 334.38 260.00 L 335.94 258.73 L 342.19 260.00 L 342.19 260.00 L 342.19 260.00 L 342.19 260.00 L 342.19 260.00 L 342.19 260.00 L 342.19 260.00 L 342.19 260.00 L 342.19 260.00 L 342.19 260.00 L 342.19 260.00 L 342.19 260.00 L 353.12 280.08 L 356.25 282.71 L 357.81 301.53 L 359.38 304.07 L 364.06 301.27 L 365.62 301.27 L 367.19 290.85 L 368.75 294.66 L 370.31 278.81 L 375.00 270.68 L 375.00 270.68 L 376.56 270.68 L 379.69 281.44 L 379.69 281.44 L 387.50 278.81 L 389.06 260.00 L 390.62 260.00 L 396.88 246.19 L 400.00 234.58 L 400.00 234.58 L 403.12 247.54 L 409.38 215.85 L 409.38 215.85 L 409.38 215.85 L 409.38 215.85 L 409.38 215.85 L 409.38 215.85 L 409.38 215.85 L 409.38 215.85 L 409.38 215.85 L 414.06 215.85 L 423.44 202.37 L 429.69 203.73 L 432.81 203.73 L 434.38 203.73 L 434.38 203.73 L 442.19 203.73 L 443.75 203.73 L 443.75 203.73 L 443.75 203.73 L 443.75 203.73 L 462.50 203.73 L 464.06 203.73 L 473.44 118.81 L 475.00 102.97 L 475.00 102.97 L 535.94 155.34 L 539.06 155.34 L 540.62 155.34 L 543.75 174.15 L 545.31 175.51 L 545.31 175.51 L 551.56 175.51 L 553.12 175.51 L 554.69 175.51 L 556.25 175.51 L 560.94 175.51 L 562.50 175.51 L 565.62 175.51 L 567.19 175.51 L 571.88 175.51 L 573.44 175.51 L 573.44 175.51 L 578.12 175.51 L 582.81 175.51 L 584.38 175.51 L 585.94 175.51 L 587.50 175.51 L 589.06 175.51 L 595.31 156.36 L 596.88 145.93 L 598.44 144.58 L 600.00 147.37 L 604.69 147.37 L 606.25 147.37 L 606.25 147.37 L 609.38 167.46 L 610.94 167.46 L 615.62 167.46 L 617.19 167.46 L 618.75 167.46 L 620.31 167.46 L 621.88 167.46 L 621.88 167.46 L 628.12 167.46 L 628.12 167.46 L 629.69 167.46 L 632.81 167.46 L 637.50 167.46 L 639.06 167.46 L 642.19 167.46 L 643.75 167.46 L 650.00 167.46" /><text  class="poloto_text poloto_legend_text" x="675" y="200" >Refinance 30</text><line  class="poloto_line poloto_legend_icon poloto2stroke poloto2legend" stroke="black" x1="680" x2="730" y1="181.25" y2="181.25" /><path  class="poloto_line poloto2stroke" fill="none" stroke="black" d=" M 150.00 343.31 L 151.56 351.36 L 156.25 338.81 L 157.81 328.98 L 159.38 330.85 L 159.38 330.85 L 162.50 310.25 L 167.19 308.47 L 168.75 319.15 L 170.31 307.54 L 171.88 318.22 L 173.44 297.71 L 178.12 307.54 L 179.69 286.95 L 181.25 286.95 L 182.81 286.02 L 184.38 260.00 L 189.06 264.58 L 190.62 276.27 L 192.19 286.95 L 193.75 277.20 L 195.31 265.51 L 201.56 256.61 L 203.12 242.12 L 204.69 240.17 L 206.25 238.14 L 210.94 242.12 L 212.50 258.73 L 215.62 256.61 L 217.19 254.66 L 221.88 244.07 L 223.44 255.59 L 225.00 244.07 L 225.00 244.07 L 228.12 244.07 L 232.81 246.02 L 234.38 264.58 L 234.38 264.58 L 235.94 255.59 L 237.50 256.61 L 239.06 257.54 L 243.75 265.51 L 245.31 256.61 L 246.88 256.61 L 246.88 256.61 L 248.44 266.44 L 250.00 267.46 L 254.69 268.39 L 256.25 277.20 L 257.81 277.20 L 259.38 279.07 L 260.94 279.07 L 267.19 275.25 L 268.75 264.58 L 270.31 266.44 L 271.88 265.51 L 271.88 265.51 L 278.12 255.59 L 279.69 255.59 L 281.25 245.00 L 287.50 202.12 L 289.06 171.78 L 290.62 190.34 L 292.19 202.12 L 293.75 212.80 L 298.44 203.05 L 300.00 202.12 L 301.56 221.61 L 303.12 223.56 L 309.38 223.56 L 310.94 211.86 L 312.50 221.61 L 314.06 232.29 L 315.62 255.59 L 321.88 256.61 L 323.44 245.00 L 325.00 224.58 L 326.56 221.61 L 331.25 241.10 L 334.38 223.56 L 335.94 222.54 L 342.19 242.12 L 342.19 242.12 L 342.19 242.12 L 342.19 242.12 L 342.19 242.12 L 342.19 242.12 L 345.31 242.12 L 345.31 242.12 L 345.31 242.12 L 345.31 242.12 L 345.31 242.12 L 345.31 242.12 L 353.12 254.66 L 356.25 256.61 L 357.81 275.25 L 359.38 287.88 L 364.06 286.95 L 365.62 286.95 L 367.19 265.51 L 368.75 268.39 L 370.31 254.66 L 375.00 265.51 L 375.00 265.51 L 376.56 257.54 L 379.69 266.44 L 379.69 266.44 L 387.50 264.58 L 389.06 246.02 L 390.62 245.00 L 396.88 220.59 L 400.00 211.86 L 400.00 211.86 L 403.12 222.54 L 409.38 210.85 L 409.38 210.85 L 409.38 210.85 L 409.38 210.85 L 409.38 210.85 L 409.38 210.85 L 409.38 210.85 L 409.38 210.85 L 414.06 210.85 L 414.06 209.83 L 423.44 197.03 L 429.69 175.51 L 429.69 175.51 L 434.38 175.51 L 434.38 175.51 L 442.19 175.51 L 443.75 175.51 L 443.75 175.51 L 443.75 175.51 L 443.75 175.51 L 462.50 175.51 L 464.06 175.51 L 473.44 127.03 L 475.00 100.00 L 475.00 100.00 L 535.94 146.44 L 539.06 146.44 L 540.62 146.44 L 542.19 150.76 L 545.31 160.59 L 545.31 160.59 L 551.56 160.59 L 553.12 160.59 L 554.69 160.59 L 556.25 160.59 L 560.94 160.59 L 562.50 160.59 L 565.62 160.59 L 567.19 160.59 L 571.88 160.59 L 573.44 160.59 L 573.44 160.59 L 578.12 160.59 L 582.81 160.59 L 584.38 160.59 L 585.94 160.59 L 587.50 160.59 L 589.06 160.59 L 595.31 144.24 L 596.88 152.88 L 598.44 132.37 L 600.00 152.88 L 604.69 152.88 L 606.25 152.88 L 606.25 152.88 L 609.38 152.88 L 610.94 152.88 L 615.62 152.88 L 617.19 152.88 L 618.75 152.88 L 620.31 152.88 L 621.88 152.88 L 621.88 152.88 L 628.12 152.88 L 628.12 152.88 L 629.69 152.88 L 632.81 152.88 L 637.50 152.88 L 639.06 152.88 L 642.19 152.88 L 643.75 152.88 L 650.00 152.88" /><text  class="poloto_labels poloto_text poloto_title" x="400" y="37.5" >lower.com purchase rates</text><text  class="poloto_labels poloto_text poloto_xname" x="400" y="481.25" >Date</text><text  class="poloto_labels poloto_text poloto_yname" transform="rotate(-90,37.5,250)" x="37.5" y="250" >Rate (%)</text><text  class="poloto_tick_labels poloto_text" dominant-baseline="middle" text-anchor="start" x="150" y="70" ></text><line  class="poloto_axis_lines" stroke="black" x1="150" x2="144" y1="390.2542372881356" y2="390.2542372881356" /><line  class="poloto_tick_line" stroke="black" x1="150" x2="650" y1="390.2542372881356" y2="390.2542372881356" /><text  class="poloto_tick_labels poloto_text" dominant-baseline="middle" text-anchor="end" x="135" y="390.2542372881356" >3.625</text><line  class="poloto_axis_lines" stroke="black" x1="150" x2="144" y1="379.66101694915255" y2="379.66101694915255" /><line  class="poloto_tick_line" stroke="black" x1="150" x2="650" y1="379.66101694915255" y2="379.66101694915255" /><text  class="poloto_tick_labels poloto_text" dominant-baseline="middle" text-anchor="end" x="135" y="379.66101694915255" >3.75</text><line  class="poloto_axis_lines" stroke="black" x1="150" x2="144" y1="369.06779661016947" y2="369.06779661016947" /><line  class="poloto_tick_line" stroke="black" x1="150" x2="650" y1="369.06779661016947" y2="369.06779661016947" /><text  class="poloto_tick_labels poloto_text" dominant-baseline="middle" text-anchor="end" x="135" y="369.06779661016947" >3.875</text><line  class="poloto_axis_lines" stroke="black" x1="150" x2="144" y1="358.47457627118644" y2="358.47457627118644" /><line  class="poloto_tick_line" stroke="black" x1="150" x2="650" y1="358.47457627118644" y2="358.47457627118644" /><text  class="poloto_tick_labels poloto_text" dominant-baseline="middle" text-anchor="end" x="135" y="358.47457627118644" >4</text><line  class="poloto_axis_lines" stroke="black" x1="150" x2="144" y1="347.8813559322034" y2="347.8813559322034" /><line  class="poloto_tick_line" stroke="black" x1="150" x2="650" y1="347.8813559322034" y2="347.8813559322034" /><text  class="poloto_tick_labels poloto_text" dominant-baseline="middle" text-anchor="end" x="135" y="347.8813559322034" >4.125</text><line  class="poloto_axis_lines" stroke="black" x1="150" x2="144" y1="337.2881355932203" y2="337.2881355932203" /><line  class="poloto_tick_line" stroke="black" x1="150" x2="650" y1="337.2881355932203" y2="337.2881355932203" /><text  class="poloto_tick_labels poloto_text" dominant-baseline="middle" text-anchor="end" x="135" y="337.2881355932203" >4.25</text><line  class="poloto_axis_lines" stroke="black" x1="150" x2="144" y1="326.6949152542373" y2="326.6949152542373" /><line  class="poloto_tick_line" stroke="black" x1="150" x2="650" y1="326.6949152542373" y2="326.6949152542373" /><text  class="poloto_tick_labels poloto_text" dominant-baseline="middle" text-anchor="end" x="135" y="326.6949152542373" >4.375</text><line  class="poloto_axis_lines" stroke="black" x1="150" x2="144" y1="316.10169491525426" y2="316.10169491525426" /><line  class="poloto_tick_line" stroke="black" x1="150" x2="650" y1="316.10169491525426" y2="316.10169491525426" /><text  class="poloto_tick_labels poloto_text" dominant-baseline="middle" text-anchor="end" x="135" y="316.10169491525426" >4.5</text><line  class="poloto_axis_lines" stroke="black" x1="150" x2="144" y1="305.50847457627117" y2="305.50847457627117" /><line  class="poloto_tick_line" stroke="black" x1="150" x2="650" y1="305.50847457627117" y2="305.50847457627117" /><text  class="poloto_tick_labels poloto_text" dominant-baseline="middle" text-anchor="end" x="135" y="305.50847457627117" >4.625</text><line  class="poloto_axis_lines" stroke="black" x1="150" x2="144" y1="294.91525423728814" y2="294.91525423728814" /><line  class="poloto_tick_line" stroke="black" x1="150" x2="650" y1="294.91525423728814" y2="294.91525423728814" /><text  class="poloto_tick_labels poloto_text" dominant-baseline="middle" text-anchor="end" x="135" y="294.91525423728814" >4.75</text><line  class="poloto_axis_lines" stroke="black" x1="150" x2="144" y1="284.3220338983051" y2="284.3220338983051" /><line  class="poloto_tick_line" stroke="black" x1="150" x2="650" y1="284.3220338983051" y2="284.3220338983051" /><text  class="poloto_tick_labels poloto_text" dominant-baseline="middle" text-anchor="end" x="135" y="284.3220338983051" >4.875</text><line  class="poloto_axis_lines" stroke="black" x1="150" x2="144" y1="273.728813559322" y2="273.728813559322" /><line  class="poloto_tick_line" stroke="black" x1="150" x2="650" y1="273.728813559322" y2="273.728813559322" /><text  class="poloto_tick_labels poloto_text" dominant-baseline="middle" text-anchor="end" x="135" y="273.728813559322" >5</text><line  class="poloto_axis_lines" stroke="black" x1="150" x2="144" y1="263.135593220339" y2="263.135593220339" /><line  class="poloto_tick_line" stroke="black" x1="150" x2="650" y1="263.135593220339" y2="263.135593220339" /><text  class="poloto_tick_labels poloto_text" dominant-baseline="middle" text-anchor="end" x="135" y="263.135593220339" >5.125</text><line  class="poloto_axis_lines" stroke="black" x1="150" x2="144" y1="252.54237288135596" y2="252.54237288135596" /><line  class="poloto_tick_line" stroke="black" x1="150" x2="650" y1="252.54237288135596" y2="252.54237288135596" /><text  class="poloto_tick_labels poloto_text" dominant-baseline="middle" text-anchor="end" x="135" y="252.54237288135596" >5.25</text><line  class="poloto_axis_lines" stroke="black" x1="150" x2="144" y1="241.94915254237287" y2="241.94915254237287" /><line  class="poloto_tick_line" stroke="black" x1="150" x2="650" y1="241.94915254237287" y2="241.94915254237287" /><text  class="poloto_tick_labels poloto_text" dominant-baseline="middle" text-anchor="end" x="135" y="241.94915254237287" >5.375</text><line  class="poloto_axis_lines" stroke="black" x1="150" x2="144" y1="231.35593220338984" y2="231.35593220338984" /><line  class="poloto_tick_line" stroke="black" x1="150" x2="650" y1="231.35593220338984" y2="231.35593220338984" /><text  class="poloto_tick_labels poloto_text" dominant-baseline="middle" text-anchor="end" x="135" y="231.35593220338984" >5.5</text><line  class="poloto_axis_lines" stroke="black" x1="150" x2="144" y1="220.7627118644068" y2="220.7627118644068" /><line  class="poloto_tick_line" stroke="black" x1="150" x2="650" y1="220.7627118644068" y2="220.7627118644068" /><text  class="poloto_tick_labels poloto_text" dominant-baseline="middle" text-anchor="end" x="135" y="220.7627118644068" >5.625</text><line  class="poloto_axis_lines" stroke="black" x1="150" x2="144" y1="210.16949152542372" y2="210.16949152542372" /><line  class="poloto_tick_line" stroke="black" x1="150" x2="650" y1="210.16949152542372" y2="210.16949152542372" /><text  class="poloto_tick_labels poloto_text" dominant-baseline="middle" text-anchor="end" x="135" y="210.16949152542372" >5.75</text><line  class="poloto_axis_lines" stroke="black" x1="150" x2="144" y1="199.5762711864407" y2="199.5762711864407" /><line  class="poloto_tick_line" stroke="black" x1="150" x2="650" y1="199.5762711864407" y2="199.5762711864407" /><text  class="poloto_tick_labels poloto_text" dominant-baseline="middle" text-anchor="end" x="135" y="199.5762711864407" >5.875</text><line  class="poloto_axis_lines" stroke="black" x1="150" x2="144" y1="188.98305084745766" y2="188.98305084745766" /><line  class="poloto_tick_line" stroke="black" x1="150" x2="650" y1="188.98305084745766" y2="188.98305084745766" /><text  class="poloto_tick_labels poloto_text" dominant-baseline="middle" text-anchor="end" x="135" y="188.98305084745766" >6</text><line  class="poloto_axis_lines" stroke="black" x1="150" x2="144" y1="178.38983050847457" y2="178.38983050847457" /><line  class="poloto_tick_line" stroke="black" x1="150" x2="650" y1="178.38983050847457" y2="178.38983050847457" /><text  class="poloto_tick_labels poloto_text" dominant-baseline="middle" text-anchor="end" x="135" y="178.38983050847457" >6.125</text><line  class="poloto_axis_lines" stroke="black" x1="150" x2="144" y1="167.7966101694915" y2="167.7966101694915" /><line  class="poloto_tick_line" stroke="black" x1="150" x2="650" y1="167.7966101694915" y2="167.7966101694915" /><text  class="poloto_tick_labels poloto_text" dominant-baseline="middle" text-anchor="end" x="135" y="167.7966101694915" >6.25</text><line  class="poloto_axis_lines" stroke="black" x1="150" x2="144" y1="157.2033898305085" y2="157.2033898305085" /><line  class="poloto_tick_line" stroke="black" x1="150" x2="650" y1="157.2033898305085" y2="157.2033898305085" /><text  class="poloto_tick_labels poloto_text" dominant-baseline="middle" text-anchor="end" x="135" y="157.2033898305085" >6.375</text><line  class="poloto_axis_lines" stroke="black" x1="150" x2="144" y1="146.61016949152543" y2="146.61016949152543" /><line  class="poloto_tick_line" stroke="black" x1="150" x2="650" y1="146.61016949152543" y2="146.61016949152543" /><text  class="poloto_tick_labels poloto_text" dominant-baseline="middle" text-anchor="end" x="135" y="146.61016949152543" >6.5</text><line  class="poloto_axis_lines" stroke="black" x1="150" x2="144" y1="136.01694915254234" y2="136.01694915254234" /><line  class="poloto_tick_line" stroke="black" x1="150" x2="650" y1="136.01694915254234" y2="136.01694915254234" /><text  class="poloto_tick_labels poloto_text" dominant-baseline="middle" text-anchor="end" x="135" y="136.01694915254234" >6.625</text><line  class="poloto_axis_lines" stroke="black" x1="150" x2="144" y1="125.42372881355936" y2="125.42372881355936" /><line  class="poloto_tick_line" stroke="black" x1="150" x2="650" y1="125.42372881355936" y2="125.42372881355936" /><text  class="poloto_tick_labels poloto_text" dominant-baseline="middle" text-anchor="end" x="135" y="125.42372881355936" >6.75</text><line  class="poloto_axis_lines" stroke="black" x1="150" x2="144" y1="114.83050847457628" y2="114.83050847457628" /><line  class="poloto_tick_line" stroke="black" x1="150" x2="650" y1="114.83050847457628" y2="114.83050847457628" /><text  class="poloto_tick_labels poloto_text" dominant-baseline="middle" text-anchor="end" x="135" y="114.83050847457628" >6.875</text><line  class="poloto_axis_lines" stroke="black" x1="150" x2="144" y1="104.23728813559319" y2="104.23728813559319" /><line  class="poloto_tick_line" stroke="black" x1="150" x2="650" y1="104.23728813559319" y2="104.23728813559319" /><text  class="poloto_tick_labels poloto_text" dominant-baseline="middle" text-anchor="end" x="135" y="104.23728813559319" >7</text><text  class="poloto_tick_labels poloto_text" dominant-baseline="middle" text-anchor="start" x="440.00000000000006" y="70" >¹2022-05-01 00:00:00 UTC in Months</text><line  class="poloto_axis_lines" stroke="black" x1="220.3125" x2="220.3125" y1="400" y2="405" /><line  class="poloto_tick_line" stroke="black" x1="220.3125" x2="220.3125" y1="400" y2="100" /><text  class="poloto_tick_labels poloto_text" dominant-baseline="start" text-anchor="middle" x="220.3125" y="430" >2022 May¹</text><line  class="poloto_axis_lines" stroke="black" x1="315.625" x2="315.625" y1="400" y2="405" /><line  class="poloto_tick_line" stroke="black" x1="315.625" x2="315.625" y1="400" y2="100" /><text  class="poloto_tick_labels poloto_text" dominant-baseline="start" text-anchor="middle" x="315.625" y="430" >2022 Jul</text><line  class="poloto_axis_lines" stroke="black" x1="412.5" x2="412.5" y1="400" y2="405" /><line  class="poloto_tick_line" stroke="black" x1="412.5" x2="412.5" y1="400" y2="100" /><text  class="poloto_tick_labels poloto_text" dominant-baseline="start" text-anchor="middle" x="412.5" y="430" >2022 Sep</text><line  class="poloto_axis_lines" stroke="black" x1="507.8125" x2="507.8125" y1="400" y2="405" /><line  class="poloto_tick_line" stroke="black" x1="507.8125" x2="507.8125" y1="400" y2="100" /><text  class="poloto_tick_labels poloto_text" dominant-baseline="start" text-anchor="middle" x="507.8125" y="430" >2022 Nov</text><line  class="poloto_axis_lines" stroke="black" x1="603.125" x2="603.125" y1="400" y2="405" /><line  class="poloto_tick_line" stroke="black" x1="603.125" x2="603.125" y1="400" y2="100" /><text  class="poloto_tick_labels poloto_text" dominant-baseline="start" text-anchor="middle" x="603.125" y="430" >2023 Jan</text><path  stroke="black" fill="none" class="poloto_axis_lines" d=" M 150 400 L 650 400" /><path  stroke="black" fill="none" class="poloto_axis_lines" d=" M 150 400 L 150 100" /></svg>