<svg class="poloto" width="800" height="500" viewBox="0 0 800 500" xmlns="http://www.w3.org/2000/svg"><style>.poloto{stroke-linecap:round;stroke-linejoin:round;font-family:Roboto,sans-serif;font-size:16px;}.poloto_background{fill:#262626;}.poloto_scatter{stroke-width:7}.poloto_tick_line{stroke:dimgray;stroke-width:0.5}.poloto_line{stroke-width:2}.poloto_text{fill: white;}.poloto_axis_lines{stroke: white;stroke-width:3;fill:none;stroke-dasharray:none}.poloto_title{font-size:24px;dominant-baseline:start;text-anchor:middle;}.poloto_xname{font-size:24px;dominant-baseline:start;text-anchor:middle;}.poloto_yname{font-size:24px;dominant-baseline:start;text-anchor:middle;}.poloto0stroke{stroke:blue;}.poloto1stroke{stroke:red;}.poloto2stroke{stroke:green;}.poloto3stroke{stroke:gold;}.poloto4stroke{stroke:aqua;}.poloto5stroke{stroke:lime;}.poloto6stroke{stroke:orange;}.poloto7stroke{stroke:chocolate;}.poloto0fill{fill:blue;}.poloto1fill{fill:red;}.poloto2fill{fill:green;}.poloto3fill{fill:gold;}.poloto4fill{fill:aqua;}.poloto5fill{fill:lime;}.poloto6fill{fill:orange;}.poloto7fill{fill:chocolate;}</style><circle  r="1e5" class="poloto_background" /><text  class="poloto_text poloto_legend_text" x="675" y="100" >Refinance 15</text><line  class="poloto_line poloto_legend_icon poloto0stroke poloto0legend" stroke="black" x1="680" x2="730" y1="81.25" y2="81.25" /><path  class="poloto_line poloto0stroke" fill="none" stroke="black" d=" M 150.00 392.46 L 151.85 400.00 L 157.41 389.32 L 159.26 380.17 L 161.11 389.32 L 161.11 389.32 L 164.81 358.81 L 170.37 357.20 L 172.22 367.88 L 174.07 344.83 L 175.93 346.44 L 177.78 341.61 L 183.33 343.22 L 185.19 336.78 L 185.19 336.78 L 188.89 337.37 L 190.74 314.32 L 196.30 324.32 L 198.15 327.54 L 200.00 327.54 L 201.85 326.69 L 203.70 321.78 L 211.11 278.73 L 212.96 297.88 L 214.81 283.05 L 216.67 277.29 L 216.67 277.29 L 224.07 299.58 L 227.78 303.64 L 229.63 294.58 L 235.19 283.81 L 237.04 305.25 L 238.89 294.58 L 238.89 294.58 L 242.59 292.88 L 248.15 296.19 L 250.00 306.86 L 250.00 306.86 L 251.85 297.80 L 253.70 308.56 L 255.56 292.88 L 261.11 325.08 L 262.96 324.32 L 264.81 306.86 L 264.81 306.86 L 266.67 314.32 L 268.52 317.63 L 274.07 317.63 L 275.93 329.15 L 277.78 329.15 L 279.63 329.15 L 281.48 329.15 L 288.89 317.63 L 290.74 314.32 L 292.59 315.93 L 294.44 315.93 L 294.44 315.93 L 301.85 305.25 L 303.70 305.25 L 305.56 296.19 L 312.96 281.36 L 314.81 250.76 L 316.67 254.15 L 318.52 254.15 L 320.37 275.59 L 325.93 254.15 L 327.78 254.15 L 329.63 273.90 L 331.48 277.29 L 338.89 277.29 L 340.74 275.59 L 342.59 280.59 L 344.44 285.51 L 346.30 296.19 L 353.70 303.64 L 355.56 294.58 L 357.41 287.12 L 359.26 283.81 L 364.81 285.51 L 368.52 285.51 L 370.37 283.81 L 377.78 282.20 L 377.78 282.20 L 377.78 282.20 L 377.78 282.20 L 377.78 282.20 L 377.78 282.20 L 381.48 282.20 L 381.48 282.20 L 381.48 282.20 L 381.48 282.20 L 381.48 282.20 L 381.48 282.20 L 390.74 294.58 L 394.44 297.80 L 396.30 325.93 L 398.15 329.15 L 403.70 329.15 L 405.56 327.54 L 407.41 305.25 L 409.26 299.49 L 411.11 285.51 L 416.67 296.19 L 416.67 296.19 L 418.52 287.12 L 422.22 296.19 L 422.22 296.19 L 431.48 296.19 L 433.33 262.46 L 435.19 282.20 L 442.59 248.39 L 446.30 248.39 L 446.30 248.39 L 450.00 260.76 L 457.41 254.15 L 457.41 254.15 L 457.41 254.15 L 457.41 254.15 L 457.41 254.15 L 457.41 254.15 L 457.41 254.15 L 457.41 254.15 L 457.41 254.15 L 462.96 254.15 L 474.07 232.63 L 481.48 235.17 L 481.48 235.17 L 487.04 235.17 L 494.44 235.17 L 496.30 235.17 L 496.30 235.17 L 496.30 235.17 L 496.30 235.17 L 496.30 235.17 L 520.37 235.17 L 522.22 235.17 L 533.33 139.75 L 535.19 130.68 L 537.04 130.68 L 603.70 159.15 L 611.11 159.15 L 612.96 159.15 L 614.81 175.51 L 618.52 184.49 L 618.52 184.49 L 625.93 184.49 L 627.78 184.49 L 629.63 184.49 L 631.48 184.49 L 637.04 184.49 L 638.89 184.49 L 642.59 184.49 L 644.44 184.49 L 650.00 184.49" /><text  class="poloto_text poloto_legend_text" x="675" y="150" >Refinance 20</text><line  class="poloto_line poloto_legend_icon poloto1stroke poloto1legend" stroke="black" x1="680" x2="730" y1="131.25" y2="131.25" /><path  class="poloto_line poloto1stroke" fill="none" stroke="black" d=" M 150.00 345.68 L 151.85 368.31 L 157.41 334.58 L 159.26 324.24 L 161.11 333.73 L 161.11 333.73 L 164.81 304.07 L 170.37 301.53 L 172.22 312.29 L 174.07 300.25 L 175.93 311.02 L 177.78 290.85 L 183.33 321.69 L 185.19 290.85 L 185.19 290.85 L 188.89 290.85 L 188.89 290.85 L 196.30 250.17 L 198.15 282.71 L 200.00 290.85 L 201.85 301.53 L 203.70 280.59 L 211.11 260.00 L 212.96 257.37 L 214.81 252.12 L 216.67 240.08 L 222.22 245.34 L 224.07 268.14 L 227.78 260.00 L 229.63 257.37 L 235.19 248.81 L 237.04 258.73 L 238.89 258.73 L 238.89 258.73 L 242.59 258.73 L 248.15 260.00 L 250.00 281.44 L 250.00 281.44 L 251.85 269.41 L 253.70 289.58 L 255.56 281.44 L 261.11 282.71 L 262.96 281.44 L 264.81 281.44 L 264.81 281.44 L 266.67 282.71 L 268.52 289.58 L 274.07 290.85 L 275.93 294.66 L 277.78 294.66 L 279.63 294.66 L 281.48 294.66 L 288.89 289.58 L 290.74 278.81 L 292.59 281.44 L 294.44 281.44 L 294.44 281.44 L 301.85 268.14 L 303.70 270.68 L 305.56 261.27 L 312.96 215.85 L 314.81 197.03 L 316.67 207.80 L 318.52 215.85 L 320.37 238.56 L 325.93 225.17 L 327.78 218.47 L 329.63 239.92 L 331.48 250.17 L 338.89 250.17 L 340.74 238.56 L 342.59 249.32 L 344.44 260.00 L 346.30 272.03 L 353.70 280.08 L 355.56 269.41 L 357.41 258.73 L 359.26 251.44 L 364.81 257.37 L 368.52 260.00 L 370.37 258.73 L 377.78 260.00 L 377.78 260.00 L 377.78 260.00 L 377.78 260.00 L 377.78 260.00 L 377.78 260.00 L 377.78 260.00 L 377.78 260.00 L 377.78 260.00 L 377.78 260.00 L 377.78 260.00 L 377.78 260.00 L 390.74 280.08 L 394.44 282.71 L 396.30 301.53 L 398.15 304.07 L 403.70 301.27 L 405.56 301.27 L 407.41 290.85 L 409.26 294.66 L 411.11 278.81 L 416.67 270.68 L 416.67 270.68 L 418.52 270.68 L 422.22 281.44 L 422.22 281.44 L 431.48 278.81 L 433.33 260.00 L 435.19 260.00 L 442.59 246.19 L 446.30 234.58 L 446.30 234.58 L 450.00 247.54 L 457.41 215.85 L 457.41 215.85 L 457.41 215.85 L 457.41 215.85 L 457.41 215.85 L 457.41 215.85 L 457.41 215.85 L 457.41 215.85 L 457.41 215.85 L 462.96 215.85 L 474.07 202.37 L 481.48 203.73 L 485.19 203.73 L 487.04 203.73 L 487.04 203.73 L 496.30 203.73 L 498.15 203.73 L 498.15 203.73 L 498.15 203.73 L 498.15 203.73 L 520.37 203.73 L 522.22 203.73 L 533.33 118.81 L 535.19 102.97 L 535.19 102.97 L 607.41 155.34 L 611.11 155.34 L 612.96 155.34 L 616.67 174.15 L 618.52 175.51 L 618.52 175.51 L 625.93 175.51 L 627.78 175.51 L 629.63 175.51 L 631.48 175.51 L 637.04 175.51 L 638.89 175.51 L 642.59 175.51 L 644.44 175.51 L 650.00 175.51" /><text  class="poloto_text poloto_legend_text" x="675" y="200" >Refinance 30</text><line  class="poloto_line poloto_legend_icon poloto2stroke poloto2legend" stroke="black" x1="680" x2="730" y1="181.25" y2="181.25" /><path  class="poloto_line poloto2stroke" fill="none" stroke="black" d=" M 150.00 343.31 L 151.85 351.36 L 157.41 338.81 L 159.26 328.98 L 161.11 330.85 L 161.11 330.85 L 164.81 310.25 L 170.37 308.47 L 172.22 319.15 L 174.07 307.54 L 175.93 318.22 L 177.78 297.71 L 183.33 307.54 L 185.19 286.95 L 187.04 286.95 L 188.89 286.02 L 190.74 260.00 L 196.30 264.58 L 198.15 276.27 L 200.00 286.95 L 201.85 277.20 L 203.70 265.51 L 211.11 256.61 L 212.96 242.12 L 214.81 240.17 L 216.67 238.14 L 222.22 242.12 L 224.07 258.73 L 227.78 256.61 L 229.63 254.66 L 235.19 244.07 L 237.04 255.59 L 238.89 244.07 L 238.89 244.07 L 242.59 244.07 L 248.15 246.02 L 250.00 264.58 L 250.00 264.58 L 251.85 255.59 L 253.70 256.61 L 255.56 257.54 L 261.11 265.51 L 262.96 256.61 L 264.81 256.61 L 264.81 256.61 L 266.67 266.44 L 268.52 267.46 L 274.07 268.39 L 275.93 277.20 L 277.78 277.20 L 279.63 279.07 L 281.48 279.07 L 288.89 275.25 L 290.74 264.58 L 292.59 266.44 L 294.44 265.51 L 294.44 265.51 L 301.85 255.59 L 303.70 255.59 L 305.56 245.00 L 312.96 202.12 L 314.81 171.78 L 316.67 190.34 L 318.52 202.12 L 320.37 212.80 L 325.93 203.05 L 327.78 202.12 L 329.63 221.61 L 331.48 223.56 L 338.89 223.56 L 340.74 211.86 L 342.59 221.61 L 344.44 232.29 L 346.30 255.59 L 353.70 256.61 L 355.56 245.00 L 357.41 224.58 L 359.26 221.61 L 364.81 241.10 L 368.52 223.56 L 370.37 222.54 L 377.78 242.12 L 377.78 242.12 L 377.78 242.12 L 377.78 242.12 L 377.78 242.12 L 377.78 242.12 L 381.48 242.12 L 381.48 242.12 L 381.48 242.12 L 381.48 242.12 L 381.48 242.12 L 381.48 242.12 L 390.74 254.66 L 394.44 256.61 L 396.30 275.25 L 398.15 287.88 L 403.70 286.95 L 405.56 286.95 L 407.41 265.51 L 409.26 268.39 L 411.11 254.66 L 416.67 265.51 L 416.67 265.51 L 418.52 257.54 L 422.22 266.44 L 422.22 266.44 L 431.48 264.58 L 433.33 246.02 L 435.19 245.00 L 442.59 220.59 L 446.30 211.86 L 446.30 211.86 L 450.00 222.54 L 457.41 210.85 L 457.41 210.85 L 457.41 210.85 L 457.41 210.85 L 457.41 210.85 L 457.41 210.85 L 457.41 210.85 L 457.41 210.85 L 462.96 210.85 L 462.96 209.83 L 474.07 197.03 L 481.48 175.51 L 481.48 175.51 L 487.04 175.51 L 487.04 175.51 L 496.30 175.51 L 498.15 175.51 L 498.15 175.51 L 498.15 175.51 L 498.15 175.51 L 520.37 175.51 L 522.22 175.51 L 533.33 127.03 L 535.19 100.00 L 535.19 100.00 L 607.41 146.44 L 611.11 146.44 L 612.96 146.44 L 614.81 150.76 L 618.52 160.59 L 618.52 160.59 L 625.93 160.59 L 627.78 160.59 L 629.63 160.59 L 631.48 160.59 L 637.04 160.59 L 638.89 160.59 L 642.59 160.59 L 644.44 160.59 L 650.00 160.59" /><text  class="poloto_labels poloto_text poloto_title" x="400" y="37.5" >lower.com purchase rates</text><text  class="poloto_labels poloto_text poloto_xname" x="400" y="481.25" >Date</text><text  class="poloto_labels poloto_text poloto_yname" transform="rotate(-90,37.5,250)" x="37.5" y="250" >Rate (%)</text><text  class="poloto_tick_labels poloto_text" dominant-baseline="middle" text-anchor="start" x="150" y="70" ></text><line  class="poloto_axis_lines" stroke="black" x1="150" x2="144" y1="390.2542372881356" y2="390.2542372881356" /><line  class="poloto_tick_line" stroke="black" x1="150" x2="650" y1="390.2542372881356" y2="390.2542372881356" /><text  class="poloto_tick_labels poloto_text" dominant-baseline="middle" text-anchor="end" x="135" y="390.2542372881356" >3.625</text><line  class="poloto_axis_lines" stroke="black" x1="150" x2="144" y1="379.66101694915255" y2="379.66101694915255" /><line  class="poloto_tick_line" stroke="black" x1="150" x2="650" y1="379.66101694915255" y2="379.66101694915255" /><text  class="poloto_tick_labels poloto_text" dominant-baseline="middle" text-anchor="end" x="135" y="379.66101694915255" >3.75</text><line  class="poloto_axis_lines" stroke="black" x1="150" x2="144" y1="369.06779661016947" y2="369.06779661016947" /><line  class="poloto_tick_line" stroke="black" x1="150" x2="650" y1="369.06779661016947" y2="369.06779661016947" /><text  class="poloto_tick_labels poloto_text" dominant-baseline="middle" text-anchor="end" x="135" y="369.06779661016947" >3.875</text><line  class="poloto_axis_lines" stroke="black" x1="150" x2="144" y1="358.47457627118644" y2="358.47457627118644" /><line  class="poloto_tick_line" stroke="black" x1="150" x2="650" y1="358.47457627118644" y2="358.47457627118644" /><text  class="poloto_tick_labels poloto_text" dominant-baseline="middle" text-anchor="end" x="135" y="358.47457627118644" >4</text><line  class="poloto_axis_lines" stroke="black" x1="150" x2="144" y1="347.8813559322034" y2="347.8813559322034" /><line  class="poloto_tick_line" stroke="black" x1="150" x2="650" y1="347.8813559322034" y2="347.8813559322034" /><text  class="poloto_tick_labels poloto_text" dominant-baseline="middle" text-anchor="end" x="135" y="347.8813559322034" >4.125</text><line  class="poloto_axis_lines" stroke="black" x1="150" x2="144" y1="337.2881355932203" y2="337.2881355932203" /><line  class="poloto_tick_line" stroke="black" x1="150" x2="650" y1="337.2881355932203" y2="337.2881355932203" /><text  class="poloto_tick_labels poloto_text" dominant-baseline="middle" text-anchor="end" x="135" y="337.2881355932203" >4.25</text><line  class="poloto_axis_lines" stroke="black" x1="150" x2="144" y1="326.6949152542373" y2="326.6949152542373" /><line  class="poloto_tick_line" stroke="black" x1="150" x2="650" y1="326.6949152542373" y2="326.6949152542373" /><text  class="poloto_tick_labels poloto_text" dominant-baseline="middle" text-anchor="end" x="135" y="326.6949152542373" >4.375</text><line  class="poloto_axis_lines" stroke="black" x1="150" x2="144" y1="316.10169491525426" y2="316.10169491525426" /><line  class="poloto_tick_line" stroke="black" x1="150" x2="650" y1="316.10169491525426" y2="316.10169491525426" /><text  class="poloto_tick_labels poloto_text" dominant-baseline="middle" text-anchor="end" x="135" y="316.10169491525426" >4.5</text><line  class="poloto_axis_lines" stroke="black" x1="150" x2="144" y1="305.50847457627117" y2="305.50847457627117" /><line  class="poloto_tick_line" stroke="black" x1="150" x2="650" y1="305.50847457627117" y2="305.50847457627117" /><text  class="poloto_tick_labels poloto_text" dominant-baseline="middle" text-anchor="end" x="135" y="305.50847457627117" >4.625</text><line  class="poloto_axis_lines" stroke="black" x1="150" x2="144" y1="294.91525423728814" y2="294.91525423728814" /><line  class="poloto_tick_line" stroke="black" x1="150" x2="650" y1="294.91525423728814" y2="294.91525423728814" /><text  class="poloto_tick_labels poloto_text" dominant-baseline="middle" text-anchor="end" x="135" y="294.91525423728814" >4.75</text><line  class="poloto_axis_lines" stroke="black" x1="150" x2="144" y1="284.3220338983051" y2="284.3220338983051" /><line  class="poloto_tick_line" stroke="black" x1="150" x2="650" y1="284.3220338983051" y2="284.3220338983051" /><text  class="poloto_tick_labels poloto_text" dominant-baseline="middle" text-anchor="end" x="135" y="284.3220338983051" >4.875</text><line  class="poloto_axis_lines" stroke="black" x1="150" x2="144" y1="273.728813559322" y2="273.728813559322" /><line  class="poloto_tick_line" stroke="black" x1="150" x2="650" y1="273.728813559322" y2="273.728813559322" /><text  class="poloto_tick_labels poloto_text" dominant-baseline="middle" text-anchor="end" x="135" y="273.728813559322" >5</text><line  class="poloto_axis_lines" stroke="black" x1="150" x2="144" y1="263.135593220339" y2="263.135593220339" /><line  class="poloto_tick_line" stroke="black" x1="150" x2="650" y1="263.135593220339" y2="263.135593220339" /><text  class="poloto_tick_labels poloto_text" dominant-baseline="middle" text-anchor="end" x="135" y="263.135593220339" >5.125</text><line  class="poloto_axis_lines" stroke="black" x1="150" x2="144" y1="252.54237288135596" y2="252.54237288135596" /><line  class="poloto_tick_line" stroke="black" x1="150" x2="650" y1="252.54237288135596" y2="252.54237288135596" /><text  class="poloto_tick_labels poloto_text" dominant-baseline="middle" text-anchor="end" x="135" y="252.54237288135596" >5.25</text><line  class="poloto_axis_lines" stroke="black" x1="150" x2="144" y1="241.94915254237287" y2="241.94915254237287" /><line  class="poloto_tick_line" stroke="black" x1="150" x2="650" y1="241.94915254237287" y2="241.94915254237287" /><text  class="poloto_tick_labels poloto_text" dominant-baseline="middle" text-anchor="end" x="135" y="241.94915254237287" >5.375</text><line  class="poloto_axis_lines" stroke="black" x1="150" x2="144" y1="231.35593220338984" y2="231.35593220338984" /><line  class="poloto_tick_line" stroke="black" x1="150" x2="650" y1="231.35593220338984" y2="231.35593220338984" /><text  class="poloto_tick_labels poloto_text" dominant-baseline="middle" text-anchor="end" x="135" y="231.35593220338984" >5.5</text><line  class="poloto_axis_lines" stroke="black" x1="150" x2="144" y1="220.7627118644068" y2="220.7627118644068" /><line  class="poloto_tick_line" stroke="black" x1="150" x2="650" y1="220.7627118644068" y2="220.7627118644068" /><text  class="poloto_tick_labels poloto_text" dominant-baseline="middle" text-anchor="end" x="135" y="220.7627118644068" >5.625</text><line  class="poloto_axis_lines" stroke="black" x1="150" x2="144" y1="210.16949152542372" y2="210.16949152542372" /><line  class="poloto_tick_line" stroke="black" x1="150" x2="650" y1="210.16949152542372" y2="210.16949152542372" /><text  class="poloto_tick_labels poloto_text" dominant-baseline="middle" text-anchor="end" x="135" y="210.16949152542372" >5.75</text><line  class="poloto_axis_lines" stroke="black" x1="150" x2="144" y1="199.5762711864407" y2="199.5762711864407" /><line  class="poloto_tick_line" stroke="black" x1="150" x2="650" y1="199.5762711864407" y2="199.5762711864407" /><text  class="poloto_tick_labels poloto_text" dominant-baseline="middle" text-anchor="end" x="135" y="199.5762711864407" >5.875</text><line  class="poloto_axis_lines" stroke="black" x1="150" x2="144" y1="188.98305084745766" y2="188.98305084745766" /><line  class="poloto_tick_line" stroke="black" x1="150" x2="650" y1="188.98305084745766" y2="188.98305084745766" /><text  class="poloto_tick_labels poloto_text" dominant-baseline="middle" text-anchor="end" x="135" y="188.98305084745766" >6</text><line  class="poloto_axis_lines" stroke="black" x1="150" x2="144" y1="178.38983050847457" y2="178.38983050847457" /><line  class="poloto_tick_line" stroke="black" x1="150" x2="650" y1="178.38983050847457" y2="178.38983050847457" /><text  class="poloto_tick_labels poloto_text" dominant-baseline="middle" text-anchor="end" x="135" y="178.38983050847457" >6.125</text><line  class="poloto_axis_lines" stroke="black" x1="150" x2="144" y1="167.7966101694915" y2="167.7966101694915" /><line  class="poloto_tick_line" stroke="black" x1="150" x2="650" y1="167.7966101694915" y2="167.7966101694915" /><text  class="poloto_tick_labels poloto_text" dominant-baseline="middle" text-anchor="end" x="135" y="167.7966101694915" >6.25</text><line  class="poloto_axis_lines" stroke="black" x1="150" x2="144" y1="157.2033898305085" y2="157.2033898305085" /><line  class="poloto_tick_line" stroke="black" x1="150" x2="650" y1="157.2033898305085" y2="157.2033898305085" /><text  class="poloto_tick_labels poloto_text" dominant-baseline="middle" text-anchor="end" x="135" y="157.2033898305085" >6.375</text><line  class="poloto_axis_lines" stroke="black" x1="150" x2="144" y1="146.61016949152543" y2="146.61016949152543" /><line  class="poloto_tick_line" stroke="black" x1="150" x2="650" y1="146.61016949152543" y2="146.61016949152543" /><text  class="poloto_tick_labels poloto_text" dominant-baseline="middle" text-anchor="end" x="135" y="146.61016949152543" >6.5</text><line  class="poloto_axis_lines" stroke="black" x1="150" x2="144" y1="136.01694915254234" y2="136.01694915254234" /><line  class="poloto_tick_line" stroke="black" x1="150" x2="650" y1="136.01694915254234" y2="136.01694915254234" /><text  class="poloto_tick_labels poloto_text" dominant-baseline="middle" text-anchor="end" x="135" y="136.01694915254234" >6.625</text><line  class="poloto_axis_lines" stroke="black" x1="150" x2="144" y1="125.42372881355936" y2="125.42372881355936" /><line  class="poloto_tick_line" stroke="black" x1="150" x2="650" y1="125.42372881355936" y2="125.42372881355936" /><text  class="poloto_tick_labels poloto_text" dominant-baseline="middle" text-anchor="end" x="135" y="125.42372881355936" >6.75</text><line  class="poloto_axis_lines" stroke="black" x1="150" x2="144" y1="114.83050847457628" y2="114.83050847457628" /><line  class="poloto_tick_line" stroke="black" x1="150" x2="650" y1="114.83050847457628" y2="114.83050847457628" /><text  class="poloto_tick_labels poloto_text" dominant-baseline="middle" text-anchor="end" x="135" y="114.83050847457628" >6.875</text><line  class="poloto_axis_lines" stroke="black" x1="150" x2="144" y1="104.23728813559319" y2="104.23728813559319" /><line  class="poloto_tick_line" stroke="black" x1="150" x2="650" y1="104.23728813559319" y2="104.23728813559319" /><text  class="poloto_tick_labels poloto_text" dominant-baseline="middle" text-anchor="end" x="135" y="104.23728813559319" >7</text><text  class="poloto_tick_labels poloto_text" dominant-baseline="middle" text-anchor="start" x="440.00000000000006" y="70" >¹2022-05-01 00:00:00 UTC in Months</text><line  class="poloto_axis_lines" stroke="black" x1="233.33333333333576" x2="233.33333333333576" y1="400" y2="405" /><line  class="poloto_tick_line" stroke="black" x1="233.33333333333576" x2="233.33333333333576" y1="400" y2="100" /><text  class="poloto_tick_labels poloto_text" dominant-baseline="start" text-anchor="middle" x="233.33333333333576" y="430" >2022 May¹</text><line  class="poloto_axis_lines" stroke="black" x1="346.296296296292" x2="346.296296296292" y1="400" y2="405" /><line  class="poloto_tick_line" stroke="black" x1="346.296296296292" x2="346.296296296292" y1="400" y2="100" /><text  class="poloto_tick_labels poloto_text" dominant-baseline="start" text-anchor="middle" x="346.296296296292" y="430" >2022 Jul</text><line  class="poloto_axis_lines" stroke="black" x1="461.1111111111095" x2="461.1111111111095" y1="400" y2="405" /><line  class="poloto_tick_line" stroke="black" x1="461.1111111111095" x2="461.1111111111095" y1="400" y2="100" /><text  class="poloto_tick_labels poloto_text" dominant-baseline="start" text-anchor="middle" x="461.1111111111095" y="430" >2022 Sep</text><line  class="poloto_axis_lines" stroke="black" x1="574.074074074073" x2="574.074074074073" y1="400" y2="405" /><line  class="poloto_tick_line" stroke="black" x1="574.074074074073" x2="574.074074074073" y1="400" y2="100" /><text  class="poloto_tick_labels poloto_text" dominant-baseline="start" text-anchor="middle" x="574.074074074073" y="430" >2022 Nov</text><path  stroke="black" fill="none" class="poloto_axis_lines" d=" M 150 400 L 650 400" /><path  stroke="black" fill="none" class="poloto_axis_lines" d=" M 150 400 L 150 100" /></svg>