<svg class="poloto" width="800" height="500" viewBox="0 0 800 500" xmlns="http://www.w3.org/2000/svg"><style>.poloto{stroke-linecap:round;stroke-linejoin:round;font-family:Roboto,sans-serif;font-size:16px;}.poloto_background{fill:#262626;}.poloto_scatter{stroke-width:7}.poloto_tick_line{stroke:dimgray;stroke-width:0.5}.poloto_line{stroke-width:2}.poloto_text{fill: white;}.poloto_axis_lines{stroke: white;stroke-width:3;fill:none;stroke-dasharray:none}.poloto_title{font-size:24px;dominant-baseline:start;text-anchor:middle;}.poloto_xname{font-size:24px;dominant-baseline:start;text-anchor:middle;}.poloto_yname{font-size:24px;dominant-baseline:start;text-anchor:middle;}.poloto0stroke{stroke:blue;}.poloto1stroke{stroke:red;}.poloto2stroke{stroke:green;}.poloto3stroke{stroke:gold;}.poloto4stroke{stroke:aqua;}.poloto5stroke{stroke:lime;}.poloto6stroke{stroke:orange;}.poloto7stroke{stroke:chocolate;}.poloto0fill{fill:blue;}.poloto1fill{fill:red;}.poloto2fill{fill:green;}.poloto3fill{fill:gold;}.poloto4fill{fill:aqua;}.poloto5fill{fill:lime;}.poloto6fill{fill:orange;}.poloto7fill{fill:chocolate;}</style><circle  r="1e5" class="poloto_background" /><text  class="poloto_text poloto_legend_text" x="675" y="100" >Refinance 15</text><line  class="poloto_line poloto_legend_icon poloto0stroke poloto0legend" stroke="black" x1="680" x2="730" y1="81.25" y2="81.25" /><path  class="poloto_line poloto0stroke" fill="none" stroke="black" d=" M 150.00 392.46 L 152.02 400.00 L 158.10 389.32 L 160.12 380.17 L 162.15 389.32 L 162.15 389.32 L 166.19 358.81 L 172.27 357.20 L 174.29 367.88 L 176.32 344.83 L 178.34 346.44 L 180.36 341.61 L 186.44 343.22 L 188.46 336.78 L 188.46 336.78 L 192.51 337.37 L 194.53 314.32 L 200.61 324.32 L 202.63 327.54 L 204.66 327.54 L 206.68 326.69 L 208.70 321.78 L 216.80 278.73 L 218.83 297.88 L 220.85 283.05 L 222.87 277.29 L 222.87 277.29 L 230.97 299.58 L 235.02 303.64 L 237.04 294.58 L 243.12 283.81 L 245.14 305.25 L 247.17 294.58 L 247.17 294.58 L 251.21 292.88 L 257.29 296.19 L 259.31 306.86 L 259.31 306.86 L 261.34 297.80 L 263.36 308.56 L 265.38 292.88 L 271.46 325.08 L 273.48 324.32 L 275.51 306.86 L 275.51 306.86 L 277.53 314.32 L 279.55 317.63 L 285.63 317.63 L 287.65 329.15 L 289.68 329.15 L 291.70 329.15 L 293.72 329.15 L 301.82 317.63 L 303.85 314.32 L 305.87 315.93 L 307.89 315.93 L 307.89 315.93 L 315.99 305.25 L 318.02 305.25 L 320.04 296.19 L 328.14 281.36 L 330.16 250.76 L 332.19 254.15 L 334.21 254.15 L 336.23 275.59 L 342.31 254.15 L 344.33 254.15 L 346.36 273.90 L 348.38 277.29 L 356.48 277.29 L 358.50 275.59 L 360.53 280.59 L 362.55 285.51 L 364.57 296.19 L 372.67 303.64 L 374.70 294.58 L 376.72 287.12 L 378.74 283.81 L 384.82 285.51 L 388.87 285.51 L 390.89 283.81 L 398.99 282.20 L 398.99 282.20 L 398.99 282.20 L 398.99 282.20 L 398.99 282.20 L 398.99 282.20 L 403.04 282.20 L 403.04 282.20 L 403.04 282.20 L 403.04 282.20 L 403.04 282.20 L 403.04 282.20 L 413.16 294.58 L 417.21 297.80 L 419.23 325.93 L 421.26 329.15 L 427.33 329.15 L 429.35 327.54 L 431.38 305.25 L 433.40 299.49 L 435.43 285.51 L 441.50 296.19 L 441.50 296.19 L 443.52 287.12 L 447.57 296.19 L 447.57 296.19 L 457.69 296.19 L 459.72 262.46 L 461.74 282.20 L 469.84 248.39 L 473.89 248.39 L 473.89 248.39 L 477.94 260.76 L 486.03 254.15 L 486.03 254.15 L 486.03 254.15 L 486.03 254.15 L 486.03 254.15 L 486.03 254.15 L 486.03 254.15 L 486.03 254.15 L 486.03 254.15 L 492.11 254.15 L 504.25 232.63 L 512.35 235.17 L 512.35 235.17 L 518.42 235.17 L 526.52 235.17 L 528.54 235.17 L 528.54 235.17 L 528.54 235.17 L 528.54 235.17 L 528.54 235.17 L 554.86 235.17 L 556.88 235.17 L 569.03 139.75 L 571.05 130.68 L 573.08 130.68 L 645.95 159.15" /><text  class="poloto_text poloto_legend_text" x="675" y="150" >Refinance 20</text><line  class="poloto_line poloto_legend_icon poloto1stroke poloto1legend" stroke="black" x1="680" x2="730" y1="131.25" y2="131.25" /><path  class="poloto_line poloto1stroke" fill="none" stroke="black" d=" M 150.00 345.68 L 152.02 368.31 L 158.10 334.58 L 160.12 324.24 L 162.15 333.73 L 162.15 333.73 L 166.19 304.07 L 172.27 301.53 L 174.29 312.29 L 176.32 300.25 L 178.34 311.02 L 180.36 290.85 L 186.44 321.69 L 188.46 290.85 L 188.46 290.85 L 192.51 290.85 L 192.51 290.85 L 200.61 250.17 L 202.63 282.71 L 204.66 290.85 L 206.68 301.53 L 208.70 280.59 L 216.80 260.00 L 218.83 257.37 L 220.85 252.12 L 222.87 240.08 L 228.95 245.34 L 230.97 268.14 L 235.02 260.00 L 237.04 257.37 L 243.12 248.81 L 245.14 258.73 L 247.17 258.73 L 247.17 258.73 L 251.21 258.73 L 257.29 260.00 L 259.31 281.44 L 259.31 281.44 L 261.34 269.41 L 263.36 289.58 L 265.38 281.44 L 271.46 282.71 L 273.48 281.44 L 275.51 281.44 L 275.51 281.44 L 277.53 282.71 L 279.55 289.58 L 285.63 290.85 L 287.65 294.66 L 289.68 294.66 L 291.70 294.66 L 293.72 294.66 L 301.82 289.58 L 303.85 278.81 L 305.87 281.44 L 307.89 281.44 L 307.89 281.44 L 315.99 268.14 L 318.02 270.68 L 320.04 261.27 L 328.14 215.85 L 330.16 197.03 L 332.19 207.80 L 334.21 215.85 L 336.23 238.56 L 342.31 225.17 L 344.33 218.47 L 346.36 239.92 L 348.38 250.17 L 356.48 250.17 L 358.50 238.56 L 360.53 249.32 L 362.55 260.00 L 364.57 272.03 L 372.67 280.08 L 374.70 269.41 L 376.72 258.73 L 378.74 251.44 L 384.82 257.37 L 388.87 260.00 L 390.89 258.73 L 398.99 260.00 L 398.99 260.00 L 398.99 260.00 L 398.99 260.00 L 398.99 260.00 L 398.99 260.00 L 398.99 260.00 L 398.99 260.00 L 398.99 260.00 L 398.99 260.00 L 398.99 260.00 L 398.99 260.00 L 413.16 280.08 L 417.21 282.71 L 419.23 301.53 L 421.26 304.07 L 427.33 301.27 L 429.35 301.27 L 431.38 290.85 L 433.40 294.66 L 435.43 278.81 L 441.50 270.68 L 441.50 270.68 L 443.52 270.68 L 447.57 281.44 L 447.57 281.44 L 457.69 278.81 L 459.72 260.00 L 461.74 260.00 L 469.84 246.19 L 473.89 234.58 L 473.89 234.58 L 477.94 247.54 L 486.03 215.85 L 486.03 215.85 L 486.03 215.85 L 486.03 215.85 L 486.03 215.85 L 486.03 215.85 L 486.03 215.85 L 486.03 215.85 L 486.03 215.85 L 492.11 215.85 L 504.25 202.37 L 512.35 203.73 L 516.40 203.73 L 518.42 203.73 L 518.42 203.73 L 528.54 203.73 L 530.57 203.73 L 530.57 203.73 L 530.57 203.73 L 530.57 203.73 L 554.86 203.73 L 556.88 203.73 L 569.03 118.81 L 571.05 102.97 L 571.05 102.97 L 650.00 155.34" /><text  class="poloto_text poloto_legend_text" x="675" y="200" >Refinance 30</text><line  class="poloto_line poloto_legend_icon poloto2stroke poloto2legend" stroke="black" x1="680" x2="730" y1="181.25" y2="181.25" /><path  class="poloto_line poloto2stroke" fill="none" stroke="black" d=" M 150.00 343.31 L 152.02 351.36 L 158.10 338.81 L 160.12 328.98 L 162.15 330.85 L 162.15 330.85 L 166.19 310.25 L 172.27 308.47 L 174.29 319.15 L 176.32 307.54 L 178.34 318.22 L 180.36 297.71 L 186.44 307.54 L 188.46 286.95 L 190.49 286.95 L 192.51 286.02 L 194.53 260.00 L 200.61 264.58 L 202.63 276.27 L 204.66 286.95 L 206.68 277.20 L 208.70 265.51 L 216.80 256.61 L 218.83 242.12 L 220.85 240.17 L 222.87 238.14 L 228.95 242.12 L 230.97 258.73 L 235.02 256.61 L 237.04 254.66 L 243.12 244.07 L 245.14 255.59 L 247.17 244.07 L 247.17 244.07 L 251.21 244.07 L 257.29 246.02 L 259.31 264.58 L 259.31 264.58 L 261.34 255.59 L 263.36 256.61 L 265.38 257.54 L 271.46 265.51 L 273.48 256.61 L 275.51 256.61 L 275.51 256.61 L 277.53 266.44 L 279.55 267.46 L 285.63 268.39 L 287.65 277.20 L 289.68 277.20 L 291.70 279.07 L 293.72 279.07 L 301.82 275.25 L 303.85 264.58 L 305.87 266.44 L 307.89 265.51 L 307.89 265.51 L 315.99 255.59 L 318.02 255.59 L 320.04 245.00 L 328.14 202.12 L 330.16 171.78 L 332.19 190.34 L 334.21 202.12 L 336.23 212.80 L 342.31 203.05 L 344.33 202.12 L 346.36 221.61 L 348.38 223.56 L 356.48 223.56 L 358.50 211.86 L 360.53 221.61 L 362.55 232.29 L 364.57 255.59 L 372.67 256.61 L 374.70 245.00 L 376.72 224.58 L 378.74 221.61 L 384.82 241.10 L 388.87 223.56 L 390.89 222.54 L 398.99 242.12 L 398.99 242.12 L 398.99 242.12 L 398.99 242.12 L 398.99 242.12 L 398.99 242.12 L 403.04 242.12 L 403.04 242.12 L 403.04 242.12 L 403.04 242.12 L 403.04 242.12 L 403.04 242.12 L 413.16 254.66 L 417.21 256.61 L 419.23 275.25 L 421.26 287.88 L 427.33 286.95 L 429.35 286.95 L 431.38 265.51 L 433.40 268.39 L 435.43 254.66 L 441.50 265.51 L 441.50 265.51 L 443.52 257.54 L 447.57 266.44 L 447.57 266.44 L 457.69 264.58 L 459.72 246.02 L 461.74 245.00 L 469.84 220.59 L 473.89 211.86 L 473.89 211.86 L 477.94 222.54 L 486.03 210.85 L 486.03 210.85 L 486.03 210.85 L 486.03 210.85 L 486.03 210.85 L 486.03 210.85 L 486.03 210.85 L 486.03 210.85 L 492.11 210.85 L 492.11 209.83 L 504.25 197.03 L 512.35 175.51 L 512.35 175.51 L 518.42 175.51 L 518.42 175.51 L 528.54 175.51 L 530.57 175.51 L 530.57 175.51 L 530.57 175.51 L 530.57 175.51 L 554.86 175.51 L 556.88 175.51 L 569.03 127.03 L 571.05 100.00 L 571.05 100.00 L 650.00 146.44" /><text  class="poloto_labels poloto_text poloto_title" x="400" y="37.5" >lower.com purchase rates</text><text  class="poloto_labels poloto_text poloto_xname" x="400" y="481.25" >Date</text><text  class="poloto_labels poloto_text poloto_yname" transform="rotate(-90,37.5,250)" x="37.5" y="250" >Rate (%)</text><text  class="poloto_tick_labels poloto_text" dominant-baseline="middle" text-anchor="start" x="150" y="70" ></text><line  class="poloto_axis_lines" stroke="black" x1="150" x2="144" y1="390.2542372881356" y2="390.2542372881356" /><line  class="poloto_tick_line" stroke="black" x1="150" x2="650" y1="390.2542372881356" y2="390.2542372881356" /><text  class="poloto_tick_labels poloto_text" dominant-baseline="middle" text-anchor="end" x="135" y="390.2542372881356" >3.625</text><line  class="poloto_axis_lines" stroke="black" x1="150" x2="144" y1="379.66101694915255" y2="379.66101694915255" /><line  class="poloto_tick_line" stroke="black" x1="150" x2="650" y1="379.66101694915255" y2="379.66101694915255" /><text  class="poloto_tick_labels poloto_text" dominant-baseline="middle" text-anchor="end" x="135" y="379.66101694915255" >3.75</text><line  class="poloto_axis_lines" stroke="black" x1="150" x2="144" y1="369.06779661016947" y2="369.06779661016947" /><line  class="poloto_tick_line" stroke="black" x1="150" x2="650" y1="369.06779661016947" y2="369.06779661016947" /><text  class="poloto_tick_labels poloto_text" dominant-baseline="middle" text-anchor="end" x="135" y="369.06779661016947" >3.875</text><line  class="poloto_axis_lines" stroke="black" x1="150" x2="144" y1="358.47457627118644" y2="358.47457627118644" /><line  class="poloto_tick_line" stroke="black" x1="150" x2="650" y1="358.47457627118644" y2="358.47457627118644" /><text  class="poloto_tick_labels poloto_text" dominant-baseline="middle" text-anchor="end" x="135" y="358.47457627118644" >4</text><line  class="poloto_axis_lines" stroke="black" x1="150" x2="144" y1="347.8813559322034" y2="347.8813559322034" /><line  class="poloto_tick_line" stroke="black" x1="150" x2="650" y1="347.8813559322034" y2="347.8813559322034" /><text  class="poloto_tick_labels poloto_text" dominant-baseline="middle" text-anchor="end" x="135" y="347.8813559322034" >4.125</text><line  class="poloto_axis_lines" stroke="black" x1="150" x2="144" y1="337.2881355932203" y2="337.2881355932203" /><line  class="poloto_tick_line" stroke="black" x1="150" x2="650" y1="337.2881355932203" y2="337.2881355932203" /><text  class="poloto_tick_labels poloto_text" dominant-baseline="middle" text-anchor="end" x="135" y="337.2881355932203" >4.25</text><line  class="poloto_axis_lines" stroke="black" x1="150" x2="144" y1="326.6949152542373" y2="326.6949152542373" /><line  class="poloto_tick_line" stroke="black" x1="150" x2="650" y1="326.6949152542373" y2="326.6949152542373" /><text  class="poloto_tick_labels poloto_text" dominant-baseline="middle" text-anchor="end" x="135" y="326.6949152542373" >4.375</text><line  class="poloto_axis_lines" stroke="black" x1="150" x2="144" y1="316.10169491525426" y2="316.10169491525426" /><line  class="poloto_tick_line" stroke="black" x1="150" x2="650" y1="316.10169491525426" y2="316.10169491525426" /><text  class="poloto_tick_labels poloto_text" dominant-baseline="middle" text-anchor="end" x="135" y="316.10169491525426" >4.5</text><line  class="poloto_axis_lines" stroke="black" x1="150" x2="144" y1="305.50847457627117" y2="305.50847457627117" /><line  class="poloto_tick_line" stroke="black" x1="150" x2="650" y1="305.50847457627117" y2="305.50847457627117" /><text  class="poloto_tick_labels poloto_text" dominant-baseline="middle" text-anchor="end" x="135" y="305.50847457627117" >4.625</text><line  class="poloto_axis_lines" stroke="black" x1="150" x2="144" y1="294.91525423728814" y2="294.91525423728814" /><line  class="poloto_tick_line" stroke="black" x1="150" x2="650" y1="294.91525423728814" y2="294.91525423728814" /><text  class="poloto_tick_labels poloto_text" dominant-baseline="middle" text-anchor="end" x="135" y="294.91525423728814" >4.75</text><line  class="poloto_axis_lines" stroke="black" x1="150" x2="144" y1="284.3220338983051" y2="284.3220338983051" /><line  class="poloto_tick_line" stroke="black" x1="150" x2="650" y1="284.3220338983051" y2="284.3220338983051" /><text  class="poloto_tick_labels poloto_text" dominant-baseline="middle" text-anchor="end" x="135" y="284.3220338983051" >4.875</text><line  class="poloto_axis_lines" stroke="black" x1="150" x2="144" y1="273.728813559322" y2="273.728813559322" /><line  class="poloto_tick_line" stroke="black" x1="150" x2="650" y1="273.728813559322" y2="273.728813559322" /><text  class="poloto_tick_labels poloto_text" dominant-baseline="middle" text-anchor="end" x="135" y="273.728813559322" >5</text><line  class="poloto_axis_lines" stroke="black" x1="150" x2="144" y1="263.135593220339" y2="263.135593220339" /><line  class="poloto_tick_line" stroke="black" x1="150" x2="650" y1="263.135593220339" y2="263.135593220339" /><text  class="poloto_tick_labels poloto_text" dominant-baseline="middle" text-anchor="end" x="135" y="263.135593220339" >5.125</text><line  class="poloto_axis_lines" stroke="black" x1="150" x2="144" y1="252.54237288135596" y2="252.54237288135596" /><line  class="poloto_tick_line" stroke="black" x1="150" x2="650" y1="252.54237288135596" y2="252.54237288135596" /><text  class="poloto_tick_labels poloto_text" dominant-baseline="middle" text-anchor="end" x="135" y="252.54237288135596" >5.25</text><line  class="poloto_axis_lines" stroke="black" x1="150" x2="144" y1="241.94915254237287" y2="241.94915254237287" /><line  class="poloto_tick_line" stroke="black" x1="150" x2="650" y1="241.94915254237287" y2="241.94915254237287" /><text  class="poloto_tick_labels poloto_text" dominant-baseline="middle" text-anchor="end" x="135" y="241.94915254237287" >5.375</text><line  class="poloto_axis_lines" stroke="black" x1="150" x2="144" y1="231.35593220338984" y2="231.35593220338984" /><line  class="poloto_tick_line" stroke="black" x1="150" x2="650" y1="231.35593220338984" y2="231.35593220338984" /><text  class="poloto_tick_labels poloto_text" dominant-baseline="middle" text-anchor="end" x="135" y="231.35593220338984" >5.5</text><line  class="poloto_axis_lines" stroke="black" x1="150" x2="144" y1="220.7627118644068" y2="220.7627118644068" /><line  class="poloto_tick_line" stroke="black" x1="150" x2="650" y1="220.7627118644068" y2="220.7627118644068" /><text  class="poloto_tick_labels poloto_text" dominant-baseline="middle" text-anchor="end" x="135" y="220.7627118644068" >5.625</text><line  class="poloto_axis_lines" stroke="black" x1="150" x2="144" y1="210.16949152542372" y2="210.16949152542372" /><line  class="poloto_tick_line" stroke="black" x1="150" x2="650" y1="210.16949152542372" y2="210.16949152542372" /><text  class="poloto_tick_labels poloto_text" dominant-baseline="middle" text-anchor="end" x="135" y="210.16949152542372" >5.75</text><line  class="poloto_axis_lines" stroke="black" x1="150" x2="144" y1="199.5762711864407" y2="199.5762711864407" /><line  class="poloto_tick_line" stroke="black" x1="150" x2="650" y1="199.5762711864407" y2="199.5762711864407" /><text  class="poloto_tick_labels poloto_text" dominant-baseline="middle" text-anchor="end" x="135" y="199.5762711864407" >5.875</text><line  class="poloto_axis_lines" stroke="black" x1="150" x2="144" y1="188.98305084745766" y2="188.98305084745766" /><line  class="poloto_tick_line" stroke="black" x1="150" x2="650" y1="188.98305084745766" y2="188.98305084745766" /><text  class="poloto_tick_labels poloto_text" dominant-baseline="middle" text-anchor="end" x="135" y="188.98305084745766" >6</text><line  class="poloto_axis_lines" stroke="black" x1="150" x2="144" y1="178.38983050847457" y2="178.38983050847457" /><line  class="poloto_tick_line" stroke="black" x1="150" x2="650" y1="178.38983050847457" y2="178.38983050847457" /><text  class="poloto_tick_labels poloto_text" dominant-baseline="middle" text-anchor="end" x="135" y="178.38983050847457" >6.125</text><line  class="poloto_axis_lines" stroke="black" x1="150" x2="144" y1="167.7966101694915" y2="167.7966101694915" /><line  class="poloto_tick_line" stroke="black" x1="150" x2="650" y1="167.7966101694915" y2="167.7966101694915" /><text  class="poloto_tick_labels poloto_text" dominant-baseline="middle" text-anchor="end" x="135" y="167.7966101694915" >6.25</text><line  class="poloto_axis_lines" stroke="black" x1="150" x2="144" y1="157.2033898305085" y2="157.2033898305085" /><line  class="poloto_tick_line" stroke="black" x1="150" x2="650" y1="157.2033898305085" y2="157.2033898305085" /><text  class="poloto_tick_labels poloto_text" dominant-baseline="middle" text-anchor="end" x="135" y="157.2033898305085" >6.375</text><line  class="poloto_axis_lines" stroke="black" x1="150" x2="144" y1="146.61016949152543" y2="146.61016949152543" /><line  class="poloto_tick_line" stroke="black" x1="150" x2="650" y1="146.61016949152543" y2="146.61016949152543" /><text  class="poloto_tick_labels poloto_text" dominant-baseline="middle" text-anchor="end" x="135" y="146.61016949152543" >6.5</text><line  class="poloto_axis_lines" stroke="black" x1="150" x2="144" y1="136.01694915254234" y2="136.01694915254234" /><line  class="poloto_tick_line" stroke="black" x1="150" x2="650" y1="136.01694915254234" y2="136.01694915254234" /><text  class="poloto_tick_labels poloto_text" dominant-baseline="middle" text-anchor="end" x="135" y="136.01694915254234" >6.625</text><line  class="poloto_axis_lines" stroke="black" x1="150" x2="144" y1="125.42372881355936" y2="125.42372881355936" /><line  class="poloto_tick_line" stroke="black" x1="150" x2="650" y1="125.42372881355936" y2="125.42372881355936" /><text  class="poloto_tick_labels poloto_text" dominant-baseline="middle" text-anchor="end" x="135" y="125.42372881355936" >6.75</text><line  class="poloto_axis_lines" stroke="black" x1="150" x2="144" y1="114.83050847457628" y2="114.83050847457628" /><line  class="poloto_tick_line" stroke="black" x1="150" x2="650" y1="114.83050847457628" y2="114.83050847457628" /><text  class="poloto_tick_labels poloto_text" dominant-baseline="middle" text-anchor="end" x="135" y="114.83050847457628" >6.875</text><line  class="poloto_axis_lines" stroke="black" x1="150" x2="144" y1="104.23728813559319" y2="104.23728813559319" /><line  class="poloto_tick_line" stroke="black" x1="150" x2="650" y1="104.23728813559319" y2="104.23728813559319" /><text  class="poloto_tick_labels poloto_text" dominant-baseline="middle" text-anchor="end" x="135" y="104.23728813559319" >7</text><text  class="poloto_tick_labels poloto_text" dominant-baseline="middle" text-anchor="start" x="440.00000000000006" y="70" >¹2022-05-01 00:00:00 UTC in Months</text><line  class="poloto_axis_lines" stroke="black" x1="241.0931174089128" x2="241.0931174089128" y1="400" y2="405" /><line  class="poloto_tick_line" stroke="black" x1="241.0931174089128" x2="241.0931174089128" y1="400" y2="100" /><text  class="poloto_tick_labels poloto_text" dominant-baseline="start" text-anchor="middle" x="241.0931174089128" y="430" >2022 May¹</text><line  class="poloto_axis_lines" stroke="black" x1="364.574898785424" x2="364.574898785424" y1="400" y2="405" /><line  class="poloto_tick_line" stroke="black" x1="364.574898785424" x2="364.574898785424" y1="400" y2="100" /><text  class="poloto_tick_labels poloto_text" dominant-baseline="start" text-anchor="middle" x="364.574898785424" y="430" >2022 Jul</text><line  class="poloto_axis_lines" stroke="black" x1="490.08097165991785" x2="490.08097165991785" y1="400" y2="405" /><line  class="poloto_tick_line" stroke="black" x1="490.08097165991785" x2="490.08097165991785" y1="400" y2="100" /><text  class="poloto_tick_labels poloto_text" dominant-baseline="start" text-anchor="middle" x="490.08097165991785" y="430" >2022 Sep</text><line  class="poloto_axis_lines" stroke="black" x1="613.5627530364363" x2="613.5627530364363" y1="400" y2="405" /><line  class="poloto_tick_line" stroke="black" x1="613.5627530364363" x2="613.5627530364363" y1="400" y2="100" /><text  class="poloto_tick_labels poloto_text" dominant-baseline="start" text-anchor="middle" x="613.5627530364363" y="430" >2022 Nov</text><path  stroke="black" fill="none" class="poloto_axis_lines" d=" M 150 400 L 650 400" /><path  stroke="black" fill="none" class="poloto_axis_lines" d=" M 150 400 L 150 100" /></svg>