<svg class="poloto" width="800" height="500" viewBox="0 0 800 500" xmlns="http://www.w3.org/2000/svg"><style>.poloto{stroke-linecap:round;stroke-linejoin:round;font-family:Roboto,sans-serif;font-size:16px;}.poloto_background{fill:#262626;}.poloto_scatter{stroke-width:7}.poloto_tick_line{stroke:dimgray;stroke-width:0.5}.poloto_line{stroke-width:2}.poloto_text{fill: white;}.poloto_axis_lines{stroke: white;stroke-width:3;fill:none;stroke-dasharray:none}.poloto_title{font-size:24px;dominant-baseline:start;text-anchor:middle;}.poloto_xname{font-size:24px;dominant-baseline:start;text-anchor:middle;}.poloto_yname{font-size:24px;dominant-baseline:start;text-anchor:middle;}.poloto0stroke{stroke:blue;}.poloto1stroke{stroke:red;}.poloto2stroke{stroke:green;}.poloto3stroke{stroke:gold;}.poloto4stroke{stroke:aqua;}.poloto5stroke{stroke:lime;}.poloto6stroke{stroke:orange;}.poloto7stroke{stroke:chocolate;}.poloto0fill{fill:blue;}.poloto1fill{fill:red;}.poloto2fill{fill:green;}.poloto3fill{fill:gold;}.poloto4fill{fill:aqua;}.poloto5fill{fill:lime;}.poloto6fill{fill:orange;}.poloto7fill{fill:chocolate;}</style><circle  r="1e5" class="poloto_background" /><text  class="poloto_text poloto_legend_text" x="675" y="100" >Refinance 15</text><line  class="poloto_line poloto_legend_icon poloto0stroke poloto0legend" stroke="black" x1="680" x2="730" y1="81.25" y2="81.25" /><path  class="poloto_line poloto0stroke" fill="none" stroke="black" d=" M 150.00 391.95 L 152.42 400.00 L 159.66 388.61 L 162.08 378.84 L 164.49 388.61 L 164.49 388.61 L 169.32 356.06 L 176.57 354.34 L 178.99 365.73 L 181.40 341.14 L 183.82 342.86 L 186.23 337.70 L 193.48 339.42 L 195.89 332.55 L 195.89 332.55 L 200.72 333.18 L 203.14 308.59 L 210.39 319.26 L 212.80 322.69 L 215.22 322.69 L 217.63 321.79 L 220.05 316.55 L 229.71 270.61 L 232.13 291.05 L 234.54 275.23 L 236.96 269.08 L 236.96 269.08 L 246.62 292.86 L 251.45 297.20 L 253.86 287.52 L 261.11 276.04 L 263.53 298.92 L 265.94 287.52 L 265.94 287.52 L 270.77 285.71 L 278.02 289.24 L 280.43 300.63 L 280.43 300.63 L 282.85 290.96 L 285.27 302.44 L 287.68 285.71 L 294.93 320.07 L 297.34 319.26 L 299.76 300.63 L 299.76 300.63 L 302.17 308.59 L 304.59 312.12 L 311.84 312.12 L 314.25 324.41 L 316.67 324.41 L 319.08 324.41 L 321.50 324.41 L 331.16 312.12 L 333.57 308.59 L 335.99 310.31 L 338.41 310.31 L 338.41 310.31 L 348.07 298.92 L 350.48 298.92 L 352.90 289.24 L 362.56 273.42 L 364.98 240.78 L 367.39 244.39 L 369.81 244.39 L 372.22 267.27 L 379.47 244.39 L 381.88 244.39 L 384.30 265.46 L 386.71 269.08 L 396.38 269.08 L 398.79 267.27 L 401.21 272.60 L 403.62 277.85 L 406.04 289.24 L 415.70 297.20 L 418.12 287.52 L 420.53 279.57 L 422.95 276.04 L 430.19 277.85 L 435.02 277.85 L 437.44 276.04 L 447.10 274.32 L 447.10 274.32 L 447.10 274.32 L 447.10 274.32 L 447.10 274.32 L 447.10 274.32 L 451.93 274.32 L 451.93 274.32 L 451.93 274.32 L 451.93 274.32 L 451.93 274.32 L 451.93 274.32 L 464.01 287.52 L 468.84 290.96 L 471.26 320.98 L 473.67 324.41 L 480.92 324.41 L 483.33 322.69 L 485.75 298.92 L 488.16 292.77 L 490.58 277.85 L 497.83 289.24 L 497.83 289.24 L 500.24 279.57 L 505.07 289.24 L 505.07 289.24 L 517.15 289.24 L 519.57 253.25 L 521.98 274.32 L 531.64 238.25 L 536.47 238.25 L 536.47 238.25 L 541.30 251.45 L 550.97 244.39 L 550.97 244.39 L 550.97 244.39 L 550.97 244.39 L 550.97 244.39 L 550.97 244.39 L 550.97 244.39 L 550.97 244.39 L 550.97 244.39 L 558.21 244.39 L 572.71 221.43 L 582.37 224.14 L 582.37 224.14 L 589.61 224.14 L 599.28 224.14 L 601.69 224.14 L 601.69 224.14 L 601.69 224.14 L 601.69 224.14 L 601.69 224.14 L 633.09 224.14 L 635.51 224.14 L 650.00 122.33" /><text  class="poloto_text poloto_legend_text" x="675" y="150" >Refinance 20</text><line  class="poloto_line poloto_legend_icon poloto1stroke poloto1legend" stroke="black" x1="680" x2="730" y1="131.25" y2="131.25" /><path  class="poloto_line poloto1stroke" fill="none" stroke="black" d=" M 150.00 342.04 L 152.42 366.18 L 159.66 330.20 L 162.08 319.17 L 164.49 329.29 L 164.49 329.29 L 169.32 297.65 L 176.57 294.94 L 178.99 306.42 L 181.40 293.58 L 183.82 305.06 L 186.23 283.54 L 193.48 316.46 L 195.89 283.54 L 195.89 283.54 L 200.72 283.54 L 200.72 283.54 L 210.39 240.14 L 212.80 274.86 L 215.22 283.54 L 217.63 294.94 L 220.05 272.60 L 229.71 250.63 L 232.13 247.83 L 234.54 242.22 L 236.96 229.39 L 244.20 234.99 L 246.62 259.31 L 251.45 250.63 L 253.86 247.83 L 261.11 238.70 L 263.53 249.28 L 265.94 249.28 L 265.94 249.28 L 270.77 249.28 L 278.02 250.63 L 280.43 273.51 L 280.43 273.51 L 282.85 260.67 L 285.27 282.19 L 287.68 273.51 L 294.93 274.86 L 297.34 273.51 L 299.76 273.51 L 299.76 273.51 L 302.17 274.86 L 304.59 282.19 L 311.84 283.54 L 314.25 287.61 L 316.67 287.61 L 319.08 287.61 L 321.50 287.61 L 331.16 282.19 L 333.57 270.71 L 335.99 273.51 L 338.41 273.51 L 338.41 273.51 L 348.07 259.31 L 350.48 262.03 L 352.90 251.99 L 362.56 203.53 L 364.98 183.45 L 367.39 194.94 L 369.81 203.53 L 372.22 227.76 L 379.47 213.47 L 381.88 206.33 L 384.30 229.20 L 386.71 240.14 L 396.38 240.14 L 398.79 227.76 L 401.21 239.24 L 403.62 250.63 L 406.04 263.47 L 415.70 272.06 L 418.12 260.67 L 420.53 249.28 L 422.95 241.50 L 430.19 247.83 L 435.02 250.63 L 437.44 249.28 L 447.10 250.63 L 447.10 250.63 L 447.10 250.63 L 447.10 250.63 L 447.10 250.63 L 447.10 250.63 L 447.10 250.63 L 447.10 250.63 L 447.10 250.63 L 447.10 250.63 L 447.10 250.63 L 447.10 250.63 L 464.01 272.06 L 468.84 274.86 L 471.26 294.94 L 473.67 297.65 L 480.92 294.67 L 483.33 294.67 L 485.75 283.54 L 488.16 287.61 L 490.58 270.71 L 497.83 262.03 L 497.83 262.03 L 500.24 262.03 L 505.07 273.51 L 505.07 273.51 L 517.15 270.71 L 519.57 250.63 L 521.98 250.63 L 531.64 235.90 L 536.47 223.51 L 536.47 223.51 L 541.30 237.34 L 550.97 203.53 L 550.97 203.53 L 550.97 203.53 L 550.97 203.53 L 550.97 203.53 L 550.97 203.53 L 550.97 203.53 L 550.97 203.53 L 550.97 203.53 L 558.21 203.53 L 572.71 189.15 L 582.37 190.60 L 587.20 190.60 L 589.61 190.60 L 589.61 190.60 L 601.69 190.60 L 604.11 190.60 L 604.11 190.60 L 604.11 190.60 L 604.11 190.60 L 633.09 190.60 L 635.51 190.60 L 650.00 100.00" /><text  class="poloto_text poloto_legend_text" x="675" y="200" >Refinance 30</text><line  class="poloto_line poloto_legend_icon poloto2stroke poloto2legend" stroke="black" x1="680" x2="730" y1="181.25" y2="181.25" /><path  class="poloto_line poloto2stroke" fill="none" stroke="black" d=" M 150.00 339.51 L 152.42 348.10 L 159.66 334.72 L 162.08 324.23 L 164.49 326.22 L 164.49 326.22 L 169.32 304.25 L 176.57 302.35 L 178.99 313.74 L 181.40 301.36 L 183.82 312.75 L 186.23 290.87 L 193.48 301.36 L 195.89 279.39 L 198.31 279.39 L 200.72 278.39 L 203.14 250.63 L 210.39 255.52 L 212.80 267.99 L 215.22 279.39 L 217.63 268.99 L 220.05 256.51 L 229.71 247.02 L 232.13 231.56 L 234.54 229.48 L 236.96 227.31 L 244.20 231.56 L 246.62 249.28 L 251.45 247.02 L 253.86 244.94 L 261.11 233.63 L 263.53 245.93 L 265.94 233.63 L 265.94 233.63 L 270.77 233.63 L 278.02 235.71 L 280.43 255.52 L 280.43 255.52 L 282.85 245.93 L 285.27 247.02 L 287.68 248.01 L 294.93 256.51 L 297.34 247.02 L 299.76 247.02 L 299.76 247.02 L 302.17 257.50 L 304.59 258.59 L 311.84 259.58 L 314.25 268.99 L 316.67 268.99 L 319.08 270.98 L 321.50 270.98 L 331.16 266.91 L 333.57 255.52 L 335.99 257.50 L 338.41 256.51 L 338.41 256.51 L 348.07 245.93 L 350.48 245.93 L 352.90 234.63 L 362.56 188.88 L 364.98 156.51 L 367.39 176.31 L 369.81 188.88 L 372.22 200.27 L 379.47 189.87 L 381.88 188.88 L 384.30 209.67 L 386.71 211.75 L 396.38 211.75 L 398.79 199.28 L 401.21 209.67 L 403.62 221.07 L 406.04 245.93 L 415.70 247.02 L 418.12 234.63 L 420.53 212.84 L 422.95 209.67 L 430.19 230.47 L 435.02 211.75 L 437.44 210.67 L 447.10 231.56 L 447.10 231.56 L 447.10 231.56 L 447.10 231.56 L 447.10 231.56 L 447.10 231.56 L 451.93 231.56 L 451.93 231.56 L 451.93 231.56 L 451.93 231.56 L 451.93 231.56 L 451.93 231.56 L 464.01 244.94 L 468.84 247.02 L 471.26 266.91 L 473.67 280.38 L 480.92 279.39 L 483.33 279.39 L 485.75 256.51 L 488.16 259.58 L 490.58 244.94 L 497.83 256.51 L 497.83 256.51 L 500.24 248.01 L 505.07 257.50 L 505.07 257.50 L 517.15 255.52 L 519.57 235.71 L 521.98 234.63 L 531.64 208.59 L 536.47 199.28 L 536.47 199.28 L 541.30 210.67 L 550.97 198.19 L 550.97 198.19 L 550.97 198.19 L 550.97 198.19 L 550.97 198.19 L 550.97 198.19 L 550.97 198.19 L 550.97 198.19 L 558.21 198.19 L 558.21 197.11 L 572.71 183.45 L 582.37 160.49 L 582.37 160.49 L 589.61 160.49 L 589.61 160.49 L 601.69 160.49 L 604.11 160.49 L 604.11 160.49 L 604.11 160.49 L 604.11 160.49 L 633.09 160.49 L 635.51 160.49 L 650.00 108.77" /><text  class="poloto_labels poloto_text poloto_title" x="400" y="37.5" >lower.com purchase rates</text><text  class="poloto_labels poloto_text poloto_xname" x="400" y="481.25" >Date</text><text  class="poloto_labels poloto_text poloto_yname" transform="rotate(-90,37.5,250)" x="37.5" y="250" >Rate (%)</text><text  class="poloto_tick_labels poloto_text" dominant-baseline="middle" text-anchor="start" x="150" y="70" ></text><line  class="poloto_axis_lines" stroke="black" x1="150" x2="144" y1="389.6021699819168" y2="389.6021699819168" /><line  class="poloto_tick_line" stroke="black" x1="150" x2="650" y1="389.6021699819168" y2="389.6021699819168" /><text  class="poloto_tick_labels poloto_text" dominant-baseline="middle" text-anchor="end" x="135" y="389.6021699819168" >3.625</text><line  class="poloto_axis_lines" stroke="black" x1="150" x2="144" y1="378.30018083182637" y2="378.30018083182637" /><line  class="poloto_tick_line" stroke="black" x1="150" x2="650" y1="378.30018083182637" y2="378.30018083182637" /><text  class="poloto_tick_labels poloto_text" dominant-baseline="middle" text-anchor="end" x="135" y="378.30018083182637" >3.75</text><line  class="poloto_axis_lines" stroke="black" x1="150" x2="144" y1="366.998191681736" y2="366.998191681736" /><line  class="poloto_tick_line" stroke="black" x1="150" x2="650" y1="366.998191681736" y2="366.998191681736" /><text  class="poloto_tick_labels poloto_text" dominant-baseline="middle" text-anchor="end" x="135" y="366.998191681736" >3.875</text><line  class="poloto_axis_lines" stroke="black" x1="150" x2="144" y1="355.69620253164555" y2="355.69620253164555" /><line  class="poloto_tick_line" stroke="black" x1="150" x2="650" y1="355.69620253164555" y2="355.69620253164555" /><text  class="poloto_tick_labels poloto_text" dominant-baseline="middle" text-anchor="end" x="135" y="355.69620253164555" >4</text><line  class="poloto_axis_lines" stroke="black" x1="150" x2="144" y1="344.3942133815551" y2="344.3942133815551" /><line  class="poloto_tick_line" stroke="black" x1="150" x2="650" y1="344.3942133815551" y2="344.3942133815551" /><text  class="poloto_tick_labels poloto_text" dominant-baseline="middle" text-anchor="end" x="135" y="344.3942133815551" >4.125</text><line  class="poloto_axis_lines" stroke="black" x1="150" x2="144" y1="333.09222423146474" y2="333.09222423146474" /><line  class="poloto_tick_line" stroke="black" x1="150" x2="650" y1="333.09222423146474" y2="333.09222423146474" /><text  class="poloto_tick_labels poloto_text" dominant-baseline="middle" text-anchor="end" x="135" y="333.09222423146474" >4.25</text><line  class="poloto_axis_lines" stroke="black" x1="150" x2="144" y1="321.7902350813743" y2="321.7902350813743" /><line  class="poloto_tick_line" stroke="black" x1="150" x2="650" y1="321.7902350813743" y2="321.7902350813743" /><text  class="poloto_tick_labels poloto_text" dominant-baseline="middle" text-anchor="end" x="135" y="321.7902350813743" >4.375</text><line  class="poloto_axis_lines" stroke="black" x1="150" x2="144" y1="310.4882459312839" y2="310.4882459312839" /><line  class="poloto_tick_line" stroke="black" x1="150" x2="650" y1="310.4882459312839" y2="310.4882459312839" /><text  class="poloto_tick_labels poloto_text" dominant-baseline="middle" text-anchor="end" x="135" y="310.4882459312839" >4.5</text><line  class="poloto_axis_lines" stroke="black" x1="150" x2="144" y1="299.1862567811935" y2="299.1862567811935" /><line  class="poloto_tick_line" stroke="black" x1="150" x2="650" y1="299.1862567811935" y2="299.1862567811935" /><text  class="poloto_tick_labels poloto_text" dominant-baseline="middle" text-anchor="end" x="135" y="299.1862567811935" >4.625</text><line  class="poloto_axis_lines" stroke="black" x1="150" x2="144" y1="287.88426763110306" y2="287.88426763110306" /><line  class="poloto_tick_line" stroke="black" x1="150" x2="650" y1="287.88426763110306" y2="287.88426763110306" /><text  class="poloto_tick_labels poloto_text" dominant-baseline="middle" text-anchor="end" x="135" y="287.88426763110306" >4.75</text><line  class="poloto_axis_lines" stroke="black" x1="150" x2="144" y1="276.5822784810127" y2="276.5822784810127" /><line  class="poloto_tick_line" stroke="black" x1="150" x2="650" y1="276.5822784810127" y2="276.5822784810127" /><text  class="poloto_tick_labels poloto_text" dominant-baseline="middle" text-anchor="end" x="135" y="276.5822784810127" >4.875</text><line  class="poloto_axis_lines" stroke="black" x1="150" x2="144" y1="265.28028933092224" y2="265.28028933092224" /><line  class="poloto_tick_line" stroke="black" x1="150" x2="650" y1="265.28028933092224" y2="265.28028933092224" /><text  class="poloto_tick_labels poloto_text" dominant-baseline="middle" text-anchor="end" x="135" y="265.28028933092224" >5</text><line  class="poloto_axis_lines" stroke="black" x1="150" x2="144" y1="253.9783001808318" y2="253.9783001808318" /><line  class="poloto_tick_line" stroke="black" x1="150" x2="650" y1="253.9783001808318" y2="253.9783001808318" /><text  class="poloto_tick_labels poloto_text" dominant-baseline="middle" text-anchor="end" x="135" y="253.9783001808318" >5.125</text><line  class="poloto_axis_lines" stroke="black" x1="150" x2="144" y1="242.67631103074143" y2="242.67631103074143" /><line  class="poloto_tick_line" stroke="black" x1="150" x2="650" y1="242.67631103074143" y2="242.67631103074143" /><text  class="poloto_tick_labels poloto_text" dominant-baseline="middle" text-anchor="end" x="135" y="242.67631103074143" >5.25</text><line  class="poloto_axis_lines" stroke="black" x1="150" x2="144" y1="231.374321880651" y2="231.374321880651" /><line  class="poloto_tick_line" stroke="black" x1="150" x2="650" y1="231.374321880651" y2="231.374321880651" /><text  class="poloto_tick_labels poloto_text" dominant-baseline="middle" text-anchor="end" x="135" y="231.374321880651" >5.375</text><line  class="poloto_axis_lines" stroke="black" x1="150" x2="144" y1="220.07233273056056" y2="220.07233273056056" /><line  class="poloto_tick_line" stroke="black" x1="150" x2="650" y1="220.07233273056056" y2="220.07233273056056" /><text  class="poloto_tick_labels poloto_text" dominant-baseline="middle" text-anchor="end" x="135" y="220.07233273056056" >5.5</text><line  class="poloto_axis_lines" stroke="black" x1="150" x2="144" y1="208.77034358047018" y2="208.77034358047018" /><line  class="poloto_tick_line" stroke="black" x1="150" x2="650" y1="208.77034358047018" y2="208.77034358047018" /><text  class="poloto_tick_labels poloto_text" dominant-baseline="middle" text-anchor="end" x="135" y="208.77034358047018" >5.625</text><line  class="poloto_axis_lines" stroke="black" x1="150" x2="144" y1="197.4683544303798" y2="197.4683544303798" /><line  class="poloto_tick_line" stroke="black" x1="150" x2="650" y1="197.4683544303798" y2="197.4683544303798" /><text  class="poloto_tick_labels poloto_text" dominant-baseline="middle" text-anchor="end" x="135" y="197.4683544303798" >5.75</text><line  class="poloto_axis_lines" stroke="black" x1="150" x2="144" y1="186.16636528028937" y2="186.16636528028937" /><line  class="poloto_tick_line" stroke="black" x1="150" x2="650" y1="186.16636528028937" y2="186.16636528028937" /><text  class="poloto_tick_labels poloto_text" dominant-baseline="middle" text-anchor="end" x="135" y="186.16636528028937" >5.875</text><line  class="poloto_axis_lines" stroke="black" x1="150" x2="144" y1="174.86437613019893" y2="174.86437613019893" /><line  class="poloto_tick_line" stroke="black" x1="150" x2="650" y1="174.86437613019893" y2="174.86437613019893" /><text  class="poloto_tick_labels poloto_text" dominant-baseline="middle" text-anchor="end" x="135" y="174.86437613019893" >6</text><line  class="poloto_axis_lines" stroke="black" x1="150" x2="144" y1="163.5623869801085" y2="163.5623869801085" /><line  class="poloto_tick_line" stroke="black" x1="150" x2="650" y1="163.5623869801085" y2="163.5623869801085" /><text  class="poloto_tick_labels poloto_text" dominant-baseline="middle" text-anchor="end" x="135" y="163.5623869801085" >6.125</text><line  class="poloto_axis_lines" stroke="black" x1="150" x2="144" y1="152.26039783001806" y2="152.26039783001806" /><line  class="poloto_tick_line" stroke="black" x1="150" x2="650" y1="152.26039783001806" y2="152.26039783001806" /><text  class="poloto_tick_labels poloto_text" dominant-baseline="middle" text-anchor="end" x="135" y="152.26039783001806" >6.25</text><line  class="poloto_axis_lines" stroke="black" x1="150" x2="144" y1="140.95840867992774" y2="140.95840867992774" /><line  class="poloto_tick_line" stroke="black" x1="150" x2="650" y1="140.95840867992774" y2="140.95840867992774" /><text  class="poloto_tick_labels poloto_text" dominant-baseline="middle" text-anchor="end" x="135" y="140.95840867992774" >6.375</text><line  class="poloto_axis_lines" stroke="black" x1="150" x2="144" y1="129.6564195298373" y2="129.6564195298373" /><line  class="poloto_tick_line" stroke="black" x1="150" x2="650" y1="129.6564195298373" y2="129.6564195298373" /><text  class="poloto_tick_labels poloto_text" dominant-baseline="middle" text-anchor="end" x="135" y="129.6564195298373" >6.5</text><line  class="poloto_axis_lines" stroke="black" x1="150" x2="144" y1="118.35443037974687" y2="118.35443037974687" /><line  class="poloto_tick_line" stroke="black" x1="150" x2="650" y1="118.35443037974687" y2="118.35443037974687" /><text  class="poloto_tick_labels poloto_text" dominant-baseline="middle" text-anchor="end" x="135" y="118.35443037974687" >6.625</text><line  class="poloto_axis_lines" stroke="black" x1="150" x2="144" y1="107.05244122965644" y2="107.05244122965644" /><line  class="poloto_tick_line" stroke="black" x1="150" x2="650" y1="107.05244122965644" y2="107.05244122965644" /><text  class="poloto_tick_labels poloto_text" dominant-baseline="middle" text-anchor="end" x="135" y="107.05244122965644" >6.75</text><text  class="poloto_tick_labels poloto_text" dominant-baseline="middle" text-anchor="start" x="440.00000000000006" y="70" >¹2022-04-01 00:00:00 UTC in Months</text><line  class="poloto_axis_lines" stroke="black" x1="186.23188405797555" x2="186.23188405797555" y1="400" y2="405" /><line  class="poloto_tick_line" stroke="black" x1="186.23188405797555" x2="186.23188405797555" y1="400" y2="100" /><text  class="poloto_tick_labels poloto_text" dominant-baseline="start" text-anchor="middle" x="186.23188405797555" y="430" >2022 Apr¹</text><line  class="poloto_axis_lines" stroke="black" x1="258.69565217391937" x2="258.69565217391937" y1="400" y2="405" /><line  class="poloto_tick_line" stroke="black" x1="258.69565217391937" x2="258.69565217391937" y1="400" y2="100" /><text  class="poloto_tick_labels poloto_text" dominant-baseline="start" text-anchor="middle" x="258.69565217391937" y="430" >2022 May</text><line  class="poloto_axis_lines" stroke="black" x1="333.5748792270533" x2="333.5748792270533" y1="400" y2="405" /><line  class="poloto_tick_line" stroke="black" x1="333.5748792270533" x2="333.5748792270533" y1="400" y2="100" /><text  class="poloto_tick_labels poloto_text" dominant-baseline="start" text-anchor="middle" x="333.5748792270533" y="430" >2022 Jun</text><line  class="poloto_axis_lines" stroke="black" x1="406.03864734299714" x2="406.03864734299714" y1="400" y2="405" /><line  class="poloto_tick_line" stroke="black" x1="406.03864734299714" x2="406.03864734299714" y1="400" y2="100" /><text  class="poloto_tick_labels poloto_text" dominant-baseline="start" text-anchor="middle" x="406.03864734299714" y="430" >2022 Jul</text><line  class="poloto_axis_lines" stroke="black" x1="480.91787439613836" x2="480.91787439613836" y1="400" y2="405" /><line  class="poloto_tick_line" stroke="black" x1="480.91787439613836" x2="480.91787439613836" y1="400" y2="100" /><text  class="poloto_tick_labels poloto_text" dominant-baseline="start" text-anchor="middle" x="480.91787439613836" y="430" >2022 Aug</text><line  class="poloto_axis_lines" stroke="black" x1="555.7971014492796" x2="555.7971014492796" y1="400" y2="405" /><line  class="poloto_tick_line" stroke="black" x1="555.7971014492796" x2="555.7971014492796" y1="400" y2="100" /><text  class="poloto_tick_labels poloto_text" dominant-baseline="start" text-anchor="middle" x="555.7971014492796" y="430" >2022 Sep</text><line  class="poloto_axis_lines" stroke="black" x1="628.2608695652234" x2="628.2608695652234" y1="400" y2="405" /><line  class="poloto_tick_line" stroke="black" x1="628.2608695652234" x2="628.2608695652234" y1="400" y2="100" /><text  class="poloto_tick_labels poloto_text" dominant-baseline="start" text-anchor="middle" x="628.2608695652234" y="430" >2022 Oct</text><path  stroke="black" fill="none" class="poloto_axis_lines" d=" M 150 400 L 650 400" /><path  stroke="black" fill="none" class="poloto_axis_lines" d=" M 150 400 L 150 100" /></svg>