<svg class="poloto" width="800" height="500" viewBox="0 0 800 500" xmlns="http://www.w3.org/2000/svg"><style>.poloto{stroke-linecap:round;stroke-linejoin:round;font-family:Roboto,sans-serif;font-size:16px;}.poloto_background{fill:#262626;}.poloto_scatter{stroke-width:7}.poloto_tick_line{stroke:dimgray;stroke-width:0.5}.poloto_line{stroke-width:2}.poloto_text{fill: white;}.poloto_axis_lines{stroke: white;stroke-width:3;fill:none;stroke-dasharray:none}.poloto_title{font-size:24px;dominant-baseline:start;text-anchor:middle;}.poloto_xname{font-size:24px;dominant-baseline:start;text-anchor:middle;}.poloto_yname{font-size:24px;dominant-baseline:start;text-anchor:middle;}.poloto0stroke{stroke:blue;}.poloto1stroke{stroke:red;}.poloto2stroke{stroke:green;}.poloto3stroke{stroke:gold;}.poloto4stroke{stroke:aqua;}.poloto5stroke{stroke:lime;}.poloto6stroke{stroke:orange;}.poloto7stroke{stroke:chocolate;}.poloto0fill{fill:blue;}.poloto1fill{fill:red;}.poloto2fill{fill:green;}.poloto3fill{fill:gold;}.poloto4fill{fill:aqua;}.poloto5fill{fill:lime;}.poloto6fill{fill:orange;}.poloto7fill{fill:chocolate;}</style><circle  r="1e5" class="poloto_background" /><text  class="poloto_text poloto_legend_text" x="675" y="100" >Refinance 15</text><line  class="poloto_line poloto_legend_icon poloto0stroke poloto0legend" stroke="black" x1="680" x2="730" y1="81.25" y2="81.25" /><path  class="poloto_line poloto0stroke" fill="none" stroke="black" d=" M 150.00 393.13 L 151.35 400.00 L 155.39 390.27 L 156.74 381.94 L 158.09 390.27 L 158.09 390.27 L 160.78 362.48 L 164.82 361.01 L 166.17 370.74 L 167.52 349.74 L 168.87 351.21 L 170.22 346.81 L 174.26 348.28 L 175.61 342.41 L 175.61 342.41 L 178.30 342.95 L 179.65 321.95 L 183.69 331.06 L 185.04 333.99 L 186.39 333.99 L 187.74 333.22 L 189.08 328.74 L 194.47 289.53 L 195.82 306.97 L 197.17 293.46 L 198.52 288.21 L 198.52 288.21 L 203.91 308.52 L 206.60 312.22 L 207.95 303.96 L 211.99 294.16 L 213.34 313.69 L 214.69 303.96 L 214.69 303.96 L 217.39 302.42 L 221.43 305.43 L 222.78 315.16 L 222.78 315.16 L 224.12 306.90 L 225.47 316.70 L 226.82 302.42 L 230.86 331.76 L 232.21 331.06 L 233.56 315.16 L 233.56 315.16 L 234.91 321.95 L 236.25 324.96 L 240.30 324.96 L 241.64 335.46 L 242.99 335.46 L 244.34 335.46 L 245.69 335.46 L 251.08 324.96 L 252.43 321.95 L 253.77 323.42 L 255.12 323.42 L 255.12 323.42 L 260.51 313.69 L 261.86 313.69 L 263.21 305.43 L 268.60 291.92 L 269.95 264.05 L 271.29 267.14 L 272.64 267.14 L 273.99 286.67 L 278.03 267.14 L 279.38 267.14 L 280.73 285.13 L 282.08 288.21 L 287.47 288.21 L 288.81 286.67 L 290.16 291.22 L 291.51 295.70 L 292.86 305.43 L 298.25 312.22 L 299.60 303.96 L 300.94 297.17 L 302.29 294.16 L 306.33 295.70 L 309.03 295.70 L 310.38 294.16 L 315.77 292.69 L 315.77 292.69 L 315.77 292.69 L 315.77 292.69 L 315.77 292.69 L 315.77 292.69 L 318.46 292.69 L 318.46 292.69 L 318.46 292.69 L 318.46 292.69 L 318.46 292.69 L 318.46 292.69 L 325.20 303.96 L 327.90 306.90 L 329.25 332.53 L 330.59 335.46 L 334.64 335.46 L 335.98 333.99 L 337.33 313.69 L 338.68 308.44 L 340.03 295.70 L 344.07 305.43 L 344.07 305.43 L 345.42 297.17 L 348.11 305.43 L 348.11 305.43 L 354.85 305.43 L 356.20 274.70 L 357.55 292.69 L 362.94 261.89 L 365.63 261.89 L 365.63 261.89 L 368.33 273.16 L 373.72 267.14 L 373.72 267.14 L 373.72 267.14 L 373.72 267.14 L 373.72 267.14 L 373.72 267.14 L 373.72 267.14 L 373.72 267.14 L 373.72 267.14 L 377.76 267.14 L 385.85 247.53 L 391.24 249.85 L 391.24 249.85 L 395.28 249.85 L 400.67 249.85 L 402.02 249.85 L 402.02 249.85 L 402.02 249.85 L 402.02 249.85 L 402.02 249.85 L 419.54 249.85 L 420.89 249.85 L 428.98 162.92 L 430.32 154.66 L 431.67 154.66 L 480.19 180.60 L 485.58 180.60 L 486.93 180.60 L 488.27 195.50 L 490.97 203.68 L 490.97 203.68 L 496.36 203.68 L 497.71 203.68 L 499.06 203.68 L 500.40 203.68 L 504.45 203.68 L 505.80 203.68 L 508.49 203.68 L 509.84 203.68 L 513.88 203.68 L 515.23 203.68 L 515.23 203.68 L 519.27 203.68 L 523.32 203.68 L 524.66 203.68 L 526.01 203.68 L 527.36 203.68 L 528.71 203.68 L 534.10 226.15 L 535.44 200.21 L 536.79 180.60 L 538.14 190.40 L 542.18 190.40 L 543.53 190.40 L 543.53 190.40 L 546.23 211.48 L 547.57 211.48 L 551.62 211.48 L 552.96 211.48 L 554.31 211.48 L 555.66 211.48 L 557.01 211.48 L 557.01 211.48 L 557.01 211.48 L 557.01 211.48 L 563.75 211.48 L 566.44 211.48 L 570.49 211.48 L 571.83 211.48 L 574.53 211.48 L 575.88 211.48 L 581.27 211.48 L 582.61 211.48 L 583.96 211.48 L 585.31 239.27 L 589.35 245.45 L 590.70 209.93 L 592.05 221.28 L 593.40 219.74 L 594.74 201.75 L 598.79 161.07 L 600.13 161.07 L 601.48 161.07 L 602.83 162.61 L 604.18 170.79 L 608.22 162.61 L 609.57 162.61 L 610.92 151.26 L 612.26 161.07 L 613.61 141.46 L 619.00 151.26 L 620.35 152.80 L 621.70 143.08 L 623.05 149.64 L 627.09 155.97 L 628.44 152.80 L 629.78 151.26 L 631.13 151.26 L 632.48 162.61 L 636.52 161.07 L 637.87 152.80 L 641.91 240.81 L 645.96 180.60 L 647.30 182.14 L 648.65 172.41 L 650.00 209.93" /><text  class="poloto_text poloto_legend_text" x="675" y="150" >Refinance 20</text><line  class="poloto_line poloto_legend_icon poloto1stroke poloto1legend" stroke="black" x1="680" x2="730" y1="131.25" y2="131.25" /><path  class="poloto_line poloto1stroke" fill="none" stroke="black" d=" M 150.00 350.51 L 151.35 371.13 L 155.39 340.40 L 156.74 330.98 L 158.09 339.63 L 158.09 339.63 L 160.78 312.61 L 164.82 310.29 L 166.17 320.10 L 167.52 309.14 L 168.87 318.94 L 170.22 300.57 L 174.26 328.67 L 175.61 300.57 L 175.61 300.57 L 178.30 300.57 L 178.30 300.57 L 183.69 263.51 L 185.04 293.15 L 186.39 300.57 L 187.74 310.29 L 189.08 291.22 L 194.47 272.47 L 195.82 270.07 L 197.17 265.29 L 198.52 254.32 L 202.56 259.11 L 203.91 279.88 L 206.60 272.47 L 207.95 270.07 L 211.99 262.27 L 213.34 271.31 L 214.69 271.31 L 214.69 271.31 L 217.39 271.31 L 221.43 272.47 L 222.78 292.00 L 222.78 292.00 L 224.12 281.03 L 225.47 299.41 L 226.82 292.00 L 230.86 293.15 L 232.21 292.00 L 233.56 292.00 L 233.56 292.00 L 234.91 293.15 L 236.25 299.41 L 240.30 300.57 L 241.64 304.04 L 242.99 304.04 L 244.34 304.04 L 245.69 304.04 L 251.08 299.41 L 252.43 289.60 L 253.77 292.00 L 255.12 292.00 L 255.12 292.00 L 260.51 279.88 L 261.86 282.19 L 263.21 273.62 L 268.60 232.24 L 269.95 215.11 L 271.29 224.91 L 272.64 232.24 L 273.99 252.93 L 278.03 240.74 L 279.38 234.64 L 280.73 254.17 L 282.08 263.51 L 287.47 263.51 L 288.81 252.93 L 290.16 262.74 L 291.51 272.47 L 292.86 283.43 L 298.25 290.76 L 299.60 281.03 L 300.94 271.31 L 302.29 264.67 L 306.33 270.07 L 309.03 272.47 L 310.38 271.31 L 315.77 272.47 L 315.77 272.47 L 315.77 272.47 L 315.77 272.47 L 315.77 272.47 L 315.77 272.47 L 315.77 272.47 L 315.77 272.47 L 315.77 272.47 L 315.77 272.47 L 315.77 272.47 L 315.77 272.47 L 325.20 290.76 L 327.90 293.15 L 329.25 310.29 L 330.59 312.61 L 334.64 310.06 L 335.98 310.06 L 337.33 300.57 L 338.68 304.04 L 340.03 289.60 L 344.07 282.19 L 344.07 282.19 L 345.42 282.19 L 348.11 292.00 L 348.11 292.00 L 354.85 289.60 L 356.20 272.47 L 357.55 272.47 L 362.94 259.88 L 365.63 249.31 L 365.63 249.31 L 368.33 261.12 L 373.72 232.24 L 373.72 232.24 L 373.72 232.24 L 373.72 232.24 L 373.72 232.24 L 373.72 232.24 L 373.72 232.24 L 373.72 232.24 L 373.72 232.24 L 377.76 232.24 L 385.85 219.97 L 391.24 221.20 L 393.94 221.20 L 395.28 221.20 L 395.28 221.20 L 402.02 221.20 L 403.37 221.20 L 403.37 221.20 L 403.37 221.20 L 403.37 221.20 L 419.54 221.20 L 420.89 221.20 L 428.98 143.85 L 430.32 129.41 L 430.32 129.41 L 482.88 177.12 L 485.58 177.12 L 486.93 177.12 L 489.62 194.26 L 490.97 195.50 L 490.97 195.50 L 496.36 195.50 L 497.71 195.50 L 499.06 195.50 L 500.40 195.50 L 504.45 195.50 L 505.80 195.50 L 508.49 195.50 L 509.84 195.50 L 513.88 195.50 L 515.23 195.50 L 515.23 195.50 L 519.27 195.50 L 523.32 195.50 L 524.66 195.50 L 526.01 195.50 L 527.36 195.50 L 528.71 195.50 L 534.10 178.05 L 535.44 168.55 L 536.79 167.32 L 538.14 169.87 L 542.18 169.87 L 543.53 169.87 L 543.53 169.87 L 546.23 188.16 L 547.57 188.16 L 551.62 188.16 L 552.96 188.16 L 554.31 188.16 L 555.66 188.16 L 557.01 188.16 L 557.01 188.16 L 562.40 188.16 L 562.40 188.16 L 563.75 188.16 L 566.44 188.16 L 570.49 188.16 L 571.83 188.16 L 574.53 188.16 L 575.88 188.16 L 581.27 188.16 L 582.61 188.16 L 583.96 188.16 L 585.31 209.01 L 589.35 207.77 L 590.70 178.36 L 592.05 179.59 L 592.05 179.59 L 594.74 178.36 L 598.79 158.75 L 600.13 158.75 L 601.48 150.26 L 602.83 140.45 L 604.18 149.02 L 608.22 140.45 L 609.57 130.65 L 610.92 140.45 L 612.26 150.26 L 613.61 139.22 L 619.00 140.45 L 620.35 129.41 L 621.70 100.00 L 623.05 129.41 L 627.09 150.26 L 628.44 169.17 L 629.78 140.45 L 631.13 139.22 L 632.48 167.32 L 636.52 160.06 L 637.87 150.26 L 641.91 210.24 L 645.96 168.55 L 647.30 158.75 L 648.65 160.06 L 650.00 188.16" /><text  class="poloto_text poloto_legend_text" x="675" y="200" >Refinance 30</text><line  class="poloto_line poloto_legend_icon poloto2stroke poloto2legend" stroke="black" x1="680" x2="730" y1="181.25" y2="181.25" /><path  class="poloto_line poloto2stroke" fill="none" stroke="black" d=" M 150.00 348.35 L 151.35 355.69 L 155.39 344.26 L 156.74 335.31 L 158.09 337.00 L 158.09 337.00 L 160.78 318.24 L 164.82 316.62 L 166.17 326.35 L 167.52 315.77 L 168.87 325.50 L 170.22 306.82 L 174.26 315.77 L 175.61 297.01 L 176.95 297.01 L 178.30 296.17 L 179.65 272.47 L 183.69 276.63 L 185.04 287.29 L 186.39 297.01 L 187.74 288.14 L 189.08 277.48 L 194.47 269.38 L 195.82 256.18 L 197.17 254.40 L 198.52 252.55 L 202.56 256.18 L 203.91 271.31 L 206.60 269.38 L 207.95 267.60 L 211.99 257.95 L 213.34 268.45 L 214.69 257.95 L 214.69 257.95 L 217.39 257.95 L 221.43 259.73 L 222.78 276.63 L 222.78 276.63 L 224.12 268.45 L 225.47 269.38 L 226.82 270.23 L 230.86 277.48 L 232.21 269.38 L 233.56 269.38 L 233.56 269.38 L 234.91 278.33 L 236.25 279.26 L 240.30 280.11 L 241.64 288.14 L 242.99 288.14 L 244.34 289.84 L 245.69 289.84 L 251.08 286.36 L 252.43 276.63 L 253.77 278.33 L 255.12 277.48 L 255.12 277.48 L 260.51 268.45 L 261.86 268.45 L 263.21 258.80 L 268.60 219.74 L 269.95 192.10 L 271.29 209.01 L 272.64 219.74 L 273.99 229.46 L 278.03 220.59 L 279.38 219.74 L 280.73 237.49 L 282.08 239.27 L 287.47 239.27 L 288.81 228.62 L 290.16 237.49 L 291.51 247.22 L 292.86 268.45 L 298.25 269.38 L 299.60 258.80 L 300.94 240.20 L 302.29 237.49 L 306.33 255.25 L 309.03 239.27 L 310.38 238.34 L 315.77 256.18 L 315.77 256.18 L 315.77 256.18 L 315.77 256.18 L 315.77 256.18 L 315.77 256.18 L 318.46 256.18 L 318.46 256.18 L 318.46 256.18 L 318.46 256.18 L 318.46 256.18 L 318.46 256.18 L 325.20 267.60 L 327.90 269.38 L 329.25 286.36 L 330.59 297.86 L 334.64 297.01 L 335.98 297.01 L 337.33 277.48 L 338.68 280.11 L 340.03 267.60 L 344.07 277.48 L 344.07 277.48 L 345.42 270.23 L 348.11 278.33 L 348.11 278.33 L 354.85 276.63 L 356.20 259.73 L 357.55 258.80 L 362.94 236.57 L 365.63 228.62 L 365.63 228.62 L 368.33 238.34 L 373.72 227.69 L 373.72 227.69 L 373.72 227.69 L 373.72 227.69 L 373.72 227.69 L 373.72 227.69 L 373.72 227.69 L 373.72 227.69 L 377.76 227.69 L 377.76 226.76 L 385.85 215.11 L 391.24 195.50 L 391.24 195.50 L 395.28 195.50 L 395.28 195.50 L 402.02 195.50 L 403.37 195.50 L 403.37 195.50 L 403.37 195.50 L 403.37 195.50 L 419.54 195.50 L 420.89 195.50 L 428.98 151.34 L 430.32 126.71 L 430.32 126.71 L 482.88 169.02 L 485.58 169.02 L 486.93 169.02 L 488.27 172.95 L 490.97 181.91 L 490.97 181.91 L 496.36 181.91 L 497.71 181.91 L 499.06 181.91 L 500.40 181.91 L 504.45 181.91 L 505.80 181.91 L 508.49 181.91 L 509.84 181.91 L 513.88 181.91 L 515.23 181.91 L 515.23 181.91 L 519.27 181.91 L 523.32 181.91 L 524.66 181.91 L 526.01 181.91 L 527.36 181.91 L 528.71 181.91 L 534.10 167.01 L 535.44 174.88 L 536.79 156.20 L 538.14 174.88 L 542.18 174.88 L 543.53 174.88 L 543.53 174.88 L 546.23 174.88 L 547.57 174.88 L 551.62 174.88 L 552.96 174.88 L 554.31 174.88 L 555.66 174.88 L 557.01 174.88 L 557.01 174.88 L 562.40 174.88 L 562.40 174.88 L 563.75 174.88 L 566.44 174.88 L 570.49 174.88 L 571.83 174.88 L 574.53 174.88 L 575.88 174.88 L 581.27 174.88 L 582.61 174.88 L 583.96 174.88 L 585.31 224.91 L 589.35 215.11 L 590.70 175.89 L 592.05 205.30 L 593.40 175.89 L 594.74 166.01 L 598.79 156.20 L 600.13 156.20 L 601.48 147.32 L 602.83 137.52 L 604.18 146.40 L 608.22 146.40 L 609.57 135.59 L 610.92 127.71 L 612.26 137.52 L 613.61 128.72 L 619.00 127.71 L 620.35 116.91 L 621.70 116.91 L 623.05 126.71 L 627.09 127.71 L 628.44 117.91 L 629.78 125.78 L 631.13 117.91 L 632.48 147.32 L 636.52 147.32 L 637.87 127.71 L 641.91 206.23 L 645.96 147.32 L 647.30 146.40 L 648.65 146.40 L 650.00 176.81" /><text  class="poloto_labels poloto_text poloto_title" x="400" y="37.5" >lower.com purchase rates</text><text  class="poloto_labels poloto_text poloto_xname" x="400" y="481.25" >Date</text><text  class="poloto_labels poloto_text poloto_yname" transform="rotate(-90,37.5,250)" x="37.5" y="250" >Rate (%)</text><text  class="poloto_tick_labels poloto_text" dominant-baseline="middle" text-anchor="start" x="150" y="70" ></text><line  class="poloto_axis_lines" stroke="black" x1="150" x2="144" y1="391.12197632527017" y2="391.12197632527017" /><line  class="poloto_tick_line" stroke="black" x1="150" x2="650" y1="391.12197632527017" y2="391.12197632527017" /><text  class="poloto_tick_labels poloto_text" dominant-baseline="middle" text-anchor="end" x="135" y="391.12197632527017" >3.625</text><line  class="poloto_axis_lines" stroke="black" x1="150" x2="144" y1="381.4719505918682" y2="381.4719505918682" /><line  class="poloto_tick_line" stroke="black" x1="150" x2="650" y1="381.4719505918682" y2="381.4719505918682" /><text  class="poloto_tick_labels poloto_text" dominant-baseline="middle" text-anchor="end" x="135" y="381.4719505918682" >3.75</text><line  class="poloto_axis_lines" stroke="black" x1="150" x2="144" y1="371.8219248584663" y2="371.8219248584663" /><line  class="poloto_tick_line" stroke="black" x1="150" x2="650" y1="371.8219248584663" y2="371.8219248584663" /><text  class="poloto_tick_labels poloto_text" dominant-baseline="middle" text-anchor="end" x="135" y="371.8219248584663" >3.875</text><line  class="poloto_axis_lines" stroke="black" x1="150" x2="144" y1="362.17189912506433" y2="362.17189912506433" /><line  class="poloto_tick_line" stroke="black" x1="150" x2="650" y1="362.17189912506433" y2="362.17189912506433" /><text  class="poloto_tick_labels poloto_text" dominant-baseline="middle" text-anchor="end" x="135" y="362.17189912506433" >4</text><line  class="poloto_axis_lines" stroke="black" x1="150" x2="144" y1="352.5218733916624" y2="352.5218733916624" /><line  class="poloto_tick_line" stroke="black" x1="150" x2="650" y1="352.5218733916624" y2="352.5218733916624" /><text  class="poloto_tick_labels poloto_text" dominant-baseline="middle" text-anchor="end" x="135" y="352.5218733916624" >4.125</text><line  class="poloto_axis_lines" stroke="black" x1="150" x2="144" y1="342.87184765826044" y2="342.87184765826044" /><line  class="poloto_tick_line" stroke="black" x1="150" x2="650" y1="342.87184765826044" y2="342.87184765826044" /><text  class="poloto_tick_labels poloto_text" dominant-baseline="middle" text-anchor="end" x="135" y="342.87184765826044" >4.25</text><line  class="poloto_axis_lines" stroke="black" x1="150" x2="144" y1="333.2218219248585" y2="333.2218219248585" /><line  class="poloto_tick_line" stroke="black" x1="150" x2="650" y1="333.2218219248585" y2="333.2218219248585" /><text  class="poloto_tick_labels poloto_text" dominant-baseline="middle" text-anchor="end" x="135" y="333.2218219248585" >4.375</text><line  class="poloto_axis_lines" stroke="black" x1="150" x2="144" y1="323.5717961914565" y2="323.5717961914565" /><line  class="poloto_tick_line" stroke="black" x1="150" x2="650" y1="323.5717961914565" y2="323.5717961914565" /><text  class="poloto_tick_labels poloto_text" dominant-baseline="middle" text-anchor="end" x="135" y="323.5717961914565" >4.5</text><line  class="poloto_axis_lines" stroke="black" x1="150" x2="144" y1="313.92177045805454" y2="313.92177045805454" /><line  class="poloto_tick_line" stroke="black" x1="150" x2="650" y1="313.92177045805454" y2="313.92177045805454" /><text  class="poloto_tick_labels poloto_text" dominant-baseline="middle" text-anchor="end" x="135" y="313.92177045805454" >4.625</text><line  class="poloto_axis_lines" stroke="black" x1="150" x2="144" y1="304.2717447246526" y2="304.2717447246526" /><line  class="poloto_tick_line" stroke="black" x1="150" x2="650" y1="304.2717447246526" y2="304.2717447246526" /><text  class="poloto_tick_labels poloto_text" dominant-baseline="middle" text-anchor="end" x="135" y="304.2717447246526" >4.75</text><line  class="poloto_axis_lines" stroke="black" x1="150" x2="144" y1="294.62171899125065" y2="294.62171899125065" /><line  class="poloto_tick_line" stroke="black" x1="150" x2="650" y1="294.62171899125065" y2="294.62171899125065" /><text  class="poloto_tick_labels poloto_text" dominant-baseline="middle" text-anchor="end" x="135" y="294.62171899125065" >4.875</text><line  class="poloto_axis_lines" stroke="black" x1="150" x2="144" y1="284.9716932578487" y2="284.9716932578487" /><line  class="poloto_tick_line" stroke="black" x1="150" x2="650" y1="284.9716932578487" y2="284.9716932578487" /><text  class="poloto_tick_labels poloto_text" dominant-baseline="middle" text-anchor="end" x="135" y="284.9716932578487" >5</text><line  class="poloto_axis_lines" stroke="black" x1="150" x2="144" y1="275.32166752444675" y2="275.32166752444675" /><line  class="poloto_tick_line" stroke="black" x1="150" x2="650" y1="275.32166752444675" y2="275.32166752444675" /><text  class="poloto_tick_labels poloto_text" dominant-baseline="middle" text-anchor="end" x="135" y="275.32166752444675" >5.125</text><line  class="poloto_axis_lines" stroke="black" x1="150" x2="144" y1="265.67164179104475" y2="265.67164179104475" /><line  class="poloto_tick_line" stroke="black" x1="150" x2="650" y1="265.67164179104475" y2="265.67164179104475" /><text  class="poloto_tick_labels poloto_text" dominant-baseline="middle" text-anchor="end" x="135" y="265.67164179104475" >5.25</text><line  class="poloto_axis_lines" stroke="black" x1="150" x2="144" y1="256.0216160576428" y2="256.0216160576428" /><line  class="poloto_tick_line" stroke="black" x1="150" x2="650" y1="256.0216160576428" y2="256.0216160576428" /><text  class="poloto_tick_labels poloto_text" dominant-baseline="middle" text-anchor="end" x="135" y="256.0216160576428" >5.375</text><line  class="poloto_axis_lines" stroke="black" x1="150" x2="144" y1="246.37159032424086" y2="246.37159032424086" /><line  class="poloto_tick_line" stroke="black" x1="150" x2="650" y1="246.37159032424086" y2="246.37159032424086" /><text  class="poloto_tick_labels poloto_text" dominant-baseline="middle" text-anchor="end" x="135" y="246.37159032424086" >5.5</text><line  class="poloto_axis_lines" stroke="black" x1="150" x2="144" y1="236.7215645908389" y2="236.7215645908389" /><line  class="poloto_tick_line" stroke="black" x1="150" x2="650" y1="236.7215645908389" y2="236.7215645908389" /><text  class="poloto_tick_labels poloto_text" dominant-baseline="middle" text-anchor="end" x="135" y="236.7215645908389" >5.625</text><line  class="poloto_axis_lines" stroke="black" x1="150" x2="144" y1="227.07153885743696" y2="227.07153885743696" /><line  class="poloto_tick_line" stroke="black" x1="150" x2="650" y1="227.07153885743696" y2="227.07153885743696" /><text  class="poloto_tick_labels poloto_text" dominant-baseline="middle" text-anchor="end" x="135" y="227.07153885743696" >5.75</text><line  class="poloto_axis_lines" stroke="black" x1="150" x2="144" y1="217.42151312403502" y2="217.42151312403502" /><line  class="poloto_tick_line" stroke="black" x1="150" x2="650" y1="217.42151312403502" y2="217.42151312403502" /><text  class="poloto_tick_labels poloto_text" dominant-baseline="middle" text-anchor="end" x="135" y="217.42151312403502" >5.875</text><line  class="poloto_axis_lines" stroke="black" x1="150" x2="144" y1="207.771487390633" y2="207.771487390633" /><line  class="poloto_tick_line" stroke="black" x1="150" x2="650" y1="207.771487390633" y2="207.771487390633" /><text  class="poloto_tick_labels poloto_text" dominant-baseline="middle" text-anchor="end" x="135" y="207.771487390633" >6</text><line  class="poloto_axis_lines" stroke="black" x1="150" x2="144" y1="198.12146165723107" y2="198.12146165723107" /><line  class="poloto_tick_line" stroke="black" x1="150" x2="650" y1="198.12146165723107" y2="198.12146165723107" /><text  class="poloto_tick_labels poloto_text" dominant-baseline="middle" text-anchor="end" x="135" y="198.12146165723107" >6.125</text><line  class="poloto_axis_lines" stroke="black" x1="150" x2="144" y1="188.47143592382912" y2="188.47143592382912" /><line  class="poloto_tick_line" stroke="black" x1="150" x2="650" y1="188.47143592382912" y2="188.47143592382912" /><text  class="poloto_tick_labels poloto_text" dominant-baseline="middle" text-anchor="end" x="135" y="188.47143592382912" >6.25</text><line  class="poloto_axis_lines" stroke="black" x1="150" x2="144" y1="178.82141019042717" y2="178.82141019042717" /><line  class="poloto_tick_line" stroke="black" x1="150" x2="650" y1="178.82141019042717" y2="178.82141019042717" /><text  class="poloto_tick_labels poloto_text" dominant-baseline="middle" text-anchor="end" x="135" y="178.82141019042717" >6.375</text><line  class="poloto_axis_lines" stroke="black" x1="150" x2="144" y1="169.17138445702523" y2="169.17138445702523" /><line  class="poloto_tick_line" stroke="black" x1="150" x2="650" y1="169.17138445702523" y2="169.17138445702523" /><text  class="poloto_tick_labels poloto_text" dominant-baseline="middle" text-anchor="end" x="135" y="169.17138445702523" >6.5</text><line  class="poloto_axis_lines" stroke="black" x1="150" x2="144" y1="159.52135872362328" y2="159.52135872362328" /><line  class="poloto_tick_line" stroke="black" x1="150" x2="650" y1="159.52135872362328" y2="159.52135872362328" /><text  class="poloto_tick_labels poloto_text" dominant-baseline="middle" text-anchor="end" x="135" y="159.52135872362328" >6.625</text><line  class="poloto_axis_lines" stroke="black" x1="150" x2="144" y1="149.87133299022133" y2="149.87133299022133" /><line  class="poloto_tick_line" stroke="black" x1="150" x2="650" y1="149.87133299022133" y2="149.87133299022133" /><text  class="poloto_tick_labels poloto_text" dominant-baseline="middle" text-anchor="end" x="135" y="149.87133299022133" >6.75</text><line  class="poloto_axis_lines" stroke="black" x1="150" x2="144" y1="140.22130725681933" y2="140.22130725681933" /><line  class="poloto_tick_line" stroke="black" x1="150" x2="650" y1="140.22130725681933" y2="140.22130725681933" /><text  class="poloto_tick_labels poloto_text" dominant-baseline="middle" text-anchor="end" x="135" y="140.22130725681933" >6.875</text><line  class="poloto_axis_lines" stroke="black" x1="150" x2="144" y1="130.57128152341744" y2="130.57128152341744" /><line  class="poloto_tick_line" stroke="black" x1="150" x2="650" y1="130.57128152341744" y2="130.57128152341744" /><text  class="poloto_tick_labels poloto_text" dominant-baseline="middle" text-anchor="end" x="135" y="130.57128152341744" >7</text><line  class="poloto_axis_lines" stroke="black" x1="150" x2="144" y1="120.92125579001544" y2="120.92125579001544" /><line  class="poloto_tick_line" stroke="black" x1="150" x2="650" y1="120.92125579001544" y2="120.92125579001544" /><text  class="poloto_tick_labels poloto_text" dominant-baseline="middle" text-anchor="end" x="135" y="120.92125579001544" >7.125</text><line  class="poloto_axis_lines" stroke="black" x1="150" x2="144" y1="111.27123005661343" y2="111.27123005661343" /><line  class="poloto_tick_line" stroke="black" x1="150" x2="650" y1="111.27123005661343" y2="111.27123005661343" /><text  class="poloto_tick_labels poloto_text" dominant-baseline="middle" text-anchor="end" x="135" y="111.27123005661343" >7.25</text><line  class="poloto_axis_lines" stroke="black" x1="150" x2="144" y1="101.62120432321154" y2="101.62120432321154" /><line  class="poloto_tick_line" stroke="black" x1="150" x2="650" y1="101.62120432321154" y2="101.62120432321154" /><text  class="poloto_tick_labels poloto_text" dominant-baseline="middle" text-anchor="end" x="135" y="101.62120432321154" >7.375</text><text  class="poloto_tick_labels poloto_text" dominant-baseline="middle" text-anchor="start" x="440.00000000000006" y="70" >¹2022-05-01 00:00:00 UTC in Months</text><line  class="poloto_axis_lines" stroke="black" x1="210.64690026954122" x2="210.64690026954122" y1="400" y2="405" /><line  class="poloto_tick_line" stroke="black" x1="210.64690026954122" x2="210.64690026954122" y1="400" y2="100.00000000000006" /><text  class="poloto_tick_labels poloto_text" dominant-baseline="start" text-anchor="middle" x="210.64690026954122" y="430" >2022 May¹</text><line  class="poloto_axis_lines" stroke="black" x1="292.85714285714494" x2="292.85714285714494" y1="400" y2="405" /><line  class="poloto_tick_line" stroke="black" x1="292.85714285714494" x2="292.85714285714494" y1="400" y2="100.00000000000006" /><text  class="poloto_tick_labels poloto_text" dominant-baseline="start" text-anchor="middle" x="292.85714285714494" y="430" >2022 Jul</text><line  class="poloto_axis_lines" stroke="black" x1="376.41509433962347" x2="376.41509433962347" y1="400" y2="405" /><line  class="poloto_tick_line" stroke="black" x1="376.41509433962347" x2="376.41509433962347" y1="400" y2="100.00000000000006" /><text  class="poloto_tick_labels poloto_text" dominant-baseline="start" text-anchor="middle" x="376.41509433962347" y="430" >2022 Sep</text><line  class="poloto_axis_lines" stroke="black" x1="458.62533692722354" x2="458.62533692722354" y1="400" y2="405" /><line  class="poloto_tick_line" stroke="black" x1="458.62533692722354" x2="458.62533692722354" y1="400" y2="100.00000000000006" /><text  class="poloto_tick_labels poloto_text" dominant-baseline="start" text-anchor="middle" x="458.62533692722354" y="430" >2022 Nov</text><line  class="poloto_axis_lines" stroke="black" x1="540.8355795148236" x2="540.8355795148236" y1="400" y2="405" /><line  class="poloto_tick_line" stroke="black" x1="540.8355795148236" x2="540.8355795148236" y1="400" y2="100.00000000000006" /><text  class="poloto_tick_labels poloto_text" dominant-baseline="start" text-anchor="middle" x="540.8355795148236" y="430" >2023 Jan</text><line  class="poloto_axis_lines" stroke="black" x1="620.3504043126704" x2="620.3504043126704" y1="400" y2="405" /><line  class="poloto_tick_line" stroke="black" x1="620.3504043126704" x2="620.3504043126704" y1="400" y2="100.00000000000006" /><text  class="poloto_tick_labels poloto_text" dominant-baseline="start" text-anchor="middle" x="620.3504043126704" y="430" >2023 Mar</text><path  stroke="black" fill="none" class="poloto_axis_lines" d=" M 150 400 L 650 400" /><path  stroke="black" fill="none" class="poloto_axis_lines" d=" M 150 400 L 150 100.00000000000006" /></svg>