<svg class="poloto" width="800" height="500" viewBox="0 0 800 500" xmlns="http://www.w3.org/2000/svg"><style>.poloto{stroke-linecap:round;stroke-linejoin:round;font-family:Roboto,sans-serif;font-size:16px;}.poloto_background{fill:#262626;}.poloto_scatter{stroke-width:7}.poloto_tick_line{stroke:dimgray;stroke-width:0.5}.poloto_line{stroke-width:2}.poloto_text{fill: white;}.poloto_axis_lines{stroke: white;stroke-width:3;fill:none;stroke-dasharray:none}.poloto_title{font-size:24px;dominant-baseline:start;text-anchor:middle;}.poloto_xname{font-size:24px;dominant-baseline:start;text-anchor:middle;}.poloto_yname{font-size:24px;dominant-baseline:start;text-anchor:middle;}.poloto0stroke{stroke:blue;}.poloto1stroke{stroke:red;}.poloto2stroke{stroke:green;}.poloto3stroke{stroke:gold;}.poloto4stroke{stroke:aqua;}.poloto5stroke{stroke:lime;}.poloto6stroke{stroke:orange;}.poloto7stroke{stroke:chocolate;}.poloto0fill{fill:blue;}.poloto1fill{fill:red;}.poloto2fill{fill:green;}.poloto3fill{fill:gold;}.poloto4fill{fill:aqua;}.poloto5fill{fill:lime;}.poloto6fill{fill:orange;}.poloto7fill{fill:chocolate;}</style><circle  r="1e5" class="poloto_background" /><text  class="poloto_text poloto_legend_text" x="675" y="100" >Refinance 15</text><line  class="poloto_line poloto_legend_icon poloto0stroke poloto0legend" stroke="black" x1="680" x2="730" y1="81.25" y2="81.25" /><path  class="poloto_line poloto0stroke" fill="none" stroke="black" d=" M 150.00 392.46 L 151.46 400.00 L 155.85 389.32 L 157.31 380.17 L 158.77 389.32 L 158.77 389.32 L 161.70 358.81 L 166.08 357.20 L 167.54 367.88 L 169.01 344.83 L 170.47 346.44 L 171.93 341.61 L 176.32 343.22 L 177.78 336.78 L 177.78 336.78 L 180.70 337.37 L 182.16 314.32 L 186.55 324.32 L 188.01 327.54 L 189.47 327.54 L 190.94 326.69 L 192.40 321.78 L 198.25 278.73 L 199.71 297.88 L 201.17 283.05 L 202.63 277.29 L 202.63 277.29 L 208.48 299.58 L 211.40 303.64 L 212.87 294.58 L 217.25 283.81 L 218.71 305.25 L 220.18 294.58 L 220.18 294.58 L 223.10 292.88 L 227.49 296.19 L 228.95 306.86 L 228.95 306.86 L 230.41 297.80 L 231.87 308.56 L 233.33 292.88 L 237.72 325.08 L 239.18 324.32 L 240.64 306.86 L 240.64 306.86 L 242.11 314.32 L 243.57 317.63 L 247.95 317.63 L 249.42 329.15 L 250.88 329.15 L 252.34 329.15 L 253.80 329.15 L 259.65 317.63 L 261.11 314.32 L 262.57 315.93 L 264.04 315.93 L 264.04 315.93 L 269.88 305.25 L 271.35 305.25 L 272.81 296.19 L 278.65 281.36 L 280.12 250.76 L 281.58 254.15 L 283.04 254.15 L 284.50 275.59 L 288.89 254.15 L 290.35 254.15 L 291.81 273.90 L 293.27 277.29 L 299.12 277.29 L 300.58 275.59 L 302.05 280.59 L 303.51 285.51 L 304.97 296.19 L 310.82 303.64 L 312.28 294.58 L 313.74 287.12 L 315.20 283.81 L 319.59 285.51 L 322.51 285.51 L 323.98 283.81 L 329.82 282.20 L 329.82 282.20 L 329.82 282.20 L 329.82 282.20 L 329.82 282.20 L 329.82 282.20 L 332.75 282.20 L 332.75 282.20 L 332.75 282.20 L 332.75 282.20 L 332.75 282.20 L 332.75 282.20 L 340.06 294.58 L 342.98 297.80 L 344.44 325.93 L 345.91 329.15 L 350.29 329.15 L 351.75 327.54 L 353.22 305.25 L 354.68 299.49 L 356.14 285.51 L 360.53 296.19 L 360.53 296.19 L 361.99 287.12 L 364.91 296.19 L 364.91 296.19 L 372.22 296.19 L 373.68 262.46 L 375.15 282.20 L 380.99 248.39 L 383.92 248.39 L 383.92 248.39 L 386.84 260.76 L 392.69 254.15 L 392.69 254.15 L 392.69 254.15 L 392.69 254.15 L 392.69 254.15 L 392.69 254.15 L 392.69 254.15 L 392.69 254.15 L 392.69 254.15 L 397.08 254.15 L 405.85 232.63 L 411.70 235.17 L 411.70 235.17 L 416.08 235.17 L 421.93 235.17 L 423.39 235.17 L 423.39 235.17 L 423.39 235.17 L 423.39 235.17 L 423.39 235.17 L 442.40 235.17 L 443.86 235.17 L 452.63 139.75 L 454.09 130.68 L 455.56 130.68 L 508.19 159.15 L 514.04 159.15 L 515.50 159.15 L 516.96 175.51 L 519.88 184.49 L 519.88 184.49 L 525.73 184.49 L 527.19 184.49 L 528.65 184.49 L 530.12 184.49 L 534.50 184.49 L 535.96 184.49 L 538.89 184.49 L 540.35 184.49 L 544.74 184.49 L 546.20 184.49 L 546.20 184.49 L 550.58 184.49 L 554.97 184.49 L 556.43 184.49 L 557.89 184.49 L 559.36 184.49 L 560.82 184.49 L 566.67 209.15 L 568.13 180.68 L 569.59 159.15 L 571.05 169.92 L 575.44 169.92 L 576.90 169.92 L 576.90 169.92 L 579.82 193.05 L 581.29 193.05 L 585.67 193.05 L 587.13 193.05 L 588.60 193.05 L 590.06 193.05 L 591.52 193.05 L 591.52 193.05 L 591.52 193.05 L 591.52 193.05 L 598.83 193.05 L 601.75 193.05 L 606.14 193.05 L 607.60 193.05 L 610.53 193.05 L 611.99 193.05 L 617.84 193.05 L 619.30 193.05 L 620.76 193.05 L 622.22 223.56 L 626.61 230.34 L 628.07 191.36 L 629.53 203.81 L 630.99 202.12 L 632.46 182.37 L 636.84 137.71 L 638.30 137.71 L 639.77 137.71 L 641.23 139.41 L 642.69 148.39 L 647.08 139.41 L 648.54 139.41 L 650.00 126.95" /><text  class="poloto_text poloto_legend_text" x="675" y="150" >Refinance 20</text><line  class="poloto_line poloto_legend_icon poloto1stroke poloto1legend" stroke="black" x1="680" x2="730" y1="131.25" y2="131.25" /><path  class="poloto_line poloto1stroke" fill="none" stroke="black" d=" M 150.00 345.68 L 151.46 368.31 L 155.85 334.58 L 157.31 324.24 L 158.77 333.73 L 158.77 333.73 L 161.70 304.07 L 166.08 301.53 L 167.54 312.29 L 169.01 300.25 L 170.47 311.02 L 171.93 290.85 L 176.32 321.69 L 177.78 290.85 L 177.78 290.85 L 180.70 290.85 L 180.70 290.85 L 186.55 250.17 L 188.01 282.71 L 189.47 290.85 L 190.94 301.53 L 192.40 280.59 L 198.25 260.00 L 199.71 257.37 L 201.17 252.12 L 202.63 240.08 L 207.02 245.34 L 208.48 268.14 L 211.40 260.00 L 212.87 257.37 L 217.25 248.81 L 218.71 258.73 L 220.18 258.73 L 220.18 258.73 L 223.10 258.73 L 227.49 260.00 L 228.95 281.44 L 228.95 281.44 L 230.41 269.41 L 231.87 289.58 L 233.33 281.44 L 237.72 282.71 L 239.18 281.44 L 240.64 281.44 L 240.64 281.44 L 242.11 282.71 L 243.57 289.58 L 247.95 290.85 L 249.42 294.66 L 250.88 294.66 L 252.34 294.66 L 253.80 294.66 L 259.65 289.58 L 261.11 278.81 L 262.57 281.44 L 264.04 281.44 L 264.04 281.44 L 269.88 268.14 L 271.35 270.68 L 272.81 261.27 L 278.65 215.85 L 280.12 197.03 L 281.58 207.80 L 283.04 215.85 L 284.50 238.56 L 288.89 225.17 L 290.35 218.47 L 291.81 239.92 L 293.27 250.17 L 299.12 250.17 L 300.58 238.56 L 302.05 249.32 L 303.51 260.00 L 304.97 272.03 L 310.82 280.08 L 312.28 269.41 L 313.74 258.73 L 315.20 251.44 L 319.59 257.37 L 322.51 260.00 L 323.98 258.73 L 329.82 260.00 L 329.82 260.00 L 329.82 260.00 L 329.82 260.00 L 329.82 260.00 L 329.82 260.00 L 329.82 260.00 L 329.82 260.00 L 329.82 260.00 L 329.82 260.00 L 329.82 260.00 L 329.82 260.00 L 340.06 280.08 L 342.98 282.71 L 344.44 301.53 L 345.91 304.07 L 350.29 301.27 L 351.75 301.27 L 353.22 290.85 L 354.68 294.66 L 356.14 278.81 L 360.53 270.68 L 360.53 270.68 L 361.99 270.68 L 364.91 281.44 L 364.91 281.44 L 372.22 278.81 L 373.68 260.00 L 375.15 260.00 L 380.99 246.19 L 383.92 234.58 L 383.92 234.58 L 386.84 247.54 L 392.69 215.85 L 392.69 215.85 L 392.69 215.85 L 392.69 215.85 L 392.69 215.85 L 392.69 215.85 L 392.69 215.85 L 392.69 215.85 L 392.69 215.85 L 397.08 215.85 L 405.85 202.37 L 411.70 203.73 L 414.62 203.73 L 416.08 203.73 L 416.08 203.73 L 423.39 203.73 L 424.85 203.73 L 424.85 203.73 L 424.85 203.73 L 424.85 203.73 L 442.40 203.73 L 443.86 203.73 L 452.63 118.81 L 454.09 102.97 L 454.09 102.97 L 511.11 155.34 L 514.04 155.34 L 515.50 155.34 L 518.42 174.15 L 519.88 175.51 L 519.88 175.51 L 525.73 175.51 L 527.19 175.51 L 528.65 175.51 L 530.12 175.51 L 534.50 175.51 L 535.96 175.51 L 538.89 175.51 L 540.35 175.51 L 544.74 175.51 L 546.20 175.51 L 546.20 175.51 L 550.58 175.51 L 554.97 175.51 L 556.43 175.51 L 557.89 175.51 L 559.36 175.51 L 560.82 175.51 L 566.67 156.36 L 568.13 145.93 L 569.59 144.58 L 571.05 147.37 L 575.44 147.37 L 576.90 147.37 L 576.90 147.37 L 579.82 167.46 L 581.29 167.46 L 585.67 167.46 L 587.13 167.46 L 588.60 167.46 L 590.06 167.46 L 591.52 167.46 L 591.52 167.46 L 597.37 167.46 L 597.37 167.46 L 598.83 167.46 L 601.75 167.46 L 606.14 167.46 L 607.60 167.46 L 610.53 167.46 L 611.99 167.46 L 617.84 167.46 L 619.30 167.46 L 620.76 167.46 L 622.22 190.34 L 626.61 188.98 L 628.07 156.69 L 629.53 158.05 L 629.53 158.05 L 632.46 156.69 L 636.84 135.17 L 638.30 135.17 L 639.77 125.85 L 641.23 115.08 L 642.69 124.49 L 647.08 115.08 L 648.54 104.32 L 650.00 115.08" /><text  class="poloto_text poloto_legend_text" x="675" y="200" >Refinance 30</text><line  class="poloto_line poloto_legend_icon poloto2stroke poloto2legend" stroke="black" x1="680" x2="730" y1="181.25" y2="181.25" /><path  class="poloto_line poloto2stroke" fill="none" stroke="black" d=" M 150.00 343.31 L 151.46 351.36 L 155.85 338.81 L 157.31 328.98 L 158.77 330.85 L 158.77 330.85 L 161.70 310.25 L 166.08 308.47 L 167.54 319.15 L 169.01 307.54 L 170.47 318.22 L 171.93 297.71 L 176.32 307.54 L 177.78 286.95 L 179.24 286.95 L 180.70 286.02 L 182.16 260.00 L 186.55 264.58 L 188.01 276.27 L 189.47 286.95 L 190.94 277.20 L 192.40 265.51 L 198.25 256.61 L 199.71 242.12 L 201.17 240.17 L 202.63 238.14 L 207.02 242.12 L 208.48 258.73 L 211.40 256.61 L 212.87 254.66 L 217.25 244.07 L 218.71 255.59 L 220.18 244.07 L 220.18 244.07 L 223.10 244.07 L 227.49 246.02 L 228.95 264.58 L 228.95 264.58 L 230.41 255.59 L 231.87 256.61 L 233.33 257.54 L 237.72 265.51 L 239.18 256.61 L 240.64 256.61 L 240.64 256.61 L 242.11 266.44 L 243.57 267.46 L 247.95 268.39 L 249.42 277.20 L 250.88 277.20 L 252.34 279.07 L 253.80 279.07 L 259.65 275.25 L 261.11 264.58 L 262.57 266.44 L 264.04 265.51 L 264.04 265.51 L 269.88 255.59 L 271.35 255.59 L 272.81 245.00 L 278.65 202.12 L 280.12 171.78 L 281.58 190.34 L 283.04 202.12 L 284.50 212.80 L 288.89 203.05 L 290.35 202.12 L 291.81 221.61 L 293.27 223.56 L 299.12 223.56 L 300.58 211.86 L 302.05 221.61 L 303.51 232.29 L 304.97 255.59 L 310.82 256.61 L 312.28 245.00 L 313.74 224.58 L 315.20 221.61 L 319.59 241.10 L 322.51 223.56 L 323.98 222.54 L 329.82 242.12 L 329.82 242.12 L 329.82 242.12 L 329.82 242.12 L 329.82 242.12 L 329.82 242.12 L 332.75 242.12 L 332.75 242.12 L 332.75 242.12 L 332.75 242.12 L 332.75 242.12 L 332.75 242.12 L 340.06 254.66 L 342.98 256.61 L 344.44 275.25 L 345.91 287.88 L 350.29 286.95 L 351.75 286.95 L 353.22 265.51 L 354.68 268.39 L 356.14 254.66 L 360.53 265.51 L 360.53 265.51 L 361.99 257.54 L 364.91 266.44 L 364.91 266.44 L 372.22 264.58 L 373.68 246.02 L 375.15 245.00 L 380.99 220.59 L 383.92 211.86 L 383.92 211.86 L 386.84 222.54 L 392.69 210.85 L 392.69 210.85 L 392.69 210.85 L 392.69 210.85 L 392.69 210.85 L 392.69 210.85 L 392.69 210.85 L 392.69 210.85 L 397.08 210.85 L 397.08 209.83 L 405.85 197.03 L 411.70 175.51 L 411.70 175.51 L 416.08 175.51 L 416.08 175.51 L 423.39 175.51 L 424.85 175.51 L 424.85 175.51 L 424.85 175.51 L 424.85 175.51 L 442.40 175.51 L 443.86 175.51 L 452.63 127.03 L 454.09 100.00 L 454.09 100.00 L 511.11 146.44 L 514.04 146.44 L 515.50 146.44 L 516.96 150.76 L 519.88 160.59 L 519.88 160.59 L 525.73 160.59 L 527.19 160.59 L 528.65 160.59 L 530.12 160.59 L 534.50 160.59 L 535.96 160.59 L 538.89 160.59 L 540.35 160.59 L 544.74 160.59 L 546.20 160.59 L 546.20 160.59 L 550.58 160.59 L 554.97 160.59 L 556.43 160.59 L 557.89 160.59 L 559.36 160.59 L 560.82 160.59 L 566.67 144.24 L 568.13 152.88 L 569.59 132.37 L 571.05 152.88 L 575.44 152.88 L 576.90 152.88 L 576.90 152.88 L 579.82 152.88 L 581.29 152.88 L 585.67 152.88 L 587.13 152.88 L 588.60 152.88 L 590.06 152.88 L 591.52 152.88 L 591.52 152.88 L 597.37 152.88 L 597.37 152.88 L 598.83 152.88 L 601.75 152.88 L 606.14 152.88 L 607.60 152.88 L 610.53 152.88 L 611.99 152.88 L 617.84 152.88 L 619.30 152.88 L 620.76 152.88 L 622.22 207.80 L 626.61 197.03 L 628.07 153.98 L 629.53 186.27 L 630.99 153.98 L 632.46 143.14 L 636.84 132.37 L 638.30 132.37 L 639.77 122.63 L 641.23 111.86 L 642.69 121.61 L 647.08 121.61 L 648.54 109.75 L 650.00 101.10" /><text  class="poloto_labels poloto_text poloto_title" x="400" y="37.5" >lower.com purchase rates</text><text  class="poloto_labels poloto_text poloto_xname" x="400" y="481.25" >Date</text><text  class="poloto_labels poloto_text poloto_yname" transform="rotate(-90,37.5,250)" x="37.5" y="250" >Rate (%)</text><text  class="poloto_tick_labels poloto_text" dominant-baseline="middle" text-anchor="start" x="150" y="70" ></text><line  class="poloto_axis_lines" stroke="black" x1="150" x2="144" y1="390.2542372881356" y2="390.2542372881356" /><line  class="poloto_tick_line" stroke="black" x1="150" x2="650" y1="390.2542372881356" y2="390.2542372881356" /><text  class="poloto_tick_labels poloto_text" dominant-baseline="middle" text-anchor="end" x="135" y="390.2542372881356" >3.625</text><line  class="poloto_axis_lines" stroke="black" x1="150" x2="144" y1="379.66101694915255" y2="379.66101694915255" /><line  class="poloto_tick_line" stroke="black" x1="150" x2="650" y1="379.66101694915255" y2="379.66101694915255" /><text  class="poloto_tick_labels poloto_text" dominant-baseline="middle" text-anchor="end" x="135" y="379.66101694915255" >3.75</text><line  class="poloto_axis_lines" stroke="black" x1="150" x2="144" y1="369.06779661016947" y2="369.06779661016947" /><line  class="poloto_tick_line" stroke="black" x1="150" x2="650" y1="369.06779661016947" y2="369.06779661016947" /><text  class="poloto_tick_labels poloto_text" dominant-baseline="middle" text-anchor="end" x="135" y="369.06779661016947" >3.875</text><line  class="poloto_axis_lines" stroke="black" x1="150" x2="144" y1="358.47457627118644" y2="358.47457627118644" /><line  class="poloto_tick_line" stroke="black" x1="150" x2="650" y1="358.47457627118644" y2="358.47457627118644" /><text  class="poloto_tick_labels poloto_text" dominant-baseline="middle" text-anchor="end" x="135" y="358.47457627118644" >4</text><line  class="poloto_axis_lines" stroke="black" x1="150" x2="144" y1="347.8813559322034" y2="347.8813559322034" /><line  class="poloto_tick_line" stroke="black" x1="150" x2="650" y1="347.8813559322034" y2="347.8813559322034" /><text  class="poloto_tick_labels poloto_text" dominant-baseline="middle" text-anchor="end" x="135" y="347.8813559322034" >4.125</text><line  class="poloto_axis_lines" stroke="black" x1="150" x2="144" y1="337.2881355932203" y2="337.2881355932203" /><line  class="poloto_tick_line" stroke="black" x1="150" x2="650" y1="337.2881355932203" y2="337.2881355932203" /><text  class="poloto_tick_labels poloto_text" dominant-baseline="middle" text-anchor="end" x="135" y="337.2881355932203" >4.25</text><line  class="poloto_axis_lines" stroke="black" x1="150" x2="144" y1="326.6949152542373" y2="326.6949152542373" /><line  class="poloto_tick_line" stroke="black" x1="150" x2="650" y1="326.6949152542373" y2="326.6949152542373" /><text  class="poloto_tick_labels poloto_text" dominant-baseline="middle" text-anchor="end" x="135" y="326.6949152542373" >4.375</text><line  class="poloto_axis_lines" stroke="black" x1="150" x2="144" y1="316.10169491525426" y2="316.10169491525426" /><line  class="poloto_tick_line" stroke="black" x1="150" x2="650" y1="316.10169491525426" y2="316.10169491525426" /><text  class="poloto_tick_labels poloto_text" dominant-baseline="middle" text-anchor="end" x="135" y="316.10169491525426" >4.5</text><line  class="poloto_axis_lines" stroke="black" x1="150" x2="144" y1="305.50847457627117" y2="305.50847457627117" /><line  class="poloto_tick_line" stroke="black" x1="150" x2="650" y1="305.50847457627117" y2="305.50847457627117" /><text  class="poloto_tick_labels poloto_text" dominant-baseline="middle" text-anchor="end" x="135" y="305.50847457627117" >4.625</text><line  class="poloto_axis_lines" stroke="black" x1="150" x2="144" y1="294.91525423728814" y2="294.91525423728814" /><line  class="poloto_tick_line" stroke="black" x1="150" x2="650" y1="294.91525423728814" y2="294.91525423728814" /><text  class="poloto_tick_labels poloto_text" dominant-baseline="middle" text-anchor="end" x="135" y="294.91525423728814" >4.75</text><line  class="poloto_axis_lines" stroke="black" x1="150" x2="144" y1="284.3220338983051" y2="284.3220338983051" /><line  class="poloto_tick_line" stroke="black" x1="150" x2="650" y1="284.3220338983051" y2="284.3220338983051" /><text  class="poloto_tick_labels poloto_text" dominant-baseline="middle" text-anchor="end" x="135" y="284.3220338983051" >4.875</text><line  class="poloto_axis_lines" stroke="black" x1="150" x2="144" y1="273.728813559322" y2="273.728813559322" /><line  class="poloto_tick_line" stroke="black" x1="150" x2="650" y1="273.728813559322" y2="273.728813559322" /><text  class="poloto_tick_labels poloto_text" dominant-baseline="middle" text-anchor="end" x="135" y="273.728813559322" >5</text><line  class="poloto_axis_lines" stroke="black" x1="150" x2="144" y1="263.135593220339" y2="263.135593220339" /><line  class="poloto_tick_line" stroke="black" x1="150" x2="650" y1="263.135593220339" y2="263.135593220339" /><text  class="poloto_tick_labels poloto_text" dominant-baseline="middle" text-anchor="end" x="135" y="263.135593220339" >5.125</text><line  class="poloto_axis_lines" stroke="black" x1="150" x2="144" y1="252.54237288135596" y2="252.54237288135596" /><line  class="poloto_tick_line" stroke="black" x1="150" x2="650" y1="252.54237288135596" y2="252.54237288135596" /><text  class="poloto_tick_labels poloto_text" dominant-baseline="middle" text-anchor="end" x="135" y="252.54237288135596" >5.25</text><line  class="poloto_axis_lines" stroke="black" x1="150" x2="144" y1="241.94915254237287" y2="241.94915254237287" /><line  class="poloto_tick_line" stroke="black" x1="150" x2="650" y1="241.94915254237287" y2="241.94915254237287" /><text  class="poloto_tick_labels poloto_text" dominant-baseline="middle" text-anchor="end" x="135" y="241.94915254237287" >5.375</text><line  class="poloto_axis_lines" stroke="black" x1="150" x2="144" y1="231.35593220338984" y2="231.35593220338984" /><line  class="poloto_tick_line" stroke="black" x1="150" x2="650" y1="231.35593220338984" y2="231.35593220338984" /><text  class="poloto_tick_labels poloto_text" dominant-baseline="middle" text-anchor="end" x="135" y="231.35593220338984" >5.5</text><line  class="poloto_axis_lines" stroke="black" x1="150" x2="144" y1="220.7627118644068" y2="220.7627118644068" /><line  class="poloto_tick_line" stroke="black" x1="150" x2="650" y1="220.7627118644068" y2="220.7627118644068" /><text  class="poloto_tick_labels poloto_text" dominant-baseline="middle" text-anchor="end" x="135" y="220.7627118644068" >5.625</text><line  class="poloto_axis_lines" stroke="black" x1="150" x2="144" y1="210.16949152542372" y2="210.16949152542372" /><line  class="poloto_tick_line" stroke="black" x1="150" x2="650" y1="210.16949152542372" y2="210.16949152542372" /><text  class="poloto_tick_labels poloto_text" dominant-baseline="middle" text-anchor="end" x="135" y="210.16949152542372" >5.75</text><line  class="poloto_axis_lines" stroke="black" x1="150" x2="144" y1="199.5762711864407" y2="199.5762711864407" /><line  class="poloto_tick_line" stroke="black" x1="150" x2="650" y1="199.5762711864407" y2="199.5762711864407" /><text  class="poloto_tick_labels poloto_text" dominant-baseline="middle" text-anchor="end" x="135" y="199.5762711864407" >5.875</text><line  class="poloto_axis_lines" stroke="black" x1="150" x2="144" y1="188.98305084745766" y2="188.98305084745766" /><line  class="poloto_tick_line" stroke="black" x1="150" x2="650" y1="188.98305084745766" y2="188.98305084745766" /><text  class="poloto_tick_labels poloto_text" dominant-baseline="middle" text-anchor="end" x="135" y="188.98305084745766" >6</text><line  class="poloto_axis_lines" stroke="black" x1="150" x2="144" y1="178.38983050847457" y2="178.38983050847457" /><line  class="poloto_tick_line" stroke="black" x1="150" x2="650" y1="178.38983050847457" y2="178.38983050847457" /><text  class="poloto_tick_labels poloto_text" dominant-baseline="middle" text-anchor="end" x="135" y="178.38983050847457" >6.125</text><line  class="poloto_axis_lines" stroke="black" x1="150" x2="144" y1="167.7966101694915" y2="167.7966101694915" /><line  class="poloto_tick_line" stroke="black" x1="150" x2="650" y1="167.7966101694915" y2="167.7966101694915" /><text  class="poloto_tick_labels poloto_text" dominant-baseline="middle" text-anchor="end" x="135" y="167.7966101694915" >6.25</text><line  class="poloto_axis_lines" stroke="black" x1="150" x2="144" y1="157.2033898305085" y2="157.2033898305085" /><line  class="poloto_tick_line" stroke="black" x1="150" x2="650" y1="157.2033898305085" y2="157.2033898305085" /><text  class="poloto_tick_labels poloto_text" dominant-baseline="middle" text-anchor="end" x="135" y="157.2033898305085" >6.375</text><line  class="poloto_axis_lines" stroke="black" x1="150" x2="144" y1="146.61016949152543" y2="146.61016949152543" /><line  class="poloto_tick_line" stroke="black" x1="150" x2="650" y1="146.61016949152543" y2="146.61016949152543" /><text  class="poloto_tick_labels poloto_text" dominant-baseline="middle" text-anchor="end" x="135" y="146.61016949152543" >6.5</text><line  class="poloto_axis_lines" stroke="black" x1="150" x2="144" y1="136.01694915254234" y2="136.01694915254234" /><line  class="poloto_tick_line" stroke="black" x1="150" x2="650" y1="136.01694915254234" y2="136.01694915254234" /><text  class="poloto_tick_labels poloto_text" dominant-baseline="middle" text-anchor="end" x="135" y="136.01694915254234" >6.625</text><line  class="poloto_axis_lines" stroke="black" x1="150" x2="144" y1="125.42372881355936" y2="125.42372881355936" /><line  class="poloto_tick_line" stroke="black" x1="150" x2="650" y1="125.42372881355936" y2="125.42372881355936" /><text  class="poloto_tick_labels poloto_text" dominant-baseline="middle" text-anchor="end" x="135" y="125.42372881355936" >6.75</text><line  class="poloto_axis_lines" stroke="black" x1="150" x2="144" y1="114.83050847457628" y2="114.83050847457628" /><line  class="poloto_tick_line" stroke="black" x1="150" x2="650" y1="114.83050847457628" y2="114.83050847457628" /><text  class="poloto_tick_labels poloto_text" dominant-baseline="middle" text-anchor="end" x="135" y="114.83050847457628" >6.875</text><line  class="poloto_axis_lines" stroke="black" x1="150" x2="144" y1="104.23728813559319" y2="104.23728813559319" /><line  class="poloto_tick_line" stroke="black" x1="150" x2="650" y1="104.23728813559319" y2="104.23728813559319" /><text  class="poloto_tick_labels poloto_text" dominant-baseline="middle" text-anchor="end" x="135" y="104.23728813559319" >7</text><text  class="poloto_tick_labels poloto_text" dominant-baseline="middle" text-anchor="start" x="440.00000000000006" y="70" >¹2022-05-01 00:00:00 UTC in Months</text><line  class="poloto_axis_lines" stroke="black" x1="215.78947368420995" x2="215.78947368420995" y1="400" y2="405" /><line  class="poloto_tick_line" stroke="black" x1="215.78947368420995" x2="215.78947368420995" y1="400" y2="100" /><text  class="poloto_tick_labels poloto_text" dominant-baseline="start" text-anchor="middle" x="215.78947368420995" y="430" >2022 May¹</text><line  class="poloto_axis_lines" stroke="black" x1="304.97076023391855" x2="304.97076023391855" y1="400" y2="405" /><line  class="poloto_tick_line" stroke="black" x1="304.97076023391855" x2="304.97076023391855" y1="400" y2="100" /><text  class="poloto_tick_labels poloto_text" dominant-baseline="start" text-anchor="middle" x="304.97076023391855" y="430" >2022 Jul</text><line  class="poloto_axis_lines" stroke="black" x1="395.61403508771764" x2="395.61403508771764" y1="400" y2="405" /><line  class="poloto_tick_line" stroke="black" x1="395.61403508771764" x2="395.61403508771764" y1="400" y2="100" /><text  class="poloto_tick_labels poloto_text" dominant-baseline="start" text-anchor="middle" x="395.61403508771764" y="430" >2022 Sep</text><line  class="poloto_axis_lines" stroke="black" x1="484.79532163742624" x2="484.79532163742624" y1="400" y2="405" /><line  class="poloto_tick_line" stroke="black" x1="484.79532163742624" x2="484.79532163742624" y1="400" y2="100" /><text  class="poloto_tick_labels poloto_text" dominant-baseline="start" text-anchor="middle" x="484.79532163742624" y="430" >2022 Nov</text><line  class="poloto_axis_lines" stroke="black" x1="573.9766081871348" x2="573.9766081871348" y1="400" y2="405" /><line  class="poloto_tick_line" stroke="black" x1="573.9766081871348" x2="573.9766081871348" y1="400" y2="100" /><text  class="poloto_tick_labels poloto_text" dominant-baseline="start" text-anchor="middle" x="573.9766081871348" y="430" >2023 Jan</text><path  stroke="black" fill="none" class="poloto_axis_lines" d=" M 150 400 L 650 400" /><path  stroke="black" fill="none" class="poloto_axis_lines" d=" M 150 400 L 150 100" /></svg>