<svg class="poloto" width="800" height="500" viewBox="0 0 800 500" xmlns="http://www.w3.org/2000/svg"><style>.poloto{stroke-linecap:round;stroke-linejoin:round;font-family:Roboto,sans-serif;font-size:16px;}.poloto_background{fill:#262626;}.poloto_scatter{stroke-width:7}.poloto_tick_line{stroke:dimgray;stroke-width:0.5}.poloto_line{stroke-width:2}.poloto_text{fill: white;}.poloto_axis_lines{stroke: white;stroke-width:3;fill:none;stroke-dasharray:none}.poloto_title{font-size:24px;dominant-baseline:start;text-anchor:middle;}.poloto_xname{font-size:24px;dominant-baseline:start;text-anchor:middle;}.poloto_yname{font-size:24px;dominant-baseline:start;text-anchor:middle;}.poloto0stroke{stroke:blue;}.poloto1stroke{stroke:red;}.poloto2stroke{stroke:green;}.poloto3stroke{stroke:gold;}.poloto4stroke{stroke:aqua;}.poloto5stroke{stroke:lime;}.poloto6stroke{stroke:orange;}.poloto7stroke{stroke:chocolate;}.poloto0fill{fill:blue;}.poloto1fill{fill:red;}.poloto2fill{fill:green;}.poloto3fill{fill:gold;}.poloto4fill{fill:aqua;}.poloto5fill{fill:lime;}.poloto6fill{fill:orange;}.poloto7fill{fill:chocolate;}</style><circle  r="1e5" class="poloto_background" /><text  class="poloto_text poloto_legend_text" x="675" y="100" >Refinance 15</text><line  class="poloto_line poloto_legend_icon poloto0stroke poloto0legend" stroke="black" x1="680" x2="730" y1="81.25" y2="81.25" /><path  class="poloto_line poloto0stroke" fill="none" stroke="black" d=" M 150.00 393.13 L 151.32 400.00 L 155.28 390.27 L 156.60 381.94 L 157.92 390.27 L 157.92 390.27 L 160.55 362.48 L 164.51 361.01 L 165.83 370.74 L 167.15 349.74 L 168.47 351.21 L 169.79 346.81 L 173.75 348.28 L 175.07 342.41 L 175.07 342.41 L 177.70 342.95 L 179.02 321.95 L 182.98 331.06 L 184.30 333.99 L 185.62 333.99 L 186.94 333.22 L 188.26 328.74 L 193.54 289.53 L 194.85 306.97 L 196.17 293.46 L 197.49 288.21 L 197.49 288.21 L 202.77 308.52 L 205.41 312.22 L 206.73 303.96 L 210.69 294.16 L 212.01 313.69 L 213.32 303.96 L 213.32 303.96 L 215.96 302.42 L 219.92 305.43 L 221.24 315.16 L 221.24 315.16 L 222.56 306.90 L 223.88 316.70 L 225.20 302.42 L 229.16 331.76 L 230.47 331.06 L 231.79 315.16 L 231.79 315.16 L 233.11 321.95 L 234.43 324.96 L 238.39 324.96 L 239.71 335.46 L 241.03 335.46 L 242.35 335.46 L 243.67 335.46 L 248.94 324.96 L 250.26 321.95 L 251.58 323.42 L 252.90 323.42 L 252.90 323.42 L 258.18 313.69 L 259.50 313.69 L 260.82 305.43 L 266.09 291.92 L 267.41 264.05 L 268.73 267.14 L 270.05 267.14 L 271.37 286.67 L 275.33 267.14 L 276.65 267.14 L 277.97 285.13 L 279.29 288.21 L 284.56 288.21 L 285.88 286.67 L 287.20 291.22 L 288.52 295.70 L 289.84 305.43 L 295.12 312.22 L 296.44 303.96 L 297.76 297.17 L 299.08 294.16 L 303.03 295.70 L 305.67 295.70 L 306.99 294.16 L 312.27 292.69 L 312.27 292.69 L 312.27 292.69 L 312.27 292.69 L 312.27 292.69 L 312.27 292.69 L 314.91 292.69 L 314.91 292.69 L 314.91 292.69 L 314.91 292.69 L 314.91 292.69 L 314.91 292.69 L 321.50 303.96 L 324.14 306.90 L 325.46 332.53 L 326.78 335.46 L 330.74 335.46 L 332.06 333.99 L 333.38 313.69 L 334.70 308.44 L 336.02 295.70 L 339.97 305.43 L 339.97 305.43 L 341.29 297.17 L 343.93 305.43 L 343.93 305.43 L 350.53 305.43 L 351.85 274.70 L 353.17 292.69 L 358.44 261.89 L 361.08 261.89 L 361.08 261.89 L 363.72 273.16 L 369.00 267.14 L 369.00 267.14 L 369.00 267.14 L 369.00 267.14 L 369.00 267.14 L 369.00 267.14 L 369.00 267.14 L 369.00 267.14 L 369.00 267.14 L 372.96 267.14 L 380.87 247.53 L 386.15 249.85 L 386.15 249.85 L 390.11 249.85 L 395.38 249.85 L 396.70 249.85 L 396.70 249.85 L 396.70 249.85 L 396.70 249.85 L 396.70 249.85 L 413.85 249.85 L 415.17 249.85 L 423.09 162.92 L 424.41 154.66 L 425.73 154.66 L 473.22 180.60 L 478.50 180.60 L 479.82 180.60 L 481.13 195.50 L 483.77 203.68 L 483.77 203.68 L 489.05 203.68 L 490.37 203.68 L 491.69 203.68 L 493.01 203.68 L 496.97 203.68 L 498.28 203.68 L 500.92 203.68 L 502.24 203.68 L 506.20 203.68 L 507.52 203.68 L 507.52 203.68 L 511.48 203.68 L 515.44 203.68 L 516.75 203.68 L 518.07 203.68 L 519.39 203.68 L 520.71 203.68 L 525.99 226.15 L 527.31 200.21 L 528.63 180.60 L 529.95 190.40 L 533.91 190.40 L 535.22 190.40 L 535.22 190.40 L 537.86 211.48 L 539.18 211.48 L 543.14 211.48 L 544.46 211.48 L 545.78 211.48 L 547.10 211.48 L 548.42 211.48 L 548.42 211.48 L 548.42 211.48 L 548.42 211.48 L 555.01 211.48 L 557.65 211.48 L 561.61 211.48 L 562.93 211.48 L 565.57 211.48 L 566.89 211.48 L 572.16 211.48 L 573.48 211.48 L 574.80 211.48 L 576.12 239.27 L 580.08 245.45 L 581.40 209.93 L 582.72 221.28 L 584.04 219.74 L 585.36 201.75 L 589.31 161.07 L 590.63 161.07 L 591.95 161.07 L 593.27 162.61 L 594.59 170.79 L 598.55 162.61 L 599.87 162.61 L 601.19 151.26 L 602.51 161.07 L 603.83 141.46 L 609.10 151.26 L 610.42 152.80 L 611.74 143.08 L 613.06 149.64 L 617.02 155.97 L 618.34 152.80 L 619.66 151.26 L 620.98 151.26 L 622.30 162.61 L 626.25 161.07 L 627.57 152.80 L 631.53 240.81 L 635.49 180.60 L 636.81 182.14 L 638.13 172.41 L 639.45 209.93 L 640.77 239.27 L 644.72 191.95 L 646.04 190.40 L 647.36 180.60 L 648.68 180.60 L 650.00 183.53" /><text  class="poloto_text poloto_legend_text" x="675" y="150" >Refinance 20</text><line  class="poloto_line poloto_legend_icon poloto1stroke poloto1legend" stroke="black" x1="680" x2="730" y1="131.25" y2="131.25" /><path  class="poloto_line poloto1stroke" fill="none" stroke="black" d=" M 150.00 350.51 L 151.32 371.13 L 155.28 340.40 L 156.60 330.98 L 157.92 339.63 L 157.92 339.63 L 160.55 312.61 L 164.51 310.29 L 165.83 320.10 L 167.15 309.14 L 168.47 318.94 L 169.79 300.57 L 173.75 328.67 L 175.07 300.57 L 175.07 300.57 L 177.70 300.57 L 177.70 300.57 L 182.98 263.51 L 184.30 293.15 L 185.62 300.57 L 186.94 310.29 L 188.26 291.22 L 193.54 272.47 L 194.85 270.07 L 196.17 265.29 L 197.49 254.32 L 201.45 259.11 L 202.77 279.88 L 205.41 272.47 L 206.73 270.07 L 210.69 262.27 L 212.01 271.31 L 213.32 271.31 L 213.32 271.31 L 215.96 271.31 L 219.92 272.47 L 221.24 292.00 L 221.24 292.00 L 222.56 281.03 L 223.88 299.41 L 225.20 292.00 L 229.16 293.15 L 230.47 292.00 L 231.79 292.00 L 231.79 292.00 L 233.11 293.15 L 234.43 299.41 L 238.39 300.57 L 239.71 304.04 L 241.03 304.04 L 242.35 304.04 L 243.67 304.04 L 248.94 299.41 L 250.26 289.60 L 251.58 292.00 L 252.90 292.00 L 252.90 292.00 L 258.18 279.88 L 259.50 282.19 L 260.82 273.62 L 266.09 232.24 L 267.41 215.11 L 268.73 224.91 L 270.05 232.24 L 271.37 252.93 L 275.33 240.74 L 276.65 234.64 L 277.97 254.17 L 279.29 263.51 L 284.56 263.51 L 285.88 252.93 L 287.20 262.74 L 288.52 272.47 L 289.84 283.43 L 295.12 290.76 L 296.44 281.03 L 297.76 271.31 L 299.08 264.67 L 303.03 270.07 L 305.67 272.47 L 306.99 271.31 L 312.27 272.47 L 312.27 272.47 L 312.27 272.47 L 312.27 272.47 L 312.27 272.47 L 312.27 272.47 L 312.27 272.47 L 312.27 272.47 L 312.27 272.47 L 312.27 272.47 L 312.27 272.47 L 312.27 272.47 L 321.50 290.76 L 324.14 293.15 L 325.46 310.29 L 326.78 312.61 L 330.74 310.06 L 332.06 310.06 L 333.38 300.57 L 334.70 304.04 L 336.02 289.60 L 339.97 282.19 L 339.97 282.19 L 341.29 282.19 L 343.93 292.00 L 343.93 292.00 L 350.53 289.60 L 351.85 272.47 L 353.17 272.47 L 358.44 259.88 L 361.08 249.31 L 361.08 249.31 L 363.72 261.12 L 369.00 232.24 L 369.00 232.24 L 369.00 232.24 L 369.00 232.24 L 369.00 232.24 L 369.00 232.24 L 369.00 232.24 L 369.00 232.24 L 369.00 232.24 L 372.96 232.24 L 380.87 219.97 L 386.15 221.20 L 388.79 221.20 L 390.11 221.20 L 390.11 221.20 L 396.70 221.20 L 398.02 221.20 L 398.02 221.20 L 398.02 221.20 L 398.02 221.20 L 413.85 221.20 L 415.17 221.20 L 423.09 143.85 L 424.41 129.41 L 424.41 129.41 L 475.86 177.12 L 478.50 177.12 L 479.82 177.12 L 482.45 194.26 L 483.77 195.50 L 483.77 195.50 L 489.05 195.50 L 490.37 195.50 L 491.69 195.50 L 493.01 195.50 L 496.97 195.50 L 498.28 195.50 L 500.92 195.50 L 502.24 195.50 L 506.20 195.50 L 507.52 195.50 L 507.52 195.50 L 511.48 195.50 L 515.44 195.50 L 516.75 195.50 L 518.07 195.50 L 519.39 195.50 L 520.71 195.50 L 525.99 178.05 L 527.31 168.55 L 528.63 167.32 L 529.95 169.87 L 533.91 169.87 L 535.22 169.87 L 535.22 169.87 L 537.86 188.16 L 539.18 188.16 L 543.14 188.16 L 544.46 188.16 L 545.78 188.16 L 547.10 188.16 L 548.42 188.16 L 548.42 188.16 L 553.69 188.16 L 553.69 188.16 L 555.01 188.16 L 557.65 188.16 L 561.61 188.16 L 562.93 188.16 L 565.57 188.16 L 566.89 188.16 L 572.16 188.16 L 573.48 188.16 L 574.80 188.16 L 576.12 209.01 L 580.08 207.77 L 581.40 178.36 L 582.72 179.59 L 582.72 179.59 L 585.36 178.36 L 589.31 158.75 L 590.63 158.75 L 591.95 150.26 L 593.27 140.45 L 594.59 149.02 L 598.55 140.45 L 599.87 130.65 L 601.19 140.45 L 602.51 150.26 L 603.83 139.22 L 609.10 140.45 L 610.42 129.41 L 611.74 100.00 L 613.06 129.41 L 617.02 150.26 L 618.34 169.17 L 619.66 140.45 L 620.98 139.22 L 622.30 167.32 L 626.25 160.06 L 627.57 150.26 L 631.53 210.24 L 635.49 168.55 L 636.81 158.75 L 638.13 160.06 L 639.45 188.16 L 640.77 189.40 L 644.72 169.87 L 646.04 160.06 L 647.36 160.06 L 648.68 160.06 L 648.68 160.06" /><text  class="poloto_text poloto_legend_text" x="675" y="200" >Refinance 30</text><line  class="poloto_line poloto_legend_icon poloto2stroke poloto2legend" stroke="black" x1="680" x2="730" y1="181.25" y2="181.25" /><path  class="poloto_line poloto2stroke" fill="none" stroke="black" d=" M 150.00 348.35 L 151.32 355.69 L 155.28 344.26 L 156.60 335.31 L 157.92 337.00 L 157.92 337.00 L 160.55 318.24 L 164.51 316.62 L 165.83 326.35 L 167.15 315.77 L 168.47 325.50 L 169.79 306.82 L 173.75 315.77 L 175.07 297.01 L 176.39 297.01 L 177.70 296.17 L 179.02 272.47 L 182.98 276.63 L 184.30 287.29 L 185.62 297.01 L 186.94 288.14 L 188.26 277.48 L 193.54 269.38 L 194.85 256.18 L 196.17 254.40 L 197.49 252.55 L 201.45 256.18 L 202.77 271.31 L 205.41 269.38 L 206.73 267.60 L 210.69 257.95 L 212.01 268.45 L 213.32 257.95 L 213.32 257.95 L 215.96 257.95 L 219.92 259.73 L 221.24 276.63 L 221.24 276.63 L 222.56 268.45 L 223.88 269.38 L 225.20 270.23 L 229.16 277.48 L 230.47 269.38 L 231.79 269.38 L 231.79 269.38 L 233.11 278.33 L 234.43 279.26 L 238.39 280.11 L 239.71 288.14 L 241.03 288.14 L 242.35 289.84 L 243.67 289.84 L 248.94 286.36 L 250.26 276.63 L 251.58 278.33 L 252.90 277.48 L 252.90 277.48 L 258.18 268.45 L 259.50 268.45 L 260.82 258.80 L 266.09 219.74 L 267.41 192.10 L 268.73 209.01 L 270.05 219.74 L 271.37 229.46 L 275.33 220.59 L 276.65 219.74 L 277.97 237.49 L 279.29 239.27 L 284.56 239.27 L 285.88 228.62 L 287.20 237.49 L 288.52 247.22 L 289.84 268.45 L 295.12 269.38 L 296.44 258.80 L 297.76 240.20 L 299.08 237.49 L 303.03 255.25 L 305.67 239.27 L 306.99 238.34 L 312.27 256.18 L 312.27 256.18 L 312.27 256.18 L 312.27 256.18 L 312.27 256.18 L 312.27 256.18 L 314.91 256.18 L 314.91 256.18 L 314.91 256.18 L 314.91 256.18 L 314.91 256.18 L 314.91 256.18 L 321.50 267.60 L 324.14 269.38 L 325.46 286.36 L 326.78 297.86 L 330.74 297.01 L 332.06 297.01 L 333.38 277.48 L 334.70 280.11 L 336.02 267.60 L 339.97 277.48 L 339.97 277.48 L 341.29 270.23 L 343.93 278.33 L 343.93 278.33 L 350.53 276.63 L 351.85 259.73 L 353.17 258.80 L 358.44 236.57 L 361.08 228.62 L 361.08 228.62 L 363.72 238.34 L 369.00 227.69 L 369.00 227.69 L 369.00 227.69 L 369.00 227.69 L 369.00 227.69 L 369.00 227.69 L 369.00 227.69 L 369.00 227.69 L 372.96 227.69 L 372.96 226.76 L 380.87 215.11 L 386.15 195.50 L 386.15 195.50 L 390.11 195.50 L 390.11 195.50 L 396.70 195.50 L 398.02 195.50 L 398.02 195.50 L 398.02 195.50 L 398.02 195.50 L 413.85 195.50 L 415.17 195.50 L 423.09 151.34 L 424.41 126.71 L 424.41 126.71 L 475.86 169.02 L 478.50 169.02 L 479.82 169.02 L 481.13 172.95 L 483.77 181.91 L 483.77 181.91 L 489.05 181.91 L 490.37 181.91 L 491.69 181.91 L 493.01 181.91 L 496.97 181.91 L 498.28 181.91 L 500.92 181.91 L 502.24 181.91 L 506.20 181.91 L 507.52 181.91 L 507.52 181.91 L 511.48 181.91 L 515.44 181.91 L 516.75 181.91 L 518.07 181.91 L 519.39 181.91 L 520.71 181.91 L 525.99 167.01 L 527.31 174.88 L 528.63 156.20 L 529.95 174.88 L 533.91 174.88 L 535.22 174.88 L 535.22 174.88 L 537.86 174.88 L 539.18 174.88 L 543.14 174.88 L 544.46 174.88 L 545.78 174.88 L 547.10 174.88 L 548.42 174.88 L 548.42 174.88 L 553.69 174.88 L 553.69 174.88 L 555.01 174.88 L 557.65 174.88 L 561.61 174.88 L 562.93 174.88 L 565.57 174.88 L 566.89 174.88 L 572.16 174.88 L 573.48 174.88 L 574.80 174.88 L 576.12 224.91 L 580.08 215.11 L 581.40 175.89 L 582.72 205.30 L 584.04 175.89 L 585.36 166.01 L 589.31 156.20 L 590.63 156.20 L 591.95 147.32 L 593.27 137.52 L 594.59 146.40 L 598.55 146.40 L 599.87 135.59 L 601.19 127.71 L 602.51 137.52 L 603.83 128.72 L 609.10 127.71 L 610.42 116.91 L 611.74 116.91 L 613.06 126.71 L 617.02 127.71 L 618.34 117.91 L 619.66 125.78 L 620.98 117.91 L 622.30 147.32 L 626.25 147.32 L 627.57 127.71 L 631.53 206.23 L 635.49 147.32 L 636.81 146.40 L 638.13 146.40 L 639.45 176.81 L 640.77 176.81 L 644.72 157.21 L 646.04 157.21 L 647.36 156.20 L 648.68 156.20 L 650.00 148.02" /><text  class="poloto_labels poloto_text poloto_title" x="400" y="37.5" >lower.com purchase rates</text><text  class="poloto_labels poloto_text poloto_xname" x="400" y="481.25" >Date</text><text  class="poloto_labels poloto_text poloto_yname" transform="rotate(-90,37.5,250)" x="37.5" y="250" >Rate (%)</text><text  class="poloto_tick_labels poloto_text" dominant-baseline="middle" text-anchor="start" x="150" y="70" ></text><line  class="poloto_axis_lines" stroke="black" x1="150" x2="144" y1="391.12197632527017" y2="391.12197632527017" /><line  class="poloto_tick_line" stroke="black" x1="150" x2="650" y1="391.12197632527017" y2="391.12197632527017" /><text  class="poloto_tick_labels poloto_text" dominant-baseline="middle" text-anchor="end" x="135" y="391.12197632527017" >3.625</text><line  class="poloto_axis_lines" stroke="black" x1="150" x2="144" y1="381.4719505918682" y2="381.4719505918682" /><line  class="poloto_tick_line" stroke="black" x1="150" x2="650" y1="381.4719505918682" y2="381.4719505918682" /><text  class="poloto_tick_labels poloto_text" dominant-baseline="middle" text-anchor="end" x="135" y="381.4719505918682" >3.75</text><line  class="poloto_axis_lines" stroke="black" x1="150" x2="144" y1="371.8219248584663" y2="371.8219248584663" /><line  class="poloto_tick_line" stroke="black" x1="150" x2="650" y1="371.8219248584663" y2="371.8219248584663" /><text  class="poloto_tick_labels poloto_text" dominant-baseline="middle" text-anchor="end" x="135" y="371.8219248584663" >3.875</text><line  class="poloto_axis_lines" stroke="black" x1="150" x2="144" y1="362.17189912506433" y2="362.17189912506433" /><line  class="poloto_tick_line" stroke="black" x1="150" x2="650" y1="362.17189912506433" y2="362.17189912506433" /><text  class="poloto_tick_labels poloto_text" dominant-baseline="middle" text-anchor="end" x="135" y="362.17189912506433" >4</text><line  class="poloto_axis_lines" stroke="black" x1="150" x2="144" y1="352.5218733916624" y2="352.5218733916624" /><line  class="poloto_tick_line" stroke="black" x1="150" x2="650" y1="352.5218733916624" y2="352.5218733916624" /><text  class="poloto_tick_labels poloto_text" dominant-baseline="middle" text-anchor="end" x="135" y="352.5218733916624" >4.125</text><line  class="poloto_axis_lines" stroke="black" x1="150" x2="144" y1="342.87184765826044" y2="342.87184765826044" /><line  class="poloto_tick_line" stroke="black" x1="150" x2="650" y1="342.87184765826044" y2="342.87184765826044" /><text  class="poloto_tick_labels poloto_text" dominant-baseline="middle" text-anchor="end" x="135" y="342.87184765826044" >4.25</text><line  class="poloto_axis_lines" stroke="black" x1="150" x2="144" y1="333.2218219248585" y2="333.2218219248585" /><line  class="poloto_tick_line" stroke="black" x1="150" x2="650" y1="333.2218219248585" y2="333.2218219248585" /><text  class="poloto_tick_labels poloto_text" dominant-baseline="middle" text-anchor="end" x="135" y="333.2218219248585" >4.375</text><line  class="poloto_axis_lines" stroke="black" x1="150" x2="144" y1="323.5717961914565" y2="323.5717961914565" /><line  class="poloto_tick_line" stroke="black" x1="150" x2="650" y1="323.5717961914565" y2="323.5717961914565" /><text  class="poloto_tick_labels poloto_text" dominant-baseline="middle" text-anchor="end" x="135" y="323.5717961914565" >4.5</text><line  class="poloto_axis_lines" stroke="black" x1="150" x2="144" y1="313.92177045805454" y2="313.92177045805454" /><line  class="poloto_tick_line" stroke="black" x1="150" x2="650" y1="313.92177045805454" y2="313.92177045805454" /><text  class="poloto_tick_labels poloto_text" dominant-baseline="middle" text-anchor="end" x="135" y="313.92177045805454" >4.625</text><line  class="poloto_axis_lines" stroke="black" x1="150" x2="144" y1="304.2717447246526" y2="304.2717447246526" /><line  class="poloto_tick_line" stroke="black" x1="150" x2="650" y1="304.2717447246526" y2="304.2717447246526" /><text  class="poloto_tick_labels poloto_text" dominant-baseline="middle" text-anchor="end" x="135" y="304.2717447246526" >4.75</text><line  class="poloto_axis_lines" stroke="black" x1="150" x2="144" y1="294.62171899125065" y2="294.62171899125065" /><line  class="poloto_tick_line" stroke="black" x1="150" x2="650" y1="294.62171899125065" y2="294.62171899125065" /><text  class="poloto_tick_labels poloto_text" dominant-baseline="middle" text-anchor="end" x="135" y="294.62171899125065" >4.875</text><line  class="poloto_axis_lines" stroke="black" x1="150" x2="144" y1="284.9716932578487" y2="284.9716932578487" /><line  class="poloto_tick_line" stroke="black" x1="150" x2="650" y1="284.9716932578487" y2="284.9716932578487" /><text  class="poloto_tick_labels poloto_text" dominant-baseline="middle" text-anchor="end" x="135" y="284.9716932578487" >5</text><line  class="poloto_axis_lines" stroke="black" x1="150" x2="144" y1="275.32166752444675" y2="275.32166752444675" /><line  class="poloto_tick_line" stroke="black" x1="150" x2="650" y1="275.32166752444675" y2="275.32166752444675" /><text  class="poloto_tick_labels poloto_text" dominant-baseline="middle" text-anchor="end" x="135" y="275.32166752444675" >5.125</text><line  class="poloto_axis_lines" stroke="black" x1="150" x2="144" y1="265.67164179104475" y2="265.67164179104475" /><line  class="poloto_tick_line" stroke="black" x1="150" x2="650" y1="265.67164179104475" y2="265.67164179104475" /><text  class="poloto_tick_labels poloto_text" dominant-baseline="middle" text-anchor="end" x="135" y="265.67164179104475" >5.25</text><line  class="poloto_axis_lines" stroke="black" x1="150" x2="144" y1="256.0216160576428" y2="256.0216160576428" /><line  class="poloto_tick_line" stroke="black" x1="150" x2="650" y1="256.0216160576428" y2="256.0216160576428" /><text  class="poloto_tick_labels poloto_text" dominant-baseline="middle" text-anchor="end" x="135" y="256.0216160576428" >5.375</text><line  class="poloto_axis_lines" stroke="black" x1="150" x2="144" y1="246.37159032424086" y2="246.37159032424086" /><line  class="poloto_tick_line" stroke="black" x1="150" x2="650" y1="246.37159032424086" y2="246.37159032424086" /><text  class="poloto_tick_labels poloto_text" dominant-baseline="middle" text-anchor="end" x="135" y="246.37159032424086" >5.5</text><line  class="poloto_axis_lines" stroke="black" x1="150" x2="144" y1="236.7215645908389" y2="236.7215645908389" /><line  class="poloto_tick_line" stroke="black" x1="150" x2="650" y1="236.7215645908389" y2="236.7215645908389" /><text  class="poloto_tick_labels poloto_text" dominant-baseline="middle" text-anchor="end" x="135" y="236.7215645908389" >5.625</text><line  class="poloto_axis_lines" stroke="black" x1="150" x2="144" y1="227.07153885743696" y2="227.07153885743696" /><line  class="poloto_tick_line" stroke="black" x1="150" x2="650" y1="227.07153885743696" y2="227.07153885743696" /><text  class="poloto_tick_labels poloto_text" dominant-baseline="middle" text-anchor="end" x="135" y="227.07153885743696" >5.75</text><line  class="poloto_axis_lines" stroke="black" x1="150" x2="144" y1="217.42151312403502" y2="217.42151312403502" /><line  class="poloto_tick_line" stroke="black" x1="150" x2="650" y1="217.42151312403502" y2="217.42151312403502" /><text  class="poloto_tick_labels poloto_text" dominant-baseline="middle" text-anchor="end" x="135" y="217.42151312403502" >5.875</text><line  class="poloto_axis_lines" stroke="black" x1="150" x2="144" y1="207.771487390633" y2="207.771487390633" /><line  class="poloto_tick_line" stroke="black" x1="150" x2="650" y1="207.771487390633" y2="207.771487390633" /><text  class="poloto_tick_labels poloto_text" dominant-baseline="middle" text-anchor="end" x="135" y="207.771487390633" >6</text><line  class="poloto_axis_lines" stroke="black" x1="150" x2="144" y1="198.12146165723107" y2="198.12146165723107" /><line  class="poloto_tick_line" stroke="black" x1="150" x2="650" y1="198.12146165723107" y2="198.12146165723107" /><text  class="poloto_tick_labels poloto_text" dominant-baseline="middle" text-anchor="end" x="135" y="198.12146165723107" >6.125</text><line  class="poloto_axis_lines" stroke="black" x1="150" x2="144" y1="188.47143592382912" y2="188.47143592382912" /><line  class="poloto_tick_line" stroke="black" x1="150" x2="650" y1="188.47143592382912" y2="188.47143592382912" /><text  class="poloto_tick_labels poloto_text" dominant-baseline="middle" text-anchor="end" x="135" y="188.47143592382912" >6.25</text><line  class="poloto_axis_lines" stroke="black" x1="150" x2="144" y1="178.82141019042717" y2="178.82141019042717" /><line  class="poloto_tick_line" stroke="black" x1="150" x2="650" y1="178.82141019042717" y2="178.82141019042717" /><text  class="poloto_tick_labels poloto_text" dominant-baseline="middle" text-anchor="end" x="135" y="178.82141019042717" >6.375</text><line  class="poloto_axis_lines" stroke="black" x1="150" x2="144" y1="169.17138445702523" y2="169.17138445702523" /><line  class="poloto_tick_line" stroke="black" x1="150" x2="650" y1="169.17138445702523" y2="169.17138445702523" /><text  class="poloto_tick_labels poloto_text" dominant-baseline="middle" text-anchor="end" x="135" y="169.17138445702523" >6.5</text><line  class="poloto_axis_lines" stroke="black" x1="150" x2="144" y1="159.52135872362328" y2="159.52135872362328" /><line  class="poloto_tick_line" stroke="black" x1="150" x2="650" y1="159.52135872362328" y2="159.52135872362328" /><text  class="poloto_tick_labels poloto_text" dominant-baseline="middle" text-anchor="end" x="135" y="159.52135872362328" >6.625</text><line  class="poloto_axis_lines" stroke="black" x1="150" x2="144" y1="149.87133299022133" y2="149.87133299022133" /><line  class="poloto_tick_line" stroke="black" x1="150" x2="650" y1="149.87133299022133" y2="149.87133299022133" /><text  class="poloto_tick_labels poloto_text" dominant-baseline="middle" text-anchor="end" x="135" y="149.87133299022133" >6.75</text><line  class="poloto_axis_lines" stroke="black" x1="150" x2="144" y1="140.22130725681933" y2="140.22130725681933" /><line  class="poloto_tick_line" stroke="black" x1="150" x2="650" y1="140.22130725681933" y2="140.22130725681933" /><text  class="poloto_tick_labels poloto_text" dominant-baseline="middle" text-anchor="end" x="135" y="140.22130725681933" >6.875</text><line  class="poloto_axis_lines" stroke="black" x1="150" x2="144" y1="130.57128152341744" y2="130.57128152341744" /><line  class="poloto_tick_line" stroke="black" x1="150" x2="650" y1="130.57128152341744" y2="130.57128152341744" /><text  class="poloto_tick_labels poloto_text" dominant-baseline="middle" text-anchor="end" x="135" y="130.57128152341744" >7</text><line  class="poloto_axis_lines" stroke="black" x1="150" x2="144" y1="120.92125579001544" y2="120.92125579001544" /><line  class="poloto_tick_line" stroke="black" x1="150" x2="650" y1="120.92125579001544" y2="120.92125579001544" /><text  class="poloto_tick_labels poloto_text" dominant-baseline="middle" text-anchor="end" x="135" y="120.92125579001544" >7.125</text><line  class="poloto_axis_lines" stroke="black" x1="150" x2="144" y1="111.27123005661343" y2="111.27123005661343" /><line  class="poloto_tick_line" stroke="black" x1="150" x2="650" y1="111.27123005661343" y2="111.27123005661343" /><text  class="poloto_tick_labels poloto_text" dominant-baseline="middle" text-anchor="end" x="135" y="111.27123005661343" >7.25</text><line  class="poloto_axis_lines" stroke="black" x1="150" x2="144" y1="101.62120432321154" y2="101.62120432321154" /><line  class="poloto_tick_line" stroke="black" x1="150" x2="650" y1="101.62120432321154" y2="101.62120432321154" /><text  class="poloto_tick_labels poloto_text" dominant-baseline="middle" text-anchor="end" x="135" y="101.62120432321154" >7.375</text><text  class="poloto_tick_labels poloto_text" dominant-baseline="middle" text-anchor="start" x="440.00000000000006" y="70" >¹2022-05-01 00:00:00 UTC in Months</text><line  class="poloto_axis_lines" stroke="black" x1="209.3667546174147" x2="209.3667546174147" y1="400" y2="405" /><line  class="poloto_tick_line" stroke="black" x1="209.3667546174147" x2="209.3667546174147" y1="400" y2="100.00000000000006" /><text  class="poloto_tick_labels poloto_text" dominant-baseline="start" text-anchor="middle" x="209.3667546174147" y="430" >2022 May¹</text><line  class="poloto_axis_lines" stroke="black" x1="289.84168865435277" x2="289.84168865435277" y1="400" y2="405" /><line  class="poloto_tick_line" stroke="black" x1="289.84168865435277" x2="289.84168865435277" y1="400" y2="100.00000000000006" /><text  class="poloto_tick_labels poloto_text" dominant-baseline="start" text-anchor="middle" x="289.84168865435277" y="430" >2022 Jul</text><line  class="poloto_axis_lines" stroke="black" x1="371.6358839050117" x2="371.6358839050117" y1="400" y2="405" /><line  class="poloto_tick_line" stroke="black" x1="371.6358839050117" x2="371.6358839050117" y1="400" y2="100.00000000000006" /><text  class="poloto_tick_labels poloto_text" dominant-baseline="start" text-anchor="middle" x="371.6358839050117" y="430" >2022 Sep</text><line  class="poloto_axis_lines" stroke="black" x1="452.1108179419534" x2="452.1108179419534" y1="400" y2="405" /><line  class="poloto_tick_line" stroke="black" x1="452.1108179419534" x2="452.1108179419534" y1="400" y2="100.00000000000006" /><text  class="poloto_tick_labels poloto_text" dominant-baseline="start" text-anchor="middle" x="452.1108179419534" y="430" >2022 Nov</text><line  class="poloto_axis_lines" stroke="black" x1="532.5857519788915" x2="532.5857519788915" y1="400" y2="405" /><line  class="poloto_tick_line" stroke="black" x1="532.5857519788915" x2="532.5857519788915" y1="400" y2="100.00000000000006" /><text  class="poloto_tick_labels poloto_text" dominant-baseline="start" text-anchor="middle" x="532.5857519788915" y="430" >2023 Jan</text><line  class="poloto_axis_lines" stroke="black" x1="610.4221635883914" x2="610.4221635883914" y1="400" y2="405" /><line  class="poloto_tick_line" stroke="black" x1="610.4221635883914" x2="610.4221635883914" y1="400" y2="100.00000000000006" /><text  class="poloto_tick_labels poloto_text" dominant-baseline="start" text-anchor="middle" x="610.4221635883914" y="430" >2023 Mar</text><path  stroke="black" fill="none" class="poloto_axis_lines" d=" M 150 400 L 650 400" /><path  stroke="black" fill="none" class="poloto_axis_lines" d=" M 150 400 L 150 100.00000000000006" /></svg>