<svg class="poloto" width="800" height="500" viewBox="0 0 800 500" xmlns="http://www.w3.org/2000/svg"><style>.poloto{stroke-linecap:round;stroke-linejoin:round;font-family:Roboto,sans-serif;font-size:16px;}.poloto_background{fill:#262626;}.poloto_scatter{stroke-width:7}.poloto_tick_line{stroke:dimgray;stroke-width:0.5}.poloto_line{stroke-width:2}.poloto_text{fill: white;}.poloto_axis_lines{stroke: white;stroke-width:3;fill:none;stroke-dasharray:none}.poloto_title{font-size:24px;dominant-baseline:start;text-anchor:middle;}.poloto_xname{font-size:24px;dominant-baseline:start;text-anchor:middle;}.poloto_yname{font-size:24px;dominant-baseline:start;text-anchor:middle;}.poloto0stroke{stroke:blue;}.poloto1stroke{stroke:red;}.poloto2stroke{stroke:green;}.poloto3stroke{stroke:gold;}.poloto4stroke{stroke:aqua;}.poloto5stroke{stroke:lime;}.poloto6stroke{stroke:orange;}.poloto7stroke{stroke:chocolate;}.poloto0fill{fill:blue;}.poloto1fill{fill:red;}.poloto2fill{fill:green;}.poloto3fill{fill:gold;}.poloto4fill{fill:aqua;}.poloto5fill{fill:lime;}.poloto6fill{fill:orange;}.poloto7fill{fill:chocolate;}</style><circle  r="1e5" class="poloto_background" /><text  class="poloto_text poloto_legend_text" x="675" y="100" >Refinance 15</text><line  class="poloto_line poloto_legend_icon poloto0stroke poloto0legend" stroke="black" x1="680" x2="730" y1="81.25" y2="81.25" /><path  class="poloto_line poloto0stroke" fill="none" stroke="black" d=" M 150.00 393.13 L 151.33 400.00 L 155.31 390.27 L 156.63 381.94 L 157.96 390.27 L 157.96 390.27 L 160.61 362.48 L 164.59 361.01 L 165.92 370.74 L 167.24 349.74 L 168.57 351.21 L 169.89 346.81 L 173.87 348.28 L 175.20 342.41 L 175.20 342.41 L 177.85 342.95 L 179.18 321.95 L 183.16 331.06 L 184.48 333.99 L 185.81 333.99 L 187.14 333.22 L 188.46 328.74 L 193.77 289.53 L 195.09 306.97 L 196.42 293.46 L 197.75 288.21 L 197.75 288.21 L 203.05 308.52 L 205.70 312.22 L 207.03 303.96 L 211.01 294.16 L 212.33 313.69 L 213.66 303.96 L 213.66 303.96 L 216.31 302.42 L 220.29 305.43 L 221.62 315.16 L 221.62 315.16 L 222.94 306.90 L 224.27 316.70 L 225.60 302.42 L 229.58 331.76 L 230.90 331.06 L 232.23 315.16 L 232.23 315.16 L 233.55 321.95 L 234.88 324.96 L 238.86 324.96 L 240.19 335.46 L 241.51 335.46 L 242.84 335.46 L 244.16 335.46 L 249.47 324.96 L 250.80 321.95 L 252.12 323.42 L 253.45 323.42 L 253.45 323.42 L 258.75 313.69 L 260.08 313.69 L 261.41 305.43 L 266.71 291.92 L 268.04 264.05 L 269.36 267.14 L 270.69 267.14 L 272.02 286.67 L 275.99 267.14 L 277.32 267.14 L 278.65 285.13 L 279.97 288.21 L 285.28 288.21 L 286.60 286.67 L 287.93 291.22 L 289.26 295.70 L 290.58 305.43 L 295.89 312.22 L 297.21 303.96 L 298.54 297.17 L 299.87 294.16 L 303.85 295.70 L 306.50 295.70 L 307.82 294.16 L 313.13 292.69 L 313.13 292.69 L 313.13 292.69 L 313.13 292.69 L 313.13 292.69 L 313.13 292.69 L 315.78 292.69 L 315.78 292.69 L 315.78 292.69 L 315.78 292.69 L 315.78 292.69 L 315.78 292.69 L 322.41 303.96 L 325.07 306.90 L 326.39 332.53 L 327.72 335.46 L 331.70 335.46 L 333.02 333.99 L 334.35 313.69 L 335.68 308.44 L 337.00 295.70 L 340.98 305.43 L 340.98 305.43 L 342.31 297.17 L 344.96 305.43 L 344.96 305.43 L 351.59 305.43 L 352.92 274.70 L 354.24 292.69 L 359.55 261.89 L 362.20 261.89 L 362.20 261.89 L 364.85 273.16 L 370.16 267.14 L 370.16 267.14 L 370.16 267.14 L 370.16 267.14 L 370.16 267.14 L 370.16 267.14 L 370.16 267.14 L 370.16 267.14 L 370.16 267.14 L 374.14 267.14 L 382.10 247.53 L 387.40 249.85 L 387.40 249.85 L 391.38 249.85 L 396.68 249.85 L 398.01 249.85 L 398.01 249.85 L 398.01 249.85 L 398.01 249.85 L 398.01 249.85 L 415.25 249.85 L 416.58 249.85 L 424.54 162.92 L 425.86 154.66 L 427.19 154.66 L 474.93 180.60 L 480.24 180.60 L 481.56 180.60 L 482.89 195.50 L 485.54 203.68 L 485.54 203.68 L 490.85 203.68 L 492.18 203.68 L 493.50 203.68 L 494.83 203.68 L 498.81 203.68 L 500.13 203.68 L 502.79 203.68 L 504.11 203.68 L 508.09 203.68 L 509.42 203.68 L 509.42 203.68 L 513.40 203.68 L 517.37 203.68 L 518.70 203.68 L 520.03 203.68 L 521.35 203.68 L 522.68 203.68 L 527.98 226.15 L 529.31 200.21 L 530.64 180.60 L 531.96 190.40 L 535.94 190.40 L 537.27 190.40 L 537.27 190.40 L 539.92 211.48 L 541.25 211.48 L 545.23 211.48 L 546.55 211.48 L 547.88 211.48 L 549.20 211.48 L 550.53 211.48 L 550.53 211.48 L 550.53 211.48 L 550.53 211.48 L 557.16 211.48 L 559.81 211.48 L 563.79 211.48 L 565.12 211.48 L 567.77 211.48 L 569.10 211.48 L 574.40 211.48 L 575.73 211.48 L 577.06 211.48 L 578.38 239.27 L 582.36 245.45 L 583.69 209.93 L 585.01 221.28 L 586.34 219.74 L 587.67 201.75 L 591.64 161.07 L 592.97 161.07 L 594.30 161.07 L 595.62 162.61 L 596.95 170.79 L 600.93 162.61 L 602.25 162.61 L 603.58 151.26 L 604.91 161.07 L 606.23 141.46 L 611.54 151.26 L 612.86 152.80 L 614.19 143.08 L 615.52 149.64 L 619.50 155.97 L 620.82 152.80 L 622.15 151.26 L 623.47 151.26 L 624.80 162.61 L 628.78 161.07 L 630.11 152.80 L 634.08 240.81 L 638.06 180.60 L 639.39 182.14 L 640.72 172.41 L 642.04 209.93 L 643.37 239.27 L 647.35 191.95 L 648.67 190.40 L 650.00 180.60" /><text  class="poloto_text poloto_legend_text" x="675" y="150" >Refinance 20</text><line  class="poloto_line poloto_legend_icon poloto1stroke poloto1legend" stroke="black" x1="680" x2="730" y1="131.25" y2="131.25" /><path  class="poloto_line poloto1stroke" fill="none" stroke="black" d=" M 150.00 350.51 L 151.33 371.13 L 155.31 340.40 L 156.63 330.98 L 157.96 339.63 L 157.96 339.63 L 160.61 312.61 L 164.59 310.29 L 165.92 320.10 L 167.24 309.14 L 168.57 318.94 L 169.89 300.57 L 173.87 328.67 L 175.20 300.57 L 175.20 300.57 L 177.85 300.57 L 177.85 300.57 L 183.16 263.51 L 184.48 293.15 L 185.81 300.57 L 187.14 310.29 L 188.46 291.22 L 193.77 272.47 L 195.09 270.07 L 196.42 265.29 L 197.75 254.32 L 201.72 259.11 L 203.05 279.88 L 205.70 272.47 L 207.03 270.07 L 211.01 262.27 L 212.33 271.31 L 213.66 271.31 L 213.66 271.31 L 216.31 271.31 L 220.29 272.47 L 221.62 292.00 L 221.62 292.00 L 222.94 281.03 L 224.27 299.41 L 225.60 292.00 L 229.58 293.15 L 230.90 292.00 L 232.23 292.00 L 232.23 292.00 L 233.55 293.15 L 234.88 299.41 L 238.86 300.57 L 240.19 304.04 L 241.51 304.04 L 242.84 304.04 L 244.16 304.04 L 249.47 299.41 L 250.80 289.60 L 252.12 292.00 L 253.45 292.00 L 253.45 292.00 L 258.75 279.88 L 260.08 282.19 L 261.41 273.62 L 266.71 232.24 L 268.04 215.11 L 269.36 224.91 L 270.69 232.24 L 272.02 252.93 L 275.99 240.74 L 277.32 234.64 L 278.65 254.17 L 279.97 263.51 L 285.28 263.51 L 286.60 252.93 L 287.93 262.74 L 289.26 272.47 L 290.58 283.43 L 295.89 290.76 L 297.21 281.03 L 298.54 271.31 L 299.87 264.67 L 303.85 270.07 L 306.50 272.47 L 307.82 271.31 L 313.13 272.47 L 313.13 272.47 L 313.13 272.47 L 313.13 272.47 L 313.13 272.47 L 313.13 272.47 L 313.13 272.47 L 313.13 272.47 L 313.13 272.47 L 313.13 272.47 L 313.13 272.47 L 313.13 272.47 L 322.41 290.76 L 325.07 293.15 L 326.39 310.29 L 327.72 312.61 L 331.70 310.06 L 333.02 310.06 L 334.35 300.57 L 335.68 304.04 L 337.00 289.60 L 340.98 282.19 L 340.98 282.19 L 342.31 282.19 L 344.96 292.00 L 344.96 292.00 L 351.59 289.60 L 352.92 272.47 L 354.24 272.47 L 359.55 259.88 L 362.20 249.31 L 362.20 249.31 L 364.85 261.12 L 370.16 232.24 L 370.16 232.24 L 370.16 232.24 L 370.16 232.24 L 370.16 232.24 L 370.16 232.24 L 370.16 232.24 L 370.16 232.24 L 370.16 232.24 L 374.14 232.24 L 382.10 219.97 L 387.40 221.20 L 390.05 221.20 L 391.38 221.20 L 391.38 221.20 L 398.01 221.20 L 399.34 221.20 L 399.34 221.20 L 399.34 221.20 L 399.34 221.20 L 415.25 221.20 L 416.58 221.20 L 424.54 143.85 L 425.86 129.41 L 425.86 129.41 L 477.59 177.12 L 480.24 177.12 L 481.56 177.12 L 484.22 194.26 L 485.54 195.50 L 485.54 195.50 L 490.85 195.50 L 492.18 195.50 L 493.50 195.50 L 494.83 195.50 L 498.81 195.50 L 500.13 195.50 L 502.79 195.50 L 504.11 195.50 L 508.09 195.50 L 509.42 195.50 L 509.42 195.50 L 513.40 195.50 L 517.37 195.50 L 518.70 195.50 L 520.03 195.50 L 521.35 195.50 L 522.68 195.50 L 527.98 178.05 L 529.31 168.55 L 530.64 167.32 L 531.96 169.87 L 535.94 169.87 L 537.27 169.87 L 537.27 169.87 L 539.92 188.16 L 541.25 188.16 L 545.23 188.16 L 546.55 188.16 L 547.88 188.16 L 549.20 188.16 L 550.53 188.16 L 550.53 188.16 L 555.84 188.16 L 555.84 188.16 L 557.16 188.16 L 559.81 188.16 L 563.79 188.16 L 565.12 188.16 L 567.77 188.16 L 569.10 188.16 L 574.40 188.16 L 575.73 188.16 L 577.06 188.16 L 578.38 209.01 L 582.36 207.77 L 583.69 178.36 L 585.01 179.59 L 585.01 179.59 L 587.67 178.36 L 591.64 158.75 L 592.97 158.75 L 594.30 150.26 L 595.62 140.45 L 596.95 149.02 L 600.93 140.45 L 602.25 130.65 L 603.58 140.45 L 604.91 150.26 L 606.23 139.22 L 611.54 140.45 L 612.86 129.41 L 614.19 100.00 L 615.52 129.41 L 619.50 150.26 L 620.82 169.17 L 622.15 140.45 L 623.47 139.22 L 624.80 167.32 L 628.78 160.06 L 630.11 150.26 L 634.08 210.24 L 638.06 168.55 L 639.39 158.75 L 640.72 160.06 L 642.04 188.16 L 643.37 189.40 L 647.35 169.87 L 648.67 160.06 L 650.00 160.06" /><text  class="poloto_text poloto_legend_text" x="675" y="200" >Refinance 30</text><line  class="poloto_line poloto_legend_icon poloto2stroke poloto2legend" stroke="black" x1="680" x2="730" y1="181.25" y2="181.25" /><path  class="poloto_line poloto2stroke" fill="none" stroke="black" d=" M 150.00 348.35 L 151.33 355.69 L 155.31 344.26 L 156.63 335.31 L 157.96 337.00 L 157.96 337.00 L 160.61 318.24 L 164.59 316.62 L 165.92 326.35 L 167.24 315.77 L 168.57 325.50 L 169.89 306.82 L 173.87 315.77 L 175.20 297.01 L 176.53 297.01 L 177.85 296.17 L 179.18 272.47 L 183.16 276.63 L 184.48 287.29 L 185.81 297.01 L 187.14 288.14 L 188.46 277.48 L 193.77 269.38 L 195.09 256.18 L 196.42 254.40 L 197.75 252.55 L 201.72 256.18 L 203.05 271.31 L 205.70 269.38 L 207.03 267.60 L 211.01 257.95 L 212.33 268.45 L 213.66 257.95 L 213.66 257.95 L 216.31 257.95 L 220.29 259.73 L 221.62 276.63 L 221.62 276.63 L 222.94 268.45 L 224.27 269.38 L 225.60 270.23 L 229.58 277.48 L 230.90 269.38 L 232.23 269.38 L 232.23 269.38 L 233.55 278.33 L 234.88 279.26 L 238.86 280.11 L 240.19 288.14 L 241.51 288.14 L 242.84 289.84 L 244.16 289.84 L 249.47 286.36 L 250.80 276.63 L 252.12 278.33 L 253.45 277.48 L 253.45 277.48 L 258.75 268.45 L 260.08 268.45 L 261.41 258.80 L 266.71 219.74 L 268.04 192.10 L 269.36 209.01 L 270.69 219.74 L 272.02 229.46 L 275.99 220.59 L 277.32 219.74 L 278.65 237.49 L 279.97 239.27 L 285.28 239.27 L 286.60 228.62 L 287.93 237.49 L 289.26 247.22 L 290.58 268.45 L 295.89 269.38 L 297.21 258.80 L 298.54 240.20 L 299.87 237.49 L 303.85 255.25 L 306.50 239.27 L 307.82 238.34 L 313.13 256.18 L 313.13 256.18 L 313.13 256.18 L 313.13 256.18 L 313.13 256.18 L 313.13 256.18 L 315.78 256.18 L 315.78 256.18 L 315.78 256.18 L 315.78 256.18 L 315.78 256.18 L 315.78 256.18 L 322.41 267.60 L 325.07 269.38 L 326.39 286.36 L 327.72 297.86 L 331.70 297.01 L 333.02 297.01 L 334.35 277.48 L 335.68 280.11 L 337.00 267.60 L 340.98 277.48 L 340.98 277.48 L 342.31 270.23 L 344.96 278.33 L 344.96 278.33 L 351.59 276.63 L 352.92 259.73 L 354.24 258.80 L 359.55 236.57 L 362.20 228.62 L 362.20 228.62 L 364.85 238.34 L 370.16 227.69 L 370.16 227.69 L 370.16 227.69 L 370.16 227.69 L 370.16 227.69 L 370.16 227.69 L 370.16 227.69 L 370.16 227.69 L 374.14 227.69 L 374.14 226.76 L 382.10 215.11 L 387.40 195.50 L 387.40 195.50 L 391.38 195.50 L 391.38 195.50 L 398.01 195.50 L 399.34 195.50 L 399.34 195.50 L 399.34 195.50 L 399.34 195.50 L 415.25 195.50 L 416.58 195.50 L 424.54 151.34 L 425.86 126.71 L 425.86 126.71 L 477.59 169.02 L 480.24 169.02 L 481.56 169.02 L 482.89 172.95 L 485.54 181.91 L 485.54 181.91 L 490.85 181.91 L 492.18 181.91 L 493.50 181.91 L 494.83 181.91 L 498.81 181.91 L 500.13 181.91 L 502.79 181.91 L 504.11 181.91 L 508.09 181.91 L 509.42 181.91 L 509.42 181.91 L 513.40 181.91 L 517.37 181.91 L 518.70 181.91 L 520.03 181.91 L 521.35 181.91 L 522.68 181.91 L 527.98 167.01 L 529.31 174.88 L 530.64 156.20 L 531.96 174.88 L 535.94 174.88 L 537.27 174.88 L 537.27 174.88 L 539.92 174.88 L 541.25 174.88 L 545.23 174.88 L 546.55 174.88 L 547.88 174.88 L 549.20 174.88 L 550.53 174.88 L 550.53 174.88 L 555.84 174.88 L 555.84 174.88 L 557.16 174.88 L 559.81 174.88 L 563.79 174.88 L 565.12 174.88 L 567.77 174.88 L 569.10 174.88 L 574.40 174.88 L 575.73 174.88 L 577.06 174.88 L 578.38 224.91 L 582.36 215.11 L 583.69 175.89 L 585.01 205.30 L 586.34 175.89 L 587.67 166.01 L 591.64 156.20 L 592.97 156.20 L 594.30 147.32 L 595.62 137.52 L 596.95 146.40 L 600.93 146.40 L 602.25 135.59 L 603.58 127.71 L 604.91 137.52 L 606.23 128.72 L 611.54 127.71 L 612.86 116.91 L 614.19 116.91 L 615.52 126.71 L 619.50 127.71 L 620.82 117.91 L 622.15 125.78 L 623.47 117.91 L 624.80 147.32 L 628.78 147.32 L 630.11 127.71 L 634.08 206.23 L 638.06 147.32 L 639.39 146.40 L 640.72 146.40 L 642.04 176.81 L 643.37 176.81 L 647.35 157.21 L 648.67 157.21 L 650.00 156.20" /><text  class="poloto_labels poloto_text poloto_title" x="400" y="37.5" >lower.com purchase rates</text><text  class="poloto_labels poloto_text poloto_xname" x="400" y="481.25" >Date</text><text  class="poloto_labels poloto_text poloto_yname" transform="rotate(-90,37.5,250)" x="37.5" y="250" >Rate (%)</text><text  class="poloto_tick_labels poloto_text" dominant-baseline="middle" text-anchor="start" x="150" y="70" ></text><line  class="poloto_axis_lines" stroke="black" x1="150" x2="144" y1="391.12197632527017" y2="391.12197632527017" /><line  class="poloto_tick_line" stroke="black" x1="150" x2="650" y1="391.12197632527017" y2="391.12197632527017" /><text  class="poloto_tick_labels poloto_text" dominant-baseline="middle" text-anchor="end" x="135" y="391.12197632527017" >3.625</text><line  class="poloto_axis_lines" stroke="black" x1="150" x2="144" y1="381.4719505918682" y2="381.4719505918682" /><line  class="poloto_tick_line" stroke="black" x1="150" x2="650" y1="381.4719505918682" y2="381.4719505918682" /><text  class="poloto_tick_labels poloto_text" dominant-baseline="middle" text-anchor="end" x="135" y="381.4719505918682" >3.75</text><line  class="poloto_axis_lines" stroke="black" x1="150" x2="144" y1="371.8219248584663" y2="371.8219248584663" /><line  class="poloto_tick_line" stroke="black" x1="150" x2="650" y1="371.8219248584663" y2="371.8219248584663" /><text  class="poloto_tick_labels poloto_text" dominant-baseline="middle" text-anchor="end" x="135" y="371.8219248584663" >3.875</text><line  class="poloto_axis_lines" stroke="black" x1="150" x2="144" y1="362.17189912506433" y2="362.17189912506433" /><line  class="poloto_tick_line" stroke="black" x1="150" x2="650" y1="362.17189912506433" y2="362.17189912506433" /><text  class="poloto_tick_labels poloto_text" dominant-baseline="middle" text-anchor="end" x="135" y="362.17189912506433" >4</text><line  class="poloto_axis_lines" stroke="black" x1="150" x2="144" y1="352.5218733916624" y2="352.5218733916624" /><line  class="poloto_tick_line" stroke="black" x1="150" x2="650" y1="352.5218733916624" y2="352.5218733916624" /><text  class="poloto_tick_labels poloto_text" dominant-baseline="middle" text-anchor="end" x="135" y="352.5218733916624" >4.125</text><line  class="poloto_axis_lines" stroke="black" x1="150" x2="144" y1="342.87184765826044" y2="342.87184765826044" /><line  class="poloto_tick_line" stroke="black" x1="150" x2="650" y1="342.87184765826044" y2="342.87184765826044" /><text  class="poloto_tick_labels poloto_text" dominant-baseline="middle" text-anchor="end" x="135" y="342.87184765826044" >4.25</text><line  class="poloto_axis_lines" stroke="black" x1="150" x2="144" y1="333.2218219248585" y2="333.2218219248585" /><line  class="poloto_tick_line" stroke="black" x1="150" x2="650" y1="333.2218219248585" y2="333.2218219248585" /><text  class="poloto_tick_labels poloto_text" dominant-baseline="middle" text-anchor="end" x="135" y="333.2218219248585" >4.375</text><line  class="poloto_axis_lines" stroke="black" x1="150" x2="144" y1="323.5717961914565" y2="323.5717961914565" /><line  class="poloto_tick_line" stroke="black" x1="150" x2="650" y1="323.5717961914565" y2="323.5717961914565" /><text  class="poloto_tick_labels poloto_text" dominant-baseline="middle" text-anchor="end" x="135" y="323.5717961914565" >4.5</text><line  class="poloto_axis_lines" stroke="black" x1="150" x2="144" y1="313.92177045805454" y2="313.92177045805454" /><line  class="poloto_tick_line" stroke="black" x1="150" x2="650" y1="313.92177045805454" y2="313.92177045805454" /><text  class="poloto_tick_labels poloto_text" dominant-baseline="middle" text-anchor="end" x="135" y="313.92177045805454" >4.625</text><line  class="poloto_axis_lines" stroke="black" x1="150" x2="144" y1="304.2717447246526" y2="304.2717447246526" /><line  class="poloto_tick_line" stroke="black" x1="150" x2="650" y1="304.2717447246526" y2="304.2717447246526" /><text  class="poloto_tick_labels poloto_text" dominant-baseline="middle" text-anchor="end" x="135" y="304.2717447246526" >4.75</text><line  class="poloto_axis_lines" stroke="black" x1="150" x2="144" y1="294.62171899125065" y2="294.62171899125065" /><line  class="poloto_tick_line" stroke="black" x1="150" x2="650" y1="294.62171899125065" y2="294.62171899125065" /><text  class="poloto_tick_labels poloto_text" dominant-baseline="middle" text-anchor="end" x="135" y="294.62171899125065" >4.875</text><line  class="poloto_axis_lines" stroke="black" x1="150" x2="144" y1="284.9716932578487" y2="284.9716932578487" /><line  class="poloto_tick_line" stroke="black" x1="150" x2="650" y1="284.9716932578487" y2="284.9716932578487" /><text  class="poloto_tick_labels poloto_text" dominant-baseline="middle" text-anchor="end" x="135" y="284.9716932578487" >5</text><line  class="poloto_axis_lines" stroke="black" x1="150" x2="144" y1="275.32166752444675" y2="275.32166752444675" /><line  class="poloto_tick_line" stroke="black" x1="150" x2="650" y1="275.32166752444675" y2="275.32166752444675" /><text  class="poloto_tick_labels poloto_text" dominant-baseline="middle" text-anchor="end" x="135" y="275.32166752444675" >5.125</text><line  class="poloto_axis_lines" stroke="black" x1="150" x2="144" y1="265.67164179104475" y2="265.67164179104475" /><line  class="poloto_tick_line" stroke="black" x1="150" x2="650" y1="265.67164179104475" y2="265.67164179104475" /><text  class="poloto_tick_labels poloto_text" dominant-baseline="middle" text-anchor="end" x="135" y="265.67164179104475" >5.25</text><line  class="poloto_axis_lines" stroke="black" x1="150" x2="144" y1="256.0216160576428" y2="256.0216160576428" /><line  class="poloto_tick_line" stroke="black" x1="150" x2="650" y1="256.0216160576428" y2="256.0216160576428" /><text  class="poloto_tick_labels poloto_text" dominant-baseline="middle" text-anchor="end" x="135" y="256.0216160576428" >5.375</text><line  class="poloto_axis_lines" stroke="black" x1="150" x2="144" y1="246.37159032424086" y2="246.37159032424086" /><line  class="poloto_tick_line" stroke="black" x1="150" x2="650" y1="246.37159032424086" y2="246.37159032424086" /><text  class="poloto_tick_labels poloto_text" dominant-baseline="middle" text-anchor="end" x="135" y="246.37159032424086" >5.5</text><line  class="poloto_axis_lines" stroke="black" x1="150" x2="144" y1="236.7215645908389" y2="236.7215645908389" /><line  class="poloto_tick_line" stroke="black" x1="150" x2="650" y1="236.7215645908389" y2="236.7215645908389" /><text  class="poloto_tick_labels poloto_text" dominant-baseline="middle" text-anchor="end" x="135" y="236.7215645908389" >5.625</text><line  class="poloto_axis_lines" stroke="black" x1="150" x2="144" y1="227.07153885743696" y2="227.07153885743696" /><line  class="poloto_tick_line" stroke="black" x1="150" x2="650" y1="227.07153885743696" y2="227.07153885743696" /><text  class="poloto_tick_labels poloto_text" dominant-baseline="middle" text-anchor="end" x="135" y="227.07153885743696" >5.75</text><line  class="poloto_axis_lines" stroke="black" x1="150" x2="144" y1="217.42151312403502" y2="217.42151312403502" /><line  class="poloto_tick_line" stroke="black" x1="150" x2="650" y1="217.42151312403502" y2="217.42151312403502" /><text  class="poloto_tick_labels poloto_text" dominant-baseline="middle" text-anchor="end" x="135" y="217.42151312403502" >5.875</text><line  class="poloto_axis_lines" stroke="black" x1="150" x2="144" y1="207.771487390633" y2="207.771487390633" /><line  class="poloto_tick_line" stroke="black" x1="150" x2="650" y1="207.771487390633" y2="207.771487390633" /><text  class="poloto_tick_labels poloto_text" dominant-baseline="middle" text-anchor="end" x="135" y="207.771487390633" >6</text><line  class="poloto_axis_lines" stroke="black" x1="150" x2="144" y1="198.12146165723107" y2="198.12146165723107" /><line  class="poloto_tick_line" stroke="black" x1="150" x2="650" y1="198.12146165723107" y2="198.12146165723107" /><text  class="poloto_tick_labels poloto_text" dominant-baseline="middle" text-anchor="end" x="135" y="198.12146165723107" >6.125</text><line  class="poloto_axis_lines" stroke="black" x1="150" x2="144" y1="188.47143592382912" y2="188.47143592382912" /><line  class="poloto_tick_line" stroke="black" x1="150" x2="650" y1="188.47143592382912" y2="188.47143592382912" /><text  class="poloto_tick_labels poloto_text" dominant-baseline="middle" text-anchor="end" x="135" y="188.47143592382912" >6.25</text><line  class="poloto_axis_lines" stroke="black" x1="150" x2="144" y1="178.82141019042717" y2="178.82141019042717" /><line  class="poloto_tick_line" stroke="black" x1="150" x2="650" y1="178.82141019042717" y2="178.82141019042717" /><text  class="poloto_tick_labels poloto_text" dominant-baseline="middle" text-anchor="end" x="135" y="178.82141019042717" >6.375</text><line  class="poloto_axis_lines" stroke="black" x1="150" x2="144" y1="169.17138445702523" y2="169.17138445702523" /><line  class="poloto_tick_line" stroke="black" x1="150" x2="650" y1="169.17138445702523" y2="169.17138445702523" /><text  class="poloto_tick_labels poloto_text" dominant-baseline="middle" text-anchor="end" x="135" y="169.17138445702523" >6.5</text><line  class="poloto_axis_lines" stroke="black" x1="150" x2="144" y1="159.52135872362328" y2="159.52135872362328" /><line  class="poloto_tick_line" stroke="black" x1="150" x2="650" y1="159.52135872362328" y2="159.52135872362328" /><text  class="poloto_tick_labels poloto_text" dominant-baseline="middle" text-anchor="end" x="135" y="159.52135872362328" >6.625</text><line  class="poloto_axis_lines" stroke="black" x1="150" x2="144" y1="149.87133299022133" y2="149.87133299022133" /><line  class="poloto_tick_line" stroke="black" x1="150" x2="650" y1="149.87133299022133" y2="149.87133299022133" /><text  class="poloto_tick_labels poloto_text" dominant-baseline="middle" text-anchor="end" x="135" y="149.87133299022133" >6.75</text><line  class="poloto_axis_lines" stroke="black" x1="150" x2="144" y1="140.22130725681933" y2="140.22130725681933" /><line  class="poloto_tick_line" stroke="black" x1="150" x2="650" y1="140.22130725681933" y2="140.22130725681933" /><text  class="poloto_tick_labels poloto_text" dominant-baseline="middle" text-anchor="end" x="135" y="140.22130725681933" >6.875</text><line  class="poloto_axis_lines" stroke="black" x1="150" x2="144" y1="130.57128152341744" y2="130.57128152341744" /><line  class="poloto_tick_line" stroke="black" x1="150" x2="650" y1="130.57128152341744" y2="130.57128152341744" /><text  class="poloto_tick_labels poloto_text" dominant-baseline="middle" text-anchor="end" x="135" y="130.57128152341744" >7</text><line  class="poloto_axis_lines" stroke="black" x1="150" x2="144" y1="120.92125579001544" y2="120.92125579001544" /><line  class="poloto_tick_line" stroke="black" x1="150" x2="650" y1="120.92125579001544" y2="120.92125579001544" /><text  class="poloto_tick_labels poloto_text" dominant-baseline="middle" text-anchor="end" x="135" y="120.92125579001544" >7.125</text><line  class="poloto_axis_lines" stroke="black" x1="150" x2="144" y1="111.27123005661343" y2="111.27123005661343" /><line  class="poloto_tick_line" stroke="black" x1="150" x2="650" y1="111.27123005661343" y2="111.27123005661343" /><text  class="poloto_tick_labels poloto_text" dominant-baseline="middle" text-anchor="end" x="135" y="111.27123005661343" >7.25</text><line  class="poloto_axis_lines" stroke="black" x1="150" x2="144" y1="101.62120432321154" y2="101.62120432321154" /><line  class="poloto_tick_line" stroke="black" x1="150" x2="650" y1="101.62120432321154" y2="101.62120432321154" /><text  class="poloto_tick_labels poloto_text" dominant-baseline="middle" text-anchor="end" x="135" y="101.62120432321154" >7.375</text><text  class="poloto_tick_labels poloto_text" dominant-baseline="middle" text-anchor="start" x="440.00000000000006" y="70" >¹2022-05-01 00:00:00 UTC in Months</text><line  class="poloto_axis_lines" stroke="black" x1="209.68169761273384" x2="209.68169761273384" y1="400" y2="405" /><line  class="poloto_tick_line" stroke="black" x1="209.68169761273384" x2="209.68169761273384" y1="400" y2="100.00000000000006" /><text  class="poloto_tick_labels poloto_text" dominant-baseline="start" text-anchor="middle" x="209.68169761273384" y="430" >2022 May¹</text><line  class="poloto_axis_lines" stroke="black" x1="290.58355437665887" x2="290.58355437665887" y1="400" y2="405" /><line  class="poloto_tick_line" stroke="black" x1="290.58355437665887" x2="290.58355437665887" y1="400" y2="100.00000000000006" /><text  class="poloto_tick_labels poloto_text" dominant-baseline="start" text-anchor="middle" x="290.58355437665887" y="430" >2022 Jul</text><line  class="poloto_axis_lines" stroke="black" x1="372.8116710875329" x2="372.8116710875329" y1="400" y2="405" /><line  class="poloto_tick_line" stroke="black" x1="372.8116710875329" x2="372.8116710875329" y1="400" y2="100.00000000000006" /><text  class="poloto_tick_labels poloto_text" dominant-baseline="start" text-anchor="middle" x="372.8116710875329" y="430" >2022 Sep</text><line  class="poloto_axis_lines" stroke="black" x1="453.7135278514579" x2="453.7135278514579" y1="400" y2="405" /><line  class="poloto_tick_line" stroke="black" x1="453.7135278514579" x2="453.7135278514579" y1="400" y2="100.00000000000006" /><text  class="poloto_tick_labels poloto_text" dominant-baseline="start" text-anchor="middle" x="453.7135278514579" y="430" >2022 Nov</text><line  class="poloto_axis_lines" stroke="black" x1="534.6153846153866" x2="534.6153846153866" y1="400" y2="405" /><line  class="poloto_tick_line" stroke="black" x1="534.6153846153866" x2="534.6153846153866" y1="400" y2="100.00000000000006" /><text  class="poloto_tick_labels poloto_text" dominant-baseline="start" text-anchor="middle" x="534.6153846153866" y="430" >2023 Jan</text><line  class="poloto_axis_lines" stroke="black" x1="612.86472148541" x2="612.86472148541" y1="400" y2="405" /><line  class="poloto_tick_line" stroke="black" x1="612.86472148541" x2="612.86472148541" y1="400" y2="100.00000000000006" /><text  class="poloto_tick_labels poloto_text" dominant-baseline="start" text-anchor="middle" x="612.86472148541" y="430" >2023 Mar</text><path  stroke="black" fill="none" class="poloto_axis_lines" d=" M 150 400 L 650 400" /><path  stroke="black" fill="none" class="poloto_axis_lines" d=" M 150 400 L 150 100.00000000000006" /></svg>