<svg class="poloto" width="800" height="500" viewBox="0 0 800 500" xmlns="http://www.w3.org/2000/svg"><style>.poloto{stroke-linecap:round;stroke-linejoin:round;font-family:Roboto,sans-serif;font-size:16px;}.poloto_background{fill:#262626;}.poloto_scatter{stroke-width:7}.poloto_tick_line{stroke:dimgray;stroke-width:0.5}.poloto_line{stroke-width:2}.poloto_text{fill: white;}.poloto_axis_lines{stroke: white;stroke-width:3;fill:none;stroke-dasharray:none}.poloto_title{font-size:24px;dominant-baseline:start;text-anchor:middle;}.poloto_xname{font-size:24px;dominant-baseline:start;text-anchor:middle;}.poloto_yname{font-size:24px;dominant-baseline:start;text-anchor:middle;}.poloto0stroke{stroke:blue;}.poloto1stroke{stroke:red;}.poloto2stroke{stroke:green;}.poloto3stroke{stroke:gold;}.poloto4stroke{stroke:aqua;}.poloto5stroke{stroke:lime;}.poloto6stroke{stroke:orange;}.poloto7stroke{stroke:chocolate;}.poloto0fill{fill:blue;}.poloto1fill{fill:red;}.poloto2fill{fill:green;}.poloto3fill{fill:gold;}.poloto4fill{fill:aqua;}.poloto5fill{fill:lime;}.poloto6fill{fill:orange;}.poloto7fill{fill:chocolate;}</style><circle  r="1e5" class="poloto_background" /><text  class="poloto_text poloto_legend_text" x="675" y="100" >Refinance 15</text><line  class="poloto_line poloto_legend_icon poloto0stroke poloto0legend" stroke="black" x1="680" x2="730" y1="81.25" y2="81.25" /><path  class="poloto_line poloto0stroke" fill="none" stroke="black" d=" M 150.00 390.09 L 152.49 400.00 L 159.95 385.96 L 162.44 373.93 L 164.93 385.96 L 164.93 385.96 L 169.90 345.86 L 177.36 343.74 L 179.85 357.78 L 182.34 327.48 L 184.83 329.60 L 187.31 323.25 L 194.78 325.36 L 197.26 316.90 L 197.26 316.90 L 202.24 317.68 L 204.73 287.37 L 212.19 300.52 L 214.68 304.75 L 217.16 304.75 L 219.65 303.64 L 222.14 297.18 L 232.09 240.59 L 234.58 265.76 L 237.06 246.27 L 239.55 238.69 L 239.55 238.69 L 249.50 267.99 L 254.48 273.34 L 256.97 261.42 L 264.43 247.27 L 266.92 275.45 L 269.40 261.42 L 269.40 261.42 L 274.38 259.19 L 281.84 263.54 L 284.33 277.57 L 284.33 277.57 L 286.82 265.65 L 289.30 279.80 L 291.79 259.19 L 299.25 301.52 L 301.74 300.52 L 304.23 277.57 L 304.23 277.57 L 306.72 287.37 L 309.20 291.72 L 316.67 291.72 L 319.15 306.87 L 321.64 306.87 L 324.13 306.87 L 326.62 306.87 L 336.57 291.72 L 339.05 287.37 L 341.54 289.49 L 344.03 289.49 L 344.03 289.49 L 353.98 275.45 L 356.47 275.45 L 358.96 263.54 L 368.91 244.04 L 371.39 203.82 L 373.88 208.28 L 376.37 208.28 L 378.86 236.46 L 386.32 208.28 L 388.81 208.28 L 391.29 234.24 L 393.78 238.69 L 403.73 238.69 L 406.22 236.46 L 408.71 243.04 L 411.19 249.50 L 413.68 263.54 L 423.63 273.34 L 426.12 261.42 L 428.61 251.62 L 431.09 247.27 L 438.56 249.50 L 443.53 249.50 L 446.02 247.27 L 455.97 245.15 L 455.97 245.15 L 455.97 245.15 L 455.97 245.15 L 455.97 245.15 L 455.97 245.15 L 460.95 245.15 L 460.95 245.15 L 460.95 245.15 L 460.95 245.15 L 460.95 245.15 L 460.95 245.15 L 473.38 261.42 L 478.36 265.65 L 480.85 302.64 L 483.33 306.87 L 490.80 306.87 L 493.28 304.75 L 495.77 275.45 L 498.26 267.88 L 500.75 249.50 L 508.21 263.54 L 508.21 263.54 L 510.70 251.62 L 515.67 263.54 L 515.67 263.54 L 528.11 263.54 L 530.60 219.20 L 533.08 245.15 L 543.03 200.71 L 548.01 200.71 L 548.01 200.71 L 552.99 216.97 L 562.94 208.28 L 562.94 208.28 L 562.94 208.28 L 562.94 208.28 L 562.94 208.28 L 562.94 208.28 L 562.94 208.28 L 562.94 208.28 L 562.94 208.28 L 570.40 208.28 L 585.32 179.99 L 595.27 183.33 L 595.27 183.33 L 602.74 183.33 L 612.69 183.33 L 615.17 183.33 L 615.17 183.33 L 615.17 183.33 L 615.17 183.33 L 615.17 183.33 L 647.51 183.33 L 650.00 183.33" /><text  class="poloto_text poloto_legend_text" x="675" y="150" >Refinance 20</text><line  class="poloto_line poloto_legend_icon poloto1stroke poloto1legend" stroke="black" x1="680" x2="730" y1="131.25" y2="131.25" /><path  class="poloto_line poloto1stroke" fill="none" stroke="black" d=" M 150.00 328.59 L 152.49 358.34 L 159.95 314.00 L 162.44 300.41 L 164.93 312.89 L 164.93 312.89 L 169.90 273.90 L 177.36 270.55 L 179.85 284.70 L 182.34 268.88 L 184.83 283.03 L 187.31 256.52 L 194.78 297.07 L 197.26 256.52 L 197.26 256.52 L 202.24 256.52 L 202.24 256.52 L 212.19 203.04 L 214.68 245.82 L 217.16 256.52 L 219.65 270.55 L 222.14 243.04 L 232.09 215.97 L 234.58 212.51 L 237.06 205.61 L 239.55 189.79 L 247.01 196.70 L 249.50 226.66 L 254.48 215.97 L 256.97 212.51 L 264.43 201.26 L 266.92 214.30 L 269.40 214.30 L 269.40 214.30 L 274.38 214.30 L 281.84 215.97 L 284.33 244.15 L 284.33 244.15 L 286.82 228.33 L 289.30 254.85 L 291.79 244.15 L 299.25 245.82 L 301.74 244.15 L 304.23 244.15 L 304.23 244.15 L 306.72 245.82 L 309.20 254.85 L 316.67 256.52 L 319.15 261.53 L 321.64 261.53 L 324.13 261.53 L 326.62 261.53 L 336.57 254.85 L 339.05 240.70 L 341.54 244.15 L 344.03 244.15 L 344.03 244.15 L 353.98 226.66 L 356.47 230.00 L 358.96 217.64 L 368.91 157.93 L 371.39 133.20 L 373.88 147.34 L 376.37 157.93 L 378.86 187.78 L 386.32 170.18 L 388.81 161.38 L 391.29 189.57 L 393.78 203.04 L 403.73 203.04 L 406.22 187.78 L 408.71 201.93 L 411.19 215.97 L 413.68 231.79 L 423.63 242.37 L 426.12 228.33 L 428.61 214.30 L 431.09 204.72 L 438.56 212.51 L 443.53 215.97 L 446.02 214.30 L 455.97 215.97 L 455.97 215.97 L 455.97 215.97 L 455.97 215.97 L 455.97 215.97 L 455.97 215.97 L 455.97 215.97 L 455.97 215.97 L 455.97 215.97 L 455.97 215.97 L 455.97 215.97 L 455.97 215.97 L 473.38 242.37 L 478.36 245.82 L 480.85 270.55 L 483.33 273.90 L 490.80 270.22 L 493.28 270.22 L 495.77 256.52 L 498.26 261.53 L 500.75 240.70 L 508.21 230.00 L 508.21 230.00 L 510.70 230.00 L 515.67 244.15 L 515.67 244.15 L 528.11 240.70 L 530.60 215.97 L 533.08 215.97 L 543.03 197.81 L 548.01 182.55 L 548.01 182.55 L 552.99 199.59 L 562.94 157.93 L 562.94 157.93 L 562.94 157.93 L 562.94 157.93 L 562.94 157.93 L 562.94 157.93 L 562.94 157.93 L 562.94 157.93 L 562.94 157.93 L 570.40 157.93 L 585.32 140.22 L 595.27 142.00 L 600.25 142.00 L 602.74 142.00 L 602.74 142.00 L 615.17 142.00 L 617.66 142.00 L 617.66 142.00 L 617.66 142.00 L 617.66 142.00 L 647.51 142.00 L 650.00 142.00" /><text  class="poloto_text poloto_legend_text" x="675" y="200" >Refinance 30</text><line  class="poloto_line poloto_legend_icon poloto2stroke poloto2legend" stroke="black" x1="680" x2="730" y1="181.25" y2="181.25" /><path  class="poloto_line poloto2stroke" fill="none" stroke="black" d=" M 150.00 325.47 L 152.49 336.06 L 159.95 319.57 L 162.44 306.65 L 164.93 309.10 L 164.93 309.10 L 169.90 282.03 L 177.36 279.69 L 179.85 293.72 L 182.34 278.46 L 184.83 292.50 L 187.31 265.54 L 194.78 278.46 L 197.26 251.39 L 199.75 251.39 L 202.24 250.17 L 204.73 215.97 L 212.19 221.98 L 214.68 237.36 L 217.16 251.39 L 219.65 238.58 L 222.14 223.21 L 232.09 211.51 L 234.58 192.46 L 237.06 189.90 L 239.55 187.23 L 247.01 192.46 L 249.50 214.30 L 254.48 211.51 L 256.97 208.95 L 264.43 195.02 L 266.92 210.17 L 269.40 195.02 L 269.40 195.02 L 274.38 195.02 L 281.84 197.59 L 284.33 221.98 L 284.33 221.98 L 286.82 210.17 L 289.30 211.51 L 291.79 212.74 L 299.25 223.21 L 301.74 211.51 L 304.23 211.51 L 304.23 211.51 L 306.72 224.43 L 309.20 225.77 L 316.67 227.00 L 319.15 238.58 L 321.64 238.58 L 324.13 241.03 L 326.62 241.03 L 336.57 236.02 L 339.05 221.98 L 341.54 224.43 L 344.03 223.21 L 344.03 223.21 L 353.98 210.17 L 356.47 210.17 L 358.96 196.25 L 368.91 139.88 L 371.39 100.00 L 373.88 124.40 L 376.37 139.88 L 378.86 153.92 L 386.32 141.11 L 388.81 139.88 L 391.29 165.50 L 393.78 168.07 L 403.73 168.07 L 406.22 152.69 L 408.71 165.50 L 411.19 179.54 L 413.68 210.17 L 423.63 211.51 L 426.12 196.25 L 428.61 169.40 L 431.09 165.50 L 438.56 191.13 L 443.53 168.07 L 446.02 166.73 L 455.97 192.46 L 455.97 192.46 L 455.97 192.46 L 455.97 192.46 L 455.97 192.46 L 455.97 192.46 L 460.95 192.46 L 460.95 192.46 L 460.95 192.46 L 460.95 192.46 L 460.95 192.46 L 460.95 192.46 L 473.38 208.95 L 478.36 211.51 L 480.85 236.02 L 483.33 252.62 L 490.80 251.39 L 493.28 251.39 L 495.77 223.21 L 498.26 227.00 L 500.75 208.95 L 508.21 223.21 L 508.21 223.21 L 510.70 212.74 L 515.67 224.43 L 515.67 224.43 L 528.11 221.98 L 530.60 197.59 L 533.08 196.25 L 543.03 164.17 L 548.01 152.69 L 548.01 152.69 L 552.99 166.73 L 562.94 151.36 L 562.94 151.36 L 562.94 151.36 L 562.94 151.36 L 562.94 151.36 L 562.94 151.36 L 562.94 151.36 L 562.94 151.36 L 570.40 151.36 L 570.40 150.02 L 585.32 133.20 L 595.27 104.90 L 595.27 104.90 L 602.74 104.90 L 602.74 104.90 L 615.17 104.90 L 617.66 104.90 L 617.66 104.90 L 617.66 104.90 L 617.66 104.90 L 647.51 104.90 L 650.00 104.90" /><text  class="poloto_labels poloto_text poloto_title" x="400" y="37.5" >lower.com purchase rates</text><text  class="poloto_labels poloto_text poloto_xname" x="400" y="481.25" >Date</text><text  class="poloto_labels poloto_text poloto_yname" transform="rotate(-90,37.5,250)" x="37.5" y="250" >Rate (%)</text><text  class="poloto_tick_labels poloto_text" dominant-baseline="middle" text-anchor="start" x="150" y="70" ></text><line  class="poloto_axis_lines" stroke="black" x1="150" x2="144" y1="387.18900854066095" y2="387.18900854066095" /><line  class="poloto_tick_line" stroke="black" x1="150" x2="650" y1="387.18900854066095" y2="387.18900854066095" /><text  class="poloto_tick_labels poloto_text" dominant-baseline="middle" text-anchor="end" x="135" y="387.18900854066095" >3.625</text><line  class="poloto_axis_lines" stroke="black" x1="150" x2="144" y1="373.26401782398807" y2="373.26401782398807" /><line  class="poloto_tick_line" stroke="black" x1="150" x2="650" y1="373.26401782398807" y2="373.26401782398807" /><text  class="poloto_tick_labels poloto_text" dominant-baseline="middle" text-anchor="end" x="135" y="373.26401782398807" >3.75</text><line  class="poloto_axis_lines" stroke="black" x1="150" x2="144" y1="359.33902710731525" y2="359.33902710731525" /><line  class="poloto_tick_line" stroke="black" x1="150" x2="650" y1="359.33902710731525" y2="359.33902710731525" /><text  class="poloto_tick_labels poloto_text" dominant-baseline="middle" text-anchor="end" x="135" y="359.33902710731525" >3.875</text><line  class="poloto_axis_lines" stroke="black" x1="150" x2="144" y1="345.41403639064237" y2="345.41403639064237" /><line  class="poloto_tick_line" stroke="black" x1="150" x2="650" y1="345.41403639064237" y2="345.41403639064237" /><text  class="poloto_tick_labels poloto_text" dominant-baseline="middle" text-anchor="end" x="135" y="345.41403639064237" >4</text><line  class="poloto_axis_lines" stroke="black" x1="150" x2="144" y1="331.4890456739695" y2="331.4890456739695" /><line  class="poloto_tick_line" stroke="black" x1="150" x2="650" y1="331.4890456739695" y2="331.4890456739695" /><text  class="poloto_tick_labels poloto_text" dominant-baseline="middle" text-anchor="end" x="135" y="331.4890456739695" >4.125</text><line  class="poloto_axis_lines" stroke="black" x1="150" x2="144" y1="317.56405495729666" y2="317.56405495729666" /><line  class="poloto_tick_line" stroke="black" x1="150" x2="650" y1="317.56405495729666" y2="317.56405495729666" /><text  class="poloto_tick_labels poloto_text" dominant-baseline="middle" text-anchor="end" x="135" y="317.56405495729666" >4.25</text><line  class="poloto_axis_lines" stroke="black" x1="150" x2="144" y1="303.6390642406238" y2="303.6390642406238" /><line  class="poloto_tick_line" stroke="black" x1="150" x2="650" y1="303.6390642406238" y2="303.6390642406238" /><text  class="poloto_tick_labels poloto_text" dominant-baseline="middle" text-anchor="end" x="135" y="303.6390642406238" >4.375</text><line  class="poloto_axis_lines" stroke="black" x1="150" x2="144" y1="289.71407352395096" y2="289.71407352395096" /><line  class="poloto_tick_line" stroke="black" x1="150" x2="650" y1="289.71407352395096" y2="289.71407352395096" /><text  class="poloto_tick_labels poloto_text" dominant-baseline="middle" text-anchor="end" x="135" y="289.71407352395096" >4.5</text><line  class="poloto_axis_lines" stroke="black" x1="150" x2="144" y1="275.7890828072781" y2="275.7890828072781" /><line  class="poloto_tick_line" stroke="black" x1="150" x2="650" y1="275.7890828072781" y2="275.7890828072781" /><text  class="poloto_tick_labels poloto_text" dominant-baseline="middle" text-anchor="end" x="135" y="275.7890828072781" >4.625</text><line  class="poloto_axis_lines" stroke="black" x1="150" x2="144" y1="261.86409209060525" y2="261.86409209060525" /><line  class="poloto_tick_line" stroke="black" x1="150" x2="650" y1="261.86409209060525" y2="261.86409209060525" /><text  class="poloto_tick_labels poloto_text" dominant-baseline="middle" text-anchor="end" x="135" y="261.86409209060525" >4.75</text><line  class="poloto_axis_lines" stroke="black" x1="150" x2="144" y1="247.93910137393243" y2="247.93910137393243" /><line  class="poloto_tick_line" stroke="black" x1="150" x2="650" y1="247.93910137393243" y2="247.93910137393243" /><text  class="poloto_tick_labels poloto_text" dominant-baseline="middle" text-anchor="end" x="135" y="247.93910137393243" >4.875</text><line  class="poloto_axis_lines" stroke="black" x1="150" x2="144" y1="234.0141106572595" y2="234.0141106572595" /><line  class="poloto_tick_line" stroke="black" x1="150" x2="650" y1="234.0141106572595" y2="234.0141106572595" /><text  class="poloto_tick_labels poloto_text" dominant-baseline="middle" text-anchor="end" x="135" y="234.0141106572595" >5</text><line  class="poloto_axis_lines" stroke="black" x1="150" x2="144" y1="220.08911994058667" y2="220.08911994058667" /><line  class="poloto_tick_line" stroke="black" x1="150" x2="650" y1="220.08911994058667" y2="220.08911994058667" /><text  class="poloto_tick_labels poloto_text" dominant-baseline="middle" text-anchor="end" x="135" y="220.08911994058667" >5.125</text><line  class="poloto_axis_lines" stroke="black" x1="150" x2="144" y1="206.16412922391385" y2="206.16412922391385" /><line  class="poloto_tick_line" stroke="black" x1="150" x2="650" y1="206.16412922391385" y2="206.16412922391385" /><text  class="poloto_tick_labels poloto_text" dominant-baseline="middle" text-anchor="end" x="135" y="206.16412922391385" >5.25</text><line  class="poloto_axis_lines" stroke="black" x1="150" x2="144" y1="192.23913850724102" y2="192.23913850724102" /><line  class="poloto_tick_line" stroke="black" x1="150" x2="650" y1="192.23913850724102" y2="192.23913850724102" /><text  class="poloto_tick_labels poloto_text" dominant-baseline="middle" text-anchor="end" x="135" y="192.23913850724102" >5.375</text><line  class="poloto_axis_lines" stroke="black" x1="150" x2="144" y1="178.3141477905681" y2="178.3141477905681" /><line  class="poloto_tick_line" stroke="black" x1="150" x2="650" y1="178.3141477905681" y2="178.3141477905681" /><text  class="poloto_tick_labels poloto_text" dominant-baseline="middle" text-anchor="end" x="135" y="178.3141477905681" >5.5</text><line  class="poloto_axis_lines" stroke="black" x1="150" x2="144" y1="164.38915707389526" y2="164.38915707389526" /><line  class="poloto_tick_line" stroke="black" x1="150" x2="650" y1="164.38915707389526" y2="164.38915707389526" /><text  class="poloto_tick_labels poloto_text" dominant-baseline="middle" text-anchor="end" x="135" y="164.38915707389526" >5.625</text><line  class="poloto_axis_lines" stroke="black" x1="150" x2="144" y1="150.46416635722244" y2="150.46416635722244" /><line  class="poloto_tick_line" stroke="black" x1="150" x2="650" y1="150.46416635722244" y2="150.46416635722244" /><text  class="poloto_tick_labels poloto_text" dominant-baseline="middle" text-anchor="end" x="135" y="150.46416635722244" >5.75</text><line  class="poloto_axis_lines" stroke="black" x1="150" x2="144" y1="136.53917564054962" y2="136.53917564054962" /><line  class="poloto_tick_line" stroke="black" x1="150" x2="650" y1="136.53917564054962" y2="136.53917564054962" /><text  class="poloto_tick_labels poloto_text" dominant-baseline="middle" text-anchor="end" x="135" y="136.53917564054962" >5.875</text><line  class="poloto_axis_lines" stroke="black" x1="150" x2="144" y1="122.61418492387668" y2="122.61418492387668" /><line  class="poloto_tick_line" stroke="black" x1="150" x2="650" y1="122.61418492387668" y2="122.61418492387668" /><text  class="poloto_tick_labels poloto_text" dominant-baseline="middle" text-anchor="end" x="135" y="122.61418492387668" >6</text><line  class="poloto_axis_lines" stroke="black" x1="150" x2="144" y1="108.68919420720385" y2="108.68919420720385" /><line  class="poloto_tick_line" stroke="black" x1="150" x2="650" y1="108.68919420720385" y2="108.68919420720385" /><text  class="poloto_tick_labels poloto_text" dominant-baseline="middle" text-anchor="end" x="135" y="108.68919420720385" >6.125</text><text  class="poloto_tick_labels poloto_text" dominant-baseline="middle" text-anchor="start" x="440.00000000000006" y="70" >¹2022-04-01 00:00:00 UTC in Months</text><line  class="poloto_axis_lines" stroke="black" x1="187.313432835821" x2="187.313432835821" y1="400" y2="405" /><line  class="poloto_tick_line" stroke="black" x1="187.313432835821" x2="187.313432835821" y1="400" y2="100" /><text  class="poloto_tick_labels poloto_text" dominant-baseline="start" text-anchor="middle" x="187.313432835821" y="430" >2022 Apr¹</text><line  class="poloto_axis_lines" stroke="black" x1="261.940298507463" x2="261.940298507463" y1="400" y2="405" /><line  class="poloto_tick_line" stroke="black" x1="261.940298507463" x2="261.940298507463" y1="400" y2="100" /><text  class="poloto_tick_labels poloto_text" dominant-baseline="start" text-anchor="middle" x="261.940298507463" y="430" >2022 May</text><line  class="poloto_axis_lines" stroke="black" x1="339.0547263681583" x2="339.0547263681583" y1="400" y2="405" /><line  class="poloto_tick_line" stroke="black" x1="339.0547263681583" x2="339.0547263681583" y1="400" y2="100" /><text  class="poloto_tick_labels poloto_text" dominant-baseline="start" text-anchor="middle" x="339.0547263681583" y="430" >2022 Jun</text><line  class="poloto_axis_lines" stroke="black" x1="413.6815920398003" x2="413.6815920398003" y1="400" y2="405" /><line  class="poloto_tick_line" stroke="black" x1="413.6815920398003" x2="413.6815920398003" y1="400" y2="100" /><text  class="poloto_tick_labels poloto_text" dominant-baseline="start" text-anchor="middle" x="413.6815920398003" y="430" >2022 Jul</text><line  class="poloto_axis_lines" stroke="black" x1="490.7960199004956" x2="490.7960199004956" y1="400" y2="405" /><line  class="poloto_tick_line" stroke="black" x1="490.7960199004956" x2="490.7960199004956" y1="400" y2="100" /><text  class="poloto_tick_labels poloto_text" dominant-baseline="start" text-anchor="middle" x="490.7960199004956" y="430" >2022 Aug</text><line  class="poloto_axis_lines" stroke="black" x1="567.9104477611909" x2="567.9104477611909" y1="400" y2="405" /><line  class="poloto_tick_line" stroke="black" x1="567.9104477611909" x2="567.9104477611909" y1="400" y2="100" /><text  class="poloto_tick_labels poloto_text" dominant-baseline="start" text-anchor="middle" x="567.9104477611909" y="430" >2022 Sep</text><line  class="poloto_axis_lines" stroke="black" x1="642.5373134328329" x2="642.5373134328329" y1="400" y2="405" /><line  class="poloto_tick_line" stroke="black" x1="642.5373134328329" x2="642.5373134328329" y1="400" y2="100" /><text  class="poloto_tick_labels poloto_text" dominant-baseline="start" text-anchor="middle" x="642.5373134328329" y="430" >2022 Oct</text><path  stroke="black" fill="none" class="poloto_axis_lines" d=" M 150 400 L 650 400" /><path  stroke="black" fill="none" class="poloto_axis_lines" d=" M 150 400 L 150 100" /></svg>