<svg class="poloto" width="800" height="500" viewBox="0 0 800 500" xmlns="http://www.w3.org/2000/svg"><style>.poloto{stroke-linecap:round;stroke-linejoin:round;font-family:Roboto,sans-serif;font-size:16px;}.poloto_background{fill:#262626;}.poloto_scatter{stroke-width:7}.poloto_tick_line{stroke:dimgray;stroke-width:0.5}.poloto_line{stroke-width:2}.poloto_text{fill: white;}.poloto_axis_lines{stroke: white;stroke-width:3;fill:none;stroke-dasharray:none}.poloto_title{font-size:24px;dominant-baseline:start;text-anchor:middle;}.poloto_xname{font-size:24px;dominant-baseline:start;text-anchor:middle;}.poloto_yname{font-size:24px;dominant-baseline:start;text-anchor:middle;}.poloto0stroke{stroke:blue;}.poloto1stroke{stroke:red;}.poloto2stroke{stroke:green;}.poloto3stroke{stroke:gold;}.poloto4stroke{stroke:aqua;}.poloto5stroke{stroke:lime;}.poloto6stroke{stroke:orange;}.poloto7stroke{stroke:chocolate;}.poloto0fill{fill:blue;}.poloto1fill{fill:red;}.poloto2fill{fill:green;}.poloto3fill{fill:gold;}.poloto4fill{fill:aqua;}.poloto5fill{fill:lime;}.poloto6fill{fill:orange;}.poloto7fill{fill:chocolate;}</style><circle  r="1e5" class="poloto_background" /><text  class="poloto_text poloto_legend_text" x="675" y="100" >Refinance 15</text><line  class="poloto_line poloto_legend_icon poloto0stroke poloto0legend" stroke="black" x1="680" x2="730" y1="81.25" y2="81.25" /><path  class="poloto_line poloto0stroke" fill="none" stroke="black" d=" M 150.00 392.46 L 151.66 400.00 L 156.64 389.32 L 158.31 380.17 L 159.97 389.32 L 159.97 389.32 L 163.29 358.81 L 168.27 357.20 L 169.93 367.88 L 171.59 344.83 L 173.26 346.44 L 174.92 341.61 L 179.90 343.22 L 181.56 336.78 L 181.56 336.78 L 184.88 337.37 L 186.54 314.32 L 191.53 324.32 L 193.19 327.54 L 194.85 327.54 L 196.51 326.69 L 198.17 321.78 L 204.82 278.73 L 206.48 297.88 L 208.14 283.05 L 209.80 277.29 L 209.80 277.29 L 216.45 299.58 L 219.77 303.64 L 221.43 294.58 L 226.41 283.81 L 228.07 305.25 L 229.73 294.58 L 229.73 294.58 L 233.06 292.88 L 238.04 296.19 L 239.70 306.86 L 239.70 306.86 L 241.36 297.80 L 243.02 308.56 L 244.68 292.88 L 249.67 325.08 L 251.33 324.32 L 252.99 306.86 L 252.99 306.86 L 254.65 314.32 L 256.31 317.63 L 261.30 317.63 L 262.96 329.15 L 264.62 329.15 L 266.28 329.15 L 267.94 329.15 L 274.58 317.63 L 276.25 314.32 L 277.91 315.93 L 279.57 315.93 L 279.57 315.93 L 286.21 305.25 L 287.87 305.25 L 289.53 296.19 L 296.18 281.36 L 297.84 250.76 L 299.50 254.15 L 301.16 254.15 L 302.82 275.59 L 307.81 254.15 L 309.47 254.15 L 311.13 273.90 L 312.79 277.29 L 319.44 277.29 L 321.10 275.59 L 322.76 280.59 L 324.42 285.51 L 326.08 296.19 L 332.72 303.64 L 334.39 294.58 L 336.05 287.12 L 337.71 283.81 L 342.69 285.51 L 346.01 285.51 L 347.67 283.81 L 354.32 282.20 L 354.32 282.20 L 354.32 282.20 L 354.32 282.20 L 354.32 282.20 L 354.32 282.20 L 357.64 282.20 L 357.64 282.20 L 357.64 282.20 L 357.64 282.20 L 357.64 282.20 L 357.64 282.20 L 365.95 294.58 L 369.27 297.80 L 370.93 325.93 L 372.59 329.15 L 377.57 329.15 L 379.24 327.54 L 380.90 305.25 L 382.56 299.49 L 384.22 285.51 L 389.20 296.19 L 389.20 296.19 L 390.86 287.12 L 394.19 296.19 L 394.19 296.19 L 402.49 296.19 L 404.15 262.46 L 405.81 282.20 L 412.46 248.39 L 415.78 248.39 L 415.78 248.39 L 419.10 260.76 L 425.75 254.15 L 425.75 254.15 L 425.75 254.15 L 425.75 254.15 L 425.75 254.15 L 425.75 254.15 L 425.75 254.15 L 425.75 254.15 L 425.75 254.15 L 430.73 254.15 L 440.70 232.63 L 447.34 235.17 L 447.34 235.17 L 452.33 235.17 L 458.97 235.17 L 460.63 235.17 L 460.63 235.17 L 460.63 235.17 L 460.63 235.17 L 460.63 235.17 L 482.23 235.17 L 483.89 235.17 L 493.85 139.75 L 495.51 130.68 L 497.18 130.68 L 556.98 159.15 L 563.62 159.15 L 565.28 159.15 L 566.94 175.51 L 570.27 184.49 L 570.27 184.49 L 576.91 184.49 L 578.57 184.49 L 580.23 184.49 L 581.89 184.49 L 586.88 184.49 L 588.54 184.49 L 591.86 184.49 L 593.52 184.49 L 598.50 184.49 L 600.17 184.49 L 600.17 184.49 L 605.15 184.49 L 610.13 184.49 L 611.79 184.49 L 613.46 184.49 L 615.12 184.49 L 616.78 184.49 L 623.42 209.15 L 625.08 180.68 L 626.74 159.15 L 628.41 169.92 L 633.39 169.92 L 635.05 169.92 L 635.05 169.92 L 638.37 193.05 L 640.03 193.05 L 645.02 193.05 L 646.68 193.05 L 648.34 193.05 L 650.00 193.05" /><text  class="poloto_text poloto_legend_text" x="675" y="150" >Refinance 20</text><line  class="poloto_line poloto_legend_icon poloto1stroke poloto1legend" stroke="black" x1="680" x2="730" y1="131.25" y2="131.25" /><path  class="poloto_line poloto1stroke" fill="none" stroke="black" d=" M 150.00 345.68 L 151.66 368.31 L 156.64 334.58 L 158.31 324.24 L 159.97 333.73 L 159.97 333.73 L 163.29 304.07 L 168.27 301.53 L 169.93 312.29 L 171.59 300.25 L 173.26 311.02 L 174.92 290.85 L 179.90 321.69 L 181.56 290.85 L 181.56 290.85 L 184.88 290.85 L 184.88 290.85 L 191.53 250.17 L 193.19 282.71 L 194.85 290.85 L 196.51 301.53 L 198.17 280.59 L 204.82 260.00 L 206.48 257.37 L 208.14 252.12 L 209.80 240.08 L 214.78 245.34 L 216.45 268.14 L 219.77 260.00 L 221.43 257.37 L 226.41 248.81 L 228.07 258.73 L 229.73 258.73 L 229.73 258.73 L 233.06 258.73 L 238.04 260.00 L 239.70 281.44 L 239.70 281.44 L 241.36 269.41 L 243.02 289.58 L 244.68 281.44 L 249.67 282.71 L 251.33 281.44 L 252.99 281.44 L 252.99 281.44 L 254.65 282.71 L 256.31 289.58 L 261.30 290.85 L 262.96 294.66 L 264.62 294.66 L 266.28 294.66 L 267.94 294.66 L 274.58 289.58 L 276.25 278.81 L 277.91 281.44 L 279.57 281.44 L 279.57 281.44 L 286.21 268.14 L 287.87 270.68 L 289.53 261.27 L 296.18 215.85 L 297.84 197.03 L 299.50 207.80 L 301.16 215.85 L 302.82 238.56 L 307.81 225.17 L 309.47 218.47 L 311.13 239.92 L 312.79 250.17 L 319.44 250.17 L 321.10 238.56 L 322.76 249.32 L 324.42 260.00 L 326.08 272.03 L 332.72 280.08 L 334.39 269.41 L 336.05 258.73 L 337.71 251.44 L 342.69 257.37 L 346.01 260.00 L 347.67 258.73 L 354.32 260.00 L 354.32 260.00 L 354.32 260.00 L 354.32 260.00 L 354.32 260.00 L 354.32 260.00 L 354.32 260.00 L 354.32 260.00 L 354.32 260.00 L 354.32 260.00 L 354.32 260.00 L 354.32 260.00 L 365.95 280.08 L 369.27 282.71 L 370.93 301.53 L 372.59 304.07 L 377.57 301.27 L 379.24 301.27 L 380.90 290.85 L 382.56 294.66 L 384.22 278.81 L 389.20 270.68 L 389.20 270.68 L 390.86 270.68 L 394.19 281.44 L 394.19 281.44 L 402.49 278.81 L 404.15 260.00 L 405.81 260.00 L 412.46 246.19 L 415.78 234.58 L 415.78 234.58 L 419.10 247.54 L 425.75 215.85 L 425.75 215.85 L 425.75 215.85 L 425.75 215.85 L 425.75 215.85 L 425.75 215.85 L 425.75 215.85 L 425.75 215.85 L 425.75 215.85 L 430.73 215.85 L 440.70 202.37 L 447.34 203.73 L 450.66 203.73 L 452.33 203.73 L 452.33 203.73 L 460.63 203.73 L 462.29 203.73 L 462.29 203.73 L 462.29 203.73 L 462.29 203.73 L 482.23 203.73 L 483.89 203.73 L 493.85 118.81 L 495.51 102.97 L 495.51 102.97 L 560.30 155.34 L 563.62 155.34 L 565.28 155.34 L 568.60 174.15 L 570.27 175.51 L 570.27 175.51 L 576.91 175.51 L 578.57 175.51 L 580.23 175.51 L 581.89 175.51 L 586.88 175.51 L 588.54 175.51 L 591.86 175.51 L 593.52 175.51 L 598.50 175.51 L 600.17 175.51 L 600.17 175.51 L 605.15 175.51 L 610.13 175.51 L 611.79 175.51 L 613.46 175.51 L 615.12 175.51 L 616.78 175.51 L 623.42 156.36 L 625.08 145.93 L 626.74 144.58 L 628.41 147.37 L 633.39 147.37 L 635.05 147.37 L 635.05 147.37 L 638.37 167.46 L 640.03 167.46 L 645.02 167.46 L 646.68 167.46 L 648.34 167.46 L 650.00 167.46" /><text  class="poloto_text poloto_legend_text" x="675" y="200" >Refinance 30</text><line  class="poloto_line poloto_legend_icon poloto2stroke poloto2legend" stroke="black" x1="680" x2="730" y1="181.25" y2="181.25" /><path  class="poloto_line poloto2stroke" fill="none" stroke="black" d=" M 150.00 343.31 L 151.66 351.36 L 156.64 338.81 L 158.31 328.98 L 159.97 330.85 L 159.97 330.85 L 163.29 310.25 L 168.27 308.47 L 169.93 319.15 L 171.59 307.54 L 173.26 318.22 L 174.92 297.71 L 179.90 307.54 L 181.56 286.95 L 183.22 286.95 L 184.88 286.02 L 186.54 260.00 L 191.53 264.58 L 193.19 276.27 L 194.85 286.95 L 196.51 277.20 L 198.17 265.51 L 204.82 256.61 L 206.48 242.12 L 208.14 240.17 L 209.80 238.14 L 214.78 242.12 L 216.45 258.73 L 219.77 256.61 L 221.43 254.66 L 226.41 244.07 L 228.07 255.59 L 229.73 244.07 L 229.73 244.07 L 233.06 244.07 L 238.04 246.02 L 239.70 264.58 L 239.70 264.58 L 241.36 255.59 L 243.02 256.61 L 244.68 257.54 L 249.67 265.51 L 251.33 256.61 L 252.99 256.61 L 252.99 256.61 L 254.65 266.44 L 256.31 267.46 L 261.30 268.39 L 262.96 277.20 L 264.62 277.20 L 266.28 279.07 L 267.94 279.07 L 274.58 275.25 L 276.25 264.58 L 277.91 266.44 L 279.57 265.51 L 279.57 265.51 L 286.21 255.59 L 287.87 255.59 L 289.53 245.00 L 296.18 202.12 L 297.84 171.78 L 299.50 190.34 L 301.16 202.12 L 302.82 212.80 L 307.81 203.05 L 309.47 202.12 L 311.13 221.61 L 312.79 223.56 L 319.44 223.56 L 321.10 211.86 L 322.76 221.61 L 324.42 232.29 L 326.08 255.59 L 332.72 256.61 L 334.39 245.00 L 336.05 224.58 L 337.71 221.61 L 342.69 241.10 L 346.01 223.56 L 347.67 222.54 L 354.32 242.12 L 354.32 242.12 L 354.32 242.12 L 354.32 242.12 L 354.32 242.12 L 354.32 242.12 L 357.64 242.12 L 357.64 242.12 L 357.64 242.12 L 357.64 242.12 L 357.64 242.12 L 357.64 242.12 L 365.95 254.66 L 369.27 256.61 L 370.93 275.25 L 372.59 287.88 L 377.57 286.95 L 379.24 286.95 L 380.90 265.51 L 382.56 268.39 L 384.22 254.66 L 389.20 265.51 L 389.20 265.51 L 390.86 257.54 L 394.19 266.44 L 394.19 266.44 L 402.49 264.58 L 404.15 246.02 L 405.81 245.00 L 412.46 220.59 L 415.78 211.86 L 415.78 211.86 L 419.10 222.54 L 425.75 210.85 L 425.75 210.85 L 425.75 210.85 L 425.75 210.85 L 425.75 210.85 L 425.75 210.85 L 425.75 210.85 L 425.75 210.85 L 430.73 210.85 L 430.73 209.83 L 440.70 197.03 L 447.34 175.51 L 447.34 175.51 L 452.33 175.51 L 452.33 175.51 L 460.63 175.51 L 462.29 175.51 L 462.29 175.51 L 462.29 175.51 L 462.29 175.51 L 482.23 175.51 L 483.89 175.51 L 493.85 127.03 L 495.51 100.00 L 495.51 100.00 L 560.30 146.44 L 563.62 146.44 L 565.28 146.44 L 566.94 150.76 L 570.27 160.59 L 570.27 160.59 L 576.91 160.59 L 578.57 160.59 L 580.23 160.59 L 581.89 160.59 L 586.88 160.59 L 588.54 160.59 L 591.86 160.59 L 593.52 160.59 L 598.50 160.59 L 600.17 160.59 L 600.17 160.59 L 605.15 160.59 L 610.13 160.59 L 611.79 160.59 L 613.46 160.59 L 615.12 160.59 L 616.78 160.59 L 623.42 144.24 L 625.08 152.88 L 626.74 132.37 L 628.41 152.88 L 633.39 152.88 L 635.05 152.88 L 635.05 152.88 L 638.37 152.88 L 640.03 152.88 L 645.02 152.88 L 646.68 152.88 L 648.34 152.88 L 650.00 152.88" /><text  class="poloto_labels poloto_text poloto_title" x="400" y="37.5" >lower.com purchase rates</text><text  class="poloto_labels poloto_text poloto_xname" x="400" y="481.25" >Date</text><text  class="poloto_labels poloto_text poloto_yname" transform="rotate(-90,37.5,250)" x="37.5" y="250" >Rate (%)</text><text  class="poloto_tick_labels poloto_text" dominant-baseline="middle" text-anchor="start" x="150" y="70" ></text><line  class="poloto_axis_lines" stroke="black" x1="150" x2="144" y1="390.2542372881356" y2="390.2542372881356" /><line  class="poloto_tick_line" stroke="black" x1="150" x2="650" y1="390.2542372881356" y2="390.2542372881356" /><text  class="poloto_tick_labels poloto_text" dominant-baseline="middle" text-anchor="end" x="135" y="390.2542372881356" >3.625</text><line  class="poloto_axis_lines" stroke="black" x1="150" x2="144" y1="379.66101694915255" y2="379.66101694915255" /><line  class="poloto_tick_line" stroke="black" x1="150" x2="650" y1="379.66101694915255" y2="379.66101694915255" /><text  class="poloto_tick_labels poloto_text" dominant-baseline="middle" text-anchor="end" x="135" y="379.66101694915255" >3.75</text><line  class="poloto_axis_lines" stroke="black" x1="150" x2="144" y1="369.06779661016947" y2="369.06779661016947" /><line  class="poloto_tick_line" stroke="black" x1="150" x2="650" y1="369.06779661016947" y2="369.06779661016947" /><text  class="poloto_tick_labels poloto_text" dominant-baseline="middle" text-anchor="end" x="135" y="369.06779661016947" >3.875</text><line  class="poloto_axis_lines" stroke="black" x1="150" x2="144" y1="358.47457627118644" y2="358.47457627118644" /><line  class="poloto_tick_line" stroke="black" x1="150" x2="650" y1="358.47457627118644" y2="358.47457627118644" /><text  class="poloto_tick_labels poloto_text" dominant-baseline="middle" text-anchor="end" x="135" y="358.47457627118644" >4</text><line  class="poloto_axis_lines" stroke="black" x1="150" x2="144" y1="347.8813559322034" y2="347.8813559322034" /><line  class="poloto_tick_line" stroke="black" x1="150" x2="650" y1="347.8813559322034" y2="347.8813559322034" /><text  class="poloto_tick_labels poloto_text" dominant-baseline="middle" text-anchor="end" x="135" y="347.8813559322034" >4.125</text><line  class="poloto_axis_lines" stroke="black" x1="150" x2="144" y1="337.2881355932203" y2="337.2881355932203" /><line  class="poloto_tick_line" stroke="black" x1="150" x2="650" y1="337.2881355932203" y2="337.2881355932203" /><text  class="poloto_tick_labels poloto_text" dominant-baseline="middle" text-anchor="end" x="135" y="337.2881355932203" >4.25</text><line  class="poloto_axis_lines" stroke="black" x1="150" x2="144" y1="326.6949152542373" y2="326.6949152542373" /><line  class="poloto_tick_line" stroke="black" x1="150" x2="650" y1="326.6949152542373" y2="326.6949152542373" /><text  class="poloto_tick_labels poloto_text" dominant-baseline="middle" text-anchor="end" x="135" y="326.6949152542373" >4.375</text><line  class="poloto_axis_lines" stroke="black" x1="150" x2="144" y1="316.10169491525426" y2="316.10169491525426" /><line  class="poloto_tick_line" stroke="black" x1="150" x2="650" y1="316.10169491525426" y2="316.10169491525426" /><text  class="poloto_tick_labels poloto_text" dominant-baseline="middle" text-anchor="end" x="135" y="316.10169491525426" >4.5</text><line  class="poloto_axis_lines" stroke="black" x1="150" x2="144" y1="305.50847457627117" y2="305.50847457627117" /><line  class="poloto_tick_line" stroke="black" x1="150" x2="650" y1="305.50847457627117" y2="305.50847457627117" /><text  class="poloto_tick_labels poloto_text" dominant-baseline="middle" text-anchor="end" x="135" y="305.50847457627117" >4.625</text><line  class="poloto_axis_lines" stroke="black" x1="150" x2="144" y1="294.91525423728814" y2="294.91525423728814" /><line  class="poloto_tick_line" stroke="black" x1="150" x2="650" y1="294.91525423728814" y2="294.91525423728814" /><text  class="poloto_tick_labels poloto_text" dominant-baseline="middle" text-anchor="end" x="135" y="294.91525423728814" >4.75</text><line  class="poloto_axis_lines" stroke="black" x1="150" x2="144" y1="284.3220338983051" y2="284.3220338983051" /><line  class="poloto_tick_line" stroke="black" x1="150" x2="650" y1="284.3220338983051" y2="284.3220338983051" /><text  class="poloto_tick_labels poloto_text" dominant-baseline="middle" text-anchor="end" x="135" y="284.3220338983051" >4.875</text><line  class="poloto_axis_lines" stroke="black" x1="150" x2="144" y1="273.728813559322" y2="273.728813559322" /><line  class="poloto_tick_line" stroke="black" x1="150" x2="650" y1="273.728813559322" y2="273.728813559322" /><text  class="poloto_tick_labels poloto_text" dominant-baseline="middle" text-anchor="end" x="135" y="273.728813559322" >5</text><line  class="poloto_axis_lines" stroke="black" x1="150" x2="144" y1="263.135593220339" y2="263.135593220339" /><line  class="poloto_tick_line" stroke="black" x1="150" x2="650" y1="263.135593220339" y2="263.135593220339" /><text  class="poloto_tick_labels poloto_text" dominant-baseline="middle" text-anchor="end" x="135" y="263.135593220339" >5.125</text><line  class="poloto_axis_lines" stroke="black" x1="150" x2="144" y1="252.54237288135596" y2="252.54237288135596" /><line  class="poloto_tick_line" stroke="black" x1="150" x2="650" y1="252.54237288135596" y2="252.54237288135596" /><text  class="poloto_tick_labels poloto_text" dominant-baseline="middle" text-anchor="end" x="135" y="252.54237288135596" >5.25</text><line  class="poloto_axis_lines" stroke="black" x1="150" x2="144" y1="241.94915254237287" y2="241.94915254237287" /><line  class="poloto_tick_line" stroke="black" x1="150" x2="650" y1="241.94915254237287" y2="241.94915254237287" /><text  class="poloto_tick_labels poloto_text" dominant-baseline="middle" text-anchor="end" x="135" y="241.94915254237287" >5.375</text><line  class="poloto_axis_lines" stroke="black" x1="150" x2="144" y1="231.35593220338984" y2="231.35593220338984" /><line  class="poloto_tick_line" stroke="black" x1="150" x2="650" y1="231.35593220338984" y2="231.35593220338984" /><text  class="poloto_tick_labels poloto_text" dominant-baseline="middle" text-anchor="end" x="135" y="231.35593220338984" >5.5</text><line  class="poloto_axis_lines" stroke="black" x1="150" x2="144" y1="220.7627118644068" y2="220.7627118644068" /><line  class="poloto_tick_line" stroke="black" x1="150" x2="650" y1="220.7627118644068" y2="220.7627118644068" /><text  class="poloto_tick_labels poloto_text" dominant-baseline="middle" text-anchor="end" x="135" y="220.7627118644068" >5.625</text><line  class="poloto_axis_lines" stroke="black" x1="150" x2="144" y1="210.16949152542372" y2="210.16949152542372" /><line  class="poloto_tick_line" stroke="black" x1="150" x2="650" y1="210.16949152542372" y2="210.16949152542372" /><text  class="poloto_tick_labels poloto_text" dominant-baseline="middle" text-anchor="end" x="135" y="210.16949152542372" >5.75</text><line  class="poloto_axis_lines" stroke="black" x1="150" x2="144" y1="199.5762711864407" y2="199.5762711864407" /><line  class="poloto_tick_line" stroke="black" x1="150" x2="650" y1="199.5762711864407" y2="199.5762711864407" /><text  class="poloto_tick_labels poloto_text" dominant-baseline="middle" text-anchor="end" x="135" y="199.5762711864407" >5.875</text><line  class="poloto_axis_lines" stroke="black" x1="150" x2="144" y1="188.98305084745766" y2="188.98305084745766" /><line  class="poloto_tick_line" stroke="black" x1="150" x2="650" y1="188.98305084745766" y2="188.98305084745766" /><text  class="poloto_tick_labels poloto_text" dominant-baseline="middle" text-anchor="end" x="135" y="188.98305084745766" >6</text><line  class="poloto_axis_lines" stroke="black" x1="150" x2="144" y1="178.38983050847457" y2="178.38983050847457" /><line  class="poloto_tick_line" stroke="black" x1="150" x2="650" y1="178.38983050847457" y2="178.38983050847457" /><text  class="poloto_tick_labels poloto_text" dominant-baseline="middle" text-anchor="end" x="135" y="178.38983050847457" >6.125</text><line  class="poloto_axis_lines" stroke="black" x1="150" x2="144" y1="167.7966101694915" y2="167.7966101694915" /><line  class="poloto_tick_line" stroke="black" x1="150" x2="650" y1="167.7966101694915" y2="167.7966101694915" /><text  class="poloto_tick_labels poloto_text" dominant-baseline="middle" text-anchor="end" x="135" y="167.7966101694915" >6.25</text><line  class="poloto_axis_lines" stroke="black" x1="150" x2="144" y1="157.2033898305085" y2="157.2033898305085" /><line  class="poloto_tick_line" stroke="black" x1="150" x2="650" y1="157.2033898305085" y2="157.2033898305085" /><text  class="poloto_tick_labels poloto_text" dominant-baseline="middle" text-anchor="end" x="135" y="157.2033898305085" >6.375</text><line  class="poloto_axis_lines" stroke="black" x1="150" x2="144" y1="146.61016949152543" y2="146.61016949152543" /><line  class="poloto_tick_line" stroke="black" x1="150" x2="650" y1="146.61016949152543" y2="146.61016949152543" /><text  class="poloto_tick_labels poloto_text" dominant-baseline="middle" text-anchor="end" x="135" y="146.61016949152543" >6.5</text><line  class="poloto_axis_lines" stroke="black" x1="150" x2="144" y1="136.01694915254234" y2="136.01694915254234" /><line  class="poloto_tick_line" stroke="black" x1="150" x2="650" y1="136.01694915254234" y2="136.01694915254234" /><text  class="poloto_tick_labels poloto_text" dominant-baseline="middle" text-anchor="end" x="135" y="136.01694915254234" >6.625</text><line  class="poloto_axis_lines" stroke="black" x1="150" x2="144" y1="125.42372881355936" y2="125.42372881355936" /><line  class="poloto_tick_line" stroke="black" x1="150" x2="650" y1="125.42372881355936" y2="125.42372881355936" /><text  class="poloto_tick_labels poloto_text" dominant-baseline="middle" text-anchor="end" x="135" y="125.42372881355936" >6.75</text><line  class="poloto_axis_lines" stroke="black" x1="150" x2="144" y1="114.83050847457628" y2="114.83050847457628" /><line  class="poloto_tick_line" stroke="black" x1="150" x2="650" y1="114.83050847457628" y2="114.83050847457628" /><text  class="poloto_tick_labels poloto_text" dominant-baseline="middle" text-anchor="end" x="135" y="114.83050847457628" >6.875</text><line  class="poloto_axis_lines" stroke="black" x1="150" x2="144" y1="104.23728813559319" y2="104.23728813559319" /><line  class="poloto_tick_line" stroke="black" x1="150" x2="650" y1="104.23728813559319" y2="104.23728813559319" /><text  class="poloto_tick_labels poloto_text" dominant-baseline="middle" text-anchor="end" x="135" y="104.23728813559319" >7</text><text  class="poloto_tick_labels poloto_text" dominant-baseline="middle" text-anchor="start" x="440.00000000000006" y="70" >¹2022-05-01 00:00:00 UTC in Months</text><line  class="poloto_axis_lines" stroke="black" x1="224.75083056478616" x2="224.75083056478616" y1="400" y2="405" /><line  class="poloto_tick_line" stroke="black" x1="224.75083056478616" x2="224.75083056478616" y1="400" y2="100" /><text  class="poloto_tick_labels poloto_text" dominant-baseline="start" text-anchor="middle" x="224.75083056478616" y="430" >2022 May¹</text><line  class="poloto_axis_lines" stroke="black" x1="326.0797342192709" x2="326.0797342192709" y1="400" y2="405" /><line  class="poloto_tick_line" stroke="black" x1="326.0797342192709" x2="326.0797342192709" y1="400" y2="100" /><text  class="poloto_tick_labels poloto_text" dominant-baseline="start" text-anchor="middle" x="326.0797342192709" y="430" >2022 Jul</text><line  class="poloto_axis_lines" stroke="black" x1="429.0697674418625" x2="429.0697674418625" y1="400" y2="405" /><line  class="poloto_tick_line" stroke="black" x1="429.0697674418625" x2="429.0697674418625" y1="400" y2="100" /><text  class="poloto_tick_labels poloto_text" dominant-baseline="start" text-anchor="middle" x="429.0697674418625" y="430" >2022 Sep</text><line  class="poloto_axis_lines" stroke="black" x1="530.3986710963472" x2="530.3986710963472" y1="400" y2="405" /><line  class="poloto_tick_line" stroke="black" x1="530.3986710963472" x2="530.3986710963472" y1="400" y2="100" /><text  class="poloto_tick_labels poloto_text" dominant-baseline="start" text-anchor="middle" x="530.3986710963472" y="430" >2022 Nov</text><line  class="poloto_axis_lines" stroke="black" x1="631.727574750832" x2="631.727574750832" y1="400" y2="405" /><line  class="poloto_tick_line" stroke="black" x1="631.727574750832" x2="631.727574750832" y1="400" y2="100" /><text  class="poloto_tick_labels poloto_text" dominant-baseline="start" text-anchor="middle" x="631.727574750832" y="430" >2023 Jan</text><path  stroke="black" fill="none" class="poloto_axis_lines" d=" M 150 400 L 650 400" /><path  stroke="black" fill="none" class="poloto_axis_lines" d=" M 150 400 L 150 100" /></svg>