<svg class="poloto" width="800" height="500" viewBox="0 0 800 500" xmlns="http://www.w3.org/2000/svg"><style>.poloto{stroke-linecap:round;stroke-linejoin:round;font-family:Roboto,sans-serif;font-size:16px;}.poloto_background{fill:#262626;}.poloto_scatter{stroke-width:7}.poloto_tick_line{stroke:dimgray;stroke-width:0.5}.poloto_line{stroke-width:2}.poloto_text{fill: white;}.poloto_axis_lines{stroke: white;stroke-width:3;fill:none;stroke-dasharray:none}.poloto_title{font-size:24px;dominant-baseline:start;text-anchor:middle;}.poloto_xname{font-size:24px;dominant-baseline:start;text-anchor:middle;}.poloto_yname{font-size:24px;dominant-baseline:start;text-anchor:middle;}.poloto0stroke{stroke:blue;}.poloto1stroke{stroke:red;}.poloto2stroke{stroke:green;}.poloto3stroke{stroke:gold;}.poloto4stroke{stroke:aqua;}.poloto5stroke{stroke:lime;}.poloto6stroke{stroke:orange;}.poloto7stroke{stroke:chocolate;}.poloto0fill{fill:blue;}.poloto1fill{fill:red;}.poloto2fill{fill:green;}.poloto3fill{fill:gold;}.poloto4fill{fill:aqua;}.poloto5fill{fill:lime;}.poloto6fill{fill:orange;}.poloto7fill{fill:chocolate;}</style><circle  r="1e5" class="poloto_background" /><text  class="poloto_text poloto_legend_text" x="675" y="100" >Refinance 15</text><line  class="poloto_line poloto_legend_icon poloto0stroke poloto0legend" stroke="black" x1="680" x2="730" y1="81.25" y2="81.25" /><path  class="poloto_line poloto0stroke" fill="none" stroke="black" d=" M 150.00 393.13 L 151.42 400.00 L 155.70 390.27 L 157.12 381.94 L 158.55 390.27 L 158.55 390.27 L 161.40 362.48 L 165.67 361.01 L 167.09 370.74 L 168.52 349.74 L 169.94 351.21 L 171.37 346.81 L 175.64 348.28 L 177.07 342.41 L 177.07 342.41 L 179.91 342.95 L 181.34 321.95 L 185.61 331.06 L 187.04 333.99 L 188.46 333.99 L 189.89 333.22 L 191.31 328.74 L 197.01 289.53 L 198.43 306.97 L 199.86 293.46 L 201.28 288.21 L 201.28 288.21 L 206.98 308.52 L 209.83 312.22 L 211.25 303.96 L 215.53 294.16 L 216.95 313.69 L 218.38 303.96 L 218.38 303.96 L 221.23 302.42 L 225.50 305.43 L 226.92 315.16 L 226.92 315.16 L 228.35 306.90 L 229.77 316.70 L 231.20 302.42 L 235.47 331.76 L 236.89 331.06 L 238.32 315.16 L 238.32 315.16 L 239.74 321.95 L 241.17 324.96 L 245.44 324.96 L 246.87 335.46 L 248.29 335.46 L 249.72 335.46 L 251.14 335.46 L 256.84 324.96 L 258.26 321.95 L 259.69 323.42 L 261.11 323.42 L 261.11 323.42 L 266.81 313.69 L 268.23 313.69 L 269.66 305.43 L 275.36 291.92 L 276.78 264.05 L 278.21 267.14 L 279.63 267.14 L 281.05 286.67 L 285.33 267.14 L 286.75 267.14 L 288.18 285.13 L 289.60 288.21 L 295.30 288.21 L 296.72 286.67 L 298.15 291.22 L 299.57 295.70 L 301.00 305.43 L 306.70 312.22 L 308.12 303.96 L 309.54 297.17 L 310.97 294.16 L 315.24 295.70 L 318.09 295.70 L 319.52 294.16 L 325.21 292.69 L 325.21 292.69 L 325.21 292.69 L 325.21 292.69 L 325.21 292.69 L 325.21 292.69 L 328.06 292.69 L 328.06 292.69 L 328.06 292.69 L 328.06 292.69 L 328.06 292.69 L 328.06 292.69 L 335.19 303.96 L 338.03 306.90 L 339.46 332.53 L 340.88 335.46 L 345.16 335.46 L 346.58 333.99 L 348.01 313.69 L 349.43 308.44 L 350.85 295.70 L 355.13 305.43 L 355.13 305.43 L 356.55 297.17 L 359.40 305.43 L 359.40 305.43 L 366.52 305.43 L 367.95 274.70 L 369.37 292.69 L 375.07 261.89 L 377.92 261.89 L 377.92 261.89 L 380.77 273.16 L 386.47 267.14 L 386.47 267.14 L 386.47 267.14 L 386.47 267.14 L 386.47 267.14 L 386.47 267.14 L 386.47 267.14 L 386.47 267.14 L 386.47 267.14 L 390.74 267.14 L 399.29 247.53 L 404.99 249.85 L 404.99 249.85 L 409.26 249.85 L 414.96 249.85 L 416.38 249.85 L 416.38 249.85 L 416.38 249.85 L 416.38 249.85 L 416.38 249.85 L 434.90 249.85 L 436.32 249.85 L 444.87 162.92 L 446.30 154.66 L 447.72 154.66 L 499.00 180.60 L 504.70 180.60 L 506.13 180.60 L 507.55 195.50 L 510.40 203.68 L 510.40 203.68 L 516.10 203.68 L 517.52 203.68 L 518.95 203.68 L 520.37 203.68 L 524.64 203.68 L 526.07 203.68 L 528.92 203.68 L 530.34 203.68 L 534.62 203.68 L 536.04 203.68 L 536.04 203.68 L 540.31 203.68 L 544.59 203.68 L 546.01 203.68 L 547.44 203.68 L 548.86 203.68 L 550.28 203.68 L 555.98 226.15 L 557.41 200.21 L 558.83 180.60 L 560.26 190.40 L 564.53 190.40 L 565.95 190.40 L 565.95 190.40 L 568.80 211.48 L 570.23 211.48 L 574.50 211.48 L 575.93 211.48 L 577.35 211.48 L 578.77 211.48 L 580.20 211.48 L 580.20 211.48 L 580.20 211.48 L 580.20 211.48 L 587.32 211.48 L 590.17 211.48 L 594.44 211.48 L 595.87 211.48 L 598.72 211.48 L 600.14 211.48 L 605.84 211.48 L 607.26 211.48 L 608.69 211.48 L 610.11 239.27 L 614.39 245.45 L 615.81 209.93 L 617.24 221.28 L 618.66 219.74 L 620.09 201.75 L 624.36 161.07 L 625.78 161.07 L 627.21 161.07 L 628.63 162.61 L 630.06 170.79 L 634.33 162.61 L 635.75 162.61 L 637.18 151.26 L 638.60 161.07 L 640.03 141.46 L 645.73 151.26 L 647.15 152.80 L 648.58 143.08 L 650.00 149.64" /><text  class="poloto_text poloto_legend_text" x="675" y="150" >Refinance 20</text><line  class="poloto_line poloto_legend_icon poloto1stroke poloto1legend" stroke="black" x1="680" x2="730" y1="131.25" y2="131.25" /><path  class="poloto_line poloto1stroke" fill="none" stroke="black" d=" M 150.00 350.51 L 151.42 371.13 L 155.70 340.40 L 157.12 330.98 L 158.55 339.63 L 158.55 339.63 L 161.40 312.61 L 165.67 310.29 L 167.09 320.10 L 168.52 309.14 L 169.94 318.94 L 171.37 300.57 L 175.64 328.67 L 177.07 300.57 L 177.07 300.57 L 179.91 300.57 L 179.91 300.57 L 185.61 263.51 L 187.04 293.15 L 188.46 300.57 L 189.89 310.29 L 191.31 291.22 L 197.01 272.47 L 198.43 270.07 L 199.86 265.29 L 201.28 254.32 L 205.56 259.11 L 206.98 279.88 L 209.83 272.47 L 211.25 270.07 L 215.53 262.27 L 216.95 271.31 L 218.38 271.31 L 218.38 271.31 L 221.23 271.31 L 225.50 272.47 L 226.92 292.00 L 226.92 292.00 L 228.35 281.03 L 229.77 299.41 L 231.20 292.00 L 235.47 293.15 L 236.89 292.00 L 238.32 292.00 L 238.32 292.00 L 239.74 293.15 L 241.17 299.41 L 245.44 300.57 L 246.87 304.04 L 248.29 304.04 L 249.72 304.04 L 251.14 304.04 L 256.84 299.41 L 258.26 289.60 L 259.69 292.00 L 261.11 292.00 L 261.11 292.00 L 266.81 279.88 L 268.23 282.19 L 269.66 273.62 L 275.36 232.24 L 276.78 215.11 L 278.21 224.91 L 279.63 232.24 L 281.05 252.93 L 285.33 240.74 L 286.75 234.64 L 288.18 254.17 L 289.60 263.51 L 295.30 263.51 L 296.72 252.93 L 298.15 262.74 L 299.57 272.47 L 301.00 283.43 L 306.70 290.76 L 308.12 281.03 L 309.54 271.31 L 310.97 264.67 L 315.24 270.07 L 318.09 272.47 L 319.52 271.31 L 325.21 272.47 L 325.21 272.47 L 325.21 272.47 L 325.21 272.47 L 325.21 272.47 L 325.21 272.47 L 325.21 272.47 L 325.21 272.47 L 325.21 272.47 L 325.21 272.47 L 325.21 272.47 L 325.21 272.47 L 335.19 290.76 L 338.03 293.15 L 339.46 310.29 L 340.88 312.61 L 345.16 310.06 L 346.58 310.06 L 348.01 300.57 L 349.43 304.04 L 350.85 289.60 L 355.13 282.19 L 355.13 282.19 L 356.55 282.19 L 359.40 292.00 L 359.40 292.00 L 366.52 289.60 L 367.95 272.47 L 369.37 272.47 L 375.07 259.88 L 377.92 249.31 L 377.92 249.31 L 380.77 261.12 L 386.47 232.24 L 386.47 232.24 L 386.47 232.24 L 386.47 232.24 L 386.47 232.24 L 386.47 232.24 L 386.47 232.24 L 386.47 232.24 L 386.47 232.24 L 390.74 232.24 L 399.29 219.97 L 404.99 221.20 L 407.83 221.20 L 409.26 221.20 L 409.26 221.20 L 416.38 221.20 L 417.81 221.20 L 417.81 221.20 L 417.81 221.20 L 417.81 221.20 L 434.90 221.20 L 436.32 221.20 L 444.87 143.85 L 446.30 129.41 L 446.30 129.41 L 501.85 177.12 L 504.70 177.12 L 506.13 177.12 L 508.97 194.26 L 510.40 195.50 L 510.40 195.50 L 516.10 195.50 L 517.52 195.50 L 518.95 195.50 L 520.37 195.50 L 524.64 195.50 L 526.07 195.50 L 528.92 195.50 L 530.34 195.50 L 534.62 195.50 L 536.04 195.50 L 536.04 195.50 L 540.31 195.50 L 544.59 195.50 L 546.01 195.50 L 547.44 195.50 L 548.86 195.50 L 550.28 195.50 L 555.98 178.05 L 557.41 168.55 L 558.83 167.32 L 560.26 169.87 L 564.53 169.87 L 565.95 169.87 L 565.95 169.87 L 568.80 188.16 L 570.23 188.16 L 574.50 188.16 L 575.93 188.16 L 577.35 188.16 L 578.77 188.16 L 580.20 188.16 L 580.20 188.16 L 585.90 188.16 L 585.90 188.16 L 587.32 188.16 L 590.17 188.16 L 594.44 188.16 L 595.87 188.16 L 598.72 188.16 L 600.14 188.16 L 605.84 188.16 L 607.26 188.16 L 608.69 188.16 L 610.11 209.01 L 614.39 207.77 L 615.81 178.36 L 617.24 179.59 L 617.24 179.59 L 620.09 178.36 L 624.36 158.75 L 625.78 158.75 L 627.21 150.26 L 628.63 140.45 L 630.06 149.02 L 634.33 140.45 L 635.75 130.65 L 637.18 140.45 L 638.60 150.26 L 640.03 139.22 L 645.73 140.45 L 647.15 129.41 L 648.58 100.00 L 650.00 129.41" /><text  class="poloto_text poloto_legend_text" x="675" y="200" >Refinance 30</text><line  class="poloto_line poloto_legend_icon poloto2stroke poloto2legend" stroke="black" x1="680" x2="730" y1="181.25" y2="181.25" /><path  class="poloto_line poloto2stroke" fill="none" stroke="black" d=" M 150.00 348.35 L 151.42 355.69 L 155.70 344.26 L 157.12 335.31 L 158.55 337.00 L 158.55 337.00 L 161.40 318.24 L 165.67 316.62 L 167.09 326.35 L 168.52 315.77 L 169.94 325.50 L 171.37 306.82 L 175.64 315.77 L 177.07 297.01 L 178.49 297.01 L 179.91 296.17 L 181.34 272.47 L 185.61 276.63 L 187.04 287.29 L 188.46 297.01 L 189.89 288.14 L 191.31 277.48 L 197.01 269.38 L 198.43 256.18 L 199.86 254.40 L 201.28 252.55 L 205.56 256.18 L 206.98 271.31 L 209.83 269.38 L 211.25 267.60 L 215.53 257.95 L 216.95 268.45 L 218.38 257.95 L 218.38 257.95 L 221.23 257.95 L 225.50 259.73 L 226.92 276.63 L 226.92 276.63 L 228.35 268.45 L 229.77 269.38 L 231.20 270.23 L 235.47 277.48 L 236.89 269.38 L 238.32 269.38 L 238.32 269.38 L 239.74 278.33 L 241.17 279.26 L 245.44 280.11 L 246.87 288.14 L 248.29 288.14 L 249.72 289.84 L 251.14 289.84 L 256.84 286.36 L 258.26 276.63 L 259.69 278.33 L 261.11 277.48 L 261.11 277.48 L 266.81 268.45 L 268.23 268.45 L 269.66 258.80 L 275.36 219.74 L 276.78 192.10 L 278.21 209.01 L 279.63 219.74 L 281.05 229.46 L 285.33 220.59 L 286.75 219.74 L 288.18 237.49 L 289.60 239.27 L 295.30 239.27 L 296.72 228.62 L 298.15 237.49 L 299.57 247.22 L 301.00 268.45 L 306.70 269.38 L 308.12 258.80 L 309.54 240.20 L 310.97 237.49 L 315.24 255.25 L 318.09 239.27 L 319.52 238.34 L 325.21 256.18 L 325.21 256.18 L 325.21 256.18 L 325.21 256.18 L 325.21 256.18 L 325.21 256.18 L 328.06 256.18 L 328.06 256.18 L 328.06 256.18 L 328.06 256.18 L 328.06 256.18 L 328.06 256.18 L 335.19 267.60 L 338.03 269.38 L 339.46 286.36 L 340.88 297.86 L 345.16 297.01 L 346.58 297.01 L 348.01 277.48 L 349.43 280.11 L 350.85 267.60 L 355.13 277.48 L 355.13 277.48 L 356.55 270.23 L 359.40 278.33 L 359.40 278.33 L 366.52 276.63 L 367.95 259.73 L 369.37 258.80 L 375.07 236.57 L 377.92 228.62 L 377.92 228.62 L 380.77 238.34 L 386.47 227.69 L 386.47 227.69 L 386.47 227.69 L 386.47 227.69 L 386.47 227.69 L 386.47 227.69 L 386.47 227.69 L 386.47 227.69 L 390.74 227.69 L 390.74 226.76 L 399.29 215.11 L 404.99 195.50 L 404.99 195.50 L 409.26 195.50 L 409.26 195.50 L 416.38 195.50 L 417.81 195.50 L 417.81 195.50 L 417.81 195.50 L 417.81 195.50 L 434.90 195.50 L 436.32 195.50 L 444.87 151.34 L 446.30 126.71 L 446.30 126.71 L 501.85 169.02 L 504.70 169.02 L 506.13 169.02 L 507.55 172.95 L 510.40 181.91 L 510.40 181.91 L 516.10 181.91 L 517.52 181.91 L 518.95 181.91 L 520.37 181.91 L 524.64 181.91 L 526.07 181.91 L 528.92 181.91 L 530.34 181.91 L 534.62 181.91 L 536.04 181.91 L 536.04 181.91 L 540.31 181.91 L 544.59 181.91 L 546.01 181.91 L 547.44 181.91 L 548.86 181.91 L 550.28 181.91 L 555.98 167.01 L 557.41 174.88 L 558.83 156.20 L 560.26 174.88 L 564.53 174.88 L 565.95 174.88 L 565.95 174.88 L 568.80 174.88 L 570.23 174.88 L 574.50 174.88 L 575.93 174.88 L 577.35 174.88 L 578.77 174.88 L 580.20 174.88 L 580.20 174.88 L 585.90 174.88 L 585.90 174.88 L 587.32 174.88 L 590.17 174.88 L 594.44 174.88 L 595.87 174.88 L 598.72 174.88 L 600.14 174.88 L 605.84 174.88 L 607.26 174.88 L 608.69 174.88 L 610.11 224.91 L 614.39 215.11 L 615.81 175.89 L 617.24 205.30 L 618.66 175.89 L 620.09 166.01 L 624.36 156.20 L 625.78 156.20 L 627.21 147.32 L 628.63 137.52 L 630.06 146.40 L 634.33 146.40 L 635.75 135.59 L 637.18 127.71 L 638.60 137.52 L 640.03 128.72 L 645.73 127.71 L 647.15 116.91 L 648.58 116.91 L 650.00 126.71" /><text  class="poloto_labels poloto_text poloto_title" x="400" y="37.5" >lower.com purchase rates</text><text  class="poloto_labels poloto_text poloto_xname" x="400" y="481.25" >Date</text><text  class="poloto_labels poloto_text poloto_yname" transform="rotate(-90,37.5,250)" x="37.5" y="250" >Rate (%)</text><text  class="poloto_tick_labels poloto_text" dominant-baseline="middle" text-anchor="start" x="150" y="70" ></text><line  class="poloto_axis_lines" stroke="black" x1="150" x2="144" y1="391.12197632527017" y2="391.12197632527017" /><line  class="poloto_tick_line" stroke="black" x1="150" x2="650" y1="391.12197632527017" y2="391.12197632527017" /><text  class="poloto_tick_labels poloto_text" dominant-baseline="middle" text-anchor="end" x="135" y="391.12197632527017" >3.625</text><line  class="poloto_axis_lines" stroke="black" x1="150" x2="144" y1="381.4719505918682" y2="381.4719505918682" /><line  class="poloto_tick_line" stroke="black" x1="150" x2="650" y1="381.4719505918682" y2="381.4719505918682" /><text  class="poloto_tick_labels poloto_text" dominant-baseline="middle" text-anchor="end" x="135" y="381.4719505918682" >3.75</text><line  class="poloto_axis_lines" stroke="black" x1="150" x2="144" y1="371.8219248584663" y2="371.8219248584663" /><line  class="poloto_tick_line" stroke="black" x1="150" x2="650" y1="371.8219248584663" y2="371.8219248584663" /><text  class="poloto_tick_labels poloto_text" dominant-baseline="middle" text-anchor="end" x="135" y="371.8219248584663" >3.875</text><line  class="poloto_axis_lines" stroke="black" x1="150" x2="144" y1="362.17189912506433" y2="362.17189912506433" /><line  class="poloto_tick_line" stroke="black" x1="150" x2="650" y1="362.17189912506433" y2="362.17189912506433" /><text  class="poloto_tick_labels poloto_text" dominant-baseline="middle" text-anchor="end" x="135" y="362.17189912506433" >4</text><line  class="poloto_axis_lines" stroke="black" x1="150" x2="144" y1="352.5218733916624" y2="352.5218733916624" /><line  class="poloto_tick_line" stroke="black" x1="150" x2="650" y1="352.5218733916624" y2="352.5218733916624" /><text  class="poloto_tick_labels poloto_text" dominant-baseline="middle" text-anchor="end" x="135" y="352.5218733916624" >4.125</text><line  class="poloto_axis_lines" stroke="black" x1="150" x2="144" y1="342.87184765826044" y2="342.87184765826044" /><line  class="poloto_tick_line" stroke="black" x1="150" x2="650" y1="342.87184765826044" y2="342.87184765826044" /><text  class="poloto_tick_labels poloto_text" dominant-baseline="middle" text-anchor="end" x="135" y="342.87184765826044" >4.25</text><line  class="poloto_axis_lines" stroke="black" x1="150" x2="144" y1="333.2218219248585" y2="333.2218219248585" /><line  class="poloto_tick_line" stroke="black" x1="150" x2="650" y1="333.2218219248585" y2="333.2218219248585" /><text  class="poloto_tick_labels poloto_text" dominant-baseline="middle" text-anchor="end" x="135" y="333.2218219248585" >4.375</text><line  class="poloto_axis_lines" stroke="black" x1="150" x2="144" y1="323.5717961914565" y2="323.5717961914565" /><line  class="poloto_tick_line" stroke="black" x1="150" x2="650" y1="323.5717961914565" y2="323.5717961914565" /><text  class="poloto_tick_labels poloto_text" dominant-baseline="middle" text-anchor="end" x="135" y="323.5717961914565" >4.5</text><line  class="poloto_axis_lines" stroke="black" x1="150" x2="144" y1="313.92177045805454" y2="313.92177045805454" /><line  class="poloto_tick_line" stroke="black" x1="150" x2="650" y1="313.92177045805454" y2="313.92177045805454" /><text  class="poloto_tick_labels poloto_text" dominant-baseline="middle" text-anchor="end" x="135" y="313.92177045805454" >4.625</text><line  class="poloto_axis_lines" stroke="black" x1="150" x2="144" y1="304.2717447246526" y2="304.2717447246526" /><line  class="poloto_tick_line" stroke="black" x1="150" x2="650" y1="304.2717447246526" y2="304.2717447246526" /><text  class="poloto_tick_labels poloto_text" dominant-baseline="middle" text-anchor="end" x="135" y="304.2717447246526" >4.75</text><line  class="poloto_axis_lines" stroke="black" x1="150" x2="144" y1="294.62171899125065" y2="294.62171899125065" /><line  class="poloto_tick_line" stroke="black" x1="150" x2="650" y1="294.62171899125065" y2="294.62171899125065" /><text  class="poloto_tick_labels poloto_text" dominant-baseline="middle" text-anchor="end" x="135" y="294.62171899125065" >4.875</text><line  class="poloto_axis_lines" stroke="black" x1="150" x2="144" y1="284.9716932578487" y2="284.9716932578487" /><line  class="poloto_tick_line" stroke="black" x1="150" x2="650" y1="284.9716932578487" y2="284.9716932578487" /><text  class="poloto_tick_labels poloto_text" dominant-baseline="middle" text-anchor="end" x="135" y="284.9716932578487" >5</text><line  class="poloto_axis_lines" stroke="black" x1="150" x2="144" y1="275.32166752444675" y2="275.32166752444675" /><line  class="poloto_tick_line" stroke="black" x1="150" x2="650" y1="275.32166752444675" y2="275.32166752444675" /><text  class="poloto_tick_labels poloto_text" dominant-baseline="middle" text-anchor="end" x="135" y="275.32166752444675" >5.125</text><line  class="poloto_axis_lines" stroke="black" x1="150" x2="144" y1="265.67164179104475" y2="265.67164179104475" /><line  class="poloto_tick_line" stroke="black" x1="150" x2="650" y1="265.67164179104475" y2="265.67164179104475" /><text  class="poloto_tick_labels poloto_text" dominant-baseline="middle" text-anchor="end" x="135" y="265.67164179104475" >5.25</text><line  class="poloto_axis_lines" stroke="black" x1="150" x2="144" y1="256.0216160576428" y2="256.0216160576428" /><line  class="poloto_tick_line" stroke="black" x1="150" x2="650" y1="256.0216160576428" y2="256.0216160576428" /><text  class="poloto_tick_labels poloto_text" dominant-baseline="middle" text-anchor="end" x="135" y="256.0216160576428" >5.375</text><line  class="poloto_axis_lines" stroke="black" x1="150" x2="144" y1="246.37159032424086" y2="246.37159032424086" /><line  class="poloto_tick_line" stroke="black" x1="150" x2="650" y1="246.37159032424086" y2="246.37159032424086" /><text  class="poloto_tick_labels poloto_text" dominant-baseline="middle" text-anchor="end" x="135" y="246.37159032424086" >5.5</text><line  class="poloto_axis_lines" stroke="black" x1="150" x2="144" y1="236.7215645908389" y2="236.7215645908389" /><line  class="poloto_tick_line" stroke="black" x1="150" x2="650" y1="236.7215645908389" y2="236.7215645908389" /><text  class="poloto_tick_labels poloto_text" dominant-baseline="middle" text-anchor="end" x="135" y="236.7215645908389" >5.625</text><line  class="poloto_axis_lines" stroke="black" x1="150" x2="144" y1="227.07153885743696" y2="227.07153885743696" /><line  class="poloto_tick_line" stroke="black" x1="150" x2="650" y1="227.07153885743696" y2="227.07153885743696" /><text  class="poloto_tick_labels poloto_text" dominant-baseline="middle" text-anchor="end" x="135" y="227.07153885743696" >5.75</text><line  class="poloto_axis_lines" stroke="black" x1="150" x2="144" y1="217.42151312403502" y2="217.42151312403502" /><line  class="poloto_tick_line" stroke="black" x1="150" x2="650" y1="217.42151312403502" y2="217.42151312403502" /><text  class="poloto_tick_labels poloto_text" dominant-baseline="middle" text-anchor="end" x="135" y="217.42151312403502" >5.875</text><line  class="poloto_axis_lines" stroke="black" x1="150" x2="144" y1="207.771487390633" y2="207.771487390633" /><line  class="poloto_tick_line" stroke="black" x1="150" x2="650" y1="207.771487390633" y2="207.771487390633" /><text  class="poloto_tick_labels poloto_text" dominant-baseline="middle" text-anchor="end" x="135" y="207.771487390633" >6</text><line  class="poloto_axis_lines" stroke="black" x1="150" x2="144" y1="198.12146165723107" y2="198.12146165723107" /><line  class="poloto_tick_line" stroke="black" x1="150" x2="650" y1="198.12146165723107" y2="198.12146165723107" /><text  class="poloto_tick_labels poloto_text" dominant-baseline="middle" text-anchor="end" x="135" y="198.12146165723107" >6.125</text><line  class="poloto_axis_lines" stroke="black" x1="150" x2="144" y1="188.47143592382912" y2="188.47143592382912" /><line  class="poloto_tick_line" stroke="black" x1="150" x2="650" y1="188.47143592382912" y2="188.47143592382912" /><text  class="poloto_tick_labels poloto_text" dominant-baseline="middle" text-anchor="end" x="135" y="188.47143592382912" >6.25</text><line  class="poloto_axis_lines" stroke="black" x1="150" x2="144" y1="178.82141019042717" y2="178.82141019042717" /><line  class="poloto_tick_line" stroke="black" x1="150" x2="650" y1="178.82141019042717" y2="178.82141019042717" /><text  class="poloto_tick_labels poloto_text" dominant-baseline="middle" text-anchor="end" x="135" y="178.82141019042717" >6.375</text><line  class="poloto_axis_lines" stroke="black" x1="150" x2="144" y1="169.17138445702523" y2="169.17138445702523" /><line  class="poloto_tick_line" stroke="black" x1="150" x2="650" y1="169.17138445702523" y2="169.17138445702523" /><text  class="poloto_tick_labels poloto_text" dominant-baseline="middle" text-anchor="end" x="135" y="169.17138445702523" >6.5</text><line  class="poloto_axis_lines" stroke="black" x1="150" x2="144" y1="159.52135872362328" y2="159.52135872362328" /><line  class="poloto_tick_line" stroke="black" x1="150" x2="650" y1="159.52135872362328" y2="159.52135872362328" /><text  class="poloto_tick_labels poloto_text" dominant-baseline="middle" text-anchor="end" x="135" y="159.52135872362328" >6.625</text><line  class="poloto_axis_lines" stroke="black" x1="150" x2="144" y1="149.87133299022133" y2="149.87133299022133" /><line  class="poloto_tick_line" stroke="black" x1="150" x2="650" y1="149.87133299022133" y2="149.87133299022133" /><text  class="poloto_tick_labels poloto_text" dominant-baseline="middle" text-anchor="end" x="135" y="149.87133299022133" >6.75</text><line  class="poloto_axis_lines" stroke="black" x1="150" x2="144" y1="140.22130725681933" y2="140.22130725681933" /><line  class="poloto_tick_line" stroke="black" x1="150" x2="650" y1="140.22130725681933" y2="140.22130725681933" /><text  class="poloto_tick_labels poloto_text" dominant-baseline="middle" text-anchor="end" x="135" y="140.22130725681933" >6.875</text><line  class="poloto_axis_lines" stroke="black" x1="150" x2="144" y1="130.57128152341744" y2="130.57128152341744" /><line  class="poloto_tick_line" stroke="black" x1="150" x2="650" y1="130.57128152341744" y2="130.57128152341744" /><text  class="poloto_tick_labels poloto_text" dominant-baseline="middle" text-anchor="end" x="135" y="130.57128152341744" >7</text><line  class="poloto_axis_lines" stroke="black" x1="150" x2="144" y1="120.92125579001544" y2="120.92125579001544" /><line  class="poloto_tick_line" stroke="black" x1="150" x2="650" y1="120.92125579001544" y2="120.92125579001544" /><text  class="poloto_tick_labels poloto_text" dominant-baseline="middle" text-anchor="end" x="135" y="120.92125579001544" >7.125</text><line  class="poloto_axis_lines" stroke="black" x1="150" x2="144" y1="111.27123005661343" y2="111.27123005661343" /><line  class="poloto_tick_line" stroke="black" x1="150" x2="650" y1="111.27123005661343" y2="111.27123005661343" /><text  class="poloto_tick_labels poloto_text" dominant-baseline="middle" text-anchor="end" x="135" y="111.27123005661343" >7.25</text><line  class="poloto_axis_lines" stroke="black" x1="150" x2="144" y1="101.62120432321154" y2="101.62120432321154" /><line  class="poloto_tick_line" stroke="black" x1="150" x2="650" y1="101.62120432321154" y2="101.62120432321154" /><text  class="poloto_tick_labels poloto_text" dominant-baseline="middle" text-anchor="end" x="135" y="101.62120432321154" >7.375</text><text  class="poloto_tick_labels poloto_text" dominant-baseline="middle" text-anchor="start" x="440.00000000000006" y="70" >¹2022-05-01 00:00:00 UTC in Months</text><line  class="poloto_axis_lines" stroke="black" x1="214.10256410256625" x2="214.10256410256625" y1="400" y2="405" /><line  class="poloto_tick_line" stroke="black" x1="214.10256410256625" x2="214.10256410256625" y1="400" y2="100.00000000000006" /><text  class="poloto_tick_labels poloto_text" dominant-baseline="start" text-anchor="middle" x="214.10256410256625" y="430" >2022 May¹</text><line  class="poloto_axis_lines" stroke="black" x1="300.99715099715104" x2="300.99715099715104" y1="400" y2="405" /><line  class="poloto_tick_line" stroke="black" x1="300.99715099715104" x2="300.99715099715104" y1="400" y2="100.00000000000006" /><text  class="poloto_tick_labels poloto_text" dominant-baseline="start" text-anchor="middle" x="300.99715099715104" y="430" >2022 Jul</text><line  class="poloto_axis_lines" stroke="black" x1="389.316239316242" x2="389.316239316242" y1="400" y2="405" /><line  class="poloto_tick_line" stroke="black" x1="389.316239316242" x2="389.316239316242" y1="400" y2="100.00000000000006" /><text  class="poloto_tick_labels poloto_text" dominant-baseline="start" text-anchor="middle" x="389.316239316242" y="430" >2022 Sep</text><line  class="poloto_axis_lines" stroke="black" x1="476.2108262108268" x2="476.2108262108268" y1="400" y2="405" /><line  class="poloto_tick_line" stroke="black" x1="476.2108262108268" x2="476.2108262108268" y1="400" y2="100.00000000000006" /><text  class="poloto_tick_labels poloto_text" dominant-baseline="start" text-anchor="middle" x="476.2108262108268" y="430" >2022 Nov</text><line  class="poloto_axis_lines" stroke="black" x1="563.1054131054152" x2="563.1054131054152" y1="400" y2="405" /><line  class="poloto_tick_line" stroke="black" x1="563.1054131054152" x2="563.1054131054152" y1="400" y2="100.00000000000006" /><text  class="poloto_tick_labels poloto_text" dominant-baseline="start" text-anchor="middle" x="563.1054131054152" y="430" >2023 Jan</text><line  class="poloto_axis_lines" stroke="black" x1="647.1509971509986" x2="647.1509971509986" y1="400" y2="405" /><line  class="poloto_tick_line" stroke="black" x1="647.1509971509986" x2="647.1509971509986" y1="400" y2="100.00000000000006" /><text  class="poloto_tick_labels poloto_text" dominant-baseline="start" text-anchor="middle" x="647.1509971509986" y="430" >2023 Mar</text><path  stroke="black" fill="none" class="poloto_axis_lines" d=" M 150 400 L 650 400" /><path  stroke="black" fill="none" class="poloto_axis_lines" d=" M 150 400 L 150 100.00000000000006" /></svg>