<svg class="poloto" width="800" height="500" viewBox="0 0 800 500" xmlns="http://www.w3.org/2000/svg"><style>.poloto{stroke-linecap:round;stroke-linejoin:round;font-family:Roboto,sans-serif;font-size:16px;}.poloto_background{fill:#262626;}.poloto_scatter{stroke-width:7}.poloto_tick_line{stroke:dimgray;stroke-width:0.5}.poloto_line{stroke-width:2}.poloto_text{fill: white;}.poloto_axis_lines{stroke: white;stroke-width:3;fill:none;stroke-dasharray:none}.poloto_title{font-size:24px;dominant-baseline:start;text-anchor:middle;}.poloto_xname{font-size:24px;dominant-baseline:start;text-anchor:middle;}.poloto_yname{font-size:24px;dominant-baseline:start;text-anchor:middle;}.poloto0stroke{stroke:blue;}.poloto1stroke{stroke:red;}.poloto2stroke{stroke:green;}.poloto3stroke{stroke:gold;}.poloto4stroke{stroke:aqua;}.poloto5stroke{stroke:lime;}.poloto6stroke{stroke:orange;}.poloto7stroke{stroke:chocolate;}.poloto0fill{fill:blue;}.poloto1fill{fill:red;}.poloto2fill{fill:green;}.poloto3fill{fill:gold;}.poloto4fill{fill:aqua;}.poloto5fill{fill:lime;}.poloto6fill{fill:orange;}.poloto7fill{fill:chocolate;}</style><circle  r="1e5" class="poloto_background" /><text  class="poloto_text poloto_legend_text" x="675" y="100" >Refinance 15</text><line  class="poloto_line poloto_legend_icon poloto0stroke poloto0legend" stroke="black" x1="680" x2="730" y1="81.25" y2="81.25" /><path  class="poloto_line poloto0stroke" fill="none" stroke="black" d=" M 150.00 393.13 L 151.31 400.00 L 155.22 390.27 L 156.53 381.94 L 157.83 390.27 L 157.83 390.27 L 160.44 362.48 L 164.36 361.01 L 165.67 370.74 L 166.97 349.74 L 168.28 351.21 L 169.58 346.81 L 173.50 348.28 L 174.80 342.41 L 174.80 342.41 L 177.42 342.95 L 178.72 321.95 L 182.64 331.06 L 183.94 333.99 L 185.25 333.99 L 186.55 333.22 L 187.86 328.74 L 193.08 289.53 L 194.39 306.97 L 195.69 293.46 L 197.00 288.21 L 197.00 288.21 L 202.22 308.52 L 204.83 312.22 L 206.14 303.96 L 210.05 294.16 L 211.36 313.69 L 212.66 303.96 L 212.66 303.96 L 215.27 302.42 L 219.19 305.43 L 220.50 315.16 L 220.50 315.16 L 221.80 306.90 L 223.11 316.70 L 224.41 302.42 L 228.33 331.76 L 229.63 331.06 L 230.94 315.16 L 230.94 315.16 L 232.25 321.95 L 233.55 324.96 L 237.47 324.96 L 238.77 335.46 L 240.08 335.46 L 241.38 335.46 L 242.69 335.46 L 247.91 324.96 L 249.22 321.95 L 250.52 323.42 L 251.83 323.42 L 251.83 323.42 L 257.05 313.69 L 258.36 313.69 L 259.66 305.43 L 264.88 291.92 L 266.19 264.05 L 267.49 267.14 L 268.80 267.14 L 270.10 286.67 L 274.02 267.14 L 275.33 267.14 L 276.63 285.13 L 277.94 288.21 L 283.16 288.21 L 284.46 286.67 L 285.77 291.22 L 287.08 295.70 L 288.38 305.43 L 293.60 312.22 L 294.91 303.96 L 296.21 297.17 L 297.52 294.16 L 301.44 295.70 L 304.05 295.70 L 305.35 294.16 L 310.57 292.69 L 310.57 292.69 L 310.57 292.69 L 310.57 292.69 L 310.57 292.69 L 310.57 292.69 L 313.19 292.69 L 313.19 292.69 L 313.19 292.69 L 313.19 292.69 L 313.19 292.69 L 313.19 292.69 L 319.71 303.96 L 322.32 306.90 L 323.63 332.53 L 324.93 335.46 L 328.85 335.46 L 330.16 333.99 L 331.46 313.69 L 332.77 308.44 L 334.07 295.70 L 337.99 305.43 L 337.99 305.43 L 339.30 297.17 L 341.91 305.43 L 341.91 305.43 L 348.43 305.43 L 349.74 274.70 L 351.04 292.69 L 356.27 261.89 L 358.88 261.89 L 358.88 261.89 L 361.49 273.16 L 366.71 267.14 L 366.71 267.14 L 366.71 267.14 L 366.71 267.14 L 366.71 267.14 L 366.71 267.14 L 366.71 267.14 L 366.71 267.14 L 366.71 267.14 L 370.63 267.14 L 378.46 247.53 L 383.68 249.85 L 383.68 249.85 L 387.60 249.85 L 392.82 249.85 L 394.13 249.85 L 394.13 249.85 L 394.13 249.85 L 394.13 249.85 L 394.13 249.85 L 411.10 249.85 L 412.40 249.85 L 420.23 162.92 L 421.54 154.66 L 422.85 154.66 L 469.84 180.60 L 475.07 180.60 L 476.37 180.60 L 477.68 195.50 L 480.29 203.68 L 480.29 203.68 L 485.51 203.68 L 486.81 203.68 L 488.12 203.68 L 489.43 203.68 L 493.34 203.68 L 494.65 203.68 L 497.26 203.68 L 498.56 203.68 L 502.48 203.68 L 503.79 203.68 L 503.79 203.68 L 507.70 203.68 L 511.62 203.68 L 512.92 203.68 L 514.23 203.68 L 515.54 203.68 L 516.84 203.68 L 522.06 226.15 L 523.37 200.21 L 524.67 180.60 L 525.98 190.40 L 529.90 190.40 L 531.20 190.40 L 531.20 190.40 L 533.81 211.48 L 535.12 211.48 L 539.03 211.48 L 540.34 211.48 L 541.64 211.48 L 542.95 211.48 L 544.26 211.48 L 544.26 211.48 L 544.26 211.48 L 544.26 211.48 L 550.78 211.48 L 553.39 211.48 L 557.31 211.48 L 558.62 211.48 L 561.23 211.48 L 562.53 211.48 L 567.75 211.48 L 569.06 211.48 L 570.37 211.48 L 571.67 239.27 L 575.59 245.45 L 576.89 209.93 L 578.20 221.28 L 579.50 219.74 L 580.81 201.75 L 584.73 161.07 L 586.03 161.07 L 587.34 161.07 L 588.64 162.61 L 589.95 170.79 L 593.86 162.61 L 595.17 162.61 L 596.48 151.26 L 597.78 161.07 L 599.09 141.46 L 604.31 151.26 L 605.61 152.80 L 606.92 143.08 L 608.22 149.64 L 612.14 155.97 L 613.45 152.80 L 614.75 151.26 L 616.06 151.26 L 617.36 162.61 L 621.28 161.07 L 622.58 152.80 L 626.50 240.81 L 630.42 180.60 L 631.72 182.14 L 633.03 172.41 L 634.33 209.93 L 635.64 239.27 L 639.56 191.95 L 640.86 190.40 L 642.17 180.60 L 643.47 180.60 L 644.78 183.53 L 648.69 197.43 L 650.00 185.15" /><text  class="poloto_text poloto_legend_text" x="675" y="150" >Refinance 20</text><line  class="poloto_line poloto_legend_icon poloto1stroke poloto1legend" stroke="black" x1="680" x2="730" y1="131.25" y2="131.25" /><path  class="poloto_line poloto1stroke" fill="none" stroke="black" d=" M 150.00 350.51 L 151.31 371.13 L 155.22 340.40 L 156.53 330.98 L 157.83 339.63 L 157.83 339.63 L 160.44 312.61 L 164.36 310.29 L 165.67 320.10 L 166.97 309.14 L 168.28 318.94 L 169.58 300.57 L 173.50 328.67 L 174.80 300.57 L 174.80 300.57 L 177.42 300.57 L 177.42 300.57 L 182.64 263.51 L 183.94 293.15 L 185.25 300.57 L 186.55 310.29 L 187.86 291.22 L 193.08 272.47 L 194.39 270.07 L 195.69 265.29 L 197.00 254.32 L 200.91 259.11 L 202.22 279.88 L 204.83 272.47 L 206.14 270.07 L 210.05 262.27 L 211.36 271.31 L 212.66 271.31 L 212.66 271.31 L 215.27 271.31 L 219.19 272.47 L 220.50 292.00 L 220.50 292.00 L 221.80 281.03 L 223.11 299.41 L 224.41 292.00 L 228.33 293.15 L 229.63 292.00 L 230.94 292.00 L 230.94 292.00 L 232.25 293.15 L 233.55 299.41 L 237.47 300.57 L 238.77 304.04 L 240.08 304.04 L 241.38 304.04 L 242.69 304.04 L 247.91 299.41 L 249.22 289.60 L 250.52 292.00 L 251.83 292.00 L 251.83 292.00 L 257.05 279.88 L 258.36 282.19 L 259.66 273.62 L 264.88 232.24 L 266.19 215.11 L 267.49 224.91 L 268.80 232.24 L 270.10 252.93 L 274.02 240.74 L 275.33 234.64 L 276.63 254.17 L 277.94 263.51 L 283.16 263.51 L 284.46 252.93 L 285.77 262.74 L 287.08 272.47 L 288.38 283.43 L 293.60 290.76 L 294.91 281.03 L 296.21 271.31 L 297.52 264.67 L 301.44 270.07 L 304.05 272.47 L 305.35 271.31 L 310.57 272.47 L 310.57 272.47 L 310.57 272.47 L 310.57 272.47 L 310.57 272.47 L 310.57 272.47 L 310.57 272.47 L 310.57 272.47 L 310.57 272.47 L 310.57 272.47 L 310.57 272.47 L 310.57 272.47 L 319.71 290.76 L 322.32 293.15 L 323.63 310.29 L 324.93 312.61 L 328.85 310.06 L 330.16 310.06 L 331.46 300.57 L 332.77 304.04 L 334.07 289.60 L 337.99 282.19 L 337.99 282.19 L 339.30 282.19 L 341.91 292.00 L 341.91 292.00 L 348.43 289.60 L 349.74 272.47 L 351.04 272.47 L 356.27 259.88 L 358.88 249.31 L 358.88 249.31 L 361.49 261.12 L 366.71 232.24 L 366.71 232.24 L 366.71 232.24 L 366.71 232.24 L 366.71 232.24 L 366.71 232.24 L 366.71 232.24 L 366.71 232.24 L 366.71 232.24 L 370.63 232.24 L 378.46 219.97 L 383.68 221.20 L 386.29 221.20 L 387.60 221.20 L 387.60 221.20 L 394.13 221.20 L 395.43 221.20 L 395.43 221.20 L 395.43 221.20 L 395.43 221.20 L 411.10 221.20 L 412.40 221.20 L 420.23 143.85 L 421.54 129.41 L 421.54 129.41 L 472.45 177.12 L 475.07 177.12 L 476.37 177.12 L 478.98 194.26 L 480.29 195.50 L 480.29 195.50 L 485.51 195.50 L 486.81 195.50 L 488.12 195.50 L 489.43 195.50 L 493.34 195.50 L 494.65 195.50 L 497.26 195.50 L 498.56 195.50 L 502.48 195.50 L 503.79 195.50 L 503.79 195.50 L 507.70 195.50 L 511.62 195.50 L 512.92 195.50 L 514.23 195.50 L 515.54 195.50 L 516.84 195.50 L 522.06 178.05 L 523.37 168.55 L 524.67 167.32 L 525.98 169.87 L 529.90 169.87 L 531.20 169.87 L 531.20 169.87 L 533.81 188.16 L 535.12 188.16 L 539.03 188.16 L 540.34 188.16 L 541.64 188.16 L 542.95 188.16 L 544.26 188.16 L 544.26 188.16 L 549.48 188.16 L 549.48 188.16 L 550.78 188.16 L 553.39 188.16 L 557.31 188.16 L 558.62 188.16 L 561.23 188.16 L 562.53 188.16 L 567.75 188.16 L 569.06 188.16 L 570.37 188.16 L 571.67 209.01 L 575.59 207.77 L 576.89 178.36 L 578.20 179.59 L 578.20 179.59 L 580.81 178.36 L 584.73 158.75 L 586.03 158.75 L 587.34 150.26 L 588.64 140.45 L 589.95 149.02 L 593.86 140.45 L 595.17 130.65 L 596.48 140.45 L 597.78 150.26 L 599.09 139.22 L 604.31 140.45 L 605.61 129.41 L 606.92 100.00 L 608.22 129.41 L 612.14 150.26 L 613.45 169.17 L 614.75 140.45 L 616.06 139.22 L 617.36 167.32 L 621.28 160.06 L 622.58 150.26 L 626.50 210.24 L 630.42 168.55 L 631.72 158.75 L 633.03 160.06 L 634.33 188.16 L 635.64 189.40 L 639.56 169.87 L 640.86 160.06 L 642.17 160.06 L 643.47 160.06 L 643.47 160.06 L 643.47 160.06 L 643.47 160.06" /><text  class="poloto_text poloto_legend_text" x="675" y="200" >Refinance 30</text><line  class="poloto_line poloto_legend_icon poloto2stroke poloto2legend" stroke="black" x1="680" x2="730" y1="181.25" y2="181.25" /><path  class="poloto_line poloto2stroke" fill="none" stroke="black" d=" M 150.00 348.35 L 151.31 355.69 L 155.22 344.26 L 156.53 335.31 L 157.83 337.00 L 157.83 337.00 L 160.44 318.24 L 164.36 316.62 L 165.67 326.35 L 166.97 315.77 L 168.28 325.50 L 169.58 306.82 L 173.50 315.77 L 174.80 297.01 L 176.11 297.01 L 177.42 296.17 L 178.72 272.47 L 182.64 276.63 L 183.94 287.29 L 185.25 297.01 L 186.55 288.14 L 187.86 277.48 L 193.08 269.38 L 194.39 256.18 L 195.69 254.40 L 197.00 252.55 L 200.91 256.18 L 202.22 271.31 L 204.83 269.38 L 206.14 267.60 L 210.05 257.95 L 211.36 268.45 L 212.66 257.95 L 212.66 257.95 L 215.27 257.95 L 219.19 259.73 L 220.50 276.63 L 220.50 276.63 L 221.80 268.45 L 223.11 269.38 L 224.41 270.23 L 228.33 277.48 L 229.63 269.38 L 230.94 269.38 L 230.94 269.38 L 232.25 278.33 L 233.55 279.26 L 237.47 280.11 L 238.77 288.14 L 240.08 288.14 L 241.38 289.84 L 242.69 289.84 L 247.91 286.36 L 249.22 276.63 L 250.52 278.33 L 251.83 277.48 L 251.83 277.48 L 257.05 268.45 L 258.36 268.45 L 259.66 258.80 L 264.88 219.74 L 266.19 192.10 L 267.49 209.01 L 268.80 219.74 L 270.10 229.46 L 274.02 220.59 L 275.33 219.74 L 276.63 237.49 L 277.94 239.27 L 283.16 239.27 L 284.46 228.62 L 285.77 237.49 L 287.08 247.22 L 288.38 268.45 L 293.60 269.38 L 294.91 258.80 L 296.21 240.20 L 297.52 237.49 L 301.44 255.25 L 304.05 239.27 L 305.35 238.34 L 310.57 256.18 L 310.57 256.18 L 310.57 256.18 L 310.57 256.18 L 310.57 256.18 L 310.57 256.18 L 313.19 256.18 L 313.19 256.18 L 313.19 256.18 L 313.19 256.18 L 313.19 256.18 L 313.19 256.18 L 319.71 267.60 L 322.32 269.38 L 323.63 286.36 L 324.93 297.86 L 328.85 297.01 L 330.16 297.01 L 331.46 277.48 L 332.77 280.11 L 334.07 267.60 L 337.99 277.48 L 337.99 277.48 L 339.30 270.23 L 341.91 278.33 L 341.91 278.33 L 348.43 276.63 L 349.74 259.73 L 351.04 258.80 L 356.27 236.57 L 358.88 228.62 L 358.88 228.62 L 361.49 238.34 L 366.71 227.69 L 366.71 227.69 L 366.71 227.69 L 366.71 227.69 L 366.71 227.69 L 366.71 227.69 L 366.71 227.69 L 366.71 227.69 L 370.63 227.69 L 370.63 226.76 L 378.46 215.11 L 383.68 195.50 L 383.68 195.50 L 387.60 195.50 L 387.60 195.50 L 394.13 195.50 L 395.43 195.50 L 395.43 195.50 L 395.43 195.50 L 395.43 195.50 L 411.10 195.50 L 412.40 195.50 L 420.23 151.34 L 421.54 126.71 L 421.54 126.71 L 472.45 169.02 L 475.07 169.02 L 476.37 169.02 L 477.68 172.95 L 480.29 181.91 L 480.29 181.91 L 485.51 181.91 L 486.81 181.91 L 488.12 181.91 L 489.43 181.91 L 493.34 181.91 L 494.65 181.91 L 497.26 181.91 L 498.56 181.91 L 502.48 181.91 L 503.79 181.91 L 503.79 181.91 L 507.70 181.91 L 511.62 181.91 L 512.92 181.91 L 514.23 181.91 L 515.54 181.91 L 516.84 181.91 L 522.06 167.01 L 523.37 174.88 L 524.67 156.20 L 525.98 174.88 L 529.90 174.88 L 531.20 174.88 L 531.20 174.88 L 533.81 174.88 L 535.12 174.88 L 539.03 174.88 L 540.34 174.88 L 541.64 174.88 L 542.95 174.88 L 544.26 174.88 L 544.26 174.88 L 549.48 174.88 L 549.48 174.88 L 550.78 174.88 L 553.39 174.88 L 557.31 174.88 L 558.62 174.88 L 561.23 174.88 L 562.53 174.88 L 567.75 174.88 L 569.06 174.88 L 570.37 174.88 L 571.67 224.91 L 575.59 215.11 L 576.89 175.89 L 578.20 205.30 L 579.50 175.89 L 580.81 166.01 L 584.73 156.20 L 586.03 156.20 L 587.34 147.32 L 588.64 137.52 L 589.95 146.40 L 593.86 146.40 L 595.17 135.59 L 596.48 127.71 L 597.78 137.52 L 599.09 128.72 L 604.31 127.71 L 605.61 116.91 L 606.92 116.91 L 608.22 126.71 L 612.14 127.71 L 613.45 117.91 L 614.75 125.78 L 616.06 117.91 L 617.36 147.32 L 621.28 147.32 L 622.58 127.71 L 626.50 206.23 L 630.42 147.32 L 631.72 146.40 L 633.03 146.40 L 634.33 176.81 L 635.64 176.81 L 639.56 157.21 L 640.86 157.21 L 642.17 156.20 L 643.47 156.20 L 644.78 148.02 L 648.69 149.02 L 650.00 157.05" /><text  class="poloto_labels poloto_text poloto_title" x="400" y="37.5" >lower.com purchase rates</text><text  class="poloto_labels poloto_text poloto_xname" x="400" y="481.25" >Date</text><text  class="poloto_labels poloto_text poloto_yname" transform="rotate(-90,37.5,250)" x="37.5" y="250" >Rate (%)</text><text  class="poloto_tick_labels poloto_text" dominant-baseline="middle" text-anchor="start" x="150" y="70" ></text><line  class="poloto_axis_lines" stroke="black" x1="150" x2="144" y1="391.12197632527017" y2="391.12197632527017" /><line  class="poloto_tick_line" stroke="black" x1="150" x2="650" y1="391.12197632527017" y2="391.12197632527017" /><text  class="poloto_tick_labels poloto_text" dominant-baseline="middle" text-anchor="end" x="135" y="391.12197632527017" >3.625</text><line  class="poloto_axis_lines" stroke="black" x1="150" x2="144" y1="381.4719505918682" y2="381.4719505918682" /><line  class="poloto_tick_line" stroke="black" x1="150" x2="650" y1="381.4719505918682" y2="381.4719505918682" /><text  class="poloto_tick_labels poloto_text" dominant-baseline="middle" text-anchor="end" x="135" y="381.4719505918682" >3.75</text><line  class="poloto_axis_lines" stroke="black" x1="150" x2="144" y1="371.8219248584663" y2="371.8219248584663" /><line  class="poloto_tick_line" stroke="black" x1="150" x2="650" y1="371.8219248584663" y2="371.8219248584663" /><text  class="poloto_tick_labels poloto_text" dominant-baseline="middle" text-anchor="end" x="135" y="371.8219248584663" >3.875</text><line  class="poloto_axis_lines" stroke="black" x1="150" x2="144" y1="362.17189912506433" y2="362.17189912506433" /><line  class="poloto_tick_line" stroke="black" x1="150" x2="650" y1="362.17189912506433" y2="362.17189912506433" /><text  class="poloto_tick_labels poloto_text" dominant-baseline="middle" text-anchor="end" x="135" y="362.17189912506433" >4</text><line  class="poloto_axis_lines" stroke="black" x1="150" x2="144" y1="352.5218733916624" y2="352.5218733916624" /><line  class="poloto_tick_line" stroke="black" x1="150" x2="650" y1="352.5218733916624" y2="352.5218733916624" /><text  class="poloto_tick_labels poloto_text" dominant-baseline="middle" text-anchor="end" x="135" y="352.5218733916624" >4.125</text><line  class="poloto_axis_lines" stroke="black" x1="150" x2="144" y1="342.87184765826044" y2="342.87184765826044" /><line  class="poloto_tick_line" stroke="black" x1="150" x2="650" y1="342.87184765826044" y2="342.87184765826044" /><text  class="poloto_tick_labels poloto_text" dominant-baseline="middle" text-anchor="end" x="135" y="342.87184765826044" >4.25</text><line  class="poloto_axis_lines" stroke="black" x1="150" x2="144" y1="333.2218219248585" y2="333.2218219248585" /><line  class="poloto_tick_line" stroke="black" x1="150" x2="650" y1="333.2218219248585" y2="333.2218219248585" /><text  class="poloto_tick_labels poloto_text" dominant-baseline="middle" text-anchor="end" x="135" y="333.2218219248585" >4.375</text><line  class="poloto_axis_lines" stroke="black" x1="150" x2="144" y1="323.5717961914565" y2="323.5717961914565" /><line  class="poloto_tick_line" stroke="black" x1="150" x2="650" y1="323.5717961914565" y2="323.5717961914565" /><text  class="poloto_tick_labels poloto_text" dominant-baseline="middle" text-anchor="end" x="135" y="323.5717961914565" >4.5</text><line  class="poloto_axis_lines" stroke="black" x1="150" x2="144" y1="313.92177045805454" y2="313.92177045805454" /><line  class="poloto_tick_line" stroke="black" x1="150" x2="650" y1="313.92177045805454" y2="313.92177045805454" /><text  class="poloto_tick_labels poloto_text" dominant-baseline="middle" text-anchor="end" x="135" y="313.92177045805454" >4.625</text><line  class="poloto_axis_lines" stroke="black" x1="150" x2="144" y1="304.2717447246526" y2="304.2717447246526" /><line  class="poloto_tick_line" stroke="black" x1="150" x2="650" y1="304.2717447246526" y2="304.2717447246526" /><text  class="poloto_tick_labels poloto_text" dominant-baseline="middle" text-anchor="end" x="135" y="304.2717447246526" >4.75</text><line  class="poloto_axis_lines" stroke="black" x1="150" x2="144" y1="294.62171899125065" y2="294.62171899125065" /><line  class="poloto_tick_line" stroke="black" x1="150" x2="650" y1="294.62171899125065" y2="294.62171899125065" /><text  class="poloto_tick_labels poloto_text" dominant-baseline="middle" text-anchor="end" x="135" y="294.62171899125065" >4.875</text><line  class="poloto_axis_lines" stroke="black" x1="150" x2="144" y1="284.9716932578487" y2="284.9716932578487" /><line  class="poloto_tick_line" stroke="black" x1="150" x2="650" y1="284.9716932578487" y2="284.9716932578487" /><text  class="poloto_tick_labels poloto_text" dominant-baseline="middle" text-anchor="end" x="135" y="284.9716932578487" >5</text><line  class="poloto_axis_lines" stroke="black" x1="150" x2="144" y1="275.32166752444675" y2="275.32166752444675" /><line  class="poloto_tick_line" stroke="black" x1="150" x2="650" y1="275.32166752444675" y2="275.32166752444675" /><text  class="poloto_tick_labels poloto_text" dominant-baseline="middle" text-anchor="end" x="135" y="275.32166752444675" >5.125</text><line  class="poloto_axis_lines" stroke="black" x1="150" x2="144" y1="265.67164179104475" y2="265.67164179104475" /><line  class="poloto_tick_line" stroke="black" x1="150" x2="650" y1="265.67164179104475" y2="265.67164179104475" /><text  class="poloto_tick_labels poloto_text" dominant-baseline="middle" text-anchor="end" x="135" y="265.67164179104475" >5.25</text><line  class="poloto_axis_lines" stroke="black" x1="150" x2="144" y1="256.0216160576428" y2="256.0216160576428" /><line  class="poloto_tick_line" stroke="black" x1="150" x2="650" y1="256.0216160576428" y2="256.0216160576428" /><text  class="poloto_tick_labels poloto_text" dominant-baseline="middle" text-anchor="end" x="135" y="256.0216160576428" >5.375</text><line  class="poloto_axis_lines" stroke="black" x1="150" x2="144" y1="246.37159032424086" y2="246.37159032424086" /><line  class="poloto_tick_line" stroke="black" x1="150" x2="650" y1="246.37159032424086" y2="246.37159032424086" /><text  class="poloto_tick_labels poloto_text" dominant-baseline="middle" text-anchor="end" x="135" y="246.37159032424086" >5.5</text><line  class="poloto_axis_lines" stroke="black" x1="150" x2="144" y1="236.7215645908389" y2="236.7215645908389" /><line  class="poloto_tick_line" stroke="black" x1="150" x2="650" y1="236.7215645908389" y2="236.7215645908389" /><text  class="poloto_tick_labels poloto_text" dominant-baseline="middle" text-anchor="end" x="135" y="236.7215645908389" >5.625</text><line  class="poloto_axis_lines" stroke="black" x1="150" x2="144" y1="227.07153885743696" y2="227.07153885743696" /><line  class="poloto_tick_line" stroke="black" x1="150" x2="650" y1="227.07153885743696" y2="227.07153885743696" /><text  class="poloto_tick_labels poloto_text" dominant-baseline="middle" text-anchor="end" x="135" y="227.07153885743696" >5.75</text><line  class="poloto_axis_lines" stroke="black" x1="150" x2="144" y1="217.42151312403502" y2="217.42151312403502" /><line  class="poloto_tick_line" stroke="black" x1="150" x2="650" y1="217.42151312403502" y2="217.42151312403502" /><text  class="poloto_tick_labels poloto_text" dominant-baseline="middle" text-anchor="end" x="135" y="217.42151312403502" >5.875</text><line  class="poloto_axis_lines" stroke="black" x1="150" x2="144" y1="207.771487390633" y2="207.771487390633" /><line  class="poloto_tick_line" stroke="black" x1="150" x2="650" y1="207.771487390633" y2="207.771487390633" /><text  class="poloto_tick_labels poloto_text" dominant-baseline="middle" text-anchor="end" x="135" y="207.771487390633" >6</text><line  class="poloto_axis_lines" stroke="black" x1="150" x2="144" y1="198.12146165723107" y2="198.12146165723107" /><line  class="poloto_tick_line" stroke="black" x1="150" x2="650" y1="198.12146165723107" y2="198.12146165723107" /><text  class="poloto_tick_labels poloto_text" dominant-baseline="middle" text-anchor="end" x="135" y="198.12146165723107" >6.125</text><line  class="poloto_axis_lines" stroke="black" x1="150" x2="144" y1="188.47143592382912" y2="188.47143592382912" /><line  class="poloto_tick_line" stroke="black" x1="150" x2="650" y1="188.47143592382912" y2="188.47143592382912" /><text  class="poloto_tick_labels poloto_text" dominant-baseline="middle" text-anchor="end" x="135" y="188.47143592382912" >6.25</text><line  class="poloto_axis_lines" stroke="black" x1="150" x2="144" y1="178.82141019042717" y2="178.82141019042717" /><line  class="poloto_tick_line" stroke="black" x1="150" x2="650" y1="178.82141019042717" y2="178.82141019042717" /><text  class="poloto_tick_labels poloto_text" dominant-baseline="middle" text-anchor="end" x="135" y="178.82141019042717" >6.375</text><line  class="poloto_axis_lines" stroke="black" x1="150" x2="144" y1="169.17138445702523" y2="169.17138445702523" /><line  class="poloto_tick_line" stroke="black" x1="150" x2="650" y1="169.17138445702523" y2="169.17138445702523" /><text  class="poloto_tick_labels poloto_text" dominant-baseline="middle" text-anchor="end" x="135" y="169.17138445702523" >6.5</text><line  class="poloto_axis_lines" stroke="black" x1="150" x2="144" y1="159.52135872362328" y2="159.52135872362328" /><line  class="poloto_tick_line" stroke="black" x1="150" x2="650" y1="159.52135872362328" y2="159.52135872362328" /><text  class="poloto_tick_labels poloto_text" dominant-baseline="middle" text-anchor="end" x="135" y="159.52135872362328" >6.625</text><line  class="poloto_axis_lines" stroke="black" x1="150" x2="144" y1="149.87133299022133" y2="149.87133299022133" /><line  class="poloto_tick_line" stroke="black" x1="150" x2="650" y1="149.87133299022133" y2="149.87133299022133" /><text  class="poloto_tick_labels poloto_text" dominant-baseline="middle" text-anchor="end" x="135" y="149.87133299022133" >6.75</text><line  class="poloto_axis_lines" stroke="black" x1="150" x2="144" y1="140.22130725681933" y2="140.22130725681933" /><line  class="poloto_tick_line" stroke="black" x1="150" x2="650" y1="140.22130725681933" y2="140.22130725681933" /><text  class="poloto_tick_labels poloto_text" dominant-baseline="middle" text-anchor="end" x="135" y="140.22130725681933" >6.875</text><line  class="poloto_axis_lines" stroke="black" x1="150" x2="144" y1="130.57128152341744" y2="130.57128152341744" /><line  class="poloto_tick_line" stroke="black" x1="150" x2="650" y1="130.57128152341744" y2="130.57128152341744" /><text  class="poloto_tick_labels poloto_text" dominant-baseline="middle" text-anchor="end" x="135" y="130.57128152341744" >7</text><line  class="poloto_axis_lines" stroke="black" x1="150" x2="144" y1="120.92125579001544" y2="120.92125579001544" /><line  class="poloto_tick_line" stroke="black" x1="150" x2="650" y1="120.92125579001544" y2="120.92125579001544" /><text  class="poloto_tick_labels poloto_text" dominant-baseline="middle" text-anchor="end" x="135" y="120.92125579001544" >7.125</text><line  class="poloto_axis_lines" stroke="black" x1="150" x2="144" y1="111.27123005661343" y2="111.27123005661343" /><line  class="poloto_tick_line" stroke="black" x1="150" x2="650" y1="111.27123005661343" y2="111.27123005661343" /><text  class="poloto_tick_labels poloto_text" dominant-baseline="middle" text-anchor="end" x="135" y="111.27123005661343" >7.25</text><line  class="poloto_axis_lines" stroke="black" x1="150" x2="144" y1="101.62120432321154" y2="101.62120432321154" /><line  class="poloto_tick_line" stroke="black" x1="150" x2="650" y1="101.62120432321154" y2="101.62120432321154" /><text  class="poloto_tick_labels poloto_text" dominant-baseline="middle" text-anchor="end" x="135" y="101.62120432321154" >7.375</text><text  class="poloto_tick_labels poloto_text" dominant-baseline="middle" text-anchor="start" x="440.00000000000006" y="70" >¹2022-05-01 00:00:00 UTC in Months</text><line  class="poloto_axis_lines" stroke="black" x1="208.74673629242898" x2="208.74673629242898" y1="400" y2="405" /><line  class="poloto_tick_line" stroke="black" x1="208.74673629242898" x2="208.74673629242898" y1="400" y2="100.00000000000006" /><text  class="poloto_tick_labels poloto_text" dominant-baseline="start" text-anchor="middle" x="208.74673629242898" y="430" >2022 May¹</text><line  class="poloto_axis_lines" stroke="black" x1="288.3812010443871" x2="288.3812010443871" y1="400" y2="405" /><line  class="poloto_tick_line" stroke="black" x1="288.3812010443871" x2="288.3812010443871" y1="400" y2="100.00000000000006" /><text  class="poloto_tick_labels poloto_text" dominant-baseline="start" text-anchor="middle" x="288.3812010443871" y="430" >2022 Jul</text><line  class="poloto_axis_lines" stroke="black" x1="369.3211488250636" x2="369.3211488250636" y1="400" y2="405" /><line  class="poloto_tick_line" stroke="black" x1="369.3211488250636" x2="369.3211488250636" y1="400" y2="100.00000000000006" /><text  class="poloto_tick_labels poloto_text" dominant-baseline="start" text-anchor="middle" x="369.3211488250636" y="430" >2022 Sep</text><line  class="poloto_axis_lines" stroke="black" x1="448.9556135770217" x2="448.9556135770217" y1="400" y2="405" /><line  class="poloto_tick_line" stroke="black" x1="448.9556135770217" x2="448.9556135770217" y1="400" y2="100.00000000000006" /><text  class="poloto_tick_labels poloto_text" dominant-baseline="start" text-anchor="middle" x="448.9556135770217" y="430" >2022 Nov</text><line  class="poloto_axis_lines" stroke="black" x1="528.5900783289799" x2="528.5900783289799" y1="400" y2="405" /><line  class="poloto_tick_line" stroke="black" x1="528.5900783289799" x2="528.5900783289799" y1="400" y2="100.00000000000006" /><text  class="poloto_tick_labels poloto_text" dominant-baseline="start" text-anchor="middle" x="528.5900783289799" y="430" >2023 Jan</text><line  class="poloto_axis_lines" stroke="black" x1="605.6135770234978" x2="605.6135770234978" y1="400" y2="405" /><line  class="poloto_tick_line" stroke="black" x1="605.6135770234978" x2="605.6135770234978" y1="400" y2="100.00000000000006" /><text  class="poloto_tick_labels poloto_text" dominant-baseline="start" text-anchor="middle" x="605.6135770234978" y="430" >2023 Mar</text><path  stroke="black" fill="none" class="poloto_axis_lines" d=" M 150 400 L 650 400" /><path  stroke="black" fill="none" class="poloto_axis_lines" d=" M 150 400 L 150 100.00000000000006" /></svg>