<svg class="poloto" width="800" height="500" viewBox="0 0 800 500" xmlns="http://www.w3.org/2000/svg"><style>.poloto{stroke-linecap:round;stroke-linejoin:round;font-family:Roboto,sans-serif;font-size:16px;}.poloto_background{fill:#262626;}.poloto_scatter{stroke-width:7}.poloto_tick_line{stroke:dimgray;stroke-width:0.5}.poloto_line{stroke-width:2}.poloto_text{fill: white;}.poloto_axis_lines{stroke: white;stroke-width:3;fill:none;stroke-dasharray:none}.poloto_title{font-size:24px;dominant-baseline:start;text-anchor:middle;}.poloto_xname{font-size:24px;dominant-baseline:start;text-anchor:middle;}.poloto_yname{font-size:24px;dominant-baseline:start;text-anchor:middle;}.poloto0stroke{stroke:blue;}.poloto1stroke{stroke:red;}.poloto2stroke{stroke:green;}.poloto3stroke{stroke:gold;}.poloto4stroke{stroke:aqua;}.poloto5stroke{stroke:lime;}.poloto6stroke{stroke:orange;}.poloto7stroke{stroke:chocolate;}.poloto0fill{fill:blue;}.poloto1fill{fill:red;}.poloto2fill{fill:green;}.poloto3fill{fill:gold;}.poloto4fill{fill:aqua;}.poloto5fill{fill:lime;}.poloto6fill{fill:orange;}.poloto7fill{fill:chocolate;}</style><circle  r="1e5" class="poloto_background" /><text  class="poloto_text poloto_legend_text" x="675" y="100" >30 years</text><line  class="poloto_line poloto_legend_icon poloto0stroke poloto0legend" stroke="black" x1="680" x2="730" y1="81.25" y2="81.25" /><path  class="poloto_line poloto0stroke" fill="none" stroke="black" d=" M 150.00 223.53 L 162.50 241.18 L 200.00 223.53 L 212.50 205.88 L 225.00 205.88 L 225.00 205.88 L 250.00 170.59 L 287.50 170.59 L 300.00 188.24 L 312.50 205.88 L 325.00 223.53 L 337.50 188.24 L 375.00 205.88 L 387.50 188.24 L 400.00 170.59 L 412.50 152.94 L 425.00 152.94 L 462.50 152.94 L 475.00 170.59 L 487.50 170.59 L 500.00 170.59 L 512.50 135.29 L 562.50 119.06 L 575.00 117.65 L 587.50 117.65 L 600.00 100.00 L 637.50 117.65 L 650.00 135.29" /><text  class="poloto_text poloto_legend_text" x="675" y="150" >20 years</text><line  class="poloto_line poloto_legend_icon poloto1stroke poloto1legend" stroke="black" x1="680" x2="730" y1="131.25" y2="131.25" /><path  class="poloto_line poloto1stroke" fill="none" stroke="black" d=" M 150.00 223.53 L 162.50 241.18 L 200.00 205.88 L 212.50 188.24 L 225.00 188.24 L 225.00 188.24 L 250.00 170.59 L 287.50 152.94 L 300.00 170.59 L 312.50 188.24 L 325.00 205.88 L 337.50 170.59 L 375.00 205.88 L 387.50 170.59 L 400.00 170.59 L 412.50 170.59 L 425.00 119.06 L 462.50 117.65 L 475.00 135.29 L 487.50 170.59 L 500.00 188.24 L 512.50 170.59 L 562.50 135.29 L 575.00 135.29 L 587.50 135.29 L 600.00 100.00 L 637.50 135.29 L 650.00 152.94" /><text  class="poloto_text poloto_legend_text" x="675" y="200" >15 years</text><line  class="poloto_line poloto_legend_icon poloto2stroke poloto2legend" stroke="black" x1="680" x2="730" y1="181.25" y2="181.25" /><path  class="poloto_line poloto2stroke" fill="none" stroke="black" d=" M 150.00 311.76 L 162.50 311.76 L 200.00 311.76 L 212.50 276.47 L 225.00 276.47 L 225.00 276.47 L 250.00 260.24 L 287.50 276.47 L 300.00 276.47 L 312.50 294.12 L 325.00 294.12 L 337.50 276.47 L 375.00 294.12 L 387.50 276.47 L 400.00 258.82 L 412.50 260.24 L 425.00 258.82 L 462.50 260.24 L 475.00 258.82 L 487.50 260.24 L 500.00 258.82 L 512.50 223.53 L 562.50 223.53 L 575.00 224.94 L 587.50 224.94 L 600.00 188.24 L 637.50 223.53 L 650.00 224.94" /><text  class="poloto_labels poloto_text poloto_title" x="400" y="37.5" >lower.com purchase rates</text><text  class="poloto_labels poloto_text poloto_xname" x="400" y="481.25" >Date</text><text  class="poloto_labels poloto_text poloto_yname" transform="rotate(-90,37.5,250)" x="37.5" y="250" >Rate (%)</text><text  class="poloto_tick_labels poloto_text" dominant-baseline="middle" text-anchor="start" x="150" y="70" ></text><line  class="poloto_axis_lines" stroke="black" x1="150" x2="144" y1="400" y2="400" /><line  class="poloto_tick_line" stroke="black" x1="150" x2="650" y1="400" y2="400" /><text  class="poloto_tick_labels poloto_text" dominant-baseline="middle" text-anchor="end" x="135" y="400" >3</text><line  class="poloto_axis_lines" stroke="black" x1="150" x2="144" y1="364.70588235294116" y2="364.70588235294116" /><line  class="poloto_tick_line" stroke="black" x1="150" x2="650" y1="364.70588235294116" y2="364.70588235294116" /><text  class="poloto_tick_labels poloto_text" dominant-baseline="middle" text-anchor="end" x="135" y="364.70588235294116" >3.25</text><line  class="poloto_axis_lines" stroke="black" x1="150" x2="144" y1="329.4117647058824" y2="329.4117647058824" /><line  class="poloto_tick_line" stroke="black" x1="150" x2="650" y1="329.4117647058824" y2="329.4117647058824" /><text  class="poloto_tick_labels poloto_text" dominant-baseline="middle" text-anchor="end" x="135" y="329.4117647058824" >3.5</text><line  class="poloto_axis_lines" stroke="black" x1="150" x2="144" y1="294.1176470588235" y2="294.1176470588235" /><line  class="poloto_tick_line" stroke="black" x1="150" x2="650" y1="294.1176470588235" y2="294.1176470588235" /><text  class="poloto_tick_labels poloto_text" dominant-baseline="middle" text-anchor="end" x="135" y="294.1176470588235" >3.75</text><line  class="poloto_axis_lines" stroke="black" x1="150" x2="144" y1="258.8235294117647" y2="258.8235294117647" /><line  class="poloto_tick_line" stroke="black" x1="150" x2="650" y1="258.8235294117647" y2="258.8235294117647" /><text  class="poloto_tick_labels poloto_text" dominant-baseline="middle" text-anchor="end" x="135" y="258.8235294117647" >4</text><line  class="poloto_axis_lines" stroke="black" x1="150" x2="144" y1="223.5294117647059" y2="223.5294117647059" /><line  class="poloto_tick_line" stroke="black" x1="150" x2="650" y1="223.5294117647059" y2="223.5294117647059" /><text  class="poloto_tick_labels poloto_text" dominant-baseline="middle" text-anchor="end" x="135" y="223.5294117647059" >4.25</text><line  class="poloto_axis_lines" stroke="black" x1="150" x2="144" y1="188.23529411764702" y2="188.23529411764702" /><line  class="poloto_tick_line" stroke="black" x1="150" x2="650" y1="188.23529411764702" y2="188.23529411764702" /><text  class="poloto_tick_labels poloto_text" dominant-baseline="middle" text-anchor="end" x="135" y="188.23529411764702" >4.5</text><line  class="poloto_axis_lines" stroke="black" x1="150" x2="144" y1="152.94117647058823" y2="152.94117647058823" /><line  class="poloto_tick_line" stroke="black" x1="150" x2="650" y1="152.94117647058823" y2="152.94117647058823" /><text  class="poloto_tick_labels poloto_text" dominant-baseline="middle" text-anchor="end" x="135" y="152.94117647058823" >4.75</text><line  class="poloto_axis_lines" stroke="black" x1="150" x2="144" y1="117.64705882352933" y2="117.64705882352933" /><line  class="poloto_tick_line" stroke="black" x1="150" x2="650" y1="117.64705882352933" y2="117.64705882352933" /><text  class="poloto_tick_labels poloto_text" dominant-baseline="middle" text-anchor="end" x="135" y="117.64705882352933" >5</text><text  class="poloto_tick_labels poloto_text" dominant-baseline="middle" text-anchor="start" x="440.00000000000006" y="70" >ยน2022-03-22 00:00:00 UTC in Days</text><line  class="poloto_axis_lines" stroke="black" x1="212.5" x2="212.5" y1="400" y2="405" /><line  class="poloto_tick_line" stroke="black" x1="212.5" x2="212.5" y1="400" y2="99.99999999999994" /><text  class="poloto_tick_labels poloto_text" dominant-baseline="start" text-anchor="middle" x="212.5" y="430" >Mar 22ยน</text><line  class="poloto_axis_lines" stroke="black" x1="300" x2="300" y1="400" y2="405" /><line  class="poloto_tick_line" stroke="black" x1="300" x2="300" y1="400" y2="99.99999999999994" /><text  class="poloto_tick_labels poloto_text" dominant-baseline="start" text-anchor="middle" x="300" y="430" >Mar 29</text><line  class="poloto_axis_lines" stroke="black" x1="387.5" x2="387.5" y1="400" y2="405" /><line  class="poloto_tick_line" stroke="black" x1="387.5" x2="387.5" y1="400" y2="99.99999999999994" /><text  class="poloto_tick_labels poloto_text" dominant-baseline="start" text-anchor="middle" x="387.5" y="430" >Apr 05</text><line  class="poloto_axis_lines" stroke="black" x1="475" x2="475" y1="400" y2="405" /><line  class="poloto_tick_line" stroke="black" x1="475" x2="475" y1="400" y2="99.99999999999994" /><text  class="poloto_tick_labels poloto_text" dominant-baseline="start" text-anchor="middle" x="475" y="430" >Apr 12</text><line  class="poloto_axis_lines" stroke="black" x1="562.5" x2="562.5" y1="400" y2="405" /><line  class="poloto_tick_line" stroke="black" x1="562.5" x2="562.5" y1="400" y2="99.99999999999994" /><text  class="poloto_tick_labels poloto_text" dominant-baseline="start" text-anchor="middle" x="562.5" y="430" >Apr 19</text><line  class="poloto_axis_lines" stroke="black" x1="650" x2="650" y1="400" y2="405" /><line  class="poloto_tick_line" stroke="black" x1="650" x2="650" y1="400" y2="99.99999999999994" /><text  class="poloto_tick_labels poloto_text" dominant-baseline="start" text-anchor="middle" x="650" y="430" >Apr 26</text><path  stroke="black" fill="none" class="poloto_axis_lines" d=" M 150 400 L 650 400" /><path  stroke="black" fill="none" class="poloto_axis_lines" d=" M 150 400 L 150 99.99999999999994" /></svg>