<svg class="poloto" width="800" height="500" viewBox="0 0 800 500" xmlns="http://www.w3.org/2000/svg"><style>.poloto{stroke-linecap:round;stroke-linejoin:round;font-family:Roboto,sans-serif;font-size:16px;}.poloto_background{fill:#262626;}.poloto_scatter{stroke-width:7}.poloto_tick_line{stroke:dimgray;stroke-width:0.5}.poloto_line{stroke-width:2}.poloto_text{fill: white;}.poloto_axis_lines{stroke: white;stroke-width:3;fill:none;stroke-dasharray:none}.poloto_title{font-size:24px;dominant-baseline:start;text-anchor:middle;}.poloto_xname{font-size:24px;dominant-baseline:start;text-anchor:middle;}.poloto_yname{font-size:24px;dominant-baseline:start;text-anchor:middle;}.poloto0stroke{stroke:blue;}.poloto1stroke{stroke:red;}.poloto2stroke{stroke:green;}.poloto3stroke{stroke:gold;}.poloto4stroke{stroke:aqua;}.poloto5stroke{stroke:lime;}.poloto6stroke{stroke:orange;}.poloto7stroke{stroke:chocolate;}.poloto0fill{fill:blue;}.poloto1fill{fill:red;}.poloto2fill{fill:green;}.poloto3fill{fill:gold;}.poloto4fill{fill:aqua;}.poloto5fill{fill:lime;}.poloto6fill{fill:orange;}.poloto7fill{fill:chocolate;}</style><circle  r="1e5" class="poloto_background" /><text  class="poloto_text poloto_legend_text" x="675" y="100" >Refinance 15</text><line  class="poloto_line poloto_legend_icon poloto0stroke poloto0legend" stroke="black" x1="680" x2="730" y1="81.25" y2="81.25" /><path  class="poloto_line poloto0stroke" fill="none" stroke="black" d=" M 150.00 392.46 L 151.78 400.00 L 157.12 389.32 L 158.90 380.17 L 160.68 389.32 L 160.68 389.32 L 164.23 358.81 L 169.57 357.20 L 171.35 367.88 L 173.13 344.83 L 174.91 346.44 L 176.69 341.61 L 182.03 343.22 L 183.81 336.78 L 183.81 336.78 L 187.37 337.37 L 189.15 314.32 L 194.48 324.32 L 196.26 327.54 L 198.04 327.54 L 199.82 326.69 L 201.60 321.78 L 208.72 278.73 L 210.50 297.88 L 212.28 283.05 L 214.06 277.29 L 214.06 277.29 L 221.17 299.58 L 224.73 303.64 L 226.51 294.58 L 231.85 283.81 L 233.63 305.25 L 235.41 294.58 L 235.41 294.58 L 238.97 292.88 L 244.31 296.19 L 246.09 306.86 L 246.09 306.86 L 247.86 297.80 L 249.64 308.56 L 251.42 292.88 L 256.76 325.08 L 258.54 324.32 L 260.32 306.86 L 260.32 306.86 L 262.10 314.32 L 263.88 317.63 L 269.22 317.63 L 271.00 329.15 L 272.78 329.15 L 274.56 329.15 L 276.33 329.15 L 283.45 317.63 L 285.23 314.32 L 287.01 315.93 L 288.79 315.93 L 288.79 315.93 L 295.91 305.25 L 297.69 305.25 L 299.47 296.19 L 306.58 281.36 L 308.36 250.76 L 310.14 254.15 L 311.92 254.15 L 313.70 275.59 L 319.04 254.15 L 320.82 254.15 L 322.60 273.90 L 324.38 277.29 L 331.49 277.29 L 333.27 275.59 L 335.05 280.59 L 336.83 285.51 L 338.61 296.19 L 345.73 303.64 L 347.51 294.58 L 349.29 287.12 L 351.07 283.81 L 356.41 285.51 L 359.96 285.51 L 361.74 283.81 L 368.86 282.20 L 368.86 282.20 L 368.86 282.20 L 368.86 282.20 L 368.86 282.20 L 368.86 282.20 L 372.42 282.20 L 372.42 282.20 L 372.42 282.20 L 372.42 282.20 L 372.42 282.20 L 372.42 282.20 L 381.32 294.58 L 384.88 297.80 L 386.65 325.93 L 388.43 329.15 L 393.77 329.15 L 395.55 327.54 L 397.33 305.25 L 399.11 299.49 L 400.89 285.51 L 406.23 296.19 L 406.23 296.19 L 408.01 287.12 L 411.57 296.19 L 411.57 296.19 L 420.46 296.19 L 422.24 262.46 L 424.02 282.20 L 431.14 248.39 L 434.70 248.39 L 434.70 248.39 L 438.26 260.76 L 445.37 254.15 L 445.37 254.15 L 445.37 254.15 L 445.37 254.15 L 445.37 254.15 L 445.37 254.15 L 445.37 254.15 L 445.37 254.15 L 445.37 254.15 L 450.71 254.15 L 461.39 232.63 L 468.51 235.17 L 468.51 235.17 L 473.84 235.17 L 480.96 235.17 L 482.74 235.17 L 482.74 235.17 L 482.74 235.17 L 482.74 235.17 L 482.74 235.17 L 505.87 235.17 L 507.65 235.17 L 518.33 139.75 L 520.11 130.68 L 521.89 130.68 L 585.94 159.15 L 593.06 159.15 L 594.84 159.15 L 596.62 175.51 L 600.18 184.49 L 600.18 184.49 L 607.30 184.49 L 609.07 184.49 L 610.85 184.49 L 612.63 184.49 L 617.97 184.49 L 619.75 184.49 L 623.31 184.49 L 625.09 184.49 L 630.43 184.49 L 632.21 184.49 L 632.21 184.49 L 637.54 184.49 L 642.88 184.49 L 644.66 184.49 L 646.44 184.49 L 648.22 184.49 L 650.00 184.49" /><text  class="poloto_text poloto_legend_text" x="675" y="150" >Refinance 20</text><line  class="poloto_line poloto_legend_icon poloto1stroke poloto1legend" stroke="black" x1="680" x2="730" y1="131.25" y2="131.25" /><path  class="poloto_line poloto1stroke" fill="none" stroke="black" d=" M 150.00 345.68 L 151.78 368.31 L 157.12 334.58 L 158.90 324.24 L 160.68 333.73 L 160.68 333.73 L 164.23 304.07 L 169.57 301.53 L 171.35 312.29 L 173.13 300.25 L 174.91 311.02 L 176.69 290.85 L 182.03 321.69 L 183.81 290.85 L 183.81 290.85 L 187.37 290.85 L 187.37 290.85 L 194.48 250.17 L 196.26 282.71 L 198.04 290.85 L 199.82 301.53 L 201.60 280.59 L 208.72 260.00 L 210.50 257.37 L 212.28 252.12 L 214.06 240.08 L 219.40 245.34 L 221.17 268.14 L 224.73 260.00 L 226.51 257.37 L 231.85 248.81 L 233.63 258.73 L 235.41 258.73 L 235.41 258.73 L 238.97 258.73 L 244.31 260.00 L 246.09 281.44 L 246.09 281.44 L 247.86 269.41 L 249.64 289.58 L 251.42 281.44 L 256.76 282.71 L 258.54 281.44 L 260.32 281.44 L 260.32 281.44 L 262.10 282.71 L 263.88 289.58 L 269.22 290.85 L 271.00 294.66 L 272.78 294.66 L 274.56 294.66 L 276.33 294.66 L 283.45 289.58 L 285.23 278.81 L 287.01 281.44 L 288.79 281.44 L 288.79 281.44 L 295.91 268.14 L 297.69 270.68 L 299.47 261.27 L 306.58 215.85 L 308.36 197.03 L 310.14 207.80 L 311.92 215.85 L 313.70 238.56 L 319.04 225.17 L 320.82 218.47 L 322.60 239.92 L 324.38 250.17 L 331.49 250.17 L 333.27 238.56 L 335.05 249.32 L 336.83 260.00 L 338.61 272.03 L 345.73 280.08 L 347.51 269.41 L 349.29 258.73 L 351.07 251.44 L 356.41 257.37 L 359.96 260.00 L 361.74 258.73 L 368.86 260.00 L 368.86 260.00 L 368.86 260.00 L 368.86 260.00 L 368.86 260.00 L 368.86 260.00 L 368.86 260.00 L 368.86 260.00 L 368.86 260.00 L 368.86 260.00 L 368.86 260.00 L 368.86 260.00 L 381.32 280.08 L 384.88 282.71 L 386.65 301.53 L 388.43 304.07 L 393.77 301.27 L 395.55 301.27 L 397.33 290.85 L 399.11 294.66 L 400.89 278.81 L 406.23 270.68 L 406.23 270.68 L 408.01 270.68 L 411.57 281.44 L 411.57 281.44 L 420.46 278.81 L 422.24 260.00 L 424.02 260.00 L 431.14 246.19 L 434.70 234.58 L 434.70 234.58 L 438.26 247.54 L 445.37 215.85 L 445.37 215.85 L 445.37 215.85 L 445.37 215.85 L 445.37 215.85 L 445.37 215.85 L 445.37 215.85 L 445.37 215.85 L 445.37 215.85 L 450.71 215.85 L 461.39 202.37 L 468.51 203.73 L 472.06 203.73 L 473.84 203.73 L 473.84 203.73 L 482.74 203.73 L 484.52 203.73 L 484.52 203.73 L 484.52 203.73 L 484.52 203.73 L 505.87 203.73 L 507.65 203.73 L 518.33 118.81 L 520.11 102.97 L 520.11 102.97 L 589.50 155.34 L 593.06 155.34 L 594.84 155.34 L 598.40 174.15 L 600.18 175.51 L 600.18 175.51 L 607.30 175.51 L 609.07 175.51 L 610.85 175.51 L 612.63 175.51 L 617.97 175.51 L 619.75 175.51 L 623.31 175.51 L 625.09 175.51 L 630.43 175.51 L 632.21 175.51 L 632.21 175.51 L 637.54 175.51 L 642.88 175.51 L 644.66 175.51 L 646.44 175.51 L 648.22 175.51 L 650.00 175.51" /><text  class="poloto_text poloto_legend_text" x="675" y="200" >Refinance 30</text><line  class="poloto_line poloto_legend_icon poloto2stroke poloto2legend" stroke="black" x1="680" x2="730" y1="181.25" y2="181.25" /><path  class="poloto_line poloto2stroke" fill="none" stroke="black" d=" M 150.00 343.31 L 151.78 351.36 L 157.12 338.81 L 158.90 328.98 L 160.68 330.85 L 160.68 330.85 L 164.23 310.25 L 169.57 308.47 L 171.35 319.15 L 173.13 307.54 L 174.91 318.22 L 176.69 297.71 L 182.03 307.54 L 183.81 286.95 L 185.59 286.95 L 187.37 286.02 L 189.15 260.00 L 194.48 264.58 L 196.26 276.27 L 198.04 286.95 L 199.82 277.20 L 201.60 265.51 L 208.72 256.61 L 210.50 242.12 L 212.28 240.17 L 214.06 238.14 L 219.40 242.12 L 221.17 258.73 L 224.73 256.61 L 226.51 254.66 L 231.85 244.07 L 233.63 255.59 L 235.41 244.07 L 235.41 244.07 L 238.97 244.07 L 244.31 246.02 L 246.09 264.58 L 246.09 264.58 L 247.86 255.59 L 249.64 256.61 L 251.42 257.54 L 256.76 265.51 L 258.54 256.61 L 260.32 256.61 L 260.32 256.61 L 262.10 266.44 L 263.88 267.46 L 269.22 268.39 L 271.00 277.20 L 272.78 277.20 L 274.56 279.07 L 276.33 279.07 L 283.45 275.25 L 285.23 264.58 L 287.01 266.44 L 288.79 265.51 L 288.79 265.51 L 295.91 255.59 L 297.69 255.59 L 299.47 245.00 L 306.58 202.12 L 308.36 171.78 L 310.14 190.34 L 311.92 202.12 L 313.70 212.80 L 319.04 203.05 L 320.82 202.12 L 322.60 221.61 L 324.38 223.56 L 331.49 223.56 L 333.27 211.86 L 335.05 221.61 L 336.83 232.29 L 338.61 255.59 L 345.73 256.61 L 347.51 245.00 L 349.29 224.58 L 351.07 221.61 L 356.41 241.10 L 359.96 223.56 L 361.74 222.54 L 368.86 242.12 L 368.86 242.12 L 368.86 242.12 L 368.86 242.12 L 368.86 242.12 L 368.86 242.12 L 372.42 242.12 L 372.42 242.12 L 372.42 242.12 L 372.42 242.12 L 372.42 242.12 L 372.42 242.12 L 381.32 254.66 L 384.88 256.61 L 386.65 275.25 L 388.43 287.88 L 393.77 286.95 L 395.55 286.95 L 397.33 265.51 L 399.11 268.39 L 400.89 254.66 L 406.23 265.51 L 406.23 265.51 L 408.01 257.54 L 411.57 266.44 L 411.57 266.44 L 420.46 264.58 L 422.24 246.02 L 424.02 245.00 L 431.14 220.59 L 434.70 211.86 L 434.70 211.86 L 438.26 222.54 L 445.37 210.85 L 445.37 210.85 L 445.37 210.85 L 445.37 210.85 L 445.37 210.85 L 445.37 210.85 L 445.37 210.85 L 445.37 210.85 L 450.71 210.85 L 450.71 209.83 L 461.39 197.03 L 468.51 175.51 L 468.51 175.51 L 473.84 175.51 L 473.84 175.51 L 482.74 175.51 L 484.52 175.51 L 484.52 175.51 L 484.52 175.51 L 484.52 175.51 L 505.87 175.51 L 507.65 175.51 L 518.33 127.03 L 520.11 100.00 L 520.11 100.00 L 589.50 146.44 L 593.06 146.44 L 594.84 146.44 L 596.62 150.76 L 600.18 160.59 L 600.18 160.59 L 607.30 160.59 L 609.07 160.59 L 610.85 160.59 L 612.63 160.59 L 617.97 160.59 L 619.75 160.59 L 623.31 160.59 L 625.09 160.59 L 630.43 160.59 L 632.21 160.59 L 632.21 160.59 L 637.54 160.59 L 642.88 160.59 L 644.66 160.59 L 646.44 160.59 L 648.22 160.59 L 650.00 160.59" /><text  class="poloto_labels poloto_text poloto_title" x="400" y="37.5" >lower.com purchase rates</text><text  class="poloto_labels poloto_text poloto_xname" x="400" y="481.25" >Date</text><text  class="poloto_labels poloto_text poloto_yname" transform="rotate(-90,37.5,250)" x="37.5" y="250" >Rate (%)</text><text  class="poloto_tick_labels poloto_text" dominant-baseline="middle" text-anchor="start" x="150" y="70" ></text><line  class="poloto_axis_lines" stroke="black" x1="150" x2="144" y1="390.2542372881356" y2="390.2542372881356" /><line  class="poloto_tick_line" stroke="black" x1="150" x2="650" y1="390.2542372881356" y2="390.2542372881356" /><text  class="poloto_tick_labels poloto_text" dominant-baseline="middle" text-anchor="end" x="135" y="390.2542372881356" >3.625</text><line  class="poloto_axis_lines" stroke="black" x1="150" x2="144" y1="379.66101694915255" y2="379.66101694915255" /><line  class="poloto_tick_line" stroke="black" x1="150" x2="650" y1="379.66101694915255" y2="379.66101694915255" /><text  class="poloto_tick_labels poloto_text" dominant-baseline="middle" text-anchor="end" x="135" y="379.66101694915255" >3.75</text><line  class="poloto_axis_lines" stroke="black" x1="150" x2="144" y1="369.06779661016947" y2="369.06779661016947" /><line  class="poloto_tick_line" stroke="black" x1="150" x2="650" y1="369.06779661016947" y2="369.06779661016947" /><text  class="poloto_tick_labels poloto_text" dominant-baseline="middle" text-anchor="end" x="135" y="369.06779661016947" >3.875</text><line  class="poloto_axis_lines" stroke="black" x1="150" x2="144" y1="358.47457627118644" y2="358.47457627118644" /><line  class="poloto_tick_line" stroke="black" x1="150" x2="650" y1="358.47457627118644" y2="358.47457627118644" /><text  class="poloto_tick_labels poloto_text" dominant-baseline="middle" text-anchor="end" x="135" y="358.47457627118644" >4</text><line  class="poloto_axis_lines" stroke="black" x1="150" x2="144" y1="347.8813559322034" y2="347.8813559322034" /><line  class="poloto_tick_line" stroke="black" x1="150" x2="650" y1="347.8813559322034" y2="347.8813559322034" /><text  class="poloto_tick_labels poloto_text" dominant-baseline="middle" text-anchor="end" x="135" y="347.8813559322034" >4.125</text><line  class="poloto_axis_lines" stroke="black" x1="150" x2="144" y1="337.2881355932203" y2="337.2881355932203" /><line  class="poloto_tick_line" stroke="black" x1="150" x2="650" y1="337.2881355932203" y2="337.2881355932203" /><text  class="poloto_tick_labels poloto_text" dominant-baseline="middle" text-anchor="end" x="135" y="337.2881355932203" >4.25</text><line  class="poloto_axis_lines" stroke="black" x1="150" x2="144" y1="326.6949152542373" y2="326.6949152542373" /><line  class="poloto_tick_line" stroke="black" x1="150" x2="650" y1="326.6949152542373" y2="326.6949152542373" /><text  class="poloto_tick_labels poloto_text" dominant-baseline="middle" text-anchor="end" x="135" y="326.6949152542373" >4.375</text><line  class="poloto_axis_lines" stroke="black" x1="150" x2="144" y1="316.10169491525426" y2="316.10169491525426" /><line  class="poloto_tick_line" stroke="black" x1="150" x2="650" y1="316.10169491525426" y2="316.10169491525426" /><text  class="poloto_tick_labels poloto_text" dominant-baseline="middle" text-anchor="end" x="135" y="316.10169491525426" >4.5</text><line  class="poloto_axis_lines" stroke="black" x1="150" x2="144" y1="305.50847457627117" y2="305.50847457627117" /><line  class="poloto_tick_line" stroke="black" x1="150" x2="650" y1="305.50847457627117" y2="305.50847457627117" /><text  class="poloto_tick_labels poloto_text" dominant-baseline="middle" text-anchor="end" x="135" y="305.50847457627117" >4.625</text><line  class="poloto_axis_lines" stroke="black" x1="150" x2="144" y1="294.91525423728814" y2="294.91525423728814" /><line  class="poloto_tick_line" stroke="black" x1="150" x2="650" y1="294.91525423728814" y2="294.91525423728814" /><text  class="poloto_tick_labels poloto_text" dominant-baseline="middle" text-anchor="end" x="135" y="294.91525423728814" >4.75</text><line  class="poloto_axis_lines" stroke="black" x1="150" x2="144" y1="284.3220338983051" y2="284.3220338983051" /><line  class="poloto_tick_line" stroke="black" x1="150" x2="650" y1="284.3220338983051" y2="284.3220338983051" /><text  class="poloto_tick_labels poloto_text" dominant-baseline="middle" text-anchor="end" x="135" y="284.3220338983051" >4.875</text><line  class="poloto_axis_lines" stroke="black" x1="150" x2="144" y1="273.728813559322" y2="273.728813559322" /><line  class="poloto_tick_line" stroke="black" x1="150" x2="650" y1="273.728813559322" y2="273.728813559322" /><text  class="poloto_tick_labels poloto_text" dominant-baseline="middle" text-anchor="end" x="135" y="273.728813559322" >5</text><line  class="poloto_axis_lines" stroke="black" x1="150" x2="144" y1="263.135593220339" y2="263.135593220339" /><line  class="poloto_tick_line" stroke="black" x1="150" x2="650" y1="263.135593220339" y2="263.135593220339" /><text  class="poloto_tick_labels poloto_text" dominant-baseline="middle" text-anchor="end" x="135" y="263.135593220339" >5.125</text><line  class="poloto_axis_lines" stroke="black" x1="150" x2="144" y1="252.54237288135596" y2="252.54237288135596" /><line  class="poloto_tick_line" stroke="black" x1="150" x2="650" y1="252.54237288135596" y2="252.54237288135596" /><text  class="poloto_tick_labels poloto_text" dominant-baseline="middle" text-anchor="end" x="135" y="252.54237288135596" >5.25</text><line  class="poloto_axis_lines" stroke="black" x1="150" x2="144" y1="241.94915254237287" y2="241.94915254237287" /><line  class="poloto_tick_line" stroke="black" x1="150" x2="650" y1="241.94915254237287" y2="241.94915254237287" /><text  class="poloto_tick_labels poloto_text" dominant-baseline="middle" text-anchor="end" x="135" y="241.94915254237287" >5.375</text><line  class="poloto_axis_lines" stroke="black" x1="150" x2="144" y1="231.35593220338984" y2="231.35593220338984" /><line  class="poloto_tick_line" stroke="black" x1="150" x2="650" y1="231.35593220338984" y2="231.35593220338984" /><text  class="poloto_tick_labels poloto_text" dominant-baseline="middle" text-anchor="end" x="135" y="231.35593220338984" >5.5</text><line  class="poloto_axis_lines" stroke="black" x1="150" x2="144" y1="220.7627118644068" y2="220.7627118644068" /><line  class="poloto_tick_line" stroke="black" x1="150" x2="650" y1="220.7627118644068" y2="220.7627118644068" /><text  class="poloto_tick_labels poloto_text" dominant-baseline="middle" text-anchor="end" x="135" y="220.7627118644068" >5.625</text><line  class="poloto_axis_lines" stroke="black" x1="150" x2="144" y1="210.16949152542372" y2="210.16949152542372" /><line  class="poloto_tick_line" stroke="black" x1="150" x2="650" y1="210.16949152542372" y2="210.16949152542372" /><text  class="poloto_tick_labels poloto_text" dominant-baseline="middle" text-anchor="end" x="135" y="210.16949152542372" >5.75</text><line  class="poloto_axis_lines" stroke="black" x1="150" x2="144" y1="199.5762711864407" y2="199.5762711864407" /><line  class="poloto_tick_line" stroke="black" x1="150" x2="650" y1="199.5762711864407" y2="199.5762711864407" /><text  class="poloto_tick_labels poloto_text" dominant-baseline="middle" text-anchor="end" x="135" y="199.5762711864407" >5.875</text><line  class="poloto_axis_lines" stroke="black" x1="150" x2="144" y1="188.98305084745766" y2="188.98305084745766" /><line  class="poloto_tick_line" stroke="black" x1="150" x2="650" y1="188.98305084745766" y2="188.98305084745766" /><text  class="poloto_tick_labels poloto_text" dominant-baseline="middle" text-anchor="end" x="135" y="188.98305084745766" >6</text><line  class="poloto_axis_lines" stroke="black" x1="150" x2="144" y1="178.38983050847457" y2="178.38983050847457" /><line  class="poloto_tick_line" stroke="black" x1="150" x2="650" y1="178.38983050847457" y2="178.38983050847457" /><text  class="poloto_tick_labels poloto_text" dominant-baseline="middle" text-anchor="end" x="135" y="178.38983050847457" >6.125</text><line  class="poloto_axis_lines" stroke="black" x1="150" x2="144" y1="167.7966101694915" y2="167.7966101694915" /><line  class="poloto_tick_line" stroke="black" x1="150" x2="650" y1="167.7966101694915" y2="167.7966101694915" /><text  class="poloto_tick_labels poloto_text" dominant-baseline="middle" text-anchor="end" x="135" y="167.7966101694915" >6.25</text><line  class="poloto_axis_lines" stroke="black" x1="150" x2="144" y1="157.2033898305085" y2="157.2033898305085" /><line  class="poloto_tick_line" stroke="black" x1="150" x2="650" y1="157.2033898305085" y2="157.2033898305085" /><text  class="poloto_tick_labels poloto_text" dominant-baseline="middle" text-anchor="end" x="135" y="157.2033898305085" >6.375</text><line  class="poloto_axis_lines" stroke="black" x1="150" x2="144" y1="146.61016949152543" y2="146.61016949152543" /><line  class="poloto_tick_line" stroke="black" x1="150" x2="650" y1="146.61016949152543" y2="146.61016949152543" /><text  class="poloto_tick_labels poloto_text" dominant-baseline="middle" text-anchor="end" x="135" y="146.61016949152543" >6.5</text><line  class="poloto_axis_lines" stroke="black" x1="150" x2="144" y1="136.01694915254234" y2="136.01694915254234" /><line  class="poloto_tick_line" stroke="black" x1="150" x2="650" y1="136.01694915254234" y2="136.01694915254234" /><text  class="poloto_tick_labels poloto_text" dominant-baseline="middle" text-anchor="end" x="135" y="136.01694915254234" >6.625</text><line  class="poloto_axis_lines" stroke="black" x1="150" x2="144" y1="125.42372881355936" y2="125.42372881355936" /><line  class="poloto_tick_line" stroke="black" x1="150" x2="650" y1="125.42372881355936" y2="125.42372881355936" /><text  class="poloto_tick_labels poloto_text" dominant-baseline="middle" text-anchor="end" x="135" y="125.42372881355936" >6.75</text><line  class="poloto_axis_lines" stroke="black" x1="150" x2="144" y1="114.83050847457628" y2="114.83050847457628" /><line  class="poloto_tick_line" stroke="black" x1="150" x2="650" y1="114.83050847457628" y2="114.83050847457628" /><text  class="poloto_tick_labels poloto_text" dominant-baseline="middle" text-anchor="end" x="135" y="114.83050847457628" >6.875</text><line  class="poloto_axis_lines" stroke="black" x1="150" x2="144" y1="104.23728813559319" y2="104.23728813559319" /><line  class="poloto_tick_line" stroke="black" x1="150" x2="650" y1="104.23728813559319" y2="104.23728813559319" /><text  class="poloto_tick_labels poloto_text" dominant-baseline="middle" text-anchor="end" x="135" y="104.23728813559319" >7</text><text  class="poloto_tick_labels poloto_text" dominant-baseline="middle" text-anchor="start" x="440.00000000000006" y="70" >¹2022-05-01 00:00:00 UTC in Months</text><line  class="poloto_axis_lines" stroke="black" x1="230.07117437722627" x2="230.07117437722627" y1="400" y2="405" /><line  class="poloto_tick_line" stroke="black" x1="230.07117437722627" x2="230.07117437722627" y1="400" y2="100" /><text  class="poloto_tick_labels poloto_text" dominant-baseline="start" text-anchor="middle" x="230.07117437722627" y="430" >2022 May¹</text><line  class="poloto_axis_lines" stroke="black" x1="338.6120996441314" x2="338.6120996441314" y1="400" y2="405" /><line  class="poloto_tick_line" stroke="black" x1="338.6120996441314" x2="338.6120996441314" y1="400" y2="100" /><text  class="poloto_tick_labels poloto_text" dominant-baseline="start" text-anchor="middle" x="338.6120996441314" y="430" >2022 Jul</text><line  class="poloto_axis_lines" stroke="black" x1="448.9323843416423" x2="448.9323843416423" y1="400" y2="405" /><line  class="poloto_tick_line" stroke="black" x1="448.9323843416423" x2="448.9323843416423" y1="400" y2="100" /><text  class="poloto_tick_labels poloto_text" dominant-baseline="start" text-anchor="middle" x="448.9323843416423" y="430" >2022 Sep</text><line  class="poloto_axis_lines" stroke="black" x1="557.4733096085474" x2="557.4733096085474" y1="400" y2="405" /><line  class="poloto_tick_line" stroke="black" x1="557.4733096085474" x2="557.4733096085474" y1="400" y2="100" /><text  class="poloto_tick_labels poloto_text" dominant-baseline="start" text-anchor="middle" x="557.4733096085474" y="430" >2022 Nov</text><path  stroke="black" fill="none" class="poloto_axis_lines" d=" M 150 400 L 650 400" /><path  stroke="black" fill="none" class="poloto_axis_lines" d=" M 150 400 L 150 100" /></svg>