<svg class="poloto" width="800" height="500" viewBox="0 0 800 500" xmlns="http://www.w3.org/2000/svg"><style>.poloto{stroke-linecap:round;stroke-linejoin:round;font-family:Roboto,sans-serif;font-size:16px;}.poloto_background{fill:#262626;}.poloto_scatter{stroke-width:7}.poloto_tick_line{stroke:dimgray;stroke-width:0.5}.poloto_line{stroke-width:2}.poloto_text{fill: white;}.poloto_axis_lines{stroke: white;stroke-width:3;fill:none;stroke-dasharray:none}.poloto_title{font-size:24px;dominant-baseline:start;text-anchor:middle;}.poloto_xname{font-size:24px;dominant-baseline:start;text-anchor:middle;}.poloto_yname{font-size:24px;dominant-baseline:start;text-anchor:middle;}.poloto0stroke{stroke:blue;}.poloto1stroke{stroke:red;}.poloto2stroke{stroke:green;}.poloto3stroke{stroke:gold;}.poloto4stroke{stroke:aqua;}.poloto5stroke{stroke:lime;}.poloto6stroke{stroke:orange;}.poloto7stroke{stroke:chocolate;}.poloto0fill{fill:blue;}.poloto1fill{fill:red;}.poloto2fill{fill:green;}.poloto3fill{fill:gold;}.poloto4fill{fill:aqua;}.poloto5fill{fill:lime;}.poloto6fill{fill:orange;}.poloto7fill{fill:chocolate;}</style><circle  r="1e5" class="poloto_background" /><text  class="poloto_text poloto_legend_text" x="675" y="100" >Refinance 15</text><line  class="poloto_line poloto_legend_icon poloto0stroke poloto0legend" stroke="black" x1="680" x2="730" y1="81.25" y2="81.25" /><path  class="poloto_line poloto0stroke" fill="none" stroke="black" d=" M 150.00 392.46 L 151.75 400.00 L 157.02 389.32 L 158.77 380.17 L 160.53 389.32 L 160.53 389.32 L 164.04 358.81 L 169.30 357.20 L 171.05 367.88 L 172.81 344.83 L 174.56 346.44 L 176.32 341.61 L 181.58 343.22 L 183.33 336.78 L 183.33 336.78 L 186.84 337.37 L 188.60 314.32 L 193.86 324.32 L 195.61 327.54 L 197.37 327.54 L 199.12 326.69 L 200.88 321.78 L 207.89 278.73 L 209.65 297.88 L 211.40 283.05 L 213.16 277.29 L 213.16 277.29 L 220.18 299.58 L 223.68 303.64 L 225.44 294.58 L 230.70 283.81 L 232.46 305.25 L 234.21 294.58 L 234.21 294.58 L 237.72 292.88 L 242.98 296.19 L 244.74 306.86 L 244.74 306.86 L 246.49 297.80 L 248.25 308.56 L 250.00 292.88 L 255.26 325.08 L 257.02 324.32 L 258.77 306.86 L 258.77 306.86 L 260.53 314.32 L 262.28 317.63 L 267.54 317.63 L 269.30 329.15 L 271.05 329.15 L 272.81 329.15 L 274.56 329.15 L 281.58 317.63 L 283.33 314.32 L 285.09 315.93 L 286.84 315.93 L 286.84 315.93 L 293.86 305.25 L 295.61 305.25 L 297.37 296.19 L 304.39 281.36 L 306.14 250.76 L 307.89 254.15 L 309.65 254.15 L 311.40 275.59 L 316.67 254.15 L 318.42 254.15 L 320.18 273.90 L 321.93 277.29 L 328.95 277.29 L 330.70 275.59 L 332.46 280.59 L 334.21 285.51 L 335.96 296.19 L 342.98 303.64 L 344.74 294.58 L 346.49 287.12 L 348.25 283.81 L 353.51 285.51 L 357.02 285.51 L 358.77 283.81 L 365.79 282.20 L 365.79 282.20 L 365.79 282.20 L 365.79 282.20 L 365.79 282.20 L 365.79 282.20 L 369.30 282.20 L 369.30 282.20 L 369.30 282.20 L 369.30 282.20 L 369.30 282.20 L 369.30 282.20 L 378.07 294.58 L 381.58 297.80 L 383.33 325.93 L 385.09 329.15 L 390.35 329.15 L 392.11 327.54 L 393.86 305.25 L 395.61 299.49 L 397.37 285.51 L 402.63 296.19 L 402.63 296.19 L 404.39 287.12 L 407.89 296.19 L 407.89 296.19 L 416.67 296.19 L 418.42 262.46 L 420.18 282.20 L 427.19 248.39 L 430.70 248.39 L 430.70 248.39 L 434.21 260.76 L 441.23 254.15 L 441.23 254.15 L 441.23 254.15 L 441.23 254.15 L 441.23 254.15 L 441.23 254.15 L 441.23 254.15 L 441.23 254.15 L 441.23 254.15 L 446.49 254.15 L 457.02 232.63 L 464.04 235.17 L 464.04 235.17 L 469.30 235.17 L 476.32 235.17 L 478.07 235.17 L 478.07 235.17 L 478.07 235.17 L 478.07 235.17 L 478.07 235.17 L 500.88 235.17 L 502.63 235.17 L 513.16 139.75 L 514.91 130.68 L 516.67 130.68 L 579.82 159.15 L 586.84 159.15 L 588.60 159.15 L 590.35 175.51 L 593.86 184.49 L 593.86 184.49 L 600.88 184.49 L 602.63 184.49 L 604.39 184.49 L 606.14 184.49 L 611.40 184.49 L 613.16 184.49 L 616.67 184.49 L 618.42 184.49 L 623.68 184.49 L 625.44 184.49 L 625.44 184.49 L 630.70 184.49 L 635.96 184.49 L 637.72 184.49 L 639.47 184.49 L 641.23 184.49 L 642.98 184.49 L 650.00 209.15" /><text  class="poloto_text poloto_legend_text" x="675" y="150" >Refinance 20</text><line  class="poloto_line poloto_legend_icon poloto1stroke poloto1legend" stroke="black" x1="680" x2="730" y1="131.25" y2="131.25" /><path  class="poloto_line poloto1stroke" fill="none" stroke="black" d=" M 150.00 345.68 L 151.75 368.31 L 157.02 334.58 L 158.77 324.24 L 160.53 333.73 L 160.53 333.73 L 164.04 304.07 L 169.30 301.53 L 171.05 312.29 L 172.81 300.25 L 174.56 311.02 L 176.32 290.85 L 181.58 321.69 L 183.33 290.85 L 183.33 290.85 L 186.84 290.85 L 186.84 290.85 L 193.86 250.17 L 195.61 282.71 L 197.37 290.85 L 199.12 301.53 L 200.88 280.59 L 207.89 260.00 L 209.65 257.37 L 211.40 252.12 L 213.16 240.08 L 218.42 245.34 L 220.18 268.14 L 223.68 260.00 L 225.44 257.37 L 230.70 248.81 L 232.46 258.73 L 234.21 258.73 L 234.21 258.73 L 237.72 258.73 L 242.98 260.00 L 244.74 281.44 L 244.74 281.44 L 246.49 269.41 L 248.25 289.58 L 250.00 281.44 L 255.26 282.71 L 257.02 281.44 L 258.77 281.44 L 258.77 281.44 L 260.53 282.71 L 262.28 289.58 L 267.54 290.85 L 269.30 294.66 L 271.05 294.66 L 272.81 294.66 L 274.56 294.66 L 281.58 289.58 L 283.33 278.81 L 285.09 281.44 L 286.84 281.44 L 286.84 281.44 L 293.86 268.14 L 295.61 270.68 L 297.37 261.27 L 304.39 215.85 L 306.14 197.03 L 307.89 207.80 L 309.65 215.85 L 311.40 238.56 L 316.67 225.17 L 318.42 218.47 L 320.18 239.92 L 321.93 250.17 L 328.95 250.17 L 330.70 238.56 L 332.46 249.32 L 334.21 260.00 L 335.96 272.03 L 342.98 280.08 L 344.74 269.41 L 346.49 258.73 L 348.25 251.44 L 353.51 257.37 L 357.02 260.00 L 358.77 258.73 L 365.79 260.00 L 365.79 260.00 L 365.79 260.00 L 365.79 260.00 L 365.79 260.00 L 365.79 260.00 L 365.79 260.00 L 365.79 260.00 L 365.79 260.00 L 365.79 260.00 L 365.79 260.00 L 365.79 260.00 L 378.07 280.08 L 381.58 282.71 L 383.33 301.53 L 385.09 304.07 L 390.35 301.27 L 392.11 301.27 L 393.86 290.85 L 395.61 294.66 L 397.37 278.81 L 402.63 270.68 L 402.63 270.68 L 404.39 270.68 L 407.89 281.44 L 407.89 281.44 L 416.67 278.81 L 418.42 260.00 L 420.18 260.00 L 427.19 246.19 L 430.70 234.58 L 430.70 234.58 L 434.21 247.54 L 441.23 215.85 L 441.23 215.85 L 441.23 215.85 L 441.23 215.85 L 441.23 215.85 L 441.23 215.85 L 441.23 215.85 L 441.23 215.85 L 441.23 215.85 L 446.49 215.85 L 457.02 202.37 L 464.04 203.73 L 467.54 203.73 L 469.30 203.73 L 469.30 203.73 L 478.07 203.73 L 479.82 203.73 L 479.82 203.73 L 479.82 203.73 L 479.82 203.73 L 500.88 203.73 L 502.63 203.73 L 513.16 118.81 L 514.91 102.97 L 514.91 102.97 L 583.33 155.34 L 586.84 155.34 L 588.60 155.34 L 592.11 174.15 L 593.86 175.51 L 593.86 175.51 L 600.88 175.51 L 602.63 175.51 L 604.39 175.51 L 606.14 175.51 L 611.40 175.51 L 613.16 175.51 L 616.67 175.51 L 618.42 175.51 L 623.68 175.51 L 625.44 175.51 L 625.44 175.51 L 630.70 175.51 L 635.96 175.51 L 637.72 175.51 L 639.47 175.51 L 641.23 175.51 L 642.98 175.51 L 650.00 156.36" /><text  class="poloto_text poloto_legend_text" x="675" y="200" >Refinance 30</text><line  class="poloto_line poloto_legend_icon poloto2stroke poloto2legend" stroke="black" x1="680" x2="730" y1="181.25" y2="181.25" /><path  class="poloto_line poloto2stroke" fill="none" stroke="black" d=" M 150.00 343.31 L 151.75 351.36 L 157.02 338.81 L 158.77 328.98 L 160.53 330.85 L 160.53 330.85 L 164.04 310.25 L 169.30 308.47 L 171.05 319.15 L 172.81 307.54 L 174.56 318.22 L 176.32 297.71 L 181.58 307.54 L 183.33 286.95 L 185.09 286.95 L 186.84 286.02 L 188.60 260.00 L 193.86 264.58 L 195.61 276.27 L 197.37 286.95 L 199.12 277.20 L 200.88 265.51 L 207.89 256.61 L 209.65 242.12 L 211.40 240.17 L 213.16 238.14 L 218.42 242.12 L 220.18 258.73 L 223.68 256.61 L 225.44 254.66 L 230.70 244.07 L 232.46 255.59 L 234.21 244.07 L 234.21 244.07 L 237.72 244.07 L 242.98 246.02 L 244.74 264.58 L 244.74 264.58 L 246.49 255.59 L 248.25 256.61 L 250.00 257.54 L 255.26 265.51 L 257.02 256.61 L 258.77 256.61 L 258.77 256.61 L 260.53 266.44 L 262.28 267.46 L 267.54 268.39 L 269.30 277.20 L 271.05 277.20 L 272.81 279.07 L 274.56 279.07 L 281.58 275.25 L 283.33 264.58 L 285.09 266.44 L 286.84 265.51 L 286.84 265.51 L 293.86 255.59 L 295.61 255.59 L 297.37 245.00 L 304.39 202.12 L 306.14 171.78 L 307.89 190.34 L 309.65 202.12 L 311.40 212.80 L 316.67 203.05 L 318.42 202.12 L 320.18 221.61 L 321.93 223.56 L 328.95 223.56 L 330.70 211.86 L 332.46 221.61 L 334.21 232.29 L 335.96 255.59 L 342.98 256.61 L 344.74 245.00 L 346.49 224.58 L 348.25 221.61 L 353.51 241.10 L 357.02 223.56 L 358.77 222.54 L 365.79 242.12 L 365.79 242.12 L 365.79 242.12 L 365.79 242.12 L 365.79 242.12 L 365.79 242.12 L 369.30 242.12 L 369.30 242.12 L 369.30 242.12 L 369.30 242.12 L 369.30 242.12 L 369.30 242.12 L 378.07 254.66 L 381.58 256.61 L 383.33 275.25 L 385.09 287.88 L 390.35 286.95 L 392.11 286.95 L 393.86 265.51 L 395.61 268.39 L 397.37 254.66 L 402.63 265.51 L 402.63 265.51 L 404.39 257.54 L 407.89 266.44 L 407.89 266.44 L 416.67 264.58 L 418.42 246.02 L 420.18 245.00 L 427.19 220.59 L 430.70 211.86 L 430.70 211.86 L 434.21 222.54 L 441.23 210.85 L 441.23 210.85 L 441.23 210.85 L 441.23 210.85 L 441.23 210.85 L 441.23 210.85 L 441.23 210.85 L 441.23 210.85 L 446.49 210.85 L 446.49 209.83 L 457.02 197.03 L 464.04 175.51 L 464.04 175.51 L 469.30 175.51 L 469.30 175.51 L 478.07 175.51 L 479.82 175.51 L 479.82 175.51 L 479.82 175.51 L 479.82 175.51 L 500.88 175.51 L 502.63 175.51 L 513.16 127.03 L 514.91 100.00 L 514.91 100.00 L 583.33 146.44 L 586.84 146.44 L 588.60 146.44 L 590.35 150.76 L 593.86 160.59 L 593.86 160.59 L 600.88 160.59 L 602.63 160.59 L 604.39 160.59 L 606.14 160.59 L 611.40 160.59 L 613.16 160.59 L 616.67 160.59 L 618.42 160.59 L 623.68 160.59 L 625.44 160.59 L 625.44 160.59 L 630.70 160.59 L 635.96 160.59 L 637.72 160.59 L 639.47 160.59 L 641.23 160.59 L 642.98 160.59 L 650.00 144.24" /><text  class="poloto_labels poloto_text poloto_title" x="400" y="37.5" >lower.com purchase rates</text><text  class="poloto_labels poloto_text poloto_xname" x="400" y="481.25" >Date</text><text  class="poloto_labels poloto_text poloto_yname" transform="rotate(-90,37.5,250)" x="37.5" y="250" >Rate (%)</text><text  class="poloto_tick_labels poloto_text" dominant-baseline="middle" text-anchor="start" x="150" y="70" ></text><line  class="poloto_axis_lines" stroke="black" x1="150" x2="144" y1="390.2542372881356" y2="390.2542372881356" /><line  class="poloto_tick_line" stroke="black" x1="150" x2="650" y1="390.2542372881356" y2="390.2542372881356" /><text  class="poloto_tick_labels poloto_text" dominant-baseline="middle" text-anchor="end" x="135" y="390.2542372881356" >3.625</text><line  class="poloto_axis_lines" stroke="black" x1="150" x2="144" y1="379.66101694915255" y2="379.66101694915255" /><line  class="poloto_tick_line" stroke="black" x1="150" x2="650" y1="379.66101694915255" y2="379.66101694915255" /><text  class="poloto_tick_labels poloto_text" dominant-baseline="middle" text-anchor="end" x="135" y="379.66101694915255" >3.75</text><line  class="poloto_axis_lines" stroke="black" x1="150" x2="144" y1="369.06779661016947" y2="369.06779661016947" /><line  class="poloto_tick_line" stroke="black" x1="150" x2="650" y1="369.06779661016947" y2="369.06779661016947" /><text  class="poloto_tick_labels poloto_text" dominant-baseline="middle" text-anchor="end" x="135" y="369.06779661016947" >3.875</text><line  class="poloto_axis_lines" stroke="black" x1="150" x2="144" y1="358.47457627118644" y2="358.47457627118644" /><line  class="poloto_tick_line" stroke="black" x1="150" x2="650" y1="358.47457627118644" y2="358.47457627118644" /><text  class="poloto_tick_labels poloto_text" dominant-baseline="middle" text-anchor="end" x="135" y="358.47457627118644" >4</text><line  class="poloto_axis_lines" stroke="black" x1="150" x2="144" y1="347.8813559322034" y2="347.8813559322034" /><line  class="poloto_tick_line" stroke="black" x1="150" x2="650" y1="347.8813559322034" y2="347.8813559322034" /><text  class="poloto_tick_labels poloto_text" dominant-baseline="middle" text-anchor="end" x="135" y="347.8813559322034" >4.125</text><line  class="poloto_axis_lines" stroke="black" x1="150" x2="144" y1="337.2881355932203" y2="337.2881355932203" /><line  class="poloto_tick_line" stroke="black" x1="150" x2="650" y1="337.2881355932203" y2="337.2881355932203" /><text  class="poloto_tick_labels poloto_text" dominant-baseline="middle" text-anchor="end" x="135" y="337.2881355932203" >4.25</text><line  class="poloto_axis_lines" stroke="black" x1="150" x2="144" y1="326.6949152542373" y2="326.6949152542373" /><line  class="poloto_tick_line" stroke="black" x1="150" x2="650" y1="326.6949152542373" y2="326.6949152542373" /><text  class="poloto_tick_labels poloto_text" dominant-baseline="middle" text-anchor="end" x="135" y="326.6949152542373" >4.375</text><line  class="poloto_axis_lines" stroke="black" x1="150" x2="144" y1="316.10169491525426" y2="316.10169491525426" /><line  class="poloto_tick_line" stroke="black" x1="150" x2="650" y1="316.10169491525426" y2="316.10169491525426" /><text  class="poloto_tick_labels poloto_text" dominant-baseline="middle" text-anchor="end" x="135" y="316.10169491525426" >4.5</text><line  class="poloto_axis_lines" stroke="black" x1="150" x2="144" y1="305.50847457627117" y2="305.50847457627117" /><line  class="poloto_tick_line" stroke="black" x1="150" x2="650" y1="305.50847457627117" y2="305.50847457627117" /><text  class="poloto_tick_labels poloto_text" dominant-baseline="middle" text-anchor="end" x="135" y="305.50847457627117" >4.625</text><line  class="poloto_axis_lines" stroke="black" x1="150" x2="144" y1="294.91525423728814" y2="294.91525423728814" /><line  class="poloto_tick_line" stroke="black" x1="150" x2="650" y1="294.91525423728814" y2="294.91525423728814" /><text  class="poloto_tick_labels poloto_text" dominant-baseline="middle" text-anchor="end" x="135" y="294.91525423728814" >4.75</text><line  class="poloto_axis_lines" stroke="black" x1="150" x2="144" y1="284.3220338983051" y2="284.3220338983051" /><line  class="poloto_tick_line" stroke="black" x1="150" x2="650" y1="284.3220338983051" y2="284.3220338983051" /><text  class="poloto_tick_labels poloto_text" dominant-baseline="middle" text-anchor="end" x="135" y="284.3220338983051" >4.875</text><line  class="poloto_axis_lines" stroke="black" x1="150" x2="144" y1="273.728813559322" y2="273.728813559322" /><line  class="poloto_tick_line" stroke="black" x1="150" x2="650" y1="273.728813559322" y2="273.728813559322" /><text  class="poloto_tick_labels poloto_text" dominant-baseline="middle" text-anchor="end" x="135" y="273.728813559322" >5</text><line  class="poloto_axis_lines" stroke="black" x1="150" x2="144" y1="263.135593220339" y2="263.135593220339" /><line  class="poloto_tick_line" stroke="black" x1="150" x2="650" y1="263.135593220339" y2="263.135593220339" /><text  class="poloto_tick_labels poloto_text" dominant-baseline="middle" text-anchor="end" x="135" y="263.135593220339" >5.125</text><line  class="poloto_axis_lines" stroke="black" x1="150" x2="144" y1="252.54237288135596" y2="252.54237288135596" /><line  class="poloto_tick_line" stroke="black" x1="150" x2="650" y1="252.54237288135596" y2="252.54237288135596" /><text  class="poloto_tick_labels poloto_text" dominant-baseline="middle" text-anchor="end" x="135" y="252.54237288135596" >5.25</text><line  class="poloto_axis_lines" stroke="black" x1="150" x2="144" y1="241.94915254237287" y2="241.94915254237287" /><line  class="poloto_tick_line" stroke="black" x1="150" x2="650" y1="241.94915254237287" y2="241.94915254237287" /><text  class="poloto_tick_labels poloto_text" dominant-baseline="middle" text-anchor="end" x="135" y="241.94915254237287" >5.375</text><line  class="poloto_axis_lines" stroke="black" x1="150" x2="144" y1="231.35593220338984" y2="231.35593220338984" /><line  class="poloto_tick_line" stroke="black" x1="150" x2="650" y1="231.35593220338984" y2="231.35593220338984" /><text  class="poloto_tick_labels poloto_text" dominant-baseline="middle" text-anchor="end" x="135" y="231.35593220338984" >5.5</text><line  class="poloto_axis_lines" stroke="black" x1="150" x2="144" y1="220.7627118644068" y2="220.7627118644068" /><line  class="poloto_tick_line" stroke="black" x1="150" x2="650" y1="220.7627118644068" y2="220.7627118644068" /><text  class="poloto_tick_labels poloto_text" dominant-baseline="middle" text-anchor="end" x="135" y="220.7627118644068" >5.625</text><line  class="poloto_axis_lines" stroke="black" x1="150" x2="144" y1="210.16949152542372" y2="210.16949152542372" /><line  class="poloto_tick_line" stroke="black" x1="150" x2="650" y1="210.16949152542372" y2="210.16949152542372" /><text  class="poloto_tick_labels poloto_text" dominant-baseline="middle" text-anchor="end" x="135" y="210.16949152542372" >5.75</text><line  class="poloto_axis_lines" stroke="black" x1="150" x2="144" y1="199.5762711864407" y2="199.5762711864407" /><line  class="poloto_tick_line" stroke="black" x1="150" x2="650" y1="199.5762711864407" y2="199.5762711864407" /><text  class="poloto_tick_labels poloto_text" dominant-baseline="middle" text-anchor="end" x="135" y="199.5762711864407" >5.875</text><line  class="poloto_axis_lines" stroke="black" x1="150" x2="144" y1="188.98305084745766" y2="188.98305084745766" /><line  class="poloto_tick_line" stroke="black" x1="150" x2="650" y1="188.98305084745766" y2="188.98305084745766" /><text  class="poloto_tick_labels poloto_text" dominant-baseline="middle" text-anchor="end" x="135" y="188.98305084745766" >6</text><line  class="poloto_axis_lines" stroke="black" x1="150" x2="144" y1="178.38983050847457" y2="178.38983050847457" /><line  class="poloto_tick_line" stroke="black" x1="150" x2="650" y1="178.38983050847457" y2="178.38983050847457" /><text  class="poloto_tick_labels poloto_text" dominant-baseline="middle" text-anchor="end" x="135" y="178.38983050847457" >6.125</text><line  class="poloto_axis_lines" stroke="black" x1="150" x2="144" y1="167.7966101694915" y2="167.7966101694915" /><line  class="poloto_tick_line" stroke="black" x1="150" x2="650" y1="167.7966101694915" y2="167.7966101694915" /><text  class="poloto_tick_labels poloto_text" dominant-baseline="middle" text-anchor="end" x="135" y="167.7966101694915" >6.25</text><line  class="poloto_axis_lines" stroke="black" x1="150" x2="144" y1="157.2033898305085" y2="157.2033898305085" /><line  class="poloto_tick_line" stroke="black" x1="150" x2="650" y1="157.2033898305085" y2="157.2033898305085" /><text  class="poloto_tick_labels poloto_text" dominant-baseline="middle" text-anchor="end" x="135" y="157.2033898305085" >6.375</text><line  class="poloto_axis_lines" stroke="black" x1="150" x2="144" y1="146.61016949152543" y2="146.61016949152543" /><line  class="poloto_tick_line" stroke="black" x1="150" x2="650" y1="146.61016949152543" y2="146.61016949152543" /><text  class="poloto_tick_labels poloto_text" dominant-baseline="middle" text-anchor="end" x="135" y="146.61016949152543" >6.5</text><line  class="poloto_axis_lines" stroke="black" x1="150" x2="144" y1="136.01694915254234" y2="136.01694915254234" /><line  class="poloto_tick_line" stroke="black" x1="150" x2="650" y1="136.01694915254234" y2="136.01694915254234" /><text  class="poloto_tick_labels poloto_text" dominant-baseline="middle" text-anchor="end" x="135" y="136.01694915254234" >6.625</text><line  class="poloto_axis_lines" stroke="black" x1="150" x2="144" y1="125.42372881355936" y2="125.42372881355936" /><line  class="poloto_tick_line" stroke="black" x1="150" x2="650" y1="125.42372881355936" y2="125.42372881355936" /><text  class="poloto_tick_labels poloto_text" dominant-baseline="middle" text-anchor="end" x="135" y="125.42372881355936" >6.75</text><line  class="poloto_axis_lines" stroke="black" x1="150" x2="144" y1="114.83050847457628" y2="114.83050847457628" /><line  class="poloto_tick_line" stroke="black" x1="150" x2="650" y1="114.83050847457628" y2="114.83050847457628" /><text  class="poloto_tick_labels poloto_text" dominant-baseline="middle" text-anchor="end" x="135" y="114.83050847457628" >6.875</text><line  class="poloto_axis_lines" stroke="black" x1="150" x2="144" y1="104.23728813559319" y2="104.23728813559319" /><line  class="poloto_tick_line" stroke="black" x1="150" x2="650" y1="104.23728813559319" y2="104.23728813559319" /><text  class="poloto_tick_labels poloto_text" dominant-baseline="middle" text-anchor="end" x="135" y="104.23728813559319" >7</text><text  class="poloto_tick_labels poloto_text" dominant-baseline="middle" text-anchor="start" x="440.00000000000006" y="70" >¹2022-05-01 00:00:00 UTC in Months</text><line  class="poloto_axis_lines" stroke="black" x1="228.9473684210534" x2="228.9473684210534" y1="400" y2="405" /><line  class="poloto_tick_line" stroke="black" x1="228.9473684210534" x2="228.9473684210534" y1="400" y2="100" /><text  class="poloto_tick_labels poloto_text" dominant-baseline="start" text-anchor="middle" x="228.9473684210534" y="430" >2022 May¹</text><line  class="poloto_axis_lines" stroke="black" x1="335.96491228070226" x2="335.96491228070226" y1="400" y2="405" /><line  class="poloto_tick_line" stroke="black" x1="335.96491228070226" x2="335.96491228070226" y1="400" y2="100" /><text  class="poloto_tick_labels poloto_text" dominant-baseline="start" text-anchor="middle" x="335.96491228070226" y="430" >2022 Jul</text><line  class="poloto_axis_lines" stroke="black" x1="444.7368421052597" x2="444.7368421052597" y1="400" y2="405" /><line  class="poloto_tick_line" stroke="black" x1="444.7368421052597" x2="444.7368421052597" y1="400" y2="100" /><text  class="poloto_tick_labels poloto_text" dominant-baseline="start" text-anchor="middle" x="444.7368421052597" y="430" >2022 Sep</text><line  class="poloto_axis_lines" stroke="black" x1="551.7543859649159" x2="551.7543859649159" y1="400" y2="405" /><line  class="poloto_tick_line" stroke="black" x1="551.7543859649159" x2="551.7543859649159" y1="400" y2="100" /><text  class="poloto_tick_labels poloto_text" dominant-baseline="start" text-anchor="middle" x="551.7543859649159" y="430" >2022 Nov</text><path  stroke="black" fill="none" class="poloto_axis_lines" d=" M 150 400 L 650 400" /><path  stroke="black" fill="none" class="poloto_axis_lines" d=" M 150 400 L 150 100" /></svg>