<svg class="poloto" width="800" height="500" viewBox="0 0 800 500" xmlns="http://www.w3.org/2000/svg"><style>.poloto{stroke-linecap:round;stroke-linejoin:round;font-family:Roboto,sans-serif;font-size:16px;}.poloto_background{fill:#262626;}.poloto_scatter{stroke-width:7}.poloto_tick_line{stroke:dimgray;stroke-width:0.5}.poloto_line{stroke-width:2}.poloto_text{fill: white;}.poloto_axis_lines{stroke: white;stroke-width:3;fill:none;stroke-dasharray:none}.poloto_title{font-size:24px;dominant-baseline:start;text-anchor:middle;}.poloto_xname{font-size:24px;dominant-baseline:start;text-anchor:middle;}.poloto_yname{font-size:24px;dominant-baseline:start;text-anchor:middle;}.poloto0stroke{stroke:blue;}.poloto1stroke{stroke:red;}.poloto2stroke{stroke:green;}.poloto3stroke{stroke:gold;}.poloto4stroke{stroke:aqua;}.poloto5stroke{stroke:lime;}.poloto6stroke{stroke:orange;}.poloto7stroke{stroke:chocolate;}.poloto0fill{fill:blue;}.poloto1fill{fill:red;}.poloto2fill{fill:green;}.poloto3fill{fill:gold;}.poloto4fill{fill:aqua;}.poloto5fill{fill:lime;}.poloto6fill{fill:orange;}.poloto7fill{fill:chocolate;}</style><circle  r="1e5" class="poloto_background" /><text  class="poloto_text poloto_legend_text" x="675" y="100" >Refinance 15</text><line  class="poloto_line poloto_legend_icon poloto0stroke poloto0legend" stroke="black" x1="680" x2="730" y1="81.25" y2="81.25" /><path  class="poloto_line poloto0stroke" fill="none" stroke="black" d=" M 150.00 393.13 L 151.33 400.00 L 155.32 390.27 L 156.65 381.94 L 157.98 390.27 L 157.98 390.27 L 160.64 362.48 L 164.63 361.01 L 165.96 370.74 L 167.29 349.74 L 168.62 351.21 L 169.95 346.81 L 173.94 348.28 L 175.27 342.41 L 175.27 342.41 L 177.93 342.95 L 179.26 321.95 L 183.24 331.06 L 184.57 333.99 L 185.90 333.99 L 187.23 333.22 L 188.56 328.74 L 193.88 289.53 L 195.21 306.97 L 196.54 293.46 L 197.87 288.21 L 197.87 288.21 L 203.19 308.52 L 205.85 312.22 L 207.18 303.96 L 211.17 294.16 L 212.50 313.69 L 213.83 303.96 L 213.83 303.96 L 216.49 302.42 L 220.48 305.43 L 221.81 315.16 L 221.81 315.16 L 223.14 306.90 L 224.47 316.70 L 225.80 302.42 L 229.79 331.76 L 231.12 331.06 L 232.45 315.16 L 232.45 315.16 L 233.78 321.95 L 235.11 324.96 L 239.10 324.96 L 240.43 335.46 L 241.76 335.46 L 243.09 335.46 L 244.41 335.46 L 249.73 324.96 L 251.06 321.95 L 252.39 323.42 L 253.72 323.42 L 253.72 323.42 L 259.04 313.69 L 260.37 313.69 L 261.70 305.43 L 267.02 291.92 L 268.35 264.05 L 269.68 267.14 L 271.01 267.14 L 272.34 286.67 L 276.33 267.14 L 277.66 267.14 L 278.99 285.13 L 280.32 288.21 L 285.64 288.21 L 286.97 286.67 L 288.30 291.22 L 289.63 295.70 L 290.96 305.43 L 296.28 312.22 L 297.61 303.96 L 298.94 297.17 L 300.27 294.16 L 304.26 295.70 L 306.91 295.70 L 308.24 294.16 L 313.56 292.69 L 313.56 292.69 L 313.56 292.69 L 313.56 292.69 L 313.56 292.69 L 313.56 292.69 L 316.22 292.69 L 316.22 292.69 L 316.22 292.69 L 316.22 292.69 L 316.22 292.69 L 316.22 292.69 L 322.87 303.96 L 325.53 306.90 L 326.86 332.53 L 328.19 335.46 L 332.18 335.46 L 333.51 333.99 L 334.84 313.69 L 336.17 308.44 L 337.50 295.70 L 341.49 305.43 L 341.49 305.43 L 342.82 297.17 L 345.48 305.43 L 345.48 305.43 L 352.13 305.43 L 353.46 274.70 L 354.79 292.69 L 360.11 261.89 L 362.77 261.89 L 362.77 261.89 L 365.43 273.16 L 370.74 267.14 L 370.74 267.14 L 370.74 267.14 L 370.74 267.14 L 370.74 267.14 L 370.74 267.14 L 370.74 267.14 L 370.74 267.14 L 370.74 267.14 L 374.73 267.14 L 382.71 247.53 L 388.03 249.85 L 388.03 249.85 L 392.02 249.85 L 397.34 249.85 L 398.67 249.85 L 398.67 249.85 L 398.67 249.85 L 398.67 249.85 L 398.67 249.85 L 415.96 249.85 L 417.29 249.85 L 425.27 162.92 L 426.60 154.66 L 427.93 154.66 L 475.80 180.60 L 481.12 180.60 L 482.45 180.60 L 483.78 195.50 L 486.44 203.68 L 486.44 203.68 L 491.76 203.68 L 493.09 203.68 L 494.41 203.68 L 495.74 203.68 L 499.73 203.68 L 501.06 203.68 L 503.72 203.68 L 505.05 203.68 L 509.04 203.68 L 510.37 203.68 L 510.37 203.68 L 514.36 203.68 L 518.35 203.68 L 519.68 203.68 L 521.01 203.68 L 522.34 203.68 L 523.67 203.68 L 528.99 226.15 L 530.32 200.21 L 531.65 180.60 L 532.98 190.40 L 536.97 190.40 L 538.30 190.40 L 538.30 190.40 L 540.96 211.48 L 542.29 211.48 L 546.28 211.48 L 547.61 211.48 L 548.94 211.48 L 550.27 211.48 L 551.60 211.48 L 551.60 211.48 L 551.60 211.48 L 551.60 211.48 L 558.24 211.48 L 560.90 211.48 L 564.89 211.48 L 566.22 211.48 L 568.88 211.48 L 570.21 211.48 L 575.53 211.48 L 576.86 211.48 L 578.19 211.48 L 579.52 239.27 L 583.51 245.45 L 584.84 209.93 L 586.17 221.28 L 587.50 219.74 L 588.83 201.75 L 592.82 161.07 L 594.15 161.07 L 595.48 161.07 L 596.81 162.61 L 598.14 170.79 L 602.13 162.61 L 603.46 162.61 L 604.79 151.26 L 606.12 161.07 L 607.45 141.46 L 612.77 151.26 L 614.10 152.80 L 615.43 143.08 L 616.76 149.64 L 620.74 155.97 L 622.07 152.80 L 623.40 151.26 L 624.73 151.26 L 626.06 162.61 L 630.05 161.07 L 631.38 152.80 L 635.37 240.81 L 639.36 180.60 L 640.69 182.14 L 642.02 172.41 L 643.35 209.93 L 644.68 239.27 L 648.67 191.95 L 650.00 190.40" /><text  class="poloto_text poloto_legend_text" x="675" y="150" >Refinance 20</text><line  class="poloto_line poloto_legend_icon poloto1stroke poloto1legend" stroke="black" x1="680" x2="730" y1="131.25" y2="131.25" /><path  class="poloto_line poloto1stroke" fill="none" stroke="black" d=" M 150.00 350.51 L 151.33 371.13 L 155.32 340.40 L 156.65 330.98 L 157.98 339.63 L 157.98 339.63 L 160.64 312.61 L 164.63 310.29 L 165.96 320.10 L 167.29 309.14 L 168.62 318.94 L 169.95 300.57 L 173.94 328.67 L 175.27 300.57 L 175.27 300.57 L 177.93 300.57 L 177.93 300.57 L 183.24 263.51 L 184.57 293.15 L 185.90 300.57 L 187.23 310.29 L 188.56 291.22 L 193.88 272.47 L 195.21 270.07 L 196.54 265.29 L 197.87 254.32 L 201.86 259.11 L 203.19 279.88 L 205.85 272.47 L 207.18 270.07 L 211.17 262.27 L 212.50 271.31 L 213.83 271.31 L 213.83 271.31 L 216.49 271.31 L 220.48 272.47 L 221.81 292.00 L 221.81 292.00 L 223.14 281.03 L 224.47 299.41 L 225.80 292.00 L 229.79 293.15 L 231.12 292.00 L 232.45 292.00 L 232.45 292.00 L 233.78 293.15 L 235.11 299.41 L 239.10 300.57 L 240.43 304.04 L 241.76 304.04 L 243.09 304.04 L 244.41 304.04 L 249.73 299.41 L 251.06 289.60 L 252.39 292.00 L 253.72 292.00 L 253.72 292.00 L 259.04 279.88 L 260.37 282.19 L 261.70 273.62 L 267.02 232.24 L 268.35 215.11 L 269.68 224.91 L 271.01 232.24 L 272.34 252.93 L 276.33 240.74 L 277.66 234.64 L 278.99 254.17 L 280.32 263.51 L 285.64 263.51 L 286.97 252.93 L 288.30 262.74 L 289.63 272.47 L 290.96 283.43 L 296.28 290.76 L 297.61 281.03 L 298.94 271.31 L 300.27 264.67 L 304.26 270.07 L 306.91 272.47 L 308.24 271.31 L 313.56 272.47 L 313.56 272.47 L 313.56 272.47 L 313.56 272.47 L 313.56 272.47 L 313.56 272.47 L 313.56 272.47 L 313.56 272.47 L 313.56 272.47 L 313.56 272.47 L 313.56 272.47 L 313.56 272.47 L 322.87 290.76 L 325.53 293.15 L 326.86 310.29 L 328.19 312.61 L 332.18 310.06 L 333.51 310.06 L 334.84 300.57 L 336.17 304.04 L 337.50 289.60 L 341.49 282.19 L 341.49 282.19 L 342.82 282.19 L 345.48 292.00 L 345.48 292.00 L 352.13 289.60 L 353.46 272.47 L 354.79 272.47 L 360.11 259.88 L 362.77 249.31 L 362.77 249.31 L 365.43 261.12 L 370.74 232.24 L 370.74 232.24 L 370.74 232.24 L 370.74 232.24 L 370.74 232.24 L 370.74 232.24 L 370.74 232.24 L 370.74 232.24 L 370.74 232.24 L 374.73 232.24 L 382.71 219.97 L 388.03 221.20 L 390.69 221.20 L 392.02 221.20 L 392.02 221.20 L 398.67 221.20 L 400.00 221.20 L 400.00 221.20 L 400.00 221.20 L 400.00 221.20 L 415.96 221.20 L 417.29 221.20 L 425.27 143.85 L 426.60 129.41 L 426.60 129.41 L 478.46 177.12 L 481.12 177.12 L 482.45 177.12 L 485.11 194.26 L 486.44 195.50 L 486.44 195.50 L 491.76 195.50 L 493.09 195.50 L 494.41 195.50 L 495.74 195.50 L 499.73 195.50 L 501.06 195.50 L 503.72 195.50 L 505.05 195.50 L 509.04 195.50 L 510.37 195.50 L 510.37 195.50 L 514.36 195.50 L 518.35 195.50 L 519.68 195.50 L 521.01 195.50 L 522.34 195.50 L 523.67 195.50 L 528.99 178.05 L 530.32 168.55 L 531.65 167.32 L 532.98 169.87 L 536.97 169.87 L 538.30 169.87 L 538.30 169.87 L 540.96 188.16 L 542.29 188.16 L 546.28 188.16 L 547.61 188.16 L 548.94 188.16 L 550.27 188.16 L 551.60 188.16 L 551.60 188.16 L 556.91 188.16 L 556.91 188.16 L 558.24 188.16 L 560.90 188.16 L 564.89 188.16 L 566.22 188.16 L 568.88 188.16 L 570.21 188.16 L 575.53 188.16 L 576.86 188.16 L 578.19 188.16 L 579.52 209.01 L 583.51 207.77 L 584.84 178.36 L 586.17 179.59 L 586.17 179.59 L 588.83 178.36 L 592.82 158.75 L 594.15 158.75 L 595.48 150.26 L 596.81 140.45 L 598.14 149.02 L 602.13 140.45 L 603.46 130.65 L 604.79 140.45 L 606.12 150.26 L 607.45 139.22 L 612.77 140.45 L 614.10 129.41 L 615.43 100.00 L 616.76 129.41 L 620.74 150.26 L 622.07 169.17 L 623.40 140.45 L 624.73 139.22 L 626.06 167.32 L 630.05 160.06 L 631.38 150.26 L 635.37 210.24 L 639.36 168.55 L 640.69 158.75 L 642.02 160.06 L 643.35 188.16 L 644.68 189.40 L 648.67 169.87 L 650.00 160.06" /><text  class="poloto_text poloto_legend_text" x="675" y="200" >Refinance 30</text><line  class="poloto_line poloto_legend_icon poloto2stroke poloto2legend" stroke="black" x1="680" x2="730" y1="181.25" y2="181.25" /><path  class="poloto_line poloto2stroke" fill="none" stroke="black" d=" M 150.00 348.35 L 151.33 355.69 L 155.32 344.26 L 156.65 335.31 L 157.98 337.00 L 157.98 337.00 L 160.64 318.24 L 164.63 316.62 L 165.96 326.35 L 167.29 315.77 L 168.62 325.50 L 169.95 306.82 L 173.94 315.77 L 175.27 297.01 L 176.60 297.01 L 177.93 296.17 L 179.26 272.47 L 183.24 276.63 L 184.57 287.29 L 185.90 297.01 L 187.23 288.14 L 188.56 277.48 L 193.88 269.38 L 195.21 256.18 L 196.54 254.40 L 197.87 252.55 L 201.86 256.18 L 203.19 271.31 L 205.85 269.38 L 207.18 267.60 L 211.17 257.95 L 212.50 268.45 L 213.83 257.95 L 213.83 257.95 L 216.49 257.95 L 220.48 259.73 L 221.81 276.63 L 221.81 276.63 L 223.14 268.45 L 224.47 269.38 L 225.80 270.23 L 229.79 277.48 L 231.12 269.38 L 232.45 269.38 L 232.45 269.38 L 233.78 278.33 L 235.11 279.26 L 239.10 280.11 L 240.43 288.14 L 241.76 288.14 L 243.09 289.84 L 244.41 289.84 L 249.73 286.36 L 251.06 276.63 L 252.39 278.33 L 253.72 277.48 L 253.72 277.48 L 259.04 268.45 L 260.37 268.45 L 261.70 258.80 L 267.02 219.74 L 268.35 192.10 L 269.68 209.01 L 271.01 219.74 L 272.34 229.46 L 276.33 220.59 L 277.66 219.74 L 278.99 237.49 L 280.32 239.27 L 285.64 239.27 L 286.97 228.62 L 288.30 237.49 L 289.63 247.22 L 290.96 268.45 L 296.28 269.38 L 297.61 258.80 L 298.94 240.20 L 300.27 237.49 L 304.26 255.25 L 306.91 239.27 L 308.24 238.34 L 313.56 256.18 L 313.56 256.18 L 313.56 256.18 L 313.56 256.18 L 313.56 256.18 L 313.56 256.18 L 316.22 256.18 L 316.22 256.18 L 316.22 256.18 L 316.22 256.18 L 316.22 256.18 L 316.22 256.18 L 322.87 267.60 L 325.53 269.38 L 326.86 286.36 L 328.19 297.86 L 332.18 297.01 L 333.51 297.01 L 334.84 277.48 L 336.17 280.11 L 337.50 267.60 L 341.49 277.48 L 341.49 277.48 L 342.82 270.23 L 345.48 278.33 L 345.48 278.33 L 352.13 276.63 L 353.46 259.73 L 354.79 258.80 L 360.11 236.57 L 362.77 228.62 L 362.77 228.62 L 365.43 238.34 L 370.74 227.69 L 370.74 227.69 L 370.74 227.69 L 370.74 227.69 L 370.74 227.69 L 370.74 227.69 L 370.74 227.69 L 370.74 227.69 L 374.73 227.69 L 374.73 226.76 L 382.71 215.11 L 388.03 195.50 L 388.03 195.50 L 392.02 195.50 L 392.02 195.50 L 398.67 195.50 L 400.00 195.50 L 400.00 195.50 L 400.00 195.50 L 400.00 195.50 L 415.96 195.50 L 417.29 195.50 L 425.27 151.34 L 426.60 126.71 L 426.60 126.71 L 478.46 169.02 L 481.12 169.02 L 482.45 169.02 L 483.78 172.95 L 486.44 181.91 L 486.44 181.91 L 491.76 181.91 L 493.09 181.91 L 494.41 181.91 L 495.74 181.91 L 499.73 181.91 L 501.06 181.91 L 503.72 181.91 L 505.05 181.91 L 509.04 181.91 L 510.37 181.91 L 510.37 181.91 L 514.36 181.91 L 518.35 181.91 L 519.68 181.91 L 521.01 181.91 L 522.34 181.91 L 523.67 181.91 L 528.99 167.01 L 530.32 174.88 L 531.65 156.20 L 532.98 174.88 L 536.97 174.88 L 538.30 174.88 L 538.30 174.88 L 540.96 174.88 L 542.29 174.88 L 546.28 174.88 L 547.61 174.88 L 548.94 174.88 L 550.27 174.88 L 551.60 174.88 L 551.60 174.88 L 556.91 174.88 L 556.91 174.88 L 558.24 174.88 L 560.90 174.88 L 564.89 174.88 L 566.22 174.88 L 568.88 174.88 L 570.21 174.88 L 575.53 174.88 L 576.86 174.88 L 578.19 174.88 L 579.52 224.91 L 583.51 215.11 L 584.84 175.89 L 586.17 205.30 L 587.50 175.89 L 588.83 166.01 L 592.82 156.20 L 594.15 156.20 L 595.48 147.32 L 596.81 137.52 L 598.14 146.40 L 602.13 146.40 L 603.46 135.59 L 604.79 127.71 L 606.12 137.52 L 607.45 128.72 L 612.77 127.71 L 614.10 116.91 L 615.43 116.91 L 616.76 126.71 L 620.74 127.71 L 622.07 117.91 L 623.40 125.78 L 624.73 117.91 L 626.06 147.32 L 630.05 147.32 L 631.38 127.71 L 635.37 206.23 L 639.36 147.32 L 640.69 146.40 L 642.02 146.40 L 643.35 176.81 L 644.68 176.81 L 648.67 157.21 L 650.00 157.21" /><text  class="poloto_labels poloto_text poloto_title" x="400" y="37.5" >lower.com purchase rates</text><text  class="poloto_labels poloto_text poloto_xname" x="400" y="481.25" >Date</text><text  class="poloto_labels poloto_text poloto_yname" transform="rotate(-90,37.5,250)" x="37.5" y="250" >Rate (%)</text><text  class="poloto_tick_labels poloto_text" dominant-baseline="middle" text-anchor="start" x="150" y="70" ></text><line  class="poloto_axis_lines" stroke="black" x1="150" x2="144" y1="391.12197632527017" y2="391.12197632527017" /><line  class="poloto_tick_line" stroke="black" x1="150" x2="650" y1="391.12197632527017" y2="391.12197632527017" /><text  class="poloto_tick_labels poloto_text" dominant-baseline="middle" text-anchor="end" x="135" y="391.12197632527017" >3.625</text><line  class="poloto_axis_lines" stroke="black" x1="150" x2="144" y1="381.4719505918682" y2="381.4719505918682" /><line  class="poloto_tick_line" stroke="black" x1="150" x2="650" y1="381.4719505918682" y2="381.4719505918682" /><text  class="poloto_tick_labels poloto_text" dominant-baseline="middle" text-anchor="end" x="135" y="381.4719505918682" >3.75</text><line  class="poloto_axis_lines" stroke="black" x1="150" x2="144" y1="371.8219248584663" y2="371.8219248584663" /><line  class="poloto_tick_line" stroke="black" x1="150" x2="650" y1="371.8219248584663" y2="371.8219248584663" /><text  class="poloto_tick_labels poloto_text" dominant-baseline="middle" text-anchor="end" x="135" y="371.8219248584663" >3.875</text><line  class="poloto_axis_lines" stroke="black" x1="150" x2="144" y1="362.17189912506433" y2="362.17189912506433" /><line  class="poloto_tick_line" stroke="black" x1="150" x2="650" y1="362.17189912506433" y2="362.17189912506433" /><text  class="poloto_tick_labels poloto_text" dominant-baseline="middle" text-anchor="end" x="135" y="362.17189912506433" >4</text><line  class="poloto_axis_lines" stroke="black" x1="150" x2="144" y1="352.5218733916624" y2="352.5218733916624" /><line  class="poloto_tick_line" stroke="black" x1="150" x2="650" y1="352.5218733916624" y2="352.5218733916624" /><text  class="poloto_tick_labels poloto_text" dominant-baseline="middle" text-anchor="end" x="135" y="352.5218733916624" >4.125</text><line  class="poloto_axis_lines" stroke="black" x1="150" x2="144" y1="342.87184765826044" y2="342.87184765826044" /><line  class="poloto_tick_line" stroke="black" x1="150" x2="650" y1="342.87184765826044" y2="342.87184765826044" /><text  class="poloto_tick_labels poloto_text" dominant-baseline="middle" text-anchor="end" x="135" y="342.87184765826044" >4.25</text><line  class="poloto_axis_lines" stroke="black" x1="150" x2="144" y1="333.2218219248585" y2="333.2218219248585" /><line  class="poloto_tick_line" stroke="black" x1="150" x2="650" y1="333.2218219248585" y2="333.2218219248585" /><text  class="poloto_tick_labels poloto_text" dominant-baseline="middle" text-anchor="end" x="135" y="333.2218219248585" >4.375</text><line  class="poloto_axis_lines" stroke="black" x1="150" x2="144" y1="323.5717961914565" y2="323.5717961914565" /><line  class="poloto_tick_line" stroke="black" x1="150" x2="650" y1="323.5717961914565" y2="323.5717961914565" /><text  class="poloto_tick_labels poloto_text" dominant-baseline="middle" text-anchor="end" x="135" y="323.5717961914565" >4.5</text><line  class="poloto_axis_lines" stroke="black" x1="150" x2="144" y1="313.92177045805454" y2="313.92177045805454" /><line  class="poloto_tick_line" stroke="black" x1="150" x2="650" y1="313.92177045805454" y2="313.92177045805454" /><text  class="poloto_tick_labels poloto_text" dominant-baseline="middle" text-anchor="end" x="135" y="313.92177045805454" >4.625</text><line  class="poloto_axis_lines" stroke="black" x1="150" x2="144" y1="304.2717447246526" y2="304.2717447246526" /><line  class="poloto_tick_line" stroke="black" x1="150" x2="650" y1="304.2717447246526" y2="304.2717447246526" /><text  class="poloto_tick_labels poloto_text" dominant-baseline="middle" text-anchor="end" x="135" y="304.2717447246526" >4.75</text><line  class="poloto_axis_lines" stroke="black" x1="150" x2="144" y1="294.62171899125065" y2="294.62171899125065" /><line  class="poloto_tick_line" stroke="black" x1="150" x2="650" y1="294.62171899125065" y2="294.62171899125065" /><text  class="poloto_tick_labels poloto_text" dominant-baseline="middle" text-anchor="end" x="135" y="294.62171899125065" >4.875</text><line  class="poloto_axis_lines" stroke="black" x1="150" x2="144" y1="284.9716932578487" y2="284.9716932578487" /><line  class="poloto_tick_line" stroke="black" x1="150" x2="650" y1="284.9716932578487" y2="284.9716932578487" /><text  class="poloto_tick_labels poloto_text" dominant-baseline="middle" text-anchor="end" x="135" y="284.9716932578487" >5</text><line  class="poloto_axis_lines" stroke="black" x1="150" x2="144" y1="275.32166752444675" y2="275.32166752444675" /><line  class="poloto_tick_line" stroke="black" x1="150" x2="650" y1="275.32166752444675" y2="275.32166752444675" /><text  class="poloto_tick_labels poloto_text" dominant-baseline="middle" text-anchor="end" x="135" y="275.32166752444675" >5.125</text><line  class="poloto_axis_lines" stroke="black" x1="150" x2="144" y1="265.67164179104475" y2="265.67164179104475" /><line  class="poloto_tick_line" stroke="black" x1="150" x2="650" y1="265.67164179104475" y2="265.67164179104475" /><text  class="poloto_tick_labels poloto_text" dominant-baseline="middle" text-anchor="end" x="135" y="265.67164179104475" >5.25</text><line  class="poloto_axis_lines" stroke="black" x1="150" x2="144" y1="256.0216160576428" y2="256.0216160576428" /><line  class="poloto_tick_line" stroke="black" x1="150" x2="650" y1="256.0216160576428" y2="256.0216160576428" /><text  class="poloto_tick_labels poloto_text" dominant-baseline="middle" text-anchor="end" x="135" y="256.0216160576428" >5.375</text><line  class="poloto_axis_lines" stroke="black" x1="150" x2="144" y1="246.37159032424086" y2="246.37159032424086" /><line  class="poloto_tick_line" stroke="black" x1="150" x2="650" y1="246.37159032424086" y2="246.37159032424086" /><text  class="poloto_tick_labels poloto_text" dominant-baseline="middle" text-anchor="end" x="135" y="246.37159032424086" >5.5</text><line  class="poloto_axis_lines" stroke="black" x1="150" x2="144" y1="236.7215645908389" y2="236.7215645908389" /><line  class="poloto_tick_line" stroke="black" x1="150" x2="650" y1="236.7215645908389" y2="236.7215645908389" /><text  class="poloto_tick_labels poloto_text" dominant-baseline="middle" text-anchor="end" x="135" y="236.7215645908389" >5.625</text><line  class="poloto_axis_lines" stroke="black" x1="150" x2="144" y1="227.07153885743696" y2="227.07153885743696" /><line  class="poloto_tick_line" stroke="black" x1="150" x2="650" y1="227.07153885743696" y2="227.07153885743696" /><text  class="poloto_tick_labels poloto_text" dominant-baseline="middle" text-anchor="end" x="135" y="227.07153885743696" >5.75</text><line  class="poloto_axis_lines" stroke="black" x1="150" x2="144" y1="217.42151312403502" y2="217.42151312403502" /><line  class="poloto_tick_line" stroke="black" x1="150" x2="650" y1="217.42151312403502" y2="217.42151312403502" /><text  class="poloto_tick_labels poloto_text" dominant-baseline="middle" text-anchor="end" x="135" y="217.42151312403502" >5.875</text><line  class="poloto_axis_lines" stroke="black" x1="150" x2="144" y1="207.771487390633" y2="207.771487390633" /><line  class="poloto_tick_line" stroke="black" x1="150" x2="650" y1="207.771487390633" y2="207.771487390633" /><text  class="poloto_tick_labels poloto_text" dominant-baseline="middle" text-anchor="end" x="135" y="207.771487390633" >6</text><line  class="poloto_axis_lines" stroke="black" x1="150" x2="144" y1="198.12146165723107" y2="198.12146165723107" /><line  class="poloto_tick_line" stroke="black" x1="150" x2="650" y1="198.12146165723107" y2="198.12146165723107" /><text  class="poloto_tick_labels poloto_text" dominant-baseline="middle" text-anchor="end" x="135" y="198.12146165723107" >6.125</text><line  class="poloto_axis_lines" stroke="black" x1="150" x2="144" y1="188.47143592382912" y2="188.47143592382912" /><line  class="poloto_tick_line" stroke="black" x1="150" x2="650" y1="188.47143592382912" y2="188.47143592382912" /><text  class="poloto_tick_labels poloto_text" dominant-baseline="middle" text-anchor="end" x="135" y="188.47143592382912" >6.25</text><line  class="poloto_axis_lines" stroke="black" x1="150" x2="144" y1="178.82141019042717" y2="178.82141019042717" /><line  class="poloto_tick_line" stroke="black" x1="150" x2="650" y1="178.82141019042717" y2="178.82141019042717" /><text  class="poloto_tick_labels poloto_text" dominant-baseline="middle" text-anchor="end" x="135" y="178.82141019042717" >6.375</text><line  class="poloto_axis_lines" stroke="black" x1="150" x2="144" y1="169.17138445702523" y2="169.17138445702523" /><line  class="poloto_tick_line" stroke="black" x1="150" x2="650" y1="169.17138445702523" y2="169.17138445702523" /><text  class="poloto_tick_labels poloto_text" dominant-baseline="middle" text-anchor="end" x="135" y="169.17138445702523" >6.5</text><line  class="poloto_axis_lines" stroke="black" x1="150" x2="144" y1="159.52135872362328" y2="159.52135872362328" /><line  class="poloto_tick_line" stroke="black" x1="150" x2="650" y1="159.52135872362328" y2="159.52135872362328" /><text  class="poloto_tick_labels poloto_text" dominant-baseline="middle" text-anchor="end" x="135" y="159.52135872362328" >6.625</text><line  class="poloto_axis_lines" stroke="black" x1="150" x2="144" y1="149.87133299022133" y2="149.87133299022133" /><line  class="poloto_tick_line" stroke="black" x1="150" x2="650" y1="149.87133299022133" y2="149.87133299022133" /><text  class="poloto_tick_labels poloto_text" dominant-baseline="middle" text-anchor="end" x="135" y="149.87133299022133" >6.75</text><line  class="poloto_axis_lines" stroke="black" x1="150" x2="144" y1="140.22130725681933" y2="140.22130725681933" /><line  class="poloto_tick_line" stroke="black" x1="150" x2="650" y1="140.22130725681933" y2="140.22130725681933" /><text  class="poloto_tick_labels poloto_text" dominant-baseline="middle" text-anchor="end" x="135" y="140.22130725681933" >6.875</text><line  class="poloto_axis_lines" stroke="black" x1="150" x2="144" y1="130.57128152341744" y2="130.57128152341744" /><line  class="poloto_tick_line" stroke="black" x1="150" x2="650" y1="130.57128152341744" y2="130.57128152341744" /><text  class="poloto_tick_labels poloto_text" dominant-baseline="middle" text-anchor="end" x="135" y="130.57128152341744" >7</text><line  class="poloto_axis_lines" stroke="black" x1="150" x2="144" y1="120.92125579001544" y2="120.92125579001544" /><line  class="poloto_tick_line" stroke="black" x1="150" x2="650" y1="120.92125579001544" y2="120.92125579001544" /><text  class="poloto_tick_labels poloto_text" dominant-baseline="middle" text-anchor="end" x="135" y="120.92125579001544" >7.125</text><line  class="poloto_axis_lines" stroke="black" x1="150" x2="144" y1="111.27123005661343" y2="111.27123005661343" /><line  class="poloto_tick_line" stroke="black" x1="150" x2="650" y1="111.27123005661343" y2="111.27123005661343" /><text  class="poloto_tick_labels poloto_text" dominant-baseline="middle" text-anchor="end" x="135" y="111.27123005661343" >7.25</text><line  class="poloto_axis_lines" stroke="black" x1="150" x2="144" y1="101.62120432321154" y2="101.62120432321154" /><line  class="poloto_tick_line" stroke="black" x1="150" x2="650" y1="101.62120432321154" y2="101.62120432321154" /><text  class="poloto_tick_labels poloto_text" dominant-baseline="middle" text-anchor="end" x="135" y="101.62120432321154" >7.375</text><text  class="poloto_tick_labels poloto_text" dominant-baseline="middle" text-anchor="start" x="440.00000000000006" y="70" >¹2022-05-01 00:00:00 UTC in Months</text><line  class="poloto_axis_lines" stroke="black" x1="209.84042553191466" x2="209.84042553191466" y1="400" y2="405" /><line  class="poloto_tick_line" stroke="black" x1="209.84042553191466" x2="209.84042553191466" y1="400" y2="100.00000000000006" /><text  class="poloto_tick_labels poloto_text" dominant-baseline="start" text-anchor="middle" x="209.84042553191466" y="430" >2022 May¹</text><line  class="poloto_axis_lines" stroke="black" x1="290.9574468085084" x2="290.9574468085084" y1="400" y2="405" /><line  class="poloto_tick_line" stroke="black" x1="290.9574468085084" x2="290.9574468085084" y1="400" y2="100.00000000000006" /><text  class="poloto_tick_labels poloto_text" dominant-baseline="start" text-anchor="middle" x="290.9574468085084" y="430" >2022 Jul</text><line  class="poloto_axis_lines" stroke="black" x1="373.4042553191466" x2="373.4042553191466" y1="400" y2="405" /><line  class="poloto_tick_line" stroke="black" x1="373.4042553191466" x2="373.4042553191466" y1="400" y2="100.00000000000006" /><text  class="poloto_tick_labels poloto_text" dominant-baseline="start" text-anchor="middle" x="373.4042553191466" y="430" >2022 Sep</text><line  class="poloto_axis_lines" stroke="black" x1="454.521276595744" x2="454.521276595744" y1="400" y2="405" /><line  class="poloto_tick_line" stroke="black" x1="454.521276595744" x2="454.521276595744" y1="400" y2="100.00000000000006" /><text  class="poloto_tick_labels poloto_text" dominant-baseline="start" text-anchor="middle" x="454.521276595744" y="430" >2022 Nov</text><line  class="poloto_axis_lines" stroke="black" x1="535.6382978723414" x2="535.6382978723414" y1="400" y2="405" /><line  class="poloto_tick_line" stroke="black" x1="535.6382978723414" x2="535.6382978723414" y1="400" y2="100.00000000000006" /><text  class="poloto_tick_labels poloto_text" dominant-baseline="start" text-anchor="middle" x="535.6382978723414" y="430" >2023 Jan</text><line  class="poloto_axis_lines" stroke="black" x1="614.0957446808497" x2="614.0957446808497" y1="400" y2="405" /><line  class="poloto_tick_line" stroke="black" x1="614.0957446808497" x2="614.0957446808497" y1="400" y2="100.00000000000006" /><text  class="poloto_tick_labels poloto_text" dominant-baseline="start" text-anchor="middle" x="614.0957446808497" y="430" >2023 Mar</text><path  stroke="black" fill="none" class="poloto_axis_lines" d=" M 150 400 L 650 400" /><path  stroke="black" fill="none" class="poloto_axis_lines" d=" M 150 400 L 150 100.00000000000006" /></svg>