<svg class="poloto" width="800" height="500" viewBox="0 0 800 500" xmlns="http://www.w3.org/2000/svg"><style>.poloto{stroke-linecap:round;stroke-linejoin:round;font-family:Roboto,sans-serif;font-size:16px;}.poloto_background{fill:#262626;}.poloto_scatter{stroke-width:7}.poloto_tick_line{stroke:dimgray;stroke-width:0.5}.poloto_line{stroke-width:2}.poloto_text{fill: white;}.poloto_axis_lines{stroke: white;stroke-width:3;fill:none;stroke-dasharray:none}.poloto_title{font-size:24px;dominant-baseline:start;text-anchor:middle;}.poloto_xname{font-size:24px;dominant-baseline:start;text-anchor:middle;}.poloto_yname{font-size:24px;dominant-baseline:start;text-anchor:middle;}.poloto0stroke{stroke:blue;}.poloto1stroke{stroke:red;}.poloto2stroke{stroke:green;}.poloto3stroke{stroke:gold;}.poloto4stroke{stroke:aqua;}.poloto5stroke{stroke:lime;}.poloto6stroke{stroke:orange;}.poloto7stroke{stroke:chocolate;}.poloto0fill{fill:blue;}.poloto1fill{fill:red;}.poloto2fill{fill:green;}.poloto3fill{fill:gold;}.poloto4fill{fill:aqua;}.poloto5fill{fill:lime;}.poloto6fill{fill:orange;}.poloto7fill{fill:chocolate;}</style><circle  r="1e5" class="poloto_background" /><text  class="poloto_text poloto_legend_text" x="675" y="100" >30 years</text><line  class="poloto_line poloto_legend_icon poloto0stroke poloto0legend" stroke="black" x1="680" x2="730" y1="81.25" y2="81.25" /><path  class="poloto_line poloto0stroke" fill="none" stroke="black" d=" M 150.00 353.85 L 153.60 376.92 L 164.39 353.85 L 167.99 330.77 L 171.58 330.77 L 171.58 330.77 L 178.78 284.62 L 189.57 284.62 L 193.17 307.69 L 196.76 330.77 L 200.36 353.85 L 203.96 307.69 L 214.75 330.77 L 218.35 307.69 L 221.94 284.62 L 225.54 261.54 L 229.14 261.54 L 239.93 261.54 L 243.53 284.62 L 247.12 284.62 L 250.72 284.62 L 254.32 238.46 L 268.71 217.23 L 272.30 215.38 L 275.90 215.38 L 279.50 192.31 L 290.29 215.38 L 293.88 238.46 L 301.08 217.23 L 304.68 217.23 L 315.47 217.23 L 319.06 217.23 L 322.66 217.23 L 326.26 217.23 L 329.86 192.31 L 340.65 215.38 L 344.24 217.23 L 344.24 217.23 L 347.84 217.23 L 351.44 217.23 L 355.04 217.23 L 365.83 217.23 L 369.42 217.23 L 373.02 217.23 L 373.02 217.23 L 376.62 217.23 L 380.22 261.54 L 391.01 261.54 L 394.60 284.62 L 398.20 284.62 L 401.80 307.69 L 405.40 284.62 L 419.78 261.54 L 423.38 238.46 L 426.98 261.54 L 430.58 261.54 L 441.37 238.46 L 444.96 217.23 L 448.56 217.23 L 452.16 217.23 L 466.55 123.08 L 470.14 100.00 L 473.74 100.00 L 477.34 123.08 L 480.94 146.15 L 491.73 123.08 L 495.32 123.08 L 498.92 146.15 L 502.52 169.23 L 516.91 169.23 L 520.50 123.08 L 524.10 146.15 L 527.70 192.31 L 531.29 217.23 L 545.68 217.23 L 549.28 217.23 L 552.88 192.31 L 556.47 146.15 L 567.27 192.31 L 574.46 146.15 L 578.06 192.31 L 592.45 192.31 L 592.45 192.31 L 592.45 192.31 L 592.45 192.31 L 592.45 192.31 L 599.64 192.31 L 599.64 192.31 L 599.64 192.31 L 599.64 192.31 L 599.64 192.31 L 599.64 192.31 L 606.83 217.23 L 617.63 217.23 L 624.82 217.23 L 628.42 261.54 L 632.01 307.69 L 642.81 307.69 L 646.40 307.69 L 650.00 284.62" /><text  class="poloto_labels poloto_text poloto_title" x="400" y="37.5" >lower.com purchase rates</text><text  class="poloto_labels poloto_text poloto_xname" x="400" y="481.25" >Date</text><text  class="poloto_labels poloto_text poloto_yname" transform="rotate(-90,37.5,250)" x="37.5" y="250" >Rate (%)</text><text  class="poloto_tick_labels poloto_text" dominant-baseline="middle" text-anchor="start" x="150" y="70" ></text><line  class="poloto_axis_lines" stroke="black" x1="150" x2="144" y1="400" y2="400" /><line  class="poloto_tick_line" stroke="black" x1="150" x2="650" y1="400" y2="400" /><text  class="poloto_tick_labels poloto_text" dominant-baseline="middle" text-anchor="end" x="135" y="400" >4</text><line  class="poloto_axis_lines" stroke="black" x1="150" x2="144" y1="376.9230769230769" y2="376.9230769230769" /><line  class="poloto_tick_line" stroke="black" x1="150" x2="650" y1="376.9230769230769" y2="376.9230769230769" /><text  class="poloto_tick_labels poloto_text" dominant-baseline="middle" text-anchor="end" x="135" y="376.9230769230769" >4.125</text><line  class="poloto_axis_lines" stroke="black" x1="150" x2="144" y1="353.8461538461538" y2="353.8461538461538" /><line  class="poloto_tick_line" stroke="black" x1="150" x2="650" y1="353.8461538461538" y2="353.8461538461538" /><text  class="poloto_tick_labels poloto_text" dominant-baseline="middle" text-anchor="end" x="135" y="353.8461538461538" >4.25</text><line  class="poloto_axis_lines" stroke="black" x1="150" x2="144" y1="330.7692307692307" y2="330.7692307692307" /><line  class="poloto_tick_line" stroke="black" x1="150" x2="650" y1="330.7692307692307" y2="330.7692307692307" /><text  class="poloto_tick_labels poloto_text" dominant-baseline="middle" text-anchor="end" x="135" y="330.7692307692307" >4.375</text><line  class="poloto_axis_lines" stroke="black" x1="150" x2="144" y1="307.69230769230774" y2="307.69230769230774" /><line  class="poloto_tick_line" stroke="black" x1="150" x2="650" y1="307.69230769230774" y2="307.69230769230774" /><text  class="poloto_tick_labels poloto_text" dominant-baseline="middle" text-anchor="end" x="135" y="307.69230769230774" >4.5</text><line  class="poloto_axis_lines" stroke="black" x1="150" x2="144" y1="284.61538461538464" y2="284.61538461538464" /><line  class="poloto_tick_line" stroke="black" x1="150" x2="650" y1="284.61538461538464" y2="284.61538461538464" /><text  class="poloto_tick_labels poloto_text" dominant-baseline="middle" text-anchor="end" x="135" y="284.61538461538464" >4.625</text><line  class="poloto_axis_lines" stroke="black" x1="150" x2="144" y1="261.53846153846155" y2="261.53846153846155" /><line  class="poloto_tick_line" stroke="black" x1="150" x2="650" y1="261.53846153846155" y2="261.53846153846155" /><text  class="poloto_tick_labels poloto_text" dominant-baseline="middle" text-anchor="end" x="135" y="261.53846153846155" >4.75</text><line  class="poloto_axis_lines" stroke="black" x1="150" x2="144" y1="238.46153846153845" y2="238.46153846153845" /><line  class="poloto_tick_line" stroke="black" x1="150" x2="650" y1="238.46153846153845" y2="238.46153846153845" /><text  class="poloto_tick_labels poloto_text" dominant-baseline="middle" text-anchor="end" x="135" y="238.46153846153845" >4.875</text><line  class="poloto_axis_lines" stroke="black" x1="150" x2="144" y1="215.38461538461536" y2="215.38461538461536" /><line  class="poloto_tick_line" stroke="black" x1="150" x2="650" y1="215.38461538461536" y2="215.38461538461536" /><text  class="poloto_tick_labels poloto_text" dominant-baseline="middle" text-anchor="end" x="135" y="215.38461538461536" >5</text><line  class="poloto_axis_lines" stroke="black" x1="150" x2="144" y1="192.30769230769226" y2="192.30769230769226" /><line  class="poloto_tick_line" stroke="black" x1="150" x2="650" y1="192.30769230769226" y2="192.30769230769226" /><text  class="poloto_tick_labels poloto_text" dominant-baseline="middle" text-anchor="end" x="135" y="192.30769230769226" >5.125</text><line  class="poloto_axis_lines" stroke="black" x1="150" x2="144" y1="169.23076923076928" y2="169.23076923076928" /><line  class="poloto_tick_line" stroke="black" x1="150" x2="650" y1="169.23076923076928" y2="169.23076923076928" /><text  class="poloto_tick_labels poloto_text" dominant-baseline="middle" text-anchor="end" x="135" y="169.23076923076928" >5.25</text><line  class="poloto_axis_lines" stroke="black" x1="150" x2="144" y1="146.1538461538462" y2="146.1538461538462" /><line  class="poloto_tick_line" stroke="black" x1="150" x2="650" y1="146.1538461538462" y2="146.1538461538462" /><text  class="poloto_tick_labels poloto_text" dominant-baseline="middle" text-anchor="end" x="135" y="146.1538461538462" >5.375</text><line  class="poloto_axis_lines" stroke="black" x1="150" x2="144" y1="123.0769230769231" y2="123.0769230769231" /><line  class="poloto_tick_line" stroke="black" x1="150" x2="650" y1="123.0769230769231" y2="123.0769230769231" /><text  class="poloto_tick_labels poloto_text" dominant-baseline="middle" text-anchor="end" x="135" y="123.0769230769231" >5.5</text><line  class="poloto_axis_lines" stroke="black" x1="150" x2="144" y1="100.00000000000011" y2="100.00000000000011" /><line  class="poloto_tick_line" stroke="black" x1="150" x2="650" y1="100.00000000000011" y2="100.00000000000011" /><text  class="poloto_tick_labels poloto_text" dominant-baseline="middle" text-anchor="end" x="135" y="100.00000000000011" >5.625</text><text  class="poloto_tick_labels poloto_text" dominant-baseline="middle" text-anchor="start" x="440.00000000000006" y="70" >¹2022-04-01 00:00:00 UTC in Months</text><line  class="poloto_axis_lines" stroke="black" x1="203.9568345323787" x2="203.9568345323787" y1="400" y2="405" /><line  class="poloto_tick_line" stroke="black" x1="203.9568345323787" x2="203.9568345323787" y1="400" y2="100.00000000000011" /><text  class="poloto_tick_labels poloto_text" dominant-baseline="start" text-anchor="middle" x="203.9568345323787" y="430" >2022 Apr¹</text><line  class="poloto_axis_lines" stroke="black" x1="311.87050359712157" x2="311.87050359712157" y1="400" y2="405" /><line  class="poloto_tick_line" stroke="black" x1="311.87050359712157" x2="311.87050359712157" y1="400" y2="100.00000000000011" /><text  class="poloto_tick_labels poloto_text" dominant-baseline="start" text-anchor="middle" x="311.87050359712157" y="430" >2022 May</text><line  class="poloto_axis_lines" stroke="black" x1="423.3812949640269" x2="423.3812949640269" y1="400" y2="405" /><line  class="poloto_tick_line" stroke="black" x1="423.3812949640269" x2="423.3812949640269" y1="400" y2="100.00000000000011" /><text  class="poloto_tick_labels poloto_text" dominant-baseline="start" text-anchor="middle" x="423.3812949640269" y="430" >2022 Jun</text><line  class="poloto_axis_lines" stroke="black" x1="531.2949640287843" x2="531.2949640287843" y1="400" y2="405" /><line  class="poloto_tick_line" stroke="black" x1="531.2949640287843" x2="531.2949640287843" y1="400" y2="100.00000000000011" /><text  class="poloto_tick_labels poloto_text" dominant-baseline="start" text-anchor="middle" x="531.2949640287843" y="430" >2022 Jul</text><line  class="poloto_axis_lines" stroke="black" x1="642.8057553956896" x2="642.8057553956896" y1="400" y2="405" /><line  class="poloto_tick_line" stroke="black" x1="642.8057553956896" x2="642.8057553956896" y1="400" y2="100.00000000000011" /><text  class="poloto_tick_labels poloto_text" dominant-baseline="start" text-anchor="middle" x="642.8057553956896" y="430" >2022 Aug</text><path  stroke="black" fill="none" class="poloto_axis_lines" d=" M 150 400 L 650 400" /><path  stroke="black" fill="none" class="poloto_axis_lines" d=" M 150 400 L 150 100.00000000000011" /></svg>