<svg class="poloto" width="800" height="500" viewBox="0 0 800 500" xmlns="http://www.w3.org/2000/svg"><style>.poloto{stroke-linecap:round;stroke-linejoin:round;font-family:Roboto,sans-serif;font-size:16px;}.poloto_background{fill:#262626;}.poloto_scatter{stroke-width:7}.poloto_tick_line{stroke:dimgray;stroke-width:0.5}.poloto_line{stroke-width:2}.poloto_text{fill: white;}.poloto_axis_lines{stroke: white;stroke-width:3;fill:none;stroke-dasharray:none}.poloto_title{font-size:24px;dominant-baseline:start;text-anchor:middle;}.poloto_xname{font-size:24px;dominant-baseline:start;text-anchor:middle;}.poloto_yname{font-size:24px;dominant-baseline:start;text-anchor:middle;}.poloto0stroke{stroke:blue;}.poloto1stroke{stroke:red;}.poloto2stroke{stroke:green;}.poloto3stroke{stroke:gold;}.poloto4stroke{stroke:aqua;}.poloto5stroke{stroke:lime;}.poloto6stroke{stroke:orange;}.poloto7stroke{stroke:chocolate;}.poloto0fill{fill:blue;}.poloto1fill{fill:red;}.poloto2fill{fill:green;}.poloto3fill{fill:gold;}.poloto4fill{fill:aqua;}.poloto5fill{fill:lime;}.poloto6fill{fill:orange;}.poloto7fill{fill:chocolate;}</style><circle  r="1e5" class="poloto_background" /><text  class="poloto_text poloto_legend_text" x="675" y="100" >30 years</text><line  class="poloto_line poloto_legend_icon poloto0stroke poloto0legend" stroke="black" x1="680" x2="730" y1="81.25" y2="81.25" /><path  class="poloto_line poloto0stroke" fill="none" stroke="black" d=" M 150.00 333.33 L 157.46 366.67 L 179.85 333.33 L 187.31 300.00 L 194.78 300.00 L 194.78 300.00 L 209.70 233.33 L 232.09 233.33 L 239.55 266.67 L 247.01 300.00 L 254.48 333.33 L 261.94 266.67 L 284.33 300.00 L 291.79 266.67 L 299.25 233.33 L 306.72 200.00 L 314.18 200.00 L 336.57 200.00 L 344.03 233.33 L 351.49 233.33 L 358.96 233.33 L 366.42 166.67 L 396.27 136.00 L 403.73 133.33 L 411.19 133.33 L 418.66 100.00 L 441.04 133.33 L 448.51 166.67 L 463.43 136.00 L 470.90 136.00 L 493.28 136.00 L 500.75 136.00 L 508.21 136.00 L 515.67 136.00 L 523.13 100.00 L 545.52 133.33 L 552.99 136.00 L 552.99 136.00 L 560.45 136.00 L 567.91 136.00 L 575.37 136.00 L 597.76 136.00 L 605.22 136.00 L 612.69 136.00 L 612.69 136.00 L 620.15 136.00 L 627.61 200.00 L 650.00 200.00" /><text  class="poloto_labels poloto_text poloto_title" x="400" y="37.5" >lower.com purchase rates</text><text  class="poloto_labels poloto_text poloto_xname" x="400" y="481.25" >Date</text><text  class="poloto_labels poloto_text poloto_yname" transform="rotate(-90,37.5,250)" x="37.5" y="250" >Rate (%)</text><text  class="poloto_tick_labels poloto_text" dominant-baseline="middle" text-anchor="start" x="150" y="70" ></text><line  class="poloto_axis_lines" stroke="black" x1="150" x2="144" y1="400" y2="400" /><line  class="poloto_tick_line" stroke="black" x1="150" x2="650" y1="400" y2="400" /><text  class="poloto_tick_labels poloto_text" dominant-baseline="middle" text-anchor="end" x="135" y="400" >4</text><line  class="poloto_axis_lines" stroke="black" x1="150" x2="144" y1="366.66666666666674" y2="366.66666666666674" /><line  class="poloto_tick_line" stroke="black" x1="150" x2="650" y1="366.66666666666674" y2="366.66666666666674" /><text  class="poloto_tick_labels poloto_text" dominant-baseline="middle" text-anchor="end" x="135" y="366.66666666666674" >4.125</text><line  class="poloto_axis_lines" stroke="black" x1="150" x2="144" y1="333.33333333333326" y2="333.33333333333326" /><line  class="poloto_tick_line" stroke="black" x1="150" x2="650" y1="333.33333333333326" y2="333.33333333333326" /><text  class="poloto_tick_labels poloto_text" dominant-baseline="middle" text-anchor="end" x="135" y="333.33333333333326" >4.25</text><line  class="poloto_axis_lines" stroke="black" x1="150" x2="144" y1="300" y2="300" /><line  class="poloto_tick_line" stroke="black" x1="150" x2="650" y1="300" y2="300" /><text  class="poloto_tick_labels poloto_text" dominant-baseline="middle" text-anchor="end" x="135" y="300" >4.375</text><line  class="poloto_axis_lines" stroke="black" x1="150" x2="144" y1="266.66666666666674" y2="266.66666666666674" /><line  class="poloto_tick_line" stroke="black" x1="150" x2="650" y1="266.66666666666674" y2="266.66666666666674" /><text  class="poloto_tick_labels poloto_text" dominant-baseline="middle" text-anchor="end" x="135" y="266.66666666666674" >4.5</text><line  class="poloto_axis_lines" stroke="black" x1="150" x2="144" y1="233.33333333333326" y2="233.33333333333326" /><line  class="poloto_tick_line" stroke="black" x1="150" x2="650" y1="233.33333333333326" y2="233.33333333333326" /><text  class="poloto_tick_labels poloto_text" dominant-baseline="middle" text-anchor="end" x="135" y="233.33333333333326" >4.625</text><line  class="poloto_axis_lines" stroke="black" x1="150" x2="144" y1="200" y2="200" /><line  class="poloto_tick_line" stroke="black" x1="150" x2="650" y1="200" y2="200" /><text  class="poloto_tick_labels poloto_text" dominant-baseline="middle" text-anchor="end" x="135" y="200" >4.75</text><line  class="poloto_axis_lines" stroke="black" x1="150" x2="144" y1="166.66666666666674" y2="166.66666666666674" /><line  class="poloto_tick_line" stroke="black" x1="150" x2="650" y1="166.66666666666674" y2="166.66666666666674" /><text  class="poloto_tick_labels poloto_text" dominant-baseline="middle" text-anchor="end" x="135" y="166.66666666666674" >4.875</text><line  class="poloto_axis_lines" stroke="black" x1="150" x2="144" y1="133.33333333333326" y2="133.33333333333326" /><line  class="poloto_tick_line" stroke="black" x1="150" x2="650" y1="133.33333333333326" y2="133.33333333333326" /><text  class="poloto_tick_labels poloto_text" dominant-baseline="middle" text-anchor="end" x="135" y="133.33333333333326" >5</text><line  class="poloto_axis_lines" stroke="black" x1="150" x2="144" y1="100" y2="100" /><line  class="poloto_tick_line" stroke="black" x1="150" x2="650" y1="100" y2="100" /><text  class="poloto_tick_labels poloto_text" dominant-baseline="middle" text-anchor="end" x="135" y="100" >5.125</text><text  class="poloto_tick_labels poloto_text" dominant-baseline="middle" text-anchor="start" x="440.00000000000006" y="70" >ยน2022-03-22 00:00:00 UTC in Days</text><line  class="poloto_axis_lines" stroke="black" x1="187.31343283582828" x2="187.31343283582828" y1="400" y2="405" /><line  class="poloto_tick_line" stroke="black" x1="187.31343283582828" x2="187.31343283582828" y1="400" y2="100" /><text  class="poloto_tick_labels poloto_text" dominant-baseline="start" text-anchor="middle" x="187.31343283582828" y="430" >Mar 22ยน</text><line  class="poloto_axis_lines" stroke="black" x1="239.55223880597623" x2="239.55223880597623" y1="400" y2="405" /><line  class="poloto_tick_line" stroke="black" x1="239.55223880597623" x2="239.55223880597623" y1="400" y2="100" /><text  class="poloto_tick_labels poloto_text" dominant-baseline="start" text-anchor="middle" x="239.55223880597623" y="430" >Mar 29</text><line  class="poloto_axis_lines" stroke="black" x1="291.7910447761242" x2="291.7910447761242" y1="400" y2="405" /><line  class="poloto_tick_line" stroke="black" x1="291.7910447761242" x2="291.7910447761242" y1="400" y2="100" /><text  class="poloto_tick_labels poloto_text" dominant-baseline="start" text-anchor="middle" x="291.7910447761242" y="430" >Apr 05</text><line  class="poloto_axis_lines" stroke="black" x1="344.02985074627213" x2="344.02985074627213" y1="400" y2="405" /><line  class="poloto_tick_line" stroke="black" x1="344.02985074627213" x2="344.02985074627213" y1="400" y2="100" /><text  class="poloto_tick_labels poloto_text" dominant-baseline="start" text-anchor="middle" x="344.02985074627213" y="430" >Apr 12</text><line  class="poloto_axis_lines" stroke="black" x1="396.2686567164201" x2="396.2686567164201" y1="400" y2="405" /><line  class="poloto_tick_line" stroke="black" x1="396.2686567164201" x2="396.2686567164201" y1="400" y2="100" /><text  class="poloto_tick_labels poloto_text" dominant-baseline="start" text-anchor="middle" x="396.2686567164201" y="430" >Apr 19</text><line  class="poloto_axis_lines" stroke="black" x1="448.50746268656803" x2="448.50746268656803" y1="400" y2="405" /><line  class="poloto_tick_line" stroke="black" x1="448.50746268656803" x2="448.50746268656803" y1="400" y2="100" /><text  class="poloto_tick_labels poloto_text" dominant-baseline="start" text-anchor="middle" x="448.50746268656803" y="430" >Apr 26</text><line  class="poloto_axis_lines" stroke="black" x1="500.746268656716" x2="500.746268656716" y1="400" y2="405" /><line  class="poloto_tick_line" stroke="black" x1="500.746268656716" x2="500.746268656716" y1="400" y2="100" /><text  class="poloto_tick_labels poloto_text" dominant-baseline="start" text-anchor="middle" x="500.746268656716" y="430" >May 03</text><line  class="poloto_axis_lines" stroke="black" x1="552.9850746268639" x2="552.9850746268639" y1="400" y2="405" /><line  class="poloto_tick_line" stroke="black" x1="552.9850746268639" x2="552.9850746268639" y1="400" y2="100" /><text  class="poloto_tick_labels poloto_text" dominant-baseline="start" text-anchor="middle" x="552.9850746268639" y="430" >May 10</text><line  class="poloto_axis_lines" stroke="black" x1="605.2238805970119" x2="605.2238805970119" y1="400" y2="405" /><line  class="poloto_tick_line" stroke="black" x1="605.2238805970119" x2="605.2238805970119" y1="400" y2="100" /><text  class="poloto_tick_labels poloto_text" dominant-baseline="start" text-anchor="middle" x="605.2238805970119" y="430" >May 17</text><path  stroke="black" fill="none" class="poloto_axis_lines" d=" M 150 400 L 650 400" /><path  stroke="black" fill="none" class="poloto_axis_lines" d=" M 150 400 L 150 100" /></svg>