<svg class="poloto" width="800" height="500" viewBox="0 0 800 500" xmlns="http://www.w3.org/2000/svg"><style>.poloto{stroke-linecap:round;stroke-linejoin:round;font-family:Roboto,sans-serif;font-size:16px;}.poloto_background{fill:#262626;}.poloto_scatter{stroke-width:7}.poloto_tick_line{stroke:dimgray;stroke-width:0.5}.poloto_line{stroke-width:2}.poloto_text{fill: white;}.poloto_axis_lines{stroke: white;stroke-width:3;fill:none;stroke-dasharray:none}.poloto_title{font-size:24px;dominant-baseline:start;text-anchor:middle;}.poloto_xname{font-size:24px;dominant-baseline:start;text-anchor:middle;}.poloto_yname{font-size:24px;dominant-baseline:start;text-anchor:middle;}.poloto0stroke{stroke:blue;}.poloto1stroke{stroke:red;}.poloto2stroke{stroke:green;}.poloto3stroke{stroke:gold;}.poloto4stroke{stroke:aqua;}.poloto5stroke{stroke:lime;}.poloto6stroke{stroke:orange;}.poloto7stroke{stroke:chocolate;}.poloto0fill{fill:blue;}.poloto1fill{fill:red;}.poloto2fill{fill:green;}.poloto3fill{fill:gold;}.poloto4fill{fill:aqua;}.poloto5fill{fill:lime;}.poloto6fill{fill:orange;}.poloto7fill{fill:chocolate;}</style><circle  r="1e5" class="poloto_background" /><text  class="poloto_text poloto_legend_text" x="675" y="100" >Refinance 15</text><line  class="poloto_line poloto_legend_icon poloto0stroke poloto0legend" stroke="black" x1="680" x2="730" y1="81.25" y2="81.25" /><path  class="poloto_line poloto0stroke" fill="none" stroke="black" d=" M 150.00 392.46 L 151.98 400.00 L 157.91 389.32 L 159.88 380.17 L 161.86 389.32 L 161.86 389.32 L 165.81 358.81 L 171.74 357.20 L 173.72 367.88 L 175.69 344.83 L 177.67 346.44 L 179.64 341.61 L 185.57 343.22 L 187.55 336.78 L 187.55 336.78 L 191.50 337.37 L 193.48 314.32 L 199.41 324.32 L 201.38 327.54 L 203.36 327.54 L 205.34 326.69 L 207.31 321.78 L 215.22 278.73 L 217.19 297.88 L 219.17 283.05 L 221.15 277.29 L 221.15 277.29 L 229.05 299.58 L 233.00 303.64 L 234.98 294.58 L 240.91 283.81 L 242.89 305.25 L 244.86 294.58 L 244.86 294.58 L 248.81 292.88 L 254.74 296.19 L 256.72 306.86 L 256.72 306.86 L 258.70 297.80 L 260.67 308.56 L 262.65 292.88 L 268.58 325.08 L 270.55 324.32 L 272.53 306.86 L 272.53 306.86 L 274.51 314.32 L 276.48 317.63 L 282.41 317.63 L 284.39 329.15 L 286.36 329.15 L 288.34 329.15 L 290.32 329.15 L 298.22 317.63 L 300.20 314.32 L 302.17 315.93 L 304.15 315.93 L 304.15 315.93 L 312.06 305.25 L 314.03 305.25 L 316.01 296.19 L 323.91 281.36 L 325.89 250.76 L 327.87 254.15 L 329.84 254.15 L 331.82 275.59 L 337.75 254.15 L 339.72 254.15 L 341.70 273.90 L 343.68 277.29 L 351.58 277.29 L 353.56 275.59 L 355.53 280.59 L 357.51 285.51 L 359.49 296.19 L 367.39 303.64 L 369.37 294.58 L 371.34 287.12 L 373.32 283.81 L 379.25 285.51 L 383.20 285.51 L 385.18 283.81 L 393.08 282.20 L 393.08 282.20 L 393.08 282.20 L 393.08 282.20 L 393.08 282.20 L 393.08 282.20 L 397.04 282.20 L 397.04 282.20 L 397.04 282.20 L 397.04 282.20 L 397.04 282.20 L 397.04 282.20 L 406.92 294.58 L 410.87 297.80 L 412.85 325.93 L 414.82 329.15 L 420.75 329.15 L 422.73 327.54 L 424.70 305.25 L 426.68 299.49 L 428.66 285.51 L 434.58 296.19 L 434.58 296.19 L 436.56 287.12 L 440.51 296.19 L 440.51 296.19 L 450.40 296.19 L 452.37 262.46 L 454.35 282.20 L 462.25 248.39 L 466.21 248.39 L 466.21 248.39 L 470.16 260.76 L 478.06 254.15 L 478.06 254.15 L 478.06 254.15 L 478.06 254.15 L 478.06 254.15 L 478.06 254.15 L 478.06 254.15 L 478.06 254.15 L 478.06 254.15 L 483.99 254.15 L 495.85 232.63 L 503.75 235.17 L 503.75 235.17 L 509.68 235.17 L 517.59 235.17 L 519.57 235.17 L 519.57 235.17 L 519.57 235.17 L 519.57 235.17 L 519.57 235.17 L 545.26 235.17 L 547.23 235.17 L 559.09 139.75 L 561.07 130.68 L 563.04 130.68 L 634.19 159.15 L 642.09 159.15 L 644.07 159.15 L 646.05 175.51 L 650.00 184.49" /><text  class="poloto_text poloto_legend_text" x="675" y="150" >Refinance 20</text><line  class="poloto_line poloto_legend_icon poloto1stroke poloto1legend" stroke="black" x1="680" x2="730" y1="131.25" y2="131.25" /><path  class="poloto_line poloto1stroke" fill="none" stroke="black" d=" M 150.00 345.68 L 151.98 368.31 L 157.91 334.58 L 159.88 324.24 L 161.86 333.73 L 161.86 333.73 L 165.81 304.07 L 171.74 301.53 L 173.72 312.29 L 175.69 300.25 L 177.67 311.02 L 179.64 290.85 L 185.57 321.69 L 187.55 290.85 L 187.55 290.85 L 191.50 290.85 L 191.50 290.85 L 199.41 250.17 L 201.38 282.71 L 203.36 290.85 L 205.34 301.53 L 207.31 280.59 L 215.22 260.00 L 217.19 257.37 L 219.17 252.12 L 221.15 240.08 L 227.08 245.34 L 229.05 268.14 L 233.00 260.00 L 234.98 257.37 L 240.91 248.81 L 242.89 258.73 L 244.86 258.73 L 244.86 258.73 L 248.81 258.73 L 254.74 260.00 L 256.72 281.44 L 256.72 281.44 L 258.70 269.41 L 260.67 289.58 L 262.65 281.44 L 268.58 282.71 L 270.55 281.44 L 272.53 281.44 L 272.53 281.44 L 274.51 282.71 L 276.48 289.58 L 282.41 290.85 L 284.39 294.66 L 286.36 294.66 L 288.34 294.66 L 290.32 294.66 L 298.22 289.58 L 300.20 278.81 L 302.17 281.44 L 304.15 281.44 L 304.15 281.44 L 312.06 268.14 L 314.03 270.68 L 316.01 261.27 L 323.91 215.85 L 325.89 197.03 L 327.87 207.80 L 329.84 215.85 L 331.82 238.56 L 337.75 225.17 L 339.72 218.47 L 341.70 239.92 L 343.68 250.17 L 351.58 250.17 L 353.56 238.56 L 355.53 249.32 L 357.51 260.00 L 359.49 272.03 L 367.39 280.08 L 369.37 269.41 L 371.34 258.73 L 373.32 251.44 L 379.25 257.37 L 383.20 260.00 L 385.18 258.73 L 393.08 260.00 L 393.08 260.00 L 393.08 260.00 L 393.08 260.00 L 393.08 260.00 L 393.08 260.00 L 393.08 260.00 L 393.08 260.00 L 393.08 260.00 L 393.08 260.00 L 393.08 260.00 L 393.08 260.00 L 406.92 280.08 L 410.87 282.71 L 412.85 301.53 L 414.82 304.07 L 420.75 301.27 L 422.73 301.27 L 424.70 290.85 L 426.68 294.66 L 428.66 278.81 L 434.58 270.68 L 434.58 270.68 L 436.56 270.68 L 440.51 281.44 L 440.51 281.44 L 450.40 278.81 L 452.37 260.00 L 454.35 260.00 L 462.25 246.19 L 466.21 234.58 L 466.21 234.58 L 470.16 247.54 L 478.06 215.85 L 478.06 215.85 L 478.06 215.85 L 478.06 215.85 L 478.06 215.85 L 478.06 215.85 L 478.06 215.85 L 478.06 215.85 L 478.06 215.85 L 483.99 215.85 L 495.85 202.37 L 503.75 203.73 L 507.71 203.73 L 509.68 203.73 L 509.68 203.73 L 519.57 203.73 L 521.54 203.73 L 521.54 203.73 L 521.54 203.73 L 521.54 203.73 L 545.26 203.73 L 547.23 203.73 L 559.09 118.81 L 561.07 102.97 L 561.07 102.97 L 638.14 155.34 L 642.09 155.34 L 644.07 155.34 L 648.02 174.15 L 650.00 175.51" /><text  class="poloto_text poloto_legend_text" x="675" y="200" >Refinance 30</text><line  class="poloto_line poloto_legend_icon poloto2stroke poloto2legend" stroke="black" x1="680" x2="730" y1="181.25" y2="181.25" /><path  class="poloto_line poloto2stroke" fill="none" stroke="black" d=" M 150.00 343.31 L 151.98 351.36 L 157.91 338.81 L 159.88 328.98 L 161.86 330.85 L 161.86 330.85 L 165.81 310.25 L 171.74 308.47 L 173.72 319.15 L 175.69 307.54 L 177.67 318.22 L 179.64 297.71 L 185.57 307.54 L 187.55 286.95 L 189.53 286.95 L 191.50 286.02 L 193.48 260.00 L 199.41 264.58 L 201.38 276.27 L 203.36 286.95 L 205.34 277.20 L 207.31 265.51 L 215.22 256.61 L 217.19 242.12 L 219.17 240.17 L 221.15 238.14 L 227.08 242.12 L 229.05 258.73 L 233.00 256.61 L 234.98 254.66 L 240.91 244.07 L 242.89 255.59 L 244.86 244.07 L 244.86 244.07 L 248.81 244.07 L 254.74 246.02 L 256.72 264.58 L 256.72 264.58 L 258.70 255.59 L 260.67 256.61 L 262.65 257.54 L 268.58 265.51 L 270.55 256.61 L 272.53 256.61 L 272.53 256.61 L 274.51 266.44 L 276.48 267.46 L 282.41 268.39 L 284.39 277.20 L 286.36 277.20 L 288.34 279.07 L 290.32 279.07 L 298.22 275.25 L 300.20 264.58 L 302.17 266.44 L 304.15 265.51 L 304.15 265.51 L 312.06 255.59 L 314.03 255.59 L 316.01 245.00 L 323.91 202.12 L 325.89 171.78 L 327.87 190.34 L 329.84 202.12 L 331.82 212.80 L 337.75 203.05 L 339.72 202.12 L 341.70 221.61 L 343.68 223.56 L 351.58 223.56 L 353.56 211.86 L 355.53 221.61 L 357.51 232.29 L 359.49 255.59 L 367.39 256.61 L 369.37 245.00 L 371.34 224.58 L 373.32 221.61 L 379.25 241.10 L 383.20 223.56 L 385.18 222.54 L 393.08 242.12 L 393.08 242.12 L 393.08 242.12 L 393.08 242.12 L 393.08 242.12 L 393.08 242.12 L 397.04 242.12 L 397.04 242.12 L 397.04 242.12 L 397.04 242.12 L 397.04 242.12 L 397.04 242.12 L 406.92 254.66 L 410.87 256.61 L 412.85 275.25 L 414.82 287.88 L 420.75 286.95 L 422.73 286.95 L 424.70 265.51 L 426.68 268.39 L 428.66 254.66 L 434.58 265.51 L 434.58 265.51 L 436.56 257.54 L 440.51 266.44 L 440.51 266.44 L 450.40 264.58 L 452.37 246.02 L 454.35 245.00 L 462.25 220.59 L 466.21 211.86 L 466.21 211.86 L 470.16 222.54 L 478.06 210.85 L 478.06 210.85 L 478.06 210.85 L 478.06 210.85 L 478.06 210.85 L 478.06 210.85 L 478.06 210.85 L 478.06 210.85 L 483.99 210.85 L 483.99 209.83 L 495.85 197.03 L 503.75 175.51 L 503.75 175.51 L 509.68 175.51 L 509.68 175.51 L 519.57 175.51 L 521.54 175.51 L 521.54 175.51 L 521.54 175.51 L 521.54 175.51 L 545.26 175.51 L 547.23 175.51 L 559.09 127.03 L 561.07 100.00 L 561.07 100.00 L 638.14 146.44 L 642.09 146.44 L 644.07 146.44 L 646.05 150.76 L 650.00 160.59" /><text  class="poloto_labels poloto_text poloto_title" x="400" y="37.5" >lower.com purchase rates</text><text  class="poloto_labels poloto_text poloto_xname" x="400" y="481.25" >Date</text><text  class="poloto_labels poloto_text poloto_yname" transform="rotate(-90,37.5,250)" x="37.5" y="250" >Rate (%)</text><text  class="poloto_tick_labels poloto_text" dominant-baseline="middle" text-anchor="start" x="150" y="70" ></text><line  class="poloto_axis_lines" stroke="black" x1="150" x2="144" y1="390.2542372881356" y2="390.2542372881356" /><line  class="poloto_tick_line" stroke="black" x1="150" x2="650" y1="390.2542372881356" y2="390.2542372881356" /><text  class="poloto_tick_labels poloto_text" dominant-baseline="middle" text-anchor="end" x="135" y="390.2542372881356" >3.625</text><line  class="poloto_axis_lines" stroke="black" x1="150" x2="144" y1="379.66101694915255" y2="379.66101694915255" /><line  class="poloto_tick_line" stroke="black" x1="150" x2="650" y1="379.66101694915255" y2="379.66101694915255" /><text  class="poloto_tick_labels poloto_text" dominant-baseline="middle" text-anchor="end" x="135" y="379.66101694915255" >3.75</text><line  class="poloto_axis_lines" stroke="black" x1="150" x2="144" y1="369.06779661016947" y2="369.06779661016947" /><line  class="poloto_tick_line" stroke="black" x1="150" x2="650" y1="369.06779661016947" y2="369.06779661016947" /><text  class="poloto_tick_labels poloto_text" dominant-baseline="middle" text-anchor="end" x="135" y="369.06779661016947" >3.875</text><line  class="poloto_axis_lines" stroke="black" x1="150" x2="144" y1="358.47457627118644" y2="358.47457627118644" /><line  class="poloto_tick_line" stroke="black" x1="150" x2="650" y1="358.47457627118644" y2="358.47457627118644" /><text  class="poloto_tick_labels poloto_text" dominant-baseline="middle" text-anchor="end" x="135" y="358.47457627118644" >4</text><line  class="poloto_axis_lines" stroke="black" x1="150" x2="144" y1="347.8813559322034" y2="347.8813559322034" /><line  class="poloto_tick_line" stroke="black" x1="150" x2="650" y1="347.8813559322034" y2="347.8813559322034" /><text  class="poloto_tick_labels poloto_text" dominant-baseline="middle" text-anchor="end" x="135" y="347.8813559322034" >4.125</text><line  class="poloto_axis_lines" stroke="black" x1="150" x2="144" y1="337.2881355932203" y2="337.2881355932203" /><line  class="poloto_tick_line" stroke="black" x1="150" x2="650" y1="337.2881355932203" y2="337.2881355932203" /><text  class="poloto_tick_labels poloto_text" dominant-baseline="middle" text-anchor="end" x="135" y="337.2881355932203" >4.25</text><line  class="poloto_axis_lines" stroke="black" x1="150" x2="144" y1="326.6949152542373" y2="326.6949152542373" /><line  class="poloto_tick_line" stroke="black" x1="150" x2="650" y1="326.6949152542373" y2="326.6949152542373" /><text  class="poloto_tick_labels poloto_text" dominant-baseline="middle" text-anchor="end" x="135" y="326.6949152542373" >4.375</text><line  class="poloto_axis_lines" stroke="black" x1="150" x2="144" y1="316.10169491525426" y2="316.10169491525426" /><line  class="poloto_tick_line" stroke="black" x1="150" x2="650" y1="316.10169491525426" y2="316.10169491525426" /><text  class="poloto_tick_labels poloto_text" dominant-baseline="middle" text-anchor="end" x="135" y="316.10169491525426" >4.5</text><line  class="poloto_axis_lines" stroke="black" x1="150" x2="144" y1="305.50847457627117" y2="305.50847457627117" /><line  class="poloto_tick_line" stroke="black" x1="150" x2="650" y1="305.50847457627117" y2="305.50847457627117" /><text  class="poloto_tick_labels poloto_text" dominant-baseline="middle" text-anchor="end" x="135" y="305.50847457627117" >4.625</text><line  class="poloto_axis_lines" stroke="black" x1="150" x2="144" y1="294.91525423728814" y2="294.91525423728814" /><line  class="poloto_tick_line" stroke="black" x1="150" x2="650" y1="294.91525423728814" y2="294.91525423728814" /><text  class="poloto_tick_labels poloto_text" dominant-baseline="middle" text-anchor="end" x="135" y="294.91525423728814" >4.75</text><line  class="poloto_axis_lines" stroke="black" x1="150" x2="144" y1="284.3220338983051" y2="284.3220338983051" /><line  class="poloto_tick_line" stroke="black" x1="150" x2="650" y1="284.3220338983051" y2="284.3220338983051" /><text  class="poloto_tick_labels poloto_text" dominant-baseline="middle" text-anchor="end" x="135" y="284.3220338983051" >4.875</text><line  class="poloto_axis_lines" stroke="black" x1="150" x2="144" y1="273.728813559322" y2="273.728813559322" /><line  class="poloto_tick_line" stroke="black" x1="150" x2="650" y1="273.728813559322" y2="273.728813559322" /><text  class="poloto_tick_labels poloto_text" dominant-baseline="middle" text-anchor="end" x="135" y="273.728813559322" >5</text><line  class="poloto_axis_lines" stroke="black" x1="150" x2="144" y1="263.135593220339" y2="263.135593220339" /><line  class="poloto_tick_line" stroke="black" x1="150" x2="650" y1="263.135593220339" y2="263.135593220339" /><text  class="poloto_tick_labels poloto_text" dominant-baseline="middle" text-anchor="end" x="135" y="263.135593220339" >5.125</text><line  class="poloto_axis_lines" stroke="black" x1="150" x2="144" y1="252.54237288135596" y2="252.54237288135596" /><line  class="poloto_tick_line" stroke="black" x1="150" x2="650" y1="252.54237288135596" y2="252.54237288135596" /><text  class="poloto_tick_labels poloto_text" dominant-baseline="middle" text-anchor="end" x="135" y="252.54237288135596" >5.25</text><line  class="poloto_axis_lines" stroke="black" x1="150" x2="144" y1="241.94915254237287" y2="241.94915254237287" /><line  class="poloto_tick_line" stroke="black" x1="150" x2="650" y1="241.94915254237287" y2="241.94915254237287" /><text  class="poloto_tick_labels poloto_text" dominant-baseline="middle" text-anchor="end" x="135" y="241.94915254237287" >5.375</text><line  class="poloto_axis_lines" stroke="black" x1="150" x2="144" y1="231.35593220338984" y2="231.35593220338984" /><line  class="poloto_tick_line" stroke="black" x1="150" x2="650" y1="231.35593220338984" y2="231.35593220338984" /><text  class="poloto_tick_labels poloto_text" dominant-baseline="middle" text-anchor="end" x="135" y="231.35593220338984" >5.5</text><line  class="poloto_axis_lines" stroke="black" x1="150" x2="144" y1="220.7627118644068" y2="220.7627118644068" /><line  class="poloto_tick_line" stroke="black" x1="150" x2="650" y1="220.7627118644068" y2="220.7627118644068" /><text  class="poloto_tick_labels poloto_text" dominant-baseline="middle" text-anchor="end" x="135" y="220.7627118644068" >5.625</text><line  class="poloto_axis_lines" stroke="black" x1="150" x2="144" y1="210.16949152542372" y2="210.16949152542372" /><line  class="poloto_tick_line" stroke="black" x1="150" x2="650" y1="210.16949152542372" y2="210.16949152542372" /><text  class="poloto_tick_labels poloto_text" dominant-baseline="middle" text-anchor="end" x="135" y="210.16949152542372" >5.75</text><line  class="poloto_axis_lines" stroke="black" x1="150" x2="144" y1="199.5762711864407" y2="199.5762711864407" /><line  class="poloto_tick_line" stroke="black" x1="150" x2="650" y1="199.5762711864407" y2="199.5762711864407" /><text  class="poloto_tick_labels poloto_text" dominant-baseline="middle" text-anchor="end" x="135" y="199.5762711864407" >5.875</text><line  class="poloto_axis_lines" stroke="black" x1="150" x2="144" y1="188.98305084745766" y2="188.98305084745766" /><line  class="poloto_tick_line" stroke="black" x1="150" x2="650" y1="188.98305084745766" y2="188.98305084745766" /><text  class="poloto_tick_labels poloto_text" dominant-baseline="middle" text-anchor="end" x="135" y="188.98305084745766" >6</text><line  class="poloto_axis_lines" stroke="black" x1="150" x2="144" y1="178.38983050847457" y2="178.38983050847457" /><line  class="poloto_tick_line" stroke="black" x1="150" x2="650" y1="178.38983050847457" y2="178.38983050847457" /><text  class="poloto_tick_labels poloto_text" dominant-baseline="middle" text-anchor="end" x="135" y="178.38983050847457" >6.125</text><line  class="poloto_axis_lines" stroke="black" x1="150" x2="144" y1="167.7966101694915" y2="167.7966101694915" /><line  class="poloto_tick_line" stroke="black" x1="150" x2="650" y1="167.7966101694915" y2="167.7966101694915" /><text  class="poloto_tick_labels poloto_text" dominant-baseline="middle" text-anchor="end" x="135" y="167.7966101694915" >6.25</text><line  class="poloto_axis_lines" stroke="black" x1="150" x2="144" y1="157.2033898305085" y2="157.2033898305085" /><line  class="poloto_tick_line" stroke="black" x1="150" x2="650" y1="157.2033898305085" y2="157.2033898305085" /><text  class="poloto_tick_labels poloto_text" dominant-baseline="middle" text-anchor="end" x="135" y="157.2033898305085" >6.375</text><line  class="poloto_axis_lines" stroke="black" x1="150" x2="144" y1="146.61016949152543" y2="146.61016949152543" /><line  class="poloto_tick_line" stroke="black" x1="150" x2="650" y1="146.61016949152543" y2="146.61016949152543" /><text  class="poloto_tick_labels poloto_text" dominant-baseline="middle" text-anchor="end" x="135" y="146.61016949152543" >6.5</text><line  class="poloto_axis_lines" stroke="black" x1="150" x2="144" y1="136.01694915254234" y2="136.01694915254234" /><line  class="poloto_tick_line" stroke="black" x1="150" x2="650" y1="136.01694915254234" y2="136.01694915254234" /><text  class="poloto_tick_labels poloto_text" dominant-baseline="middle" text-anchor="end" x="135" y="136.01694915254234" >6.625</text><line  class="poloto_axis_lines" stroke="black" x1="150" x2="144" y1="125.42372881355936" y2="125.42372881355936" /><line  class="poloto_tick_line" stroke="black" x1="150" x2="650" y1="125.42372881355936" y2="125.42372881355936" /><text  class="poloto_tick_labels poloto_text" dominant-baseline="middle" text-anchor="end" x="135" y="125.42372881355936" >6.75</text><line  class="poloto_axis_lines" stroke="black" x1="150" x2="144" y1="114.83050847457628" y2="114.83050847457628" /><line  class="poloto_tick_line" stroke="black" x1="150" x2="650" y1="114.83050847457628" y2="114.83050847457628" /><text  class="poloto_tick_labels poloto_text" dominant-baseline="middle" text-anchor="end" x="135" y="114.83050847457628" >6.875</text><line  class="poloto_axis_lines" stroke="black" x1="150" x2="144" y1="104.23728813559319" y2="104.23728813559319" /><line  class="poloto_tick_line" stroke="black" x1="150" x2="650" y1="104.23728813559319" y2="104.23728813559319" /><text  class="poloto_tick_labels poloto_text" dominant-baseline="middle" text-anchor="end" x="135" y="104.23728813559319" >7</text><text  class="poloto_tick_labels poloto_text" dominant-baseline="middle" text-anchor="start" x="440.00000000000006" y="70" >¹2022-05-01 00:00:00 UTC in Months</text><line  class="poloto_axis_lines" stroke="black" x1="238.93280632411188" x2="238.93280632411188" y1="400" y2="405" /><line  class="poloto_tick_line" stroke="black" x1="238.93280632411188" x2="238.93280632411188" y1="400" y2="100" /><text  class="poloto_tick_labels poloto_text" dominant-baseline="start" text-anchor="middle" x="238.93280632411188" y="430" >2022 May¹</text><line  class="poloto_axis_lines" stroke="black" x1="359.4861660079041" x2="359.4861660079041" y1="400" y2="405" /><line  class="poloto_tick_line" stroke="black" x1="359.4861660079041" x2="359.4861660079041" y1="400" y2="100" /><text  class="poloto_tick_labels poloto_text" dominant-baseline="start" text-anchor="middle" x="359.4861660079041" y="430" >2022 Jul</text><line  class="poloto_axis_lines" stroke="black" x1="482.01581027668" x2="482.01581027668" y1="400" y2="405" /><line  class="poloto_tick_line" stroke="black" x1="482.01581027668" x2="482.01581027668" y1="400" y2="100" /><text  class="poloto_tick_labels poloto_text" dominant-baseline="start" text-anchor="middle" x="482.01581027668" y="430" >2022 Sep</text><line  class="poloto_axis_lines" stroke="black" x1="602.5691699604722" x2="602.5691699604722" y1="400" y2="405" /><line  class="poloto_tick_line" stroke="black" x1="602.5691699604722" x2="602.5691699604722" y1="400" y2="100" /><text  class="poloto_tick_labels poloto_text" dominant-baseline="start" text-anchor="middle" x="602.5691699604722" y="430" >2022 Nov</text><path  stroke="black" fill="none" class="poloto_axis_lines" d=" M 150 400 L 650 400" /><path  stroke="black" fill="none" class="poloto_axis_lines" d=" M 150 400 L 150 100" /></svg>