<svg class="poloto" width="800" height="500" viewBox="0 0 800 500" xmlns="http://www.w3.org/2000/svg"><style>.poloto{stroke-linecap:round;stroke-linejoin:round;font-family:Roboto,sans-serif;font-size:16px;}.poloto_background{fill:#262626;}.poloto_scatter{stroke-width:7}.poloto_tick_line{stroke:dimgray;stroke-width:0.5}.poloto_line{stroke-width:2}.poloto_text{fill: white;}.poloto_axis_lines{stroke: white;stroke-width:3;fill:none;stroke-dasharray:none}.poloto_title{font-size:24px;dominant-baseline:start;text-anchor:middle;}.poloto_xname{font-size:24px;dominant-baseline:start;text-anchor:middle;}.poloto_yname{font-size:24px;dominant-baseline:start;text-anchor:middle;}.poloto0stroke{stroke:blue;}.poloto1stroke{stroke:red;}.poloto2stroke{stroke:green;}.poloto3stroke{stroke:gold;}.poloto4stroke{stroke:aqua;}.poloto5stroke{stroke:lime;}.poloto6stroke{stroke:orange;}.poloto7stroke{stroke:chocolate;}.poloto0fill{fill:blue;}.poloto1fill{fill:red;}.poloto2fill{fill:green;}.poloto3fill{fill:gold;}.poloto4fill{fill:aqua;}.poloto5fill{fill:lime;}.poloto6fill{fill:orange;}.poloto7fill{fill:chocolate;}</style><circle  r="1e5" class="poloto_background" /><text  class="poloto_text poloto_legend_text" x="675" y="100" >Refinance 15</text><line  class="poloto_line poloto_legend_icon poloto0stroke poloto0legend" stroke="black" x1="680" x2="730" y1="81.25" y2="81.25" /><path  class="poloto_line poloto0stroke" fill="none" stroke="black" d=" M 150.00 393.13 L 151.37 400.00 L 155.48 390.27 L 156.85 381.94 L 158.22 390.27 L 158.22 390.27 L 160.96 362.48 L 165.07 361.01 L 166.44 370.74 L 167.81 349.74 L 169.18 351.21 L 170.55 346.81 L 174.66 348.28 L 176.03 342.41 L 176.03 342.41 L 178.77 342.95 L 180.14 321.95 L 184.25 331.06 L 185.62 333.99 L 186.99 333.99 L 188.36 333.22 L 189.73 328.74 L 195.21 289.53 L 196.58 306.97 L 197.95 293.46 L 199.32 288.21 L 199.32 288.21 L 204.79 308.52 L 207.53 312.22 L 208.90 303.96 L 213.01 294.16 L 214.38 313.69 L 215.75 303.96 L 215.75 303.96 L 218.49 302.42 L 222.60 305.43 L 223.97 315.16 L 223.97 315.16 L 225.34 306.90 L 226.71 316.70 L 228.08 302.42 L 232.19 331.76 L 233.56 331.06 L 234.93 315.16 L 234.93 315.16 L 236.30 321.95 L 237.67 324.96 L 241.78 324.96 L 243.15 335.46 L 244.52 335.46 L 245.89 335.46 L 247.26 335.46 L 252.74 324.96 L 254.11 321.95 L 255.48 323.42 L 256.85 323.42 L 256.85 323.42 L 262.33 313.69 L 263.70 313.69 L 265.07 305.43 L 270.55 291.92 L 271.92 264.05 L 273.29 267.14 L 274.66 267.14 L 276.03 286.67 L 280.14 267.14 L 281.51 267.14 L 282.88 285.13 L 284.25 288.21 L 289.73 288.21 L 291.10 286.67 L 292.47 291.22 L 293.84 295.70 L 295.21 305.43 L 300.68 312.22 L 302.05 303.96 L 303.42 297.17 L 304.79 294.16 L 308.90 295.70 L 311.64 295.70 L 313.01 294.16 L 318.49 292.69 L 318.49 292.69 L 318.49 292.69 L 318.49 292.69 L 318.49 292.69 L 318.49 292.69 L 321.23 292.69 L 321.23 292.69 L 321.23 292.69 L 321.23 292.69 L 321.23 292.69 L 321.23 292.69 L 328.08 303.96 L 330.82 306.90 L 332.19 332.53 L 333.56 335.46 L 337.67 335.46 L 339.04 333.99 L 340.41 313.69 L 341.78 308.44 L 343.15 295.70 L 347.26 305.43 L 347.26 305.43 L 348.63 297.17 L 351.37 305.43 L 351.37 305.43 L 358.22 305.43 L 359.59 274.70 L 360.96 292.69 L 366.44 261.89 L 369.18 261.89 L 369.18 261.89 L 371.92 273.16 L 377.40 267.14 L 377.40 267.14 L 377.40 267.14 L 377.40 267.14 L 377.40 267.14 L 377.40 267.14 L 377.40 267.14 L 377.40 267.14 L 377.40 267.14 L 381.51 267.14 L 389.73 247.53 L 395.21 249.85 L 395.21 249.85 L 399.32 249.85 L 404.79 249.85 L 406.16 249.85 L 406.16 249.85 L 406.16 249.85 L 406.16 249.85 L 406.16 249.85 L 423.97 249.85 L 425.34 249.85 L 433.56 162.92 L 434.93 154.66 L 436.30 154.66 L 485.62 180.60 L 491.10 180.60 L 492.47 180.60 L 493.84 195.50 L 496.58 203.68 L 496.58 203.68 L 502.05 203.68 L 503.42 203.68 L 504.79 203.68 L 506.16 203.68 L 510.27 203.68 L 511.64 203.68 L 514.38 203.68 L 515.75 203.68 L 519.86 203.68 L 521.23 203.68 L 521.23 203.68 L 525.34 203.68 L 529.45 203.68 L 530.82 203.68 L 532.19 203.68 L 533.56 203.68 L 534.93 203.68 L 540.41 226.15 L 541.78 200.21 L 543.15 180.60 L 544.52 190.40 L 548.63 190.40 L 550.00 190.40 L 550.00 190.40 L 552.74 211.48 L 554.11 211.48 L 558.22 211.48 L 559.59 211.48 L 560.96 211.48 L 562.33 211.48 L 563.70 211.48 L 563.70 211.48 L 563.70 211.48 L 563.70 211.48 L 570.55 211.48 L 573.29 211.48 L 577.40 211.48 L 578.77 211.48 L 581.51 211.48 L 582.88 211.48 L 588.36 211.48 L 589.73 211.48 L 591.10 211.48 L 592.47 239.27 L 596.58 245.45 L 597.95 209.93 L 599.32 221.28 L 600.68 219.74 L 602.05 201.75 L 606.16 161.07 L 607.53 161.07 L 608.90 161.07 L 610.27 162.61 L 611.64 170.79 L 615.75 162.61 L 617.12 162.61 L 618.49 151.26 L 619.86 161.07 L 621.23 141.46 L 626.71 151.26 L 628.08 152.80 L 629.45 143.08 L 630.82 149.64 L 634.93 155.97 L 636.30 152.80 L 637.67 151.26 L 639.04 151.26 L 640.41 162.61 L 644.52 161.07 L 645.89 152.80 L 650.00 240.81" /><text  class="poloto_text poloto_legend_text" x="675" y="150" >Refinance 20</text><line  class="poloto_line poloto_legend_icon poloto1stroke poloto1legend" stroke="black" x1="680" x2="730" y1="131.25" y2="131.25" /><path  class="poloto_line poloto1stroke" fill="none" stroke="black" d=" M 150.00 350.51 L 151.37 371.13 L 155.48 340.40 L 156.85 330.98 L 158.22 339.63 L 158.22 339.63 L 160.96 312.61 L 165.07 310.29 L 166.44 320.10 L 167.81 309.14 L 169.18 318.94 L 170.55 300.57 L 174.66 328.67 L 176.03 300.57 L 176.03 300.57 L 178.77 300.57 L 178.77 300.57 L 184.25 263.51 L 185.62 293.15 L 186.99 300.57 L 188.36 310.29 L 189.73 291.22 L 195.21 272.47 L 196.58 270.07 L 197.95 265.29 L 199.32 254.32 L 203.42 259.11 L 204.79 279.88 L 207.53 272.47 L 208.90 270.07 L 213.01 262.27 L 214.38 271.31 L 215.75 271.31 L 215.75 271.31 L 218.49 271.31 L 222.60 272.47 L 223.97 292.00 L 223.97 292.00 L 225.34 281.03 L 226.71 299.41 L 228.08 292.00 L 232.19 293.15 L 233.56 292.00 L 234.93 292.00 L 234.93 292.00 L 236.30 293.15 L 237.67 299.41 L 241.78 300.57 L 243.15 304.04 L 244.52 304.04 L 245.89 304.04 L 247.26 304.04 L 252.74 299.41 L 254.11 289.60 L 255.48 292.00 L 256.85 292.00 L 256.85 292.00 L 262.33 279.88 L 263.70 282.19 L 265.07 273.62 L 270.55 232.24 L 271.92 215.11 L 273.29 224.91 L 274.66 232.24 L 276.03 252.93 L 280.14 240.74 L 281.51 234.64 L 282.88 254.17 L 284.25 263.51 L 289.73 263.51 L 291.10 252.93 L 292.47 262.74 L 293.84 272.47 L 295.21 283.43 L 300.68 290.76 L 302.05 281.03 L 303.42 271.31 L 304.79 264.67 L 308.90 270.07 L 311.64 272.47 L 313.01 271.31 L 318.49 272.47 L 318.49 272.47 L 318.49 272.47 L 318.49 272.47 L 318.49 272.47 L 318.49 272.47 L 318.49 272.47 L 318.49 272.47 L 318.49 272.47 L 318.49 272.47 L 318.49 272.47 L 318.49 272.47 L 328.08 290.76 L 330.82 293.15 L 332.19 310.29 L 333.56 312.61 L 337.67 310.06 L 339.04 310.06 L 340.41 300.57 L 341.78 304.04 L 343.15 289.60 L 347.26 282.19 L 347.26 282.19 L 348.63 282.19 L 351.37 292.00 L 351.37 292.00 L 358.22 289.60 L 359.59 272.47 L 360.96 272.47 L 366.44 259.88 L 369.18 249.31 L 369.18 249.31 L 371.92 261.12 L 377.40 232.24 L 377.40 232.24 L 377.40 232.24 L 377.40 232.24 L 377.40 232.24 L 377.40 232.24 L 377.40 232.24 L 377.40 232.24 L 377.40 232.24 L 381.51 232.24 L 389.73 219.97 L 395.21 221.20 L 397.95 221.20 L 399.32 221.20 L 399.32 221.20 L 406.16 221.20 L 407.53 221.20 L 407.53 221.20 L 407.53 221.20 L 407.53 221.20 L 423.97 221.20 L 425.34 221.20 L 433.56 143.85 L 434.93 129.41 L 434.93 129.41 L 488.36 177.12 L 491.10 177.12 L 492.47 177.12 L 495.21 194.26 L 496.58 195.50 L 496.58 195.50 L 502.05 195.50 L 503.42 195.50 L 504.79 195.50 L 506.16 195.50 L 510.27 195.50 L 511.64 195.50 L 514.38 195.50 L 515.75 195.50 L 519.86 195.50 L 521.23 195.50 L 521.23 195.50 L 525.34 195.50 L 529.45 195.50 L 530.82 195.50 L 532.19 195.50 L 533.56 195.50 L 534.93 195.50 L 540.41 178.05 L 541.78 168.55 L 543.15 167.32 L 544.52 169.87 L 548.63 169.87 L 550.00 169.87 L 550.00 169.87 L 552.74 188.16 L 554.11 188.16 L 558.22 188.16 L 559.59 188.16 L 560.96 188.16 L 562.33 188.16 L 563.70 188.16 L 563.70 188.16 L 569.18 188.16 L 569.18 188.16 L 570.55 188.16 L 573.29 188.16 L 577.40 188.16 L 578.77 188.16 L 581.51 188.16 L 582.88 188.16 L 588.36 188.16 L 589.73 188.16 L 591.10 188.16 L 592.47 209.01 L 596.58 207.77 L 597.95 178.36 L 599.32 179.59 L 599.32 179.59 L 602.05 178.36 L 606.16 158.75 L 607.53 158.75 L 608.90 150.26 L 610.27 140.45 L 611.64 149.02 L 615.75 140.45 L 617.12 130.65 L 618.49 140.45 L 619.86 150.26 L 621.23 139.22 L 626.71 140.45 L 628.08 129.41 L 629.45 100.00 L 630.82 129.41 L 634.93 150.26 L 636.30 169.17 L 637.67 140.45 L 639.04 139.22 L 640.41 167.32 L 644.52 160.06 L 645.89 150.26 L 650.00 210.24" /><text  class="poloto_text poloto_legend_text" x="675" y="200" >Refinance 30</text><line  class="poloto_line poloto_legend_icon poloto2stroke poloto2legend" stroke="black" x1="680" x2="730" y1="181.25" y2="181.25" /><path  class="poloto_line poloto2stroke" fill="none" stroke="black" d=" M 150.00 348.35 L 151.37 355.69 L 155.48 344.26 L 156.85 335.31 L 158.22 337.00 L 158.22 337.00 L 160.96 318.24 L 165.07 316.62 L 166.44 326.35 L 167.81 315.77 L 169.18 325.50 L 170.55 306.82 L 174.66 315.77 L 176.03 297.01 L 177.40 297.01 L 178.77 296.17 L 180.14 272.47 L 184.25 276.63 L 185.62 287.29 L 186.99 297.01 L 188.36 288.14 L 189.73 277.48 L 195.21 269.38 L 196.58 256.18 L 197.95 254.40 L 199.32 252.55 L 203.42 256.18 L 204.79 271.31 L 207.53 269.38 L 208.90 267.60 L 213.01 257.95 L 214.38 268.45 L 215.75 257.95 L 215.75 257.95 L 218.49 257.95 L 222.60 259.73 L 223.97 276.63 L 223.97 276.63 L 225.34 268.45 L 226.71 269.38 L 228.08 270.23 L 232.19 277.48 L 233.56 269.38 L 234.93 269.38 L 234.93 269.38 L 236.30 278.33 L 237.67 279.26 L 241.78 280.11 L 243.15 288.14 L 244.52 288.14 L 245.89 289.84 L 247.26 289.84 L 252.74 286.36 L 254.11 276.63 L 255.48 278.33 L 256.85 277.48 L 256.85 277.48 L 262.33 268.45 L 263.70 268.45 L 265.07 258.80 L 270.55 219.74 L 271.92 192.10 L 273.29 209.01 L 274.66 219.74 L 276.03 229.46 L 280.14 220.59 L 281.51 219.74 L 282.88 237.49 L 284.25 239.27 L 289.73 239.27 L 291.10 228.62 L 292.47 237.49 L 293.84 247.22 L 295.21 268.45 L 300.68 269.38 L 302.05 258.80 L 303.42 240.20 L 304.79 237.49 L 308.90 255.25 L 311.64 239.27 L 313.01 238.34 L 318.49 256.18 L 318.49 256.18 L 318.49 256.18 L 318.49 256.18 L 318.49 256.18 L 318.49 256.18 L 321.23 256.18 L 321.23 256.18 L 321.23 256.18 L 321.23 256.18 L 321.23 256.18 L 321.23 256.18 L 328.08 267.60 L 330.82 269.38 L 332.19 286.36 L 333.56 297.86 L 337.67 297.01 L 339.04 297.01 L 340.41 277.48 L 341.78 280.11 L 343.15 267.60 L 347.26 277.48 L 347.26 277.48 L 348.63 270.23 L 351.37 278.33 L 351.37 278.33 L 358.22 276.63 L 359.59 259.73 L 360.96 258.80 L 366.44 236.57 L 369.18 228.62 L 369.18 228.62 L 371.92 238.34 L 377.40 227.69 L 377.40 227.69 L 377.40 227.69 L 377.40 227.69 L 377.40 227.69 L 377.40 227.69 L 377.40 227.69 L 377.40 227.69 L 381.51 227.69 L 381.51 226.76 L 389.73 215.11 L 395.21 195.50 L 395.21 195.50 L 399.32 195.50 L 399.32 195.50 L 406.16 195.50 L 407.53 195.50 L 407.53 195.50 L 407.53 195.50 L 407.53 195.50 L 423.97 195.50 L 425.34 195.50 L 433.56 151.34 L 434.93 126.71 L 434.93 126.71 L 488.36 169.02 L 491.10 169.02 L 492.47 169.02 L 493.84 172.95 L 496.58 181.91 L 496.58 181.91 L 502.05 181.91 L 503.42 181.91 L 504.79 181.91 L 506.16 181.91 L 510.27 181.91 L 511.64 181.91 L 514.38 181.91 L 515.75 181.91 L 519.86 181.91 L 521.23 181.91 L 521.23 181.91 L 525.34 181.91 L 529.45 181.91 L 530.82 181.91 L 532.19 181.91 L 533.56 181.91 L 534.93 181.91 L 540.41 167.01 L 541.78 174.88 L 543.15 156.20 L 544.52 174.88 L 548.63 174.88 L 550.00 174.88 L 550.00 174.88 L 552.74 174.88 L 554.11 174.88 L 558.22 174.88 L 559.59 174.88 L 560.96 174.88 L 562.33 174.88 L 563.70 174.88 L 563.70 174.88 L 569.18 174.88 L 569.18 174.88 L 570.55 174.88 L 573.29 174.88 L 577.40 174.88 L 578.77 174.88 L 581.51 174.88 L 582.88 174.88 L 588.36 174.88 L 589.73 174.88 L 591.10 174.88 L 592.47 224.91 L 596.58 215.11 L 597.95 175.89 L 599.32 205.30 L 600.68 175.89 L 602.05 166.01 L 606.16 156.20 L 607.53 156.20 L 608.90 147.32 L 610.27 137.52 L 611.64 146.40 L 615.75 146.40 L 617.12 135.59 L 618.49 127.71 L 619.86 137.52 L 621.23 128.72 L 626.71 127.71 L 628.08 116.91 L 629.45 116.91 L 630.82 126.71 L 634.93 127.71 L 636.30 117.91 L 637.67 125.78 L 639.04 117.91 L 640.41 147.32 L 644.52 147.32 L 645.89 127.71 L 650.00 206.23" /><text  class="poloto_labels poloto_text poloto_title" x="400" y="37.5" >lower.com purchase rates</text><text  class="poloto_labels poloto_text poloto_xname" x="400" y="481.25" >Date</text><text  class="poloto_labels poloto_text poloto_yname" transform="rotate(-90,37.5,250)" x="37.5" y="250" >Rate (%)</text><text  class="poloto_tick_labels poloto_text" dominant-baseline="middle" text-anchor="start" x="150" y="70" ></text><line  class="poloto_axis_lines" stroke="black" x1="150" x2="144" y1="391.12197632527017" y2="391.12197632527017" /><line  class="poloto_tick_line" stroke="black" x1="150" x2="650" y1="391.12197632527017" y2="391.12197632527017" /><text  class="poloto_tick_labels poloto_text" dominant-baseline="middle" text-anchor="end" x="135" y="391.12197632527017" >3.625</text><line  class="poloto_axis_lines" stroke="black" x1="150" x2="144" y1="381.4719505918682" y2="381.4719505918682" /><line  class="poloto_tick_line" stroke="black" x1="150" x2="650" y1="381.4719505918682" y2="381.4719505918682" /><text  class="poloto_tick_labels poloto_text" dominant-baseline="middle" text-anchor="end" x="135" y="381.4719505918682" >3.75</text><line  class="poloto_axis_lines" stroke="black" x1="150" x2="144" y1="371.8219248584663" y2="371.8219248584663" /><line  class="poloto_tick_line" stroke="black" x1="150" x2="650" y1="371.8219248584663" y2="371.8219248584663" /><text  class="poloto_tick_labels poloto_text" dominant-baseline="middle" text-anchor="end" x="135" y="371.8219248584663" >3.875</text><line  class="poloto_axis_lines" stroke="black" x1="150" x2="144" y1="362.17189912506433" y2="362.17189912506433" /><line  class="poloto_tick_line" stroke="black" x1="150" x2="650" y1="362.17189912506433" y2="362.17189912506433" /><text  class="poloto_tick_labels poloto_text" dominant-baseline="middle" text-anchor="end" x="135" y="362.17189912506433" >4</text><line  class="poloto_axis_lines" stroke="black" x1="150" x2="144" y1="352.5218733916624" y2="352.5218733916624" /><line  class="poloto_tick_line" stroke="black" x1="150" x2="650" y1="352.5218733916624" y2="352.5218733916624" /><text  class="poloto_tick_labels poloto_text" dominant-baseline="middle" text-anchor="end" x="135" y="352.5218733916624" >4.125</text><line  class="poloto_axis_lines" stroke="black" x1="150" x2="144" y1="342.87184765826044" y2="342.87184765826044" /><line  class="poloto_tick_line" stroke="black" x1="150" x2="650" y1="342.87184765826044" y2="342.87184765826044" /><text  class="poloto_tick_labels poloto_text" dominant-baseline="middle" text-anchor="end" x="135" y="342.87184765826044" >4.25</text><line  class="poloto_axis_lines" stroke="black" x1="150" x2="144" y1="333.2218219248585" y2="333.2218219248585" /><line  class="poloto_tick_line" stroke="black" x1="150" x2="650" y1="333.2218219248585" y2="333.2218219248585" /><text  class="poloto_tick_labels poloto_text" dominant-baseline="middle" text-anchor="end" x="135" y="333.2218219248585" >4.375</text><line  class="poloto_axis_lines" stroke="black" x1="150" x2="144" y1="323.5717961914565" y2="323.5717961914565" /><line  class="poloto_tick_line" stroke="black" x1="150" x2="650" y1="323.5717961914565" y2="323.5717961914565" /><text  class="poloto_tick_labels poloto_text" dominant-baseline="middle" text-anchor="end" x="135" y="323.5717961914565" >4.5</text><line  class="poloto_axis_lines" stroke="black" x1="150" x2="144" y1="313.92177045805454" y2="313.92177045805454" /><line  class="poloto_tick_line" stroke="black" x1="150" x2="650" y1="313.92177045805454" y2="313.92177045805454" /><text  class="poloto_tick_labels poloto_text" dominant-baseline="middle" text-anchor="end" x="135" y="313.92177045805454" >4.625</text><line  class="poloto_axis_lines" stroke="black" x1="150" x2="144" y1="304.2717447246526" y2="304.2717447246526" /><line  class="poloto_tick_line" stroke="black" x1="150" x2="650" y1="304.2717447246526" y2="304.2717447246526" /><text  class="poloto_tick_labels poloto_text" dominant-baseline="middle" text-anchor="end" x="135" y="304.2717447246526" >4.75</text><line  class="poloto_axis_lines" stroke="black" x1="150" x2="144" y1="294.62171899125065" y2="294.62171899125065" /><line  class="poloto_tick_line" stroke="black" x1="150" x2="650" y1="294.62171899125065" y2="294.62171899125065" /><text  class="poloto_tick_labels poloto_text" dominant-baseline="middle" text-anchor="end" x="135" y="294.62171899125065" >4.875</text><line  class="poloto_axis_lines" stroke="black" x1="150" x2="144" y1="284.9716932578487" y2="284.9716932578487" /><line  class="poloto_tick_line" stroke="black" x1="150" x2="650" y1="284.9716932578487" y2="284.9716932578487" /><text  class="poloto_tick_labels poloto_text" dominant-baseline="middle" text-anchor="end" x="135" y="284.9716932578487" >5</text><line  class="poloto_axis_lines" stroke="black" x1="150" x2="144" y1="275.32166752444675" y2="275.32166752444675" /><line  class="poloto_tick_line" stroke="black" x1="150" x2="650" y1="275.32166752444675" y2="275.32166752444675" /><text  class="poloto_tick_labels poloto_text" dominant-baseline="middle" text-anchor="end" x="135" y="275.32166752444675" >5.125</text><line  class="poloto_axis_lines" stroke="black" x1="150" x2="144" y1="265.67164179104475" y2="265.67164179104475" /><line  class="poloto_tick_line" stroke="black" x1="150" x2="650" y1="265.67164179104475" y2="265.67164179104475" /><text  class="poloto_tick_labels poloto_text" dominant-baseline="middle" text-anchor="end" x="135" y="265.67164179104475" >5.25</text><line  class="poloto_axis_lines" stroke="black" x1="150" x2="144" y1="256.0216160576428" y2="256.0216160576428" /><line  class="poloto_tick_line" stroke="black" x1="150" x2="650" y1="256.0216160576428" y2="256.0216160576428" /><text  class="poloto_tick_labels poloto_text" dominant-baseline="middle" text-anchor="end" x="135" y="256.0216160576428" >5.375</text><line  class="poloto_axis_lines" stroke="black" x1="150" x2="144" y1="246.37159032424086" y2="246.37159032424086" /><line  class="poloto_tick_line" stroke="black" x1="150" x2="650" y1="246.37159032424086" y2="246.37159032424086" /><text  class="poloto_tick_labels poloto_text" dominant-baseline="middle" text-anchor="end" x="135" y="246.37159032424086" >5.5</text><line  class="poloto_axis_lines" stroke="black" x1="150" x2="144" y1="236.7215645908389" y2="236.7215645908389" /><line  class="poloto_tick_line" stroke="black" x1="150" x2="650" y1="236.7215645908389" y2="236.7215645908389" /><text  class="poloto_tick_labels poloto_text" dominant-baseline="middle" text-anchor="end" x="135" y="236.7215645908389" >5.625</text><line  class="poloto_axis_lines" stroke="black" x1="150" x2="144" y1="227.07153885743696" y2="227.07153885743696" /><line  class="poloto_tick_line" stroke="black" x1="150" x2="650" y1="227.07153885743696" y2="227.07153885743696" /><text  class="poloto_tick_labels poloto_text" dominant-baseline="middle" text-anchor="end" x="135" y="227.07153885743696" >5.75</text><line  class="poloto_axis_lines" stroke="black" x1="150" x2="144" y1="217.42151312403502" y2="217.42151312403502" /><line  class="poloto_tick_line" stroke="black" x1="150" x2="650" y1="217.42151312403502" y2="217.42151312403502" /><text  class="poloto_tick_labels poloto_text" dominant-baseline="middle" text-anchor="end" x="135" y="217.42151312403502" >5.875</text><line  class="poloto_axis_lines" stroke="black" x1="150" x2="144" y1="207.771487390633" y2="207.771487390633" /><line  class="poloto_tick_line" stroke="black" x1="150" x2="650" y1="207.771487390633" y2="207.771487390633" /><text  class="poloto_tick_labels poloto_text" dominant-baseline="middle" text-anchor="end" x="135" y="207.771487390633" >6</text><line  class="poloto_axis_lines" stroke="black" x1="150" x2="144" y1="198.12146165723107" y2="198.12146165723107" /><line  class="poloto_tick_line" stroke="black" x1="150" x2="650" y1="198.12146165723107" y2="198.12146165723107" /><text  class="poloto_tick_labels poloto_text" dominant-baseline="middle" text-anchor="end" x="135" y="198.12146165723107" >6.125</text><line  class="poloto_axis_lines" stroke="black" x1="150" x2="144" y1="188.47143592382912" y2="188.47143592382912" /><line  class="poloto_tick_line" stroke="black" x1="150" x2="650" y1="188.47143592382912" y2="188.47143592382912" /><text  class="poloto_tick_labels poloto_text" dominant-baseline="middle" text-anchor="end" x="135" y="188.47143592382912" >6.25</text><line  class="poloto_axis_lines" stroke="black" x1="150" x2="144" y1="178.82141019042717" y2="178.82141019042717" /><line  class="poloto_tick_line" stroke="black" x1="150" x2="650" y1="178.82141019042717" y2="178.82141019042717" /><text  class="poloto_tick_labels poloto_text" dominant-baseline="middle" text-anchor="end" x="135" y="178.82141019042717" >6.375</text><line  class="poloto_axis_lines" stroke="black" x1="150" x2="144" y1="169.17138445702523" y2="169.17138445702523" /><line  class="poloto_tick_line" stroke="black" x1="150" x2="650" y1="169.17138445702523" y2="169.17138445702523" /><text  class="poloto_tick_labels poloto_text" dominant-baseline="middle" text-anchor="end" x="135" y="169.17138445702523" >6.5</text><line  class="poloto_axis_lines" stroke="black" x1="150" x2="144" y1="159.52135872362328" y2="159.52135872362328" /><line  class="poloto_tick_line" stroke="black" x1="150" x2="650" y1="159.52135872362328" y2="159.52135872362328" /><text  class="poloto_tick_labels poloto_text" dominant-baseline="middle" text-anchor="end" x="135" y="159.52135872362328" >6.625</text><line  class="poloto_axis_lines" stroke="black" x1="150" x2="144" y1="149.87133299022133" y2="149.87133299022133" /><line  class="poloto_tick_line" stroke="black" x1="150" x2="650" y1="149.87133299022133" y2="149.87133299022133" /><text  class="poloto_tick_labels poloto_text" dominant-baseline="middle" text-anchor="end" x="135" y="149.87133299022133" >6.75</text><line  class="poloto_axis_lines" stroke="black" x1="150" x2="144" y1="140.22130725681933" y2="140.22130725681933" /><line  class="poloto_tick_line" stroke="black" x1="150" x2="650" y1="140.22130725681933" y2="140.22130725681933" /><text  class="poloto_tick_labels poloto_text" dominant-baseline="middle" text-anchor="end" x="135" y="140.22130725681933" >6.875</text><line  class="poloto_axis_lines" stroke="black" x1="150" x2="144" y1="130.57128152341744" y2="130.57128152341744" /><line  class="poloto_tick_line" stroke="black" x1="150" x2="650" y1="130.57128152341744" y2="130.57128152341744" /><text  class="poloto_tick_labels poloto_text" dominant-baseline="middle" text-anchor="end" x="135" y="130.57128152341744" >7</text><line  class="poloto_axis_lines" stroke="black" x1="150" x2="144" y1="120.92125579001544" y2="120.92125579001544" /><line  class="poloto_tick_line" stroke="black" x1="150" x2="650" y1="120.92125579001544" y2="120.92125579001544" /><text  class="poloto_tick_labels poloto_text" dominant-baseline="middle" text-anchor="end" x="135" y="120.92125579001544" >7.125</text><line  class="poloto_axis_lines" stroke="black" x1="150" x2="144" y1="111.27123005661343" y2="111.27123005661343" /><line  class="poloto_tick_line" stroke="black" x1="150" x2="650" y1="111.27123005661343" y2="111.27123005661343" /><text  class="poloto_tick_labels poloto_text" dominant-baseline="middle" text-anchor="end" x="135" y="111.27123005661343" >7.25</text><line  class="poloto_axis_lines" stroke="black" x1="150" x2="144" y1="101.62120432321154" y2="101.62120432321154" /><line  class="poloto_tick_line" stroke="black" x1="150" x2="650" y1="101.62120432321154" y2="101.62120432321154" /><text  class="poloto_tick_labels poloto_text" dominant-baseline="middle" text-anchor="end" x="135" y="101.62120432321154" >7.375</text><text  class="poloto_tick_labels poloto_text" dominant-baseline="middle" text-anchor="start" x="440.00000000000006" y="70" >¹2022-05-01 00:00:00 UTC in Months</text><line  class="poloto_axis_lines" stroke="black" x1="211.64383561643626" x2="211.64383561643626" y1="400" y2="405" /><line  class="poloto_tick_line" stroke="black" x1="211.64383561643626" x2="211.64383561643626" y1="400" y2="100.00000000000006" /><text  class="poloto_tick_labels poloto_text" dominant-baseline="start" text-anchor="middle" x="211.64383561643626" y="430" >2022 May¹</text><line  class="poloto_axis_lines" stroke="black" x1="295.20547945205544" x2="295.20547945205544" y1="400" y2="405" /><line  class="poloto_tick_line" stroke="black" x1="295.20547945205544" x2="295.20547945205544" y1="400" y2="100.00000000000006" /><text  class="poloto_tick_labels poloto_text" dominant-baseline="start" text-anchor="middle" x="295.20547945205544" y="430" >2022 Jul</text><line  class="poloto_axis_lines" stroke="black" x1="380.13698630136787" x2="380.13698630136787" y1="400" y2="405" /><line  class="poloto_tick_line" stroke="black" x1="380.13698630136787" x2="380.13698630136787" y1="400" y2="100.00000000000006" /><text  class="poloto_tick_labels poloto_text" dominant-baseline="start" text-anchor="middle" x="380.13698630136787" y="430" >2022 Sep</text><line  class="poloto_axis_lines" stroke="black" x1="463.69863013698705" x2="463.69863013698705" y1="400" y2="405" /><line  class="poloto_tick_line" stroke="black" x1="463.69863013698705" x2="463.69863013698705" y1="400" y2="100.00000000000006" /><text  class="poloto_tick_labels poloto_text" dominant-baseline="start" text-anchor="middle" x="463.69863013698705" y="430" >2022 Nov</text><line  class="poloto_axis_lines" stroke="black" x1="547.2602739726026" x2="547.2602739726026" y1="400" y2="405" /><line  class="poloto_tick_line" stroke="black" x1="547.2602739726026" x2="547.2602739726026" y1="400" y2="100.00000000000006" /><text  class="poloto_tick_labels poloto_text" dominant-baseline="start" text-anchor="middle" x="547.2602739726026" y="430" >2023 Jan</text><line  class="poloto_axis_lines" stroke="black" x1="628.0821917808207" x2="628.0821917808207" y1="400" y2="405" /><line  class="poloto_tick_line" stroke="black" x1="628.0821917808207" x2="628.0821917808207" y1="400" y2="100.00000000000006" /><text  class="poloto_tick_labels poloto_text" dominant-baseline="start" text-anchor="middle" x="628.0821917808207" y="430" >2023 Mar</text><path  stroke="black" fill="none" class="poloto_axis_lines" d=" M 150 400 L 650 400" /><path  stroke="black" fill="none" class="poloto_axis_lines" d=" M 150 400 L 150 100.00000000000006" /></svg>