<svg class="poloto" width="800" height="500" viewBox="0 0 800 500" xmlns="http://www.w3.org/2000/svg"><style>.poloto{stroke-linecap:round;stroke-linejoin:round;font-family:Roboto,sans-serif;font-size:16px;}.poloto_background{fill:#262626;}.poloto_scatter{stroke-width:7}.poloto_tick_line{stroke:dimgray;stroke-width:0.5}.poloto_line{stroke-width:2}.poloto_text{fill: white;}.poloto_axis_lines{stroke: white;stroke-width:3;fill:none;stroke-dasharray:none}.poloto_title{font-size:24px;dominant-baseline:start;text-anchor:middle;}.poloto_xname{font-size:24px;dominant-baseline:start;text-anchor:middle;}.poloto_yname{font-size:24px;dominant-baseline:start;text-anchor:middle;}.poloto0stroke{stroke:blue;}.poloto1stroke{stroke:red;}.poloto2stroke{stroke:green;}.poloto3stroke{stroke:gold;}.poloto4stroke{stroke:aqua;}.poloto5stroke{stroke:lime;}.poloto6stroke{stroke:orange;}.poloto7stroke{stroke:chocolate;}.poloto0fill{fill:blue;}.poloto1fill{fill:red;}.poloto2fill{fill:green;}.poloto3fill{fill:gold;}.poloto4fill{fill:aqua;}.poloto5fill{fill:lime;}.poloto6fill{fill:orange;}.poloto7fill{fill:chocolate;}</style><circle  r="1e5" class="poloto_background" /><text  class="poloto_text poloto_legend_text" x="675" y="100" >Refinance 15</text><line  class="poloto_line poloto_legend_icon poloto0stroke poloto0legend" stroke="black" x1="680" x2="730" y1="81.25" y2="81.25" /><path  class="poloto_line poloto0stroke" fill="none" stroke="black" d=" M 150.00 393.13 L 151.41 400.00 L 155.65 390.27 L 157.06 381.94 L 158.47 390.27 L 158.47 390.27 L 161.30 362.48 L 165.54 361.01 L 166.95 370.74 L 168.36 349.74 L 169.77 351.21 L 171.19 346.81 L 175.42 348.28 L 176.84 342.41 L 176.84 342.41 L 179.66 342.95 L 181.07 321.95 L 185.31 331.06 L 186.72 333.99 L 188.14 333.99 L 189.55 333.22 L 190.96 328.74 L 196.61 289.53 L 198.02 306.97 L 199.44 293.46 L 200.85 288.21 L 200.85 288.21 L 206.50 308.52 L 209.32 312.22 L 210.73 303.96 L 214.97 294.16 L 216.38 313.69 L 217.80 303.96 L 217.80 303.96 L 220.62 302.42 L 224.86 305.43 L 226.27 315.16 L 226.27 315.16 L 227.68 306.90 L 229.10 316.70 L 230.51 302.42 L 234.75 331.76 L 236.16 331.06 L 237.57 315.16 L 237.57 315.16 L 238.98 321.95 L 240.40 324.96 L 244.63 324.96 L 246.05 335.46 L 247.46 335.46 L 248.87 335.46 L 250.28 335.46 L 255.93 324.96 L 257.34 321.95 L 258.76 323.42 L 260.17 323.42 L 260.17 323.42 L 265.82 313.69 L 267.23 313.69 L 268.64 305.43 L 274.29 291.92 L 275.71 264.05 L 277.12 267.14 L 278.53 267.14 L 279.94 286.67 L 284.18 267.14 L 285.59 267.14 L 287.01 285.13 L 288.42 288.21 L 294.07 288.21 L 295.48 286.67 L 296.89 291.22 L 298.31 295.70 L 299.72 305.43 L 305.37 312.22 L 306.78 303.96 L 308.19 297.17 L 309.60 294.16 L 313.84 295.70 L 316.67 295.70 L 318.08 294.16 L 323.73 292.69 L 323.73 292.69 L 323.73 292.69 L 323.73 292.69 L 323.73 292.69 L 323.73 292.69 L 326.55 292.69 L 326.55 292.69 L 326.55 292.69 L 326.55 292.69 L 326.55 292.69 L 326.55 292.69 L 333.62 303.96 L 336.44 306.90 L 337.85 332.53 L 339.27 335.46 L 343.50 335.46 L 344.92 333.99 L 346.33 313.69 L 347.74 308.44 L 349.15 295.70 L 353.39 305.43 L 353.39 305.43 L 354.80 297.17 L 357.63 305.43 L 357.63 305.43 L 364.69 305.43 L 366.10 274.70 L 367.51 292.69 L 373.16 261.89 L 375.99 261.89 L 375.99 261.89 L 378.81 273.16 L 384.46 267.14 L 384.46 267.14 L 384.46 267.14 L 384.46 267.14 L 384.46 267.14 L 384.46 267.14 L 384.46 267.14 L 384.46 267.14 L 384.46 267.14 L 388.70 267.14 L 397.18 247.53 L 402.82 249.85 L 402.82 249.85 L 407.06 249.85 L 412.71 249.85 L 414.12 249.85 L 414.12 249.85 L 414.12 249.85 L 414.12 249.85 L 414.12 249.85 L 432.49 249.85 L 433.90 249.85 L 442.37 162.92 L 443.79 154.66 L 445.20 154.66 L 496.05 180.60 L 501.69 180.60 L 503.11 180.60 L 504.52 195.50 L 507.34 203.68 L 507.34 203.68 L 512.99 203.68 L 514.41 203.68 L 515.82 203.68 L 517.23 203.68 L 521.47 203.68 L 522.88 203.68 L 525.71 203.68 L 527.12 203.68 L 531.36 203.68 L 532.77 203.68 L 532.77 203.68 L 537.01 203.68 L 541.24 203.68 L 542.66 203.68 L 544.07 203.68 L 545.48 203.68 L 546.89 203.68 L 552.54 226.15 L 553.95 200.21 L 555.37 180.60 L 556.78 190.40 L 561.02 190.40 L 562.43 190.40 L 562.43 190.40 L 565.25 211.48 L 566.67 211.48 L 570.90 211.48 L 572.32 211.48 L 573.73 211.48 L 575.14 211.48 L 576.55 211.48 L 576.55 211.48 L 576.55 211.48 L 576.55 211.48 L 583.62 211.48 L 586.44 211.48 L 590.68 211.48 L 592.09 211.48 L 594.92 211.48 L 596.33 211.48 L 601.98 211.48 L 603.39 211.48 L 604.80 211.48 L 606.21 239.27 L 610.45 245.45 L 611.86 209.93 L 613.28 221.28 L 614.69 219.74 L 616.10 201.75 L 620.34 161.07 L 621.75 161.07 L 623.16 161.07 L 624.58 162.61 L 625.99 170.79 L 630.23 162.61 L 631.64 162.61 L 633.05 151.26 L 634.46 161.07 L 635.88 141.46 L 641.53 151.26 L 642.94 152.80 L 644.35 143.08 L 645.76 149.64 L 650.00 155.97" /><text  class="poloto_text poloto_legend_text" x="675" y="150" >Refinance 20</text><line  class="poloto_line poloto_legend_icon poloto1stroke poloto1legend" stroke="black" x1="680" x2="730" y1="131.25" y2="131.25" /><path  class="poloto_line poloto1stroke" fill="none" stroke="black" d=" M 150.00 350.51 L 151.41 371.13 L 155.65 340.40 L 157.06 330.98 L 158.47 339.63 L 158.47 339.63 L 161.30 312.61 L 165.54 310.29 L 166.95 320.10 L 168.36 309.14 L 169.77 318.94 L 171.19 300.57 L 175.42 328.67 L 176.84 300.57 L 176.84 300.57 L 179.66 300.57 L 179.66 300.57 L 185.31 263.51 L 186.72 293.15 L 188.14 300.57 L 189.55 310.29 L 190.96 291.22 L 196.61 272.47 L 198.02 270.07 L 199.44 265.29 L 200.85 254.32 L 205.08 259.11 L 206.50 279.88 L 209.32 272.47 L 210.73 270.07 L 214.97 262.27 L 216.38 271.31 L 217.80 271.31 L 217.80 271.31 L 220.62 271.31 L 224.86 272.47 L 226.27 292.00 L 226.27 292.00 L 227.68 281.03 L 229.10 299.41 L 230.51 292.00 L 234.75 293.15 L 236.16 292.00 L 237.57 292.00 L 237.57 292.00 L 238.98 293.15 L 240.40 299.41 L 244.63 300.57 L 246.05 304.04 L 247.46 304.04 L 248.87 304.04 L 250.28 304.04 L 255.93 299.41 L 257.34 289.60 L 258.76 292.00 L 260.17 292.00 L 260.17 292.00 L 265.82 279.88 L 267.23 282.19 L 268.64 273.62 L 274.29 232.24 L 275.71 215.11 L 277.12 224.91 L 278.53 232.24 L 279.94 252.93 L 284.18 240.74 L 285.59 234.64 L 287.01 254.17 L 288.42 263.51 L 294.07 263.51 L 295.48 252.93 L 296.89 262.74 L 298.31 272.47 L 299.72 283.43 L 305.37 290.76 L 306.78 281.03 L 308.19 271.31 L 309.60 264.67 L 313.84 270.07 L 316.67 272.47 L 318.08 271.31 L 323.73 272.47 L 323.73 272.47 L 323.73 272.47 L 323.73 272.47 L 323.73 272.47 L 323.73 272.47 L 323.73 272.47 L 323.73 272.47 L 323.73 272.47 L 323.73 272.47 L 323.73 272.47 L 323.73 272.47 L 333.62 290.76 L 336.44 293.15 L 337.85 310.29 L 339.27 312.61 L 343.50 310.06 L 344.92 310.06 L 346.33 300.57 L 347.74 304.04 L 349.15 289.60 L 353.39 282.19 L 353.39 282.19 L 354.80 282.19 L 357.63 292.00 L 357.63 292.00 L 364.69 289.60 L 366.10 272.47 L 367.51 272.47 L 373.16 259.88 L 375.99 249.31 L 375.99 249.31 L 378.81 261.12 L 384.46 232.24 L 384.46 232.24 L 384.46 232.24 L 384.46 232.24 L 384.46 232.24 L 384.46 232.24 L 384.46 232.24 L 384.46 232.24 L 384.46 232.24 L 388.70 232.24 L 397.18 219.97 L 402.82 221.20 L 405.65 221.20 L 407.06 221.20 L 407.06 221.20 L 414.12 221.20 L 415.54 221.20 L 415.54 221.20 L 415.54 221.20 L 415.54 221.20 L 432.49 221.20 L 433.90 221.20 L 442.37 143.85 L 443.79 129.41 L 443.79 129.41 L 498.87 177.12 L 501.69 177.12 L 503.11 177.12 L 505.93 194.26 L 507.34 195.50 L 507.34 195.50 L 512.99 195.50 L 514.41 195.50 L 515.82 195.50 L 517.23 195.50 L 521.47 195.50 L 522.88 195.50 L 525.71 195.50 L 527.12 195.50 L 531.36 195.50 L 532.77 195.50 L 532.77 195.50 L 537.01 195.50 L 541.24 195.50 L 542.66 195.50 L 544.07 195.50 L 545.48 195.50 L 546.89 195.50 L 552.54 178.05 L 553.95 168.55 L 555.37 167.32 L 556.78 169.87 L 561.02 169.87 L 562.43 169.87 L 562.43 169.87 L 565.25 188.16 L 566.67 188.16 L 570.90 188.16 L 572.32 188.16 L 573.73 188.16 L 575.14 188.16 L 576.55 188.16 L 576.55 188.16 L 582.20 188.16 L 582.20 188.16 L 583.62 188.16 L 586.44 188.16 L 590.68 188.16 L 592.09 188.16 L 594.92 188.16 L 596.33 188.16 L 601.98 188.16 L 603.39 188.16 L 604.80 188.16 L 606.21 209.01 L 610.45 207.77 L 611.86 178.36 L 613.28 179.59 L 613.28 179.59 L 616.10 178.36 L 620.34 158.75 L 621.75 158.75 L 623.16 150.26 L 624.58 140.45 L 625.99 149.02 L 630.23 140.45 L 631.64 130.65 L 633.05 140.45 L 634.46 150.26 L 635.88 139.22 L 641.53 140.45 L 642.94 129.41 L 644.35 100.00 L 645.76 129.41 L 650.00 150.26" /><text  class="poloto_text poloto_legend_text" x="675" y="200" >Refinance 30</text><line  class="poloto_line poloto_legend_icon poloto2stroke poloto2legend" stroke="black" x1="680" x2="730" y1="181.25" y2="181.25" /><path  class="poloto_line poloto2stroke" fill="none" stroke="black" d=" M 150.00 348.35 L 151.41 355.69 L 155.65 344.26 L 157.06 335.31 L 158.47 337.00 L 158.47 337.00 L 161.30 318.24 L 165.54 316.62 L 166.95 326.35 L 168.36 315.77 L 169.77 325.50 L 171.19 306.82 L 175.42 315.77 L 176.84 297.01 L 178.25 297.01 L 179.66 296.17 L 181.07 272.47 L 185.31 276.63 L 186.72 287.29 L 188.14 297.01 L 189.55 288.14 L 190.96 277.48 L 196.61 269.38 L 198.02 256.18 L 199.44 254.40 L 200.85 252.55 L 205.08 256.18 L 206.50 271.31 L 209.32 269.38 L 210.73 267.60 L 214.97 257.95 L 216.38 268.45 L 217.80 257.95 L 217.80 257.95 L 220.62 257.95 L 224.86 259.73 L 226.27 276.63 L 226.27 276.63 L 227.68 268.45 L 229.10 269.38 L 230.51 270.23 L 234.75 277.48 L 236.16 269.38 L 237.57 269.38 L 237.57 269.38 L 238.98 278.33 L 240.40 279.26 L 244.63 280.11 L 246.05 288.14 L 247.46 288.14 L 248.87 289.84 L 250.28 289.84 L 255.93 286.36 L 257.34 276.63 L 258.76 278.33 L 260.17 277.48 L 260.17 277.48 L 265.82 268.45 L 267.23 268.45 L 268.64 258.80 L 274.29 219.74 L 275.71 192.10 L 277.12 209.01 L 278.53 219.74 L 279.94 229.46 L 284.18 220.59 L 285.59 219.74 L 287.01 237.49 L 288.42 239.27 L 294.07 239.27 L 295.48 228.62 L 296.89 237.49 L 298.31 247.22 L 299.72 268.45 L 305.37 269.38 L 306.78 258.80 L 308.19 240.20 L 309.60 237.49 L 313.84 255.25 L 316.67 239.27 L 318.08 238.34 L 323.73 256.18 L 323.73 256.18 L 323.73 256.18 L 323.73 256.18 L 323.73 256.18 L 323.73 256.18 L 326.55 256.18 L 326.55 256.18 L 326.55 256.18 L 326.55 256.18 L 326.55 256.18 L 326.55 256.18 L 333.62 267.60 L 336.44 269.38 L 337.85 286.36 L 339.27 297.86 L 343.50 297.01 L 344.92 297.01 L 346.33 277.48 L 347.74 280.11 L 349.15 267.60 L 353.39 277.48 L 353.39 277.48 L 354.80 270.23 L 357.63 278.33 L 357.63 278.33 L 364.69 276.63 L 366.10 259.73 L 367.51 258.80 L 373.16 236.57 L 375.99 228.62 L 375.99 228.62 L 378.81 238.34 L 384.46 227.69 L 384.46 227.69 L 384.46 227.69 L 384.46 227.69 L 384.46 227.69 L 384.46 227.69 L 384.46 227.69 L 384.46 227.69 L 388.70 227.69 L 388.70 226.76 L 397.18 215.11 L 402.82 195.50 L 402.82 195.50 L 407.06 195.50 L 407.06 195.50 L 414.12 195.50 L 415.54 195.50 L 415.54 195.50 L 415.54 195.50 L 415.54 195.50 L 432.49 195.50 L 433.90 195.50 L 442.37 151.34 L 443.79 126.71 L 443.79 126.71 L 498.87 169.02 L 501.69 169.02 L 503.11 169.02 L 504.52 172.95 L 507.34 181.91 L 507.34 181.91 L 512.99 181.91 L 514.41 181.91 L 515.82 181.91 L 517.23 181.91 L 521.47 181.91 L 522.88 181.91 L 525.71 181.91 L 527.12 181.91 L 531.36 181.91 L 532.77 181.91 L 532.77 181.91 L 537.01 181.91 L 541.24 181.91 L 542.66 181.91 L 544.07 181.91 L 545.48 181.91 L 546.89 181.91 L 552.54 167.01 L 553.95 174.88 L 555.37 156.20 L 556.78 174.88 L 561.02 174.88 L 562.43 174.88 L 562.43 174.88 L 565.25 174.88 L 566.67 174.88 L 570.90 174.88 L 572.32 174.88 L 573.73 174.88 L 575.14 174.88 L 576.55 174.88 L 576.55 174.88 L 582.20 174.88 L 582.20 174.88 L 583.62 174.88 L 586.44 174.88 L 590.68 174.88 L 592.09 174.88 L 594.92 174.88 L 596.33 174.88 L 601.98 174.88 L 603.39 174.88 L 604.80 174.88 L 606.21 224.91 L 610.45 215.11 L 611.86 175.89 L 613.28 205.30 L 614.69 175.89 L 616.10 166.01 L 620.34 156.20 L 621.75 156.20 L 623.16 147.32 L 624.58 137.52 L 625.99 146.40 L 630.23 146.40 L 631.64 135.59 L 633.05 127.71 L 634.46 137.52 L 635.88 128.72 L 641.53 127.71 L 642.94 116.91 L 644.35 116.91 L 645.76 126.71 L 650.00 127.71" /><text  class="poloto_labels poloto_text poloto_title" x="400" y="37.5" >lower.com purchase rates</text><text  class="poloto_labels poloto_text poloto_xname" x="400" y="481.25" >Date</text><text  class="poloto_labels poloto_text poloto_yname" transform="rotate(-90,37.5,250)" x="37.5" y="250" >Rate (%)</text><text  class="poloto_tick_labels poloto_text" dominant-baseline="middle" text-anchor="start" x="150" y="70" ></text><line  class="poloto_axis_lines" stroke="black" x1="150" x2="144" y1="391.12197632527017" y2="391.12197632527017" /><line  class="poloto_tick_line" stroke="black" x1="150" x2="650" y1="391.12197632527017" y2="391.12197632527017" /><text  class="poloto_tick_labels poloto_text" dominant-baseline="middle" text-anchor="end" x="135" y="391.12197632527017" >3.625</text><line  class="poloto_axis_lines" stroke="black" x1="150" x2="144" y1="381.4719505918682" y2="381.4719505918682" /><line  class="poloto_tick_line" stroke="black" x1="150" x2="650" y1="381.4719505918682" y2="381.4719505918682" /><text  class="poloto_tick_labels poloto_text" dominant-baseline="middle" text-anchor="end" x="135" y="381.4719505918682" >3.75</text><line  class="poloto_axis_lines" stroke="black" x1="150" x2="144" y1="371.8219248584663" y2="371.8219248584663" /><line  class="poloto_tick_line" stroke="black" x1="150" x2="650" y1="371.8219248584663" y2="371.8219248584663" /><text  class="poloto_tick_labels poloto_text" dominant-baseline="middle" text-anchor="end" x="135" y="371.8219248584663" >3.875</text><line  class="poloto_axis_lines" stroke="black" x1="150" x2="144" y1="362.17189912506433" y2="362.17189912506433" /><line  class="poloto_tick_line" stroke="black" x1="150" x2="650" y1="362.17189912506433" y2="362.17189912506433" /><text  class="poloto_tick_labels poloto_text" dominant-baseline="middle" text-anchor="end" x="135" y="362.17189912506433" >4</text><line  class="poloto_axis_lines" stroke="black" x1="150" x2="144" y1="352.5218733916624" y2="352.5218733916624" /><line  class="poloto_tick_line" stroke="black" x1="150" x2="650" y1="352.5218733916624" y2="352.5218733916624" /><text  class="poloto_tick_labels poloto_text" dominant-baseline="middle" text-anchor="end" x="135" y="352.5218733916624" >4.125</text><line  class="poloto_axis_lines" stroke="black" x1="150" x2="144" y1="342.87184765826044" y2="342.87184765826044" /><line  class="poloto_tick_line" stroke="black" x1="150" x2="650" y1="342.87184765826044" y2="342.87184765826044" /><text  class="poloto_tick_labels poloto_text" dominant-baseline="middle" text-anchor="end" x="135" y="342.87184765826044" >4.25</text><line  class="poloto_axis_lines" stroke="black" x1="150" x2="144" y1="333.2218219248585" y2="333.2218219248585" /><line  class="poloto_tick_line" stroke="black" x1="150" x2="650" y1="333.2218219248585" y2="333.2218219248585" /><text  class="poloto_tick_labels poloto_text" dominant-baseline="middle" text-anchor="end" x="135" y="333.2218219248585" >4.375</text><line  class="poloto_axis_lines" stroke="black" x1="150" x2="144" y1="323.5717961914565" y2="323.5717961914565" /><line  class="poloto_tick_line" stroke="black" x1="150" x2="650" y1="323.5717961914565" y2="323.5717961914565" /><text  class="poloto_tick_labels poloto_text" dominant-baseline="middle" text-anchor="end" x="135" y="323.5717961914565" >4.5</text><line  class="poloto_axis_lines" stroke="black" x1="150" x2="144" y1="313.92177045805454" y2="313.92177045805454" /><line  class="poloto_tick_line" stroke="black" x1="150" x2="650" y1="313.92177045805454" y2="313.92177045805454" /><text  class="poloto_tick_labels poloto_text" dominant-baseline="middle" text-anchor="end" x="135" y="313.92177045805454" >4.625</text><line  class="poloto_axis_lines" stroke="black" x1="150" x2="144" y1="304.2717447246526" y2="304.2717447246526" /><line  class="poloto_tick_line" stroke="black" x1="150" x2="650" y1="304.2717447246526" y2="304.2717447246526" /><text  class="poloto_tick_labels poloto_text" dominant-baseline="middle" text-anchor="end" x="135" y="304.2717447246526" >4.75</text><line  class="poloto_axis_lines" stroke="black" x1="150" x2="144" y1="294.62171899125065" y2="294.62171899125065" /><line  class="poloto_tick_line" stroke="black" x1="150" x2="650" y1="294.62171899125065" y2="294.62171899125065" /><text  class="poloto_tick_labels poloto_text" dominant-baseline="middle" text-anchor="end" x="135" y="294.62171899125065" >4.875</text><line  class="poloto_axis_lines" stroke="black" x1="150" x2="144" y1="284.9716932578487" y2="284.9716932578487" /><line  class="poloto_tick_line" stroke="black" x1="150" x2="650" y1="284.9716932578487" y2="284.9716932578487" /><text  class="poloto_tick_labels poloto_text" dominant-baseline="middle" text-anchor="end" x="135" y="284.9716932578487" >5</text><line  class="poloto_axis_lines" stroke="black" x1="150" x2="144" y1="275.32166752444675" y2="275.32166752444675" /><line  class="poloto_tick_line" stroke="black" x1="150" x2="650" y1="275.32166752444675" y2="275.32166752444675" /><text  class="poloto_tick_labels poloto_text" dominant-baseline="middle" text-anchor="end" x="135" y="275.32166752444675" >5.125</text><line  class="poloto_axis_lines" stroke="black" x1="150" x2="144" y1="265.67164179104475" y2="265.67164179104475" /><line  class="poloto_tick_line" stroke="black" x1="150" x2="650" y1="265.67164179104475" y2="265.67164179104475" /><text  class="poloto_tick_labels poloto_text" dominant-baseline="middle" text-anchor="end" x="135" y="265.67164179104475" >5.25</text><line  class="poloto_axis_lines" stroke="black" x1="150" x2="144" y1="256.0216160576428" y2="256.0216160576428" /><line  class="poloto_tick_line" stroke="black" x1="150" x2="650" y1="256.0216160576428" y2="256.0216160576428" /><text  class="poloto_tick_labels poloto_text" dominant-baseline="middle" text-anchor="end" x="135" y="256.0216160576428" >5.375</text><line  class="poloto_axis_lines" stroke="black" x1="150" x2="144" y1="246.37159032424086" y2="246.37159032424086" /><line  class="poloto_tick_line" stroke="black" x1="150" x2="650" y1="246.37159032424086" y2="246.37159032424086" /><text  class="poloto_tick_labels poloto_text" dominant-baseline="middle" text-anchor="end" x="135" y="246.37159032424086" >5.5</text><line  class="poloto_axis_lines" stroke="black" x1="150" x2="144" y1="236.7215645908389" y2="236.7215645908389" /><line  class="poloto_tick_line" stroke="black" x1="150" x2="650" y1="236.7215645908389" y2="236.7215645908389" /><text  class="poloto_tick_labels poloto_text" dominant-baseline="middle" text-anchor="end" x="135" y="236.7215645908389" >5.625</text><line  class="poloto_axis_lines" stroke="black" x1="150" x2="144" y1="227.07153885743696" y2="227.07153885743696" /><line  class="poloto_tick_line" stroke="black" x1="150" x2="650" y1="227.07153885743696" y2="227.07153885743696" /><text  class="poloto_tick_labels poloto_text" dominant-baseline="middle" text-anchor="end" x="135" y="227.07153885743696" >5.75</text><line  class="poloto_axis_lines" stroke="black" x1="150" x2="144" y1="217.42151312403502" y2="217.42151312403502" /><line  class="poloto_tick_line" stroke="black" x1="150" x2="650" y1="217.42151312403502" y2="217.42151312403502" /><text  class="poloto_tick_labels poloto_text" dominant-baseline="middle" text-anchor="end" x="135" y="217.42151312403502" >5.875</text><line  class="poloto_axis_lines" stroke="black" x1="150" x2="144" y1="207.771487390633" y2="207.771487390633" /><line  class="poloto_tick_line" stroke="black" x1="150" x2="650" y1="207.771487390633" y2="207.771487390633" /><text  class="poloto_tick_labels poloto_text" dominant-baseline="middle" text-anchor="end" x="135" y="207.771487390633" >6</text><line  class="poloto_axis_lines" stroke="black" x1="150" x2="144" y1="198.12146165723107" y2="198.12146165723107" /><line  class="poloto_tick_line" stroke="black" x1="150" x2="650" y1="198.12146165723107" y2="198.12146165723107" /><text  class="poloto_tick_labels poloto_text" dominant-baseline="middle" text-anchor="end" x="135" y="198.12146165723107" >6.125</text><line  class="poloto_axis_lines" stroke="black" x1="150" x2="144" y1="188.47143592382912" y2="188.47143592382912" /><line  class="poloto_tick_line" stroke="black" x1="150" x2="650" y1="188.47143592382912" y2="188.47143592382912" /><text  class="poloto_tick_labels poloto_text" dominant-baseline="middle" text-anchor="end" x="135" y="188.47143592382912" >6.25</text><line  class="poloto_axis_lines" stroke="black" x1="150" x2="144" y1="178.82141019042717" y2="178.82141019042717" /><line  class="poloto_tick_line" stroke="black" x1="150" x2="650" y1="178.82141019042717" y2="178.82141019042717" /><text  class="poloto_tick_labels poloto_text" dominant-baseline="middle" text-anchor="end" x="135" y="178.82141019042717" >6.375</text><line  class="poloto_axis_lines" stroke="black" x1="150" x2="144" y1="169.17138445702523" y2="169.17138445702523" /><line  class="poloto_tick_line" stroke="black" x1="150" x2="650" y1="169.17138445702523" y2="169.17138445702523" /><text  class="poloto_tick_labels poloto_text" dominant-baseline="middle" text-anchor="end" x="135" y="169.17138445702523" >6.5</text><line  class="poloto_axis_lines" stroke="black" x1="150" x2="144" y1="159.52135872362328" y2="159.52135872362328" /><line  class="poloto_tick_line" stroke="black" x1="150" x2="650" y1="159.52135872362328" y2="159.52135872362328" /><text  class="poloto_tick_labels poloto_text" dominant-baseline="middle" text-anchor="end" x="135" y="159.52135872362328" >6.625</text><line  class="poloto_axis_lines" stroke="black" x1="150" x2="144" y1="149.87133299022133" y2="149.87133299022133" /><line  class="poloto_tick_line" stroke="black" x1="150" x2="650" y1="149.87133299022133" y2="149.87133299022133" /><text  class="poloto_tick_labels poloto_text" dominant-baseline="middle" text-anchor="end" x="135" y="149.87133299022133" >6.75</text><line  class="poloto_axis_lines" stroke="black" x1="150" x2="144" y1="140.22130725681933" y2="140.22130725681933" /><line  class="poloto_tick_line" stroke="black" x1="150" x2="650" y1="140.22130725681933" y2="140.22130725681933" /><text  class="poloto_tick_labels poloto_text" dominant-baseline="middle" text-anchor="end" x="135" y="140.22130725681933" >6.875</text><line  class="poloto_axis_lines" stroke="black" x1="150" x2="144" y1="130.57128152341744" y2="130.57128152341744" /><line  class="poloto_tick_line" stroke="black" x1="150" x2="650" y1="130.57128152341744" y2="130.57128152341744" /><text  class="poloto_tick_labels poloto_text" dominant-baseline="middle" text-anchor="end" x="135" y="130.57128152341744" >7</text><line  class="poloto_axis_lines" stroke="black" x1="150" x2="144" y1="120.92125579001544" y2="120.92125579001544" /><line  class="poloto_tick_line" stroke="black" x1="150" x2="650" y1="120.92125579001544" y2="120.92125579001544" /><text  class="poloto_tick_labels poloto_text" dominant-baseline="middle" text-anchor="end" x="135" y="120.92125579001544" >7.125</text><line  class="poloto_axis_lines" stroke="black" x1="150" x2="144" y1="111.27123005661343" y2="111.27123005661343" /><line  class="poloto_tick_line" stroke="black" x1="150" x2="650" y1="111.27123005661343" y2="111.27123005661343" /><text  class="poloto_tick_labels poloto_text" dominant-baseline="middle" text-anchor="end" x="135" y="111.27123005661343" >7.25</text><line  class="poloto_axis_lines" stroke="black" x1="150" x2="144" y1="101.62120432321154" y2="101.62120432321154" /><line  class="poloto_tick_line" stroke="black" x1="150" x2="650" y1="101.62120432321154" y2="101.62120432321154" /><text  class="poloto_tick_labels poloto_text" dominant-baseline="middle" text-anchor="end" x="135" y="101.62120432321154" >7.375</text><text  class="poloto_tick_labels poloto_text" dominant-baseline="middle" text-anchor="start" x="440.00000000000006" y="70" >¹2022-05-01 00:00:00 UTC in Months</text><line  class="poloto_axis_lines" stroke="black" x1="213.55932203389966" x2="213.55932203389966" y1="400" y2="405" /><line  class="poloto_tick_line" stroke="black" x1="213.55932203389966" x2="213.55932203389966" y1="400" y2="100.00000000000006" /><text  class="poloto_tick_labels poloto_text" dominant-baseline="start" text-anchor="middle" x="213.55932203389966" y="430" >2022 May¹</text><line  class="poloto_axis_lines" stroke="black" x1="299.7175141242951" x2="299.7175141242951" y1="400" y2="405" /><line  class="poloto_tick_line" stroke="black" x1="299.7175141242951" x2="299.7175141242951" y1="400" y2="100.00000000000006" /><text  class="poloto_tick_labels poloto_text" dominant-baseline="start" text-anchor="middle" x="299.7175141242951" y="430" >2022 Jul</text><line  class="poloto_axis_lines" stroke="black" x1="387.2881355932186" x2="387.2881355932186" y1="400" y2="405" /><line  class="poloto_tick_line" stroke="black" x1="387.2881355932186" x2="387.2881355932186" y1="400" y2="100.00000000000006" /><text  class="poloto_tick_labels poloto_text" dominant-baseline="start" text-anchor="middle" x="387.2881355932186" y="430" >2022 Sep</text><line  class="poloto_axis_lines" stroke="black" x1="473.4463276836141" x2="473.4463276836141" y1="400" y2="405" /><line  class="poloto_tick_line" stroke="black" x1="473.4463276836141" x2="473.4463276836141" y1="400" y2="100.00000000000006" /><text  class="poloto_tick_labels poloto_text" dominant-baseline="start" text-anchor="middle" x="473.4463276836141" y="430" >2022 Nov</text><line  class="poloto_axis_lines" stroke="black" x1="559.6045197740095" x2="559.6045197740095" y1="400" y2="405" /><line  class="poloto_tick_line" stroke="black" x1="559.6045197740095" x2="559.6045197740095" y1="400" y2="100.00000000000006" /><text  class="poloto_tick_labels poloto_text" dominant-baseline="start" text-anchor="middle" x="559.6045197740095" y="430" >2023 Jan</text><line  class="poloto_axis_lines" stroke="black" x1="642.9378531073453" x2="642.9378531073453" y1="400" y2="405" /><line  class="poloto_tick_line" stroke="black" x1="642.9378531073453" x2="642.9378531073453" y1="400" y2="100.00000000000006" /><text  class="poloto_tick_labels poloto_text" dominant-baseline="start" text-anchor="middle" x="642.9378531073453" y="430" >2023 Mar</text><path  stroke="black" fill="none" class="poloto_axis_lines" d=" M 150 400 L 650 400" /><path  stroke="black" fill="none" class="poloto_axis_lines" d=" M 150 400 L 150 100.00000000000006" /></svg>