<svg class="poloto" width="800" height="500" viewBox="0 0 800 500" xmlns="http://www.w3.org/2000/svg"><style>.poloto{stroke-linecap:round;stroke-linejoin:round;font-family:Roboto,sans-serif;font-size:16px;}.poloto_background{fill:#262626;}.poloto_scatter{stroke-width:7}.poloto_tick_line{stroke:dimgray;stroke-width:0.5}.poloto_line{stroke-width:2}.poloto_text{fill: white;}.poloto_axis_lines{stroke: white;stroke-width:3;fill:none;stroke-dasharray:none}.poloto_title{font-size:24px;dominant-baseline:start;text-anchor:middle;}.poloto_xname{font-size:24px;dominant-baseline:start;text-anchor:middle;}.poloto_yname{font-size:24px;dominant-baseline:start;text-anchor:middle;}.poloto0stroke{stroke:blue;}.poloto1stroke{stroke:red;}.poloto2stroke{stroke:green;}.poloto3stroke{stroke:gold;}.poloto4stroke{stroke:aqua;}.poloto5stroke{stroke:lime;}.poloto6stroke{stroke:orange;}.poloto7stroke{stroke:chocolate;}.poloto0fill{fill:blue;}.poloto1fill{fill:red;}.poloto2fill{fill:green;}.poloto3fill{fill:gold;}.poloto4fill{fill:aqua;}.poloto5fill{fill:lime;}.poloto6fill{fill:orange;}.poloto7fill{fill:chocolate;}</style><circle  r="1e5" class="poloto_background" /><text  class="poloto_text poloto_legend_text" x="675" y="100" >30 years</text><line  class="poloto_line poloto_legend_icon poloto0stroke poloto0legend" stroke="black" x1="680" x2="730" y1="81.25" y2="81.25" /><path  class="poloto_line poloto0stroke" fill="none" stroke="black" d=" M 150.00 212.50 L 168.52 231.25 L 224.07 212.50 L 242.59 193.75 L 261.11 193.75 L 261.11 193.75 L 298.15 156.25 L 353.70 156.25 L 372.22 175.00 L 390.74 193.75 L 409.26 212.50 L 427.78 175.00 L 483.33 193.75 L 501.85 175.00 L 520.37 156.25 L 538.89 137.50 L 557.41 137.50 L 612.96 137.50 L 631.48 156.25 L 650.00 156.25" /><text  class="poloto_text poloto_legend_text" x="675" y="150" >20 years</text><line  class="poloto_line poloto_legend_icon poloto1stroke poloto1legend" stroke="black" x1="680" x2="730" y1="131.25" y2="131.25" /><path  class="poloto_line poloto1stroke" fill="none" stroke="black" d=" M 150.00 212.50 L 168.52 231.25 L 224.07 193.75 L 242.59 175.00 L 261.11 175.00 L 261.11 175.00 L 298.15 156.25 L 353.70 137.50 L 372.22 156.25 L 390.74 175.00 L 409.26 193.75 L 427.78 156.25 L 483.33 193.75 L 501.85 156.25 L 520.37 156.25 L 538.89 156.25 L 557.41 101.50 L 612.96 100.00 L 631.48 118.75 L 650.00 156.25" /><text  class="poloto_text poloto_legend_text" x="675" y="200" >15 years</text><line  class="poloto_line poloto_legend_icon poloto2stroke poloto2legend" stroke="black" x1="680" x2="730" y1="181.25" y2="181.25" /><path  class="poloto_line poloto2stroke" fill="none" stroke="black" d=" M 150.00 306.25 L 168.52 306.25 L 224.07 306.25 L 242.59 268.75 L 261.11 268.75 L 261.11 268.75 L 298.15 251.50 L 353.70 268.75 L 372.22 268.75 L 390.74 287.50 L 409.26 287.50 L 427.78 268.75 L 483.33 287.50 L 501.85 268.75 L 520.37 250.00 L 538.89 251.50 L 557.41 250.00 L 612.96 251.50 L 631.48 250.00 L 650.00 251.50" /><text  class="poloto_labels poloto_text poloto_title" x="400" y="37.5" >lower.com purchase rates</text><text  class="poloto_labels poloto_text poloto_xname" x="400" y="481.25" >Date</text><text  class="poloto_labels poloto_text poloto_yname" transform="rotate(-90,37.5,250)" x="37.5" y="250" >Rate (%)</text><text  class="poloto_tick_labels poloto_text" dominant-baseline="middle" text-anchor="start" x="150" y="70" ></text><line  class="poloto_axis_lines" stroke="black" x1="150" x2="144" y1="400" y2="400" /><line  class="poloto_tick_line" stroke="black" x1="150" x2="650" y1="400" y2="400" /><text  class="poloto_tick_labels poloto_text" dominant-baseline="middle" text-anchor="end" x="135" y="400" >3</text><line  class="poloto_axis_lines" stroke="black" x1="150" x2="144" y1="362.5" y2="362.5" /><line  class="poloto_tick_line" stroke="black" x1="150" x2="650" y1="362.5" y2="362.5" /><text  class="poloto_tick_labels poloto_text" dominant-baseline="middle" text-anchor="end" x="135" y="362.5" >3.25</text><line  class="poloto_axis_lines" stroke="black" x1="150" x2="144" y1="325" y2="325" /><line  class="poloto_tick_line" stroke="black" x1="150" x2="650" y1="325" y2="325" /><text  class="poloto_tick_labels poloto_text" dominant-baseline="middle" text-anchor="end" x="135" y="325" >3.5</text><line  class="poloto_axis_lines" stroke="black" x1="150" x2="144" y1="287.5" y2="287.5" /><line  class="poloto_tick_line" stroke="black" x1="150" x2="650" y1="287.5" y2="287.5" /><text  class="poloto_tick_labels poloto_text" dominant-baseline="middle" text-anchor="end" x="135" y="287.5" >3.75</text><line  class="poloto_axis_lines" stroke="black" x1="150" x2="144" y1="250" y2="250" /><line  class="poloto_tick_line" stroke="black" x1="150" x2="650" y1="250" y2="250" /><text  class="poloto_tick_labels poloto_text" dominant-baseline="middle" text-anchor="end" x="135" y="250" >4</text><line  class="poloto_axis_lines" stroke="black" x1="150" x2="144" y1="212.5" y2="212.5" /><line  class="poloto_tick_line" stroke="black" x1="150" x2="650" y1="212.5" y2="212.5" /><text  class="poloto_tick_labels poloto_text" dominant-baseline="middle" text-anchor="end" x="135" y="212.5" >4.25</text><line  class="poloto_axis_lines" stroke="black" x1="150" x2="144" y1="175" y2="175" /><line  class="poloto_tick_line" stroke="black" x1="150" x2="650" y1="175" y2="175" /><text  class="poloto_tick_labels poloto_text" dominant-baseline="middle" text-anchor="end" x="135" y="175" >4.5</text><line  class="poloto_axis_lines" stroke="black" x1="150" x2="144" y1="137.5" y2="137.5" /><line  class="poloto_tick_line" stroke="black" x1="150" x2="650" y1="137.5" y2="137.5" /><text  class="poloto_tick_labels poloto_text" dominant-baseline="middle" text-anchor="end" x="135" y="137.5" >4.75</text><line  class="poloto_axis_lines" stroke="black" x1="150" x2="144" y1="100" y2="100" /><line  class="poloto_tick_line" stroke="black" x1="150" x2="650" y1="100" y2="100" /><text  class="poloto_tick_labels poloto_text" dominant-baseline="middle" text-anchor="end" x="135" y="100" >5</text><text  class="poloto_tick_labels poloto_text" dominant-baseline="middle" text-anchor="start" x="440.00000000000006" y="70" >ยน2022-03-21 00:00:00 UTC in Days</text><line  class="poloto_axis_lines" stroke="black" x1="224.0740740740439" x2="224.0740740740439" y1="400" y2="405" /><line  class="poloto_tick_line" stroke="black" x1="224.0740740740439" x2="224.0740740740439" y1="400" y2="100" /><text  class="poloto_tick_labels poloto_text" dominant-baseline="start" text-anchor="middle" x="224.0740740740439" y="430" >Mar 21ยน</text><line  class="poloto_axis_lines" stroke="black" x1="316.66666666662786" x2="316.66666666662786" y1="400" y2="405" /><line  class="poloto_tick_line" stroke="black" x1="316.66666666662786" x2="316.66666666662786" y1="400" y2="100" /><text  class="poloto_tick_labels poloto_text" dominant-baseline="start" text-anchor="middle" x="316.66666666662786" y="430" >Mar 26</text><line  class="poloto_axis_lines" stroke="black" x1="409.25925925921183" x2="409.25925925921183" y1="400" y2="405" /><line  class="poloto_tick_line" stroke="black" x1="409.25925925921183" x2="409.25925925921183" y1="400" y2="100" /><text  class="poloto_tick_labels poloto_text" dominant-baseline="start" text-anchor="middle" x="409.25925925921183" y="430" >Mar 31</text><line  class="poloto_axis_lines" stroke="black" x1="501.8518518517958" x2="501.8518518517958" y1="400" y2="405" /><line  class="poloto_tick_line" stroke="black" x1="501.8518518517958" x2="501.8518518517958" y1="400" y2="100" /><text  class="poloto_tick_labels poloto_text" dominant-baseline="start" text-anchor="middle" x="501.8518518517958" y="430" >Apr 05</text><line  class="poloto_axis_lines" stroke="black" x1="594.444444444438" x2="594.444444444438" y1="400" y2="405" /><line  class="poloto_tick_line" stroke="black" x1="594.444444444438" x2="594.444444444438" y1="400" y2="100" /><text  class="poloto_tick_labels poloto_text" dominant-baseline="start" text-anchor="middle" x="594.444444444438" y="430" >Apr 10</text><path  stroke="black" fill="none" class="poloto_axis_lines" d=" M 150 400 L 650 400" /><path  stroke="black" fill="none" class="poloto_axis_lines" d=" M 150 400 L 150 100" /></svg>