<svg class="poloto" width="800" height="500" viewBox="0 0 800 500" xmlns="http://www.w3.org/2000/svg"><style>.poloto{stroke-linecap:round;stroke-linejoin:round;font-family:Roboto,sans-serif;font-size:16px;}.poloto_background{fill:#262626;}.poloto_scatter{stroke-width:7}.poloto_tick_line{stroke:dimgray;stroke-width:0.5}.poloto_line{stroke-width:2}.poloto_text{fill: white;}.poloto_axis_lines{stroke: white;stroke-width:3;fill:none;stroke-dasharray:none}.poloto_title{font-size:24px;dominant-baseline:start;text-anchor:middle;}.poloto_xname{font-size:24px;dominant-baseline:start;text-anchor:middle;}.poloto_yname{font-size:24px;dominant-baseline:start;text-anchor:middle;}.poloto0stroke{stroke:blue;}.poloto1stroke{stroke:red;}.poloto2stroke{stroke:green;}.poloto3stroke{stroke:gold;}.poloto4stroke{stroke:aqua;}.poloto5stroke{stroke:lime;}.poloto6stroke{stroke:orange;}.poloto7stroke{stroke:chocolate;}.poloto0fill{fill:blue;}.poloto1fill{fill:red;}.poloto2fill{fill:green;}.poloto3fill{fill:gold;}.poloto4fill{fill:aqua;}.poloto5fill{fill:lime;}.poloto6fill{fill:orange;}.poloto7fill{fill:chocolate;}</style><circle  r="1e5" class="poloto_background" /><text  class="poloto_text poloto_legend_text" x="675" y="100" >Refinance 15</text><line  class="poloto_line poloto_legend_icon poloto0stroke poloto0legend" stroke="black" x1="680" x2="730" y1="81.25" y2="81.25" /><path  class="poloto_line poloto0stroke" fill="none" stroke="black" d=" M 150.00 392.46 L 151.52 400.00 L 156.10 389.32 L 157.62 380.17 L 159.15 389.32 L 159.15 389.32 L 162.20 358.81 L 166.77 357.20 L 168.29 367.88 L 169.82 344.83 L 171.34 346.44 L 172.87 341.61 L 177.44 343.22 L 178.96 336.78 L 178.96 336.78 L 182.01 337.37 L 183.54 314.32 L 188.11 324.32 L 189.63 327.54 L 191.16 327.54 L 192.68 326.69 L 194.21 321.78 L 200.30 278.73 L 201.83 297.88 L 203.35 283.05 L 204.88 277.29 L 204.88 277.29 L 210.98 299.58 L 214.02 303.64 L 215.55 294.58 L 220.12 283.81 L 221.65 305.25 L 223.17 294.58 L 223.17 294.58 L 226.22 292.88 L 230.79 296.19 L 232.32 306.86 L 232.32 306.86 L 233.84 297.80 L 235.37 308.56 L 236.89 292.88 L 241.46 325.08 L 242.99 324.32 L 244.51 306.86 L 244.51 306.86 L 246.04 314.32 L 247.56 317.63 L 252.13 317.63 L 253.66 329.15 L 255.18 329.15 L 256.71 329.15 L 258.23 329.15 L 264.33 317.63 L 265.85 314.32 L 267.38 315.93 L 268.90 315.93 L 268.90 315.93 L 275.00 305.25 L 276.52 305.25 L 278.05 296.19 L 284.15 281.36 L 285.67 250.76 L 287.20 254.15 L 288.72 254.15 L 290.24 275.59 L 294.82 254.15 L 296.34 254.15 L 297.87 273.90 L 299.39 277.29 L 305.49 277.29 L 307.01 275.59 L 308.54 280.59 L 310.06 285.51 L 311.59 296.19 L 317.68 303.64 L 319.21 294.58 L 320.73 287.12 L 322.26 283.81 L 326.83 285.51 L 329.88 285.51 L 331.40 283.81 L 337.50 282.20 L 337.50 282.20 L 337.50 282.20 L 337.50 282.20 L 337.50 282.20 L 337.50 282.20 L 340.55 282.20 L 340.55 282.20 L 340.55 282.20 L 340.55 282.20 L 340.55 282.20 L 340.55 282.20 L 348.17 294.58 L 351.22 297.80 L 352.74 325.93 L 354.27 329.15 L 358.84 329.15 L 360.37 327.54 L 361.89 305.25 L 363.41 299.49 L 364.94 285.51 L 369.51 296.19 L 369.51 296.19 L 371.04 287.12 L 374.09 296.19 L 374.09 296.19 L 381.71 296.19 L 383.23 262.46 L 384.76 282.20 L 390.85 248.39 L 393.90 248.39 L 393.90 248.39 L 396.95 260.76 L 403.05 254.15 L 403.05 254.15 L 403.05 254.15 L 403.05 254.15 L 403.05 254.15 L 403.05 254.15 L 403.05 254.15 L 403.05 254.15 L 403.05 254.15 L 407.62 254.15 L 416.77 232.63 L 422.87 235.17 L 422.87 235.17 L 427.44 235.17 L 433.54 235.17 L 435.06 235.17 L 435.06 235.17 L 435.06 235.17 L 435.06 235.17 L 435.06 235.17 L 454.88 235.17 L 456.40 235.17 L 465.55 139.75 L 467.07 130.68 L 468.60 130.68 L 523.48 159.15 L 529.57 159.15 L 531.10 159.15 L 532.62 175.51 L 535.67 184.49 L 535.67 184.49 L 541.77 184.49 L 543.29 184.49 L 544.82 184.49 L 546.34 184.49 L 550.91 184.49 L 552.44 184.49 L 555.49 184.49 L 557.01 184.49 L 561.59 184.49 L 563.11 184.49 L 563.11 184.49 L 567.68 184.49 L 572.26 184.49 L 573.78 184.49 L 575.30 184.49 L 576.83 184.49 L 578.35 184.49 L 584.45 209.15 L 585.98 180.68 L 587.50 159.15 L 589.02 169.92 L 593.60 169.92 L 595.12 169.92 L 595.12 169.92 L 598.17 193.05 L 599.70 193.05 L 604.27 193.05 L 605.79 193.05 L 607.32 193.05 L 608.84 193.05 L 610.37 193.05 L 610.37 193.05 L 610.37 193.05 L 610.37 193.05 L 617.99 193.05 L 621.04 193.05 L 625.61 193.05 L 627.13 193.05 L 630.18 193.05 L 631.71 193.05 L 637.80 193.05 L 639.33 193.05 L 640.85 193.05 L 642.38 223.56 L 646.95 230.34 L 648.48 191.36 L 650.00 203.81" /><text  class="poloto_text poloto_legend_text" x="675" y="150" >Refinance 20</text><line  class="poloto_line poloto_legend_icon poloto1stroke poloto1legend" stroke="black" x1="680" x2="730" y1="131.25" y2="131.25" /><path  class="poloto_line poloto1stroke" fill="none" stroke="black" d=" M 150.00 345.68 L 151.52 368.31 L 156.10 334.58 L 157.62 324.24 L 159.15 333.73 L 159.15 333.73 L 162.20 304.07 L 166.77 301.53 L 168.29 312.29 L 169.82 300.25 L 171.34 311.02 L 172.87 290.85 L 177.44 321.69 L 178.96 290.85 L 178.96 290.85 L 182.01 290.85 L 182.01 290.85 L 188.11 250.17 L 189.63 282.71 L 191.16 290.85 L 192.68 301.53 L 194.21 280.59 L 200.30 260.00 L 201.83 257.37 L 203.35 252.12 L 204.88 240.08 L 209.45 245.34 L 210.98 268.14 L 214.02 260.00 L 215.55 257.37 L 220.12 248.81 L 221.65 258.73 L 223.17 258.73 L 223.17 258.73 L 226.22 258.73 L 230.79 260.00 L 232.32 281.44 L 232.32 281.44 L 233.84 269.41 L 235.37 289.58 L 236.89 281.44 L 241.46 282.71 L 242.99 281.44 L 244.51 281.44 L 244.51 281.44 L 246.04 282.71 L 247.56 289.58 L 252.13 290.85 L 253.66 294.66 L 255.18 294.66 L 256.71 294.66 L 258.23 294.66 L 264.33 289.58 L 265.85 278.81 L 267.38 281.44 L 268.90 281.44 L 268.90 281.44 L 275.00 268.14 L 276.52 270.68 L 278.05 261.27 L 284.15 215.85 L 285.67 197.03 L 287.20 207.80 L 288.72 215.85 L 290.24 238.56 L 294.82 225.17 L 296.34 218.47 L 297.87 239.92 L 299.39 250.17 L 305.49 250.17 L 307.01 238.56 L 308.54 249.32 L 310.06 260.00 L 311.59 272.03 L 317.68 280.08 L 319.21 269.41 L 320.73 258.73 L 322.26 251.44 L 326.83 257.37 L 329.88 260.00 L 331.40 258.73 L 337.50 260.00 L 337.50 260.00 L 337.50 260.00 L 337.50 260.00 L 337.50 260.00 L 337.50 260.00 L 337.50 260.00 L 337.50 260.00 L 337.50 260.00 L 337.50 260.00 L 337.50 260.00 L 337.50 260.00 L 348.17 280.08 L 351.22 282.71 L 352.74 301.53 L 354.27 304.07 L 358.84 301.27 L 360.37 301.27 L 361.89 290.85 L 363.41 294.66 L 364.94 278.81 L 369.51 270.68 L 369.51 270.68 L 371.04 270.68 L 374.09 281.44 L 374.09 281.44 L 381.71 278.81 L 383.23 260.00 L 384.76 260.00 L 390.85 246.19 L 393.90 234.58 L 393.90 234.58 L 396.95 247.54 L 403.05 215.85 L 403.05 215.85 L 403.05 215.85 L 403.05 215.85 L 403.05 215.85 L 403.05 215.85 L 403.05 215.85 L 403.05 215.85 L 403.05 215.85 L 407.62 215.85 L 416.77 202.37 L 422.87 203.73 L 425.91 203.73 L 427.44 203.73 L 427.44 203.73 L 435.06 203.73 L 436.59 203.73 L 436.59 203.73 L 436.59 203.73 L 436.59 203.73 L 454.88 203.73 L 456.40 203.73 L 465.55 118.81 L 467.07 102.97 L 467.07 102.97 L 526.52 155.34 L 529.57 155.34 L 531.10 155.34 L 534.15 174.15 L 535.67 175.51 L 535.67 175.51 L 541.77 175.51 L 543.29 175.51 L 544.82 175.51 L 546.34 175.51 L 550.91 175.51 L 552.44 175.51 L 555.49 175.51 L 557.01 175.51 L 561.59 175.51 L 563.11 175.51 L 563.11 175.51 L 567.68 175.51 L 572.26 175.51 L 573.78 175.51 L 575.30 175.51 L 576.83 175.51 L 578.35 175.51 L 584.45 156.36 L 585.98 145.93 L 587.50 144.58 L 589.02 147.37 L 593.60 147.37 L 595.12 147.37 L 595.12 147.37 L 598.17 167.46 L 599.70 167.46 L 604.27 167.46 L 605.79 167.46 L 607.32 167.46 L 608.84 167.46 L 610.37 167.46 L 610.37 167.46 L 616.46 167.46 L 616.46 167.46 L 617.99 167.46 L 621.04 167.46 L 625.61 167.46 L 627.13 167.46 L 630.18 167.46 L 631.71 167.46 L 637.80 167.46 L 639.33 167.46 L 640.85 167.46 L 642.38 190.34 L 646.95 188.98 L 648.48 156.69 L 650.00 158.05" /><text  class="poloto_text poloto_legend_text" x="675" y="200" >Refinance 30</text><line  class="poloto_line poloto_legend_icon poloto2stroke poloto2legend" stroke="black" x1="680" x2="730" y1="181.25" y2="181.25" /><path  class="poloto_line poloto2stroke" fill="none" stroke="black" d=" M 150.00 343.31 L 151.52 351.36 L 156.10 338.81 L 157.62 328.98 L 159.15 330.85 L 159.15 330.85 L 162.20 310.25 L 166.77 308.47 L 168.29 319.15 L 169.82 307.54 L 171.34 318.22 L 172.87 297.71 L 177.44 307.54 L 178.96 286.95 L 180.49 286.95 L 182.01 286.02 L 183.54 260.00 L 188.11 264.58 L 189.63 276.27 L 191.16 286.95 L 192.68 277.20 L 194.21 265.51 L 200.30 256.61 L 201.83 242.12 L 203.35 240.17 L 204.88 238.14 L 209.45 242.12 L 210.98 258.73 L 214.02 256.61 L 215.55 254.66 L 220.12 244.07 L 221.65 255.59 L 223.17 244.07 L 223.17 244.07 L 226.22 244.07 L 230.79 246.02 L 232.32 264.58 L 232.32 264.58 L 233.84 255.59 L 235.37 256.61 L 236.89 257.54 L 241.46 265.51 L 242.99 256.61 L 244.51 256.61 L 244.51 256.61 L 246.04 266.44 L 247.56 267.46 L 252.13 268.39 L 253.66 277.20 L 255.18 277.20 L 256.71 279.07 L 258.23 279.07 L 264.33 275.25 L 265.85 264.58 L 267.38 266.44 L 268.90 265.51 L 268.90 265.51 L 275.00 255.59 L 276.52 255.59 L 278.05 245.00 L 284.15 202.12 L 285.67 171.78 L 287.20 190.34 L 288.72 202.12 L 290.24 212.80 L 294.82 203.05 L 296.34 202.12 L 297.87 221.61 L 299.39 223.56 L 305.49 223.56 L 307.01 211.86 L 308.54 221.61 L 310.06 232.29 L 311.59 255.59 L 317.68 256.61 L 319.21 245.00 L 320.73 224.58 L 322.26 221.61 L 326.83 241.10 L 329.88 223.56 L 331.40 222.54 L 337.50 242.12 L 337.50 242.12 L 337.50 242.12 L 337.50 242.12 L 337.50 242.12 L 337.50 242.12 L 340.55 242.12 L 340.55 242.12 L 340.55 242.12 L 340.55 242.12 L 340.55 242.12 L 340.55 242.12 L 348.17 254.66 L 351.22 256.61 L 352.74 275.25 L 354.27 287.88 L 358.84 286.95 L 360.37 286.95 L 361.89 265.51 L 363.41 268.39 L 364.94 254.66 L 369.51 265.51 L 369.51 265.51 L 371.04 257.54 L 374.09 266.44 L 374.09 266.44 L 381.71 264.58 L 383.23 246.02 L 384.76 245.00 L 390.85 220.59 L 393.90 211.86 L 393.90 211.86 L 396.95 222.54 L 403.05 210.85 L 403.05 210.85 L 403.05 210.85 L 403.05 210.85 L 403.05 210.85 L 403.05 210.85 L 403.05 210.85 L 403.05 210.85 L 407.62 210.85 L 407.62 209.83 L 416.77 197.03 L 422.87 175.51 L 422.87 175.51 L 427.44 175.51 L 427.44 175.51 L 435.06 175.51 L 436.59 175.51 L 436.59 175.51 L 436.59 175.51 L 436.59 175.51 L 454.88 175.51 L 456.40 175.51 L 465.55 127.03 L 467.07 100.00 L 467.07 100.00 L 526.52 146.44 L 529.57 146.44 L 531.10 146.44 L 532.62 150.76 L 535.67 160.59 L 535.67 160.59 L 541.77 160.59 L 543.29 160.59 L 544.82 160.59 L 546.34 160.59 L 550.91 160.59 L 552.44 160.59 L 555.49 160.59 L 557.01 160.59 L 561.59 160.59 L 563.11 160.59 L 563.11 160.59 L 567.68 160.59 L 572.26 160.59 L 573.78 160.59 L 575.30 160.59 L 576.83 160.59 L 578.35 160.59 L 584.45 144.24 L 585.98 152.88 L 587.50 132.37 L 589.02 152.88 L 593.60 152.88 L 595.12 152.88 L 595.12 152.88 L 598.17 152.88 L 599.70 152.88 L 604.27 152.88 L 605.79 152.88 L 607.32 152.88 L 608.84 152.88 L 610.37 152.88 L 610.37 152.88 L 616.46 152.88 L 616.46 152.88 L 617.99 152.88 L 621.04 152.88 L 625.61 152.88 L 627.13 152.88 L 630.18 152.88 L 631.71 152.88 L 637.80 152.88 L 639.33 152.88 L 640.85 152.88 L 642.38 207.80 L 646.95 197.03 L 648.48 153.98 L 650.00 186.27" /><text  class="poloto_labels poloto_text poloto_title" x="400" y="37.5" >lower.com purchase rates</text><text  class="poloto_labels poloto_text poloto_xname" x="400" y="481.25" >Date</text><text  class="poloto_labels poloto_text poloto_yname" transform="rotate(-90,37.5,250)" x="37.5" y="250" >Rate (%)</text><text  class="poloto_tick_labels poloto_text" dominant-baseline="middle" text-anchor="start" x="150" y="70" ></text><line  class="poloto_axis_lines" stroke="black" x1="150" x2="144" y1="390.2542372881356" y2="390.2542372881356" /><line  class="poloto_tick_line" stroke="black" x1="150" x2="650" y1="390.2542372881356" y2="390.2542372881356" /><text  class="poloto_tick_labels poloto_text" dominant-baseline="middle" text-anchor="end" x="135" y="390.2542372881356" >3.625</text><line  class="poloto_axis_lines" stroke="black" x1="150" x2="144" y1="379.66101694915255" y2="379.66101694915255" /><line  class="poloto_tick_line" stroke="black" x1="150" x2="650" y1="379.66101694915255" y2="379.66101694915255" /><text  class="poloto_tick_labels poloto_text" dominant-baseline="middle" text-anchor="end" x="135" y="379.66101694915255" >3.75</text><line  class="poloto_axis_lines" stroke="black" x1="150" x2="144" y1="369.06779661016947" y2="369.06779661016947" /><line  class="poloto_tick_line" stroke="black" x1="150" x2="650" y1="369.06779661016947" y2="369.06779661016947" /><text  class="poloto_tick_labels poloto_text" dominant-baseline="middle" text-anchor="end" x="135" y="369.06779661016947" >3.875</text><line  class="poloto_axis_lines" stroke="black" x1="150" x2="144" y1="358.47457627118644" y2="358.47457627118644" /><line  class="poloto_tick_line" stroke="black" x1="150" x2="650" y1="358.47457627118644" y2="358.47457627118644" /><text  class="poloto_tick_labels poloto_text" dominant-baseline="middle" text-anchor="end" x="135" y="358.47457627118644" >4</text><line  class="poloto_axis_lines" stroke="black" x1="150" x2="144" y1="347.8813559322034" y2="347.8813559322034" /><line  class="poloto_tick_line" stroke="black" x1="150" x2="650" y1="347.8813559322034" y2="347.8813559322034" /><text  class="poloto_tick_labels poloto_text" dominant-baseline="middle" text-anchor="end" x="135" y="347.8813559322034" >4.125</text><line  class="poloto_axis_lines" stroke="black" x1="150" x2="144" y1="337.2881355932203" y2="337.2881355932203" /><line  class="poloto_tick_line" stroke="black" x1="150" x2="650" y1="337.2881355932203" y2="337.2881355932203" /><text  class="poloto_tick_labels poloto_text" dominant-baseline="middle" text-anchor="end" x="135" y="337.2881355932203" >4.25</text><line  class="poloto_axis_lines" stroke="black" x1="150" x2="144" y1="326.6949152542373" y2="326.6949152542373" /><line  class="poloto_tick_line" stroke="black" x1="150" x2="650" y1="326.6949152542373" y2="326.6949152542373" /><text  class="poloto_tick_labels poloto_text" dominant-baseline="middle" text-anchor="end" x="135" y="326.6949152542373" >4.375</text><line  class="poloto_axis_lines" stroke="black" x1="150" x2="144" y1="316.10169491525426" y2="316.10169491525426" /><line  class="poloto_tick_line" stroke="black" x1="150" x2="650" y1="316.10169491525426" y2="316.10169491525426" /><text  class="poloto_tick_labels poloto_text" dominant-baseline="middle" text-anchor="end" x="135" y="316.10169491525426" >4.5</text><line  class="poloto_axis_lines" stroke="black" x1="150" x2="144" y1="305.50847457627117" y2="305.50847457627117" /><line  class="poloto_tick_line" stroke="black" x1="150" x2="650" y1="305.50847457627117" y2="305.50847457627117" /><text  class="poloto_tick_labels poloto_text" dominant-baseline="middle" text-anchor="end" x="135" y="305.50847457627117" >4.625</text><line  class="poloto_axis_lines" stroke="black" x1="150" x2="144" y1="294.91525423728814" y2="294.91525423728814" /><line  class="poloto_tick_line" stroke="black" x1="150" x2="650" y1="294.91525423728814" y2="294.91525423728814" /><text  class="poloto_tick_labels poloto_text" dominant-baseline="middle" text-anchor="end" x="135" y="294.91525423728814" >4.75</text><line  class="poloto_axis_lines" stroke="black" x1="150" x2="144" y1="284.3220338983051" y2="284.3220338983051" /><line  class="poloto_tick_line" stroke="black" x1="150" x2="650" y1="284.3220338983051" y2="284.3220338983051" /><text  class="poloto_tick_labels poloto_text" dominant-baseline="middle" text-anchor="end" x="135" y="284.3220338983051" >4.875</text><line  class="poloto_axis_lines" stroke="black" x1="150" x2="144" y1="273.728813559322" y2="273.728813559322" /><line  class="poloto_tick_line" stroke="black" x1="150" x2="650" y1="273.728813559322" y2="273.728813559322" /><text  class="poloto_tick_labels poloto_text" dominant-baseline="middle" text-anchor="end" x="135" y="273.728813559322" >5</text><line  class="poloto_axis_lines" stroke="black" x1="150" x2="144" y1="263.135593220339" y2="263.135593220339" /><line  class="poloto_tick_line" stroke="black" x1="150" x2="650" y1="263.135593220339" y2="263.135593220339" /><text  class="poloto_tick_labels poloto_text" dominant-baseline="middle" text-anchor="end" x="135" y="263.135593220339" >5.125</text><line  class="poloto_axis_lines" stroke="black" x1="150" x2="144" y1="252.54237288135596" y2="252.54237288135596" /><line  class="poloto_tick_line" stroke="black" x1="150" x2="650" y1="252.54237288135596" y2="252.54237288135596" /><text  class="poloto_tick_labels poloto_text" dominant-baseline="middle" text-anchor="end" x="135" y="252.54237288135596" >5.25</text><line  class="poloto_axis_lines" stroke="black" x1="150" x2="144" y1="241.94915254237287" y2="241.94915254237287" /><line  class="poloto_tick_line" stroke="black" x1="150" x2="650" y1="241.94915254237287" y2="241.94915254237287" /><text  class="poloto_tick_labels poloto_text" dominant-baseline="middle" text-anchor="end" x="135" y="241.94915254237287" >5.375</text><line  class="poloto_axis_lines" stroke="black" x1="150" x2="144" y1="231.35593220338984" y2="231.35593220338984" /><line  class="poloto_tick_line" stroke="black" x1="150" x2="650" y1="231.35593220338984" y2="231.35593220338984" /><text  class="poloto_tick_labels poloto_text" dominant-baseline="middle" text-anchor="end" x="135" y="231.35593220338984" >5.5</text><line  class="poloto_axis_lines" stroke="black" x1="150" x2="144" y1="220.7627118644068" y2="220.7627118644068" /><line  class="poloto_tick_line" stroke="black" x1="150" x2="650" y1="220.7627118644068" y2="220.7627118644068" /><text  class="poloto_tick_labels poloto_text" dominant-baseline="middle" text-anchor="end" x="135" y="220.7627118644068" >5.625</text><line  class="poloto_axis_lines" stroke="black" x1="150" x2="144" y1="210.16949152542372" y2="210.16949152542372" /><line  class="poloto_tick_line" stroke="black" x1="150" x2="650" y1="210.16949152542372" y2="210.16949152542372" /><text  class="poloto_tick_labels poloto_text" dominant-baseline="middle" text-anchor="end" x="135" y="210.16949152542372" >5.75</text><line  class="poloto_axis_lines" stroke="black" x1="150" x2="144" y1="199.5762711864407" y2="199.5762711864407" /><line  class="poloto_tick_line" stroke="black" x1="150" x2="650" y1="199.5762711864407" y2="199.5762711864407" /><text  class="poloto_tick_labels poloto_text" dominant-baseline="middle" text-anchor="end" x="135" y="199.5762711864407" >5.875</text><line  class="poloto_axis_lines" stroke="black" x1="150" x2="144" y1="188.98305084745766" y2="188.98305084745766" /><line  class="poloto_tick_line" stroke="black" x1="150" x2="650" y1="188.98305084745766" y2="188.98305084745766" /><text  class="poloto_tick_labels poloto_text" dominant-baseline="middle" text-anchor="end" x="135" y="188.98305084745766" >6</text><line  class="poloto_axis_lines" stroke="black" x1="150" x2="144" y1="178.38983050847457" y2="178.38983050847457" /><line  class="poloto_tick_line" stroke="black" x1="150" x2="650" y1="178.38983050847457" y2="178.38983050847457" /><text  class="poloto_tick_labels poloto_text" dominant-baseline="middle" text-anchor="end" x="135" y="178.38983050847457" >6.125</text><line  class="poloto_axis_lines" stroke="black" x1="150" x2="144" y1="167.7966101694915" y2="167.7966101694915" /><line  class="poloto_tick_line" stroke="black" x1="150" x2="650" y1="167.7966101694915" y2="167.7966101694915" /><text  class="poloto_tick_labels poloto_text" dominant-baseline="middle" text-anchor="end" x="135" y="167.7966101694915" >6.25</text><line  class="poloto_axis_lines" stroke="black" x1="150" x2="144" y1="157.2033898305085" y2="157.2033898305085" /><line  class="poloto_tick_line" stroke="black" x1="150" x2="650" y1="157.2033898305085" y2="157.2033898305085" /><text  class="poloto_tick_labels poloto_text" dominant-baseline="middle" text-anchor="end" x="135" y="157.2033898305085" >6.375</text><line  class="poloto_axis_lines" stroke="black" x1="150" x2="144" y1="146.61016949152543" y2="146.61016949152543" /><line  class="poloto_tick_line" stroke="black" x1="150" x2="650" y1="146.61016949152543" y2="146.61016949152543" /><text  class="poloto_tick_labels poloto_text" dominant-baseline="middle" text-anchor="end" x="135" y="146.61016949152543" >6.5</text><line  class="poloto_axis_lines" stroke="black" x1="150" x2="144" y1="136.01694915254234" y2="136.01694915254234" /><line  class="poloto_tick_line" stroke="black" x1="150" x2="650" y1="136.01694915254234" y2="136.01694915254234" /><text  class="poloto_tick_labels poloto_text" dominant-baseline="middle" text-anchor="end" x="135" y="136.01694915254234" >6.625</text><line  class="poloto_axis_lines" stroke="black" x1="150" x2="144" y1="125.42372881355936" y2="125.42372881355936" /><line  class="poloto_tick_line" stroke="black" x1="150" x2="650" y1="125.42372881355936" y2="125.42372881355936" /><text  class="poloto_tick_labels poloto_text" dominant-baseline="middle" text-anchor="end" x="135" y="125.42372881355936" >6.75</text><line  class="poloto_axis_lines" stroke="black" x1="150" x2="144" y1="114.83050847457628" y2="114.83050847457628" /><line  class="poloto_tick_line" stroke="black" x1="150" x2="650" y1="114.83050847457628" y2="114.83050847457628" /><text  class="poloto_tick_labels poloto_text" dominant-baseline="middle" text-anchor="end" x="135" y="114.83050847457628" >6.875</text><line  class="poloto_axis_lines" stroke="black" x1="150" x2="144" y1="104.23728813559319" y2="104.23728813559319" /><line  class="poloto_tick_line" stroke="black" x1="150" x2="650" y1="104.23728813559319" y2="104.23728813559319" /><text  class="poloto_tick_labels poloto_text" dominant-baseline="middle" text-anchor="end" x="135" y="104.23728813559319" >7</text><text  class="poloto_tick_labels poloto_text" dominant-baseline="middle" text-anchor="start" x="440.00000000000006" y="70" >¹2022-05-01 00:00:00 UTC in Months</text><line  class="poloto_axis_lines" stroke="black" x1="218.59756097560967" x2="218.59756097560967" y1="400" y2="405" /><line  class="poloto_tick_line" stroke="black" x1="218.59756097560967" x2="218.59756097560967" y1="400" y2="100" /><text  class="poloto_tick_labels poloto_text" dominant-baseline="start" text-anchor="middle" x="218.59756097560967" y="430" >2022 May¹</text><line  class="poloto_axis_lines" stroke="black" x1="311.585365853658" x2="311.585365853658" y1="400" y2="405" /><line  class="poloto_tick_line" stroke="black" x1="311.585365853658" x2="311.585365853658" y1="400" y2="100" /><text  class="poloto_tick_labels poloto_text" dominant-baseline="start" text-anchor="middle" x="311.585365853658" y="430" >2022 Jul</text><line  class="poloto_axis_lines" stroke="black" x1="406.09756097560967" x2="406.09756097560967" y1="400" y2="405" /><line  class="poloto_tick_line" stroke="black" x1="406.09756097560967" x2="406.09756097560967" y1="400" y2="100" /><text  class="poloto_tick_labels poloto_text" dominant-baseline="start" text-anchor="middle" x="406.09756097560967" y="430" >2022 Sep</text><line  class="poloto_axis_lines" stroke="black" x1="499.085365853658" x2="499.085365853658" y1="400" y2="405" /><line  class="poloto_tick_line" stroke="black" x1="499.085365853658" x2="499.085365853658" y1="400" y2="100" /><text  class="poloto_tick_labels poloto_text" dominant-baseline="start" text-anchor="middle" x="499.085365853658" y="430" >2022 Nov</text><line  class="poloto_axis_lines" stroke="black" x1="592.0731707317063" x2="592.0731707317063" y1="400" y2="405" /><line  class="poloto_tick_line" stroke="black" x1="592.0731707317063" x2="592.0731707317063" y1="400" y2="100" /><text  class="poloto_tick_labels poloto_text" dominant-baseline="start" text-anchor="middle" x="592.0731707317063" y="430" >2023 Jan</text><path  stroke="black" fill="none" class="poloto_axis_lines" d=" M 150 400 L 650 400" /><path  stroke="black" fill="none" class="poloto_axis_lines" d=" M 150 400 L 150 100" /></svg>