<svg class="poloto" width="800" height="500" viewBox="0 0 800 500" xmlns="http://www.w3.org/2000/svg"><style>.poloto{stroke-linecap:round;stroke-linejoin:round;font-family:Roboto,sans-serif;font-size:16px;}.poloto_background{fill:#262626;}.poloto_scatter{stroke-width:7}.poloto_tick_line{stroke:dimgray;stroke-width:0.5}.poloto_line{stroke-width:2}.poloto_text{fill: white;}.poloto_axis_lines{stroke: white;stroke-width:3;fill:none;stroke-dasharray:none}.poloto_title{font-size:24px;dominant-baseline:start;text-anchor:middle;}.poloto_xname{font-size:24px;dominant-baseline:start;text-anchor:middle;}.poloto_yname{font-size:24px;dominant-baseline:start;text-anchor:middle;}.poloto0stroke{stroke:blue;}.poloto1stroke{stroke:red;}.poloto2stroke{stroke:green;}.poloto3stroke{stroke:gold;}.poloto4stroke{stroke:aqua;}.poloto5stroke{stroke:lime;}.poloto6stroke{stroke:orange;}.poloto7stroke{stroke:chocolate;}.poloto0fill{fill:blue;}.poloto1fill{fill:red;}.poloto2fill{fill:green;}.poloto3fill{fill:gold;}.poloto4fill{fill:aqua;}.poloto5fill{fill:lime;}.poloto6fill{fill:orange;}.poloto7fill{fill:chocolate;}</style><circle  r="1e5" class="poloto_background" /><text  class="poloto_text poloto_legend_text" x="675" y="100" >30 years</text><line  class="poloto_line poloto_legend_icon poloto0stroke poloto0legend" stroke="black" x1="680" x2="730" y1="81.25" y2="81.25" /><path  class="poloto_line poloto0stroke" fill="none" stroke="black" d=" M 150.00 212.50 L 165.15 231.25 L 210.61 212.50 L 225.76 193.75 L 240.91 193.75 L 240.91 193.75 L 271.21 156.25 L 316.67 156.25 L 331.82 175.00 L 346.97 193.75 L 362.12 212.50 L 377.27 175.00 L 422.73 193.75 L 437.88 175.00 L 453.03 156.25 L 468.18 137.50 L 483.33 137.50 L 528.79 137.50 L 543.94 156.25 L 559.09 156.25 L 574.24 156.25 L 589.39 118.75 L 650.00 101.50" /><text  class="poloto_text poloto_legend_text" x="675" y="150" >20 years</text><line  class="poloto_line poloto_legend_icon poloto1stroke poloto1legend" stroke="black" x1="680" x2="730" y1="131.25" y2="131.25" /><path  class="poloto_line poloto1stroke" fill="none" stroke="black" d=" M 150.00 212.50 L 165.15 231.25 L 210.61 193.75 L 225.76 175.00 L 240.91 175.00 L 240.91 175.00 L 271.21 156.25 L 316.67 137.50 L 331.82 156.25 L 346.97 175.00 L 362.12 193.75 L 377.27 156.25 L 422.73 193.75 L 437.88 156.25 L 453.03 156.25 L 468.18 156.25 L 483.33 101.50 L 528.79 100.00 L 543.94 118.75 L 559.09 156.25 L 574.24 175.00 L 589.39 156.25 L 650.00 118.75" /><text  class="poloto_text poloto_legend_text" x="675" y="200" >15 years</text><line  class="poloto_line poloto_legend_icon poloto2stroke poloto2legend" stroke="black" x1="680" x2="730" y1="181.25" y2="181.25" /><path  class="poloto_line poloto2stroke" fill="none" stroke="black" d=" M 150.00 306.25 L 165.15 306.25 L 210.61 306.25 L 225.76 268.75 L 240.91 268.75 L 240.91 268.75 L 271.21 251.50 L 316.67 268.75 L 331.82 268.75 L 346.97 287.50 L 362.12 287.50 L 377.27 268.75 L 422.73 287.50 L 437.88 268.75 L 453.03 250.00 L 468.18 251.50 L 483.33 250.00 L 528.79 251.50 L 543.94 250.00 L 559.09 251.50 L 574.24 250.00 L 589.39 212.50 L 650.00 212.50" /><text  class="poloto_labels poloto_text poloto_title" x="400" y="37.5" >lower.com purchase rates</text><text  class="poloto_labels poloto_text poloto_xname" x="400" y="481.25" >Date</text><text  class="poloto_labels poloto_text poloto_yname" transform="rotate(-90,37.5,250)" x="37.5" y="250" >Rate (%)</text><text  class="poloto_tick_labels poloto_text" dominant-baseline="middle" text-anchor="start" x="150" y="70" ></text><line  class="poloto_axis_lines" stroke="black" x1="150" x2="144" y1="400" y2="400" /><line  class="poloto_tick_line" stroke="black" x1="150" x2="650" y1="400" y2="400" /><text  class="poloto_tick_labels poloto_text" dominant-baseline="middle" text-anchor="end" x="135" y="400" >3</text><line  class="poloto_axis_lines" stroke="black" x1="150" x2="144" y1="362.5" y2="362.5" /><line  class="poloto_tick_line" stroke="black" x1="150" x2="650" y1="362.5" y2="362.5" /><text  class="poloto_tick_labels poloto_text" dominant-baseline="middle" text-anchor="end" x="135" y="362.5" >3.25</text><line  class="poloto_axis_lines" stroke="black" x1="150" x2="144" y1="325" y2="325" /><line  class="poloto_tick_line" stroke="black" x1="150" x2="650" y1="325" y2="325" /><text  class="poloto_tick_labels poloto_text" dominant-baseline="middle" text-anchor="end" x="135" y="325" >3.5</text><line  class="poloto_axis_lines" stroke="black" x1="150" x2="144" y1="287.5" y2="287.5" /><line  class="poloto_tick_line" stroke="black" x1="150" x2="650" y1="287.5" y2="287.5" /><text  class="poloto_tick_labels poloto_text" dominant-baseline="middle" text-anchor="end" x="135" y="287.5" >3.75</text><line  class="poloto_axis_lines" stroke="black" x1="150" x2="144" y1="250" y2="250" /><line  class="poloto_tick_line" stroke="black" x1="150" x2="650" y1="250" y2="250" /><text  class="poloto_tick_labels poloto_text" dominant-baseline="middle" text-anchor="end" x="135" y="250" >4</text><line  class="poloto_axis_lines" stroke="black" x1="150" x2="144" y1="212.5" y2="212.5" /><line  class="poloto_tick_line" stroke="black" x1="150" x2="650" y1="212.5" y2="212.5" /><text  class="poloto_tick_labels poloto_text" dominant-baseline="middle" text-anchor="end" x="135" y="212.5" >4.25</text><line  class="poloto_axis_lines" stroke="black" x1="150" x2="144" y1="175" y2="175" /><line  class="poloto_tick_line" stroke="black" x1="150" x2="650" y1="175" y2="175" /><text  class="poloto_tick_labels poloto_text" dominant-baseline="middle" text-anchor="end" x="135" y="175" >4.5</text><line  class="poloto_axis_lines" stroke="black" x1="150" x2="144" y1="137.5" y2="137.5" /><line  class="poloto_tick_line" stroke="black" x1="150" x2="650" y1="137.5" y2="137.5" /><text  class="poloto_tick_labels poloto_text" dominant-baseline="middle" text-anchor="end" x="135" y="137.5" >4.75</text><line  class="poloto_axis_lines" stroke="black" x1="150" x2="144" y1="100" y2="100" /><line  class="poloto_tick_line" stroke="black" x1="150" x2="650" y1="100" y2="100" /><text  class="poloto_tick_labels poloto_text" dominant-baseline="middle" text-anchor="end" x="135" y="100" >5</text><text  class="poloto_tick_labels poloto_text" dominant-baseline="middle" text-anchor="start" x="440.00000000000006" y="70" >ยน2022-03-21 00:00:00 UTC in Days</text><line  class="poloto_axis_lines" stroke="black" x1="210.60606060607824" x2="210.60606060607824" y1="400" y2="405" /><line  class="poloto_tick_line" stroke="black" x1="210.60606060607824" x2="210.60606060607824" y1="400" y2="100" /><text  class="poloto_tick_labels poloto_text" dominant-baseline="start" text-anchor="middle" x="210.60606060607824" y="430" >Mar 21ยน</text><line  class="poloto_axis_lines" stroke="black" x1="286.36363636364695" x2="286.36363636364695" y1="400" y2="405" /><line  class="poloto_tick_line" stroke="black" x1="286.36363636364695" x2="286.36363636364695" y1="400" y2="100" /><text  class="poloto_tick_labels poloto_text" dominant-baseline="start" text-anchor="middle" x="286.36363636364695" y="430" >Mar 26</text><line  class="poloto_axis_lines" stroke="black" x1="362.12121212121565" x2="362.12121212121565" y1="400" y2="405" /><line  class="poloto_tick_line" stroke="black" x1="362.12121212121565" x2="362.12121212121565" y1="400" y2="100" /><text  class="poloto_tick_labels poloto_text" dominant-baseline="start" text-anchor="middle" x="362.12121212121565" y="430" >Mar 31</text><line  class="poloto_axis_lines" stroke="black" x1="437.87878787878435" x2="437.87878787878435" y1="400" y2="405" /><line  class="poloto_tick_line" stroke="black" x1="437.87878787878435" x2="437.87878787878435" y1="400" y2="100" /><text  class="poloto_tick_labels poloto_text" dominant-baseline="start" text-anchor="middle" x="437.87878787878435" y="430" >Apr 05</text><line  class="poloto_axis_lines" stroke="black" x1="513.636363636353" x2="513.636363636353" y1="400" y2="405" /><line  class="poloto_tick_line" stroke="black" x1="513.636363636353" x2="513.636363636353" y1="400" y2="100" /><text  class="poloto_tick_labels poloto_text" dominant-baseline="start" text-anchor="middle" x="513.636363636353" y="430" >Apr 10</text><line  class="poloto_axis_lines" stroke="black" x1="589.3939393939218" x2="589.3939393939218" y1="400" y2="405" /><line  class="poloto_tick_line" stroke="black" x1="589.3939393939218" x2="589.3939393939218" y1="400" y2="100" /><text  class="poloto_tick_labels poloto_text" dominant-baseline="start" text-anchor="middle" x="589.3939393939218" y="430" >Apr 15</text><path  stroke="black" fill="none" class="poloto_axis_lines" d=" M 150 400 L 650 400" /><path  stroke="black" fill="none" class="poloto_axis_lines" d=" M 150 400 L 150 100" /></svg>