<svg class="poloto" width="800" height="500" viewBox="0 0 800 500" xmlns="http://www.w3.org/2000/svg"><style>.poloto{stroke-linecap:round;stroke-linejoin:round;font-family:Roboto,sans-serif;font-size:16px;}.poloto_background{fill:#262626;}.poloto_scatter{stroke-width:7}.poloto_tick_line{stroke:dimgray;stroke-width:0.5}.poloto_line{stroke-width:2}.poloto_text{fill: white;}.poloto_axis_lines{stroke: white;stroke-width:3;fill:none;stroke-dasharray:none}.poloto_title{font-size:24px;dominant-baseline:start;text-anchor:middle;}.poloto_xname{font-size:24px;dominant-baseline:start;text-anchor:middle;}.poloto_yname{font-size:24px;dominant-baseline:start;text-anchor:middle;}.poloto0stroke{stroke:blue;}.poloto1stroke{stroke:red;}.poloto2stroke{stroke:green;}.poloto3stroke{stroke:gold;}.poloto4stroke{stroke:aqua;}.poloto5stroke{stroke:lime;}.poloto6stroke{stroke:orange;}.poloto7stroke{stroke:chocolate;}.poloto0fill{fill:blue;}.poloto1fill{fill:red;}.poloto2fill{fill:green;}.poloto3fill{fill:gold;}.poloto4fill{fill:aqua;}.poloto5fill{fill:lime;}.poloto6fill{fill:orange;}.poloto7fill{fill:chocolate;}</style><circle  r="1e5" class="poloto_background" /><text  class="poloto_text poloto_legend_text" x="675" y="100" >Refinance 15</text><line  class="poloto_line poloto_legend_icon poloto0stroke poloto0legend" stroke="black" x1="680" x2="730" y1="81.25" y2="81.25" /><path  class="poloto_line poloto0stroke" fill="none" stroke="black" d=" M 150.00 392.46 L 151.55 400.00 L 156.21 389.32 L 157.76 380.17 L 159.32 389.32 L 159.32 389.32 L 162.42 358.81 L 167.08 357.20 L 168.63 367.88 L 170.19 344.83 L 171.74 346.44 L 173.29 341.61 L 177.95 343.22 L 179.50 336.78 L 179.50 336.78 L 182.61 337.37 L 184.16 314.32 L 188.82 324.32 L 190.37 327.54 L 191.93 327.54 L 193.48 326.69 L 195.03 321.78 L 201.24 278.73 L 202.80 297.88 L 204.35 283.05 L 205.90 277.29 L 205.90 277.29 L 212.11 299.58 L 215.22 303.64 L 216.77 294.58 L 221.43 283.81 L 222.98 305.25 L 224.53 294.58 L 224.53 294.58 L 227.64 292.88 L 232.30 296.19 L 233.85 306.86 L 233.85 306.86 L 235.40 297.80 L 236.96 308.56 L 238.51 292.88 L 243.17 325.08 L 244.72 324.32 L 246.27 306.86 L 246.27 306.86 L 247.83 314.32 L 249.38 317.63 L 254.04 317.63 L 255.59 329.15 L 257.14 329.15 L 258.70 329.15 L 260.25 329.15 L 266.46 317.63 L 268.01 314.32 L 269.57 315.93 L 271.12 315.93 L 271.12 315.93 L 277.33 305.25 L 278.88 305.25 L 280.43 296.19 L 286.65 281.36 L 288.20 250.76 L 289.75 254.15 L 291.30 254.15 L 292.86 275.59 L 297.52 254.15 L 299.07 254.15 L 300.62 273.90 L 302.17 277.29 L 308.39 277.29 L 309.94 275.59 L 311.49 280.59 L 313.04 285.51 L 314.60 296.19 L 320.81 303.64 L 322.36 294.58 L 323.91 287.12 L 325.47 283.81 L 330.12 285.51 L 333.23 285.51 L 334.78 283.81 L 340.99 282.20 L 340.99 282.20 L 340.99 282.20 L 340.99 282.20 L 340.99 282.20 L 340.99 282.20 L 344.10 282.20 L 344.10 282.20 L 344.10 282.20 L 344.10 282.20 L 344.10 282.20 L 344.10 282.20 L 351.86 294.58 L 354.97 297.80 L 356.52 325.93 L 358.07 329.15 L 362.73 329.15 L 364.29 327.54 L 365.84 305.25 L 367.39 299.49 L 368.94 285.51 L 373.60 296.19 L 373.60 296.19 L 375.16 287.12 L 378.26 296.19 L 378.26 296.19 L 386.02 296.19 L 387.58 262.46 L 389.13 282.20 L 395.34 248.39 L 398.45 248.39 L 398.45 248.39 L 401.55 260.76 L 407.76 254.15 L 407.76 254.15 L 407.76 254.15 L 407.76 254.15 L 407.76 254.15 L 407.76 254.15 L 407.76 254.15 L 407.76 254.15 L 407.76 254.15 L 412.42 254.15 L 421.74 232.63 L 427.95 235.17 L 427.95 235.17 L 432.61 235.17 L 438.82 235.17 L 440.37 235.17 L 440.37 235.17 L 440.37 235.17 L 440.37 235.17 L 440.37 235.17 L 460.56 235.17 L 462.11 235.17 L 471.43 139.75 L 472.98 130.68 L 474.53 130.68 L 530.43 159.15 L 536.65 159.15 L 538.20 159.15 L 539.75 175.51 L 542.86 184.49 L 542.86 184.49 L 549.07 184.49 L 550.62 184.49 L 552.17 184.49 L 553.73 184.49 L 558.39 184.49 L 559.94 184.49 L 563.04 184.49 L 564.60 184.49 L 569.25 184.49 L 570.81 184.49 L 570.81 184.49 L 575.47 184.49 L 580.12 184.49 L 581.68 184.49 L 583.23 184.49 L 584.78 184.49 L 586.34 184.49 L 592.55 209.15 L 594.10 180.68 L 595.65 159.15 L 597.20 169.92 L 601.86 169.92 L 603.42 169.92 L 603.42 169.92 L 606.52 193.05 L 608.07 193.05 L 612.73 193.05 L 614.29 193.05 L 615.84 193.05 L 617.39 193.05 L 618.94 193.05 L 618.94 193.05 L 618.94 193.05 L 618.94 193.05 L 626.71 193.05 L 629.81 193.05 L 634.47 193.05 L 636.02 193.05 L 639.13 193.05 L 640.68 193.05 L 646.89 193.05 L 648.45 193.05 L 650.00 193.05" /><text  class="poloto_text poloto_legend_text" x="675" y="150" >Refinance 20</text><line  class="poloto_line poloto_legend_icon poloto1stroke poloto1legend" stroke="black" x1="680" x2="730" y1="131.25" y2="131.25" /><path  class="poloto_line poloto1stroke" fill="none" stroke="black" d=" M 150.00 345.68 L 151.55 368.31 L 156.21 334.58 L 157.76 324.24 L 159.32 333.73 L 159.32 333.73 L 162.42 304.07 L 167.08 301.53 L 168.63 312.29 L 170.19 300.25 L 171.74 311.02 L 173.29 290.85 L 177.95 321.69 L 179.50 290.85 L 179.50 290.85 L 182.61 290.85 L 182.61 290.85 L 188.82 250.17 L 190.37 282.71 L 191.93 290.85 L 193.48 301.53 L 195.03 280.59 L 201.24 260.00 L 202.80 257.37 L 204.35 252.12 L 205.90 240.08 L 210.56 245.34 L 212.11 268.14 L 215.22 260.00 L 216.77 257.37 L 221.43 248.81 L 222.98 258.73 L 224.53 258.73 L 224.53 258.73 L 227.64 258.73 L 232.30 260.00 L 233.85 281.44 L 233.85 281.44 L 235.40 269.41 L 236.96 289.58 L 238.51 281.44 L 243.17 282.71 L 244.72 281.44 L 246.27 281.44 L 246.27 281.44 L 247.83 282.71 L 249.38 289.58 L 254.04 290.85 L 255.59 294.66 L 257.14 294.66 L 258.70 294.66 L 260.25 294.66 L 266.46 289.58 L 268.01 278.81 L 269.57 281.44 L 271.12 281.44 L 271.12 281.44 L 277.33 268.14 L 278.88 270.68 L 280.43 261.27 L 286.65 215.85 L 288.20 197.03 L 289.75 207.80 L 291.30 215.85 L 292.86 238.56 L 297.52 225.17 L 299.07 218.47 L 300.62 239.92 L 302.17 250.17 L 308.39 250.17 L 309.94 238.56 L 311.49 249.32 L 313.04 260.00 L 314.60 272.03 L 320.81 280.08 L 322.36 269.41 L 323.91 258.73 L 325.47 251.44 L 330.12 257.37 L 333.23 260.00 L 334.78 258.73 L 340.99 260.00 L 340.99 260.00 L 340.99 260.00 L 340.99 260.00 L 340.99 260.00 L 340.99 260.00 L 340.99 260.00 L 340.99 260.00 L 340.99 260.00 L 340.99 260.00 L 340.99 260.00 L 340.99 260.00 L 351.86 280.08 L 354.97 282.71 L 356.52 301.53 L 358.07 304.07 L 362.73 301.27 L 364.29 301.27 L 365.84 290.85 L 367.39 294.66 L 368.94 278.81 L 373.60 270.68 L 373.60 270.68 L 375.16 270.68 L 378.26 281.44 L 378.26 281.44 L 386.02 278.81 L 387.58 260.00 L 389.13 260.00 L 395.34 246.19 L 398.45 234.58 L 398.45 234.58 L 401.55 247.54 L 407.76 215.85 L 407.76 215.85 L 407.76 215.85 L 407.76 215.85 L 407.76 215.85 L 407.76 215.85 L 407.76 215.85 L 407.76 215.85 L 407.76 215.85 L 412.42 215.85 L 421.74 202.37 L 427.95 203.73 L 431.06 203.73 L 432.61 203.73 L 432.61 203.73 L 440.37 203.73 L 441.93 203.73 L 441.93 203.73 L 441.93 203.73 L 441.93 203.73 L 460.56 203.73 L 462.11 203.73 L 471.43 118.81 L 472.98 102.97 L 472.98 102.97 L 533.54 155.34 L 536.65 155.34 L 538.20 155.34 L 541.30 174.15 L 542.86 175.51 L 542.86 175.51 L 549.07 175.51 L 550.62 175.51 L 552.17 175.51 L 553.73 175.51 L 558.39 175.51 L 559.94 175.51 L 563.04 175.51 L 564.60 175.51 L 569.25 175.51 L 570.81 175.51 L 570.81 175.51 L 575.47 175.51 L 580.12 175.51 L 581.68 175.51 L 583.23 175.51 L 584.78 175.51 L 586.34 175.51 L 592.55 156.36 L 594.10 145.93 L 595.65 144.58 L 597.20 147.37 L 601.86 147.37 L 603.42 147.37 L 603.42 147.37 L 606.52 167.46 L 608.07 167.46 L 612.73 167.46 L 614.29 167.46 L 615.84 167.46 L 617.39 167.46 L 618.94 167.46 L 618.94 167.46 L 625.16 167.46 L 625.16 167.46 L 626.71 167.46 L 629.81 167.46 L 634.47 167.46 L 636.02 167.46 L 639.13 167.46 L 640.68 167.46 L 646.89 167.46 L 648.45 167.46 L 650.00 167.46" /><text  class="poloto_text poloto_legend_text" x="675" y="200" >Refinance 30</text><line  class="poloto_line poloto_legend_icon poloto2stroke poloto2legend" stroke="black" x1="680" x2="730" y1="181.25" y2="181.25" /><path  class="poloto_line poloto2stroke" fill="none" stroke="black" d=" M 150.00 343.31 L 151.55 351.36 L 156.21 338.81 L 157.76 328.98 L 159.32 330.85 L 159.32 330.85 L 162.42 310.25 L 167.08 308.47 L 168.63 319.15 L 170.19 307.54 L 171.74 318.22 L 173.29 297.71 L 177.95 307.54 L 179.50 286.95 L 181.06 286.95 L 182.61 286.02 L 184.16 260.00 L 188.82 264.58 L 190.37 276.27 L 191.93 286.95 L 193.48 277.20 L 195.03 265.51 L 201.24 256.61 L 202.80 242.12 L 204.35 240.17 L 205.90 238.14 L 210.56 242.12 L 212.11 258.73 L 215.22 256.61 L 216.77 254.66 L 221.43 244.07 L 222.98 255.59 L 224.53 244.07 L 224.53 244.07 L 227.64 244.07 L 232.30 246.02 L 233.85 264.58 L 233.85 264.58 L 235.40 255.59 L 236.96 256.61 L 238.51 257.54 L 243.17 265.51 L 244.72 256.61 L 246.27 256.61 L 246.27 256.61 L 247.83 266.44 L 249.38 267.46 L 254.04 268.39 L 255.59 277.20 L 257.14 277.20 L 258.70 279.07 L 260.25 279.07 L 266.46 275.25 L 268.01 264.58 L 269.57 266.44 L 271.12 265.51 L 271.12 265.51 L 277.33 255.59 L 278.88 255.59 L 280.43 245.00 L 286.65 202.12 L 288.20 171.78 L 289.75 190.34 L 291.30 202.12 L 292.86 212.80 L 297.52 203.05 L 299.07 202.12 L 300.62 221.61 L 302.17 223.56 L 308.39 223.56 L 309.94 211.86 L 311.49 221.61 L 313.04 232.29 L 314.60 255.59 L 320.81 256.61 L 322.36 245.00 L 323.91 224.58 L 325.47 221.61 L 330.12 241.10 L 333.23 223.56 L 334.78 222.54 L 340.99 242.12 L 340.99 242.12 L 340.99 242.12 L 340.99 242.12 L 340.99 242.12 L 340.99 242.12 L 344.10 242.12 L 344.10 242.12 L 344.10 242.12 L 344.10 242.12 L 344.10 242.12 L 344.10 242.12 L 351.86 254.66 L 354.97 256.61 L 356.52 275.25 L 358.07 287.88 L 362.73 286.95 L 364.29 286.95 L 365.84 265.51 L 367.39 268.39 L 368.94 254.66 L 373.60 265.51 L 373.60 265.51 L 375.16 257.54 L 378.26 266.44 L 378.26 266.44 L 386.02 264.58 L 387.58 246.02 L 389.13 245.00 L 395.34 220.59 L 398.45 211.86 L 398.45 211.86 L 401.55 222.54 L 407.76 210.85 L 407.76 210.85 L 407.76 210.85 L 407.76 210.85 L 407.76 210.85 L 407.76 210.85 L 407.76 210.85 L 407.76 210.85 L 412.42 210.85 L 412.42 209.83 L 421.74 197.03 L 427.95 175.51 L 427.95 175.51 L 432.61 175.51 L 432.61 175.51 L 440.37 175.51 L 441.93 175.51 L 441.93 175.51 L 441.93 175.51 L 441.93 175.51 L 460.56 175.51 L 462.11 175.51 L 471.43 127.03 L 472.98 100.00 L 472.98 100.00 L 533.54 146.44 L 536.65 146.44 L 538.20 146.44 L 539.75 150.76 L 542.86 160.59 L 542.86 160.59 L 549.07 160.59 L 550.62 160.59 L 552.17 160.59 L 553.73 160.59 L 558.39 160.59 L 559.94 160.59 L 563.04 160.59 L 564.60 160.59 L 569.25 160.59 L 570.81 160.59 L 570.81 160.59 L 575.47 160.59 L 580.12 160.59 L 581.68 160.59 L 583.23 160.59 L 584.78 160.59 L 586.34 160.59 L 592.55 144.24 L 594.10 152.88 L 595.65 132.37 L 597.20 152.88 L 601.86 152.88 L 603.42 152.88 L 603.42 152.88 L 606.52 152.88 L 608.07 152.88 L 612.73 152.88 L 614.29 152.88 L 615.84 152.88 L 617.39 152.88 L 618.94 152.88 L 618.94 152.88 L 625.16 152.88 L 625.16 152.88 L 626.71 152.88 L 629.81 152.88 L 634.47 152.88 L 636.02 152.88 L 639.13 152.88 L 640.68 152.88 L 646.89 152.88 L 648.45 152.88 L 650.00 152.88" /><text  class="poloto_labels poloto_text poloto_title" x="400" y="37.5" >lower.com purchase rates</text><text  class="poloto_labels poloto_text poloto_xname" x="400" y="481.25" >Date</text><text  class="poloto_labels poloto_text poloto_yname" transform="rotate(-90,37.5,250)" x="37.5" y="250" >Rate (%)</text><text  class="poloto_tick_labels poloto_text" dominant-baseline="middle" text-anchor="start" x="150" y="70" ></text><line  class="poloto_axis_lines" stroke="black" x1="150" x2="144" y1="390.2542372881356" y2="390.2542372881356" /><line  class="poloto_tick_line" stroke="black" x1="150" x2="650" y1="390.2542372881356" y2="390.2542372881356" /><text  class="poloto_tick_labels poloto_text" dominant-baseline="middle" text-anchor="end" x="135" y="390.2542372881356" >3.625</text><line  class="poloto_axis_lines" stroke="black" x1="150" x2="144" y1="379.66101694915255" y2="379.66101694915255" /><line  class="poloto_tick_line" stroke="black" x1="150" x2="650" y1="379.66101694915255" y2="379.66101694915255" /><text  class="poloto_tick_labels poloto_text" dominant-baseline="middle" text-anchor="end" x="135" y="379.66101694915255" >3.75</text><line  class="poloto_axis_lines" stroke="black" x1="150" x2="144" y1="369.06779661016947" y2="369.06779661016947" /><line  class="poloto_tick_line" stroke="black" x1="150" x2="650" y1="369.06779661016947" y2="369.06779661016947" /><text  class="poloto_tick_labels poloto_text" dominant-baseline="middle" text-anchor="end" x="135" y="369.06779661016947" >3.875</text><line  class="poloto_axis_lines" stroke="black" x1="150" x2="144" y1="358.47457627118644" y2="358.47457627118644" /><line  class="poloto_tick_line" stroke="black" x1="150" x2="650" y1="358.47457627118644" y2="358.47457627118644" /><text  class="poloto_tick_labels poloto_text" dominant-baseline="middle" text-anchor="end" x="135" y="358.47457627118644" >4</text><line  class="poloto_axis_lines" stroke="black" x1="150" x2="144" y1="347.8813559322034" y2="347.8813559322034" /><line  class="poloto_tick_line" stroke="black" x1="150" x2="650" y1="347.8813559322034" y2="347.8813559322034" /><text  class="poloto_tick_labels poloto_text" dominant-baseline="middle" text-anchor="end" x="135" y="347.8813559322034" >4.125</text><line  class="poloto_axis_lines" stroke="black" x1="150" x2="144" y1="337.2881355932203" y2="337.2881355932203" /><line  class="poloto_tick_line" stroke="black" x1="150" x2="650" y1="337.2881355932203" y2="337.2881355932203" /><text  class="poloto_tick_labels poloto_text" dominant-baseline="middle" text-anchor="end" x="135" y="337.2881355932203" >4.25</text><line  class="poloto_axis_lines" stroke="black" x1="150" x2="144" y1="326.6949152542373" y2="326.6949152542373" /><line  class="poloto_tick_line" stroke="black" x1="150" x2="650" y1="326.6949152542373" y2="326.6949152542373" /><text  class="poloto_tick_labels poloto_text" dominant-baseline="middle" text-anchor="end" x="135" y="326.6949152542373" >4.375</text><line  class="poloto_axis_lines" stroke="black" x1="150" x2="144" y1="316.10169491525426" y2="316.10169491525426" /><line  class="poloto_tick_line" stroke="black" x1="150" x2="650" y1="316.10169491525426" y2="316.10169491525426" /><text  class="poloto_tick_labels poloto_text" dominant-baseline="middle" text-anchor="end" x="135" y="316.10169491525426" >4.5</text><line  class="poloto_axis_lines" stroke="black" x1="150" x2="144" y1="305.50847457627117" y2="305.50847457627117" /><line  class="poloto_tick_line" stroke="black" x1="150" x2="650" y1="305.50847457627117" y2="305.50847457627117" /><text  class="poloto_tick_labels poloto_text" dominant-baseline="middle" text-anchor="end" x="135" y="305.50847457627117" >4.625</text><line  class="poloto_axis_lines" stroke="black" x1="150" x2="144" y1="294.91525423728814" y2="294.91525423728814" /><line  class="poloto_tick_line" stroke="black" x1="150" x2="650" y1="294.91525423728814" y2="294.91525423728814" /><text  class="poloto_tick_labels poloto_text" dominant-baseline="middle" text-anchor="end" x="135" y="294.91525423728814" >4.75</text><line  class="poloto_axis_lines" stroke="black" x1="150" x2="144" y1="284.3220338983051" y2="284.3220338983051" /><line  class="poloto_tick_line" stroke="black" x1="150" x2="650" y1="284.3220338983051" y2="284.3220338983051" /><text  class="poloto_tick_labels poloto_text" dominant-baseline="middle" text-anchor="end" x="135" y="284.3220338983051" >4.875</text><line  class="poloto_axis_lines" stroke="black" x1="150" x2="144" y1="273.728813559322" y2="273.728813559322" /><line  class="poloto_tick_line" stroke="black" x1="150" x2="650" y1="273.728813559322" y2="273.728813559322" /><text  class="poloto_tick_labels poloto_text" dominant-baseline="middle" text-anchor="end" x="135" y="273.728813559322" >5</text><line  class="poloto_axis_lines" stroke="black" x1="150" x2="144" y1="263.135593220339" y2="263.135593220339" /><line  class="poloto_tick_line" stroke="black" x1="150" x2="650" y1="263.135593220339" y2="263.135593220339" /><text  class="poloto_tick_labels poloto_text" dominant-baseline="middle" text-anchor="end" x="135" y="263.135593220339" >5.125</text><line  class="poloto_axis_lines" stroke="black" x1="150" x2="144" y1="252.54237288135596" y2="252.54237288135596" /><line  class="poloto_tick_line" stroke="black" x1="150" x2="650" y1="252.54237288135596" y2="252.54237288135596" /><text  class="poloto_tick_labels poloto_text" dominant-baseline="middle" text-anchor="end" x="135" y="252.54237288135596" >5.25</text><line  class="poloto_axis_lines" stroke="black" x1="150" x2="144" y1="241.94915254237287" y2="241.94915254237287" /><line  class="poloto_tick_line" stroke="black" x1="150" x2="650" y1="241.94915254237287" y2="241.94915254237287" /><text  class="poloto_tick_labels poloto_text" dominant-baseline="middle" text-anchor="end" x="135" y="241.94915254237287" >5.375</text><line  class="poloto_axis_lines" stroke="black" x1="150" x2="144" y1="231.35593220338984" y2="231.35593220338984" /><line  class="poloto_tick_line" stroke="black" x1="150" x2="650" y1="231.35593220338984" y2="231.35593220338984" /><text  class="poloto_tick_labels poloto_text" dominant-baseline="middle" text-anchor="end" x="135" y="231.35593220338984" >5.5</text><line  class="poloto_axis_lines" stroke="black" x1="150" x2="144" y1="220.7627118644068" y2="220.7627118644068" /><line  class="poloto_tick_line" stroke="black" x1="150" x2="650" y1="220.7627118644068" y2="220.7627118644068" /><text  class="poloto_tick_labels poloto_text" dominant-baseline="middle" text-anchor="end" x="135" y="220.7627118644068" >5.625</text><line  class="poloto_axis_lines" stroke="black" x1="150" x2="144" y1="210.16949152542372" y2="210.16949152542372" /><line  class="poloto_tick_line" stroke="black" x1="150" x2="650" y1="210.16949152542372" y2="210.16949152542372" /><text  class="poloto_tick_labels poloto_text" dominant-baseline="middle" text-anchor="end" x="135" y="210.16949152542372" >5.75</text><line  class="poloto_axis_lines" stroke="black" x1="150" x2="144" y1="199.5762711864407" y2="199.5762711864407" /><line  class="poloto_tick_line" stroke="black" x1="150" x2="650" y1="199.5762711864407" y2="199.5762711864407" /><text  class="poloto_tick_labels poloto_text" dominant-baseline="middle" text-anchor="end" x="135" y="199.5762711864407" >5.875</text><line  class="poloto_axis_lines" stroke="black" x1="150" x2="144" y1="188.98305084745766" y2="188.98305084745766" /><line  class="poloto_tick_line" stroke="black" x1="150" x2="650" y1="188.98305084745766" y2="188.98305084745766" /><text  class="poloto_tick_labels poloto_text" dominant-baseline="middle" text-anchor="end" x="135" y="188.98305084745766" >6</text><line  class="poloto_axis_lines" stroke="black" x1="150" x2="144" y1="178.38983050847457" y2="178.38983050847457" /><line  class="poloto_tick_line" stroke="black" x1="150" x2="650" y1="178.38983050847457" y2="178.38983050847457" /><text  class="poloto_tick_labels poloto_text" dominant-baseline="middle" text-anchor="end" x="135" y="178.38983050847457" >6.125</text><line  class="poloto_axis_lines" stroke="black" x1="150" x2="144" y1="167.7966101694915" y2="167.7966101694915" /><line  class="poloto_tick_line" stroke="black" x1="150" x2="650" y1="167.7966101694915" y2="167.7966101694915" /><text  class="poloto_tick_labels poloto_text" dominant-baseline="middle" text-anchor="end" x="135" y="167.7966101694915" >6.25</text><line  class="poloto_axis_lines" stroke="black" x1="150" x2="144" y1="157.2033898305085" y2="157.2033898305085" /><line  class="poloto_tick_line" stroke="black" x1="150" x2="650" y1="157.2033898305085" y2="157.2033898305085" /><text  class="poloto_tick_labels poloto_text" dominant-baseline="middle" text-anchor="end" x="135" y="157.2033898305085" >6.375</text><line  class="poloto_axis_lines" stroke="black" x1="150" x2="144" y1="146.61016949152543" y2="146.61016949152543" /><line  class="poloto_tick_line" stroke="black" x1="150" x2="650" y1="146.61016949152543" y2="146.61016949152543" /><text  class="poloto_tick_labels poloto_text" dominant-baseline="middle" text-anchor="end" x="135" y="146.61016949152543" >6.5</text><line  class="poloto_axis_lines" stroke="black" x1="150" x2="144" y1="136.01694915254234" y2="136.01694915254234" /><line  class="poloto_tick_line" stroke="black" x1="150" x2="650" y1="136.01694915254234" y2="136.01694915254234" /><text  class="poloto_tick_labels poloto_text" dominant-baseline="middle" text-anchor="end" x="135" y="136.01694915254234" >6.625</text><line  class="poloto_axis_lines" stroke="black" x1="150" x2="144" y1="125.42372881355936" y2="125.42372881355936" /><line  class="poloto_tick_line" stroke="black" x1="150" x2="650" y1="125.42372881355936" y2="125.42372881355936" /><text  class="poloto_tick_labels poloto_text" dominant-baseline="middle" text-anchor="end" x="135" y="125.42372881355936" >6.75</text><line  class="poloto_axis_lines" stroke="black" x1="150" x2="144" y1="114.83050847457628" y2="114.83050847457628" /><line  class="poloto_tick_line" stroke="black" x1="150" x2="650" y1="114.83050847457628" y2="114.83050847457628" /><text  class="poloto_tick_labels poloto_text" dominant-baseline="middle" text-anchor="end" x="135" y="114.83050847457628" >6.875</text><line  class="poloto_axis_lines" stroke="black" x1="150" x2="144" y1="104.23728813559319" y2="104.23728813559319" /><line  class="poloto_tick_line" stroke="black" x1="150" x2="650" y1="104.23728813559319" y2="104.23728813559319" /><text  class="poloto_tick_labels poloto_text" dominant-baseline="middle" text-anchor="end" x="135" y="104.23728813559319" >7</text><text  class="poloto_tick_labels poloto_text" dominant-baseline="middle" text-anchor="start" x="440.00000000000006" y="70" >¹2022-05-01 00:00:00 UTC in Months</text><line  class="poloto_axis_lines" stroke="black" x1="219.87577639751544" x2="219.87577639751544" y1="400" y2="405" /><line  class="poloto_tick_line" stroke="black" x1="219.87577639751544" x2="219.87577639751544" y1="400" y2="100" /><text  class="poloto_tick_labels poloto_text" dominant-baseline="start" text-anchor="middle" x="219.87577639751544" y="430" >2022 May¹</text><line  class="poloto_axis_lines" stroke="black" x1="314.5962732919252" x2="314.5962732919252" y1="400" y2="405" /><line  class="poloto_tick_line" stroke="black" x1="314.5962732919252" x2="314.5962732919252" y1="400" y2="100" /><text  class="poloto_tick_labels poloto_text" dominant-baseline="start" text-anchor="middle" x="314.5962732919252" y="430" >2022 Jul</text><line  class="poloto_axis_lines" stroke="black" x1="410.86956521739194" x2="410.86956521739194" y1="400" y2="405" /><line  class="poloto_tick_line" stroke="black" x1="410.86956521739194" x2="410.86956521739194" y1="400" y2="100" /><text  class="poloto_tick_labels poloto_text" dominant-baseline="start" text-anchor="middle" x="410.86956521739194" y="430" >2022 Sep</text><line  class="poloto_axis_lines" stroke="black" x1="505.59006211180167" x2="505.59006211180167" y1="400" y2="405" /><line  class="poloto_tick_line" stroke="black" x1="505.59006211180167" x2="505.59006211180167" y1="400" y2="100" /><text  class="poloto_tick_labels poloto_text" dominant-baseline="start" text-anchor="middle" x="505.59006211180167" y="430" >2022 Nov</text><line  class="poloto_axis_lines" stroke="black" x1="600.3105590062114" x2="600.3105590062114" y1="400" y2="405" /><line  class="poloto_tick_line" stroke="black" x1="600.3105590062114" x2="600.3105590062114" y1="400" y2="100" /><text  class="poloto_tick_labels poloto_text" dominant-baseline="start" text-anchor="middle" x="600.3105590062114" y="430" >2023 Jan</text><path  stroke="black" fill="none" class="poloto_axis_lines" d=" M 150 400 L 650 400" /><path  stroke="black" fill="none" class="poloto_axis_lines" d=" M 150 400 L 150 100" /></svg>