<svg class="poloto" width="800" height="500" viewBox="0 0 800 500" xmlns="http://www.w3.org/2000/svg"><style>.poloto{stroke-linecap:round;stroke-linejoin:round;font-family:Roboto,sans-serif;font-size:16px;}.poloto_background{fill:#262626;}.poloto_scatter{stroke-width:7}.poloto_tick_line{stroke:dimgray;stroke-width:0.5}.poloto_line{stroke-width:2}.poloto_text{fill: white;}.poloto_axis_lines{stroke: white;stroke-width:3;fill:none;stroke-dasharray:none}.poloto_title{font-size:24px;dominant-baseline:start;text-anchor:middle;}.poloto_xname{font-size:24px;dominant-baseline:start;text-anchor:middle;}.poloto_yname{font-size:24px;dominant-baseline:start;text-anchor:middle;}.poloto0stroke{stroke:blue;}.poloto1stroke{stroke:red;}.poloto2stroke{stroke:green;}.poloto3stroke{stroke:gold;}.poloto4stroke{stroke:aqua;}.poloto5stroke{stroke:lime;}.poloto6stroke{stroke:orange;}.poloto7stroke{stroke:chocolate;}.poloto0fill{fill:blue;}.poloto1fill{fill:red;}.poloto2fill{fill:green;}.poloto3fill{fill:gold;}.poloto4fill{fill:aqua;}.poloto5fill{fill:lime;}.poloto6fill{fill:orange;}.poloto7fill{fill:chocolate;}</style><circle  r="1e5" class="poloto_background" /><text  class="poloto_text poloto_legend_text" x="675" y="100" >Refinance 15</text><line  class="poloto_line poloto_legend_icon poloto0stroke poloto0legend" stroke="black" x1="680" x2="730" y1="81.25" y2="81.25" /><path  class="poloto_line poloto0stroke" fill="none" stroke="black" d=" M 150.00 392.46 L 151.47 400.00 L 155.87 389.32 L 157.33 380.17 L 158.80 389.32 L 158.80 389.32 L 161.73 358.81 L 166.13 357.20 L 167.60 367.88 L 169.06 344.83 L 170.53 346.44 L 171.99 341.61 L 176.39 343.22 L 177.86 336.78 L 177.86 336.78 L 180.79 337.37 L 182.26 314.32 L 186.66 324.32 L 188.12 327.54 L 189.59 327.54 L 191.06 326.69 L 192.52 321.78 L 198.39 278.73 L 199.85 297.88 L 201.32 283.05 L 202.79 277.29 L 202.79 277.29 L 208.65 299.58 L 211.58 303.64 L 213.05 294.58 L 217.45 283.81 L 218.91 305.25 L 220.38 294.58 L 220.38 294.58 L 223.31 292.88 L 227.71 296.19 L 229.18 306.86 L 229.18 306.86 L 230.65 297.80 L 232.11 308.56 L 233.58 292.88 L 237.98 325.08 L 239.44 324.32 L 240.91 306.86 L 240.91 306.86 L 242.38 314.32 L 243.84 317.63 L 248.24 317.63 L 249.71 329.15 L 251.17 329.15 L 252.64 329.15 L 254.11 329.15 L 259.97 317.63 L 261.44 314.32 L 262.90 315.93 L 264.37 315.93 L 264.37 315.93 L 270.23 305.25 L 271.70 305.25 L 273.17 296.19 L 279.03 281.36 L 280.50 250.76 L 281.96 254.15 L 283.43 254.15 L 284.90 275.59 L 289.30 254.15 L 290.76 254.15 L 292.23 273.90 L 293.70 277.29 L 299.56 277.29 L 301.03 275.59 L 302.49 280.59 L 303.96 285.51 L 305.43 296.19 L 311.29 303.64 L 312.76 294.58 L 314.22 287.12 L 315.69 283.81 L 320.09 285.51 L 323.02 285.51 L 324.49 283.81 L 330.35 282.20 L 330.35 282.20 L 330.35 282.20 L 330.35 282.20 L 330.35 282.20 L 330.35 282.20 L 333.28 282.20 L 333.28 282.20 L 333.28 282.20 L 333.28 282.20 L 333.28 282.20 L 333.28 282.20 L 340.62 294.58 L 343.55 297.80 L 345.01 325.93 L 346.48 329.15 L 350.88 329.15 L 352.35 327.54 L 353.81 305.25 L 355.28 299.49 L 356.74 285.51 L 361.14 296.19 L 361.14 296.19 L 362.61 287.12 L 365.54 296.19 L 365.54 296.19 L 372.87 296.19 L 374.34 262.46 L 375.81 282.20 L 381.67 248.39 L 384.60 248.39 L 384.60 248.39 L 387.54 260.76 L 393.40 254.15 L 393.40 254.15 L 393.40 254.15 L 393.40 254.15 L 393.40 254.15 L 393.40 254.15 L 393.40 254.15 L 393.40 254.15 L 393.40 254.15 L 397.80 254.15 L 406.60 232.63 L 412.46 235.17 L 412.46 235.17 L 416.86 235.17 L 422.73 235.17 L 424.19 235.17 L 424.19 235.17 L 424.19 235.17 L 424.19 235.17 L 424.19 235.17 L 443.26 235.17 L 444.72 235.17 L 453.52 139.75 L 454.99 130.68 L 456.45 130.68 L 509.24 159.15 L 515.10 159.15 L 516.57 159.15 L 518.04 175.51 L 520.97 184.49 L 520.97 184.49 L 526.83 184.49 L 528.30 184.49 L 529.77 184.49 L 531.23 184.49 L 535.63 184.49 L 537.10 184.49 L 540.03 184.49 L 541.50 184.49 L 545.89 184.49 L 547.36 184.49 L 547.36 184.49 L 551.76 184.49 L 556.16 184.49 L 557.62 184.49 L 559.09 184.49 L 560.56 184.49 L 562.02 184.49 L 567.89 209.15 L 569.35 180.68 L 570.82 159.15 L 572.29 169.92 L 576.69 169.92 L 578.15 169.92 L 578.15 169.92 L 581.09 193.05 L 582.55 193.05 L 586.95 193.05 L 588.42 193.05 L 589.88 193.05 L 591.35 193.05 L 592.82 193.05 L 592.82 193.05 L 592.82 193.05 L 592.82 193.05 L 600.15 193.05 L 603.08 193.05 L 607.48 193.05 L 608.94 193.05 L 611.88 193.05 L 613.34 193.05 L 619.21 193.05 L 620.67 193.05 L 622.14 193.05 L 623.61 223.56 L 628.01 230.34 L 629.47 191.36 L 630.94 203.81 L 632.40 202.12 L 633.87 182.37 L 638.27 137.71 L 639.74 137.71 L 641.20 137.71 L 642.67 139.41 L 644.13 148.39 L 648.53 139.41 L 650.00 139.41" /><text  class="poloto_text poloto_legend_text" x="675" y="150" >Refinance 20</text><line  class="poloto_line poloto_legend_icon poloto1stroke poloto1legend" stroke="black" x1="680" x2="730" y1="131.25" y2="131.25" /><path  class="poloto_line poloto1stroke" fill="none" stroke="black" d=" M 150.00 345.68 L 151.47 368.31 L 155.87 334.58 L 157.33 324.24 L 158.80 333.73 L 158.80 333.73 L 161.73 304.07 L 166.13 301.53 L 167.60 312.29 L 169.06 300.25 L 170.53 311.02 L 171.99 290.85 L 176.39 321.69 L 177.86 290.85 L 177.86 290.85 L 180.79 290.85 L 180.79 290.85 L 186.66 250.17 L 188.12 282.71 L 189.59 290.85 L 191.06 301.53 L 192.52 280.59 L 198.39 260.00 L 199.85 257.37 L 201.32 252.12 L 202.79 240.08 L 207.18 245.34 L 208.65 268.14 L 211.58 260.00 L 213.05 257.37 L 217.45 248.81 L 218.91 258.73 L 220.38 258.73 L 220.38 258.73 L 223.31 258.73 L 227.71 260.00 L 229.18 281.44 L 229.18 281.44 L 230.65 269.41 L 232.11 289.58 L 233.58 281.44 L 237.98 282.71 L 239.44 281.44 L 240.91 281.44 L 240.91 281.44 L 242.38 282.71 L 243.84 289.58 L 248.24 290.85 L 249.71 294.66 L 251.17 294.66 L 252.64 294.66 L 254.11 294.66 L 259.97 289.58 L 261.44 278.81 L 262.90 281.44 L 264.37 281.44 L 264.37 281.44 L 270.23 268.14 L 271.70 270.68 L 273.17 261.27 L 279.03 215.85 L 280.50 197.03 L 281.96 207.80 L 283.43 215.85 L 284.90 238.56 L 289.30 225.17 L 290.76 218.47 L 292.23 239.92 L 293.70 250.17 L 299.56 250.17 L 301.03 238.56 L 302.49 249.32 L 303.96 260.00 L 305.43 272.03 L 311.29 280.08 L 312.76 269.41 L 314.22 258.73 L 315.69 251.44 L 320.09 257.37 L 323.02 260.00 L 324.49 258.73 L 330.35 260.00 L 330.35 260.00 L 330.35 260.00 L 330.35 260.00 L 330.35 260.00 L 330.35 260.00 L 330.35 260.00 L 330.35 260.00 L 330.35 260.00 L 330.35 260.00 L 330.35 260.00 L 330.35 260.00 L 340.62 280.08 L 343.55 282.71 L 345.01 301.53 L 346.48 304.07 L 350.88 301.27 L 352.35 301.27 L 353.81 290.85 L 355.28 294.66 L 356.74 278.81 L 361.14 270.68 L 361.14 270.68 L 362.61 270.68 L 365.54 281.44 L 365.54 281.44 L 372.87 278.81 L 374.34 260.00 L 375.81 260.00 L 381.67 246.19 L 384.60 234.58 L 384.60 234.58 L 387.54 247.54 L 393.40 215.85 L 393.40 215.85 L 393.40 215.85 L 393.40 215.85 L 393.40 215.85 L 393.40 215.85 L 393.40 215.85 L 393.40 215.85 L 393.40 215.85 L 397.80 215.85 L 406.60 202.37 L 412.46 203.73 L 415.40 203.73 L 416.86 203.73 L 416.86 203.73 L 424.19 203.73 L 425.66 203.73 L 425.66 203.73 L 425.66 203.73 L 425.66 203.73 L 443.26 203.73 L 444.72 203.73 L 453.52 118.81 L 454.99 102.97 L 454.99 102.97 L 512.17 155.34 L 515.10 155.34 L 516.57 155.34 L 519.50 174.15 L 520.97 175.51 L 520.97 175.51 L 526.83 175.51 L 528.30 175.51 L 529.77 175.51 L 531.23 175.51 L 535.63 175.51 L 537.10 175.51 L 540.03 175.51 L 541.50 175.51 L 545.89 175.51 L 547.36 175.51 L 547.36 175.51 L 551.76 175.51 L 556.16 175.51 L 557.62 175.51 L 559.09 175.51 L 560.56 175.51 L 562.02 175.51 L 567.89 156.36 L 569.35 145.93 L 570.82 144.58 L 572.29 147.37 L 576.69 147.37 L 578.15 147.37 L 578.15 147.37 L 581.09 167.46 L 582.55 167.46 L 586.95 167.46 L 588.42 167.46 L 589.88 167.46 L 591.35 167.46 L 592.82 167.46 L 592.82 167.46 L 598.68 167.46 L 598.68 167.46 L 600.15 167.46 L 603.08 167.46 L 607.48 167.46 L 608.94 167.46 L 611.88 167.46 L 613.34 167.46 L 619.21 167.46 L 620.67 167.46 L 622.14 167.46 L 623.61 190.34 L 628.01 188.98 L 629.47 156.69 L 630.94 158.05 L 630.94 158.05 L 633.87 156.69 L 638.27 135.17 L 639.74 135.17 L 641.20 125.85 L 642.67 115.08 L 644.13 124.49 L 648.53 115.08 L 650.00 104.32" /><text  class="poloto_text poloto_legend_text" x="675" y="200" >Refinance 30</text><line  class="poloto_line poloto_legend_icon poloto2stroke poloto2legend" stroke="black" x1="680" x2="730" y1="181.25" y2="181.25" /><path  class="poloto_line poloto2stroke" fill="none" stroke="black" d=" M 150.00 343.31 L 151.47 351.36 L 155.87 338.81 L 157.33 328.98 L 158.80 330.85 L 158.80 330.85 L 161.73 310.25 L 166.13 308.47 L 167.60 319.15 L 169.06 307.54 L 170.53 318.22 L 171.99 297.71 L 176.39 307.54 L 177.86 286.95 L 179.33 286.95 L 180.79 286.02 L 182.26 260.00 L 186.66 264.58 L 188.12 276.27 L 189.59 286.95 L 191.06 277.20 L 192.52 265.51 L 198.39 256.61 L 199.85 242.12 L 201.32 240.17 L 202.79 238.14 L 207.18 242.12 L 208.65 258.73 L 211.58 256.61 L 213.05 254.66 L 217.45 244.07 L 218.91 255.59 L 220.38 244.07 L 220.38 244.07 L 223.31 244.07 L 227.71 246.02 L 229.18 264.58 L 229.18 264.58 L 230.65 255.59 L 232.11 256.61 L 233.58 257.54 L 237.98 265.51 L 239.44 256.61 L 240.91 256.61 L 240.91 256.61 L 242.38 266.44 L 243.84 267.46 L 248.24 268.39 L 249.71 277.20 L 251.17 277.20 L 252.64 279.07 L 254.11 279.07 L 259.97 275.25 L 261.44 264.58 L 262.90 266.44 L 264.37 265.51 L 264.37 265.51 L 270.23 255.59 L 271.70 255.59 L 273.17 245.00 L 279.03 202.12 L 280.50 171.78 L 281.96 190.34 L 283.43 202.12 L 284.90 212.80 L 289.30 203.05 L 290.76 202.12 L 292.23 221.61 L 293.70 223.56 L 299.56 223.56 L 301.03 211.86 L 302.49 221.61 L 303.96 232.29 L 305.43 255.59 L 311.29 256.61 L 312.76 245.00 L 314.22 224.58 L 315.69 221.61 L 320.09 241.10 L 323.02 223.56 L 324.49 222.54 L 330.35 242.12 L 330.35 242.12 L 330.35 242.12 L 330.35 242.12 L 330.35 242.12 L 330.35 242.12 L 333.28 242.12 L 333.28 242.12 L 333.28 242.12 L 333.28 242.12 L 333.28 242.12 L 333.28 242.12 L 340.62 254.66 L 343.55 256.61 L 345.01 275.25 L 346.48 287.88 L 350.88 286.95 L 352.35 286.95 L 353.81 265.51 L 355.28 268.39 L 356.74 254.66 L 361.14 265.51 L 361.14 265.51 L 362.61 257.54 L 365.54 266.44 L 365.54 266.44 L 372.87 264.58 L 374.34 246.02 L 375.81 245.00 L 381.67 220.59 L 384.60 211.86 L 384.60 211.86 L 387.54 222.54 L 393.40 210.85 L 393.40 210.85 L 393.40 210.85 L 393.40 210.85 L 393.40 210.85 L 393.40 210.85 L 393.40 210.85 L 393.40 210.85 L 397.80 210.85 L 397.80 209.83 L 406.60 197.03 L 412.46 175.51 L 412.46 175.51 L 416.86 175.51 L 416.86 175.51 L 424.19 175.51 L 425.66 175.51 L 425.66 175.51 L 425.66 175.51 L 425.66 175.51 L 443.26 175.51 L 444.72 175.51 L 453.52 127.03 L 454.99 100.00 L 454.99 100.00 L 512.17 146.44 L 515.10 146.44 L 516.57 146.44 L 518.04 150.76 L 520.97 160.59 L 520.97 160.59 L 526.83 160.59 L 528.30 160.59 L 529.77 160.59 L 531.23 160.59 L 535.63 160.59 L 537.10 160.59 L 540.03 160.59 L 541.50 160.59 L 545.89 160.59 L 547.36 160.59 L 547.36 160.59 L 551.76 160.59 L 556.16 160.59 L 557.62 160.59 L 559.09 160.59 L 560.56 160.59 L 562.02 160.59 L 567.89 144.24 L 569.35 152.88 L 570.82 132.37 L 572.29 152.88 L 576.69 152.88 L 578.15 152.88 L 578.15 152.88 L 581.09 152.88 L 582.55 152.88 L 586.95 152.88 L 588.42 152.88 L 589.88 152.88 L 591.35 152.88 L 592.82 152.88 L 592.82 152.88 L 598.68 152.88 L 598.68 152.88 L 600.15 152.88 L 603.08 152.88 L 607.48 152.88 L 608.94 152.88 L 611.88 152.88 L 613.34 152.88 L 619.21 152.88 L 620.67 152.88 L 622.14 152.88 L 623.61 207.80 L 628.01 197.03 L 629.47 153.98 L 630.94 186.27 L 632.40 153.98 L 633.87 143.14 L 638.27 132.37 L 639.74 132.37 L 641.20 122.63 L 642.67 111.86 L 644.13 121.61 L 648.53 121.61 L 650.00 109.75" /><text  class="poloto_labels poloto_text poloto_title" x="400" y="37.5" >lower.com purchase rates</text><text  class="poloto_labels poloto_text poloto_xname" x="400" y="481.25" >Date</text><text  class="poloto_labels poloto_text poloto_yname" transform="rotate(-90,37.5,250)" x="37.5" y="250" >Rate (%)</text><text  class="poloto_tick_labels poloto_text" dominant-baseline="middle" text-anchor="start" x="150" y="70" ></text><line  class="poloto_axis_lines" stroke="black" x1="150" x2="144" y1="390.2542372881356" y2="390.2542372881356" /><line  class="poloto_tick_line" stroke="black" x1="150" x2="650" y1="390.2542372881356" y2="390.2542372881356" /><text  class="poloto_tick_labels poloto_text" dominant-baseline="middle" text-anchor="end" x="135" y="390.2542372881356" >3.625</text><line  class="poloto_axis_lines" stroke="black" x1="150" x2="144" y1="379.66101694915255" y2="379.66101694915255" /><line  class="poloto_tick_line" stroke="black" x1="150" x2="650" y1="379.66101694915255" y2="379.66101694915255" /><text  class="poloto_tick_labels poloto_text" dominant-baseline="middle" text-anchor="end" x="135" y="379.66101694915255" >3.75</text><line  class="poloto_axis_lines" stroke="black" x1="150" x2="144" y1="369.06779661016947" y2="369.06779661016947" /><line  class="poloto_tick_line" stroke="black" x1="150" x2="650" y1="369.06779661016947" y2="369.06779661016947" /><text  class="poloto_tick_labels poloto_text" dominant-baseline="middle" text-anchor="end" x="135" y="369.06779661016947" >3.875</text><line  class="poloto_axis_lines" stroke="black" x1="150" x2="144" y1="358.47457627118644" y2="358.47457627118644" /><line  class="poloto_tick_line" stroke="black" x1="150" x2="650" y1="358.47457627118644" y2="358.47457627118644" /><text  class="poloto_tick_labels poloto_text" dominant-baseline="middle" text-anchor="end" x="135" y="358.47457627118644" >4</text><line  class="poloto_axis_lines" stroke="black" x1="150" x2="144" y1="347.8813559322034" y2="347.8813559322034" /><line  class="poloto_tick_line" stroke="black" x1="150" x2="650" y1="347.8813559322034" y2="347.8813559322034" /><text  class="poloto_tick_labels poloto_text" dominant-baseline="middle" text-anchor="end" x="135" y="347.8813559322034" >4.125</text><line  class="poloto_axis_lines" stroke="black" x1="150" x2="144" y1="337.2881355932203" y2="337.2881355932203" /><line  class="poloto_tick_line" stroke="black" x1="150" x2="650" y1="337.2881355932203" y2="337.2881355932203" /><text  class="poloto_tick_labels poloto_text" dominant-baseline="middle" text-anchor="end" x="135" y="337.2881355932203" >4.25</text><line  class="poloto_axis_lines" stroke="black" x1="150" x2="144" y1="326.6949152542373" y2="326.6949152542373" /><line  class="poloto_tick_line" stroke="black" x1="150" x2="650" y1="326.6949152542373" y2="326.6949152542373" /><text  class="poloto_tick_labels poloto_text" dominant-baseline="middle" text-anchor="end" x="135" y="326.6949152542373" >4.375</text><line  class="poloto_axis_lines" stroke="black" x1="150" x2="144" y1="316.10169491525426" y2="316.10169491525426" /><line  class="poloto_tick_line" stroke="black" x1="150" x2="650" y1="316.10169491525426" y2="316.10169491525426" /><text  class="poloto_tick_labels poloto_text" dominant-baseline="middle" text-anchor="end" x="135" y="316.10169491525426" >4.5</text><line  class="poloto_axis_lines" stroke="black" x1="150" x2="144" y1="305.50847457627117" y2="305.50847457627117" /><line  class="poloto_tick_line" stroke="black" x1="150" x2="650" y1="305.50847457627117" y2="305.50847457627117" /><text  class="poloto_tick_labels poloto_text" dominant-baseline="middle" text-anchor="end" x="135" y="305.50847457627117" >4.625</text><line  class="poloto_axis_lines" stroke="black" x1="150" x2="144" y1="294.91525423728814" y2="294.91525423728814" /><line  class="poloto_tick_line" stroke="black" x1="150" x2="650" y1="294.91525423728814" y2="294.91525423728814" /><text  class="poloto_tick_labels poloto_text" dominant-baseline="middle" text-anchor="end" x="135" y="294.91525423728814" >4.75</text><line  class="poloto_axis_lines" stroke="black" x1="150" x2="144" y1="284.3220338983051" y2="284.3220338983051" /><line  class="poloto_tick_line" stroke="black" x1="150" x2="650" y1="284.3220338983051" y2="284.3220338983051" /><text  class="poloto_tick_labels poloto_text" dominant-baseline="middle" text-anchor="end" x="135" y="284.3220338983051" >4.875</text><line  class="poloto_axis_lines" stroke="black" x1="150" x2="144" y1="273.728813559322" y2="273.728813559322" /><line  class="poloto_tick_line" stroke="black" x1="150" x2="650" y1="273.728813559322" y2="273.728813559322" /><text  class="poloto_tick_labels poloto_text" dominant-baseline="middle" text-anchor="end" x="135" y="273.728813559322" >5</text><line  class="poloto_axis_lines" stroke="black" x1="150" x2="144" y1="263.135593220339" y2="263.135593220339" /><line  class="poloto_tick_line" stroke="black" x1="150" x2="650" y1="263.135593220339" y2="263.135593220339" /><text  class="poloto_tick_labels poloto_text" dominant-baseline="middle" text-anchor="end" x="135" y="263.135593220339" >5.125</text><line  class="poloto_axis_lines" stroke="black" x1="150" x2="144" y1="252.54237288135596" y2="252.54237288135596" /><line  class="poloto_tick_line" stroke="black" x1="150" x2="650" y1="252.54237288135596" y2="252.54237288135596" /><text  class="poloto_tick_labels poloto_text" dominant-baseline="middle" text-anchor="end" x="135" y="252.54237288135596" >5.25</text><line  class="poloto_axis_lines" stroke="black" x1="150" x2="144" y1="241.94915254237287" y2="241.94915254237287" /><line  class="poloto_tick_line" stroke="black" x1="150" x2="650" y1="241.94915254237287" y2="241.94915254237287" /><text  class="poloto_tick_labels poloto_text" dominant-baseline="middle" text-anchor="end" x="135" y="241.94915254237287" >5.375</text><line  class="poloto_axis_lines" stroke="black" x1="150" x2="144" y1="231.35593220338984" y2="231.35593220338984" /><line  class="poloto_tick_line" stroke="black" x1="150" x2="650" y1="231.35593220338984" y2="231.35593220338984" /><text  class="poloto_tick_labels poloto_text" dominant-baseline="middle" text-anchor="end" x="135" y="231.35593220338984" >5.5</text><line  class="poloto_axis_lines" stroke="black" x1="150" x2="144" y1="220.7627118644068" y2="220.7627118644068" /><line  class="poloto_tick_line" stroke="black" x1="150" x2="650" y1="220.7627118644068" y2="220.7627118644068" /><text  class="poloto_tick_labels poloto_text" dominant-baseline="middle" text-anchor="end" x="135" y="220.7627118644068" >5.625</text><line  class="poloto_axis_lines" stroke="black" x1="150" x2="144" y1="210.16949152542372" y2="210.16949152542372" /><line  class="poloto_tick_line" stroke="black" x1="150" x2="650" y1="210.16949152542372" y2="210.16949152542372" /><text  class="poloto_tick_labels poloto_text" dominant-baseline="middle" text-anchor="end" x="135" y="210.16949152542372" >5.75</text><line  class="poloto_axis_lines" stroke="black" x1="150" x2="144" y1="199.5762711864407" y2="199.5762711864407" /><line  class="poloto_tick_line" stroke="black" x1="150" x2="650" y1="199.5762711864407" y2="199.5762711864407" /><text  class="poloto_tick_labels poloto_text" dominant-baseline="middle" text-anchor="end" x="135" y="199.5762711864407" >5.875</text><line  class="poloto_axis_lines" stroke="black" x1="150" x2="144" y1="188.98305084745766" y2="188.98305084745766" /><line  class="poloto_tick_line" stroke="black" x1="150" x2="650" y1="188.98305084745766" y2="188.98305084745766" /><text  class="poloto_tick_labels poloto_text" dominant-baseline="middle" text-anchor="end" x="135" y="188.98305084745766" >6</text><line  class="poloto_axis_lines" stroke="black" x1="150" x2="144" y1="178.38983050847457" y2="178.38983050847457" /><line  class="poloto_tick_line" stroke="black" x1="150" x2="650" y1="178.38983050847457" y2="178.38983050847457" /><text  class="poloto_tick_labels poloto_text" dominant-baseline="middle" text-anchor="end" x="135" y="178.38983050847457" >6.125</text><line  class="poloto_axis_lines" stroke="black" x1="150" x2="144" y1="167.7966101694915" y2="167.7966101694915" /><line  class="poloto_tick_line" stroke="black" x1="150" x2="650" y1="167.7966101694915" y2="167.7966101694915" /><text  class="poloto_tick_labels poloto_text" dominant-baseline="middle" text-anchor="end" x="135" y="167.7966101694915" >6.25</text><line  class="poloto_axis_lines" stroke="black" x1="150" x2="144" y1="157.2033898305085" y2="157.2033898305085" /><line  class="poloto_tick_line" stroke="black" x1="150" x2="650" y1="157.2033898305085" y2="157.2033898305085" /><text  class="poloto_tick_labels poloto_text" dominant-baseline="middle" text-anchor="end" x="135" y="157.2033898305085" >6.375</text><line  class="poloto_axis_lines" stroke="black" x1="150" x2="144" y1="146.61016949152543" y2="146.61016949152543" /><line  class="poloto_tick_line" stroke="black" x1="150" x2="650" y1="146.61016949152543" y2="146.61016949152543" /><text  class="poloto_tick_labels poloto_text" dominant-baseline="middle" text-anchor="end" x="135" y="146.61016949152543" >6.5</text><line  class="poloto_axis_lines" stroke="black" x1="150" x2="144" y1="136.01694915254234" y2="136.01694915254234" /><line  class="poloto_tick_line" stroke="black" x1="150" x2="650" y1="136.01694915254234" y2="136.01694915254234" /><text  class="poloto_tick_labels poloto_text" dominant-baseline="middle" text-anchor="end" x="135" y="136.01694915254234" >6.625</text><line  class="poloto_axis_lines" stroke="black" x1="150" x2="144" y1="125.42372881355936" y2="125.42372881355936" /><line  class="poloto_tick_line" stroke="black" x1="150" x2="650" y1="125.42372881355936" y2="125.42372881355936" /><text  class="poloto_tick_labels poloto_text" dominant-baseline="middle" text-anchor="end" x="135" y="125.42372881355936" >6.75</text><line  class="poloto_axis_lines" stroke="black" x1="150" x2="144" y1="114.83050847457628" y2="114.83050847457628" /><line  class="poloto_tick_line" stroke="black" x1="150" x2="650" y1="114.83050847457628" y2="114.83050847457628" /><text  class="poloto_tick_labels poloto_text" dominant-baseline="middle" text-anchor="end" x="135" y="114.83050847457628" >6.875</text><line  class="poloto_axis_lines" stroke="black" x1="150" x2="144" y1="104.23728813559319" y2="104.23728813559319" /><line  class="poloto_tick_line" stroke="black" x1="150" x2="650" y1="104.23728813559319" y2="104.23728813559319" /><text  class="poloto_tick_labels poloto_text" dominant-baseline="middle" text-anchor="end" x="135" y="104.23728813559319" >7</text><text  class="poloto_tick_labels poloto_text" dominant-baseline="middle" text-anchor="start" x="440.00000000000006" y="70" >¹2022-05-01 00:00:00 UTC in Months</text><line  class="poloto_axis_lines" stroke="black" x1="215.98240469208395" x2="215.98240469208395" y1="400" y2="405" /><line  class="poloto_tick_line" stroke="black" x1="215.98240469208395" x2="215.98240469208395" y1="400" y2="100" /><text  class="poloto_tick_labels poloto_text" dominant-baseline="start" text-anchor="middle" x="215.98240469208395" y="430" >2022 May¹</text><line  class="poloto_axis_lines" stroke="black" x1="305.4252199413495" x2="305.4252199413495" y1="400" y2="405" /><line  class="poloto_tick_line" stroke="black" x1="305.4252199413495" x2="305.4252199413495" y1="400" y2="100" /><text  class="poloto_tick_labels poloto_text" dominant-baseline="start" text-anchor="middle" x="305.4252199413495" y="430" >2022 Jul</text><line  class="poloto_axis_lines" stroke="black" x1="396.3343108504414" x2="396.3343108504414" y1="400" y2="405" /><line  class="poloto_tick_line" stroke="black" x1="396.3343108504414" x2="396.3343108504414" y1="400" y2="100" /><text  class="poloto_tick_labels poloto_text" dominant-baseline="start" text-anchor="middle" x="396.3343108504414" y="430" >2022 Sep</text><line  class="poloto_axis_lines" stroke="black" x1="485.77712609970695" x2="485.77712609970695" y1="400" y2="405" /><line  class="poloto_tick_line" stroke="black" x1="485.77712609970695" x2="485.77712609970695" y1="400" y2="100" /><text  class="poloto_tick_labels poloto_text" dominant-baseline="start" text-anchor="middle" x="485.77712609970695" y="430" >2022 Nov</text><line  class="poloto_axis_lines" stroke="black" x1="575.2199413489761" x2="575.2199413489761" y1="400" y2="405" /><line  class="poloto_tick_line" stroke="black" x1="575.2199413489761" x2="575.2199413489761" y1="400" y2="100" /><text  class="poloto_tick_labels poloto_text" dominant-baseline="start" text-anchor="middle" x="575.2199413489761" y="430" >2023 Jan</text><path  stroke="black" fill="none" class="poloto_axis_lines" d=" M 150 400 L 650 400" /><path  stroke="black" fill="none" class="poloto_axis_lines" d=" M 150 400 L 150 100" /></svg>