<svg class="poloto" width="800" height="500" viewBox="0 0 800 500" xmlns="http://www.w3.org/2000/svg"><style>.poloto{stroke-linecap:round;stroke-linejoin:round;font-family:Roboto,sans-serif;font-size:16px;}.poloto_background{fill:#262626;}.poloto_scatter{stroke-width:7}.poloto_tick_line{stroke:dimgray;stroke-width:0.5}.poloto_line{stroke-width:2}.poloto_text{fill: white;}.poloto_axis_lines{stroke: white;stroke-width:3;fill:none;stroke-dasharray:none}.poloto_title{font-size:24px;dominant-baseline:start;text-anchor:middle;}.poloto_xname{font-size:24px;dominant-baseline:start;text-anchor:middle;}.poloto_yname{font-size:24px;dominant-baseline:start;text-anchor:middle;}.poloto0stroke{stroke:blue;}.poloto1stroke{stroke:red;}.poloto2stroke{stroke:green;}.poloto3stroke{stroke:gold;}.poloto4stroke{stroke:aqua;}.poloto5stroke{stroke:lime;}.poloto6stroke{stroke:orange;}.poloto7stroke{stroke:chocolate;}.poloto0fill{fill:blue;}.poloto1fill{fill:red;}.poloto2fill{fill:green;}.poloto3fill{fill:gold;}.poloto4fill{fill:aqua;}.poloto5fill{fill:lime;}.poloto6fill{fill:orange;}.poloto7fill{fill:chocolate;}</style><circle  r="1e5" class="poloto_background" /><text  class="poloto_text poloto_legend_text" x="675" y="100" >Refinance 15</text><line  class="poloto_line poloto_legend_icon poloto0stroke poloto0legend" stroke="black" x1="680" x2="730" y1="81.25" y2="81.25" /><path  class="poloto_line poloto0stroke" fill="none" stroke="black" d=" M 150.00 392.46 L 151.81 400.00 L 157.22 389.32 L 159.03 380.17 L 160.83 389.32 L 160.83 389.32 L 164.44 358.81 L 169.86 357.20 L 171.66 367.88 L 173.47 344.83 L 175.27 346.44 L 177.08 341.61 L 182.49 343.22 L 184.30 336.78 L 184.30 336.78 L 187.91 337.37 L 189.71 314.32 L 195.13 324.32 L 196.93 327.54 L 198.74 327.54 L 200.54 326.69 L 202.35 321.78 L 209.57 278.73 L 211.37 297.88 L 213.18 283.05 L 214.98 277.29 L 214.98 277.29 L 222.20 299.58 L 225.81 303.64 L 227.62 294.58 L 233.03 283.81 L 234.84 305.25 L 236.64 294.58 L 236.64 294.58 L 240.25 292.88 L 245.67 296.19 L 247.47 306.86 L 247.47 306.86 L 249.28 297.80 L 251.08 308.56 L 252.89 292.88 L 258.30 325.08 L 260.11 324.32 L 261.91 306.86 L 261.91 306.86 L 263.72 314.32 L 265.52 317.63 L 270.94 317.63 L 272.74 329.15 L 274.55 329.15 L 276.35 329.15 L 278.16 329.15 L 285.38 317.63 L 287.18 314.32 L 288.99 315.93 L 290.79 315.93 L 290.79 315.93 L 298.01 305.25 L 299.82 305.25 L 301.62 296.19 L 308.84 281.36 L 310.65 250.76 L 312.45 254.15 L 314.26 254.15 L 316.06 275.59 L 321.48 254.15 L 323.29 254.15 L 325.09 273.90 L 326.90 277.29 L 334.12 277.29 L 335.92 275.59 L 337.73 280.59 L 339.53 285.51 L 341.34 296.19 L 348.56 303.64 L 350.36 294.58 L 352.17 287.12 L 353.97 283.81 L 359.39 285.51 L 363.00 285.51 L 364.80 283.81 L 372.02 282.20 L 372.02 282.20 L 372.02 282.20 L 372.02 282.20 L 372.02 282.20 L 372.02 282.20 L 375.63 282.20 L 375.63 282.20 L 375.63 282.20 L 375.63 282.20 L 375.63 282.20 L 375.63 282.20 L 384.66 294.58 L 388.27 297.80 L 390.07 325.93 L 391.88 329.15 L 397.29 329.15 L 399.10 327.54 L 400.90 305.25 L 402.71 299.49 L 404.51 285.51 L 409.93 296.19 L 409.93 296.19 L 411.73 287.12 L 415.34 296.19 L 415.34 296.19 L 424.37 296.19 L 426.17 262.46 L 427.98 282.20 L 435.20 248.39 L 438.81 248.39 L 438.81 248.39 L 442.42 260.76 L 449.64 254.15 L 449.64 254.15 L 449.64 254.15 L 449.64 254.15 L 449.64 254.15 L 449.64 254.15 L 449.64 254.15 L 449.64 254.15 L 449.64 254.15 L 455.05 254.15 L 465.88 232.63 L 473.10 235.17 L 473.10 235.17 L 478.52 235.17 L 485.74 235.17 L 487.55 235.17 L 487.55 235.17 L 487.55 235.17 L 487.55 235.17 L 487.55 235.17 L 511.01 235.17 L 512.82 235.17 L 523.65 139.75 L 525.45 130.68 L 527.26 130.68 L 592.24 159.15 L 599.46 159.15 L 601.26 159.15 L 603.07 175.51 L 606.68 184.49 L 606.68 184.49 L 613.90 184.49 L 615.70 184.49 L 617.51 184.49 L 619.31 184.49 L 624.73 184.49 L 626.53 184.49 L 630.14 184.49 L 631.95 184.49 L 637.36 184.49 L 639.17 184.49 L 639.17 184.49 L 644.58 184.49 L 650.00 184.49" /><text  class="poloto_text poloto_legend_text" x="675" y="150" >Refinance 20</text><line  class="poloto_line poloto_legend_icon poloto1stroke poloto1legend" stroke="black" x1="680" x2="730" y1="131.25" y2="131.25" /><path  class="poloto_line poloto1stroke" fill="none" stroke="black" d=" M 150.00 345.68 L 151.81 368.31 L 157.22 334.58 L 159.03 324.24 L 160.83 333.73 L 160.83 333.73 L 164.44 304.07 L 169.86 301.53 L 171.66 312.29 L 173.47 300.25 L 175.27 311.02 L 177.08 290.85 L 182.49 321.69 L 184.30 290.85 L 184.30 290.85 L 187.91 290.85 L 187.91 290.85 L 195.13 250.17 L 196.93 282.71 L 198.74 290.85 L 200.54 301.53 L 202.35 280.59 L 209.57 260.00 L 211.37 257.37 L 213.18 252.12 L 214.98 240.08 L 220.40 245.34 L 222.20 268.14 L 225.81 260.00 L 227.62 257.37 L 233.03 248.81 L 234.84 258.73 L 236.64 258.73 L 236.64 258.73 L 240.25 258.73 L 245.67 260.00 L 247.47 281.44 L 247.47 281.44 L 249.28 269.41 L 251.08 289.58 L 252.89 281.44 L 258.30 282.71 L 260.11 281.44 L 261.91 281.44 L 261.91 281.44 L 263.72 282.71 L 265.52 289.58 L 270.94 290.85 L 272.74 294.66 L 274.55 294.66 L 276.35 294.66 L 278.16 294.66 L 285.38 289.58 L 287.18 278.81 L 288.99 281.44 L 290.79 281.44 L 290.79 281.44 L 298.01 268.14 L 299.82 270.68 L 301.62 261.27 L 308.84 215.85 L 310.65 197.03 L 312.45 207.80 L 314.26 215.85 L 316.06 238.56 L 321.48 225.17 L 323.29 218.47 L 325.09 239.92 L 326.90 250.17 L 334.12 250.17 L 335.92 238.56 L 337.73 249.32 L 339.53 260.00 L 341.34 272.03 L 348.56 280.08 L 350.36 269.41 L 352.17 258.73 L 353.97 251.44 L 359.39 257.37 L 363.00 260.00 L 364.80 258.73 L 372.02 260.00 L 372.02 260.00 L 372.02 260.00 L 372.02 260.00 L 372.02 260.00 L 372.02 260.00 L 372.02 260.00 L 372.02 260.00 L 372.02 260.00 L 372.02 260.00 L 372.02 260.00 L 372.02 260.00 L 384.66 280.08 L 388.27 282.71 L 390.07 301.53 L 391.88 304.07 L 397.29 301.27 L 399.10 301.27 L 400.90 290.85 L 402.71 294.66 L 404.51 278.81 L 409.93 270.68 L 409.93 270.68 L 411.73 270.68 L 415.34 281.44 L 415.34 281.44 L 424.37 278.81 L 426.17 260.00 L 427.98 260.00 L 435.20 246.19 L 438.81 234.58 L 438.81 234.58 L 442.42 247.54 L 449.64 215.85 L 449.64 215.85 L 449.64 215.85 L 449.64 215.85 L 449.64 215.85 L 449.64 215.85 L 449.64 215.85 L 449.64 215.85 L 449.64 215.85 L 455.05 215.85 L 465.88 202.37 L 473.10 203.73 L 476.71 203.73 L 478.52 203.73 L 478.52 203.73 L 487.55 203.73 L 489.35 203.73 L 489.35 203.73 L 489.35 203.73 L 489.35 203.73 L 511.01 203.73 L 512.82 203.73 L 523.65 118.81 L 525.45 102.97 L 525.45 102.97 L 595.85 155.34 L 599.46 155.34 L 601.26 155.34 L 604.87 174.15 L 606.68 175.51 L 606.68 175.51 L 613.90 175.51 L 615.70 175.51 L 617.51 175.51 L 619.31 175.51 L 624.73 175.51 L 626.53 175.51 L 630.14 175.51 L 631.95 175.51 L 637.36 175.51 L 639.17 175.51 L 639.17 175.51 L 644.58 175.51 L 650.00 175.51" /><text  class="poloto_text poloto_legend_text" x="675" y="200" >Refinance 30</text><line  class="poloto_line poloto_legend_icon poloto2stroke poloto2legend" stroke="black" x1="680" x2="730" y1="181.25" y2="181.25" /><path  class="poloto_line poloto2stroke" fill="none" stroke="black" d=" M 150.00 343.31 L 151.81 351.36 L 157.22 338.81 L 159.03 328.98 L 160.83 330.85 L 160.83 330.85 L 164.44 310.25 L 169.86 308.47 L 171.66 319.15 L 173.47 307.54 L 175.27 318.22 L 177.08 297.71 L 182.49 307.54 L 184.30 286.95 L 186.10 286.95 L 187.91 286.02 L 189.71 260.00 L 195.13 264.58 L 196.93 276.27 L 198.74 286.95 L 200.54 277.20 L 202.35 265.51 L 209.57 256.61 L 211.37 242.12 L 213.18 240.17 L 214.98 238.14 L 220.40 242.12 L 222.20 258.73 L 225.81 256.61 L 227.62 254.66 L 233.03 244.07 L 234.84 255.59 L 236.64 244.07 L 236.64 244.07 L 240.25 244.07 L 245.67 246.02 L 247.47 264.58 L 247.47 264.58 L 249.28 255.59 L 251.08 256.61 L 252.89 257.54 L 258.30 265.51 L 260.11 256.61 L 261.91 256.61 L 261.91 256.61 L 263.72 266.44 L 265.52 267.46 L 270.94 268.39 L 272.74 277.20 L 274.55 277.20 L 276.35 279.07 L 278.16 279.07 L 285.38 275.25 L 287.18 264.58 L 288.99 266.44 L 290.79 265.51 L 290.79 265.51 L 298.01 255.59 L 299.82 255.59 L 301.62 245.00 L 308.84 202.12 L 310.65 171.78 L 312.45 190.34 L 314.26 202.12 L 316.06 212.80 L 321.48 203.05 L 323.29 202.12 L 325.09 221.61 L 326.90 223.56 L 334.12 223.56 L 335.92 211.86 L 337.73 221.61 L 339.53 232.29 L 341.34 255.59 L 348.56 256.61 L 350.36 245.00 L 352.17 224.58 L 353.97 221.61 L 359.39 241.10 L 363.00 223.56 L 364.80 222.54 L 372.02 242.12 L 372.02 242.12 L 372.02 242.12 L 372.02 242.12 L 372.02 242.12 L 372.02 242.12 L 375.63 242.12 L 375.63 242.12 L 375.63 242.12 L 375.63 242.12 L 375.63 242.12 L 375.63 242.12 L 384.66 254.66 L 388.27 256.61 L 390.07 275.25 L 391.88 287.88 L 397.29 286.95 L 399.10 286.95 L 400.90 265.51 L 402.71 268.39 L 404.51 254.66 L 409.93 265.51 L 409.93 265.51 L 411.73 257.54 L 415.34 266.44 L 415.34 266.44 L 424.37 264.58 L 426.17 246.02 L 427.98 245.00 L 435.20 220.59 L 438.81 211.86 L 438.81 211.86 L 442.42 222.54 L 449.64 210.85 L 449.64 210.85 L 449.64 210.85 L 449.64 210.85 L 449.64 210.85 L 449.64 210.85 L 449.64 210.85 L 449.64 210.85 L 455.05 210.85 L 455.05 209.83 L 465.88 197.03 L 473.10 175.51 L 473.10 175.51 L 478.52 175.51 L 478.52 175.51 L 487.55 175.51 L 489.35 175.51 L 489.35 175.51 L 489.35 175.51 L 489.35 175.51 L 511.01 175.51 L 512.82 175.51 L 523.65 127.03 L 525.45 100.00 L 525.45 100.00 L 595.85 146.44 L 599.46 146.44 L 601.26 146.44 L 603.07 150.76 L 606.68 160.59 L 606.68 160.59 L 613.90 160.59 L 615.70 160.59 L 617.51 160.59 L 619.31 160.59 L 624.73 160.59 L 626.53 160.59 L 630.14 160.59 L 631.95 160.59 L 637.36 160.59 L 639.17 160.59 L 639.17 160.59 L 644.58 160.59 L 650.00 160.59" /><text  class="poloto_labels poloto_text poloto_title" x="400" y="37.5" >lower.com purchase rates</text><text  class="poloto_labels poloto_text poloto_xname" x="400" y="481.25" >Date</text><text  class="poloto_labels poloto_text poloto_yname" transform="rotate(-90,37.5,250)" x="37.5" y="250" >Rate (%)</text><text  class="poloto_tick_labels poloto_text" dominant-baseline="middle" text-anchor="start" x="150" y="70" ></text><line  class="poloto_axis_lines" stroke="black" x1="150" x2="144" y1="390.2542372881356" y2="390.2542372881356" /><line  class="poloto_tick_line" stroke="black" x1="150" x2="650" y1="390.2542372881356" y2="390.2542372881356" /><text  class="poloto_tick_labels poloto_text" dominant-baseline="middle" text-anchor="end" x="135" y="390.2542372881356" >3.625</text><line  class="poloto_axis_lines" stroke="black" x1="150" x2="144" y1="379.66101694915255" y2="379.66101694915255" /><line  class="poloto_tick_line" stroke="black" x1="150" x2="650" y1="379.66101694915255" y2="379.66101694915255" /><text  class="poloto_tick_labels poloto_text" dominant-baseline="middle" text-anchor="end" x="135" y="379.66101694915255" >3.75</text><line  class="poloto_axis_lines" stroke="black" x1="150" x2="144" y1="369.06779661016947" y2="369.06779661016947" /><line  class="poloto_tick_line" stroke="black" x1="150" x2="650" y1="369.06779661016947" y2="369.06779661016947" /><text  class="poloto_tick_labels poloto_text" dominant-baseline="middle" text-anchor="end" x="135" y="369.06779661016947" >3.875</text><line  class="poloto_axis_lines" stroke="black" x1="150" x2="144" y1="358.47457627118644" y2="358.47457627118644" /><line  class="poloto_tick_line" stroke="black" x1="150" x2="650" y1="358.47457627118644" y2="358.47457627118644" /><text  class="poloto_tick_labels poloto_text" dominant-baseline="middle" text-anchor="end" x="135" y="358.47457627118644" >4</text><line  class="poloto_axis_lines" stroke="black" x1="150" x2="144" y1="347.8813559322034" y2="347.8813559322034" /><line  class="poloto_tick_line" stroke="black" x1="150" x2="650" y1="347.8813559322034" y2="347.8813559322034" /><text  class="poloto_tick_labels poloto_text" dominant-baseline="middle" text-anchor="end" x="135" y="347.8813559322034" >4.125</text><line  class="poloto_axis_lines" stroke="black" x1="150" x2="144" y1="337.2881355932203" y2="337.2881355932203" /><line  class="poloto_tick_line" stroke="black" x1="150" x2="650" y1="337.2881355932203" y2="337.2881355932203" /><text  class="poloto_tick_labels poloto_text" dominant-baseline="middle" text-anchor="end" x="135" y="337.2881355932203" >4.25</text><line  class="poloto_axis_lines" stroke="black" x1="150" x2="144" y1="326.6949152542373" y2="326.6949152542373" /><line  class="poloto_tick_line" stroke="black" x1="150" x2="650" y1="326.6949152542373" y2="326.6949152542373" /><text  class="poloto_tick_labels poloto_text" dominant-baseline="middle" text-anchor="end" x="135" y="326.6949152542373" >4.375</text><line  class="poloto_axis_lines" stroke="black" x1="150" x2="144" y1="316.10169491525426" y2="316.10169491525426" /><line  class="poloto_tick_line" stroke="black" x1="150" x2="650" y1="316.10169491525426" y2="316.10169491525426" /><text  class="poloto_tick_labels poloto_text" dominant-baseline="middle" text-anchor="end" x="135" y="316.10169491525426" >4.5</text><line  class="poloto_axis_lines" stroke="black" x1="150" x2="144" y1="305.50847457627117" y2="305.50847457627117" /><line  class="poloto_tick_line" stroke="black" x1="150" x2="650" y1="305.50847457627117" y2="305.50847457627117" /><text  class="poloto_tick_labels poloto_text" dominant-baseline="middle" text-anchor="end" x="135" y="305.50847457627117" >4.625</text><line  class="poloto_axis_lines" stroke="black" x1="150" x2="144" y1="294.91525423728814" y2="294.91525423728814" /><line  class="poloto_tick_line" stroke="black" x1="150" x2="650" y1="294.91525423728814" y2="294.91525423728814" /><text  class="poloto_tick_labels poloto_text" dominant-baseline="middle" text-anchor="end" x="135" y="294.91525423728814" >4.75</text><line  class="poloto_axis_lines" stroke="black" x1="150" x2="144" y1="284.3220338983051" y2="284.3220338983051" /><line  class="poloto_tick_line" stroke="black" x1="150" x2="650" y1="284.3220338983051" y2="284.3220338983051" /><text  class="poloto_tick_labels poloto_text" dominant-baseline="middle" text-anchor="end" x="135" y="284.3220338983051" >4.875</text><line  class="poloto_axis_lines" stroke="black" x1="150" x2="144" y1="273.728813559322" y2="273.728813559322" /><line  class="poloto_tick_line" stroke="black" x1="150" x2="650" y1="273.728813559322" y2="273.728813559322" /><text  class="poloto_tick_labels poloto_text" dominant-baseline="middle" text-anchor="end" x="135" y="273.728813559322" >5</text><line  class="poloto_axis_lines" stroke="black" x1="150" x2="144" y1="263.135593220339" y2="263.135593220339" /><line  class="poloto_tick_line" stroke="black" x1="150" x2="650" y1="263.135593220339" y2="263.135593220339" /><text  class="poloto_tick_labels poloto_text" dominant-baseline="middle" text-anchor="end" x="135" y="263.135593220339" >5.125</text><line  class="poloto_axis_lines" stroke="black" x1="150" x2="144" y1="252.54237288135596" y2="252.54237288135596" /><line  class="poloto_tick_line" stroke="black" x1="150" x2="650" y1="252.54237288135596" y2="252.54237288135596" /><text  class="poloto_tick_labels poloto_text" dominant-baseline="middle" text-anchor="end" x="135" y="252.54237288135596" >5.25</text><line  class="poloto_axis_lines" stroke="black" x1="150" x2="144" y1="241.94915254237287" y2="241.94915254237287" /><line  class="poloto_tick_line" stroke="black" x1="150" x2="650" y1="241.94915254237287" y2="241.94915254237287" /><text  class="poloto_tick_labels poloto_text" dominant-baseline="middle" text-anchor="end" x="135" y="241.94915254237287" >5.375</text><line  class="poloto_axis_lines" stroke="black" x1="150" x2="144" y1="231.35593220338984" y2="231.35593220338984" /><line  class="poloto_tick_line" stroke="black" x1="150" x2="650" y1="231.35593220338984" y2="231.35593220338984" /><text  class="poloto_tick_labels poloto_text" dominant-baseline="middle" text-anchor="end" x="135" y="231.35593220338984" >5.5</text><line  class="poloto_axis_lines" stroke="black" x1="150" x2="144" y1="220.7627118644068" y2="220.7627118644068" /><line  class="poloto_tick_line" stroke="black" x1="150" x2="650" y1="220.7627118644068" y2="220.7627118644068" /><text  class="poloto_tick_labels poloto_text" dominant-baseline="middle" text-anchor="end" x="135" y="220.7627118644068" >5.625</text><line  class="poloto_axis_lines" stroke="black" x1="150" x2="144" y1="210.16949152542372" y2="210.16949152542372" /><line  class="poloto_tick_line" stroke="black" x1="150" x2="650" y1="210.16949152542372" y2="210.16949152542372" /><text  class="poloto_tick_labels poloto_text" dominant-baseline="middle" text-anchor="end" x="135" y="210.16949152542372" >5.75</text><line  class="poloto_axis_lines" stroke="black" x1="150" x2="144" y1="199.5762711864407" y2="199.5762711864407" /><line  class="poloto_tick_line" stroke="black" x1="150" x2="650" y1="199.5762711864407" y2="199.5762711864407" /><text  class="poloto_tick_labels poloto_text" dominant-baseline="middle" text-anchor="end" x="135" y="199.5762711864407" >5.875</text><line  class="poloto_axis_lines" stroke="black" x1="150" x2="144" y1="188.98305084745766" y2="188.98305084745766" /><line  class="poloto_tick_line" stroke="black" x1="150" x2="650" y1="188.98305084745766" y2="188.98305084745766" /><text  class="poloto_tick_labels poloto_text" dominant-baseline="middle" text-anchor="end" x="135" y="188.98305084745766" >6</text><line  class="poloto_axis_lines" stroke="black" x1="150" x2="144" y1="178.38983050847457" y2="178.38983050847457" /><line  class="poloto_tick_line" stroke="black" x1="150" x2="650" y1="178.38983050847457" y2="178.38983050847457" /><text  class="poloto_tick_labels poloto_text" dominant-baseline="middle" text-anchor="end" x="135" y="178.38983050847457" >6.125</text><line  class="poloto_axis_lines" stroke="black" x1="150" x2="144" y1="167.7966101694915" y2="167.7966101694915" /><line  class="poloto_tick_line" stroke="black" x1="150" x2="650" y1="167.7966101694915" y2="167.7966101694915" /><text  class="poloto_tick_labels poloto_text" dominant-baseline="middle" text-anchor="end" x="135" y="167.7966101694915" >6.25</text><line  class="poloto_axis_lines" stroke="black" x1="150" x2="144" y1="157.2033898305085" y2="157.2033898305085" /><line  class="poloto_tick_line" stroke="black" x1="150" x2="650" y1="157.2033898305085" y2="157.2033898305085" /><text  class="poloto_tick_labels poloto_text" dominant-baseline="middle" text-anchor="end" x="135" y="157.2033898305085" >6.375</text><line  class="poloto_axis_lines" stroke="black" x1="150" x2="144" y1="146.61016949152543" y2="146.61016949152543" /><line  class="poloto_tick_line" stroke="black" x1="150" x2="650" y1="146.61016949152543" y2="146.61016949152543" /><text  class="poloto_tick_labels poloto_text" dominant-baseline="middle" text-anchor="end" x="135" y="146.61016949152543" >6.5</text><line  class="poloto_axis_lines" stroke="black" x1="150" x2="144" y1="136.01694915254234" y2="136.01694915254234" /><line  class="poloto_tick_line" stroke="black" x1="150" x2="650" y1="136.01694915254234" y2="136.01694915254234" /><text  class="poloto_tick_labels poloto_text" dominant-baseline="middle" text-anchor="end" x="135" y="136.01694915254234" >6.625</text><line  class="poloto_axis_lines" stroke="black" x1="150" x2="144" y1="125.42372881355936" y2="125.42372881355936" /><line  class="poloto_tick_line" stroke="black" x1="150" x2="650" y1="125.42372881355936" y2="125.42372881355936" /><text  class="poloto_tick_labels poloto_text" dominant-baseline="middle" text-anchor="end" x="135" y="125.42372881355936" >6.75</text><line  class="poloto_axis_lines" stroke="black" x1="150" x2="144" y1="114.83050847457628" y2="114.83050847457628" /><line  class="poloto_tick_line" stroke="black" x1="150" x2="650" y1="114.83050847457628" y2="114.83050847457628" /><text  class="poloto_tick_labels poloto_text" dominant-baseline="middle" text-anchor="end" x="135" y="114.83050847457628" >6.875</text><line  class="poloto_axis_lines" stroke="black" x1="150" x2="144" y1="104.23728813559319" y2="104.23728813559319" /><line  class="poloto_tick_line" stroke="black" x1="150" x2="650" y1="104.23728813559319" y2="104.23728813559319" /><text  class="poloto_tick_labels poloto_text" dominant-baseline="middle" text-anchor="end" x="135" y="104.23728813559319" >7</text><text  class="poloto_tick_labels poloto_text" dominant-baseline="middle" text-anchor="start" x="440.00000000000006" y="70" >¹2022-05-01 00:00:00 UTC in Months</text><line  class="poloto_axis_lines" stroke="black" x1="231.2274368231083" x2="231.2274368231083" y1="400" y2="405" /><line  class="poloto_tick_line" stroke="black" x1="231.2274368231083" x2="231.2274368231083" y1="400" y2="100" /><text  class="poloto_tick_labels poloto_text" dominant-baseline="start" text-anchor="middle" x="231.2274368231083" y="430" >2022 May¹</text><line  class="poloto_axis_lines" stroke="black" x1="341.33574007220886" x2="341.33574007220886" y1="400" y2="405" /><line  class="poloto_tick_line" stroke="black" x1="341.33574007220886" x2="341.33574007220886" y1="400" y2="100" /><text  class="poloto_tick_labels poloto_text" dominant-baseline="start" text-anchor="middle" x="341.33574007220886" y="430" >2022 Jul</text><line  class="poloto_axis_lines" stroke="black" x1="453.24909747292986" x2="453.24909747292986" y1="400" y2="405" /><line  class="poloto_tick_line" stroke="black" x1="453.24909747292986" x2="453.24909747292986" y1="400" y2="100" /><text  class="poloto_tick_labels poloto_text" dominant-baseline="start" text-anchor="middle" x="453.24909747292986" y="430" >2022 Sep</text><line  class="poloto_axis_lines" stroke="black" x1="563.3574007220232" x2="563.3574007220232" y1="400" y2="405" /><line  class="poloto_tick_line" stroke="black" x1="563.3574007220232" x2="563.3574007220232" y1="400" y2="100" /><text  class="poloto_tick_labels poloto_text" dominant-baseline="start" text-anchor="middle" x="563.3574007220232" y="430" >2022 Nov</text><path  stroke="black" fill="none" class="poloto_axis_lines" d=" M 150 400 L 650 400" /><path  stroke="black" fill="none" class="poloto_axis_lines" d=" M 150 400 L 150 100" /></svg>