<svg class="poloto" width="800" height="500" viewBox="0 0 800 500" xmlns="http://www.w3.org/2000/svg"><style>.poloto{stroke-linecap:round;stroke-linejoin:round;font-family:Roboto,sans-serif;font-size:16px;}.poloto_background{fill:#262626;}.poloto_scatter{stroke-width:7}.poloto_tick_line{stroke:dimgray;stroke-width:0.5}.poloto_line{stroke-width:2}.poloto_text{fill: white;}.poloto_axis_lines{stroke: white;stroke-width:3;fill:none;stroke-dasharray:none}.poloto_title{font-size:24px;dominant-baseline:start;text-anchor:middle;}.poloto_xname{font-size:24px;dominant-baseline:start;text-anchor:middle;}.poloto_yname{font-size:24px;dominant-baseline:start;text-anchor:middle;}.poloto0stroke{stroke:blue;}.poloto1stroke{stroke:red;}.poloto2stroke{stroke:green;}.poloto3stroke{stroke:gold;}.poloto4stroke{stroke:aqua;}.poloto5stroke{stroke:lime;}.poloto6stroke{stroke:orange;}.poloto7stroke{stroke:chocolate;}.poloto0fill{fill:blue;}.poloto1fill{fill:red;}.poloto2fill{fill:green;}.poloto3fill{fill:gold;}.poloto4fill{fill:aqua;}.poloto5fill{fill:lime;}.poloto6fill{fill:orange;}.poloto7fill{fill:chocolate;}</style><circle  r="1e5" class="poloto_background" /><text  class="poloto_text poloto_legend_text" x="675" y="100" >Refinance 15</text><line  class="poloto_line poloto_legend_icon poloto0stroke poloto0legend" stroke="black" x1="680" x2="730" y1="81.25" y2="81.25" /><path  class="poloto_line poloto0stroke" fill="none" stroke="black" d=" M 150.00 392.46 L 151.58 400.00 L 156.33 389.32 L 157.91 380.17 L 159.49 389.32 L 159.49 389.32 L 162.66 358.81 L 167.41 357.20 L 168.99 367.88 L 170.57 344.83 L 172.15 346.44 L 173.73 341.61 L 178.48 343.22 L 180.06 336.78 L 180.06 336.78 L 183.23 337.37 L 184.81 314.32 L 189.56 324.32 L 191.14 327.54 L 192.72 327.54 L 194.30 326.69 L 195.89 321.78 L 202.22 278.73 L 203.80 297.88 L 205.38 283.05 L 206.96 277.29 L 206.96 277.29 L 213.29 299.58 L 216.46 303.64 L 218.04 294.58 L 222.78 283.81 L 224.37 305.25 L 225.95 294.58 L 225.95 294.58 L 229.11 292.88 L 233.86 296.19 L 235.44 306.86 L 235.44 306.86 L 237.03 297.80 L 238.61 308.56 L 240.19 292.88 L 244.94 325.08 L 246.52 324.32 L 248.10 306.86 L 248.10 306.86 L 249.68 314.32 L 251.27 317.63 L 256.01 317.63 L 257.59 329.15 L 259.18 329.15 L 260.76 329.15 L 262.34 329.15 L 268.67 317.63 L 270.25 314.32 L 271.84 315.93 L 273.42 315.93 L 273.42 315.93 L 279.75 305.25 L 281.33 305.25 L 282.91 296.19 L 289.24 281.36 L 290.82 250.76 L 292.41 254.15 L 293.99 254.15 L 295.57 275.59 L 300.32 254.15 L 301.90 254.15 L 303.48 273.90 L 305.06 277.29 L 311.39 277.29 L 312.97 275.59 L 314.56 280.59 L 316.14 285.51 L 317.72 296.19 L 324.05 303.64 L 325.63 294.58 L 327.22 287.12 L 328.80 283.81 L 333.54 285.51 L 336.71 285.51 L 338.29 283.81 L 344.62 282.20 L 344.62 282.20 L 344.62 282.20 L 344.62 282.20 L 344.62 282.20 L 344.62 282.20 L 347.78 282.20 L 347.78 282.20 L 347.78 282.20 L 347.78 282.20 L 347.78 282.20 L 347.78 282.20 L 355.70 294.58 L 358.86 297.80 L 360.44 325.93 L 362.03 329.15 L 366.77 329.15 L 368.35 327.54 L 369.94 305.25 L 371.52 299.49 L 373.10 285.51 L 377.85 296.19 L 377.85 296.19 L 379.43 287.12 L 382.59 296.19 L 382.59 296.19 L 390.51 296.19 L 392.09 262.46 L 393.67 282.20 L 400.00 248.39 L 403.16 248.39 L 403.16 248.39 L 406.33 260.76 L 412.66 254.15 L 412.66 254.15 L 412.66 254.15 L 412.66 254.15 L 412.66 254.15 L 412.66 254.15 L 412.66 254.15 L 412.66 254.15 L 412.66 254.15 L 417.41 254.15 L 426.90 232.63 L 433.23 235.17 L 433.23 235.17 L 437.97 235.17 L 444.30 235.17 L 445.89 235.17 L 445.89 235.17 L 445.89 235.17 L 445.89 235.17 L 445.89 235.17 L 466.46 235.17 L 468.04 235.17 L 477.53 139.75 L 479.11 130.68 L 480.70 130.68 L 537.66 159.15 L 543.99 159.15 L 545.57 159.15 L 547.15 175.51 L 550.32 184.49 L 550.32 184.49 L 556.65 184.49 L 558.23 184.49 L 559.81 184.49 L 561.39 184.49 L 566.14 184.49 L 567.72 184.49 L 570.89 184.49 L 572.47 184.49 L 577.22 184.49 L 578.80 184.49 L 578.80 184.49 L 583.54 184.49 L 588.29 184.49 L 589.87 184.49 L 591.46 184.49 L 593.04 184.49 L 594.62 184.49 L 600.95 209.15 L 602.53 180.68 L 604.11 159.15 L 605.70 169.92 L 610.44 169.92 L 612.03 169.92 L 612.03 169.92 L 615.19 193.05 L 616.77 193.05 L 621.52 193.05 L 623.10 193.05 L 624.68 193.05 L 626.27 193.05 L 627.85 193.05 L 627.85 193.05 L 627.85 193.05 L 627.85 193.05 L 635.76 193.05 L 638.92 193.05 L 643.67 193.05 L 645.25 193.05 L 648.42 193.05 L 650.00 193.05" /><text  class="poloto_text poloto_legend_text" x="675" y="150" >Refinance 20</text><line  class="poloto_line poloto_legend_icon poloto1stroke poloto1legend" stroke="black" x1="680" x2="730" y1="131.25" y2="131.25" /><path  class="poloto_line poloto1stroke" fill="none" stroke="black" d=" M 150.00 345.68 L 151.58 368.31 L 156.33 334.58 L 157.91 324.24 L 159.49 333.73 L 159.49 333.73 L 162.66 304.07 L 167.41 301.53 L 168.99 312.29 L 170.57 300.25 L 172.15 311.02 L 173.73 290.85 L 178.48 321.69 L 180.06 290.85 L 180.06 290.85 L 183.23 290.85 L 183.23 290.85 L 189.56 250.17 L 191.14 282.71 L 192.72 290.85 L 194.30 301.53 L 195.89 280.59 L 202.22 260.00 L 203.80 257.37 L 205.38 252.12 L 206.96 240.08 L 211.71 245.34 L 213.29 268.14 L 216.46 260.00 L 218.04 257.37 L 222.78 248.81 L 224.37 258.73 L 225.95 258.73 L 225.95 258.73 L 229.11 258.73 L 233.86 260.00 L 235.44 281.44 L 235.44 281.44 L 237.03 269.41 L 238.61 289.58 L 240.19 281.44 L 244.94 282.71 L 246.52 281.44 L 248.10 281.44 L 248.10 281.44 L 249.68 282.71 L 251.27 289.58 L 256.01 290.85 L 257.59 294.66 L 259.18 294.66 L 260.76 294.66 L 262.34 294.66 L 268.67 289.58 L 270.25 278.81 L 271.84 281.44 L 273.42 281.44 L 273.42 281.44 L 279.75 268.14 L 281.33 270.68 L 282.91 261.27 L 289.24 215.85 L 290.82 197.03 L 292.41 207.80 L 293.99 215.85 L 295.57 238.56 L 300.32 225.17 L 301.90 218.47 L 303.48 239.92 L 305.06 250.17 L 311.39 250.17 L 312.97 238.56 L 314.56 249.32 L 316.14 260.00 L 317.72 272.03 L 324.05 280.08 L 325.63 269.41 L 327.22 258.73 L 328.80 251.44 L 333.54 257.37 L 336.71 260.00 L 338.29 258.73 L 344.62 260.00 L 344.62 260.00 L 344.62 260.00 L 344.62 260.00 L 344.62 260.00 L 344.62 260.00 L 344.62 260.00 L 344.62 260.00 L 344.62 260.00 L 344.62 260.00 L 344.62 260.00 L 344.62 260.00 L 355.70 280.08 L 358.86 282.71 L 360.44 301.53 L 362.03 304.07 L 366.77 301.27 L 368.35 301.27 L 369.94 290.85 L 371.52 294.66 L 373.10 278.81 L 377.85 270.68 L 377.85 270.68 L 379.43 270.68 L 382.59 281.44 L 382.59 281.44 L 390.51 278.81 L 392.09 260.00 L 393.67 260.00 L 400.00 246.19 L 403.16 234.58 L 403.16 234.58 L 406.33 247.54 L 412.66 215.85 L 412.66 215.85 L 412.66 215.85 L 412.66 215.85 L 412.66 215.85 L 412.66 215.85 L 412.66 215.85 L 412.66 215.85 L 412.66 215.85 L 417.41 215.85 L 426.90 202.37 L 433.23 203.73 L 436.39 203.73 L 437.97 203.73 L 437.97 203.73 L 445.89 203.73 L 447.47 203.73 L 447.47 203.73 L 447.47 203.73 L 447.47 203.73 L 466.46 203.73 L 468.04 203.73 L 477.53 118.81 L 479.11 102.97 L 479.11 102.97 L 540.82 155.34 L 543.99 155.34 L 545.57 155.34 L 548.73 174.15 L 550.32 175.51 L 550.32 175.51 L 556.65 175.51 L 558.23 175.51 L 559.81 175.51 L 561.39 175.51 L 566.14 175.51 L 567.72 175.51 L 570.89 175.51 L 572.47 175.51 L 577.22 175.51 L 578.80 175.51 L 578.80 175.51 L 583.54 175.51 L 588.29 175.51 L 589.87 175.51 L 591.46 175.51 L 593.04 175.51 L 594.62 175.51 L 600.95 156.36 L 602.53 145.93 L 604.11 144.58 L 605.70 147.37 L 610.44 147.37 L 612.03 147.37 L 612.03 147.37 L 615.19 167.46 L 616.77 167.46 L 621.52 167.46 L 623.10 167.46 L 624.68 167.46 L 626.27 167.46 L 627.85 167.46 L 627.85 167.46 L 634.18 167.46 L 634.18 167.46 L 635.76 167.46 L 638.92 167.46 L 643.67 167.46 L 645.25 167.46 L 648.42 167.46 L 650.00 167.46" /><text  class="poloto_text poloto_legend_text" x="675" y="200" >Refinance 30</text><line  class="poloto_line poloto_legend_icon poloto2stroke poloto2legend" stroke="black" x1="680" x2="730" y1="181.25" y2="181.25" /><path  class="poloto_line poloto2stroke" fill="none" stroke="black" d=" M 150.00 343.31 L 151.58 351.36 L 156.33 338.81 L 157.91 328.98 L 159.49 330.85 L 159.49 330.85 L 162.66 310.25 L 167.41 308.47 L 168.99 319.15 L 170.57 307.54 L 172.15 318.22 L 173.73 297.71 L 178.48 307.54 L 180.06 286.95 L 181.65 286.95 L 183.23 286.02 L 184.81 260.00 L 189.56 264.58 L 191.14 276.27 L 192.72 286.95 L 194.30 277.20 L 195.89 265.51 L 202.22 256.61 L 203.80 242.12 L 205.38 240.17 L 206.96 238.14 L 211.71 242.12 L 213.29 258.73 L 216.46 256.61 L 218.04 254.66 L 222.78 244.07 L 224.37 255.59 L 225.95 244.07 L 225.95 244.07 L 229.11 244.07 L 233.86 246.02 L 235.44 264.58 L 235.44 264.58 L 237.03 255.59 L 238.61 256.61 L 240.19 257.54 L 244.94 265.51 L 246.52 256.61 L 248.10 256.61 L 248.10 256.61 L 249.68 266.44 L 251.27 267.46 L 256.01 268.39 L 257.59 277.20 L 259.18 277.20 L 260.76 279.07 L 262.34 279.07 L 268.67 275.25 L 270.25 264.58 L 271.84 266.44 L 273.42 265.51 L 273.42 265.51 L 279.75 255.59 L 281.33 255.59 L 282.91 245.00 L 289.24 202.12 L 290.82 171.78 L 292.41 190.34 L 293.99 202.12 L 295.57 212.80 L 300.32 203.05 L 301.90 202.12 L 303.48 221.61 L 305.06 223.56 L 311.39 223.56 L 312.97 211.86 L 314.56 221.61 L 316.14 232.29 L 317.72 255.59 L 324.05 256.61 L 325.63 245.00 L 327.22 224.58 L 328.80 221.61 L 333.54 241.10 L 336.71 223.56 L 338.29 222.54 L 344.62 242.12 L 344.62 242.12 L 344.62 242.12 L 344.62 242.12 L 344.62 242.12 L 344.62 242.12 L 347.78 242.12 L 347.78 242.12 L 347.78 242.12 L 347.78 242.12 L 347.78 242.12 L 347.78 242.12 L 355.70 254.66 L 358.86 256.61 L 360.44 275.25 L 362.03 287.88 L 366.77 286.95 L 368.35 286.95 L 369.94 265.51 L 371.52 268.39 L 373.10 254.66 L 377.85 265.51 L 377.85 265.51 L 379.43 257.54 L 382.59 266.44 L 382.59 266.44 L 390.51 264.58 L 392.09 246.02 L 393.67 245.00 L 400.00 220.59 L 403.16 211.86 L 403.16 211.86 L 406.33 222.54 L 412.66 210.85 L 412.66 210.85 L 412.66 210.85 L 412.66 210.85 L 412.66 210.85 L 412.66 210.85 L 412.66 210.85 L 412.66 210.85 L 417.41 210.85 L 417.41 209.83 L 426.90 197.03 L 433.23 175.51 L 433.23 175.51 L 437.97 175.51 L 437.97 175.51 L 445.89 175.51 L 447.47 175.51 L 447.47 175.51 L 447.47 175.51 L 447.47 175.51 L 466.46 175.51 L 468.04 175.51 L 477.53 127.03 L 479.11 100.00 L 479.11 100.00 L 540.82 146.44 L 543.99 146.44 L 545.57 146.44 L 547.15 150.76 L 550.32 160.59 L 550.32 160.59 L 556.65 160.59 L 558.23 160.59 L 559.81 160.59 L 561.39 160.59 L 566.14 160.59 L 567.72 160.59 L 570.89 160.59 L 572.47 160.59 L 577.22 160.59 L 578.80 160.59 L 578.80 160.59 L 583.54 160.59 L 588.29 160.59 L 589.87 160.59 L 591.46 160.59 L 593.04 160.59 L 594.62 160.59 L 600.95 144.24 L 602.53 152.88 L 604.11 132.37 L 605.70 152.88 L 610.44 152.88 L 612.03 152.88 L 612.03 152.88 L 615.19 152.88 L 616.77 152.88 L 621.52 152.88 L 623.10 152.88 L 624.68 152.88 L 626.27 152.88 L 627.85 152.88 L 627.85 152.88 L 634.18 152.88 L 634.18 152.88 L 635.76 152.88 L 638.92 152.88 L 643.67 152.88 L 645.25 152.88 L 648.42 152.88 L 650.00 152.88" /><text  class="poloto_labels poloto_text poloto_title" x="400" y="37.5" >lower.com purchase rates</text><text  class="poloto_labels poloto_text poloto_xname" x="400" y="481.25" >Date</text><text  class="poloto_labels poloto_text poloto_yname" transform="rotate(-90,37.5,250)" x="37.5" y="250" >Rate (%)</text><text  class="poloto_tick_labels poloto_text" dominant-baseline="middle" text-anchor="start" x="150" y="70" ></text><line  class="poloto_axis_lines" stroke="black" x1="150" x2="144" y1="390.2542372881356" y2="390.2542372881356" /><line  class="poloto_tick_line" stroke="black" x1="150" x2="650" y1="390.2542372881356" y2="390.2542372881356" /><text  class="poloto_tick_labels poloto_text" dominant-baseline="middle" text-anchor="end" x="135" y="390.2542372881356" >3.625</text><line  class="poloto_axis_lines" stroke="black" x1="150" x2="144" y1="379.66101694915255" y2="379.66101694915255" /><line  class="poloto_tick_line" stroke="black" x1="150" x2="650" y1="379.66101694915255" y2="379.66101694915255" /><text  class="poloto_tick_labels poloto_text" dominant-baseline="middle" text-anchor="end" x="135" y="379.66101694915255" >3.75</text><line  class="poloto_axis_lines" stroke="black" x1="150" x2="144" y1="369.06779661016947" y2="369.06779661016947" /><line  class="poloto_tick_line" stroke="black" x1="150" x2="650" y1="369.06779661016947" y2="369.06779661016947" /><text  class="poloto_tick_labels poloto_text" dominant-baseline="middle" text-anchor="end" x="135" y="369.06779661016947" >3.875</text><line  class="poloto_axis_lines" stroke="black" x1="150" x2="144" y1="358.47457627118644" y2="358.47457627118644" /><line  class="poloto_tick_line" stroke="black" x1="150" x2="650" y1="358.47457627118644" y2="358.47457627118644" /><text  class="poloto_tick_labels poloto_text" dominant-baseline="middle" text-anchor="end" x="135" y="358.47457627118644" >4</text><line  class="poloto_axis_lines" stroke="black" x1="150" x2="144" y1="347.8813559322034" y2="347.8813559322034" /><line  class="poloto_tick_line" stroke="black" x1="150" x2="650" y1="347.8813559322034" y2="347.8813559322034" /><text  class="poloto_tick_labels poloto_text" dominant-baseline="middle" text-anchor="end" x="135" y="347.8813559322034" >4.125</text><line  class="poloto_axis_lines" stroke="black" x1="150" x2="144" y1="337.2881355932203" y2="337.2881355932203" /><line  class="poloto_tick_line" stroke="black" x1="150" x2="650" y1="337.2881355932203" y2="337.2881355932203" /><text  class="poloto_tick_labels poloto_text" dominant-baseline="middle" text-anchor="end" x="135" y="337.2881355932203" >4.25</text><line  class="poloto_axis_lines" stroke="black" x1="150" x2="144" y1="326.6949152542373" y2="326.6949152542373" /><line  class="poloto_tick_line" stroke="black" x1="150" x2="650" y1="326.6949152542373" y2="326.6949152542373" /><text  class="poloto_tick_labels poloto_text" dominant-baseline="middle" text-anchor="end" x="135" y="326.6949152542373" >4.375</text><line  class="poloto_axis_lines" stroke="black" x1="150" x2="144" y1="316.10169491525426" y2="316.10169491525426" /><line  class="poloto_tick_line" stroke="black" x1="150" x2="650" y1="316.10169491525426" y2="316.10169491525426" /><text  class="poloto_tick_labels poloto_text" dominant-baseline="middle" text-anchor="end" x="135" y="316.10169491525426" >4.5</text><line  class="poloto_axis_lines" stroke="black" x1="150" x2="144" y1="305.50847457627117" y2="305.50847457627117" /><line  class="poloto_tick_line" stroke="black" x1="150" x2="650" y1="305.50847457627117" y2="305.50847457627117" /><text  class="poloto_tick_labels poloto_text" dominant-baseline="middle" text-anchor="end" x="135" y="305.50847457627117" >4.625</text><line  class="poloto_axis_lines" stroke="black" x1="150" x2="144" y1="294.91525423728814" y2="294.91525423728814" /><line  class="poloto_tick_line" stroke="black" x1="150" x2="650" y1="294.91525423728814" y2="294.91525423728814" /><text  class="poloto_tick_labels poloto_text" dominant-baseline="middle" text-anchor="end" x="135" y="294.91525423728814" >4.75</text><line  class="poloto_axis_lines" stroke="black" x1="150" x2="144" y1="284.3220338983051" y2="284.3220338983051" /><line  class="poloto_tick_line" stroke="black" x1="150" x2="650" y1="284.3220338983051" y2="284.3220338983051" /><text  class="poloto_tick_labels poloto_text" dominant-baseline="middle" text-anchor="end" x="135" y="284.3220338983051" >4.875</text><line  class="poloto_axis_lines" stroke="black" x1="150" x2="144" y1="273.728813559322" y2="273.728813559322" /><line  class="poloto_tick_line" stroke="black" x1="150" x2="650" y1="273.728813559322" y2="273.728813559322" /><text  class="poloto_tick_labels poloto_text" dominant-baseline="middle" text-anchor="end" x="135" y="273.728813559322" >5</text><line  class="poloto_axis_lines" stroke="black" x1="150" x2="144" y1="263.135593220339" y2="263.135593220339" /><line  class="poloto_tick_line" stroke="black" x1="150" x2="650" y1="263.135593220339" y2="263.135593220339" /><text  class="poloto_tick_labels poloto_text" dominant-baseline="middle" text-anchor="end" x="135" y="263.135593220339" >5.125</text><line  class="poloto_axis_lines" stroke="black" x1="150" x2="144" y1="252.54237288135596" y2="252.54237288135596" /><line  class="poloto_tick_line" stroke="black" x1="150" x2="650" y1="252.54237288135596" y2="252.54237288135596" /><text  class="poloto_tick_labels poloto_text" dominant-baseline="middle" text-anchor="end" x="135" y="252.54237288135596" >5.25</text><line  class="poloto_axis_lines" stroke="black" x1="150" x2="144" y1="241.94915254237287" y2="241.94915254237287" /><line  class="poloto_tick_line" stroke="black" x1="150" x2="650" y1="241.94915254237287" y2="241.94915254237287" /><text  class="poloto_tick_labels poloto_text" dominant-baseline="middle" text-anchor="end" x="135" y="241.94915254237287" >5.375</text><line  class="poloto_axis_lines" stroke="black" x1="150" x2="144" y1="231.35593220338984" y2="231.35593220338984" /><line  class="poloto_tick_line" stroke="black" x1="150" x2="650" y1="231.35593220338984" y2="231.35593220338984" /><text  class="poloto_tick_labels poloto_text" dominant-baseline="middle" text-anchor="end" x="135" y="231.35593220338984" >5.5</text><line  class="poloto_axis_lines" stroke="black" x1="150" x2="144" y1="220.7627118644068" y2="220.7627118644068" /><line  class="poloto_tick_line" stroke="black" x1="150" x2="650" y1="220.7627118644068" y2="220.7627118644068" /><text  class="poloto_tick_labels poloto_text" dominant-baseline="middle" text-anchor="end" x="135" y="220.7627118644068" >5.625</text><line  class="poloto_axis_lines" stroke="black" x1="150" x2="144" y1="210.16949152542372" y2="210.16949152542372" /><line  class="poloto_tick_line" stroke="black" x1="150" x2="650" y1="210.16949152542372" y2="210.16949152542372" /><text  class="poloto_tick_labels poloto_text" dominant-baseline="middle" text-anchor="end" x="135" y="210.16949152542372" >5.75</text><line  class="poloto_axis_lines" stroke="black" x1="150" x2="144" y1="199.5762711864407" y2="199.5762711864407" /><line  class="poloto_tick_line" stroke="black" x1="150" x2="650" y1="199.5762711864407" y2="199.5762711864407" /><text  class="poloto_tick_labels poloto_text" dominant-baseline="middle" text-anchor="end" x="135" y="199.5762711864407" >5.875</text><line  class="poloto_axis_lines" stroke="black" x1="150" x2="144" y1="188.98305084745766" y2="188.98305084745766" /><line  class="poloto_tick_line" stroke="black" x1="150" x2="650" y1="188.98305084745766" y2="188.98305084745766" /><text  class="poloto_tick_labels poloto_text" dominant-baseline="middle" text-anchor="end" x="135" y="188.98305084745766" >6</text><line  class="poloto_axis_lines" stroke="black" x1="150" x2="144" y1="178.38983050847457" y2="178.38983050847457" /><line  class="poloto_tick_line" stroke="black" x1="150" x2="650" y1="178.38983050847457" y2="178.38983050847457" /><text  class="poloto_tick_labels poloto_text" dominant-baseline="middle" text-anchor="end" x="135" y="178.38983050847457" >6.125</text><line  class="poloto_axis_lines" stroke="black" x1="150" x2="144" y1="167.7966101694915" y2="167.7966101694915" /><line  class="poloto_tick_line" stroke="black" x1="150" x2="650" y1="167.7966101694915" y2="167.7966101694915" /><text  class="poloto_tick_labels poloto_text" dominant-baseline="middle" text-anchor="end" x="135" y="167.7966101694915" >6.25</text><line  class="poloto_axis_lines" stroke="black" x1="150" x2="144" y1="157.2033898305085" y2="157.2033898305085" /><line  class="poloto_tick_line" stroke="black" x1="150" x2="650" y1="157.2033898305085" y2="157.2033898305085" /><text  class="poloto_tick_labels poloto_text" dominant-baseline="middle" text-anchor="end" x="135" y="157.2033898305085" >6.375</text><line  class="poloto_axis_lines" stroke="black" x1="150" x2="144" y1="146.61016949152543" y2="146.61016949152543" /><line  class="poloto_tick_line" stroke="black" x1="150" x2="650" y1="146.61016949152543" y2="146.61016949152543" /><text  class="poloto_tick_labels poloto_text" dominant-baseline="middle" text-anchor="end" x="135" y="146.61016949152543" >6.5</text><line  class="poloto_axis_lines" stroke="black" x1="150" x2="144" y1="136.01694915254234" y2="136.01694915254234" /><line  class="poloto_tick_line" stroke="black" x1="150" x2="650" y1="136.01694915254234" y2="136.01694915254234" /><text  class="poloto_tick_labels poloto_text" dominant-baseline="middle" text-anchor="end" x="135" y="136.01694915254234" >6.625</text><line  class="poloto_axis_lines" stroke="black" x1="150" x2="144" y1="125.42372881355936" y2="125.42372881355936" /><line  class="poloto_tick_line" stroke="black" x1="150" x2="650" y1="125.42372881355936" y2="125.42372881355936" /><text  class="poloto_tick_labels poloto_text" dominant-baseline="middle" text-anchor="end" x="135" y="125.42372881355936" >6.75</text><line  class="poloto_axis_lines" stroke="black" x1="150" x2="144" y1="114.83050847457628" y2="114.83050847457628" /><line  class="poloto_tick_line" stroke="black" x1="150" x2="650" y1="114.83050847457628" y2="114.83050847457628" /><text  class="poloto_tick_labels poloto_text" dominant-baseline="middle" text-anchor="end" x="135" y="114.83050847457628" >6.875</text><line  class="poloto_axis_lines" stroke="black" x1="150" x2="144" y1="104.23728813559319" y2="104.23728813559319" /><line  class="poloto_tick_line" stroke="black" x1="150" x2="650" y1="104.23728813559319" y2="104.23728813559319" /><text  class="poloto_tick_labels poloto_text" dominant-baseline="middle" text-anchor="end" x="135" y="104.23728813559319" >7</text><text  class="poloto_tick_labels poloto_text" dominant-baseline="middle" text-anchor="start" x="440.00000000000006" y="70" >¹2022-05-01 00:00:00 UTC in Months</text><line  class="poloto_axis_lines" stroke="black" x1="221.20253164556925" x2="221.20253164556925" y1="400" y2="405" /><line  class="poloto_tick_line" stroke="black" x1="221.20253164556925" x2="221.20253164556925" y1="400" y2="100" /><text  class="poloto_tick_labels poloto_text" dominant-baseline="start" text-anchor="middle" x="221.20253164556925" y="430" >2022 May¹</text><line  class="poloto_axis_lines" stroke="black" x1="317.7215189873423" x2="317.7215189873423" y1="400" y2="405" /><line  class="poloto_tick_line" stroke="black" x1="317.7215189873423" x2="317.7215189873423" y1="400" y2="100" /><text  class="poloto_tick_labels poloto_text" dominant-baseline="start" text-anchor="middle" x="317.7215189873423" y="430" >2022 Jul</text><line  class="poloto_axis_lines" stroke="black" x1="415.8227848101269" x2="415.8227848101269" y1="400" y2="405" /><line  class="poloto_tick_line" stroke="black" x1="415.8227848101269" x2="415.8227848101269" y1="400" y2="100" /><text  class="poloto_tick_labels poloto_text" dominant-baseline="start" text-anchor="middle" x="415.8227848101269" y="430" >2022 Sep</text><line  class="poloto_axis_lines" stroke="black" x1="512.3417721518999" x2="512.3417721518999" y1="400" y2="405" /><line  class="poloto_tick_line" stroke="black" x1="512.3417721518999" x2="512.3417721518999" y1="400" y2="100" /><text  class="poloto_tick_labels poloto_text" dominant-baseline="start" text-anchor="middle" x="512.3417721518999" y="430" >2022 Nov</text><line  class="poloto_axis_lines" stroke="black" x1="608.860759493673" x2="608.860759493673" y1="400" y2="405" /><line  class="poloto_tick_line" stroke="black" x1="608.860759493673" x2="608.860759493673" y1="400" y2="100" /><text  class="poloto_tick_labels poloto_text" dominant-baseline="start" text-anchor="middle" x="608.860759493673" y="430" >2023 Jan</text><path  stroke="black" fill="none" class="poloto_axis_lines" d=" M 150 400 L 650 400" /><path  stroke="black" fill="none" class="poloto_axis_lines" d=" M 150 400 L 150 100" /></svg>