<svg class="poloto" width="800" height="500" viewBox="0 0 800 500" xmlns="http://www.w3.org/2000/svg"><style>.poloto{stroke-linecap:round;stroke-linejoin:round;font-family:Roboto,sans-serif;font-size:16px;}.poloto_background{fill:#262626;}.poloto_scatter{stroke-width:7}.poloto_tick_line{stroke:dimgray;stroke-width:0.5}.poloto_line{stroke-width:2}.poloto_text{fill: white;}.poloto_axis_lines{stroke: white;stroke-width:3;fill:none;stroke-dasharray:none}.poloto_title{font-size:24px;dominant-baseline:start;text-anchor:middle;}.poloto_xname{font-size:24px;dominant-baseline:start;text-anchor:middle;}.poloto_yname{font-size:24px;dominant-baseline:start;text-anchor:middle;}.poloto0stroke{stroke:blue;}.poloto1stroke{stroke:red;}.poloto2stroke{stroke:green;}.poloto3stroke{stroke:gold;}.poloto4stroke{stroke:aqua;}.poloto5stroke{stroke:lime;}.poloto6stroke{stroke:orange;}.poloto7stroke{stroke:chocolate;}.poloto0fill{fill:blue;}.poloto1fill{fill:red;}.poloto2fill{fill:green;}.poloto3fill{fill:gold;}.poloto4fill{fill:aqua;}.poloto5fill{fill:lime;}.poloto6fill{fill:orange;}.poloto7fill{fill:chocolate;}</style><circle  r="1e5" class="poloto_background" /><text  class="poloto_text poloto_legend_text" x="675" y="100" >Refinance 15</text><line  class="poloto_line poloto_legend_icon poloto0stroke poloto0legend" stroke="black" x1="680" x2="730" y1="81.25" y2="81.25" /><path  class="poloto_line poloto0stroke" fill="none" stroke="black" d=" M 150.00 390.09 L 152.76 400.00 L 161.05 385.96 L 163.81 373.93 L 166.57 385.96 L 166.57 385.96 L 172.10 345.86 L 180.39 343.74 L 183.15 357.78 L 185.91 327.48 L 188.67 329.60 L 191.44 323.25 L 199.72 325.36 L 202.49 316.90 L 202.49 316.90 L 208.01 317.68 L 210.77 287.37 L 219.06 300.52 L 221.82 304.75 L 224.59 304.75 L 227.35 303.64 L 230.11 297.18 L 241.16 240.59 L 243.92 265.76 L 246.69 246.27 L 249.45 238.69 L 249.45 238.69 L 260.50 267.99 L 266.02 273.34 L 268.78 261.42 L 277.07 247.27 L 279.83 275.45 L 282.60 261.42 L 282.60 261.42 L 288.12 259.19 L 296.41 263.54 L 299.17 277.57 L 299.17 277.57 L 301.93 265.65 L 304.70 279.80 L 307.46 259.19 L 315.75 301.52 L 318.51 300.52 L 321.27 277.57 L 321.27 277.57 L 324.03 287.37 L 326.80 291.72 L 335.08 291.72 L 337.85 306.87 L 340.61 306.87 L 343.37 306.87 L 346.13 306.87 L 357.18 291.72 L 359.94 287.37 L 362.71 289.49 L 365.47 289.49 L 365.47 289.49 L 376.52 275.45 L 379.28 275.45 L 382.04 263.54 L 393.09 244.04 L 395.86 203.82 L 398.62 208.28 L 401.38 208.28 L 404.14 236.46 L 412.43 208.28 L 415.19 208.28 L 417.96 234.24 L 420.72 238.69 L 431.77 238.69 L 434.53 236.46 L 437.29 243.04 L 440.06 249.50 L 442.82 263.54 L 453.87 273.34 L 456.63 261.42 L 459.39 251.62 L 462.15 247.27 L 470.44 249.50 L 475.97 249.50 L 478.73 247.27 L 489.78 245.15 L 489.78 245.15 L 489.78 245.15 L 489.78 245.15 L 489.78 245.15 L 489.78 245.15 L 495.30 245.15 L 495.30 245.15 L 495.30 245.15 L 495.30 245.15 L 495.30 245.15 L 495.30 245.15 L 509.12 261.42 L 514.64 265.65 L 517.40 302.64 L 520.17 306.87 L 528.45 306.87 L 531.22 304.75 L 533.98 275.45 L 536.74 267.88 L 539.50 249.50 L 547.79 263.54 L 547.79 263.54 L 550.55 251.62 L 556.08 263.54 L 556.08 263.54 L 569.89 263.54 L 572.65 219.20 L 575.41 245.15 L 586.46 200.71 L 591.99 200.71 L 591.99 200.71 L 597.51 216.97 L 608.56 208.28 L 608.56 208.28 L 608.56 208.28 L 608.56 208.28 L 608.56 208.28 L 608.56 208.28 L 608.56 208.28 L 608.56 208.28 L 608.56 208.28 L 616.85 208.28 L 633.43 179.99 L 644.48 183.33 L 644.48 183.33" /><text  class="poloto_text poloto_legend_text" x="675" y="150" >Refinance 20</text><line  class="poloto_line poloto_legend_icon poloto1stroke poloto1legend" stroke="black" x1="680" x2="730" y1="131.25" y2="131.25" /><path  class="poloto_line poloto1stroke" fill="none" stroke="black" d=" M 150.00 328.59 L 152.76 358.34 L 161.05 314.00 L 163.81 300.41 L 166.57 312.89 L 166.57 312.89 L 172.10 273.90 L 180.39 270.55 L 183.15 284.70 L 185.91 268.88 L 188.67 283.03 L 191.44 256.52 L 199.72 297.07 L 202.49 256.52 L 202.49 256.52 L 208.01 256.52 L 208.01 256.52 L 219.06 203.04 L 221.82 245.82 L 224.59 256.52 L 227.35 270.55 L 230.11 243.04 L 241.16 215.97 L 243.92 212.51 L 246.69 205.61 L 249.45 189.79 L 257.73 196.70 L 260.50 226.66 L 266.02 215.97 L 268.78 212.51 L 277.07 201.26 L 279.83 214.30 L 282.60 214.30 L 282.60 214.30 L 288.12 214.30 L 296.41 215.97 L 299.17 244.15 L 299.17 244.15 L 301.93 228.33 L 304.70 254.85 L 307.46 244.15 L 315.75 245.82 L 318.51 244.15 L 321.27 244.15 L 321.27 244.15 L 324.03 245.82 L 326.80 254.85 L 335.08 256.52 L 337.85 261.53 L 340.61 261.53 L 343.37 261.53 L 346.13 261.53 L 357.18 254.85 L 359.94 240.70 L 362.71 244.15 L 365.47 244.15 L 365.47 244.15 L 376.52 226.66 L 379.28 230.00 L 382.04 217.64 L 393.09 157.93 L 395.86 133.20 L 398.62 147.34 L 401.38 157.93 L 404.14 187.78 L 412.43 170.18 L 415.19 161.38 L 417.96 189.57 L 420.72 203.04 L 431.77 203.04 L 434.53 187.78 L 437.29 201.93 L 440.06 215.97 L 442.82 231.79 L 453.87 242.37 L 456.63 228.33 L 459.39 214.30 L 462.15 204.72 L 470.44 212.51 L 475.97 215.97 L 478.73 214.30 L 489.78 215.97 L 489.78 215.97 L 489.78 215.97 L 489.78 215.97 L 489.78 215.97 L 489.78 215.97 L 489.78 215.97 L 489.78 215.97 L 489.78 215.97 L 489.78 215.97 L 489.78 215.97 L 489.78 215.97 L 509.12 242.37 L 514.64 245.82 L 517.40 270.55 L 520.17 273.90 L 528.45 270.22 L 531.22 270.22 L 533.98 256.52 L 536.74 261.53 L 539.50 240.70 L 547.79 230.00 L 547.79 230.00 L 550.55 230.00 L 556.08 244.15 L 556.08 244.15 L 569.89 240.70 L 572.65 215.97 L 575.41 215.97 L 586.46 197.81 L 591.99 182.55 L 591.99 182.55 L 597.51 199.59 L 608.56 157.93 L 608.56 157.93 L 608.56 157.93 L 608.56 157.93 L 608.56 157.93 L 608.56 157.93 L 608.56 157.93 L 608.56 157.93 L 608.56 157.93 L 616.85 157.93 L 633.43 140.22 L 644.48 142.00 L 650.00 142.00" /><text  class="poloto_text poloto_legend_text" x="675" y="200" >Refinance 30</text><line  class="poloto_line poloto_legend_icon poloto2stroke poloto2legend" stroke="black" x1="680" x2="730" y1="181.25" y2="181.25" /><path  class="poloto_line poloto2stroke" fill="none" stroke="black" d=" M 150.00 325.47 L 152.76 336.06 L 161.05 319.57 L 163.81 306.65 L 166.57 309.10 L 166.57 309.10 L 172.10 282.03 L 180.39 279.69 L 183.15 293.72 L 185.91 278.46 L 188.67 292.50 L 191.44 265.54 L 199.72 278.46 L 202.49 251.39 L 205.25 251.39 L 208.01 250.17 L 210.77 215.97 L 219.06 221.98 L 221.82 237.36 L 224.59 251.39 L 227.35 238.58 L 230.11 223.21 L 241.16 211.51 L 243.92 192.46 L 246.69 189.90 L 249.45 187.23 L 257.73 192.46 L 260.50 214.30 L 266.02 211.51 L 268.78 208.95 L 277.07 195.02 L 279.83 210.17 L 282.60 195.02 L 282.60 195.02 L 288.12 195.02 L 296.41 197.59 L 299.17 221.98 L 299.17 221.98 L 301.93 210.17 L 304.70 211.51 L 307.46 212.74 L 315.75 223.21 L 318.51 211.51 L 321.27 211.51 L 321.27 211.51 L 324.03 224.43 L 326.80 225.77 L 335.08 227.00 L 337.85 238.58 L 340.61 238.58 L 343.37 241.03 L 346.13 241.03 L 357.18 236.02 L 359.94 221.98 L 362.71 224.43 L 365.47 223.21 L 365.47 223.21 L 376.52 210.17 L 379.28 210.17 L 382.04 196.25 L 393.09 139.88 L 395.86 100.00 L 398.62 124.40 L 401.38 139.88 L 404.14 153.92 L 412.43 141.11 L 415.19 139.88 L 417.96 165.50 L 420.72 168.07 L 431.77 168.07 L 434.53 152.69 L 437.29 165.50 L 440.06 179.54 L 442.82 210.17 L 453.87 211.51 L 456.63 196.25 L 459.39 169.40 L 462.15 165.50 L 470.44 191.13 L 475.97 168.07 L 478.73 166.73 L 489.78 192.46 L 489.78 192.46 L 489.78 192.46 L 489.78 192.46 L 489.78 192.46 L 489.78 192.46 L 495.30 192.46 L 495.30 192.46 L 495.30 192.46 L 495.30 192.46 L 495.30 192.46 L 495.30 192.46 L 509.12 208.95 L 514.64 211.51 L 517.40 236.02 L 520.17 252.62 L 528.45 251.39 L 531.22 251.39 L 533.98 223.21 L 536.74 227.00 L 539.50 208.95 L 547.79 223.21 L 547.79 223.21 L 550.55 212.74 L 556.08 224.43 L 556.08 224.43 L 569.89 221.98 L 572.65 197.59 L 575.41 196.25 L 586.46 164.17 L 591.99 152.69 L 591.99 152.69 L 597.51 166.73 L 608.56 151.36 L 608.56 151.36 L 608.56 151.36 L 608.56 151.36 L 608.56 151.36 L 608.56 151.36 L 608.56 151.36 L 608.56 151.36 L 616.85 151.36 L 616.85 150.02 L 633.43 133.20 L 644.48 104.90 L 644.48 104.90" /><text  class="poloto_labels poloto_text poloto_title" x="400" y="37.5" >lower.com purchase rates</text><text  class="poloto_labels poloto_text poloto_xname" x="400" y="481.25" >Date</text><text  class="poloto_labels poloto_text poloto_yname" transform="rotate(-90,37.5,250)" x="37.5" y="250" >Rate (%)</text><text  class="poloto_tick_labels poloto_text" dominant-baseline="middle" text-anchor="start" x="150" y="70" ></text><line  class="poloto_axis_lines" stroke="black" x1="150" x2="144" y1="387.18900854066095" y2="387.18900854066095" /><line  class="poloto_tick_line" stroke="black" x1="150" x2="650" y1="387.18900854066095" y2="387.18900854066095" /><text  class="poloto_tick_labels poloto_text" dominant-baseline="middle" text-anchor="end" x="135" y="387.18900854066095" >3.625</text><line  class="poloto_axis_lines" stroke="black" x1="150" x2="144" y1="373.26401782398807" y2="373.26401782398807" /><line  class="poloto_tick_line" stroke="black" x1="150" x2="650" y1="373.26401782398807" y2="373.26401782398807" /><text  class="poloto_tick_labels poloto_text" dominant-baseline="middle" text-anchor="end" x="135" y="373.26401782398807" >3.75</text><line  class="poloto_axis_lines" stroke="black" x1="150" x2="144" y1="359.33902710731525" y2="359.33902710731525" /><line  class="poloto_tick_line" stroke="black" x1="150" x2="650" y1="359.33902710731525" y2="359.33902710731525" /><text  class="poloto_tick_labels poloto_text" dominant-baseline="middle" text-anchor="end" x="135" y="359.33902710731525" >3.875</text><line  class="poloto_axis_lines" stroke="black" x1="150" x2="144" y1="345.41403639064237" y2="345.41403639064237" /><line  class="poloto_tick_line" stroke="black" x1="150" x2="650" y1="345.41403639064237" y2="345.41403639064237" /><text  class="poloto_tick_labels poloto_text" dominant-baseline="middle" text-anchor="end" x="135" y="345.41403639064237" >4</text><line  class="poloto_axis_lines" stroke="black" x1="150" x2="144" y1="331.4890456739695" y2="331.4890456739695" /><line  class="poloto_tick_line" stroke="black" x1="150" x2="650" y1="331.4890456739695" y2="331.4890456739695" /><text  class="poloto_tick_labels poloto_text" dominant-baseline="middle" text-anchor="end" x="135" y="331.4890456739695" >4.125</text><line  class="poloto_axis_lines" stroke="black" x1="150" x2="144" y1="317.56405495729666" y2="317.56405495729666" /><line  class="poloto_tick_line" stroke="black" x1="150" x2="650" y1="317.56405495729666" y2="317.56405495729666" /><text  class="poloto_tick_labels poloto_text" dominant-baseline="middle" text-anchor="end" x="135" y="317.56405495729666" >4.25</text><line  class="poloto_axis_lines" stroke="black" x1="150" x2="144" y1="303.6390642406238" y2="303.6390642406238" /><line  class="poloto_tick_line" stroke="black" x1="150" x2="650" y1="303.6390642406238" y2="303.6390642406238" /><text  class="poloto_tick_labels poloto_text" dominant-baseline="middle" text-anchor="end" x="135" y="303.6390642406238" >4.375</text><line  class="poloto_axis_lines" stroke="black" x1="150" x2="144" y1="289.71407352395096" y2="289.71407352395096" /><line  class="poloto_tick_line" stroke="black" x1="150" x2="650" y1="289.71407352395096" y2="289.71407352395096" /><text  class="poloto_tick_labels poloto_text" dominant-baseline="middle" text-anchor="end" x="135" y="289.71407352395096" >4.5</text><line  class="poloto_axis_lines" stroke="black" x1="150" x2="144" y1="275.7890828072781" y2="275.7890828072781" /><line  class="poloto_tick_line" stroke="black" x1="150" x2="650" y1="275.7890828072781" y2="275.7890828072781" /><text  class="poloto_tick_labels poloto_text" dominant-baseline="middle" text-anchor="end" x="135" y="275.7890828072781" >4.625</text><line  class="poloto_axis_lines" stroke="black" x1="150" x2="144" y1="261.86409209060525" y2="261.86409209060525" /><line  class="poloto_tick_line" stroke="black" x1="150" x2="650" y1="261.86409209060525" y2="261.86409209060525" /><text  class="poloto_tick_labels poloto_text" dominant-baseline="middle" text-anchor="end" x="135" y="261.86409209060525" >4.75</text><line  class="poloto_axis_lines" stroke="black" x1="150" x2="144" y1="247.93910137393243" y2="247.93910137393243" /><line  class="poloto_tick_line" stroke="black" x1="150" x2="650" y1="247.93910137393243" y2="247.93910137393243" /><text  class="poloto_tick_labels poloto_text" dominant-baseline="middle" text-anchor="end" x="135" y="247.93910137393243" >4.875</text><line  class="poloto_axis_lines" stroke="black" x1="150" x2="144" y1="234.0141106572595" y2="234.0141106572595" /><line  class="poloto_tick_line" stroke="black" x1="150" x2="650" y1="234.0141106572595" y2="234.0141106572595" /><text  class="poloto_tick_labels poloto_text" dominant-baseline="middle" text-anchor="end" x="135" y="234.0141106572595" >5</text><line  class="poloto_axis_lines" stroke="black" x1="150" x2="144" y1="220.08911994058667" y2="220.08911994058667" /><line  class="poloto_tick_line" stroke="black" x1="150" x2="650" y1="220.08911994058667" y2="220.08911994058667" /><text  class="poloto_tick_labels poloto_text" dominant-baseline="middle" text-anchor="end" x="135" y="220.08911994058667" >5.125</text><line  class="poloto_axis_lines" stroke="black" x1="150" x2="144" y1="206.16412922391385" y2="206.16412922391385" /><line  class="poloto_tick_line" stroke="black" x1="150" x2="650" y1="206.16412922391385" y2="206.16412922391385" /><text  class="poloto_tick_labels poloto_text" dominant-baseline="middle" text-anchor="end" x="135" y="206.16412922391385" >5.25</text><line  class="poloto_axis_lines" stroke="black" x1="150" x2="144" y1="192.23913850724102" y2="192.23913850724102" /><line  class="poloto_tick_line" stroke="black" x1="150" x2="650" y1="192.23913850724102" y2="192.23913850724102" /><text  class="poloto_tick_labels poloto_text" dominant-baseline="middle" text-anchor="end" x="135" y="192.23913850724102" >5.375</text><line  class="poloto_axis_lines" stroke="black" x1="150" x2="144" y1="178.3141477905681" y2="178.3141477905681" /><line  class="poloto_tick_line" stroke="black" x1="150" x2="650" y1="178.3141477905681" y2="178.3141477905681" /><text  class="poloto_tick_labels poloto_text" dominant-baseline="middle" text-anchor="end" x="135" y="178.3141477905681" >5.5</text><line  class="poloto_axis_lines" stroke="black" x1="150" x2="144" y1="164.38915707389526" y2="164.38915707389526" /><line  class="poloto_tick_line" stroke="black" x1="150" x2="650" y1="164.38915707389526" y2="164.38915707389526" /><text  class="poloto_tick_labels poloto_text" dominant-baseline="middle" text-anchor="end" x="135" y="164.38915707389526" >5.625</text><line  class="poloto_axis_lines" stroke="black" x1="150" x2="144" y1="150.46416635722244" y2="150.46416635722244" /><line  class="poloto_tick_line" stroke="black" x1="150" x2="650" y1="150.46416635722244" y2="150.46416635722244" /><text  class="poloto_tick_labels poloto_text" dominant-baseline="middle" text-anchor="end" x="135" y="150.46416635722244" >5.75</text><line  class="poloto_axis_lines" stroke="black" x1="150" x2="144" y1="136.53917564054962" y2="136.53917564054962" /><line  class="poloto_tick_line" stroke="black" x1="150" x2="650" y1="136.53917564054962" y2="136.53917564054962" /><text  class="poloto_tick_labels poloto_text" dominant-baseline="middle" text-anchor="end" x="135" y="136.53917564054962" >5.875</text><line  class="poloto_axis_lines" stroke="black" x1="150" x2="144" y1="122.61418492387668" y2="122.61418492387668" /><line  class="poloto_tick_line" stroke="black" x1="150" x2="650" y1="122.61418492387668" y2="122.61418492387668" /><text  class="poloto_tick_labels poloto_text" dominant-baseline="middle" text-anchor="end" x="135" y="122.61418492387668" >6</text><line  class="poloto_axis_lines" stroke="black" x1="150" x2="144" y1="108.68919420720385" y2="108.68919420720385" /><line  class="poloto_tick_line" stroke="black" x1="150" x2="650" y1="108.68919420720385" y2="108.68919420720385" /><text  class="poloto_tick_labels poloto_text" dominant-baseline="middle" text-anchor="end" x="135" y="108.68919420720385" >6.125</text><text  class="poloto_tick_labels poloto_text" dominant-baseline="middle" text-anchor="start" x="440.00000000000006" y="70" >¹2022-04-01 00:00:00 UTC in Months</text><line  class="poloto_axis_lines" stroke="black" x1="191.4364640884014" x2="191.4364640884014" y1="400" y2="405" /><line  class="poloto_tick_line" stroke="black" x1="191.4364640884014" x2="191.4364640884014" y1="400" y2="100" /><text  class="poloto_tick_labels poloto_text" dominant-baseline="start" text-anchor="middle" x="191.4364640884014" y="430" >2022 Apr¹</text><line  class="poloto_axis_lines" stroke="black" x1="274.30939226519695" x2="274.30939226519695" y1="400" y2="405" /><line  class="poloto_tick_line" stroke="black" x1="274.30939226519695" x2="274.30939226519695" y1="400" y2="100" /><text  class="poloto_tick_labels poloto_text" dominant-baseline="start" text-anchor="middle" x="274.30939226519695" y="430" >2022 May</text><line  class="poloto_axis_lines" stroke="black" x1="359.94475138121925" x2="359.94475138121925" y1="400" y2="405" /><line  class="poloto_tick_line" stroke="black" x1="359.94475138121925" x2="359.94475138121925" y1="400" y2="100" /><text  class="poloto_tick_labels poloto_text" dominant-baseline="start" text-anchor="middle" x="359.94475138121925" y="430" >2022 Jun</text><line  class="poloto_axis_lines" stroke="black" x1="442.8176795580148" x2="442.8176795580148" y1="400" y2="405" /><line  class="poloto_tick_line" stroke="black" x1="442.8176795580148" x2="442.8176795580148" y1="400" y2="100" /><text  class="poloto_tick_labels poloto_text" dominant-baseline="start" text-anchor="middle" x="442.8176795580148" y="430" >2022 Jul</text><line  class="poloto_axis_lines" stroke="black" x1="528.4530386740371" x2="528.4530386740371" y1="400" y2="405" /><line  class="poloto_tick_line" stroke="black" x1="528.4530386740371" x2="528.4530386740371" y1="400" y2="100" /><text  class="poloto_tick_labels poloto_text" dominant-baseline="start" text-anchor="middle" x="528.4530386740371" y="430" >2022 Aug</text><line  class="poloto_axis_lines" stroke="black" x1="614.0883977900594" x2="614.0883977900594" y1="400" y2="405" /><line  class="poloto_tick_line" stroke="black" x1="614.0883977900594" x2="614.0883977900594" y1="400" y2="100" /><text  class="poloto_tick_labels poloto_text" dominant-baseline="start" text-anchor="middle" x="614.0883977900594" y="430" >2022 Sep</text><path  stroke="black" fill="none" class="poloto_axis_lines" d=" M 150 400 L 650 400" /><path  stroke="black" fill="none" class="poloto_axis_lines" d=" M 150 400 L 150 100" /></svg>