<svg class="poloto" width="800" height="500" viewBox="0 0 800 500" xmlns="http://www.w3.org/2000/svg"><style>.poloto{stroke-linecap:round;stroke-linejoin:round;font-family:Roboto,sans-serif;font-size:16px;}.poloto_background{fill:#262626;}.poloto_scatter{stroke-width:7}.poloto_tick_line{stroke:dimgray;stroke-width:0.5}.poloto_line{stroke-width:2}.poloto_text{fill: white;}.poloto_axis_lines{stroke: white;stroke-width:3;fill:none;stroke-dasharray:none}.poloto_title{font-size:24px;dominant-baseline:start;text-anchor:middle;}.poloto_xname{font-size:24px;dominant-baseline:start;text-anchor:middle;}.poloto_yname{font-size:24px;dominant-baseline:start;text-anchor:middle;}.poloto0stroke{stroke:blue;}.poloto1stroke{stroke:red;}.poloto2stroke{stroke:green;}.poloto3stroke{stroke:gold;}.poloto4stroke{stroke:aqua;}.poloto5stroke{stroke:lime;}.poloto6stroke{stroke:orange;}.poloto7stroke{stroke:chocolate;}.poloto0fill{fill:blue;}.poloto1fill{fill:red;}.poloto2fill{fill:green;}.poloto3fill{fill:gold;}.poloto4fill{fill:aqua;}.poloto5fill{fill:lime;}.poloto6fill{fill:orange;}.poloto7fill{fill:chocolate;}</style><circle  r="1e5" class="poloto_background" /><text  class="poloto_text poloto_legend_text" x="675" y="100" >Refinance 15</text><line  class="poloto_line poloto_legend_icon poloto0stroke poloto0legend" stroke="black" x1="680" x2="730" y1="81.25" y2="81.25" /><path  class="poloto_line poloto0stroke" fill="none" stroke="black" d=" M 150.00 392.46 L 151.70 400.00 L 156.80 389.32 L 158.50 380.17 L 160.20 389.32 L 160.20 389.32 L 163.61 358.81 L 168.71 357.20 L 170.41 367.88 L 172.11 344.83 L 173.81 346.44 L 175.51 341.61 L 180.61 343.22 L 182.31 336.78 L 182.31 336.78 L 185.71 337.37 L 187.41 314.32 L 192.52 324.32 L 194.22 327.54 L 195.92 327.54 L 197.62 326.69 L 199.32 321.78 L 206.12 278.73 L 207.82 297.88 L 209.52 283.05 L 211.22 277.29 L 211.22 277.29 L 218.03 299.58 L 221.43 303.64 L 223.13 294.58 L 228.23 283.81 L 229.93 305.25 L 231.63 294.58 L 231.63 294.58 L 235.03 292.88 L 240.14 296.19 L 241.84 306.86 L 241.84 306.86 L 243.54 297.80 L 245.24 308.56 L 246.94 292.88 L 252.04 325.08 L 253.74 324.32 L 255.44 306.86 L 255.44 306.86 L 257.14 314.32 L 258.84 317.63 L 263.95 317.63 L 265.65 329.15 L 267.35 329.15 L 269.05 329.15 L 270.75 329.15 L 277.55 317.63 L 279.25 314.32 L 280.95 315.93 L 282.65 315.93 L 282.65 315.93 L 289.46 305.25 L 291.16 305.25 L 292.86 296.19 L 299.66 281.36 L 301.36 250.76 L 303.06 254.15 L 304.76 254.15 L 306.46 275.59 L 311.56 254.15 L 313.27 254.15 L 314.97 273.90 L 316.67 277.29 L 323.47 277.29 L 325.17 275.59 L 326.87 280.59 L 328.57 285.51 L 330.27 296.19 L 337.07 303.64 L 338.78 294.58 L 340.48 287.12 L 342.18 283.81 L 347.28 285.51 L 350.68 285.51 L 352.38 283.81 L 359.18 282.20 L 359.18 282.20 L 359.18 282.20 L 359.18 282.20 L 359.18 282.20 L 359.18 282.20 L 362.59 282.20 L 362.59 282.20 L 362.59 282.20 L 362.59 282.20 L 362.59 282.20 L 362.59 282.20 L 371.09 294.58 L 374.49 297.80 L 376.19 325.93 L 377.89 329.15 L 382.99 329.15 L 384.69 327.54 L 386.39 305.25 L 388.10 299.49 L 389.80 285.51 L 394.90 296.19 L 394.90 296.19 L 396.60 287.12 L 400.00 296.19 L 400.00 296.19 L 408.50 296.19 L 410.20 262.46 L 411.90 282.20 L 418.71 248.39 L 422.11 248.39 L 422.11 248.39 L 425.51 260.76 L 432.31 254.15 L 432.31 254.15 L 432.31 254.15 L 432.31 254.15 L 432.31 254.15 L 432.31 254.15 L 432.31 254.15 L 432.31 254.15 L 432.31 254.15 L 437.41 254.15 L 447.62 232.63 L 454.42 235.17 L 454.42 235.17 L 459.52 235.17 L 466.33 235.17 L 468.03 235.17 L 468.03 235.17 L 468.03 235.17 L 468.03 235.17 L 468.03 235.17 L 490.14 235.17 L 491.84 235.17 L 502.04 139.75 L 503.74 130.68 L 505.44 130.68 L 566.67 159.15 L 573.47 159.15 L 575.17 159.15 L 576.87 175.51 L 580.27 184.49 L 580.27 184.49 L 587.07 184.49 L 588.78 184.49 L 590.48 184.49 L 592.18 184.49 L 597.28 184.49 L 598.98 184.49 L 602.38 184.49 L 604.08 184.49 L 609.18 184.49 L 610.88 184.49 L 610.88 184.49 L 615.99 184.49 L 621.09 184.49 L 622.79 184.49 L 624.49 184.49 L 626.19 184.49 L 627.89 184.49 L 634.69 209.15 L 636.39 180.68 L 638.10 159.15 L 639.80 169.92 L 644.90 169.92 L 646.60 169.92 L 646.60 169.92 L 650.00 193.05" /><text  class="poloto_text poloto_legend_text" x="675" y="150" >Refinance 20</text><line  class="poloto_line poloto_legend_icon poloto1stroke poloto1legend" stroke="black" x1="680" x2="730" y1="131.25" y2="131.25" /><path  class="poloto_line poloto1stroke" fill="none" stroke="black" d=" M 150.00 345.68 L 151.70 368.31 L 156.80 334.58 L 158.50 324.24 L 160.20 333.73 L 160.20 333.73 L 163.61 304.07 L 168.71 301.53 L 170.41 312.29 L 172.11 300.25 L 173.81 311.02 L 175.51 290.85 L 180.61 321.69 L 182.31 290.85 L 182.31 290.85 L 185.71 290.85 L 185.71 290.85 L 192.52 250.17 L 194.22 282.71 L 195.92 290.85 L 197.62 301.53 L 199.32 280.59 L 206.12 260.00 L 207.82 257.37 L 209.52 252.12 L 211.22 240.08 L 216.33 245.34 L 218.03 268.14 L 221.43 260.00 L 223.13 257.37 L 228.23 248.81 L 229.93 258.73 L 231.63 258.73 L 231.63 258.73 L 235.03 258.73 L 240.14 260.00 L 241.84 281.44 L 241.84 281.44 L 243.54 269.41 L 245.24 289.58 L 246.94 281.44 L 252.04 282.71 L 253.74 281.44 L 255.44 281.44 L 255.44 281.44 L 257.14 282.71 L 258.84 289.58 L 263.95 290.85 L 265.65 294.66 L 267.35 294.66 L 269.05 294.66 L 270.75 294.66 L 277.55 289.58 L 279.25 278.81 L 280.95 281.44 L 282.65 281.44 L 282.65 281.44 L 289.46 268.14 L 291.16 270.68 L 292.86 261.27 L 299.66 215.85 L 301.36 197.03 L 303.06 207.80 L 304.76 215.85 L 306.46 238.56 L 311.56 225.17 L 313.27 218.47 L 314.97 239.92 L 316.67 250.17 L 323.47 250.17 L 325.17 238.56 L 326.87 249.32 L 328.57 260.00 L 330.27 272.03 L 337.07 280.08 L 338.78 269.41 L 340.48 258.73 L 342.18 251.44 L 347.28 257.37 L 350.68 260.00 L 352.38 258.73 L 359.18 260.00 L 359.18 260.00 L 359.18 260.00 L 359.18 260.00 L 359.18 260.00 L 359.18 260.00 L 359.18 260.00 L 359.18 260.00 L 359.18 260.00 L 359.18 260.00 L 359.18 260.00 L 359.18 260.00 L 371.09 280.08 L 374.49 282.71 L 376.19 301.53 L 377.89 304.07 L 382.99 301.27 L 384.69 301.27 L 386.39 290.85 L 388.10 294.66 L 389.80 278.81 L 394.90 270.68 L 394.90 270.68 L 396.60 270.68 L 400.00 281.44 L 400.00 281.44 L 408.50 278.81 L 410.20 260.00 L 411.90 260.00 L 418.71 246.19 L 422.11 234.58 L 422.11 234.58 L 425.51 247.54 L 432.31 215.85 L 432.31 215.85 L 432.31 215.85 L 432.31 215.85 L 432.31 215.85 L 432.31 215.85 L 432.31 215.85 L 432.31 215.85 L 432.31 215.85 L 437.41 215.85 L 447.62 202.37 L 454.42 203.73 L 457.82 203.73 L 459.52 203.73 L 459.52 203.73 L 468.03 203.73 L 469.73 203.73 L 469.73 203.73 L 469.73 203.73 L 469.73 203.73 L 490.14 203.73 L 491.84 203.73 L 502.04 118.81 L 503.74 102.97 L 503.74 102.97 L 570.07 155.34 L 573.47 155.34 L 575.17 155.34 L 578.57 174.15 L 580.27 175.51 L 580.27 175.51 L 587.07 175.51 L 588.78 175.51 L 590.48 175.51 L 592.18 175.51 L 597.28 175.51 L 598.98 175.51 L 602.38 175.51 L 604.08 175.51 L 609.18 175.51 L 610.88 175.51 L 610.88 175.51 L 615.99 175.51 L 621.09 175.51 L 622.79 175.51 L 624.49 175.51 L 626.19 175.51 L 627.89 175.51 L 634.69 156.36 L 636.39 145.93 L 638.10 144.58 L 639.80 147.37 L 644.90 147.37 L 646.60 147.37 L 646.60 147.37 L 650.00 167.46" /><text  class="poloto_text poloto_legend_text" x="675" y="200" >Refinance 30</text><line  class="poloto_line poloto_legend_icon poloto2stroke poloto2legend" stroke="black" x1="680" x2="730" y1="181.25" y2="181.25" /><path  class="poloto_line poloto2stroke" fill="none" stroke="black" d=" M 150.00 343.31 L 151.70 351.36 L 156.80 338.81 L 158.50 328.98 L 160.20 330.85 L 160.20 330.85 L 163.61 310.25 L 168.71 308.47 L 170.41 319.15 L 172.11 307.54 L 173.81 318.22 L 175.51 297.71 L 180.61 307.54 L 182.31 286.95 L 184.01 286.95 L 185.71 286.02 L 187.41 260.00 L 192.52 264.58 L 194.22 276.27 L 195.92 286.95 L 197.62 277.20 L 199.32 265.51 L 206.12 256.61 L 207.82 242.12 L 209.52 240.17 L 211.22 238.14 L 216.33 242.12 L 218.03 258.73 L 221.43 256.61 L 223.13 254.66 L 228.23 244.07 L 229.93 255.59 L 231.63 244.07 L 231.63 244.07 L 235.03 244.07 L 240.14 246.02 L 241.84 264.58 L 241.84 264.58 L 243.54 255.59 L 245.24 256.61 L 246.94 257.54 L 252.04 265.51 L 253.74 256.61 L 255.44 256.61 L 255.44 256.61 L 257.14 266.44 L 258.84 267.46 L 263.95 268.39 L 265.65 277.20 L 267.35 277.20 L 269.05 279.07 L 270.75 279.07 L 277.55 275.25 L 279.25 264.58 L 280.95 266.44 L 282.65 265.51 L 282.65 265.51 L 289.46 255.59 L 291.16 255.59 L 292.86 245.00 L 299.66 202.12 L 301.36 171.78 L 303.06 190.34 L 304.76 202.12 L 306.46 212.80 L 311.56 203.05 L 313.27 202.12 L 314.97 221.61 L 316.67 223.56 L 323.47 223.56 L 325.17 211.86 L 326.87 221.61 L 328.57 232.29 L 330.27 255.59 L 337.07 256.61 L 338.78 245.00 L 340.48 224.58 L 342.18 221.61 L 347.28 241.10 L 350.68 223.56 L 352.38 222.54 L 359.18 242.12 L 359.18 242.12 L 359.18 242.12 L 359.18 242.12 L 359.18 242.12 L 359.18 242.12 L 362.59 242.12 L 362.59 242.12 L 362.59 242.12 L 362.59 242.12 L 362.59 242.12 L 362.59 242.12 L 371.09 254.66 L 374.49 256.61 L 376.19 275.25 L 377.89 287.88 L 382.99 286.95 L 384.69 286.95 L 386.39 265.51 L 388.10 268.39 L 389.80 254.66 L 394.90 265.51 L 394.90 265.51 L 396.60 257.54 L 400.00 266.44 L 400.00 266.44 L 408.50 264.58 L 410.20 246.02 L 411.90 245.00 L 418.71 220.59 L 422.11 211.86 L 422.11 211.86 L 425.51 222.54 L 432.31 210.85 L 432.31 210.85 L 432.31 210.85 L 432.31 210.85 L 432.31 210.85 L 432.31 210.85 L 432.31 210.85 L 432.31 210.85 L 437.41 210.85 L 437.41 209.83 L 447.62 197.03 L 454.42 175.51 L 454.42 175.51 L 459.52 175.51 L 459.52 175.51 L 468.03 175.51 L 469.73 175.51 L 469.73 175.51 L 469.73 175.51 L 469.73 175.51 L 490.14 175.51 L 491.84 175.51 L 502.04 127.03 L 503.74 100.00 L 503.74 100.00 L 570.07 146.44 L 573.47 146.44 L 575.17 146.44 L 576.87 150.76 L 580.27 160.59 L 580.27 160.59 L 587.07 160.59 L 588.78 160.59 L 590.48 160.59 L 592.18 160.59 L 597.28 160.59 L 598.98 160.59 L 602.38 160.59 L 604.08 160.59 L 609.18 160.59 L 610.88 160.59 L 610.88 160.59 L 615.99 160.59 L 621.09 160.59 L 622.79 160.59 L 624.49 160.59 L 626.19 160.59 L 627.89 160.59 L 634.69 144.24 L 636.39 152.88 L 638.10 132.37 L 639.80 152.88 L 644.90 152.88 L 646.60 152.88 L 646.60 152.88 L 650.00 152.88" /><text  class="poloto_labels poloto_text poloto_title" x="400" y="37.5" >lower.com purchase rates</text><text  class="poloto_labels poloto_text poloto_xname" x="400" y="481.25" >Date</text><text  class="poloto_labels poloto_text poloto_yname" transform="rotate(-90,37.5,250)" x="37.5" y="250" >Rate (%)</text><text  class="poloto_tick_labels poloto_text" dominant-baseline="middle" text-anchor="start" x="150" y="70" ></text><line  class="poloto_axis_lines" stroke="black" x1="150" x2="144" y1="390.2542372881356" y2="390.2542372881356" /><line  class="poloto_tick_line" stroke="black" x1="150" x2="650" y1="390.2542372881356" y2="390.2542372881356" /><text  class="poloto_tick_labels poloto_text" dominant-baseline="middle" text-anchor="end" x="135" y="390.2542372881356" >3.625</text><line  class="poloto_axis_lines" stroke="black" x1="150" x2="144" y1="379.66101694915255" y2="379.66101694915255" /><line  class="poloto_tick_line" stroke="black" x1="150" x2="650" y1="379.66101694915255" y2="379.66101694915255" /><text  class="poloto_tick_labels poloto_text" dominant-baseline="middle" text-anchor="end" x="135" y="379.66101694915255" >3.75</text><line  class="poloto_axis_lines" stroke="black" x1="150" x2="144" y1="369.06779661016947" y2="369.06779661016947" /><line  class="poloto_tick_line" stroke="black" x1="150" x2="650" y1="369.06779661016947" y2="369.06779661016947" /><text  class="poloto_tick_labels poloto_text" dominant-baseline="middle" text-anchor="end" x="135" y="369.06779661016947" >3.875</text><line  class="poloto_axis_lines" stroke="black" x1="150" x2="144" y1="358.47457627118644" y2="358.47457627118644" /><line  class="poloto_tick_line" stroke="black" x1="150" x2="650" y1="358.47457627118644" y2="358.47457627118644" /><text  class="poloto_tick_labels poloto_text" dominant-baseline="middle" text-anchor="end" x="135" y="358.47457627118644" >4</text><line  class="poloto_axis_lines" stroke="black" x1="150" x2="144" y1="347.8813559322034" y2="347.8813559322034" /><line  class="poloto_tick_line" stroke="black" x1="150" x2="650" y1="347.8813559322034" y2="347.8813559322034" /><text  class="poloto_tick_labels poloto_text" dominant-baseline="middle" text-anchor="end" x="135" y="347.8813559322034" >4.125</text><line  class="poloto_axis_lines" stroke="black" x1="150" x2="144" y1="337.2881355932203" y2="337.2881355932203" /><line  class="poloto_tick_line" stroke="black" x1="150" x2="650" y1="337.2881355932203" y2="337.2881355932203" /><text  class="poloto_tick_labels poloto_text" dominant-baseline="middle" text-anchor="end" x="135" y="337.2881355932203" >4.25</text><line  class="poloto_axis_lines" stroke="black" x1="150" x2="144" y1="326.6949152542373" y2="326.6949152542373" /><line  class="poloto_tick_line" stroke="black" x1="150" x2="650" y1="326.6949152542373" y2="326.6949152542373" /><text  class="poloto_tick_labels poloto_text" dominant-baseline="middle" text-anchor="end" x="135" y="326.6949152542373" >4.375</text><line  class="poloto_axis_lines" stroke="black" x1="150" x2="144" y1="316.10169491525426" y2="316.10169491525426" /><line  class="poloto_tick_line" stroke="black" x1="150" x2="650" y1="316.10169491525426" y2="316.10169491525426" /><text  class="poloto_tick_labels poloto_text" dominant-baseline="middle" text-anchor="end" x="135" y="316.10169491525426" >4.5</text><line  class="poloto_axis_lines" stroke="black" x1="150" x2="144" y1="305.50847457627117" y2="305.50847457627117" /><line  class="poloto_tick_line" stroke="black" x1="150" x2="650" y1="305.50847457627117" y2="305.50847457627117" /><text  class="poloto_tick_labels poloto_text" dominant-baseline="middle" text-anchor="end" x="135" y="305.50847457627117" >4.625</text><line  class="poloto_axis_lines" stroke="black" x1="150" x2="144" y1="294.91525423728814" y2="294.91525423728814" /><line  class="poloto_tick_line" stroke="black" x1="150" x2="650" y1="294.91525423728814" y2="294.91525423728814" /><text  class="poloto_tick_labels poloto_text" dominant-baseline="middle" text-anchor="end" x="135" y="294.91525423728814" >4.75</text><line  class="poloto_axis_lines" stroke="black" x1="150" x2="144" y1="284.3220338983051" y2="284.3220338983051" /><line  class="poloto_tick_line" stroke="black" x1="150" x2="650" y1="284.3220338983051" y2="284.3220338983051" /><text  class="poloto_tick_labels poloto_text" dominant-baseline="middle" text-anchor="end" x="135" y="284.3220338983051" >4.875</text><line  class="poloto_axis_lines" stroke="black" x1="150" x2="144" y1="273.728813559322" y2="273.728813559322" /><line  class="poloto_tick_line" stroke="black" x1="150" x2="650" y1="273.728813559322" y2="273.728813559322" /><text  class="poloto_tick_labels poloto_text" dominant-baseline="middle" text-anchor="end" x="135" y="273.728813559322" >5</text><line  class="poloto_axis_lines" stroke="black" x1="150" x2="144" y1="263.135593220339" y2="263.135593220339" /><line  class="poloto_tick_line" stroke="black" x1="150" x2="650" y1="263.135593220339" y2="263.135593220339" /><text  class="poloto_tick_labels poloto_text" dominant-baseline="middle" text-anchor="end" x="135" y="263.135593220339" >5.125</text><line  class="poloto_axis_lines" stroke="black" x1="150" x2="144" y1="252.54237288135596" y2="252.54237288135596" /><line  class="poloto_tick_line" stroke="black" x1="150" x2="650" y1="252.54237288135596" y2="252.54237288135596" /><text  class="poloto_tick_labels poloto_text" dominant-baseline="middle" text-anchor="end" x="135" y="252.54237288135596" >5.25</text><line  class="poloto_axis_lines" stroke="black" x1="150" x2="144" y1="241.94915254237287" y2="241.94915254237287" /><line  class="poloto_tick_line" stroke="black" x1="150" x2="650" y1="241.94915254237287" y2="241.94915254237287" /><text  class="poloto_tick_labels poloto_text" dominant-baseline="middle" text-anchor="end" x="135" y="241.94915254237287" >5.375</text><line  class="poloto_axis_lines" stroke="black" x1="150" x2="144" y1="231.35593220338984" y2="231.35593220338984" /><line  class="poloto_tick_line" stroke="black" x1="150" x2="650" y1="231.35593220338984" y2="231.35593220338984" /><text  class="poloto_tick_labels poloto_text" dominant-baseline="middle" text-anchor="end" x="135" y="231.35593220338984" >5.5</text><line  class="poloto_axis_lines" stroke="black" x1="150" x2="144" y1="220.7627118644068" y2="220.7627118644068" /><line  class="poloto_tick_line" stroke="black" x1="150" x2="650" y1="220.7627118644068" y2="220.7627118644068" /><text  class="poloto_tick_labels poloto_text" dominant-baseline="middle" text-anchor="end" x="135" y="220.7627118644068" >5.625</text><line  class="poloto_axis_lines" stroke="black" x1="150" x2="144" y1="210.16949152542372" y2="210.16949152542372" /><line  class="poloto_tick_line" stroke="black" x1="150" x2="650" y1="210.16949152542372" y2="210.16949152542372" /><text  class="poloto_tick_labels poloto_text" dominant-baseline="middle" text-anchor="end" x="135" y="210.16949152542372" >5.75</text><line  class="poloto_axis_lines" stroke="black" x1="150" x2="144" y1="199.5762711864407" y2="199.5762711864407" /><line  class="poloto_tick_line" stroke="black" x1="150" x2="650" y1="199.5762711864407" y2="199.5762711864407" /><text  class="poloto_tick_labels poloto_text" dominant-baseline="middle" text-anchor="end" x="135" y="199.5762711864407" >5.875</text><line  class="poloto_axis_lines" stroke="black" x1="150" x2="144" y1="188.98305084745766" y2="188.98305084745766" /><line  class="poloto_tick_line" stroke="black" x1="150" x2="650" y1="188.98305084745766" y2="188.98305084745766" /><text  class="poloto_tick_labels poloto_text" dominant-baseline="middle" text-anchor="end" x="135" y="188.98305084745766" >6</text><line  class="poloto_axis_lines" stroke="black" x1="150" x2="144" y1="178.38983050847457" y2="178.38983050847457" /><line  class="poloto_tick_line" stroke="black" x1="150" x2="650" y1="178.38983050847457" y2="178.38983050847457" /><text  class="poloto_tick_labels poloto_text" dominant-baseline="middle" text-anchor="end" x="135" y="178.38983050847457" >6.125</text><line  class="poloto_axis_lines" stroke="black" x1="150" x2="144" y1="167.7966101694915" y2="167.7966101694915" /><line  class="poloto_tick_line" stroke="black" x1="150" x2="650" y1="167.7966101694915" y2="167.7966101694915" /><text  class="poloto_tick_labels poloto_text" dominant-baseline="middle" text-anchor="end" x="135" y="167.7966101694915" >6.25</text><line  class="poloto_axis_lines" stroke="black" x1="150" x2="144" y1="157.2033898305085" y2="157.2033898305085" /><line  class="poloto_tick_line" stroke="black" x1="150" x2="650" y1="157.2033898305085" y2="157.2033898305085" /><text  class="poloto_tick_labels poloto_text" dominant-baseline="middle" text-anchor="end" x="135" y="157.2033898305085" >6.375</text><line  class="poloto_axis_lines" stroke="black" x1="150" x2="144" y1="146.61016949152543" y2="146.61016949152543" /><line  class="poloto_tick_line" stroke="black" x1="150" x2="650" y1="146.61016949152543" y2="146.61016949152543" /><text  class="poloto_tick_labels poloto_text" dominant-baseline="middle" text-anchor="end" x="135" y="146.61016949152543" >6.5</text><line  class="poloto_axis_lines" stroke="black" x1="150" x2="144" y1="136.01694915254234" y2="136.01694915254234" /><line  class="poloto_tick_line" stroke="black" x1="150" x2="650" y1="136.01694915254234" y2="136.01694915254234" /><text  class="poloto_tick_labels poloto_text" dominant-baseline="middle" text-anchor="end" x="135" y="136.01694915254234" >6.625</text><line  class="poloto_axis_lines" stroke="black" x1="150" x2="144" y1="125.42372881355936" y2="125.42372881355936" /><line  class="poloto_tick_line" stroke="black" x1="150" x2="650" y1="125.42372881355936" y2="125.42372881355936" /><text  class="poloto_tick_labels poloto_text" dominant-baseline="middle" text-anchor="end" x="135" y="125.42372881355936" >6.75</text><line  class="poloto_axis_lines" stroke="black" x1="150" x2="144" y1="114.83050847457628" y2="114.83050847457628" /><line  class="poloto_tick_line" stroke="black" x1="150" x2="650" y1="114.83050847457628" y2="114.83050847457628" /><text  class="poloto_tick_labels poloto_text" dominant-baseline="middle" text-anchor="end" x="135" y="114.83050847457628" >6.875</text><line  class="poloto_axis_lines" stroke="black" x1="150" x2="144" y1="104.23728813559319" y2="104.23728813559319" /><line  class="poloto_tick_line" stroke="black" x1="150" x2="650" y1="104.23728813559319" y2="104.23728813559319" /><text  class="poloto_tick_labels poloto_text" dominant-baseline="middle" text-anchor="end" x="135" y="104.23728813559319" >7</text><text  class="poloto_tick_labels poloto_text" dominant-baseline="middle" text-anchor="start" x="440.00000000000006" y="70" >¹2022-05-01 00:00:00 UTC in Months</text><line  class="poloto_axis_lines" stroke="black" x1="226.53061224489647" x2="226.53061224489647" y1="400" y2="405" /><line  class="poloto_tick_line" stroke="black" x1="226.53061224489647" x2="226.53061224489647" y1="400" y2="100" /><text  class="poloto_tick_labels poloto_text" dominant-baseline="start" text-anchor="middle" x="226.53061224489647" y="430" >2022 May¹</text><line  class="poloto_axis_lines" stroke="black" x1="330.2721088435392" x2="330.2721088435392" y1="400" y2="405" /><line  class="poloto_tick_line" stroke="black" x1="330.2721088435392" x2="330.2721088435392" y1="400" y2="100" /><text  class="poloto_tick_labels poloto_text" dominant-baseline="start" text-anchor="middle" x="330.2721088435392" y="430" >2022 Jul</text><line  class="poloto_axis_lines" stroke="black" x1="435.71428571428623" x2="435.71428571428623" y1="400" y2="405" /><line  class="poloto_tick_line" stroke="black" x1="435.71428571428623" x2="435.71428571428623" y1="400" y2="100" /><text  class="poloto_tick_labels poloto_text" dominant-baseline="start" text-anchor="middle" x="435.71428571428623" y="430" >2022 Sep</text><line  class="poloto_axis_lines" stroke="black" x1="539.4557823129217" x2="539.4557823129217" y1="400" y2="405" /><line  class="poloto_tick_line" stroke="black" x1="539.4557823129217" x2="539.4557823129217" y1="400" y2="100" /><text  class="poloto_tick_labels poloto_text" dominant-baseline="start" text-anchor="middle" x="539.4557823129217" y="430" >2022 Nov</text><line  class="poloto_axis_lines" stroke="black" x1="643.197278911568" x2="643.197278911568" y1="400" y2="405" /><line  class="poloto_tick_line" stroke="black" x1="643.197278911568" x2="643.197278911568" y1="400" y2="100" /><text  class="poloto_tick_labels poloto_text" dominant-baseline="start" text-anchor="middle" x="643.197278911568" y="430" >2023 Jan</text><path  stroke="black" fill="none" class="poloto_axis_lines" d=" M 150 400 L 650 400" /><path  stroke="black" fill="none" class="poloto_axis_lines" d=" M 150 400 L 150 100" /></svg>