<svg class="poloto" width="800" height="500" viewBox="0 0 800 500" xmlns="http://www.w3.org/2000/svg"><style>.poloto{stroke-linecap:round;stroke-linejoin:round;font-family:Roboto,sans-serif;font-size:16px;}.poloto_background{fill:#262626;}.poloto_scatter{stroke-width:7}.poloto_tick_line{stroke:dimgray;stroke-width:0.5}.poloto_line{stroke-width:2}.poloto_text{fill: white;}.poloto_axis_lines{stroke: white;stroke-width:3;fill:none;stroke-dasharray:none}.poloto_title{font-size:24px;dominant-baseline:start;text-anchor:middle;}.poloto_xname{font-size:24px;dominant-baseline:start;text-anchor:middle;}.poloto_yname{font-size:24px;dominant-baseline:start;text-anchor:middle;}.poloto0stroke{stroke:blue;}.poloto1stroke{stroke:red;}.poloto2stroke{stroke:green;}.poloto3stroke{stroke:gold;}.poloto4stroke{stroke:aqua;}.poloto5stroke{stroke:lime;}.poloto6stroke{stroke:orange;}.poloto7stroke{stroke:chocolate;}.poloto0fill{fill:blue;}.poloto1fill{fill:red;}.poloto2fill{fill:green;}.poloto3fill{fill:gold;}.poloto4fill{fill:aqua;}.poloto5fill{fill:lime;}.poloto6fill{fill:orange;}.poloto7fill{fill:chocolate;}</style><circle  r="1e5" class="poloto_background" /><text  class="poloto_text poloto_legend_text" x="675" y="100" >Refinance 15</text><line  class="poloto_line poloto_legend_icon poloto0stroke poloto0legend" stroke="black" x1="680" x2="730" y1="81.25" y2="81.25" /><path  class="poloto_line poloto0stroke" fill="none" stroke="black" d=" M 150.00 392.46 L 151.56 400.00 L 156.23 389.32 L 157.79 380.17 L 159.35 389.32 L 159.35 389.32 L 162.46 358.81 L 167.13 357.20 L 168.69 367.88 L 170.25 344.83 L 171.81 346.44 L 173.36 341.61 L 178.04 343.22 L 179.60 336.78 L 179.60 336.78 L 182.71 337.37 L 184.27 314.32 L 188.94 324.32 L 190.50 327.54 L 192.06 327.54 L 193.61 326.69 L 195.17 321.78 L 201.40 278.73 L 202.96 297.88 L 204.52 283.05 L 206.07 277.29 L 206.07 277.29 L 212.31 299.58 L 215.42 303.64 L 216.98 294.58 L 221.65 283.81 L 223.21 305.25 L 224.77 294.58 L 224.77 294.58 L 227.88 292.88 L 232.55 296.19 L 234.11 306.86 L 234.11 306.86 L 235.67 297.80 L 237.23 308.56 L 238.79 292.88 L 243.46 325.08 L 245.02 324.32 L 246.57 306.86 L 246.57 306.86 L 248.13 314.32 L 249.69 317.63 L 254.36 317.63 L 255.92 329.15 L 257.48 329.15 L 259.03 329.15 L 260.59 329.15 L 266.82 317.63 L 268.38 314.32 L 269.94 315.93 L 271.50 315.93 L 271.50 315.93 L 277.73 305.25 L 279.28 305.25 L 280.84 296.19 L 287.07 281.36 L 288.63 250.76 L 290.19 254.15 L 291.74 254.15 L 293.30 275.59 L 297.98 254.15 L 299.53 254.15 L 301.09 273.90 L 302.65 277.29 L 308.88 277.29 L 310.44 275.59 L 311.99 280.59 L 313.55 285.51 L 315.11 296.19 L 321.34 303.64 L 322.90 294.58 L 324.45 287.12 L 326.01 283.81 L 330.69 285.51 L 333.80 285.51 L 335.36 283.81 L 341.59 282.20 L 341.59 282.20 L 341.59 282.20 L 341.59 282.20 L 341.59 282.20 L 341.59 282.20 L 344.70 282.20 L 344.70 282.20 L 344.70 282.20 L 344.70 282.20 L 344.70 282.20 L 344.70 282.20 L 352.49 294.58 L 355.61 297.80 L 357.17 325.93 L 358.72 329.15 L 363.40 329.15 L 364.95 327.54 L 366.51 305.25 L 368.07 299.49 L 369.63 285.51 L 374.30 296.19 L 374.30 296.19 L 375.86 287.12 L 378.97 296.19 L 378.97 296.19 L 386.76 296.19 L 388.32 262.46 L 389.88 282.20 L 396.11 248.39 L 399.22 248.39 L 399.22 248.39 L 402.34 260.76 L 408.57 254.15 L 408.57 254.15 L 408.57 254.15 L 408.57 254.15 L 408.57 254.15 L 408.57 254.15 L 408.57 254.15 L 408.57 254.15 L 408.57 254.15 L 413.24 254.15 L 422.59 232.63 L 428.82 235.17 L 428.82 235.17 L 433.49 235.17 L 439.72 235.17 L 441.28 235.17 L 441.28 235.17 L 441.28 235.17 L 441.28 235.17 L 441.28 235.17 L 461.53 235.17 L 463.08 235.17 L 472.43 139.75 L 473.99 130.68 L 475.55 130.68 L 531.62 159.15 L 537.85 159.15 L 539.41 159.15 L 540.97 175.51 L 544.08 184.49 L 544.08 184.49 L 550.31 184.49 L 551.87 184.49 L 553.43 184.49 L 554.98 184.49 L 559.66 184.49 L 561.21 184.49 L 564.33 184.49 L 565.89 184.49 L 570.56 184.49 L 572.12 184.49 L 572.12 184.49 L 576.79 184.49 L 581.46 184.49 L 583.02 184.49 L 584.58 184.49 L 586.14 184.49 L 587.69 184.49 L 593.93 209.15 L 595.48 180.68 L 597.04 159.15 L 598.60 169.92 L 603.27 169.92 L 604.83 169.92 L 604.83 169.92 L 607.94 193.05 L 609.50 193.05 L 614.17 193.05 L 615.73 193.05 L 617.29 193.05 L 618.85 193.05 L 620.40 193.05 L 620.40 193.05 L 620.40 193.05 L 620.40 193.05 L 628.19 193.05 L 631.31 193.05 L 635.98 193.05 L 637.54 193.05 L 640.65 193.05 L 642.21 193.05 L 648.44 193.05 L 650.00 193.05" /><text  class="poloto_text poloto_legend_text" x="675" y="150" >Refinance 20</text><line  class="poloto_line poloto_legend_icon poloto1stroke poloto1legend" stroke="black" x1="680" x2="730" y1="131.25" y2="131.25" /><path  class="poloto_line poloto1stroke" fill="none" stroke="black" d=" M 150.00 345.68 L 151.56 368.31 L 156.23 334.58 L 157.79 324.24 L 159.35 333.73 L 159.35 333.73 L 162.46 304.07 L 167.13 301.53 L 168.69 312.29 L 170.25 300.25 L 171.81 311.02 L 173.36 290.85 L 178.04 321.69 L 179.60 290.85 L 179.60 290.85 L 182.71 290.85 L 182.71 290.85 L 188.94 250.17 L 190.50 282.71 L 192.06 290.85 L 193.61 301.53 L 195.17 280.59 L 201.40 260.00 L 202.96 257.37 L 204.52 252.12 L 206.07 240.08 L 210.75 245.34 L 212.31 268.14 L 215.42 260.00 L 216.98 257.37 L 221.65 248.81 L 223.21 258.73 L 224.77 258.73 L 224.77 258.73 L 227.88 258.73 L 232.55 260.00 L 234.11 281.44 L 234.11 281.44 L 235.67 269.41 L 237.23 289.58 L 238.79 281.44 L 243.46 282.71 L 245.02 281.44 L 246.57 281.44 L 246.57 281.44 L 248.13 282.71 L 249.69 289.58 L 254.36 290.85 L 255.92 294.66 L 257.48 294.66 L 259.03 294.66 L 260.59 294.66 L 266.82 289.58 L 268.38 278.81 L 269.94 281.44 L 271.50 281.44 L 271.50 281.44 L 277.73 268.14 L 279.28 270.68 L 280.84 261.27 L 287.07 215.85 L 288.63 197.03 L 290.19 207.80 L 291.74 215.85 L 293.30 238.56 L 297.98 225.17 L 299.53 218.47 L 301.09 239.92 L 302.65 250.17 L 308.88 250.17 L 310.44 238.56 L 311.99 249.32 L 313.55 260.00 L 315.11 272.03 L 321.34 280.08 L 322.90 269.41 L 324.45 258.73 L 326.01 251.44 L 330.69 257.37 L 333.80 260.00 L 335.36 258.73 L 341.59 260.00 L 341.59 260.00 L 341.59 260.00 L 341.59 260.00 L 341.59 260.00 L 341.59 260.00 L 341.59 260.00 L 341.59 260.00 L 341.59 260.00 L 341.59 260.00 L 341.59 260.00 L 341.59 260.00 L 352.49 280.08 L 355.61 282.71 L 357.17 301.53 L 358.72 304.07 L 363.40 301.27 L 364.95 301.27 L 366.51 290.85 L 368.07 294.66 L 369.63 278.81 L 374.30 270.68 L 374.30 270.68 L 375.86 270.68 L 378.97 281.44 L 378.97 281.44 L 386.76 278.81 L 388.32 260.00 L 389.88 260.00 L 396.11 246.19 L 399.22 234.58 L 399.22 234.58 L 402.34 247.54 L 408.57 215.85 L 408.57 215.85 L 408.57 215.85 L 408.57 215.85 L 408.57 215.85 L 408.57 215.85 L 408.57 215.85 L 408.57 215.85 L 408.57 215.85 L 413.24 215.85 L 422.59 202.37 L 428.82 203.73 L 431.93 203.73 L 433.49 203.73 L 433.49 203.73 L 441.28 203.73 L 442.83 203.73 L 442.83 203.73 L 442.83 203.73 L 442.83 203.73 L 461.53 203.73 L 463.08 203.73 L 472.43 118.81 L 473.99 102.97 L 473.99 102.97 L 534.74 155.34 L 537.85 155.34 L 539.41 155.34 L 542.52 174.15 L 544.08 175.51 L 544.08 175.51 L 550.31 175.51 L 551.87 175.51 L 553.43 175.51 L 554.98 175.51 L 559.66 175.51 L 561.21 175.51 L 564.33 175.51 L 565.89 175.51 L 570.56 175.51 L 572.12 175.51 L 572.12 175.51 L 576.79 175.51 L 581.46 175.51 L 583.02 175.51 L 584.58 175.51 L 586.14 175.51 L 587.69 175.51 L 593.93 156.36 L 595.48 145.93 L 597.04 144.58 L 598.60 147.37 L 603.27 147.37 L 604.83 147.37 L 604.83 147.37 L 607.94 167.46 L 609.50 167.46 L 614.17 167.46 L 615.73 167.46 L 617.29 167.46 L 618.85 167.46 L 620.40 167.46 L 620.40 167.46 L 626.64 167.46 L 626.64 167.46 L 628.19 167.46 L 631.31 167.46 L 635.98 167.46 L 637.54 167.46 L 640.65 167.46 L 642.21 167.46 L 648.44 167.46 L 650.00 167.46" /><text  class="poloto_text poloto_legend_text" x="675" y="200" >Refinance 30</text><line  class="poloto_line poloto_legend_icon poloto2stroke poloto2legend" stroke="black" x1="680" x2="730" y1="181.25" y2="181.25" /><path  class="poloto_line poloto2stroke" fill="none" stroke="black" d=" M 150.00 343.31 L 151.56 351.36 L 156.23 338.81 L 157.79 328.98 L 159.35 330.85 L 159.35 330.85 L 162.46 310.25 L 167.13 308.47 L 168.69 319.15 L 170.25 307.54 L 171.81 318.22 L 173.36 297.71 L 178.04 307.54 L 179.60 286.95 L 181.15 286.95 L 182.71 286.02 L 184.27 260.00 L 188.94 264.58 L 190.50 276.27 L 192.06 286.95 L 193.61 277.20 L 195.17 265.51 L 201.40 256.61 L 202.96 242.12 L 204.52 240.17 L 206.07 238.14 L 210.75 242.12 L 212.31 258.73 L 215.42 256.61 L 216.98 254.66 L 221.65 244.07 L 223.21 255.59 L 224.77 244.07 L 224.77 244.07 L 227.88 244.07 L 232.55 246.02 L 234.11 264.58 L 234.11 264.58 L 235.67 255.59 L 237.23 256.61 L 238.79 257.54 L 243.46 265.51 L 245.02 256.61 L 246.57 256.61 L 246.57 256.61 L 248.13 266.44 L 249.69 267.46 L 254.36 268.39 L 255.92 277.20 L 257.48 277.20 L 259.03 279.07 L 260.59 279.07 L 266.82 275.25 L 268.38 264.58 L 269.94 266.44 L 271.50 265.51 L 271.50 265.51 L 277.73 255.59 L 279.28 255.59 L 280.84 245.00 L 287.07 202.12 L 288.63 171.78 L 290.19 190.34 L 291.74 202.12 L 293.30 212.80 L 297.98 203.05 L 299.53 202.12 L 301.09 221.61 L 302.65 223.56 L 308.88 223.56 L 310.44 211.86 L 311.99 221.61 L 313.55 232.29 L 315.11 255.59 L 321.34 256.61 L 322.90 245.00 L 324.45 224.58 L 326.01 221.61 L 330.69 241.10 L 333.80 223.56 L 335.36 222.54 L 341.59 242.12 L 341.59 242.12 L 341.59 242.12 L 341.59 242.12 L 341.59 242.12 L 341.59 242.12 L 344.70 242.12 L 344.70 242.12 L 344.70 242.12 L 344.70 242.12 L 344.70 242.12 L 344.70 242.12 L 352.49 254.66 L 355.61 256.61 L 357.17 275.25 L 358.72 287.88 L 363.40 286.95 L 364.95 286.95 L 366.51 265.51 L 368.07 268.39 L 369.63 254.66 L 374.30 265.51 L 374.30 265.51 L 375.86 257.54 L 378.97 266.44 L 378.97 266.44 L 386.76 264.58 L 388.32 246.02 L 389.88 245.00 L 396.11 220.59 L 399.22 211.86 L 399.22 211.86 L 402.34 222.54 L 408.57 210.85 L 408.57 210.85 L 408.57 210.85 L 408.57 210.85 L 408.57 210.85 L 408.57 210.85 L 408.57 210.85 L 408.57 210.85 L 413.24 210.85 L 413.24 209.83 L 422.59 197.03 L 428.82 175.51 L 428.82 175.51 L 433.49 175.51 L 433.49 175.51 L 441.28 175.51 L 442.83 175.51 L 442.83 175.51 L 442.83 175.51 L 442.83 175.51 L 461.53 175.51 L 463.08 175.51 L 472.43 127.03 L 473.99 100.00 L 473.99 100.00 L 534.74 146.44 L 537.85 146.44 L 539.41 146.44 L 540.97 150.76 L 544.08 160.59 L 544.08 160.59 L 550.31 160.59 L 551.87 160.59 L 553.43 160.59 L 554.98 160.59 L 559.66 160.59 L 561.21 160.59 L 564.33 160.59 L 565.89 160.59 L 570.56 160.59 L 572.12 160.59 L 572.12 160.59 L 576.79 160.59 L 581.46 160.59 L 583.02 160.59 L 584.58 160.59 L 586.14 160.59 L 587.69 160.59 L 593.93 144.24 L 595.48 152.88 L 597.04 132.37 L 598.60 152.88 L 603.27 152.88 L 604.83 152.88 L 604.83 152.88 L 607.94 152.88 L 609.50 152.88 L 614.17 152.88 L 615.73 152.88 L 617.29 152.88 L 618.85 152.88 L 620.40 152.88 L 620.40 152.88 L 626.64 152.88 L 626.64 152.88 L 628.19 152.88 L 631.31 152.88 L 635.98 152.88 L 637.54 152.88 L 640.65 152.88 L 642.21 152.88 L 648.44 152.88 L 650.00 152.88" /><text  class="poloto_labels poloto_text poloto_title" x="400" y="37.5" >lower.com purchase rates</text><text  class="poloto_labels poloto_text poloto_xname" x="400" y="481.25" >Date</text><text  class="poloto_labels poloto_text poloto_yname" transform="rotate(-90,37.5,250)" x="37.5" y="250" >Rate (%)</text><text  class="poloto_tick_labels poloto_text" dominant-baseline="middle" text-anchor="start" x="150" y="70" ></text><line  class="poloto_axis_lines" stroke="black" x1="150" x2="144" y1="390.2542372881356" y2="390.2542372881356" /><line  class="poloto_tick_line" stroke="black" x1="150" x2="650" y1="390.2542372881356" y2="390.2542372881356" /><text  class="poloto_tick_labels poloto_text" dominant-baseline="middle" text-anchor="end" x="135" y="390.2542372881356" >3.625</text><line  class="poloto_axis_lines" stroke="black" x1="150" x2="144" y1="379.66101694915255" y2="379.66101694915255" /><line  class="poloto_tick_line" stroke="black" x1="150" x2="650" y1="379.66101694915255" y2="379.66101694915255" /><text  class="poloto_tick_labels poloto_text" dominant-baseline="middle" text-anchor="end" x="135" y="379.66101694915255" >3.75</text><line  class="poloto_axis_lines" stroke="black" x1="150" x2="144" y1="369.06779661016947" y2="369.06779661016947" /><line  class="poloto_tick_line" stroke="black" x1="150" x2="650" y1="369.06779661016947" y2="369.06779661016947" /><text  class="poloto_tick_labels poloto_text" dominant-baseline="middle" text-anchor="end" x="135" y="369.06779661016947" >3.875</text><line  class="poloto_axis_lines" stroke="black" x1="150" x2="144" y1="358.47457627118644" y2="358.47457627118644" /><line  class="poloto_tick_line" stroke="black" x1="150" x2="650" y1="358.47457627118644" y2="358.47457627118644" /><text  class="poloto_tick_labels poloto_text" dominant-baseline="middle" text-anchor="end" x="135" y="358.47457627118644" >4</text><line  class="poloto_axis_lines" stroke="black" x1="150" x2="144" y1="347.8813559322034" y2="347.8813559322034" /><line  class="poloto_tick_line" stroke="black" x1="150" x2="650" y1="347.8813559322034" y2="347.8813559322034" /><text  class="poloto_tick_labels poloto_text" dominant-baseline="middle" text-anchor="end" x="135" y="347.8813559322034" >4.125</text><line  class="poloto_axis_lines" stroke="black" x1="150" x2="144" y1="337.2881355932203" y2="337.2881355932203" /><line  class="poloto_tick_line" stroke="black" x1="150" x2="650" y1="337.2881355932203" y2="337.2881355932203" /><text  class="poloto_tick_labels poloto_text" dominant-baseline="middle" text-anchor="end" x="135" y="337.2881355932203" >4.25</text><line  class="poloto_axis_lines" stroke="black" x1="150" x2="144" y1="326.6949152542373" y2="326.6949152542373" /><line  class="poloto_tick_line" stroke="black" x1="150" x2="650" y1="326.6949152542373" y2="326.6949152542373" /><text  class="poloto_tick_labels poloto_text" dominant-baseline="middle" text-anchor="end" x="135" y="326.6949152542373" >4.375</text><line  class="poloto_axis_lines" stroke="black" x1="150" x2="144" y1="316.10169491525426" y2="316.10169491525426" /><line  class="poloto_tick_line" stroke="black" x1="150" x2="650" y1="316.10169491525426" y2="316.10169491525426" /><text  class="poloto_tick_labels poloto_text" dominant-baseline="middle" text-anchor="end" x="135" y="316.10169491525426" >4.5</text><line  class="poloto_axis_lines" stroke="black" x1="150" x2="144" y1="305.50847457627117" y2="305.50847457627117" /><line  class="poloto_tick_line" stroke="black" x1="150" x2="650" y1="305.50847457627117" y2="305.50847457627117" /><text  class="poloto_tick_labels poloto_text" dominant-baseline="middle" text-anchor="end" x="135" y="305.50847457627117" >4.625</text><line  class="poloto_axis_lines" stroke="black" x1="150" x2="144" y1="294.91525423728814" y2="294.91525423728814" /><line  class="poloto_tick_line" stroke="black" x1="150" x2="650" y1="294.91525423728814" y2="294.91525423728814" /><text  class="poloto_tick_labels poloto_text" dominant-baseline="middle" text-anchor="end" x="135" y="294.91525423728814" >4.75</text><line  class="poloto_axis_lines" stroke="black" x1="150" x2="144" y1="284.3220338983051" y2="284.3220338983051" /><line  class="poloto_tick_line" stroke="black" x1="150" x2="650" y1="284.3220338983051" y2="284.3220338983051" /><text  class="poloto_tick_labels poloto_text" dominant-baseline="middle" text-anchor="end" x="135" y="284.3220338983051" >4.875</text><line  class="poloto_axis_lines" stroke="black" x1="150" x2="144" y1="273.728813559322" y2="273.728813559322" /><line  class="poloto_tick_line" stroke="black" x1="150" x2="650" y1="273.728813559322" y2="273.728813559322" /><text  class="poloto_tick_labels poloto_text" dominant-baseline="middle" text-anchor="end" x="135" y="273.728813559322" >5</text><line  class="poloto_axis_lines" stroke="black" x1="150" x2="144" y1="263.135593220339" y2="263.135593220339" /><line  class="poloto_tick_line" stroke="black" x1="150" x2="650" y1="263.135593220339" y2="263.135593220339" /><text  class="poloto_tick_labels poloto_text" dominant-baseline="middle" text-anchor="end" x="135" y="263.135593220339" >5.125</text><line  class="poloto_axis_lines" stroke="black" x1="150" x2="144" y1="252.54237288135596" y2="252.54237288135596" /><line  class="poloto_tick_line" stroke="black" x1="150" x2="650" y1="252.54237288135596" y2="252.54237288135596" /><text  class="poloto_tick_labels poloto_text" dominant-baseline="middle" text-anchor="end" x="135" y="252.54237288135596" >5.25</text><line  class="poloto_axis_lines" stroke="black" x1="150" x2="144" y1="241.94915254237287" y2="241.94915254237287" /><line  class="poloto_tick_line" stroke="black" x1="150" x2="650" y1="241.94915254237287" y2="241.94915254237287" /><text  class="poloto_tick_labels poloto_text" dominant-baseline="middle" text-anchor="end" x="135" y="241.94915254237287" >5.375</text><line  class="poloto_axis_lines" stroke="black" x1="150" x2="144" y1="231.35593220338984" y2="231.35593220338984" /><line  class="poloto_tick_line" stroke="black" x1="150" x2="650" y1="231.35593220338984" y2="231.35593220338984" /><text  class="poloto_tick_labels poloto_text" dominant-baseline="middle" text-anchor="end" x="135" y="231.35593220338984" >5.5</text><line  class="poloto_axis_lines" stroke="black" x1="150" x2="144" y1="220.7627118644068" y2="220.7627118644068" /><line  class="poloto_tick_line" stroke="black" x1="150" x2="650" y1="220.7627118644068" y2="220.7627118644068" /><text  class="poloto_tick_labels poloto_text" dominant-baseline="middle" text-anchor="end" x="135" y="220.7627118644068" >5.625</text><line  class="poloto_axis_lines" stroke="black" x1="150" x2="144" y1="210.16949152542372" y2="210.16949152542372" /><line  class="poloto_tick_line" stroke="black" x1="150" x2="650" y1="210.16949152542372" y2="210.16949152542372" /><text  class="poloto_tick_labels poloto_text" dominant-baseline="middle" text-anchor="end" x="135" y="210.16949152542372" >5.75</text><line  class="poloto_axis_lines" stroke="black" x1="150" x2="144" y1="199.5762711864407" y2="199.5762711864407" /><line  class="poloto_tick_line" stroke="black" x1="150" x2="650" y1="199.5762711864407" y2="199.5762711864407" /><text  class="poloto_tick_labels poloto_text" dominant-baseline="middle" text-anchor="end" x="135" y="199.5762711864407" >5.875</text><line  class="poloto_axis_lines" stroke="black" x1="150" x2="144" y1="188.98305084745766" y2="188.98305084745766" /><line  class="poloto_tick_line" stroke="black" x1="150" x2="650" y1="188.98305084745766" y2="188.98305084745766" /><text  class="poloto_tick_labels poloto_text" dominant-baseline="middle" text-anchor="end" x="135" y="188.98305084745766" >6</text><line  class="poloto_axis_lines" stroke="black" x1="150" x2="144" y1="178.38983050847457" y2="178.38983050847457" /><line  class="poloto_tick_line" stroke="black" x1="150" x2="650" y1="178.38983050847457" y2="178.38983050847457" /><text  class="poloto_tick_labels poloto_text" dominant-baseline="middle" text-anchor="end" x="135" y="178.38983050847457" >6.125</text><line  class="poloto_axis_lines" stroke="black" x1="150" x2="144" y1="167.7966101694915" y2="167.7966101694915" /><line  class="poloto_tick_line" stroke="black" x1="150" x2="650" y1="167.7966101694915" y2="167.7966101694915" /><text  class="poloto_tick_labels poloto_text" dominant-baseline="middle" text-anchor="end" x="135" y="167.7966101694915" >6.25</text><line  class="poloto_axis_lines" stroke="black" x1="150" x2="144" y1="157.2033898305085" y2="157.2033898305085" /><line  class="poloto_tick_line" stroke="black" x1="150" x2="650" y1="157.2033898305085" y2="157.2033898305085" /><text  class="poloto_tick_labels poloto_text" dominant-baseline="middle" text-anchor="end" x="135" y="157.2033898305085" >6.375</text><line  class="poloto_axis_lines" stroke="black" x1="150" x2="144" y1="146.61016949152543" y2="146.61016949152543" /><line  class="poloto_tick_line" stroke="black" x1="150" x2="650" y1="146.61016949152543" y2="146.61016949152543" /><text  class="poloto_tick_labels poloto_text" dominant-baseline="middle" text-anchor="end" x="135" y="146.61016949152543" >6.5</text><line  class="poloto_axis_lines" stroke="black" x1="150" x2="144" y1="136.01694915254234" y2="136.01694915254234" /><line  class="poloto_tick_line" stroke="black" x1="150" x2="650" y1="136.01694915254234" y2="136.01694915254234" /><text  class="poloto_tick_labels poloto_text" dominant-baseline="middle" text-anchor="end" x="135" y="136.01694915254234" >6.625</text><line  class="poloto_axis_lines" stroke="black" x1="150" x2="144" y1="125.42372881355936" y2="125.42372881355936" /><line  class="poloto_tick_line" stroke="black" x1="150" x2="650" y1="125.42372881355936" y2="125.42372881355936" /><text  class="poloto_tick_labels poloto_text" dominant-baseline="middle" text-anchor="end" x="135" y="125.42372881355936" >6.75</text><line  class="poloto_axis_lines" stroke="black" x1="150" x2="144" y1="114.83050847457628" y2="114.83050847457628" /><line  class="poloto_tick_line" stroke="black" x1="150" x2="650" y1="114.83050847457628" y2="114.83050847457628" /><text  class="poloto_tick_labels poloto_text" dominant-baseline="middle" text-anchor="end" x="135" y="114.83050847457628" >6.875</text><line  class="poloto_axis_lines" stroke="black" x1="150" x2="144" y1="104.23728813559319" y2="104.23728813559319" /><line  class="poloto_tick_line" stroke="black" x1="150" x2="650" y1="104.23728813559319" y2="104.23728813559319" /><text  class="poloto_tick_labels poloto_text" dominant-baseline="middle" text-anchor="end" x="135" y="104.23728813559319" >7</text><text  class="poloto_tick_labels poloto_text" dominant-baseline="middle" text-anchor="start" x="440.00000000000006" y="70" >¹2022-05-01 00:00:00 UTC in Months</text><line  class="poloto_axis_lines" stroke="black" x1="220.0934579439272" x2="220.0934579439272" y1="400" y2="405" /><line  class="poloto_tick_line" stroke="black" x1="220.0934579439272" x2="220.0934579439272" y1="400" y2="100" /><text  class="poloto_tick_labels poloto_text" dominant-baseline="start" text-anchor="middle" x="220.0934579439272" y="430" >2022 May¹</text><line  class="poloto_axis_lines" stroke="black" x1="315.10903426791265" x2="315.10903426791265" y1="400" y2="405" /><line  class="poloto_tick_line" stroke="black" x1="315.10903426791265" x2="315.10903426791265" y1="400" y2="100" /><text  class="poloto_tick_labels poloto_text" dominant-baseline="start" text-anchor="middle" x="315.10903426791265" y="430" >2022 Jul</text><line  class="poloto_axis_lines" stroke="black" x1="411.6822429906533" x2="411.6822429906533" y1="400" y2="405" /><line  class="poloto_tick_line" stroke="black" x1="411.6822429906533" x2="411.6822429906533" y1="400" y2="100" /><text  class="poloto_tick_labels poloto_text" dominant-baseline="start" text-anchor="middle" x="411.6822429906533" y="430" >2022 Sep</text><line  class="poloto_axis_lines" stroke="black" x1="506.6978193146424" x2="506.6978193146424" y1="400" y2="405" /><line  class="poloto_tick_line" stroke="black" x1="506.6978193146424" x2="506.6978193146424" y1="400" y2="100" /><text  class="poloto_tick_labels poloto_text" dominant-baseline="start" text-anchor="middle" x="506.6978193146424" y="430" >2022 Nov</text><line  class="poloto_axis_lines" stroke="black" x1="601.7133956386315" x2="601.7133956386315" y1="400" y2="405" /><line  class="poloto_tick_line" stroke="black" x1="601.7133956386315" x2="601.7133956386315" y1="400" y2="100" /><text  class="poloto_tick_labels poloto_text" dominant-baseline="start" text-anchor="middle" x="601.7133956386315" y="430" >2023 Jan</text><path  stroke="black" fill="none" class="poloto_axis_lines" d=" M 150 400 L 650 400" /><path  stroke="black" fill="none" class="poloto_axis_lines" d=" M 150 400 L 150 100" /></svg>