<svg class="poloto" width="800" height="500" viewBox="0 0 800 500" xmlns="http://www.w3.org/2000/svg"><style>.poloto{stroke-linecap:round;stroke-linejoin:round;font-family:Roboto,sans-serif;font-size:16px;}.poloto_background{fill:#262626;}.poloto_scatter{stroke-width:7}.poloto_tick_line{stroke:dimgray;stroke-width:0.5}.poloto_line{stroke-width:2}.poloto_text{fill: white;}.poloto_axis_lines{stroke: white;stroke-width:3;fill:none;stroke-dasharray:none}.poloto_title{font-size:24px;dominant-baseline:start;text-anchor:middle;}.poloto_xname{font-size:24px;dominant-baseline:start;text-anchor:middle;}.poloto_yname{font-size:24px;dominant-baseline:start;text-anchor:middle;}.poloto0stroke{stroke:blue;}.poloto1stroke{stroke:red;}.poloto2stroke{stroke:green;}.poloto3stroke{stroke:gold;}.poloto4stroke{stroke:aqua;}.poloto5stroke{stroke:lime;}.poloto6stroke{stroke:orange;}.poloto7stroke{stroke:chocolate;}.poloto0fill{fill:blue;}.poloto1fill{fill:red;}.poloto2fill{fill:green;}.poloto3fill{fill:gold;}.poloto4fill{fill:aqua;}.poloto5fill{fill:lime;}.poloto6fill{fill:orange;}.poloto7fill{fill:chocolate;}</style><circle  r="1e5" class="poloto_background" /><text  class="poloto_text poloto_legend_text" x="675" y="100" >30 years</text><line  class="poloto_line poloto_legend_icon poloto0stroke poloto0legend" stroke="black" x1="680" x2="730" y1="81.25" y2="81.25" /><path  class="poloto_line poloto0stroke" fill="none" stroke="black" d=" M 150.00 144.49 L 172.73 152.00 L 240.91 144.49 L 263.64 136.97 L 286.36 136.97 L 286.36 136.97 L 331.82 121.94 L 400.00 121.94 L 422.73 129.46 L 445.45 136.97 L 468.18 144.49 L 490.91 129.46 L 559.09 136.97 L 581.82 129.46 L 604.55 121.94 L 627.27 114.43 L 650.00 114.43" /><text  class="poloto_text poloto_legend_text" x="675" y="150" >20 years</text><line  class="poloto_line poloto_legend_icon poloto1stroke poloto1legend" stroke="black" x1="680" x2="730" y1="131.25" y2="131.25" /><path  class="poloto_line poloto1stroke" fill="none" stroke="black" d=" M 150.00 144.49 L 172.73 152.00 L 240.91 136.97 L 263.64 129.46 L 286.36 129.46 L 286.36 129.46 L 331.82 121.94 L 400.00 114.43 L 422.73 121.94 L 445.45 129.46 L 468.18 136.97 L 490.91 121.94 L 559.09 136.97 L 581.82 121.94 L 604.55 121.94 L 627.27 121.94 L 650.00 100.00" /><text  class="poloto_text poloto_legend_text" x="675" y="200" >15 years</text><line  class="poloto_line poloto_legend_icon poloto2stroke poloto2legend" stroke="black" x1="680" x2="730" y1="181.25" y2="181.25" /><path  class="poloto_line poloto2stroke" fill="none" stroke="black" d=" M 150.00 182.06 L 172.73 182.06 L 240.91 182.06 L 263.64 167.03 L 286.36 167.03 L 286.36 167.03 L 331.82 160.12 L 400.00 167.03 L 422.73 167.03 L 445.45 174.55 L 468.18 174.55 L 490.91 167.03 L 559.09 174.55 L 581.82 167.03 L 604.55 159.52 L 627.27 160.12 L 650.00 159.52" /><text  class="poloto_labels poloto_text poloto_title" x="400" y="37.5" >lower.com purchase rates</text><text  class="poloto_labels poloto_text poloto_xname" x="400" y="481.25" >Date</text><text  class="poloto_labels poloto_text poloto_yname" transform="rotate(-90,37.5,250)" x="37.5" y="250" >Rate (%)</text><text  class="poloto_tick_labels poloto_text" dominant-baseline="middle" text-anchor="start" x="440.00000000000006" y="70" >X: 2022 Mar 17 UTC in Days</text><line  class="poloto_axis_lines" stroke="black" x1="150" x2="150" y1="400" y2="405" /><text  class="poloto_tick_labels poloto_text" dominant-baseline="start" text-anchor="middle" x="150" y="430" >Mar 17</text><line  class="poloto_axis_lines" stroke="black" x1="240.90909090911737" x2="240.90909090911737" y1="400" y2="405" /><text  class="poloto_tick_labels poloto_text" dominant-baseline="start" text-anchor="middle" x="240.90909090911737" y="430" >Mar 21</text><line  class="poloto_axis_lines" stroke="black" x1="331.8181818181765" x2="331.8181818181765" y1="400" y2="405" /><text  class="poloto_tick_labels poloto_text" dominant-baseline="start" text-anchor="middle" x="331.8181818181765" y="430" >Mar 25</text><line  class="poloto_axis_lines" stroke="black" x1="422.7272727272939" x2="422.7272727272939" y1="400" y2="405" /><text  class="poloto_tick_labels poloto_text" dominant-baseline="start" text-anchor="middle" x="422.7272727272939" y="430" >Mar 29</text><line  class="poloto_axis_lines" stroke="black" x1="513.636363636353" x2="513.636363636353" y1="400" y2="405" /><text  class="poloto_tick_labels poloto_text" dominant-baseline="start" text-anchor="middle" x="513.636363636353" y="430" >Apr 02</text><line  class="poloto_axis_lines" stroke="black" x1="604.5454545454704" x2="604.5454545454704" y1="400" y2="405" /><text  class="poloto_tick_labels poloto_text" dominant-baseline="start" text-anchor="middle" x="604.5454545454704" y="430" >Apr 06</text><text  class="poloto_tick_labels poloto_text" dominant-baseline="middle" text-anchor="start" x="150" y="70" ></text><line  class="poloto_axis_lines" stroke="black" x1="150" x2="144" y1="400" y2="400" /><text  class="poloto_tick_labels poloto_text" dominant-baseline="middle" text-anchor="end" x="135" y="400" >0</text><line  class="poloto_axis_lines" stroke="black" x1="150" x2="144" y1="339.8797595190381" y2="339.8797595190381" /><text  class="poloto_tick_labels poloto_text" dominant-baseline="middle" text-anchor="end" x="135" y="339.8797595190381" >1</text><line  class="poloto_axis_lines" stroke="black" x1="150" x2="144" y1="279.7595190380762" y2="279.7595190380762" /><text  class="poloto_tick_labels poloto_text" dominant-baseline="middle" text-anchor="end" x="135" y="279.7595190380762" >2</text><line  class="poloto_axis_lines" stroke="black" x1="150" x2="144" y1="219.63927855711427" y2="219.63927855711427" /><text  class="poloto_tick_labels poloto_text" dominant-baseline="middle" text-anchor="end" x="135" y="219.63927855711427" >3</text><line  class="poloto_axis_lines" stroke="black" x1="150" x2="144" y1="159.51903807615236" y2="159.51903807615236" /><text  class="poloto_tick_labels poloto_text" dominant-baseline="middle" text-anchor="end" x="135" y="159.51903807615236" >4</text><path  stroke="black" fill="none" class="poloto_axis_lines" d=" M 150 400 L 650 400" /><path  stroke="black" fill="none" class="poloto_axis_lines" style="stroke-dasharray:6.012024048096192;stroke-dashoffset:-0;" d=" M 150 400 L 150 100" /></svg>