<svg class="poloto" width="800" height="500" viewBox="0 0 800 500" xmlns="http://www.w3.org/2000/svg"><style>.poloto{stroke-linecap:round;stroke-linejoin:round;font-family:Roboto,sans-serif;font-size:16px;}.poloto_background{fill:#262626;}.poloto_scatter{stroke-width:7}.poloto_tick_line{stroke:dimgray;stroke-width:0.5}.poloto_line{stroke-width:2}.poloto_text{fill: white;}.poloto_axis_lines{stroke: white;stroke-width:3;fill:none;stroke-dasharray:none}.poloto_title{font-size:24px;dominant-baseline:start;text-anchor:middle;}.poloto_xname{font-size:24px;dominant-baseline:start;text-anchor:middle;}.poloto_yname{font-size:24px;dominant-baseline:start;text-anchor:middle;}.poloto0stroke{stroke:blue;}.poloto1stroke{stroke:red;}.poloto2stroke{stroke:green;}.poloto3stroke{stroke:gold;}.poloto4stroke{stroke:aqua;}.poloto5stroke{stroke:lime;}.poloto6stroke{stroke:orange;}.poloto7stroke{stroke:chocolate;}.poloto0fill{fill:blue;}.poloto1fill{fill:red;}.poloto2fill{fill:green;}.poloto3fill{fill:gold;}.poloto4fill{fill:aqua;}.poloto5fill{fill:lime;}.poloto6fill{fill:orange;}.poloto7fill{fill:chocolate;}</style><circle  r="1e5" class="poloto_background" /><text  class="poloto_text poloto_legend_text" x="675" y="100" >Refinance 15</text><line  class="poloto_line poloto_legend_icon poloto0stroke poloto0legend" stroke="black" x1="680" x2="730" y1="81.25" y2="81.25" /><path  class="poloto_line poloto0stroke" fill="none" stroke="black" d=" M 150.00 392.46 L 151.87 400.00 L 157.49 389.32 L 159.36 380.17 L 161.24 389.32 L 161.24 389.32 L 164.98 358.81 L 170.60 357.20 L 172.47 367.88 L 174.34 344.83 L 176.22 346.44 L 178.09 341.61 L 183.71 343.22 L 185.58 336.78 L 185.58 336.78 L 189.33 337.37 L 191.20 314.32 L 196.82 324.32 L 198.69 327.54 L 200.56 327.54 L 202.43 326.69 L 204.31 321.78 L 211.80 278.73 L 213.67 297.88 L 215.54 283.05 L 217.42 277.29 L 217.42 277.29 L 224.91 299.58 L 228.65 303.64 L 230.52 294.58 L 236.14 283.81 L 238.01 305.25 L 239.89 294.58 L 239.89 294.58 L 243.63 292.88 L 249.25 296.19 L 251.12 306.86 L 251.12 306.86 L 253.00 297.80 L 254.87 308.56 L 256.74 292.88 L 262.36 325.08 L 264.23 324.32 L 266.10 306.86 L 266.10 306.86 L 267.98 314.32 L 269.85 317.63 L 275.47 317.63 L 277.34 329.15 L 279.21 329.15 L 281.09 329.15 L 282.96 329.15 L 290.45 317.63 L 292.32 314.32 L 294.19 315.93 L 296.07 315.93 L 296.07 315.93 L 303.56 305.25 L 305.43 305.25 L 307.30 296.19 L 314.79 281.36 L 316.67 250.76 L 318.54 254.15 L 320.41 254.15 L 322.28 275.59 L 327.90 254.15 L 329.78 254.15 L 331.65 273.90 L 333.52 277.29 L 341.01 277.29 L 342.88 275.59 L 344.76 280.59 L 346.63 285.51 L 348.50 296.19 L 355.99 303.64 L 357.87 294.58 L 359.74 287.12 L 361.61 283.81 L 367.23 285.51 L 370.97 285.51 L 372.85 283.81 L 380.34 282.20 L 380.34 282.20 L 380.34 282.20 L 380.34 282.20 L 380.34 282.20 L 380.34 282.20 L 384.08 282.20 L 384.08 282.20 L 384.08 282.20 L 384.08 282.20 L 384.08 282.20 L 384.08 282.20 L 393.45 294.58 L 397.19 297.80 L 399.06 325.93 L 400.94 329.15 L 406.55 329.15 L 408.43 327.54 L 410.30 305.25 L 412.17 299.49 L 414.04 285.51 L 419.66 296.19 L 419.66 296.19 L 421.54 287.12 L 425.28 296.19 L 425.28 296.19 L 434.64 296.19 L 436.52 262.46 L 438.39 282.20 L 445.88 248.39 L 449.63 248.39 L 449.63 248.39 L 453.37 260.76 L 460.86 254.15 L 460.86 254.15 L 460.86 254.15 L 460.86 254.15 L 460.86 254.15 L 460.86 254.15 L 460.86 254.15 L 460.86 254.15 L 460.86 254.15 L 466.48 254.15 L 477.72 232.63 L 485.21 235.17 L 485.21 235.17 L 490.82 235.17 L 498.31 235.17 L 500.19 235.17 L 500.19 235.17 L 500.19 235.17 L 500.19 235.17 L 500.19 235.17 L 524.53 235.17 L 526.40 235.17 L 537.64 139.75 L 539.51 130.68 L 541.39 130.68 L 608.80 159.15 L 616.29 159.15 L 618.16 159.15 L 620.04 175.51 L 623.78 184.49 L 623.78 184.49 L 631.27 184.49 L 633.15 184.49 L 635.02 184.49 L 636.89 184.49 L 642.51 184.49 L 644.38 184.49 L 648.13 184.49 L 650.00 184.49" /><text  class="poloto_text poloto_legend_text" x="675" y="150" >Refinance 20</text><line  class="poloto_line poloto_legend_icon poloto1stroke poloto1legend" stroke="black" x1="680" x2="730" y1="131.25" y2="131.25" /><path  class="poloto_line poloto1stroke" fill="none" stroke="black" d=" M 150.00 345.68 L 151.87 368.31 L 157.49 334.58 L 159.36 324.24 L 161.24 333.73 L 161.24 333.73 L 164.98 304.07 L 170.60 301.53 L 172.47 312.29 L 174.34 300.25 L 176.22 311.02 L 178.09 290.85 L 183.71 321.69 L 185.58 290.85 L 185.58 290.85 L 189.33 290.85 L 189.33 290.85 L 196.82 250.17 L 198.69 282.71 L 200.56 290.85 L 202.43 301.53 L 204.31 280.59 L 211.80 260.00 L 213.67 257.37 L 215.54 252.12 L 217.42 240.08 L 223.03 245.34 L 224.91 268.14 L 228.65 260.00 L 230.52 257.37 L 236.14 248.81 L 238.01 258.73 L 239.89 258.73 L 239.89 258.73 L 243.63 258.73 L 249.25 260.00 L 251.12 281.44 L 251.12 281.44 L 253.00 269.41 L 254.87 289.58 L 256.74 281.44 L 262.36 282.71 L 264.23 281.44 L 266.10 281.44 L 266.10 281.44 L 267.98 282.71 L 269.85 289.58 L 275.47 290.85 L 277.34 294.66 L 279.21 294.66 L 281.09 294.66 L 282.96 294.66 L 290.45 289.58 L 292.32 278.81 L 294.19 281.44 L 296.07 281.44 L 296.07 281.44 L 303.56 268.14 L 305.43 270.68 L 307.30 261.27 L 314.79 215.85 L 316.67 197.03 L 318.54 207.80 L 320.41 215.85 L 322.28 238.56 L 327.90 225.17 L 329.78 218.47 L 331.65 239.92 L 333.52 250.17 L 341.01 250.17 L 342.88 238.56 L 344.76 249.32 L 346.63 260.00 L 348.50 272.03 L 355.99 280.08 L 357.87 269.41 L 359.74 258.73 L 361.61 251.44 L 367.23 257.37 L 370.97 260.00 L 372.85 258.73 L 380.34 260.00 L 380.34 260.00 L 380.34 260.00 L 380.34 260.00 L 380.34 260.00 L 380.34 260.00 L 380.34 260.00 L 380.34 260.00 L 380.34 260.00 L 380.34 260.00 L 380.34 260.00 L 380.34 260.00 L 393.45 280.08 L 397.19 282.71 L 399.06 301.53 L 400.94 304.07 L 406.55 301.27 L 408.43 301.27 L 410.30 290.85 L 412.17 294.66 L 414.04 278.81 L 419.66 270.68 L 419.66 270.68 L 421.54 270.68 L 425.28 281.44 L 425.28 281.44 L 434.64 278.81 L 436.52 260.00 L 438.39 260.00 L 445.88 246.19 L 449.63 234.58 L 449.63 234.58 L 453.37 247.54 L 460.86 215.85 L 460.86 215.85 L 460.86 215.85 L 460.86 215.85 L 460.86 215.85 L 460.86 215.85 L 460.86 215.85 L 460.86 215.85 L 460.86 215.85 L 466.48 215.85 L 477.72 202.37 L 485.21 203.73 L 488.95 203.73 L 490.82 203.73 L 490.82 203.73 L 500.19 203.73 L 502.06 203.73 L 502.06 203.73 L 502.06 203.73 L 502.06 203.73 L 524.53 203.73 L 526.40 203.73 L 537.64 118.81 L 539.51 102.97 L 539.51 102.97 L 612.55 155.34 L 616.29 155.34 L 618.16 155.34 L 621.91 174.15 L 623.78 175.51 L 623.78 175.51 L 631.27 175.51 L 633.15 175.51 L 635.02 175.51 L 636.89 175.51 L 642.51 175.51 L 644.38 175.51 L 648.13 175.51 L 650.00 175.51" /><text  class="poloto_text poloto_legend_text" x="675" y="200" >Refinance 30</text><line  class="poloto_line poloto_legend_icon poloto2stroke poloto2legend" stroke="black" x1="680" x2="730" y1="181.25" y2="181.25" /><path  class="poloto_line poloto2stroke" fill="none" stroke="black" d=" M 150.00 343.31 L 151.87 351.36 L 157.49 338.81 L 159.36 328.98 L 161.24 330.85 L 161.24 330.85 L 164.98 310.25 L 170.60 308.47 L 172.47 319.15 L 174.34 307.54 L 176.22 318.22 L 178.09 297.71 L 183.71 307.54 L 185.58 286.95 L 187.45 286.95 L 189.33 286.02 L 191.20 260.00 L 196.82 264.58 L 198.69 276.27 L 200.56 286.95 L 202.43 277.20 L 204.31 265.51 L 211.80 256.61 L 213.67 242.12 L 215.54 240.17 L 217.42 238.14 L 223.03 242.12 L 224.91 258.73 L 228.65 256.61 L 230.52 254.66 L 236.14 244.07 L 238.01 255.59 L 239.89 244.07 L 239.89 244.07 L 243.63 244.07 L 249.25 246.02 L 251.12 264.58 L 251.12 264.58 L 253.00 255.59 L 254.87 256.61 L 256.74 257.54 L 262.36 265.51 L 264.23 256.61 L 266.10 256.61 L 266.10 256.61 L 267.98 266.44 L 269.85 267.46 L 275.47 268.39 L 277.34 277.20 L 279.21 277.20 L 281.09 279.07 L 282.96 279.07 L 290.45 275.25 L 292.32 264.58 L 294.19 266.44 L 296.07 265.51 L 296.07 265.51 L 303.56 255.59 L 305.43 255.59 L 307.30 245.00 L 314.79 202.12 L 316.67 171.78 L 318.54 190.34 L 320.41 202.12 L 322.28 212.80 L 327.90 203.05 L 329.78 202.12 L 331.65 221.61 L 333.52 223.56 L 341.01 223.56 L 342.88 211.86 L 344.76 221.61 L 346.63 232.29 L 348.50 255.59 L 355.99 256.61 L 357.87 245.00 L 359.74 224.58 L 361.61 221.61 L 367.23 241.10 L 370.97 223.56 L 372.85 222.54 L 380.34 242.12 L 380.34 242.12 L 380.34 242.12 L 380.34 242.12 L 380.34 242.12 L 380.34 242.12 L 384.08 242.12 L 384.08 242.12 L 384.08 242.12 L 384.08 242.12 L 384.08 242.12 L 384.08 242.12 L 393.45 254.66 L 397.19 256.61 L 399.06 275.25 L 400.94 287.88 L 406.55 286.95 L 408.43 286.95 L 410.30 265.51 L 412.17 268.39 L 414.04 254.66 L 419.66 265.51 L 419.66 265.51 L 421.54 257.54 L 425.28 266.44 L 425.28 266.44 L 434.64 264.58 L 436.52 246.02 L 438.39 245.00 L 445.88 220.59 L 449.63 211.86 L 449.63 211.86 L 453.37 222.54 L 460.86 210.85 L 460.86 210.85 L 460.86 210.85 L 460.86 210.85 L 460.86 210.85 L 460.86 210.85 L 460.86 210.85 L 460.86 210.85 L 466.48 210.85 L 466.48 209.83 L 477.72 197.03 L 485.21 175.51 L 485.21 175.51 L 490.82 175.51 L 490.82 175.51 L 500.19 175.51 L 502.06 175.51 L 502.06 175.51 L 502.06 175.51 L 502.06 175.51 L 524.53 175.51 L 526.40 175.51 L 537.64 127.03 L 539.51 100.00 L 539.51 100.00 L 612.55 146.44 L 616.29 146.44 L 618.16 146.44 L 620.04 150.76 L 623.78 160.59 L 623.78 160.59 L 631.27 160.59 L 633.15 160.59 L 635.02 160.59 L 636.89 160.59 L 642.51 160.59 L 644.38 160.59 L 648.13 160.59 L 650.00 160.59" /><text  class="poloto_labels poloto_text poloto_title" x="400" y="37.5" >lower.com purchase rates</text><text  class="poloto_labels poloto_text poloto_xname" x="400" y="481.25" >Date</text><text  class="poloto_labels poloto_text poloto_yname" transform="rotate(-90,37.5,250)" x="37.5" y="250" >Rate (%)</text><text  class="poloto_tick_labels poloto_text" dominant-baseline="middle" text-anchor="start" x="150" y="70" ></text><line  class="poloto_axis_lines" stroke="black" x1="150" x2="144" y1="390.2542372881356" y2="390.2542372881356" /><line  class="poloto_tick_line" stroke="black" x1="150" x2="650" y1="390.2542372881356" y2="390.2542372881356" /><text  class="poloto_tick_labels poloto_text" dominant-baseline="middle" text-anchor="end" x="135" y="390.2542372881356" >3.625</text><line  class="poloto_axis_lines" stroke="black" x1="150" x2="144" y1="379.66101694915255" y2="379.66101694915255" /><line  class="poloto_tick_line" stroke="black" x1="150" x2="650" y1="379.66101694915255" y2="379.66101694915255" /><text  class="poloto_tick_labels poloto_text" dominant-baseline="middle" text-anchor="end" x="135" y="379.66101694915255" >3.75</text><line  class="poloto_axis_lines" stroke="black" x1="150" x2="144" y1="369.06779661016947" y2="369.06779661016947" /><line  class="poloto_tick_line" stroke="black" x1="150" x2="650" y1="369.06779661016947" y2="369.06779661016947" /><text  class="poloto_tick_labels poloto_text" dominant-baseline="middle" text-anchor="end" x="135" y="369.06779661016947" >3.875</text><line  class="poloto_axis_lines" stroke="black" x1="150" x2="144" y1="358.47457627118644" y2="358.47457627118644" /><line  class="poloto_tick_line" stroke="black" x1="150" x2="650" y1="358.47457627118644" y2="358.47457627118644" /><text  class="poloto_tick_labels poloto_text" dominant-baseline="middle" text-anchor="end" x="135" y="358.47457627118644" >4</text><line  class="poloto_axis_lines" stroke="black" x1="150" x2="144" y1="347.8813559322034" y2="347.8813559322034" /><line  class="poloto_tick_line" stroke="black" x1="150" x2="650" y1="347.8813559322034" y2="347.8813559322034" /><text  class="poloto_tick_labels poloto_text" dominant-baseline="middle" text-anchor="end" x="135" y="347.8813559322034" >4.125</text><line  class="poloto_axis_lines" stroke="black" x1="150" x2="144" y1="337.2881355932203" y2="337.2881355932203" /><line  class="poloto_tick_line" stroke="black" x1="150" x2="650" y1="337.2881355932203" y2="337.2881355932203" /><text  class="poloto_tick_labels poloto_text" dominant-baseline="middle" text-anchor="end" x="135" y="337.2881355932203" >4.25</text><line  class="poloto_axis_lines" stroke="black" x1="150" x2="144" y1="326.6949152542373" y2="326.6949152542373" /><line  class="poloto_tick_line" stroke="black" x1="150" x2="650" y1="326.6949152542373" y2="326.6949152542373" /><text  class="poloto_tick_labels poloto_text" dominant-baseline="middle" text-anchor="end" x="135" y="326.6949152542373" >4.375</text><line  class="poloto_axis_lines" stroke="black" x1="150" x2="144" y1="316.10169491525426" y2="316.10169491525426" /><line  class="poloto_tick_line" stroke="black" x1="150" x2="650" y1="316.10169491525426" y2="316.10169491525426" /><text  class="poloto_tick_labels poloto_text" dominant-baseline="middle" text-anchor="end" x="135" y="316.10169491525426" >4.5</text><line  class="poloto_axis_lines" stroke="black" x1="150" x2="144" y1="305.50847457627117" y2="305.50847457627117" /><line  class="poloto_tick_line" stroke="black" x1="150" x2="650" y1="305.50847457627117" y2="305.50847457627117" /><text  class="poloto_tick_labels poloto_text" dominant-baseline="middle" text-anchor="end" x="135" y="305.50847457627117" >4.625</text><line  class="poloto_axis_lines" stroke="black" x1="150" x2="144" y1="294.91525423728814" y2="294.91525423728814" /><line  class="poloto_tick_line" stroke="black" x1="150" x2="650" y1="294.91525423728814" y2="294.91525423728814" /><text  class="poloto_tick_labels poloto_text" dominant-baseline="middle" text-anchor="end" x="135" y="294.91525423728814" >4.75</text><line  class="poloto_axis_lines" stroke="black" x1="150" x2="144" y1="284.3220338983051" y2="284.3220338983051" /><line  class="poloto_tick_line" stroke="black" x1="150" x2="650" y1="284.3220338983051" y2="284.3220338983051" /><text  class="poloto_tick_labels poloto_text" dominant-baseline="middle" text-anchor="end" x="135" y="284.3220338983051" >4.875</text><line  class="poloto_axis_lines" stroke="black" x1="150" x2="144" y1="273.728813559322" y2="273.728813559322" /><line  class="poloto_tick_line" stroke="black" x1="150" x2="650" y1="273.728813559322" y2="273.728813559322" /><text  class="poloto_tick_labels poloto_text" dominant-baseline="middle" text-anchor="end" x="135" y="273.728813559322" >5</text><line  class="poloto_axis_lines" stroke="black" x1="150" x2="144" y1="263.135593220339" y2="263.135593220339" /><line  class="poloto_tick_line" stroke="black" x1="150" x2="650" y1="263.135593220339" y2="263.135593220339" /><text  class="poloto_tick_labels poloto_text" dominant-baseline="middle" text-anchor="end" x="135" y="263.135593220339" >5.125</text><line  class="poloto_axis_lines" stroke="black" x1="150" x2="144" y1="252.54237288135596" y2="252.54237288135596" /><line  class="poloto_tick_line" stroke="black" x1="150" x2="650" y1="252.54237288135596" y2="252.54237288135596" /><text  class="poloto_tick_labels poloto_text" dominant-baseline="middle" text-anchor="end" x="135" y="252.54237288135596" >5.25</text><line  class="poloto_axis_lines" stroke="black" x1="150" x2="144" y1="241.94915254237287" y2="241.94915254237287" /><line  class="poloto_tick_line" stroke="black" x1="150" x2="650" y1="241.94915254237287" y2="241.94915254237287" /><text  class="poloto_tick_labels poloto_text" dominant-baseline="middle" text-anchor="end" x="135" y="241.94915254237287" >5.375</text><line  class="poloto_axis_lines" stroke="black" x1="150" x2="144" y1="231.35593220338984" y2="231.35593220338984" /><line  class="poloto_tick_line" stroke="black" x1="150" x2="650" y1="231.35593220338984" y2="231.35593220338984" /><text  class="poloto_tick_labels poloto_text" dominant-baseline="middle" text-anchor="end" x="135" y="231.35593220338984" >5.5</text><line  class="poloto_axis_lines" stroke="black" x1="150" x2="144" y1="220.7627118644068" y2="220.7627118644068" /><line  class="poloto_tick_line" stroke="black" x1="150" x2="650" y1="220.7627118644068" y2="220.7627118644068" /><text  class="poloto_tick_labels poloto_text" dominant-baseline="middle" text-anchor="end" x="135" y="220.7627118644068" >5.625</text><line  class="poloto_axis_lines" stroke="black" x1="150" x2="144" y1="210.16949152542372" y2="210.16949152542372" /><line  class="poloto_tick_line" stroke="black" x1="150" x2="650" y1="210.16949152542372" y2="210.16949152542372" /><text  class="poloto_tick_labels poloto_text" dominant-baseline="middle" text-anchor="end" x="135" y="210.16949152542372" >5.75</text><line  class="poloto_axis_lines" stroke="black" x1="150" x2="144" y1="199.5762711864407" y2="199.5762711864407" /><line  class="poloto_tick_line" stroke="black" x1="150" x2="650" y1="199.5762711864407" y2="199.5762711864407" /><text  class="poloto_tick_labels poloto_text" dominant-baseline="middle" text-anchor="end" x="135" y="199.5762711864407" >5.875</text><line  class="poloto_axis_lines" stroke="black" x1="150" x2="144" y1="188.98305084745766" y2="188.98305084745766" /><line  class="poloto_tick_line" stroke="black" x1="150" x2="650" y1="188.98305084745766" y2="188.98305084745766" /><text  class="poloto_tick_labels poloto_text" dominant-baseline="middle" text-anchor="end" x="135" y="188.98305084745766" >6</text><line  class="poloto_axis_lines" stroke="black" x1="150" x2="144" y1="178.38983050847457" y2="178.38983050847457" /><line  class="poloto_tick_line" stroke="black" x1="150" x2="650" y1="178.38983050847457" y2="178.38983050847457" /><text  class="poloto_tick_labels poloto_text" dominant-baseline="middle" text-anchor="end" x="135" y="178.38983050847457" >6.125</text><line  class="poloto_axis_lines" stroke="black" x1="150" x2="144" y1="167.7966101694915" y2="167.7966101694915" /><line  class="poloto_tick_line" stroke="black" x1="150" x2="650" y1="167.7966101694915" y2="167.7966101694915" /><text  class="poloto_tick_labels poloto_text" dominant-baseline="middle" text-anchor="end" x="135" y="167.7966101694915" >6.25</text><line  class="poloto_axis_lines" stroke="black" x1="150" x2="144" y1="157.2033898305085" y2="157.2033898305085" /><line  class="poloto_tick_line" stroke="black" x1="150" x2="650" y1="157.2033898305085" y2="157.2033898305085" /><text  class="poloto_tick_labels poloto_text" dominant-baseline="middle" text-anchor="end" x="135" y="157.2033898305085" >6.375</text><line  class="poloto_axis_lines" stroke="black" x1="150" x2="144" y1="146.61016949152543" y2="146.61016949152543" /><line  class="poloto_tick_line" stroke="black" x1="150" x2="650" y1="146.61016949152543" y2="146.61016949152543" /><text  class="poloto_tick_labels poloto_text" dominant-baseline="middle" text-anchor="end" x="135" y="146.61016949152543" >6.5</text><line  class="poloto_axis_lines" stroke="black" x1="150" x2="144" y1="136.01694915254234" y2="136.01694915254234" /><line  class="poloto_tick_line" stroke="black" x1="150" x2="650" y1="136.01694915254234" y2="136.01694915254234" /><text  class="poloto_tick_labels poloto_text" dominant-baseline="middle" text-anchor="end" x="135" y="136.01694915254234" >6.625</text><line  class="poloto_axis_lines" stroke="black" x1="150" x2="144" y1="125.42372881355936" y2="125.42372881355936" /><line  class="poloto_tick_line" stroke="black" x1="150" x2="650" y1="125.42372881355936" y2="125.42372881355936" /><text  class="poloto_tick_labels poloto_text" dominant-baseline="middle" text-anchor="end" x="135" y="125.42372881355936" >6.75</text><line  class="poloto_axis_lines" stroke="black" x1="150" x2="144" y1="114.83050847457628" y2="114.83050847457628" /><line  class="poloto_tick_line" stroke="black" x1="150" x2="650" y1="114.83050847457628" y2="114.83050847457628" /><text  class="poloto_tick_labels poloto_text" dominant-baseline="middle" text-anchor="end" x="135" y="114.83050847457628" >6.875</text><line  class="poloto_axis_lines" stroke="black" x1="150" x2="144" y1="104.23728813559319" y2="104.23728813559319" /><line  class="poloto_tick_line" stroke="black" x1="150" x2="650" y1="104.23728813559319" y2="104.23728813559319" /><text  class="poloto_tick_labels poloto_text" dominant-baseline="middle" text-anchor="end" x="135" y="104.23728813559319" >7</text><text  class="poloto_tick_labels poloto_text" dominant-baseline="middle" text-anchor="start" x="440.00000000000006" y="70" >¹2022-05-01 00:00:00 UTC in Months</text><line  class="poloto_axis_lines" stroke="black" x1="234.26966292134603" x2="234.26966292134603" y1="400" y2="405" /><line  class="poloto_tick_line" stroke="black" x1="234.26966292134603" x2="234.26966292134603" y1="400" y2="100" /><text  class="poloto_tick_labels poloto_text" dominant-baseline="start" text-anchor="middle" x="234.26966292134603" y="430" >2022 May¹</text><line  class="poloto_axis_lines" stroke="black" x1="348.5018726591734" x2="348.5018726591734" y1="400" y2="405" /><line  class="poloto_tick_line" stroke="black" x1="348.5018726591734" x2="348.5018726591734" y1="400" y2="100" /><text  class="poloto_tick_labels poloto_text" dominant-baseline="start" text-anchor="middle" x="348.5018726591734" y="430" >2022 Jul</text><line  class="poloto_axis_lines" stroke="black" x1="464.60674157302856" x2="464.60674157302856" y1="400" y2="405" /><line  class="poloto_tick_line" stroke="black" x1="464.60674157302856" x2="464.60674157302856" y1="400" y2="100" /><text  class="poloto_tick_labels poloto_text" dominant-baseline="start" text-anchor="middle" x="464.60674157302856" y="430" >2022 Sep</text><line  class="poloto_axis_lines" stroke="black" x1="578.8389513108559" x2="578.8389513108559" y1="400" y2="405" /><line  class="poloto_tick_line" stroke="black" x1="578.8389513108559" x2="578.8389513108559" y1="400" y2="100" /><text  class="poloto_tick_labels poloto_text" dominant-baseline="start" text-anchor="middle" x="578.8389513108559" y="430" >2022 Nov</text><path  stroke="black" fill="none" class="poloto_axis_lines" d=" M 150 400 L 650 400" /><path  stroke="black" fill="none" class="poloto_axis_lines" d=" M 150 400 L 150 100" /></svg>