<svg class="poloto" width="800" height="500" viewBox="0 0 800 500" xmlns="http://www.w3.org/2000/svg"><style>.poloto{stroke-linecap:round;stroke-linejoin:round;font-family:Roboto,sans-serif;font-size:16px;}.poloto_background{fill:#262626;}.poloto_scatter{stroke-width:7}.poloto_tick_line{stroke:dimgray;stroke-width:0.5}.poloto_line{stroke-width:2}.poloto_text{fill: white;}.poloto_axis_lines{stroke: white;stroke-width:3;fill:none;stroke-dasharray:none}.poloto_title{font-size:24px;dominant-baseline:start;text-anchor:middle;}.poloto_xname{font-size:24px;dominant-baseline:start;text-anchor:middle;}.poloto_yname{font-size:24px;dominant-baseline:start;text-anchor:middle;}.poloto0stroke{stroke:blue;}.poloto1stroke{stroke:red;}.poloto2stroke{stroke:green;}.poloto3stroke{stroke:gold;}.poloto4stroke{stroke:aqua;}.poloto5stroke{stroke:lime;}.poloto6stroke{stroke:orange;}.poloto7stroke{stroke:chocolate;}.poloto0fill{fill:blue;}.poloto1fill{fill:red;}.poloto2fill{fill:green;}.poloto3fill{fill:gold;}.poloto4fill{fill:aqua;}.poloto5fill{fill:lime;}.poloto6fill{fill:orange;}.poloto7fill{fill:chocolate;}</style><circle  r="1e5" class="poloto_background" /><text  class="poloto_text poloto_legend_text" x="675" y="100" >Refinance 15</text><line  class="poloto_line poloto_legend_icon poloto0stroke poloto0legend" stroke="black" x1="680" x2="730" y1="81.25" y2="81.25" /><path  class="poloto_line poloto0stroke" fill="none" stroke="black" d=" M 150.00 392.46 L 151.85 400.00 L 157.38 389.32 L 159.23 380.17 L 161.07 389.32 L 161.07 389.32 L 164.76 358.81 L 170.30 357.20 L 172.14 367.88 L 173.99 344.83 L 175.83 346.44 L 177.68 341.61 L 183.21 343.22 L 185.06 336.78 L 185.06 336.78 L 188.75 337.37 L 190.59 314.32 L 196.13 324.32 L 197.97 327.54 L 199.82 327.54 L 201.66 326.69 L 203.51 321.78 L 210.89 278.73 L 212.73 297.88 L 214.58 283.05 L 216.42 277.29 L 216.42 277.29 L 223.80 299.58 L 227.49 303.64 L 229.34 294.58 L 234.87 283.81 L 236.72 305.25 L 238.56 294.58 L 238.56 294.58 L 242.25 292.88 L 247.79 296.19 L 249.63 306.86 L 249.63 306.86 L 251.48 297.80 L 253.32 308.56 L 255.17 292.88 L 260.70 325.08 L 262.55 324.32 L 264.39 306.86 L 264.39 306.86 L 266.24 314.32 L 268.08 317.63 L 273.62 317.63 L 275.46 329.15 L 277.31 329.15 L 279.15 329.15 L 281.00 329.15 L 288.38 317.63 L 290.22 314.32 L 292.07 315.93 L 293.91 315.93 L 293.91 315.93 L 301.29 305.25 L 303.14 305.25 L 304.98 296.19 L 312.36 281.36 L 314.21 250.76 L 316.05 254.15 L 317.90 254.15 L 319.74 275.59 L 325.28 254.15 L 327.12 254.15 L 328.97 273.90 L 330.81 277.29 L 338.19 277.29 L 340.04 275.59 L 341.88 280.59 L 343.73 285.51 L 345.57 296.19 L 352.95 303.64 L 354.80 294.58 L 356.64 287.12 L 358.49 283.81 L 364.02 285.51 L 367.71 285.51 L 369.56 283.81 L 376.94 282.20 L 376.94 282.20 L 376.94 282.20 L 376.94 282.20 L 376.94 282.20 L 376.94 282.20 L 380.63 282.20 L 380.63 282.20 L 380.63 282.20 L 380.63 282.20 L 380.63 282.20 L 380.63 282.20 L 389.85 294.58 L 393.54 297.80 L 395.39 325.93 L 397.23 329.15 L 402.77 329.15 L 404.61 327.54 L 406.46 305.25 L 408.30 299.49 L 410.15 285.51 L 415.68 296.19 L 415.68 296.19 L 417.53 287.12 L 421.22 296.19 L 421.22 296.19 L 430.44 296.19 L 432.29 262.46 L 434.13 282.20 L 441.51 248.39 L 445.20 248.39 L 445.20 248.39 L 448.89 260.76 L 456.27 254.15 L 456.27 254.15 L 456.27 254.15 L 456.27 254.15 L 456.27 254.15 L 456.27 254.15 L 456.27 254.15 L 456.27 254.15 L 456.27 254.15 L 461.81 254.15 L 472.88 232.63 L 480.26 235.17 L 480.26 235.17 L 485.79 235.17 L 493.17 235.17 L 495.02 235.17 L 495.02 235.17 L 495.02 235.17 L 495.02 235.17 L 495.02 235.17 L 519.00 235.17 L 520.85 235.17 L 531.92 139.75 L 533.76 130.68 L 535.61 130.68 L 602.03 159.15 L 609.41 159.15 L 611.25 159.15 L 613.10 175.51 L 616.79 184.49 L 616.79 184.49 L 624.17 184.49 L 626.01 184.49 L 627.86 184.49 L 629.70 184.49 L 635.24 184.49 L 637.08 184.49 L 640.77 184.49 L 642.62 184.49 L 648.15 184.49 L 650.00 184.49" /><text  class="poloto_text poloto_legend_text" x="675" y="150" >Refinance 20</text><line  class="poloto_line poloto_legend_icon poloto1stroke poloto1legend" stroke="black" x1="680" x2="730" y1="131.25" y2="131.25" /><path  class="poloto_line poloto1stroke" fill="none" stroke="black" d=" M 150.00 345.68 L 151.85 368.31 L 157.38 334.58 L 159.23 324.24 L 161.07 333.73 L 161.07 333.73 L 164.76 304.07 L 170.30 301.53 L 172.14 312.29 L 173.99 300.25 L 175.83 311.02 L 177.68 290.85 L 183.21 321.69 L 185.06 290.85 L 185.06 290.85 L 188.75 290.85 L 188.75 290.85 L 196.13 250.17 L 197.97 282.71 L 199.82 290.85 L 201.66 301.53 L 203.51 280.59 L 210.89 260.00 L 212.73 257.37 L 214.58 252.12 L 216.42 240.08 L 221.96 245.34 L 223.80 268.14 L 227.49 260.00 L 229.34 257.37 L 234.87 248.81 L 236.72 258.73 L 238.56 258.73 L 238.56 258.73 L 242.25 258.73 L 247.79 260.00 L 249.63 281.44 L 249.63 281.44 L 251.48 269.41 L 253.32 289.58 L 255.17 281.44 L 260.70 282.71 L 262.55 281.44 L 264.39 281.44 L 264.39 281.44 L 266.24 282.71 L 268.08 289.58 L 273.62 290.85 L 275.46 294.66 L 277.31 294.66 L 279.15 294.66 L 281.00 294.66 L 288.38 289.58 L 290.22 278.81 L 292.07 281.44 L 293.91 281.44 L 293.91 281.44 L 301.29 268.14 L 303.14 270.68 L 304.98 261.27 L 312.36 215.85 L 314.21 197.03 L 316.05 207.80 L 317.90 215.85 L 319.74 238.56 L 325.28 225.17 L 327.12 218.47 L 328.97 239.92 L 330.81 250.17 L 338.19 250.17 L 340.04 238.56 L 341.88 249.32 L 343.73 260.00 L 345.57 272.03 L 352.95 280.08 L 354.80 269.41 L 356.64 258.73 L 358.49 251.44 L 364.02 257.37 L 367.71 260.00 L 369.56 258.73 L 376.94 260.00 L 376.94 260.00 L 376.94 260.00 L 376.94 260.00 L 376.94 260.00 L 376.94 260.00 L 376.94 260.00 L 376.94 260.00 L 376.94 260.00 L 376.94 260.00 L 376.94 260.00 L 376.94 260.00 L 389.85 280.08 L 393.54 282.71 L 395.39 301.53 L 397.23 304.07 L 402.77 301.27 L 404.61 301.27 L 406.46 290.85 L 408.30 294.66 L 410.15 278.81 L 415.68 270.68 L 415.68 270.68 L 417.53 270.68 L 421.22 281.44 L 421.22 281.44 L 430.44 278.81 L 432.29 260.00 L 434.13 260.00 L 441.51 246.19 L 445.20 234.58 L 445.20 234.58 L 448.89 247.54 L 456.27 215.85 L 456.27 215.85 L 456.27 215.85 L 456.27 215.85 L 456.27 215.85 L 456.27 215.85 L 456.27 215.85 L 456.27 215.85 L 456.27 215.85 L 461.81 215.85 L 472.88 202.37 L 480.26 203.73 L 483.95 203.73 L 485.79 203.73 L 485.79 203.73 L 495.02 203.73 L 496.86 203.73 L 496.86 203.73 L 496.86 203.73 L 496.86 203.73 L 519.00 203.73 L 520.85 203.73 L 531.92 118.81 L 533.76 102.97 L 533.76 102.97 L 605.72 155.34 L 609.41 155.34 L 611.25 155.34 L 614.94 174.15 L 616.79 175.51 L 616.79 175.51 L 624.17 175.51 L 626.01 175.51 L 627.86 175.51 L 629.70 175.51 L 635.24 175.51 L 637.08 175.51 L 640.77 175.51 L 642.62 175.51 L 648.15 175.51 L 650.00 175.51" /><text  class="poloto_text poloto_legend_text" x="675" y="200" >Refinance 30</text><line  class="poloto_line poloto_legend_icon poloto2stroke poloto2legend" stroke="black" x1="680" x2="730" y1="181.25" y2="181.25" /><path  class="poloto_line poloto2stroke" fill="none" stroke="black" d=" M 150.00 343.31 L 151.85 351.36 L 157.38 338.81 L 159.23 328.98 L 161.07 330.85 L 161.07 330.85 L 164.76 310.25 L 170.30 308.47 L 172.14 319.15 L 173.99 307.54 L 175.83 318.22 L 177.68 297.71 L 183.21 307.54 L 185.06 286.95 L 186.90 286.95 L 188.75 286.02 L 190.59 260.00 L 196.13 264.58 L 197.97 276.27 L 199.82 286.95 L 201.66 277.20 L 203.51 265.51 L 210.89 256.61 L 212.73 242.12 L 214.58 240.17 L 216.42 238.14 L 221.96 242.12 L 223.80 258.73 L 227.49 256.61 L 229.34 254.66 L 234.87 244.07 L 236.72 255.59 L 238.56 244.07 L 238.56 244.07 L 242.25 244.07 L 247.79 246.02 L 249.63 264.58 L 249.63 264.58 L 251.48 255.59 L 253.32 256.61 L 255.17 257.54 L 260.70 265.51 L 262.55 256.61 L 264.39 256.61 L 264.39 256.61 L 266.24 266.44 L 268.08 267.46 L 273.62 268.39 L 275.46 277.20 L 277.31 277.20 L 279.15 279.07 L 281.00 279.07 L 288.38 275.25 L 290.22 264.58 L 292.07 266.44 L 293.91 265.51 L 293.91 265.51 L 301.29 255.59 L 303.14 255.59 L 304.98 245.00 L 312.36 202.12 L 314.21 171.78 L 316.05 190.34 L 317.90 202.12 L 319.74 212.80 L 325.28 203.05 L 327.12 202.12 L 328.97 221.61 L 330.81 223.56 L 338.19 223.56 L 340.04 211.86 L 341.88 221.61 L 343.73 232.29 L 345.57 255.59 L 352.95 256.61 L 354.80 245.00 L 356.64 224.58 L 358.49 221.61 L 364.02 241.10 L 367.71 223.56 L 369.56 222.54 L 376.94 242.12 L 376.94 242.12 L 376.94 242.12 L 376.94 242.12 L 376.94 242.12 L 376.94 242.12 L 380.63 242.12 L 380.63 242.12 L 380.63 242.12 L 380.63 242.12 L 380.63 242.12 L 380.63 242.12 L 389.85 254.66 L 393.54 256.61 L 395.39 275.25 L 397.23 287.88 L 402.77 286.95 L 404.61 286.95 L 406.46 265.51 L 408.30 268.39 L 410.15 254.66 L 415.68 265.51 L 415.68 265.51 L 417.53 257.54 L 421.22 266.44 L 421.22 266.44 L 430.44 264.58 L 432.29 246.02 L 434.13 245.00 L 441.51 220.59 L 445.20 211.86 L 445.20 211.86 L 448.89 222.54 L 456.27 210.85 L 456.27 210.85 L 456.27 210.85 L 456.27 210.85 L 456.27 210.85 L 456.27 210.85 L 456.27 210.85 L 456.27 210.85 L 461.81 210.85 L 461.81 209.83 L 472.88 197.03 L 480.26 175.51 L 480.26 175.51 L 485.79 175.51 L 485.79 175.51 L 495.02 175.51 L 496.86 175.51 L 496.86 175.51 L 496.86 175.51 L 496.86 175.51 L 519.00 175.51 L 520.85 175.51 L 531.92 127.03 L 533.76 100.00 L 533.76 100.00 L 605.72 146.44 L 609.41 146.44 L 611.25 146.44 L 613.10 150.76 L 616.79 160.59 L 616.79 160.59 L 624.17 160.59 L 626.01 160.59 L 627.86 160.59 L 629.70 160.59 L 635.24 160.59 L 637.08 160.59 L 640.77 160.59 L 642.62 160.59 L 648.15 160.59 L 650.00 160.59" /><text  class="poloto_labels poloto_text poloto_title" x="400" y="37.5" >lower.com purchase rates</text><text  class="poloto_labels poloto_text poloto_xname" x="400" y="481.25" >Date</text><text  class="poloto_labels poloto_text poloto_yname" transform="rotate(-90,37.5,250)" x="37.5" y="250" >Rate (%)</text><text  class="poloto_tick_labels poloto_text" dominant-baseline="middle" text-anchor="start" x="150" y="70" ></text><line  class="poloto_axis_lines" stroke="black" x1="150" x2="144" y1="390.2542372881356" y2="390.2542372881356" /><line  class="poloto_tick_line" stroke="black" x1="150" x2="650" y1="390.2542372881356" y2="390.2542372881356" /><text  class="poloto_tick_labels poloto_text" dominant-baseline="middle" text-anchor="end" x="135" y="390.2542372881356" >3.625</text><line  class="poloto_axis_lines" stroke="black" x1="150" x2="144" y1="379.66101694915255" y2="379.66101694915255" /><line  class="poloto_tick_line" stroke="black" x1="150" x2="650" y1="379.66101694915255" y2="379.66101694915255" /><text  class="poloto_tick_labels poloto_text" dominant-baseline="middle" text-anchor="end" x="135" y="379.66101694915255" >3.75</text><line  class="poloto_axis_lines" stroke="black" x1="150" x2="144" y1="369.06779661016947" y2="369.06779661016947" /><line  class="poloto_tick_line" stroke="black" x1="150" x2="650" y1="369.06779661016947" y2="369.06779661016947" /><text  class="poloto_tick_labels poloto_text" dominant-baseline="middle" text-anchor="end" x="135" y="369.06779661016947" >3.875</text><line  class="poloto_axis_lines" stroke="black" x1="150" x2="144" y1="358.47457627118644" y2="358.47457627118644" /><line  class="poloto_tick_line" stroke="black" x1="150" x2="650" y1="358.47457627118644" y2="358.47457627118644" /><text  class="poloto_tick_labels poloto_text" dominant-baseline="middle" text-anchor="end" x="135" y="358.47457627118644" >4</text><line  class="poloto_axis_lines" stroke="black" x1="150" x2="144" y1="347.8813559322034" y2="347.8813559322034" /><line  class="poloto_tick_line" stroke="black" x1="150" x2="650" y1="347.8813559322034" y2="347.8813559322034" /><text  class="poloto_tick_labels poloto_text" dominant-baseline="middle" text-anchor="end" x="135" y="347.8813559322034" >4.125</text><line  class="poloto_axis_lines" stroke="black" x1="150" x2="144" y1="337.2881355932203" y2="337.2881355932203" /><line  class="poloto_tick_line" stroke="black" x1="150" x2="650" y1="337.2881355932203" y2="337.2881355932203" /><text  class="poloto_tick_labels poloto_text" dominant-baseline="middle" text-anchor="end" x="135" y="337.2881355932203" >4.25</text><line  class="poloto_axis_lines" stroke="black" x1="150" x2="144" y1="326.6949152542373" y2="326.6949152542373" /><line  class="poloto_tick_line" stroke="black" x1="150" x2="650" y1="326.6949152542373" y2="326.6949152542373" /><text  class="poloto_tick_labels poloto_text" dominant-baseline="middle" text-anchor="end" x="135" y="326.6949152542373" >4.375</text><line  class="poloto_axis_lines" stroke="black" x1="150" x2="144" y1="316.10169491525426" y2="316.10169491525426" /><line  class="poloto_tick_line" stroke="black" x1="150" x2="650" y1="316.10169491525426" y2="316.10169491525426" /><text  class="poloto_tick_labels poloto_text" dominant-baseline="middle" text-anchor="end" x="135" y="316.10169491525426" >4.5</text><line  class="poloto_axis_lines" stroke="black" x1="150" x2="144" y1="305.50847457627117" y2="305.50847457627117" /><line  class="poloto_tick_line" stroke="black" x1="150" x2="650" y1="305.50847457627117" y2="305.50847457627117" /><text  class="poloto_tick_labels poloto_text" dominant-baseline="middle" text-anchor="end" x="135" y="305.50847457627117" >4.625</text><line  class="poloto_axis_lines" stroke="black" x1="150" x2="144" y1="294.91525423728814" y2="294.91525423728814" /><line  class="poloto_tick_line" stroke="black" x1="150" x2="650" y1="294.91525423728814" y2="294.91525423728814" /><text  class="poloto_tick_labels poloto_text" dominant-baseline="middle" text-anchor="end" x="135" y="294.91525423728814" >4.75</text><line  class="poloto_axis_lines" stroke="black" x1="150" x2="144" y1="284.3220338983051" y2="284.3220338983051" /><line  class="poloto_tick_line" stroke="black" x1="150" x2="650" y1="284.3220338983051" y2="284.3220338983051" /><text  class="poloto_tick_labels poloto_text" dominant-baseline="middle" text-anchor="end" x="135" y="284.3220338983051" >4.875</text><line  class="poloto_axis_lines" stroke="black" x1="150" x2="144" y1="273.728813559322" y2="273.728813559322" /><line  class="poloto_tick_line" stroke="black" x1="150" x2="650" y1="273.728813559322" y2="273.728813559322" /><text  class="poloto_tick_labels poloto_text" dominant-baseline="middle" text-anchor="end" x="135" y="273.728813559322" >5</text><line  class="poloto_axis_lines" stroke="black" x1="150" x2="144" y1="263.135593220339" y2="263.135593220339" /><line  class="poloto_tick_line" stroke="black" x1="150" x2="650" y1="263.135593220339" y2="263.135593220339" /><text  class="poloto_tick_labels poloto_text" dominant-baseline="middle" text-anchor="end" x="135" y="263.135593220339" >5.125</text><line  class="poloto_axis_lines" stroke="black" x1="150" x2="144" y1="252.54237288135596" y2="252.54237288135596" /><line  class="poloto_tick_line" stroke="black" x1="150" x2="650" y1="252.54237288135596" y2="252.54237288135596" /><text  class="poloto_tick_labels poloto_text" dominant-baseline="middle" text-anchor="end" x="135" y="252.54237288135596" >5.25</text><line  class="poloto_axis_lines" stroke="black" x1="150" x2="144" y1="241.94915254237287" y2="241.94915254237287" /><line  class="poloto_tick_line" stroke="black" x1="150" x2="650" y1="241.94915254237287" y2="241.94915254237287" /><text  class="poloto_tick_labels poloto_text" dominant-baseline="middle" text-anchor="end" x="135" y="241.94915254237287" >5.375</text><line  class="poloto_axis_lines" stroke="black" x1="150" x2="144" y1="231.35593220338984" y2="231.35593220338984" /><line  class="poloto_tick_line" stroke="black" x1="150" x2="650" y1="231.35593220338984" y2="231.35593220338984" /><text  class="poloto_tick_labels poloto_text" dominant-baseline="middle" text-anchor="end" x="135" y="231.35593220338984" >5.5</text><line  class="poloto_axis_lines" stroke="black" x1="150" x2="144" y1="220.7627118644068" y2="220.7627118644068" /><line  class="poloto_tick_line" stroke="black" x1="150" x2="650" y1="220.7627118644068" y2="220.7627118644068" /><text  class="poloto_tick_labels poloto_text" dominant-baseline="middle" text-anchor="end" x="135" y="220.7627118644068" >5.625</text><line  class="poloto_axis_lines" stroke="black" x1="150" x2="144" y1="210.16949152542372" y2="210.16949152542372" /><line  class="poloto_tick_line" stroke="black" x1="150" x2="650" y1="210.16949152542372" y2="210.16949152542372" /><text  class="poloto_tick_labels poloto_text" dominant-baseline="middle" text-anchor="end" x="135" y="210.16949152542372" >5.75</text><line  class="poloto_axis_lines" stroke="black" x1="150" x2="144" y1="199.5762711864407" y2="199.5762711864407" /><line  class="poloto_tick_line" stroke="black" x1="150" x2="650" y1="199.5762711864407" y2="199.5762711864407" /><text  class="poloto_tick_labels poloto_text" dominant-baseline="middle" text-anchor="end" x="135" y="199.5762711864407" >5.875</text><line  class="poloto_axis_lines" stroke="black" x1="150" x2="144" y1="188.98305084745766" y2="188.98305084745766" /><line  class="poloto_tick_line" stroke="black" x1="150" x2="650" y1="188.98305084745766" y2="188.98305084745766" /><text  class="poloto_tick_labels poloto_text" dominant-baseline="middle" text-anchor="end" x="135" y="188.98305084745766" >6</text><line  class="poloto_axis_lines" stroke="black" x1="150" x2="144" y1="178.38983050847457" y2="178.38983050847457" /><line  class="poloto_tick_line" stroke="black" x1="150" x2="650" y1="178.38983050847457" y2="178.38983050847457" /><text  class="poloto_tick_labels poloto_text" dominant-baseline="middle" text-anchor="end" x="135" y="178.38983050847457" >6.125</text><line  class="poloto_axis_lines" stroke="black" x1="150" x2="144" y1="167.7966101694915" y2="167.7966101694915" /><line  class="poloto_tick_line" stroke="black" x1="150" x2="650" y1="167.7966101694915" y2="167.7966101694915" /><text  class="poloto_tick_labels poloto_text" dominant-baseline="middle" text-anchor="end" x="135" y="167.7966101694915" >6.25</text><line  class="poloto_axis_lines" stroke="black" x1="150" x2="144" y1="157.2033898305085" y2="157.2033898305085" /><line  class="poloto_tick_line" stroke="black" x1="150" x2="650" y1="157.2033898305085" y2="157.2033898305085" /><text  class="poloto_tick_labels poloto_text" dominant-baseline="middle" text-anchor="end" x="135" y="157.2033898305085" >6.375</text><line  class="poloto_axis_lines" stroke="black" x1="150" x2="144" y1="146.61016949152543" y2="146.61016949152543" /><line  class="poloto_tick_line" stroke="black" x1="150" x2="650" y1="146.61016949152543" y2="146.61016949152543" /><text  class="poloto_tick_labels poloto_text" dominant-baseline="middle" text-anchor="end" x="135" y="146.61016949152543" >6.5</text><line  class="poloto_axis_lines" stroke="black" x1="150" x2="144" y1="136.01694915254234" y2="136.01694915254234" /><line  class="poloto_tick_line" stroke="black" x1="150" x2="650" y1="136.01694915254234" y2="136.01694915254234" /><text  class="poloto_tick_labels poloto_text" dominant-baseline="middle" text-anchor="end" x="135" y="136.01694915254234" >6.625</text><line  class="poloto_axis_lines" stroke="black" x1="150" x2="144" y1="125.42372881355936" y2="125.42372881355936" /><line  class="poloto_tick_line" stroke="black" x1="150" x2="650" y1="125.42372881355936" y2="125.42372881355936" /><text  class="poloto_tick_labels poloto_text" dominant-baseline="middle" text-anchor="end" x="135" y="125.42372881355936" >6.75</text><line  class="poloto_axis_lines" stroke="black" x1="150" x2="144" y1="114.83050847457628" y2="114.83050847457628" /><line  class="poloto_tick_line" stroke="black" x1="150" x2="650" y1="114.83050847457628" y2="114.83050847457628" /><text  class="poloto_tick_labels poloto_text" dominant-baseline="middle" text-anchor="end" x="135" y="114.83050847457628" >6.875</text><line  class="poloto_axis_lines" stroke="black" x1="150" x2="144" y1="104.23728813559319" y2="104.23728813559319" /><line  class="poloto_tick_line" stroke="black" x1="150" x2="650" y1="104.23728813559319" y2="104.23728813559319" /><text  class="poloto_tick_labels poloto_text" dominant-baseline="middle" text-anchor="end" x="135" y="104.23728813559319" >7</text><text  class="poloto_tick_labels poloto_text" dominant-baseline="middle" text-anchor="start" x="440.00000000000006" y="70" >¹2022-05-01 00:00:00 UTC in Months</text><line  class="poloto_axis_lines" stroke="black" x1="233.02583025830245" x2="233.02583025830245" y1="400" y2="405" /><line  class="poloto_tick_line" stroke="black" x1="233.02583025830245" x2="233.02583025830245" y1="400" y2="100" /><text  class="poloto_tick_labels poloto_text" dominant-baseline="start" text-anchor="middle" x="233.02583025830245" y="430" >2022 May¹</text><line  class="poloto_axis_lines" stroke="black" x1="345.57195571955526" x2="345.57195571955526" y1="400" y2="405" /><line  class="poloto_tick_line" stroke="black" x1="345.57195571955526" x2="345.57195571955526" y1="400" y2="100" /><text  class="poloto_tick_labels poloto_text" dominant-baseline="start" text-anchor="middle" x="345.57195571955526" y="430" >2022 Jul</text><line  class="poloto_axis_lines" stroke="black" x1="459.9630996309934" x2="459.9630996309934" y1="400" y2="405" /><line  class="poloto_tick_line" stroke="black" x1="459.9630996309934" x2="459.9630996309934" y1="400" y2="100" /><text  class="poloto_tick_labels poloto_text" dominant-baseline="start" text-anchor="middle" x="459.9630996309934" y="430" >2022 Sep</text><line  class="poloto_axis_lines" stroke="black" x1="572.5092250922535" x2="572.5092250922535" y1="400" y2="405" /><line  class="poloto_tick_line" stroke="black" x1="572.5092250922535" x2="572.5092250922535" y1="400" y2="100" /><text  class="poloto_tick_labels poloto_text" dominant-baseline="start" text-anchor="middle" x="572.5092250922535" y="430" >2022 Nov</text><path  stroke="black" fill="none" class="poloto_axis_lines" d=" M 150 400 L 650 400" /><path  stroke="black" fill="none" class="poloto_axis_lines" d=" M 150 400 L 150 100" /></svg>