<svg class="poloto" width="800" height="500" viewBox="0 0 800 500" xmlns="http://www.w3.org/2000/svg"><style>.poloto{stroke-linecap:round;stroke-linejoin:round;font-family:Roboto,sans-serif;font-size:16px;}.poloto_background{fill:#262626;}.poloto_scatter{stroke-width:7}.poloto_tick_line{stroke:dimgray;stroke-width:0.5}.poloto_line{stroke-width:2}.poloto_text{fill: white;}.poloto_axis_lines{stroke: white;stroke-width:3;fill:none;stroke-dasharray:none}.poloto_title{font-size:24px;dominant-baseline:start;text-anchor:middle;}.poloto_xname{font-size:24px;dominant-baseline:start;text-anchor:middle;}.poloto_yname{font-size:24px;dominant-baseline:start;text-anchor:middle;}.poloto0stroke{stroke:blue;}.poloto1stroke{stroke:red;}.poloto2stroke{stroke:green;}.poloto3stroke{stroke:gold;}.poloto4stroke{stroke:aqua;}.poloto5stroke{stroke:lime;}.poloto6stroke{stroke:orange;}.poloto7stroke{stroke:chocolate;}.poloto0fill{fill:blue;}.poloto1fill{fill:red;}.poloto2fill{fill:green;}.poloto3fill{fill:gold;}.poloto4fill{fill:aqua;}.poloto5fill{fill:lime;}.poloto6fill{fill:orange;}.poloto7fill{fill:chocolate;}</style><circle  r="1e5" class="poloto_background" /><text  class="poloto_text poloto_legend_text" x="675" y="100" >Refinance 15</text><line  class="poloto_line poloto_legend_icon poloto0stroke poloto0legend" stroke="black" x1="680" x2="730" y1="81.25" y2="81.25" /><path  class="poloto_line poloto0stroke" fill="none" stroke="black" d=" M 150.00 392.46 L 151.67 400.00 L 156.67 389.32 L 158.33 380.17 L 160.00 389.32 L 160.00 389.32 L 163.33 358.81 L 168.33 357.20 L 170.00 367.88 L 171.67 344.83 L 173.33 346.44 L 175.00 341.61 L 180.00 343.22 L 181.67 336.78 L 181.67 336.78 L 185.00 337.37 L 186.67 314.32 L 191.67 324.32 L 193.33 327.54 L 195.00 327.54 L 196.67 326.69 L 198.33 321.78 L 205.00 278.73 L 206.67 297.88 L 208.33 283.05 L 210.00 277.29 L 210.00 277.29 L 216.67 299.58 L 220.00 303.64 L 221.67 294.58 L 226.67 283.81 L 228.33 305.25 L 230.00 294.58 L 230.00 294.58 L 233.33 292.88 L 238.33 296.19 L 240.00 306.86 L 240.00 306.86 L 241.67 297.80 L 243.33 308.56 L 245.00 292.88 L 250.00 325.08 L 251.67 324.32 L 253.33 306.86 L 253.33 306.86 L 255.00 314.32 L 256.67 317.63 L 261.67 317.63 L 263.33 329.15 L 265.00 329.15 L 266.67 329.15 L 268.33 329.15 L 275.00 317.63 L 276.67 314.32 L 278.33 315.93 L 280.00 315.93 L 280.00 315.93 L 286.67 305.25 L 288.33 305.25 L 290.00 296.19 L 296.67 281.36 L 298.33 250.76 L 300.00 254.15 L 301.67 254.15 L 303.33 275.59 L 308.33 254.15 L 310.00 254.15 L 311.67 273.90 L 313.33 277.29 L 320.00 277.29 L 321.67 275.59 L 323.33 280.59 L 325.00 285.51 L 326.67 296.19 L 333.33 303.64 L 335.00 294.58 L 336.67 287.12 L 338.33 283.81 L 343.33 285.51 L 346.67 285.51 L 348.33 283.81 L 355.00 282.20 L 355.00 282.20 L 355.00 282.20 L 355.00 282.20 L 355.00 282.20 L 355.00 282.20 L 358.33 282.20 L 358.33 282.20 L 358.33 282.20 L 358.33 282.20 L 358.33 282.20 L 358.33 282.20 L 366.67 294.58 L 370.00 297.80 L 371.67 325.93 L 373.33 329.15 L 378.33 329.15 L 380.00 327.54 L 381.67 305.25 L 383.33 299.49 L 385.00 285.51 L 390.00 296.19 L 390.00 296.19 L 391.67 287.12 L 395.00 296.19 L 395.00 296.19 L 403.33 296.19 L 405.00 262.46 L 406.67 282.20 L 413.33 248.39 L 416.67 248.39 L 416.67 248.39 L 420.00 260.76 L 426.67 254.15 L 426.67 254.15 L 426.67 254.15 L 426.67 254.15 L 426.67 254.15 L 426.67 254.15 L 426.67 254.15 L 426.67 254.15 L 426.67 254.15 L 431.67 254.15 L 441.67 232.63 L 448.33 235.17 L 448.33 235.17 L 453.33 235.17 L 460.00 235.17 L 461.67 235.17 L 461.67 235.17 L 461.67 235.17 L 461.67 235.17 L 461.67 235.17 L 483.33 235.17 L 485.00 235.17 L 495.00 139.75 L 496.67 130.68 L 498.33 130.68 L 558.33 159.15 L 565.00 159.15 L 566.67 159.15 L 568.33 175.51 L 571.67 184.49 L 571.67 184.49 L 578.33 184.49 L 580.00 184.49 L 581.67 184.49 L 583.33 184.49 L 588.33 184.49 L 590.00 184.49 L 593.33 184.49 L 595.00 184.49 L 600.00 184.49 L 601.67 184.49 L 601.67 184.49 L 606.67 184.49 L 611.67 184.49 L 613.33 184.49 L 615.00 184.49 L 616.67 184.49 L 618.33 184.49 L 625.00 209.15 L 626.67 180.68 L 628.33 159.15 L 630.00 169.92 L 635.00 169.92 L 636.67 169.92 L 636.67 169.92 L 640.00 193.05 L 641.67 193.05 L 646.67 193.05 L 648.33 193.05 L 650.00 193.05" /><text  class="poloto_text poloto_legend_text" x="675" y="150" >Refinance 20</text><line  class="poloto_line poloto_legend_icon poloto1stroke poloto1legend" stroke="black" x1="680" x2="730" y1="131.25" y2="131.25" /><path  class="poloto_line poloto1stroke" fill="none" stroke="black" d=" M 150.00 345.68 L 151.67 368.31 L 156.67 334.58 L 158.33 324.24 L 160.00 333.73 L 160.00 333.73 L 163.33 304.07 L 168.33 301.53 L 170.00 312.29 L 171.67 300.25 L 173.33 311.02 L 175.00 290.85 L 180.00 321.69 L 181.67 290.85 L 181.67 290.85 L 185.00 290.85 L 185.00 290.85 L 191.67 250.17 L 193.33 282.71 L 195.00 290.85 L 196.67 301.53 L 198.33 280.59 L 205.00 260.00 L 206.67 257.37 L 208.33 252.12 L 210.00 240.08 L 215.00 245.34 L 216.67 268.14 L 220.00 260.00 L 221.67 257.37 L 226.67 248.81 L 228.33 258.73 L 230.00 258.73 L 230.00 258.73 L 233.33 258.73 L 238.33 260.00 L 240.00 281.44 L 240.00 281.44 L 241.67 269.41 L 243.33 289.58 L 245.00 281.44 L 250.00 282.71 L 251.67 281.44 L 253.33 281.44 L 253.33 281.44 L 255.00 282.71 L 256.67 289.58 L 261.67 290.85 L 263.33 294.66 L 265.00 294.66 L 266.67 294.66 L 268.33 294.66 L 275.00 289.58 L 276.67 278.81 L 278.33 281.44 L 280.00 281.44 L 280.00 281.44 L 286.67 268.14 L 288.33 270.68 L 290.00 261.27 L 296.67 215.85 L 298.33 197.03 L 300.00 207.80 L 301.67 215.85 L 303.33 238.56 L 308.33 225.17 L 310.00 218.47 L 311.67 239.92 L 313.33 250.17 L 320.00 250.17 L 321.67 238.56 L 323.33 249.32 L 325.00 260.00 L 326.67 272.03 L 333.33 280.08 L 335.00 269.41 L 336.67 258.73 L 338.33 251.44 L 343.33 257.37 L 346.67 260.00 L 348.33 258.73 L 355.00 260.00 L 355.00 260.00 L 355.00 260.00 L 355.00 260.00 L 355.00 260.00 L 355.00 260.00 L 355.00 260.00 L 355.00 260.00 L 355.00 260.00 L 355.00 260.00 L 355.00 260.00 L 355.00 260.00 L 366.67 280.08 L 370.00 282.71 L 371.67 301.53 L 373.33 304.07 L 378.33 301.27 L 380.00 301.27 L 381.67 290.85 L 383.33 294.66 L 385.00 278.81 L 390.00 270.68 L 390.00 270.68 L 391.67 270.68 L 395.00 281.44 L 395.00 281.44 L 403.33 278.81 L 405.00 260.00 L 406.67 260.00 L 413.33 246.19 L 416.67 234.58 L 416.67 234.58 L 420.00 247.54 L 426.67 215.85 L 426.67 215.85 L 426.67 215.85 L 426.67 215.85 L 426.67 215.85 L 426.67 215.85 L 426.67 215.85 L 426.67 215.85 L 426.67 215.85 L 431.67 215.85 L 441.67 202.37 L 448.33 203.73 L 451.67 203.73 L 453.33 203.73 L 453.33 203.73 L 461.67 203.73 L 463.33 203.73 L 463.33 203.73 L 463.33 203.73 L 463.33 203.73 L 483.33 203.73 L 485.00 203.73 L 495.00 118.81 L 496.67 102.97 L 496.67 102.97 L 561.67 155.34 L 565.00 155.34 L 566.67 155.34 L 570.00 174.15 L 571.67 175.51 L 571.67 175.51 L 578.33 175.51 L 580.00 175.51 L 581.67 175.51 L 583.33 175.51 L 588.33 175.51 L 590.00 175.51 L 593.33 175.51 L 595.00 175.51 L 600.00 175.51 L 601.67 175.51 L 601.67 175.51 L 606.67 175.51 L 611.67 175.51 L 613.33 175.51 L 615.00 175.51 L 616.67 175.51 L 618.33 175.51 L 625.00 156.36 L 626.67 145.93 L 628.33 144.58 L 630.00 147.37 L 635.00 147.37 L 636.67 147.37 L 636.67 147.37 L 640.00 167.46 L 641.67 167.46 L 646.67 167.46 L 648.33 167.46 L 650.00 167.46" /><text  class="poloto_text poloto_legend_text" x="675" y="200" >Refinance 30</text><line  class="poloto_line poloto_legend_icon poloto2stroke poloto2legend" stroke="black" x1="680" x2="730" y1="181.25" y2="181.25" /><path  class="poloto_line poloto2stroke" fill="none" stroke="black" d=" M 150.00 343.31 L 151.67 351.36 L 156.67 338.81 L 158.33 328.98 L 160.00 330.85 L 160.00 330.85 L 163.33 310.25 L 168.33 308.47 L 170.00 319.15 L 171.67 307.54 L 173.33 318.22 L 175.00 297.71 L 180.00 307.54 L 181.67 286.95 L 183.33 286.95 L 185.00 286.02 L 186.67 260.00 L 191.67 264.58 L 193.33 276.27 L 195.00 286.95 L 196.67 277.20 L 198.33 265.51 L 205.00 256.61 L 206.67 242.12 L 208.33 240.17 L 210.00 238.14 L 215.00 242.12 L 216.67 258.73 L 220.00 256.61 L 221.67 254.66 L 226.67 244.07 L 228.33 255.59 L 230.00 244.07 L 230.00 244.07 L 233.33 244.07 L 238.33 246.02 L 240.00 264.58 L 240.00 264.58 L 241.67 255.59 L 243.33 256.61 L 245.00 257.54 L 250.00 265.51 L 251.67 256.61 L 253.33 256.61 L 253.33 256.61 L 255.00 266.44 L 256.67 267.46 L 261.67 268.39 L 263.33 277.20 L 265.00 277.20 L 266.67 279.07 L 268.33 279.07 L 275.00 275.25 L 276.67 264.58 L 278.33 266.44 L 280.00 265.51 L 280.00 265.51 L 286.67 255.59 L 288.33 255.59 L 290.00 245.00 L 296.67 202.12 L 298.33 171.78 L 300.00 190.34 L 301.67 202.12 L 303.33 212.80 L 308.33 203.05 L 310.00 202.12 L 311.67 221.61 L 313.33 223.56 L 320.00 223.56 L 321.67 211.86 L 323.33 221.61 L 325.00 232.29 L 326.67 255.59 L 333.33 256.61 L 335.00 245.00 L 336.67 224.58 L 338.33 221.61 L 343.33 241.10 L 346.67 223.56 L 348.33 222.54 L 355.00 242.12 L 355.00 242.12 L 355.00 242.12 L 355.00 242.12 L 355.00 242.12 L 355.00 242.12 L 358.33 242.12 L 358.33 242.12 L 358.33 242.12 L 358.33 242.12 L 358.33 242.12 L 358.33 242.12 L 366.67 254.66 L 370.00 256.61 L 371.67 275.25 L 373.33 287.88 L 378.33 286.95 L 380.00 286.95 L 381.67 265.51 L 383.33 268.39 L 385.00 254.66 L 390.00 265.51 L 390.00 265.51 L 391.67 257.54 L 395.00 266.44 L 395.00 266.44 L 403.33 264.58 L 405.00 246.02 L 406.67 245.00 L 413.33 220.59 L 416.67 211.86 L 416.67 211.86 L 420.00 222.54 L 426.67 210.85 L 426.67 210.85 L 426.67 210.85 L 426.67 210.85 L 426.67 210.85 L 426.67 210.85 L 426.67 210.85 L 426.67 210.85 L 431.67 210.85 L 431.67 209.83 L 441.67 197.03 L 448.33 175.51 L 448.33 175.51 L 453.33 175.51 L 453.33 175.51 L 461.67 175.51 L 463.33 175.51 L 463.33 175.51 L 463.33 175.51 L 463.33 175.51 L 483.33 175.51 L 485.00 175.51 L 495.00 127.03 L 496.67 100.00 L 496.67 100.00 L 561.67 146.44 L 565.00 146.44 L 566.67 146.44 L 568.33 150.76 L 571.67 160.59 L 571.67 160.59 L 578.33 160.59 L 580.00 160.59 L 581.67 160.59 L 583.33 160.59 L 588.33 160.59 L 590.00 160.59 L 593.33 160.59 L 595.00 160.59 L 600.00 160.59 L 601.67 160.59 L 601.67 160.59 L 606.67 160.59 L 611.67 160.59 L 613.33 160.59 L 615.00 160.59 L 616.67 160.59 L 618.33 160.59 L 625.00 144.24 L 626.67 152.88 L 628.33 132.37 L 630.00 152.88 L 635.00 152.88 L 636.67 152.88 L 636.67 152.88 L 640.00 152.88 L 641.67 152.88 L 646.67 152.88 L 648.33 152.88 L 650.00 152.88" /><text  class="poloto_labels poloto_text poloto_title" x="400" y="37.5" >lower.com purchase rates</text><text  class="poloto_labels poloto_text poloto_xname" x="400" y="481.25" >Date</text><text  class="poloto_labels poloto_text poloto_yname" transform="rotate(-90,37.5,250)" x="37.5" y="250" >Rate (%)</text><text  class="poloto_tick_labels poloto_text" dominant-baseline="middle" text-anchor="start" x="150" y="70" ></text><line  class="poloto_axis_lines" stroke="black" x1="150" x2="144" y1="390.2542372881356" y2="390.2542372881356" /><line  class="poloto_tick_line" stroke="black" x1="150" x2="650" y1="390.2542372881356" y2="390.2542372881356" /><text  class="poloto_tick_labels poloto_text" dominant-baseline="middle" text-anchor="end" x="135" y="390.2542372881356" >3.625</text><line  class="poloto_axis_lines" stroke="black" x1="150" x2="144" y1="379.66101694915255" y2="379.66101694915255" /><line  class="poloto_tick_line" stroke="black" x1="150" x2="650" y1="379.66101694915255" y2="379.66101694915255" /><text  class="poloto_tick_labels poloto_text" dominant-baseline="middle" text-anchor="end" x="135" y="379.66101694915255" >3.75</text><line  class="poloto_axis_lines" stroke="black" x1="150" x2="144" y1="369.06779661016947" y2="369.06779661016947" /><line  class="poloto_tick_line" stroke="black" x1="150" x2="650" y1="369.06779661016947" y2="369.06779661016947" /><text  class="poloto_tick_labels poloto_text" dominant-baseline="middle" text-anchor="end" x="135" y="369.06779661016947" >3.875</text><line  class="poloto_axis_lines" stroke="black" x1="150" x2="144" y1="358.47457627118644" y2="358.47457627118644" /><line  class="poloto_tick_line" stroke="black" x1="150" x2="650" y1="358.47457627118644" y2="358.47457627118644" /><text  class="poloto_tick_labels poloto_text" dominant-baseline="middle" text-anchor="end" x="135" y="358.47457627118644" >4</text><line  class="poloto_axis_lines" stroke="black" x1="150" x2="144" y1="347.8813559322034" y2="347.8813559322034" /><line  class="poloto_tick_line" stroke="black" x1="150" x2="650" y1="347.8813559322034" y2="347.8813559322034" /><text  class="poloto_tick_labels poloto_text" dominant-baseline="middle" text-anchor="end" x="135" y="347.8813559322034" >4.125</text><line  class="poloto_axis_lines" stroke="black" x1="150" x2="144" y1="337.2881355932203" y2="337.2881355932203" /><line  class="poloto_tick_line" stroke="black" x1="150" x2="650" y1="337.2881355932203" y2="337.2881355932203" /><text  class="poloto_tick_labels poloto_text" dominant-baseline="middle" text-anchor="end" x="135" y="337.2881355932203" >4.25</text><line  class="poloto_axis_lines" stroke="black" x1="150" x2="144" y1="326.6949152542373" y2="326.6949152542373" /><line  class="poloto_tick_line" stroke="black" x1="150" x2="650" y1="326.6949152542373" y2="326.6949152542373" /><text  class="poloto_tick_labels poloto_text" dominant-baseline="middle" text-anchor="end" x="135" y="326.6949152542373" >4.375</text><line  class="poloto_axis_lines" stroke="black" x1="150" x2="144" y1="316.10169491525426" y2="316.10169491525426" /><line  class="poloto_tick_line" stroke="black" x1="150" x2="650" y1="316.10169491525426" y2="316.10169491525426" /><text  class="poloto_tick_labels poloto_text" dominant-baseline="middle" text-anchor="end" x="135" y="316.10169491525426" >4.5</text><line  class="poloto_axis_lines" stroke="black" x1="150" x2="144" y1="305.50847457627117" y2="305.50847457627117" /><line  class="poloto_tick_line" stroke="black" x1="150" x2="650" y1="305.50847457627117" y2="305.50847457627117" /><text  class="poloto_tick_labels poloto_text" dominant-baseline="middle" text-anchor="end" x="135" y="305.50847457627117" >4.625</text><line  class="poloto_axis_lines" stroke="black" x1="150" x2="144" y1="294.91525423728814" y2="294.91525423728814" /><line  class="poloto_tick_line" stroke="black" x1="150" x2="650" y1="294.91525423728814" y2="294.91525423728814" /><text  class="poloto_tick_labels poloto_text" dominant-baseline="middle" text-anchor="end" x="135" y="294.91525423728814" >4.75</text><line  class="poloto_axis_lines" stroke="black" x1="150" x2="144" y1="284.3220338983051" y2="284.3220338983051" /><line  class="poloto_tick_line" stroke="black" x1="150" x2="650" y1="284.3220338983051" y2="284.3220338983051" /><text  class="poloto_tick_labels poloto_text" dominant-baseline="middle" text-anchor="end" x="135" y="284.3220338983051" >4.875</text><line  class="poloto_axis_lines" stroke="black" x1="150" x2="144" y1="273.728813559322" y2="273.728813559322" /><line  class="poloto_tick_line" stroke="black" x1="150" x2="650" y1="273.728813559322" y2="273.728813559322" /><text  class="poloto_tick_labels poloto_text" dominant-baseline="middle" text-anchor="end" x="135" y="273.728813559322" >5</text><line  class="poloto_axis_lines" stroke="black" x1="150" x2="144" y1="263.135593220339" y2="263.135593220339" /><line  class="poloto_tick_line" stroke="black" x1="150" x2="650" y1="263.135593220339" y2="263.135593220339" /><text  class="poloto_tick_labels poloto_text" dominant-baseline="middle" text-anchor="end" x="135" y="263.135593220339" >5.125</text><line  class="poloto_axis_lines" stroke="black" x1="150" x2="144" y1="252.54237288135596" y2="252.54237288135596" /><line  class="poloto_tick_line" stroke="black" x1="150" x2="650" y1="252.54237288135596" y2="252.54237288135596" /><text  class="poloto_tick_labels poloto_text" dominant-baseline="middle" text-anchor="end" x="135" y="252.54237288135596" >5.25</text><line  class="poloto_axis_lines" stroke="black" x1="150" x2="144" y1="241.94915254237287" y2="241.94915254237287" /><line  class="poloto_tick_line" stroke="black" x1="150" x2="650" y1="241.94915254237287" y2="241.94915254237287" /><text  class="poloto_tick_labels poloto_text" dominant-baseline="middle" text-anchor="end" x="135" y="241.94915254237287" >5.375</text><line  class="poloto_axis_lines" stroke="black" x1="150" x2="144" y1="231.35593220338984" y2="231.35593220338984" /><line  class="poloto_tick_line" stroke="black" x1="150" x2="650" y1="231.35593220338984" y2="231.35593220338984" /><text  class="poloto_tick_labels poloto_text" dominant-baseline="middle" text-anchor="end" x="135" y="231.35593220338984" >5.5</text><line  class="poloto_axis_lines" stroke="black" x1="150" x2="144" y1="220.7627118644068" y2="220.7627118644068" /><line  class="poloto_tick_line" stroke="black" x1="150" x2="650" y1="220.7627118644068" y2="220.7627118644068" /><text  class="poloto_tick_labels poloto_text" dominant-baseline="middle" text-anchor="end" x="135" y="220.7627118644068" >5.625</text><line  class="poloto_axis_lines" stroke="black" x1="150" x2="144" y1="210.16949152542372" y2="210.16949152542372" /><line  class="poloto_tick_line" stroke="black" x1="150" x2="650" y1="210.16949152542372" y2="210.16949152542372" /><text  class="poloto_tick_labels poloto_text" dominant-baseline="middle" text-anchor="end" x="135" y="210.16949152542372" >5.75</text><line  class="poloto_axis_lines" stroke="black" x1="150" x2="144" y1="199.5762711864407" y2="199.5762711864407" /><line  class="poloto_tick_line" stroke="black" x1="150" x2="650" y1="199.5762711864407" y2="199.5762711864407" /><text  class="poloto_tick_labels poloto_text" dominant-baseline="middle" text-anchor="end" x="135" y="199.5762711864407" >5.875</text><line  class="poloto_axis_lines" stroke="black" x1="150" x2="144" y1="188.98305084745766" y2="188.98305084745766" /><line  class="poloto_tick_line" stroke="black" x1="150" x2="650" y1="188.98305084745766" y2="188.98305084745766" /><text  class="poloto_tick_labels poloto_text" dominant-baseline="middle" text-anchor="end" x="135" y="188.98305084745766" >6</text><line  class="poloto_axis_lines" stroke="black" x1="150" x2="144" y1="178.38983050847457" y2="178.38983050847457" /><line  class="poloto_tick_line" stroke="black" x1="150" x2="650" y1="178.38983050847457" y2="178.38983050847457" /><text  class="poloto_tick_labels poloto_text" dominant-baseline="middle" text-anchor="end" x="135" y="178.38983050847457" >6.125</text><line  class="poloto_axis_lines" stroke="black" x1="150" x2="144" y1="167.7966101694915" y2="167.7966101694915" /><line  class="poloto_tick_line" stroke="black" x1="150" x2="650" y1="167.7966101694915" y2="167.7966101694915" /><text  class="poloto_tick_labels poloto_text" dominant-baseline="middle" text-anchor="end" x="135" y="167.7966101694915" >6.25</text><line  class="poloto_axis_lines" stroke="black" x1="150" x2="144" y1="157.2033898305085" y2="157.2033898305085" /><line  class="poloto_tick_line" stroke="black" x1="150" x2="650" y1="157.2033898305085" y2="157.2033898305085" /><text  class="poloto_tick_labels poloto_text" dominant-baseline="middle" text-anchor="end" x="135" y="157.2033898305085" >6.375</text><line  class="poloto_axis_lines" stroke="black" x1="150" x2="144" y1="146.61016949152543" y2="146.61016949152543" /><line  class="poloto_tick_line" stroke="black" x1="150" x2="650" y1="146.61016949152543" y2="146.61016949152543" /><text  class="poloto_tick_labels poloto_text" dominant-baseline="middle" text-anchor="end" x="135" y="146.61016949152543" >6.5</text><line  class="poloto_axis_lines" stroke="black" x1="150" x2="144" y1="136.01694915254234" y2="136.01694915254234" /><line  class="poloto_tick_line" stroke="black" x1="150" x2="650" y1="136.01694915254234" y2="136.01694915254234" /><text  class="poloto_tick_labels poloto_text" dominant-baseline="middle" text-anchor="end" x="135" y="136.01694915254234" >6.625</text><line  class="poloto_axis_lines" stroke="black" x1="150" x2="144" y1="125.42372881355936" y2="125.42372881355936" /><line  class="poloto_tick_line" stroke="black" x1="150" x2="650" y1="125.42372881355936" y2="125.42372881355936" /><text  class="poloto_tick_labels poloto_text" dominant-baseline="middle" text-anchor="end" x="135" y="125.42372881355936" >6.75</text><line  class="poloto_axis_lines" stroke="black" x1="150" x2="144" y1="114.83050847457628" y2="114.83050847457628" /><line  class="poloto_tick_line" stroke="black" x1="150" x2="650" y1="114.83050847457628" y2="114.83050847457628" /><text  class="poloto_tick_labels poloto_text" dominant-baseline="middle" text-anchor="end" x="135" y="114.83050847457628" >6.875</text><line  class="poloto_axis_lines" stroke="black" x1="150" x2="144" y1="104.23728813559319" y2="104.23728813559319" /><line  class="poloto_tick_line" stroke="black" x1="150" x2="650" y1="104.23728813559319" y2="104.23728813559319" /><text  class="poloto_tick_labels poloto_text" dominant-baseline="middle" text-anchor="end" x="135" y="104.23728813559319" >7</text><text  class="poloto_tick_labels poloto_text" dominant-baseline="middle" text-anchor="start" x="440.00000000000006" y="70" >¹2022-05-01 00:00:00 UTC in Months</text><line  class="poloto_axis_lines" stroke="black" x1="225" x2="225" y1="400" y2="405" /><line  class="poloto_tick_line" stroke="black" x1="225" x2="225" y1="400" y2="100" /><text  class="poloto_tick_labels poloto_text" dominant-baseline="start" text-anchor="middle" x="225" y="430" >2022 May¹</text><line  class="poloto_axis_lines" stroke="black" x1="326.66666666666424" x2="326.66666666666424" y1="400" y2="405" /><line  class="poloto_tick_line" stroke="black" x1="326.66666666666424" x2="326.66666666666424" y1="400" y2="100" /><text  class="poloto_tick_labels poloto_text" dominant-baseline="start" text-anchor="middle" x="326.66666666666424" y="430" >2022 Jul</text><line  class="poloto_axis_lines" stroke="black" x1="430" x2="430" y1="400" y2="405" /><line  class="poloto_tick_line" stroke="black" x1="430" x2="430" y1="400" y2="100" /><text  class="poloto_tick_labels poloto_text" dominant-baseline="start" text-anchor="middle" x="430" y="430" >2022 Sep</text><line  class="poloto_axis_lines" stroke="black" x1="531.6666666666642" x2="531.6666666666642" y1="400" y2="405" /><line  class="poloto_tick_line" stroke="black" x1="531.6666666666642" x2="531.6666666666642" y1="400" y2="100" /><text  class="poloto_tick_labels poloto_text" dominant-baseline="start" text-anchor="middle" x="531.6666666666642" y="430" >2022 Nov</text><line  class="poloto_axis_lines" stroke="black" x1="633.3333333333321" x2="633.3333333333321" y1="400" y2="405" /><line  class="poloto_tick_line" stroke="black" x1="633.3333333333321" x2="633.3333333333321" y1="400" y2="100" /><text  class="poloto_tick_labels poloto_text" dominant-baseline="start" text-anchor="middle" x="633.3333333333321" y="430" >2023 Jan</text><path  stroke="black" fill="none" class="poloto_axis_lines" d=" M 150 400 L 650 400" /><path  stroke="black" fill="none" class="poloto_axis_lines" d=" M 150 400 L 150 100" /></svg>