<svg class="poloto" width="800" height="500" viewBox="0 0 800 500" xmlns="http://www.w3.org/2000/svg"><style>.poloto{stroke-linecap:round;stroke-linejoin:round;font-family:Roboto,sans-serif;font-size:16px;}.poloto_background{fill:#262626;}.poloto_scatter{stroke-width:7}.poloto_tick_line{stroke:dimgray;stroke-width:0.5}.poloto_line{stroke-width:2}.poloto_text{fill: white;}.poloto_axis_lines{stroke: white;stroke-width:3;fill:none;stroke-dasharray:none}.poloto_title{font-size:24px;dominant-baseline:start;text-anchor:middle;}.poloto_xname{font-size:24px;dominant-baseline:start;text-anchor:middle;}.poloto_yname{font-size:24px;dominant-baseline:start;text-anchor:middle;}.poloto0stroke{stroke:blue;}.poloto1stroke{stroke:red;}.poloto2stroke{stroke:green;}.poloto3stroke{stroke:gold;}.poloto4stroke{stroke:aqua;}.poloto5stroke{stroke:lime;}.poloto6stroke{stroke:orange;}.poloto7stroke{stroke:chocolate;}.poloto0fill{fill:blue;}.poloto1fill{fill:red;}.poloto2fill{fill:green;}.poloto3fill{fill:gold;}.poloto4fill{fill:aqua;}.poloto5fill{fill:lime;}.poloto6fill{fill:orange;}.poloto7fill{fill:chocolate;}</style><circle  r="1e5" class="poloto_background" /><text  class="poloto_text poloto_legend_text" x="675" y="100" >Refinance 15</text><line  class="poloto_line poloto_legend_icon poloto0stroke poloto0legend" stroke="black" x1="680" x2="730" y1="81.25" y2="81.25" /><path  class="poloto_line poloto0stroke" fill="none" stroke="black" d=" M 150.00 393.13 L 151.41 400.00 L 155.63 390.27 L 157.04 381.94 L 158.45 390.27 L 158.45 390.27 L 161.27 362.48 L 165.49 361.01 L 166.90 370.74 L 168.31 349.74 L 169.72 351.21 L 171.13 346.81 L 175.35 348.28 L 176.76 342.41 L 176.76 342.41 L 179.58 342.95 L 180.99 321.95 L 185.21 331.06 L 186.62 333.99 L 188.03 333.99 L 189.44 333.22 L 190.85 328.74 L 196.48 289.53 L 197.89 306.97 L 199.30 293.46 L 200.70 288.21 L 200.70 288.21 L 206.34 308.52 L 209.15 312.22 L 210.56 303.96 L 214.79 294.16 L 216.20 313.69 L 217.61 303.96 L 217.61 303.96 L 220.42 302.42 L 224.65 305.43 L 226.06 315.16 L 226.06 315.16 L 227.46 306.90 L 228.87 316.70 L 230.28 302.42 L 234.51 331.76 L 235.92 331.06 L 237.32 315.16 L 237.32 315.16 L 238.73 321.95 L 240.14 324.96 L 244.37 324.96 L 245.77 335.46 L 247.18 335.46 L 248.59 335.46 L 250.00 335.46 L 255.63 324.96 L 257.04 321.95 L 258.45 323.42 L 259.86 323.42 L 259.86 323.42 L 265.49 313.69 L 266.90 313.69 L 268.31 305.43 L 273.94 291.92 L 275.35 264.05 L 276.76 267.14 L 278.17 267.14 L 279.58 286.67 L 283.80 267.14 L 285.21 267.14 L 286.62 285.13 L 288.03 288.21 L 293.66 288.21 L 295.07 286.67 L 296.48 291.22 L 297.89 295.70 L 299.30 305.43 L 304.93 312.22 L 306.34 303.96 L 307.75 297.17 L 309.15 294.16 L 313.38 295.70 L 316.20 295.70 L 317.61 294.16 L 323.24 292.69 L 323.24 292.69 L 323.24 292.69 L 323.24 292.69 L 323.24 292.69 L 323.24 292.69 L 326.06 292.69 L 326.06 292.69 L 326.06 292.69 L 326.06 292.69 L 326.06 292.69 L 326.06 292.69 L 333.10 303.96 L 335.92 306.90 L 337.32 332.53 L 338.73 335.46 L 342.96 335.46 L 344.37 333.99 L 345.77 313.69 L 347.18 308.44 L 348.59 295.70 L 352.82 305.43 L 352.82 305.43 L 354.23 297.17 L 357.04 305.43 L 357.04 305.43 L 364.08 305.43 L 365.49 274.70 L 366.90 292.69 L 372.54 261.89 L 375.35 261.89 L 375.35 261.89 L 378.17 273.16 L 383.80 267.14 L 383.80 267.14 L 383.80 267.14 L 383.80 267.14 L 383.80 267.14 L 383.80 267.14 L 383.80 267.14 L 383.80 267.14 L 383.80 267.14 L 388.03 267.14 L 396.48 247.53 L 402.11 249.85 L 402.11 249.85 L 406.34 249.85 L 411.97 249.85 L 413.38 249.85 L 413.38 249.85 L 413.38 249.85 L 413.38 249.85 L 413.38 249.85 L 431.69 249.85 L 433.10 249.85 L 441.55 162.92 L 442.96 154.66 L 444.37 154.66 L 495.07 180.60 L 500.70 180.60 L 502.11 180.60 L 503.52 195.50 L 506.34 203.68 L 506.34 203.68 L 511.97 203.68 L 513.38 203.68 L 514.79 203.68 L 516.20 203.68 L 520.42 203.68 L 521.83 203.68 L 524.65 203.68 L 526.06 203.68 L 530.28 203.68 L 531.69 203.68 L 531.69 203.68 L 535.92 203.68 L 540.14 203.68 L 541.55 203.68 L 542.96 203.68 L 544.37 203.68 L 545.77 203.68 L 551.41 226.15 L 552.82 200.21 L 554.23 180.60 L 555.63 190.40 L 559.86 190.40 L 561.27 190.40 L 561.27 190.40 L 564.08 211.48 L 565.49 211.48 L 569.72 211.48 L 571.13 211.48 L 572.54 211.48 L 573.94 211.48 L 575.35 211.48 L 575.35 211.48 L 575.35 211.48 L 575.35 211.48 L 582.39 211.48 L 585.21 211.48 L 589.44 211.48 L 590.85 211.48 L 593.66 211.48 L 595.07 211.48 L 600.70 211.48 L 602.11 211.48 L 603.52 211.48 L 604.93 239.27 L 609.15 245.45 L 610.56 209.93 L 611.97 221.28 L 613.38 219.74 L 614.79 201.75 L 619.01 161.07 L 620.42 161.07 L 621.83 161.07 L 623.24 162.61 L 624.65 170.79 L 628.87 162.61 L 630.28 162.61 L 631.69 151.26 L 633.10 161.07 L 634.51 141.46 L 640.14 151.26 L 641.55 152.80 L 642.96 143.08 L 644.37 149.64 L 648.59 155.97 L 650.00 152.80" /><text  class="poloto_text poloto_legend_text" x="675" y="150" >Refinance 20</text><line  class="poloto_line poloto_legend_icon poloto1stroke poloto1legend" stroke="black" x1="680" x2="730" y1="131.25" y2="131.25" /><path  class="poloto_line poloto1stroke" fill="none" stroke="black" d=" M 150.00 350.51 L 151.41 371.13 L 155.63 340.40 L 157.04 330.98 L 158.45 339.63 L 158.45 339.63 L 161.27 312.61 L 165.49 310.29 L 166.90 320.10 L 168.31 309.14 L 169.72 318.94 L 171.13 300.57 L 175.35 328.67 L 176.76 300.57 L 176.76 300.57 L 179.58 300.57 L 179.58 300.57 L 185.21 263.51 L 186.62 293.15 L 188.03 300.57 L 189.44 310.29 L 190.85 291.22 L 196.48 272.47 L 197.89 270.07 L 199.30 265.29 L 200.70 254.32 L 204.93 259.11 L 206.34 279.88 L 209.15 272.47 L 210.56 270.07 L 214.79 262.27 L 216.20 271.31 L 217.61 271.31 L 217.61 271.31 L 220.42 271.31 L 224.65 272.47 L 226.06 292.00 L 226.06 292.00 L 227.46 281.03 L 228.87 299.41 L 230.28 292.00 L 234.51 293.15 L 235.92 292.00 L 237.32 292.00 L 237.32 292.00 L 238.73 293.15 L 240.14 299.41 L 244.37 300.57 L 245.77 304.04 L 247.18 304.04 L 248.59 304.04 L 250.00 304.04 L 255.63 299.41 L 257.04 289.60 L 258.45 292.00 L 259.86 292.00 L 259.86 292.00 L 265.49 279.88 L 266.90 282.19 L 268.31 273.62 L 273.94 232.24 L 275.35 215.11 L 276.76 224.91 L 278.17 232.24 L 279.58 252.93 L 283.80 240.74 L 285.21 234.64 L 286.62 254.17 L 288.03 263.51 L 293.66 263.51 L 295.07 252.93 L 296.48 262.74 L 297.89 272.47 L 299.30 283.43 L 304.93 290.76 L 306.34 281.03 L 307.75 271.31 L 309.15 264.67 L 313.38 270.07 L 316.20 272.47 L 317.61 271.31 L 323.24 272.47 L 323.24 272.47 L 323.24 272.47 L 323.24 272.47 L 323.24 272.47 L 323.24 272.47 L 323.24 272.47 L 323.24 272.47 L 323.24 272.47 L 323.24 272.47 L 323.24 272.47 L 323.24 272.47 L 333.10 290.76 L 335.92 293.15 L 337.32 310.29 L 338.73 312.61 L 342.96 310.06 L 344.37 310.06 L 345.77 300.57 L 347.18 304.04 L 348.59 289.60 L 352.82 282.19 L 352.82 282.19 L 354.23 282.19 L 357.04 292.00 L 357.04 292.00 L 364.08 289.60 L 365.49 272.47 L 366.90 272.47 L 372.54 259.88 L 375.35 249.31 L 375.35 249.31 L 378.17 261.12 L 383.80 232.24 L 383.80 232.24 L 383.80 232.24 L 383.80 232.24 L 383.80 232.24 L 383.80 232.24 L 383.80 232.24 L 383.80 232.24 L 383.80 232.24 L 388.03 232.24 L 396.48 219.97 L 402.11 221.20 L 404.93 221.20 L 406.34 221.20 L 406.34 221.20 L 413.38 221.20 L 414.79 221.20 L 414.79 221.20 L 414.79 221.20 L 414.79 221.20 L 431.69 221.20 L 433.10 221.20 L 441.55 143.85 L 442.96 129.41 L 442.96 129.41 L 497.89 177.12 L 500.70 177.12 L 502.11 177.12 L 504.93 194.26 L 506.34 195.50 L 506.34 195.50 L 511.97 195.50 L 513.38 195.50 L 514.79 195.50 L 516.20 195.50 L 520.42 195.50 L 521.83 195.50 L 524.65 195.50 L 526.06 195.50 L 530.28 195.50 L 531.69 195.50 L 531.69 195.50 L 535.92 195.50 L 540.14 195.50 L 541.55 195.50 L 542.96 195.50 L 544.37 195.50 L 545.77 195.50 L 551.41 178.05 L 552.82 168.55 L 554.23 167.32 L 555.63 169.87 L 559.86 169.87 L 561.27 169.87 L 561.27 169.87 L 564.08 188.16 L 565.49 188.16 L 569.72 188.16 L 571.13 188.16 L 572.54 188.16 L 573.94 188.16 L 575.35 188.16 L 575.35 188.16 L 580.99 188.16 L 580.99 188.16 L 582.39 188.16 L 585.21 188.16 L 589.44 188.16 L 590.85 188.16 L 593.66 188.16 L 595.07 188.16 L 600.70 188.16 L 602.11 188.16 L 603.52 188.16 L 604.93 209.01 L 609.15 207.77 L 610.56 178.36 L 611.97 179.59 L 611.97 179.59 L 614.79 178.36 L 619.01 158.75 L 620.42 158.75 L 621.83 150.26 L 623.24 140.45 L 624.65 149.02 L 628.87 140.45 L 630.28 130.65 L 631.69 140.45 L 633.10 150.26 L 634.51 139.22 L 640.14 140.45 L 641.55 129.41 L 642.96 100.00 L 644.37 129.41 L 648.59 150.26 L 650.00 169.17" /><text  class="poloto_text poloto_legend_text" x="675" y="200" >Refinance 30</text><line  class="poloto_line poloto_legend_icon poloto2stroke poloto2legend" stroke="black" x1="680" x2="730" y1="181.25" y2="181.25" /><path  class="poloto_line poloto2stroke" fill="none" stroke="black" d=" M 150.00 348.35 L 151.41 355.69 L 155.63 344.26 L 157.04 335.31 L 158.45 337.00 L 158.45 337.00 L 161.27 318.24 L 165.49 316.62 L 166.90 326.35 L 168.31 315.77 L 169.72 325.50 L 171.13 306.82 L 175.35 315.77 L 176.76 297.01 L 178.17 297.01 L 179.58 296.17 L 180.99 272.47 L 185.21 276.63 L 186.62 287.29 L 188.03 297.01 L 189.44 288.14 L 190.85 277.48 L 196.48 269.38 L 197.89 256.18 L 199.30 254.40 L 200.70 252.55 L 204.93 256.18 L 206.34 271.31 L 209.15 269.38 L 210.56 267.60 L 214.79 257.95 L 216.20 268.45 L 217.61 257.95 L 217.61 257.95 L 220.42 257.95 L 224.65 259.73 L 226.06 276.63 L 226.06 276.63 L 227.46 268.45 L 228.87 269.38 L 230.28 270.23 L 234.51 277.48 L 235.92 269.38 L 237.32 269.38 L 237.32 269.38 L 238.73 278.33 L 240.14 279.26 L 244.37 280.11 L 245.77 288.14 L 247.18 288.14 L 248.59 289.84 L 250.00 289.84 L 255.63 286.36 L 257.04 276.63 L 258.45 278.33 L 259.86 277.48 L 259.86 277.48 L 265.49 268.45 L 266.90 268.45 L 268.31 258.80 L 273.94 219.74 L 275.35 192.10 L 276.76 209.01 L 278.17 219.74 L 279.58 229.46 L 283.80 220.59 L 285.21 219.74 L 286.62 237.49 L 288.03 239.27 L 293.66 239.27 L 295.07 228.62 L 296.48 237.49 L 297.89 247.22 L 299.30 268.45 L 304.93 269.38 L 306.34 258.80 L 307.75 240.20 L 309.15 237.49 L 313.38 255.25 L 316.20 239.27 L 317.61 238.34 L 323.24 256.18 L 323.24 256.18 L 323.24 256.18 L 323.24 256.18 L 323.24 256.18 L 323.24 256.18 L 326.06 256.18 L 326.06 256.18 L 326.06 256.18 L 326.06 256.18 L 326.06 256.18 L 326.06 256.18 L 333.10 267.60 L 335.92 269.38 L 337.32 286.36 L 338.73 297.86 L 342.96 297.01 L 344.37 297.01 L 345.77 277.48 L 347.18 280.11 L 348.59 267.60 L 352.82 277.48 L 352.82 277.48 L 354.23 270.23 L 357.04 278.33 L 357.04 278.33 L 364.08 276.63 L 365.49 259.73 L 366.90 258.80 L 372.54 236.57 L 375.35 228.62 L 375.35 228.62 L 378.17 238.34 L 383.80 227.69 L 383.80 227.69 L 383.80 227.69 L 383.80 227.69 L 383.80 227.69 L 383.80 227.69 L 383.80 227.69 L 383.80 227.69 L 388.03 227.69 L 388.03 226.76 L 396.48 215.11 L 402.11 195.50 L 402.11 195.50 L 406.34 195.50 L 406.34 195.50 L 413.38 195.50 L 414.79 195.50 L 414.79 195.50 L 414.79 195.50 L 414.79 195.50 L 431.69 195.50 L 433.10 195.50 L 441.55 151.34 L 442.96 126.71 L 442.96 126.71 L 497.89 169.02 L 500.70 169.02 L 502.11 169.02 L 503.52 172.95 L 506.34 181.91 L 506.34 181.91 L 511.97 181.91 L 513.38 181.91 L 514.79 181.91 L 516.20 181.91 L 520.42 181.91 L 521.83 181.91 L 524.65 181.91 L 526.06 181.91 L 530.28 181.91 L 531.69 181.91 L 531.69 181.91 L 535.92 181.91 L 540.14 181.91 L 541.55 181.91 L 542.96 181.91 L 544.37 181.91 L 545.77 181.91 L 551.41 167.01 L 552.82 174.88 L 554.23 156.20 L 555.63 174.88 L 559.86 174.88 L 561.27 174.88 L 561.27 174.88 L 564.08 174.88 L 565.49 174.88 L 569.72 174.88 L 571.13 174.88 L 572.54 174.88 L 573.94 174.88 L 575.35 174.88 L 575.35 174.88 L 580.99 174.88 L 580.99 174.88 L 582.39 174.88 L 585.21 174.88 L 589.44 174.88 L 590.85 174.88 L 593.66 174.88 L 595.07 174.88 L 600.70 174.88 L 602.11 174.88 L 603.52 174.88 L 604.93 224.91 L 609.15 215.11 L 610.56 175.89 L 611.97 205.30 L 613.38 175.89 L 614.79 166.01 L 619.01 156.20 L 620.42 156.20 L 621.83 147.32 L 623.24 137.52 L 624.65 146.40 L 628.87 146.40 L 630.28 135.59 L 631.69 127.71 L 633.10 137.52 L 634.51 128.72 L 640.14 127.71 L 641.55 116.91 L 642.96 116.91 L 644.37 126.71 L 648.59 127.71 L 650.00 117.91" /><text  class="poloto_labels poloto_text poloto_title" x="400" y="37.5" >lower.com purchase rates</text><text  class="poloto_labels poloto_text poloto_xname" x="400" y="481.25" >Date</text><text  class="poloto_labels poloto_text poloto_yname" transform="rotate(-90,37.5,250)" x="37.5" y="250" >Rate (%)</text><text  class="poloto_tick_labels poloto_text" dominant-baseline="middle" text-anchor="start" x="150" y="70" ></text><line  class="poloto_axis_lines" stroke="black" x1="150" x2="144" y1="391.12197632527017" y2="391.12197632527017" /><line  class="poloto_tick_line" stroke="black" x1="150" x2="650" y1="391.12197632527017" y2="391.12197632527017" /><text  class="poloto_tick_labels poloto_text" dominant-baseline="middle" text-anchor="end" x="135" y="391.12197632527017" >3.625</text><line  class="poloto_axis_lines" stroke="black" x1="150" x2="144" y1="381.4719505918682" y2="381.4719505918682" /><line  class="poloto_tick_line" stroke="black" x1="150" x2="650" y1="381.4719505918682" y2="381.4719505918682" /><text  class="poloto_tick_labels poloto_text" dominant-baseline="middle" text-anchor="end" x="135" y="381.4719505918682" >3.75</text><line  class="poloto_axis_lines" stroke="black" x1="150" x2="144" y1="371.8219248584663" y2="371.8219248584663" /><line  class="poloto_tick_line" stroke="black" x1="150" x2="650" y1="371.8219248584663" y2="371.8219248584663" /><text  class="poloto_tick_labels poloto_text" dominant-baseline="middle" text-anchor="end" x="135" y="371.8219248584663" >3.875</text><line  class="poloto_axis_lines" stroke="black" x1="150" x2="144" y1="362.17189912506433" y2="362.17189912506433" /><line  class="poloto_tick_line" stroke="black" x1="150" x2="650" y1="362.17189912506433" y2="362.17189912506433" /><text  class="poloto_tick_labels poloto_text" dominant-baseline="middle" text-anchor="end" x="135" y="362.17189912506433" >4</text><line  class="poloto_axis_lines" stroke="black" x1="150" x2="144" y1="352.5218733916624" y2="352.5218733916624" /><line  class="poloto_tick_line" stroke="black" x1="150" x2="650" y1="352.5218733916624" y2="352.5218733916624" /><text  class="poloto_tick_labels poloto_text" dominant-baseline="middle" text-anchor="end" x="135" y="352.5218733916624" >4.125</text><line  class="poloto_axis_lines" stroke="black" x1="150" x2="144" y1="342.87184765826044" y2="342.87184765826044" /><line  class="poloto_tick_line" stroke="black" x1="150" x2="650" y1="342.87184765826044" y2="342.87184765826044" /><text  class="poloto_tick_labels poloto_text" dominant-baseline="middle" text-anchor="end" x="135" y="342.87184765826044" >4.25</text><line  class="poloto_axis_lines" stroke="black" x1="150" x2="144" y1="333.2218219248585" y2="333.2218219248585" /><line  class="poloto_tick_line" stroke="black" x1="150" x2="650" y1="333.2218219248585" y2="333.2218219248585" /><text  class="poloto_tick_labels poloto_text" dominant-baseline="middle" text-anchor="end" x="135" y="333.2218219248585" >4.375</text><line  class="poloto_axis_lines" stroke="black" x1="150" x2="144" y1="323.5717961914565" y2="323.5717961914565" /><line  class="poloto_tick_line" stroke="black" x1="150" x2="650" y1="323.5717961914565" y2="323.5717961914565" /><text  class="poloto_tick_labels poloto_text" dominant-baseline="middle" text-anchor="end" x="135" y="323.5717961914565" >4.5</text><line  class="poloto_axis_lines" stroke="black" x1="150" x2="144" y1="313.92177045805454" y2="313.92177045805454" /><line  class="poloto_tick_line" stroke="black" x1="150" x2="650" y1="313.92177045805454" y2="313.92177045805454" /><text  class="poloto_tick_labels poloto_text" dominant-baseline="middle" text-anchor="end" x="135" y="313.92177045805454" >4.625</text><line  class="poloto_axis_lines" stroke="black" x1="150" x2="144" y1="304.2717447246526" y2="304.2717447246526" /><line  class="poloto_tick_line" stroke="black" x1="150" x2="650" y1="304.2717447246526" y2="304.2717447246526" /><text  class="poloto_tick_labels poloto_text" dominant-baseline="middle" text-anchor="end" x="135" y="304.2717447246526" >4.75</text><line  class="poloto_axis_lines" stroke="black" x1="150" x2="144" y1="294.62171899125065" y2="294.62171899125065" /><line  class="poloto_tick_line" stroke="black" x1="150" x2="650" y1="294.62171899125065" y2="294.62171899125065" /><text  class="poloto_tick_labels poloto_text" dominant-baseline="middle" text-anchor="end" x="135" y="294.62171899125065" >4.875</text><line  class="poloto_axis_lines" stroke="black" x1="150" x2="144" y1="284.9716932578487" y2="284.9716932578487" /><line  class="poloto_tick_line" stroke="black" x1="150" x2="650" y1="284.9716932578487" y2="284.9716932578487" /><text  class="poloto_tick_labels poloto_text" dominant-baseline="middle" text-anchor="end" x="135" y="284.9716932578487" >5</text><line  class="poloto_axis_lines" stroke="black" x1="150" x2="144" y1="275.32166752444675" y2="275.32166752444675" /><line  class="poloto_tick_line" stroke="black" x1="150" x2="650" y1="275.32166752444675" y2="275.32166752444675" /><text  class="poloto_tick_labels poloto_text" dominant-baseline="middle" text-anchor="end" x="135" y="275.32166752444675" >5.125</text><line  class="poloto_axis_lines" stroke="black" x1="150" x2="144" y1="265.67164179104475" y2="265.67164179104475" /><line  class="poloto_tick_line" stroke="black" x1="150" x2="650" y1="265.67164179104475" y2="265.67164179104475" /><text  class="poloto_tick_labels poloto_text" dominant-baseline="middle" text-anchor="end" x="135" y="265.67164179104475" >5.25</text><line  class="poloto_axis_lines" stroke="black" x1="150" x2="144" y1="256.0216160576428" y2="256.0216160576428" /><line  class="poloto_tick_line" stroke="black" x1="150" x2="650" y1="256.0216160576428" y2="256.0216160576428" /><text  class="poloto_tick_labels poloto_text" dominant-baseline="middle" text-anchor="end" x="135" y="256.0216160576428" >5.375</text><line  class="poloto_axis_lines" stroke="black" x1="150" x2="144" y1="246.37159032424086" y2="246.37159032424086" /><line  class="poloto_tick_line" stroke="black" x1="150" x2="650" y1="246.37159032424086" y2="246.37159032424086" /><text  class="poloto_tick_labels poloto_text" dominant-baseline="middle" text-anchor="end" x="135" y="246.37159032424086" >5.5</text><line  class="poloto_axis_lines" stroke="black" x1="150" x2="144" y1="236.7215645908389" y2="236.7215645908389" /><line  class="poloto_tick_line" stroke="black" x1="150" x2="650" y1="236.7215645908389" y2="236.7215645908389" /><text  class="poloto_tick_labels poloto_text" dominant-baseline="middle" text-anchor="end" x="135" y="236.7215645908389" >5.625</text><line  class="poloto_axis_lines" stroke="black" x1="150" x2="144" y1="227.07153885743696" y2="227.07153885743696" /><line  class="poloto_tick_line" stroke="black" x1="150" x2="650" y1="227.07153885743696" y2="227.07153885743696" /><text  class="poloto_tick_labels poloto_text" dominant-baseline="middle" text-anchor="end" x="135" y="227.07153885743696" >5.75</text><line  class="poloto_axis_lines" stroke="black" x1="150" x2="144" y1="217.42151312403502" y2="217.42151312403502" /><line  class="poloto_tick_line" stroke="black" x1="150" x2="650" y1="217.42151312403502" y2="217.42151312403502" /><text  class="poloto_tick_labels poloto_text" dominant-baseline="middle" text-anchor="end" x="135" y="217.42151312403502" >5.875</text><line  class="poloto_axis_lines" stroke="black" x1="150" x2="144" y1="207.771487390633" y2="207.771487390633" /><line  class="poloto_tick_line" stroke="black" x1="150" x2="650" y1="207.771487390633" y2="207.771487390633" /><text  class="poloto_tick_labels poloto_text" dominant-baseline="middle" text-anchor="end" x="135" y="207.771487390633" >6</text><line  class="poloto_axis_lines" stroke="black" x1="150" x2="144" y1="198.12146165723107" y2="198.12146165723107" /><line  class="poloto_tick_line" stroke="black" x1="150" x2="650" y1="198.12146165723107" y2="198.12146165723107" /><text  class="poloto_tick_labels poloto_text" dominant-baseline="middle" text-anchor="end" x="135" y="198.12146165723107" >6.125</text><line  class="poloto_axis_lines" stroke="black" x1="150" x2="144" y1="188.47143592382912" y2="188.47143592382912" /><line  class="poloto_tick_line" stroke="black" x1="150" x2="650" y1="188.47143592382912" y2="188.47143592382912" /><text  class="poloto_tick_labels poloto_text" dominant-baseline="middle" text-anchor="end" x="135" y="188.47143592382912" >6.25</text><line  class="poloto_axis_lines" stroke="black" x1="150" x2="144" y1="178.82141019042717" y2="178.82141019042717" /><line  class="poloto_tick_line" stroke="black" x1="150" x2="650" y1="178.82141019042717" y2="178.82141019042717" /><text  class="poloto_tick_labels poloto_text" dominant-baseline="middle" text-anchor="end" x="135" y="178.82141019042717" >6.375</text><line  class="poloto_axis_lines" stroke="black" x1="150" x2="144" y1="169.17138445702523" y2="169.17138445702523" /><line  class="poloto_tick_line" stroke="black" x1="150" x2="650" y1="169.17138445702523" y2="169.17138445702523" /><text  class="poloto_tick_labels poloto_text" dominant-baseline="middle" text-anchor="end" x="135" y="169.17138445702523" >6.5</text><line  class="poloto_axis_lines" stroke="black" x1="150" x2="144" y1="159.52135872362328" y2="159.52135872362328" /><line  class="poloto_tick_line" stroke="black" x1="150" x2="650" y1="159.52135872362328" y2="159.52135872362328" /><text  class="poloto_tick_labels poloto_text" dominant-baseline="middle" text-anchor="end" x="135" y="159.52135872362328" >6.625</text><line  class="poloto_axis_lines" stroke="black" x1="150" x2="144" y1="149.87133299022133" y2="149.87133299022133" /><line  class="poloto_tick_line" stroke="black" x1="150" x2="650" y1="149.87133299022133" y2="149.87133299022133" /><text  class="poloto_tick_labels poloto_text" dominant-baseline="middle" text-anchor="end" x="135" y="149.87133299022133" >6.75</text><line  class="poloto_axis_lines" stroke="black" x1="150" x2="144" y1="140.22130725681933" y2="140.22130725681933" /><line  class="poloto_tick_line" stroke="black" x1="150" x2="650" y1="140.22130725681933" y2="140.22130725681933" /><text  class="poloto_tick_labels poloto_text" dominant-baseline="middle" text-anchor="end" x="135" y="140.22130725681933" >6.875</text><line  class="poloto_axis_lines" stroke="black" x1="150" x2="144" y1="130.57128152341744" y2="130.57128152341744" /><line  class="poloto_tick_line" stroke="black" x1="150" x2="650" y1="130.57128152341744" y2="130.57128152341744" /><text  class="poloto_tick_labels poloto_text" dominant-baseline="middle" text-anchor="end" x="135" y="130.57128152341744" >7</text><line  class="poloto_axis_lines" stroke="black" x1="150" x2="144" y1="120.92125579001544" y2="120.92125579001544" /><line  class="poloto_tick_line" stroke="black" x1="150" x2="650" y1="120.92125579001544" y2="120.92125579001544" /><text  class="poloto_tick_labels poloto_text" dominant-baseline="middle" text-anchor="end" x="135" y="120.92125579001544" >7.125</text><line  class="poloto_axis_lines" stroke="black" x1="150" x2="144" y1="111.27123005661343" y2="111.27123005661343" /><line  class="poloto_tick_line" stroke="black" x1="150" x2="650" y1="111.27123005661343" y2="111.27123005661343" /><text  class="poloto_tick_labels poloto_text" dominant-baseline="middle" text-anchor="end" x="135" y="111.27123005661343" >7.25</text><line  class="poloto_axis_lines" stroke="black" x1="150" x2="144" y1="101.62120432321154" y2="101.62120432321154" /><line  class="poloto_tick_line" stroke="black" x1="150" x2="650" y1="101.62120432321154" y2="101.62120432321154" /><text  class="poloto_tick_labels poloto_text" dominant-baseline="middle" text-anchor="end" x="135" y="101.62120432321154" >7.375</text><text  class="poloto_tick_labels poloto_text" dominant-baseline="middle" text-anchor="start" x="440.00000000000006" y="70" >¹2022-05-01 00:00:00 UTC in Months</text><line  class="poloto_axis_lines" stroke="black" x1="213.3802816901407" x2="213.3802816901407" y1="400" y2="405" /><line  class="poloto_tick_line" stroke="black" x1="213.3802816901407" x2="213.3802816901407" y1="400" y2="100.00000000000006" /><text  class="poloto_tick_labels poloto_text" dominant-baseline="start" text-anchor="middle" x="213.3802816901407" y="430" >2022 May¹</text><line  class="poloto_axis_lines" stroke="black" x1="299.29577464788963" x2="299.29577464788963" y1="400" y2="405" /><line  class="poloto_tick_line" stroke="black" x1="299.29577464788963" x2="299.29577464788963" y1="400" y2="100.00000000000006" /><text  class="poloto_tick_labels poloto_text" dominant-baseline="start" text-anchor="middle" x="299.29577464788963" y="430" >2022 Jul</text><line  class="poloto_axis_lines" stroke="black" x1="386.6197183098593" x2="386.6197183098593" y1="400" y2="405" /><line  class="poloto_tick_line" stroke="black" x1="386.6197183098593" x2="386.6197183098593" y1="400" y2="100.00000000000006" /><text  class="poloto_tick_labels poloto_text" dominant-baseline="start" text-anchor="middle" x="386.6197183098593" y="430" >2022 Sep</text><line  class="poloto_axis_lines" stroke="black" x1="472.53521126760825" x2="472.53521126760825" y1="400" y2="405" /><line  class="poloto_tick_line" stroke="black" x1="472.53521126760825" x2="472.53521126760825" y1="400" y2="100.00000000000006" /><text  class="poloto_tick_labels poloto_text" dominant-baseline="start" text-anchor="middle" x="472.53521126760825" y="430" >2022 Nov</text><line  class="poloto_axis_lines" stroke="black" x1="558.4507042253535" x2="558.4507042253535" y1="400" y2="405" /><line  class="poloto_tick_line" stroke="black" x1="558.4507042253535" x2="558.4507042253535" y1="400" y2="100.00000000000006" /><text  class="poloto_tick_labels poloto_text" dominant-baseline="start" text-anchor="middle" x="558.4507042253535" y="430" >2023 Jan</text><line  class="poloto_axis_lines" stroke="black" x1="641.5492957746501" x2="641.5492957746501" y1="400" y2="405" /><line  class="poloto_tick_line" stroke="black" x1="641.5492957746501" x2="641.5492957746501" y1="400" y2="100.00000000000006" /><text  class="poloto_tick_labels poloto_text" dominant-baseline="start" text-anchor="middle" x="641.5492957746501" y="430" >2023 Mar</text><path  stroke="black" fill="none" class="poloto_axis_lines" d=" M 150 400 L 650 400" /><path  stroke="black" fill="none" class="poloto_axis_lines" d=" M 150 400 L 150 100.00000000000006" /></svg>