<svg class="poloto" width="800" height="500" viewBox="0 0 800 500" xmlns="http://www.w3.org/2000/svg"><style>.poloto{stroke-linecap:round;stroke-linejoin:round;font-family:Roboto,sans-serif;font-size:16px;}.poloto_background{fill:#262626;}.poloto_scatter{stroke-width:7}.poloto_tick_line{stroke:dimgray;stroke-width:0.5}.poloto_line{stroke-width:2}.poloto_text{fill: white;}.poloto_axis_lines{stroke: white;stroke-width:3;fill:none;stroke-dasharray:none}.poloto_title{font-size:24px;dominant-baseline:start;text-anchor:middle;}.poloto_xname{font-size:24px;dominant-baseline:start;text-anchor:middle;}.poloto_yname{font-size:24px;dominant-baseline:start;text-anchor:middle;}.poloto0stroke{stroke:blue;}.poloto1stroke{stroke:red;}.poloto2stroke{stroke:green;}.poloto3stroke{stroke:gold;}.poloto4stroke{stroke:aqua;}.poloto5stroke{stroke:lime;}.poloto6stroke{stroke:orange;}.poloto7stroke{stroke:chocolate;}.poloto0fill{fill:blue;}.poloto1fill{fill:red;}.poloto2fill{fill:green;}.poloto3fill{fill:gold;}.poloto4fill{fill:aqua;}.poloto5fill{fill:lime;}.poloto6fill{fill:orange;}.poloto7fill{fill:chocolate;}</style><circle  r="1e5" class="poloto_background" /><text  class="poloto_text poloto_legend_text" x="675" y="100" >Refinance 15</text><line  class="poloto_line poloto_legend_icon poloto0stroke poloto0legend" stroke="black" x1="680" x2="730" y1="81.25" y2="81.25" /><path  class="poloto_line poloto0stroke" fill="none" stroke="black" d=" M 150.00 392.46 L 151.66 400.00 L 156.62 389.32 L 158.28 380.17 L 159.93 389.32 L 159.93 389.32 L 163.25 358.81 L 168.21 357.20 L 169.87 367.88 L 171.52 344.83 L 173.18 346.44 L 174.83 341.61 L 179.80 343.22 L 181.46 336.78 L 181.46 336.78 L 184.77 337.37 L 186.42 314.32 L 191.39 324.32 L 193.05 327.54 L 194.70 327.54 L 196.36 326.69 L 198.01 321.78 L 204.64 278.73 L 206.29 297.88 L 207.95 283.05 L 209.60 277.29 L 209.60 277.29 L 216.23 299.58 L 219.54 303.64 L 221.19 294.58 L 226.16 283.81 L 227.81 305.25 L 229.47 294.58 L 229.47 294.58 L 232.78 292.88 L 237.75 296.19 L 239.40 306.86 L 239.40 306.86 L 241.06 297.80 L 242.72 308.56 L 244.37 292.88 L 249.34 325.08 L 250.99 324.32 L 252.65 306.86 L 252.65 306.86 L 254.30 314.32 L 255.96 317.63 L 260.93 317.63 L 262.58 329.15 L 264.24 329.15 L 265.89 329.15 L 267.55 329.15 L 274.17 317.63 L 275.83 314.32 L 277.48 315.93 L 279.14 315.93 L 279.14 315.93 L 285.76 305.25 L 287.42 305.25 L 289.07 296.19 L 295.70 281.36 L 297.35 250.76 L 299.01 254.15 L 300.66 254.15 L 302.32 275.59 L 307.28 254.15 L 308.94 254.15 L 310.60 273.90 L 312.25 277.29 L 318.87 277.29 L 320.53 275.59 L 322.19 280.59 L 323.84 285.51 L 325.50 296.19 L 332.12 303.64 L 333.77 294.58 L 335.43 287.12 L 337.09 283.81 L 342.05 285.51 L 345.36 285.51 L 347.02 283.81 L 353.64 282.20 L 353.64 282.20 L 353.64 282.20 L 353.64 282.20 L 353.64 282.20 L 353.64 282.20 L 356.95 282.20 L 356.95 282.20 L 356.95 282.20 L 356.95 282.20 L 356.95 282.20 L 356.95 282.20 L 365.23 294.58 L 368.54 297.80 L 370.20 325.93 L 371.85 329.15 L 376.82 329.15 L 378.48 327.54 L 380.13 305.25 L 381.79 299.49 L 383.44 285.51 L 388.41 296.19 L 388.41 296.19 L 390.07 287.12 L 393.38 296.19 L 393.38 296.19 L 401.66 296.19 L 403.31 262.46 L 404.97 282.20 L 411.59 248.39 L 414.90 248.39 L 414.90 248.39 L 418.21 260.76 L 424.83 254.15 L 424.83 254.15 L 424.83 254.15 L 424.83 254.15 L 424.83 254.15 L 424.83 254.15 L 424.83 254.15 L 424.83 254.15 L 424.83 254.15 L 429.80 254.15 L 439.74 232.63 L 446.36 235.17 L 446.36 235.17 L 451.32 235.17 L 457.95 235.17 L 459.60 235.17 L 459.60 235.17 L 459.60 235.17 L 459.60 235.17 L 459.60 235.17 L 481.13 235.17 L 482.78 235.17 L 492.72 139.75 L 494.37 130.68 L 496.03 130.68 L 555.63 159.15 L 562.25 159.15 L 563.91 159.15 L 565.56 175.51 L 568.87 184.49 L 568.87 184.49 L 575.50 184.49 L 577.15 184.49 L 578.81 184.49 L 580.46 184.49 L 585.43 184.49 L 587.09 184.49 L 590.40 184.49 L 592.05 184.49 L 597.02 184.49 L 598.68 184.49 L 598.68 184.49 L 603.64 184.49 L 608.61 184.49 L 610.26 184.49 L 611.92 184.49 L 613.58 184.49 L 615.23 184.49 L 621.85 209.15 L 623.51 180.68 L 625.17 159.15 L 626.82 169.92 L 631.79 169.92 L 633.44 169.92 L 633.44 169.92 L 636.75 193.05 L 638.41 193.05 L 643.38 193.05 L 645.03 193.05 L 646.69 193.05 L 648.34 193.05 L 650.00 193.05 L 650.00 193.05" /><text  class="poloto_text poloto_legend_text" x="675" y="150" >Refinance 20</text><line  class="poloto_line poloto_legend_icon poloto1stroke poloto1legend" stroke="black" x1="680" x2="730" y1="131.25" y2="131.25" /><path  class="poloto_line poloto1stroke" fill="none" stroke="black" d=" M 150.00 345.68 L 151.66 368.31 L 156.62 334.58 L 158.28 324.24 L 159.93 333.73 L 159.93 333.73 L 163.25 304.07 L 168.21 301.53 L 169.87 312.29 L 171.52 300.25 L 173.18 311.02 L 174.83 290.85 L 179.80 321.69 L 181.46 290.85 L 181.46 290.85 L 184.77 290.85 L 184.77 290.85 L 191.39 250.17 L 193.05 282.71 L 194.70 290.85 L 196.36 301.53 L 198.01 280.59 L 204.64 260.00 L 206.29 257.37 L 207.95 252.12 L 209.60 240.08 L 214.57 245.34 L 216.23 268.14 L 219.54 260.00 L 221.19 257.37 L 226.16 248.81 L 227.81 258.73 L 229.47 258.73 L 229.47 258.73 L 232.78 258.73 L 237.75 260.00 L 239.40 281.44 L 239.40 281.44 L 241.06 269.41 L 242.72 289.58 L 244.37 281.44 L 249.34 282.71 L 250.99 281.44 L 252.65 281.44 L 252.65 281.44 L 254.30 282.71 L 255.96 289.58 L 260.93 290.85 L 262.58 294.66 L 264.24 294.66 L 265.89 294.66 L 267.55 294.66 L 274.17 289.58 L 275.83 278.81 L 277.48 281.44 L 279.14 281.44 L 279.14 281.44 L 285.76 268.14 L 287.42 270.68 L 289.07 261.27 L 295.70 215.85 L 297.35 197.03 L 299.01 207.80 L 300.66 215.85 L 302.32 238.56 L 307.28 225.17 L 308.94 218.47 L 310.60 239.92 L 312.25 250.17 L 318.87 250.17 L 320.53 238.56 L 322.19 249.32 L 323.84 260.00 L 325.50 272.03 L 332.12 280.08 L 333.77 269.41 L 335.43 258.73 L 337.09 251.44 L 342.05 257.37 L 345.36 260.00 L 347.02 258.73 L 353.64 260.00 L 353.64 260.00 L 353.64 260.00 L 353.64 260.00 L 353.64 260.00 L 353.64 260.00 L 353.64 260.00 L 353.64 260.00 L 353.64 260.00 L 353.64 260.00 L 353.64 260.00 L 353.64 260.00 L 365.23 280.08 L 368.54 282.71 L 370.20 301.53 L 371.85 304.07 L 376.82 301.27 L 378.48 301.27 L 380.13 290.85 L 381.79 294.66 L 383.44 278.81 L 388.41 270.68 L 388.41 270.68 L 390.07 270.68 L 393.38 281.44 L 393.38 281.44 L 401.66 278.81 L 403.31 260.00 L 404.97 260.00 L 411.59 246.19 L 414.90 234.58 L 414.90 234.58 L 418.21 247.54 L 424.83 215.85 L 424.83 215.85 L 424.83 215.85 L 424.83 215.85 L 424.83 215.85 L 424.83 215.85 L 424.83 215.85 L 424.83 215.85 L 424.83 215.85 L 429.80 215.85 L 439.74 202.37 L 446.36 203.73 L 449.67 203.73 L 451.32 203.73 L 451.32 203.73 L 459.60 203.73 L 461.26 203.73 L 461.26 203.73 L 461.26 203.73 L 461.26 203.73 L 481.13 203.73 L 482.78 203.73 L 492.72 118.81 L 494.37 102.97 L 494.37 102.97 L 558.94 155.34 L 562.25 155.34 L 563.91 155.34 L 567.22 174.15 L 568.87 175.51 L 568.87 175.51 L 575.50 175.51 L 577.15 175.51 L 578.81 175.51 L 580.46 175.51 L 585.43 175.51 L 587.09 175.51 L 590.40 175.51 L 592.05 175.51 L 597.02 175.51 L 598.68 175.51 L 598.68 175.51 L 603.64 175.51 L 608.61 175.51 L 610.26 175.51 L 611.92 175.51 L 613.58 175.51 L 615.23 175.51 L 621.85 156.36 L 623.51 145.93 L 625.17 144.58 L 626.82 147.37 L 631.79 147.37 L 633.44 147.37 L 633.44 147.37 L 636.75 167.46 L 638.41 167.46 L 643.38 167.46 L 645.03 167.46 L 646.69 167.46 L 648.34 167.46 L 650.00 167.46 L 650.00 167.46" /><text  class="poloto_text poloto_legend_text" x="675" y="200" >Refinance 30</text><line  class="poloto_line poloto_legend_icon poloto2stroke poloto2legend" stroke="black" x1="680" x2="730" y1="181.25" y2="181.25" /><path  class="poloto_line poloto2stroke" fill="none" stroke="black" d=" M 150.00 343.31 L 151.66 351.36 L 156.62 338.81 L 158.28 328.98 L 159.93 330.85 L 159.93 330.85 L 163.25 310.25 L 168.21 308.47 L 169.87 319.15 L 171.52 307.54 L 173.18 318.22 L 174.83 297.71 L 179.80 307.54 L 181.46 286.95 L 183.11 286.95 L 184.77 286.02 L 186.42 260.00 L 191.39 264.58 L 193.05 276.27 L 194.70 286.95 L 196.36 277.20 L 198.01 265.51 L 204.64 256.61 L 206.29 242.12 L 207.95 240.17 L 209.60 238.14 L 214.57 242.12 L 216.23 258.73 L 219.54 256.61 L 221.19 254.66 L 226.16 244.07 L 227.81 255.59 L 229.47 244.07 L 229.47 244.07 L 232.78 244.07 L 237.75 246.02 L 239.40 264.58 L 239.40 264.58 L 241.06 255.59 L 242.72 256.61 L 244.37 257.54 L 249.34 265.51 L 250.99 256.61 L 252.65 256.61 L 252.65 256.61 L 254.30 266.44 L 255.96 267.46 L 260.93 268.39 L 262.58 277.20 L 264.24 277.20 L 265.89 279.07 L 267.55 279.07 L 274.17 275.25 L 275.83 264.58 L 277.48 266.44 L 279.14 265.51 L 279.14 265.51 L 285.76 255.59 L 287.42 255.59 L 289.07 245.00 L 295.70 202.12 L 297.35 171.78 L 299.01 190.34 L 300.66 202.12 L 302.32 212.80 L 307.28 203.05 L 308.94 202.12 L 310.60 221.61 L 312.25 223.56 L 318.87 223.56 L 320.53 211.86 L 322.19 221.61 L 323.84 232.29 L 325.50 255.59 L 332.12 256.61 L 333.77 245.00 L 335.43 224.58 L 337.09 221.61 L 342.05 241.10 L 345.36 223.56 L 347.02 222.54 L 353.64 242.12 L 353.64 242.12 L 353.64 242.12 L 353.64 242.12 L 353.64 242.12 L 353.64 242.12 L 356.95 242.12 L 356.95 242.12 L 356.95 242.12 L 356.95 242.12 L 356.95 242.12 L 356.95 242.12 L 365.23 254.66 L 368.54 256.61 L 370.20 275.25 L 371.85 287.88 L 376.82 286.95 L 378.48 286.95 L 380.13 265.51 L 381.79 268.39 L 383.44 254.66 L 388.41 265.51 L 388.41 265.51 L 390.07 257.54 L 393.38 266.44 L 393.38 266.44 L 401.66 264.58 L 403.31 246.02 L 404.97 245.00 L 411.59 220.59 L 414.90 211.86 L 414.90 211.86 L 418.21 222.54 L 424.83 210.85 L 424.83 210.85 L 424.83 210.85 L 424.83 210.85 L 424.83 210.85 L 424.83 210.85 L 424.83 210.85 L 424.83 210.85 L 429.80 210.85 L 429.80 209.83 L 439.74 197.03 L 446.36 175.51 L 446.36 175.51 L 451.32 175.51 L 451.32 175.51 L 459.60 175.51 L 461.26 175.51 L 461.26 175.51 L 461.26 175.51 L 461.26 175.51 L 481.13 175.51 L 482.78 175.51 L 492.72 127.03 L 494.37 100.00 L 494.37 100.00 L 558.94 146.44 L 562.25 146.44 L 563.91 146.44 L 565.56 150.76 L 568.87 160.59 L 568.87 160.59 L 575.50 160.59 L 577.15 160.59 L 578.81 160.59 L 580.46 160.59 L 585.43 160.59 L 587.09 160.59 L 590.40 160.59 L 592.05 160.59 L 597.02 160.59 L 598.68 160.59 L 598.68 160.59 L 603.64 160.59 L 608.61 160.59 L 610.26 160.59 L 611.92 160.59 L 613.58 160.59 L 615.23 160.59 L 621.85 144.24 L 623.51 152.88 L 625.17 132.37 L 626.82 152.88 L 631.79 152.88 L 633.44 152.88 L 633.44 152.88 L 636.75 152.88 L 638.41 152.88 L 643.38 152.88 L 645.03 152.88 L 646.69 152.88 L 648.34 152.88 L 650.00 152.88 L 650.00 152.88" /><text  class="poloto_labels poloto_text poloto_title" x="400" y="37.5" >lower.com purchase rates</text><text  class="poloto_labels poloto_text poloto_xname" x="400" y="481.25" >Date</text><text  class="poloto_labels poloto_text poloto_yname" transform="rotate(-90,37.5,250)" x="37.5" y="250" >Rate (%)</text><text  class="poloto_tick_labels poloto_text" dominant-baseline="middle" text-anchor="start" x="150" y="70" ></text><line  class="poloto_axis_lines" stroke="black" x1="150" x2="144" y1="390.2542372881356" y2="390.2542372881356" /><line  class="poloto_tick_line" stroke="black" x1="150" x2="650" y1="390.2542372881356" y2="390.2542372881356" /><text  class="poloto_tick_labels poloto_text" dominant-baseline="middle" text-anchor="end" x="135" y="390.2542372881356" >3.625</text><line  class="poloto_axis_lines" stroke="black" x1="150" x2="144" y1="379.66101694915255" y2="379.66101694915255" /><line  class="poloto_tick_line" stroke="black" x1="150" x2="650" y1="379.66101694915255" y2="379.66101694915255" /><text  class="poloto_tick_labels poloto_text" dominant-baseline="middle" text-anchor="end" x="135" y="379.66101694915255" >3.75</text><line  class="poloto_axis_lines" stroke="black" x1="150" x2="144" y1="369.06779661016947" y2="369.06779661016947" /><line  class="poloto_tick_line" stroke="black" x1="150" x2="650" y1="369.06779661016947" y2="369.06779661016947" /><text  class="poloto_tick_labels poloto_text" dominant-baseline="middle" text-anchor="end" x="135" y="369.06779661016947" >3.875</text><line  class="poloto_axis_lines" stroke="black" x1="150" x2="144" y1="358.47457627118644" y2="358.47457627118644" /><line  class="poloto_tick_line" stroke="black" x1="150" x2="650" y1="358.47457627118644" y2="358.47457627118644" /><text  class="poloto_tick_labels poloto_text" dominant-baseline="middle" text-anchor="end" x="135" y="358.47457627118644" >4</text><line  class="poloto_axis_lines" stroke="black" x1="150" x2="144" y1="347.8813559322034" y2="347.8813559322034" /><line  class="poloto_tick_line" stroke="black" x1="150" x2="650" y1="347.8813559322034" y2="347.8813559322034" /><text  class="poloto_tick_labels poloto_text" dominant-baseline="middle" text-anchor="end" x="135" y="347.8813559322034" >4.125</text><line  class="poloto_axis_lines" stroke="black" x1="150" x2="144" y1="337.2881355932203" y2="337.2881355932203" /><line  class="poloto_tick_line" stroke="black" x1="150" x2="650" y1="337.2881355932203" y2="337.2881355932203" /><text  class="poloto_tick_labels poloto_text" dominant-baseline="middle" text-anchor="end" x="135" y="337.2881355932203" >4.25</text><line  class="poloto_axis_lines" stroke="black" x1="150" x2="144" y1="326.6949152542373" y2="326.6949152542373" /><line  class="poloto_tick_line" stroke="black" x1="150" x2="650" y1="326.6949152542373" y2="326.6949152542373" /><text  class="poloto_tick_labels poloto_text" dominant-baseline="middle" text-anchor="end" x="135" y="326.6949152542373" >4.375</text><line  class="poloto_axis_lines" stroke="black" x1="150" x2="144" y1="316.10169491525426" y2="316.10169491525426" /><line  class="poloto_tick_line" stroke="black" x1="150" x2="650" y1="316.10169491525426" y2="316.10169491525426" /><text  class="poloto_tick_labels poloto_text" dominant-baseline="middle" text-anchor="end" x="135" y="316.10169491525426" >4.5</text><line  class="poloto_axis_lines" stroke="black" x1="150" x2="144" y1="305.50847457627117" y2="305.50847457627117" /><line  class="poloto_tick_line" stroke="black" x1="150" x2="650" y1="305.50847457627117" y2="305.50847457627117" /><text  class="poloto_tick_labels poloto_text" dominant-baseline="middle" text-anchor="end" x="135" y="305.50847457627117" >4.625</text><line  class="poloto_axis_lines" stroke="black" x1="150" x2="144" y1="294.91525423728814" y2="294.91525423728814" /><line  class="poloto_tick_line" stroke="black" x1="150" x2="650" y1="294.91525423728814" y2="294.91525423728814" /><text  class="poloto_tick_labels poloto_text" dominant-baseline="middle" text-anchor="end" x="135" y="294.91525423728814" >4.75</text><line  class="poloto_axis_lines" stroke="black" x1="150" x2="144" y1="284.3220338983051" y2="284.3220338983051" /><line  class="poloto_tick_line" stroke="black" x1="150" x2="650" y1="284.3220338983051" y2="284.3220338983051" /><text  class="poloto_tick_labels poloto_text" dominant-baseline="middle" text-anchor="end" x="135" y="284.3220338983051" >4.875</text><line  class="poloto_axis_lines" stroke="black" x1="150" x2="144" y1="273.728813559322" y2="273.728813559322" /><line  class="poloto_tick_line" stroke="black" x1="150" x2="650" y1="273.728813559322" y2="273.728813559322" /><text  class="poloto_tick_labels poloto_text" dominant-baseline="middle" text-anchor="end" x="135" y="273.728813559322" >5</text><line  class="poloto_axis_lines" stroke="black" x1="150" x2="144" y1="263.135593220339" y2="263.135593220339" /><line  class="poloto_tick_line" stroke="black" x1="150" x2="650" y1="263.135593220339" y2="263.135593220339" /><text  class="poloto_tick_labels poloto_text" dominant-baseline="middle" text-anchor="end" x="135" y="263.135593220339" >5.125</text><line  class="poloto_axis_lines" stroke="black" x1="150" x2="144" y1="252.54237288135596" y2="252.54237288135596" /><line  class="poloto_tick_line" stroke="black" x1="150" x2="650" y1="252.54237288135596" y2="252.54237288135596" /><text  class="poloto_tick_labels poloto_text" dominant-baseline="middle" text-anchor="end" x="135" y="252.54237288135596" >5.25</text><line  class="poloto_axis_lines" stroke="black" x1="150" x2="144" y1="241.94915254237287" y2="241.94915254237287" /><line  class="poloto_tick_line" stroke="black" x1="150" x2="650" y1="241.94915254237287" y2="241.94915254237287" /><text  class="poloto_tick_labels poloto_text" dominant-baseline="middle" text-anchor="end" x="135" y="241.94915254237287" >5.375</text><line  class="poloto_axis_lines" stroke="black" x1="150" x2="144" y1="231.35593220338984" y2="231.35593220338984" /><line  class="poloto_tick_line" stroke="black" x1="150" x2="650" y1="231.35593220338984" y2="231.35593220338984" /><text  class="poloto_tick_labels poloto_text" dominant-baseline="middle" text-anchor="end" x="135" y="231.35593220338984" >5.5</text><line  class="poloto_axis_lines" stroke="black" x1="150" x2="144" y1="220.7627118644068" y2="220.7627118644068" /><line  class="poloto_tick_line" stroke="black" x1="150" x2="650" y1="220.7627118644068" y2="220.7627118644068" /><text  class="poloto_tick_labels poloto_text" dominant-baseline="middle" text-anchor="end" x="135" y="220.7627118644068" >5.625</text><line  class="poloto_axis_lines" stroke="black" x1="150" x2="144" y1="210.16949152542372" y2="210.16949152542372" /><line  class="poloto_tick_line" stroke="black" x1="150" x2="650" y1="210.16949152542372" y2="210.16949152542372" /><text  class="poloto_tick_labels poloto_text" dominant-baseline="middle" text-anchor="end" x="135" y="210.16949152542372" >5.75</text><line  class="poloto_axis_lines" stroke="black" x1="150" x2="144" y1="199.5762711864407" y2="199.5762711864407" /><line  class="poloto_tick_line" stroke="black" x1="150" x2="650" y1="199.5762711864407" y2="199.5762711864407" /><text  class="poloto_tick_labels poloto_text" dominant-baseline="middle" text-anchor="end" x="135" y="199.5762711864407" >5.875</text><line  class="poloto_axis_lines" stroke="black" x1="150" x2="144" y1="188.98305084745766" y2="188.98305084745766" /><line  class="poloto_tick_line" stroke="black" x1="150" x2="650" y1="188.98305084745766" y2="188.98305084745766" /><text  class="poloto_tick_labels poloto_text" dominant-baseline="middle" text-anchor="end" x="135" y="188.98305084745766" >6</text><line  class="poloto_axis_lines" stroke="black" x1="150" x2="144" y1="178.38983050847457" y2="178.38983050847457" /><line  class="poloto_tick_line" stroke="black" x1="150" x2="650" y1="178.38983050847457" y2="178.38983050847457" /><text  class="poloto_tick_labels poloto_text" dominant-baseline="middle" text-anchor="end" x="135" y="178.38983050847457" >6.125</text><line  class="poloto_axis_lines" stroke="black" x1="150" x2="144" y1="167.7966101694915" y2="167.7966101694915" /><line  class="poloto_tick_line" stroke="black" x1="150" x2="650" y1="167.7966101694915" y2="167.7966101694915" /><text  class="poloto_tick_labels poloto_text" dominant-baseline="middle" text-anchor="end" x="135" y="167.7966101694915" >6.25</text><line  class="poloto_axis_lines" stroke="black" x1="150" x2="144" y1="157.2033898305085" y2="157.2033898305085" /><line  class="poloto_tick_line" stroke="black" x1="150" x2="650" y1="157.2033898305085" y2="157.2033898305085" /><text  class="poloto_tick_labels poloto_text" dominant-baseline="middle" text-anchor="end" x="135" y="157.2033898305085" >6.375</text><line  class="poloto_axis_lines" stroke="black" x1="150" x2="144" y1="146.61016949152543" y2="146.61016949152543" /><line  class="poloto_tick_line" stroke="black" x1="150" x2="650" y1="146.61016949152543" y2="146.61016949152543" /><text  class="poloto_tick_labels poloto_text" dominant-baseline="middle" text-anchor="end" x="135" y="146.61016949152543" >6.5</text><line  class="poloto_axis_lines" stroke="black" x1="150" x2="144" y1="136.01694915254234" y2="136.01694915254234" /><line  class="poloto_tick_line" stroke="black" x1="150" x2="650" y1="136.01694915254234" y2="136.01694915254234" /><text  class="poloto_tick_labels poloto_text" dominant-baseline="middle" text-anchor="end" x="135" y="136.01694915254234" >6.625</text><line  class="poloto_axis_lines" stroke="black" x1="150" x2="144" y1="125.42372881355936" y2="125.42372881355936" /><line  class="poloto_tick_line" stroke="black" x1="150" x2="650" y1="125.42372881355936" y2="125.42372881355936" /><text  class="poloto_tick_labels poloto_text" dominant-baseline="middle" text-anchor="end" x="135" y="125.42372881355936" >6.75</text><line  class="poloto_axis_lines" stroke="black" x1="150" x2="144" y1="114.83050847457628" y2="114.83050847457628" /><line  class="poloto_tick_line" stroke="black" x1="150" x2="650" y1="114.83050847457628" y2="114.83050847457628" /><text  class="poloto_tick_labels poloto_text" dominant-baseline="middle" text-anchor="end" x="135" y="114.83050847457628" >6.875</text><line  class="poloto_axis_lines" stroke="black" x1="150" x2="144" y1="104.23728813559319" y2="104.23728813559319" /><line  class="poloto_tick_line" stroke="black" x1="150" x2="650" y1="104.23728813559319" y2="104.23728813559319" /><text  class="poloto_tick_labels poloto_text" dominant-baseline="middle" text-anchor="end" x="135" y="104.23728813559319" >7</text><text  class="poloto_tick_labels poloto_text" dominant-baseline="middle" text-anchor="start" x="440.00000000000006" y="70" >¹2022-05-01 00:00:00 UTC in Months</text><line  class="poloto_axis_lines" stroke="black" x1="224.5033112582787" x2="224.5033112582787" y1="400" y2="405" /><line  class="poloto_tick_line" stroke="black" x1="224.5033112582787" x2="224.5033112582787" y1="400" y2="100" /><text  class="poloto_tick_labels poloto_text" dominant-baseline="start" text-anchor="middle" x="224.5033112582787" y="430" >2022 May¹</text><line  class="poloto_axis_lines" stroke="black" x1="325.4966887417213" x2="325.4966887417213" y1="400" y2="405" /><line  class="poloto_tick_line" stroke="black" x1="325.4966887417213" x2="325.4966887417213" y1="400" y2="100" /><text  class="poloto_tick_labels poloto_text" dominant-baseline="start" text-anchor="middle" x="325.4966887417213" y="430" >2022 Jul</text><line  class="poloto_axis_lines" stroke="black" x1="428.1456953642373" x2="428.1456953642373" y1="400" y2="405" /><line  class="poloto_tick_line" stroke="black" x1="428.1456953642373" x2="428.1456953642373" y1="400" y2="100" /><text  class="poloto_tick_labels poloto_text" dominant-baseline="start" text-anchor="middle" x="428.1456953642373" y="430" >2022 Sep</text><line  class="poloto_axis_lines" stroke="black" x1="529.1390728476799" x2="529.1390728476799" y1="400" y2="405" /><line  class="poloto_tick_line" stroke="black" x1="529.1390728476799" x2="529.1390728476799" y1="400" y2="100" /><text  class="poloto_tick_labels poloto_text" dominant-baseline="start" text-anchor="middle" x="529.1390728476799" y="430" >2022 Nov</text><line  class="poloto_axis_lines" stroke="black" x1="630.1324503311262" x2="630.1324503311262" y1="400" y2="405" /><line  class="poloto_tick_line" stroke="black" x1="630.1324503311262" x2="630.1324503311262" y1="400" y2="100" /><text  class="poloto_tick_labels poloto_text" dominant-baseline="start" text-anchor="middle" x="630.1324503311262" y="430" >2023 Jan</text><path  stroke="black" fill="none" class="poloto_axis_lines" d=" M 150 400 L 650 400" /><path  stroke="black" fill="none" class="poloto_axis_lines" d=" M 150 400 L 150 100" /></svg>