<svg class="poloto" width="800" height="500" viewBox="0 0 800 500" xmlns="http://www.w3.org/2000/svg"><style>.poloto{stroke-linecap:round;stroke-linejoin:round;font-family:Roboto,sans-serif;font-size:16px;}.poloto_background{fill:#262626;}.poloto_scatter{stroke-width:7}.poloto_tick_line{stroke:dimgray;stroke-width:0.5}.poloto_line{stroke-width:2}.poloto_text{fill: white;}.poloto_axis_lines{stroke: white;stroke-width:3;fill:none;stroke-dasharray:none}.poloto_title{font-size:24px;dominant-baseline:start;text-anchor:middle;}.poloto_xname{font-size:24px;dominant-baseline:start;text-anchor:middle;}.poloto_yname{font-size:24px;dominant-baseline:start;text-anchor:middle;}.poloto0stroke{stroke:blue;}.poloto1stroke{stroke:red;}.poloto2stroke{stroke:green;}.poloto3stroke{stroke:gold;}.poloto4stroke{stroke:aqua;}.poloto5stroke{stroke:lime;}.poloto6stroke{stroke:orange;}.poloto7stroke{stroke:chocolate;}.poloto0fill{fill:blue;}.poloto1fill{fill:red;}.poloto2fill{fill:green;}.poloto3fill{fill:gold;}.poloto4fill{fill:aqua;}.poloto5fill{fill:lime;}.poloto6fill{fill:orange;}.poloto7fill{fill:chocolate;}</style><circle  r="1e5" class="poloto_background" /><text  class="poloto_text poloto_legend_text" x="675" y="100" >30 years</text><line  class="poloto_line poloto_legend_icon poloto0stroke poloto0legend" stroke="black" x1="680" x2="730" y1="81.25" y2="81.25" /><path  class="poloto_line poloto0stroke" fill="none" stroke="black" d=" M 150.00 131.58 L 177.78 139.47 L 261.11 131.58 L 288.89 123.68 L 316.67 123.68 L 316.67 123.68 L 372.22 107.89 L 455.56 107.89 L 483.33 115.79 L 511.11 123.68 L 538.89 131.58 L 566.67 115.79 L 650.00 123.68" /><text  class="poloto_text poloto_legend_text" x="675" y="150" >20 years</text><line  class="poloto_line poloto_legend_icon poloto1stroke poloto1legend" stroke="black" x1="680" x2="730" y1="131.25" y2="131.25" /><path  class="poloto_line poloto1stroke" fill="none" stroke="black" d=" M 150.00 131.58 L 177.78 139.47 L 261.11 123.68 L 288.89 115.79 L 316.67 115.79 L 316.67 115.79 L 372.22 107.89 L 455.56 100.00 L 483.33 107.89 L 511.11 115.79 L 538.89 123.68 L 566.67 107.89 L 650.00 123.68" /><text  class="poloto_text poloto_legend_text" x="675" y="200" >15 years</text><line  class="poloto_line poloto_legend_icon poloto2stroke poloto2legend" stroke="black" x1="680" x2="730" y1="181.25" y2="181.25" /><path  class="poloto_line poloto2stroke" fill="none" stroke="black" d=" M 150.00 171.05 L 177.78 171.05 L 261.11 171.05 L 288.89 155.26 L 316.67 155.26 L 316.67 155.26 L 372.22 148.00 L 455.56 155.26 L 483.33 155.26 L 511.11 163.16 L 538.89 163.16 L 566.67 155.26 L 650.00 163.16" /><text  class="poloto_labels poloto_text poloto_title" x="400" y="37.5" >lower.com purchase rates</text><text  class="poloto_labels poloto_text poloto_xname" x="400" y="481.25" >Date</text><text  class="poloto_labels poloto_text poloto_yname" transform="rotate(-90,37.5,250)" x="37.5" y="250" >Rate (%)</text><text  class="poloto_tick_labels poloto_text" dominant-baseline="middle" text-anchor="start" x="440.00000000000006" y="70" >X: 2022 Mar 17 UTC in Days</text><line  class="poloto_axis_lines" stroke="black" x1="150" x2="150" y1="400" y2="405" /><text  class="poloto_tick_labels poloto_text" dominant-baseline="start" text-anchor="middle" x="150" y="430" >Mar 17</text><line  class="poloto_axis_lines" stroke="black" x1="261.11111111112405" x2="261.11111111112405" y1="400" y2="405" /><text  class="poloto_tick_labels poloto_text" dominant-baseline="start" text-anchor="middle" x="261.11111111112405" y="430" >Mar 21</text><line  class="poloto_axis_lines" stroke="black" x1="372.2222222222481" x2="372.2222222222481" y1="400" y2="405" /><text  class="poloto_tick_labels poloto_text" dominant-baseline="start" text-anchor="middle" x="372.2222222222481" y="430" >Mar 25</text><line  class="poloto_axis_lines" stroke="black" x1="483.33333333337214" x2="483.33333333337214" y1="400" y2="405" /><text  class="poloto_tick_labels poloto_text" dominant-baseline="start" text-anchor="middle" x="483.33333333337214" y="430" >Mar 29</text><line  class="poloto_axis_lines" stroke="black" x1="594.4444444444962" x2="594.4444444444962" y1="400" y2="405" /><text  class="poloto_tick_labels poloto_text" dominant-baseline="start" text-anchor="middle" x="594.4444444444962" y="430" >Apr 02</text><text  class="poloto_tick_labels poloto_text" dominant-baseline="middle" text-anchor="start" x="150" y="70" ></text><line  class="poloto_axis_lines" stroke="black" x1="150" x2="144" y1="400" y2="400" /><text  class="poloto_tick_labels poloto_text" dominant-baseline="middle" text-anchor="end" x="135" y="400" >0</text><line  class="poloto_axis_lines" stroke="black" x1="150" x2="144" y1="336.8421052631579" y2="336.8421052631579" /><text  class="poloto_tick_labels poloto_text" dominant-baseline="middle" text-anchor="end" x="135" y="336.8421052631579" >1</text><line  class="poloto_axis_lines" stroke="black" x1="150" x2="144" y1="273.6842105263158" y2="273.6842105263158" /><text  class="poloto_tick_labels poloto_text" dominant-baseline="middle" text-anchor="end" x="135" y="273.6842105263158" >2</text><line  class="poloto_axis_lines" stroke="black" x1="150" x2="144" y1="210.5263157894737" y2="210.5263157894737" /><text  class="poloto_tick_labels poloto_text" dominant-baseline="middle" text-anchor="end" x="135" y="210.5263157894737" >3</text><line  class="poloto_axis_lines" stroke="black" x1="150" x2="144" y1="147.3684210526316" y2="147.3684210526316" /><text  class="poloto_tick_labels poloto_text" dominant-baseline="middle" text-anchor="end" x="135" y="147.3684210526316" >4</text><path  stroke="black" fill="none" class="poloto_axis_lines" d=" M 150 400 L 650 400" /><path  stroke="black" fill="none" class="poloto_axis_lines" style="stroke-dasharray:6.315789473684211;stroke-dashoffset:-0;" d=" M 150 400 L 150 100" /></svg>