<svg class="poloto" width="800" height="500" viewBox="0 0 800 500" xmlns="http://www.w3.org/2000/svg"><style>.poloto{stroke-linecap:round;stroke-linejoin:round;font-family:Roboto,sans-serif;font-size:16px;}.poloto_background{fill:#262626;}.poloto_scatter{stroke-width:7}.poloto_tick_line{stroke:dimgray;stroke-width:0.5}.poloto_line{stroke-width:2}.poloto_text{fill: white;}.poloto_axis_lines{stroke: white;stroke-width:3;fill:none;stroke-dasharray:none}.poloto_title{font-size:24px;dominant-baseline:start;text-anchor:middle;}.poloto_xname{font-size:24px;dominant-baseline:start;text-anchor:middle;}.poloto_yname{font-size:24px;dominant-baseline:start;text-anchor:middle;}.poloto0stroke{stroke:blue;}.poloto1stroke{stroke:red;}.poloto2stroke{stroke:green;}.poloto3stroke{stroke:gold;}.poloto4stroke{stroke:aqua;}.poloto5stroke{stroke:lime;}.poloto6stroke{stroke:orange;}.poloto7stroke{stroke:chocolate;}.poloto0fill{fill:blue;}.poloto1fill{fill:red;}.poloto2fill{fill:green;}.poloto3fill{fill:gold;}.poloto4fill{fill:aqua;}.poloto5fill{fill:lime;}.poloto6fill{fill:orange;}.poloto7fill{fill:chocolate;}</style><circle  r="1e5" class="poloto_background" /><text  class="poloto_text poloto_legend_text" x="675" y="100" >Refinance 15</text><line  class="poloto_line poloto_legend_icon poloto0stroke poloto0legend" stroke="black" x1="680" x2="730" y1="81.25" y2="81.25" /><path  class="poloto_line poloto0stroke" fill="none" stroke="black" d=" M 150.00 392.46 L 151.88 400.00 L 157.52 389.32 L 159.40 380.17 L 161.28 389.32 L 161.28 389.32 L 165.04 358.81 L 170.68 357.20 L 172.56 367.88 L 174.44 344.83 L 176.32 346.44 L 178.20 341.61 L 183.83 343.22 L 185.71 336.78 L 185.71 336.78 L 189.47 337.37 L 191.35 314.32 L 196.99 324.32 L 198.87 327.54 L 200.75 327.54 L 202.63 326.69 L 204.51 321.78 L 212.03 278.73 L 213.91 297.88 L 215.79 283.05 L 217.67 277.29 L 217.67 277.29 L 225.19 299.58 L 228.95 303.64 L 230.83 294.58 L 236.47 283.81 L 238.35 305.25 L 240.23 294.58 L 240.23 294.58 L 243.98 292.88 L 249.62 296.19 L 251.50 306.86 L 251.50 306.86 L 253.38 297.80 L 255.26 308.56 L 257.14 292.88 L 262.78 325.08 L 264.66 324.32 L 266.54 306.86 L 266.54 306.86 L 268.42 314.32 L 270.30 317.63 L 275.94 317.63 L 277.82 329.15 L 279.70 329.15 L 281.58 329.15 L 283.46 329.15 L 290.98 317.63 L 292.86 314.32 L 294.74 315.93 L 296.62 315.93 L 296.62 315.93 L 304.14 305.25 L 306.02 305.25 L 307.89 296.19 L 315.41 281.36 L 317.29 250.76 L 319.17 254.15 L 321.05 254.15 L 322.93 275.59 L 328.57 254.15 L 330.45 254.15 L 332.33 273.90 L 334.21 277.29 L 341.73 277.29 L 343.61 275.59 L 345.49 280.59 L 347.37 285.51 L 349.25 296.19 L 356.77 303.64 L 358.65 294.58 L 360.53 287.12 L 362.41 283.81 L 368.05 285.51 L 371.80 285.51 L 373.68 283.81 L 381.20 282.20 L 381.20 282.20 L 381.20 282.20 L 381.20 282.20 L 381.20 282.20 L 381.20 282.20 L 384.96 282.20 L 384.96 282.20 L 384.96 282.20 L 384.96 282.20 L 384.96 282.20 L 384.96 282.20 L 394.36 294.58 L 398.12 297.80 L 400.00 325.93 L 401.88 329.15 L 407.52 329.15 L 409.40 327.54 L 411.28 305.25 L 413.16 299.49 L 415.04 285.51 L 420.68 296.19 L 420.68 296.19 L 422.56 287.12 L 426.32 296.19 L 426.32 296.19 L 435.71 296.19 L 437.59 262.46 L 439.47 282.20 L 446.99 248.39 L 450.75 248.39 L 450.75 248.39 L 454.51 260.76 L 462.03 254.15 L 462.03 254.15 L 462.03 254.15 L 462.03 254.15 L 462.03 254.15 L 462.03 254.15 L 462.03 254.15 L 462.03 254.15 L 462.03 254.15 L 467.67 254.15 L 478.95 232.63 L 486.47 235.17 L 486.47 235.17 L 492.11 235.17 L 499.62 235.17 L 501.50 235.17 L 501.50 235.17 L 501.50 235.17 L 501.50 235.17 L 501.50 235.17 L 525.94 235.17 L 527.82 235.17 L 539.10 139.75 L 540.98 130.68 L 542.86 130.68 L 610.53 159.15 L 618.05 159.15 L 619.92 159.15 L 621.80 175.51 L 625.56 184.49 L 625.56 184.49 L 633.08 184.49 L 634.96 184.49 L 636.84 184.49 L 638.72 184.49 L 644.36 184.49 L 646.24 184.49 L 650.00 184.49" /><text  class="poloto_text poloto_legend_text" x="675" y="150" >Refinance 20</text><line  class="poloto_line poloto_legend_icon poloto1stroke poloto1legend" stroke="black" x1="680" x2="730" y1="131.25" y2="131.25" /><path  class="poloto_line poloto1stroke" fill="none" stroke="black" d=" M 150.00 345.68 L 151.88 368.31 L 157.52 334.58 L 159.40 324.24 L 161.28 333.73 L 161.28 333.73 L 165.04 304.07 L 170.68 301.53 L 172.56 312.29 L 174.44 300.25 L 176.32 311.02 L 178.20 290.85 L 183.83 321.69 L 185.71 290.85 L 185.71 290.85 L 189.47 290.85 L 189.47 290.85 L 196.99 250.17 L 198.87 282.71 L 200.75 290.85 L 202.63 301.53 L 204.51 280.59 L 212.03 260.00 L 213.91 257.37 L 215.79 252.12 L 217.67 240.08 L 223.31 245.34 L 225.19 268.14 L 228.95 260.00 L 230.83 257.37 L 236.47 248.81 L 238.35 258.73 L 240.23 258.73 L 240.23 258.73 L 243.98 258.73 L 249.62 260.00 L 251.50 281.44 L 251.50 281.44 L 253.38 269.41 L 255.26 289.58 L 257.14 281.44 L 262.78 282.71 L 264.66 281.44 L 266.54 281.44 L 266.54 281.44 L 268.42 282.71 L 270.30 289.58 L 275.94 290.85 L 277.82 294.66 L 279.70 294.66 L 281.58 294.66 L 283.46 294.66 L 290.98 289.58 L 292.86 278.81 L 294.74 281.44 L 296.62 281.44 L 296.62 281.44 L 304.14 268.14 L 306.02 270.68 L 307.89 261.27 L 315.41 215.85 L 317.29 197.03 L 319.17 207.80 L 321.05 215.85 L 322.93 238.56 L 328.57 225.17 L 330.45 218.47 L 332.33 239.92 L 334.21 250.17 L 341.73 250.17 L 343.61 238.56 L 345.49 249.32 L 347.37 260.00 L 349.25 272.03 L 356.77 280.08 L 358.65 269.41 L 360.53 258.73 L 362.41 251.44 L 368.05 257.37 L 371.80 260.00 L 373.68 258.73 L 381.20 260.00 L 381.20 260.00 L 381.20 260.00 L 381.20 260.00 L 381.20 260.00 L 381.20 260.00 L 381.20 260.00 L 381.20 260.00 L 381.20 260.00 L 381.20 260.00 L 381.20 260.00 L 381.20 260.00 L 394.36 280.08 L 398.12 282.71 L 400.00 301.53 L 401.88 304.07 L 407.52 301.27 L 409.40 301.27 L 411.28 290.85 L 413.16 294.66 L 415.04 278.81 L 420.68 270.68 L 420.68 270.68 L 422.56 270.68 L 426.32 281.44 L 426.32 281.44 L 435.71 278.81 L 437.59 260.00 L 439.47 260.00 L 446.99 246.19 L 450.75 234.58 L 450.75 234.58 L 454.51 247.54 L 462.03 215.85 L 462.03 215.85 L 462.03 215.85 L 462.03 215.85 L 462.03 215.85 L 462.03 215.85 L 462.03 215.85 L 462.03 215.85 L 462.03 215.85 L 467.67 215.85 L 478.95 202.37 L 486.47 203.73 L 490.23 203.73 L 492.11 203.73 L 492.11 203.73 L 501.50 203.73 L 503.38 203.73 L 503.38 203.73 L 503.38 203.73 L 503.38 203.73 L 525.94 203.73 L 527.82 203.73 L 539.10 118.81 L 540.98 102.97 L 540.98 102.97 L 614.29 155.34 L 618.05 155.34 L 619.92 155.34 L 623.68 174.15 L 625.56 175.51 L 625.56 175.51 L 633.08 175.51 L 634.96 175.51 L 636.84 175.51 L 638.72 175.51 L 644.36 175.51 L 646.24 175.51 L 650.00 175.51" /><text  class="poloto_text poloto_legend_text" x="675" y="200" >Refinance 30</text><line  class="poloto_line poloto_legend_icon poloto2stroke poloto2legend" stroke="black" x1="680" x2="730" y1="181.25" y2="181.25" /><path  class="poloto_line poloto2stroke" fill="none" stroke="black" d=" M 150.00 343.31 L 151.88 351.36 L 157.52 338.81 L 159.40 328.98 L 161.28 330.85 L 161.28 330.85 L 165.04 310.25 L 170.68 308.47 L 172.56 319.15 L 174.44 307.54 L 176.32 318.22 L 178.20 297.71 L 183.83 307.54 L 185.71 286.95 L 187.59 286.95 L 189.47 286.02 L 191.35 260.00 L 196.99 264.58 L 198.87 276.27 L 200.75 286.95 L 202.63 277.20 L 204.51 265.51 L 212.03 256.61 L 213.91 242.12 L 215.79 240.17 L 217.67 238.14 L 223.31 242.12 L 225.19 258.73 L 228.95 256.61 L 230.83 254.66 L 236.47 244.07 L 238.35 255.59 L 240.23 244.07 L 240.23 244.07 L 243.98 244.07 L 249.62 246.02 L 251.50 264.58 L 251.50 264.58 L 253.38 255.59 L 255.26 256.61 L 257.14 257.54 L 262.78 265.51 L 264.66 256.61 L 266.54 256.61 L 266.54 256.61 L 268.42 266.44 L 270.30 267.46 L 275.94 268.39 L 277.82 277.20 L 279.70 277.20 L 281.58 279.07 L 283.46 279.07 L 290.98 275.25 L 292.86 264.58 L 294.74 266.44 L 296.62 265.51 L 296.62 265.51 L 304.14 255.59 L 306.02 255.59 L 307.89 245.00 L 315.41 202.12 L 317.29 171.78 L 319.17 190.34 L 321.05 202.12 L 322.93 212.80 L 328.57 203.05 L 330.45 202.12 L 332.33 221.61 L 334.21 223.56 L 341.73 223.56 L 343.61 211.86 L 345.49 221.61 L 347.37 232.29 L 349.25 255.59 L 356.77 256.61 L 358.65 245.00 L 360.53 224.58 L 362.41 221.61 L 368.05 241.10 L 371.80 223.56 L 373.68 222.54 L 381.20 242.12 L 381.20 242.12 L 381.20 242.12 L 381.20 242.12 L 381.20 242.12 L 381.20 242.12 L 384.96 242.12 L 384.96 242.12 L 384.96 242.12 L 384.96 242.12 L 384.96 242.12 L 384.96 242.12 L 394.36 254.66 L 398.12 256.61 L 400.00 275.25 L 401.88 287.88 L 407.52 286.95 L 409.40 286.95 L 411.28 265.51 L 413.16 268.39 L 415.04 254.66 L 420.68 265.51 L 420.68 265.51 L 422.56 257.54 L 426.32 266.44 L 426.32 266.44 L 435.71 264.58 L 437.59 246.02 L 439.47 245.00 L 446.99 220.59 L 450.75 211.86 L 450.75 211.86 L 454.51 222.54 L 462.03 210.85 L 462.03 210.85 L 462.03 210.85 L 462.03 210.85 L 462.03 210.85 L 462.03 210.85 L 462.03 210.85 L 462.03 210.85 L 467.67 210.85 L 467.67 209.83 L 478.95 197.03 L 486.47 175.51 L 486.47 175.51 L 492.11 175.51 L 492.11 175.51 L 501.50 175.51 L 503.38 175.51 L 503.38 175.51 L 503.38 175.51 L 503.38 175.51 L 525.94 175.51 L 527.82 175.51 L 539.10 127.03 L 540.98 100.00 L 540.98 100.00 L 614.29 146.44 L 618.05 146.44 L 619.92 146.44 L 621.80 150.76 L 625.56 160.59 L 625.56 160.59 L 633.08 160.59 L 634.96 160.59 L 636.84 160.59 L 638.72 160.59 L 644.36 160.59 L 646.24 160.59 L 650.00 160.59" /><text  class="poloto_labels poloto_text poloto_title" x="400" y="37.5" >lower.com purchase rates</text><text  class="poloto_labels poloto_text poloto_xname" x="400" y="481.25" >Date</text><text  class="poloto_labels poloto_text poloto_yname" transform="rotate(-90,37.5,250)" x="37.5" y="250" >Rate (%)</text><text  class="poloto_tick_labels poloto_text" dominant-baseline="middle" text-anchor="start" x="150" y="70" ></text><line  class="poloto_axis_lines" stroke="black" x1="150" x2="144" y1="390.2542372881356" y2="390.2542372881356" /><line  class="poloto_tick_line" stroke="black" x1="150" x2="650" y1="390.2542372881356" y2="390.2542372881356" /><text  class="poloto_tick_labels poloto_text" dominant-baseline="middle" text-anchor="end" x="135" y="390.2542372881356" >3.625</text><line  class="poloto_axis_lines" stroke="black" x1="150" x2="144" y1="379.66101694915255" y2="379.66101694915255" /><line  class="poloto_tick_line" stroke="black" x1="150" x2="650" y1="379.66101694915255" y2="379.66101694915255" /><text  class="poloto_tick_labels poloto_text" dominant-baseline="middle" text-anchor="end" x="135" y="379.66101694915255" >3.75</text><line  class="poloto_axis_lines" stroke="black" x1="150" x2="144" y1="369.06779661016947" y2="369.06779661016947" /><line  class="poloto_tick_line" stroke="black" x1="150" x2="650" y1="369.06779661016947" y2="369.06779661016947" /><text  class="poloto_tick_labels poloto_text" dominant-baseline="middle" text-anchor="end" x="135" y="369.06779661016947" >3.875</text><line  class="poloto_axis_lines" stroke="black" x1="150" x2="144" y1="358.47457627118644" y2="358.47457627118644" /><line  class="poloto_tick_line" stroke="black" x1="150" x2="650" y1="358.47457627118644" y2="358.47457627118644" /><text  class="poloto_tick_labels poloto_text" dominant-baseline="middle" text-anchor="end" x="135" y="358.47457627118644" >4</text><line  class="poloto_axis_lines" stroke="black" x1="150" x2="144" y1="347.8813559322034" y2="347.8813559322034" /><line  class="poloto_tick_line" stroke="black" x1="150" x2="650" y1="347.8813559322034" y2="347.8813559322034" /><text  class="poloto_tick_labels poloto_text" dominant-baseline="middle" text-anchor="end" x="135" y="347.8813559322034" >4.125</text><line  class="poloto_axis_lines" stroke="black" x1="150" x2="144" y1="337.2881355932203" y2="337.2881355932203" /><line  class="poloto_tick_line" stroke="black" x1="150" x2="650" y1="337.2881355932203" y2="337.2881355932203" /><text  class="poloto_tick_labels poloto_text" dominant-baseline="middle" text-anchor="end" x="135" y="337.2881355932203" >4.25</text><line  class="poloto_axis_lines" stroke="black" x1="150" x2="144" y1="326.6949152542373" y2="326.6949152542373" /><line  class="poloto_tick_line" stroke="black" x1="150" x2="650" y1="326.6949152542373" y2="326.6949152542373" /><text  class="poloto_tick_labels poloto_text" dominant-baseline="middle" text-anchor="end" x="135" y="326.6949152542373" >4.375</text><line  class="poloto_axis_lines" stroke="black" x1="150" x2="144" y1="316.10169491525426" y2="316.10169491525426" /><line  class="poloto_tick_line" stroke="black" x1="150" x2="650" y1="316.10169491525426" y2="316.10169491525426" /><text  class="poloto_tick_labels poloto_text" dominant-baseline="middle" text-anchor="end" x="135" y="316.10169491525426" >4.5</text><line  class="poloto_axis_lines" stroke="black" x1="150" x2="144" y1="305.50847457627117" y2="305.50847457627117" /><line  class="poloto_tick_line" stroke="black" x1="150" x2="650" y1="305.50847457627117" y2="305.50847457627117" /><text  class="poloto_tick_labels poloto_text" dominant-baseline="middle" text-anchor="end" x="135" y="305.50847457627117" >4.625</text><line  class="poloto_axis_lines" stroke="black" x1="150" x2="144" y1="294.91525423728814" y2="294.91525423728814" /><line  class="poloto_tick_line" stroke="black" x1="150" x2="650" y1="294.91525423728814" y2="294.91525423728814" /><text  class="poloto_tick_labels poloto_text" dominant-baseline="middle" text-anchor="end" x="135" y="294.91525423728814" >4.75</text><line  class="poloto_axis_lines" stroke="black" x1="150" x2="144" y1="284.3220338983051" y2="284.3220338983051" /><line  class="poloto_tick_line" stroke="black" x1="150" x2="650" y1="284.3220338983051" y2="284.3220338983051" /><text  class="poloto_tick_labels poloto_text" dominant-baseline="middle" text-anchor="end" x="135" y="284.3220338983051" >4.875</text><line  class="poloto_axis_lines" stroke="black" x1="150" x2="144" y1="273.728813559322" y2="273.728813559322" /><line  class="poloto_tick_line" stroke="black" x1="150" x2="650" y1="273.728813559322" y2="273.728813559322" /><text  class="poloto_tick_labels poloto_text" dominant-baseline="middle" text-anchor="end" x="135" y="273.728813559322" >5</text><line  class="poloto_axis_lines" stroke="black" x1="150" x2="144" y1="263.135593220339" y2="263.135593220339" /><line  class="poloto_tick_line" stroke="black" x1="150" x2="650" y1="263.135593220339" y2="263.135593220339" /><text  class="poloto_tick_labels poloto_text" dominant-baseline="middle" text-anchor="end" x="135" y="263.135593220339" >5.125</text><line  class="poloto_axis_lines" stroke="black" x1="150" x2="144" y1="252.54237288135596" y2="252.54237288135596" /><line  class="poloto_tick_line" stroke="black" x1="150" x2="650" y1="252.54237288135596" y2="252.54237288135596" /><text  class="poloto_tick_labels poloto_text" dominant-baseline="middle" text-anchor="end" x="135" y="252.54237288135596" >5.25</text><line  class="poloto_axis_lines" stroke="black" x1="150" x2="144" y1="241.94915254237287" y2="241.94915254237287" /><line  class="poloto_tick_line" stroke="black" x1="150" x2="650" y1="241.94915254237287" y2="241.94915254237287" /><text  class="poloto_tick_labels poloto_text" dominant-baseline="middle" text-anchor="end" x="135" y="241.94915254237287" >5.375</text><line  class="poloto_axis_lines" stroke="black" x1="150" x2="144" y1="231.35593220338984" y2="231.35593220338984" /><line  class="poloto_tick_line" stroke="black" x1="150" x2="650" y1="231.35593220338984" y2="231.35593220338984" /><text  class="poloto_tick_labels poloto_text" dominant-baseline="middle" text-anchor="end" x="135" y="231.35593220338984" >5.5</text><line  class="poloto_axis_lines" stroke="black" x1="150" x2="144" y1="220.7627118644068" y2="220.7627118644068" /><line  class="poloto_tick_line" stroke="black" x1="150" x2="650" y1="220.7627118644068" y2="220.7627118644068" /><text  class="poloto_tick_labels poloto_text" dominant-baseline="middle" text-anchor="end" x="135" y="220.7627118644068" >5.625</text><line  class="poloto_axis_lines" stroke="black" x1="150" x2="144" y1="210.16949152542372" y2="210.16949152542372" /><line  class="poloto_tick_line" stroke="black" x1="150" x2="650" y1="210.16949152542372" y2="210.16949152542372" /><text  class="poloto_tick_labels poloto_text" dominant-baseline="middle" text-anchor="end" x="135" y="210.16949152542372" >5.75</text><line  class="poloto_axis_lines" stroke="black" x1="150" x2="144" y1="199.5762711864407" y2="199.5762711864407" /><line  class="poloto_tick_line" stroke="black" x1="150" x2="650" y1="199.5762711864407" y2="199.5762711864407" /><text  class="poloto_tick_labels poloto_text" dominant-baseline="middle" text-anchor="end" x="135" y="199.5762711864407" >5.875</text><line  class="poloto_axis_lines" stroke="black" x1="150" x2="144" y1="188.98305084745766" y2="188.98305084745766" /><line  class="poloto_tick_line" stroke="black" x1="150" x2="650" y1="188.98305084745766" y2="188.98305084745766" /><text  class="poloto_tick_labels poloto_text" dominant-baseline="middle" text-anchor="end" x="135" y="188.98305084745766" >6</text><line  class="poloto_axis_lines" stroke="black" x1="150" x2="144" y1="178.38983050847457" y2="178.38983050847457" /><line  class="poloto_tick_line" stroke="black" x1="150" x2="650" y1="178.38983050847457" y2="178.38983050847457" /><text  class="poloto_tick_labels poloto_text" dominant-baseline="middle" text-anchor="end" x="135" y="178.38983050847457" >6.125</text><line  class="poloto_axis_lines" stroke="black" x1="150" x2="144" y1="167.7966101694915" y2="167.7966101694915" /><line  class="poloto_tick_line" stroke="black" x1="150" x2="650" y1="167.7966101694915" y2="167.7966101694915" /><text  class="poloto_tick_labels poloto_text" dominant-baseline="middle" text-anchor="end" x="135" y="167.7966101694915" >6.25</text><line  class="poloto_axis_lines" stroke="black" x1="150" x2="144" y1="157.2033898305085" y2="157.2033898305085" /><line  class="poloto_tick_line" stroke="black" x1="150" x2="650" y1="157.2033898305085" y2="157.2033898305085" /><text  class="poloto_tick_labels poloto_text" dominant-baseline="middle" text-anchor="end" x="135" y="157.2033898305085" >6.375</text><line  class="poloto_axis_lines" stroke="black" x1="150" x2="144" y1="146.61016949152543" y2="146.61016949152543" /><line  class="poloto_tick_line" stroke="black" x1="150" x2="650" y1="146.61016949152543" y2="146.61016949152543" /><text  class="poloto_tick_labels poloto_text" dominant-baseline="middle" text-anchor="end" x="135" y="146.61016949152543" >6.5</text><line  class="poloto_axis_lines" stroke="black" x1="150" x2="144" y1="136.01694915254234" y2="136.01694915254234" /><line  class="poloto_tick_line" stroke="black" x1="150" x2="650" y1="136.01694915254234" y2="136.01694915254234" /><text  class="poloto_tick_labels poloto_text" dominant-baseline="middle" text-anchor="end" x="135" y="136.01694915254234" >6.625</text><line  class="poloto_axis_lines" stroke="black" x1="150" x2="144" y1="125.42372881355936" y2="125.42372881355936" /><line  class="poloto_tick_line" stroke="black" x1="150" x2="650" y1="125.42372881355936" y2="125.42372881355936" /><text  class="poloto_tick_labels poloto_text" dominant-baseline="middle" text-anchor="end" x="135" y="125.42372881355936" >6.75</text><line  class="poloto_axis_lines" stroke="black" x1="150" x2="144" y1="114.83050847457628" y2="114.83050847457628" /><line  class="poloto_tick_line" stroke="black" x1="150" x2="650" y1="114.83050847457628" y2="114.83050847457628" /><text  class="poloto_tick_labels poloto_text" dominant-baseline="middle" text-anchor="end" x="135" y="114.83050847457628" >6.875</text><line  class="poloto_axis_lines" stroke="black" x1="150" x2="144" y1="104.23728813559319" y2="104.23728813559319" /><line  class="poloto_tick_line" stroke="black" x1="150" x2="650" y1="104.23728813559319" y2="104.23728813559319" /><text  class="poloto_tick_labels poloto_text" dominant-baseline="middle" text-anchor="end" x="135" y="104.23728813559319" >7</text><text  class="poloto_tick_labels poloto_text" dominant-baseline="middle" text-anchor="start" x="440.00000000000006" y="70" >¹2022-05-01 00:00:00 UTC in Months</text><line  class="poloto_axis_lines" stroke="black" x1="234.58646616541228" x2="234.58646616541228" y1="400" y2="405" /><line  class="poloto_tick_line" stroke="black" x1="234.58646616541228" x2="234.58646616541228" y1="400" y2="100" /><text  class="poloto_tick_labels poloto_text" dominant-baseline="start" text-anchor="middle" x="234.58646616541228" y="430" >2022 May¹</text><line  class="poloto_axis_lines" stroke="black" x1="349.24812030074827" x2="349.24812030074827" y1="400" y2="405" /><line  class="poloto_tick_line" stroke="black" x1="349.24812030074827" x2="349.24812030074827" y1="400" y2="100" /><text  class="poloto_tick_labels poloto_text" dominant-baseline="start" text-anchor="middle" x="349.24812030074827" y="430" >2022 Jul</text><line  class="poloto_axis_lines" stroke="black" x1="465.7894736842136" x2="465.7894736842136" y1="400" y2="405" /><line  class="poloto_tick_line" stroke="black" x1="465.7894736842136" x2="465.7894736842136" y1="400" y2="100" /><text  class="poloto_tick_labels poloto_text" dominant-baseline="start" text-anchor="middle" x="465.7894736842136" y="430" >2022 Sep</text><line  class="poloto_axis_lines" stroke="black" x1="580.4511278195496" x2="580.4511278195496" y1="400" y2="405" /><line  class="poloto_tick_line" stroke="black" x1="580.4511278195496" x2="580.4511278195496" y1="400" y2="100" /><text  class="poloto_tick_labels poloto_text" dominant-baseline="start" text-anchor="middle" x="580.4511278195496" y="430" >2022 Nov</text><path  stroke="black" fill="none" class="poloto_axis_lines" d=" M 150 400 L 650 400" /><path  stroke="black" fill="none" class="poloto_axis_lines" d=" M 150 400 L 150 100" /></svg>