<svg class="poloto" width="800" height="500" viewBox="0 0 800 500" xmlns="http://www.w3.org/2000/svg"><style>.poloto{stroke-linecap:round;stroke-linejoin:round;font-family:Roboto,sans-serif;font-size:16px;}.poloto_background{fill:#262626;}.poloto_scatter{stroke-width:7}.poloto_tick_line{stroke:dimgray;stroke-width:0.5}.poloto_line{stroke-width:2}.poloto_text{fill: white;}.poloto_axis_lines{stroke: white;stroke-width:3;fill:none;stroke-dasharray:none}.poloto_title{font-size:24px;dominant-baseline:start;text-anchor:middle;}.poloto_xname{font-size:24px;dominant-baseline:start;text-anchor:middle;}.poloto_yname{font-size:24px;dominant-baseline:start;text-anchor:middle;}.poloto0stroke{stroke:blue;}.poloto1stroke{stroke:red;}.poloto2stroke{stroke:green;}.poloto3stroke{stroke:gold;}.poloto4stroke{stroke:aqua;}.poloto5stroke{stroke:lime;}.poloto6stroke{stroke:orange;}.poloto7stroke{stroke:chocolate;}.poloto0fill{fill:blue;}.poloto1fill{fill:red;}.poloto2fill{fill:green;}.poloto3fill{fill:gold;}.poloto4fill{fill:aqua;}.poloto5fill{fill:lime;}.poloto6fill{fill:orange;}.poloto7fill{fill:chocolate;}</style><circle  r="1e5" class="poloto_background" /><text  class="poloto_text poloto_legend_text" x="675" y="100" >Refinance 15</text><line  class="poloto_line poloto_legend_icon poloto0stroke poloto0legend" stroke="black" x1="680" x2="730" y1="81.25" y2="81.25" /><path  class="poloto_line poloto0stroke" fill="none" stroke="black" d=" M 150.00 392.46 L 151.71 400.00 L 156.85 389.32 L 158.56 380.17 L 160.27 389.32 L 160.27 389.32 L 163.70 358.81 L 168.84 357.20 L 170.55 367.88 L 172.26 344.83 L 173.97 346.44 L 175.68 341.61 L 180.82 343.22 L 182.53 336.78 L 182.53 336.78 L 185.96 337.37 L 187.67 314.32 L 192.81 324.32 L 194.52 327.54 L 196.23 327.54 L 197.95 326.69 L 199.66 321.78 L 206.51 278.73 L 208.22 297.88 L 209.93 283.05 L 211.64 277.29 L 211.64 277.29 L 218.49 299.58 L 221.92 303.64 L 223.63 294.58 L 228.77 283.81 L 230.48 305.25 L 232.19 294.58 L 232.19 294.58 L 235.62 292.88 L 240.75 296.19 L 242.47 306.86 L 242.47 306.86 L 244.18 297.80 L 245.89 308.56 L 247.60 292.88 L 252.74 325.08 L 254.45 324.32 L 256.16 306.86 L 256.16 306.86 L 257.88 314.32 L 259.59 317.63 L 264.73 317.63 L 266.44 329.15 L 268.15 329.15 L 269.86 329.15 L 271.58 329.15 L 278.42 317.63 L 280.14 314.32 L 281.85 315.93 L 283.56 315.93 L 283.56 315.93 L 290.41 305.25 L 292.12 305.25 L 293.84 296.19 L 300.68 281.36 L 302.40 250.76 L 304.11 254.15 L 305.82 254.15 L 307.53 275.59 L 312.67 254.15 L 314.38 254.15 L 316.10 273.90 L 317.81 277.29 L 324.66 277.29 L 326.37 275.59 L 328.08 280.59 L 329.79 285.51 L 331.51 296.19 L 338.36 303.64 L 340.07 294.58 L 341.78 287.12 L 343.49 283.81 L 348.63 285.51 L 352.05 285.51 L 353.77 283.81 L 360.62 282.20 L 360.62 282.20 L 360.62 282.20 L 360.62 282.20 L 360.62 282.20 L 360.62 282.20 L 364.04 282.20 L 364.04 282.20 L 364.04 282.20 L 364.04 282.20 L 364.04 282.20 L 364.04 282.20 L 372.60 294.58 L 376.03 297.80 L 377.74 325.93 L 379.45 329.15 L 384.59 329.15 L 386.30 327.54 L 388.01 305.25 L 389.73 299.49 L 391.44 285.51 L 396.58 296.19 L 396.58 296.19 L 398.29 287.12 L 401.71 296.19 L 401.71 296.19 L 410.27 296.19 L 411.99 262.46 L 413.70 282.20 L 420.55 248.39 L 423.97 248.39 L 423.97 248.39 L 427.40 260.76 L 434.25 254.15 L 434.25 254.15 L 434.25 254.15 L 434.25 254.15 L 434.25 254.15 L 434.25 254.15 L 434.25 254.15 L 434.25 254.15 L 434.25 254.15 L 439.38 254.15 L 449.66 232.63 L 456.51 235.17 L 456.51 235.17 L 461.64 235.17 L 468.49 235.17 L 470.21 235.17 L 470.21 235.17 L 470.21 235.17 L 470.21 235.17 L 470.21 235.17 L 492.47 235.17 L 494.18 235.17 L 504.45 139.75 L 506.16 130.68 L 507.88 130.68 L 569.52 159.15 L 576.37 159.15 L 578.08 159.15 L 579.79 175.51 L 583.22 184.49 L 583.22 184.49 L 590.07 184.49 L 591.78 184.49 L 593.49 184.49 L 595.21 184.49 L 600.34 184.49 L 602.05 184.49 L 605.48 184.49 L 607.19 184.49 L 612.33 184.49 L 614.04 184.49 L 614.04 184.49 L 619.18 184.49 L 624.32 184.49 L 626.03 184.49 L 627.74 184.49 L 629.45 184.49 L 631.16 184.49 L 638.01 209.15 L 639.73 180.68 L 641.44 159.15 L 643.15 169.92 L 648.29 169.92 L 650.00 169.92 L 650.00 169.92" /><text  class="poloto_text poloto_legend_text" x="675" y="150" >Refinance 20</text><line  class="poloto_line poloto_legend_icon poloto1stroke poloto1legend" stroke="black" x1="680" x2="730" y1="131.25" y2="131.25" /><path  class="poloto_line poloto1stroke" fill="none" stroke="black" d=" M 150.00 345.68 L 151.71 368.31 L 156.85 334.58 L 158.56 324.24 L 160.27 333.73 L 160.27 333.73 L 163.70 304.07 L 168.84 301.53 L 170.55 312.29 L 172.26 300.25 L 173.97 311.02 L 175.68 290.85 L 180.82 321.69 L 182.53 290.85 L 182.53 290.85 L 185.96 290.85 L 185.96 290.85 L 192.81 250.17 L 194.52 282.71 L 196.23 290.85 L 197.95 301.53 L 199.66 280.59 L 206.51 260.00 L 208.22 257.37 L 209.93 252.12 L 211.64 240.08 L 216.78 245.34 L 218.49 268.14 L 221.92 260.00 L 223.63 257.37 L 228.77 248.81 L 230.48 258.73 L 232.19 258.73 L 232.19 258.73 L 235.62 258.73 L 240.75 260.00 L 242.47 281.44 L 242.47 281.44 L 244.18 269.41 L 245.89 289.58 L 247.60 281.44 L 252.74 282.71 L 254.45 281.44 L 256.16 281.44 L 256.16 281.44 L 257.88 282.71 L 259.59 289.58 L 264.73 290.85 L 266.44 294.66 L 268.15 294.66 L 269.86 294.66 L 271.58 294.66 L 278.42 289.58 L 280.14 278.81 L 281.85 281.44 L 283.56 281.44 L 283.56 281.44 L 290.41 268.14 L 292.12 270.68 L 293.84 261.27 L 300.68 215.85 L 302.40 197.03 L 304.11 207.80 L 305.82 215.85 L 307.53 238.56 L 312.67 225.17 L 314.38 218.47 L 316.10 239.92 L 317.81 250.17 L 324.66 250.17 L 326.37 238.56 L 328.08 249.32 L 329.79 260.00 L 331.51 272.03 L 338.36 280.08 L 340.07 269.41 L 341.78 258.73 L 343.49 251.44 L 348.63 257.37 L 352.05 260.00 L 353.77 258.73 L 360.62 260.00 L 360.62 260.00 L 360.62 260.00 L 360.62 260.00 L 360.62 260.00 L 360.62 260.00 L 360.62 260.00 L 360.62 260.00 L 360.62 260.00 L 360.62 260.00 L 360.62 260.00 L 360.62 260.00 L 372.60 280.08 L 376.03 282.71 L 377.74 301.53 L 379.45 304.07 L 384.59 301.27 L 386.30 301.27 L 388.01 290.85 L 389.73 294.66 L 391.44 278.81 L 396.58 270.68 L 396.58 270.68 L 398.29 270.68 L 401.71 281.44 L 401.71 281.44 L 410.27 278.81 L 411.99 260.00 L 413.70 260.00 L 420.55 246.19 L 423.97 234.58 L 423.97 234.58 L 427.40 247.54 L 434.25 215.85 L 434.25 215.85 L 434.25 215.85 L 434.25 215.85 L 434.25 215.85 L 434.25 215.85 L 434.25 215.85 L 434.25 215.85 L 434.25 215.85 L 439.38 215.85 L 449.66 202.37 L 456.51 203.73 L 459.93 203.73 L 461.64 203.73 L 461.64 203.73 L 470.21 203.73 L 471.92 203.73 L 471.92 203.73 L 471.92 203.73 L 471.92 203.73 L 492.47 203.73 L 494.18 203.73 L 504.45 118.81 L 506.16 102.97 L 506.16 102.97 L 572.95 155.34 L 576.37 155.34 L 578.08 155.34 L 581.51 174.15 L 583.22 175.51 L 583.22 175.51 L 590.07 175.51 L 591.78 175.51 L 593.49 175.51 L 595.21 175.51 L 600.34 175.51 L 602.05 175.51 L 605.48 175.51 L 607.19 175.51 L 612.33 175.51 L 614.04 175.51 L 614.04 175.51 L 619.18 175.51 L 624.32 175.51 L 626.03 175.51 L 627.74 175.51 L 629.45 175.51 L 631.16 175.51 L 638.01 156.36 L 639.73 145.93 L 641.44 144.58 L 643.15 147.37 L 648.29 147.37 L 650.00 147.37 L 650.00 147.37" /><text  class="poloto_text poloto_legend_text" x="675" y="200" >Refinance 30</text><line  class="poloto_line poloto_legend_icon poloto2stroke poloto2legend" stroke="black" x1="680" x2="730" y1="181.25" y2="181.25" /><path  class="poloto_line poloto2stroke" fill="none" stroke="black" d=" M 150.00 343.31 L 151.71 351.36 L 156.85 338.81 L 158.56 328.98 L 160.27 330.85 L 160.27 330.85 L 163.70 310.25 L 168.84 308.47 L 170.55 319.15 L 172.26 307.54 L 173.97 318.22 L 175.68 297.71 L 180.82 307.54 L 182.53 286.95 L 184.25 286.95 L 185.96 286.02 L 187.67 260.00 L 192.81 264.58 L 194.52 276.27 L 196.23 286.95 L 197.95 277.20 L 199.66 265.51 L 206.51 256.61 L 208.22 242.12 L 209.93 240.17 L 211.64 238.14 L 216.78 242.12 L 218.49 258.73 L 221.92 256.61 L 223.63 254.66 L 228.77 244.07 L 230.48 255.59 L 232.19 244.07 L 232.19 244.07 L 235.62 244.07 L 240.75 246.02 L 242.47 264.58 L 242.47 264.58 L 244.18 255.59 L 245.89 256.61 L 247.60 257.54 L 252.74 265.51 L 254.45 256.61 L 256.16 256.61 L 256.16 256.61 L 257.88 266.44 L 259.59 267.46 L 264.73 268.39 L 266.44 277.20 L 268.15 277.20 L 269.86 279.07 L 271.58 279.07 L 278.42 275.25 L 280.14 264.58 L 281.85 266.44 L 283.56 265.51 L 283.56 265.51 L 290.41 255.59 L 292.12 255.59 L 293.84 245.00 L 300.68 202.12 L 302.40 171.78 L 304.11 190.34 L 305.82 202.12 L 307.53 212.80 L 312.67 203.05 L 314.38 202.12 L 316.10 221.61 L 317.81 223.56 L 324.66 223.56 L 326.37 211.86 L 328.08 221.61 L 329.79 232.29 L 331.51 255.59 L 338.36 256.61 L 340.07 245.00 L 341.78 224.58 L 343.49 221.61 L 348.63 241.10 L 352.05 223.56 L 353.77 222.54 L 360.62 242.12 L 360.62 242.12 L 360.62 242.12 L 360.62 242.12 L 360.62 242.12 L 360.62 242.12 L 364.04 242.12 L 364.04 242.12 L 364.04 242.12 L 364.04 242.12 L 364.04 242.12 L 364.04 242.12 L 372.60 254.66 L 376.03 256.61 L 377.74 275.25 L 379.45 287.88 L 384.59 286.95 L 386.30 286.95 L 388.01 265.51 L 389.73 268.39 L 391.44 254.66 L 396.58 265.51 L 396.58 265.51 L 398.29 257.54 L 401.71 266.44 L 401.71 266.44 L 410.27 264.58 L 411.99 246.02 L 413.70 245.00 L 420.55 220.59 L 423.97 211.86 L 423.97 211.86 L 427.40 222.54 L 434.25 210.85 L 434.25 210.85 L 434.25 210.85 L 434.25 210.85 L 434.25 210.85 L 434.25 210.85 L 434.25 210.85 L 434.25 210.85 L 439.38 210.85 L 439.38 209.83 L 449.66 197.03 L 456.51 175.51 L 456.51 175.51 L 461.64 175.51 L 461.64 175.51 L 470.21 175.51 L 471.92 175.51 L 471.92 175.51 L 471.92 175.51 L 471.92 175.51 L 492.47 175.51 L 494.18 175.51 L 504.45 127.03 L 506.16 100.00 L 506.16 100.00 L 572.95 146.44 L 576.37 146.44 L 578.08 146.44 L 579.79 150.76 L 583.22 160.59 L 583.22 160.59 L 590.07 160.59 L 591.78 160.59 L 593.49 160.59 L 595.21 160.59 L 600.34 160.59 L 602.05 160.59 L 605.48 160.59 L 607.19 160.59 L 612.33 160.59 L 614.04 160.59 L 614.04 160.59 L 619.18 160.59 L 624.32 160.59 L 626.03 160.59 L 627.74 160.59 L 629.45 160.59 L 631.16 160.59 L 638.01 144.24 L 639.73 152.88 L 641.44 132.37 L 643.15 152.88 L 648.29 152.88 L 650.00 152.88 L 650.00 152.88" /><text  class="poloto_labels poloto_text poloto_title" x="400" y="37.5" >lower.com purchase rates</text><text  class="poloto_labels poloto_text poloto_xname" x="400" y="481.25" >Date</text><text  class="poloto_labels poloto_text poloto_yname" transform="rotate(-90,37.5,250)" x="37.5" y="250" >Rate (%)</text><text  class="poloto_tick_labels poloto_text" dominant-baseline="middle" text-anchor="start" x="150" y="70" ></text><line  class="poloto_axis_lines" stroke="black" x1="150" x2="144" y1="390.2542372881356" y2="390.2542372881356" /><line  class="poloto_tick_line" stroke="black" x1="150" x2="650" y1="390.2542372881356" y2="390.2542372881356" /><text  class="poloto_tick_labels poloto_text" dominant-baseline="middle" text-anchor="end" x="135" y="390.2542372881356" >3.625</text><line  class="poloto_axis_lines" stroke="black" x1="150" x2="144" y1="379.66101694915255" y2="379.66101694915255" /><line  class="poloto_tick_line" stroke="black" x1="150" x2="650" y1="379.66101694915255" y2="379.66101694915255" /><text  class="poloto_tick_labels poloto_text" dominant-baseline="middle" text-anchor="end" x="135" y="379.66101694915255" >3.75</text><line  class="poloto_axis_lines" stroke="black" x1="150" x2="144" y1="369.06779661016947" y2="369.06779661016947" /><line  class="poloto_tick_line" stroke="black" x1="150" x2="650" y1="369.06779661016947" y2="369.06779661016947" /><text  class="poloto_tick_labels poloto_text" dominant-baseline="middle" text-anchor="end" x="135" y="369.06779661016947" >3.875</text><line  class="poloto_axis_lines" stroke="black" x1="150" x2="144" y1="358.47457627118644" y2="358.47457627118644" /><line  class="poloto_tick_line" stroke="black" x1="150" x2="650" y1="358.47457627118644" y2="358.47457627118644" /><text  class="poloto_tick_labels poloto_text" dominant-baseline="middle" text-anchor="end" x="135" y="358.47457627118644" >4</text><line  class="poloto_axis_lines" stroke="black" x1="150" x2="144" y1="347.8813559322034" y2="347.8813559322034" /><line  class="poloto_tick_line" stroke="black" x1="150" x2="650" y1="347.8813559322034" y2="347.8813559322034" /><text  class="poloto_tick_labels poloto_text" dominant-baseline="middle" text-anchor="end" x="135" y="347.8813559322034" >4.125</text><line  class="poloto_axis_lines" stroke="black" x1="150" x2="144" y1="337.2881355932203" y2="337.2881355932203" /><line  class="poloto_tick_line" stroke="black" x1="150" x2="650" y1="337.2881355932203" y2="337.2881355932203" /><text  class="poloto_tick_labels poloto_text" dominant-baseline="middle" text-anchor="end" x="135" y="337.2881355932203" >4.25</text><line  class="poloto_axis_lines" stroke="black" x1="150" x2="144" y1="326.6949152542373" y2="326.6949152542373" /><line  class="poloto_tick_line" stroke="black" x1="150" x2="650" y1="326.6949152542373" y2="326.6949152542373" /><text  class="poloto_tick_labels poloto_text" dominant-baseline="middle" text-anchor="end" x="135" y="326.6949152542373" >4.375</text><line  class="poloto_axis_lines" stroke="black" x1="150" x2="144" y1="316.10169491525426" y2="316.10169491525426" /><line  class="poloto_tick_line" stroke="black" x1="150" x2="650" y1="316.10169491525426" y2="316.10169491525426" /><text  class="poloto_tick_labels poloto_text" dominant-baseline="middle" text-anchor="end" x="135" y="316.10169491525426" >4.5</text><line  class="poloto_axis_lines" stroke="black" x1="150" x2="144" y1="305.50847457627117" y2="305.50847457627117" /><line  class="poloto_tick_line" stroke="black" x1="150" x2="650" y1="305.50847457627117" y2="305.50847457627117" /><text  class="poloto_tick_labels poloto_text" dominant-baseline="middle" text-anchor="end" x="135" y="305.50847457627117" >4.625</text><line  class="poloto_axis_lines" stroke="black" x1="150" x2="144" y1="294.91525423728814" y2="294.91525423728814" /><line  class="poloto_tick_line" stroke="black" x1="150" x2="650" y1="294.91525423728814" y2="294.91525423728814" /><text  class="poloto_tick_labels poloto_text" dominant-baseline="middle" text-anchor="end" x="135" y="294.91525423728814" >4.75</text><line  class="poloto_axis_lines" stroke="black" x1="150" x2="144" y1="284.3220338983051" y2="284.3220338983051" /><line  class="poloto_tick_line" stroke="black" x1="150" x2="650" y1="284.3220338983051" y2="284.3220338983051" /><text  class="poloto_tick_labels poloto_text" dominant-baseline="middle" text-anchor="end" x="135" y="284.3220338983051" >4.875</text><line  class="poloto_axis_lines" stroke="black" x1="150" x2="144" y1="273.728813559322" y2="273.728813559322" /><line  class="poloto_tick_line" stroke="black" x1="150" x2="650" y1="273.728813559322" y2="273.728813559322" /><text  class="poloto_tick_labels poloto_text" dominant-baseline="middle" text-anchor="end" x="135" y="273.728813559322" >5</text><line  class="poloto_axis_lines" stroke="black" x1="150" x2="144" y1="263.135593220339" y2="263.135593220339" /><line  class="poloto_tick_line" stroke="black" x1="150" x2="650" y1="263.135593220339" y2="263.135593220339" /><text  class="poloto_tick_labels poloto_text" dominant-baseline="middle" text-anchor="end" x="135" y="263.135593220339" >5.125</text><line  class="poloto_axis_lines" stroke="black" x1="150" x2="144" y1="252.54237288135596" y2="252.54237288135596" /><line  class="poloto_tick_line" stroke="black" x1="150" x2="650" y1="252.54237288135596" y2="252.54237288135596" /><text  class="poloto_tick_labels poloto_text" dominant-baseline="middle" text-anchor="end" x="135" y="252.54237288135596" >5.25</text><line  class="poloto_axis_lines" stroke="black" x1="150" x2="144" y1="241.94915254237287" y2="241.94915254237287" /><line  class="poloto_tick_line" stroke="black" x1="150" x2="650" y1="241.94915254237287" y2="241.94915254237287" /><text  class="poloto_tick_labels poloto_text" dominant-baseline="middle" text-anchor="end" x="135" y="241.94915254237287" >5.375</text><line  class="poloto_axis_lines" stroke="black" x1="150" x2="144" y1="231.35593220338984" y2="231.35593220338984" /><line  class="poloto_tick_line" stroke="black" x1="150" x2="650" y1="231.35593220338984" y2="231.35593220338984" /><text  class="poloto_tick_labels poloto_text" dominant-baseline="middle" text-anchor="end" x="135" y="231.35593220338984" >5.5</text><line  class="poloto_axis_lines" stroke="black" x1="150" x2="144" y1="220.7627118644068" y2="220.7627118644068" /><line  class="poloto_tick_line" stroke="black" x1="150" x2="650" y1="220.7627118644068" y2="220.7627118644068" /><text  class="poloto_tick_labels poloto_text" dominant-baseline="middle" text-anchor="end" x="135" y="220.7627118644068" >5.625</text><line  class="poloto_axis_lines" stroke="black" x1="150" x2="144" y1="210.16949152542372" y2="210.16949152542372" /><line  class="poloto_tick_line" stroke="black" x1="150" x2="650" y1="210.16949152542372" y2="210.16949152542372" /><text  class="poloto_tick_labels poloto_text" dominant-baseline="middle" text-anchor="end" x="135" y="210.16949152542372" >5.75</text><line  class="poloto_axis_lines" stroke="black" x1="150" x2="144" y1="199.5762711864407" y2="199.5762711864407" /><line  class="poloto_tick_line" stroke="black" x1="150" x2="650" y1="199.5762711864407" y2="199.5762711864407" /><text  class="poloto_tick_labels poloto_text" dominant-baseline="middle" text-anchor="end" x="135" y="199.5762711864407" >5.875</text><line  class="poloto_axis_lines" stroke="black" x1="150" x2="144" y1="188.98305084745766" y2="188.98305084745766" /><line  class="poloto_tick_line" stroke="black" x1="150" x2="650" y1="188.98305084745766" y2="188.98305084745766" /><text  class="poloto_tick_labels poloto_text" dominant-baseline="middle" text-anchor="end" x="135" y="188.98305084745766" >6</text><line  class="poloto_axis_lines" stroke="black" x1="150" x2="144" y1="178.38983050847457" y2="178.38983050847457" /><line  class="poloto_tick_line" stroke="black" x1="150" x2="650" y1="178.38983050847457" y2="178.38983050847457" /><text  class="poloto_tick_labels poloto_text" dominant-baseline="middle" text-anchor="end" x="135" y="178.38983050847457" >6.125</text><line  class="poloto_axis_lines" stroke="black" x1="150" x2="144" y1="167.7966101694915" y2="167.7966101694915" /><line  class="poloto_tick_line" stroke="black" x1="150" x2="650" y1="167.7966101694915" y2="167.7966101694915" /><text  class="poloto_tick_labels poloto_text" dominant-baseline="middle" text-anchor="end" x="135" y="167.7966101694915" >6.25</text><line  class="poloto_axis_lines" stroke="black" x1="150" x2="144" y1="157.2033898305085" y2="157.2033898305085" /><line  class="poloto_tick_line" stroke="black" x1="150" x2="650" y1="157.2033898305085" y2="157.2033898305085" /><text  class="poloto_tick_labels poloto_text" dominant-baseline="middle" text-anchor="end" x="135" y="157.2033898305085" >6.375</text><line  class="poloto_axis_lines" stroke="black" x1="150" x2="144" y1="146.61016949152543" y2="146.61016949152543" /><line  class="poloto_tick_line" stroke="black" x1="150" x2="650" y1="146.61016949152543" y2="146.61016949152543" /><text  class="poloto_tick_labels poloto_text" dominant-baseline="middle" text-anchor="end" x="135" y="146.61016949152543" >6.5</text><line  class="poloto_axis_lines" stroke="black" x1="150" x2="144" y1="136.01694915254234" y2="136.01694915254234" /><line  class="poloto_tick_line" stroke="black" x1="150" x2="650" y1="136.01694915254234" y2="136.01694915254234" /><text  class="poloto_tick_labels poloto_text" dominant-baseline="middle" text-anchor="end" x="135" y="136.01694915254234" >6.625</text><line  class="poloto_axis_lines" stroke="black" x1="150" x2="144" y1="125.42372881355936" y2="125.42372881355936" /><line  class="poloto_tick_line" stroke="black" x1="150" x2="650" y1="125.42372881355936" y2="125.42372881355936" /><text  class="poloto_tick_labels poloto_text" dominant-baseline="middle" text-anchor="end" x="135" y="125.42372881355936" >6.75</text><line  class="poloto_axis_lines" stroke="black" x1="150" x2="144" y1="114.83050847457628" y2="114.83050847457628" /><line  class="poloto_tick_line" stroke="black" x1="150" x2="650" y1="114.83050847457628" y2="114.83050847457628" /><text  class="poloto_tick_labels poloto_text" dominant-baseline="middle" text-anchor="end" x="135" y="114.83050847457628" >6.875</text><line  class="poloto_axis_lines" stroke="black" x1="150" x2="144" y1="104.23728813559319" y2="104.23728813559319" /><line  class="poloto_tick_line" stroke="black" x1="150" x2="650" y1="104.23728813559319" y2="104.23728813559319" /><text  class="poloto_tick_labels poloto_text" dominant-baseline="middle" text-anchor="end" x="135" y="104.23728813559319" >7</text><text  class="poloto_tick_labels poloto_text" dominant-baseline="middle" text-anchor="start" x="440.00000000000006" y="70" >¹2022-05-01 00:00:00 UTC in Months</text><line  class="poloto_axis_lines" stroke="black" x1="227.05479452054715" x2="227.05479452054715" y1="400" y2="405" /><line  class="poloto_tick_line" stroke="black" x1="227.05479452054715" x2="227.05479452054715" y1="400" y2="100" /><text  class="poloto_tick_labels poloto_text" dominant-baseline="start" text-anchor="middle" x="227.05479452054715" y="430" >2022 May¹</text><line  class="poloto_axis_lines" stroke="black" x1="331.5068493150684" x2="331.5068493150684" y1="400" y2="405" /><line  class="poloto_tick_line" stroke="black" x1="331.5068493150684" x2="331.5068493150684" y1="400" y2="100" /><text  class="poloto_tick_labels poloto_text" dominant-baseline="start" text-anchor="middle" x="331.5068493150684" y="430" >2022 Jul</text><line  class="poloto_axis_lines" stroke="black" x1="437.67123287670984" x2="437.67123287670984" y1="400" y2="405" /><line  class="poloto_tick_line" stroke="black" x1="437.67123287670984" x2="437.67123287670984" y1="400" y2="100" /><text  class="poloto_tick_labels poloto_text" dominant-baseline="start" text-anchor="middle" x="437.67123287670984" y="430" >2022 Sep</text><line  class="poloto_axis_lines" stroke="black" x1="542.1232876712311" x2="542.1232876712311" y1="400" y2="405" /><line  class="poloto_tick_line" stroke="black" x1="542.1232876712311" x2="542.1232876712311" y1="400" y2="100" /><text  class="poloto_tick_labels poloto_text" dominant-baseline="start" text-anchor="middle" x="542.1232876712311" y="430" >2022 Nov</text><line  class="poloto_axis_lines" stroke="black" x1="646.5753424657523" x2="646.5753424657523" y1="400" y2="405" /><line  class="poloto_tick_line" stroke="black" x1="646.5753424657523" x2="646.5753424657523" y1="400" y2="100" /><text  class="poloto_tick_labels poloto_text" dominant-baseline="start" text-anchor="middle" x="646.5753424657523" y="430" >2023 Jan</text><path  stroke="black" fill="none" class="poloto_axis_lines" d=" M 150 400 L 650 400" /><path  stroke="black" fill="none" class="poloto_axis_lines" d=" M 150 400 L 150 100" /></svg>