<svg class="poloto" width="800" height="500" viewBox="0 0 800 500" xmlns="http://www.w3.org/2000/svg"><style>.poloto{stroke-linecap:round;stroke-linejoin:round;font-family:Roboto,sans-serif;font-size:16px;}.poloto_background{fill:#262626;}.poloto_scatter{stroke-width:7}.poloto_tick_line{stroke:dimgray;stroke-width:0.5}.poloto_line{stroke-width:2}.poloto_text{fill: white;}.poloto_axis_lines{stroke: white;stroke-width:3;fill:none;stroke-dasharray:none}.poloto_title{font-size:24px;dominant-baseline:start;text-anchor:middle;}.poloto_xname{font-size:24px;dominant-baseline:start;text-anchor:middle;}.poloto_yname{font-size:24px;dominant-baseline:start;text-anchor:middle;}.poloto0stroke{stroke:blue;}.poloto1stroke{stroke:red;}.poloto2stroke{stroke:green;}.poloto3stroke{stroke:gold;}.poloto4stroke{stroke:aqua;}.poloto5stroke{stroke:lime;}.poloto6stroke{stroke:orange;}.poloto7stroke{stroke:chocolate;}.poloto0fill{fill:blue;}.poloto1fill{fill:red;}.poloto2fill{fill:green;}.poloto3fill{fill:gold;}.poloto4fill{fill:aqua;}.poloto5fill{fill:lime;}.poloto6fill{fill:orange;}.poloto7fill{fill:chocolate;}</style><circle  r="1e5" class="poloto_background" /><text  class="poloto_text poloto_legend_text" x="675" y="100" >30 years</text><line  class="poloto_line poloto_legend_icon poloto0stroke poloto0legend" stroke="black" x1="680" x2="730" y1="81.25" y2="81.25" /><path  class="poloto_line poloto0stroke" fill="none" stroke="black" d=" M 150.00 353.85 L 153.25 376.92 L 162.99 353.85 L 166.23 330.77 L 169.48 330.77 L 169.48 330.77 L 175.97 284.62 L 185.71 284.62 L 188.96 307.69 L 192.21 330.77 L 195.45 353.85 L 198.70 307.69 L 208.44 330.77 L 211.69 307.69 L 214.94 284.62 L 218.18 261.54 L 221.43 261.54 L 231.17 261.54 L 234.42 284.62 L 237.66 284.62 L 240.91 284.62 L 244.16 238.46 L 257.14 217.23 L 260.39 215.38 L 263.64 215.38 L 266.88 192.31 L 276.62 215.38 L 279.87 238.46 L 286.36 217.23 L 289.61 217.23 L 299.35 217.23 L 302.60 217.23 L 305.84 217.23 L 309.09 217.23 L 312.34 192.31 L 322.08 215.38 L 325.32 217.23 L 325.32 217.23 L 328.57 217.23 L 331.82 217.23 L 335.06 217.23 L 344.81 217.23 L 348.05 217.23 L 351.30 217.23 L 351.30 217.23 L 354.55 217.23 L 357.79 261.54 L 367.53 261.54 L 370.78 284.62 L 374.03 284.62 L 377.27 307.69 L 380.52 284.62 L 393.51 261.54 L 396.75 238.46 L 400.00 261.54 L 403.25 261.54 L 412.99 238.46 L 416.23 217.23 L 419.48 217.23 L 422.73 217.23 L 435.71 123.08 L 438.96 100.00 L 442.21 100.00 L 445.45 123.08 L 448.70 146.15 L 458.44 123.08 L 461.69 123.08 L 464.94 146.15 L 468.18 169.23 L 481.17 169.23 L 484.42 123.08 L 487.66 146.15 L 490.91 192.31 L 494.16 217.23 L 507.14 217.23 L 510.39 217.23 L 513.64 192.31 L 516.88 146.15 L 526.62 192.31 L 533.12 146.15 L 536.36 192.31 L 549.35 192.31 L 549.35 192.31 L 549.35 192.31 L 549.35 192.31 L 549.35 192.31 L 555.84 192.31 L 555.84 192.31 L 555.84 192.31 L 555.84 192.31 L 555.84 192.31 L 555.84 192.31 L 562.34 217.23 L 572.08 217.23 L 578.57 217.23 L 581.82 261.54 L 585.06 307.69 L 594.81 307.69 L 598.05 307.69 L 601.30 284.62 L 604.55 284.62 L 607.79 217.23 L 617.53 217.23 L 617.53 217.23 L 620.78 217.23 L 620.78 217.23 L 627.27 217.23 L 643.51 217.23 L 646.75 192.31 L 650.00 192.31" /><text  class="poloto_labels poloto_text poloto_title" x="400" y="37.5" >lower.com purchase rates</text><text  class="poloto_labels poloto_text poloto_xname" x="400" y="481.25" >Date</text><text  class="poloto_labels poloto_text poloto_yname" transform="rotate(-90,37.5,250)" x="37.5" y="250" >Rate (%)</text><text  class="poloto_tick_labels poloto_text" dominant-baseline="middle" text-anchor="start" x="150" y="70" ></text><line  class="poloto_axis_lines" stroke="black" x1="150" x2="144" y1="400" y2="400" /><line  class="poloto_tick_line" stroke="black" x1="150" x2="650" y1="400" y2="400" /><text  class="poloto_tick_labels poloto_text" dominant-baseline="middle" text-anchor="end" x="135" y="400" >4</text><line  class="poloto_axis_lines" stroke="black" x1="150" x2="144" y1="376.9230769230769" y2="376.9230769230769" /><line  class="poloto_tick_line" stroke="black" x1="150" x2="650" y1="376.9230769230769" y2="376.9230769230769" /><text  class="poloto_tick_labels poloto_text" dominant-baseline="middle" text-anchor="end" x="135" y="376.9230769230769" >4.125</text><line  class="poloto_axis_lines" stroke="black" x1="150" x2="144" y1="353.8461538461538" y2="353.8461538461538" /><line  class="poloto_tick_line" stroke="black" x1="150" x2="650" y1="353.8461538461538" y2="353.8461538461538" /><text  class="poloto_tick_labels poloto_text" dominant-baseline="middle" text-anchor="end" x="135" y="353.8461538461538" >4.25</text><line  class="poloto_axis_lines" stroke="black" x1="150" x2="144" y1="330.7692307692307" y2="330.7692307692307" /><line  class="poloto_tick_line" stroke="black" x1="150" x2="650" y1="330.7692307692307" y2="330.7692307692307" /><text  class="poloto_tick_labels poloto_text" dominant-baseline="middle" text-anchor="end" x="135" y="330.7692307692307" >4.375</text><line  class="poloto_axis_lines" stroke="black" x1="150" x2="144" y1="307.69230769230774" y2="307.69230769230774" /><line  class="poloto_tick_line" stroke="black" x1="150" x2="650" y1="307.69230769230774" y2="307.69230769230774" /><text  class="poloto_tick_labels poloto_text" dominant-baseline="middle" text-anchor="end" x="135" y="307.69230769230774" >4.5</text><line  class="poloto_axis_lines" stroke="black" x1="150" x2="144" y1="284.61538461538464" y2="284.61538461538464" /><line  class="poloto_tick_line" stroke="black" x1="150" x2="650" y1="284.61538461538464" y2="284.61538461538464" /><text  class="poloto_tick_labels poloto_text" dominant-baseline="middle" text-anchor="end" x="135" y="284.61538461538464" >4.625</text><line  class="poloto_axis_lines" stroke="black" x1="150" x2="144" y1="261.53846153846155" y2="261.53846153846155" /><line  class="poloto_tick_line" stroke="black" x1="150" x2="650" y1="261.53846153846155" y2="261.53846153846155" /><text  class="poloto_tick_labels poloto_text" dominant-baseline="middle" text-anchor="end" x="135" y="261.53846153846155" >4.75</text><line  class="poloto_axis_lines" stroke="black" x1="150" x2="144" y1="238.46153846153845" y2="238.46153846153845" /><line  class="poloto_tick_line" stroke="black" x1="150" x2="650" y1="238.46153846153845" y2="238.46153846153845" /><text  class="poloto_tick_labels poloto_text" dominant-baseline="middle" text-anchor="end" x="135" y="238.46153846153845" >4.875</text><line  class="poloto_axis_lines" stroke="black" x1="150" x2="144" y1="215.38461538461536" y2="215.38461538461536" /><line  class="poloto_tick_line" stroke="black" x1="150" x2="650" y1="215.38461538461536" y2="215.38461538461536" /><text  class="poloto_tick_labels poloto_text" dominant-baseline="middle" text-anchor="end" x="135" y="215.38461538461536" >5</text><line  class="poloto_axis_lines" stroke="black" x1="150" x2="144" y1="192.30769230769226" y2="192.30769230769226" /><line  class="poloto_tick_line" stroke="black" x1="150" x2="650" y1="192.30769230769226" y2="192.30769230769226" /><text  class="poloto_tick_labels poloto_text" dominant-baseline="middle" text-anchor="end" x="135" y="192.30769230769226" >5.125</text><line  class="poloto_axis_lines" stroke="black" x1="150" x2="144" y1="169.23076923076928" y2="169.23076923076928" /><line  class="poloto_tick_line" stroke="black" x1="150" x2="650" y1="169.23076923076928" y2="169.23076923076928" /><text  class="poloto_tick_labels poloto_text" dominant-baseline="middle" text-anchor="end" x="135" y="169.23076923076928" >5.25</text><line  class="poloto_axis_lines" stroke="black" x1="150" x2="144" y1="146.1538461538462" y2="146.1538461538462" /><line  class="poloto_tick_line" stroke="black" x1="150" x2="650" y1="146.1538461538462" y2="146.1538461538462" /><text  class="poloto_tick_labels poloto_text" dominant-baseline="middle" text-anchor="end" x="135" y="146.1538461538462" >5.375</text><line  class="poloto_axis_lines" stroke="black" x1="150" x2="144" y1="123.0769230769231" y2="123.0769230769231" /><line  class="poloto_tick_line" stroke="black" x1="150" x2="650" y1="123.0769230769231" y2="123.0769230769231" /><text  class="poloto_tick_labels poloto_text" dominant-baseline="middle" text-anchor="end" x="135" y="123.0769230769231" >5.5</text><line  class="poloto_axis_lines" stroke="black" x1="150" x2="144" y1="100.00000000000011" y2="100.00000000000011" /><line  class="poloto_tick_line" stroke="black" x1="150" x2="650" y1="100.00000000000011" y2="100.00000000000011" /><text  class="poloto_tick_labels poloto_text" dominant-baseline="middle" text-anchor="end" x="135" y="100.00000000000011" >5.625</text><text  class="poloto_tick_labels poloto_text" dominant-baseline="middle" text-anchor="start" x="440.00000000000006" y="70" >¹2022-04-01 00:00:00 UTC in Months</text><line  class="poloto_axis_lines" stroke="black" x1="198.7012987013004" x2="198.7012987013004" y1="400" y2="405" /><line  class="poloto_tick_line" stroke="black" x1="198.7012987013004" x2="198.7012987013004" y1="400" y2="100.00000000000011" /><text  class="poloto_tick_labels poloto_text" dominant-baseline="start" text-anchor="middle" x="198.7012987013004" y="430" >2022 Apr¹</text><line  class="poloto_axis_lines" stroke="black" x1="296.10389610389393" x2="296.10389610389393" y1="400" y2="405" /><line  class="poloto_tick_line" stroke="black" x1="296.10389610389393" x2="296.10389610389393" y1="400" y2="100.00000000000011" /><text  class="poloto_tick_labels poloto_text" dominant-baseline="start" text-anchor="middle" x="296.10389610389393" y="430" >2022 May</text><line  class="poloto_axis_lines" stroke="black" x1="396.753246753251" x2="396.753246753251" y1="400" y2="405" /><line  class="poloto_tick_line" stroke="black" x1="396.753246753251" x2="396.753246753251" y1="400" y2="100.00000000000011" /><text  class="poloto_tick_labels poloto_text" dominant-baseline="start" text-anchor="middle" x="396.753246753251" y="430" >2022 Jun</text><line  class="poloto_axis_lines" stroke="black" x1="494.15584415584453" x2="494.15584415584453" y1="400" y2="405" /><line  class="poloto_tick_line" stroke="black" x1="494.15584415584453" x2="494.15584415584453" y1="400" y2="100.00000000000011" /><text  class="poloto_tick_labels poloto_text" dominant-baseline="start" text-anchor="middle" x="494.15584415584453" y="430" >2022 Jul</text><line  class="poloto_axis_lines" stroke="black" x1="594.8051948051943" x2="594.8051948051943" y1="400" y2="405" /><line  class="poloto_tick_line" stroke="black" x1="594.8051948051943" x2="594.8051948051943" y1="400" y2="100.00000000000011" /><text  class="poloto_tick_labels poloto_text" dominant-baseline="start" text-anchor="middle" x="594.8051948051943" y="430" >2022 Aug</text><path  stroke="black" fill="none" class="poloto_axis_lines" d=" M 150 400 L 650 400" /><path  stroke="black" fill="none" class="poloto_axis_lines" d=" M 150 400 L 150 100.00000000000011" /></svg>