<svg class="poloto" width="800" height="500" viewBox="0 0 800 500" xmlns="http://www.w3.org/2000/svg"><style>.poloto{stroke-linecap:round;stroke-linejoin:round;font-family:Roboto,sans-serif;font-size:16px;}.poloto_background{fill:#262626;}.poloto_scatter{stroke-width:7}.poloto_tick_line{stroke:dimgray;stroke-width:0.5}.poloto_line{stroke-width:2}.poloto_text{fill: white;}.poloto_axis_lines{stroke: white;stroke-width:3;fill:none;stroke-dasharray:none}.poloto_title{font-size:24px;dominant-baseline:start;text-anchor:middle;}.poloto_xname{font-size:24px;dominant-baseline:start;text-anchor:middle;}.poloto_yname{font-size:24px;dominant-baseline:start;text-anchor:middle;}.poloto0stroke{stroke:blue;}.poloto1stroke{stroke:red;}.poloto2stroke{stroke:green;}.poloto3stroke{stroke:gold;}.poloto4stroke{stroke:aqua;}.poloto5stroke{stroke:lime;}.poloto6stroke{stroke:orange;}.poloto7stroke{stroke:chocolate;}.poloto0fill{fill:blue;}.poloto1fill{fill:red;}.poloto2fill{fill:green;}.poloto3fill{fill:gold;}.poloto4fill{fill:aqua;}.poloto5fill{fill:lime;}.poloto6fill{fill:orange;}.poloto7fill{fill:chocolate;}</style><circle  r="1e5" class="poloto_background" /><text  class="poloto_text poloto_legend_text" x="675" y="100" >Refinance 15</text><line  class="poloto_line poloto_legend_icon poloto0stroke poloto0legend" stroke="black" x1="680" x2="730" y1="81.25" y2="81.25" /><path  class="poloto_line poloto0stroke" fill="none" stroke="black" d=" M 150.00 390.09 L 152.75 400.00 L 160.99 385.96 L 163.74 373.93 L 166.48 385.96 L 166.48 385.96 L 171.98 345.86 L 180.22 343.74 L 182.97 357.78 L 185.71 327.48 L 188.46 329.60 L 191.21 323.25 L 199.45 325.36 L 202.20 316.90 L 202.20 316.90 L 207.69 317.68 L 210.44 287.37 L 218.68 300.52 L 221.43 304.75 L 224.18 304.75 L 226.92 303.64 L 229.67 297.18 L 240.66 240.59 L 243.41 265.76 L 246.15 246.27 L 248.90 238.69 L 248.90 238.69 L 259.89 267.99 L 265.38 273.34 L 268.13 261.42 L 276.37 247.27 L 279.12 275.45 L 281.87 261.42 L 281.87 261.42 L 287.36 259.19 L 295.60 263.54 L 298.35 277.57 L 298.35 277.57 L 301.10 265.65 L 303.85 279.80 L 306.59 259.19 L 314.84 301.52 L 317.58 300.52 L 320.33 277.57 L 320.33 277.57 L 323.08 287.37 L 325.82 291.72 L 334.07 291.72 L 336.81 306.87 L 339.56 306.87 L 342.31 306.87 L 345.05 306.87 L 356.04 291.72 L 358.79 287.37 L 361.54 289.49 L 364.29 289.49 L 364.29 289.49 L 375.27 275.45 L 378.02 275.45 L 380.77 263.54 L 391.76 244.04 L 394.51 203.82 L 397.25 208.28 L 400.00 208.28 L 402.75 236.46 L 410.99 208.28 L 413.74 208.28 L 416.48 234.24 L 419.23 238.69 L 430.22 238.69 L 432.97 236.46 L 435.71 243.04 L 438.46 249.50 L 441.21 263.54 L 452.20 273.34 L 454.95 261.42 L 457.69 251.62 L 460.44 247.27 L 468.68 249.50 L 474.18 249.50 L 476.92 247.27 L 487.91 245.15 L 487.91 245.15 L 487.91 245.15 L 487.91 245.15 L 487.91 245.15 L 487.91 245.15 L 493.41 245.15 L 493.41 245.15 L 493.41 245.15 L 493.41 245.15 L 493.41 245.15 L 493.41 245.15 L 507.14 261.42 L 512.64 265.65 L 515.38 302.64 L 518.13 306.87 L 526.37 306.87 L 529.12 304.75 L 531.87 275.45 L 534.62 267.88 L 537.36 249.50 L 545.60 263.54 L 545.60 263.54 L 548.35 251.62 L 553.85 263.54 L 553.85 263.54 L 567.58 263.54 L 570.33 219.20 L 573.08 245.15 L 584.07 200.71 L 589.56 200.71 L 589.56 200.71 L 595.05 216.97 L 606.04 208.28 L 606.04 208.28 L 606.04 208.28 L 606.04 208.28 L 606.04 208.28 L 606.04 208.28 L 606.04 208.28 L 606.04 208.28 L 606.04 208.28 L 614.29 208.28 L 630.77 179.99 L 641.76 183.33 L 641.76 183.33 L 650.00 183.33" /><text  class="poloto_text poloto_legend_text" x="675" y="150" >Refinance 20</text><line  class="poloto_line poloto_legend_icon poloto1stroke poloto1legend" stroke="black" x1="680" x2="730" y1="131.25" y2="131.25" /><path  class="poloto_line poloto1stroke" fill="none" stroke="black" d=" M 150.00 328.59 L 152.75 358.34 L 160.99 314.00 L 163.74 300.41 L 166.48 312.89 L 166.48 312.89 L 171.98 273.90 L 180.22 270.55 L 182.97 284.70 L 185.71 268.88 L 188.46 283.03 L 191.21 256.52 L 199.45 297.07 L 202.20 256.52 L 202.20 256.52 L 207.69 256.52 L 207.69 256.52 L 218.68 203.04 L 221.43 245.82 L 224.18 256.52 L 226.92 270.55 L 229.67 243.04 L 240.66 215.97 L 243.41 212.51 L 246.15 205.61 L 248.90 189.79 L 257.14 196.70 L 259.89 226.66 L 265.38 215.97 L 268.13 212.51 L 276.37 201.26 L 279.12 214.30 L 281.87 214.30 L 281.87 214.30 L 287.36 214.30 L 295.60 215.97 L 298.35 244.15 L 298.35 244.15 L 301.10 228.33 L 303.85 254.85 L 306.59 244.15 L 314.84 245.82 L 317.58 244.15 L 320.33 244.15 L 320.33 244.15 L 323.08 245.82 L 325.82 254.85 L 334.07 256.52 L 336.81 261.53 L 339.56 261.53 L 342.31 261.53 L 345.05 261.53 L 356.04 254.85 L 358.79 240.70 L 361.54 244.15 L 364.29 244.15 L 364.29 244.15 L 375.27 226.66 L 378.02 230.00 L 380.77 217.64 L 391.76 157.93 L 394.51 133.20 L 397.25 147.34 L 400.00 157.93 L 402.75 187.78 L 410.99 170.18 L 413.74 161.38 L 416.48 189.57 L 419.23 203.04 L 430.22 203.04 L 432.97 187.78 L 435.71 201.93 L 438.46 215.97 L 441.21 231.79 L 452.20 242.37 L 454.95 228.33 L 457.69 214.30 L 460.44 204.72 L 468.68 212.51 L 474.18 215.97 L 476.92 214.30 L 487.91 215.97 L 487.91 215.97 L 487.91 215.97 L 487.91 215.97 L 487.91 215.97 L 487.91 215.97 L 487.91 215.97 L 487.91 215.97 L 487.91 215.97 L 487.91 215.97 L 487.91 215.97 L 487.91 215.97 L 507.14 242.37 L 512.64 245.82 L 515.38 270.55 L 518.13 273.90 L 526.37 270.22 L 529.12 270.22 L 531.87 256.52 L 534.62 261.53 L 537.36 240.70 L 545.60 230.00 L 545.60 230.00 L 548.35 230.00 L 553.85 244.15 L 553.85 244.15 L 567.58 240.70 L 570.33 215.97 L 573.08 215.97 L 584.07 197.81 L 589.56 182.55 L 589.56 182.55 L 595.05 199.59 L 606.04 157.93 L 606.04 157.93 L 606.04 157.93 L 606.04 157.93 L 606.04 157.93 L 606.04 157.93 L 606.04 157.93 L 606.04 157.93 L 606.04 157.93 L 614.29 157.93 L 630.77 140.22 L 641.76 142.00 L 647.25 142.00 L 650.00 142.00" /><text  class="poloto_text poloto_legend_text" x="675" y="200" >Refinance 30</text><line  class="poloto_line poloto_legend_icon poloto2stroke poloto2legend" stroke="black" x1="680" x2="730" y1="181.25" y2="181.25" /><path  class="poloto_line poloto2stroke" fill="none" stroke="black" d=" M 150.00 325.47 L 152.75 336.06 L 160.99 319.57 L 163.74 306.65 L 166.48 309.10 L 166.48 309.10 L 171.98 282.03 L 180.22 279.69 L 182.97 293.72 L 185.71 278.46 L 188.46 292.50 L 191.21 265.54 L 199.45 278.46 L 202.20 251.39 L 204.95 251.39 L 207.69 250.17 L 210.44 215.97 L 218.68 221.98 L 221.43 237.36 L 224.18 251.39 L 226.92 238.58 L 229.67 223.21 L 240.66 211.51 L 243.41 192.46 L 246.15 189.90 L 248.90 187.23 L 257.14 192.46 L 259.89 214.30 L 265.38 211.51 L 268.13 208.95 L 276.37 195.02 L 279.12 210.17 L 281.87 195.02 L 281.87 195.02 L 287.36 195.02 L 295.60 197.59 L 298.35 221.98 L 298.35 221.98 L 301.10 210.17 L 303.85 211.51 L 306.59 212.74 L 314.84 223.21 L 317.58 211.51 L 320.33 211.51 L 320.33 211.51 L 323.08 224.43 L 325.82 225.77 L 334.07 227.00 L 336.81 238.58 L 339.56 238.58 L 342.31 241.03 L 345.05 241.03 L 356.04 236.02 L 358.79 221.98 L 361.54 224.43 L 364.29 223.21 L 364.29 223.21 L 375.27 210.17 L 378.02 210.17 L 380.77 196.25 L 391.76 139.88 L 394.51 100.00 L 397.25 124.40 L 400.00 139.88 L 402.75 153.92 L 410.99 141.11 L 413.74 139.88 L 416.48 165.50 L 419.23 168.07 L 430.22 168.07 L 432.97 152.69 L 435.71 165.50 L 438.46 179.54 L 441.21 210.17 L 452.20 211.51 L 454.95 196.25 L 457.69 169.40 L 460.44 165.50 L 468.68 191.13 L 474.18 168.07 L 476.92 166.73 L 487.91 192.46 L 487.91 192.46 L 487.91 192.46 L 487.91 192.46 L 487.91 192.46 L 487.91 192.46 L 493.41 192.46 L 493.41 192.46 L 493.41 192.46 L 493.41 192.46 L 493.41 192.46 L 493.41 192.46 L 507.14 208.95 L 512.64 211.51 L 515.38 236.02 L 518.13 252.62 L 526.37 251.39 L 529.12 251.39 L 531.87 223.21 L 534.62 227.00 L 537.36 208.95 L 545.60 223.21 L 545.60 223.21 L 548.35 212.74 L 553.85 224.43 L 553.85 224.43 L 567.58 221.98 L 570.33 197.59 L 573.08 196.25 L 584.07 164.17 L 589.56 152.69 L 589.56 152.69 L 595.05 166.73 L 606.04 151.36 L 606.04 151.36 L 606.04 151.36 L 606.04 151.36 L 606.04 151.36 L 606.04 151.36 L 606.04 151.36 L 606.04 151.36 L 614.29 151.36 L 614.29 150.02 L 630.77 133.20 L 641.76 104.90 L 641.76 104.90 L 650.00 104.90" /><text  class="poloto_labels poloto_text poloto_title" x="400" y="37.5" >lower.com purchase rates</text><text  class="poloto_labels poloto_text poloto_xname" x="400" y="481.25" >Date</text><text  class="poloto_labels poloto_text poloto_yname" transform="rotate(-90,37.5,250)" x="37.5" y="250" >Rate (%)</text><text  class="poloto_tick_labels poloto_text" dominant-baseline="middle" text-anchor="start" x="150" y="70" ></text><line  class="poloto_axis_lines" stroke="black" x1="150" x2="144" y1="387.18900854066095" y2="387.18900854066095" /><line  class="poloto_tick_line" stroke="black" x1="150" x2="650" y1="387.18900854066095" y2="387.18900854066095" /><text  class="poloto_tick_labels poloto_text" dominant-baseline="middle" text-anchor="end" x="135" y="387.18900854066095" >3.625</text><line  class="poloto_axis_lines" stroke="black" x1="150" x2="144" y1="373.26401782398807" y2="373.26401782398807" /><line  class="poloto_tick_line" stroke="black" x1="150" x2="650" y1="373.26401782398807" y2="373.26401782398807" /><text  class="poloto_tick_labels poloto_text" dominant-baseline="middle" text-anchor="end" x="135" y="373.26401782398807" >3.75</text><line  class="poloto_axis_lines" stroke="black" x1="150" x2="144" y1="359.33902710731525" y2="359.33902710731525" /><line  class="poloto_tick_line" stroke="black" x1="150" x2="650" y1="359.33902710731525" y2="359.33902710731525" /><text  class="poloto_tick_labels poloto_text" dominant-baseline="middle" text-anchor="end" x="135" y="359.33902710731525" >3.875</text><line  class="poloto_axis_lines" stroke="black" x1="150" x2="144" y1="345.41403639064237" y2="345.41403639064237" /><line  class="poloto_tick_line" stroke="black" x1="150" x2="650" y1="345.41403639064237" y2="345.41403639064237" /><text  class="poloto_tick_labels poloto_text" dominant-baseline="middle" text-anchor="end" x="135" y="345.41403639064237" >4</text><line  class="poloto_axis_lines" stroke="black" x1="150" x2="144" y1="331.4890456739695" y2="331.4890456739695" /><line  class="poloto_tick_line" stroke="black" x1="150" x2="650" y1="331.4890456739695" y2="331.4890456739695" /><text  class="poloto_tick_labels poloto_text" dominant-baseline="middle" text-anchor="end" x="135" y="331.4890456739695" >4.125</text><line  class="poloto_axis_lines" stroke="black" x1="150" x2="144" y1="317.56405495729666" y2="317.56405495729666" /><line  class="poloto_tick_line" stroke="black" x1="150" x2="650" y1="317.56405495729666" y2="317.56405495729666" /><text  class="poloto_tick_labels poloto_text" dominant-baseline="middle" text-anchor="end" x="135" y="317.56405495729666" >4.25</text><line  class="poloto_axis_lines" stroke="black" x1="150" x2="144" y1="303.6390642406238" y2="303.6390642406238" /><line  class="poloto_tick_line" stroke="black" x1="150" x2="650" y1="303.6390642406238" y2="303.6390642406238" /><text  class="poloto_tick_labels poloto_text" dominant-baseline="middle" text-anchor="end" x="135" y="303.6390642406238" >4.375</text><line  class="poloto_axis_lines" stroke="black" x1="150" x2="144" y1="289.71407352395096" y2="289.71407352395096" /><line  class="poloto_tick_line" stroke="black" x1="150" x2="650" y1="289.71407352395096" y2="289.71407352395096" /><text  class="poloto_tick_labels poloto_text" dominant-baseline="middle" text-anchor="end" x="135" y="289.71407352395096" >4.5</text><line  class="poloto_axis_lines" stroke="black" x1="150" x2="144" y1="275.7890828072781" y2="275.7890828072781" /><line  class="poloto_tick_line" stroke="black" x1="150" x2="650" y1="275.7890828072781" y2="275.7890828072781" /><text  class="poloto_tick_labels poloto_text" dominant-baseline="middle" text-anchor="end" x="135" y="275.7890828072781" >4.625</text><line  class="poloto_axis_lines" stroke="black" x1="150" x2="144" y1="261.86409209060525" y2="261.86409209060525" /><line  class="poloto_tick_line" stroke="black" x1="150" x2="650" y1="261.86409209060525" y2="261.86409209060525" /><text  class="poloto_tick_labels poloto_text" dominant-baseline="middle" text-anchor="end" x="135" y="261.86409209060525" >4.75</text><line  class="poloto_axis_lines" stroke="black" x1="150" x2="144" y1="247.93910137393243" y2="247.93910137393243" /><line  class="poloto_tick_line" stroke="black" x1="150" x2="650" y1="247.93910137393243" y2="247.93910137393243" /><text  class="poloto_tick_labels poloto_text" dominant-baseline="middle" text-anchor="end" x="135" y="247.93910137393243" >4.875</text><line  class="poloto_axis_lines" stroke="black" x1="150" x2="144" y1="234.0141106572595" y2="234.0141106572595" /><line  class="poloto_tick_line" stroke="black" x1="150" x2="650" y1="234.0141106572595" y2="234.0141106572595" /><text  class="poloto_tick_labels poloto_text" dominant-baseline="middle" text-anchor="end" x="135" y="234.0141106572595" >5</text><line  class="poloto_axis_lines" stroke="black" x1="150" x2="144" y1="220.08911994058667" y2="220.08911994058667" /><line  class="poloto_tick_line" stroke="black" x1="150" x2="650" y1="220.08911994058667" y2="220.08911994058667" /><text  class="poloto_tick_labels poloto_text" dominant-baseline="middle" text-anchor="end" x="135" y="220.08911994058667" >5.125</text><line  class="poloto_axis_lines" stroke="black" x1="150" x2="144" y1="206.16412922391385" y2="206.16412922391385" /><line  class="poloto_tick_line" stroke="black" x1="150" x2="650" y1="206.16412922391385" y2="206.16412922391385" /><text  class="poloto_tick_labels poloto_text" dominant-baseline="middle" text-anchor="end" x="135" y="206.16412922391385" >5.25</text><line  class="poloto_axis_lines" stroke="black" x1="150" x2="144" y1="192.23913850724102" y2="192.23913850724102" /><line  class="poloto_tick_line" stroke="black" x1="150" x2="650" y1="192.23913850724102" y2="192.23913850724102" /><text  class="poloto_tick_labels poloto_text" dominant-baseline="middle" text-anchor="end" x="135" y="192.23913850724102" >5.375</text><line  class="poloto_axis_lines" stroke="black" x1="150" x2="144" y1="178.3141477905681" y2="178.3141477905681" /><line  class="poloto_tick_line" stroke="black" x1="150" x2="650" y1="178.3141477905681" y2="178.3141477905681" /><text  class="poloto_tick_labels poloto_text" dominant-baseline="middle" text-anchor="end" x="135" y="178.3141477905681" >5.5</text><line  class="poloto_axis_lines" stroke="black" x1="150" x2="144" y1="164.38915707389526" y2="164.38915707389526" /><line  class="poloto_tick_line" stroke="black" x1="150" x2="650" y1="164.38915707389526" y2="164.38915707389526" /><text  class="poloto_tick_labels poloto_text" dominant-baseline="middle" text-anchor="end" x="135" y="164.38915707389526" >5.625</text><line  class="poloto_axis_lines" stroke="black" x1="150" x2="144" y1="150.46416635722244" y2="150.46416635722244" /><line  class="poloto_tick_line" stroke="black" x1="150" x2="650" y1="150.46416635722244" y2="150.46416635722244" /><text  class="poloto_tick_labels poloto_text" dominant-baseline="middle" text-anchor="end" x="135" y="150.46416635722244" >5.75</text><line  class="poloto_axis_lines" stroke="black" x1="150" x2="144" y1="136.53917564054962" y2="136.53917564054962" /><line  class="poloto_tick_line" stroke="black" x1="150" x2="650" y1="136.53917564054962" y2="136.53917564054962" /><text  class="poloto_tick_labels poloto_text" dominant-baseline="middle" text-anchor="end" x="135" y="136.53917564054962" >5.875</text><line  class="poloto_axis_lines" stroke="black" x1="150" x2="144" y1="122.61418492387668" y2="122.61418492387668" /><line  class="poloto_tick_line" stroke="black" x1="150" x2="650" y1="122.61418492387668" y2="122.61418492387668" /><text  class="poloto_tick_labels poloto_text" dominant-baseline="middle" text-anchor="end" x="135" y="122.61418492387668" >6</text><line  class="poloto_axis_lines" stroke="black" x1="150" x2="144" y1="108.68919420720385" y2="108.68919420720385" /><line  class="poloto_tick_line" stroke="black" x1="150" x2="650" y1="108.68919420720385" y2="108.68919420720385" /><text  class="poloto_tick_labels poloto_text" dominant-baseline="middle" text-anchor="end" x="135" y="108.68919420720385" >6.125</text><text  class="poloto_tick_labels poloto_text" dominant-baseline="middle" text-anchor="start" x="440.00000000000006" y="70" >¹2022-04-01 00:00:00 UTC in Months</text><line  class="poloto_axis_lines" stroke="black" x1="191.20879120878817" x2="191.20879120878817" y1="400" y2="405" /><line  class="poloto_tick_line" stroke="black" x1="191.20879120878817" x2="191.20879120878817" y1="400" y2="100" /><text  class="poloto_tick_labels poloto_text" dominant-baseline="start" text-anchor="middle" x="191.20879120878817" y="430" >2022 Apr¹</text><line  class="poloto_axis_lines" stroke="black" x1="273.6263736263718" x2="273.6263736263718" y1="400" y2="405" /><line  class="poloto_tick_line" stroke="black" x1="273.6263736263718" x2="273.6263736263718" y1="400" y2="100" /><text  class="poloto_tick_labels poloto_text" dominant-baseline="start" text-anchor="middle" x="273.6263736263718" y="430" >2022 May</text><line  class="poloto_axis_lines" stroke="black" x1="358.79120879120455" x2="358.79120879120455" y1="400" y2="405" /><line  class="poloto_tick_line" stroke="black" x1="358.79120879120455" x2="358.79120879120455" y1="400" y2="100" /><text  class="poloto_tick_labels poloto_text" dominant-baseline="start" text-anchor="middle" x="358.79120879120455" y="430" >2022 Jun</text><line  class="poloto_axis_lines" stroke="black" x1="441.20879120878817" x2="441.20879120878817" y1="400" y2="405" /><line  class="poloto_tick_line" stroke="black" x1="441.20879120878817" x2="441.20879120878817" y1="400" y2="100" /><text  class="poloto_tick_labels poloto_text" dominant-baseline="start" text-anchor="middle" x="441.20879120878817" y="430" >2022 Jul</text><line  class="poloto_axis_lines" stroke="black" x1="526.3736263736209" x2="526.3736263736209" y1="400" y2="405" /><line  class="poloto_tick_line" stroke="black" x1="526.3736263736209" x2="526.3736263736209" y1="400" y2="100" /><text  class="poloto_tick_labels poloto_text" dominant-baseline="start" text-anchor="middle" x="526.3736263736209" y="430" >2022 Aug</text><line  class="poloto_axis_lines" stroke="black" x1="611.538461538461" x2="611.538461538461" y1="400" y2="405" /><line  class="poloto_tick_line" stroke="black" x1="611.538461538461" x2="611.538461538461" y1="400" y2="100" /><text  class="poloto_tick_labels poloto_text" dominant-baseline="start" text-anchor="middle" x="611.538461538461" y="430" >2022 Sep</text><path  stroke="black" fill="none" class="poloto_axis_lines" d=" M 150 400 L 650 400" /><path  stroke="black" fill="none" class="poloto_axis_lines" d=" M 150 400 L 150 100" /></svg>