<svg class="poloto" width="800" height="500" viewBox="0 0 800 500" xmlns="http://www.w3.org/2000/svg"><style>.poloto{stroke-linecap:round;stroke-linejoin:round;font-family:Roboto,sans-serif;font-size:16px;}.poloto_background{fill:#262626;}.poloto_scatter{stroke-width:7}.poloto_tick_line{stroke:dimgray;stroke-width:0.5}.poloto_line{stroke-width:2}.poloto_text{fill: white;}.poloto_axis_lines{stroke: white;stroke-width:3;fill:none;stroke-dasharray:none}.poloto_title{font-size:24px;dominant-baseline:start;text-anchor:middle;}.poloto_xname{font-size:24px;dominant-baseline:start;text-anchor:middle;}.poloto_yname{font-size:24px;dominant-baseline:start;text-anchor:middle;}.poloto0stroke{stroke:blue;}.poloto1stroke{stroke:red;}.poloto2stroke{stroke:green;}.poloto3stroke{stroke:gold;}.poloto4stroke{stroke:aqua;}.poloto5stroke{stroke:lime;}.poloto6stroke{stroke:orange;}.poloto7stroke{stroke:chocolate;}.poloto0fill{fill:blue;}.poloto1fill{fill:red;}.poloto2fill{fill:green;}.poloto3fill{fill:gold;}.poloto4fill{fill:aqua;}.poloto5fill{fill:lime;}.poloto6fill{fill:orange;}.poloto7fill{fill:chocolate;}</style><circle  r="1e5" class="poloto_background" /><text  class="poloto_text poloto_legend_text" x="675" y="100" >30 years</text><line  class="poloto_line poloto_legend_icon poloto0stroke poloto0legend" stroke="black" x1="680" x2="730" y1="81.25" y2="81.25" /><path  class="poloto_line poloto0stroke" fill="none" stroke="black" d=" M 150.00 353.85 L 153.01 376.92 L 162.05 353.85 L 165.06 330.77 L 168.07 330.77 L 168.07 330.77 L 174.10 284.62 L 183.13 284.62 L 186.14 307.69 L 189.16 330.77 L 192.17 353.85 L 195.18 307.69 L 204.22 330.77 L 207.23 307.69 L 210.24 284.62 L 213.25 261.54 L 216.27 261.54 L 225.30 261.54 L 228.31 284.62 L 231.33 284.62 L 234.34 284.62 L 237.35 238.46 L 249.40 217.23 L 252.41 215.38 L 255.42 215.38 L 258.43 192.31 L 267.47 215.38 L 270.48 238.46 L 276.51 217.23 L 279.52 217.23 L 288.55 217.23 L 291.57 217.23 L 294.58 217.23 L 297.59 217.23 L 300.60 192.31 L 309.64 215.38 L 312.65 217.23 L 312.65 217.23 L 315.66 217.23 L 318.67 217.23 L 321.69 217.23 L 330.72 217.23 L 333.73 217.23 L 336.75 217.23 L 336.75 217.23 L 339.76 217.23 L 342.77 261.54 L 351.81 261.54 L 354.82 284.62 L 357.83 284.62 L 360.84 307.69 L 363.86 284.62 L 375.90 261.54 L 378.92 238.46 L 381.93 261.54 L 384.94 261.54 L 393.98 238.46 L 396.99 217.23 L 400.00 217.23 L 403.01 217.23 L 415.06 123.08 L 418.07 100.00 L 421.08 100.00 L 424.10 123.08 L 427.11 146.15 L 436.14 123.08 L 439.16 123.08 L 442.17 146.15 L 445.18 169.23 L 457.23 169.23 L 460.24 123.08 L 463.25 146.15 L 466.27 192.31 L 469.28 217.23 L 481.33 217.23 L 484.34 217.23 L 487.35 192.31 L 490.36 146.15 L 499.40 192.31 L 505.42 146.15 L 508.43 192.31 L 520.48 192.31 L 520.48 192.31 L 520.48 192.31 L 520.48 192.31 L 520.48 192.31 L 526.51 192.31 L 526.51 192.31 L 526.51 192.31 L 526.51 192.31 L 526.51 192.31 L 526.51 192.31 L 532.53 217.23 L 541.57 217.23 L 547.59 217.23 L 550.60 261.54 L 553.61 307.69 L 562.65 307.69 L 565.66 307.69 L 568.67 284.62 L 571.69 284.62 L 574.70 217.23 L 583.73 217.23 L 583.73 217.23 L 586.75 217.23 L 586.75 217.23 L 592.77 217.23 L 607.83 217.23 L 610.84 192.31 L 613.86 192.31 L 625.90 146.15 L 631.93 123.08 L 634.94 123.08 L 637.95 146.15 L 650.00 123.08" /><text  class="poloto_labels poloto_text poloto_title" x="400" y="37.5" >lower.com purchase rates</text><text  class="poloto_labels poloto_text poloto_xname" x="400" y="481.25" >Date</text><text  class="poloto_labels poloto_text poloto_yname" transform="rotate(-90,37.5,250)" x="37.5" y="250" >Rate (%)</text><text  class="poloto_tick_labels poloto_text" dominant-baseline="middle" text-anchor="start" x="150" y="70" ></text><line  class="poloto_axis_lines" stroke="black" x1="150" x2="144" y1="400" y2="400" /><line  class="poloto_tick_line" stroke="black" x1="150" x2="650" y1="400" y2="400" /><text  class="poloto_tick_labels poloto_text" dominant-baseline="middle" text-anchor="end" x="135" y="400" >4</text><line  class="poloto_axis_lines" stroke="black" x1="150" x2="144" y1="376.9230769230769" y2="376.9230769230769" /><line  class="poloto_tick_line" stroke="black" x1="150" x2="650" y1="376.9230769230769" y2="376.9230769230769" /><text  class="poloto_tick_labels poloto_text" dominant-baseline="middle" text-anchor="end" x="135" y="376.9230769230769" >4.125</text><line  class="poloto_axis_lines" stroke="black" x1="150" x2="144" y1="353.8461538461538" y2="353.8461538461538" /><line  class="poloto_tick_line" stroke="black" x1="150" x2="650" y1="353.8461538461538" y2="353.8461538461538" /><text  class="poloto_tick_labels poloto_text" dominant-baseline="middle" text-anchor="end" x="135" y="353.8461538461538" >4.25</text><line  class="poloto_axis_lines" stroke="black" x1="150" x2="144" y1="330.7692307692307" y2="330.7692307692307" /><line  class="poloto_tick_line" stroke="black" x1="150" x2="650" y1="330.7692307692307" y2="330.7692307692307" /><text  class="poloto_tick_labels poloto_text" dominant-baseline="middle" text-anchor="end" x="135" y="330.7692307692307" >4.375</text><line  class="poloto_axis_lines" stroke="black" x1="150" x2="144" y1="307.69230769230774" y2="307.69230769230774" /><line  class="poloto_tick_line" stroke="black" x1="150" x2="650" y1="307.69230769230774" y2="307.69230769230774" /><text  class="poloto_tick_labels poloto_text" dominant-baseline="middle" text-anchor="end" x="135" y="307.69230769230774" >4.5</text><line  class="poloto_axis_lines" stroke="black" x1="150" x2="144" y1="284.61538461538464" y2="284.61538461538464" /><line  class="poloto_tick_line" stroke="black" x1="150" x2="650" y1="284.61538461538464" y2="284.61538461538464" /><text  class="poloto_tick_labels poloto_text" dominant-baseline="middle" text-anchor="end" x="135" y="284.61538461538464" >4.625</text><line  class="poloto_axis_lines" stroke="black" x1="150" x2="144" y1="261.53846153846155" y2="261.53846153846155" /><line  class="poloto_tick_line" stroke="black" x1="150" x2="650" y1="261.53846153846155" y2="261.53846153846155" /><text  class="poloto_tick_labels poloto_text" dominant-baseline="middle" text-anchor="end" x="135" y="261.53846153846155" >4.75</text><line  class="poloto_axis_lines" stroke="black" x1="150" x2="144" y1="238.46153846153845" y2="238.46153846153845" /><line  class="poloto_tick_line" stroke="black" x1="150" x2="650" y1="238.46153846153845" y2="238.46153846153845" /><text  class="poloto_tick_labels poloto_text" dominant-baseline="middle" text-anchor="end" x="135" y="238.46153846153845" >4.875</text><line  class="poloto_axis_lines" stroke="black" x1="150" x2="144" y1="215.38461538461536" y2="215.38461538461536" /><line  class="poloto_tick_line" stroke="black" x1="150" x2="650" y1="215.38461538461536" y2="215.38461538461536" /><text  class="poloto_tick_labels poloto_text" dominant-baseline="middle" text-anchor="end" x="135" y="215.38461538461536" >5</text><line  class="poloto_axis_lines" stroke="black" x1="150" x2="144" y1="192.30769230769226" y2="192.30769230769226" /><line  class="poloto_tick_line" stroke="black" x1="150" x2="650" y1="192.30769230769226" y2="192.30769230769226" /><text  class="poloto_tick_labels poloto_text" dominant-baseline="middle" text-anchor="end" x="135" y="192.30769230769226" >5.125</text><line  class="poloto_axis_lines" stroke="black" x1="150" x2="144" y1="169.23076923076928" y2="169.23076923076928" /><line  class="poloto_tick_line" stroke="black" x1="150" x2="650" y1="169.23076923076928" y2="169.23076923076928" /><text  class="poloto_tick_labels poloto_text" dominant-baseline="middle" text-anchor="end" x="135" y="169.23076923076928" >5.25</text><line  class="poloto_axis_lines" stroke="black" x1="150" x2="144" y1="146.1538461538462" y2="146.1538461538462" /><line  class="poloto_tick_line" stroke="black" x1="150" x2="650" y1="146.1538461538462" y2="146.1538461538462" /><text  class="poloto_tick_labels poloto_text" dominant-baseline="middle" text-anchor="end" x="135" y="146.1538461538462" >5.375</text><line  class="poloto_axis_lines" stroke="black" x1="150" x2="144" y1="123.0769230769231" y2="123.0769230769231" /><line  class="poloto_tick_line" stroke="black" x1="150" x2="650" y1="123.0769230769231" y2="123.0769230769231" /><text  class="poloto_tick_labels poloto_text" dominant-baseline="middle" text-anchor="end" x="135" y="123.0769230769231" >5.5</text><line  class="poloto_axis_lines" stroke="black" x1="150" x2="144" y1="100.00000000000011" y2="100.00000000000011" /><line  class="poloto_tick_line" stroke="black" x1="150" x2="650" y1="100.00000000000011" y2="100.00000000000011" /><text  class="poloto_tick_labels poloto_text" dominant-baseline="middle" text-anchor="end" x="135" y="100.00000000000011" >5.625</text><text  class="poloto_tick_labels poloto_text" dominant-baseline="middle" text-anchor="start" x="440.00000000000006" y="70" >¹2022-04-01 00:00:00 UTC in Months</text><line  class="poloto_axis_lines" stroke="black" x1="195.18072289157135" x2="195.18072289157135" y1="400" y2="405" /><line  class="poloto_tick_line" stroke="black" x1="195.18072289157135" x2="195.18072289157135" y1="400" y2="100.00000000000011" /><text  class="poloto_tick_labels poloto_text" dominant-baseline="start" text-anchor="middle" x="195.18072289157135" y="430" >2022 Apr¹</text><line  class="poloto_axis_lines" stroke="black" x1="285.5421686746995" x2="285.5421686746995" y1="400" y2="405" /><line  class="poloto_tick_line" stroke="black" x1="285.5421686746995" x2="285.5421686746995" y1="400" y2="100.00000000000011" /><text  class="poloto_tick_labels poloto_text" dominant-baseline="start" text-anchor="middle" x="285.5421686746995" y="430" >2022 May</text><line  class="poloto_axis_lines" stroke="black" x1="378.9156626506083" x2="378.9156626506083" y1="400" y2="405" /><line  class="poloto_tick_line" stroke="black" x1="378.9156626506083" x2="378.9156626506083" y1="400" y2="100.00000000000011" /><text  class="poloto_tick_labels poloto_text" dominant-baseline="start" text-anchor="middle" x="378.9156626506083" y="430" >2022 Jun</text><line  class="poloto_axis_lines" stroke="black" x1="469.27710843373643" x2="469.27710843373643" y1="400" y2="405" /><line  class="poloto_tick_line" stroke="black" x1="469.27710843373643" x2="469.27710843373643" y1="400" y2="100.00000000000011" /><text  class="poloto_tick_labels poloto_text" dominant-baseline="start" text-anchor="middle" x="469.27710843373643" y="430" >2022 Jul</text><line  class="poloto_axis_lines" stroke="black" x1="562.6506024096379" x2="562.6506024096379" y1="400" y2="405" /><line  class="poloto_tick_line" stroke="black" x1="562.6506024096379" x2="562.6506024096379" y1="400" y2="100.00000000000011" /><text  class="poloto_tick_labels poloto_text" dominant-baseline="start" text-anchor="middle" x="562.6506024096379" y="430" >2022 Aug</text><path  stroke="black" fill="none" class="poloto_axis_lines" d=" M 150 400 L 650 400" /><path  stroke="black" fill="none" class="poloto_axis_lines" d=" M 150 400 L 150 100.00000000000011" /></svg>