<svg class="poloto" width="800" height="500" viewBox="0 0 800 500" xmlns="http://www.w3.org/2000/svg"><style>.poloto{stroke-linecap:round;stroke-linejoin:round;font-family:Roboto,sans-serif;font-size:16px;}.poloto_background{fill:#262626;}.poloto_scatter{stroke-width:7}.poloto_tick_line{stroke:dimgray;stroke-width:0.5}.poloto_line{stroke-width:2}.poloto_text{fill: white;}.poloto_axis_lines{stroke: white;stroke-width:3;fill:none;stroke-dasharray:none}.poloto_title{font-size:24px;dominant-baseline:start;text-anchor:middle;}.poloto_xname{font-size:24px;dominant-baseline:start;text-anchor:middle;}.poloto_yname{font-size:24px;dominant-baseline:start;text-anchor:middle;}.poloto0stroke{stroke:blue;}.poloto1stroke{stroke:red;}.poloto2stroke{stroke:green;}.poloto3stroke{stroke:gold;}.poloto4stroke{stroke:aqua;}.poloto5stroke{stroke:lime;}.poloto6stroke{stroke:orange;}.poloto7stroke{stroke:chocolate;}.poloto0fill{fill:blue;}.poloto1fill{fill:red;}.poloto2fill{fill:green;}.poloto3fill{fill:gold;}.poloto4fill{fill:aqua;}.poloto5fill{fill:lime;}.poloto6fill{fill:orange;}.poloto7fill{fill:chocolate;}</style><circle  r="1e5" class="poloto_background" /><text  class="poloto_text poloto_legend_text" x="675" y="100" >Refinance 15</text><line  class="poloto_line poloto_legend_icon poloto0stroke poloto0legend" stroke="black" x1="680" x2="730" y1="81.25" y2="81.25" /><path  class="poloto_line poloto0stroke" fill="none" stroke="black" d=" M 150.00 393.13 L 151.43 400.00 L 155.71 390.27 L 157.14 381.94 L 158.57 390.27 L 158.57 390.27 L 161.43 362.48 L 165.71 361.01 L 167.14 370.74 L 168.57 349.74 L 170.00 351.21 L 171.43 346.81 L 175.71 348.28 L 177.14 342.41 L 177.14 342.41 L 180.00 342.95 L 181.43 321.95 L 185.71 331.06 L 187.14 333.99 L 188.57 333.99 L 190.00 333.22 L 191.43 328.74 L 197.14 289.53 L 198.57 306.97 L 200.00 293.46 L 201.43 288.21 L 201.43 288.21 L 207.14 308.52 L 210.00 312.22 L 211.43 303.96 L 215.71 294.16 L 217.14 313.69 L 218.57 303.96 L 218.57 303.96 L 221.43 302.42 L 225.71 305.43 L 227.14 315.16 L 227.14 315.16 L 228.57 306.90 L 230.00 316.70 L 231.43 302.42 L 235.71 331.76 L 237.14 331.06 L 238.57 315.16 L 238.57 315.16 L 240.00 321.95 L 241.43 324.96 L 245.71 324.96 L 247.14 335.46 L 248.57 335.46 L 250.00 335.46 L 251.43 335.46 L 257.14 324.96 L 258.57 321.95 L 260.00 323.42 L 261.43 323.42 L 261.43 323.42 L 267.14 313.69 L 268.57 313.69 L 270.00 305.43 L 275.71 291.92 L 277.14 264.05 L 278.57 267.14 L 280.00 267.14 L 281.43 286.67 L 285.71 267.14 L 287.14 267.14 L 288.57 285.13 L 290.00 288.21 L 295.71 288.21 L 297.14 286.67 L 298.57 291.22 L 300.00 295.70 L 301.43 305.43 L 307.14 312.22 L 308.57 303.96 L 310.00 297.17 L 311.43 294.16 L 315.71 295.70 L 318.57 295.70 L 320.00 294.16 L 325.71 292.69 L 325.71 292.69 L 325.71 292.69 L 325.71 292.69 L 325.71 292.69 L 325.71 292.69 L 328.57 292.69 L 328.57 292.69 L 328.57 292.69 L 328.57 292.69 L 328.57 292.69 L 328.57 292.69 L 335.71 303.96 L 338.57 306.90 L 340.00 332.53 L 341.43 335.46 L 345.71 335.46 L 347.14 333.99 L 348.57 313.69 L 350.00 308.44 L 351.43 295.70 L 355.71 305.43 L 355.71 305.43 L 357.14 297.17 L 360.00 305.43 L 360.00 305.43 L 367.14 305.43 L 368.57 274.70 L 370.00 292.69 L 375.71 261.89 L 378.57 261.89 L 378.57 261.89 L 381.43 273.16 L 387.14 267.14 L 387.14 267.14 L 387.14 267.14 L 387.14 267.14 L 387.14 267.14 L 387.14 267.14 L 387.14 267.14 L 387.14 267.14 L 387.14 267.14 L 391.43 267.14 L 400.00 247.53 L 405.71 249.85 L 405.71 249.85 L 410.00 249.85 L 415.71 249.85 L 417.14 249.85 L 417.14 249.85 L 417.14 249.85 L 417.14 249.85 L 417.14 249.85 L 435.71 249.85 L 437.14 249.85 L 445.71 162.92 L 447.14 154.66 L 448.57 154.66 L 500.00 180.60 L 505.71 180.60 L 507.14 180.60 L 508.57 195.50 L 511.43 203.68 L 511.43 203.68 L 517.14 203.68 L 518.57 203.68 L 520.00 203.68 L 521.43 203.68 L 525.71 203.68 L 527.14 203.68 L 530.00 203.68 L 531.43 203.68 L 535.71 203.68 L 537.14 203.68 L 537.14 203.68 L 541.43 203.68 L 545.71 203.68 L 547.14 203.68 L 548.57 203.68 L 550.00 203.68 L 551.43 203.68 L 557.14 226.15 L 558.57 200.21 L 560.00 180.60 L 561.43 190.40 L 565.71 190.40 L 567.14 190.40 L 567.14 190.40 L 570.00 211.48 L 571.43 211.48 L 575.71 211.48 L 577.14 211.48 L 578.57 211.48 L 580.00 211.48 L 581.43 211.48 L 581.43 211.48 L 581.43 211.48 L 581.43 211.48 L 588.57 211.48 L 591.43 211.48 L 595.71 211.48 L 597.14 211.48 L 600.00 211.48 L 601.43 211.48 L 607.14 211.48 L 608.57 211.48 L 610.00 211.48 L 611.43 239.27 L 615.71 245.45 L 617.14 209.93 L 618.57 221.28 L 620.00 219.74 L 621.43 201.75 L 625.71 161.07 L 627.14 161.07 L 628.57 161.07 L 630.00 162.61 L 631.43 170.79 L 635.71 162.61 L 637.14 162.61 L 638.57 151.26 L 640.00 161.07 L 641.43 141.46 L 647.14 151.26 L 648.57 152.80 L 650.00 143.08" /><text  class="poloto_text poloto_legend_text" x="675" y="150" >Refinance 20</text><line  class="poloto_line poloto_legend_icon poloto1stroke poloto1legend" stroke="black" x1="680" x2="730" y1="131.25" y2="131.25" /><path  class="poloto_line poloto1stroke" fill="none" stroke="black" d=" M 150.00 350.51 L 151.43 371.13 L 155.71 340.40 L 157.14 330.98 L 158.57 339.63 L 158.57 339.63 L 161.43 312.61 L 165.71 310.29 L 167.14 320.10 L 168.57 309.14 L 170.00 318.94 L 171.43 300.57 L 175.71 328.67 L 177.14 300.57 L 177.14 300.57 L 180.00 300.57 L 180.00 300.57 L 185.71 263.51 L 187.14 293.15 L 188.57 300.57 L 190.00 310.29 L 191.43 291.22 L 197.14 272.47 L 198.57 270.07 L 200.00 265.29 L 201.43 254.32 L 205.71 259.11 L 207.14 279.88 L 210.00 272.47 L 211.43 270.07 L 215.71 262.27 L 217.14 271.31 L 218.57 271.31 L 218.57 271.31 L 221.43 271.31 L 225.71 272.47 L 227.14 292.00 L 227.14 292.00 L 228.57 281.03 L 230.00 299.41 L 231.43 292.00 L 235.71 293.15 L 237.14 292.00 L 238.57 292.00 L 238.57 292.00 L 240.00 293.15 L 241.43 299.41 L 245.71 300.57 L 247.14 304.04 L 248.57 304.04 L 250.00 304.04 L 251.43 304.04 L 257.14 299.41 L 258.57 289.60 L 260.00 292.00 L 261.43 292.00 L 261.43 292.00 L 267.14 279.88 L 268.57 282.19 L 270.00 273.62 L 275.71 232.24 L 277.14 215.11 L 278.57 224.91 L 280.00 232.24 L 281.43 252.93 L 285.71 240.74 L 287.14 234.64 L 288.57 254.17 L 290.00 263.51 L 295.71 263.51 L 297.14 252.93 L 298.57 262.74 L 300.00 272.47 L 301.43 283.43 L 307.14 290.76 L 308.57 281.03 L 310.00 271.31 L 311.43 264.67 L 315.71 270.07 L 318.57 272.47 L 320.00 271.31 L 325.71 272.47 L 325.71 272.47 L 325.71 272.47 L 325.71 272.47 L 325.71 272.47 L 325.71 272.47 L 325.71 272.47 L 325.71 272.47 L 325.71 272.47 L 325.71 272.47 L 325.71 272.47 L 325.71 272.47 L 335.71 290.76 L 338.57 293.15 L 340.00 310.29 L 341.43 312.61 L 345.71 310.06 L 347.14 310.06 L 348.57 300.57 L 350.00 304.04 L 351.43 289.60 L 355.71 282.19 L 355.71 282.19 L 357.14 282.19 L 360.00 292.00 L 360.00 292.00 L 367.14 289.60 L 368.57 272.47 L 370.00 272.47 L 375.71 259.88 L 378.57 249.31 L 378.57 249.31 L 381.43 261.12 L 387.14 232.24 L 387.14 232.24 L 387.14 232.24 L 387.14 232.24 L 387.14 232.24 L 387.14 232.24 L 387.14 232.24 L 387.14 232.24 L 387.14 232.24 L 391.43 232.24 L 400.00 219.97 L 405.71 221.20 L 408.57 221.20 L 410.00 221.20 L 410.00 221.20 L 417.14 221.20 L 418.57 221.20 L 418.57 221.20 L 418.57 221.20 L 418.57 221.20 L 435.71 221.20 L 437.14 221.20 L 445.71 143.85 L 447.14 129.41 L 447.14 129.41 L 502.86 177.12 L 505.71 177.12 L 507.14 177.12 L 510.00 194.26 L 511.43 195.50 L 511.43 195.50 L 517.14 195.50 L 518.57 195.50 L 520.00 195.50 L 521.43 195.50 L 525.71 195.50 L 527.14 195.50 L 530.00 195.50 L 531.43 195.50 L 535.71 195.50 L 537.14 195.50 L 537.14 195.50 L 541.43 195.50 L 545.71 195.50 L 547.14 195.50 L 548.57 195.50 L 550.00 195.50 L 551.43 195.50 L 557.14 178.05 L 558.57 168.55 L 560.00 167.32 L 561.43 169.87 L 565.71 169.87 L 567.14 169.87 L 567.14 169.87 L 570.00 188.16 L 571.43 188.16 L 575.71 188.16 L 577.14 188.16 L 578.57 188.16 L 580.00 188.16 L 581.43 188.16 L 581.43 188.16 L 587.14 188.16 L 587.14 188.16 L 588.57 188.16 L 591.43 188.16 L 595.71 188.16 L 597.14 188.16 L 600.00 188.16 L 601.43 188.16 L 607.14 188.16 L 608.57 188.16 L 610.00 188.16 L 611.43 209.01 L 615.71 207.77 L 617.14 178.36 L 618.57 179.59 L 618.57 179.59 L 621.43 178.36 L 625.71 158.75 L 627.14 158.75 L 628.57 150.26 L 630.00 140.45 L 631.43 149.02 L 635.71 140.45 L 637.14 130.65 L 638.57 140.45 L 640.00 150.26 L 641.43 139.22 L 647.14 140.45 L 648.57 129.41 L 650.00 100.00" /><text  class="poloto_text poloto_legend_text" x="675" y="200" >Refinance 30</text><line  class="poloto_line poloto_legend_icon poloto2stroke poloto2legend" stroke="black" x1="680" x2="730" y1="181.25" y2="181.25" /><path  class="poloto_line poloto2stroke" fill="none" stroke="black" d=" M 150.00 348.35 L 151.43 355.69 L 155.71 344.26 L 157.14 335.31 L 158.57 337.00 L 158.57 337.00 L 161.43 318.24 L 165.71 316.62 L 167.14 326.35 L 168.57 315.77 L 170.00 325.50 L 171.43 306.82 L 175.71 315.77 L 177.14 297.01 L 178.57 297.01 L 180.00 296.17 L 181.43 272.47 L 185.71 276.63 L 187.14 287.29 L 188.57 297.01 L 190.00 288.14 L 191.43 277.48 L 197.14 269.38 L 198.57 256.18 L 200.00 254.40 L 201.43 252.55 L 205.71 256.18 L 207.14 271.31 L 210.00 269.38 L 211.43 267.60 L 215.71 257.95 L 217.14 268.45 L 218.57 257.95 L 218.57 257.95 L 221.43 257.95 L 225.71 259.73 L 227.14 276.63 L 227.14 276.63 L 228.57 268.45 L 230.00 269.38 L 231.43 270.23 L 235.71 277.48 L 237.14 269.38 L 238.57 269.38 L 238.57 269.38 L 240.00 278.33 L 241.43 279.26 L 245.71 280.11 L 247.14 288.14 L 248.57 288.14 L 250.00 289.84 L 251.43 289.84 L 257.14 286.36 L 258.57 276.63 L 260.00 278.33 L 261.43 277.48 L 261.43 277.48 L 267.14 268.45 L 268.57 268.45 L 270.00 258.80 L 275.71 219.74 L 277.14 192.10 L 278.57 209.01 L 280.00 219.74 L 281.43 229.46 L 285.71 220.59 L 287.14 219.74 L 288.57 237.49 L 290.00 239.27 L 295.71 239.27 L 297.14 228.62 L 298.57 237.49 L 300.00 247.22 L 301.43 268.45 L 307.14 269.38 L 308.57 258.80 L 310.00 240.20 L 311.43 237.49 L 315.71 255.25 L 318.57 239.27 L 320.00 238.34 L 325.71 256.18 L 325.71 256.18 L 325.71 256.18 L 325.71 256.18 L 325.71 256.18 L 325.71 256.18 L 328.57 256.18 L 328.57 256.18 L 328.57 256.18 L 328.57 256.18 L 328.57 256.18 L 328.57 256.18 L 335.71 267.60 L 338.57 269.38 L 340.00 286.36 L 341.43 297.86 L 345.71 297.01 L 347.14 297.01 L 348.57 277.48 L 350.00 280.11 L 351.43 267.60 L 355.71 277.48 L 355.71 277.48 L 357.14 270.23 L 360.00 278.33 L 360.00 278.33 L 367.14 276.63 L 368.57 259.73 L 370.00 258.80 L 375.71 236.57 L 378.57 228.62 L 378.57 228.62 L 381.43 238.34 L 387.14 227.69 L 387.14 227.69 L 387.14 227.69 L 387.14 227.69 L 387.14 227.69 L 387.14 227.69 L 387.14 227.69 L 387.14 227.69 L 391.43 227.69 L 391.43 226.76 L 400.00 215.11 L 405.71 195.50 L 405.71 195.50 L 410.00 195.50 L 410.00 195.50 L 417.14 195.50 L 418.57 195.50 L 418.57 195.50 L 418.57 195.50 L 418.57 195.50 L 435.71 195.50 L 437.14 195.50 L 445.71 151.34 L 447.14 126.71 L 447.14 126.71 L 502.86 169.02 L 505.71 169.02 L 507.14 169.02 L 508.57 172.95 L 511.43 181.91 L 511.43 181.91 L 517.14 181.91 L 518.57 181.91 L 520.00 181.91 L 521.43 181.91 L 525.71 181.91 L 527.14 181.91 L 530.00 181.91 L 531.43 181.91 L 535.71 181.91 L 537.14 181.91 L 537.14 181.91 L 541.43 181.91 L 545.71 181.91 L 547.14 181.91 L 548.57 181.91 L 550.00 181.91 L 551.43 181.91 L 557.14 167.01 L 558.57 174.88 L 560.00 156.20 L 561.43 174.88 L 565.71 174.88 L 567.14 174.88 L 567.14 174.88 L 570.00 174.88 L 571.43 174.88 L 575.71 174.88 L 577.14 174.88 L 578.57 174.88 L 580.00 174.88 L 581.43 174.88 L 581.43 174.88 L 587.14 174.88 L 587.14 174.88 L 588.57 174.88 L 591.43 174.88 L 595.71 174.88 L 597.14 174.88 L 600.00 174.88 L 601.43 174.88 L 607.14 174.88 L 608.57 174.88 L 610.00 174.88 L 611.43 224.91 L 615.71 215.11 L 617.14 175.89 L 618.57 205.30 L 620.00 175.89 L 621.43 166.01 L 625.71 156.20 L 627.14 156.20 L 628.57 147.32 L 630.00 137.52 L 631.43 146.40 L 635.71 146.40 L 637.14 135.59 L 638.57 127.71 L 640.00 137.52 L 641.43 128.72 L 647.14 127.71 L 648.57 116.91 L 650.00 116.91" /><text  class="poloto_labels poloto_text poloto_title" x="400" y="37.5" >lower.com purchase rates</text><text  class="poloto_labels poloto_text poloto_xname" x="400" y="481.25" >Date</text><text  class="poloto_labels poloto_text poloto_yname" transform="rotate(-90,37.5,250)" x="37.5" y="250" >Rate (%)</text><text  class="poloto_tick_labels poloto_text" dominant-baseline="middle" text-anchor="start" x="150" y="70" ></text><line  class="poloto_axis_lines" stroke="black" x1="150" x2="144" y1="391.12197632527017" y2="391.12197632527017" /><line  class="poloto_tick_line" stroke="black" x1="150" x2="650" y1="391.12197632527017" y2="391.12197632527017" /><text  class="poloto_tick_labels poloto_text" dominant-baseline="middle" text-anchor="end" x="135" y="391.12197632527017" >3.625</text><line  class="poloto_axis_lines" stroke="black" x1="150" x2="144" y1="381.4719505918682" y2="381.4719505918682" /><line  class="poloto_tick_line" stroke="black" x1="150" x2="650" y1="381.4719505918682" y2="381.4719505918682" /><text  class="poloto_tick_labels poloto_text" dominant-baseline="middle" text-anchor="end" x="135" y="381.4719505918682" >3.75</text><line  class="poloto_axis_lines" stroke="black" x1="150" x2="144" y1="371.8219248584663" y2="371.8219248584663" /><line  class="poloto_tick_line" stroke="black" x1="150" x2="650" y1="371.8219248584663" y2="371.8219248584663" /><text  class="poloto_tick_labels poloto_text" dominant-baseline="middle" text-anchor="end" x="135" y="371.8219248584663" >3.875</text><line  class="poloto_axis_lines" stroke="black" x1="150" x2="144" y1="362.17189912506433" y2="362.17189912506433" /><line  class="poloto_tick_line" stroke="black" x1="150" x2="650" y1="362.17189912506433" y2="362.17189912506433" /><text  class="poloto_tick_labels poloto_text" dominant-baseline="middle" text-anchor="end" x="135" y="362.17189912506433" >4</text><line  class="poloto_axis_lines" stroke="black" x1="150" x2="144" y1="352.5218733916624" y2="352.5218733916624" /><line  class="poloto_tick_line" stroke="black" x1="150" x2="650" y1="352.5218733916624" y2="352.5218733916624" /><text  class="poloto_tick_labels poloto_text" dominant-baseline="middle" text-anchor="end" x="135" y="352.5218733916624" >4.125</text><line  class="poloto_axis_lines" stroke="black" x1="150" x2="144" y1="342.87184765826044" y2="342.87184765826044" /><line  class="poloto_tick_line" stroke="black" x1="150" x2="650" y1="342.87184765826044" y2="342.87184765826044" /><text  class="poloto_tick_labels poloto_text" dominant-baseline="middle" text-anchor="end" x="135" y="342.87184765826044" >4.25</text><line  class="poloto_axis_lines" stroke="black" x1="150" x2="144" y1="333.2218219248585" y2="333.2218219248585" /><line  class="poloto_tick_line" stroke="black" x1="150" x2="650" y1="333.2218219248585" y2="333.2218219248585" /><text  class="poloto_tick_labels poloto_text" dominant-baseline="middle" text-anchor="end" x="135" y="333.2218219248585" >4.375</text><line  class="poloto_axis_lines" stroke="black" x1="150" x2="144" y1="323.5717961914565" y2="323.5717961914565" /><line  class="poloto_tick_line" stroke="black" x1="150" x2="650" y1="323.5717961914565" y2="323.5717961914565" /><text  class="poloto_tick_labels poloto_text" dominant-baseline="middle" text-anchor="end" x="135" y="323.5717961914565" >4.5</text><line  class="poloto_axis_lines" stroke="black" x1="150" x2="144" y1="313.92177045805454" y2="313.92177045805454" /><line  class="poloto_tick_line" stroke="black" x1="150" x2="650" y1="313.92177045805454" y2="313.92177045805454" /><text  class="poloto_tick_labels poloto_text" dominant-baseline="middle" text-anchor="end" x="135" y="313.92177045805454" >4.625</text><line  class="poloto_axis_lines" stroke="black" x1="150" x2="144" y1="304.2717447246526" y2="304.2717447246526" /><line  class="poloto_tick_line" stroke="black" x1="150" x2="650" y1="304.2717447246526" y2="304.2717447246526" /><text  class="poloto_tick_labels poloto_text" dominant-baseline="middle" text-anchor="end" x="135" y="304.2717447246526" >4.75</text><line  class="poloto_axis_lines" stroke="black" x1="150" x2="144" y1="294.62171899125065" y2="294.62171899125065" /><line  class="poloto_tick_line" stroke="black" x1="150" x2="650" y1="294.62171899125065" y2="294.62171899125065" /><text  class="poloto_tick_labels poloto_text" dominant-baseline="middle" text-anchor="end" x="135" y="294.62171899125065" >4.875</text><line  class="poloto_axis_lines" stroke="black" x1="150" x2="144" y1="284.9716932578487" y2="284.9716932578487" /><line  class="poloto_tick_line" stroke="black" x1="150" x2="650" y1="284.9716932578487" y2="284.9716932578487" /><text  class="poloto_tick_labels poloto_text" dominant-baseline="middle" text-anchor="end" x="135" y="284.9716932578487" >5</text><line  class="poloto_axis_lines" stroke="black" x1="150" x2="144" y1="275.32166752444675" y2="275.32166752444675" /><line  class="poloto_tick_line" stroke="black" x1="150" x2="650" y1="275.32166752444675" y2="275.32166752444675" /><text  class="poloto_tick_labels poloto_text" dominant-baseline="middle" text-anchor="end" x="135" y="275.32166752444675" >5.125</text><line  class="poloto_axis_lines" stroke="black" x1="150" x2="144" y1="265.67164179104475" y2="265.67164179104475" /><line  class="poloto_tick_line" stroke="black" x1="150" x2="650" y1="265.67164179104475" y2="265.67164179104475" /><text  class="poloto_tick_labels poloto_text" dominant-baseline="middle" text-anchor="end" x="135" y="265.67164179104475" >5.25</text><line  class="poloto_axis_lines" stroke="black" x1="150" x2="144" y1="256.0216160576428" y2="256.0216160576428" /><line  class="poloto_tick_line" stroke="black" x1="150" x2="650" y1="256.0216160576428" y2="256.0216160576428" /><text  class="poloto_tick_labels poloto_text" dominant-baseline="middle" text-anchor="end" x="135" y="256.0216160576428" >5.375</text><line  class="poloto_axis_lines" stroke="black" x1="150" x2="144" y1="246.37159032424086" y2="246.37159032424086" /><line  class="poloto_tick_line" stroke="black" x1="150" x2="650" y1="246.37159032424086" y2="246.37159032424086" /><text  class="poloto_tick_labels poloto_text" dominant-baseline="middle" text-anchor="end" x="135" y="246.37159032424086" >5.5</text><line  class="poloto_axis_lines" stroke="black" x1="150" x2="144" y1="236.7215645908389" y2="236.7215645908389" /><line  class="poloto_tick_line" stroke="black" x1="150" x2="650" y1="236.7215645908389" y2="236.7215645908389" /><text  class="poloto_tick_labels poloto_text" dominant-baseline="middle" text-anchor="end" x="135" y="236.7215645908389" >5.625</text><line  class="poloto_axis_lines" stroke="black" x1="150" x2="144" y1="227.07153885743696" y2="227.07153885743696" /><line  class="poloto_tick_line" stroke="black" x1="150" x2="650" y1="227.07153885743696" y2="227.07153885743696" /><text  class="poloto_tick_labels poloto_text" dominant-baseline="middle" text-anchor="end" x="135" y="227.07153885743696" >5.75</text><line  class="poloto_axis_lines" stroke="black" x1="150" x2="144" y1="217.42151312403502" y2="217.42151312403502" /><line  class="poloto_tick_line" stroke="black" x1="150" x2="650" y1="217.42151312403502" y2="217.42151312403502" /><text  class="poloto_tick_labels poloto_text" dominant-baseline="middle" text-anchor="end" x="135" y="217.42151312403502" >5.875</text><line  class="poloto_axis_lines" stroke="black" x1="150" x2="144" y1="207.771487390633" y2="207.771487390633" /><line  class="poloto_tick_line" stroke="black" x1="150" x2="650" y1="207.771487390633" y2="207.771487390633" /><text  class="poloto_tick_labels poloto_text" dominant-baseline="middle" text-anchor="end" x="135" y="207.771487390633" >6</text><line  class="poloto_axis_lines" stroke="black" x1="150" x2="144" y1="198.12146165723107" y2="198.12146165723107" /><line  class="poloto_tick_line" stroke="black" x1="150" x2="650" y1="198.12146165723107" y2="198.12146165723107" /><text  class="poloto_tick_labels poloto_text" dominant-baseline="middle" text-anchor="end" x="135" y="198.12146165723107" >6.125</text><line  class="poloto_axis_lines" stroke="black" x1="150" x2="144" y1="188.47143592382912" y2="188.47143592382912" /><line  class="poloto_tick_line" stroke="black" x1="150" x2="650" y1="188.47143592382912" y2="188.47143592382912" /><text  class="poloto_tick_labels poloto_text" dominant-baseline="middle" text-anchor="end" x="135" y="188.47143592382912" >6.25</text><line  class="poloto_axis_lines" stroke="black" x1="150" x2="144" y1="178.82141019042717" y2="178.82141019042717" /><line  class="poloto_tick_line" stroke="black" x1="150" x2="650" y1="178.82141019042717" y2="178.82141019042717" /><text  class="poloto_tick_labels poloto_text" dominant-baseline="middle" text-anchor="end" x="135" y="178.82141019042717" >6.375</text><line  class="poloto_axis_lines" stroke="black" x1="150" x2="144" y1="169.17138445702523" y2="169.17138445702523" /><line  class="poloto_tick_line" stroke="black" x1="150" x2="650" y1="169.17138445702523" y2="169.17138445702523" /><text  class="poloto_tick_labels poloto_text" dominant-baseline="middle" text-anchor="end" x="135" y="169.17138445702523" >6.5</text><line  class="poloto_axis_lines" stroke="black" x1="150" x2="144" y1="159.52135872362328" y2="159.52135872362328" /><line  class="poloto_tick_line" stroke="black" x1="150" x2="650" y1="159.52135872362328" y2="159.52135872362328" /><text  class="poloto_tick_labels poloto_text" dominant-baseline="middle" text-anchor="end" x="135" y="159.52135872362328" >6.625</text><line  class="poloto_axis_lines" stroke="black" x1="150" x2="144" y1="149.87133299022133" y2="149.87133299022133" /><line  class="poloto_tick_line" stroke="black" x1="150" x2="650" y1="149.87133299022133" y2="149.87133299022133" /><text  class="poloto_tick_labels poloto_text" dominant-baseline="middle" text-anchor="end" x="135" y="149.87133299022133" >6.75</text><line  class="poloto_axis_lines" stroke="black" x1="150" x2="144" y1="140.22130725681933" y2="140.22130725681933" /><line  class="poloto_tick_line" stroke="black" x1="150" x2="650" y1="140.22130725681933" y2="140.22130725681933" /><text  class="poloto_tick_labels poloto_text" dominant-baseline="middle" text-anchor="end" x="135" y="140.22130725681933" >6.875</text><line  class="poloto_axis_lines" stroke="black" x1="150" x2="144" y1="130.57128152341744" y2="130.57128152341744" /><line  class="poloto_tick_line" stroke="black" x1="150" x2="650" y1="130.57128152341744" y2="130.57128152341744" /><text  class="poloto_tick_labels poloto_text" dominant-baseline="middle" text-anchor="end" x="135" y="130.57128152341744" >7</text><line  class="poloto_axis_lines" stroke="black" x1="150" x2="144" y1="120.92125579001544" y2="120.92125579001544" /><line  class="poloto_tick_line" stroke="black" x1="150" x2="650" y1="120.92125579001544" y2="120.92125579001544" /><text  class="poloto_tick_labels poloto_text" dominant-baseline="middle" text-anchor="end" x="135" y="120.92125579001544" >7.125</text><line  class="poloto_axis_lines" stroke="black" x1="150" x2="144" y1="111.27123005661343" y2="111.27123005661343" /><line  class="poloto_tick_line" stroke="black" x1="150" x2="650" y1="111.27123005661343" y2="111.27123005661343" /><text  class="poloto_tick_labels poloto_text" dominant-baseline="middle" text-anchor="end" x="135" y="111.27123005661343" >7.25</text><line  class="poloto_axis_lines" stroke="black" x1="150" x2="144" y1="101.62120432321154" y2="101.62120432321154" /><line  class="poloto_tick_line" stroke="black" x1="150" x2="650" y1="101.62120432321154" y2="101.62120432321154" /><text  class="poloto_tick_labels poloto_text" dominant-baseline="middle" text-anchor="end" x="135" y="101.62120432321154" >7.375</text><text  class="poloto_tick_labels poloto_text" dominant-baseline="middle" text-anchor="start" x="440.00000000000006" y="70" >¹2022-05-01 00:00:00 UTC in Months</text><line  class="poloto_axis_lines" stroke="black" x1="214.28571428571377" x2="214.28571428571377" y1="400" y2="405" /><line  class="poloto_tick_line" stroke="black" x1="214.28571428571377" x2="214.28571428571377" y1="400" y2="100.00000000000006" /><text  class="poloto_tick_labels poloto_text" dominant-baseline="start" text-anchor="middle" x="214.28571428571377" y="430" >2022 May¹</text><line  class="poloto_axis_lines" stroke="black" x1="301.42857142856883" x2="301.42857142856883" y1="400" y2="405" /><line  class="poloto_tick_line" stroke="black" x1="301.42857142856883" x2="301.42857142856883" y1="400" y2="100.00000000000006" /><text  class="poloto_tick_labels poloto_text" dominant-baseline="start" text-anchor="middle" x="301.42857142856883" y="430" >2022 Jul</text><line  class="poloto_axis_lines" stroke="black" x1="390" x2="390" y1="400" y2="405" /><line  class="poloto_tick_line" stroke="black" x1="390" x2="390" y1="400" y2="100.00000000000006" /><text  class="poloto_tick_labels poloto_text" dominant-baseline="start" text-anchor="middle" x="390" y="430" >2022 Sep</text><line  class="poloto_axis_lines" stroke="black" x1="477.14285714285506" x2="477.14285714285506" y1="400" y2="405" /><line  class="poloto_tick_line" stroke="black" x1="477.14285714285506" x2="477.14285714285506" y1="400" y2="100.00000000000006" /><text  class="poloto_tick_labels poloto_text" dominant-baseline="start" text-anchor="middle" x="477.14285714285506" y="430" >2022 Nov</text><line  class="poloto_axis_lines" stroke="black" x1="564.2857142857138" x2="564.2857142857138" y1="400" y2="405" /><line  class="poloto_tick_line" stroke="black" x1="564.2857142857138" x2="564.2857142857138" y1="400" y2="100.00000000000006" /><text  class="poloto_tick_labels poloto_text" dominant-baseline="start" text-anchor="middle" x="564.2857142857138" y="430" >2023 Jan</text><line  class="poloto_axis_lines" stroke="black" x1="648.5714285714275" x2="648.5714285714275" y1="400" y2="405" /><line  class="poloto_tick_line" stroke="black" x1="648.5714285714275" x2="648.5714285714275" y1="400" y2="100.00000000000006" /><text  class="poloto_tick_labels poloto_text" dominant-baseline="start" text-anchor="middle" x="648.5714285714275" y="430" >2023 Mar</text><path  stroke="black" fill="none" class="poloto_axis_lines" d=" M 150 400 L 650 400" /><path  stroke="black" fill="none" class="poloto_axis_lines" d=" M 150 400 L 150 100.00000000000006" /></svg>