<svg class="poloto" width="800" height="500" viewBox="0 0 800 500" xmlns="http://www.w3.org/2000/svg"><style>.poloto{stroke-linecap:round;stroke-linejoin:round;font-family:Roboto,sans-serif;font-size:16px;}.poloto_background{fill:#262626;}.poloto_scatter{stroke-width:7}.poloto_tick_line{stroke:dimgray;stroke-width:0.5}.poloto_line{stroke-width:2}.poloto_text{fill: white;}.poloto_axis_lines{stroke: white;stroke-width:3;fill:none;stroke-dasharray:none}.poloto_title{font-size:24px;dominant-baseline:start;text-anchor:middle;}.poloto_xname{font-size:24px;dominant-baseline:start;text-anchor:middle;}.poloto_yname{font-size:24px;dominant-baseline:start;text-anchor:middle;}.poloto0stroke{stroke:blue;}.poloto1stroke{stroke:red;}.poloto2stroke{stroke:green;}.poloto3stroke{stroke:gold;}.poloto4stroke{stroke:aqua;}.poloto5stroke{stroke:lime;}.poloto6stroke{stroke:orange;}.poloto7stroke{stroke:chocolate;}.poloto0fill{fill:blue;}.poloto1fill{fill:red;}.poloto2fill{fill:green;}.poloto3fill{fill:gold;}.poloto4fill{fill:aqua;}.poloto5fill{fill:lime;}.poloto6fill{fill:orange;}.poloto7fill{fill:chocolate;}</style><circle  r="1e5" class="poloto_background" /><text  class="poloto_text poloto_legend_text" x="675" y="100" >30 years</text><line  class="poloto_line poloto_legend_icon poloto0stroke poloto0legend" stroke="black" x1="680" x2="730" y1="81.25" y2="81.25" /><path  class="poloto_line poloto0stroke" fill="none" stroke="black" d=" M 150.00 353.85 L 153.09 376.92 L 162.35 353.85 L 165.43 330.77 L 168.52 330.77 L 168.52 330.77 L 174.69 284.62 L 183.95 284.62 L 187.04 307.69 L 190.12 330.77 L 193.21 353.85 L 196.30 307.69 L 205.56 330.77 L 208.64 307.69 L 211.73 284.62 L 214.81 261.54 L 217.90 261.54 L 227.16 261.54 L 230.25 284.62 L 233.33 284.62 L 236.42 284.62 L 239.51 238.46 L 251.85 217.23 L 254.94 215.38 L 258.02 215.38 L 261.11 192.31 L 270.37 215.38 L 273.46 238.46 L 279.63 217.23 L 282.72 217.23 L 291.98 217.23 L 295.06 217.23 L 298.15 217.23 L 301.23 217.23 L 304.32 192.31 L 313.58 215.38 L 316.67 217.23 L 316.67 217.23 L 319.75 217.23 L 322.84 217.23 L 325.93 217.23 L 335.19 217.23 L 338.27 217.23 L 341.36 217.23 L 341.36 217.23 L 344.44 217.23 L 347.53 261.54 L 356.79 261.54 L 359.88 284.62 L 362.96 284.62 L 366.05 307.69 L 369.14 284.62 L 381.48 261.54 L 384.57 238.46 L 387.65 261.54 L 390.74 261.54 L 400.00 238.46 L 403.09 217.23 L 406.17 217.23 L 409.26 217.23 L 421.60 123.08 L 424.69 100.00 L 427.78 100.00 L 430.86 123.08 L 433.95 146.15 L 443.21 123.08 L 446.30 123.08 L 449.38 146.15 L 452.47 169.23 L 464.81 169.23 L 467.90 123.08 L 470.99 146.15 L 474.07 192.31 L 477.16 217.23 L 489.51 217.23 L 492.59 217.23 L 495.68 192.31 L 498.77 146.15 L 508.02 192.31 L 514.20 146.15 L 517.28 192.31 L 529.63 192.31 L 529.63 192.31 L 529.63 192.31 L 529.63 192.31 L 529.63 192.31 L 535.80 192.31 L 535.80 192.31 L 535.80 192.31 L 535.80 192.31 L 535.80 192.31 L 535.80 192.31 L 541.98 217.23 L 551.23 217.23 L 557.41 217.23 L 560.49 261.54 L 563.58 307.69 L 572.84 307.69 L 575.93 307.69 L 579.01 284.62 L 582.10 284.62 L 585.19 217.23 L 594.44 217.23 L 594.44 217.23 L 597.53 217.23 L 597.53 217.23 L 603.70 217.23 L 619.14 217.23 L 622.22 192.31 L 625.31 192.31 L 637.65 146.15 L 643.83 123.08 L 646.91 123.08 L 650.00 146.15" /><text  class="poloto_labels poloto_text poloto_title" x="400" y="37.5" >lower.com purchase rates</text><text  class="poloto_labels poloto_text poloto_xname" x="400" y="481.25" >Date</text><text  class="poloto_labels poloto_text poloto_yname" transform="rotate(-90,37.5,250)" x="37.5" y="250" >Rate (%)</text><text  class="poloto_tick_labels poloto_text" dominant-baseline="middle" text-anchor="start" x="150" y="70" ></text><line  class="poloto_axis_lines" stroke="black" x1="150" x2="144" y1="400" y2="400" /><line  class="poloto_tick_line" stroke="black" x1="150" x2="650" y1="400" y2="400" /><text  class="poloto_tick_labels poloto_text" dominant-baseline="middle" text-anchor="end" x="135" y="400" >4</text><line  class="poloto_axis_lines" stroke="black" x1="150" x2="144" y1="376.9230769230769" y2="376.9230769230769" /><line  class="poloto_tick_line" stroke="black" x1="150" x2="650" y1="376.9230769230769" y2="376.9230769230769" /><text  class="poloto_tick_labels poloto_text" dominant-baseline="middle" text-anchor="end" x="135" y="376.9230769230769" >4.125</text><line  class="poloto_axis_lines" stroke="black" x1="150" x2="144" y1="353.8461538461538" y2="353.8461538461538" /><line  class="poloto_tick_line" stroke="black" x1="150" x2="650" y1="353.8461538461538" y2="353.8461538461538" /><text  class="poloto_tick_labels poloto_text" dominant-baseline="middle" text-anchor="end" x="135" y="353.8461538461538" >4.25</text><line  class="poloto_axis_lines" stroke="black" x1="150" x2="144" y1="330.7692307692307" y2="330.7692307692307" /><line  class="poloto_tick_line" stroke="black" x1="150" x2="650" y1="330.7692307692307" y2="330.7692307692307" /><text  class="poloto_tick_labels poloto_text" dominant-baseline="middle" text-anchor="end" x="135" y="330.7692307692307" >4.375</text><line  class="poloto_axis_lines" stroke="black" x1="150" x2="144" y1="307.69230769230774" y2="307.69230769230774" /><line  class="poloto_tick_line" stroke="black" x1="150" x2="650" y1="307.69230769230774" y2="307.69230769230774" /><text  class="poloto_tick_labels poloto_text" dominant-baseline="middle" text-anchor="end" x="135" y="307.69230769230774" >4.5</text><line  class="poloto_axis_lines" stroke="black" x1="150" x2="144" y1="284.61538461538464" y2="284.61538461538464" /><line  class="poloto_tick_line" stroke="black" x1="150" x2="650" y1="284.61538461538464" y2="284.61538461538464" /><text  class="poloto_tick_labels poloto_text" dominant-baseline="middle" text-anchor="end" x="135" y="284.61538461538464" >4.625</text><line  class="poloto_axis_lines" stroke="black" x1="150" x2="144" y1="261.53846153846155" y2="261.53846153846155" /><line  class="poloto_tick_line" stroke="black" x1="150" x2="650" y1="261.53846153846155" y2="261.53846153846155" /><text  class="poloto_tick_labels poloto_text" dominant-baseline="middle" text-anchor="end" x="135" y="261.53846153846155" >4.75</text><line  class="poloto_axis_lines" stroke="black" x1="150" x2="144" y1="238.46153846153845" y2="238.46153846153845" /><line  class="poloto_tick_line" stroke="black" x1="150" x2="650" y1="238.46153846153845" y2="238.46153846153845" /><text  class="poloto_tick_labels poloto_text" dominant-baseline="middle" text-anchor="end" x="135" y="238.46153846153845" >4.875</text><line  class="poloto_axis_lines" stroke="black" x1="150" x2="144" y1="215.38461538461536" y2="215.38461538461536" /><line  class="poloto_tick_line" stroke="black" x1="150" x2="650" y1="215.38461538461536" y2="215.38461538461536" /><text  class="poloto_tick_labels poloto_text" dominant-baseline="middle" text-anchor="end" x="135" y="215.38461538461536" >5</text><line  class="poloto_axis_lines" stroke="black" x1="150" x2="144" y1="192.30769230769226" y2="192.30769230769226" /><line  class="poloto_tick_line" stroke="black" x1="150" x2="650" y1="192.30769230769226" y2="192.30769230769226" /><text  class="poloto_tick_labels poloto_text" dominant-baseline="middle" text-anchor="end" x="135" y="192.30769230769226" >5.125</text><line  class="poloto_axis_lines" stroke="black" x1="150" x2="144" y1="169.23076923076928" y2="169.23076923076928" /><line  class="poloto_tick_line" stroke="black" x1="150" x2="650" y1="169.23076923076928" y2="169.23076923076928" /><text  class="poloto_tick_labels poloto_text" dominant-baseline="middle" text-anchor="end" x="135" y="169.23076923076928" >5.25</text><line  class="poloto_axis_lines" stroke="black" x1="150" x2="144" y1="146.1538461538462" y2="146.1538461538462" /><line  class="poloto_tick_line" stroke="black" x1="150" x2="650" y1="146.1538461538462" y2="146.1538461538462" /><text  class="poloto_tick_labels poloto_text" dominant-baseline="middle" text-anchor="end" x="135" y="146.1538461538462" >5.375</text><line  class="poloto_axis_lines" stroke="black" x1="150" x2="144" y1="123.0769230769231" y2="123.0769230769231" /><line  class="poloto_tick_line" stroke="black" x1="150" x2="650" y1="123.0769230769231" y2="123.0769230769231" /><text  class="poloto_tick_labels poloto_text" dominant-baseline="middle" text-anchor="end" x="135" y="123.0769230769231" >5.5</text><line  class="poloto_axis_lines" stroke="black" x1="150" x2="144" y1="100.00000000000011" y2="100.00000000000011" /><line  class="poloto_tick_line" stroke="black" x1="150" x2="650" y1="100.00000000000011" y2="100.00000000000011" /><text  class="poloto_tick_labels poloto_text" dominant-baseline="middle" text-anchor="end" x="135" y="100.00000000000011" >5.625</text><text  class="poloto_tick_labels poloto_text" dominant-baseline="middle" text-anchor="start" x="440.00000000000006" y="70" >¹2022-04-01 00:00:00 UTC in Months</text><line  class="poloto_axis_lines" stroke="black" x1="196.29629629629926" x2="196.29629629629926" y1="400" y2="405" /><line  class="poloto_tick_line" stroke="black" x1="196.29629629629926" x2="196.29629629629926" y1="400" y2="100.00000000000011" /><text  class="poloto_tick_labels poloto_text" dominant-baseline="start" text-anchor="middle" x="196.29629629629926" y="430" >2022 Apr¹</text><line  class="poloto_axis_lines" stroke="black" x1="288.8888888888905" x2="288.8888888888905" y1="400" y2="405" /><line  class="poloto_tick_line" stroke="black" x1="288.8888888888905" x2="288.8888888888905" y1="400" y2="100.00000000000011" /><text  class="poloto_tick_labels poloto_text" dominant-baseline="start" text-anchor="middle" x="288.8888888888905" y="430" >2022 May</text><line  class="poloto_axis_lines" stroke="black" x1="384.56790123457176" x2="384.56790123457176" y1="400" y2="405" /><line  class="poloto_tick_line" stroke="black" x1="384.56790123457176" x2="384.56790123457176" y1="400" y2="100.00000000000011" /><text  class="poloto_tick_labels poloto_text" dominant-baseline="start" text-anchor="middle" x="384.56790123457176" y="430" >2022 Jun</text><line  class="poloto_axis_lines" stroke="black" x1="477.160493827163" x2="477.160493827163" y1="400" y2="405" /><line  class="poloto_tick_line" stroke="black" x1="477.160493827163" x2="477.160493827163" y1="400" y2="100.00000000000011" /><text  class="poloto_tick_labels poloto_text" dominant-baseline="start" text-anchor="middle" x="477.160493827163" y="430" >2022 Jul</text><line  class="poloto_axis_lines" stroke="black" x1="572.8395061728443" x2="572.8395061728443" y1="400" y2="405" /><line  class="poloto_tick_line" stroke="black" x1="572.8395061728443" x2="572.8395061728443" y1="400" y2="100.00000000000011" /><text  class="poloto_tick_labels poloto_text" dominant-baseline="start" text-anchor="middle" x="572.8395061728443" y="430" >2022 Aug</text><path  stroke="black" fill="none" class="poloto_axis_lines" d=" M 150 400 L 650 400" /><path  stroke="black" fill="none" class="poloto_axis_lines" d=" M 150 400 L 150 100.00000000000011" /></svg>