<svg class="poloto" width="800" height="500" viewBox="0 0 800 500" xmlns="http://www.w3.org/2000/svg"><style>.poloto{stroke-linecap:round;stroke-linejoin:round;font-family:Roboto,sans-serif;font-size:16px;}.poloto_background{fill:#262626;}.poloto_scatter{stroke-width:7}.poloto_tick_line{stroke:dimgray;stroke-width:0.5}.poloto_line{stroke-width:2}.poloto_text{fill: white;}.poloto_axis_lines{stroke: white;stroke-width:3;fill:none;stroke-dasharray:none}.poloto_title{font-size:24px;dominant-baseline:start;text-anchor:middle;}.poloto_xname{font-size:24px;dominant-baseline:start;text-anchor:middle;}.poloto_yname{font-size:24px;dominant-baseline:start;text-anchor:middle;}.poloto0stroke{stroke:blue;}.poloto1stroke{stroke:red;}.poloto2stroke{stroke:green;}.poloto3stroke{stroke:gold;}.poloto4stroke{stroke:aqua;}.poloto5stroke{stroke:lime;}.poloto6stroke{stroke:orange;}.poloto7stroke{stroke:chocolate;}.poloto0fill{fill:blue;}.poloto1fill{fill:red;}.poloto2fill{fill:green;}.poloto3fill{fill:gold;}.poloto4fill{fill:aqua;}.poloto5fill{fill:lime;}.poloto6fill{fill:orange;}.poloto7fill{fill:chocolate;}</style><circle  r="1e5" class="poloto_background" /><text  class="poloto_text poloto_legend_text" x="675" y="100" >Refinance 15</text><line  class="poloto_line poloto_legend_icon poloto0stroke poloto0legend" stroke="black" x1="680" x2="730" y1="81.25" y2="81.25" /><path  class="poloto_line poloto0stroke" fill="none" stroke="black" d=" M 150.00 393.13 L 151.30 400.00 L 155.21 390.27 L 156.51 381.94 L 157.81 390.27 L 157.81 390.27 L 160.42 362.48 L 164.32 361.01 L 165.62 370.74 L 166.93 349.74 L 168.23 351.21 L 169.53 346.81 L 173.44 348.28 L 174.74 342.41 L 174.74 342.41 L 177.34 342.95 L 178.65 321.95 L 182.55 331.06 L 183.85 333.99 L 185.16 333.99 L 186.46 333.22 L 187.76 328.74 L 192.97 289.53 L 194.27 306.97 L 195.57 293.46 L 196.88 288.21 L 196.88 288.21 L 202.08 308.52 L 204.69 312.22 L 205.99 303.96 L 209.90 294.16 L 211.20 313.69 L 212.50 303.96 L 212.50 303.96 L 215.10 302.42 L 219.01 305.43 L 220.31 315.16 L 220.31 315.16 L 221.61 306.90 L 222.92 316.70 L 224.22 302.42 L 228.12 331.76 L 229.43 331.06 L 230.73 315.16 L 230.73 315.16 L 232.03 321.95 L 233.33 324.96 L 237.24 324.96 L 238.54 335.46 L 239.84 335.46 L 241.15 335.46 L 242.45 335.46 L 247.66 324.96 L 248.96 321.95 L 250.26 323.42 L 251.56 323.42 L 251.56 323.42 L 256.77 313.69 L 258.07 313.69 L 259.38 305.43 L 264.58 291.92 L 265.89 264.05 L 267.19 267.14 L 268.49 267.14 L 269.79 286.67 L 273.70 267.14 L 275.00 267.14 L 276.30 285.13 L 277.60 288.21 L 282.81 288.21 L 284.11 286.67 L 285.42 291.22 L 286.72 295.70 L 288.02 305.43 L 293.23 312.22 L 294.53 303.96 L 295.83 297.17 L 297.14 294.16 L 301.04 295.70 L 303.65 295.70 L 304.95 294.16 L 310.16 292.69 L 310.16 292.69 L 310.16 292.69 L 310.16 292.69 L 310.16 292.69 L 310.16 292.69 L 312.76 292.69 L 312.76 292.69 L 312.76 292.69 L 312.76 292.69 L 312.76 292.69 L 312.76 292.69 L 319.27 303.96 L 321.88 306.90 L 323.18 332.53 L 324.48 335.46 L 328.39 335.46 L 329.69 333.99 L 330.99 313.69 L 332.29 308.44 L 333.59 295.70 L 337.50 305.43 L 337.50 305.43 L 338.80 297.17 L 341.41 305.43 L 341.41 305.43 L 347.92 305.43 L 349.22 274.70 L 350.52 292.69 L 355.73 261.89 L 358.33 261.89 L 358.33 261.89 L 360.94 273.16 L 366.15 267.14 L 366.15 267.14 L 366.15 267.14 L 366.15 267.14 L 366.15 267.14 L 366.15 267.14 L 366.15 267.14 L 366.15 267.14 L 366.15 267.14 L 370.05 267.14 L 377.86 247.53 L 383.07 249.85 L 383.07 249.85 L 386.98 249.85 L 392.19 249.85 L 393.49 249.85 L 393.49 249.85 L 393.49 249.85 L 393.49 249.85 L 393.49 249.85 L 410.42 249.85 L 411.72 249.85 L 419.53 162.92 L 420.83 154.66 L 422.14 154.66 L 469.01 180.60 L 474.22 180.60 L 475.52 180.60 L 476.82 195.50 L 479.43 203.68 L 479.43 203.68 L 484.64 203.68 L 485.94 203.68 L 487.24 203.68 L 488.54 203.68 L 492.45 203.68 L 493.75 203.68 L 496.35 203.68 L 497.66 203.68 L 501.56 203.68 L 502.86 203.68 L 502.86 203.68 L 506.77 203.68 L 510.68 203.68 L 511.98 203.68 L 513.28 203.68 L 514.58 203.68 L 515.89 203.68 L 521.09 226.15 L 522.40 200.21 L 523.70 180.60 L 525.00 190.40 L 528.91 190.40 L 530.21 190.40 L 530.21 190.40 L 532.81 211.48 L 534.11 211.48 L 538.02 211.48 L 539.32 211.48 L 540.62 211.48 L 541.93 211.48 L 543.23 211.48 L 543.23 211.48 L 543.23 211.48 L 543.23 211.48 L 549.74 211.48 L 552.34 211.48 L 556.25 211.48 L 557.55 211.48 L 560.16 211.48 L 561.46 211.48 L 566.67 211.48 L 567.97 211.48 L 569.27 211.48 L 570.57 239.27 L 574.48 245.45 L 575.78 209.93 L 577.08 221.28 L 578.39 219.74 L 579.69 201.75 L 583.59 161.07 L 584.90 161.07 L 586.20 161.07 L 587.50 162.61 L 588.80 170.79 L 592.71 162.61 L 594.01 162.61 L 595.31 151.26 L 596.61 161.07 L 597.92 141.46 L 603.12 151.26 L 604.43 152.80 L 605.73 143.08 L 607.03 149.64 L 610.94 155.97 L 612.24 152.80 L 613.54 151.26 L 614.84 151.26 L 616.15 162.61 L 620.05 161.07 L 621.35 152.80 L 625.26 240.81 L 629.17 180.60 L 630.47 182.14 L 631.77 172.41 L 633.07 209.93 L 634.38 239.27 L 638.28 191.95 L 639.58 190.40 L 640.89 180.60 L 642.19 180.60 L 643.49 183.53 L 647.40 197.43 L 648.70 185.15 L 650.00 221.13" /><text  class="poloto_text poloto_legend_text" x="675" y="150" >Refinance 20</text><line  class="poloto_line poloto_legend_icon poloto1stroke poloto1legend" stroke="black" x1="680" x2="730" y1="131.25" y2="131.25" /><path  class="poloto_line poloto1stroke" fill="none" stroke="black" d=" M 150.00 350.51 L 151.30 371.13 L 155.21 340.40 L 156.51 330.98 L 157.81 339.63 L 157.81 339.63 L 160.42 312.61 L 164.32 310.29 L 165.62 320.10 L 166.93 309.14 L 168.23 318.94 L 169.53 300.57 L 173.44 328.67 L 174.74 300.57 L 174.74 300.57 L 177.34 300.57 L 177.34 300.57 L 182.55 263.51 L 183.85 293.15 L 185.16 300.57 L 186.46 310.29 L 187.76 291.22 L 192.97 272.47 L 194.27 270.07 L 195.57 265.29 L 196.88 254.32 L 200.78 259.11 L 202.08 279.88 L 204.69 272.47 L 205.99 270.07 L 209.90 262.27 L 211.20 271.31 L 212.50 271.31 L 212.50 271.31 L 215.10 271.31 L 219.01 272.47 L 220.31 292.00 L 220.31 292.00 L 221.61 281.03 L 222.92 299.41 L 224.22 292.00 L 228.12 293.15 L 229.43 292.00 L 230.73 292.00 L 230.73 292.00 L 232.03 293.15 L 233.33 299.41 L 237.24 300.57 L 238.54 304.04 L 239.84 304.04 L 241.15 304.04 L 242.45 304.04 L 247.66 299.41 L 248.96 289.60 L 250.26 292.00 L 251.56 292.00 L 251.56 292.00 L 256.77 279.88 L 258.07 282.19 L 259.38 273.62 L 264.58 232.24 L 265.89 215.11 L 267.19 224.91 L 268.49 232.24 L 269.79 252.93 L 273.70 240.74 L 275.00 234.64 L 276.30 254.17 L 277.60 263.51 L 282.81 263.51 L 284.11 252.93 L 285.42 262.74 L 286.72 272.47 L 288.02 283.43 L 293.23 290.76 L 294.53 281.03 L 295.83 271.31 L 297.14 264.67 L 301.04 270.07 L 303.65 272.47 L 304.95 271.31 L 310.16 272.47 L 310.16 272.47 L 310.16 272.47 L 310.16 272.47 L 310.16 272.47 L 310.16 272.47 L 310.16 272.47 L 310.16 272.47 L 310.16 272.47 L 310.16 272.47 L 310.16 272.47 L 310.16 272.47 L 319.27 290.76 L 321.88 293.15 L 323.18 310.29 L 324.48 312.61 L 328.39 310.06 L 329.69 310.06 L 330.99 300.57 L 332.29 304.04 L 333.59 289.60 L 337.50 282.19 L 337.50 282.19 L 338.80 282.19 L 341.41 292.00 L 341.41 292.00 L 347.92 289.60 L 349.22 272.47 L 350.52 272.47 L 355.73 259.88 L 358.33 249.31 L 358.33 249.31 L 360.94 261.12 L 366.15 232.24 L 366.15 232.24 L 366.15 232.24 L 366.15 232.24 L 366.15 232.24 L 366.15 232.24 L 366.15 232.24 L 366.15 232.24 L 366.15 232.24 L 370.05 232.24 L 377.86 219.97 L 383.07 221.20 L 385.68 221.20 L 386.98 221.20 L 386.98 221.20 L 393.49 221.20 L 394.79 221.20 L 394.79 221.20 L 394.79 221.20 L 394.79 221.20 L 410.42 221.20 L 411.72 221.20 L 419.53 143.85 L 420.83 129.41 L 420.83 129.41 L 471.61 177.12 L 474.22 177.12 L 475.52 177.12 L 478.12 194.26 L 479.43 195.50 L 479.43 195.50 L 484.64 195.50 L 485.94 195.50 L 487.24 195.50 L 488.54 195.50 L 492.45 195.50 L 493.75 195.50 L 496.35 195.50 L 497.66 195.50 L 501.56 195.50 L 502.86 195.50 L 502.86 195.50 L 506.77 195.50 L 510.68 195.50 L 511.98 195.50 L 513.28 195.50 L 514.58 195.50 L 515.89 195.50 L 521.09 178.05 L 522.40 168.55 L 523.70 167.32 L 525.00 169.87 L 528.91 169.87 L 530.21 169.87 L 530.21 169.87 L 532.81 188.16 L 534.11 188.16 L 538.02 188.16 L 539.32 188.16 L 540.62 188.16 L 541.93 188.16 L 543.23 188.16 L 543.23 188.16 L 548.44 188.16 L 548.44 188.16 L 549.74 188.16 L 552.34 188.16 L 556.25 188.16 L 557.55 188.16 L 560.16 188.16 L 561.46 188.16 L 566.67 188.16 L 567.97 188.16 L 569.27 188.16 L 570.57 209.01 L 574.48 207.77 L 575.78 178.36 L 577.08 179.59 L 577.08 179.59 L 579.69 178.36 L 583.59 158.75 L 584.90 158.75 L 586.20 150.26 L 587.50 140.45 L 588.80 149.02 L 592.71 140.45 L 594.01 130.65 L 595.31 140.45 L 596.61 150.26 L 597.92 139.22 L 603.12 140.45 L 604.43 129.41 L 605.73 100.00 L 607.03 129.41 L 610.94 150.26 L 612.24 169.17 L 613.54 140.45 L 614.84 139.22 L 616.15 167.32 L 620.05 160.06 L 621.35 150.26 L 625.26 210.24 L 629.17 168.55 L 630.47 158.75 L 631.77 160.06 L 633.07 188.16 L 634.38 189.40 L 638.28 169.87 L 639.58 160.06 L 640.89 160.06 L 642.19 160.06 L 642.19 160.06 L 642.19 160.06 L 642.19 160.06 L 642.19 160.06" /><text  class="poloto_text poloto_legend_text" x="675" y="200" >Refinance 30</text><line  class="poloto_line poloto_legend_icon poloto2stroke poloto2legend" stroke="black" x1="680" x2="730" y1="181.25" y2="181.25" /><path  class="poloto_line poloto2stroke" fill="none" stroke="black" d=" M 150.00 348.35 L 151.30 355.69 L 155.21 344.26 L 156.51 335.31 L 157.81 337.00 L 157.81 337.00 L 160.42 318.24 L 164.32 316.62 L 165.62 326.35 L 166.93 315.77 L 168.23 325.50 L 169.53 306.82 L 173.44 315.77 L 174.74 297.01 L 176.04 297.01 L 177.34 296.17 L 178.65 272.47 L 182.55 276.63 L 183.85 287.29 L 185.16 297.01 L 186.46 288.14 L 187.76 277.48 L 192.97 269.38 L 194.27 256.18 L 195.57 254.40 L 196.88 252.55 L 200.78 256.18 L 202.08 271.31 L 204.69 269.38 L 205.99 267.60 L 209.90 257.95 L 211.20 268.45 L 212.50 257.95 L 212.50 257.95 L 215.10 257.95 L 219.01 259.73 L 220.31 276.63 L 220.31 276.63 L 221.61 268.45 L 222.92 269.38 L 224.22 270.23 L 228.12 277.48 L 229.43 269.38 L 230.73 269.38 L 230.73 269.38 L 232.03 278.33 L 233.33 279.26 L 237.24 280.11 L 238.54 288.14 L 239.84 288.14 L 241.15 289.84 L 242.45 289.84 L 247.66 286.36 L 248.96 276.63 L 250.26 278.33 L 251.56 277.48 L 251.56 277.48 L 256.77 268.45 L 258.07 268.45 L 259.38 258.80 L 264.58 219.74 L 265.89 192.10 L 267.19 209.01 L 268.49 219.74 L 269.79 229.46 L 273.70 220.59 L 275.00 219.74 L 276.30 237.49 L 277.60 239.27 L 282.81 239.27 L 284.11 228.62 L 285.42 237.49 L 286.72 247.22 L 288.02 268.45 L 293.23 269.38 L 294.53 258.80 L 295.83 240.20 L 297.14 237.49 L 301.04 255.25 L 303.65 239.27 L 304.95 238.34 L 310.16 256.18 L 310.16 256.18 L 310.16 256.18 L 310.16 256.18 L 310.16 256.18 L 310.16 256.18 L 312.76 256.18 L 312.76 256.18 L 312.76 256.18 L 312.76 256.18 L 312.76 256.18 L 312.76 256.18 L 319.27 267.60 L 321.88 269.38 L 323.18 286.36 L 324.48 297.86 L 328.39 297.01 L 329.69 297.01 L 330.99 277.48 L 332.29 280.11 L 333.59 267.60 L 337.50 277.48 L 337.50 277.48 L 338.80 270.23 L 341.41 278.33 L 341.41 278.33 L 347.92 276.63 L 349.22 259.73 L 350.52 258.80 L 355.73 236.57 L 358.33 228.62 L 358.33 228.62 L 360.94 238.34 L 366.15 227.69 L 366.15 227.69 L 366.15 227.69 L 366.15 227.69 L 366.15 227.69 L 366.15 227.69 L 366.15 227.69 L 366.15 227.69 L 370.05 227.69 L 370.05 226.76 L 377.86 215.11 L 383.07 195.50 L 383.07 195.50 L 386.98 195.50 L 386.98 195.50 L 393.49 195.50 L 394.79 195.50 L 394.79 195.50 L 394.79 195.50 L 394.79 195.50 L 410.42 195.50 L 411.72 195.50 L 419.53 151.34 L 420.83 126.71 L 420.83 126.71 L 471.61 169.02 L 474.22 169.02 L 475.52 169.02 L 476.82 172.95 L 479.43 181.91 L 479.43 181.91 L 484.64 181.91 L 485.94 181.91 L 487.24 181.91 L 488.54 181.91 L 492.45 181.91 L 493.75 181.91 L 496.35 181.91 L 497.66 181.91 L 501.56 181.91 L 502.86 181.91 L 502.86 181.91 L 506.77 181.91 L 510.68 181.91 L 511.98 181.91 L 513.28 181.91 L 514.58 181.91 L 515.89 181.91 L 521.09 167.01 L 522.40 174.88 L 523.70 156.20 L 525.00 174.88 L 528.91 174.88 L 530.21 174.88 L 530.21 174.88 L 532.81 174.88 L 534.11 174.88 L 538.02 174.88 L 539.32 174.88 L 540.62 174.88 L 541.93 174.88 L 543.23 174.88 L 543.23 174.88 L 548.44 174.88 L 548.44 174.88 L 549.74 174.88 L 552.34 174.88 L 556.25 174.88 L 557.55 174.88 L 560.16 174.88 L 561.46 174.88 L 566.67 174.88 L 567.97 174.88 L 569.27 174.88 L 570.57 224.91 L 574.48 215.11 L 575.78 175.89 L 577.08 205.30 L 578.39 175.89 L 579.69 166.01 L 583.59 156.20 L 584.90 156.20 L 586.20 147.32 L 587.50 137.52 L 588.80 146.40 L 592.71 146.40 L 594.01 135.59 L 595.31 127.71 L 596.61 137.52 L 597.92 128.72 L 603.12 127.71 L 604.43 116.91 L 605.73 116.91 L 607.03 126.71 L 610.94 127.71 L 612.24 117.91 L 613.54 125.78 L 614.84 117.91 L 616.15 147.32 L 620.05 147.32 L 621.35 127.71 L 625.26 206.23 L 629.17 147.32 L 630.47 146.40 L 631.77 146.40 L 633.07 176.81 L 634.38 176.81 L 638.28 157.21 L 639.58 157.21 L 640.89 156.20 L 642.19 156.20 L 643.49 148.02 L 647.40 149.02 L 648.70 157.05 L 650.00 187.31" /><text  class="poloto_labels poloto_text poloto_title" x="400" y="37.5" >lower.com purchase rates</text><text  class="poloto_labels poloto_text poloto_xname" x="400" y="481.25" >Date</text><text  class="poloto_labels poloto_text poloto_yname" transform="rotate(-90,37.5,250)" x="37.5" y="250" >Rate (%)</text><text  class="poloto_tick_labels poloto_text" dominant-baseline="middle" text-anchor="start" x="150" y="70" ></text><line  class="poloto_axis_lines" stroke="black" x1="150" x2="144" y1="391.12197632527017" y2="391.12197632527017" /><line  class="poloto_tick_line" stroke="black" x1="150" x2="650" y1="391.12197632527017" y2="391.12197632527017" /><text  class="poloto_tick_labels poloto_text" dominant-baseline="middle" text-anchor="end" x="135" y="391.12197632527017" >3.625</text><line  class="poloto_axis_lines" stroke="black" x1="150" x2="144" y1="381.4719505918682" y2="381.4719505918682" /><line  class="poloto_tick_line" stroke="black" x1="150" x2="650" y1="381.4719505918682" y2="381.4719505918682" /><text  class="poloto_tick_labels poloto_text" dominant-baseline="middle" text-anchor="end" x="135" y="381.4719505918682" >3.75</text><line  class="poloto_axis_lines" stroke="black" x1="150" x2="144" y1="371.8219248584663" y2="371.8219248584663" /><line  class="poloto_tick_line" stroke="black" x1="150" x2="650" y1="371.8219248584663" y2="371.8219248584663" /><text  class="poloto_tick_labels poloto_text" dominant-baseline="middle" text-anchor="end" x="135" y="371.8219248584663" >3.875</text><line  class="poloto_axis_lines" stroke="black" x1="150" x2="144" y1="362.17189912506433" y2="362.17189912506433" /><line  class="poloto_tick_line" stroke="black" x1="150" x2="650" y1="362.17189912506433" y2="362.17189912506433" /><text  class="poloto_tick_labels poloto_text" dominant-baseline="middle" text-anchor="end" x="135" y="362.17189912506433" >4</text><line  class="poloto_axis_lines" stroke="black" x1="150" x2="144" y1="352.5218733916624" y2="352.5218733916624" /><line  class="poloto_tick_line" stroke="black" x1="150" x2="650" y1="352.5218733916624" y2="352.5218733916624" /><text  class="poloto_tick_labels poloto_text" dominant-baseline="middle" text-anchor="end" x="135" y="352.5218733916624" >4.125</text><line  class="poloto_axis_lines" stroke="black" x1="150" x2="144" y1="342.87184765826044" y2="342.87184765826044" /><line  class="poloto_tick_line" stroke="black" x1="150" x2="650" y1="342.87184765826044" y2="342.87184765826044" /><text  class="poloto_tick_labels poloto_text" dominant-baseline="middle" text-anchor="end" x="135" y="342.87184765826044" >4.25</text><line  class="poloto_axis_lines" stroke="black" x1="150" x2="144" y1="333.2218219248585" y2="333.2218219248585" /><line  class="poloto_tick_line" stroke="black" x1="150" x2="650" y1="333.2218219248585" y2="333.2218219248585" /><text  class="poloto_tick_labels poloto_text" dominant-baseline="middle" text-anchor="end" x="135" y="333.2218219248585" >4.375</text><line  class="poloto_axis_lines" stroke="black" x1="150" x2="144" y1="323.5717961914565" y2="323.5717961914565" /><line  class="poloto_tick_line" stroke="black" x1="150" x2="650" y1="323.5717961914565" y2="323.5717961914565" /><text  class="poloto_tick_labels poloto_text" dominant-baseline="middle" text-anchor="end" x="135" y="323.5717961914565" >4.5</text><line  class="poloto_axis_lines" stroke="black" x1="150" x2="144" y1="313.92177045805454" y2="313.92177045805454" /><line  class="poloto_tick_line" stroke="black" x1="150" x2="650" y1="313.92177045805454" y2="313.92177045805454" /><text  class="poloto_tick_labels poloto_text" dominant-baseline="middle" text-anchor="end" x="135" y="313.92177045805454" >4.625</text><line  class="poloto_axis_lines" stroke="black" x1="150" x2="144" y1="304.2717447246526" y2="304.2717447246526" /><line  class="poloto_tick_line" stroke="black" x1="150" x2="650" y1="304.2717447246526" y2="304.2717447246526" /><text  class="poloto_tick_labels poloto_text" dominant-baseline="middle" text-anchor="end" x="135" y="304.2717447246526" >4.75</text><line  class="poloto_axis_lines" stroke="black" x1="150" x2="144" y1="294.62171899125065" y2="294.62171899125065" /><line  class="poloto_tick_line" stroke="black" x1="150" x2="650" y1="294.62171899125065" y2="294.62171899125065" /><text  class="poloto_tick_labels poloto_text" dominant-baseline="middle" text-anchor="end" x="135" y="294.62171899125065" >4.875</text><line  class="poloto_axis_lines" stroke="black" x1="150" x2="144" y1="284.9716932578487" y2="284.9716932578487" /><line  class="poloto_tick_line" stroke="black" x1="150" x2="650" y1="284.9716932578487" y2="284.9716932578487" /><text  class="poloto_tick_labels poloto_text" dominant-baseline="middle" text-anchor="end" x="135" y="284.9716932578487" >5</text><line  class="poloto_axis_lines" stroke="black" x1="150" x2="144" y1="275.32166752444675" y2="275.32166752444675" /><line  class="poloto_tick_line" stroke="black" x1="150" x2="650" y1="275.32166752444675" y2="275.32166752444675" /><text  class="poloto_tick_labels poloto_text" dominant-baseline="middle" text-anchor="end" x="135" y="275.32166752444675" >5.125</text><line  class="poloto_axis_lines" stroke="black" x1="150" x2="144" y1="265.67164179104475" y2="265.67164179104475" /><line  class="poloto_tick_line" stroke="black" x1="150" x2="650" y1="265.67164179104475" y2="265.67164179104475" /><text  class="poloto_tick_labels poloto_text" dominant-baseline="middle" text-anchor="end" x="135" y="265.67164179104475" >5.25</text><line  class="poloto_axis_lines" stroke="black" x1="150" x2="144" y1="256.0216160576428" y2="256.0216160576428" /><line  class="poloto_tick_line" stroke="black" x1="150" x2="650" y1="256.0216160576428" y2="256.0216160576428" /><text  class="poloto_tick_labels poloto_text" dominant-baseline="middle" text-anchor="end" x="135" y="256.0216160576428" >5.375</text><line  class="poloto_axis_lines" stroke="black" x1="150" x2="144" y1="246.37159032424086" y2="246.37159032424086" /><line  class="poloto_tick_line" stroke="black" x1="150" x2="650" y1="246.37159032424086" y2="246.37159032424086" /><text  class="poloto_tick_labels poloto_text" dominant-baseline="middle" text-anchor="end" x="135" y="246.37159032424086" >5.5</text><line  class="poloto_axis_lines" stroke="black" x1="150" x2="144" y1="236.7215645908389" y2="236.7215645908389" /><line  class="poloto_tick_line" stroke="black" x1="150" x2="650" y1="236.7215645908389" y2="236.7215645908389" /><text  class="poloto_tick_labels poloto_text" dominant-baseline="middle" text-anchor="end" x="135" y="236.7215645908389" >5.625</text><line  class="poloto_axis_lines" stroke="black" x1="150" x2="144" y1="227.07153885743696" y2="227.07153885743696" /><line  class="poloto_tick_line" stroke="black" x1="150" x2="650" y1="227.07153885743696" y2="227.07153885743696" /><text  class="poloto_tick_labels poloto_text" dominant-baseline="middle" text-anchor="end" x="135" y="227.07153885743696" >5.75</text><line  class="poloto_axis_lines" stroke="black" x1="150" x2="144" y1="217.42151312403502" y2="217.42151312403502" /><line  class="poloto_tick_line" stroke="black" x1="150" x2="650" y1="217.42151312403502" y2="217.42151312403502" /><text  class="poloto_tick_labels poloto_text" dominant-baseline="middle" text-anchor="end" x="135" y="217.42151312403502" >5.875</text><line  class="poloto_axis_lines" stroke="black" x1="150" x2="144" y1="207.771487390633" y2="207.771487390633" /><line  class="poloto_tick_line" stroke="black" x1="150" x2="650" y1="207.771487390633" y2="207.771487390633" /><text  class="poloto_tick_labels poloto_text" dominant-baseline="middle" text-anchor="end" x="135" y="207.771487390633" >6</text><line  class="poloto_axis_lines" stroke="black" x1="150" x2="144" y1="198.12146165723107" y2="198.12146165723107" /><line  class="poloto_tick_line" stroke="black" x1="150" x2="650" y1="198.12146165723107" y2="198.12146165723107" /><text  class="poloto_tick_labels poloto_text" dominant-baseline="middle" text-anchor="end" x="135" y="198.12146165723107" >6.125</text><line  class="poloto_axis_lines" stroke="black" x1="150" x2="144" y1="188.47143592382912" y2="188.47143592382912" /><line  class="poloto_tick_line" stroke="black" x1="150" x2="650" y1="188.47143592382912" y2="188.47143592382912" /><text  class="poloto_tick_labels poloto_text" dominant-baseline="middle" text-anchor="end" x="135" y="188.47143592382912" >6.25</text><line  class="poloto_axis_lines" stroke="black" x1="150" x2="144" y1="178.82141019042717" y2="178.82141019042717" /><line  class="poloto_tick_line" stroke="black" x1="150" x2="650" y1="178.82141019042717" y2="178.82141019042717" /><text  class="poloto_tick_labels poloto_text" dominant-baseline="middle" text-anchor="end" x="135" y="178.82141019042717" >6.375</text><line  class="poloto_axis_lines" stroke="black" x1="150" x2="144" y1="169.17138445702523" y2="169.17138445702523" /><line  class="poloto_tick_line" stroke="black" x1="150" x2="650" y1="169.17138445702523" y2="169.17138445702523" /><text  class="poloto_tick_labels poloto_text" dominant-baseline="middle" text-anchor="end" x="135" y="169.17138445702523" >6.5</text><line  class="poloto_axis_lines" stroke="black" x1="150" x2="144" y1="159.52135872362328" y2="159.52135872362328" /><line  class="poloto_tick_line" stroke="black" x1="150" x2="650" y1="159.52135872362328" y2="159.52135872362328" /><text  class="poloto_tick_labels poloto_text" dominant-baseline="middle" text-anchor="end" x="135" y="159.52135872362328" >6.625</text><line  class="poloto_axis_lines" stroke="black" x1="150" x2="144" y1="149.87133299022133" y2="149.87133299022133" /><line  class="poloto_tick_line" stroke="black" x1="150" x2="650" y1="149.87133299022133" y2="149.87133299022133" /><text  class="poloto_tick_labels poloto_text" dominant-baseline="middle" text-anchor="end" x="135" y="149.87133299022133" >6.75</text><line  class="poloto_axis_lines" stroke="black" x1="150" x2="144" y1="140.22130725681933" y2="140.22130725681933" /><line  class="poloto_tick_line" stroke="black" x1="150" x2="650" y1="140.22130725681933" y2="140.22130725681933" /><text  class="poloto_tick_labels poloto_text" dominant-baseline="middle" text-anchor="end" x="135" y="140.22130725681933" >6.875</text><line  class="poloto_axis_lines" stroke="black" x1="150" x2="144" y1="130.57128152341744" y2="130.57128152341744" /><line  class="poloto_tick_line" stroke="black" x1="150" x2="650" y1="130.57128152341744" y2="130.57128152341744" /><text  class="poloto_tick_labels poloto_text" dominant-baseline="middle" text-anchor="end" x="135" y="130.57128152341744" >7</text><line  class="poloto_axis_lines" stroke="black" x1="150" x2="144" y1="120.92125579001544" y2="120.92125579001544" /><line  class="poloto_tick_line" stroke="black" x1="150" x2="650" y1="120.92125579001544" y2="120.92125579001544" /><text  class="poloto_tick_labels poloto_text" dominant-baseline="middle" text-anchor="end" x="135" y="120.92125579001544" >7.125</text><line  class="poloto_axis_lines" stroke="black" x1="150" x2="144" y1="111.27123005661343" y2="111.27123005661343" /><line  class="poloto_tick_line" stroke="black" x1="150" x2="650" y1="111.27123005661343" y2="111.27123005661343" /><text  class="poloto_tick_labels poloto_text" dominant-baseline="middle" text-anchor="end" x="135" y="111.27123005661343" >7.25</text><line  class="poloto_axis_lines" stroke="black" x1="150" x2="144" y1="101.62120432321154" y2="101.62120432321154" /><line  class="poloto_tick_line" stroke="black" x1="150" x2="650" y1="101.62120432321154" y2="101.62120432321154" /><text  class="poloto_tick_labels poloto_text" dominant-baseline="middle" text-anchor="end" x="135" y="101.62120432321154" >7.375</text><text  class="poloto_tick_labels poloto_text" dominant-baseline="middle" text-anchor="start" x="440.00000000000006" y="70" >¹2022-05-01 00:00:00 UTC in Months</text><line  class="poloto_axis_lines" stroke="black" x1="208.59375" x2="208.59375" y1="400" y2="405" /><line  class="poloto_tick_line" stroke="black" x1="208.59375" x2="208.59375" y1="400" y2="100.00000000000006" /><text  class="poloto_tick_labels poloto_text" dominant-baseline="start" text-anchor="middle" x="208.59375" y="430" >2022 May¹</text><line  class="poloto_axis_lines" stroke="black" x1="288.0208333333321" x2="288.0208333333321" y1="400" y2="405" /><line  class="poloto_tick_line" stroke="black" x1="288.0208333333321" x2="288.0208333333321" y1="400" y2="100.00000000000006" /><text  class="poloto_tick_labels poloto_text" dominant-baseline="start" text-anchor="middle" x="288.0208333333321" y="430" >2022 Jul</text><line  class="poloto_axis_lines" stroke="black" x1="368.75" x2="368.75" y1="400" y2="405" /><line  class="poloto_tick_line" stroke="black" x1="368.75" x2="368.75" y1="400" y2="100.00000000000006" /><text  class="poloto_tick_labels poloto_text" dominant-baseline="start" text-anchor="middle" x="368.75" y="430" >2022 Sep</text><line  class="poloto_axis_lines" stroke="black" x1="448.1770833333321" x2="448.1770833333321" y1="400" y2="405" /><line  class="poloto_tick_line" stroke="black" x1="448.1770833333321" x2="448.1770833333321" y1="400" y2="100.00000000000006" /><text  class="poloto_tick_labels poloto_text" dominant-baseline="start" text-anchor="middle" x="448.1770833333321" y="430" >2022 Nov</text><line  class="poloto_axis_lines" stroke="black" x1="527.6041666666642" x2="527.6041666666642" y1="400" y2="405" /><line  class="poloto_tick_line" stroke="black" x1="527.6041666666642" x2="527.6041666666642" y1="400" y2="100.00000000000006" /><text  class="poloto_tick_labels poloto_text" dominant-baseline="start" text-anchor="middle" x="527.6041666666642" y="430" >2023 Jan</text><line  class="poloto_axis_lines" stroke="black" x1="604.4270833333321" x2="604.4270833333321" y1="400" y2="405" /><line  class="poloto_tick_line" stroke="black" x1="604.4270833333321" x2="604.4270833333321" y1="400" y2="100.00000000000006" /><text  class="poloto_tick_labels poloto_text" dominant-baseline="start" text-anchor="middle" x="604.4270833333321" y="430" >2023 Mar</text><path  stroke="black" fill="none" class="poloto_axis_lines" d=" M 150 400 L 650 400" /><path  stroke="black" fill="none" class="poloto_axis_lines" d=" M 150 400 L 150 100.00000000000006" /></svg>