<svg class="poloto" width="800" height="500" viewBox="0 0 800 500" xmlns="http://www.w3.org/2000/svg"><style>.poloto{stroke-linecap:round;stroke-linejoin:round;font-family:Roboto,sans-serif;font-size:16px;}.poloto_background{fill:#262626;}.poloto_scatter{stroke-width:7}.poloto_tick_line{stroke:dimgray;stroke-width:0.5}.poloto_line{stroke-width:2}.poloto_text{fill: white;}.poloto_axis_lines{stroke: white;stroke-width:3;fill:none;stroke-dasharray:none}.poloto_title{font-size:24px;dominant-baseline:start;text-anchor:middle;}.poloto_xname{font-size:24px;dominant-baseline:start;text-anchor:middle;}.poloto_yname{font-size:24px;dominant-baseline:start;text-anchor:middle;}.poloto0stroke{stroke:blue;}.poloto1stroke{stroke:red;}.poloto2stroke{stroke:green;}.poloto3stroke{stroke:gold;}.poloto4stroke{stroke:aqua;}.poloto5stroke{stroke:lime;}.poloto6stroke{stroke:orange;}.poloto7stroke{stroke:chocolate;}.poloto0fill{fill:blue;}.poloto1fill{fill:red;}.poloto2fill{fill:green;}.poloto3fill{fill:gold;}.poloto4fill{fill:aqua;}.poloto5fill{fill:lime;}.poloto6fill{fill:orange;}.poloto7fill{fill:chocolate;}</style><circle  r="1e5" class="poloto_background" /><text  class="poloto_text poloto_legend_text" x="675" y="100" >Refinance 15</text><line  class="poloto_line poloto_legend_icon poloto0stroke poloto0legend" stroke="black" x1="680" x2="730" y1="81.25" y2="81.25" /><path  class="poloto_line poloto0stroke" fill="none" stroke="black" d=" M 150.00 392.46 L 151.67 400.00 L 156.69 389.32 L 158.36 380.17 L 160.03 389.32 L 160.03 389.32 L 163.38 358.81 L 168.39 357.20 L 170.07 367.88 L 171.74 344.83 L 173.41 346.44 L 175.08 341.61 L 180.10 343.22 L 181.77 336.78 L 181.77 336.78 L 185.12 337.37 L 186.79 314.32 L 191.81 324.32 L 193.48 327.54 L 195.15 327.54 L 196.82 326.69 L 198.49 321.78 L 205.18 278.73 L 206.86 297.88 L 208.53 283.05 L 210.20 277.29 L 210.20 277.29 L 216.89 299.58 L 220.23 303.64 L 221.91 294.58 L 226.92 283.81 L 228.60 305.25 L 230.27 294.58 L 230.27 294.58 L 233.61 292.88 L 238.63 296.19 L 240.30 306.86 L 240.30 306.86 L 241.97 297.80 L 243.65 308.56 L 245.32 292.88 L 250.33 325.08 L 252.01 324.32 L 253.68 306.86 L 253.68 306.86 L 255.35 314.32 L 257.02 317.63 L 262.04 317.63 L 263.71 329.15 L 265.38 329.15 L 267.06 329.15 L 268.73 329.15 L 275.42 317.63 L 277.09 314.32 L 278.76 315.93 L 280.43 315.93 L 280.43 315.93 L 287.12 305.25 L 288.80 305.25 L 290.47 296.19 L 297.16 281.36 L 298.83 250.76 L 300.50 254.15 L 302.17 254.15 L 303.85 275.59 L 308.86 254.15 L 310.54 254.15 L 312.21 273.90 L 313.88 277.29 L 320.57 277.29 L 322.24 275.59 L 323.91 280.59 L 325.59 285.51 L 327.26 296.19 L 333.95 303.64 L 335.62 294.58 L 337.29 287.12 L 338.96 283.81 L 343.98 285.51 L 347.32 285.51 L 349.00 283.81 L 355.69 282.20 L 355.69 282.20 L 355.69 282.20 L 355.69 282.20 L 355.69 282.20 L 355.69 282.20 L 359.03 282.20 L 359.03 282.20 L 359.03 282.20 L 359.03 282.20 L 359.03 282.20 L 359.03 282.20 L 367.39 294.58 L 370.74 297.80 L 372.41 325.93 L 374.08 329.15 L 379.10 329.15 L 380.77 327.54 L 382.44 305.25 L 384.11 299.49 L 385.79 285.51 L 390.80 296.19 L 390.80 296.19 L 392.47 287.12 L 395.82 296.19 L 395.82 296.19 L 404.18 296.19 L 405.85 262.46 L 407.53 282.20 L 414.21 248.39 L 417.56 248.39 L 417.56 248.39 L 420.90 260.76 L 427.59 254.15 L 427.59 254.15 L 427.59 254.15 L 427.59 254.15 L 427.59 254.15 L 427.59 254.15 L 427.59 254.15 L 427.59 254.15 L 427.59 254.15 L 432.61 254.15 L 442.64 232.63 L 449.33 235.17 L 449.33 235.17 L 454.35 235.17 L 461.04 235.17 L 462.71 235.17 L 462.71 235.17 L 462.71 235.17 L 462.71 235.17 L 462.71 235.17 L 484.45 235.17 L 486.12 235.17 L 496.15 139.75 L 497.83 130.68 L 499.50 130.68 L 559.70 159.15 L 566.39 159.15 L 568.06 159.15 L 569.73 175.51 L 573.08 184.49 L 573.08 184.49 L 579.77 184.49 L 581.44 184.49 L 583.11 184.49 L 584.78 184.49 L 589.80 184.49 L 591.47 184.49 L 594.82 184.49 L 596.49 184.49 L 601.51 184.49 L 603.18 184.49 L 603.18 184.49 L 608.19 184.49 L 613.21 184.49 L 614.88 184.49 L 616.56 184.49 L 618.23 184.49 L 619.90 184.49 L 626.59 209.15 L 628.26 180.68 L 629.93 159.15 L 631.61 169.92 L 636.62 169.92 L 638.29 169.92 L 638.29 169.92 L 641.64 193.05 L 643.31 193.05 L 648.33 193.05 L 650.00 193.05" /><text  class="poloto_text poloto_legend_text" x="675" y="150" >Refinance 20</text><line  class="poloto_line poloto_legend_icon poloto1stroke poloto1legend" stroke="black" x1="680" x2="730" y1="131.25" y2="131.25" /><path  class="poloto_line poloto1stroke" fill="none" stroke="black" d=" M 150.00 345.68 L 151.67 368.31 L 156.69 334.58 L 158.36 324.24 L 160.03 333.73 L 160.03 333.73 L 163.38 304.07 L 168.39 301.53 L 170.07 312.29 L 171.74 300.25 L 173.41 311.02 L 175.08 290.85 L 180.10 321.69 L 181.77 290.85 L 181.77 290.85 L 185.12 290.85 L 185.12 290.85 L 191.81 250.17 L 193.48 282.71 L 195.15 290.85 L 196.82 301.53 L 198.49 280.59 L 205.18 260.00 L 206.86 257.37 L 208.53 252.12 L 210.20 240.08 L 215.22 245.34 L 216.89 268.14 L 220.23 260.00 L 221.91 257.37 L 226.92 248.81 L 228.60 258.73 L 230.27 258.73 L 230.27 258.73 L 233.61 258.73 L 238.63 260.00 L 240.30 281.44 L 240.30 281.44 L 241.97 269.41 L 243.65 289.58 L 245.32 281.44 L 250.33 282.71 L 252.01 281.44 L 253.68 281.44 L 253.68 281.44 L 255.35 282.71 L 257.02 289.58 L 262.04 290.85 L 263.71 294.66 L 265.38 294.66 L 267.06 294.66 L 268.73 294.66 L 275.42 289.58 L 277.09 278.81 L 278.76 281.44 L 280.43 281.44 L 280.43 281.44 L 287.12 268.14 L 288.80 270.68 L 290.47 261.27 L 297.16 215.85 L 298.83 197.03 L 300.50 207.80 L 302.17 215.85 L 303.85 238.56 L 308.86 225.17 L 310.54 218.47 L 312.21 239.92 L 313.88 250.17 L 320.57 250.17 L 322.24 238.56 L 323.91 249.32 L 325.59 260.00 L 327.26 272.03 L 333.95 280.08 L 335.62 269.41 L 337.29 258.73 L 338.96 251.44 L 343.98 257.37 L 347.32 260.00 L 349.00 258.73 L 355.69 260.00 L 355.69 260.00 L 355.69 260.00 L 355.69 260.00 L 355.69 260.00 L 355.69 260.00 L 355.69 260.00 L 355.69 260.00 L 355.69 260.00 L 355.69 260.00 L 355.69 260.00 L 355.69 260.00 L 367.39 280.08 L 370.74 282.71 L 372.41 301.53 L 374.08 304.07 L 379.10 301.27 L 380.77 301.27 L 382.44 290.85 L 384.11 294.66 L 385.79 278.81 L 390.80 270.68 L 390.80 270.68 L 392.47 270.68 L 395.82 281.44 L 395.82 281.44 L 404.18 278.81 L 405.85 260.00 L 407.53 260.00 L 414.21 246.19 L 417.56 234.58 L 417.56 234.58 L 420.90 247.54 L 427.59 215.85 L 427.59 215.85 L 427.59 215.85 L 427.59 215.85 L 427.59 215.85 L 427.59 215.85 L 427.59 215.85 L 427.59 215.85 L 427.59 215.85 L 432.61 215.85 L 442.64 202.37 L 449.33 203.73 L 452.68 203.73 L 454.35 203.73 L 454.35 203.73 L 462.71 203.73 L 464.38 203.73 L 464.38 203.73 L 464.38 203.73 L 464.38 203.73 L 484.45 203.73 L 486.12 203.73 L 496.15 118.81 L 497.83 102.97 L 497.83 102.97 L 563.04 155.34 L 566.39 155.34 L 568.06 155.34 L 571.40 174.15 L 573.08 175.51 L 573.08 175.51 L 579.77 175.51 L 581.44 175.51 L 583.11 175.51 L 584.78 175.51 L 589.80 175.51 L 591.47 175.51 L 594.82 175.51 L 596.49 175.51 L 601.51 175.51 L 603.18 175.51 L 603.18 175.51 L 608.19 175.51 L 613.21 175.51 L 614.88 175.51 L 616.56 175.51 L 618.23 175.51 L 619.90 175.51 L 626.59 156.36 L 628.26 145.93 L 629.93 144.58 L 631.61 147.37 L 636.62 147.37 L 638.29 147.37 L 638.29 147.37 L 641.64 167.46 L 643.31 167.46 L 648.33 167.46 L 650.00 167.46" /><text  class="poloto_text poloto_legend_text" x="675" y="200" >Refinance 30</text><line  class="poloto_line poloto_legend_icon poloto2stroke poloto2legend" stroke="black" x1="680" x2="730" y1="181.25" y2="181.25" /><path  class="poloto_line poloto2stroke" fill="none" stroke="black" d=" M 150.00 343.31 L 151.67 351.36 L 156.69 338.81 L 158.36 328.98 L 160.03 330.85 L 160.03 330.85 L 163.38 310.25 L 168.39 308.47 L 170.07 319.15 L 171.74 307.54 L 173.41 318.22 L 175.08 297.71 L 180.10 307.54 L 181.77 286.95 L 183.44 286.95 L 185.12 286.02 L 186.79 260.00 L 191.81 264.58 L 193.48 276.27 L 195.15 286.95 L 196.82 277.20 L 198.49 265.51 L 205.18 256.61 L 206.86 242.12 L 208.53 240.17 L 210.20 238.14 L 215.22 242.12 L 216.89 258.73 L 220.23 256.61 L 221.91 254.66 L 226.92 244.07 L 228.60 255.59 L 230.27 244.07 L 230.27 244.07 L 233.61 244.07 L 238.63 246.02 L 240.30 264.58 L 240.30 264.58 L 241.97 255.59 L 243.65 256.61 L 245.32 257.54 L 250.33 265.51 L 252.01 256.61 L 253.68 256.61 L 253.68 256.61 L 255.35 266.44 L 257.02 267.46 L 262.04 268.39 L 263.71 277.20 L 265.38 277.20 L 267.06 279.07 L 268.73 279.07 L 275.42 275.25 L 277.09 264.58 L 278.76 266.44 L 280.43 265.51 L 280.43 265.51 L 287.12 255.59 L 288.80 255.59 L 290.47 245.00 L 297.16 202.12 L 298.83 171.78 L 300.50 190.34 L 302.17 202.12 L 303.85 212.80 L 308.86 203.05 L 310.54 202.12 L 312.21 221.61 L 313.88 223.56 L 320.57 223.56 L 322.24 211.86 L 323.91 221.61 L 325.59 232.29 L 327.26 255.59 L 333.95 256.61 L 335.62 245.00 L 337.29 224.58 L 338.96 221.61 L 343.98 241.10 L 347.32 223.56 L 349.00 222.54 L 355.69 242.12 L 355.69 242.12 L 355.69 242.12 L 355.69 242.12 L 355.69 242.12 L 355.69 242.12 L 359.03 242.12 L 359.03 242.12 L 359.03 242.12 L 359.03 242.12 L 359.03 242.12 L 359.03 242.12 L 367.39 254.66 L 370.74 256.61 L 372.41 275.25 L 374.08 287.88 L 379.10 286.95 L 380.77 286.95 L 382.44 265.51 L 384.11 268.39 L 385.79 254.66 L 390.80 265.51 L 390.80 265.51 L 392.47 257.54 L 395.82 266.44 L 395.82 266.44 L 404.18 264.58 L 405.85 246.02 L 407.53 245.00 L 414.21 220.59 L 417.56 211.86 L 417.56 211.86 L 420.90 222.54 L 427.59 210.85 L 427.59 210.85 L 427.59 210.85 L 427.59 210.85 L 427.59 210.85 L 427.59 210.85 L 427.59 210.85 L 427.59 210.85 L 432.61 210.85 L 432.61 209.83 L 442.64 197.03 L 449.33 175.51 L 449.33 175.51 L 454.35 175.51 L 454.35 175.51 L 462.71 175.51 L 464.38 175.51 L 464.38 175.51 L 464.38 175.51 L 464.38 175.51 L 484.45 175.51 L 486.12 175.51 L 496.15 127.03 L 497.83 100.00 L 497.83 100.00 L 563.04 146.44 L 566.39 146.44 L 568.06 146.44 L 569.73 150.76 L 573.08 160.59 L 573.08 160.59 L 579.77 160.59 L 581.44 160.59 L 583.11 160.59 L 584.78 160.59 L 589.80 160.59 L 591.47 160.59 L 594.82 160.59 L 596.49 160.59 L 601.51 160.59 L 603.18 160.59 L 603.18 160.59 L 608.19 160.59 L 613.21 160.59 L 614.88 160.59 L 616.56 160.59 L 618.23 160.59 L 619.90 160.59 L 626.59 144.24 L 628.26 152.88 L 629.93 132.37 L 631.61 152.88 L 636.62 152.88 L 638.29 152.88 L 638.29 152.88 L 641.64 152.88 L 643.31 152.88 L 648.33 152.88 L 650.00 152.88" /><text  class="poloto_labels poloto_text poloto_title" x="400" y="37.5" >lower.com purchase rates</text><text  class="poloto_labels poloto_text poloto_xname" x="400" y="481.25" >Date</text><text  class="poloto_labels poloto_text poloto_yname" transform="rotate(-90,37.5,250)" x="37.5" y="250" >Rate (%)</text><text  class="poloto_tick_labels poloto_text" dominant-baseline="middle" text-anchor="start" x="150" y="70" ></text><line  class="poloto_axis_lines" stroke="black" x1="150" x2="144" y1="390.2542372881356" y2="390.2542372881356" /><line  class="poloto_tick_line" stroke="black" x1="150" x2="650" y1="390.2542372881356" y2="390.2542372881356" /><text  class="poloto_tick_labels poloto_text" dominant-baseline="middle" text-anchor="end" x="135" y="390.2542372881356" >3.625</text><line  class="poloto_axis_lines" stroke="black" x1="150" x2="144" y1="379.66101694915255" y2="379.66101694915255" /><line  class="poloto_tick_line" stroke="black" x1="150" x2="650" y1="379.66101694915255" y2="379.66101694915255" /><text  class="poloto_tick_labels poloto_text" dominant-baseline="middle" text-anchor="end" x="135" y="379.66101694915255" >3.75</text><line  class="poloto_axis_lines" stroke="black" x1="150" x2="144" y1="369.06779661016947" y2="369.06779661016947" /><line  class="poloto_tick_line" stroke="black" x1="150" x2="650" y1="369.06779661016947" y2="369.06779661016947" /><text  class="poloto_tick_labels poloto_text" dominant-baseline="middle" text-anchor="end" x="135" y="369.06779661016947" >3.875</text><line  class="poloto_axis_lines" stroke="black" x1="150" x2="144" y1="358.47457627118644" y2="358.47457627118644" /><line  class="poloto_tick_line" stroke="black" x1="150" x2="650" y1="358.47457627118644" y2="358.47457627118644" /><text  class="poloto_tick_labels poloto_text" dominant-baseline="middle" text-anchor="end" x="135" y="358.47457627118644" >4</text><line  class="poloto_axis_lines" stroke="black" x1="150" x2="144" y1="347.8813559322034" y2="347.8813559322034" /><line  class="poloto_tick_line" stroke="black" x1="150" x2="650" y1="347.8813559322034" y2="347.8813559322034" /><text  class="poloto_tick_labels poloto_text" dominant-baseline="middle" text-anchor="end" x="135" y="347.8813559322034" >4.125</text><line  class="poloto_axis_lines" stroke="black" x1="150" x2="144" y1="337.2881355932203" y2="337.2881355932203" /><line  class="poloto_tick_line" stroke="black" x1="150" x2="650" y1="337.2881355932203" y2="337.2881355932203" /><text  class="poloto_tick_labels poloto_text" dominant-baseline="middle" text-anchor="end" x="135" y="337.2881355932203" >4.25</text><line  class="poloto_axis_lines" stroke="black" x1="150" x2="144" y1="326.6949152542373" y2="326.6949152542373" /><line  class="poloto_tick_line" stroke="black" x1="150" x2="650" y1="326.6949152542373" y2="326.6949152542373" /><text  class="poloto_tick_labels poloto_text" dominant-baseline="middle" text-anchor="end" x="135" y="326.6949152542373" >4.375</text><line  class="poloto_axis_lines" stroke="black" x1="150" x2="144" y1="316.10169491525426" y2="316.10169491525426" /><line  class="poloto_tick_line" stroke="black" x1="150" x2="650" y1="316.10169491525426" y2="316.10169491525426" /><text  class="poloto_tick_labels poloto_text" dominant-baseline="middle" text-anchor="end" x="135" y="316.10169491525426" >4.5</text><line  class="poloto_axis_lines" stroke="black" x1="150" x2="144" y1="305.50847457627117" y2="305.50847457627117" /><line  class="poloto_tick_line" stroke="black" x1="150" x2="650" y1="305.50847457627117" y2="305.50847457627117" /><text  class="poloto_tick_labels poloto_text" dominant-baseline="middle" text-anchor="end" x="135" y="305.50847457627117" >4.625</text><line  class="poloto_axis_lines" stroke="black" x1="150" x2="144" y1="294.91525423728814" y2="294.91525423728814" /><line  class="poloto_tick_line" stroke="black" x1="150" x2="650" y1="294.91525423728814" y2="294.91525423728814" /><text  class="poloto_tick_labels poloto_text" dominant-baseline="middle" text-anchor="end" x="135" y="294.91525423728814" >4.75</text><line  class="poloto_axis_lines" stroke="black" x1="150" x2="144" y1="284.3220338983051" y2="284.3220338983051" /><line  class="poloto_tick_line" stroke="black" x1="150" x2="650" y1="284.3220338983051" y2="284.3220338983051" /><text  class="poloto_tick_labels poloto_text" dominant-baseline="middle" text-anchor="end" x="135" y="284.3220338983051" >4.875</text><line  class="poloto_axis_lines" stroke="black" x1="150" x2="144" y1="273.728813559322" y2="273.728813559322" /><line  class="poloto_tick_line" stroke="black" x1="150" x2="650" y1="273.728813559322" y2="273.728813559322" /><text  class="poloto_tick_labels poloto_text" dominant-baseline="middle" text-anchor="end" x="135" y="273.728813559322" >5</text><line  class="poloto_axis_lines" stroke="black" x1="150" x2="144" y1="263.135593220339" y2="263.135593220339" /><line  class="poloto_tick_line" stroke="black" x1="150" x2="650" y1="263.135593220339" y2="263.135593220339" /><text  class="poloto_tick_labels poloto_text" dominant-baseline="middle" text-anchor="end" x="135" y="263.135593220339" >5.125</text><line  class="poloto_axis_lines" stroke="black" x1="150" x2="144" y1="252.54237288135596" y2="252.54237288135596" /><line  class="poloto_tick_line" stroke="black" x1="150" x2="650" y1="252.54237288135596" y2="252.54237288135596" /><text  class="poloto_tick_labels poloto_text" dominant-baseline="middle" text-anchor="end" x="135" y="252.54237288135596" >5.25</text><line  class="poloto_axis_lines" stroke="black" x1="150" x2="144" y1="241.94915254237287" y2="241.94915254237287" /><line  class="poloto_tick_line" stroke="black" x1="150" x2="650" y1="241.94915254237287" y2="241.94915254237287" /><text  class="poloto_tick_labels poloto_text" dominant-baseline="middle" text-anchor="end" x="135" y="241.94915254237287" >5.375</text><line  class="poloto_axis_lines" stroke="black" x1="150" x2="144" y1="231.35593220338984" y2="231.35593220338984" /><line  class="poloto_tick_line" stroke="black" x1="150" x2="650" y1="231.35593220338984" y2="231.35593220338984" /><text  class="poloto_tick_labels poloto_text" dominant-baseline="middle" text-anchor="end" x="135" y="231.35593220338984" >5.5</text><line  class="poloto_axis_lines" stroke="black" x1="150" x2="144" y1="220.7627118644068" y2="220.7627118644068" /><line  class="poloto_tick_line" stroke="black" x1="150" x2="650" y1="220.7627118644068" y2="220.7627118644068" /><text  class="poloto_tick_labels poloto_text" dominant-baseline="middle" text-anchor="end" x="135" y="220.7627118644068" >5.625</text><line  class="poloto_axis_lines" stroke="black" x1="150" x2="144" y1="210.16949152542372" y2="210.16949152542372" /><line  class="poloto_tick_line" stroke="black" x1="150" x2="650" y1="210.16949152542372" y2="210.16949152542372" /><text  class="poloto_tick_labels poloto_text" dominant-baseline="middle" text-anchor="end" x="135" y="210.16949152542372" >5.75</text><line  class="poloto_axis_lines" stroke="black" x1="150" x2="144" y1="199.5762711864407" y2="199.5762711864407" /><line  class="poloto_tick_line" stroke="black" x1="150" x2="650" y1="199.5762711864407" y2="199.5762711864407" /><text  class="poloto_tick_labels poloto_text" dominant-baseline="middle" text-anchor="end" x="135" y="199.5762711864407" >5.875</text><line  class="poloto_axis_lines" stroke="black" x1="150" x2="144" y1="188.98305084745766" y2="188.98305084745766" /><line  class="poloto_tick_line" stroke="black" x1="150" x2="650" y1="188.98305084745766" y2="188.98305084745766" /><text  class="poloto_tick_labels poloto_text" dominant-baseline="middle" text-anchor="end" x="135" y="188.98305084745766" >6</text><line  class="poloto_axis_lines" stroke="black" x1="150" x2="144" y1="178.38983050847457" y2="178.38983050847457" /><line  class="poloto_tick_line" stroke="black" x1="150" x2="650" y1="178.38983050847457" y2="178.38983050847457" /><text  class="poloto_tick_labels poloto_text" dominant-baseline="middle" text-anchor="end" x="135" y="178.38983050847457" >6.125</text><line  class="poloto_axis_lines" stroke="black" x1="150" x2="144" y1="167.7966101694915" y2="167.7966101694915" /><line  class="poloto_tick_line" stroke="black" x1="150" x2="650" y1="167.7966101694915" y2="167.7966101694915" /><text  class="poloto_tick_labels poloto_text" dominant-baseline="middle" text-anchor="end" x="135" y="167.7966101694915" >6.25</text><line  class="poloto_axis_lines" stroke="black" x1="150" x2="144" y1="157.2033898305085" y2="157.2033898305085" /><line  class="poloto_tick_line" stroke="black" x1="150" x2="650" y1="157.2033898305085" y2="157.2033898305085" /><text  class="poloto_tick_labels poloto_text" dominant-baseline="middle" text-anchor="end" x="135" y="157.2033898305085" >6.375</text><line  class="poloto_axis_lines" stroke="black" x1="150" x2="144" y1="146.61016949152543" y2="146.61016949152543" /><line  class="poloto_tick_line" stroke="black" x1="150" x2="650" y1="146.61016949152543" y2="146.61016949152543" /><text  class="poloto_tick_labels poloto_text" dominant-baseline="middle" text-anchor="end" x="135" y="146.61016949152543" >6.5</text><line  class="poloto_axis_lines" stroke="black" x1="150" x2="144" y1="136.01694915254234" y2="136.01694915254234" /><line  class="poloto_tick_line" stroke="black" x1="150" x2="650" y1="136.01694915254234" y2="136.01694915254234" /><text  class="poloto_tick_labels poloto_text" dominant-baseline="middle" text-anchor="end" x="135" y="136.01694915254234" >6.625</text><line  class="poloto_axis_lines" stroke="black" x1="150" x2="144" y1="125.42372881355936" y2="125.42372881355936" /><line  class="poloto_tick_line" stroke="black" x1="150" x2="650" y1="125.42372881355936" y2="125.42372881355936" /><text  class="poloto_tick_labels poloto_text" dominant-baseline="middle" text-anchor="end" x="135" y="125.42372881355936" >6.75</text><line  class="poloto_axis_lines" stroke="black" x1="150" x2="144" y1="114.83050847457628" y2="114.83050847457628" /><line  class="poloto_tick_line" stroke="black" x1="150" x2="650" y1="114.83050847457628" y2="114.83050847457628" /><text  class="poloto_tick_labels poloto_text" dominant-baseline="middle" text-anchor="end" x="135" y="114.83050847457628" >6.875</text><line  class="poloto_axis_lines" stroke="black" x1="150" x2="144" y1="104.23728813559319" y2="104.23728813559319" /><line  class="poloto_tick_line" stroke="black" x1="150" x2="650" y1="104.23728813559319" y2="104.23728813559319" /><text  class="poloto_tick_labels poloto_text" dominant-baseline="middle" text-anchor="end" x="135" y="104.23728813559319" >7</text><text  class="poloto_tick_labels poloto_text" dominant-baseline="middle" text-anchor="start" x="440.00000000000006" y="70" >¹2022-05-01 00:00:00 UTC in Months</text><line  class="poloto_axis_lines" stroke="black" x1="225.2508361204018" x2="225.2508361204018" y1="400" y2="405" /><line  class="poloto_tick_line" stroke="black" x1="225.2508361204018" x2="225.2508361204018" y1="400" y2="100" /><text  class="poloto_tick_labels poloto_text" dominant-baseline="start" text-anchor="middle" x="225.2508361204018" y="430" >2022 May¹</text><line  class="poloto_axis_lines" stroke="black" x1="327.25752508361256" x2="327.25752508361256" y1="400" y2="405" /><line  class="poloto_tick_line" stroke="black" x1="327.25752508361256" x2="327.25752508361256" y1="400" y2="100" /><text  class="poloto_tick_labels poloto_text" dominant-baseline="start" text-anchor="middle" x="327.25752508361256" y="430" >2022 Jul</text><line  class="poloto_axis_lines" stroke="black" x1="430.93645484949593" x2="430.93645484949593" y1="400" y2="405" /><line  class="poloto_tick_line" stroke="black" x1="430.93645484949593" x2="430.93645484949593" y1="400" y2="100" /><text  class="poloto_tick_labels poloto_text" dominant-baseline="start" text-anchor="middle" x="430.93645484949593" y="430" >2022 Sep</text><line  class="poloto_axis_lines" stroke="black" x1="532.9431438127067" x2="532.9431438127067" y1="400" y2="405" /><line  class="poloto_tick_line" stroke="black" x1="532.9431438127067" x2="532.9431438127067" y1="400" y2="100" /><text  class="poloto_tick_labels poloto_text" dominant-baseline="start" text-anchor="middle" x="532.9431438127067" y="430" >2022 Nov</text><line  class="poloto_axis_lines" stroke="black" x1="634.9498327759175" x2="634.9498327759175" y1="400" y2="405" /><line  class="poloto_tick_line" stroke="black" x1="634.9498327759175" x2="634.9498327759175" y1="400" y2="100" /><text  class="poloto_tick_labels poloto_text" dominant-baseline="start" text-anchor="middle" x="634.9498327759175" y="430" >2023 Jan</text><path  stroke="black" fill="none" class="poloto_axis_lines" d=" M 150 400 L 650 400" /><path  stroke="black" fill="none" class="poloto_axis_lines" d=" M 150 400 L 150 100" /></svg>