<svg class="poloto" width="800" height="500" viewBox="0 0 800 500" xmlns="http://www.w3.org/2000/svg"><style>.poloto{stroke-linecap:round;stroke-linejoin:round;font-family:Roboto,sans-serif;font-size:16px;}.poloto_background{fill:#262626;}.poloto_scatter{stroke-width:7}.poloto_tick_line{stroke:dimgray;stroke-width:0.5}.poloto_line{stroke-width:2}.poloto_text{fill: white;}.poloto_axis_lines{stroke: white;stroke-width:3;fill:none;stroke-dasharray:none}.poloto_title{font-size:24px;dominant-baseline:start;text-anchor:middle;}.poloto_xname{font-size:24px;dominant-baseline:start;text-anchor:middle;}.poloto_yname{font-size:24px;dominant-baseline:start;text-anchor:middle;}.poloto0stroke{stroke:blue;}.poloto1stroke{stroke:red;}.poloto2stroke{stroke:green;}.poloto3stroke{stroke:gold;}.poloto4stroke{stroke:aqua;}.poloto5stroke{stroke:lime;}.poloto6stroke{stroke:orange;}.poloto7stroke{stroke:chocolate;}.poloto0fill{fill:blue;}.poloto1fill{fill:red;}.poloto2fill{fill:green;}.poloto3fill{fill:gold;}.poloto4fill{fill:aqua;}.poloto5fill{fill:lime;}.poloto6fill{fill:orange;}.poloto7fill{fill:chocolate;}</style><circle  r="1e5" class="poloto_background" /><text  class="poloto_text poloto_legend_text" x="675" y="100" >Refinance 15</text><line  class="poloto_line poloto_legend_icon poloto0stroke poloto0legend" stroke="black" x1="680" x2="730" y1="81.25" y2="81.25" /><path  class="poloto_line poloto0stroke" fill="none" stroke="black" d=" M 150.00 392.46 L 151.93 400.00 L 157.72 389.32 L 159.65 380.17 L 161.58 389.32 L 161.58 389.32 L 165.44 358.81 L 171.24 357.20 L 173.17 367.88 L 175.10 344.83 L 177.03 346.44 L 178.96 341.61 L 184.75 343.22 L 186.68 336.78 L 186.68 336.78 L 190.54 337.37 L 192.47 314.32 L 198.26 324.32 L 200.19 327.54 L 202.12 327.54 L 204.05 326.69 L 205.98 321.78 L 213.71 278.73 L 215.64 297.88 L 217.57 283.05 L 219.50 277.29 L 219.50 277.29 L 227.22 299.58 L 231.08 303.64 L 233.01 294.58 L 238.80 283.81 L 240.73 305.25 L 242.66 294.58 L 242.66 294.58 L 246.53 292.88 L 252.32 296.19 L 254.25 306.86 L 254.25 306.86 L 256.18 297.80 L 258.11 308.56 L 260.04 292.88 L 265.83 325.08 L 267.76 324.32 L 269.69 306.86 L 269.69 306.86 L 271.62 314.32 L 273.55 317.63 L 279.34 317.63 L 281.27 329.15 L 283.20 329.15 L 285.14 329.15 L 287.07 329.15 L 294.79 317.63 L 296.72 314.32 L 298.65 315.93 L 300.58 315.93 L 300.58 315.93 L 308.30 305.25 L 310.23 305.25 L 312.16 296.19 L 319.88 281.36 L 321.81 250.76 L 323.75 254.15 L 325.68 254.15 L 327.61 275.59 L 333.40 254.15 L 335.33 254.15 L 337.26 273.90 L 339.19 277.29 L 346.91 277.29 L 348.84 275.59 L 350.77 280.59 L 352.70 285.51 L 354.63 296.19 L 362.36 303.64 L 364.29 294.58 L 366.22 287.12 L 368.15 283.81 L 373.94 285.51 L 377.80 285.51 L 379.73 283.81 L 387.45 282.20 L 387.45 282.20 L 387.45 282.20 L 387.45 282.20 L 387.45 282.20 L 387.45 282.20 L 391.31 282.20 L 391.31 282.20 L 391.31 282.20 L 391.31 282.20 L 391.31 282.20 L 391.31 282.20 L 400.97 294.58 L 404.83 297.80 L 406.76 325.93 L 408.69 329.15 L 414.48 329.15 L 416.41 327.54 L 418.34 305.25 L 420.27 299.49 L 422.20 285.51 L 427.99 296.19 L 427.99 296.19 L 429.92 287.12 L 433.78 296.19 L 433.78 296.19 L 443.44 296.19 L 445.37 262.46 L 447.30 282.20 L 455.02 248.39 L 458.88 248.39 L 458.88 248.39 L 462.74 260.76 L 470.46 254.15 L 470.46 254.15 L 470.46 254.15 L 470.46 254.15 L 470.46 254.15 L 470.46 254.15 L 470.46 254.15 L 470.46 254.15 L 470.46 254.15 L 476.25 254.15 L 487.84 232.63 L 495.56 235.17 L 495.56 235.17 L 501.35 235.17 L 509.07 235.17 L 511.00 235.17 L 511.00 235.17 L 511.00 235.17 L 511.00 235.17 L 511.00 235.17 L 536.10 235.17 L 538.03 235.17 L 549.61 139.75 L 551.54 130.68 L 553.47 130.68 L 622.97 159.15 L 630.69 159.15 L 632.63 159.15 L 634.56 175.51 L 638.42 184.49 L 638.42 184.49 L 646.14 184.49 L 648.07 184.49 L 650.00 184.49" /><text  class="poloto_text poloto_legend_text" x="675" y="150" >Refinance 20</text><line  class="poloto_line poloto_legend_icon poloto1stroke poloto1legend" stroke="black" x1="680" x2="730" y1="131.25" y2="131.25" /><path  class="poloto_line poloto1stroke" fill="none" stroke="black" d=" M 150.00 345.68 L 151.93 368.31 L 157.72 334.58 L 159.65 324.24 L 161.58 333.73 L 161.58 333.73 L 165.44 304.07 L 171.24 301.53 L 173.17 312.29 L 175.10 300.25 L 177.03 311.02 L 178.96 290.85 L 184.75 321.69 L 186.68 290.85 L 186.68 290.85 L 190.54 290.85 L 190.54 290.85 L 198.26 250.17 L 200.19 282.71 L 202.12 290.85 L 204.05 301.53 L 205.98 280.59 L 213.71 260.00 L 215.64 257.37 L 217.57 252.12 L 219.50 240.08 L 225.29 245.34 L 227.22 268.14 L 231.08 260.00 L 233.01 257.37 L 238.80 248.81 L 240.73 258.73 L 242.66 258.73 L 242.66 258.73 L 246.53 258.73 L 252.32 260.00 L 254.25 281.44 L 254.25 281.44 L 256.18 269.41 L 258.11 289.58 L 260.04 281.44 L 265.83 282.71 L 267.76 281.44 L 269.69 281.44 L 269.69 281.44 L 271.62 282.71 L 273.55 289.58 L 279.34 290.85 L 281.27 294.66 L 283.20 294.66 L 285.14 294.66 L 287.07 294.66 L 294.79 289.58 L 296.72 278.81 L 298.65 281.44 L 300.58 281.44 L 300.58 281.44 L 308.30 268.14 L 310.23 270.68 L 312.16 261.27 L 319.88 215.85 L 321.81 197.03 L 323.75 207.80 L 325.68 215.85 L 327.61 238.56 L 333.40 225.17 L 335.33 218.47 L 337.26 239.92 L 339.19 250.17 L 346.91 250.17 L 348.84 238.56 L 350.77 249.32 L 352.70 260.00 L 354.63 272.03 L 362.36 280.08 L 364.29 269.41 L 366.22 258.73 L 368.15 251.44 L 373.94 257.37 L 377.80 260.00 L 379.73 258.73 L 387.45 260.00 L 387.45 260.00 L 387.45 260.00 L 387.45 260.00 L 387.45 260.00 L 387.45 260.00 L 387.45 260.00 L 387.45 260.00 L 387.45 260.00 L 387.45 260.00 L 387.45 260.00 L 387.45 260.00 L 400.97 280.08 L 404.83 282.71 L 406.76 301.53 L 408.69 304.07 L 414.48 301.27 L 416.41 301.27 L 418.34 290.85 L 420.27 294.66 L 422.20 278.81 L 427.99 270.68 L 427.99 270.68 L 429.92 270.68 L 433.78 281.44 L 433.78 281.44 L 443.44 278.81 L 445.37 260.00 L 447.30 260.00 L 455.02 246.19 L 458.88 234.58 L 458.88 234.58 L 462.74 247.54 L 470.46 215.85 L 470.46 215.85 L 470.46 215.85 L 470.46 215.85 L 470.46 215.85 L 470.46 215.85 L 470.46 215.85 L 470.46 215.85 L 470.46 215.85 L 476.25 215.85 L 487.84 202.37 L 495.56 203.73 L 499.42 203.73 L 501.35 203.73 L 501.35 203.73 L 511.00 203.73 L 512.93 203.73 L 512.93 203.73 L 512.93 203.73 L 512.93 203.73 L 536.10 203.73 L 538.03 203.73 L 549.61 118.81 L 551.54 102.97 L 551.54 102.97 L 626.83 155.34 L 630.69 155.34 L 632.63 155.34 L 636.49 174.15 L 638.42 175.51 L 638.42 175.51 L 646.14 175.51 L 648.07 175.51 L 650.00 175.51" /><text  class="poloto_text poloto_legend_text" x="675" y="200" >Refinance 30</text><line  class="poloto_line poloto_legend_icon poloto2stroke poloto2legend" stroke="black" x1="680" x2="730" y1="181.25" y2="181.25" /><path  class="poloto_line poloto2stroke" fill="none" stroke="black" d=" M 150.00 343.31 L 151.93 351.36 L 157.72 338.81 L 159.65 328.98 L 161.58 330.85 L 161.58 330.85 L 165.44 310.25 L 171.24 308.47 L 173.17 319.15 L 175.10 307.54 L 177.03 318.22 L 178.96 297.71 L 184.75 307.54 L 186.68 286.95 L 188.61 286.95 L 190.54 286.02 L 192.47 260.00 L 198.26 264.58 L 200.19 276.27 L 202.12 286.95 L 204.05 277.20 L 205.98 265.51 L 213.71 256.61 L 215.64 242.12 L 217.57 240.17 L 219.50 238.14 L 225.29 242.12 L 227.22 258.73 L 231.08 256.61 L 233.01 254.66 L 238.80 244.07 L 240.73 255.59 L 242.66 244.07 L 242.66 244.07 L 246.53 244.07 L 252.32 246.02 L 254.25 264.58 L 254.25 264.58 L 256.18 255.59 L 258.11 256.61 L 260.04 257.54 L 265.83 265.51 L 267.76 256.61 L 269.69 256.61 L 269.69 256.61 L 271.62 266.44 L 273.55 267.46 L 279.34 268.39 L 281.27 277.20 L 283.20 277.20 L 285.14 279.07 L 287.07 279.07 L 294.79 275.25 L 296.72 264.58 L 298.65 266.44 L 300.58 265.51 L 300.58 265.51 L 308.30 255.59 L 310.23 255.59 L 312.16 245.00 L 319.88 202.12 L 321.81 171.78 L 323.75 190.34 L 325.68 202.12 L 327.61 212.80 L 333.40 203.05 L 335.33 202.12 L 337.26 221.61 L 339.19 223.56 L 346.91 223.56 L 348.84 211.86 L 350.77 221.61 L 352.70 232.29 L 354.63 255.59 L 362.36 256.61 L 364.29 245.00 L 366.22 224.58 L 368.15 221.61 L 373.94 241.10 L 377.80 223.56 L 379.73 222.54 L 387.45 242.12 L 387.45 242.12 L 387.45 242.12 L 387.45 242.12 L 387.45 242.12 L 387.45 242.12 L 391.31 242.12 L 391.31 242.12 L 391.31 242.12 L 391.31 242.12 L 391.31 242.12 L 391.31 242.12 L 400.97 254.66 L 404.83 256.61 L 406.76 275.25 L 408.69 287.88 L 414.48 286.95 L 416.41 286.95 L 418.34 265.51 L 420.27 268.39 L 422.20 254.66 L 427.99 265.51 L 427.99 265.51 L 429.92 257.54 L 433.78 266.44 L 433.78 266.44 L 443.44 264.58 L 445.37 246.02 L 447.30 245.00 L 455.02 220.59 L 458.88 211.86 L 458.88 211.86 L 462.74 222.54 L 470.46 210.85 L 470.46 210.85 L 470.46 210.85 L 470.46 210.85 L 470.46 210.85 L 470.46 210.85 L 470.46 210.85 L 470.46 210.85 L 476.25 210.85 L 476.25 209.83 L 487.84 197.03 L 495.56 175.51 L 495.56 175.51 L 501.35 175.51 L 501.35 175.51 L 511.00 175.51 L 512.93 175.51 L 512.93 175.51 L 512.93 175.51 L 512.93 175.51 L 536.10 175.51 L 538.03 175.51 L 549.61 127.03 L 551.54 100.00 L 551.54 100.00 L 626.83 146.44 L 630.69 146.44 L 632.63 146.44 L 634.56 150.76 L 638.42 160.59 L 638.42 160.59 L 646.14 160.59 L 648.07 160.59 L 650.00 160.59" /><text  class="poloto_labels poloto_text poloto_title" x="400" y="37.5" >lower.com purchase rates</text><text  class="poloto_labels poloto_text poloto_xname" x="400" y="481.25" >Date</text><text  class="poloto_labels poloto_text poloto_yname" transform="rotate(-90,37.5,250)" x="37.5" y="250" >Rate (%)</text><text  class="poloto_tick_labels poloto_text" dominant-baseline="middle" text-anchor="start" x="150" y="70" ></text><line  class="poloto_axis_lines" stroke="black" x1="150" x2="144" y1="390.2542372881356" y2="390.2542372881356" /><line  class="poloto_tick_line" stroke="black" x1="150" x2="650" y1="390.2542372881356" y2="390.2542372881356" /><text  class="poloto_tick_labels poloto_text" dominant-baseline="middle" text-anchor="end" x="135" y="390.2542372881356" >3.625</text><line  class="poloto_axis_lines" stroke="black" x1="150" x2="144" y1="379.66101694915255" y2="379.66101694915255" /><line  class="poloto_tick_line" stroke="black" x1="150" x2="650" y1="379.66101694915255" y2="379.66101694915255" /><text  class="poloto_tick_labels poloto_text" dominant-baseline="middle" text-anchor="end" x="135" y="379.66101694915255" >3.75</text><line  class="poloto_axis_lines" stroke="black" x1="150" x2="144" y1="369.06779661016947" y2="369.06779661016947" /><line  class="poloto_tick_line" stroke="black" x1="150" x2="650" y1="369.06779661016947" y2="369.06779661016947" /><text  class="poloto_tick_labels poloto_text" dominant-baseline="middle" text-anchor="end" x="135" y="369.06779661016947" >3.875</text><line  class="poloto_axis_lines" stroke="black" x1="150" x2="144" y1="358.47457627118644" y2="358.47457627118644" /><line  class="poloto_tick_line" stroke="black" x1="150" x2="650" y1="358.47457627118644" y2="358.47457627118644" /><text  class="poloto_tick_labels poloto_text" dominant-baseline="middle" text-anchor="end" x="135" y="358.47457627118644" >4</text><line  class="poloto_axis_lines" stroke="black" x1="150" x2="144" y1="347.8813559322034" y2="347.8813559322034" /><line  class="poloto_tick_line" stroke="black" x1="150" x2="650" y1="347.8813559322034" y2="347.8813559322034" /><text  class="poloto_tick_labels poloto_text" dominant-baseline="middle" text-anchor="end" x="135" y="347.8813559322034" >4.125</text><line  class="poloto_axis_lines" stroke="black" x1="150" x2="144" y1="337.2881355932203" y2="337.2881355932203" /><line  class="poloto_tick_line" stroke="black" x1="150" x2="650" y1="337.2881355932203" y2="337.2881355932203" /><text  class="poloto_tick_labels poloto_text" dominant-baseline="middle" text-anchor="end" x="135" y="337.2881355932203" >4.25</text><line  class="poloto_axis_lines" stroke="black" x1="150" x2="144" y1="326.6949152542373" y2="326.6949152542373" /><line  class="poloto_tick_line" stroke="black" x1="150" x2="650" y1="326.6949152542373" y2="326.6949152542373" /><text  class="poloto_tick_labels poloto_text" dominant-baseline="middle" text-anchor="end" x="135" y="326.6949152542373" >4.375</text><line  class="poloto_axis_lines" stroke="black" x1="150" x2="144" y1="316.10169491525426" y2="316.10169491525426" /><line  class="poloto_tick_line" stroke="black" x1="150" x2="650" y1="316.10169491525426" y2="316.10169491525426" /><text  class="poloto_tick_labels poloto_text" dominant-baseline="middle" text-anchor="end" x="135" y="316.10169491525426" >4.5</text><line  class="poloto_axis_lines" stroke="black" x1="150" x2="144" y1="305.50847457627117" y2="305.50847457627117" /><line  class="poloto_tick_line" stroke="black" x1="150" x2="650" y1="305.50847457627117" y2="305.50847457627117" /><text  class="poloto_tick_labels poloto_text" dominant-baseline="middle" text-anchor="end" x="135" y="305.50847457627117" >4.625</text><line  class="poloto_axis_lines" stroke="black" x1="150" x2="144" y1="294.91525423728814" y2="294.91525423728814" /><line  class="poloto_tick_line" stroke="black" x1="150" x2="650" y1="294.91525423728814" y2="294.91525423728814" /><text  class="poloto_tick_labels poloto_text" dominant-baseline="middle" text-anchor="end" x="135" y="294.91525423728814" >4.75</text><line  class="poloto_axis_lines" stroke="black" x1="150" x2="144" y1="284.3220338983051" y2="284.3220338983051" /><line  class="poloto_tick_line" stroke="black" x1="150" x2="650" y1="284.3220338983051" y2="284.3220338983051" /><text  class="poloto_tick_labels poloto_text" dominant-baseline="middle" text-anchor="end" x="135" y="284.3220338983051" >4.875</text><line  class="poloto_axis_lines" stroke="black" x1="150" x2="144" y1="273.728813559322" y2="273.728813559322" /><line  class="poloto_tick_line" stroke="black" x1="150" x2="650" y1="273.728813559322" y2="273.728813559322" /><text  class="poloto_tick_labels poloto_text" dominant-baseline="middle" text-anchor="end" x="135" y="273.728813559322" >5</text><line  class="poloto_axis_lines" stroke="black" x1="150" x2="144" y1="263.135593220339" y2="263.135593220339" /><line  class="poloto_tick_line" stroke="black" x1="150" x2="650" y1="263.135593220339" y2="263.135593220339" /><text  class="poloto_tick_labels poloto_text" dominant-baseline="middle" text-anchor="end" x="135" y="263.135593220339" >5.125</text><line  class="poloto_axis_lines" stroke="black" x1="150" x2="144" y1="252.54237288135596" y2="252.54237288135596" /><line  class="poloto_tick_line" stroke="black" x1="150" x2="650" y1="252.54237288135596" y2="252.54237288135596" /><text  class="poloto_tick_labels poloto_text" dominant-baseline="middle" text-anchor="end" x="135" y="252.54237288135596" >5.25</text><line  class="poloto_axis_lines" stroke="black" x1="150" x2="144" y1="241.94915254237287" y2="241.94915254237287" /><line  class="poloto_tick_line" stroke="black" x1="150" x2="650" y1="241.94915254237287" y2="241.94915254237287" /><text  class="poloto_tick_labels poloto_text" dominant-baseline="middle" text-anchor="end" x="135" y="241.94915254237287" >5.375</text><line  class="poloto_axis_lines" stroke="black" x1="150" x2="144" y1="231.35593220338984" y2="231.35593220338984" /><line  class="poloto_tick_line" stroke="black" x1="150" x2="650" y1="231.35593220338984" y2="231.35593220338984" /><text  class="poloto_tick_labels poloto_text" dominant-baseline="middle" text-anchor="end" x="135" y="231.35593220338984" >5.5</text><line  class="poloto_axis_lines" stroke="black" x1="150" x2="144" y1="220.7627118644068" y2="220.7627118644068" /><line  class="poloto_tick_line" stroke="black" x1="150" x2="650" y1="220.7627118644068" y2="220.7627118644068" /><text  class="poloto_tick_labels poloto_text" dominant-baseline="middle" text-anchor="end" x="135" y="220.7627118644068" >5.625</text><line  class="poloto_axis_lines" stroke="black" x1="150" x2="144" y1="210.16949152542372" y2="210.16949152542372" /><line  class="poloto_tick_line" stroke="black" x1="150" x2="650" y1="210.16949152542372" y2="210.16949152542372" /><text  class="poloto_tick_labels poloto_text" dominant-baseline="middle" text-anchor="end" x="135" y="210.16949152542372" >5.75</text><line  class="poloto_axis_lines" stroke="black" x1="150" x2="144" y1="199.5762711864407" y2="199.5762711864407" /><line  class="poloto_tick_line" stroke="black" x1="150" x2="650" y1="199.5762711864407" y2="199.5762711864407" /><text  class="poloto_tick_labels poloto_text" dominant-baseline="middle" text-anchor="end" x="135" y="199.5762711864407" >5.875</text><line  class="poloto_axis_lines" stroke="black" x1="150" x2="144" y1="188.98305084745766" y2="188.98305084745766" /><line  class="poloto_tick_line" stroke="black" x1="150" x2="650" y1="188.98305084745766" y2="188.98305084745766" /><text  class="poloto_tick_labels poloto_text" dominant-baseline="middle" text-anchor="end" x="135" y="188.98305084745766" >6</text><line  class="poloto_axis_lines" stroke="black" x1="150" x2="144" y1="178.38983050847457" y2="178.38983050847457" /><line  class="poloto_tick_line" stroke="black" x1="150" x2="650" y1="178.38983050847457" y2="178.38983050847457" /><text  class="poloto_tick_labels poloto_text" dominant-baseline="middle" text-anchor="end" x="135" y="178.38983050847457" >6.125</text><line  class="poloto_axis_lines" stroke="black" x1="150" x2="144" y1="167.7966101694915" y2="167.7966101694915" /><line  class="poloto_tick_line" stroke="black" x1="150" x2="650" y1="167.7966101694915" y2="167.7966101694915" /><text  class="poloto_tick_labels poloto_text" dominant-baseline="middle" text-anchor="end" x="135" y="167.7966101694915" >6.25</text><line  class="poloto_axis_lines" stroke="black" x1="150" x2="144" y1="157.2033898305085" y2="157.2033898305085" /><line  class="poloto_tick_line" stroke="black" x1="150" x2="650" y1="157.2033898305085" y2="157.2033898305085" /><text  class="poloto_tick_labels poloto_text" dominant-baseline="middle" text-anchor="end" x="135" y="157.2033898305085" >6.375</text><line  class="poloto_axis_lines" stroke="black" x1="150" x2="144" y1="146.61016949152543" y2="146.61016949152543" /><line  class="poloto_tick_line" stroke="black" x1="150" x2="650" y1="146.61016949152543" y2="146.61016949152543" /><text  class="poloto_tick_labels poloto_text" dominant-baseline="middle" text-anchor="end" x="135" y="146.61016949152543" >6.5</text><line  class="poloto_axis_lines" stroke="black" x1="150" x2="144" y1="136.01694915254234" y2="136.01694915254234" /><line  class="poloto_tick_line" stroke="black" x1="150" x2="650" y1="136.01694915254234" y2="136.01694915254234" /><text  class="poloto_tick_labels poloto_text" dominant-baseline="middle" text-anchor="end" x="135" y="136.01694915254234" >6.625</text><line  class="poloto_axis_lines" stroke="black" x1="150" x2="144" y1="125.42372881355936" y2="125.42372881355936" /><line  class="poloto_tick_line" stroke="black" x1="150" x2="650" y1="125.42372881355936" y2="125.42372881355936" /><text  class="poloto_tick_labels poloto_text" dominant-baseline="middle" text-anchor="end" x="135" y="125.42372881355936" >6.75</text><line  class="poloto_axis_lines" stroke="black" x1="150" x2="144" y1="114.83050847457628" y2="114.83050847457628" /><line  class="poloto_tick_line" stroke="black" x1="150" x2="650" y1="114.83050847457628" y2="114.83050847457628" /><text  class="poloto_tick_labels poloto_text" dominant-baseline="middle" text-anchor="end" x="135" y="114.83050847457628" >6.875</text><line  class="poloto_axis_lines" stroke="black" x1="150" x2="144" y1="104.23728813559319" y2="104.23728813559319" /><line  class="poloto_tick_line" stroke="black" x1="150" x2="650" y1="104.23728813559319" y2="104.23728813559319" /><text  class="poloto_tick_labels poloto_text" dominant-baseline="middle" text-anchor="end" x="135" y="104.23728813559319" >7</text><text  class="poloto_tick_labels poloto_text" dominant-baseline="middle" text-anchor="start" x="440.00000000000006" y="70" >¹2022-05-01 00:00:00 UTC in Months</text><line  class="poloto_axis_lines" stroke="black" x1="236.87258687258873" x2="236.87258687258873" y1="400" y2="405" /><line  class="poloto_tick_line" stroke="black" x1="236.87258687258873" x2="236.87258687258873" y1="400" y2="100" /><text  class="poloto_tick_labels poloto_text" dominant-baseline="start" text-anchor="middle" x="236.87258687258873" y="430" >2022 May¹</text><line  class="poloto_axis_lines" stroke="black" x1="354.6332046332027" x2="354.6332046332027" y1="400" y2="405" /><line  class="poloto_tick_line" stroke="black" x1="354.6332046332027" x2="354.6332046332027" y1="400" y2="100" /><text  class="poloto_tick_labels poloto_text" dominant-baseline="start" text-anchor="middle" x="354.6332046332027" y="430" >2022 Jul</text><line  class="poloto_axis_lines" stroke="black" x1="474.3243243243196" x2="474.3243243243196" y1="400" y2="405" /><line  class="poloto_tick_line" stroke="black" x1="474.3243243243196" x2="474.3243243243196" y1="400" y2="100" /><text  class="poloto_tick_labels poloto_text" dominant-baseline="start" text-anchor="middle" x="474.3243243243196" y="430" >2022 Sep</text><line  class="poloto_axis_lines" stroke="black" x1="592.0849420849408" x2="592.0849420849408" y1="400" y2="405" /><line  class="poloto_tick_line" stroke="black" x1="592.0849420849408" x2="592.0849420849408" y1="400" y2="100" /><text  class="poloto_tick_labels poloto_text" dominant-baseline="start" text-anchor="middle" x="592.0849420849408" y="430" >2022 Nov</text><path  stroke="black" fill="none" class="poloto_axis_lines" d=" M 150 400 L 650 400" /><path  stroke="black" fill="none" class="poloto_axis_lines" d=" M 150 400 L 150 100" /></svg>