<svg class="poloto" width="800" height="500" viewBox="0 0 800 500" xmlns="http://www.w3.org/2000/svg"><style>.poloto{stroke-linecap:round;stroke-linejoin:round;font-family:Roboto,sans-serif;font-size:16px;}.poloto_background{fill:#262626;}.poloto_scatter{stroke-width:7}.poloto_tick_line{stroke:dimgray;stroke-width:0.5}.poloto_line{stroke-width:2}.poloto_text{fill: white;}.poloto_axis_lines{stroke: white;stroke-width:3;fill:none;stroke-dasharray:none}.poloto_title{font-size:24px;dominant-baseline:start;text-anchor:middle;}.poloto_xname{font-size:24px;dominant-baseline:start;text-anchor:middle;}.poloto_yname{font-size:24px;dominant-baseline:start;text-anchor:middle;}.poloto0stroke{stroke:blue;}.poloto1stroke{stroke:red;}.poloto2stroke{stroke:green;}.poloto3stroke{stroke:gold;}.poloto4stroke{stroke:aqua;}.poloto5stroke{stroke:lime;}.poloto6stroke{stroke:orange;}.poloto7stroke{stroke:chocolate;}.poloto0fill{fill:blue;}.poloto1fill{fill:red;}.poloto2fill{fill:green;}.poloto3fill{fill:gold;}.poloto4fill{fill:aqua;}.poloto5fill{fill:lime;}.poloto6fill{fill:orange;}.poloto7fill{fill:chocolate;}</style><circle  r="1e5" class="poloto_background" /><text  class="poloto_text poloto_legend_text" x="675" y="100" >Refinance 15</text><line  class="poloto_line poloto_legend_icon poloto0stroke poloto0legend" stroke="black" x1="680" x2="730" y1="81.25" y2="81.25" /><path  class="poloto_line poloto0stroke" fill="none" stroke="black" d=" M 150.00 392.46 L 151.53 400.00 L 156.13 389.32 L 157.67 380.17 L 159.20 389.32 L 159.20 389.32 L 162.27 358.81 L 166.87 357.20 L 168.40 367.88 L 169.94 344.83 L 171.47 346.44 L 173.01 341.61 L 177.61 343.22 L 179.14 336.78 L 179.14 336.78 L 182.21 337.37 L 183.74 314.32 L 188.34 324.32 L 189.88 327.54 L 191.41 327.54 L 192.94 326.69 L 194.48 321.78 L 200.61 278.73 L 202.15 297.88 L 203.68 283.05 L 205.21 277.29 L 205.21 277.29 L 211.35 299.58 L 214.42 303.64 L 215.95 294.58 L 220.55 283.81 L 222.09 305.25 L 223.62 294.58 L 223.62 294.58 L 226.69 292.88 L 231.29 296.19 L 232.82 306.86 L 232.82 306.86 L 234.36 297.80 L 235.89 308.56 L 237.42 292.88 L 242.02 325.08 L 243.56 324.32 L 245.09 306.86 L 245.09 306.86 L 246.63 314.32 L 248.16 317.63 L 252.76 317.63 L 254.29 329.15 L 255.83 329.15 L 257.36 329.15 L 258.90 329.15 L 265.03 317.63 L 266.56 314.32 L 268.10 315.93 L 269.63 315.93 L 269.63 315.93 L 275.77 305.25 L 277.30 305.25 L 278.83 296.19 L 284.97 281.36 L 286.50 250.76 L 288.04 254.15 L 289.57 254.15 L 291.10 275.59 L 295.71 254.15 L 297.24 254.15 L 298.77 273.90 L 300.31 277.29 L 306.44 277.29 L 307.98 275.59 L 309.51 280.59 L 311.04 285.51 L 312.58 296.19 L 318.71 303.64 L 320.25 294.58 L 321.78 287.12 L 323.31 283.81 L 327.91 285.51 L 330.98 285.51 L 332.52 283.81 L 338.65 282.20 L 338.65 282.20 L 338.65 282.20 L 338.65 282.20 L 338.65 282.20 L 338.65 282.20 L 341.72 282.20 L 341.72 282.20 L 341.72 282.20 L 341.72 282.20 L 341.72 282.20 L 341.72 282.20 L 349.39 294.58 L 352.45 297.80 L 353.99 325.93 L 355.52 329.15 L 360.12 329.15 L 361.66 327.54 L 363.19 305.25 L 364.72 299.49 L 366.26 285.51 L 370.86 296.19 L 370.86 296.19 L 372.39 287.12 L 375.46 296.19 L 375.46 296.19 L 383.13 296.19 L 384.66 262.46 L 386.20 282.20 L 392.33 248.39 L 395.40 248.39 L 395.40 248.39 L 398.47 260.76 L 404.60 254.15 L 404.60 254.15 L 404.60 254.15 L 404.60 254.15 L 404.60 254.15 L 404.60 254.15 L 404.60 254.15 L 404.60 254.15 L 404.60 254.15 L 409.20 254.15 L 418.40 232.63 L 424.54 235.17 L 424.54 235.17 L 429.14 235.17 L 435.28 235.17 L 436.81 235.17 L 436.81 235.17 L 436.81 235.17 L 436.81 235.17 L 436.81 235.17 L 456.75 235.17 L 458.28 235.17 L 467.48 139.75 L 469.02 130.68 L 470.55 130.68 L 525.77 159.15 L 531.90 159.15 L 533.44 159.15 L 534.97 175.51 L 538.04 184.49 L 538.04 184.49 L 544.17 184.49 L 545.71 184.49 L 547.24 184.49 L 548.77 184.49 L 553.37 184.49 L 554.91 184.49 L 557.98 184.49 L 559.51 184.49 L 564.11 184.49 L 565.64 184.49 L 565.64 184.49 L 570.25 184.49 L 574.85 184.49 L 576.38 184.49 L 577.91 184.49 L 579.45 184.49 L 580.98 184.49 L 587.12 209.15 L 588.65 180.68 L 590.18 159.15 L 591.72 169.92 L 596.32 169.92 L 597.85 169.92 L 597.85 169.92 L 600.92 193.05 L 602.45 193.05 L 607.06 193.05 L 608.59 193.05 L 610.12 193.05 L 611.66 193.05 L 613.19 193.05 L 613.19 193.05 L 613.19 193.05 L 613.19 193.05 L 620.86 193.05 L 623.93 193.05 L 628.53 193.05 L 630.06 193.05 L 633.13 193.05 L 634.66 193.05 L 640.80 193.05 L 642.33 193.05 L 643.87 193.05 L 645.40 223.56 L 650.00 230.34" /><text  class="poloto_text poloto_legend_text" x="675" y="150" >Refinance 20</text><line  class="poloto_line poloto_legend_icon poloto1stroke poloto1legend" stroke="black" x1="680" x2="730" y1="131.25" y2="131.25" /><path  class="poloto_line poloto1stroke" fill="none" stroke="black" d=" M 150.00 345.68 L 151.53 368.31 L 156.13 334.58 L 157.67 324.24 L 159.20 333.73 L 159.20 333.73 L 162.27 304.07 L 166.87 301.53 L 168.40 312.29 L 169.94 300.25 L 171.47 311.02 L 173.01 290.85 L 177.61 321.69 L 179.14 290.85 L 179.14 290.85 L 182.21 290.85 L 182.21 290.85 L 188.34 250.17 L 189.88 282.71 L 191.41 290.85 L 192.94 301.53 L 194.48 280.59 L 200.61 260.00 L 202.15 257.37 L 203.68 252.12 L 205.21 240.08 L 209.82 245.34 L 211.35 268.14 L 214.42 260.00 L 215.95 257.37 L 220.55 248.81 L 222.09 258.73 L 223.62 258.73 L 223.62 258.73 L 226.69 258.73 L 231.29 260.00 L 232.82 281.44 L 232.82 281.44 L 234.36 269.41 L 235.89 289.58 L 237.42 281.44 L 242.02 282.71 L 243.56 281.44 L 245.09 281.44 L 245.09 281.44 L 246.63 282.71 L 248.16 289.58 L 252.76 290.85 L 254.29 294.66 L 255.83 294.66 L 257.36 294.66 L 258.90 294.66 L 265.03 289.58 L 266.56 278.81 L 268.10 281.44 L 269.63 281.44 L 269.63 281.44 L 275.77 268.14 L 277.30 270.68 L 278.83 261.27 L 284.97 215.85 L 286.50 197.03 L 288.04 207.80 L 289.57 215.85 L 291.10 238.56 L 295.71 225.17 L 297.24 218.47 L 298.77 239.92 L 300.31 250.17 L 306.44 250.17 L 307.98 238.56 L 309.51 249.32 L 311.04 260.00 L 312.58 272.03 L 318.71 280.08 L 320.25 269.41 L 321.78 258.73 L 323.31 251.44 L 327.91 257.37 L 330.98 260.00 L 332.52 258.73 L 338.65 260.00 L 338.65 260.00 L 338.65 260.00 L 338.65 260.00 L 338.65 260.00 L 338.65 260.00 L 338.65 260.00 L 338.65 260.00 L 338.65 260.00 L 338.65 260.00 L 338.65 260.00 L 338.65 260.00 L 349.39 280.08 L 352.45 282.71 L 353.99 301.53 L 355.52 304.07 L 360.12 301.27 L 361.66 301.27 L 363.19 290.85 L 364.72 294.66 L 366.26 278.81 L 370.86 270.68 L 370.86 270.68 L 372.39 270.68 L 375.46 281.44 L 375.46 281.44 L 383.13 278.81 L 384.66 260.00 L 386.20 260.00 L 392.33 246.19 L 395.40 234.58 L 395.40 234.58 L 398.47 247.54 L 404.60 215.85 L 404.60 215.85 L 404.60 215.85 L 404.60 215.85 L 404.60 215.85 L 404.60 215.85 L 404.60 215.85 L 404.60 215.85 L 404.60 215.85 L 409.20 215.85 L 418.40 202.37 L 424.54 203.73 L 427.61 203.73 L 429.14 203.73 L 429.14 203.73 L 436.81 203.73 L 438.34 203.73 L 438.34 203.73 L 438.34 203.73 L 438.34 203.73 L 456.75 203.73 L 458.28 203.73 L 467.48 118.81 L 469.02 102.97 L 469.02 102.97 L 528.83 155.34 L 531.90 155.34 L 533.44 155.34 L 536.50 174.15 L 538.04 175.51 L 538.04 175.51 L 544.17 175.51 L 545.71 175.51 L 547.24 175.51 L 548.77 175.51 L 553.37 175.51 L 554.91 175.51 L 557.98 175.51 L 559.51 175.51 L 564.11 175.51 L 565.64 175.51 L 565.64 175.51 L 570.25 175.51 L 574.85 175.51 L 576.38 175.51 L 577.91 175.51 L 579.45 175.51 L 580.98 175.51 L 587.12 156.36 L 588.65 145.93 L 590.18 144.58 L 591.72 147.37 L 596.32 147.37 L 597.85 147.37 L 597.85 147.37 L 600.92 167.46 L 602.45 167.46 L 607.06 167.46 L 608.59 167.46 L 610.12 167.46 L 611.66 167.46 L 613.19 167.46 L 613.19 167.46 L 619.33 167.46 L 619.33 167.46 L 620.86 167.46 L 623.93 167.46 L 628.53 167.46 L 630.06 167.46 L 633.13 167.46 L 634.66 167.46 L 640.80 167.46 L 642.33 167.46 L 643.87 167.46 L 645.40 190.34 L 650.00 188.98" /><text  class="poloto_text poloto_legend_text" x="675" y="200" >Refinance 30</text><line  class="poloto_line poloto_legend_icon poloto2stroke poloto2legend" stroke="black" x1="680" x2="730" y1="181.25" y2="181.25" /><path  class="poloto_line poloto2stroke" fill="none" stroke="black" d=" M 150.00 343.31 L 151.53 351.36 L 156.13 338.81 L 157.67 328.98 L 159.20 330.85 L 159.20 330.85 L 162.27 310.25 L 166.87 308.47 L 168.40 319.15 L 169.94 307.54 L 171.47 318.22 L 173.01 297.71 L 177.61 307.54 L 179.14 286.95 L 180.67 286.95 L 182.21 286.02 L 183.74 260.00 L 188.34 264.58 L 189.88 276.27 L 191.41 286.95 L 192.94 277.20 L 194.48 265.51 L 200.61 256.61 L 202.15 242.12 L 203.68 240.17 L 205.21 238.14 L 209.82 242.12 L 211.35 258.73 L 214.42 256.61 L 215.95 254.66 L 220.55 244.07 L 222.09 255.59 L 223.62 244.07 L 223.62 244.07 L 226.69 244.07 L 231.29 246.02 L 232.82 264.58 L 232.82 264.58 L 234.36 255.59 L 235.89 256.61 L 237.42 257.54 L 242.02 265.51 L 243.56 256.61 L 245.09 256.61 L 245.09 256.61 L 246.63 266.44 L 248.16 267.46 L 252.76 268.39 L 254.29 277.20 L 255.83 277.20 L 257.36 279.07 L 258.90 279.07 L 265.03 275.25 L 266.56 264.58 L 268.10 266.44 L 269.63 265.51 L 269.63 265.51 L 275.77 255.59 L 277.30 255.59 L 278.83 245.00 L 284.97 202.12 L 286.50 171.78 L 288.04 190.34 L 289.57 202.12 L 291.10 212.80 L 295.71 203.05 L 297.24 202.12 L 298.77 221.61 L 300.31 223.56 L 306.44 223.56 L 307.98 211.86 L 309.51 221.61 L 311.04 232.29 L 312.58 255.59 L 318.71 256.61 L 320.25 245.00 L 321.78 224.58 L 323.31 221.61 L 327.91 241.10 L 330.98 223.56 L 332.52 222.54 L 338.65 242.12 L 338.65 242.12 L 338.65 242.12 L 338.65 242.12 L 338.65 242.12 L 338.65 242.12 L 341.72 242.12 L 341.72 242.12 L 341.72 242.12 L 341.72 242.12 L 341.72 242.12 L 341.72 242.12 L 349.39 254.66 L 352.45 256.61 L 353.99 275.25 L 355.52 287.88 L 360.12 286.95 L 361.66 286.95 L 363.19 265.51 L 364.72 268.39 L 366.26 254.66 L 370.86 265.51 L 370.86 265.51 L 372.39 257.54 L 375.46 266.44 L 375.46 266.44 L 383.13 264.58 L 384.66 246.02 L 386.20 245.00 L 392.33 220.59 L 395.40 211.86 L 395.40 211.86 L 398.47 222.54 L 404.60 210.85 L 404.60 210.85 L 404.60 210.85 L 404.60 210.85 L 404.60 210.85 L 404.60 210.85 L 404.60 210.85 L 404.60 210.85 L 409.20 210.85 L 409.20 209.83 L 418.40 197.03 L 424.54 175.51 L 424.54 175.51 L 429.14 175.51 L 429.14 175.51 L 436.81 175.51 L 438.34 175.51 L 438.34 175.51 L 438.34 175.51 L 438.34 175.51 L 456.75 175.51 L 458.28 175.51 L 467.48 127.03 L 469.02 100.00 L 469.02 100.00 L 528.83 146.44 L 531.90 146.44 L 533.44 146.44 L 534.97 150.76 L 538.04 160.59 L 538.04 160.59 L 544.17 160.59 L 545.71 160.59 L 547.24 160.59 L 548.77 160.59 L 553.37 160.59 L 554.91 160.59 L 557.98 160.59 L 559.51 160.59 L 564.11 160.59 L 565.64 160.59 L 565.64 160.59 L 570.25 160.59 L 574.85 160.59 L 576.38 160.59 L 577.91 160.59 L 579.45 160.59 L 580.98 160.59 L 587.12 144.24 L 588.65 152.88 L 590.18 132.37 L 591.72 152.88 L 596.32 152.88 L 597.85 152.88 L 597.85 152.88 L 600.92 152.88 L 602.45 152.88 L 607.06 152.88 L 608.59 152.88 L 610.12 152.88 L 611.66 152.88 L 613.19 152.88 L 613.19 152.88 L 619.33 152.88 L 619.33 152.88 L 620.86 152.88 L 623.93 152.88 L 628.53 152.88 L 630.06 152.88 L 633.13 152.88 L 634.66 152.88 L 640.80 152.88 L 642.33 152.88 L 643.87 152.88 L 645.40 207.80 L 650.00 197.03" /><text  class="poloto_labels poloto_text poloto_title" x="400" y="37.5" >lower.com purchase rates</text><text  class="poloto_labels poloto_text poloto_xname" x="400" y="481.25" >Date</text><text  class="poloto_labels poloto_text poloto_yname" transform="rotate(-90,37.5,250)" x="37.5" y="250" >Rate (%)</text><text  class="poloto_tick_labels poloto_text" dominant-baseline="middle" text-anchor="start" x="150" y="70" ></text><line  class="poloto_axis_lines" stroke="black" x1="150" x2="144" y1="390.2542372881356" y2="390.2542372881356" /><line  class="poloto_tick_line" stroke="black" x1="150" x2="650" y1="390.2542372881356" y2="390.2542372881356" /><text  class="poloto_tick_labels poloto_text" dominant-baseline="middle" text-anchor="end" x="135" y="390.2542372881356" >3.625</text><line  class="poloto_axis_lines" stroke="black" x1="150" x2="144" y1="379.66101694915255" y2="379.66101694915255" /><line  class="poloto_tick_line" stroke="black" x1="150" x2="650" y1="379.66101694915255" y2="379.66101694915255" /><text  class="poloto_tick_labels poloto_text" dominant-baseline="middle" text-anchor="end" x="135" y="379.66101694915255" >3.75</text><line  class="poloto_axis_lines" stroke="black" x1="150" x2="144" y1="369.06779661016947" y2="369.06779661016947" /><line  class="poloto_tick_line" stroke="black" x1="150" x2="650" y1="369.06779661016947" y2="369.06779661016947" /><text  class="poloto_tick_labels poloto_text" dominant-baseline="middle" text-anchor="end" x="135" y="369.06779661016947" >3.875</text><line  class="poloto_axis_lines" stroke="black" x1="150" x2="144" y1="358.47457627118644" y2="358.47457627118644" /><line  class="poloto_tick_line" stroke="black" x1="150" x2="650" y1="358.47457627118644" y2="358.47457627118644" /><text  class="poloto_tick_labels poloto_text" dominant-baseline="middle" text-anchor="end" x="135" y="358.47457627118644" >4</text><line  class="poloto_axis_lines" stroke="black" x1="150" x2="144" y1="347.8813559322034" y2="347.8813559322034" /><line  class="poloto_tick_line" stroke="black" x1="150" x2="650" y1="347.8813559322034" y2="347.8813559322034" /><text  class="poloto_tick_labels poloto_text" dominant-baseline="middle" text-anchor="end" x="135" y="347.8813559322034" >4.125</text><line  class="poloto_axis_lines" stroke="black" x1="150" x2="144" y1="337.2881355932203" y2="337.2881355932203" /><line  class="poloto_tick_line" stroke="black" x1="150" x2="650" y1="337.2881355932203" y2="337.2881355932203" /><text  class="poloto_tick_labels poloto_text" dominant-baseline="middle" text-anchor="end" x="135" y="337.2881355932203" >4.25</text><line  class="poloto_axis_lines" stroke="black" x1="150" x2="144" y1="326.6949152542373" y2="326.6949152542373" /><line  class="poloto_tick_line" stroke="black" x1="150" x2="650" y1="326.6949152542373" y2="326.6949152542373" /><text  class="poloto_tick_labels poloto_text" dominant-baseline="middle" text-anchor="end" x="135" y="326.6949152542373" >4.375</text><line  class="poloto_axis_lines" stroke="black" x1="150" x2="144" y1="316.10169491525426" y2="316.10169491525426" /><line  class="poloto_tick_line" stroke="black" x1="150" x2="650" y1="316.10169491525426" y2="316.10169491525426" /><text  class="poloto_tick_labels poloto_text" dominant-baseline="middle" text-anchor="end" x="135" y="316.10169491525426" >4.5</text><line  class="poloto_axis_lines" stroke="black" x1="150" x2="144" y1="305.50847457627117" y2="305.50847457627117" /><line  class="poloto_tick_line" stroke="black" x1="150" x2="650" y1="305.50847457627117" y2="305.50847457627117" /><text  class="poloto_tick_labels poloto_text" dominant-baseline="middle" text-anchor="end" x="135" y="305.50847457627117" >4.625</text><line  class="poloto_axis_lines" stroke="black" x1="150" x2="144" y1="294.91525423728814" y2="294.91525423728814" /><line  class="poloto_tick_line" stroke="black" x1="150" x2="650" y1="294.91525423728814" y2="294.91525423728814" /><text  class="poloto_tick_labels poloto_text" dominant-baseline="middle" text-anchor="end" x="135" y="294.91525423728814" >4.75</text><line  class="poloto_axis_lines" stroke="black" x1="150" x2="144" y1="284.3220338983051" y2="284.3220338983051" /><line  class="poloto_tick_line" stroke="black" x1="150" x2="650" y1="284.3220338983051" y2="284.3220338983051" /><text  class="poloto_tick_labels poloto_text" dominant-baseline="middle" text-anchor="end" x="135" y="284.3220338983051" >4.875</text><line  class="poloto_axis_lines" stroke="black" x1="150" x2="144" y1="273.728813559322" y2="273.728813559322" /><line  class="poloto_tick_line" stroke="black" x1="150" x2="650" y1="273.728813559322" y2="273.728813559322" /><text  class="poloto_tick_labels poloto_text" dominant-baseline="middle" text-anchor="end" x="135" y="273.728813559322" >5</text><line  class="poloto_axis_lines" stroke="black" x1="150" x2="144" y1="263.135593220339" y2="263.135593220339" /><line  class="poloto_tick_line" stroke="black" x1="150" x2="650" y1="263.135593220339" y2="263.135593220339" /><text  class="poloto_tick_labels poloto_text" dominant-baseline="middle" text-anchor="end" x="135" y="263.135593220339" >5.125</text><line  class="poloto_axis_lines" stroke="black" x1="150" x2="144" y1="252.54237288135596" y2="252.54237288135596" /><line  class="poloto_tick_line" stroke="black" x1="150" x2="650" y1="252.54237288135596" y2="252.54237288135596" /><text  class="poloto_tick_labels poloto_text" dominant-baseline="middle" text-anchor="end" x="135" y="252.54237288135596" >5.25</text><line  class="poloto_axis_lines" stroke="black" x1="150" x2="144" y1="241.94915254237287" y2="241.94915254237287" /><line  class="poloto_tick_line" stroke="black" x1="150" x2="650" y1="241.94915254237287" y2="241.94915254237287" /><text  class="poloto_tick_labels poloto_text" dominant-baseline="middle" text-anchor="end" x="135" y="241.94915254237287" >5.375</text><line  class="poloto_axis_lines" stroke="black" x1="150" x2="144" y1="231.35593220338984" y2="231.35593220338984" /><line  class="poloto_tick_line" stroke="black" x1="150" x2="650" y1="231.35593220338984" y2="231.35593220338984" /><text  class="poloto_tick_labels poloto_text" dominant-baseline="middle" text-anchor="end" x="135" y="231.35593220338984" >5.5</text><line  class="poloto_axis_lines" stroke="black" x1="150" x2="144" y1="220.7627118644068" y2="220.7627118644068" /><line  class="poloto_tick_line" stroke="black" x1="150" x2="650" y1="220.7627118644068" y2="220.7627118644068" /><text  class="poloto_tick_labels poloto_text" dominant-baseline="middle" text-anchor="end" x="135" y="220.7627118644068" >5.625</text><line  class="poloto_axis_lines" stroke="black" x1="150" x2="144" y1="210.16949152542372" y2="210.16949152542372" /><line  class="poloto_tick_line" stroke="black" x1="150" x2="650" y1="210.16949152542372" y2="210.16949152542372" /><text  class="poloto_tick_labels poloto_text" dominant-baseline="middle" text-anchor="end" x="135" y="210.16949152542372" >5.75</text><line  class="poloto_axis_lines" stroke="black" x1="150" x2="144" y1="199.5762711864407" y2="199.5762711864407" /><line  class="poloto_tick_line" stroke="black" x1="150" x2="650" y1="199.5762711864407" y2="199.5762711864407" /><text  class="poloto_tick_labels poloto_text" dominant-baseline="middle" text-anchor="end" x="135" y="199.5762711864407" >5.875</text><line  class="poloto_axis_lines" stroke="black" x1="150" x2="144" y1="188.98305084745766" y2="188.98305084745766" /><line  class="poloto_tick_line" stroke="black" x1="150" x2="650" y1="188.98305084745766" y2="188.98305084745766" /><text  class="poloto_tick_labels poloto_text" dominant-baseline="middle" text-anchor="end" x="135" y="188.98305084745766" >6</text><line  class="poloto_axis_lines" stroke="black" x1="150" x2="144" y1="178.38983050847457" y2="178.38983050847457" /><line  class="poloto_tick_line" stroke="black" x1="150" x2="650" y1="178.38983050847457" y2="178.38983050847457" /><text  class="poloto_tick_labels poloto_text" dominant-baseline="middle" text-anchor="end" x="135" y="178.38983050847457" >6.125</text><line  class="poloto_axis_lines" stroke="black" x1="150" x2="144" y1="167.7966101694915" y2="167.7966101694915" /><line  class="poloto_tick_line" stroke="black" x1="150" x2="650" y1="167.7966101694915" y2="167.7966101694915" /><text  class="poloto_tick_labels poloto_text" dominant-baseline="middle" text-anchor="end" x="135" y="167.7966101694915" >6.25</text><line  class="poloto_axis_lines" stroke="black" x1="150" x2="144" y1="157.2033898305085" y2="157.2033898305085" /><line  class="poloto_tick_line" stroke="black" x1="150" x2="650" y1="157.2033898305085" y2="157.2033898305085" /><text  class="poloto_tick_labels poloto_text" dominant-baseline="middle" text-anchor="end" x="135" y="157.2033898305085" >6.375</text><line  class="poloto_axis_lines" stroke="black" x1="150" x2="144" y1="146.61016949152543" y2="146.61016949152543" /><line  class="poloto_tick_line" stroke="black" x1="150" x2="650" y1="146.61016949152543" y2="146.61016949152543" /><text  class="poloto_tick_labels poloto_text" dominant-baseline="middle" text-anchor="end" x="135" y="146.61016949152543" >6.5</text><line  class="poloto_axis_lines" stroke="black" x1="150" x2="144" y1="136.01694915254234" y2="136.01694915254234" /><line  class="poloto_tick_line" stroke="black" x1="150" x2="650" y1="136.01694915254234" y2="136.01694915254234" /><text  class="poloto_tick_labels poloto_text" dominant-baseline="middle" text-anchor="end" x="135" y="136.01694915254234" >6.625</text><line  class="poloto_axis_lines" stroke="black" x1="150" x2="144" y1="125.42372881355936" y2="125.42372881355936" /><line  class="poloto_tick_line" stroke="black" x1="150" x2="650" y1="125.42372881355936" y2="125.42372881355936" /><text  class="poloto_tick_labels poloto_text" dominant-baseline="middle" text-anchor="end" x="135" y="125.42372881355936" >6.75</text><line  class="poloto_axis_lines" stroke="black" x1="150" x2="144" y1="114.83050847457628" y2="114.83050847457628" /><line  class="poloto_tick_line" stroke="black" x1="150" x2="650" y1="114.83050847457628" y2="114.83050847457628" /><text  class="poloto_tick_labels poloto_text" dominant-baseline="middle" text-anchor="end" x="135" y="114.83050847457628" >6.875</text><line  class="poloto_axis_lines" stroke="black" x1="150" x2="144" y1="104.23728813559319" y2="104.23728813559319" /><line  class="poloto_tick_line" stroke="black" x1="150" x2="650" y1="104.23728813559319" y2="104.23728813559319" /><text  class="poloto_tick_labels poloto_text" dominant-baseline="middle" text-anchor="end" x="135" y="104.23728813559319" >7</text><text  class="poloto_tick_labels poloto_text" dominant-baseline="middle" text-anchor="start" x="440.00000000000006" y="70" >¹2022-05-01 00:00:00 UTC in Months</text><line  class="poloto_axis_lines" stroke="black" x1="219.01840490797622" x2="219.01840490797622" y1="400" y2="405" /><line  class="poloto_tick_line" stroke="black" x1="219.01840490797622" x2="219.01840490797622" y1="400" y2="100" /><text  class="poloto_tick_labels poloto_text" dominant-baseline="start" text-anchor="middle" x="219.01840490797622" y="430" >2022 May¹</text><line  class="poloto_axis_lines" stroke="black" x1="312.57668711656515" x2="312.57668711656515" y1="400" y2="405" /><line  class="poloto_tick_line" stroke="black" x1="312.57668711656515" x2="312.57668711656515" y1="400" y2="100" /><text  class="poloto_tick_labels poloto_text" dominant-baseline="start" text-anchor="middle" x="312.57668711656515" y="430" >2022 Jul</text><line  class="poloto_axis_lines" stroke="black" x1="407.668711656439" x2="407.668711656439" y1="400" y2="405" /><line  class="poloto_tick_line" stroke="black" x1="407.668711656439" x2="407.668711656439" y1="400" y2="100" /><text  class="poloto_tick_labels poloto_text" dominant-baseline="start" text-anchor="middle" x="407.668711656439" y="430" >2022 Sep</text><line  class="poloto_axis_lines" stroke="black" x1="501.2269938650279" x2="501.2269938650279" y1="400" y2="405" /><line  class="poloto_tick_line" stroke="black" x1="501.2269938650279" x2="501.2269938650279" y1="400" y2="100" /><text  class="poloto_tick_labels poloto_text" dominant-baseline="start" text-anchor="middle" x="501.2269938650279" y="430" >2022 Nov</text><line  class="poloto_axis_lines" stroke="black" x1="594.7852760736168" x2="594.7852760736168" y1="400" y2="405" /><line  class="poloto_tick_line" stroke="black" x1="594.7852760736168" x2="594.7852760736168" y1="400" y2="100" /><text  class="poloto_tick_labels poloto_text" dominant-baseline="start" text-anchor="middle" x="594.7852760736168" y="430" >2023 Jan</text><path  stroke="black" fill="none" class="poloto_axis_lines" d=" M 150 400 L 650 400" /><path  stroke="black" fill="none" class="poloto_axis_lines" d=" M 150 400 L 150 100" /></svg>