<svg class="poloto" width="800" height="500" viewBox="0 0 800 500" xmlns="http://www.w3.org/2000/svg"><style>.poloto{stroke-linecap:round;stroke-linejoin:round;font-family:Roboto,sans-serif;font-size:16px;}.poloto_background{fill:#262626;}.poloto_scatter{stroke-width:7}.poloto_tick_line{stroke:dimgray;stroke-width:0.5}.poloto_line{stroke-width:2}.poloto_text{fill: white;}.poloto_axis_lines{stroke: white;stroke-width:3;fill:none;stroke-dasharray:none}.poloto_title{font-size:24px;dominant-baseline:start;text-anchor:middle;}.poloto_xname{font-size:24px;dominant-baseline:start;text-anchor:middle;}.poloto_yname{font-size:24px;dominant-baseline:start;text-anchor:middle;}.poloto0stroke{stroke:blue;}.poloto1stroke{stroke:red;}.poloto2stroke{stroke:green;}.poloto3stroke{stroke:gold;}.poloto4stroke{stroke:aqua;}.poloto5stroke{stroke:lime;}.poloto6stroke{stroke:orange;}.poloto7stroke{stroke:chocolate;}.poloto0fill{fill:blue;}.poloto1fill{fill:red;}.poloto2fill{fill:green;}.poloto3fill{fill:gold;}.poloto4fill{fill:aqua;}.poloto5fill{fill:lime;}.poloto6fill{fill:orange;}.poloto7fill{fill:chocolate;}</style><circle  r="1e5" class="poloto_background" /><text  class="poloto_text poloto_legend_text" x="675" y="100" >Refinance 15</text><line  class="poloto_line poloto_legend_icon poloto0stroke poloto0legend" stroke="black" x1="680" x2="730" y1="81.25" y2="81.25" /><path  class="poloto_line poloto0stroke" fill="none" stroke="black" d=" M 150.00 392.46 L 151.74 400.00 L 156.97 389.32 L 158.71 380.17 L 160.45 389.32 L 160.45 389.32 L 163.94 358.81 L 169.16 357.20 L 170.91 367.88 L 172.65 344.83 L 174.39 346.44 L 176.13 341.61 L 181.36 343.22 L 183.10 336.78 L 183.10 336.78 L 186.59 337.37 L 188.33 314.32 L 193.55 324.32 L 195.30 327.54 L 197.04 327.54 L 198.78 326.69 L 200.52 321.78 L 207.49 278.73 L 209.23 297.88 L 210.98 283.05 L 212.72 277.29 L 212.72 277.29 L 219.69 299.58 L 223.17 303.64 L 224.91 294.58 L 230.14 283.81 L 231.88 305.25 L 233.62 294.58 L 233.62 294.58 L 237.11 292.88 L 242.33 296.19 L 244.08 306.86 L 244.08 306.86 L 245.82 297.80 L 247.56 308.56 L 249.30 292.88 L 254.53 325.08 L 256.27 324.32 L 258.01 306.86 L 258.01 306.86 L 259.76 314.32 L 261.50 317.63 L 266.72 317.63 L 268.47 329.15 L 270.21 329.15 L 271.95 329.15 L 273.69 329.15 L 280.66 317.63 L 282.40 314.32 L 284.15 315.93 L 285.89 315.93 L 285.89 315.93 L 292.86 305.25 L 294.60 305.25 L 296.34 296.19 L 303.31 281.36 L 305.05 250.76 L 306.79 254.15 L 308.54 254.15 L 310.28 275.59 L 315.51 254.15 L 317.25 254.15 L 318.99 273.90 L 320.73 277.29 L 327.70 277.29 L 329.44 275.59 L 331.18 280.59 L 332.93 285.51 L 334.67 296.19 L 341.64 303.64 L 343.38 294.58 L 345.12 287.12 L 346.86 283.81 L 352.09 285.51 L 355.57 285.51 L 357.32 283.81 L 364.29 282.20 L 364.29 282.20 L 364.29 282.20 L 364.29 282.20 L 364.29 282.20 L 364.29 282.20 L 367.77 282.20 L 367.77 282.20 L 367.77 282.20 L 367.77 282.20 L 367.77 282.20 L 367.77 282.20 L 376.48 294.58 L 379.97 297.80 L 381.71 325.93 L 383.45 329.15 L 388.68 329.15 L 390.42 327.54 L 392.16 305.25 L 393.90 299.49 L 395.64 285.51 L 400.87 296.19 L 400.87 296.19 L 402.61 287.12 L 406.10 296.19 L 406.10 296.19 L 414.81 296.19 L 416.55 262.46 L 418.29 282.20 L 425.26 248.39 L 428.75 248.39 L 428.75 248.39 L 432.23 260.76 L 439.20 254.15 L 439.20 254.15 L 439.20 254.15 L 439.20 254.15 L 439.20 254.15 L 439.20 254.15 L 439.20 254.15 L 439.20 254.15 L 439.20 254.15 L 444.43 254.15 L 454.88 232.63 L 461.85 235.17 L 461.85 235.17 L 467.07 235.17 L 474.04 235.17 L 475.78 235.17 L 475.78 235.17 L 475.78 235.17 L 475.78 235.17 L 475.78 235.17 L 498.43 235.17 L 500.17 235.17 L 510.63 139.75 L 512.37 130.68 L 514.11 130.68 L 576.83 159.15 L 583.80 159.15 L 585.54 159.15 L 587.28 175.51 L 590.77 184.49 L 590.77 184.49 L 597.74 184.49 L 599.48 184.49 L 601.22 184.49 L 602.96 184.49 L 608.19 184.49 L 609.93 184.49 L 613.41 184.49 L 615.16 184.49 L 620.38 184.49 L 622.13 184.49 L 622.13 184.49 L 627.35 184.49 L 632.58 184.49 L 634.32 184.49 L 636.06 184.49 L 637.80 184.49 L 639.55 184.49 L 646.52 209.15 L 648.26 180.68 L 650.00 159.15" /><text  class="poloto_text poloto_legend_text" x="675" y="150" >Refinance 20</text><line  class="poloto_line poloto_legend_icon poloto1stroke poloto1legend" stroke="black" x1="680" x2="730" y1="131.25" y2="131.25" /><path  class="poloto_line poloto1stroke" fill="none" stroke="black" d=" M 150.00 345.68 L 151.74 368.31 L 156.97 334.58 L 158.71 324.24 L 160.45 333.73 L 160.45 333.73 L 163.94 304.07 L 169.16 301.53 L 170.91 312.29 L 172.65 300.25 L 174.39 311.02 L 176.13 290.85 L 181.36 321.69 L 183.10 290.85 L 183.10 290.85 L 186.59 290.85 L 186.59 290.85 L 193.55 250.17 L 195.30 282.71 L 197.04 290.85 L 198.78 301.53 L 200.52 280.59 L 207.49 260.00 L 209.23 257.37 L 210.98 252.12 L 212.72 240.08 L 217.94 245.34 L 219.69 268.14 L 223.17 260.00 L 224.91 257.37 L 230.14 248.81 L 231.88 258.73 L 233.62 258.73 L 233.62 258.73 L 237.11 258.73 L 242.33 260.00 L 244.08 281.44 L 244.08 281.44 L 245.82 269.41 L 247.56 289.58 L 249.30 281.44 L 254.53 282.71 L 256.27 281.44 L 258.01 281.44 L 258.01 281.44 L 259.76 282.71 L 261.50 289.58 L 266.72 290.85 L 268.47 294.66 L 270.21 294.66 L 271.95 294.66 L 273.69 294.66 L 280.66 289.58 L 282.40 278.81 L 284.15 281.44 L 285.89 281.44 L 285.89 281.44 L 292.86 268.14 L 294.60 270.68 L 296.34 261.27 L 303.31 215.85 L 305.05 197.03 L 306.79 207.80 L 308.54 215.85 L 310.28 238.56 L 315.51 225.17 L 317.25 218.47 L 318.99 239.92 L 320.73 250.17 L 327.70 250.17 L 329.44 238.56 L 331.18 249.32 L 332.93 260.00 L 334.67 272.03 L 341.64 280.08 L 343.38 269.41 L 345.12 258.73 L 346.86 251.44 L 352.09 257.37 L 355.57 260.00 L 357.32 258.73 L 364.29 260.00 L 364.29 260.00 L 364.29 260.00 L 364.29 260.00 L 364.29 260.00 L 364.29 260.00 L 364.29 260.00 L 364.29 260.00 L 364.29 260.00 L 364.29 260.00 L 364.29 260.00 L 364.29 260.00 L 376.48 280.08 L 379.97 282.71 L 381.71 301.53 L 383.45 304.07 L 388.68 301.27 L 390.42 301.27 L 392.16 290.85 L 393.90 294.66 L 395.64 278.81 L 400.87 270.68 L 400.87 270.68 L 402.61 270.68 L 406.10 281.44 L 406.10 281.44 L 414.81 278.81 L 416.55 260.00 L 418.29 260.00 L 425.26 246.19 L 428.75 234.58 L 428.75 234.58 L 432.23 247.54 L 439.20 215.85 L 439.20 215.85 L 439.20 215.85 L 439.20 215.85 L 439.20 215.85 L 439.20 215.85 L 439.20 215.85 L 439.20 215.85 L 439.20 215.85 L 444.43 215.85 L 454.88 202.37 L 461.85 203.73 L 465.33 203.73 L 467.07 203.73 L 467.07 203.73 L 475.78 203.73 L 477.53 203.73 L 477.53 203.73 L 477.53 203.73 L 477.53 203.73 L 498.43 203.73 L 500.17 203.73 L 510.63 118.81 L 512.37 102.97 L 512.37 102.97 L 580.31 155.34 L 583.80 155.34 L 585.54 155.34 L 589.02 174.15 L 590.77 175.51 L 590.77 175.51 L 597.74 175.51 L 599.48 175.51 L 601.22 175.51 L 602.96 175.51 L 608.19 175.51 L 609.93 175.51 L 613.41 175.51 L 615.16 175.51 L 620.38 175.51 L 622.13 175.51 L 622.13 175.51 L 627.35 175.51 L 632.58 175.51 L 634.32 175.51 L 636.06 175.51 L 637.80 175.51 L 639.55 175.51 L 646.52 156.36 L 648.26 145.93 L 650.00 144.58" /><text  class="poloto_text poloto_legend_text" x="675" y="200" >Refinance 30</text><line  class="poloto_line poloto_legend_icon poloto2stroke poloto2legend" stroke="black" x1="680" x2="730" y1="181.25" y2="181.25" /><path  class="poloto_line poloto2stroke" fill="none" stroke="black" d=" M 150.00 343.31 L 151.74 351.36 L 156.97 338.81 L 158.71 328.98 L 160.45 330.85 L 160.45 330.85 L 163.94 310.25 L 169.16 308.47 L 170.91 319.15 L 172.65 307.54 L 174.39 318.22 L 176.13 297.71 L 181.36 307.54 L 183.10 286.95 L 184.84 286.95 L 186.59 286.02 L 188.33 260.00 L 193.55 264.58 L 195.30 276.27 L 197.04 286.95 L 198.78 277.20 L 200.52 265.51 L 207.49 256.61 L 209.23 242.12 L 210.98 240.17 L 212.72 238.14 L 217.94 242.12 L 219.69 258.73 L 223.17 256.61 L 224.91 254.66 L 230.14 244.07 L 231.88 255.59 L 233.62 244.07 L 233.62 244.07 L 237.11 244.07 L 242.33 246.02 L 244.08 264.58 L 244.08 264.58 L 245.82 255.59 L 247.56 256.61 L 249.30 257.54 L 254.53 265.51 L 256.27 256.61 L 258.01 256.61 L 258.01 256.61 L 259.76 266.44 L 261.50 267.46 L 266.72 268.39 L 268.47 277.20 L 270.21 277.20 L 271.95 279.07 L 273.69 279.07 L 280.66 275.25 L 282.40 264.58 L 284.15 266.44 L 285.89 265.51 L 285.89 265.51 L 292.86 255.59 L 294.60 255.59 L 296.34 245.00 L 303.31 202.12 L 305.05 171.78 L 306.79 190.34 L 308.54 202.12 L 310.28 212.80 L 315.51 203.05 L 317.25 202.12 L 318.99 221.61 L 320.73 223.56 L 327.70 223.56 L 329.44 211.86 L 331.18 221.61 L 332.93 232.29 L 334.67 255.59 L 341.64 256.61 L 343.38 245.00 L 345.12 224.58 L 346.86 221.61 L 352.09 241.10 L 355.57 223.56 L 357.32 222.54 L 364.29 242.12 L 364.29 242.12 L 364.29 242.12 L 364.29 242.12 L 364.29 242.12 L 364.29 242.12 L 367.77 242.12 L 367.77 242.12 L 367.77 242.12 L 367.77 242.12 L 367.77 242.12 L 367.77 242.12 L 376.48 254.66 L 379.97 256.61 L 381.71 275.25 L 383.45 287.88 L 388.68 286.95 L 390.42 286.95 L 392.16 265.51 L 393.90 268.39 L 395.64 254.66 L 400.87 265.51 L 400.87 265.51 L 402.61 257.54 L 406.10 266.44 L 406.10 266.44 L 414.81 264.58 L 416.55 246.02 L 418.29 245.00 L 425.26 220.59 L 428.75 211.86 L 428.75 211.86 L 432.23 222.54 L 439.20 210.85 L 439.20 210.85 L 439.20 210.85 L 439.20 210.85 L 439.20 210.85 L 439.20 210.85 L 439.20 210.85 L 439.20 210.85 L 444.43 210.85 L 444.43 209.83 L 454.88 197.03 L 461.85 175.51 L 461.85 175.51 L 467.07 175.51 L 467.07 175.51 L 475.78 175.51 L 477.53 175.51 L 477.53 175.51 L 477.53 175.51 L 477.53 175.51 L 498.43 175.51 L 500.17 175.51 L 510.63 127.03 L 512.37 100.00 L 512.37 100.00 L 580.31 146.44 L 583.80 146.44 L 585.54 146.44 L 587.28 150.76 L 590.77 160.59 L 590.77 160.59 L 597.74 160.59 L 599.48 160.59 L 601.22 160.59 L 602.96 160.59 L 608.19 160.59 L 609.93 160.59 L 613.41 160.59 L 615.16 160.59 L 620.38 160.59 L 622.13 160.59 L 622.13 160.59 L 627.35 160.59 L 632.58 160.59 L 634.32 160.59 L 636.06 160.59 L 637.80 160.59 L 639.55 160.59 L 646.52 144.24 L 648.26 152.88 L 650.00 132.37" /><text  class="poloto_labels poloto_text poloto_title" x="400" y="37.5" >lower.com purchase rates</text><text  class="poloto_labels poloto_text poloto_xname" x="400" y="481.25" >Date</text><text  class="poloto_labels poloto_text poloto_yname" transform="rotate(-90,37.5,250)" x="37.5" y="250" >Rate (%)</text><text  class="poloto_tick_labels poloto_text" dominant-baseline="middle" text-anchor="start" x="150" y="70" ></text><line  class="poloto_axis_lines" stroke="black" x1="150" x2="144" y1="390.2542372881356" y2="390.2542372881356" /><line  class="poloto_tick_line" stroke="black" x1="150" x2="650" y1="390.2542372881356" y2="390.2542372881356" /><text  class="poloto_tick_labels poloto_text" dominant-baseline="middle" text-anchor="end" x="135" y="390.2542372881356" >3.625</text><line  class="poloto_axis_lines" stroke="black" x1="150" x2="144" y1="379.66101694915255" y2="379.66101694915255" /><line  class="poloto_tick_line" stroke="black" x1="150" x2="650" y1="379.66101694915255" y2="379.66101694915255" /><text  class="poloto_tick_labels poloto_text" dominant-baseline="middle" text-anchor="end" x="135" y="379.66101694915255" >3.75</text><line  class="poloto_axis_lines" stroke="black" x1="150" x2="144" y1="369.06779661016947" y2="369.06779661016947" /><line  class="poloto_tick_line" stroke="black" x1="150" x2="650" y1="369.06779661016947" y2="369.06779661016947" /><text  class="poloto_tick_labels poloto_text" dominant-baseline="middle" text-anchor="end" x="135" y="369.06779661016947" >3.875</text><line  class="poloto_axis_lines" stroke="black" x1="150" x2="144" y1="358.47457627118644" y2="358.47457627118644" /><line  class="poloto_tick_line" stroke="black" x1="150" x2="650" y1="358.47457627118644" y2="358.47457627118644" /><text  class="poloto_tick_labels poloto_text" dominant-baseline="middle" text-anchor="end" x="135" y="358.47457627118644" >4</text><line  class="poloto_axis_lines" stroke="black" x1="150" x2="144" y1="347.8813559322034" y2="347.8813559322034" /><line  class="poloto_tick_line" stroke="black" x1="150" x2="650" y1="347.8813559322034" y2="347.8813559322034" /><text  class="poloto_tick_labels poloto_text" dominant-baseline="middle" text-anchor="end" x="135" y="347.8813559322034" >4.125</text><line  class="poloto_axis_lines" stroke="black" x1="150" x2="144" y1="337.2881355932203" y2="337.2881355932203" /><line  class="poloto_tick_line" stroke="black" x1="150" x2="650" y1="337.2881355932203" y2="337.2881355932203" /><text  class="poloto_tick_labels poloto_text" dominant-baseline="middle" text-anchor="end" x="135" y="337.2881355932203" >4.25</text><line  class="poloto_axis_lines" stroke="black" x1="150" x2="144" y1="326.6949152542373" y2="326.6949152542373" /><line  class="poloto_tick_line" stroke="black" x1="150" x2="650" y1="326.6949152542373" y2="326.6949152542373" /><text  class="poloto_tick_labels poloto_text" dominant-baseline="middle" text-anchor="end" x="135" y="326.6949152542373" >4.375</text><line  class="poloto_axis_lines" stroke="black" x1="150" x2="144" y1="316.10169491525426" y2="316.10169491525426" /><line  class="poloto_tick_line" stroke="black" x1="150" x2="650" y1="316.10169491525426" y2="316.10169491525426" /><text  class="poloto_tick_labels poloto_text" dominant-baseline="middle" text-anchor="end" x="135" y="316.10169491525426" >4.5</text><line  class="poloto_axis_lines" stroke="black" x1="150" x2="144" y1="305.50847457627117" y2="305.50847457627117" /><line  class="poloto_tick_line" stroke="black" x1="150" x2="650" y1="305.50847457627117" y2="305.50847457627117" /><text  class="poloto_tick_labels poloto_text" dominant-baseline="middle" text-anchor="end" x="135" y="305.50847457627117" >4.625</text><line  class="poloto_axis_lines" stroke="black" x1="150" x2="144" y1="294.91525423728814" y2="294.91525423728814" /><line  class="poloto_tick_line" stroke="black" x1="150" x2="650" y1="294.91525423728814" y2="294.91525423728814" /><text  class="poloto_tick_labels poloto_text" dominant-baseline="middle" text-anchor="end" x="135" y="294.91525423728814" >4.75</text><line  class="poloto_axis_lines" stroke="black" x1="150" x2="144" y1="284.3220338983051" y2="284.3220338983051" /><line  class="poloto_tick_line" stroke="black" x1="150" x2="650" y1="284.3220338983051" y2="284.3220338983051" /><text  class="poloto_tick_labels poloto_text" dominant-baseline="middle" text-anchor="end" x="135" y="284.3220338983051" >4.875</text><line  class="poloto_axis_lines" stroke="black" x1="150" x2="144" y1="273.728813559322" y2="273.728813559322" /><line  class="poloto_tick_line" stroke="black" x1="150" x2="650" y1="273.728813559322" y2="273.728813559322" /><text  class="poloto_tick_labels poloto_text" dominant-baseline="middle" text-anchor="end" x="135" y="273.728813559322" >5</text><line  class="poloto_axis_lines" stroke="black" x1="150" x2="144" y1="263.135593220339" y2="263.135593220339" /><line  class="poloto_tick_line" stroke="black" x1="150" x2="650" y1="263.135593220339" y2="263.135593220339" /><text  class="poloto_tick_labels poloto_text" dominant-baseline="middle" text-anchor="end" x="135" y="263.135593220339" >5.125</text><line  class="poloto_axis_lines" stroke="black" x1="150" x2="144" y1="252.54237288135596" y2="252.54237288135596" /><line  class="poloto_tick_line" stroke="black" x1="150" x2="650" y1="252.54237288135596" y2="252.54237288135596" /><text  class="poloto_tick_labels poloto_text" dominant-baseline="middle" text-anchor="end" x="135" y="252.54237288135596" >5.25</text><line  class="poloto_axis_lines" stroke="black" x1="150" x2="144" y1="241.94915254237287" y2="241.94915254237287" /><line  class="poloto_tick_line" stroke="black" x1="150" x2="650" y1="241.94915254237287" y2="241.94915254237287" /><text  class="poloto_tick_labels poloto_text" dominant-baseline="middle" text-anchor="end" x="135" y="241.94915254237287" >5.375</text><line  class="poloto_axis_lines" stroke="black" x1="150" x2="144" y1="231.35593220338984" y2="231.35593220338984" /><line  class="poloto_tick_line" stroke="black" x1="150" x2="650" y1="231.35593220338984" y2="231.35593220338984" /><text  class="poloto_tick_labels poloto_text" dominant-baseline="middle" text-anchor="end" x="135" y="231.35593220338984" >5.5</text><line  class="poloto_axis_lines" stroke="black" x1="150" x2="144" y1="220.7627118644068" y2="220.7627118644068" /><line  class="poloto_tick_line" stroke="black" x1="150" x2="650" y1="220.7627118644068" y2="220.7627118644068" /><text  class="poloto_tick_labels poloto_text" dominant-baseline="middle" text-anchor="end" x="135" y="220.7627118644068" >5.625</text><line  class="poloto_axis_lines" stroke="black" x1="150" x2="144" y1="210.16949152542372" y2="210.16949152542372" /><line  class="poloto_tick_line" stroke="black" x1="150" x2="650" y1="210.16949152542372" y2="210.16949152542372" /><text  class="poloto_tick_labels poloto_text" dominant-baseline="middle" text-anchor="end" x="135" y="210.16949152542372" >5.75</text><line  class="poloto_axis_lines" stroke="black" x1="150" x2="144" y1="199.5762711864407" y2="199.5762711864407" /><line  class="poloto_tick_line" stroke="black" x1="150" x2="650" y1="199.5762711864407" y2="199.5762711864407" /><text  class="poloto_tick_labels poloto_text" dominant-baseline="middle" text-anchor="end" x="135" y="199.5762711864407" >5.875</text><line  class="poloto_axis_lines" stroke="black" x1="150" x2="144" y1="188.98305084745766" y2="188.98305084745766" /><line  class="poloto_tick_line" stroke="black" x1="150" x2="650" y1="188.98305084745766" y2="188.98305084745766" /><text  class="poloto_tick_labels poloto_text" dominant-baseline="middle" text-anchor="end" x="135" y="188.98305084745766" >6</text><line  class="poloto_axis_lines" stroke="black" x1="150" x2="144" y1="178.38983050847457" y2="178.38983050847457" /><line  class="poloto_tick_line" stroke="black" x1="150" x2="650" y1="178.38983050847457" y2="178.38983050847457" /><text  class="poloto_tick_labels poloto_text" dominant-baseline="middle" text-anchor="end" x="135" y="178.38983050847457" >6.125</text><line  class="poloto_axis_lines" stroke="black" x1="150" x2="144" y1="167.7966101694915" y2="167.7966101694915" /><line  class="poloto_tick_line" stroke="black" x1="150" x2="650" y1="167.7966101694915" y2="167.7966101694915" /><text  class="poloto_tick_labels poloto_text" dominant-baseline="middle" text-anchor="end" x="135" y="167.7966101694915" >6.25</text><line  class="poloto_axis_lines" stroke="black" x1="150" x2="144" y1="157.2033898305085" y2="157.2033898305085" /><line  class="poloto_tick_line" stroke="black" x1="150" x2="650" y1="157.2033898305085" y2="157.2033898305085" /><text  class="poloto_tick_labels poloto_text" dominant-baseline="middle" text-anchor="end" x="135" y="157.2033898305085" >6.375</text><line  class="poloto_axis_lines" stroke="black" x1="150" x2="144" y1="146.61016949152543" y2="146.61016949152543" /><line  class="poloto_tick_line" stroke="black" x1="150" x2="650" y1="146.61016949152543" y2="146.61016949152543" /><text  class="poloto_tick_labels poloto_text" dominant-baseline="middle" text-anchor="end" x="135" y="146.61016949152543" >6.5</text><line  class="poloto_axis_lines" stroke="black" x1="150" x2="144" y1="136.01694915254234" y2="136.01694915254234" /><line  class="poloto_tick_line" stroke="black" x1="150" x2="650" y1="136.01694915254234" y2="136.01694915254234" /><text  class="poloto_tick_labels poloto_text" dominant-baseline="middle" text-anchor="end" x="135" y="136.01694915254234" >6.625</text><line  class="poloto_axis_lines" stroke="black" x1="150" x2="144" y1="125.42372881355936" y2="125.42372881355936" /><line  class="poloto_tick_line" stroke="black" x1="150" x2="650" y1="125.42372881355936" y2="125.42372881355936" /><text  class="poloto_tick_labels poloto_text" dominant-baseline="middle" text-anchor="end" x="135" y="125.42372881355936" >6.75</text><line  class="poloto_axis_lines" stroke="black" x1="150" x2="144" y1="114.83050847457628" y2="114.83050847457628" /><line  class="poloto_tick_line" stroke="black" x1="150" x2="650" y1="114.83050847457628" y2="114.83050847457628" /><text  class="poloto_tick_labels poloto_text" dominant-baseline="middle" text-anchor="end" x="135" y="114.83050847457628" >6.875</text><line  class="poloto_axis_lines" stroke="black" x1="150" x2="144" y1="104.23728813559319" y2="104.23728813559319" /><line  class="poloto_tick_line" stroke="black" x1="150" x2="650" y1="104.23728813559319" y2="104.23728813559319" /><text  class="poloto_tick_labels poloto_text" dominant-baseline="middle" text-anchor="end" x="135" y="104.23728813559319" >7</text><text  class="poloto_tick_labels poloto_text" dominant-baseline="middle" text-anchor="start" x="440.00000000000006" y="70" >¹2022-05-01 00:00:00 UTC in Months</text><line  class="poloto_axis_lines" stroke="black" x1="228.3972125435539" x2="228.3972125435539" y1="400" y2="405" /><line  class="poloto_tick_line" stroke="black" x1="228.3972125435539" x2="228.3972125435539" y1="400" y2="100" /><text  class="poloto_tick_labels poloto_text" dominant-baseline="start" text-anchor="middle" x="228.3972125435539" y="430" >2022 May¹</text><line  class="poloto_axis_lines" stroke="black" x1="334.66898954703356" x2="334.66898954703356" y1="400" y2="405" /><line  class="poloto_tick_line" stroke="black" x1="334.66898954703356" x2="334.66898954703356" y1="400" y2="100" /><text  class="poloto_tick_labels poloto_text" dominant-baseline="start" text-anchor="middle" x="334.66898954703356" y="430" >2022 Jul</text><line  class="poloto_axis_lines" stroke="black" x1="442.68292682926403" x2="442.68292682926403" y1="400" y2="405" /><line  class="poloto_tick_line" stroke="black" x1="442.68292682926403" x2="442.68292682926403" y1="400" y2="100" /><text  class="poloto_tick_labels poloto_text" dominant-baseline="start" text-anchor="middle" x="442.68292682926403" y="430" >2022 Sep</text><line  class="poloto_axis_lines" stroke="black" x1="548.954703832751" x2="548.954703832751" y1="400" y2="405" /><line  class="poloto_tick_line" stroke="black" x1="548.954703832751" x2="548.954703832751" y1="400" y2="100" /><text  class="poloto_tick_labels poloto_text" dominant-baseline="start" text-anchor="middle" x="548.954703832751" y="430" >2022 Nov</text><path  stroke="black" fill="none" class="poloto_axis_lines" d=" M 150 400 L 650 400" /><path  stroke="black" fill="none" class="poloto_axis_lines" d=" M 150 400 L 150 100" /></svg>