<svg class="poloto" width="800" height="500" viewBox="0 0 800 500" xmlns="http://www.w3.org/2000/svg"><style>.poloto{stroke-linecap:round;stroke-linejoin:round;font-family:Roboto,sans-serif;font-size:16px;}.poloto_background{fill:#262626;}.poloto_scatter{stroke-width:7}.poloto_tick_line{stroke:dimgray;stroke-width:0.5}.poloto_line{stroke-width:2}.poloto_text{fill: white;}.poloto_axis_lines{stroke: white;stroke-width:3;fill:none;stroke-dasharray:none}.poloto_title{font-size:24px;dominant-baseline:start;text-anchor:middle;}.poloto_xname{font-size:24px;dominant-baseline:start;text-anchor:middle;}.poloto_yname{font-size:24px;dominant-baseline:start;text-anchor:middle;}.poloto0stroke{stroke:blue;}.poloto1stroke{stroke:red;}.poloto2stroke{stroke:green;}.poloto3stroke{stroke:gold;}.poloto4stroke{stroke:aqua;}.poloto5stroke{stroke:lime;}.poloto6stroke{stroke:orange;}.poloto7stroke{stroke:chocolate;}.poloto0fill{fill:blue;}.poloto1fill{fill:red;}.poloto2fill{fill:green;}.poloto3fill{fill:gold;}.poloto4fill{fill:aqua;}.poloto5fill{fill:lime;}.poloto6fill{fill:orange;}.poloto7fill{fill:chocolate;}</style><circle  r="1e5" class="poloto_background" /><text  class="poloto_text poloto_legend_text" x="675" y="100" >Refinance 15</text><line  class="poloto_line poloto_legend_icon poloto0stroke poloto0legend" stroke="black" x1="680" x2="730" y1="81.25" y2="81.25" /><path  class="poloto_line poloto0stroke" fill="none" stroke="black" d=" M 150.00 393.13 L 151.30 400.00 L 155.18 390.27 L 156.48 381.94 L 157.77 390.27 L 157.77 390.27 L 160.36 362.48 L 164.25 361.01 L 165.54 370.74 L 166.84 349.74 L 168.13 351.21 L 169.43 346.81 L 173.32 348.28 L 174.61 342.41 L 174.61 342.41 L 177.20 342.95 L 178.50 321.95 L 182.38 331.06 L 183.68 333.99 L 184.97 333.99 L 186.27 333.22 L 187.56 328.74 L 192.75 289.53 L 194.04 306.97 L 195.34 293.46 L 196.63 288.21 L 196.63 288.21 L 201.81 308.52 L 204.40 312.22 L 205.70 303.96 L 209.59 294.16 L 210.88 313.69 L 212.18 303.96 L 212.18 303.96 L 214.77 302.42 L 218.65 305.43 L 219.95 315.16 L 219.95 315.16 L 221.24 306.90 L 222.54 316.70 L 223.83 302.42 L 227.72 331.76 L 229.02 331.06 L 230.31 315.16 L 230.31 315.16 L 231.61 321.95 L 232.90 324.96 L 236.79 324.96 L 238.08 335.46 L 239.38 335.46 L 240.67 335.46 L 241.97 335.46 L 247.15 324.96 L 248.45 321.95 L 249.74 323.42 L 251.04 323.42 L 251.04 323.42 L 256.22 313.69 L 257.51 313.69 L 258.81 305.43 L 263.99 291.92 L 265.28 264.05 L 266.58 267.14 L 267.88 267.14 L 269.17 286.67 L 273.06 267.14 L 274.35 267.14 L 275.65 285.13 L 276.94 288.21 L 282.12 288.21 L 283.42 286.67 L 284.72 291.22 L 286.01 295.70 L 287.31 305.43 L 292.49 312.22 L 293.78 303.96 L 295.08 297.17 L 296.37 294.16 L 300.26 295.70 L 302.85 295.70 L 304.15 294.16 L 309.33 292.69 L 309.33 292.69 L 309.33 292.69 L 309.33 292.69 L 309.33 292.69 L 309.33 292.69 L 311.92 292.69 L 311.92 292.69 L 311.92 292.69 L 311.92 292.69 L 311.92 292.69 L 311.92 292.69 L 318.39 303.96 L 320.98 306.90 L 322.28 332.53 L 323.58 335.46 L 327.46 335.46 L 328.76 333.99 L 330.05 313.69 L 331.35 308.44 L 332.64 295.70 L 336.53 305.43 L 336.53 305.43 L 337.82 297.17 L 340.41 305.43 L 340.41 305.43 L 346.89 305.43 L 348.19 274.70 L 349.48 292.69 L 354.66 261.89 L 357.25 261.89 L 357.25 261.89 L 359.84 273.16 L 365.03 267.14 L 365.03 267.14 L 365.03 267.14 L 365.03 267.14 L 365.03 267.14 L 365.03 267.14 L 365.03 267.14 L 365.03 267.14 L 365.03 267.14 L 368.91 267.14 L 376.68 247.53 L 381.87 249.85 L 381.87 249.85 L 385.75 249.85 L 390.93 249.85 L 392.23 249.85 L 392.23 249.85 L 392.23 249.85 L 392.23 249.85 L 392.23 249.85 L 409.07 249.85 L 410.36 249.85 L 418.13 162.92 L 419.43 154.66 L 420.73 154.66 L 467.36 180.60 L 472.54 180.60 L 473.83 180.60 L 475.13 195.50 L 477.72 203.68 L 477.72 203.68 L 482.90 203.68 L 484.20 203.68 L 485.49 203.68 L 486.79 203.68 L 490.67 203.68 L 491.97 203.68 L 494.56 203.68 L 495.85 203.68 L 499.74 203.68 L 501.04 203.68 L 501.04 203.68 L 504.92 203.68 L 508.81 203.68 L 510.10 203.68 L 511.40 203.68 L 512.69 203.68 L 513.99 203.68 L 519.17 226.15 L 520.47 200.21 L 521.76 180.60 L 523.06 190.40 L 526.94 190.40 L 528.24 190.40 L 528.24 190.40 L 530.83 211.48 L 532.12 211.48 L 536.01 211.48 L 537.31 211.48 L 538.60 211.48 L 539.90 211.48 L 541.19 211.48 L 541.19 211.48 L 541.19 211.48 L 541.19 211.48 L 547.67 211.48 L 550.26 211.48 L 554.15 211.48 L 555.44 211.48 L 558.03 211.48 L 559.33 211.48 L 564.51 211.48 L 565.80 211.48 L 567.10 211.48 L 568.39 239.27 L 572.28 245.45 L 573.58 209.93 L 574.87 221.28 L 576.17 219.74 L 577.46 201.75 L 581.35 161.07 L 582.64 161.07 L 583.94 161.07 L 585.23 162.61 L 586.53 170.79 L 590.41 162.61 L 591.71 162.61 L 593.01 151.26 L 594.30 161.07 L 595.60 141.46 L 600.78 151.26 L 602.07 152.80 L 603.37 143.08 L 604.66 149.64 L 608.55 155.97 L 609.84 152.80 L 611.14 151.26 L 612.44 151.26 L 613.73 162.61 L 617.62 161.07 L 618.91 152.80 L 622.80 240.81 L 626.68 180.60 L 627.98 182.14 L 629.27 172.41 L 630.57 209.93 L 631.87 239.27 L 635.75 191.95 L 637.05 190.40 L 638.34 180.60 L 639.64 180.60 L 640.93 183.53 L 644.82 197.43 L 646.11 185.15 L 647.41 221.13 L 648.70 221.13 L 650.00 186.70" /><text  class="poloto_text poloto_legend_text" x="675" y="150" >Refinance 20</text><line  class="poloto_line poloto_legend_icon poloto1stroke poloto1legend" stroke="black" x1="680" x2="730" y1="131.25" y2="131.25" /><path  class="poloto_line poloto1stroke" fill="none" stroke="black" d=" M 150.00 350.51 L 151.30 371.13 L 155.18 340.40 L 156.48 330.98 L 157.77 339.63 L 157.77 339.63 L 160.36 312.61 L 164.25 310.29 L 165.54 320.10 L 166.84 309.14 L 168.13 318.94 L 169.43 300.57 L 173.32 328.67 L 174.61 300.57 L 174.61 300.57 L 177.20 300.57 L 177.20 300.57 L 182.38 263.51 L 183.68 293.15 L 184.97 300.57 L 186.27 310.29 L 187.56 291.22 L 192.75 272.47 L 194.04 270.07 L 195.34 265.29 L 196.63 254.32 L 200.52 259.11 L 201.81 279.88 L 204.40 272.47 L 205.70 270.07 L 209.59 262.27 L 210.88 271.31 L 212.18 271.31 L 212.18 271.31 L 214.77 271.31 L 218.65 272.47 L 219.95 292.00 L 219.95 292.00 L 221.24 281.03 L 222.54 299.41 L 223.83 292.00 L 227.72 293.15 L 229.02 292.00 L 230.31 292.00 L 230.31 292.00 L 231.61 293.15 L 232.90 299.41 L 236.79 300.57 L 238.08 304.04 L 239.38 304.04 L 240.67 304.04 L 241.97 304.04 L 247.15 299.41 L 248.45 289.60 L 249.74 292.00 L 251.04 292.00 L 251.04 292.00 L 256.22 279.88 L 257.51 282.19 L 258.81 273.62 L 263.99 232.24 L 265.28 215.11 L 266.58 224.91 L 267.88 232.24 L 269.17 252.93 L 273.06 240.74 L 274.35 234.64 L 275.65 254.17 L 276.94 263.51 L 282.12 263.51 L 283.42 252.93 L 284.72 262.74 L 286.01 272.47 L 287.31 283.43 L 292.49 290.76 L 293.78 281.03 L 295.08 271.31 L 296.37 264.67 L 300.26 270.07 L 302.85 272.47 L 304.15 271.31 L 309.33 272.47 L 309.33 272.47 L 309.33 272.47 L 309.33 272.47 L 309.33 272.47 L 309.33 272.47 L 309.33 272.47 L 309.33 272.47 L 309.33 272.47 L 309.33 272.47 L 309.33 272.47 L 309.33 272.47 L 318.39 290.76 L 320.98 293.15 L 322.28 310.29 L 323.58 312.61 L 327.46 310.06 L 328.76 310.06 L 330.05 300.57 L 331.35 304.04 L 332.64 289.60 L 336.53 282.19 L 336.53 282.19 L 337.82 282.19 L 340.41 292.00 L 340.41 292.00 L 346.89 289.60 L 348.19 272.47 L 349.48 272.47 L 354.66 259.88 L 357.25 249.31 L 357.25 249.31 L 359.84 261.12 L 365.03 232.24 L 365.03 232.24 L 365.03 232.24 L 365.03 232.24 L 365.03 232.24 L 365.03 232.24 L 365.03 232.24 L 365.03 232.24 L 365.03 232.24 L 368.91 232.24 L 376.68 219.97 L 381.87 221.20 L 384.46 221.20 L 385.75 221.20 L 385.75 221.20 L 392.23 221.20 L 393.52 221.20 L 393.52 221.20 L 393.52 221.20 L 393.52 221.20 L 409.07 221.20 L 410.36 221.20 L 418.13 143.85 L 419.43 129.41 L 419.43 129.41 L 469.95 177.12 L 472.54 177.12 L 473.83 177.12 L 476.42 194.26 L 477.72 195.50 L 477.72 195.50 L 482.90 195.50 L 484.20 195.50 L 485.49 195.50 L 486.79 195.50 L 490.67 195.50 L 491.97 195.50 L 494.56 195.50 L 495.85 195.50 L 499.74 195.50 L 501.04 195.50 L 501.04 195.50 L 504.92 195.50 L 508.81 195.50 L 510.10 195.50 L 511.40 195.50 L 512.69 195.50 L 513.99 195.50 L 519.17 178.05 L 520.47 168.55 L 521.76 167.32 L 523.06 169.87 L 526.94 169.87 L 528.24 169.87 L 528.24 169.87 L 530.83 188.16 L 532.12 188.16 L 536.01 188.16 L 537.31 188.16 L 538.60 188.16 L 539.90 188.16 L 541.19 188.16 L 541.19 188.16 L 546.37 188.16 L 546.37 188.16 L 547.67 188.16 L 550.26 188.16 L 554.15 188.16 L 555.44 188.16 L 558.03 188.16 L 559.33 188.16 L 564.51 188.16 L 565.80 188.16 L 567.10 188.16 L 568.39 209.01 L 572.28 207.77 L 573.58 178.36 L 574.87 179.59 L 574.87 179.59 L 577.46 178.36 L 581.35 158.75 L 582.64 158.75 L 583.94 150.26 L 585.23 140.45 L 586.53 149.02 L 590.41 140.45 L 591.71 130.65 L 593.01 140.45 L 594.30 150.26 L 595.60 139.22 L 600.78 140.45 L 602.07 129.41 L 603.37 100.00 L 604.66 129.41 L 608.55 150.26 L 609.84 169.17 L 611.14 140.45 L 612.44 139.22 L 613.73 167.32 L 617.62 160.06 L 618.91 150.26 L 622.80 210.24 L 626.68 168.55 L 627.98 158.75 L 629.27 160.06 L 630.57 188.16 L 631.87 189.40 L 635.75 169.87 L 637.05 160.06 L 638.34 160.06 L 639.64 160.06 L 639.64 160.06 L 639.64 160.06 L 639.64 160.06 L 639.64 160.06 L 639.64 160.06 L 639.64 160.06" /><text  class="poloto_text poloto_legend_text" x="675" y="200" >Refinance 30</text><line  class="poloto_line poloto_legend_icon poloto2stroke poloto2legend" stroke="black" x1="680" x2="730" y1="181.25" y2="181.25" /><path  class="poloto_line poloto2stroke" fill="none" stroke="black" d=" M 150.00 348.35 L 151.30 355.69 L 155.18 344.26 L 156.48 335.31 L 157.77 337.00 L 157.77 337.00 L 160.36 318.24 L 164.25 316.62 L 165.54 326.35 L 166.84 315.77 L 168.13 325.50 L 169.43 306.82 L 173.32 315.77 L 174.61 297.01 L 175.91 297.01 L 177.20 296.17 L 178.50 272.47 L 182.38 276.63 L 183.68 287.29 L 184.97 297.01 L 186.27 288.14 L 187.56 277.48 L 192.75 269.38 L 194.04 256.18 L 195.34 254.40 L 196.63 252.55 L 200.52 256.18 L 201.81 271.31 L 204.40 269.38 L 205.70 267.60 L 209.59 257.95 L 210.88 268.45 L 212.18 257.95 L 212.18 257.95 L 214.77 257.95 L 218.65 259.73 L 219.95 276.63 L 219.95 276.63 L 221.24 268.45 L 222.54 269.38 L 223.83 270.23 L 227.72 277.48 L 229.02 269.38 L 230.31 269.38 L 230.31 269.38 L 231.61 278.33 L 232.90 279.26 L 236.79 280.11 L 238.08 288.14 L 239.38 288.14 L 240.67 289.84 L 241.97 289.84 L 247.15 286.36 L 248.45 276.63 L 249.74 278.33 L 251.04 277.48 L 251.04 277.48 L 256.22 268.45 L 257.51 268.45 L 258.81 258.80 L 263.99 219.74 L 265.28 192.10 L 266.58 209.01 L 267.88 219.74 L 269.17 229.46 L 273.06 220.59 L 274.35 219.74 L 275.65 237.49 L 276.94 239.27 L 282.12 239.27 L 283.42 228.62 L 284.72 237.49 L 286.01 247.22 L 287.31 268.45 L 292.49 269.38 L 293.78 258.80 L 295.08 240.20 L 296.37 237.49 L 300.26 255.25 L 302.85 239.27 L 304.15 238.34 L 309.33 256.18 L 309.33 256.18 L 309.33 256.18 L 309.33 256.18 L 309.33 256.18 L 309.33 256.18 L 311.92 256.18 L 311.92 256.18 L 311.92 256.18 L 311.92 256.18 L 311.92 256.18 L 311.92 256.18 L 318.39 267.60 L 320.98 269.38 L 322.28 286.36 L 323.58 297.86 L 327.46 297.01 L 328.76 297.01 L 330.05 277.48 L 331.35 280.11 L 332.64 267.60 L 336.53 277.48 L 336.53 277.48 L 337.82 270.23 L 340.41 278.33 L 340.41 278.33 L 346.89 276.63 L 348.19 259.73 L 349.48 258.80 L 354.66 236.57 L 357.25 228.62 L 357.25 228.62 L 359.84 238.34 L 365.03 227.69 L 365.03 227.69 L 365.03 227.69 L 365.03 227.69 L 365.03 227.69 L 365.03 227.69 L 365.03 227.69 L 365.03 227.69 L 368.91 227.69 L 368.91 226.76 L 376.68 215.11 L 381.87 195.50 L 381.87 195.50 L 385.75 195.50 L 385.75 195.50 L 392.23 195.50 L 393.52 195.50 L 393.52 195.50 L 393.52 195.50 L 393.52 195.50 L 409.07 195.50 L 410.36 195.50 L 418.13 151.34 L 419.43 126.71 L 419.43 126.71 L 469.95 169.02 L 472.54 169.02 L 473.83 169.02 L 475.13 172.95 L 477.72 181.91 L 477.72 181.91 L 482.90 181.91 L 484.20 181.91 L 485.49 181.91 L 486.79 181.91 L 490.67 181.91 L 491.97 181.91 L 494.56 181.91 L 495.85 181.91 L 499.74 181.91 L 501.04 181.91 L 501.04 181.91 L 504.92 181.91 L 508.81 181.91 L 510.10 181.91 L 511.40 181.91 L 512.69 181.91 L 513.99 181.91 L 519.17 167.01 L 520.47 174.88 L 521.76 156.20 L 523.06 174.88 L 526.94 174.88 L 528.24 174.88 L 528.24 174.88 L 530.83 174.88 L 532.12 174.88 L 536.01 174.88 L 537.31 174.88 L 538.60 174.88 L 539.90 174.88 L 541.19 174.88 L 541.19 174.88 L 546.37 174.88 L 546.37 174.88 L 547.67 174.88 L 550.26 174.88 L 554.15 174.88 L 555.44 174.88 L 558.03 174.88 L 559.33 174.88 L 564.51 174.88 L 565.80 174.88 L 567.10 174.88 L 568.39 224.91 L 572.28 215.11 L 573.58 175.89 L 574.87 205.30 L 576.17 175.89 L 577.46 166.01 L 581.35 156.20 L 582.64 156.20 L 583.94 147.32 L 585.23 137.52 L 586.53 146.40 L 590.41 146.40 L 591.71 135.59 L 593.01 127.71 L 594.30 137.52 L 595.60 128.72 L 600.78 127.71 L 602.07 116.91 L 603.37 116.91 L 604.66 126.71 L 608.55 127.71 L 609.84 117.91 L 611.14 125.78 L 612.44 117.91 L 613.73 147.32 L 617.62 147.32 L 618.91 127.71 L 622.80 206.23 L 626.68 147.32 L 627.98 146.40 L 629.27 146.40 L 630.57 176.81 L 631.87 176.81 L 635.75 157.21 L 637.05 157.21 L 638.34 156.20 L 639.64 156.20 L 640.93 148.02 L 644.82 149.02 L 646.11 157.05 L 647.41 187.31 L 648.70 177.66 L 650.00 158.05" /><text  class="poloto_labels poloto_text poloto_title" x="400" y="37.5" >lower.com purchase rates</text><text  class="poloto_labels poloto_text poloto_xname" x="400" y="481.25" >Date</text><text  class="poloto_labels poloto_text poloto_yname" transform="rotate(-90,37.5,250)" x="37.5" y="250" >Rate (%)</text><text  class="poloto_tick_labels poloto_text" dominant-baseline="middle" text-anchor="start" x="150" y="70" ></text><line  class="poloto_axis_lines" stroke="black" x1="150" x2="144" y1="391.12197632527017" y2="391.12197632527017" /><line  class="poloto_tick_line" stroke="black" x1="150" x2="650" y1="391.12197632527017" y2="391.12197632527017" /><text  class="poloto_tick_labels poloto_text" dominant-baseline="middle" text-anchor="end" x="135" y="391.12197632527017" >3.625</text><line  class="poloto_axis_lines" stroke="black" x1="150" x2="144" y1="381.4719505918682" y2="381.4719505918682" /><line  class="poloto_tick_line" stroke="black" x1="150" x2="650" y1="381.4719505918682" y2="381.4719505918682" /><text  class="poloto_tick_labels poloto_text" dominant-baseline="middle" text-anchor="end" x="135" y="381.4719505918682" >3.75</text><line  class="poloto_axis_lines" stroke="black" x1="150" x2="144" y1="371.8219248584663" y2="371.8219248584663" /><line  class="poloto_tick_line" stroke="black" x1="150" x2="650" y1="371.8219248584663" y2="371.8219248584663" /><text  class="poloto_tick_labels poloto_text" dominant-baseline="middle" text-anchor="end" x="135" y="371.8219248584663" >3.875</text><line  class="poloto_axis_lines" stroke="black" x1="150" x2="144" y1="362.17189912506433" y2="362.17189912506433" /><line  class="poloto_tick_line" stroke="black" x1="150" x2="650" y1="362.17189912506433" y2="362.17189912506433" /><text  class="poloto_tick_labels poloto_text" dominant-baseline="middle" text-anchor="end" x="135" y="362.17189912506433" >4</text><line  class="poloto_axis_lines" stroke="black" x1="150" x2="144" y1="352.5218733916624" y2="352.5218733916624" /><line  class="poloto_tick_line" stroke="black" x1="150" x2="650" y1="352.5218733916624" y2="352.5218733916624" /><text  class="poloto_tick_labels poloto_text" dominant-baseline="middle" text-anchor="end" x="135" y="352.5218733916624" >4.125</text><line  class="poloto_axis_lines" stroke="black" x1="150" x2="144" y1="342.87184765826044" y2="342.87184765826044" /><line  class="poloto_tick_line" stroke="black" x1="150" x2="650" y1="342.87184765826044" y2="342.87184765826044" /><text  class="poloto_tick_labels poloto_text" dominant-baseline="middle" text-anchor="end" x="135" y="342.87184765826044" >4.25</text><line  class="poloto_axis_lines" stroke="black" x1="150" x2="144" y1="333.2218219248585" y2="333.2218219248585" /><line  class="poloto_tick_line" stroke="black" x1="150" x2="650" y1="333.2218219248585" y2="333.2218219248585" /><text  class="poloto_tick_labels poloto_text" dominant-baseline="middle" text-anchor="end" x="135" y="333.2218219248585" >4.375</text><line  class="poloto_axis_lines" stroke="black" x1="150" x2="144" y1="323.5717961914565" y2="323.5717961914565" /><line  class="poloto_tick_line" stroke="black" x1="150" x2="650" y1="323.5717961914565" y2="323.5717961914565" /><text  class="poloto_tick_labels poloto_text" dominant-baseline="middle" text-anchor="end" x="135" y="323.5717961914565" >4.5</text><line  class="poloto_axis_lines" stroke="black" x1="150" x2="144" y1="313.92177045805454" y2="313.92177045805454" /><line  class="poloto_tick_line" stroke="black" x1="150" x2="650" y1="313.92177045805454" y2="313.92177045805454" /><text  class="poloto_tick_labels poloto_text" dominant-baseline="middle" text-anchor="end" x="135" y="313.92177045805454" >4.625</text><line  class="poloto_axis_lines" stroke="black" x1="150" x2="144" y1="304.2717447246526" y2="304.2717447246526" /><line  class="poloto_tick_line" stroke="black" x1="150" x2="650" y1="304.2717447246526" y2="304.2717447246526" /><text  class="poloto_tick_labels poloto_text" dominant-baseline="middle" text-anchor="end" x="135" y="304.2717447246526" >4.75</text><line  class="poloto_axis_lines" stroke="black" x1="150" x2="144" y1="294.62171899125065" y2="294.62171899125065" /><line  class="poloto_tick_line" stroke="black" x1="150" x2="650" y1="294.62171899125065" y2="294.62171899125065" /><text  class="poloto_tick_labels poloto_text" dominant-baseline="middle" text-anchor="end" x="135" y="294.62171899125065" >4.875</text><line  class="poloto_axis_lines" stroke="black" x1="150" x2="144" y1="284.9716932578487" y2="284.9716932578487" /><line  class="poloto_tick_line" stroke="black" x1="150" x2="650" y1="284.9716932578487" y2="284.9716932578487" /><text  class="poloto_tick_labels poloto_text" dominant-baseline="middle" text-anchor="end" x="135" y="284.9716932578487" >5</text><line  class="poloto_axis_lines" stroke="black" x1="150" x2="144" y1="275.32166752444675" y2="275.32166752444675" /><line  class="poloto_tick_line" stroke="black" x1="150" x2="650" y1="275.32166752444675" y2="275.32166752444675" /><text  class="poloto_tick_labels poloto_text" dominant-baseline="middle" text-anchor="end" x="135" y="275.32166752444675" >5.125</text><line  class="poloto_axis_lines" stroke="black" x1="150" x2="144" y1="265.67164179104475" y2="265.67164179104475" /><line  class="poloto_tick_line" stroke="black" x1="150" x2="650" y1="265.67164179104475" y2="265.67164179104475" /><text  class="poloto_tick_labels poloto_text" dominant-baseline="middle" text-anchor="end" x="135" y="265.67164179104475" >5.25</text><line  class="poloto_axis_lines" stroke="black" x1="150" x2="144" y1="256.0216160576428" y2="256.0216160576428" /><line  class="poloto_tick_line" stroke="black" x1="150" x2="650" y1="256.0216160576428" y2="256.0216160576428" /><text  class="poloto_tick_labels poloto_text" dominant-baseline="middle" text-anchor="end" x="135" y="256.0216160576428" >5.375</text><line  class="poloto_axis_lines" stroke="black" x1="150" x2="144" y1="246.37159032424086" y2="246.37159032424086" /><line  class="poloto_tick_line" stroke="black" x1="150" x2="650" y1="246.37159032424086" y2="246.37159032424086" /><text  class="poloto_tick_labels poloto_text" dominant-baseline="middle" text-anchor="end" x="135" y="246.37159032424086" >5.5</text><line  class="poloto_axis_lines" stroke="black" x1="150" x2="144" y1="236.7215645908389" y2="236.7215645908389" /><line  class="poloto_tick_line" stroke="black" x1="150" x2="650" y1="236.7215645908389" y2="236.7215645908389" /><text  class="poloto_tick_labels poloto_text" dominant-baseline="middle" text-anchor="end" x="135" y="236.7215645908389" >5.625</text><line  class="poloto_axis_lines" stroke="black" x1="150" x2="144" y1="227.07153885743696" y2="227.07153885743696" /><line  class="poloto_tick_line" stroke="black" x1="150" x2="650" y1="227.07153885743696" y2="227.07153885743696" /><text  class="poloto_tick_labels poloto_text" dominant-baseline="middle" text-anchor="end" x="135" y="227.07153885743696" >5.75</text><line  class="poloto_axis_lines" stroke="black" x1="150" x2="144" y1="217.42151312403502" y2="217.42151312403502" /><line  class="poloto_tick_line" stroke="black" x1="150" x2="650" y1="217.42151312403502" y2="217.42151312403502" /><text  class="poloto_tick_labels poloto_text" dominant-baseline="middle" text-anchor="end" x="135" y="217.42151312403502" >5.875</text><line  class="poloto_axis_lines" stroke="black" x1="150" x2="144" y1="207.771487390633" y2="207.771487390633" /><line  class="poloto_tick_line" stroke="black" x1="150" x2="650" y1="207.771487390633" y2="207.771487390633" /><text  class="poloto_tick_labels poloto_text" dominant-baseline="middle" text-anchor="end" x="135" y="207.771487390633" >6</text><line  class="poloto_axis_lines" stroke="black" x1="150" x2="144" y1="198.12146165723107" y2="198.12146165723107" /><line  class="poloto_tick_line" stroke="black" x1="150" x2="650" y1="198.12146165723107" y2="198.12146165723107" /><text  class="poloto_tick_labels poloto_text" dominant-baseline="middle" text-anchor="end" x="135" y="198.12146165723107" >6.125</text><line  class="poloto_axis_lines" stroke="black" x1="150" x2="144" y1="188.47143592382912" y2="188.47143592382912" /><line  class="poloto_tick_line" stroke="black" x1="150" x2="650" y1="188.47143592382912" y2="188.47143592382912" /><text  class="poloto_tick_labels poloto_text" dominant-baseline="middle" text-anchor="end" x="135" y="188.47143592382912" >6.25</text><line  class="poloto_axis_lines" stroke="black" x1="150" x2="144" y1="178.82141019042717" y2="178.82141019042717" /><line  class="poloto_tick_line" stroke="black" x1="150" x2="650" y1="178.82141019042717" y2="178.82141019042717" /><text  class="poloto_tick_labels poloto_text" dominant-baseline="middle" text-anchor="end" x="135" y="178.82141019042717" >6.375</text><line  class="poloto_axis_lines" stroke="black" x1="150" x2="144" y1="169.17138445702523" y2="169.17138445702523" /><line  class="poloto_tick_line" stroke="black" x1="150" x2="650" y1="169.17138445702523" y2="169.17138445702523" /><text  class="poloto_tick_labels poloto_text" dominant-baseline="middle" text-anchor="end" x="135" y="169.17138445702523" >6.5</text><line  class="poloto_axis_lines" stroke="black" x1="150" x2="144" y1="159.52135872362328" y2="159.52135872362328" /><line  class="poloto_tick_line" stroke="black" x1="150" x2="650" y1="159.52135872362328" y2="159.52135872362328" /><text  class="poloto_tick_labels poloto_text" dominant-baseline="middle" text-anchor="end" x="135" y="159.52135872362328" >6.625</text><line  class="poloto_axis_lines" stroke="black" x1="150" x2="144" y1="149.87133299022133" y2="149.87133299022133" /><line  class="poloto_tick_line" stroke="black" x1="150" x2="650" y1="149.87133299022133" y2="149.87133299022133" /><text  class="poloto_tick_labels poloto_text" dominant-baseline="middle" text-anchor="end" x="135" y="149.87133299022133" >6.75</text><line  class="poloto_axis_lines" stroke="black" x1="150" x2="144" y1="140.22130725681933" y2="140.22130725681933" /><line  class="poloto_tick_line" stroke="black" x1="150" x2="650" y1="140.22130725681933" y2="140.22130725681933" /><text  class="poloto_tick_labels poloto_text" dominant-baseline="middle" text-anchor="end" x="135" y="140.22130725681933" >6.875</text><line  class="poloto_axis_lines" stroke="black" x1="150" x2="144" y1="130.57128152341744" y2="130.57128152341744" /><line  class="poloto_tick_line" stroke="black" x1="150" x2="650" y1="130.57128152341744" y2="130.57128152341744" /><text  class="poloto_tick_labels poloto_text" dominant-baseline="middle" text-anchor="end" x="135" y="130.57128152341744" >7</text><line  class="poloto_axis_lines" stroke="black" x1="150" x2="144" y1="120.92125579001544" y2="120.92125579001544" /><line  class="poloto_tick_line" stroke="black" x1="150" x2="650" y1="120.92125579001544" y2="120.92125579001544" /><text  class="poloto_tick_labels poloto_text" dominant-baseline="middle" text-anchor="end" x="135" y="120.92125579001544" >7.125</text><line  class="poloto_axis_lines" stroke="black" x1="150" x2="144" y1="111.27123005661343" y2="111.27123005661343" /><line  class="poloto_tick_line" stroke="black" x1="150" x2="650" y1="111.27123005661343" y2="111.27123005661343" /><text  class="poloto_tick_labels poloto_text" dominant-baseline="middle" text-anchor="end" x="135" y="111.27123005661343" >7.25</text><line  class="poloto_axis_lines" stroke="black" x1="150" x2="144" y1="101.62120432321154" y2="101.62120432321154" /><line  class="poloto_tick_line" stroke="black" x1="150" x2="650" y1="101.62120432321154" y2="101.62120432321154" /><text  class="poloto_tick_labels poloto_text" dominant-baseline="middle" text-anchor="end" x="135" y="101.62120432321154" >7.375</text><text  class="poloto_tick_labels poloto_text" dominant-baseline="middle" text-anchor="start" x="440.00000000000006" y="70" >¹2022-05-01 00:00:00 UTC in Months</text><line  class="poloto_axis_lines" stroke="black" x1="208.29015544041613" x2="208.29015544041613" y1="400" y2="405" /><line  class="poloto_tick_line" stroke="black" x1="208.29015544041613" x2="208.29015544041613" y1="400" y2="100.00000000000006" /><text  class="poloto_tick_labels poloto_text" dominant-baseline="start" text-anchor="middle" x="208.29015544041613" y="430" >2022 May¹</text><line  class="poloto_axis_lines" stroke="black" x1="287.3056994818653" x2="287.3056994818653" y1="400" y2="405" /><line  class="poloto_tick_line" stroke="black" x1="287.3056994818653" x2="287.3056994818653" y1="400" y2="100.00000000000006" /><text  class="poloto_tick_labels poloto_text" dominant-baseline="start" text-anchor="middle" x="287.3056994818653" y="430" >2022 Jul</text><line  class="poloto_axis_lines" stroke="black" x1="367.61658031088155" x2="367.61658031088155" y1="400" y2="405" /><line  class="poloto_tick_line" stroke="black" x1="367.61658031088155" x2="367.61658031088155" y1="400" y2="100.00000000000006" /><text  class="poloto_tick_labels poloto_text" dominant-baseline="start" text-anchor="middle" x="367.61658031088155" y="430" >2022 Sep</text><line  class="poloto_axis_lines" stroke="black" x1="446.63212435233436" x2="446.63212435233436" y1="400" y2="405" /><line  class="poloto_tick_line" stroke="black" x1="446.63212435233436" x2="446.63212435233436" y1="400" y2="100.00000000000006" /><text  class="poloto_tick_labels poloto_text" dominant-baseline="start" text-anchor="middle" x="446.63212435233436" y="430" >2022 Nov</text><line  class="poloto_axis_lines" stroke="black" x1="525.6476683937835" x2="525.6476683937835" y1="400" y2="405" /><line  class="poloto_tick_line" stroke="black" x1="525.6476683937835" x2="525.6476683937835" y1="400" y2="100.00000000000006" /><text  class="poloto_tick_labels poloto_text" dominant-baseline="start" text-anchor="middle" x="525.6476683937835" y="430" >2023 Jan</text><line  class="poloto_axis_lines" stroke="black" x1="602.0725388601059" x2="602.0725388601059" y1="400" y2="405" /><line  class="poloto_tick_line" stroke="black" x1="602.0725388601059" x2="602.0725388601059" y1="400" y2="100.00000000000006" /><text  class="poloto_tick_labels poloto_text" dominant-baseline="start" text-anchor="middle" x="602.0725388601059" y="430" >2023 Mar</text><path  stroke="black" fill="none" class="poloto_axis_lines" d=" M 150 400 L 650 400" /><path  stroke="black" fill="none" class="poloto_axis_lines" d=" M 150 400 L 150 100.00000000000006" /></svg>