<svg class="poloto" width="800" height="500" viewBox="0 0 800 500" xmlns="http://www.w3.org/2000/svg"><style>.poloto{stroke-linecap:round;stroke-linejoin:round;font-family:Roboto,sans-serif;font-size:16px;}.poloto_background{fill:#262626;}.poloto_scatter{stroke-width:7}.poloto_tick_line{stroke:dimgray;stroke-width:0.5}.poloto_line{stroke-width:2}.poloto_text{fill: white;}.poloto_axis_lines{stroke: white;stroke-width:3;fill:none;stroke-dasharray:none}.poloto_title{font-size:24px;dominant-baseline:start;text-anchor:middle;}.poloto_xname{font-size:24px;dominant-baseline:start;text-anchor:middle;}.poloto_yname{font-size:24px;dominant-baseline:start;text-anchor:middle;}.poloto0stroke{stroke:blue;}.poloto1stroke{stroke:red;}.poloto2stroke{stroke:green;}.poloto3stroke{stroke:gold;}.poloto4stroke{stroke:aqua;}.poloto5stroke{stroke:lime;}.poloto6stroke{stroke:orange;}.poloto7stroke{stroke:chocolate;}.poloto0fill{fill:blue;}.poloto1fill{fill:red;}.poloto2fill{fill:green;}.poloto3fill{fill:gold;}.poloto4fill{fill:aqua;}.poloto5fill{fill:lime;}.poloto6fill{fill:orange;}.poloto7fill{fill:chocolate;}</style><circle  r="1e5" class="poloto_background" /><text  class="poloto_text poloto_legend_text" x="675" y="100" >Refinance 15</text><line  class="poloto_line poloto_legend_icon poloto0stroke poloto0legend" stroke="black" x1="680" x2="730" y1="81.25" y2="81.25" /><path  class="poloto_line poloto0stroke" fill="none" stroke="black" d=" M 150.00 393.13 L 151.35 400.00 L 155.41 390.27 L 156.76 381.94 L 158.11 390.27 L 158.11 390.27 L 160.81 362.48 L 164.86 361.01 L 166.22 370.74 L 167.57 349.74 L 168.92 351.21 L 170.27 346.81 L 174.32 348.28 L 175.68 342.41 L 175.68 342.41 L 178.38 342.95 L 179.73 321.95 L 183.78 331.06 L 185.14 333.99 L 186.49 333.99 L 187.84 333.22 L 189.19 328.74 L 194.59 289.53 L 195.95 306.97 L 197.30 293.46 L 198.65 288.21 L 198.65 288.21 L 204.05 308.52 L 206.76 312.22 L 208.11 303.96 L 212.16 294.16 L 213.51 313.69 L 214.86 303.96 L 214.86 303.96 L 217.57 302.42 L 221.62 305.43 L 222.97 315.16 L 222.97 315.16 L 224.32 306.90 L 225.68 316.70 L 227.03 302.42 L 231.08 331.76 L 232.43 331.06 L 233.78 315.16 L 233.78 315.16 L 235.14 321.95 L 236.49 324.96 L 240.54 324.96 L 241.89 335.46 L 243.24 335.46 L 244.59 335.46 L 245.95 335.46 L 251.35 324.96 L 252.70 321.95 L 254.05 323.42 L 255.41 323.42 L 255.41 323.42 L 260.81 313.69 L 262.16 313.69 L 263.51 305.43 L 268.92 291.92 L 270.27 264.05 L 271.62 267.14 L 272.97 267.14 L 274.32 286.67 L 278.38 267.14 L 279.73 267.14 L 281.08 285.13 L 282.43 288.21 L 287.84 288.21 L 289.19 286.67 L 290.54 291.22 L 291.89 295.70 L 293.24 305.43 L 298.65 312.22 L 300.00 303.96 L 301.35 297.17 L 302.70 294.16 L 306.76 295.70 L 309.46 295.70 L 310.81 294.16 L 316.22 292.69 L 316.22 292.69 L 316.22 292.69 L 316.22 292.69 L 316.22 292.69 L 316.22 292.69 L 318.92 292.69 L 318.92 292.69 L 318.92 292.69 L 318.92 292.69 L 318.92 292.69 L 318.92 292.69 L 325.68 303.96 L 328.38 306.90 L 329.73 332.53 L 331.08 335.46 L 335.14 335.46 L 336.49 333.99 L 337.84 313.69 L 339.19 308.44 L 340.54 295.70 L 344.59 305.43 L 344.59 305.43 L 345.95 297.17 L 348.65 305.43 L 348.65 305.43 L 355.41 305.43 L 356.76 274.70 L 358.11 292.69 L 363.51 261.89 L 366.22 261.89 L 366.22 261.89 L 368.92 273.16 L 374.32 267.14 L 374.32 267.14 L 374.32 267.14 L 374.32 267.14 L 374.32 267.14 L 374.32 267.14 L 374.32 267.14 L 374.32 267.14 L 374.32 267.14 L 378.38 267.14 L 386.49 247.53 L 391.89 249.85 L 391.89 249.85 L 395.95 249.85 L 401.35 249.85 L 402.70 249.85 L 402.70 249.85 L 402.70 249.85 L 402.70 249.85 L 402.70 249.85 L 420.27 249.85 L 421.62 249.85 L 429.73 162.92 L 431.08 154.66 L 432.43 154.66 L 481.08 180.60 L 486.49 180.60 L 487.84 180.60 L 489.19 195.50 L 491.89 203.68 L 491.89 203.68 L 497.30 203.68 L 498.65 203.68 L 500.00 203.68 L 501.35 203.68 L 505.41 203.68 L 506.76 203.68 L 509.46 203.68 L 510.81 203.68 L 514.86 203.68 L 516.22 203.68 L 516.22 203.68 L 520.27 203.68 L 524.32 203.68 L 525.68 203.68 L 527.03 203.68 L 528.38 203.68 L 529.73 203.68 L 535.14 226.15 L 536.49 200.21 L 537.84 180.60 L 539.19 190.40 L 543.24 190.40 L 544.59 190.40 L 544.59 190.40 L 547.30 211.48 L 548.65 211.48 L 552.70 211.48 L 554.05 211.48 L 555.41 211.48 L 556.76 211.48 L 558.11 211.48 L 558.11 211.48 L 558.11 211.48 L 558.11 211.48 L 564.86 211.48 L 567.57 211.48 L 571.62 211.48 L 572.97 211.48 L 575.68 211.48 L 577.03 211.48 L 582.43 211.48 L 583.78 211.48 L 585.14 211.48 L 586.49 239.27 L 590.54 245.45 L 591.89 209.93 L 593.24 221.28 L 594.59 219.74 L 595.95 201.75 L 600.00 161.07 L 601.35 161.07 L 602.70 161.07 L 604.05 162.61 L 605.41 170.79 L 609.46 162.61 L 610.81 162.61 L 612.16 151.26 L 613.51 161.07 L 614.86 141.46 L 620.27 151.26 L 621.62 152.80 L 622.97 143.08 L 624.32 149.64 L 628.38 155.97 L 629.73 152.80 L 631.08 151.26 L 632.43 151.26 L 633.78 162.61 L 637.84 161.07 L 639.19 152.80 L 643.24 240.81 L 647.30 180.60 L 648.65 182.14 L 650.00 172.41" /><text  class="poloto_text poloto_legend_text" x="675" y="150" >Refinance 20</text><line  class="poloto_line poloto_legend_icon poloto1stroke poloto1legend" stroke="black" x1="680" x2="730" y1="131.25" y2="131.25" /><path  class="poloto_line poloto1stroke" fill="none" stroke="black" d=" M 150.00 350.51 L 151.35 371.13 L 155.41 340.40 L 156.76 330.98 L 158.11 339.63 L 158.11 339.63 L 160.81 312.61 L 164.86 310.29 L 166.22 320.10 L 167.57 309.14 L 168.92 318.94 L 170.27 300.57 L 174.32 328.67 L 175.68 300.57 L 175.68 300.57 L 178.38 300.57 L 178.38 300.57 L 183.78 263.51 L 185.14 293.15 L 186.49 300.57 L 187.84 310.29 L 189.19 291.22 L 194.59 272.47 L 195.95 270.07 L 197.30 265.29 L 198.65 254.32 L 202.70 259.11 L 204.05 279.88 L 206.76 272.47 L 208.11 270.07 L 212.16 262.27 L 213.51 271.31 L 214.86 271.31 L 214.86 271.31 L 217.57 271.31 L 221.62 272.47 L 222.97 292.00 L 222.97 292.00 L 224.32 281.03 L 225.68 299.41 L 227.03 292.00 L 231.08 293.15 L 232.43 292.00 L 233.78 292.00 L 233.78 292.00 L 235.14 293.15 L 236.49 299.41 L 240.54 300.57 L 241.89 304.04 L 243.24 304.04 L 244.59 304.04 L 245.95 304.04 L 251.35 299.41 L 252.70 289.60 L 254.05 292.00 L 255.41 292.00 L 255.41 292.00 L 260.81 279.88 L 262.16 282.19 L 263.51 273.62 L 268.92 232.24 L 270.27 215.11 L 271.62 224.91 L 272.97 232.24 L 274.32 252.93 L 278.38 240.74 L 279.73 234.64 L 281.08 254.17 L 282.43 263.51 L 287.84 263.51 L 289.19 252.93 L 290.54 262.74 L 291.89 272.47 L 293.24 283.43 L 298.65 290.76 L 300.00 281.03 L 301.35 271.31 L 302.70 264.67 L 306.76 270.07 L 309.46 272.47 L 310.81 271.31 L 316.22 272.47 L 316.22 272.47 L 316.22 272.47 L 316.22 272.47 L 316.22 272.47 L 316.22 272.47 L 316.22 272.47 L 316.22 272.47 L 316.22 272.47 L 316.22 272.47 L 316.22 272.47 L 316.22 272.47 L 325.68 290.76 L 328.38 293.15 L 329.73 310.29 L 331.08 312.61 L 335.14 310.06 L 336.49 310.06 L 337.84 300.57 L 339.19 304.04 L 340.54 289.60 L 344.59 282.19 L 344.59 282.19 L 345.95 282.19 L 348.65 292.00 L 348.65 292.00 L 355.41 289.60 L 356.76 272.47 L 358.11 272.47 L 363.51 259.88 L 366.22 249.31 L 366.22 249.31 L 368.92 261.12 L 374.32 232.24 L 374.32 232.24 L 374.32 232.24 L 374.32 232.24 L 374.32 232.24 L 374.32 232.24 L 374.32 232.24 L 374.32 232.24 L 374.32 232.24 L 378.38 232.24 L 386.49 219.97 L 391.89 221.20 L 394.59 221.20 L 395.95 221.20 L 395.95 221.20 L 402.70 221.20 L 404.05 221.20 L 404.05 221.20 L 404.05 221.20 L 404.05 221.20 L 420.27 221.20 L 421.62 221.20 L 429.73 143.85 L 431.08 129.41 L 431.08 129.41 L 483.78 177.12 L 486.49 177.12 L 487.84 177.12 L 490.54 194.26 L 491.89 195.50 L 491.89 195.50 L 497.30 195.50 L 498.65 195.50 L 500.00 195.50 L 501.35 195.50 L 505.41 195.50 L 506.76 195.50 L 509.46 195.50 L 510.81 195.50 L 514.86 195.50 L 516.22 195.50 L 516.22 195.50 L 520.27 195.50 L 524.32 195.50 L 525.68 195.50 L 527.03 195.50 L 528.38 195.50 L 529.73 195.50 L 535.14 178.05 L 536.49 168.55 L 537.84 167.32 L 539.19 169.87 L 543.24 169.87 L 544.59 169.87 L 544.59 169.87 L 547.30 188.16 L 548.65 188.16 L 552.70 188.16 L 554.05 188.16 L 555.41 188.16 L 556.76 188.16 L 558.11 188.16 L 558.11 188.16 L 563.51 188.16 L 563.51 188.16 L 564.86 188.16 L 567.57 188.16 L 571.62 188.16 L 572.97 188.16 L 575.68 188.16 L 577.03 188.16 L 582.43 188.16 L 583.78 188.16 L 585.14 188.16 L 586.49 209.01 L 590.54 207.77 L 591.89 178.36 L 593.24 179.59 L 593.24 179.59 L 595.95 178.36 L 600.00 158.75 L 601.35 158.75 L 602.70 150.26 L 604.05 140.45 L 605.41 149.02 L 609.46 140.45 L 610.81 130.65 L 612.16 140.45 L 613.51 150.26 L 614.86 139.22 L 620.27 140.45 L 621.62 129.41 L 622.97 100.00 L 624.32 129.41 L 628.38 150.26 L 629.73 169.17 L 631.08 140.45 L 632.43 139.22 L 633.78 167.32 L 637.84 160.06 L 639.19 150.26 L 643.24 210.24 L 647.30 168.55 L 648.65 158.75 L 650.00 160.06" /><text  class="poloto_text poloto_legend_text" x="675" y="200" >Refinance 30</text><line  class="poloto_line poloto_legend_icon poloto2stroke poloto2legend" stroke="black" x1="680" x2="730" y1="181.25" y2="181.25" /><path  class="poloto_line poloto2stroke" fill="none" stroke="black" d=" M 150.00 348.35 L 151.35 355.69 L 155.41 344.26 L 156.76 335.31 L 158.11 337.00 L 158.11 337.00 L 160.81 318.24 L 164.86 316.62 L 166.22 326.35 L 167.57 315.77 L 168.92 325.50 L 170.27 306.82 L 174.32 315.77 L 175.68 297.01 L 177.03 297.01 L 178.38 296.17 L 179.73 272.47 L 183.78 276.63 L 185.14 287.29 L 186.49 297.01 L 187.84 288.14 L 189.19 277.48 L 194.59 269.38 L 195.95 256.18 L 197.30 254.40 L 198.65 252.55 L 202.70 256.18 L 204.05 271.31 L 206.76 269.38 L 208.11 267.60 L 212.16 257.95 L 213.51 268.45 L 214.86 257.95 L 214.86 257.95 L 217.57 257.95 L 221.62 259.73 L 222.97 276.63 L 222.97 276.63 L 224.32 268.45 L 225.68 269.38 L 227.03 270.23 L 231.08 277.48 L 232.43 269.38 L 233.78 269.38 L 233.78 269.38 L 235.14 278.33 L 236.49 279.26 L 240.54 280.11 L 241.89 288.14 L 243.24 288.14 L 244.59 289.84 L 245.95 289.84 L 251.35 286.36 L 252.70 276.63 L 254.05 278.33 L 255.41 277.48 L 255.41 277.48 L 260.81 268.45 L 262.16 268.45 L 263.51 258.80 L 268.92 219.74 L 270.27 192.10 L 271.62 209.01 L 272.97 219.74 L 274.32 229.46 L 278.38 220.59 L 279.73 219.74 L 281.08 237.49 L 282.43 239.27 L 287.84 239.27 L 289.19 228.62 L 290.54 237.49 L 291.89 247.22 L 293.24 268.45 L 298.65 269.38 L 300.00 258.80 L 301.35 240.20 L 302.70 237.49 L 306.76 255.25 L 309.46 239.27 L 310.81 238.34 L 316.22 256.18 L 316.22 256.18 L 316.22 256.18 L 316.22 256.18 L 316.22 256.18 L 316.22 256.18 L 318.92 256.18 L 318.92 256.18 L 318.92 256.18 L 318.92 256.18 L 318.92 256.18 L 318.92 256.18 L 325.68 267.60 L 328.38 269.38 L 329.73 286.36 L 331.08 297.86 L 335.14 297.01 L 336.49 297.01 L 337.84 277.48 L 339.19 280.11 L 340.54 267.60 L 344.59 277.48 L 344.59 277.48 L 345.95 270.23 L 348.65 278.33 L 348.65 278.33 L 355.41 276.63 L 356.76 259.73 L 358.11 258.80 L 363.51 236.57 L 366.22 228.62 L 366.22 228.62 L 368.92 238.34 L 374.32 227.69 L 374.32 227.69 L 374.32 227.69 L 374.32 227.69 L 374.32 227.69 L 374.32 227.69 L 374.32 227.69 L 374.32 227.69 L 378.38 227.69 L 378.38 226.76 L 386.49 215.11 L 391.89 195.50 L 391.89 195.50 L 395.95 195.50 L 395.95 195.50 L 402.70 195.50 L 404.05 195.50 L 404.05 195.50 L 404.05 195.50 L 404.05 195.50 L 420.27 195.50 L 421.62 195.50 L 429.73 151.34 L 431.08 126.71 L 431.08 126.71 L 483.78 169.02 L 486.49 169.02 L 487.84 169.02 L 489.19 172.95 L 491.89 181.91 L 491.89 181.91 L 497.30 181.91 L 498.65 181.91 L 500.00 181.91 L 501.35 181.91 L 505.41 181.91 L 506.76 181.91 L 509.46 181.91 L 510.81 181.91 L 514.86 181.91 L 516.22 181.91 L 516.22 181.91 L 520.27 181.91 L 524.32 181.91 L 525.68 181.91 L 527.03 181.91 L 528.38 181.91 L 529.73 181.91 L 535.14 167.01 L 536.49 174.88 L 537.84 156.20 L 539.19 174.88 L 543.24 174.88 L 544.59 174.88 L 544.59 174.88 L 547.30 174.88 L 548.65 174.88 L 552.70 174.88 L 554.05 174.88 L 555.41 174.88 L 556.76 174.88 L 558.11 174.88 L 558.11 174.88 L 563.51 174.88 L 563.51 174.88 L 564.86 174.88 L 567.57 174.88 L 571.62 174.88 L 572.97 174.88 L 575.68 174.88 L 577.03 174.88 L 582.43 174.88 L 583.78 174.88 L 585.14 174.88 L 586.49 224.91 L 590.54 215.11 L 591.89 175.89 L 593.24 205.30 L 594.59 175.89 L 595.95 166.01 L 600.00 156.20 L 601.35 156.20 L 602.70 147.32 L 604.05 137.52 L 605.41 146.40 L 609.46 146.40 L 610.81 135.59 L 612.16 127.71 L 613.51 137.52 L 614.86 128.72 L 620.27 127.71 L 621.62 116.91 L 622.97 116.91 L 624.32 126.71 L 628.38 127.71 L 629.73 117.91 L 631.08 125.78 L 632.43 117.91 L 633.78 147.32 L 637.84 147.32 L 639.19 127.71 L 643.24 206.23 L 647.30 147.32 L 648.65 146.40 L 650.00 146.40" /><text  class="poloto_labels poloto_text poloto_title" x="400" y="37.5" >lower.com purchase rates</text><text  class="poloto_labels poloto_text poloto_xname" x="400" y="481.25" >Date</text><text  class="poloto_labels poloto_text poloto_yname" transform="rotate(-90,37.5,250)" x="37.5" y="250" >Rate (%)</text><text  class="poloto_tick_labels poloto_text" dominant-baseline="middle" text-anchor="start" x="150" y="70" ></text><line  class="poloto_axis_lines" stroke="black" x1="150" x2="144" y1="391.12197632527017" y2="391.12197632527017" /><line  class="poloto_tick_line" stroke="black" x1="150" x2="650" y1="391.12197632527017" y2="391.12197632527017" /><text  class="poloto_tick_labels poloto_text" dominant-baseline="middle" text-anchor="end" x="135" y="391.12197632527017" >3.625</text><line  class="poloto_axis_lines" stroke="black" x1="150" x2="144" y1="381.4719505918682" y2="381.4719505918682" /><line  class="poloto_tick_line" stroke="black" x1="150" x2="650" y1="381.4719505918682" y2="381.4719505918682" /><text  class="poloto_tick_labels poloto_text" dominant-baseline="middle" text-anchor="end" x="135" y="381.4719505918682" >3.75</text><line  class="poloto_axis_lines" stroke="black" x1="150" x2="144" y1="371.8219248584663" y2="371.8219248584663" /><line  class="poloto_tick_line" stroke="black" x1="150" x2="650" y1="371.8219248584663" y2="371.8219248584663" /><text  class="poloto_tick_labels poloto_text" dominant-baseline="middle" text-anchor="end" x="135" y="371.8219248584663" >3.875</text><line  class="poloto_axis_lines" stroke="black" x1="150" x2="144" y1="362.17189912506433" y2="362.17189912506433" /><line  class="poloto_tick_line" stroke="black" x1="150" x2="650" y1="362.17189912506433" y2="362.17189912506433" /><text  class="poloto_tick_labels poloto_text" dominant-baseline="middle" text-anchor="end" x="135" y="362.17189912506433" >4</text><line  class="poloto_axis_lines" stroke="black" x1="150" x2="144" y1="352.5218733916624" y2="352.5218733916624" /><line  class="poloto_tick_line" stroke="black" x1="150" x2="650" y1="352.5218733916624" y2="352.5218733916624" /><text  class="poloto_tick_labels poloto_text" dominant-baseline="middle" text-anchor="end" x="135" y="352.5218733916624" >4.125</text><line  class="poloto_axis_lines" stroke="black" x1="150" x2="144" y1="342.87184765826044" y2="342.87184765826044" /><line  class="poloto_tick_line" stroke="black" x1="150" x2="650" y1="342.87184765826044" y2="342.87184765826044" /><text  class="poloto_tick_labels poloto_text" dominant-baseline="middle" text-anchor="end" x="135" y="342.87184765826044" >4.25</text><line  class="poloto_axis_lines" stroke="black" x1="150" x2="144" y1="333.2218219248585" y2="333.2218219248585" /><line  class="poloto_tick_line" stroke="black" x1="150" x2="650" y1="333.2218219248585" y2="333.2218219248585" /><text  class="poloto_tick_labels poloto_text" dominant-baseline="middle" text-anchor="end" x="135" y="333.2218219248585" >4.375</text><line  class="poloto_axis_lines" stroke="black" x1="150" x2="144" y1="323.5717961914565" y2="323.5717961914565" /><line  class="poloto_tick_line" stroke="black" x1="150" x2="650" y1="323.5717961914565" y2="323.5717961914565" /><text  class="poloto_tick_labels poloto_text" dominant-baseline="middle" text-anchor="end" x="135" y="323.5717961914565" >4.5</text><line  class="poloto_axis_lines" stroke="black" x1="150" x2="144" y1="313.92177045805454" y2="313.92177045805454" /><line  class="poloto_tick_line" stroke="black" x1="150" x2="650" y1="313.92177045805454" y2="313.92177045805454" /><text  class="poloto_tick_labels poloto_text" dominant-baseline="middle" text-anchor="end" x="135" y="313.92177045805454" >4.625</text><line  class="poloto_axis_lines" stroke="black" x1="150" x2="144" y1="304.2717447246526" y2="304.2717447246526" /><line  class="poloto_tick_line" stroke="black" x1="150" x2="650" y1="304.2717447246526" y2="304.2717447246526" /><text  class="poloto_tick_labels poloto_text" dominant-baseline="middle" text-anchor="end" x="135" y="304.2717447246526" >4.75</text><line  class="poloto_axis_lines" stroke="black" x1="150" x2="144" y1="294.62171899125065" y2="294.62171899125065" /><line  class="poloto_tick_line" stroke="black" x1="150" x2="650" y1="294.62171899125065" y2="294.62171899125065" /><text  class="poloto_tick_labels poloto_text" dominant-baseline="middle" text-anchor="end" x="135" y="294.62171899125065" >4.875</text><line  class="poloto_axis_lines" stroke="black" x1="150" x2="144" y1="284.9716932578487" y2="284.9716932578487" /><line  class="poloto_tick_line" stroke="black" x1="150" x2="650" y1="284.9716932578487" y2="284.9716932578487" /><text  class="poloto_tick_labels poloto_text" dominant-baseline="middle" text-anchor="end" x="135" y="284.9716932578487" >5</text><line  class="poloto_axis_lines" stroke="black" x1="150" x2="144" y1="275.32166752444675" y2="275.32166752444675" /><line  class="poloto_tick_line" stroke="black" x1="150" x2="650" y1="275.32166752444675" y2="275.32166752444675" /><text  class="poloto_tick_labels poloto_text" dominant-baseline="middle" text-anchor="end" x="135" y="275.32166752444675" >5.125</text><line  class="poloto_axis_lines" stroke="black" x1="150" x2="144" y1="265.67164179104475" y2="265.67164179104475" /><line  class="poloto_tick_line" stroke="black" x1="150" x2="650" y1="265.67164179104475" y2="265.67164179104475" /><text  class="poloto_tick_labels poloto_text" dominant-baseline="middle" text-anchor="end" x="135" y="265.67164179104475" >5.25</text><line  class="poloto_axis_lines" stroke="black" x1="150" x2="144" y1="256.0216160576428" y2="256.0216160576428" /><line  class="poloto_tick_line" stroke="black" x1="150" x2="650" y1="256.0216160576428" y2="256.0216160576428" /><text  class="poloto_tick_labels poloto_text" dominant-baseline="middle" text-anchor="end" x="135" y="256.0216160576428" >5.375</text><line  class="poloto_axis_lines" stroke="black" x1="150" x2="144" y1="246.37159032424086" y2="246.37159032424086" /><line  class="poloto_tick_line" stroke="black" x1="150" x2="650" y1="246.37159032424086" y2="246.37159032424086" /><text  class="poloto_tick_labels poloto_text" dominant-baseline="middle" text-anchor="end" x="135" y="246.37159032424086" >5.5</text><line  class="poloto_axis_lines" stroke="black" x1="150" x2="144" y1="236.7215645908389" y2="236.7215645908389" /><line  class="poloto_tick_line" stroke="black" x1="150" x2="650" y1="236.7215645908389" y2="236.7215645908389" /><text  class="poloto_tick_labels poloto_text" dominant-baseline="middle" text-anchor="end" x="135" y="236.7215645908389" >5.625</text><line  class="poloto_axis_lines" stroke="black" x1="150" x2="144" y1="227.07153885743696" y2="227.07153885743696" /><line  class="poloto_tick_line" stroke="black" x1="150" x2="650" y1="227.07153885743696" y2="227.07153885743696" /><text  class="poloto_tick_labels poloto_text" dominant-baseline="middle" text-anchor="end" x="135" y="227.07153885743696" >5.75</text><line  class="poloto_axis_lines" stroke="black" x1="150" x2="144" y1="217.42151312403502" y2="217.42151312403502" /><line  class="poloto_tick_line" stroke="black" x1="150" x2="650" y1="217.42151312403502" y2="217.42151312403502" /><text  class="poloto_tick_labels poloto_text" dominant-baseline="middle" text-anchor="end" x="135" y="217.42151312403502" >5.875</text><line  class="poloto_axis_lines" stroke="black" x1="150" x2="144" y1="207.771487390633" y2="207.771487390633" /><line  class="poloto_tick_line" stroke="black" x1="150" x2="650" y1="207.771487390633" y2="207.771487390633" /><text  class="poloto_tick_labels poloto_text" dominant-baseline="middle" text-anchor="end" x="135" y="207.771487390633" >6</text><line  class="poloto_axis_lines" stroke="black" x1="150" x2="144" y1="198.12146165723107" y2="198.12146165723107" /><line  class="poloto_tick_line" stroke="black" x1="150" x2="650" y1="198.12146165723107" y2="198.12146165723107" /><text  class="poloto_tick_labels poloto_text" dominant-baseline="middle" text-anchor="end" x="135" y="198.12146165723107" >6.125</text><line  class="poloto_axis_lines" stroke="black" x1="150" x2="144" y1="188.47143592382912" y2="188.47143592382912" /><line  class="poloto_tick_line" stroke="black" x1="150" x2="650" y1="188.47143592382912" y2="188.47143592382912" /><text  class="poloto_tick_labels poloto_text" dominant-baseline="middle" text-anchor="end" x="135" y="188.47143592382912" >6.25</text><line  class="poloto_axis_lines" stroke="black" x1="150" x2="144" y1="178.82141019042717" y2="178.82141019042717" /><line  class="poloto_tick_line" stroke="black" x1="150" x2="650" y1="178.82141019042717" y2="178.82141019042717" /><text  class="poloto_tick_labels poloto_text" dominant-baseline="middle" text-anchor="end" x="135" y="178.82141019042717" >6.375</text><line  class="poloto_axis_lines" stroke="black" x1="150" x2="144" y1="169.17138445702523" y2="169.17138445702523" /><line  class="poloto_tick_line" stroke="black" x1="150" x2="650" y1="169.17138445702523" y2="169.17138445702523" /><text  class="poloto_tick_labels poloto_text" dominant-baseline="middle" text-anchor="end" x="135" y="169.17138445702523" >6.5</text><line  class="poloto_axis_lines" stroke="black" x1="150" x2="144" y1="159.52135872362328" y2="159.52135872362328" /><line  class="poloto_tick_line" stroke="black" x1="150" x2="650" y1="159.52135872362328" y2="159.52135872362328" /><text  class="poloto_tick_labels poloto_text" dominant-baseline="middle" text-anchor="end" x="135" y="159.52135872362328" >6.625</text><line  class="poloto_axis_lines" stroke="black" x1="150" x2="144" y1="149.87133299022133" y2="149.87133299022133" /><line  class="poloto_tick_line" stroke="black" x1="150" x2="650" y1="149.87133299022133" y2="149.87133299022133" /><text  class="poloto_tick_labels poloto_text" dominant-baseline="middle" text-anchor="end" x="135" y="149.87133299022133" >6.75</text><line  class="poloto_axis_lines" stroke="black" x1="150" x2="144" y1="140.22130725681933" y2="140.22130725681933" /><line  class="poloto_tick_line" stroke="black" x1="150" x2="650" y1="140.22130725681933" y2="140.22130725681933" /><text  class="poloto_tick_labels poloto_text" dominant-baseline="middle" text-anchor="end" x="135" y="140.22130725681933" >6.875</text><line  class="poloto_axis_lines" stroke="black" x1="150" x2="144" y1="130.57128152341744" y2="130.57128152341744" /><line  class="poloto_tick_line" stroke="black" x1="150" x2="650" y1="130.57128152341744" y2="130.57128152341744" /><text  class="poloto_tick_labels poloto_text" dominant-baseline="middle" text-anchor="end" x="135" y="130.57128152341744" >7</text><line  class="poloto_axis_lines" stroke="black" x1="150" x2="144" y1="120.92125579001544" y2="120.92125579001544" /><line  class="poloto_tick_line" stroke="black" x1="150" x2="650" y1="120.92125579001544" y2="120.92125579001544" /><text  class="poloto_tick_labels poloto_text" dominant-baseline="middle" text-anchor="end" x="135" y="120.92125579001544" >7.125</text><line  class="poloto_axis_lines" stroke="black" x1="150" x2="144" y1="111.27123005661343" y2="111.27123005661343" /><line  class="poloto_tick_line" stroke="black" x1="150" x2="650" y1="111.27123005661343" y2="111.27123005661343" /><text  class="poloto_tick_labels poloto_text" dominant-baseline="middle" text-anchor="end" x="135" y="111.27123005661343" >7.25</text><line  class="poloto_axis_lines" stroke="black" x1="150" x2="144" y1="101.62120432321154" y2="101.62120432321154" /><line  class="poloto_tick_line" stroke="black" x1="150" x2="650" y1="101.62120432321154" y2="101.62120432321154" /><text  class="poloto_tick_labels poloto_text" dominant-baseline="middle" text-anchor="end" x="135" y="101.62120432321154" >7.375</text><text  class="poloto_tick_labels poloto_text" dominant-baseline="middle" text-anchor="start" x="440.00000000000006" y="70" >¹2022-05-01 00:00:00 UTC in Months</text><line  class="poloto_axis_lines" stroke="black" x1="210.81081081080993" x2="210.81081081080993" y1="400" y2="405" /><line  class="poloto_tick_line" stroke="black" x1="210.81081081080993" x2="210.81081081080993" y1="400" y2="100.00000000000006" /><text  class="poloto_tick_labels poloto_text" dominant-baseline="start" text-anchor="middle" x="210.81081081080993" y="430" >2022 May¹</text><line  class="poloto_axis_lines" stroke="black" x1="293.24324324324334" x2="293.24324324324334" y1="400" y2="405" /><line  class="poloto_tick_line" stroke="black" x1="293.24324324324334" x2="293.24324324324334" y1="400" y2="100.00000000000006" /><text  class="poloto_tick_labels poloto_text" dominant-baseline="start" text-anchor="middle" x="293.24324324324334" y="430" >2022 Jul</text><line  class="poloto_axis_lines" stroke="black" x1="377.02702702702663" x2="377.02702702702663" y1="400" y2="405" /><line  class="poloto_tick_line" stroke="black" x1="377.02702702702663" x2="377.02702702702663" y1="400" y2="100.00000000000006" /><text  class="poloto_tick_labels poloto_text" dominant-baseline="start" text-anchor="middle" x="377.02702702702663" y="430" >2022 Sep</text><line  class="poloto_axis_lines" stroke="black" x1="459.45945945946005" x2="459.45945945946005" y1="400" y2="405" /><line  class="poloto_tick_line" stroke="black" x1="459.45945945946005" x2="459.45945945946005" y1="400" y2="100.00000000000006" /><text  class="poloto_tick_labels poloto_text" dominant-baseline="start" text-anchor="middle" x="459.45945945946005" y="430" >2022 Nov</text><line  class="poloto_axis_lines" stroke="black" x1="541.8918918918935" x2="541.8918918918935" y1="400" y2="405" /><line  class="poloto_tick_line" stroke="black" x1="541.8918918918935" x2="541.8918918918935" y1="400" y2="100.00000000000006" /><text  class="poloto_tick_labels poloto_text" dominant-baseline="start" text-anchor="middle" x="541.8918918918935" y="430" >2023 Jan</text><line  class="poloto_axis_lines" stroke="black" x1="621.6216216216235" x2="621.6216216216235" y1="400" y2="405" /><line  class="poloto_tick_line" stroke="black" x1="621.6216216216235" x2="621.6216216216235" y1="400" y2="100.00000000000006" /><text  class="poloto_tick_labels poloto_text" dominant-baseline="start" text-anchor="middle" x="621.6216216216235" y="430" >2023 Mar</text><path  stroke="black" fill="none" class="poloto_axis_lines" d=" M 150 400 L 650 400" /><path  stroke="black" fill="none" class="poloto_axis_lines" d=" M 150 400 L 150 100.00000000000006" /></svg>