<svg class="poloto" width="800" height="500" viewBox="0 0 800 500" xmlns="http://www.w3.org/2000/svg"><style>.poloto{stroke-linecap:round;stroke-linejoin:round;font-family:Roboto,sans-serif;font-size:16px;}.poloto_background{fill:#262626;}.poloto_scatter{stroke-width:7}.poloto_tick_line{stroke:dimgray;stroke-width:0.5}.poloto_line{stroke-width:2}.poloto_text{fill: white;}.poloto_axis_lines{stroke: white;stroke-width:3;fill:none;stroke-dasharray:none}.poloto_title{font-size:24px;dominant-baseline:start;text-anchor:middle;}.poloto_xname{font-size:24px;dominant-baseline:start;text-anchor:middle;}.poloto_yname{font-size:24px;dominant-baseline:start;text-anchor:middle;}.poloto0stroke{stroke:blue;}.poloto1stroke{stroke:red;}.poloto2stroke{stroke:green;}.poloto3stroke{stroke:gold;}.poloto4stroke{stroke:aqua;}.poloto5stroke{stroke:lime;}.poloto6stroke{stroke:orange;}.poloto7stroke{stroke:chocolate;}.poloto0fill{fill:blue;}.poloto1fill{fill:red;}.poloto2fill{fill:green;}.poloto3fill{fill:gold;}.poloto4fill{fill:aqua;}.poloto5fill{fill:lime;}.poloto6fill{fill:orange;}.poloto7fill{fill:chocolate;}</style><circle  r="1e5" class="poloto_background" /><text  class="poloto_text poloto_legend_text" x="675" y="100" >Refinance 15</text><line  class="poloto_line poloto_legend_icon poloto0stroke poloto0legend" stroke="black" x1="680" x2="730" y1="81.25" y2="81.25" /><path  class="poloto_line poloto0stroke" fill="none" stroke="black" d=" M 150.00 392.72 L 151.43 400.00 L 155.73 389.69 L 157.16 380.86 L 158.60 389.69 L 158.60 389.69 L 161.46 360.24 L 165.76 358.69 L 167.19 368.99 L 168.62 346.74 L 170.06 348.30 L 171.49 343.63 L 175.79 345.19 L 177.22 338.97 L 177.22 338.97 L 180.09 339.54 L 181.52 317.29 L 185.82 326.94 L 187.25 330.05 L 188.68 330.05 L 190.11 329.23 L 191.55 324.49 L 197.28 282.93 L 198.71 301.42 L 200.14 287.10 L 201.58 281.54 L 201.58 281.54 L 207.31 303.05 L 210.17 306.98 L 211.60 298.23 L 215.90 287.84 L 217.34 308.54 L 218.77 298.23 L 218.77 298.23 L 221.63 296.59 L 225.93 299.78 L 227.36 310.09 L 227.36 310.09 L 228.80 301.34 L 230.23 311.73 L 231.66 296.59 L 235.96 327.68 L 237.39 326.94 L 238.83 310.09 L 238.83 310.09 L 240.26 317.29 L 241.69 320.48 L 245.99 320.48 L 247.42 331.61 L 248.85 331.61 L 250.29 331.61 L 251.72 331.61 L 257.45 320.48 L 258.88 317.29 L 260.32 318.84 L 261.75 318.84 L 261.75 318.84 L 267.48 308.54 L 268.91 308.54 L 270.34 299.78 L 276.07 285.46 L 277.51 255.93 L 278.94 259.20 L 280.37 259.20 L 281.81 279.90 L 286.10 259.20 L 287.54 259.20 L 288.97 278.27 L 290.40 281.54 L 296.13 281.54 L 297.56 279.90 L 299.00 284.73 L 300.43 289.47 L 301.86 299.78 L 307.59 306.98 L 309.03 298.23 L 310.46 291.03 L 311.89 287.84 L 316.19 289.47 L 319.05 289.47 L 320.49 287.84 L 326.22 286.28 L 326.22 286.28 L 326.22 286.28 L 326.22 286.28 L 326.22 286.28 L 326.22 286.28 L 329.08 286.28 L 329.08 286.28 L 329.08 286.28 L 329.08 286.28 L 329.08 286.28 L 329.08 286.28 L 336.25 298.23 L 339.11 301.34 L 340.54 328.50 L 341.98 331.61 L 346.28 331.61 L 347.71 330.05 L 349.14 308.54 L 350.57 302.97 L 352.01 289.47 L 356.30 299.78 L 356.30 299.78 L 357.74 291.03 L 360.60 299.78 L 360.60 299.78 L 367.77 299.78 L 369.20 267.22 L 370.63 286.28 L 376.36 253.64 L 379.23 253.64 L 379.23 253.64 L 382.09 265.58 L 387.82 259.20 L 387.82 259.20 L 387.82 259.20 L 387.82 259.20 L 387.82 259.20 L 387.82 259.20 L 387.82 259.20 L 387.82 259.20 L 387.82 259.20 L 392.12 259.20 L 400.72 238.42 L 406.45 240.88 L 406.45 240.88 L 410.74 240.88 L 416.48 240.88 L 417.91 240.88 L 417.91 240.88 L 417.91 240.88 L 417.91 240.88 L 417.91 240.88 L 436.53 240.88 L 437.97 240.88 L 446.56 148.76 L 447.99 140.01 L 449.43 140.01 L 501.00 167.49 L 506.73 167.49 L 508.17 167.49 L 509.60 183.28 L 512.46 191.96 L 512.46 191.96 L 518.19 191.96 L 519.63 191.96 L 521.06 191.96 L 522.49 191.96 L 526.79 191.96 L 528.22 191.96 L 531.09 191.96 L 532.52 191.96 L 536.82 191.96 L 538.25 191.96 L 538.25 191.96 L 542.55 191.96 L 546.85 191.96 L 548.28 191.96 L 549.71 191.96 L 551.15 191.96 L 552.58 191.96 L 558.31 215.76 L 559.74 188.27 L 561.17 167.49 L 562.61 177.88 L 566.91 177.88 L 568.34 177.88 L 568.34 177.88 L 571.20 200.22 L 572.64 200.22 L 576.93 200.22 L 578.37 200.22 L 579.80 200.22 L 581.23 200.22 L 582.66 200.22 L 582.66 200.22 L 582.66 200.22 L 582.66 200.22 L 589.83 200.22 L 592.69 200.22 L 596.99 200.22 L 598.42 200.22 L 601.29 200.22 L 602.72 200.22 L 608.45 200.22 L 609.89 200.22 L 611.32 200.22 L 612.75 229.67 L 617.05 236.21 L 618.48 198.58 L 619.91 210.61 L 621.35 208.97 L 622.78 189.91 L 627.08 146.80 L 628.51 146.80 L 629.94 146.80 L 631.38 148.43 L 632.81 157.10 L 637.11 148.43 L 638.54 148.43 L 639.97 136.41 L 641.40 146.80 L 642.84 126.02 L 648.57 136.41 L 650.00 138.04" /><text  class="poloto_text poloto_legend_text" x="675" y="150" >Refinance 20</text><line  class="poloto_line poloto_legend_icon poloto1stroke poloto1legend" stroke="black" x1="680" x2="730" y1="131.25" y2="131.25" /><path  class="poloto_line poloto1stroke" fill="none" stroke="black" d=" M 150.00 347.56 L 151.43 369.40 L 155.73 336.84 L 157.16 326.86 L 158.60 336.02 L 158.60 336.02 L 161.46 307.39 L 165.76 304.94 L 167.19 315.33 L 168.62 303.71 L 170.06 314.10 L 171.49 294.63 L 175.79 324.41 L 177.22 294.63 L 177.22 294.63 L 180.09 294.63 L 180.09 294.63 L 185.82 255.36 L 187.25 286.77 L 188.68 294.63 L 190.11 304.94 L 191.55 284.73 L 197.28 264.85 L 198.71 262.31 L 200.14 257.24 L 201.58 245.62 L 205.87 250.70 L 207.31 272.70 L 210.17 264.85 L 211.60 262.31 L 215.90 254.05 L 217.34 263.62 L 218.77 263.62 L 218.77 263.62 L 221.63 263.62 L 225.93 264.85 L 227.36 285.55 L 227.36 285.55 L 228.80 273.93 L 230.23 293.40 L 231.66 285.55 L 235.96 286.77 L 237.39 285.55 L 238.83 285.55 L 238.83 285.55 L 240.26 286.77 L 241.69 293.40 L 245.99 294.63 L 247.42 298.31 L 248.85 298.31 L 250.29 298.31 L 251.72 298.31 L 257.45 293.40 L 258.88 283.01 L 260.32 285.55 L 261.75 285.55 L 261.75 285.55 L 267.48 272.70 L 268.91 275.16 L 270.34 266.08 L 276.07 222.23 L 277.51 204.06 L 278.94 214.45 L 280.37 222.23 L 281.81 244.15 L 286.10 231.22 L 287.54 224.76 L 288.97 245.46 L 290.40 255.36 L 296.13 255.36 L 297.56 244.15 L 299.00 254.54 L 300.43 264.85 L 301.86 276.47 L 307.59 284.24 L 309.03 273.93 L 310.46 263.62 L 311.89 256.59 L 316.19 262.31 L 319.05 264.85 L 320.49 263.62 L 326.22 264.85 L 326.22 264.85 L 326.22 264.85 L 326.22 264.85 L 326.22 264.85 L 326.22 264.85 L 326.22 264.85 L 326.22 264.85 L 326.22 264.85 L 326.22 264.85 L 326.22 264.85 L 326.22 264.85 L 336.25 284.24 L 339.11 286.77 L 340.54 304.94 L 341.98 307.39 L 346.28 304.69 L 347.71 304.69 L 349.14 294.63 L 350.57 298.31 L 352.01 283.01 L 356.30 275.16 L 356.30 275.16 L 357.74 275.16 L 360.60 285.55 L 360.60 285.55 L 367.77 283.01 L 369.20 264.85 L 370.63 264.85 L 376.36 251.51 L 379.23 240.31 L 379.23 240.31 L 382.09 252.82 L 387.82 222.23 L 387.82 222.23 L 387.82 222.23 L 387.82 222.23 L 387.82 222.23 L 387.82 222.23 L 387.82 222.23 L 387.82 222.23 L 387.82 222.23 L 392.12 222.23 L 400.72 209.22 L 406.45 210.53 L 409.31 210.53 L 410.74 210.53 L 410.74 210.53 L 417.91 210.53 L 419.34 210.53 L 419.34 210.53 L 419.34 210.53 L 419.34 210.53 L 436.53 210.53 L 437.97 210.53 L 446.56 128.55 L 447.99 113.25 L 447.99 113.25 L 503.87 163.81 L 506.73 163.81 L 508.17 163.81 L 511.03 181.97 L 512.46 183.28 L 512.46 183.28 L 518.19 183.28 L 519.63 183.28 L 521.06 183.28 L 522.49 183.28 L 526.79 183.28 L 528.22 183.28 L 531.09 183.28 L 532.52 183.28 L 536.82 183.28 L 538.25 183.28 L 538.25 183.28 L 542.55 183.28 L 546.85 183.28 L 548.28 183.28 L 549.71 183.28 L 551.15 183.28 L 552.58 183.28 L 558.31 164.79 L 559.74 154.73 L 561.17 153.42 L 562.61 156.12 L 566.91 156.12 L 568.34 156.12 L 568.34 156.12 L 571.20 175.51 L 572.64 175.51 L 576.93 175.51 L 578.37 175.51 L 579.80 175.51 L 581.23 175.51 L 582.66 175.51 L 582.66 175.51 L 588.40 175.51 L 588.40 175.51 L 589.83 175.51 L 592.69 175.51 L 596.99 175.51 L 598.42 175.51 L 601.29 175.51 L 602.72 175.51 L 608.45 175.51 L 609.89 175.51 L 611.32 175.51 L 612.75 197.60 L 617.05 196.29 L 618.48 165.12 L 619.91 166.43 L 619.91 166.43 L 622.78 165.12 L 627.08 144.34 L 628.51 144.34 L 629.94 135.34 L 631.38 124.95 L 632.81 134.03 L 637.11 124.95 L 638.54 114.56 L 639.97 124.95 L 641.40 135.34 L 642.84 123.64 L 648.57 124.95 L 650.00 113.25" /><text  class="poloto_text poloto_legend_text" x="675" y="200" >Refinance 30</text><line  class="poloto_line poloto_legend_icon poloto2stroke poloto2legend" stroke="black" x1="680" x2="730" y1="181.25" y2="181.25" /><path  class="poloto_line poloto2stroke" fill="none" stroke="black" d=" M 150.00 345.27 L 151.43 353.04 L 155.73 340.93 L 157.16 331.44 L 158.60 333.24 L 158.60 333.24 L 161.46 313.36 L 165.76 311.64 L 167.19 321.95 L 168.62 310.74 L 170.06 321.05 L 171.49 301.25 L 175.79 310.74 L 177.22 290.86 L 178.65 290.86 L 180.09 289.96 L 181.52 264.85 L 185.82 269.27 L 187.25 280.56 L 188.68 290.86 L 190.11 281.46 L 191.55 270.17 L 197.28 261.58 L 198.71 247.59 L 200.14 245.70 L 201.58 243.74 L 205.87 247.59 L 207.31 263.62 L 210.17 261.58 L 211.60 259.69 L 215.90 249.47 L 217.34 260.59 L 218.77 249.47 L 218.77 249.47 L 221.63 249.47 L 225.93 251.35 L 227.36 269.27 L 227.36 269.27 L 228.80 260.59 L 230.23 261.58 L 231.66 262.48 L 235.96 270.17 L 237.39 261.58 L 238.83 261.58 L 238.83 261.58 L 240.26 271.07 L 241.69 272.05 L 245.99 272.95 L 247.42 281.46 L 248.85 281.46 L 250.29 283.26 L 251.72 283.26 L 257.45 279.57 L 258.88 269.27 L 260.32 271.07 L 261.75 270.17 L 261.75 270.17 L 267.48 260.59 L 268.91 260.59 L 270.34 250.37 L 276.07 208.97 L 277.51 179.68 L 278.94 197.60 L 280.37 208.97 L 281.81 219.28 L 286.10 209.87 L 287.54 208.97 L 288.97 227.79 L 290.40 229.67 L 296.13 229.67 L 297.56 218.38 L 299.00 227.79 L 300.43 238.10 L 301.86 260.59 L 307.59 261.58 L 309.03 250.37 L 310.46 230.65 L 311.89 227.79 L 316.19 246.60 L 319.05 229.67 L 320.49 228.69 L 326.22 247.59 L 326.22 247.59 L 326.22 247.59 L 326.22 247.59 L 326.22 247.59 L 326.22 247.59 L 329.08 247.59 L 329.08 247.59 L 329.08 247.59 L 329.08 247.59 L 329.08 247.59 L 329.08 247.59 L 336.25 259.69 L 339.11 261.58 L 340.54 279.57 L 341.98 291.76 L 346.28 290.86 L 347.71 290.86 L 349.14 270.17 L 350.57 272.95 L 352.01 259.69 L 356.30 270.17 L 356.30 270.17 L 357.74 262.48 L 360.60 271.07 L 360.60 271.07 L 367.77 269.27 L 369.20 251.35 L 370.63 250.37 L 376.36 226.81 L 379.23 218.38 L 379.23 218.38 L 382.09 228.69 L 387.82 217.40 L 387.82 217.40 L 387.82 217.40 L 387.82 217.40 L 387.82 217.40 L 387.82 217.40 L 387.82 217.40 L 387.82 217.40 L 392.12 217.40 L 392.12 216.42 L 400.72 204.06 L 406.45 183.28 L 406.45 183.28 L 410.74 183.28 L 410.74 183.28 L 417.91 183.28 L 419.34 183.28 L 419.34 183.28 L 419.34 183.28 L 419.34 183.28 L 436.53 183.28 L 437.97 183.28 L 446.56 136.49 L 447.99 110.39 L 447.99 110.39 L 503.87 155.22 L 506.73 155.22 L 508.17 155.22 L 509.60 159.39 L 512.46 168.88 L 512.46 168.88 L 518.19 168.88 L 519.63 168.88 L 521.06 168.88 L 522.49 168.88 L 526.79 168.88 L 528.22 168.88 L 531.09 168.88 L 532.52 168.88 L 536.82 168.88 L 538.25 168.88 L 538.25 168.88 L 542.55 168.88 L 546.85 168.88 L 548.28 168.88 L 549.71 168.88 L 551.15 168.88 L 552.58 168.88 L 558.31 153.10 L 559.74 161.44 L 561.17 141.64 L 562.61 161.44 L 566.91 161.44 L 568.34 161.44 L 568.34 161.44 L 571.20 161.44 L 572.64 161.44 L 576.93 161.44 L 578.37 161.44 L 579.80 161.44 L 581.23 161.44 L 582.66 161.44 L 582.66 161.44 L 588.40 161.44 L 588.40 161.44 L 589.83 161.44 L 592.69 161.44 L 596.99 161.44 L 598.42 161.44 L 601.29 161.44 L 602.72 161.44 L 608.45 161.44 L 609.89 161.44 L 611.32 161.44 L 612.75 214.45 L 617.05 204.06 L 618.48 162.50 L 619.91 193.67 L 621.35 162.50 L 622.78 152.03 L 627.08 141.64 L 628.51 141.64 L 629.94 132.23 L 631.38 121.84 L 632.81 131.25 L 637.11 131.25 L 638.54 119.80 L 639.97 111.45 L 641.40 121.84 L 642.84 112.52 L 648.57 111.45 L 650.00 100.00" /><text  class="poloto_labels poloto_text poloto_title" x="400" y="37.5" >lower.com purchase rates</text><text  class="poloto_labels poloto_text poloto_xname" x="400" y="481.25" >Date</text><text  class="poloto_labels poloto_text poloto_yname" transform="rotate(-90,37.5,250)" x="37.5" y="250" >Rate (%)</text><text  class="poloto_tick_labels poloto_text" dominant-baseline="middle" text-anchor="start" x="150" y="70" ></text><line  class="poloto_axis_lines" stroke="black" x1="150" x2="144" y1="390.59176438505585" y2="390.59176438505585" /><line  class="poloto_tick_line" stroke="black" x1="150" x2="650" y1="390.59176438505585" y2="390.59176438505585" /><text  class="poloto_tick_labels poloto_text" dominant-baseline="middle" text-anchor="end" x="135" y="390.59176438505585" >3.625</text><line  class="poloto_axis_lines" stroke="black" x1="150" x2="144" y1="380.365421325334" y2="380.365421325334" /><line  class="poloto_tick_line" stroke="black" x1="150" x2="650" y1="380.365421325334" y2="380.365421325334" /><text  class="poloto_tick_labels poloto_text" dominant-baseline="middle" text-anchor="end" x="135" y="380.365421325334" >3.75</text><line  class="poloto_axis_lines" stroke="black" x1="150" x2="144" y1="370.13907826561217" y2="370.13907826561217" /><line  class="poloto_tick_line" stroke="black" x1="150" x2="650" y1="370.13907826561217" y2="370.13907826561217" /><text  class="poloto_tick_labels poloto_text" dominant-baseline="middle" text-anchor="end" x="135" y="370.13907826561217" >3.875</text><line  class="poloto_axis_lines" stroke="black" x1="150" x2="144" y1="359.9127352058903" y2="359.9127352058903" /><line  class="poloto_tick_line" stroke="black" x1="150" x2="650" y1="359.9127352058903" y2="359.9127352058903" /><text  class="poloto_tick_labels poloto_text" dominant-baseline="middle" text-anchor="end" x="135" y="359.9127352058903" >4</text><line  class="poloto_axis_lines" stroke="black" x1="150" x2="144" y1="349.6863921461685" y2="349.6863921461685" /><line  class="poloto_tick_line" stroke="black" x1="150" x2="650" y1="349.6863921461685" y2="349.6863921461685" /><text  class="poloto_tick_labels poloto_text" dominant-baseline="middle" text-anchor="end" x="135" y="349.6863921461685" >4.125</text><line  class="poloto_axis_lines" stroke="black" x1="150" x2="144" y1="339.46004908644665" y2="339.46004908644665" /><line  class="poloto_tick_line" stroke="black" x1="150" x2="650" y1="339.46004908644665" y2="339.46004908644665" /><text  class="poloto_tick_labels poloto_text" dominant-baseline="middle" text-anchor="end" x="135" y="339.46004908644665" >4.25</text><line  class="poloto_axis_lines" stroke="black" x1="150" x2="144" y1="329.2337060267248" y2="329.2337060267248" /><line  class="poloto_tick_line" stroke="black" x1="150" x2="650" y1="329.2337060267248" y2="329.2337060267248" /><text  class="poloto_tick_labels poloto_text" dominant-baseline="middle" text-anchor="end" x="135" y="329.2337060267248" >4.375</text><line  class="poloto_axis_lines" stroke="black" x1="150" x2="144" y1="319.00736296700296" y2="319.00736296700296" /><line  class="poloto_tick_line" stroke="black" x1="150" x2="650" y1="319.00736296700296" y2="319.00736296700296" /><text  class="poloto_tick_labels poloto_text" dominant-baseline="middle" text-anchor="end" x="135" y="319.00736296700296" >4.5</text><line  class="poloto_axis_lines" stroke="black" x1="150" x2="144" y1="308.7810199072811" y2="308.7810199072811" /><line  class="poloto_tick_line" stroke="black" x1="150" x2="650" y1="308.7810199072811" y2="308.7810199072811" /><text  class="poloto_tick_labels poloto_text" dominant-baseline="middle" text-anchor="end" x="135" y="308.7810199072811" >4.625</text><line  class="poloto_axis_lines" stroke="black" x1="150" x2="144" y1="298.5546768475593" y2="298.5546768475593" /><line  class="poloto_tick_line" stroke="black" x1="150" x2="650" y1="298.5546768475593" y2="298.5546768475593" /><text  class="poloto_tick_labels poloto_text" dominant-baseline="middle" text-anchor="end" x="135" y="298.5546768475593" >4.75</text><line  class="poloto_axis_lines" stroke="black" x1="150" x2="144" y1="288.32833378783744" y2="288.32833378783744" /><line  class="poloto_tick_line" stroke="black" x1="150" x2="650" y1="288.32833378783744" y2="288.32833378783744" /><text  class="poloto_tick_labels poloto_text" dominant-baseline="middle" text-anchor="end" x="135" y="288.32833378783744" >4.875</text><line  class="poloto_axis_lines" stroke="black" x1="150" x2="144" y1="278.1019907281156" y2="278.1019907281156" /><line  class="poloto_tick_line" stroke="black" x1="150" x2="650" y1="278.1019907281156" y2="278.1019907281156" /><text  class="poloto_tick_labels poloto_text" dominant-baseline="middle" text-anchor="end" x="135" y="278.1019907281156" >5</text><line  class="poloto_axis_lines" stroke="black" x1="150" x2="144" y1="267.87564766839375" y2="267.87564766839375" /><line  class="poloto_tick_line" stroke="black" x1="150" x2="650" y1="267.87564766839375" y2="267.87564766839375" /><text  class="poloto_tick_labels poloto_text" dominant-baseline="middle" text-anchor="end" x="135" y="267.87564766839375" >5.125</text><line  class="poloto_axis_lines" stroke="black" x1="150" x2="144" y1="257.6493046086719" y2="257.6493046086719" /><line  class="poloto_tick_line" stroke="black" x1="150" x2="650" y1="257.6493046086719" y2="257.6493046086719" /><text  class="poloto_tick_labels poloto_text" dominant-baseline="middle" text-anchor="end" x="135" y="257.6493046086719" >5.25</text><line  class="poloto_axis_lines" stroke="black" x1="150" x2="144" y1="247.42296154895007" y2="247.42296154895007" /><line  class="poloto_tick_line" stroke="black" x1="150" x2="650" y1="247.42296154895007" y2="247.42296154895007" /><text  class="poloto_tick_labels poloto_text" dominant-baseline="middle" text-anchor="end" x="135" y="247.42296154895007" >5.375</text><line  class="poloto_axis_lines" stroke="black" x1="150" x2="144" y1="237.19661848922823" y2="237.19661848922823" /><line  class="poloto_tick_line" stroke="black" x1="150" x2="650" y1="237.19661848922823" y2="237.19661848922823" /><text  class="poloto_tick_labels poloto_text" dominant-baseline="middle" text-anchor="end" x="135" y="237.19661848922823" >5.5</text><line  class="poloto_axis_lines" stroke="black" x1="150" x2="144" y1="226.9702754295064" y2="226.9702754295064" /><line  class="poloto_tick_line" stroke="black" x1="150" x2="650" y1="226.9702754295064" y2="226.9702754295064" /><text  class="poloto_tick_labels poloto_text" dominant-baseline="middle" text-anchor="end" x="135" y="226.9702754295064" >5.625</text><line  class="poloto_axis_lines" stroke="black" x1="150" x2="144" y1="216.74393236978455" y2="216.74393236978455" /><line  class="poloto_tick_line" stroke="black" x1="150" x2="650" y1="216.74393236978455" y2="216.74393236978455" /><text  class="poloto_tick_labels poloto_text" dominant-baseline="middle" text-anchor="end" x="135" y="216.74393236978455" >5.75</text><line  class="poloto_axis_lines" stroke="black" x1="150" x2="144" y1="206.5175893100627" y2="206.5175893100627" /><line  class="poloto_tick_line" stroke="black" x1="150" x2="650" y1="206.5175893100627" y2="206.5175893100627" /><text  class="poloto_tick_labels poloto_text" dominant-baseline="middle" text-anchor="end" x="135" y="206.5175893100627" >5.875</text><line  class="poloto_axis_lines" stroke="black" x1="150" x2="144" y1="196.2912462503408" y2="196.2912462503408" /><line  class="poloto_tick_line" stroke="black" x1="150" x2="650" y1="196.2912462503408" y2="196.2912462503408" /><text  class="poloto_tick_labels poloto_text" dominant-baseline="middle" text-anchor="end" x="135" y="196.2912462503408" >6</text><line  class="poloto_axis_lines" stroke="black" x1="150" x2="144" y1="186.06490319061896" y2="186.06490319061896" /><line  class="poloto_tick_line" stroke="black" x1="150" x2="650" y1="186.06490319061896" y2="186.06490319061896" /><text  class="poloto_tick_labels poloto_text" dominant-baseline="middle" text-anchor="end" x="135" y="186.06490319061896" >6.125</text><line  class="poloto_axis_lines" stroke="black" x1="150" x2="144" y1="175.83856013089712" y2="175.83856013089712" /><line  class="poloto_tick_line" stroke="black" x1="150" x2="650" y1="175.83856013089712" y2="175.83856013089712" /><text  class="poloto_tick_labels poloto_text" dominant-baseline="middle" text-anchor="end" x="135" y="175.83856013089712" >6.25</text><line  class="poloto_axis_lines" stroke="black" x1="150" x2="144" y1="165.61221707117534" y2="165.61221707117534" /><line  class="poloto_tick_line" stroke="black" x1="150" x2="650" y1="165.61221707117534" y2="165.61221707117534" /><text  class="poloto_tick_labels poloto_text" dominant-baseline="middle" text-anchor="end" x="135" y="165.61221707117534" >6.375</text><line  class="poloto_axis_lines" stroke="black" x1="150" x2="144" y1="155.38587401145344" y2="155.38587401145344" /><line  class="poloto_tick_line" stroke="black" x1="150" x2="650" y1="155.38587401145344" y2="155.38587401145344" /><text  class="poloto_tick_labels poloto_text" dominant-baseline="middle" text-anchor="end" x="135" y="155.38587401145344" >6.5</text><line  class="poloto_axis_lines" stroke="black" x1="150" x2="144" y1="145.15953095173165" y2="145.15953095173165" /><line  class="poloto_tick_line" stroke="black" x1="150" x2="650" y1="145.15953095173165" y2="145.15953095173165" /><text  class="poloto_tick_labels poloto_text" dominant-baseline="middle" text-anchor="end" x="135" y="145.15953095173165" >6.625</text><line  class="poloto_axis_lines" stroke="black" x1="150" x2="144" y1="134.93318789200976" y2="134.93318789200976" /><line  class="poloto_tick_line" stroke="black" x1="150" x2="650" y1="134.93318789200976" y2="134.93318789200976" /><text  class="poloto_tick_labels poloto_text" dominant-baseline="middle" text-anchor="end" x="135" y="134.93318789200976" >6.75</text><line  class="poloto_axis_lines" stroke="black" x1="150" x2="144" y1="124.70684483228797" y2="124.70684483228797" /><line  class="poloto_tick_line" stroke="black" x1="150" x2="650" y1="124.70684483228797" y2="124.70684483228797" /><text  class="poloto_tick_labels poloto_text" dominant-baseline="middle" text-anchor="end" x="135" y="124.70684483228797" >6.875</text><line  class="poloto_axis_lines" stroke="black" x1="150" x2="144" y1="114.48050177256607" y2="114.48050177256607" /><line  class="poloto_tick_line" stroke="black" x1="150" x2="650" y1="114.48050177256607" y2="114.48050177256607" /><text  class="poloto_tick_labels poloto_text" dominant-baseline="middle" text-anchor="end" x="135" y="114.48050177256607" >7</text><line  class="poloto_axis_lines" stroke="black" x1="150" x2="144" y1="104.25415871284429" y2="104.25415871284429" /><line  class="poloto_tick_line" stroke="black" x1="150" x2="650" y1="104.25415871284429" y2="104.25415871284429" /><text  class="poloto_tick_labels poloto_text" dominant-baseline="middle" text-anchor="end" x="135" y="104.25415871284429" >7.125</text><text  class="poloto_tick_labels poloto_text" dominant-baseline="middle" text-anchor="start" x="440.00000000000006" y="70" >¹2022-05-01 00:00:00 UTC in Months</text><line  class="poloto_axis_lines" stroke="black" x1="214.4699140401135" x2="214.4699140401135" y1="400" y2="405" /><line  class="poloto_tick_line" stroke="black" x1="214.4699140401135" x2="214.4699140401135" y1="400" y2="100" /><text  class="poloto_tick_labels poloto_text" dominant-baseline="start" text-anchor="middle" x="214.4699140401135" y="430" >2022 May¹</text><line  class="poloto_axis_lines" stroke="black" x1="301.86246418338123" x2="301.86246418338123" y1="400" y2="405" /><line  class="poloto_tick_line" stroke="black" x1="301.86246418338123" x2="301.86246418338123" y1="400" y2="100" /><text  class="poloto_tick_labels poloto_text" dominant-baseline="start" text-anchor="middle" x="301.86246418338123" y="430" >2022 Jul</text><line  class="poloto_axis_lines" stroke="black" x1="390.6876790830938" x2="390.6876790830938" y1="400" y2="405" /><line  class="poloto_tick_line" stroke="black" x1="390.6876790830938" x2="390.6876790830938" y1="400" y2="100" /><text  class="poloto_tick_labels poloto_text" dominant-baseline="start" text-anchor="middle" x="390.6876790830938" y="430" >2022 Sep</text><line  class="poloto_axis_lines" stroke="black" x1="478.08022922636155" x2="478.08022922636155" y1="400" y2="405" /><line  class="poloto_tick_line" stroke="black" x1="478.08022922636155" x2="478.08022922636155" y1="400" y2="100" /><text  class="poloto_tick_labels poloto_text" dominant-baseline="start" text-anchor="middle" x="478.08022922636155" y="430" >2022 Nov</text><line  class="poloto_axis_lines" stroke="black" x1="565.4727793696256" x2="565.4727793696256" y1="400" y2="405" /><line  class="poloto_tick_line" stroke="black" x1="565.4727793696256" x2="565.4727793696256" y1="400" y2="100" /><text  class="poloto_tick_labels poloto_text" dominant-baseline="start" text-anchor="middle" x="565.4727793696256" y="430" >2023 Jan</text><line  class="poloto_axis_lines" stroke="black" x1="650" x2="650" y1="400" y2="405" /><line  class="poloto_tick_line" stroke="black" x1="650" x2="650" y1="400" y2="100" /><text  class="poloto_tick_labels poloto_text" dominant-baseline="start" text-anchor="middle" x="650" y="430" >2023 Mar</text><path  stroke="black" fill="none" class="poloto_axis_lines" d=" M 150 400 L 650 400" /><path  stroke="black" fill="none" class="poloto_axis_lines" d=" M 150 400 L 150 100" /></svg>