<svg class="poloto" width="800" height="500" viewBox="0 0 800 500" xmlns="http://www.w3.org/2000/svg"><style>.poloto{stroke-linecap:round;stroke-linejoin:round;font-family:Roboto,sans-serif;font-size:16px;}.poloto_background{fill:#262626;}.poloto_scatter{stroke-width:7}.poloto_tick_line{stroke:dimgray;stroke-width:0.5}.poloto_line{stroke-width:2}.poloto_text{fill: white;}.poloto_axis_lines{stroke: white;stroke-width:3;fill:none;stroke-dasharray:none}.poloto_title{font-size:24px;dominant-baseline:start;text-anchor:middle;}.poloto_xname{font-size:24px;dominant-baseline:start;text-anchor:middle;}.poloto_yname{font-size:24px;dominant-baseline:start;text-anchor:middle;}.poloto0stroke{stroke:blue;}.poloto1stroke{stroke:red;}.poloto2stroke{stroke:green;}.poloto3stroke{stroke:gold;}.poloto4stroke{stroke:aqua;}.poloto5stroke{stroke:lime;}.poloto6stroke{stroke:orange;}.poloto7stroke{stroke:chocolate;}.poloto0fill{fill:blue;}.poloto1fill{fill:red;}.poloto2fill{fill:green;}.poloto3fill{fill:gold;}.poloto4fill{fill:aqua;}.poloto5fill{fill:lime;}.poloto6fill{fill:orange;}.poloto7fill{fill:chocolate;}</style><circle  r="1e5" class="poloto_background" /><text  class="poloto_text poloto_legend_text" x="675" y="100" >30 years</text><line  class="poloto_line poloto_legend_icon poloto0stroke poloto0legend" stroke="black" x1="680" x2="730" y1="81.25" y2="81.25" /><path  class="poloto_line poloto0stroke" fill="none" stroke="black" d=" M 150.00 353.85 L 153.27 376.92 L 163.07 353.85 L 166.34 330.77 L 169.61 330.77 L 169.61 330.77 L 176.14 284.62 L 185.95 284.62 L 189.22 307.69 L 192.48 330.77 L 195.75 353.85 L 199.02 307.69 L 208.82 330.77 L 212.09 307.69 L 215.36 284.62 L 218.63 261.54 L 221.90 261.54 L 231.70 261.54 L 234.97 284.62 L 238.24 284.62 L 241.50 284.62 L 244.77 238.46 L 257.84 217.23 L 261.11 215.38 L 264.38 215.38 L 267.65 192.31 L 277.45 215.38 L 280.72 238.46 L 287.25 217.23 L 290.52 217.23 L 300.33 217.23 L 303.59 217.23 L 306.86 217.23 L 310.13 217.23 L 313.40 192.31 L 323.20 215.38 L 326.47 217.23 L 326.47 217.23 L 329.74 217.23 L 333.01 217.23 L 336.27 217.23 L 346.08 217.23 L 349.35 217.23 L 352.61 217.23 L 352.61 217.23 L 355.88 217.23 L 359.15 261.54 L 368.95 261.54 L 372.22 284.62 L 375.49 284.62 L 378.76 307.69 L 382.03 284.62 L 395.10 261.54 L 398.37 238.46 L 401.63 261.54 L 404.90 261.54 L 414.71 238.46 L 417.97 217.23 L 421.24 217.23 L 424.51 217.23 L 437.58 123.08 L 440.85 100.00 L 444.12 100.00 L 447.39 123.08 L 450.65 146.15 L 460.46 123.08 L 463.73 123.08 L 466.99 146.15 L 470.26 169.23 L 483.33 169.23 L 486.60 123.08 L 489.87 146.15 L 493.14 192.31 L 496.41 217.23 L 509.48 217.23 L 512.75 217.23 L 516.01 192.31 L 519.28 146.15 L 529.08 192.31 L 535.62 146.15 L 538.89 192.31 L 551.96 192.31 L 551.96 192.31 L 551.96 192.31 L 551.96 192.31 L 551.96 192.31 L 558.50 192.31 L 558.50 192.31 L 558.50 192.31 L 558.50 192.31 L 558.50 192.31 L 558.50 192.31 L 565.03 217.23 L 574.84 217.23 L 581.37 217.23 L 584.64 261.54 L 587.91 307.69 L 597.71 307.69 L 600.98 307.69 L 604.25 284.62 L 607.52 284.62 L 610.78 217.23 L 620.59 217.23 L 620.59 217.23 L 623.86 217.23 L 623.86 217.23 L 630.39 217.23 L 646.73 217.23 L 650.00 192.31" /><text  class="poloto_labels poloto_text poloto_title" x="400" y="37.5" >lower.com purchase rates</text><text  class="poloto_labels poloto_text poloto_xname" x="400" y="481.25" >Date</text><text  class="poloto_labels poloto_text poloto_yname" transform="rotate(-90,37.5,250)" x="37.5" y="250" >Rate (%)</text><text  class="poloto_tick_labels poloto_text" dominant-baseline="middle" text-anchor="start" x="150" y="70" ></text><line  class="poloto_axis_lines" stroke="black" x1="150" x2="144" y1="400" y2="400" /><line  class="poloto_tick_line" stroke="black" x1="150" x2="650" y1="400" y2="400" /><text  class="poloto_tick_labels poloto_text" dominant-baseline="middle" text-anchor="end" x="135" y="400" >4</text><line  class="poloto_axis_lines" stroke="black" x1="150" x2="144" y1="376.9230769230769" y2="376.9230769230769" /><line  class="poloto_tick_line" stroke="black" x1="150" x2="650" y1="376.9230769230769" y2="376.9230769230769" /><text  class="poloto_tick_labels poloto_text" dominant-baseline="middle" text-anchor="end" x="135" y="376.9230769230769" >4.125</text><line  class="poloto_axis_lines" stroke="black" x1="150" x2="144" y1="353.8461538461538" y2="353.8461538461538" /><line  class="poloto_tick_line" stroke="black" x1="150" x2="650" y1="353.8461538461538" y2="353.8461538461538" /><text  class="poloto_tick_labels poloto_text" dominant-baseline="middle" text-anchor="end" x="135" y="353.8461538461538" >4.25</text><line  class="poloto_axis_lines" stroke="black" x1="150" x2="144" y1="330.7692307692307" y2="330.7692307692307" /><line  class="poloto_tick_line" stroke="black" x1="150" x2="650" y1="330.7692307692307" y2="330.7692307692307" /><text  class="poloto_tick_labels poloto_text" dominant-baseline="middle" text-anchor="end" x="135" y="330.7692307692307" >4.375</text><line  class="poloto_axis_lines" stroke="black" x1="150" x2="144" y1="307.69230769230774" y2="307.69230769230774" /><line  class="poloto_tick_line" stroke="black" x1="150" x2="650" y1="307.69230769230774" y2="307.69230769230774" /><text  class="poloto_tick_labels poloto_text" dominant-baseline="middle" text-anchor="end" x="135" y="307.69230769230774" >4.5</text><line  class="poloto_axis_lines" stroke="black" x1="150" x2="144" y1="284.61538461538464" y2="284.61538461538464" /><line  class="poloto_tick_line" stroke="black" x1="150" x2="650" y1="284.61538461538464" y2="284.61538461538464" /><text  class="poloto_tick_labels poloto_text" dominant-baseline="middle" text-anchor="end" x="135" y="284.61538461538464" >4.625</text><line  class="poloto_axis_lines" stroke="black" x1="150" x2="144" y1="261.53846153846155" y2="261.53846153846155" /><line  class="poloto_tick_line" stroke="black" x1="150" x2="650" y1="261.53846153846155" y2="261.53846153846155" /><text  class="poloto_tick_labels poloto_text" dominant-baseline="middle" text-anchor="end" x="135" y="261.53846153846155" >4.75</text><line  class="poloto_axis_lines" stroke="black" x1="150" x2="144" y1="238.46153846153845" y2="238.46153846153845" /><line  class="poloto_tick_line" stroke="black" x1="150" x2="650" y1="238.46153846153845" y2="238.46153846153845" /><text  class="poloto_tick_labels poloto_text" dominant-baseline="middle" text-anchor="end" x="135" y="238.46153846153845" >4.875</text><line  class="poloto_axis_lines" stroke="black" x1="150" x2="144" y1="215.38461538461536" y2="215.38461538461536" /><line  class="poloto_tick_line" stroke="black" x1="150" x2="650" y1="215.38461538461536" y2="215.38461538461536" /><text  class="poloto_tick_labels poloto_text" dominant-baseline="middle" text-anchor="end" x="135" y="215.38461538461536" >5</text><line  class="poloto_axis_lines" stroke="black" x1="150" x2="144" y1="192.30769230769226" y2="192.30769230769226" /><line  class="poloto_tick_line" stroke="black" x1="150" x2="650" y1="192.30769230769226" y2="192.30769230769226" /><text  class="poloto_tick_labels poloto_text" dominant-baseline="middle" text-anchor="end" x="135" y="192.30769230769226" >5.125</text><line  class="poloto_axis_lines" stroke="black" x1="150" x2="144" y1="169.23076923076928" y2="169.23076923076928" /><line  class="poloto_tick_line" stroke="black" x1="150" x2="650" y1="169.23076923076928" y2="169.23076923076928" /><text  class="poloto_tick_labels poloto_text" dominant-baseline="middle" text-anchor="end" x="135" y="169.23076923076928" >5.25</text><line  class="poloto_axis_lines" stroke="black" x1="150" x2="144" y1="146.1538461538462" y2="146.1538461538462" /><line  class="poloto_tick_line" stroke="black" x1="150" x2="650" y1="146.1538461538462" y2="146.1538461538462" /><text  class="poloto_tick_labels poloto_text" dominant-baseline="middle" text-anchor="end" x="135" y="146.1538461538462" >5.375</text><line  class="poloto_axis_lines" stroke="black" x1="150" x2="144" y1="123.0769230769231" y2="123.0769230769231" /><line  class="poloto_tick_line" stroke="black" x1="150" x2="650" y1="123.0769230769231" y2="123.0769230769231" /><text  class="poloto_tick_labels poloto_text" dominant-baseline="middle" text-anchor="end" x="135" y="123.0769230769231" >5.5</text><line  class="poloto_axis_lines" stroke="black" x1="150" x2="144" y1="100.00000000000011" y2="100.00000000000011" /><line  class="poloto_tick_line" stroke="black" x1="150" x2="650" y1="100.00000000000011" y2="100.00000000000011" /><text  class="poloto_tick_labels poloto_text" dominant-baseline="middle" text-anchor="end" x="135" y="100.00000000000011" >5.625</text><text  class="poloto_tick_labels poloto_text" dominant-baseline="middle" text-anchor="start" x="440.00000000000006" y="70" >¹2022-04-01 00:00:00 UTC in Months</text><line  class="poloto_axis_lines" stroke="black" x1="199.0196078431327" x2="199.0196078431327" y1="400" y2="405" /><line  class="poloto_tick_line" stroke="black" x1="199.0196078431327" x2="199.0196078431327" y1="400" y2="100.00000000000011" /><text  class="poloto_tick_labels poloto_text" dominant-baseline="start" text-anchor="middle" x="199.0196078431327" y="430" >2022 Apr¹</text><line  class="poloto_axis_lines" stroke="black" x1="297.0588235294126" x2="297.0588235294126" y1="400" y2="405" /><line  class="poloto_tick_line" stroke="black" x1="297.0588235294126" x2="297.0588235294126" y1="400" y2="100.00000000000011" /><text  class="poloto_tick_labels poloto_text" dominant-baseline="start" text-anchor="middle" x="297.0588235294126" y="430" >2022 May</text><line  class="poloto_axis_lines" stroke="black" x1="398.36601307189267" x2="398.36601307189267" y1="400" y2="405" /><line  class="poloto_tick_line" stroke="black" x1="398.36601307189267" x2="398.36601307189267" y1="400" y2="100.00000000000011" /><text  class="poloto_tick_labels poloto_text" dominant-baseline="start" text-anchor="middle" x="398.36601307189267" y="430" >2022 Jun</text><line  class="poloto_axis_lines" stroke="black" x1="496.4052287581653" x2="496.4052287581653" y1="400" y2="405" /><line  class="poloto_tick_line" stroke="black" x1="496.4052287581653" x2="496.4052287581653" y1="400" y2="100.00000000000011" /><text  class="poloto_tick_labels poloto_text" dominant-baseline="start" text-anchor="middle" x="496.4052287581653" y="430" >2022 Jul</text><line  class="poloto_axis_lines" stroke="black" x1="597.7124183006526" x2="597.7124183006526" y1="400" y2="405" /><line  class="poloto_tick_line" stroke="black" x1="597.7124183006526" x2="597.7124183006526" y1="400" y2="100.00000000000011" /><text  class="poloto_tick_labels poloto_text" dominant-baseline="start" text-anchor="middle" x="597.7124183006526" y="430" >2022 Aug</text><path  stroke="black" fill="none" class="poloto_axis_lines" d=" M 150 400 L 650 400" /><path  stroke="black" fill="none" class="poloto_axis_lines" d=" M 150 400 L 150 100.00000000000011" /></svg>