<svg class="poloto" width="800" height="500" viewBox="0 0 800 500" xmlns="http://www.w3.org/2000/svg"><style>.poloto{stroke-linecap:round;stroke-linejoin:round;font-family:Roboto,sans-serif;font-size:16px;}.poloto_background{fill:#262626;}.poloto_scatter{stroke-width:7}.poloto_tick_line{stroke:dimgray;stroke-width:0.5}.poloto_line{stroke-width:2}.poloto_text{fill: white;}.poloto_axis_lines{stroke: white;stroke-width:3;fill:none;stroke-dasharray:none}.poloto_title{font-size:24px;dominant-baseline:start;text-anchor:middle;}.poloto_xname{font-size:24px;dominant-baseline:start;text-anchor:middle;}.poloto_yname{font-size:24px;dominant-baseline:start;text-anchor:middle;}.poloto0stroke{stroke:blue;}.poloto1stroke{stroke:red;}.poloto2stroke{stroke:green;}.poloto3stroke{stroke:gold;}.poloto4stroke{stroke:aqua;}.poloto5stroke{stroke:lime;}.poloto6stroke{stroke:orange;}.poloto7stroke{stroke:chocolate;}.poloto0fill{fill:blue;}.poloto1fill{fill:red;}.poloto2fill{fill:green;}.poloto3fill{fill:gold;}.poloto4fill{fill:aqua;}.poloto5fill{fill:lime;}.poloto6fill{fill:orange;}.poloto7fill{fill:chocolate;}</style><circle  r="1e5" class="poloto_background" /><text  class="poloto_text poloto_legend_text" x="675" y="100" >Refinance 30</text><line  class="poloto_line poloto_legend_icon poloto0stroke poloto0legend" stroke="black" x1="680" x2="730" y1="81.25" y2="81.25" /><path  class="poloto_line poloto0stroke" fill="none" stroke="black" d=" M 150.00 386.55 L 152.86 400.00 L 161.43 379.05 L 164.29 362.62 L 167.14 365.74 L 167.14 365.74 L 172.86 331.34 L 181.43 328.36 L 184.29 346.20 L 187.14 326.81 L 190.00 344.64 L 192.86 310.38 L 201.43 326.81 L 204.29 292.40 L 207.14 292.40 L 210.00 290.84 L 212.86 247.38 L 221.43 255.03 L 224.29 274.56 L 227.14 292.40 L 230.00 276.12 L 232.86 256.58 L 244.29 241.72 L 247.14 217.51 L 250.00 214.25 L 252.86 210.85 L 261.43 217.51 L 264.29 245.26 L 270.00 241.72 L 272.86 238.46 L 281.43 220.76 L 284.29 240.02 L 287.14 220.76 L 287.14 220.76 L 292.86 220.76 L 301.43 224.02 L 304.29 255.03 L 304.29 255.03 L 307.14 240.02 L 310.00 241.72 L 312.86 243.28 L 321.43 256.58 L 324.29 241.72 L 327.14 241.72 L 327.14 241.72 L 330.00 258.14 L 332.86 259.84 L 341.43 261.40 L 344.29 276.12 L 347.14 276.12 L 350.00 279.24 L 352.86 279.24 L 364.29 272.86 L 367.14 255.03 L 370.00 258.14 L 372.86 256.58 L 372.86 256.58 L 384.29 240.02 L 387.14 240.02 L 390.00 222.32 L 401.43 150.68 L 404.29 100.00 L 407.14 131.01 L 410.00 150.68 L 412.86 168.52 L 421.43 152.24 L 424.29 150.68 L 427.14 183.25 L 430.00 186.50 L 441.43 186.50 L 444.29 166.97 L 447.14 183.25 L 450.00 201.09 L 452.86 240.02 L 464.29 241.72 L 467.14 222.32 L 470.00 188.20 L 472.86 183.25 L 481.43 215.81 L 487.14 186.50 L 490.00 184.80 L 501.43 217.51 L 501.43 217.51 L 501.43 217.51 L 501.43 217.51 L 501.43 217.51 L 501.43 217.51 L 507.14 217.51 L 507.14 217.51 L 507.14 217.51 L 507.14 217.51 L 507.14 217.51 L 507.14 217.51 L 521.43 238.46 L 527.14 241.72 L 530.00 272.86 L 532.86 293.96 L 541.43 292.40 L 544.29 292.40 L 547.14 256.58 L 550.00 261.40 L 552.86 238.46 L 561.43 256.58 L 561.43 256.58 L 564.29 243.28 L 570.00 258.14 L 570.00 258.14 L 584.29 255.03 L 587.14 224.02 L 590.00 222.32 L 601.43 181.55 L 607.14 166.97 L 607.14 166.97 L 612.86 184.80 L 624.29 165.27 L 624.29 165.27 L 624.29 165.27 L 624.29 165.27 L 624.29 165.27 L 624.29 165.27 L 624.29 165.27 L 624.29 165.27 L 632.86 165.27 L 632.86 163.57 L 650.00 142.19" /><text  class="poloto_labels poloto_text poloto_title" x="400" y="37.5" >lower.com purchase rates</text><text  class="poloto_labels poloto_text poloto_xname" x="400" y="481.25" >Date</text><text  class="poloto_labels poloto_text poloto_yname" transform="rotate(-90,37.5,250)" x="37.5" y="250" >Rate (%)</text><text  class="poloto_tick_labels poloto_text" dominant-baseline="middle" text-anchor="start" x="150" y="70" ></text><line  class="poloto_axis_lines" stroke="black" x1="150" x2="144" y1="394.1953751769702" y2="394.1953751769702" /><line  class="poloto_tick_line" stroke="black" x1="150" x2="650" y1="394.1953751769702" y2="394.1953751769702" /><text  class="poloto_tick_labels poloto_text" dominant-baseline="middle" text-anchor="end" x="135" y="394.1953751769702" >4.125</text><line  class="poloto_axis_lines" stroke="black" x1="150" x2="144" y1="376.4983482774893" y2="376.4983482774893" /><line  class="poloto_tick_line" stroke="black" x1="150" x2="650" y1="376.4983482774893" y2="376.4983482774893" /><text  class="poloto_tick_labels poloto_text" dominant-baseline="middle" text-anchor="end" x="135" y="376.4983482774893" >4.25</text><line  class="poloto_axis_lines" stroke="black" x1="150" x2="144" y1="358.8013213780084" y2="358.8013213780084" /><line  class="poloto_tick_line" stroke="black" x1="150" x2="650" y1="358.8013213780084" y2="358.8013213780084" /><text  class="poloto_tick_labels poloto_text" dominant-baseline="middle" text-anchor="end" x="135" y="358.8013213780084" >4.375</text><line  class="poloto_axis_lines" stroke="black" x1="150" x2="144" y1="341.10429447852755" y2="341.10429447852755" /><line  class="poloto_tick_line" stroke="black" x1="150" x2="650" y1="341.10429447852755" y2="341.10429447852755" /><text  class="poloto_tick_labels poloto_text" dominant-baseline="middle" text-anchor="end" x="135" y="341.10429447852755" >4.5</text><line  class="poloto_axis_lines" stroke="black" x1="150" x2="144" y1="323.4072675790467" y2="323.4072675790467" /><line  class="poloto_tick_line" stroke="black" x1="150" x2="650" y1="323.4072675790467" y2="323.4072675790467" /><text  class="poloto_tick_labels poloto_text" dominant-baseline="middle" text-anchor="end" x="135" y="323.4072675790467" >4.625</text><line  class="poloto_axis_lines" stroke="black" x1="150" x2="144" y1="305.7102406795658" y2="305.7102406795658" /><line  class="poloto_tick_line" stroke="black" x1="150" x2="650" y1="305.7102406795658" y2="305.7102406795658" /><text  class="poloto_tick_labels poloto_text" dominant-baseline="middle" text-anchor="end" x="135" y="305.7102406795658" >4.75</text><line  class="poloto_axis_lines" stroke="black" x1="150" x2="144" y1="288.0132137800849" y2="288.0132137800849" /><line  class="poloto_tick_line" stroke="black" x1="150" x2="650" y1="288.0132137800849" y2="288.0132137800849" /><text  class="poloto_tick_labels poloto_text" dominant-baseline="middle" text-anchor="end" x="135" y="288.0132137800849" >4.875</text><line  class="poloto_axis_lines" stroke="black" x1="150" x2="144" y1="270.31618688060405" y2="270.31618688060405" /><line  class="poloto_tick_line" stroke="black" x1="150" x2="650" y1="270.31618688060405" y2="270.31618688060405" /><text  class="poloto_tick_labels poloto_text" dominant-baseline="middle" text-anchor="end" x="135" y="270.31618688060405" >5</text><line  class="poloto_axis_lines" stroke="black" x1="150" x2="144" y1="252.61915998112306" y2="252.61915998112306" /><line  class="poloto_tick_line" stroke="black" x1="150" x2="650" y1="252.61915998112306" y2="252.61915998112306" /><text  class="poloto_tick_labels poloto_text" dominant-baseline="middle" text-anchor="end" x="135" y="252.61915998112306" >5.125</text><line  class="poloto_axis_lines" stroke="black" x1="150" x2="144" y1="234.9221330816422" y2="234.9221330816422" /><line  class="poloto_tick_line" stroke="black" x1="150" x2="650" y1="234.9221330816422" y2="234.9221330816422" /><text  class="poloto_tick_labels poloto_text" dominant-baseline="middle" text-anchor="end" x="135" y="234.9221330816422" >5.25</text><line  class="poloto_axis_lines" stroke="black" x1="150" x2="144" y1="217.2251061821613" y2="217.2251061821613" /><line  class="poloto_tick_line" stroke="black" x1="150" x2="650" y1="217.2251061821613" y2="217.2251061821613" /><text  class="poloto_tick_labels poloto_text" dominant-baseline="middle" text-anchor="end" x="135" y="217.2251061821613" >5.375</text><line  class="poloto_axis_lines" stroke="black" x1="150" x2="144" y1="199.52807928268044" y2="199.52807928268044" /><line  class="poloto_tick_line" stroke="black" x1="150" x2="650" y1="199.52807928268044" y2="199.52807928268044" /><text  class="poloto_tick_labels poloto_text" dominant-baseline="middle" text-anchor="end" x="135" y="199.52807928268044" >5.5</text><line  class="poloto_axis_lines" stroke="black" x1="150" x2="144" y1="181.83105238319956" y2="181.83105238319956" /><line  class="poloto_tick_line" stroke="black" x1="150" x2="650" y1="181.83105238319956" y2="181.83105238319956" /><text  class="poloto_tick_labels poloto_text" dominant-baseline="middle" text-anchor="end" x="135" y="181.83105238319956" >5.625</text><line  class="poloto_axis_lines" stroke="black" x1="150" x2="144" y1="164.1340254837187" y2="164.1340254837187" /><line  class="poloto_tick_line" stroke="black" x1="150" x2="650" y1="164.1340254837187" y2="164.1340254837187" /><text  class="poloto_tick_labels poloto_text" dominant-baseline="middle" text-anchor="end" x="135" y="164.1340254837187" >5.75</text><line  class="poloto_axis_lines" stroke="black" x1="150" x2="144" y1="146.4369985842378" y2="146.4369985842378" /><line  class="poloto_tick_line" stroke="black" x1="150" x2="650" y1="146.4369985842378" y2="146.4369985842378" /><text  class="poloto_tick_labels poloto_text" dominant-baseline="middle" text-anchor="end" x="135" y="146.4369985842378" >5.875</text><line  class="poloto_axis_lines" stroke="black" x1="150" x2="144" y1="128.73997168475694" y2="128.73997168475694" /><line  class="poloto_tick_line" stroke="black" x1="150" x2="650" y1="128.73997168475694" y2="128.73997168475694" /><text  class="poloto_tick_labels poloto_text" dominant-baseline="middle" text-anchor="end" x="135" y="128.73997168475694" >6</text><text  class="poloto_tick_labels poloto_text" dominant-baseline="middle" text-anchor="start" x="440.00000000000006" y="70" >¹2022-04-01 00:00:00 UTC in Months</text><line  class="poloto_axis_lines" stroke="black" x1="192.85714285713766" x2="192.85714285713766" y1="400" y2="405" /><line  class="poloto_tick_line" stroke="black" x1="192.85714285713766" x2="192.85714285713766" y1="400" y2="100" /><text  class="poloto_tick_labels poloto_text" dominant-baseline="start" text-anchor="middle" x="192.85714285713766" y="430" >2022 Apr¹</text><line  class="poloto_axis_lines" stroke="black" x1="278.57142857142753" x2="278.57142857142753" y1="400" y2="405" /><line  class="poloto_tick_line" stroke="black" x1="278.57142857142753" x2="278.57142857142753" y1="400" y2="100" /><text  class="poloto_tick_labels poloto_text" dominant-baseline="start" text-anchor="middle" x="278.57142857142753" y="430" >2022 May</text><line  class="poloto_axis_lines" stroke="black" x1="367.14285714285506" x2="367.14285714285506" y1="400" y2="405" /><line  class="poloto_tick_line" stroke="black" x1="367.14285714285506" x2="367.14285714285506" y1="400" y2="100" /><text  class="poloto_tick_labels poloto_text" dominant-baseline="start" text-anchor="middle" x="367.14285714285506" y="430" >2022 Jun</text><line  class="poloto_axis_lines" stroke="black" x1="452.85714285713766" x2="452.85714285713766" y1="400" y2="405" /><line  class="poloto_tick_line" stroke="black" x1="452.85714285713766" x2="452.85714285713766" y1="400" y2="100" /><text  class="poloto_tick_labels poloto_text" dominant-baseline="start" text-anchor="middle" x="452.85714285713766" y="430" >2022 Jul</text><line  class="poloto_axis_lines" stroke="black" x1="541.4285714285652" x2="541.4285714285652" y1="400" y2="405" /><line  class="poloto_tick_line" stroke="black" x1="541.4285714285652" x2="541.4285714285652" y1="400" y2="100" /><text  class="poloto_tick_labels poloto_text" dominant-baseline="start" text-anchor="middle" x="541.4285714285652" y="430" >2022 Aug</text><line  class="poloto_axis_lines" stroke="black" x1="630" x2="630" y1="400" y2="405" /><line  class="poloto_tick_line" stroke="black" x1="630" x2="630" y1="400" y2="100" /><text  class="poloto_tick_labels poloto_text" dominant-baseline="start" text-anchor="middle" x="630" y="430" >2022 Sep</text><path  stroke="black" fill="none" class="poloto_axis_lines" d=" M 150 400 L 650 400" /><path  stroke="black" fill="none" class="poloto_axis_lines" d=" M 150 400 L 150 100" /></svg>