<svg class="poloto" width="800" height="500" viewBox="0 0 800 500" xmlns="http://www.w3.org/2000/svg"><style>.poloto{stroke-linecap:round;stroke-linejoin:round;font-family:Roboto,sans-serif;font-size:16px;}.poloto_background{fill:#262626;}.poloto_scatter{stroke-width:7}.poloto_tick_line{stroke:dimgray;stroke-width:0.5}.poloto_line{stroke-width:2}.poloto_text{fill: white;}.poloto_axis_lines{stroke: white;stroke-width:3;fill:none;stroke-dasharray:none}.poloto_title{font-size:24px;dominant-baseline:start;text-anchor:middle;}.poloto_xname{font-size:24px;dominant-baseline:start;text-anchor:middle;}.poloto_yname{font-size:24px;dominant-baseline:start;text-anchor:middle;}.poloto0stroke{stroke:blue;}.poloto1stroke{stroke:red;}.poloto2stroke{stroke:green;}.poloto3stroke{stroke:gold;}.poloto4stroke{stroke:aqua;}.poloto5stroke{stroke:lime;}.poloto6stroke{stroke:orange;}.poloto7stroke{stroke:chocolate;}.poloto0fill{fill:blue;}.poloto1fill{fill:red;}.poloto2fill{fill:green;}.poloto3fill{fill:gold;}.poloto4fill{fill:aqua;}.poloto5fill{fill:lime;}.poloto6fill{fill:orange;}.poloto7fill{fill:chocolate;}</style><circle  r="1e5" class="poloto_background" /><text  class="poloto_text poloto_legend_text" x="675" y="100" >Refinance 15</text><line  class="poloto_line poloto_legend_icon poloto0stroke poloto0legend" stroke="black" x1="680" x2="730" y1="81.25" y2="81.25" /><path  class="poloto_line poloto0stroke" fill="none" stroke="black" d=" M 150.00 392.46 L 151.92 400.00 L 157.69 389.32 L 159.62 380.17 L 161.54 389.32 L 161.54 389.32 L 165.38 358.81 L 171.15 357.20 L 173.08 367.88 L 175.00 344.83 L 176.92 346.44 L 178.85 341.61 L 184.62 343.22 L 186.54 336.78 L 186.54 336.78 L 190.38 337.37 L 192.31 314.32 L 198.08 324.32 L 200.00 327.54 L 201.92 327.54 L 203.85 326.69 L 205.77 321.78 L 213.46 278.73 L 215.38 297.88 L 217.31 283.05 L 219.23 277.29 L 219.23 277.29 L 226.92 299.58 L 230.77 303.64 L 232.69 294.58 L 238.46 283.81 L 240.38 305.25 L 242.31 294.58 L 242.31 294.58 L 246.15 292.88 L 251.92 296.19 L 253.85 306.86 L 253.85 306.86 L 255.77 297.80 L 257.69 308.56 L 259.62 292.88 L 265.38 325.08 L 267.31 324.32 L 269.23 306.86 L 269.23 306.86 L 271.15 314.32 L 273.08 317.63 L 278.85 317.63 L 280.77 329.15 L 282.69 329.15 L 284.62 329.15 L 286.54 329.15 L 294.23 317.63 L 296.15 314.32 L 298.08 315.93 L 300.00 315.93 L 300.00 315.93 L 307.69 305.25 L 309.62 305.25 L 311.54 296.19 L 319.23 281.36 L 321.15 250.76 L 323.08 254.15 L 325.00 254.15 L 326.92 275.59 L 332.69 254.15 L 334.62 254.15 L 336.54 273.90 L 338.46 277.29 L 346.15 277.29 L 348.08 275.59 L 350.00 280.59 L 351.92 285.51 L 353.85 296.19 L 361.54 303.64 L 363.46 294.58 L 365.38 287.12 L 367.31 283.81 L 373.08 285.51 L 376.92 285.51 L 378.85 283.81 L 386.54 282.20 L 386.54 282.20 L 386.54 282.20 L 386.54 282.20 L 386.54 282.20 L 386.54 282.20 L 390.38 282.20 L 390.38 282.20 L 390.38 282.20 L 390.38 282.20 L 390.38 282.20 L 390.38 282.20 L 400.00 294.58 L 403.85 297.80 L 405.77 325.93 L 407.69 329.15 L 413.46 329.15 L 415.38 327.54 L 417.31 305.25 L 419.23 299.49 L 421.15 285.51 L 426.92 296.19 L 426.92 296.19 L 428.85 287.12 L 432.69 296.19 L 432.69 296.19 L 442.31 296.19 L 444.23 262.46 L 446.15 282.20 L 453.85 248.39 L 457.69 248.39 L 457.69 248.39 L 461.54 260.76 L 469.23 254.15 L 469.23 254.15 L 469.23 254.15 L 469.23 254.15 L 469.23 254.15 L 469.23 254.15 L 469.23 254.15 L 469.23 254.15 L 469.23 254.15 L 475.00 254.15 L 486.54 232.63 L 494.23 235.17 L 494.23 235.17 L 500.00 235.17 L 507.69 235.17 L 509.62 235.17 L 509.62 235.17 L 509.62 235.17 L 509.62 235.17 L 509.62 235.17 L 534.62 235.17 L 536.54 235.17 L 548.08 139.75 L 550.00 130.68 L 551.92 130.68 L 621.15 159.15 L 628.85 159.15 L 630.77 159.15 L 632.69 175.51 L 636.54 184.49 L 636.54 184.49 L 644.23 184.49 L 646.15 184.49 L 648.08 184.49 L 650.00 184.49" /><text  class="poloto_text poloto_legend_text" x="675" y="150" >Refinance 20</text><line  class="poloto_line poloto_legend_icon poloto1stroke poloto1legend" stroke="black" x1="680" x2="730" y1="131.25" y2="131.25" /><path  class="poloto_line poloto1stroke" fill="none" stroke="black" d=" M 150.00 345.68 L 151.92 368.31 L 157.69 334.58 L 159.62 324.24 L 161.54 333.73 L 161.54 333.73 L 165.38 304.07 L 171.15 301.53 L 173.08 312.29 L 175.00 300.25 L 176.92 311.02 L 178.85 290.85 L 184.62 321.69 L 186.54 290.85 L 186.54 290.85 L 190.38 290.85 L 190.38 290.85 L 198.08 250.17 L 200.00 282.71 L 201.92 290.85 L 203.85 301.53 L 205.77 280.59 L 213.46 260.00 L 215.38 257.37 L 217.31 252.12 L 219.23 240.08 L 225.00 245.34 L 226.92 268.14 L 230.77 260.00 L 232.69 257.37 L 238.46 248.81 L 240.38 258.73 L 242.31 258.73 L 242.31 258.73 L 246.15 258.73 L 251.92 260.00 L 253.85 281.44 L 253.85 281.44 L 255.77 269.41 L 257.69 289.58 L 259.62 281.44 L 265.38 282.71 L 267.31 281.44 L 269.23 281.44 L 269.23 281.44 L 271.15 282.71 L 273.08 289.58 L 278.85 290.85 L 280.77 294.66 L 282.69 294.66 L 284.62 294.66 L 286.54 294.66 L 294.23 289.58 L 296.15 278.81 L 298.08 281.44 L 300.00 281.44 L 300.00 281.44 L 307.69 268.14 L 309.62 270.68 L 311.54 261.27 L 319.23 215.85 L 321.15 197.03 L 323.08 207.80 L 325.00 215.85 L 326.92 238.56 L 332.69 225.17 L 334.62 218.47 L 336.54 239.92 L 338.46 250.17 L 346.15 250.17 L 348.08 238.56 L 350.00 249.32 L 351.92 260.00 L 353.85 272.03 L 361.54 280.08 L 363.46 269.41 L 365.38 258.73 L 367.31 251.44 L 373.08 257.37 L 376.92 260.00 L 378.85 258.73 L 386.54 260.00 L 386.54 260.00 L 386.54 260.00 L 386.54 260.00 L 386.54 260.00 L 386.54 260.00 L 386.54 260.00 L 386.54 260.00 L 386.54 260.00 L 386.54 260.00 L 386.54 260.00 L 386.54 260.00 L 400.00 280.08 L 403.85 282.71 L 405.77 301.53 L 407.69 304.07 L 413.46 301.27 L 415.38 301.27 L 417.31 290.85 L 419.23 294.66 L 421.15 278.81 L 426.92 270.68 L 426.92 270.68 L 428.85 270.68 L 432.69 281.44 L 432.69 281.44 L 442.31 278.81 L 444.23 260.00 L 446.15 260.00 L 453.85 246.19 L 457.69 234.58 L 457.69 234.58 L 461.54 247.54 L 469.23 215.85 L 469.23 215.85 L 469.23 215.85 L 469.23 215.85 L 469.23 215.85 L 469.23 215.85 L 469.23 215.85 L 469.23 215.85 L 469.23 215.85 L 475.00 215.85 L 486.54 202.37 L 494.23 203.73 L 498.08 203.73 L 500.00 203.73 L 500.00 203.73 L 509.62 203.73 L 511.54 203.73 L 511.54 203.73 L 511.54 203.73 L 511.54 203.73 L 534.62 203.73 L 536.54 203.73 L 548.08 118.81 L 550.00 102.97 L 550.00 102.97 L 625.00 155.34 L 628.85 155.34 L 630.77 155.34 L 634.62 174.15 L 636.54 175.51 L 636.54 175.51 L 644.23 175.51 L 646.15 175.51 L 648.08 175.51 L 650.00 175.51" /><text  class="poloto_text poloto_legend_text" x="675" y="200" >Refinance 30</text><line  class="poloto_line poloto_legend_icon poloto2stroke poloto2legend" stroke="black" x1="680" x2="730" y1="181.25" y2="181.25" /><path  class="poloto_line poloto2stroke" fill="none" stroke="black" d=" M 150.00 343.31 L 151.92 351.36 L 157.69 338.81 L 159.62 328.98 L 161.54 330.85 L 161.54 330.85 L 165.38 310.25 L 171.15 308.47 L 173.08 319.15 L 175.00 307.54 L 176.92 318.22 L 178.85 297.71 L 184.62 307.54 L 186.54 286.95 L 188.46 286.95 L 190.38 286.02 L 192.31 260.00 L 198.08 264.58 L 200.00 276.27 L 201.92 286.95 L 203.85 277.20 L 205.77 265.51 L 213.46 256.61 L 215.38 242.12 L 217.31 240.17 L 219.23 238.14 L 225.00 242.12 L 226.92 258.73 L 230.77 256.61 L 232.69 254.66 L 238.46 244.07 L 240.38 255.59 L 242.31 244.07 L 242.31 244.07 L 246.15 244.07 L 251.92 246.02 L 253.85 264.58 L 253.85 264.58 L 255.77 255.59 L 257.69 256.61 L 259.62 257.54 L 265.38 265.51 L 267.31 256.61 L 269.23 256.61 L 269.23 256.61 L 271.15 266.44 L 273.08 267.46 L 278.85 268.39 L 280.77 277.20 L 282.69 277.20 L 284.62 279.07 L 286.54 279.07 L 294.23 275.25 L 296.15 264.58 L 298.08 266.44 L 300.00 265.51 L 300.00 265.51 L 307.69 255.59 L 309.62 255.59 L 311.54 245.00 L 319.23 202.12 L 321.15 171.78 L 323.08 190.34 L 325.00 202.12 L 326.92 212.80 L 332.69 203.05 L 334.62 202.12 L 336.54 221.61 L 338.46 223.56 L 346.15 223.56 L 348.08 211.86 L 350.00 221.61 L 351.92 232.29 L 353.85 255.59 L 361.54 256.61 L 363.46 245.00 L 365.38 224.58 L 367.31 221.61 L 373.08 241.10 L 376.92 223.56 L 378.85 222.54 L 386.54 242.12 L 386.54 242.12 L 386.54 242.12 L 386.54 242.12 L 386.54 242.12 L 386.54 242.12 L 390.38 242.12 L 390.38 242.12 L 390.38 242.12 L 390.38 242.12 L 390.38 242.12 L 390.38 242.12 L 400.00 254.66 L 403.85 256.61 L 405.77 275.25 L 407.69 287.88 L 413.46 286.95 L 415.38 286.95 L 417.31 265.51 L 419.23 268.39 L 421.15 254.66 L 426.92 265.51 L 426.92 265.51 L 428.85 257.54 L 432.69 266.44 L 432.69 266.44 L 442.31 264.58 L 444.23 246.02 L 446.15 245.00 L 453.85 220.59 L 457.69 211.86 L 457.69 211.86 L 461.54 222.54 L 469.23 210.85 L 469.23 210.85 L 469.23 210.85 L 469.23 210.85 L 469.23 210.85 L 469.23 210.85 L 469.23 210.85 L 469.23 210.85 L 475.00 210.85 L 475.00 209.83 L 486.54 197.03 L 494.23 175.51 L 494.23 175.51 L 500.00 175.51 L 500.00 175.51 L 509.62 175.51 L 511.54 175.51 L 511.54 175.51 L 511.54 175.51 L 511.54 175.51 L 534.62 175.51 L 536.54 175.51 L 548.08 127.03 L 550.00 100.00 L 550.00 100.00 L 625.00 146.44 L 628.85 146.44 L 630.77 146.44 L 632.69 150.76 L 636.54 160.59 L 636.54 160.59 L 644.23 160.59 L 646.15 160.59 L 648.08 160.59 L 650.00 160.59" /><text  class="poloto_labels poloto_text poloto_title" x="400" y="37.5" >lower.com purchase rates</text><text  class="poloto_labels poloto_text poloto_xname" x="400" y="481.25" >Date</text><text  class="poloto_labels poloto_text poloto_yname" transform="rotate(-90,37.5,250)" x="37.5" y="250" >Rate (%)</text><text  class="poloto_tick_labels poloto_text" dominant-baseline="middle" text-anchor="start" x="150" y="70" ></text><line  class="poloto_axis_lines" stroke="black" x1="150" x2="144" y1="390.2542372881356" y2="390.2542372881356" /><line  class="poloto_tick_line" stroke="black" x1="150" x2="650" y1="390.2542372881356" y2="390.2542372881356" /><text  class="poloto_tick_labels poloto_text" dominant-baseline="middle" text-anchor="end" x="135" y="390.2542372881356" >3.625</text><line  class="poloto_axis_lines" stroke="black" x1="150" x2="144" y1="379.66101694915255" y2="379.66101694915255" /><line  class="poloto_tick_line" stroke="black" x1="150" x2="650" y1="379.66101694915255" y2="379.66101694915255" /><text  class="poloto_tick_labels poloto_text" dominant-baseline="middle" text-anchor="end" x="135" y="379.66101694915255" >3.75</text><line  class="poloto_axis_lines" stroke="black" x1="150" x2="144" y1="369.06779661016947" y2="369.06779661016947" /><line  class="poloto_tick_line" stroke="black" x1="150" x2="650" y1="369.06779661016947" y2="369.06779661016947" /><text  class="poloto_tick_labels poloto_text" dominant-baseline="middle" text-anchor="end" x="135" y="369.06779661016947" >3.875</text><line  class="poloto_axis_lines" stroke="black" x1="150" x2="144" y1="358.47457627118644" y2="358.47457627118644" /><line  class="poloto_tick_line" stroke="black" x1="150" x2="650" y1="358.47457627118644" y2="358.47457627118644" /><text  class="poloto_tick_labels poloto_text" dominant-baseline="middle" text-anchor="end" x="135" y="358.47457627118644" >4</text><line  class="poloto_axis_lines" stroke="black" x1="150" x2="144" y1="347.8813559322034" y2="347.8813559322034" /><line  class="poloto_tick_line" stroke="black" x1="150" x2="650" y1="347.8813559322034" y2="347.8813559322034" /><text  class="poloto_tick_labels poloto_text" dominant-baseline="middle" text-anchor="end" x="135" y="347.8813559322034" >4.125</text><line  class="poloto_axis_lines" stroke="black" x1="150" x2="144" y1="337.2881355932203" y2="337.2881355932203" /><line  class="poloto_tick_line" stroke="black" x1="150" x2="650" y1="337.2881355932203" y2="337.2881355932203" /><text  class="poloto_tick_labels poloto_text" dominant-baseline="middle" text-anchor="end" x="135" y="337.2881355932203" >4.25</text><line  class="poloto_axis_lines" stroke="black" x1="150" x2="144" y1="326.6949152542373" y2="326.6949152542373" /><line  class="poloto_tick_line" stroke="black" x1="150" x2="650" y1="326.6949152542373" y2="326.6949152542373" /><text  class="poloto_tick_labels poloto_text" dominant-baseline="middle" text-anchor="end" x="135" y="326.6949152542373" >4.375</text><line  class="poloto_axis_lines" stroke="black" x1="150" x2="144" y1="316.10169491525426" y2="316.10169491525426" /><line  class="poloto_tick_line" stroke="black" x1="150" x2="650" y1="316.10169491525426" y2="316.10169491525426" /><text  class="poloto_tick_labels poloto_text" dominant-baseline="middle" text-anchor="end" x="135" y="316.10169491525426" >4.5</text><line  class="poloto_axis_lines" stroke="black" x1="150" x2="144" y1="305.50847457627117" y2="305.50847457627117" /><line  class="poloto_tick_line" stroke="black" x1="150" x2="650" y1="305.50847457627117" y2="305.50847457627117" /><text  class="poloto_tick_labels poloto_text" dominant-baseline="middle" text-anchor="end" x="135" y="305.50847457627117" >4.625</text><line  class="poloto_axis_lines" stroke="black" x1="150" x2="144" y1="294.91525423728814" y2="294.91525423728814" /><line  class="poloto_tick_line" stroke="black" x1="150" x2="650" y1="294.91525423728814" y2="294.91525423728814" /><text  class="poloto_tick_labels poloto_text" dominant-baseline="middle" text-anchor="end" x="135" y="294.91525423728814" >4.75</text><line  class="poloto_axis_lines" stroke="black" x1="150" x2="144" y1="284.3220338983051" y2="284.3220338983051" /><line  class="poloto_tick_line" stroke="black" x1="150" x2="650" y1="284.3220338983051" y2="284.3220338983051" /><text  class="poloto_tick_labels poloto_text" dominant-baseline="middle" text-anchor="end" x="135" y="284.3220338983051" >4.875</text><line  class="poloto_axis_lines" stroke="black" x1="150" x2="144" y1="273.728813559322" y2="273.728813559322" /><line  class="poloto_tick_line" stroke="black" x1="150" x2="650" y1="273.728813559322" y2="273.728813559322" /><text  class="poloto_tick_labels poloto_text" dominant-baseline="middle" text-anchor="end" x="135" y="273.728813559322" >5</text><line  class="poloto_axis_lines" stroke="black" x1="150" x2="144" y1="263.135593220339" y2="263.135593220339" /><line  class="poloto_tick_line" stroke="black" x1="150" x2="650" y1="263.135593220339" y2="263.135593220339" /><text  class="poloto_tick_labels poloto_text" dominant-baseline="middle" text-anchor="end" x="135" y="263.135593220339" >5.125</text><line  class="poloto_axis_lines" stroke="black" x1="150" x2="144" y1="252.54237288135596" y2="252.54237288135596" /><line  class="poloto_tick_line" stroke="black" x1="150" x2="650" y1="252.54237288135596" y2="252.54237288135596" /><text  class="poloto_tick_labels poloto_text" dominant-baseline="middle" text-anchor="end" x="135" y="252.54237288135596" >5.25</text><line  class="poloto_axis_lines" stroke="black" x1="150" x2="144" y1="241.94915254237287" y2="241.94915254237287" /><line  class="poloto_tick_line" stroke="black" x1="150" x2="650" y1="241.94915254237287" y2="241.94915254237287" /><text  class="poloto_tick_labels poloto_text" dominant-baseline="middle" text-anchor="end" x="135" y="241.94915254237287" >5.375</text><line  class="poloto_axis_lines" stroke="black" x1="150" x2="144" y1="231.35593220338984" y2="231.35593220338984" /><line  class="poloto_tick_line" stroke="black" x1="150" x2="650" y1="231.35593220338984" y2="231.35593220338984" /><text  class="poloto_tick_labels poloto_text" dominant-baseline="middle" text-anchor="end" x="135" y="231.35593220338984" >5.5</text><line  class="poloto_axis_lines" stroke="black" x1="150" x2="144" y1="220.7627118644068" y2="220.7627118644068" /><line  class="poloto_tick_line" stroke="black" x1="150" x2="650" y1="220.7627118644068" y2="220.7627118644068" /><text  class="poloto_tick_labels poloto_text" dominant-baseline="middle" text-anchor="end" x="135" y="220.7627118644068" >5.625</text><line  class="poloto_axis_lines" stroke="black" x1="150" x2="144" y1="210.16949152542372" y2="210.16949152542372" /><line  class="poloto_tick_line" stroke="black" x1="150" x2="650" y1="210.16949152542372" y2="210.16949152542372" /><text  class="poloto_tick_labels poloto_text" dominant-baseline="middle" text-anchor="end" x="135" y="210.16949152542372" >5.75</text><line  class="poloto_axis_lines" stroke="black" x1="150" x2="144" y1="199.5762711864407" y2="199.5762711864407" /><line  class="poloto_tick_line" stroke="black" x1="150" x2="650" y1="199.5762711864407" y2="199.5762711864407" /><text  class="poloto_tick_labels poloto_text" dominant-baseline="middle" text-anchor="end" x="135" y="199.5762711864407" >5.875</text><line  class="poloto_axis_lines" stroke="black" x1="150" x2="144" y1="188.98305084745766" y2="188.98305084745766" /><line  class="poloto_tick_line" stroke="black" x1="150" x2="650" y1="188.98305084745766" y2="188.98305084745766" /><text  class="poloto_tick_labels poloto_text" dominant-baseline="middle" text-anchor="end" x="135" y="188.98305084745766" >6</text><line  class="poloto_axis_lines" stroke="black" x1="150" x2="144" y1="178.38983050847457" y2="178.38983050847457" /><line  class="poloto_tick_line" stroke="black" x1="150" x2="650" y1="178.38983050847457" y2="178.38983050847457" /><text  class="poloto_tick_labels poloto_text" dominant-baseline="middle" text-anchor="end" x="135" y="178.38983050847457" >6.125</text><line  class="poloto_axis_lines" stroke="black" x1="150" x2="144" y1="167.7966101694915" y2="167.7966101694915" /><line  class="poloto_tick_line" stroke="black" x1="150" x2="650" y1="167.7966101694915" y2="167.7966101694915" /><text  class="poloto_tick_labels poloto_text" dominant-baseline="middle" text-anchor="end" x="135" y="167.7966101694915" >6.25</text><line  class="poloto_axis_lines" stroke="black" x1="150" x2="144" y1="157.2033898305085" y2="157.2033898305085" /><line  class="poloto_tick_line" stroke="black" x1="150" x2="650" y1="157.2033898305085" y2="157.2033898305085" /><text  class="poloto_tick_labels poloto_text" dominant-baseline="middle" text-anchor="end" x="135" y="157.2033898305085" >6.375</text><line  class="poloto_axis_lines" stroke="black" x1="150" x2="144" y1="146.61016949152543" y2="146.61016949152543" /><line  class="poloto_tick_line" stroke="black" x1="150" x2="650" y1="146.61016949152543" y2="146.61016949152543" /><text  class="poloto_tick_labels poloto_text" dominant-baseline="middle" text-anchor="end" x="135" y="146.61016949152543" >6.5</text><line  class="poloto_axis_lines" stroke="black" x1="150" x2="144" y1="136.01694915254234" y2="136.01694915254234" /><line  class="poloto_tick_line" stroke="black" x1="150" x2="650" y1="136.01694915254234" y2="136.01694915254234" /><text  class="poloto_tick_labels poloto_text" dominant-baseline="middle" text-anchor="end" x="135" y="136.01694915254234" >6.625</text><line  class="poloto_axis_lines" stroke="black" x1="150" x2="144" y1="125.42372881355936" y2="125.42372881355936" /><line  class="poloto_tick_line" stroke="black" x1="150" x2="650" y1="125.42372881355936" y2="125.42372881355936" /><text  class="poloto_tick_labels poloto_text" dominant-baseline="middle" text-anchor="end" x="135" y="125.42372881355936" >6.75</text><line  class="poloto_axis_lines" stroke="black" x1="150" x2="144" y1="114.83050847457628" y2="114.83050847457628" /><line  class="poloto_tick_line" stroke="black" x1="150" x2="650" y1="114.83050847457628" y2="114.83050847457628" /><text  class="poloto_tick_labels poloto_text" dominant-baseline="middle" text-anchor="end" x="135" y="114.83050847457628" >6.875</text><line  class="poloto_axis_lines" stroke="black" x1="150" x2="144" y1="104.23728813559319" y2="104.23728813559319" /><line  class="poloto_tick_line" stroke="black" x1="150" x2="650" y1="104.23728813559319" y2="104.23728813559319" /><text  class="poloto_tick_labels poloto_text" dominant-baseline="middle" text-anchor="end" x="135" y="104.23728813559319" >7</text><text  class="poloto_tick_labels poloto_text" dominant-baseline="middle" text-anchor="start" x="440.00000000000006" y="70" >¹2022-05-01 00:00:00 UTC in Months</text><line  class="poloto_axis_lines" stroke="black" x1="236.53846153846098" x2="236.53846153846098" y1="400" y2="405" /><line  class="poloto_tick_line" stroke="black" x1="236.53846153846098" x2="236.53846153846098" y1="400" y2="100" /><text  class="poloto_tick_labels poloto_text" dominant-baseline="start" text-anchor="middle" x="236.53846153846098" y="430" >2022 May¹</text><line  class="poloto_axis_lines" stroke="black" x1="353.8461538461488" x2="353.8461538461488" y1="400" y2="405" /><line  class="poloto_tick_line" stroke="black" x1="353.8461538461488" x2="353.8461538461488" y1="400" y2="100" /><text  class="poloto_tick_labels poloto_text" dominant-baseline="start" text-anchor="middle" x="353.8461538461488" y="430" >2022 Jul</text><line  class="poloto_axis_lines" stroke="black" x1="473.07692307692196" x2="473.07692307692196" y1="400" y2="405" /><line  class="poloto_tick_line" stroke="black" x1="473.07692307692196" x2="473.07692307692196" y1="400" y2="100" /><text  class="poloto_tick_labels poloto_text" dominant-baseline="start" text-anchor="middle" x="473.07692307692196" y="430" >2022 Sep</text><line  class="poloto_axis_lines" stroke="black" x1="590.3846153846098" x2="590.3846153846098" y1="400" y2="405" /><line  class="poloto_tick_line" stroke="black" x1="590.3846153846098" x2="590.3846153846098" y1="400" y2="100" /><text  class="poloto_tick_labels poloto_text" dominant-baseline="start" text-anchor="middle" x="590.3846153846098" y="430" >2022 Nov</text><path  stroke="black" fill="none" class="poloto_axis_lines" d=" M 150 400 L 650 400" /><path  stroke="black" fill="none" class="poloto_axis_lines" d=" M 150 400 L 150 100" /></svg>