<svg class="poloto" width="800" height="500" viewBox="0 0 800 500" xmlns="http://www.w3.org/2000/svg"><style>.poloto{stroke-linecap:round;stroke-linejoin:round;font-family:Roboto,sans-serif;font-size:16px;}.poloto_background{fill:#262626;}.poloto_scatter{stroke-width:7}.poloto_tick_line{stroke:dimgray;stroke-width:0.5}.poloto_line{stroke-width:2}.poloto_text{fill: white;}.poloto_axis_lines{stroke: white;stroke-width:3;fill:none;stroke-dasharray:none}.poloto_title{font-size:24px;dominant-baseline:start;text-anchor:middle;}.poloto_xname{font-size:24px;dominant-baseline:start;text-anchor:middle;}.poloto_yname{font-size:24px;dominant-baseline:start;text-anchor:middle;}.poloto0stroke{stroke:blue;}.poloto1stroke{stroke:red;}.poloto2stroke{stroke:green;}.poloto3stroke{stroke:gold;}.poloto4stroke{stroke:aqua;}.poloto5stroke{stroke:lime;}.poloto6stroke{stroke:orange;}.poloto7stroke{stroke:chocolate;}.poloto0fill{fill:blue;}.poloto1fill{fill:red;}.poloto2fill{fill:green;}.poloto3fill{fill:gold;}.poloto4fill{fill:aqua;}.poloto5fill{fill:lime;}.poloto6fill{fill:orange;}.poloto7fill{fill:chocolate;}</style><circle  r="1e5" class="poloto_background" /><text  class="poloto_text poloto_legend_text" x="675" y="100" >Refinance 15</text><line  class="poloto_line poloto_legend_icon poloto0stroke poloto0legend" stroke="black" x1="680" x2="730" y1="81.25" y2="81.25" /><path  class="poloto_line poloto0stroke" fill="none" stroke="black" d=" M 150.00 392.46 L 151.52 400.00 L 156.06 389.32 L 157.58 380.17 L 159.09 389.32 L 159.09 389.32 L 162.12 358.81 L 166.67 357.20 L 168.18 367.88 L 169.70 344.83 L 171.21 346.44 L 172.73 341.61 L 177.27 343.22 L 178.79 336.78 L 178.79 336.78 L 181.82 337.37 L 183.33 314.32 L 187.88 324.32 L 189.39 327.54 L 190.91 327.54 L 192.42 326.69 L 193.94 321.78 L 200.00 278.73 L 201.52 297.88 L 203.03 283.05 L 204.55 277.29 L 204.55 277.29 L 210.61 299.58 L 213.64 303.64 L 215.15 294.58 L 219.70 283.81 L 221.21 305.25 L 222.73 294.58 L 222.73 294.58 L 225.76 292.88 L 230.30 296.19 L 231.82 306.86 L 231.82 306.86 L 233.33 297.80 L 234.85 308.56 L 236.36 292.88 L 240.91 325.08 L 242.42 324.32 L 243.94 306.86 L 243.94 306.86 L 245.45 314.32 L 246.97 317.63 L 251.52 317.63 L 253.03 329.15 L 254.55 329.15 L 256.06 329.15 L 257.58 329.15 L 263.64 317.63 L 265.15 314.32 L 266.67 315.93 L 268.18 315.93 L 268.18 315.93 L 274.24 305.25 L 275.76 305.25 L 277.27 296.19 L 283.33 281.36 L 284.85 250.76 L 286.36 254.15 L 287.88 254.15 L 289.39 275.59 L 293.94 254.15 L 295.45 254.15 L 296.97 273.90 L 298.48 277.29 L 304.55 277.29 L 306.06 275.59 L 307.58 280.59 L 309.09 285.51 L 310.61 296.19 L 316.67 303.64 L 318.18 294.58 L 319.70 287.12 L 321.21 283.81 L 325.76 285.51 L 328.79 285.51 L 330.30 283.81 L 336.36 282.20 L 336.36 282.20 L 336.36 282.20 L 336.36 282.20 L 336.36 282.20 L 336.36 282.20 L 339.39 282.20 L 339.39 282.20 L 339.39 282.20 L 339.39 282.20 L 339.39 282.20 L 339.39 282.20 L 346.97 294.58 L 350.00 297.80 L 351.52 325.93 L 353.03 329.15 L 357.58 329.15 L 359.09 327.54 L 360.61 305.25 L 362.12 299.49 L 363.64 285.51 L 368.18 296.19 L 368.18 296.19 L 369.70 287.12 L 372.73 296.19 L 372.73 296.19 L 380.30 296.19 L 381.82 262.46 L 383.33 282.20 L 389.39 248.39 L 392.42 248.39 L 392.42 248.39 L 395.45 260.76 L 401.52 254.15 L 401.52 254.15 L 401.52 254.15 L 401.52 254.15 L 401.52 254.15 L 401.52 254.15 L 401.52 254.15 L 401.52 254.15 L 401.52 254.15 L 406.06 254.15 L 415.15 232.63 L 421.21 235.17 L 421.21 235.17 L 425.76 235.17 L 431.82 235.17 L 433.33 235.17 L 433.33 235.17 L 433.33 235.17 L 433.33 235.17 L 433.33 235.17 L 453.03 235.17 L 454.55 235.17 L 463.64 139.75 L 465.15 130.68 L 466.67 130.68 L 521.21 159.15 L 527.27 159.15 L 528.79 159.15 L 530.30 175.51 L 533.33 184.49 L 533.33 184.49 L 539.39 184.49 L 540.91 184.49 L 542.42 184.49 L 543.94 184.49 L 548.48 184.49 L 550.00 184.49 L 553.03 184.49 L 554.55 184.49 L 559.09 184.49 L 560.61 184.49 L 560.61 184.49 L 565.15 184.49 L 569.70 184.49 L 571.21 184.49 L 572.73 184.49 L 574.24 184.49 L 575.76 184.49 L 581.82 209.15 L 583.33 180.68 L 584.85 159.15 L 586.36 169.92 L 590.91 169.92 L 592.42 169.92 L 592.42 169.92 L 595.45 193.05 L 596.97 193.05 L 601.52 193.05 L 603.03 193.05 L 604.55 193.05 L 606.06 193.05 L 607.58 193.05 L 607.58 193.05 L 607.58 193.05 L 607.58 193.05 L 615.15 193.05 L 618.18 193.05 L 622.73 193.05 L 624.24 193.05 L 627.27 193.05 L 628.79 193.05 L 634.85 193.05 L 636.36 193.05 L 637.88 193.05 L 639.39 223.56 L 643.94 230.34 L 645.45 191.36 L 646.97 203.81 L 648.48 202.12 L 650.00 182.37" /><text  class="poloto_text poloto_legend_text" x="675" y="150" >Refinance 20</text><line  class="poloto_line poloto_legend_icon poloto1stroke poloto1legend" stroke="black" x1="680" x2="730" y1="131.25" y2="131.25" /><path  class="poloto_line poloto1stroke" fill="none" stroke="black" d=" M 150.00 345.68 L 151.52 368.31 L 156.06 334.58 L 157.58 324.24 L 159.09 333.73 L 159.09 333.73 L 162.12 304.07 L 166.67 301.53 L 168.18 312.29 L 169.70 300.25 L 171.21 311.02 L 172.73 290.85 L 177.27 321.69 L 178.79 290.85 L 178.79 290.85 L 181.82 290.85 L 181.82 290.85 L 187.88 250.17 L 189.39 282.71 L 190.91 290.85 L 192.42 301.53 L 193.94 280.59 L 200.00 260.00 L 201.52 257.37 L 203.03 252.12 L 204.55 240.08 L 209.09 245.34 L 210.61 268.14 L 213.64 260.00 L 215.15 257.37 L 219.70 248.81 L 221.21 258.73 L 222.73 258.73 L 222.73 258.73 L 225.76 258.73 L 230.30 260.00 L 231.82 281.44 L 231.82 281.44 L 233.33 269.41 L 234.85 289.58 L 236.36 281.44 L 240.91 282.71 L 242.42 281.44 L 243.94 281.44 L 243.94 281.44 L 245.45 282.71 L 246.97 289.58 L 251.52 290.85 L 253.03 294.66 L 254.55 294.66 L 256.06 294.66 L 257.58 294.66 L 263.64 289.58 L 265.15 278.81 L 266.67 281.44 L 268.18 281.44 L 268.18 281.44 L 274.24 268.14 L 275.76 270.68 L 277.27 261.27 L 283.33 215.85 L 284.85 197.03 L 286.36 207.80 L 287.88 215.85 L 289.39 238.56 L 293.94 225.17 L 295.45 218.47 L 296.97 239.92 L 298.48 250.17 L 304.55 250.17 L 306.06 238.56 L 307.58 249.32 L 309.09 260.00 L 310.61 272.03 L 316.67 280.08 L 318.18 269.41 L 319.70 258.73 L 321.21 251.44 L 325.76 257.37 L 328.79 260.00 L 330.30 258.73 L 336.36 260.00 L 336.36 260.00 L 336.36 260.00 L 336.36 260.00 L 336.36 260.00 L 336.36 260.00 L 336.36 260.00 L 336.36 260.00 L 336.36 260.00 L 336.36 260.00 L 336.36 260.00 L 336.36 260.00 L 346.97 280.08 L 350.00 282.71 L 351.52 301.53 L 353.03 304.07 L 357.58 301.27 L 359.09 301.27 L 360.61 290.85 L 362.12 294.66 L 363.64 278.81 L 368.18 270.68 L 368.18 270.68 L 369.70 270.68 L 372.73 281.44 L 372.73 281.44 L 380.30 278.81 L 381.82 260.00 L 383.33 260.00 L 389.39 246.19 L 392.42 234.58 L 392.42 234.58 L 395.45 247.54 L 401.52 215.85 L 401.52 215.85 L 401.52 215.85 L 401.52 215.85 L 401.52 215.85 L 401.52 215.85 L 401.52 215.85 L 401.52 215.85 L 401.52 215.85 L 406.06 215.85 L 415.15 202.37 L 421.21 203.73 L 424.24 203.73 L 425.76 203.73 L 425.76 203.73 L 433.33 203.73 L 434.85 203.73 L 434.85 203.73 L 434.85 203.73 L 434.85 203.73 L 453.03 203.73 L 454.55 203.73 L 463.64 118.81 L 465.15 102.97 L 465.15 102.97 L 524.24 155.34 L 527.27 155.34 L 528.79 155.34 L 531.82 174.15 L 533.33 175.51 L 533.33 175.51 L 539.39 175.51 L 540.91 175.51 L 542.42 175.51 L 543.94 175.51 L 548.48 175.51 L 550.00 175.51 L 553.03 175.51 L 554.55 175.51 L 559.09 175.51 L 560.61 175.51 L 560.61 175.51 L 565.15 175.51 L 569.70 175.51 L 571.21 175.51 L 572.73 175.51 L 574.24 175.51 L 575.76 175.51 L 581.82 156.36 L 583.33 145.93 L 584.85 144.58 L 586.36 147.37 L 590.91 147.37 L 592.42 147.37 L 592.42 147.37 L 595.45 167.46 L 596.97 167.46 L 601.52 167.46 L 603.03 167.46 L 604.55 167.46 L 606.06 167.46 L 607.58 167.46 L 607.58 167.46 L 613.64 167.46 L 613.64 167.46 L 615.15 167.46 L 618.18 167.46 L 622.73 167.46 L 624.24 167.46 L 627.27 167.46 L 628.79 167.46 L 634.85 167.46 L 636.36 167.46 L 637.88 167.46 L 639.39 190.34 L 643.94 188.98 L 645.45 156.69 L 646.97 158.05 L 646.97 158.05 L 650.00 156.69" /><text  class="poloto_text poloto_legend_text" x="675" y="200" >Refinance 30</text><line  class="poloto_line poloto_legend_icon poloto2stroke poloto2legend" stroke="black" x1="680" x2="730" y1="181.25" y2="181.25" /><path  class="poloto_line poloto2stroke" fill="none" stroke="black" d=" M 150.00 343.31 L 151.52 351.36 L 156.06 338.81 L 157.58 328.98 L 159.09 330.85 L 159.09 330.85 L 162.12 310.25 L 166.67 308.47 L 168.18 319.15 L 169.70 307.54 L 171.21 318.22 L 172.73 297.71 L 177.27 307.54 L 178.79 286.95 L 180.30 286.95 L 181.82 286.02 L 183.33 260.00 L 187.88 264.58 L 189.39 276.27 L 190.91 286.95 L 192.42 277.20 L 193.94 265.51 L 200.00 256.61 L 201.52 242.12 L 203.03 240.17 L 204.55 238.14 L 209.09 242.12 L 210.61 258.73 L 213.64 256.61 L 215.15 254.66 L 219.70 244.07 L 221.21 255.59 L 222.73 244.07 L 222.73 244.07 L 225.76 244.07 L 230.30 246.02 L 231.82 264.58 L 231.82 264.58 L 233.33 255.59 L 234.85 256.61 L 236.36 257.54 L 240.91 265.51 L 242.42 256.61 L 243.94 256.61 L 243.94 256.61 L 245.45 266.44 L 246.97 267.46 L 251.52 268.39 L 253.03 277.20 L 254.55 277.20 L 256.06 279.07 L 257.58 279.07 L 263.64 275.25 L 265.15 264.58 L 266.67 266.44 L 268.18 265.51 L 268.18 265.51 L 274.24 255.59 L 275.76 255.59 L 277.27 245.00 L 283.33 202.12 L 284.85 171.78 L 286.36 190.34 L 287.88 202.12 L 289.39 212.80 L 293.94 203.05 L 295.45 202.12 L 296.97 221.61 L 298.48 223.56 L 304.55 223.56 L 306.06 211.86 L 307.58 221.61 L 309.09 232.29 L 310.61 255.59 L 316.67 256.61 L 318.18 245.00 L 319.70 224.58 L 321.21 221.61 L 325.76 241.10 L 328.79 223.56 L 330.30 222.54 L 336.36 242.12 L 336.36 242.12 L 336.36 242.12 L 336.36 242.12 L 336.36 242.12 L 336.36 242.12 L 339.39 242.12 L 339.39 242.12 L 339.39 242.12 L 339.39 242.12 L 339.39 242.12 L 339.39 242.12 L 346.97 254.66 L 350.00 256.61 L 351.52 275.25 L 353.03 287.88 L 357.58 286.95 L 359.09 286.95 L 360.61 265.51 L 362.12 268.39 L 363.64 254.66 L 368.18 265.51 L 368.18 265.51 L 369.70 257.54 L 372.73 266.44 L 372.73 266.44 L 380.30 264.58 L 381.82 246.02 L 383.33 245.00 L 389.39 220.59 L 392.42 211.86 L 392.42 211.86 L 395.45 222.54 L 401.52 210.85 L 401.52 210.85 L 401.52 210.85 L 401.52 210.85 L 401.52 210.85 L 401.52 210.85 L 401.52 210.85 L 401.52 210.85 L 406.06 210.85 L 406.06 209.83 L 415.15 197.03 L 421.21 175.51 L 421.21 175.51 L 425.76 175.51 L 425.76 175.51 L 433.33 175.51 L 434.85 175.51 L 434.85 175.51 L 434.85 175.51 L 434.85 175.51 L 453.03 175.51 L 454.55 175.51 L 463.64 127.03 L 465.15 100.00 L 465.15 100.00 L 524.24 146.44 L 527.27 146.44 L 528.79 146.44 L 530.30 150.76 L 533.33 160.59 L 533.33 160.59 L 539.39 160.59 L 540.91 160.59 L 542.42 160.59 L 543.94 160.59 L 548.48 160.59 L 550.00 160.59 L 553.03 160.59 L 554.55 160.59 L 559.09 160.59 L 560.61 160.59 L 560.61 160.59 L 565.15 160.59 L 569.70 160.59 L 571.21 160.59 L 572.73 160.59 L 574.24 160.59 L 575.76 160.59 L 581.82 144.24 L 583.33 152.88 L 584.85 132.37 L 586.36 152.88 L 590.91 152.88 L 592.42 152.88 L 592.42 152.88 L 595.45 152.88 L 596.97 152.88 L 601.52 152.88 L 603.03 152.88 L 604.55 152.88 L 606.06 152.88 L 607.58 152.88 L 607.58 152.88 L 613.64 152.88 L 613.64 152.88 L 615.15 152.88 L 618.18 152.88 L 622.73 152.88 L 624.24 152.88 L 627.27 152.88 L 628.79 152.88 L 634.85 152.88 L 636.36 152.88 L 637.88 152.88 L 639.39 207.80 L 643.94 197.03 L 645.45 153.98 L 646.97 186.27 L 648.48 153.98 L 650.00 143.14" /><text  class="poloto_labels poloto_text poloto_title" x="400" y="37.5" >lower.com purchase rates</text><text  class="poloto_labels poloto_text poloto_xname" x="400" y="481.25" >Date</text><text  class="poloto_labels poloto_text poloto_yname" transform="rotate(-90,37.5,250)" x="37.5" y="250" >Rate (%)</text><text  class="poloto_tick_labels poloto_text" dominant-baseline="middle" text-anchor="start" x="150" y="70" ></text><line  class="poloto_axis_lines" stroke="black" x1="150" x2="144" y1="390.2542372881356" y2="390.2542372881356" /><line  class="poloto_tick_line" stroke="black" x1="150" x2="650" y1="390.2542372881356" y2="390.2542372881356" /><text  class="poloto_tick_labels poloto_text" dominant-baseline="middle" text-anchor="end" x="135" y="390.2542372881356" >3.625</text><line  class="poloto_axis_lines" stroke="black" x1="150" x2="144" y1="379.66101694915255" y2="379.66101694915255" /><line  class="poloto_tick_line" stroke="black" x1="150" x2="650" y1="379.66101694915255" y2="379.66101694915255" /><text  class="poloto_tick_labels poloto_text" dominant-baseline="middle" text-anchor="end" x="135" y="379.66101694915255" >3.75</text><line  class="poloto_axis_lines" stroke="black" x1="150" x2="144" y1="369.06779661016947" y2="369.06779661016947" /><line  class="poloto_tick_line" stroke="black" x1="150" x2="650" y1="369.06779661016947" y2="369.06779661016947" /><text  class="poloto_tick_labels poloto_text" dominant-baseline="middle" text-anchor="end" x="135" y="369.06779661016947" >3.875</text><line  class="poloto_axis_lines" stroke="black" x1="150" x2="144" y1="358.47457627118644" y2="358.47457627118644" /><line  class="poloto_tick_line" stroke="black" x1="150" x2="650" y1="358.47457627118644" y2="358.47457627118644" /><text  class="poloto_tick_labels poloto_text" dominant-baseline="middle" text-anchor="end" x="135" y="358.47457627118644" >4</text><line  class="poloto_axis_lines" stroke="black" x1="150" x2="144" y1="347.8813559322034" y2="347.8813559322034" /><line  class="poloto_tick_line" stroke="black" x1="150" x2="650" y1="347.8813559322034" y2="347.8813559322034" /><text  class="poloto_tick_labels poloto_text" dominant-baseline="middle" text-anchor="end" x="135" y="347.8813559322034" >4.125</text><line  class="poloto_axis_lines" stroke="black" x1="150" x2="144" y1="337.2881355932203" y2="337.2881355932203" /><line  class="poloto_tick_line" stroke="black" x1="150" x2="650" y1="337.2881355932203" y2="337.2881355932203" /><text  class="poloto_tick_labels poloto_text" dominant-baseline="middle" text-anchor="end" x="135" y="337.2881355932203" >4.25</text><line  class="poloto_axis_lines" stroke="black" x1="150" x2="144" y1="326.6949152542373" y2="326.6949152542373" /><line  class="poloto_tick_line" stroke="black" x1="150" x2="650" y1="326.6949152542373" y2="326.6949152542373" /><text  class="poloto_tick_labels poloto_text" dominant-baseline="middle" text-anchor="end" x="135" y="326.6949152542373" >4.375</text><line  class="poloto_axis_lines" stroke="black" x1="150" x2="144" y1="316.10169491525426" y2="316.10169491525426" /><line  class="poloto_tick_line" stroke="black" x1="150" x2="650" y1="316.10169491525426" y2="316.10169491525426" /><text  class="poloto_tick_labels poloto_text" dominant-baseline="middle" text-anchor="end" x="135" y="316.10169491525426" >4.5</text><line  class="poloto_axis_lines" stroke="black" x1="150" x2="144" y1="305.50847457627117" y2="305.50847457627117" /><line  class="poloto_tick_line" stroke="black" x1="150" x2="650" y1="305.50847457627117" y2="305.50847457627117" /><text  class="poloto_tick_labels poloto_text" dominant-baseline="middle" text-anchor="end" x="135" y="305.50847457627117" >4.625</text><line  class="poloto_axis_lines" stroke="black" x1="150" x2="144" y1="294.91525423728814" y2="294.91525423728814" /><line  class="poloto_tick_line" stroke="black" x1="150" x2="650" y1="294.91525423728814" y2="294.91525423728814" /><text  class="poloto_tick_labels poloto_text" dominant-baseline="middle" text-anchor="end" x="135" y="294.91525423728814" >4.75</text><line  class="poloto_axis_lines" stroke="black" x1="150" x2="144" y1="284.3220338983051" y2="284.3220338983051" /><line  class="poloto_tick_line" stroke="black" x1="150" x2="650" y1="284.3220338983051" y2="284.3220338983051" /><text  class="poloto_tick_labels poloto_text" dominant-baseline="middle" text-anchor="end" x="135" y="284.3220338983051" >4.875</text><line  class="poloto_axis_lines" stroke="black" x1="150" x2="144" y1="273.728813559322" y2="273.728813559322" /><line  class="poloto_tick_line" stroke="black" x1="150" x2="650" y1="273.728813559322" y2="273.728813559322" /><text  class="poloto_tick_labels poloto_text" dominant-baseline="middle" text-anchor="end" x="135" y="273.728813559322" >5</text><line  class="poloto_axis_lines" stroke="black" x1="150" x2="144" y1="263.135593220339" y2="263.135593220339" /><line  class="poloto_tick_line" stroke="black" x1="150" x2="650" y1="263.135593220339" y2="263.135593220339" /><text  class="poloto_tick_labels poloto_text" dominant-baseline="middle" text-anchor="end" x="135" y="263.135593220339" >5.125</text><line  class="poloto_axis_lines" stroke="black" x1="150" x2="144" y1="252.54237288135596" y2="252.54237288135596" /><line  class="poloto_tick_line" stroke="black" x1="150" x2="650" y1="252.54237288135596" y2="252.54237288135596" /><text  class="poloto_tick_labels poloto_text" dominant-baseline="middle" text-anchor="end" x="135" y="252.54237288135596" >5.25</text><line  class="poloto_axis_lines" stroke="black" x1="150" x2="144" y1="241.94915254237287" y2="241.94915254237287" /><line  class="poloto_tick_line" stroke="black" x1="150" x2="650" y1="241.94915254237287" y2="241.94915254237287" /><text  class="poloto_tick_labels poloto_text" dominant-baseline="middle" text-anchor="end" x="135" y="241.94915254237287" >5.375</text><line  class="poloto_axis_lines" stroke="black" x1="150" x2="144" y1="231.35593220338984" y2="231.35593220338984" /><line  class="poloto_tick_line" stroke="black" x1="150" x2="650" y1="231.35593220338984" y2="231.35593220338984" /><text  class="poloto_tick_labels poloto_text" dominant-baseline="middle" text-anchor="end" x="135" y="231.35593220338984" >5.5</text><line  class="poloto_axis_lines" stroke="black" x1="150" x2="144" y1="220.7627118644068" y2="220.7627118644068" /><line  class="poloto_tick_line" stroke="black" x1="150" x2="650" y1="220.7627118644068" y2="220.7627118644068" /><text  class="poloto_tick_labels poloto_text" dominant-baseline="middle" text-anchor="end" x="135" y="220.7627118644068" >5.625</text><line  class="poloto_axis_lines" stroke="black" x1="150" x2="144" y1="210.16949152542372" y2="210.16949152542372" /><line  class="poloto_tick_line" stroke="black" x1="150" x2="650" y1="210.16949152542372" y2="210.16949152542372" /><text  class="poloto_tick_labels poloto_text" dominant-baseline="middle" text-anchor="end" x="135" y="210.16949152542372" >5.75</text><line  class="poloto_axis_lines" stroke="black" x1="150" x2="144" y1="199.5762711864407" y2="199.5762711864407" /><line  class="poloto_tick_line" stroke="black" x1="150" x2="650" y1="199.5762711864407" y2="199.5762711864407" /><text  class="poloto_tick_labels poloto_text" dominant-baseline="middle" text-anchor="end" x="135" y="199.5762711864407" >5.875</text><line  class="poloto_axis_lines" stroke="black" x1="150" x2="144" y1="188.98305084745766" y2="188.98305084745766" /><line  class="poloto_tick_line" stroke="black" x1="150" x2="650" y1="188.98305084745766" y2="188.98305084745766" /><text  class="poloto_tick_labels poloto_text" dominant-baseline="middle" text-anchor="end" x="135" y="188.98305084745766" >6</text><line  class="poloto_axis_lines" stroke="black" x1="150" x2="144" y1="178.38983050847457" y2="178.38983050847457" /><line  class="poloto_tick_line" stroke="black" x1="150" x2="650" y1="178.38983050847457" y2="178.38983050847457" /><text  class="poloto_tick_labels poloto_text" dominant-baseline="middle" text-anchor="end" x="135" y="178.38983050847457" >6.125</text><line  class="poloto_axis_lines" stroke="black" x1="150" x2="144" y1="167.7966101694915" y2="167.7966101694915" /><line  class="poloto_tick_line" stroke="black" x1="150" x2="650" y1="167.7966101694915" y2="167.7966101694915" /><text  class="poloto_tick_labels poloto_text" dominant-baseline="middle" text-anchor="end" x="135" y="167.7966101694915" >6.25</text><line  class="poloto_axis_lines" stroke="black" x1="150" x2="144" y1="157.2033898305085" y2="157.2033898305085" /><line  class="poloto_tick_line" stroke="black" x1="150" x2="650" y1="157.2033898305085" y2="157.2033898305085" /><text  class="poloto_tick_labels poloto_text" dominant-baseline="middle" text-anchor="end" x="135" y="157.2033898305085" >6.375</text><line  class="poloto_axis_lines" stroke="black" x1="150" x2="144" y1="146.61016949152543" y2="146.61016949152543" /><line  class="poloto_tick_line" stroke="black" x1="150" x2="650" y1="146.61016949152543" y2="146.61016949152543" /><text  class="poloto_tick_labels poloto_text" dominant-baseline="middle" text-anchor="end" x="135" y="146.61016949152543" >6.5</text><line  class="poloto_axis_lines" stroke="black" x1="150" x2="144" y1="136.01694915254234" y2="136.01694915254234" /><line  class="poloto_tick_line" stroke="black" x1="150" x2="650" y1="136.01694915254234" y2="136.01694915254234" /><text  class="poloto_tick_labels poloto_text" dominant-baseline="middle" text-anchor="end" x="135" y="136.01694915254234" >6.625</text><line  class="poloto_axis_lines" stroke="black" x1="150" x2="144" y1="125.42372881355936" y2="125.42372881355936" /><line  class="poloto_tick_line" stroke="black" x1="150" x2="650" y1="125.42372881355936" y2="125.42372881355936" /><text  class="poloto_tick_labels poloto_text" dominant-baseline="middle" text-anchor="end" x="135" y="125.42372881355936" >6.75</text><line  class="poloto_axis_lines" stroke="black" x1="150" x2="144" y1="114.83050847457628" y2="114.83050847457628" /><line  class="poloto_tick_line" stroke="black" x1="150" x2="650" y1="114.83050847457628" y2="114.83050847457628" /><text  class="poloto_tick_labels poloto_text" dominant-baseline="middle" text-anchor="end" x="135" y="114.83050847457628" >6.875</text><line  class="poloto_axis_lines" stroke="black" x1="150" x2="144" y1="104.23728813559319" y2="104.23728813559319" /><line  class="poloto_tick_line" stroke="black" x1="150" x2="650" y1="104.23728813559319" y2="104.23728813559319" /><text  class="poloto_tick_labels poloto_text" dominant-baseline="middle" text-anchor="end" x="135" y="104.23728813559319" >7</text><text  class="poloto_tick_labels poloto_text" dominant-baseline="middle" text-anchor="start" x="440.00000000000006" y="70" >¹2022-05-01 00:00:00 UTC in Months</text><line  class="poloto_axis_lines" stroke="black" x1="218.18181818181984" x2="218.18181818181984" y1="400" y2="405" /><line  class="poloto_tick_line" stroke="black" x1="218.18181818181984" x2="218.18181818181984" y1="400" y2="100" /><text  class="poloto_tick_labels poloto_text" dominant-baseline="start" text-anchor="middle" x="218.18181818181984" y="430" >2022 May¹</text><line  class="poloto_axis_lines" stroke="black" x1="310.6060606060637" x2="310.6060606060637" y1="400" y2="405" /><line  class="poloto_tick_line" stroke="black" x1="310.6060606060637" x2="310.6060606060637" y1="400" y2="100" /><text  class="poloto_tick_labels poloto_text" dominant-baseline="start" text-anchor="middle" x="310.6060606060637" y="430" >2022 Jul</text><line  class="poloto_axis_lines" stroke="black" x1="404.54545454545587" x2="404.54545454545587" y1="400" y2="405" /><line  class="poloto_tick_line" stroke="black" x1="404.54545454545587" x2="404.54545454545587" y1="400" y2="100" /><text  class="poloto_tick_labels poloto_text" dominant-baseline="start" text-anchor="middle" x="404.54545454545587" y="430" >2022 Sep</text><line  class="poloto_axis_lines" stroke="black" x1="496.9696969696997" x2="496.9696969696997" y1="400" y2="405" /><line  class="poloto_tick_line" stroke="black" x1="496.9696969696997" x2="496.9696969696997" y1="400" y2="100" /><text  class="poloto_tick_labels poloto_text" dominant-baseline="start" text-anchor="middle" x="496.9696969696997" y="430" >2022 Nov</text><line  class="poloto_axis_lines" stroke="black" x1="589.39393939394" x2="589.39393939394" y1="400" y2="405" /><line  class="poloto_tick_line" stroke="black" x1="589.39393939394" x2="589.39393939394" y1="400" y2="100" /><text  class="poloto_tick_labels poloto_text" dominant-baseline="start" text-anchor="middle" x="589.39393939394" y="430" >2023 Jan</text><path  stroke="black" fill="none" class="poloto_axis_lines" d=" M 150 400 L 650 400" /><path  stroke="black" fill="none" class="poloto_axis_lines" d=" M 150 400 L 150 100" /></svg>