<svg class="poloto" width="800" height="500" viewBox="0 0 800 500" xmlns="http://www.w3.org/2000/svg"><style>.poloto{stroke-linecap:round;stroke-linejoin:round;font-family:Roboto,sans-serif;font-size:16px;}.poloto_background{fill:#262626;}.poloto_scatter{stroke-width:7}.poloto_tick_line{stroke:dimgray;stroke-width:0.5}.poloto_line{stroke-width:2}.poloto_text{fill: white;}.poloto_axis_lines{stroke: white;stroke-width:3;fill:none;stroke-dasharray:none}.poloto_title{font-size:24px;dominant-baseline:start;text-anchor:middle;}.poloto_xname{font-size:24px;dominant-baseline:start;text-anchor:middle;}.poloto_yname{font-size:24px;dominant-baseline:start;text-anchor:middle;}.poloto0stroke{stroke:blue;}.poloto1stroke{stroke:red;}.poloto2stroke{stroke:green;}.poloto3stroke{stroke:gold;}.poloto4stroke{stroke:aqua;}.poloto5stroke{stroke:lime;}.poloto6stroke{stroke:orange;}.poloto7stroke{stroke:chocolate;}.poloto0fill{fill:blue;}.poloto1fill{fill:red;}.poloto2fill{fill:green;}.poloto3fill{fill:gold;}.poloto4fill{fill:aqua;}.poloto5fill{fill:lime;}.poloto6fill{fill:orange;}.poloto7fill{fill:chocolate;}</style><circle  r="1e5" class="poloto_background" /><text  class="poloto_text poloto_legend_text" x="675" y="100" >Refinance 15</text><line  class="poloto_line poloto_legend_icon poloto0stroke poloto0legend" stroke="black" x1="680" x2="730" y1="81.25" y2="81.25" /><path  class="poloto_line poloto0stroke" fill="none" stroke="black" d=" M 150.00 393.13 L 151.33 400.00 L 155.33 390.27 L 156.67 381.94 L 158.00 390.27 L 158.00 390.27 L 160.67 362.48 L 164.67 361.01 L 166.00 370.74 L 167.33 349.74 L 168.67 351.21 L 170.00 346.81 L 174.00 348.28 L 175.33 342.41 L 175.33 342.41 L 178.00 342.95 L 179.33 321.95 L 183.33 331.06 L 184.67 333.99 L 186.00 333.99 L 187.33 333.22 L 188.67 328.74 L 194.00 289.53 L 195.33 306.97 L 196.67 293.46 L 198.00 288.21 L 198.00 288.21 L 203.33 308.52 L 206.00 312.22 L 207.33 303.96 L 211.33 294.16 L 212.67 313.69 L 214.00 303.96 L 214.00 303.96 L 216.67 302.42 L 220.67 305.43 L 222.00 315.16 L 222.00 315.16 L 223.33 306.90 L 224.67 316.70 L 226.00 302.42 L 230.00 331.76 L 231.33 331.06 L 232.67 315.16 L 232.67 315.16 L 234.00 321.95 L 235.33 324.96 L 239.33 324.96 L 240.67 335.46 L 242.00 335.46 L 243.33 335.46 L 244.67 335.46 L 250.00 324.96 L 251.33 321.95 L 252.67 323.42 L 254.00 323.42 L 254.00 323.42 L 259.33 313.69 L 260.67 313.69 L 262.00 305.43 L 267.33 291.92 L 268.67 264.05 L 270.00 267.14 L 271.33 267.14 L 272.67 286.67 L 276.67 267.14 L 278.00 267.14 L 279.33 285.13 L 280.67 288.21 L 286.00 288.21 L 287.33 286.67 L 288.67 291.22 L 290.00 295.70 L 291.33 305.43 L 296.67 312.22 L 298.00 303.96 L 299.33 297.17 L 300.67 294.16 L 304.67 295.70 L 307.33 295.70 L 308.67 294.16 L 314.00 292.69 L 314.00 292.69 L 314.00 292.69 L 314.00 292.69 L 314.00 292.69 L 314.00 292.69 L 316.67 292.69 L 316.67 292.69 L 316.67 292.69 L 316.67 292.69 L 316.67 292.69 L 316.67 292.69 L 323.33 303.96 L 326.00 306.90 L 327.33 332.53 L 328.67 335.46 L 332.67 335.46 L 334.00 333.99 L 335.33 313.69 L 336.67 308.44 L 338.00 295.70 L 342.00 305.43 L 342.00 305.43 L 343.33 297.17 L 346.00 305.43 L 346.00 305.43 L 352.67 305.43 L 354.00 274.70 L 355.33 292.69 L 360.67 261.89 L 363.33 261.89 L 363.33 261.89 L 366.00 273.16 L 371.33 267.14 L 371.33 267.14 L 371.33 267.14 L 371.33 267.14 L 371.33 267.14 L 371.33 267.14 L 371.33 267.14 L 371.33 267.14 L 371.33 267.14 L 375.33 267.14 L 383.33 247.53 L 388.67 249.85 L 388.67 249.85 L 392.67 249.85 L 398.00 249.85 L 399.33 249.85 L 399.33 249.85 L 399.33 249.85 L 399.33 249.85 L 399.33 249.85 L 416.67 249.85 L 418.00 249.85 L 426.00 162.92 L 427.33 154.66 L 428.67 154.66 L 476.67 180.60 L 482.00 180.60 L 483.33 180.60 L 484.67 195.50 L 487.33 203.68 L 487.33 203.68 L 492.67 203.68 L 494.00 203.68 L 495.33 203.68 L 496.67 203.68 L 500.67 203.68 L 502.00 203.68 L 504.67 203.68 L 506.00 203.68 L 510.00 203.68 L 511.33 203.68 L 511.33 203.68 L 515.33 203.68 L 519.33 203.68 L 520.67 203.68 L 522.00 203.68 L 523.33 203.68 L 524.67 203.68 L 530.00 226.15 L 531.33 200.21 L 532.67 180.60 L 534.00 190.40 L 538.00 190.40 L 539.33 190.40 L 539.33 190.40 L 542.00 211.48 L 543.33 211.48 L 547.33 211.48 L 548.67 211.48 L 550.00 211.48 L 551.33 211.48 L 552.67 211.48 L 552.67 211.48 L 552.67 211.48 L 552.67 211.48 L 559.33 211.48 L 562.00 211.48 L 566.00 211.48 L 567.33 211.48 L 570.00 211.48 L 571.33 211.48 L 576.67 211.48 L 578.00 211.48 L 579.33 211.48 L 580.67 239.27 L 584.67 245.45 L 586.00 209.93 L 587.33 221.28 L 588.67 219.74 L 590.00 201.75 L 594.00 161.07 L 595.33 161.07 L 596.67 161.07 L 598.00 162.61 L 599.33 170.79 L 603.33 162.61 L 604.67 162.61 L 606.00 151.26 L 607.33 161.07 L 608.67 141.46 L 614.00 151.26 L 615.33 152.80 L 616.67 143.08 L 618.00 149.64 L 622.00 155.97 L 623.33 152.80 L 624.67 151.26 L 626.00 151.26 L 627.33 162.61 L 631.33 161.07 L 632.67 152.80 L 636.67 240.81 L 640.67 180.60 L 642.00 182.14 L 643.33 172.41 L 644.67 209.93 L 646.00 239.27 L 650.00 191.95" /><text  class="poloto_text poloto_legend_text" x="675" y="150" >Refinance 20</text><line  class="poloto_line poloto_legend_icon poloto1stroke poloto1legend" stroke="black" x1="680" x2="730" y1="131.25" y2="131.25" /><path  class="poloto_line poloto1stroke" fill="none" stroke="black" d=" M 150.00 350.51 L 151.33 371.13 L 155.33 340.40 L 156.67 330.98 L 158.00 339.63 L 158.00 339.63 L 160.67 312.61 L 164.67 310.29 L 166.00 320.10 L 167.33 309.14 L 168.67 318.94 L 170.00 300.57 L 174.00 328.67 L 175.33 300.57 L 175.33 300.57 L 178.00 300.57 L 178.00 300.57 L 183.33 263.51 L 184.67 293.15 L 186.00 300.57 L 187.33 310.29 L 188.67 291.22 L 194.00 272.47 L 195.33 270.07 L 196.67 265.29 L 198.00 254.32 L 202.00 259.11 L 203.33 279.88 L 206.00 272.47 L 207.33 270.07 L 211.33 262.27 L 212.67 271.31 L 214.00 271.31 L 214.00 271.31 L 216.67 271.31 L 220.67 272.47 L 222.00 292.00 L 222.00 292.00 L 223.33 281.03 L 224.67 299.41 L 226.00 292.00 L 230.00 293.15 L 231.33 292.00 L 232.67 292.00 L 232.67 292.00 L 234.00 293.15 L 235.33 299.41 L 239.33 300.57 L 240.67 304.04 L 242.00 304.04 L 243.33 304.04 L 244.67 304.04 L 250.00 299.41 L 251.33 289.60 L 252.67 292.00 L 254.00 292.00 L 254.00 292.00 L 259.33 279.88 L 260.67 282.19 L 262.00 273.62 L 267.33 232.24 L 268.67 215.11 L 270.00 224.91 L 271.33 232.24 L 272.67 252.93 L 276.67 240.74 L 278.00 234.64 L 279.33 254.17 L 280.67 263.51 L 286.00 263.51 L 287.33 252.93 L 288.67 262.74 L 290.00 272.47 L 291.33 283.43 L 296.67 290.76 L 298.00 281.03 L 299.33 271.31 L 300.67 264.67 L 304.67 270.07 L 307.33 272.47 L 308.67 271.31 L 314.00 272.47 L 314.00 272.47 L 314.00 272.47 L 314.00 272.47 L 314.00 272.47 L 314.00 272.47 L 314.00 272.47 L 314.00 272.47 L 314.00 272.47 L 314.00 272.47 L 314.00 272.47 L 314.00 272.47 L 323.33 290.76 L 326.00 293.15 L 327.33 310.29 L 328.67 312.61 L 332.67 310.06 L 334.00 310.06 L 335.33 300.57 L 336.67 304.04 L 338.00 289.60 L 342.00 282.19 L 342.00 282.19 L 343.33 282.19 L 346.00 292.00 L 346.00 292.00 L 352.67 289.60 L 354.00 272.47 L 355.33 272.47 L 360.67 259.88 L 363.33 249.31 L 363.33 249.31 L 366.00 261.12 L 371.33 232.24 L 371.33 232.24 L 371.33 232.24 L 371.33 232.24 L 371.33 232.24 L 371.33 232.24 L 371.33 232.24 L 371.33 232.24 L 371.33 232.24 L 375.33 232.24 L 383.33 219.97 L 388.67 221.20 L 391.33 221.20 L 392.67 221.20 L 392.67 221.20 L 399.33 221.20 L 400.67 221.20 L 400.67 221.20 L 400.67 221.20 L 400.67 221.20 L 416.67 221.20 L 418.00 221.20 L 426.00 143.85 L 427.33 129.41 L 427.33 129.41 L 479.33 177.12 L 482.00 177.12 L 483.33 177.12 L 486.00 194.26 L 487.33 195.50 L 487.33 195.50 L 492.67 195.50 L 494.00 195.50 L 495.33 195.50 L 496.67 195.50 L 500.67 195.50 L 502.00 195.50 L 504.67 195.50 L 506.00 195.50 L 510.00 195.50 L 511.33 195.50 L 511.33 195.50 L 515.33 195.50 L 519.33 195.50 L 520.67 195.50 L 522.00 195.50 L 523.33 195.50 L 524.67 195.50 L 530.00 178.05 L 531.33 168.55 L 532.67 167.32 L 534.00 169.87 L 538.00 169.87 L 539.33 169.87 L 539.33 169.87 L 542.00 188.16 L 543.33 188.16 L 547.33 188.16 L 548.67 188.16 L 550.00 188.16 L 551.33 188.16 L 552.67 188.16 L 552.67 188.16 L 558.00 188.16 L 558.00 188.16 L 559.33 188.16 L 562.00 188.16 L 566.00 188.16 L 567.33 188.16 L 570.00 188.16 L 571.33 188.16 L 576.67 188.16 L 578.00 188.16 L 579.33 188.16 L 580.67 209.01 L 584.67 207.77 L 586.00 178.36 L 587.33 179.59 L 587.33 179.59 L 590.00 178.36 L 594.00 158.75 L 595.33 158.75 L 596.67 150.26 L 598.00 140.45 L 599.33 149.02 L 603.33 140.45 L 604.67 130.65 L 606.00 140.45 L 607.33 150.26 L 608.67 139.22 L 614.00 140.45 L 615.33 129.41 L 616.67 100.00 L 618.00 129.41 L 622.00 150.26 L 623.33 169.17 L 624.67 140.45 L 626.00 139.22 L 627.33 167.32 L 631.33 160.06 L 632.67 150.26 L 636.67 210.24 L 640.67 168.55 L 642.00 158.75 L 643.33 160.06 L 644.67 188.16 L 646.00 189.40 L 650.00 169.87" /><text  class="poloto_text poloto_legend_text" x="675" y="200" >Refinance 30</text><line  class="poloto_line poloto_legend_icon poloto2stroke poloto2legend" stroke="black" x1="680" x2="730" y1="181.25" y2="181.25" /><path  class="poloto_line poloto2stroke" fill="none" stroke="black" d=" M 150.00 348.35 L 151.33 355.69 L 155.33 344.26 L 156.67 335.31 L 158.00 337.00 L 158.00 337.00 L 160.67 318.24 L 164.67 316.62 L 166.00 326.35 L 167.33 315.77 L 168.67 325.50 L 170.00 306.82 L 174.00 315.77 L 175.33 297.01 L 176.67 297.01 L 178.00 296.17 L 179.33 272.47 L 183.33 276.63 L 184.67 287.29 L 186.00 297.01 L 187.33 288.14 L 188.67 277.48 L 194.00 269.38 L 195.33 256.18 L 196.67 254.40 L 198.00 252.55 L 202.00 256.18 L 203.33 271.31 L 206.00 269.38 L 207.33 267.60 L 211.33 257.95 L 212.67 268.45 L 214.00 257.95 L 214.00 257.95 L 216.67 257.95 L 220.67 259.73 L 222.00 276.63 L 222.00 276.63 L 223.33 268.45 L 224.67 269.38 L 226.00 270.23 L 230.00 277.48 L 231.33 269.38 L 232.67 269.38 L 232.67 269.38 L 234.00 278.33 L 235.33 279.26 L 239.33 280.11 L 240.67 288.14 L 242.00 288.14 L 243.33 289.84 L 244.67 289.84 L 250.00 286.36 L 251.33 276.63 L 252.67 278.33 L 254.00 277.48 L 254.00 277.48 L 259.33 268.45 L 260.67 268.45 L 262.00 258.80 L 267.33 219.74 L 268.67 192.10 L 270.00 209.01 L 271.33 219.74 L 272.67 229.46 L 276.67 220.59 L 278.00 219.74 L 279.33 237.49 L 280.67 239.27 L 286.00 239.27 L 287.33 228.62 L 288.67 237.49 L 290.00 247.22 L 291.33 268.45 L 296.67 269.38 L 298.00 258.80 L 299.33 240.20 L 300.67 237.49 L 304.67 255.25 L 307.33 239.27 L 308.67 238.34 L 314.00 256.18 L 314.00 256.18 L 314.00 256.18 L 314.00 256.18 L 314.00 256.18 L 314.00 256.18 L 316.67 256.18 L 316.67 256.18 L 316.67 256.18 L 316.67 256.18 L 316.67 256.18 L 316.67 256.18 L 323.33 267.60 L 326.00 269.38 L 327.33 286.36 L 328.67 297.86 L 332.67 297.01 L 334.00 297.01 L 335.33 277.48 L 336.67 280.11 L 338.00 267.60 L 342.00 277.48 L 342.00 277.48 L 343.33 270.23 L 346.00 278.33 L 346.00 278.33 L 352.67 276.63 L 354.00 259.73 L 355.33 258.80 L 360.67 236.57 L 363.33 228.62 L 363.33 228.62 L 366.00 238.34 L 371.33 227.69 L 371.33 227.69 L 371.33 227.69 L 371.33 227.69 L 371.33 227.69 L 371.33 227.69 L 371.33 227.69 L 371.33 227.69 L 375.33 227.69 L 375.33 226.76 L 383.33 215.11 L 388.67 195.50 L 388.67 195.50 L 392.67 195.50 L 392.67 195.50 L 399.33 195.50 L 400.67 195.50 L 400.67 195.50 L 400.67 195.50 L 400.67 195.50 L 416.67 195.50 L 418.00 195.50 L 426.00 151.34 L 427.33 126.71 L 427.33 126.71 L 479.33 169.02 L 482.00 169.02 L 483.33 169.02 L 484.67 172.95 L 487.33 181.91 L 487.33 181.91 L 492.67 181.91 L 494.00 181.91 L 495.33 181.91 L 496.67 181.91 L 500.67 181.91 L 502.00 181.91 L 504.67 181.91 L 506.00 181.91 L 510.00 181.91 L 511.33 181.91 L 511.33 181.91 L 515.33 181.91 L 519.33 181.91 L 520.67 181.91 L 522.00 181.91 L 523.33 181.91 L 524.67 181.91 L 530.00 167.01 L 531.33 174.88 L 532.67 156.20 L 534.00 174.88 L 538.00 174.88 L 539.33 174.88 L 539.33 174.88 L 542.00 174.88 L 543.33 174.88 L 547.33 174.88 L 548.67 174.88 L 550.00 174.88 L 551.33 174.88 L 552.67 174.88 L 552.67 174.88 L 558.00 174.88 L 558.00 174.88 L 559.33 174.88 L 562.00 174.88 L 566.00 174.88 L 567.33 174.88 L 570.00 174.88 L 571.33 174.88 L 576.67 174.88 L 578.00 174.88 L 579.33 174.88 L 580.67 224.91 L 584.67 215.11 L 586.00 175.89 L 587.33 205.30 L 588.67 175.89 L 590.00 166.01 L 594.00 156.20 L 595.33 156.20 L 596.67 147.32 L 598.00 137.52 L 599.33 146.40 L 603.33 146.40 L 604.67 135.59 L 606.00 127.71 L 607.33 137.52 L 608.67 128.72 L 614.00 127.71 L 615.33 116.91 L 616.67 116.91 L 618.00 126.71 L 622.00 127.71 L 623.33 117.91 L 624.67 125.78 L 626.00 117.91 L 627.33 147.32 L 631.33 147.32 L 632.67 127.71 L 636.67 206.23 L 640.67 147.32 L 642.00 146.40 L 643.33 146.40 L 644.67 176.81 L 646.00 176.81 L 650.00 157.21" /><text  class="poloto_labels poloto_text poloto_title" x="400" y="37.5" >lower.com purchase rates</text><text  class="poloto_labels poloto_text poloto_xname" x="400" y="481.25" >Date</text><text  class="poloto_labels poloto_text poloto_yname" transform="rotate(-90,37.5,250)" x="37.5" y="250" >Rate (%)</text><text  class="poloto_tick_labels poloto_text" dominant-baseline="middle" text-anchor="start" x="150" y="70" ></text><line  class="poloto_axis_lines" stroke="black" x1="150" x2="144" y1="391.12197632527017" y2="391.12197632527017" /><line  class="poloto_tick_line" stroke="black" x1="150" x2="650" y1="391.12197632527017" y2="391.12197632527017" /><text  class="poloto_tick_labels poloto_text" dominant-baseline="middle" text-anchor="end" x="135" y="391.12197632527017" >3.625</text><line  class="poloto_axis_lines" stroke="black" x1="150" x2="144" y1="381.4719505918682" y2="381.4719505918682" /><line  class="poloto_tick_line" stroke="black" x1="150" x2="650" y1="381.4719505918682" y2="381.4719505918682" /><text  class="poloto_tick_labels poloto_text" dominant-baseline="middle" text-anchor="end" x="135" y="381.4719505918682" >3.75</text><line  class="poloto_axis_lines" stroke="black" x1="150" x2="144" y1="371.8219248584663" y2="371.8219248584663" /><line  class="poloto_tick_line" stroke="black" x1="150" x2="650" y1="371.8219248584663" y2="371.8219248584663" /><text  class="poloto_tick_labels poloto_text" dominant-baseline="middle" text-anchor="end" x="135" y="371.8219248584663" >3.875</text><line  class="poloto_axis_lines" stroke="black" x1="150" x2="144" y1="362.17189912506433" y2="362.17189912506433" /><line  class="poloto_tick_line" stroke="black" x1="150" x2="650" y1="362.17189912506433" y2="362.17189912506433" /><text  class="poloto_tick_labels poloto_text" dominant-baseline="middle" text-anchor="end" x="135" y="362.17189912506433" >4</text><line  class="poloto_axis_lines" stroke="black" x1="150" x2="144" y1="352.5218733916624" y2="352.5218733916624" /><line  class="poloto_tick_line" stroke="black" x1="150" x2="650" y1="352.5218733916624" y2="352.5218733916624" /><text  class="poloto_tick_labels poloto_text" dominant-baseline="middle" text-anchor="end" x="135" y="352.5218733916624" >4.125</text><line  class="poloto_axis_lines" stroke="black" x1="150" x2="144" y1="342.87184765826044" y2="342.87184765826044" /><line  class="poloto_tick_line" stroke="black" x1="150" x2="650" y1="342.87184765826044" y2="342.87184765826044" /><text  class="poloto_tick_labels poloto_text" dominant-baseline="middle" text-anchor="end" x="135" y="342.87184765826044" >4.25</text><line  class="poloto_axis_lines" stroke="black" x1="150" x2="144" y1="333.2218219248585" y2="333.2218219248585" /><line  class="poloto_tick_line" stroke="black" x1="150" x2="650" y1="333.2218219248585" y2="333.2218219248585" /><text  class="poloto_tick_labels poloto_text" dominant-baseline="middle" text-anchor="end" x="135" y="333.2218219248585" >4.375</text><line  class="poloto_axis_lines" stroke="black" x1="150" x2="144" y1="323.5717961914565" y2="323.5717961914565" /><line  class="poloto_tick_line" stroke="black" x1="150" x2="650" y1="323.5717961914565" y2="323.5717961914565" /><text  class="poloto_tick_labels poloto_text" dominant-baseline="middle" text-anchor="end" x="135" y="323.5717961914565" >4.5</text><line  class="poloto_axis_lines" stroke="black" x1="150" x2="144" y1="313.92177045805454" y2="313.92177045805454" /><line  class="poloto_tick_line" stroke="black" x1="150" x2="650" y1="313.92177045805454" y2="313.92177045805454" /><text  class="poloto_tick_labels poloto_text" dominant-baseline="middle" text-anchor="end" x="135" y="313.92177045805454" >4.625</text><line  class="poloto_axis_lines" stroke="black" x1="150" x2="144" y1="304.2717447246526" y2="304.2717447246526" /><line  class="poloto_tick_line" stroke="black" x1="150" x2="650" y1="304.2717447246526" y2="304.2717447246526" /><text  class="poloto_tick_labels poloto_text" dominant-baseline="middle" text-anchor="end" x="135" y="304.2717447246526" >4.75</text><line  class="poloto_axis_lines" stroke="black" x1="150" x2="144" y1="294.62171899125065" y2="294.62171899125065" /><line  class="poloto_tick_line" stroke="black" x1="150" x2="650" y1="294.62171899125065" y2="294.62171899125065" /><text  class="poloto_tick_labels poloto_text" dominant-baseline="middle" text-anchor="end" x="135" y="294.62171899125065" >4.875</text><line  class="poloto_axis_lines" stroke="black" x1="150" x2="144" y1="284.9716932578487" y2="284.9716932578487" /><line  class="poloto_tick_line" stroke="black" x1="150" x2="650" y1="284.9716932578487" y2="284.9716932578487" /><text  class="poloto_tick_labels poloto_text" dominant-baseline="middle" text-anchor="end" x="135" y="284.9716932578487" >5</text><line  class="poloto_axis_lines" stroke="black" x1="150" x2="144" y1="275.32166752444675" y2="275.32166752444675" /><line  class="poloto_tick_line" stroke="black" x1="150" x2="650" y1="275.32166752444675" y2="275.32166752444675" /><text  class="poloto_tick_labels poloto_text" dominant-baseline="middle" text-anchor="end" x="135" y="275.32166752444675" >5.125</text><line  class="poloto_axis_lines" stroke="black" x1="150" x2="144" y1="265.67164179104475" y2="265.67164179104475" /><line  class="poloto_tick_line" stroke="black" x1="150" x2="650" y1="265.67164179104475" y2="265.67164179104475" /><text  class="poloto_tick_labels poloto_text" dominant-baseline="middle" text-anchor="end" x="135" y="265.67164179104475" >5.25</text><line  class="poloto_axis_lines" stroke="black" x1="150" x2="144" y1="256.0216160576428" y2="256.0216160576428" /><line  class="poloto_tick_line" stroke="black" x1="150" x2="650" y1="256.0216160576428" y2="256.0216160576428" /><text  class="poloto_tick_labels poloto_text" dominant-baseline="middle" text-anchor="end" x="135" y="256.0216160576428" >5.375</text><line  class="poloto_axis_lines" stroke="black" x1="150" x2="144" y1="246.37159032424086" y2="246.37159032424086" /><line  class="poloto_tick_line" stroke="black" x1="150" x2="650" y1="246.37159032424086" y2="246.37159032424086" /><text  class="poloto_tick_labels poloto_text" dominant-baseline="middle" text-anchor="end" x="135" y="246.37159032424086" >5.5</text><line  class="poloto_axis_lines" stroke="black" x1="150" x2="144" y1="236.7215645908389" y2="236.7215645908389" /><line  class="poloto_tick_line" stroke="black" x1="150" x2="650" y1="236.7215645908389" y2="236.7215645908389" /><text  class="poloto_tick_labels poloto_text" dominant-baseline="middle" text-anchor="end" x="135" y="236.7215645908389" >5.625</text><line  class="poloto_axis_lines" stroke="black" x1="150" x2="144" y1="227.07153885743696" y2="227.07153885743696" /><line  class="poloto_tick_line" stroke="black" x1="150" x2="650" y1="227.07153885743696" y2="227.07153885743696" /><text  class="poloto_tick_labels poloto_text" dominant-baseline="middle" text-anchor="end" x="135" y="227.07153885743696" >5.75</text><line  class="poloto_axis_lines" stroke="black" x1="150" x2="144" y1="217.42151312403502" y2="217.42151312403502" /><line  class="poloto_tick_line" stroke="black" x1="150" x2="650" y1="217.42151312403502" y2="217.42151312403502" /><text  class="poloto_tick_labels poloto_text" dominant-baseline="middle" text-anchor="end" x="135" y="217.42151312403502" >5.875</text><line  class="poloto_axis_lines" stroke="black" x1="150" x2="144" y1="207.771487390633" y2="207.771487390633" /><line  class="poloto_tick_line" stroke="black" x1="150" x2="650" y1="207.771487390633" y2="207.771487390633" /><text  class="poloto_tick_labels poloto_text" dominant-baseline="middle" text-anchor="end" x="135" y="207.771487390633" >6</text><line  class="poloto_axis_lines" stroke="black" x1="150" x2="144" y1="198.12146165723107" y2="198.12146165723107" /><line  class="poloto_tick_line" stroke="black" x1="150" x2="650" y1="198.12146165723107" y2="198.12146165723107" /><text  class="poloto_tick_labels poloto_text" dominant-baseline="middle" text-anchor="end" x="135" y="198.12146165723107" >6.125</text><line  class="poloto_axis_lines" stroke="black" x1="150" x2="144" y1="188.47143592382912" y2="188.47143592382912" /><line  class="poloto_tick_line" stroke="black" x1="150" x2="650" y1="188.47143592382912" y2="188.47143592382912" /><text  class="poloto_tick_labels poloto_text" dominant-baseline="middle" text-anchor="end" x="135" y="188.47143592382912" >6.25</text><line  class="poloto_axis_lines" stroke="black" x1="150" x2="144" y1="178.82141019042717" y2="178.82141019042717" /><line  class="poloto_tick_line" stroke="black" x1="150" x2="650" y1="178.82141019042717" y2="178.82141019042717" /><text  class="poloto_tick_labels poloto_text" dominant-baseline="middle" text-anchor="end" x="135" y="178.82141019042717" >6.375</text><line  class="poloto_axis_lines" stroke="black" x1="150" x2="144" y1="169.17138445702523" y2="169.17138445702523" /><line  class="poloto_tick_line" stroke="black" x1="150" x2="650" y1="169.17138445702523" y2="169.17138445702523" /><text  class="poloto_tick_labels poloto_text" dominant-baseline="middle" text-anchor="end" x="135" y="169.17138445702523" >6.5</text><line  class="poloto_axis_lines" stroke="black" x1="150" x2="144" y1="159.52135872362328" y2="159.52135872362328" /><line  class="poloto_tick_line" stroke="black" x1="150" x2="650" y1="159.52135872362328" y2="159.52135872362328" /><text  class="poloto_tick_labels poloto_text" dominant-baseline="middle" text-anchor="end" x="135" y="159.52135872362328" >6.625</text><line  class="poloto_axis_lines" stroke="black" x1="150" x2="144" y1="149.87133299022133" y2="149.87133299022133" /><line  class="poloto_tick_line" stroke="black" x1="150" x2="650" y1="149.87133299022133" y2="149.87133299022133" /><text  class="poloto_tick_labels poloto_text" dominant-baseline="middle" text-anchor="end" x="135" y="149.87133299022133" >6.75</text><line  class="poloto_axis_lines" stroke="black" x1="150" x2="144" y1="140.22130725681933" y2="140.22130725681933" /><line  class="poloto_tick_line" stroke="black" x1="150" x2="650" y1="140.22130725681933" y2="140.22130725681933" /><text  class="poloto_tick_labels poloto_text" dominant-baseline="middle" text-anchor="end" x="135" y="140.22130725681933" >6.875</text><line  class="poloto_axis_lines" stroke="black" x1="150" x2="144" y1="130.57128152341744" y2="130.57128152341744" /><line  class="poloto_tick_line" stroke="black" x1="150" x2="650" y1="130.57128152341744" y2="130.57128152341744" /><text  class="poloto_tick_labels poloto_text" dominant-baseline="middle" text-anchor="end" x="135" y="130.57128152341744" >7</text><line  class="poloto_axis_lines" stroke="black" x1="150" x2="144" y1="120.92125579001544" y2="120.92125579001544" /><line  class="poloto_tick_line" stroke="black" x1="150" x2="650" y1="120.92125579001544" y2="120.92125579001544" /><text  class="poloto_tick_labels poloto_text" dominant-baseline="middle" text-anchor="end" x="135" y="120.92125579001544" >7.125</text><line  class="poloto_axis_lines" stroke="black" x1="150" x2="144" y1="111.27123005661343" y2="111.27123005661343" /><line  class="poloto_tick_line" stroke="black" x1="150" x2="650" y1="111.27123005661343" y2="111.27123005661343" /><text  class="poloto_tick_labels poloto_text" dominant-baseline="middle" text-anchor="end" x="135" y="111.27123005661343" >7.25</text><line  class="poloto_axis_lines" stroke="black" x1="150" x2="144" y1="101.62120432321154" y2="101.62120432321154" /><line  class="poloto_tick_line" stroke="black" x1="150" x2="650" y1="101.62120432321154" y2="101.62120432321154" /><text  class="poloto_tick_labels poloto_text" dominant-baseline="middle" text-anchor="end" x="135" y="101.62120432321154" >7.375</text><text  class="poloto_tick_labels poloto_text" dominant-baseline="middle" text-anchor="start" x="440.00000000000006" y="70" >¹2022-05-01 00:00:00 UTC in Months</text><line  class="poloto_axis_lines" stroke="black" x1="210" x2="210" y1="400" y2="405" /><line  class="poloto_tick_line" stroke="black" x1="210" x2="210" y1="400" y2="100.00000000000006" /><text  class="poloto_tick_labels poloto_text" dominant-baseline="start" text-anchor="middle" x="210" y="430" >2022 May¹</text><line  class="poloto_axis_lines" stroke="black" x1="291.3333333333321" x2="291.3333333333321" y1="400" y2="405" /><line  class="poloto_tick_line" stroke="black" x1="291.3333333333321" x2="291.3333333333321" y1="400" y2="100.00000000000006" /><text  class="poloto_tick_labels poloto_text" dominant-baseline="start" text-anchor="middle" x="291.3333333333321" y="430" >2022 Jul</text><line  class="poloto_axis_lines" stroke="black" x1="374" x2="374" y1="400" y2="405" /><line  class="poloto_tick_line" stroke="black" x1="374" x2="374" y1="400" y2="100.00000000000006" /><text  class="poloto_tick_labels poloto_text" dominant-baseline="start" text-anchor="middle" x="374" y="430" >2022 Sep</text><line  class="poloto_axis_lines" stroke="black" x1="455.3333333333321" x2="455.3333333333321" y1="400" y2="405" /><line  class="poloto_tick_line" stroke="black" x1="455.3333333333321" x2="455.3333333333321" y1="400" y2="100.00000000000006" /><text  class="poloto_tick_labels poloto_text" dominant-baseline="start" text-anchor="middle" x="455.3333333333321" y="430" >2022 Nov</text><line  class="poloto_axis_lines" stroke="black" x1="536.6666666666679" x2="536.6666666666679" y1="400" y2="405" /><line  class="poloto_tick_line" stroke="black" x1="536.6666666666679" x2="536.6666666666679" y1="400" y2="100.00000000000006" /><text  class="poloto_tick_labels poloto_text" dominant-baseline="start" text-anchor="middle" x="536.6666666666679" y="430" >2023 Jan</text><line  class="poloto_axis_lines" stroke="black" x1="615.3333333333358" x2="615.3333333333358" y1="400" y2="405" /><line  class="poloto_tick_line" stroke="black" x1="615.3333333333358" x2="615.3333333333358" y1="400" y2="100.00000000000006" /><text  class="poloto_tick_labels poloto_text" dominant-baseline="start" text-anchor="middle" x="615.3333333333358" y="430" >2023 Mar</text><path  stroke="black" fill="none" class="poloto_axis_lines" d=" M 150 400 L 650 400" /><path  stroke="black" fill="none" class="poloto_axis_lines" d=" M 150 400 L 150 100.00000000000006" /></svg>