<svg class="poloto" width="800" height="500" viewBox="0 0 800 500" xmlns="http://www.w3.org/2000/svg"><style>.poloto{stroke-linecap:round;stroke-linejoin:round;font-family:Roboto,sans-serif;font-size:16px;}.poloto_background{fill:#262626;}.poloto_scatter{stroke-width:7}.poloto_tick_line{stroke:dimgray;stroke-width:0.5}.poloto_line{stroke-width:2}.poloto_text{fill: white;}.poloto_axis_lines{stroke: white;stroke-width:3;fill:none;stroke-dasharray:none}.poloto_title{font-size:24px;dominant-baseline:start;text-anchor:middle;}.poloto_xname{font-size:24px;dominant-baseline:start;text-anchor:middle;}.poloto_yname{font-size:24px;dominant-baseline:start;text-anchor:middle;}.poloto0stroke{stroke:blue;}.poloto1stroke{stroke:red;}.poloto2stroke{stroke:green;}.poloto3stroke{stroke:gold;}.poloto4stroke{stroke:aqua;}.poloto5stroke{stroke:lime;}.poloto6stroke{stroke:orange;}.poloto7stroke{stroke:chocolate;}.poloto0fill{fill:blue;}.poloto1fill{fill:red;}.poloto2fill{fill:green;}.poloto3fill{fill:gold;}.poloto4fill{fill:aqua;}.poloto5fill{fill:lime;}.poloto6fill{fill:orange;}.poloto7fill{fill:chocolate;}</style><circle  r="1e5" class="poloto_background" /><text  class="poloto_text poloto_legend_text" x="675" y="100" >Refinance 15</text><line  class="poloto_line poloto_legend_icon poloto0stroke poloto0legend" stroke="black" x1="680" x2="730" y1="81.25" y2="81.25" /><path  class="poloto_line poloto0stroke" fill="none" stroke="black" d=" M 150.00 390.09 L 152.79 400.00 L 161.17 385.96 L 163.97 373.93 L 166.76 385.96 L 166.76 385.96 L 172.35 345.86 L 180.73 343.74 L 183.52 357.78 L 186.31 327.48 L 189.11 329.60 L 191.90 323.25 L 200.28 325.36 L 203.07 316.90 L 203.07 316.90 L 208.66 317.68 L 211.45 287.37 L 219.83 300.52 L 222.63 304.75 L 225.42 304.75 L 228.21 303.64 L 231.01 297.18 L 242.18 240.59 L 244.97 265.76 L 247.77 246.27 L 250.56 238.69 L 250.56 238.69 L 261.73 267.99 L 267.32 273.34 L 270.11 261.42 L 278.49 247.27 L 281.28 275.45 L 284.08 261.42 L 284.08 261.42 L 289.66 259.19 L 298.04 263.54 L 300.84 277.57 L 300.84 277.57 L 303.63 265.65 L 306.42 279.80 L 309.22 259.19 L 317.60 301.52 L 320.39 300.52 L 323.18 277.57 L 323.18 277.57 L 325.98 287.37 L 328.77 291.72 L 337.15 291.72 L 339.94 306.87 L 342.74 306.87 L 345.53 306.87 L 348.32 306.87 L 359.50 291.72 L 362.29 287.37 L 365.08 289.49 L 367.88 289.49 L 367.88 289.49 L 379.05 275.45 L 381.84 275.45 L 384.64 263.54 L 395.81 244.04 L 398.60 203.82 L 401.40 208.28 L 404.19 208.28 L 406.98 236.46 L 415.36 208.28 L 418.16 208.28 L 420.95 234.24 L 423.74 238.69 L 434.92 238.69 L 437.71 236.46 L 440.50 243.04 L 443.30 249.50 L 446.09 263.54 L 457.26 273.34 L 460.06 261.42 L 462.85 251.62 L 465.64 247.27 L 474.02 249.50 L 479.61 249.50 L 482.40 247.27 L 493.58 245.15 L 493.58 245.15 L 493.58 245.15 L 493.58 245.15 L 493.58 245.15 L 493.58 245.15 L 499.16 245.15 L 499.16 245.15 L 499.16 245.15 L 499.16 245.15 L 499.16 245.15 L 499.16 245.15 L 513.13 261.42 L 518.72 265.65 L 521.51 302.64 L 524.30 306.87 L 532.68 306.87 L 535.47 304.75 L 538.27 275.45 L 541.06 267.88 L 543.85 249.50 L 552.23 263.54 L 552.23 263.54 L 555.03 251.62 L 560.61 263.54 L 560.61 263.54 L 574.58 263.54 L 577.37 219.20 L 580.17 245.15 L 591.34 200.71 L 596.93 200.71 L 596.93 200.71 L 602.51 216.97 L 613.69 208.28 L 613.69 208.28 L 613.69 208.28 L 613.69 208.28 L 613.69 208.28 L 613.69 208.28 L 613.69 208.28 L 613.69 208.28 L 613.69 208.28 L 622.07 208.28 L 638.83 179.99 L 650.00 183.33" /><text  class="poloto_text poloto_legend_text" x="675" y="150" >Refinance 20</text><line  class="poloto_line poloto_legend_icon poloto1stroke poloto1legend" stroke="black" x1="680" x2="730" y1="131.25" y2="131.25" /><path  class="poloto_line poloto1stroke" fill="none" stroke="black" d=" M 150.00 328.59 L 152.79 358.34 L 161.17 314.00 L 163.97 300.41 L 166.76 312.89 L 166.76 312.89 L 172.35 273.90 L 180.73 270.55 L 183.52 284.70 L 186.31 268.88 L 189.11 283.03 L 191.90 256.52 L 200.28 297.07 L 203.07 256.52 L 203.07 256.52 L 208.66 256.52 L 208.66 256.52 L 219.83 203.04 L 222.63 245.82 L 225.42 256.52 L 228.21 270.55 L 231.01 243.04 L 242.18 215.97 L 244.97 212.51 L 247.77 205.61 L 250.56 189.79 L 258.94 196.70 L 261.73 226.66 L 267.32 215.97 L 270.11 212.51 L 278.49 201.26 L 281.28 214.30 L 284.08 214.30 L 284.08 214.30 L 289.66 214.30 L 298.04 215.97 L 300.84 244.15 L 300.84 244.15 L 303.63 228.33 L 306.42 254.85 L 309.22 244.15 L 317.60 245.82 L 320.39 244.15 L 323.18 244.15 L 323.18 244.15 L 325.98 245.82 L 328.77 254.85 L 337.15 256.52 L 339.94 261.53 L 342.74 261.53 L 345.53 261.53 L 348.32 261.53 L 359.50 254.85 L 362.29 240.70 L 365.08 244.15 L 367.88 244.15 L 367.88 244.15 L 379.05 226.66 L 381.84 230.00 L 384.64 217.64 L 395.81 157.93 L 398.60 133.20 L 401.40 147.34 L 404.19 157.93 L 406.98 187.78 L 415.36 170.18 L 418.16 161.38 L 420.95 189.57 L 423.74 203.04 L 434.92 203.04 L 437.71 187.78 L 440.50 201.93 L 443.30 215.97 L 446.09 231.79 L 457.26 242.37 L 460.06 228.33 L 462.85 214.30 L 465.64 204.72 L 474.02 212.51 L 479.61 215.97 L 482.40 214.30 L 493.58 215.97 L 493.58 215.97 L 493.58 215.97 L 493.58 215.97 L 493.58 215.97 L 493.58 215.97 L 493.58 215.97 L 493.58 215.97 L 493.58 215.97 L 493.58 215.97 L 493.58 215.97 L 493.58 215.97 L 513.13 242.37 L 518.72 245.82 L 521.51 270.55 L 524.30 273.90 L 532.68 270.22 L 535.47 270.22 L 538.27 256.52 L 541.06 261.53 L 543.85 240.70 L 552.23 230.00 L 552.23 230.00 L 555.03 230.00 L 560.61 244.15 L 560.61 244.15 L 574.58 240.70 L 577.37 215.97 L 580.17 215.97 L 591.34 197.81 L 596.93 182.55 L 596.93 182.55 L 602.51 199.59 L 613.69 157.93 L 613.69 157.93 L 613.69 157.93 L 613.69 157.93 L 613.69 157.93 L 613.69 157.93 L 613.69 157.93 L 613.69 157.93 L 613.69 157.93 L 622.07 157.93 L 638.83 140.22 L 650.00 142.00" /><text  class="poloto_text poloto_legend_text" x="675" y="200" >Refinance 30</text><line  class="poloto_line poloto_legend_icon poloto2stroke poloto2legend" stroke="black" x1="680" x2="730" y1="181.25" y2="181.25" /><path  class="poloto_line poloto2stroke" fill="none" stroke="black" d=" M 150.00 325.47 L 152.79 336.06 L 161.17 319.57 L 163.97 306.65 L 166.76 309.10 L 166.76 309.10 L 172.35 282.03 L 180.73 279.69 L 183.52 293.72 L 186.31 278.46 L 189.11 292.50 L 191.90 265.54 L 200.28 278.46 L 203.07 251.39 L 205.87 251.39 L 208.66 250.17 L 211.45 215.97 L 219.83 221.98 L 222.63 237.36 L 225.42 251.39 L 228.21 238.58 L 231.01 223.21 L 242.18 211.51 L 244.97 192.46 L 247.77 189.90 L 250.56 187.23 L 258.94 192.46 L 261.73 214.30 L 267.32 211.51 L 270.11 208.95 L 278.49 195.02 L 281.28 210.17 L 284.08 195.02 L 284.08 195.02 L 289.66 195.02 L 298.04 197.59 L 300.84 221.98 L 300.84 221.98 L 303.63 210.17 L 306.42 211.51 L 309.22 212.74 L 317.60 223.21 L 320.39 211.51 L 323.18 211.51 L 323.18 211.51 L 325.98 224.43 L 328.77 225.77 L 337.15 227.00 L 339.94 238.58 L 342.74 238.58 L 345.53 241.03 L 348.32 241.03 L 359.50 236.02 L 362.29 221.98 L 365.08 224.43 L 367.88 223.21 L 367.88 223.21 L 379.05 210.17 L 381.84 210.17 L 384.64 196.25 L 395.81 139.88 L 398.60 100.00 L 401.40 124.40 L 404.19 139.88 L 406.98 153.92 L 415.36 141.11 L 418.16 139.88 L 420.95 165.50 L 423.74 168.07 L 434.92 168.07 L 437.71 152.69 L 440.50 165.50 L 443.30 179.54 L 446.09 210.17 L 457.26 211.51 L 460.06 196.25 L 462.85 169.40 L 465.64 165.50 L 474.02 191.13 L 479.61 168.07 L 482.40 166.73 L 493.58 192.46 L 493.58 192.46 L 493.58 192.46 L 493.58 192.46 L 493.58 192.46 L 493.58 192.46 L 499.16 192.46 L 499.16 192.46 L 499.16 192.46 L 499.16 192.46 L 499.16 192.46 L 499.16 192.46 L 513.13 208.95 L 518.72 211.51 L 521.51 236.02 L 524.30 252.62 L 532.68 251.39 L 535.47 251.39 L 538.27 223.21 L 541.06 227.00 L 543.85 208.95 L 552.23 223.21 L 552.23 223.21 L 555.03 212.74 L 560.61 224.43 L 560.61 224.43 L 574.58 221.98 L 577.37 197.59 L 580.17 196.25 L 591.34 164.17 L 596.93 152.69 L 596.93 152.69 L 602.51 166.73 L 613.69 151.36 L 613.69 151.36 L 613.69 151.36 L 613.69 151.36 L 613.69 151.36 L 613.69 151.36 L 613.69 151.36 L 613.69 151.36 L 622.07 151.36 L 622.07 150.02 L 638.83 133.20 L 650.00 104.90" /><text  class="poloto_labels poloto_text poloto_title" x="400" y="37.5" >lower.com purchase rates</text><text  class="poloto_labels poloto_text poloto_xname" x="400" y="481.25" >Date</text><text  class="poloto_labels poloto_text poloto_yname" transform="rotate(-90,37.5,250)" x="37.5" y="250" >Rate (%)</text><text  class="poloto_tick_labels poloto_text" dominant-baseline="middle" text-anchor="start" x="150" y="70" ></text><line  class="poloto_axis_lines" stroke="black" x1="150" x2="144" y1="387.18900854066095" y2="387.18900854066095" /><line  class="poloto_tick_line" stroke="black" x1="150" x2="650" y1="387.18900854066095" y2="387.18900854066095" /><text  class="poloto_tick_labels poloto_text" dominant-baseline="middle" text-anchor="end" x="135" y="387.18900854066095" >3.625</text><line  class="poloto_axis_lines" stroke="black" x1="150" x2="144" y1="373.26401782398807" y2="373.26401782398807" /><line  class="poloto_tick_line" stroke="black" x1="150" x2="650" y1="373.26401782398807" y2="373.26401782398807" /><text  class="poloto_tick_labels poloto_text" dominant-baseline="middle" text-anchor="end" x="135" y="373.26401782398807" >3.75</text><line  class="poloto_axis_lines" stroke="black" x1="150" x2="144" y1="359.33902710731525" y2="359.33902710731525" /><line  class="poloto_tick_line" stroke="black" x1="150" x2="650" y1="359.33902710731525" y2="359.33902710731525" /><text  class="poloto_tick_labels poloto_text" dominant-baseline="middle" text-anchor="end" x="135" y="359.33902710731525" >3.875</text><line  class="poloto_axis_lines" stroke="black" x1="150" x2="144" y1="345.41403639064237" y2="345.41403639064237" /><line  class="poloto_tick_line" stroke="black" x1="150" x2="650" y1="345.41403639064237" y2="345.41403639064237" /><text  class="poloto_tick_labels poloto_text" dominant-baseline="middle" text-anchor="end" x="135" y="345.41403639064237" >4</text><line  class="poloto_axis_lines" stroke="black" x1="150" x2="144" y1="331.4890456739695" y2="331.4890456739695" /><line  class="poloto_tick_line" stroke="black" x1="150" x2="650" y1="331.4890456739695" y2="331.4890456739695" /><text  class="poloto_tick_labels poloto_text" dominant-baseline="middle" text-anchor="end" x="135" y="331.4890456739695" >4.125</text><line  class="poloto_axis_lines" stroke="black" x1="150" x2="144" y1="317.56405495729666" y2="317.56405495729666" /><line  class="poloto_tick_line" stroke="black" x1="150" x2="650" y1="317.56405495729666" y2="317.56405495729666" /><text  class="poloto_tick_labels poloto_text" dominant-baseline="middle" text-anchor="end" x="135" y="317.56405495729666" >4.25</text><line  class="poloto_axis_lines" stroke="black" x1="150" x2="144" y1="303.6390642406238" y2="303.6390642406238" /><line  class="poloto_tick_line" stroke="black" x1="150" x2="650" y1="303.6390642406238" y2="303.6390642406238" /><text  class="poloto_tick_labels poloto_text" dominant-baseline="middle" text-anchor="end" x="135" y="303.6390642406238" >4.375</text><line  class="poloto_axis_lines" stroke="black" x1="150" x2="144" y1="289.71407352395096" y2="289.71407352395096" /><line  class="poloto_tick_line" stroke="black" x1="150" x2="650" y1="289.71407352395096" y2="289.71407352395096" /><text  class="poloto_tick_labels poloto_text" dominant-baseline="middle" text-anchor="end" x="135" y="289.71407352395096" >4.5</text><line  class="poloto_axis_lines" stroke="black" x1="150" x2="144" y1="275.7890828072781" y2="275.7890828072781" /><line  class="poloto_tick_line" stroke="black" x1="150" x2="650" y1="275.7890828072781" y2="275.7890828072781" /><text  class="poloto_tick_labels poloto_text" dominant-baseline="middle" text-anchor="end" x="135" y="275.7890828072781" >4.625</text><line  class="poloto_axis_lines" stroke="black" x1="150" x2="144" y1="261.86409209060525" y2="261.86409209060525" /><line  class="poloto_tick_line" stroke="black" x1="150" x2="650" y1="261.86409209060525" y2="261.86409209060525" /><text  class="poloto_tick_labels poloto_text" dominant-baseline="middle" text-anchor="end" x="135" y="261.86409209060525" >4.75</text><line  class="poloto_axis_lines" stroke="black" x1="150" x2="144" y1="247.93910137393243" y2="247.93910137393243" /><line  class="poloto_tick_line" stroke="black" x1="150" x2="650" y1="247.93910137393243" y2="247.93910137393243" /><text  class="poloto_tick_labels poloto_text" dominant-baseline="middle" text-anchor="end" x="135" y="247.93910137393243" >4.875</text><line  class="poloto_axis_lines" stroke="black" x1="150" x2="144" y1="234.0141106572595" y2="234.0141106572595" /><line  class="poloto_tick_line" stroke="black" x1="150" x2="650" y1="234.0141106572595" y2="234.0141106572595" /><text  class="poloto_tick_labels poloto_text" dominant-baseline="middle" text-anchor="end" x="135" y="234.0141106572595" >5</text><line  class="poloto_axis_lines" stroke="black" x1="150" x2="144" y1="220.08911994058667" y2="220.08911994058667" /><line  class="poloto_tick_line" stroke="black" x1="150" x2="650" y1="220.08911994058667" y2="220.08911994058667" /><text  class="poloto_tick_labels poloto_text" dominant-baseline="middle" text-anchor="end" x="135" y="220.08911994058667" >5.125</text><line  class="poloto_axis_lines" stroke="black" x1="150" x2="144" y1="206.16412922391385" y2="206.16412922391385" /><line  class="poloto_tick_line" stroke="black" x1="150" x2="650" y1="206.16412922391385" y2="206.16412922391385" /><text  class="poloto_tick_labels poloto_text" dominant-baseline="middle" text-anchor="end" x="135" y="206.16412922391385" >5.25</text><line  class="poloto_axis_lines" stroke="black" x1="150" x2="144" y1="192.23913850724102" y2="192.23913850724102" /><line  class="poloto_tick_line" stroke="black" x1="150" x2="650" y1="192.23913850724102" y2="192.23913850724102" /><text  class="poloto_tick_labels poloto_text" dominant-baseline="middle" text-anchor="end" x="135" y="192.23913850724102" >5.375</text><line  class="poloto_axis_lines" stroke="black" x1="150" x2="144" y1="178.3141477905681" y2="178.3141477905681" /><line  class="poloto_tick_line" stroke="black" x1="150" x2="650" y1="178.3141477905681" y2="178.3141477905681" /><text  class="poloto_tick_labels poloto_text" dominant-baseline="middle" text-anchor="end" x="135" y="178.3141477905681" >5.5</text><line  class="poloto_axis_lines" stroke="black" x1="150" x2="144" y1="164.38915707389526" y2="164.38915707389526" /><line  class="poloto_tick_line" stroke="black" x1="150" x2="650" y1="164.38915707389526" y2="164.38915707389526" /><text  class="poloto_tick_labels poloto_text" dominant-baseline="middle" text-anchor="end" x="135" y="164.38915707389526" >5.625</text><line  class="poloto_axis_lines" stroke="black" x1="150" x2="144" y1="150.46416635722244" y2="150.46416635722244" /><line  class="poloto_tick_line" stroke="black" x1="150" x2="650" y1="150.46416635722244" y2="150.46416635722244" /><text  class="poloto_tick_labels poloto_text" dominant-baseline="middle" text-anchor="end" x="135" y="150.46416635722244" >5.75</text><line  class="poloto_axis_lines" stroke="black" x1="150" x2="144" y1="136.53917564054962" y2="136.53917564054962" /><line  class="poloto_tick_line" stroke="black" x1="150" x2="650" y1="136.53917564054962" y2="136.53917564054962" /><text  class="poloto_tick_labels poloto_text" dominant-baseline="middle" text-anchor="end" x="135" y="136.53917564054962" >5.875</text><line  class="poloto_axis_lines" stroke="black" x1="150" x2="144" y1="122.61418492387668" y2="122.61418492387668" /><line  class="poloto_tick_line" stroke="black" x1="150" x2="650" y1="122.61418492387668" y2="122.61418492387668" /><text  class="poloto_tick_labels poloto_text" dominant-baseline="middle" text-anchor="end" x="135" y="122.61418492387668" >6</text><line  class="poloto_axis_lines" stroke="black" x1="150" x2="144" y1="108.68919420720385" y2="108.68919420720385" /><line  class="poloto_tick_line" stroke="black" x1="150" x2="650" y1="108.68919420720385" y2="108.68919420720385" /><text  class="poloto_tick_labels poloto_text" dominant-baseline="middle" text-anchor="end" x="135" y="108.68919420720385" >6.125</text><text  class="poloto_tick_labels poloto_text" dominant-baseline="middle" text-anchor="start" x="440.00000000000006" y="70" >¹2022-04-01 00:00:00 UTC in Months</text><line  class="poloto_axis_lines" stroke="black" x1="191.89944134078542" x2="191.89944134078542" y1="400" y2="405" /><line  class="poloto_tick_line" stroke="black" x1="191.89944134078542" x2="191.89944134078542" y1="400" y2="100" /><text  class="poloto_tick_labels poloto_text" dominant-baseline="start" text-anchor="middle" x="191.89944134078542" y="430" >2022 Apr¹</text><line  class="poloto_axis_lines" stroke="black" x1="275.69832402234897" x2="275.69832402234897" y1="400" y2="405" /><line  class="poloto_tick_line" stroke="black" x1="275.69832402234897" x2="275.69832402234897" y1="400" y2="100" /><text  class="poloto_tick_labels poloto_text" dominant-baseline="start" text-anchor="middle" x="275.69832402234897" y="430" >2022 May</text><line  class="poloto_axis_lines" stroke="black" x1="362.29050279329385" x2="362.29050279329385" y1="400" y2="405" /><line  class="poloto_tick_line" stroke="black" x1="362.29050279329385" x2="362.29050279329385" y1="400" y2="100" /><text  class="poloto_tick_labels poloto_text" dominant-baseline="start" text-anchor="middle" x="362.29050279329385" y="430" >2022 Jun</text><line  class="poloto_axis_lines" stroke="black" x1="446.0893854748574" x2="446.0893854748574" y1="400" y2="405" /><line  class="poloto_tick_line" stroke="black" x1="446.0893854748574" x2="446.0893854748574" y1="400" y2="100" /><text  class="poloto_tick_labels poloto_text" dominant-baseline="start" text-anchor="middle" x="446.0893854748574" y="430" >2022 Jul</text><line  class="poloto_axis_lines" stroke="black" x1="532.6815642458096" x2="532.6815642458096" y1="400" y2="405" /><line  class="poloto_tick_line" stroke="black" x1="532.6815642458096" x2="532.6815642458096" y1="400" y2="100" /><text  class="poloto_tick_labels poloto_text" dominant-baseline="start" text-anchor="middle" x="532.6815642458096" y="430" >2022 Aug</text><line  class="poloto_axis_lines" stroke="black" x1="619.2737430167617" x2="619.2737430167617" y1="400" y2="405" /><line  class="poloto_tick_line" stroke="black" x1="619.2737430167617" x2="619.2737430167617" y1="400" y2="100" /><text  class="poloto_tick_labels poloto_text" dominant-baseline="start" text-anchor="middle" x="619.2737430167617" y="430" >2022 Sep</text><path  stroke="black" fill="none" class="poloto_axis_lines" d=" M 150 400 L 650 400" /><path  stroke="black" fill="none" class="poloto_axis_lines" d=" M 150 400 L 150 100" /></svg>