<svg class="poloto" width="800" height="500" viewBox="0 0 800 500" xmlns="http://www.w3.org/2000/svg"><style>.poloto{stroke-linecap:round;stroke-linejoin:round;font-family:Roboto,sans-serif;font-size:16px;}.poloto_background{fill:#262626;}.poloto_scatter{stroke-width:7}.poloto_tick_line{stroke:dimgray;stroke-width:0.5}.poloto_line{stroke-width:2}.poloto_text{fill: white;}.poloto_axis_lines{stroke: white;stroke-width:3;fill:none;stroke-dasharray:none}.poloto_title{font-size:24px;dominant-baseline:start;text-anchor:middle;}.poloto_xname{font-size:24px;dominant-baseline:start;text-anchor:middle;}.poloto_yname{font-size:24px;dominant-baseline:start;text-anchor:middle;}.poloto0stroke{stroke:blue;}.poloto1stroke{stroke:red;}.poloto2stroke{stroke:green;}.poloto3stroke{stroke:gold;}.poloto4stroke{stroke:aqua;}.poloto5stroke{stroke:lime;}.poloto6stroke{stroke:orange;}.poloto7stroke{stroke:chocolate;}.poloto0fill{fill:blue;}.poloto1fill{fill:red;}.poloto2fill{fill:green;}.poloto3fill{fill:gold;}.poloto4fill{fill:aqua;}.poloto5fill{fill:lime;}.poloto6fill{fill:orange;}.poloto7fill{fill:chocolate;}</style><circle  r="1e5" class="poloto_background" /><text  class="poloto_text poloto_legend_text" x="675" y="100" >30 years</text><line  class="poloto_line poloto_legend_icon poloto0stroke poloto0legend" stroke="black" x1="680" x2="730" y1="81.25" y2="81.25" /><path  class="poloto_line poloto0stroke" fill="none" stroke="black" d=" M 150.00 353.85 L 152.96 376.92 L 161.83 353.85 L 164.79 330.77 L 167.75 330.77 L 167.75 330.77 L 173.67 284.62 L 182.54 284.62 L 185.50 307.69 L 188.46 330.77 L 191.42 353.85 L 194.38 307.69 L 203.25 330.77 L 206.21 307.69 L 209.17 284.62 L 212.13 261.54 L 215.09 261.54 L 223.96 261.54 L 226.92 284.62 L 229.88 284.62 L 232.84 284.62 L 235.80 238.46 L 247.63 217.23 L 250.59 215.38 L 253.55 215.38 L 256.51 192.31 L 265.38 215.38 L 268.34 238.46 L 274.26 217.23 L 277.22 217.23 L 286.09 217.23 L 289.05 217.23 L 292.01 217.23 L 294.97 217.23 L 297.93 192.31 L 306.80 215.38 L 309.76 217.23 L 309.76 217.23 L 312.72 217.23 L 315.68 217.23 L 318.64 217.23 L 327.51 217.23 L 330.47 217.23 L 333.43 217.23 L 333.43 217.23 L 336.39 217.23 L 339.35 261.54 L 348.22 261.54 L 351.18 284.62 L 354.14 284.62 L 357.10 307.69 L 360.06 284.62 L 371.89 261.54 L 374.85 238.46 L 377.81 261.54 L 380.77 261.54 L 389.64 238.46 L 392.60 217.23 L 395.56 217.23 L 398.52 217.23 L 410.36 123.08 L 413.31 100.00 L 416.27 100.00 L 419.23 123.08 L 422.19 146.15 L 431.07 123.08 L 434.02 123.08 L 436.98 146.15 L 439.94 169.23 L 451.78 169.23 L 454.73 123.08 L 457.69 146.15 L 460.65 192.31 L 463.61 217.23 L 475.44 217.23 L 478.40 217.23 L 481.36 192.31 L 484.32 146.15 L 493.20 192.31 L 499.11 146.15 L 502.07 192.31 L 513.91 192.31 L 513.91 192.31 L 513.91 192.31 L 513.91 192.31 L 513.91 192.31 L 519.82 192.31 L 519.82 192.31 L 519.82 192.31 L 519.82 192.31 L 519.82 192.31 L 519.82 192.31 L 525.74 217.23 L 534.62 217.23 L 540.53 217.23 L 543.49 261.54 L 546.45 307.69 L 555.33 307.69 L 558.28 307.69 L 561.24 284.62 L 564.20 284.62 L 567.16 217.23 L 576.04 217.23 L 576.04 217.23 L 578.99 217.23 L 578.99 217.23 L 584.91 217.23 L 599.70 217.23 L 602.66 192.31 L 605.62 192.31 L 617.46 146.15 L 623.37 123.08 L 626.33 123.08 L 629.29 146.15 L 641.12 123.08 L 641.12 123.08 L 641.12 123.08 L 641.12 123.08 L 641.12 123.08 L 641.12 123.08 L 641.12 123.08 L 641.12 123.08 L 641.12 123.08 L 650.00 123.08" /><text  class="poloto_labels poloto_text poloto_title" x="400" y="37.5" >lower.com purchase rates</text><text  class="poloto_labels poloto_text poloto_xname" x="400" y="481.25" >Date</text><text  class="poloto_labels poloto_text poloto_yname" transform="rotate(-90,37.5,250)" x="37.5" y="250" >Rate (%)</text><text  class="poloto_tick_labels poloto_text" dominant-baseline="middle" text-anchor="start" x="150" y="70" ></text><line  class="poloto_axis_lines" stroke="black" x1="150" x2="144" y1="400" y2="400" /><line  class="poloto_tick_line" stroke="black" x1="150" x2="650" y1="400" y2="400" /><text  class="poloto_tick_labels poloto_text" dominant-baseline="middle" text-anchor="end" x="135" y="400" >4</text><line  class="poloto_axis_lines" stroke="black" x1="150" x2="144" y1="376.9230769230769" y2="376.9230769230769" /><line  class="poloto_tick_line" stroke="black" x1="150" x2="650" y1="376.9230769230769" y2="376.9230769230769" /><text  class="poloto_tick_labels poloto_text" dominant-baseline="middle" text-anchor="end" x="135" y="376.9230769230769" >4.125</text><line  class="poloto_axis_lines" stroke="black" x1="150" x2="144" y1="353.8461538461538" y2="353.8461538461538" /><line  class="poloto_tick_line" stroke="black" x1="150" x2="650" y1="353.8461538461538" y2="353.8461538461538" /><text  class="poloto_tick_labels poloto_text" dominant-baseline="middle" text-anchor="end" x="135" y="353.8461538461538" >4.25</text><line  class="poloto_axis_lines" stroke="black" x1="150" x2="144" y1="330.7692307692307" y2="330.7692307692307" /><line  class="poloto_tick_line" stroke="black" x1="150" x2="650" y1="330.7692307692307" y2="330.7692307692307" /><text  class="poloto_tick_labels poloto_text" dominant-baseline="middle" text-anchor="end" x="135" y="330.7692307692307" >4.375</text><line  class="poloto_axis_lines" stroke="black" x1="150" x2="144" y1="307.69230769230774" y2="307.69230769230774" /><line  class="poloto_tick_line" stroke="black" x1="150" x2="650" y1="307.69230769230774" y2="307.69230769230774" /><text  class="poloto_tick_labels poloto_text" dominant-baseline="middle" text-anchor="end" x="135" y="307.69230769230774" >4.5</text><line  class="poloto_axis_lines" stroke="black" x1="150" x2="144" y1="284.61538461538464" y2="284.61538461538464" /><line  class="poloto_tick_line" stroke="black" x1="150" x2="650" y1="284.61538461538464" y2="284.61538461538464" /><text  class="poloto_tick_labels poloto_text" dominant-baseline="middle" text-anchor="end" x="135" y="284.61538461538464" >4.625</text><line  class="poloto_axis_lines" stroke="black" x1="150" x2="144" y1="261.53846153846155" y2="261.53846153846155" /><line  class="poloto_tick_line" stroke="black" x1="150" x2="650" y1="261.53846153846155" y2="261.53846153846155" /><text  class="poloto_tick_labels poloto_text" dominant-baseline="middle" text-anchor="end" x="135" y="261.53846153846155" >4.75</text><line  class="poloto_axis_lines" stroke="black" x1="150" x2="144" y1="238.46153846153845" y2="238.46153846153845" /><line  class="poloto_tick_line" stroke="black" x1="150" x2="650" y1="238.46153846153845" y2="238.46153846153845" /><text  class="poloto_tick_labels poloto_text" dominant-baseline="middle" text-anchor="end" x="135" y="238.46153846153845" >4.875</text><line  class="poloto_axis_lines" stroke="black" x1="150" x2="144" y1="215.38461538461536" y2="215.38461538461536" /><line  class="poloto_tick_line" stroke="black" x1="150" x2="650" y1="215.38461538461536" y2="215.38461538461536" /><text  class="poloto_tick_labels poloto_text" dominant-baseline="middle" text-anchor="end" x="135" y="215.38461538461536" >5</text><line  class="poloto_axis_lines" stroke="black" x1="150" x2="144" y1="192.30769230769226" y2="192.30769230769226" /><line  class="poloto_tick_line" stroke="black" x1="150" x2="650" y1="192.30769230769226" y2="192.30769230769226" /><text  class="poloto_tick_labels poloto_text" dominant-baseline="middle" text-anchor="end" x="135" y="192.30769230769226" >5.125</text><line  class="poloto_axis_lines" stroke="black" x1="150" x2="144" y1="169.23076923076928" y2="169.23076923076928" /><line  class="poloto_tick_line" stroke="black" x1="150" x2="650" y1="169.23076923076928" y2="169.23076923076928" /><text  class="poloto_tick_labels poloto_text" dominant-baseline="middle" text-anchor="end" x="135" y="169.23076923076928" >5.25</text><line  class="poloto_axis_lines" stroke="black" x1="150" x2="144" y1="146.1538461538462" y2="146.1538461538462" /><line  class="poloto_tick_line" stroke="black" x1="150" x2="650" y1="146.1538461538462" y2="146.1538461538462" /><text  class="poloto_tick_labels poloto_text" dominant-baseline="middle" text-anchor="end" x="135" y="146.1538461538462" >5.375</text><line  class="poloto_axis_lines" stroke="black" x1="150" x2="144" y1="123.0769230769231" y2="123.0769230769231" /><line  class="poloto_tick_line" stroke="black" x1="150" x2="650" y1="123.0769230769231" y2="123.0769230769231" /><text  class="poloto_tick_labels poloto_text" dominant-baseline="middle" text-anchor="end" x="135" y="123.0769230769231" >5.5</text><line  class="poloto_axis_lines" stroke="black" x1="150" x2="144" y1="100.00000000000011" y2="100.00000000000011" /><line  class="poloto_tick_line" stroke="black" x1="150" x2="650" y1="100.00000000000011" y2="100.00000000000011" /><text  class="poloto_tick_labels poloto_text" dominant-baseline="middle" text-anchor="end" x="135" y="100.00000000000011" >5.625</text><text  class="poloto_tick_labels poloto_text" dominant-baseline="middle" text-anchor="start" x="440.00000000000006" y="70" >¹2022-04-01 00:00:00 UTC in Months</text><line  class="poloto_axis_lines" stroke="black" x1="194.37869822484936" x2="194.37869822484936" y1="400" y2="405" /><line  class="poloto_tick_line" stroke="black" x1="194.37869822484936" x2="194.37869822484936" y1="400" y2="100.00000000000011" /><text  class="poloto_tick_labels poloto_text" dominant-baseline="start" text-anchor="middle" x="194.37869822484936" y="430" >2022 Apr¹</text><line  class="poloto_axis_lines" stroke="black" x1="283.13609467455535" x2="283.13609467455535" y1="400" y2="405" /><line  class="poloto_tick_line" stroke="black" x1="283.13609467455535" x2="283.13609467455535" y1="400" y2="100.00000000000011" /><text  class="poloto_tick_labels poloto_text" dominant-baseline="start" text-anchor="middle" x="283.13609467455535" y="430" >2022 May</text><line  class="poloto_axis_lines" stroke="black" x1="374.8520710059165" x2="374.8520710059165" y1="400" y2="405" /><line  class="poloto_tick_line" stroke="black" x1="374.8520710059165" x2="374.8520710059165" y1="400" y2="100.00000000000011" /><text  class="poloto_tick_labels poloto_text" dominant-baseline="start" text-anchor="middle" x="374.8520710059165" y="430" >2022 Jun</text><line  class="poloto_axis_lines" stroke="black" x1="463.6094674556225" x2="463.6094674556225" y1="400" y2="405" /><line  class="poloto_tick_line" stroke="black" x1="463.6094674556225" x2="463.6094674556225" y1="400" y2="100.00000000000011" /><text  class="poloto_tick_labels poloto_text" dominant-baseline="start" text-anchor="middle" x="463.6094674556225" y="430" >2022 Jul</text><line  class="poloto_axis_lines" stroke="black" x1="555.3254437869837" x2="555.3254437869837" y1="400" y2="405" /><line  class="poloto_tick_line" stroke="black" x1="555.3254437869837" x2="555.3254437869837" y1="400" y2="100.00000000000011" /><text  class="poloto_tick_labels poloto_text" dominant-baseline="start" text-anchor="middle" x="555.3254437869837" y="430" >2022 Aug</text><line  class="poloto_axis_lines" stroke="black" x1="647.0414201183448" x2="647.0414201183448" y1="400" y2="405" /><line  class="poloto_tick_line" stroke="black" x1="647.0414201183448" x2="647.0414201183448" y1="400" y2="100.00000000000011" /><text  class="poloto_tick_labels poloto_text" dominant-baseline="start" text-anchor="middle" x="647.0414201183448" y="430" >2022 Sep</text><path  stroke="black" fill="none" class="poloto_axis_lines" d=" M 150 400 L 650 400" /><path  stroke="black" fill="none" class="poloto_axis_lines" d=" M 150 400 L 150 100.00000000000011" /></svg>