<svg class="poloto" width="800" height="500" viewBox="0 0 800 500" xmlns="http://www.w3.org/2000/svg"><style>.poloto{stroke-linecap:round;stroke-linejoin:round;font-family:Roboto,sans-serif;font-size:16px;}.poloto_background{fill:#262626;}.poloto_scatter{stroke-width:7}.poloto_tick_line{stroke:dimgray;stroke-width:0.5}.poloto_line{stroke-width:2}.poloto_text{fill: white;}.poloto_axis_lines{stroke: white;stroke-width:3;fill:none;stroke-dasharray:none}.poloto_title{font-size:24px;dominant-baseline:start;text-anchor:middle;}.poloto_xname{font-size:24px;dominant-baseline:start;text-anchor:middle;}.poloto_yname{font-size:24px;dominant-baseline:start;text-anchor:middle;}.poloto0stroke{stroke:blue;}.poloto1stroke{stroke:red;}.poloto2stroke{stroke:green;}.poloto3stroke{stroke:gold;}.poloto4stroke{stroke:aqua;}.poloto5stroke{stroke:lime;}.poloto6stroke{stroke:orange;}.poloto7stroke{stroke:chocolate;}.poloto0fill{fill:blue;}.poloto1fill{fill:red;}.poloto2fill{fill:green;}.poloto3fill{fill:gold;}.poloto4fill{fill:aqua;}.poloto5fill{fill:lime;}.poloto6fill{fill:orange;}.poloto7fill{fill:chocolate;}</style><circle  r="1e5" class="poloto_background" /><text  class="poloto_text poloto_legend_text" x="675" y="100" >Refinance 15</text><line  class="poloto_line poloto_legend_icon poloto0stroke poloto0legend" stroke="black" x1="680" x2="730" y1="81.25" y2="81.25" /><path  class="poloto_line poloto0stroke" fill="none" stroke="black" d=" M 150.00 390.09 L 152.67 400.00 L 160.70 385.96 L 163.37 373.93 L 166.04 385.96 L 166.04 385.96 L 171.39 345.86 L 179.41 343.74 L 182.09 357.78 L 184.76 327.48 L 187.43 329.60 L 190.11 323.25 L 198.13 325.36 L 200.80 316.90 L 200.80 316.90 L 206.15 317.68 L 208.82 287.37 L 216.84 300.52 L 219.52 304.75 L 222.19 304.75 L 224.87 303.64 L 227.54 297.18 L 238.24 240.59 L 240.91 265.76 L 243.58 246.27 L 246.26 238.69 L 246.26 238.69 L 256.95 267.99 L 262.30 273.34 L 264.97 261.42 L 272.99 247.27 L 275.67 275.45 L 278.34 261.42 L 278.34 261.42 L 283.69 259.19 L 291.71 263.54 L 294.39 277.57 L 294.39 277.57 L 297.06 265.65 L 299.73 279.80 L 302.41 259.19 L 310.43 301.52 L 313.10 300.52 L 315.78 277.57 L 315.78 277.57 L 318.45 287.37 L 321.12 291.72 L 329.14 291.72 L 331.82 306.87 L 334.49 306.87 L 337.17 306.87 L 339.84 306.87 L 350.53 291.72 L 353.21 287.37 L 355.88 289.49 L 358.56 289.49 L 358.56 289.49 L 369.25 275.45 L 371.93 275.45 L 374.60 263.54 L 385.29 244.04 L 387.97 203.82 L 390.64 208.28 L 393.32 208.28 L 395.99 236.46 L 404.01 208.28 L 406.68 208.28 L 409.36 234.24 L 412.03 238.69 L 422.73 238.69 L 425.40 236.46 L 428.07 243.04 L 430.75 249.50 L 433.42 263.54 L 444.12 273.34 L 446.79 261.42 L 449.47 251.62 L 452.14 247.27 L 460.16 249.50 L 465.51 249.50 L 468.18 247.27 L 478.88 245.15 L 478.88 245.15 L 478.88 245.15 L 478.88 245.15 L 478.88 245.15 L 478.88 245.15 L 484.22 245.15 L 484.22 245.15 L 484.22 245.15 L 484.22 245.15 L 484.22 245.15 L 484.22 245.15 L 497.59 261.42 L 502.94 265.65 L 505.61 302.64 L 508.29 306.87 L 516.31 306.87 L 518.98 304.75 L 521.66 275.45 L 524.33 267.88 L 527.01 249.50 L 535.03 263.54 L 535.03 263.54 L 537.70 251.62 L 543.05 263.54 L 543.05 263.54 L 556.42 263.54 L 559.09 219.20 L 561.76 245.15 L 572.46 200.71 L 577.81 200.71 L 577.81 200.71 L 583.16 216.97 L 593.85 208.28 L 593.85 208.28 L 593.85 208.28 L 593.85 208.28 L 593.85 208.28 L 593.85 208.28 L 593.85 208.28 L 593.85 208.28 L 593.85 208.28 L 601.87 208.28 L 617.91 179.99 L 628.61 183.33 L 628.61 183.33 L 636.63 183.33 L 647.33 183.33 L 650.00 183.33" /><text  class="poloto_text poloto_legend_text" x="675" y="150" >Refinance 20</text><line  class="poloto_line poloto_legend_icon poloto1stroke poloto1legend" stroke="black" x1="680" x2="730" y1="131.25" y2="131.25" /><path  class="poloto_line poloto1stroke" fill="none" stroke="black" d=" M 150.00 328.59 L 152.67 358.34 L 160.70 314.00 L 163.37 300.41 L 166.04 312.89 L 166.04 312.89 L 171.39 273.90 L 179.41 270.55 L 182.09 284.70 L 184.76 268.88 L 187.43 283.03 L 190.11 256.52 L 198.13 297.07 L 200.80 256.52 L 200.80 256.52 L 206.15 256.52 L 206.15 256.52 L 216.84 203.04 L 219.52 245.82 L 222.19 256.52 L 224.87 270.55 L 227.54 243.04 L 238.24 215.97 L 240.91 212.51 L 243.58 205.61 L 246.26 189.79 L 254.28 196.70 L 256.95 226.66 L 262.30 215.97 L 264.97 212.51 L 272.99 201.26 L 275.67 214.30 L 278.34 214.30 L 278.34 214.30 L 283.69 214.30 L 291.71 215.97 L 294.39 244.15 L 294.39 244.15 L 297.06 228.33 L 299.73 254.85 L 302.41 244.15 L 310.43 245.82 L 313.10 244.15 L 315.78 244.15 L 315.78 244.15 L 318.45 245.82 L 321.12 254.85 L 329.14 256.52 L 331.82 261.53 L 334.49 261.53 L 337.17 261.53 L 339.84 261.53 L 350.53 254.85 L 353.21 240.70 L 355.88 244.15 L 358.56 244.15 L 358.56 244.15 L 369.25 226.66 L 371.93 230.00 L 374.60 217.64 L 385.29 157.93 L 387.97 133.20 L 390.64 147.34 L 393.32 157.93 L 395.99 187.78 L 404.01 170.18 L 406.68 161.38 L 409.36 189.57 L 412.03 203.04 L 422.73 203.04 L 425.40 187.78 L 428.07 201.93 L 430.75 215.97 L 433.42 231.79 L 444.12 242.37 L 446.79 228.33 L 449.47 214.30 L 452.14 204.72 L 460.16 212.51 L 465.51 215.97 L 468.18 214.30 L 478.88 215.97 L 478.88 215.97 L 478.88 215.97 L 478.88 215.97 L 478.88 215.97 L 478.88 215.97 L 478.88 215.97 L 478.88 215.97 L 478.88 215.97 L 478.88 215.97 L 478.88 215.97 L 478.88 215.97 L 497.59 242.37 L 502.94 245.82 L 505.61 270.55 L 508.29 273.90 L 516.31 270.22 L 518.98 270.22 L 521.66 256.52 L 524.33 261.53 L 527.01 240.70 L 535.03 230.00 L 535.03 230.00 L 537.70 230.00 L 543.05 244.15 L 543.05 244.15 L 556.42 240.70 L 559.09 215.97 L 561.76 215.97 L 572.46 197.81 L 577.81 182.55 L 577.81 182.55 L 583.16 199.59 L 593.85 157.93 L 593.85 157.93 L 593.85 157.93 L 593.85 157.93 L 593.85 157.93 L 593.85 157.93 L 593.85 157.93 L 593.85 157.93 L 593.85 157.93 L 601.87 157.93 L 617.91 140.22 L 628.61 142.00 L 633.96 142.00 L 636.63 142.00 L 636.63 142.00 L 650.00 142.00" /><text  class="poloto_text poloto_legend_text" x="675" y="200" >Refinance 30</text><line  class="poloto_line poloto_legend_icon poloto2stroke poloto2legend" stroke="black" x1="680" x2="730" y1="181.25" y2="181.25" /><path  class="poloto_line poloto2stroke" fill="none" stroke="black" d=" M 150.00 325.47 L 152.67 336.06 L 160.70 319.57 L 163.37 306.65 L 166.04 309.10 L 166.04 309.10 L 171.39 282.03 L 179.41 279.69 L 182.09 293.72 L 184.76 278.46 L 187.43 292.50 L 190.11 265.54 L 198.13 278.46 L 200.80 251.39 L 203.48 251.39 L 206.15 250.17 L 208.82 215.97 L 216.84 221.98 L 219.52 237.36 L 222.19 251.39 L 224.87 238.58 L 227.54 223.21 L 238.24 211.51 L 240.91 192.46 L 243.58 189.90 L 246.26 187.23 L 254.28 192.46 L 256.95 214.30 L 262.30 211.51 L 264.97 208.95 L 272.99 195.02 L 275.67 210.17 L 278.34 195.02 L 278.34 195.02 L 283.69 195.02 L 291.71 197.59 L 294.39 221.98 L 294.39 221.98 L 297.06 210.17 L 299.73 211.51 L 302.41 212.74 L 310.43 223.21 L 313.10 211.51 L 315.78 211.51 L 315.78 211.51 L 318.45 224.43 L 321.12 225.77 L 329.14 227.00 L 331.82 238.58 L 334.49 238.58 L 337.17 241.03 L 339.84 241.03 L 350.53 236.02 L 353.21 221.98 L 355.88 224.43 L 358.56 223.21 L 358.56 223.21 L 369.25 210.17 L 371.93 210.17 L 374.60 196.25 L 385.29 139.88 L 387.97 100.00 L 390.64 124.40 L 393.32 139.88 L 395.99 153.92 L 404.01 141.11 L 406.68 139.88 L 409.36 165.50 L 412.03 168.07 L 422.73 168.07 L 425.40 152.69 L 428.07 165.50 L 430.75 179.54 L 433.42 210.17 L 444.12 211.51 L 446.79 196.25 L 449.47 169.40 L 452.14 165.50 L 460.16 191.13 L 465.51 168.07 L 468.18 166.73 L 478.88 192.46 L 478.88 192.46 L 478.88 192.46 L 478.88 192.46 L 478.88 192.46 L 478.88 192.46 L 484.22 192.46 L 484.22 192.46 L 484.22 192.46 L 484.22 192.46 L 484.22 192.46 L 484.22 192.46 L 497.59 208.95 L 502.94 211.51 L 505.61 236.02 L 508.29 252.62 L 516.31 251.39 L 518.98 251.39 L 521.66 223.21 L 524.33 227.00 L 527.01 208.95 L 535.03 223.21 L 535.03 223.21 L 537.70 212.74 L 543.05 224.43 L 543.05 224.43 L 556.42 221.98 L 559.09 197.59 L 561.76 196.25 L 572.46 164.17 L 577.81 152.69 L 577.81 152.69 L 583.16 166.73 L 593.85 151.36 L 593.85 151.36 L 593.85 151.36 L 593.85 151.36 L 593.85 151.36 L 593.85 151.36 L 593.85 151.36 L 593.85 151.36 L 601.87 151.36 L 601.87 150.02 L 617.91 133.20 L 628.61 104.90 L 628.61 104.90 L 636.63 104.90 L 636.63 104.90 L 650.00 104.90" /><text  class="poloto_labels poloto_text poloto_title" x="400" y="37.5" >lower.com purchase rates</text><text  class="poloto_labels poloto_text poloto_xname" x="400" y="481.25" >Date</text><text  class="poloto_labels poloto_text poloto_yname" transform="rotate(-90,37.5,250)" x="37.5" y="250" >Rate (%)</text><text  class="poloto_tick_labels poloto_text" dominant-baseline="middle" text-anchor="start" x="150" y="70" ></text><line  class="poloto_axis_lines" stroke="black" x1="150" x2="144" y1="387.18900854066095" y2="387.18900854066095" /><line  class="poloto_tick_line" stroke="black" x1="150" x2="650" y1="387.18900854066095" y2="387.18900854066095" /><text  class="poloto_tick_labels poloto_text" dominant-baseline="middle" text-anchor="end" x="135" y="387.18900854066095" >3.625</text><line  class="poloto_axis_lines" stroke="black" x1="150" x2="144" y1="373.26401782398807" y2="373.26401782398807" /><line  class="poloto_tick_line" stroke="black" x1="150" x2="650" y1="373.26401782398807" y2="373.26401782398807" /><text  class="poloto_tick_labels poloto_text" dominant-baseline="middle" text-anchor="end" x="135" y="373.26401782398807" >3.75</text><line  class="poloto_axis_lines" stroke="black" x1="150" x2="144" y1="359.33902710731525" y2="359.33902710731525" /><line  class="poloto_tick_line" stroke="black" x1="150" x2="650" y1="359.33902710731525" y2="359.33902710731525" /><text  class="poloto_tick_labels poloto_text" dominant-baseline="middle" text-anchor="end" x="135" y="359.33902710731525" >3.875</text><line  class="poloto_axis_lines" stroke="black" x1="150" x2="144" y1="345.41403639064237" y2="345.41403639064237" /><line  class="poloto_tick_line" stroke="black" x1="150" x2="650" y1="345.41403639064237" y2="345.41403639064237" /><text  class="poloto_tick_labels poloto_text" dominant-baseline="middle" text-anchor="end" x="135" y="345.41403639064237" >4</text><line  class="poloto_axis_lines" stroke="black" x1="150" x2="144" y1="331.4890456739695" y2="331.4890456739695" /><line  class="poloto_tick_line" stroke="black" x1="150" x2="650" y1="331.4890456739695" y2="331.4890456739695" /><text  class="poloto_tick_labels poloto_text" dominant-baseline="middle" text-anchor="end" x="135" y="331.4890456739695" >4.125</text><line  class="poloto_axis_lines" stroke="black" x1="150" x2="144" y1="317.56405495729666" y2="317.56405495729666" /><line  class="poloto_tick_line" stroke="black" x1="150" x2="650" y1="317.56405495729666" y2="317.56405495729666" /><text  class="poloto_tick_labels poloto_text" dominant-baseline="middle" text-anchor="end" x="135" y="317.56405495729666" >4.25</text><line  class="poloto_axis_lines" stroke="black" x1="150" x2="144" y1="303.6390642406238" y2="303.6390642406238" /><line  class="poloto_tick_line" stroke="black" x1="150" x2="650" y1="303.6390642406238" y2="303.6390642406238" /><text  class="poloto_tick_labels poloto_text" dominant-baseline="middle" text-anchor="end" x="135" y="303.6390642406238" >4.375</text><line  class="poloto_axis_lines" stroke="black" x1="150" x2="144" y1="289.71407352395096" y2="289.71407352395096" /><line  class="poloto_tick_line" stroke="black" x1="150" x2="650" y1="289.71407352395096" y2="289.71407352395096" /><text  class="poloto_tick_labels poloto_text" dominant-baseline="middle" text-anchor="end" x="135" y="289.71407352395096" >4.5</text><line  class="poloto_axis_lines" stroke="black" x1="150" x2="144" y1="275.7890828072781" y2="275.7890828072781" /><line  class="poloto_tick_line" stroke="black" x1="150" x2="650" y1="275.7890828072781" y2="275.7890828072781" /><text  class="poloto_tick_labels poloto_text" dominant-baseline="middle" text-anchor="end" x="135" y="275.7890828072781" >4.625</text><line  class="poloto_axis_lines" stroke="black" x1="150" x2="144" y1="261.86409209060525" y2="261.86409209060525" /><line  class="poloto_tick_line" stroke="black" x1="150" x2="650" y1="261.86409209060525" y2="261.86409209060525" /><text  class="poloto_tick_labels poloto_text" dominant-baseline="middle" text-anchor="end" x="135" y="261.86409209060525" >4.75</text><line  class="poloto_axis_lines" stroke="black" x1="150" x2="144" y1="247.93910137393243" y2="247.93910137393243" /><line  class="poloto_tick_line" stroke="black" x1="150" x2="650" y1="247.93910137393243" y2="247.93910137393243" /><text  class="poloto_tick_labels poloto_text" dominant-baseline="middle" text-anchor="end" x="135" y="247.93910137393243" >4.875</text><line  class="poloto_axis_lines" stroke="black" x1="150" x2="144" y1="234.0141106572595" y2="234.0141106572595" /><line  class="poloto_tick_line" stroke="black" x1="150" x2="650" y1="234.0141106572595" y2="234.0141106572595" /><text  class="poloto_tick_labels poloto_text" dominant-baseline="middle" text-anchor="end" x="135" y="234.0141106572595" >5</text><line  class="poloto_axis_lines" stroke="black" x1="150" x2="144" y1="220.08911994058667" y2="220.08911994058667" /><line  class="poloto_tick_line" stroke="black" x1="150" x2="650" y1="220.08911994058667" y2="220.08911994058667" /><text  class="poloto_tick_labels poloto_text" dominant-baseline="middle" text-anchor="end" x="135" y="220.08911994058667" >5.125</text><line  class="poloto_axis_lines" stroke="black" x1="150" x2="144" y1="206.16412922391385" y2="206.16412922391385" /><line  class="poloto_tick_line" stroke="black" x1="150" x2="650" y1="206.16412922391385" y2="206.16412922391385" /><text  class="poloto_tick_labels poloto_text" dominant-baseline="middle" text-anchor="end" x="135" y="206.16412922391385" >5.25</text><line  class="poloto_axis_lines" stroke="black" x1="150" x2="144" y1="192.23913850724102" y2="192.23913850724102" /><line  class="poloto_tick_line" stroke="black" x1="150" x2="650" y1="192.23913850724102" y2="192.23913850724102" /><text  class="poloto_tick_labels poloto_text" dominant-baseline="middle" text-anchor="end" x="135" y="192.23913850724102" >5.375</text><line  class="poloto_axis_lines" stroke="black" x1="150" x2="144" y1="178.3141477905681" y2="178.3141477905681" /><line  class="poloto_tick_line" stroke="black" x1="150" x2="650" y1="178.3141477905681" y2="178.3141477905681" /><text  class="poloto_tick_labels poloto_text" dominant-baseline="middle" text-anchor="end" x="135" y="178.3141477905681" >5.5</text><line  class="poloto_axis_lines" stroke="black" x1="150" x2="144" y1="164.38915707389526" y2="164.38915707389526" /><line  class="poloto_tick_line" stroke="black" x1="150" x2="650" y1="164.38915707389526" y2="164.38915707389526" /><text  class="poloto_tick_labels poloto_text" dominant-baseline="middle" text-anchor="end" x="135" y="164.38915707389526" >5.625</text><line  class="poloto_axis_lines" stroke="black" x1="150" x2="144" y1="150.46416635722244" y2="150.46416635722244" /><line  class="poloto_tick_line" stroke="black" x1="150" x2="650" y1="150.46416635722244" y2="150.46416635722244" /><text  class="poloto_tick_labels poloto_text" dominant-baseline="middle" text-anchor="end" x="135" y="150.46416635722244" >5.75</text><line  class="poloto_axis_lines" stroke="black" x1="150" x2="144" y1="136.53917564054962" y2="136.53917564054962" /><line  class="poloto_tick_line" stroke="black" x1="150" x2="650" y1="136.53917564054962" y2="136.53917564054962" /><text  class="poloto_tick_labels poloto_text" dominant-baseline="middle" text-anchor="end" x="135" y="136.53917564054962" >5.875</text><line  class="poloto_axis_lines" stroke="black" x1="150" x2="144" y1="122.61418492387668" y2="122.61418492387668" /><line  class="poloto_tick_line" stroke="black" x1="150" x2="650" y1="122.61418492387668" y2="122.61418492387668" /><text  class="poloto_tick_labels poloto_text" dominant-baseline="middle" text-anchor="end" x="135" y="122.61418492387668" >6</text><line  class="poloto_axis_lines" stroke="black" x1="150" x2="144" y1="108.68919420720385" y2="108.68919420720385" /><line  class="poloto_tick_line" stroke="black" x1="150" x2="650" y1="108.68919420720385" y2="108.68919420720385" /><text  class="poloto_tick_labels poloto_text" dominant-baseline="middle" text-anchor="end" x="135" y="108.68919420720385" >6.125</text><text  class="poloto_tick_labels poloto_text" dominant-baseline="middle" text-anchor="start" x="440.00000000000006" y="70" >¹2022-04-01 00:00:00 UTC in Months</text><line  class="poloto_axis_lines" stroke="black" x1="190.1069518716613" x2="190.1069518716613" y1="400" y2="405" /><line  class="poloto_tick_line" stroke="black" x1="190.1069518716613" x2="190.1069518716613" y1="400" y2="100" /><text  class="poloto_tick_labels poloto_text" dominant-baseline="start" text-anchor="middle" x="190.1069518716613" y="430" >2022 Apr¹</text><line  class="poloto_axis_lines" stroke="black" x1="270.3208556149766" x2="270.3208556149766" y1="400" y2="405" /><line  class="poloto_tick_line" stroke="black" x1="270.3208556149766" x2="270.3208556149766" y1="400" y2="100" /><text  class="poloto_tick_labels poloto_text" dominant-baseline="start" text-anchor="middle" x="270.3208556149766" y="430" >2022 May</text><line  class="poloto_axis_lines" stroke="black" x1="353.208556149737" x2="353.208556149737" y1="400" y2="405" /><line  class="poloto_tick_line" stroke="black" x1="353.208556149737" x2="353.208556149737" y1="400" y2="100" /><text  class="poloto_tick_labels poloto_text" dominant-baseline="start" text-anchor="middle" x="353.208556149737" y="430" >2022 Jun</text><line  class="poloto_axis_lines" stroke="black" x1="433.4224598930523" x2="433.4224598930523" y1="400" y2="405" /><line  class="poloto_tick_line" stroke="black" x1="433.4224598930523" x2="433.4224598930523" y1="400" y2="100" /><text  class="poloto_tick_labels poloto_text" dominant-baseline="start" text-anchor="middle" x="433.4224598930523" y="430" >2022 Jul</text><line  class="poloto_axis_lines" stroke="black" x1="516.3101604278127" x2="516.3101604278127" y1="400" y2="405" /><line  class="poloto_tick_line" stroke="black" x1="516.3101604278127" x2="516.3101604278127" y1="400" y2="100" /><text  class="poloto_tick_labels poloto_text" dominant-baseline="start" text-anchor="middle" x="516.3101604278127" y="430" >2022 Aug</text><line  class="poloto_axis_lines" stroke="black" x1="599.197860962573" x2="599.197860962573" y1="400" y2="405" /><line  class="poloto_tick_line" stroke="black" x1="599.197860962573" x2="599.197860962573" y1="400" y2="100" /><text  class="poloto_tick_labels poloto_text" dominant-baseline="start" text-anchor="middle" x="599.197860962573" y="430" >2022 Sep</text><path  stroke="black" fill="none" class="poloto_axis_lines" d=" M 150 400 L 650 400" /><path  stroke="black" fill="none" class="poloto_axis_lines" d=" M 150 400 L 150 100" /></svg>