<svg class="poloto" width="800" height="500" viewBox="0 0 800 500" xmlns="http://www.w3.org/2000/svg"><style>.poloto{stroke-linecap:round;stroke-linejoin:round;font-family:Roboto,sans-serif;font-size:16px;}.poloto_background{fill:#262626;}.poloto_scatter{stroke-width:7}.poloto_tick_line{stroke:dimgray;stroke-width:0.5}.poloto_line{stroke-width:2}.poloto_text{fill: white;}.poloto_axis_lines{stroke: white;stroke-width:3;fill:none;stroke-dasharray:none}.poloto_title{font-size:24px;dominant-baseline:start;text-anchor:middle;}.poloto_xname{font-size:24px;dominant-baseline:start;text-anchor:middle;}.poloto_yname{font-size:24px;dominant-baseline:start;text-anchor:middle;}.poloto0stroke{stroke:blue;}.poloto1stroke{stroke:red;}.poloto2stroke{stroke:green;}.poloto3stroke{stroke:gold;}.poloto4stroke{stroke:aqua;}.poloto5stroke{stroke:lime;}.poloto6stroke{stroke:orange;}.poloto7stroke{stroke:chocolate;}.poloto0fill{fill:blue;}.poloto1fill{fill:red;}.poloto2fill{fill:green;}.poloto3fill{fill:gold;}.poloto4fill{fill:aqua;}.poloto5fill{fill:lime;}.poloto6fill{fill:orange;}.poloto7fill{fill:chocolate;}</style><circle  r="1e5" class="poloto_background" /><text  class="poloto_text poloto_legend_text" x="675" y="100" >Refinance 15</text><line  class="poloto_line poloto_legend_icon poloto0stroke poloto0legend" stroke="black" x1="680" x2="730" y1="81.25" y2="81.25" /><path  class="poloto_line poloto0stroke" fill="none" stroke="black" d=" M 150.00 392.46 L 151.50 400.00 L 155.99 389.32 L 157.49 380.17 L 158.98 389.32 L 158.98 389.32 L 161.98 358.81 L 166.47 357.20 L 167.96 367.88 L 169.46 344.83 L 170.96 346.44 L 172.46 341.61 L 176.95 343.22 L 178.44 336.78 L 178.44 336.78 L 181.44 337.37 L 182.93 314.32 L 187.43 324.32 L 188.92 327.54 L 190.42 327.54 L 191.92 326.69 L 193.41 321.78 L 199.40 278.73 L 200.90 297.88 L 202.40 283.05 L 203.89 277.29 L 203.89 277.29 L 209.88 299.58 L 212.87 303.64 L 214.37 294.58 L 218.86 283.81 L 220.36 305.25 L 221.86 294.58 L 221.86 294.58 L 224.85 292.88 L 229.34 296.19 L 230.84 306.86 L 230.84 306.86 L 232.34 297.80 L 233.83 308.56 L 235.33 292.88 L 239.82 325.08 L 241.32 324.32 L 242.81 306.86 L 242.81 306.86 L 244.31 314.32 L 245.81 317.63 L 250.30 317.63 L 251.80 329.15 L 253.29 329.15 L 254.79 329.15 L 256.29 329.15 L 262.28 317.63 L 263.77 314.32 L 265.27 315.93 L 266.77 315.93 L 266.77 315.93 L 272.75 305.25 L 274.25 305.25 L 275.75 296.19 L 281.74 281.36 L 283.23 250.76 L 284.73 254.15 L 286.23 254.15 L 287.72 275.59 L 292.22 254.15 L 293.71 254.15 L 295.21 273.90 L 296.71 277.29 L 302.69 277.29 L 304.19 275.59 L 305.69 280.59 L 307.19 285.51 L 308.68 296.19 L 314.67 303.64 L 316.17 294.58 L 317.66 287.12 L 319.16 283.81 L 323.65 285.51 L 326.65 285.51 L 328.14 283.81 L 334.13 282.20 L 334.13 282.20 L 334.13 282.20 L 334.13 282.20 L 334.13 282.20 L 334.13 282.20 L 337.13 282.20 L 337.13 282.20 L 337.13 282.20 L 337.13 282.20 L 337.13 282.20 L 337.13 282.20 L 344.61 294.58 L 347.60 297.80 L 349.10 325.93 L 350.60 329.15 L 355.09 329.15 L 356.59 327.54 L 358.08 305.25 L 359.58 299.49 L 361.08 285.51 L 365.57 296.19 L 365.57 296.19 L 367.07 287.12 L 370.06 296.19 L 370.06 296.19 L 377.54 296.19 L 379.04 262.46 L 380.54 282.20 L 386.53 248.39 L 389.52 248.39 L 389.52 248.39 L 392.51 260.76 L 398.50 254.15 L 398.50 254.15 L 398.50 254.15 L 398.50 254.15 L 398.50 254.15 L 398.50 254.15 L 398.50 254.15 L 398.50 254.15 L 398.50 254.15 L 402.99 254.15 L 411.98 232.63 L 417.96 235.17 L 417.96 235.17 L 422.46 235.17 L 428.44 235.17 L 429.94 235.17 L 429.94 235.17 L 429.94 235.17 L 429.94 235.17 L 429.94 235.17 L 449.40 235.17 L 450.90 235.17 L 459.88 139.75 L 461.38 130.68 L 462.87 130.68 L 516.77 159.15 L 522.75 159.15 L 524.25 159.15 L 525.75 175.51 L 528.74 184.49 L 528.74 184.49 L 534.73 184.49 L 536.23 184.49 L 537.72 184.49 L 539.22 184.49 L 543.71 184.49 L 545.21 184.49 L 548.20 184.49 L 549.70 184.49 L 554.19 184.49 L 555.69 184.49 L 555.69 184.49 L 560.18 184.49 L 564.67 184.49 L 566.17 184.49 L 567.66 184.49 L 569.16 184.49 L 570.66 184.49 L 576.65 209.15 L 578.14 180.68 L 579.64 159.15 L 581.14 169.92 L 585.63 169.92 L 587.13 169.92 L 587.13 169.92 L 590.12 193.05 L 591.62 193.05 L 596.11 193.05 L 597.60 193.05 L 599.10 193.05 L 600.60 193.05 L 602.10 193.05 L 602.10 193.05 L 602.10 193.05 L 602.10 193.05 L 609.58 193.05 L 612.57 193.05 L 617.07 193.05 L 618.56 193.05 L 621.56 193.05 L 623.05 193.05 L 629.04 193.05 L 630.54 193.05 L 632.04 193.05 L 633.53 223.56 L 638.02 230.34 L 639.52 191.36 L 641.02 203.81 L 642.51 202.12 L 644.01 182.37 L 648.50 137.71 L 650.00 137.71" /><text  class="poloto_text poloto_legend_text" x="675" y="150" >Refinance 20</text><line  class="poloto_line poloto_legend_icon poloto1stroke poloto1legend" stroke="black" x1="680" x2="730" y1="131.25" y2="131.25" /><path  class="poloto_line poloto1stroke" fill="none" stroke="black" d=" M 150.00 345.68 L 151.50 368.31 L 155.99 334.58 L 157.49 324.24 L 158.98 333.73 L 158.98 333.73 L 161.98 304.07 L 166.47 301.53 L 167.96 312.29 L 169.46 300.25 L 170.96 311.02 L 172.46 290.85 L 176.95 321.69 L 178.44 290.85 L 178.44 290.85 L 181.44 290.85 L 181.44 290.85 L 187.43 250.17 L 188.92 282.71 L 190.42 290.85 L 191.92 301.53 L 193.41 280.59 L 199.40 260.00 L 200.90 257.37 L 202.40 252.12 L 203.89 240.08 L 208.38 245.34 L 209.88 268.14 L 212.87 260.00 L 214.37 257.37 L 218.86 248.81 L 220.36 258.73 L 221.86 258.73 L 221.86 258.73 L 224.85 258.73 L 229.34 260.00 L 230.84 281.44 L 230.84 281.44 L 232.34 269.41 L 233.83 289.58 L 235.33 281.44 L 239.82 282.71 L 241.32 281.44 L 242.81 281.44 L 242.81 281.44 L 244.31 282.71 L 245.81 289.58 L 250.30 290.85 L 251.80 294.66 L 253.29 294.66 L 254.79 294.66 L 256.29 294.66 L 262.28 289.58 L 263.77 278.81 L 265.27 281.44 L 266.77 281.44 L 266.77 281.44 L 272.75 268.14 L 274.25 270.68 L 275.75 261.27 L 281.74 215.85 L 283.23 197.03 L 284.73 207.80 L 286.23 215.85 L 287.72 238.56 L 292.22 225.17 L 293.71 218.47 L 295.21 239.92 L 296.71 250.17 L 302.69 250.17 L 304.19 238.56 L 305.69 249.32 L 307.19 260.00 L 308.68 272.03 L 314.67 280.08 L 316.17 269.41 L 317.66 258.73 L 319.16 251.44 L 323.65 257.37 L 326.65 260.00 L 328.14 258.73 L 334.13 260.00 L 334.13 260.00 L 334.13 260.00 L 334.13 260.00 L 334.13 260.00 L 334.13 260.00 L 334.13 260.00 L 334.13 260.00 L 334.13 260.00 L 334.13 260.00 L 334.13 260.00 L 334.13 260.00 L 344.61 280.08 L 347.60 282.71 L 349.10 301.53 L 350.60 304.07 L 355.09 301.27 L 356.59 301.27 L 358.08 290.85 L 359.58 294.66 L 361.08 278.81 L 365.57 270.68 L 365.57 270.68 L 367.07 270.68 L 370.06 281.44 L 370.06 281.44 L 377.54 278.81 L 379.04 260.00 L 380.54 260.00 L 386.53 246.19 L 389.52 234.58 L 389.52 234.58 L 392.51 247.54 L 398.50 215.85 L 398.50 215.85 L 398.50 215.85 L 398.50 215.85 L 398.50 215.85 L 398.50 215.85 L 398.50 215.85 L 398.50 215.85 L 398.50 215.85 L 402.99 215.85 L 411.98 202.37 L 417.96 203.73 L 420.96 203.73 L 422.46 203.73 L 422.46 203.73 L 429.94 203.73 L 431.44 203.73 L 431.44 203.73 L 431.44 203.73 L 431.44 203.73 L 449.40 203.73 L 450.90 203.73 L 459.88 118.81 L 461.38 102.97 L 461.38 102.97 L 519.76 155.34 L 522.75 155.34 L 524.25 155.34 L 527.25 174.15 L 528.74 175.51 L 528.74 175.51 L 534.73 175.51 L 536.23 175.51 L 537.72 175.51 L 539.22 175.51 L 543.71 175.51 L 545.21 175.51 L 548.20 175.51 L 549.70 175.51 L 554.19 175.51 L 555.69 175.51 L 555.69 175.51 L 560.18 175.51 L 564.67 175.51 L 566.17 175.51 L 567.66 175.51 L 569.16 175.51 L 570.66 175.51 L 576.65 156.36 L 578.14 145.93 L 579.64 144.58 L 581.14 147.37 L 585.63 147.37 L 587.13 147.37 L 587.13 147.37 L 590.12 167.46 L 591.62 167.46 L 596.11 167.46 L 597.60 167.46 L 599.10 167.46 L 600.60 167.46 L 602.10 167.46 L 602.10 167.46 L 608.08 167.46 L 608.08 167.46 L 609.58 167.46 L 612.57 167.46 L 617.07 167.46 L 618.56 167.46 L 621.56 167.46 L 623.05 167.46 L 629.04 167.46 L 630.54 167.46 L 632.04 167.46 L 633.53 190.34 L 638.02 188.98 L 639.52 156.69 L 641.02 158.05 L 641.02 158.05 L 644.01 156.69 L 648.50 135.17 L 650.00 135.17" /><text  class="poloto_text poloto_legend_text" x="675" y="200" >Refinance 30</text><line  class="poloto_line poloto_legend_icon poloto2stroke poloto2legend" stroke="black" x1="680" x2="730" y1="181.25" y2="181.25" /><path  class="poloto_line poloto2stroke" fill="none" stroke="black" d=" M 150.00 343.31 L 151.50 351.36 L 155.99 338.81 L 157.49 328.98 L 158.98 330.85 L 158.98 330.85 L 161.98 310.25 L 166.47 308.47 L 167.96 319.15 L 169.46 307.54 L 170.96 318.22 L 172.46 297.71 L 176.95 307.54 L 178.44 286.95 L 179.94 286.95 L 181.44 286.02 L 182.93 260.00 L 187.43 264.58 L 188.92 276.27 L 190.42 286.95 L 191.92 277.20 L 193.41 265.51 L 199.40 256.61 L 200.90 242.12 L 202.40 240.17 L 203.89 238.14 L 208.38 242.12 L 209.88 258.73 L 212.87 256.61 L 214.37 254.66 L 218.86 244.07 L 220.36 255.59 L 221.86 244.07 L 221.86 244.07 L 224.85 244.07 L 229.34 246.02 L 230.84 264.58 L 230.84 264.58 L 232.34 255.59 L 233.83 256.61 L 235.33 257.54 L 239.82 265.51 L 241.32 256.61 L 242.81 256.61 L 242.81 256.61 L 244.31 266.44 L 245.81 267.46 L 250.30 268.39 L 251.80 277.20 L 253.29 277.20 L 254.79 279.07 L 256.29 279.07 L 262.28 275.25 L 263.77 264.58 L 265.27 266.44 L 266.77 265.51 L 266.77 265.51 L 272.75 255.59 L 274.25 255.59 L 275.75 245.00 L 281.74 202.12 L 283.23 171.78 L 284.73 190.34 L 286.23 202.12 L 287.72 212.80 L 292.22 203.05 L 293.71 202.12 L 295.21 221.61 L 296.71 223.56 L 302.69 223.56 L 304.19 211.86 L 305.69 221.61 L 307.19 232.29 L 308.68 255.59 L 314.67 256.61 L 316.17 245.00 L 317.66 224.58 L 319.16 221.61 L 323.65 241.10 L 326.65 223.56 L 328.14 222.54 L 334.13 242.12 L 334.13 242.12 L 334.13 242.12 L 334.13 242.12 L 334.13 242.12 L 334.13 242.12 L 337.13 242.12 L 337.13 242.12 L 337.13 242.12 L 337.13 242.12 L 337.13 242.12 L 337.13 242.12 L 344.61 254.66 L 347.60 256.61 L 349.10 275.25 L 350.60 287.88 L 355.09 286.95 L 356.59 286.95 L 358.08 265.51 L 359.58 268.39 L 361.08 254.66 L 365.57 265.51 L 365.57 265.51 L 367.07 257.54 L 370.06 266.44 L 370.06 266.44 L 377.54 264.58 L 379.04 246.02 L 380.54 245.00 L 386.53 220.59 L 389.52 211.86 L 389.52 211.86 L 392.51 222.54 L 398.50 210.85 L 398.50 210.85 L 398.50 210.85 L 398.50 210.85 L 398.50 210.85 L 398.50 210.85 L 398.50 210.85 L 398.50 210.85 L 402.99 210.85 L 402.99 209.83 L 411.98 197.03 L 417.96 175.51 L 417.96 175.51 L 422.46 175.51 L 422.46 175.51 L 429.94 175.51 L 431.44 175.51 L 431.44 175.51 L 431.44 175.51 L 431.44 175.51 L 449.40 175.51 L 450.90 175.51 L 459.88 127.03 L 461.38 100.00 L 461.38 100.00 L 519.76 146.44 L 522.75 146.44 L 524.25 146.44 L 525.75 150.76 L 528.74 160.59 L 528.74 160.59 L 534.73 160.59 L 536.23 160.59 L 537.72 160.59 L 539.22 160.59 L 543.71 160.59 L 545.21 160.59 L 548.20 160.59 L 549.70 160.59 L 554.19 160.59 L 555.69 160.59 L 555.69 160.59 L 560.18 160.59 L 564.67 160.59 L 566.17 160.59 L 567.66 160.59 L 569.16 160.59 L 570.66 160.59 L 576.65 144.24 L 578.14 152.88 L 579.64 132.37 L 581.14 152.88 L 585.63 152.88 L 587.13 152.88 L 587.13 152.88 L 590.12 152.88 L 591.62 152.88 L 596.11 152.88 L 597.60 152.88 L 599.10 152.88 L 600.60 152.88 L 602.10 152.88 L 602.10 152.88 L 608.08 152.88 L 608.08 152.88 L 609.58 152.88 L 612.57 152.88 L 617.07 152.88 L 618.56 152.88 L 621.56 152.88 L 623.05 152.88 L 629.04 152.88 L 630.54 152.88 L 632.04 152.88 L 633.53 207.80 L 638.02 197.03 L 639.52 153.98 L 641.02 186.27 L 642.51 153.98 L 644.01 143.14 L 648.50 132.37 L 650.00 132.37" /><text  class="poloto_labels poloto_text poloto_title" x="400" y="37.5" >lower.com purchase rates</text><text  class="poloto_labels poloto_text poloto_xname" x="400" y="481.25" >Date</text><text  class="poloto_labels poloto_text poloto_yname" transform="rotate(-90,37.5,250)" x="37.5" y="250" >Rate (%)</text><text  class="poloto_tick_labels poloto_text" dominant-baseline="middle" text-anchor="start" x="150" y="70" ></text><line  class="poloto_axis_lines" stroke="black" x1="150" x2="144" y1="390.2542372881356" y2="390.2542372881356" /><line  class="poloto_tick_line" stroke="black" x1="150" x2="650" y1="390.2542372881356" y2="390.2542372881356" /><text  class="poloto_tick_labels poloto_text" dominant-baseline="middle" text-anchor="end" x="135" y="390.2542372881356" >3.625</text><line  class="poloto_axis_lines" stroke="black" x1="150" x2="144" y1="379.66101694915255" y2="379.66101694915255" /><line  class="poloto_tick_line" stroke="black" x1="150" x2="650" y1="379.66101694915255" y2="379.66101694915255" /><text  class="poloto_tick_labels poloto_text" dominant-baseline="middle" text-anchor="end" x="135" y="379.66101694915255" >3.75</text><line  class="poloto_axis_lines" stroke="black" x1="150" x2="144" y1="369.06779661016947" y2="369.06779661016947" /><line  class="poloto_tick_line" stroke="black" x1="150" x2="650" y1="369.06779661016947" y2="369.06779661016947" /><text  class="poloto_tick_labels poloto_text" dominant-baseline="middle" text-anchor="end" x="135" y="369.06779661016947" >3.875</text><line  class="poloto_axis_lines" stroke="black" x1="150" x2="144" y1="358.47457627118644" y2="358.47457627118644" /><line  class="poloto_tick_line" stroke="black" x1="150" x2="650" y1="358.47457627118644" y2="358.47457627118644" /><text  class="poloto_tick_labels poloto_text" dominant-baseline="middle" text-anchor="end" x="135" y="358.47457627118644" >4</text><line  class="poloto_axis_lines" stroke="black" x1="150" x2="144" y1="347.8813559322034" y2="347.8813559322034" /><line  class="poloto_tick_line" stroke="black" x1="150" x2="650" y1="347.8813559322034" y2="347.8813559322034" /><text  class="poloto_tick_labels poloto_text" dominant-baseline="middle" text-anchor="end" x="135" y="347.8813559322034" >4.125</text><line  class="poloto_axis_lines" stroke="black" x1="150" x2="144" y1="337.2881355932203" y2="337.2881355932203" /><line  class="poloto_tick_line" stroke="black" x1="150" x2="650" y1="337.2881355932203" y2="337.2881355932203" /><text  class="poloto_tick_labels poloto_text" dominant-baseline="middle" text-anchor="end" x="135" y="337.2881355932203" >4.25</text><line  class="poloto_axis_lines" stroke="black" x1="150" x2="144" y1="326.6949152542373" y2="326.6949152542373" /><line  class="poloto_tick_line" stroke="black" x1="150" x2="650" y1="326.6949152542373" y2="326.6949152542373" /><text  class="poloto_tick_labels poloto_text" dominant-baseline="middle" text-anchor="end" x="135" y="326.6949152542373" >4.375</text><line  class="poloto_axis_lines" stroke="black" x1="150" x2="144" y1="316.10169491525426" y2="316.10169491525426" /><line  class="poloto_tick_line" stroke="black" x1="150" x2="650" y1="316.10169491525426" y2="316.10169491525426" /><text  class="poloto_tick_labels poloto_text" dominant-baseline="middle" text-anchor="end" x="135" y="316.10169491525426" >4.5</text><line  class="poloto_axis_lines" stroke="black" x1="150" x2="144" y1="305.50847457627117" y2="305.50847457627117" /><line  class="poloto_tick_line" stroke="black" x1="150" x2="650" y1="305.50847457627117" y2="305.50847457627117" /><text  class="poloto_tick_labels poloto_text" dominant-baseline="middle" text-anchor="end" x="135" y="305.50847457627117" >4.625</text><line  class="poloto_axis_lines" stroke="black" x1="150" x2="144" y1="294.91525423728814" y2="294.91525423728814" /><line  class="poloto_tick_line" stroke="black" x1="150" x2="650" y1="294.91525423728814" y2="294.91525423728814" /><text  class="poloto_tick_labels poloto_text" dominant-baseline="middle" text-anchor="end" x="135" y="294.91525423728814" >4.75</text><line  class="poloto_axis_lines" stroke="black" x1="150" x2="144" y1="284.3220338983051" y2="284.3220338983051" /><line  class="poloto_tick_line" stroke="black" x1="150" x2="650" y1="284.3220338983051" y2="284.3220338983051" /><text  class="poloto_tick_labels poloto_text" dominant-baseline="middle" text-anchor="end" x="135" y="284.3220338983051" >4.875</text><line  class="poloto_axis_lines" stroke="black" x1="150" x2="144" y1="273.728813559322" y2="273.728813559322" /><line  class="poloto_tick_line" stroke="black" x1="150" x2="650" y1="273.728813559322" y2="273.728813559322" /><text  class="poloto_tick_labels poloto_text" dominant-baseline="middle" text-anchor="end" x="135" y="273.728813559322" >5</text><line  class="poloto_axis_lines" stroke="black" x1="150" x2="144" y1="263.135593220339" y2="263.135593220339" /><line  class="poloto_tick_line" stroke="black" x1="150" x2="650" y1="263.135593220339" y2="263.135593220339" /><text  class="poloto_tick_labels poloto_text" dominant-baseline="middle" text-anchor="end" x="135" y="263.135593220339" >5.125</text><line  class="poloto_axis_lines" stroke="black" x1="150" x2="144" y1="252.54237288135596" y2="252.54237288135596" /><line  class="poloto_tick_line" stroke="black" x1="150" x2="650" y1="252.54237288135596" y2="252.54237288135596" /><text  class="poloto_tick_labels poloto_text" dominant-baseline="middle" text-anchor="end" x="135" y="252.54237288135596" >5.25</text><line  class="poloto_axis_lines" stroke="black" x1="150" x2="144" y1="241.94915254237287" y2="241.94915254237287" /><line  class="poloto_tick_line" stroke="black" x1="150" x2="650" y1="241.94915254237287" y2="241.94915254237287" /><text  class="poloto_tick_labels poloto_text" dominant-baseline="middle" text-anchor="end" x="135" y="241.94915254237287" >5.375</text><line  class="poloto_axis_lines" stroke="black" x1="150" x2="144" y1="231.35593220338984" y2="231.35593220338984" /><line  class="poloto_tick_line" stroke="black" x1="150" x2="650" y1="231.35593220338984" y2="231.35593220338984" /><text  class="poloto_tick_labels poloto_text" dominant-baseline="middle" text-anchor="end" x="135" y="231.35593220338984" >5.5</text><line  class="poloto_axis_lines" stroke="black" x1="150" x2="144" y1="220.7627118644068" y2="220.7627118644068" /><line  class="poloto_tick_line" stroke="black" x1="150" x2="650" y1="220.7627118644068" y2="220.7627118644068" /><text  class="poloto_tick_labels poloto_text" dominant-baseline="middle" text-anchor="end" x="135" y="220.7627118644068" >5.625</text><line  class="poloto_axis_lines" stroke="black" x1="150" x2="144" y1="210.16949152542372" y2="210.16949152542372" /><line  class="poloto_tick_line" stroke="black" x1="150" x2="650" y1="210.16949152542372" y2="210.16949152542372" /><text  class="poloto_tick_labels poloto_text" dominant-baseline="middle" text-anchor="end" x="135" y="210.16949152542372" >5.75</text><line  class="poloto_axis_lines" stroke="black" x1="150" x2="144" y1="199.5762711864407" y2="199.5762711864407" /><line  class="poloto_tick_line" stroke="black" x1="150" x2="650" y1="199.5762711864407" y2="199.5762711864407" /><text  class="poloto_tick_labels poloto_text" dominant-baseline="middle" text-anchor="end" x="135" y="199.5762711864407" >5.875</text><line  class="poloto_axis_lines" stroke="black" x1="150" x2="144" y1="188.98305084745766" y2="188.98305084745766" /><line  class="poloto_tick_line" stroke="black" x1="150" x2="650" y1="188.98305084745766" y2="188.98305084745766" /><text  class="poloto_tick_labels poloto_text" dominant-baseline="middle" text-anchor="end" x="135" y="188.98305084745766" >6</text><line  class="poloto_axis_lines" stroke="black" x1="150" x2="144" y1="178.38983050847457" y2="178.38983050847457" /><line  class="poloto_tick_line" stroke="black" x1="150" x2="650" y1="178.38983050847457" y2="178.38983050847457" /><text  class="poloto_tick_labels poloto_text" dominant-baseline="middle" text-anchor="end" x="135" y="178.38983050847457" >6.125</text><line  class="poloto_axis_lines" stroke="black" x1="150" x2="144" y1="167.7966101694915" y2="167.7966101694915" /><line  class="poloto_tick_line" stroke="black" x1="150" x2="650" y1="167.7966101694915" y2="167.7966101694915" /><text  class="poloto_tick_labels poloto_text" dominant-baseline="middle" text-anchor="end" x="135" y="167.7966101694915" >6.25</text><line  class="poloto_axis_lines" stroke="black" x1="150" x2="144" y1="157.2033898305085" y2="157.2033898305085" /><line  class="poloto_tick_line" stroke="black" x1="150" x2="650" y1="157.2033898305085" y2="157.2033898305085" /><text  class="poloto_tick_labels poloto_text" dominant-baseline="middle" text-anchor="end" x="135" y="157.2033898305085" >6.375</text><line  class="poloto_axis_lines" stroke="black" x1="150" x2="144" y1="146.61016949152543" y2="146.61016949152543" /><line  class="poloto_tick_line" stroke="black" x1="150" x2="650" y1="146.61016949152543" y2="146.61016949152543" /><text  class="poloto_tick_labels poloto_text" dominant-baseline="middle" text-anchor="end" x="135" y="146.61016949152543" >6.5</text><line  class="poloto_axis_lines" stroke="black" x1="150" x2="144" y1="136.01694915254234" y2="136.01694915254234" /><line  class="poloto_tick_line" stroke="black" x1="150" x2="650" y1="136.01694915254234" y2="136.01694915254234" /><text  class="poloto_tick_labels poloto_text" dominant-baseline="middle" text-anchor="end" x="135" y="136.01694915254234" >6.625</text><line  class="poloto_axis_lines" stroke="black" x1="150" x2="144" y1="125.42372881355936" y2="125.42372881355936" /><line  class="poloto_tick_line" stroke="black" x1="150" x2="650" y1="125.42372881355936" y2="125.42372881355936" /><text  class="poloto_tick_labels poloto_text" dominant-baseline="middle" text-anchor="end" x="135" y="125.42372881355936" >6.75</text><line  class="poloto_axis_lines" stroke="black" x1="150" x2="144" y1="114.83050847457628" y2="114.83050847457628" /><line  class="poloto_tick_line" stroke="black" x1="150" x2="650" y1="114.83050847457628" y2="114.83050847457628" /><text  class="poloto_tick_labels poloto_text" dominant-baseline="middle" text-anchor="end" x="135" y="114.83050847457628" >6.875</text><line  class="poloto_axis_lines" stroke="black" x1="150" x2="144" y1="104.23728813559319" y2="104.23728813559319" /><line  class="poloto_tick_line" stroke="black" x1="150" x2="650" y1="104.23728813559319" y2="104.23728813559319" /><text  class="poloto_tick_labels poloto_text" dominant-baseline="middle" text-anchor="end" x="135" y="104.23728813559319" >7</text><text  class="poloto_tick_labels poloto_text" dominant-baseline="middle" text-anchor="start" x="440.00000000000006" y="70" >¹2022-05-01 00:00:00 UTC in Months</text><line  class="poloto_axis_lines" stroke="black" x1="217.36526946107915" x2="217.36526946107915" y1="400" y2="405" /><line  class="poloto_tick_line" stroke="black" x1="217.36526946107915" x2="217.36526946107915" y1="400" y2="100" /><text  class="poloto_tick_labels poloto_text" dominant-baseline="start" text-anchor="middle" x="217.36526946107915" y="430" >2022 May¹</text><line  class="poloto_axis_lines" stroke="black" x1="308.6826347305396" x2="308.6826347305396" y1="400" y2="405" /><line  class="poloto_tick_line" stroke="black" x1="308.6826347305396" x2="308.6826347305396" y1="400" y2="100" /><text  class="poloto_tick_labels poloto_text" dominant-baseline="start" text-anchor="middle" x="308.6826347305396" y="430" >2022 Jul</text><line  class="poloto_axis_lines" stroke="black" x1="401.4970059880252" x2="401.4970059880252" y1="400" y2="405" /><line  class="poloto_tick_line" stroke="black" x1="401.4970059880252" x2="401.4970059880252" y1="400" y2="100" /><text  class="poloto_tick_labels poloto_text" dominant-baseline="start" text-anchor="middle" x="401.4970059880252" y="430" >2022 Sep</text><line  class="poloto_axis_lines" stroke="black" x1="492.8143712574856" x2="492.8143712574856" y1="400" y2="405" /><line  class="poloto_tick_line" stroke="black" x1="492.8143712574856" x2="492.8143712574856" y1="400" y2="100" /><text  class="poloto_tick_labels poloto_text" dominant-baseline="start" text-anchor="middle" x="492.8143712574856" y="430" >2022 Nov</text><line  class="poloto_axis_lines" stroke="black" x1="584.131736526946" x2="584.131736526946" y1="400" y2="405" /><line  class="poloto_tick_line" stroke="black" x1="584.131736526946" x2="584.131736526946" y1="400" y2="100" /><text  class="poloto_tick_labels poloto_text" dominant-baseline="start" text-anchor="middle" x="584.131736526946" y="430" >2023 Jan</text><path  stroke="black" fill="none" class="poloto_axis_lines" d=" M 150 400 L 650 400" /><path  stroke="black" fill="none" class="poloto_axis_lines" d=" M 150 400 L 150 100" /></svg>