<svg class="poloto" width="800" height="500" viewBox="0 0 800 500" xmlns="http://www.w3.org/2000/svg"><style>.poloto{stroke-linecap:round;stroke-linejoin:round;font-family:Roboto,sans-serif;font-size:16px;}.poloto_background{fill:#262626;}.poloto_scatter{stroke-width:7}.poloto_tick_line{stroke:dimgray;stroke-width:0.5}.poloto_line{stroke-width:2}.poloto_text{fill: white;}.poloto_axis_lines{stroke: white;stroke-width:3;fill:none;stroke-dasharray:none}.poloto_title{font-size:24px;dominant-baseline:start;text-anchor:middle;}.poloto_xname{font-size:24px;dominant-baseline:start;text-anchor:middle;}.poloto_yname{font-size:24px;dominant-baseline:start;text-anchor:middle;}.poloto0stroke{stroke:blue;}.poloto1stroke{stroke:red;}.poloto2stroke{stroke:green;}.poloto3stroke{stroke:gold;}.poloto4stroke{stroke:aqua;}.poloto5stroke{stroke:lime;}.poloto6stroke{stroke:orange;}.poloto7stroke{stroke:chocolate;}.poloto0fill{fill:blue;}.poloto1fill{fill:red;}.poloto2fill{fill:green;}.poloto3fill{fill:gold;}.poloto4fill{fill:aqua;}.poloto5fill{fill:lime;}.poloto6fill{fill:orange;}.poloto7fill{fill:chocolate;}</style><circle  r="1e5" class="poloto_background" /><text  class="poloto_text poloto_legend_text" x="675" y="100" >Refinance 15</text><line  class="poloto_line poloto_legend_icon poloto0stroke poloto0legend" stroke="black" x1="680" x2="730" y1="81.25" y2="81.25" /><path  class="poloto_line poloto0stroke" fill="none" stroke="black" d=" M 150.00 392.46 L 151.45 400.00 L 155.81 389.32 L 157.27 380.17 L 158.72 389.32 L 158.72 389.32 L 161.63 358.81 L 165.99 357.20 L 167.44 367.88 L 168.90 344.83 L 170.35 346.44 L 171.80 341.61 L 176.16 343.22 L 177.62 336.78 L 177.62 336.78 L 180.52 337.37 L 181.98 314.32 L 186.34 324.32 L 187.79 327.54 L 189.24 327.54 L 190.70 326.69 L 192.15 321.78 L 197.97 278.73 L 199.42 297.88 L 200.87 283.05 L 202.33 277.29 L 202.33 277.29 L 208.14 299.58 L 211.05 303.64 L 212.50 294.58 L 216.86 283.81 L 218.31 305.25 L 219.77 294.58 L 219.77 294.58 L 222.67 292.88 L 227.03 296.19 L 228.49 306.86 L 228.49 306.86 L 229.94 297.80 L 231.40 308.56 L 232.85 292.88 L 237.21 325.08 L 238.66 324.32 L 240.12 306.86 L 240.12 306.86 L 241.57 314.32 L 243.02 317.63 L 247.38 317.63 L 248.84 329.15 L 250.29 329.15 L 251.74 329.15 L 253.20 329.15 L 259.01 317.63 L 260.47 314.32 L 261.92 315.93 L 263.37 315.93 L 263.37 315.93 L 269.19 305.25 L 270.64 305.25 L 272.09 296.19 L 277.91 281.36 L 279.36 250.76 L 280.81 254.15 L 282.27 254.15 L 283.72 275.59 L 288.08 254.15 L 289.53 254.15 L 290.99 273.90 L 292.44 277.29 L 298.26 277.29 L 299.71 275.59 L 301.16 280.59 L 302.62 285.51 L 304.07 296.19 L 309.88 303.64 L 311.34 294.58 L 312.79 287.12 L 314.24 283.81 L 318.60 285.51 L 321.51 285.51 L 322.97 283.81 L 328.78 282.20 L 328.78 282.20 L 328.78 282.20 L 328.78 282.20 L 328.78 282.20 L 328.78 282.20 L 331.69 282.20 L 331.69 282.20 L 331.69 282.20 L 331.69 282.20 L 331.69 282.20 L 331.69 282.20 L 338.95 294.58 L 341.86 297.80 L 343.31 325.93 L 344.77 329.15 L 349.13 329.15 L 350.58 327.54 L 352.03 305.25 L 353.49 299.49 L 354.94 285.51 L 359.30 296.19 L 359.30 296.19 L 360.76 287.12 L 363.66 296.19 L 363.66 296.19 L 370.93 296.19 L 372.38 262.46 L 373.84 282.20 L 379.65 248.39 L 382.56 248.39 L 382.56 248.39 L 385.47 260.76 L 391.28 254.15 L 391.28 254.15 L 391.28 254.15 L 391.28 254.15 L 391.28 254.15 L 391.28 254.15 L 391.28 254.15 L 391.28 254.15 L 391.28 254.15 L 395.64 254.15 L 404.36 232.63 L 410.17 235.17 L 410.17 235.17 L 414.53 235.17 L 420.35 235.17 L 421.80 235.17 L 421.80 235.17 L 421.80 235.17 L 421.80 235.17 L 421.80 235.17 L 440.70 235.17 L 442.15 235.17 L 450.87 139.75 L 452.33 130.68 L 453.78 130.68 L 506.10 159.15 L 511.92 159.15 L 513.37 159.15 L 514.83 175.51 L 517.73 184.49 L 517.73 184.49 L 523.55 184.49 L 525.00 184.49 L 526.45 184.49 L 527.91 184.49 L 532.27 184.49 L 533.72 184.49 L 536.63 184.49 L 538.08 184.49 L 542.44 184.49 L 543.90 184.49 L 543.90 184.49 L 548.26 184.49 L 552.62 184.49 L 554.07 184.49 L 555.52 184.49 L 556.98 184.49 L 558.43 184.49 L 564.24 209.15 L 565.70 180.68 L 567.15 159.15 L 568.60 169.92 L 572.97 169.92 L 574.42 169.92 L 574.42 169.92 L 577.33 193.05 L 578.78 193.05 L 583.14 193.05 L 584.59 193.05 L 586.05 193.05 L 587.50 193.05 L 588.95 193.05 L 588.95 193.05 L 588.95 193.05 L 588.95 193.05 L 596.22 193.05 L 599.13 193.05 L 603.49 193.05 L 604.94 193.05 L 607.85 193.05 L 609.30 193.05 L 615.12 193.05 L 616.57 193.05 L 618.02 193.05 L 619.48 223.56 L 623.84 230.34 L 625.29 191.36 L 626.74 203.81 L 628.20 202.12 L 629.65 182.37 L 634.01 137.71 L 635.47 137.71 L 636.92 137.71 L 638.37 139.41 L 639.83 148.39 L 644.19 139.41 L 645.64 139.41 L 647.09 126.95 L 648.55 137.71 L 650.00 116.19" /><text  class="poloto_text poloto_legend_text" x="675" y="150" >Refinance 20</text><line  class="poloto_line poloto_legend_icon poloto1stroke poloto1legend" stroke="black" x1="680" x2="730" y1="131.25" y2="131.25" /><path  class="poloto_line poloto1stroke" fill="none" stroke="black" d=" M 150.00 345.68 L 151.45 368.31 L 155.81 334.58 L 157.27 324.24 L 158.72 333.73 L 158.72 333.73 L 161.63 304.07 L 165.99 301.53 L 167.44 312.29 L 168.90 300.25 L 170.35 311.02 L 171.80 290.85 L 176.16 321.69 L 177.62 290.85 L 177.62 290.85 L 180.52 290.85 L 180.52 290.85 L 186.34 250.17 L 187.79 282.71 L 189.24 290.85 L 190.70 301.53 L 192.15 280.59 L 197.97 260.00 L 199.42 257.37 L 200.87 252.12 L 202.33 240.08 L 206.69 245.34 L 208.14 268.14 L 211.05 260.00 L 212.50 257.37 L 216.86 248.81 L 218.31 258.73 L 219.77 258.73 L 219.77 258.73 L 222.67 258.73 L 227.03 260.00 L 228.49 281.44 L 228.49 281.44 L 229.94 269.41 L 231.40 289.58 L 232.85 281.44 L 237.21 282.71 L 238.66 281.44 L 240.12 281.44 L 240.12 281.44 L 241.57 282.71 L 243.02 289.58 L 247.38 290.85 L 248.84 294.66 L 250.29 294.66 L 251.74 294.66 L 253.20 294.66 L 259.01 289.58 L 260.47 278.81 L 261.92 281.44 L 263.37 281.44 L 263.37 281.44 L 269.19 268.14 L 270.64 270.68 L 272.09 261.27 L 277.91 215.85 L 279.36 197.03 L 280.81 207.80 L 282.27 215.85 L 283.72 238.56 L 288.08 225.17 L 289.53 218.47 L 290.99 239.92 L 292.44 250.17 L 298.26 250.17 L 299.71 238.56 L 301.16 249.32 L 302.62 260.00 L 304.07 272.03 L 309.88 280.08 L 311.34 269.41 L 312.79 258.73 L 314.24 251.44 L 318.60 257.37 L 321.51 260.00 L 322.97 258.73 L 328.78 260.00 L 328.78 260.00 L 328.78 260.00 L 328.78 260.00 L 328.78 260.00 L 328.78 260.00 L 328.78 260.00 L 328.78 260.00 L 328.78 260.00 L 328.78 260.00 L 328.78 260.00 L 328.78 260.00 L 338.95 280.08 L 341.86 282.71 L 343.31 301.53 L 344.77 304.07 L 349.13 301.27 L 350.58 301.27 L 352.03 290.85 L 353.49 294.66 L 354.94 278.81 L 359.30 270.68 L 359.30 270.68 L 360.76 270.68 L 363.66 281.44 L 363.66 281.44 L 370.93 278.81 L 372.38 260.00 L 373.84 260.00 L 379.65 246.19 L 382.56 234.58 L 382.56 234.58 L 385.47 247.54 L 391.28 215.85 L 391.28 215.85 L 391.28 215.85 L 391.28 215.85 L 391.28 215.85 L 391.28 215.85 L 391.28 215.85 L 391.28 215.85 L 391.28 215.85 L 395.64 215.85 L 404.36 202.37 L 410.17 203.73 L 413.08 203.73 L 414.53 203.73 L 414.53 203.73 L 421.80 203.73 L 423.26 203.73 L 423.26 203.73 L 423.26 203.73 L 423.26 203.73 L 440.70 203.73 L 442.15 203.73 L 450.87 118.81 L 452.33 102.97 L 452.33 102.97 L 509.01 155.34 L 511.92 155.34 L 513.37 155.34 L 516.28 174.15 L 517.73 175.51 L 517.73 175.51 L 523.55 175.51 L 525.00 175.51 L 526.45 175.51 L 527.91 175.51 L 532.27 175.51 L 533.72 175.51 L 536.63 175.51 L 538.08 175.51 L 542.44 175.51 L 543.90 175.51 L 543.90 175.51 L 548.26 175.51 L 552.62 175.51 L 554.07 175.51 L 555.52 175.51 L 556.98 175.51 L 558.43 175.51 L 564.24 156.36 L 565.70 145.93 L 567.15 144.58 L 568.60 147.37 L 572.97 147.37 L 574.42 147.37 L 574.42 147.37 L 577.33 167.46 L 578.78 167.46 L 583.14 167.46 L 584.59 167.46 L 586.05 167.46 L 587.50 167.46 L 588.95 167.46 L 588.95 167.46 L 594.77 167.46 L 594.77 167.46 L 596.22 167.46 L 599.13 167.46 L 603.49 167.46 L 604.94 167.46 L 607.85 167.46 L 609.30 167.46 L 615.12 167.46 L 616.57 167.46 L 618.02 167.46 L 619.48 190.34 L 623.84 188.98 L 625.29 156.69 L 626.74 158.05 L 626.74 158.05 L 629.65 156.69 L 634.01 135.17 L 635.47 135.17 L 636.92 125.85 L 638.37 115.08 L 639.83 124.49 L 644.19 115.08 L 645.64 104.32 L 647.09 115.08 L 648.55 125.85 L 650.00 113.73" /><text  class="poloto_text poloto_legend_text" x="675" y="200" >Refinance 30</text><line  class="poloto_line poloto_legend_icon poloto2stroke poloto2legend" stroke="black" x1="680" x2="730" y1="181.25" y2="181.25" /><path  class="poloto_line poloto2stroke" fill="none" stroke="black" d=" M 150.00 343.31 L 151.45 351.36 L 155.81 338.81 L 157.27 328.98 L 158.72 330.85 L 158.72 330.85 L 161.63 310.25 L 165.99 308.47 L 167.44 319.15 L 168.90 307.54 L 170.35 318.22 L 171.80 297.71 L 176.16 307.54 L 177.62 286.95 L 179.07 286.95 L 180.52 286.02 L 181.98 260.00 L 186.34 264.58 L 187.79 276.27 L 189.24 286.95 L 190.70 277.20 L 192.15 265.51 L 197.97 256.61 L 199.42 242.12 L 200.87 240.17 L 202.33 238.14 L 206.69 242.12 L 208.14 258.73 L 211.05 256.61 L 212.50 254.66 L 216.86 244.07 L 218.31 255.59 L 219.77 244.07 L 219.77 244.07 L 222.67 244.07 L 227.03 246.02 L 228.49 264.58 L 228.49 264.58 L 229.94 255.59 L 231.40 256.61 L 232.85 257.54 L 237.21 265.51 L 238.66 256.61 L 240.12 256.61 L 240.12 256.61 L 241.57 266.44 L 243.02 267.46 L 247.38 268.39 L 248.84 277.20 L 250.29 277.20 L 251.74 279.07 L 253.20 279.07 L 259.01 275.25 L 260.47 264.58 L 261.92 266.44 L 263.37 265.51 L 263.37 265.51 L 269.19 255.59 L 270.64 255.59 L 272.09 245.00 L 277.91 202.12 L 279.36 171.78 L 280.81 190.34 L 282.27 202.12 L 283.72 212.80 L 288.08 203.05 L 289.53 202.12 L 290.99 221.61 L 292.44 223.56 L 298.26 223.56 L 299.71 211.86 L 301.16 221.61 L 302.62 232.29 L 304.07 255.59 L 309.88 256.61 L 311.34 245.00 L 312.79 224.58 L 314.24 221.61 L 318.60 241.10 L 321.51 223.56 L 322.97 222.54 L 328.78 242.12 L 328.78 242.12 L 328.78 242.12 L 328.78 242.12 L 328.78 242.12 L 328.78 242.12 L 331.69 242.12 L 331.69 242.12 L 331.69 242.12 L 331.69 242.12 L 331.69 242.12 L 331.69 242.12 L 338.95 254.66 L 341.86 256.61 L 343.31 275.25 L 344.77 287.88 L 349.13 286.95 L 350.58 286.95 L 352.03 265.51 L 353.49 268.39 L 354.94 254.66 L 359.30 265.51 L 359.30 265.51 L 360.76 257.54 L 363.66 266.44 L 363.66 266.44 L 370.93 264.58 L 372.38 246.02 L 373.84 245.00 L 379.65 220.59 L 382.56 211.86 L 382.56 211.86 L 385.47 222.54 L 391.28 210.85 L 391.28 210.85 L 391.28 210.85 L 391.28 210.85 L 391.28 210.85 L 391.28 210.85 L 391.28 210.85 L 391.28 210.85 L 395.64 210.85 L 395.64 209.83 L 404.36 197.03 L 410.17 175.51 L 410.17 175.51 L 414.53 175.51 L 414.53 175.51 L 421.80 175.51 L 423.26 175.51 L 423.26 175.51 L 423.26 175.51 L 423.26 175.51 L 440.70 175.51 L 442.15 175.51 L 450.87 127.03 L 452.33 100.00 L 452.33 100.00 L 509.01 146.44 L 511.92 146.44 L 513.37 146.44 L 514.83 150.76 L 517.73 160.59 L 517.73 160.59 L 523.55 160.59 L 525.00 160.59 L 526.45 160.59 L 527.91 160.59 L 532.27 160.59 L 533.72 160.59 L 536.63 160.59 L 538.08 160.59 L 542.44 160.59 L 543.90 160.59 L 543.90 160.59 L 548.26 160.59 L 552.62 160.59 L 554.07 160.59 L 555.52 160.59 L 556.98 160.59 L 558.43 160.59 L 564.24 144.24 L 565.70 152.88 L 567.15 132.37 L 568.60 152.88 L 572.97 152.88 L 574.42 152.88 L 574.42 152.88 L 577.33 152.88 L 578.78 152.88 L 583.14 152.88 L 584.59 152.88 L 586.05 152.88 L 587.50 152.88 L 588.95 152.88 L 588.95 152.88 L 594.77 152.88 L 594.77 152.88 L 596.22 152.88 L 599.13 152.88 L 603.49 152.88 L 604.94 152.88 L 607.85 152.88 L 609.30 152.88 L 615.12 152.88 L 616.57 152.88 L 618.02 152.88 L 619.48 207.80 L 623.84 197.03 L 625.29 153.98 L 626.74 186.27 L 628.20 153.98 L 629.65 143.14 L 634.01 132.37 L 635.47 132.37 L 636.92 122.63 L 638.37 111.86 L 639.83 121.61 L 644.19 121.61 L 645.64 109.75 L 647.09 101.10 L 648.55 111.86 L 650.00 102.20" /><text  class="poloto_labels poloto_text poloto_title" x="400" y="37.5" >lower.com purchase rates</text><text  class="poloto_labels poloto_text poloto_xname" x="400" y="481.25" >Date</text><text  class="poloto_labels poloto_text poloto_yname" transform="rotate(-90,37.5,250)" x="37.5" y="250" >Rate (%)</text><text  class="poloto_tick_labels poloto_text" dominant-baseline="middle" text-anchor="start" x="150" y="70" ></text><line  class="poloto_axis_lines" stroke="black" x1="150" x2="144" y1="390.2542372881356" y2="390.2542372881356" /><line  class="poloto_tick_line" stroke="black" x1="150" x2="650" y1="390.2542372881356" y2="390.2542372881356" /><text  class="poloto_tick_labels poloto_text" dominant-baseline="middle" text-anchor="end" x="135" y="390.2542372881356" >3.625</text><line  class="poloto_axis_lines" stroke="black" x1="150" x2="144" y1="379.66101694915255" y2="379.66101694915255" /><line  class="poloto_tick_line" stroke="black" x1="150" x2="650" y1="379.66101694915255" y2="379.66101694915255" /><text  class="poloto_tick_labels poloto_text" dominant-baseline="middle" text-anchor="end" x="135" y="379.66101694915255" >3.75</text><line  class="poloto_axis_lines" stroke="black" x1="150" x2="144" y1="369.06779661016947" y2="369.06779661016947" /><line  class="poloto_tick_line" stroke="black" x1="150" x2="650" y1="369.06779661016947" y2="369.06779661016947" /><text  class="poloto_tick_labels poloto_text" dominant-baseline="middle" text-anchor="end" x="135" y="369.06779661016947" >3.875</text><line  class="poloto_axis_lines" stroke="black" x1="150" x2="144" y1="358.47457627118644" y2="358.47457627118644" /><line  class="poloto_tick_line" stroke="black" x1="150" x2="650" y1="358.47457627118644" y2="358.47457627118644" /><text  class="poloto_tick_labels poloto_text" dominant-baseline="middle" text-anchor="end" x="135" y="358.47457627118644" >4</text><line  class="poloto_axis_lines" stroke="black" x1="150" x2="144" y1="347.8813559322034" y2="347.8813559322034" /><line  class="poloto_tick_line" stroke="black" x1="150" x2="650" y1="347.8813559322034" y2="347.8813559322034" /><text  class="poloto_tick_labels poloto_text" dominant-baseline="middle" text-anchor="end" x="135" y="347.8813559322034" >4.125</text><line  class="poloto_axis_lines" stroke="black" x1="150" x2="144" y1="337.2881355932203" y2="337.2881355932203" /><line  class="poloto_tick_line" stroke="black" x1="150" x2="650" y1="337.2881355932203" y2="337.2881355932203" /><text  class="poloto_tick_labels poloto_text" dominant-baseline="middle" text-anchor="end" x="135" y="337.2881355932203" >4.25</text><line  class="poloto_axis_lines" stroke="black" x1="150" x2="144" y1="326.6949152542373" y2="326.6949152542373" /><line  class="poloto_tick_line" stroke="black" x1="150" x2="650" y1="326.6949152542373" y2="326.6949152542373" /><text  class="poloto_tick_labels poloto_text" dominant-baseline="middle" text-anchor="end" x="135" y="326.6949152542373" >4.375</text><line  class="poloto_axis_lines" stroke="black" x1="150" x2="144" y1="316.10169491525426" y2="316.10169491525426" /><line  class="poloto_tick_line" stroke="black" x1="150" x2="650" y1="316.10169491525426" y2="316.10169491525426" /><text  class="poloto_tick_labels poloto_text" dominant-baseline="middle" text-anchor="end" x="135" y="316.10169491525426" >4.5</text><line  class="poloto_axis_lines" stroke="black" x1="150" x2="144" y1="305.50847457627117" y2="305.50847457627117" /><line  class="poloto_tick_line" stroke="black" x1="150" x2="650" y1="305.50847457627117" y2="305.50847457627117" /><text  class="poloto_tick_labels poloto_text" dominant-baseline="middle" text-anchor="end" x="135" y="305.50847457627117" >4.625</text><line  class="poloto_axis_lines" stroke="black" x1="150" x2="144" y1="294.91525423728814" y2="294.91525423728814" /><line  class="poloto_tick_line" stroke="black" x1="150" x2="650" y1="294.91525423728814" y2="294.91525423728814" /><text  class="poloto_tick_labels poloto_text" dominant-baseline="middle" text-anchor="end" x="135" y="294.91525423728814" >4.75</text><line  class="poloto_axis_lines" stroke="black" x1="150" x2="144" y1="284.3220338983051" y2="284.3220338983051" /><line  class="poloto_tick_line" stroke="black" x1="150" x2="650" y1="284.3220338983051" y2="284.3220338983051" /><text  class="poloto_tick_labels poloto_text" dominant-baseline="middle" text-anchor="end" x="135" y="284.3220338983051" >4.875</text><line  class="poloto_axis_lines" stroke="black" x1="150" x2="144" y1="273.728813559322" y2="273.728813559322" /><line  class="poloto_tick_line" stroke="black" x1="150" x2="650" y1="273.728813559322" y2="273.728813559322" /><text  class="poloto_tick_labels poloto_text" dominant-baseline="middle" text-anchor="end" x="135" y="273.728813559322" >5</text><line  class="poloto_axis_lines" stroke="black" x1="150" x2="144" y1="263.135593220339" y2="263.135593220339" /><line  class="poloto_tick_line" stroke="black" x1="150" x2="650" y1="263.135593220339" y2="263.135593220339" /><text  class="poloto_tick_labels poloto_text" dominant-baseline="middle" text-anchor="end" x="135" y="263.135593220339" >5.125</text><line  class="poloto_axis_lines" stroke="black" x1="150" x2="144" y1="252.54237288135596" y2="252.54237288135596" /><line  class="poloto_tick_line" stroke="black" x1="150" x2="650" y1="252.54237288135596" y2="252.54237288135596" /><text  class="poloto_tick_labels poloto_text" dominant-baseline="middle" text-anchor="end" x="135" y="252.54237288135596" >5.25</text><line  class="poloto_axis_lines" stroke="black" x1="150" x2="144" y1="241.94915254237287" y2="241.94915254237287" /><line  class="poloto_tick_line" stroke="black" x1="150" x2="650" y1="241.94915254237287" y2="241.94915254237287" /><text  class="poloto_tick_labels poloto_text" dominant-baseline="middle" text-anchor="end" x="135" y="241.94915254237287" >5.375</text><line  class="poloto_axis_lines" stroke="black" x1="150" x2="144" y1="231.35593220338984" y2="231.35593220338984" /><line  class="poloto_tick_line" stroke="black" x1="150" x2="650" y1="231.35593220338984" y2="231.35593220338984" /><text  class="poloto_tick_labels poloto_text" dominant-baseline="middle" text-anchor="end" x="135" y="231.35593220338984" >5.5</text><line  class="poloto_axis_lines" stroke="black" x1="150" x2="144" y1="220.7627118644068" y2="220.7627118644068" /><line  class="poloto_tick_line" stroke="black" x1="150" x2="650" y1="220.7627118644068" y2="220.7627118644068" /><text  class="poloto_tick_labels poloto_text" dominant-baseline="middle" text-anchor="end" x="135" y="220.7627118644068" >5.625</text><line  class="poloto_axis_lines" stroke="black" x1="150" x2="144" y1="210.16949152542372" y2="210.16949152542372" /><line  class="poloto_tick_line" stroke="black" x1="150" x2="650" y1="210.16949152542372" y2="210.16949152542372" /><text  class="poloto_tick_labels poloto_text" dominant-baseline="middle" text-anchor="end" x="135" y="210.16949152542372" >5.75</text><line  class="poloto_axis_lines" stroke="black" x1="150" x2="144" y1="199.5762711864407" y2="199.5762711864407" /><line  class="poloto_tick_line" stroke="black" x1="150" x2="650" y1="199.5762711864407" y2="199.5762711864407" /><text  class="poloto_tick_labels poloto_text" dominant-baseline="middle" text-anchor="end" x="135" y="199.5762711864407" >5.875</text><line  class="poloto_axis_lines" stroke="black" x1="150" x2="144" y1="188.98305084745766" y2="188.98305084745766" /><line  class="poloto_tick_line" stroke="black" x1="150" x2="650" y1="188.98305084745766" y2="188.98305084745766" /><text  class="poloto_tick_labels poloto_text" dominant-baseline="middle" text-anchor="end" x="135" y="188.98305084745766" >6</text><line  class="poloto_axis_lines" stroke="black" x1="150" x2="144" y1="178.38983050847457" y2="178.38983050847457" /><line  class="poloto_tick_line" stroke="black" x1="150" x2="650" y1="178.38983050847457" y2="178.38983050847457" /><text  class="poloto_tick_labels poloto_text" dominant-baseline="middle" text-anchor="end" x="135" y="178.38983050847457" >6.125</text><line  class="poloto_axis_lines" stroke="black" x1="150" x2="144" y1="167.7966101694915" y2="167.7966101694915" /><line  class="poloto_tick_line" stroke="black" x1="150" x2="650" y1="167.7966101694915" y2="167.7966101694915" /><text  class="poloto_tick_labels poloto_text" dominant-baseline="middle" text-anchor="end" x="135" y="167.7966101694915" >6.25</text><line  class="poloto_axis_lines" stroke="black" x1="150" x2="144" y1="157.2033898305085" y2="157.2033898305085" /><line  class="poloto_tick_line" stroke="black" x1="150" x2="650" y1="157.2033898305085" y2="157.2033898305085" /><text  class="poloto_tick_labels poloto_text" dominant-baseline="middle" text-anchor="end" x="135" y="157.2033898305085" >6.375</text><line  class="poloto_axis_lines" stroke="black" x1="150" x2="144" y1="146.61016949152543" y2="146.61016949152543" /><line  class="poloto_tick_line" stroke="black" x1="150" x2="650" y1="146.61016949152543" y2="146.61016949152543" /><text  class="poloto_tick_labels poloto_text" dominant-baseline="middle" text-anchor="end" x="135" y="146.61016949152543" >6.5</text><line  class="poloto_axis_lines" stroke="black" x1="150" x2="144" y1="136.01694915254234" y2="136.01694915254234" /><line  class="poloto_tick_line" stroke="black" x1="150" x2="650" y1="136.01694915254234" y2="136.01694915254234" /><text  class="poloto_tick_labels poloto_text" dominant-baseline="middle" text-anchor="end" x="135" y="136.01694915254234" >6.625</text><line  class="poloto_axis_lines" stroke="black" x1="150" x2="144" y1="125.42372881355936" y2="125.42372881355936" /><line  class="poloto_tick_line" stroke="black" x1="150" x2="650" y1="125.42372881355936" y2="125.42372881355936" /><text  class="poloto_tick_labels poloto_text" dominant-baseline="middle" text-anchor="end" x="135" y="125.42372881355936" >6.75</text><line  class="poloto_axis_lines" stroke="black" x1="150" x2="144" y1="114.83050847457628" y2="114.83050847457628" /><line  class="poloto_tick_line" stroke="black" x1="150" x2="650" y1="114.83050847457628" y2="114.83050847457628" /><text  class="poloto_tick_labels poloto_text" dominant-baseline="middle" text-anchor="end" x="135" y="114.83050847457628" >6.875</text><line  class="poloto_axis_lines" stroke="black" x1="150" x2="144" y1="104.23728813559319" y2="104.23728813559319" /><line  class="poloto_tick_line" stroke="black" x1="150" x2="650" y1="104.23728813559319" y2="104.23728813559319" /><text  class="poloto_tick_labels poloto_text" dominant-baseline="middle" text-anchor="end" x="135" y="104.23728813559319" >7</text><text  class="poloto_tick_labels poloto_text" dominant-baseline="middle" text-anchor="start" x="440.00000000000006" y="70" >¹2022-05-01 00:00:00 UTC in Months</text><line  class="poloto_axis_lines" stroke="black" x1="215.40697674418334" x2="215.40697674418334" y1="400" y2="405" /><line  class="poloto_tick_line" stroke="black" x1="215.40697674418334" x2="215.40697674418334" y1="400" y2="100" /><text  class="poloto_tick_labels poloto_text" dominant-baseline="start" text-anchor="middle" x="215.40697674418334" y="430" >2022 May¹</text><line  class="poloto_axis_lines" stroke="black" x1="304.06976744185886" x2="304.06976744185886" y1="400" y2="405" /><line  class="poloto_tick_line" stroke="black" x1="304.06976744185886" x2="304.06976744185886" y1="400" y2="100" /><text  class="poloto_tick_labels poloto_text" dominant-baseline="start" text-anchor="middle" x="304.06976744185886" y="430" >2022 Jul</text><line  class="poloto_axis_lines" stroke="black" x1="394.18604651162605" x2="394.18604651162605" y1="400" y2="405" /><line  class="poloto_tick_line" stroke="black" x1="394.18604651162605" x2="394.18604651162605" y1="400" y2="100" /><text  class="poloto_tick_labels poloto_text" dominant-baseline="start" text-anchor="middle" x="394.18604651162605" y="430" >2022 Sep</text><line  class="poloto_axis_lines" stroke="black" x1="482.84883720930156" x2="482.84883720930156" y1="400" y2="405" /><line  class="poloto_tick_line" stroke="black" x1="482.84883720930156" x2="482.84883720930156" y1="400" y2="100" /><text  class="poloto_tick_labels poloto_text" dominant-baseline="start" text-anchor="middle" x="482.84883720930156" y="430" >2022 Nov</text><line  class="poloto_axis_lines" stroke="black" x1="571.5116279069771" x2="571.5116279069771" y1="400" y2="405" /><line  class="poloto_tick_line" stroke="black" x1="571.5116279069771" x2="571.5116279069771" y1="400" y2="100" /><text  class="poloto_tick_labels poloto_text" dominant-baseline="start" text-anchor="middle" x="571.5116279069771" y="430" >2023 Jan</text><path  stroke="black" fill="none" class="poloto_axis_lines" d=" M 150 400 L 650 400" /><path  stroke="black" fill="none" class="poloto_axis_lines" d=" M 150 400 L 150 100" /></svg>