<svg class="poloto" width="800" height="500" viewBox="0 0 800 500" xmlns="http://www.w3.org/2000/svg"><style>.poloto{stroke-linecap:round;stroke-linejoin:round;font-family:Roboto,sans-serif;font-size:16px;}.poloto_background{fill:#262626;}.poloto_scatter{stroke-width:7}.poloto_tick_line{stroke:dimgray;stroke-width:0.5}.poloto_line{stroke-width:2}.poloto_text{fill: white;}.poloto_axis_lines{stroke: white;stroke-width:3;fill:none;stroke-dasharray:none}.poloto_title{font-size:24px;dominant-baseline:start;text-anchor:middle;}.poloto_xname{font-size:24px;dominant-baseline:start;text-anchor:middle;}.poloto_yname{font-size:24px;dominant-baseline:start;text-anchor:middle;}.poloto0stroke{stroke:blue;}.poloto1stroke{stroke:red;}.poloto2stroke{stroke:green;}.poloto3stroke{stroke:gold;}.poloto4stroke{stroke:aqua;}.poloto5stroke{stroke:lime;}.poloto6stroke{stroke:orange;}.poloto7stroke{stroke:chocolate;}.poloto0fill{fill:blue;}.poloto1fill{fill:red;}.poloto2fill{fill:green;}.poloto3fill{fill:gold;}.poloto4fill{fill:aqua;}.poloto5fill{fill:lime;}.poloto6fill{fill:orange;}.poloto7fill{fill:chocolate;}</style><circle  r="1e5" class="poloto_background" /><text  class="poloto_text poloto_legend_text" x="675" y="100" >30 years</text><line  class="poloto_line poloto_legend_icon poloto0stroke poloto0legend" stroke="black" x1="680" x2="730" y1="81.25" y2="81.25" /><path  class="poloto_line poloto0stroke" fill="none" stroke="black" d=" M 150.00 353.85 L 153.11 376.92 L 162.42 353.85 L 165.53 330.77 L 168.63 330.77 L 168.63 330.77 L 174.84 284.62 L 184.16 284.62 L 187.27 307.69 L 190.37 330.77 L 193.48 353.85 L 196.58 307.69 L 205.90 330.77 L 209.01 307.69 L 212.11 284.62 L 215.22 261.54 L 218.32 261.54 L 227.64 261.54 L 230.75 284.62 L 233.85 284.62 L 236.96 284.62 L 240.06 238.46 L 252.48 217.23 L 255.59 215.38 L 258.70 215.38 L 261.80 192.31 L 271.12 215.38 L 274.22 238.46 L 280.43 217.23 L 283.54 217.23 L 292.86 217.23 L 295.96 217.23 L 299.07 217.23 L 302.17 217.23 L 305.28 192.31 L 314.60 215.38 L 317.70 217.23 L 317.70 217.23 L 320.81 217.23 L 323.91 217.23 L 327.02 217.23 L 336.34 217.23 L 339.44 217.23 L 342.55 217.23 L 342.55 217.23 L 345.65 217.23 L 348.76 261.54 L 358.07 261.54 L 361.18 284.62 L 364.29 284.62 L 367.39 307.69 L 370.50 284.62 L 382.92 261.54 L 386.02 238.46 L 389.13 261.54 L 392.24 261.54 L 401.55 238.46 L 404.66 217.23 L 407.76 217.23 L 410.87 217.23 L 423.29 123.08 L 426.40 100.00 L 429.50 100.00 L 432.61 123.08 L 435.71 146.15 L 445.03 123.08 L 448.14 123.08 L 451.24 146.15 L 454.35 169.23 L 466.77 169.23 L 469.88 123.08 L 472.98 146.15 L 476.09 192.31 L 479.19 217.23 L 491.61 217.23 L 494.72 217.23 L 497.83 192.31 L 500.93 146.15 L 510.25 192.31 L 516.46 146.15 L 519.57 192.31 L 531.99 192.31 L 531.99 192.31 L 531.99 192.31 L 531.99 192.31 L 531.99 192.31 L 538.20 192.31 L 538.20 192.31 L 538.20 192.31 L 538.20 192.31 L 538.20 192.31 L 538.20 192.31 L 544.41 217.23 L 553.73 217.23 L 559.94 217.23 L 563.04 261.54 L 566.15 307.69 L 575.47 307.69 L 578.57 307.69 L 581.68 284.62 L 584.78 284.62 L 587.89 217.23 L 597.20 217.23 L 597.20 217.23 L 600.31 217.23 L 600.31 217.23 L 606.52 217.23 L 622.05 217.23 L 625.16 192.31 L 628.26 192.31 L 640.68 146.15 L 646.89 123.08 L 650.00 123.08" /><text  class="poloto_labels poloto_text poloto_title" x="400" y="37.5" >lower.com purchase rates</text><text  class="poloto_labels poloto_text poloto_xname" x="400" y="481.25" >Date</text><text  class="poloto_labels poloto_text poloto_yname" transform="rotate(-90,37.5,250)" x="37.5" y="250" >Rate (%)</text><text  class="poloto_tick_labels poloto_text" dominant-baseline="middle" text-anchor="start" x="150" y="70" ></text><line  class="poloto_axis_lines" stroke="black" x1="150" x2="144" y1="400" y2="400" /><line  class="poloto_tick_line" stroke="black" x1="150" x2="650" y1="400" y2="400" /><text  class="poloto_tick_labels poloto_text" dominant-baseline="middle" text-anchor="end" x="135" y="400" >4</text><line  class="poloto_axis_lines" stroke="black" x1="150" x2="144" y1="376.9230769230769" y2="376.9230769230769" /><line  class="poloto_tick_line" stroke="black" x1="150" x2="650" y1="376.9230769230769" y2="376.9230769230769" /><text  class="poloto_tick_labels poloto_text" dominant-baseline="middle" text-anchor="end" x="135" y="376.9230769230769" >4.125</text><line  class="poloto_axis_lines" stroke="black" x1="150" x2="144" y1="353.8461538461538" y2="353.8461538461538" /><line  class="poloto_tick_line" stroke="black" x1="150" x2="650" y1="353.8461538461538" y2="353.8461538461538" /><text  class="poloto_tick_labels poloto_text" dominant-baseline="middle" text-anchor="end" x="135" y="353.8461538461538" >4.25</text><line  class="poloto_axis_lines" stroke="black" x1="150" x2="144" y1="330.7692307692307" y2="330.7692307692307" /><line  class="poloto_tick_line" stroke="black" x1="150" x2="650" y1="330.7692307692307" y2="330.7692307692307" /><text  class="poloto_tick_labels poloto_text" dominant-baseline="middle" text-anchor="end" x="135" y="330.7692307692307" >4.375</text><line  class="poloto_axis_lines" stroke="black" x1="150" x2="144" y1="307.69230769230774" y2="307.69230769230774" /><line  class="poloto_tick_line" stroke="black" x1="150" x2="650" y1="307.69230769230774" y2="307.69230769230774" /><text  class="poloto_tick_labels poloto_text" dominant-baseline="middle" text-anchor="end" x="135" y="307.69230769230774" >4.5</text><line  class="poloto_axis_lines" stroke="black" x1="150" x2="144" y1="284.61538461538464" y2="284.61538461538464" /><line  class="poloto_tick_line" stroke="black" x1="150" x2="650" y1="284.61538461538464" y2="284.61538461538464" /><text  class="poloto_tick_labels poloto_text" dominant-baseline="middle" text-anchor="end" x="135" y="284.61538461538464" >4.625</text><line  class="poloto_axis_lines" stroke="black" x1="150" x2="144" y1="261.53846153846155" y2="261.53846153846155" /><line  class="poloto_tick_line" stroke="black" x1="150" x2="650" y1="261.53846153846155" y2="261.53846153846155" /><text  class="poloto_tick_labels poloto_text" dominant-baseline="middle" text-anchor="end" x="135" y="261.53846153846155" >4.75</text><line  class="poloto_axis_lines" stroke="black" x1="150" x2="144" y1="238.46153846153845" y2="238.46153846153845" /><line  class="poloto_tick_line" stroke="black" x1="150" x2="650" y1="238.46153846153845" y2="238.46153846153845" /><text  class="poloto_tick_labels poloto_text" dominant-baseline="middle" text-anchor="end" x="135" y="238.46153846153845" >4.875</text><line  class="poloto_axis_lines" stroke="black" x1="150" x2="144" y1="215.38461538461536" y2="215.38461538461536" /><line  class="poloto_tick_line" stroke="black" x1="150" x2="650" y1="215.38461538461536" y2="215.38461538461536" /><text  class="poloto_tick_labels poloto_text" dominant-baseline="middle" text-anchor="end" x="135" y="215.38461538461536" >5</text><line  class="poloto_axis_lines" stroke="black" x1="150" x2="144" y1="192.30769230769226" y2="192.30769230769226" /><line  class="poloto_tick_line" stroke="black" x1="150" x2="650" y1="192.30769230769226" y2="192.30769230769226" /><text  class="poloto_tick_labels poloto_text" dominant-baseline="middle" text-anchor="end" x="135" y="192.30769230769226" >5.125</text><line  class="poloto_axis_lines" stroke="black" x1="150" x2="144" y1="169.23076923076928" y2="169.23076923076928" /><line  class="poloto_tick_line" stroke="black" x1="150" x2="650" y1="169.23076923076928" y2="169.23076923076928" /><text  class="poloto_tick_labels poloto_text" dominant-baseline="middle" text-anchor="end" x="135" y="169.23076923076928" >5.25</text><line  class="poloto_axis_lines" stroke="black" x1="150" x2="144" y1="146.1538461538462" y2="146.1538461538462" /><line  class="poloto_tick_line" stroke="black" x1="150" x2="650" y1="146.1538461538462" y2="146.1538461538462" /><text  class="poloto_tick_labels poloto_text" dominant-baseline="middle" text-anchor="end" x="135" y="146.1538461538462" >5.375</text><line  class="poloto_axis_lines" stroke="black" x1="150" x2="144" y1="123.0769230769231" y2="123.0769230769231" /><line  class="poloto_tick_line" stroke="black" x1="150" x2="650" y1="123.0769230769231" y2="123.0769230769231" /><text  class="poloto_tick_labels poloto_text" dominant-baseline="middle" text-anchor="end" x="135" y="123.0769230769231" >5.5</text><line  class="poloto_axis_lines" stroke="black" x1="150" x2="144" y1="100.00000000000011" y2="100.00000000000011" /><line  class="poloto_tick_line" stroke="black" x1="150" x2="650" y1="100.00000000000011" y2="100.00000000000011" /><text  class="poloto_tick_labels poloto_text" dominant-baseline="middle" text-anchor="end" x="135" y="100.00000000000011" >5.625</text><text  class="poloto_tick_labels poloto_text" dominant-baseline="middle" text-anchor="start" x="440.00000000000006" y="70" >¹2022-04-01 00:00:00 UTC in Months</text><line  class="poloto_axis_lines" stroke="black" x1="196.58385093167453" x2="196.58385093167453" y1="400" y2="405" /><line  class="poloto_tick_line" stroke="black" x1="196.58385093167453" x2="196.58385093167453" y1="400" y2="100.00000000000011" /><text  class="poloto_tick_labels poloto_text" dominant-baseline="start" text-anchor="middle" x="196.58385093167453" y="430" >2022 Apr¹</text><line  class="poloto_axis_lines" stroke="black" x1="289.7515527950309" x2="289.7515527950309" y1="400" y2="405" /><line  class="poloto_tick_line" stroke="black" x1="289.7515527950309" x2="289.7515527950309" y1="400" y2="100.00000000000011" /><text  class="poloto_tick_labels poloto_text" dominant-baseline="start" text-anchor="middle" x="289.7515527950309" y="430" >2022 May</text><line  class="poloto_axis_lines" stroke="black" x1="386.024844720494" x2="386.024844720494" y1="400" y2="405" /><line  class="poloto_tick_line" stroke="black" x1="386.024844720494" x2="386.024844720494" y1="400" y2="100.00000000000011" /><text  class="poloto_tick_labels poloto_text" dominant-baseline="start" text-anchor="middle" x="386.024844720494" y="430" >2022 Jun</text><line  class="poloto_axis_lines" stroke="black" x1="479.19254658385034" x2="479.19254658385034" y1="400" y2="405" /><line  class="poloto_tick_line" stroke="black" x1="479.19254658385034" x2="479.19254658385034" y1="400" y2="100.00000000000011" /><text  class="poloto_tick_labels poloto_text" dominant-baseline="start" text-anchor="middle" x="479.19254658385034" y="430" >2022 Jul</text><line  class="poloto_axis_lines" stroke="black" x1="575.4658385093135" x2="575.4658385093135" y1="400" y2="405" /><line  class="poloto_tick_line" stroke="black" x1="575.4658385093135" x2="575.4658385093135" y1="400" y2="100.00000000000011" /><text  class="poloto_tick_labels poloto_text" dominant-baseline="start" text-anchor="middle" x="575.4658385093135" y="430" >2022 Aug</text><path  stroke="black" fill="none" class="poloto_axis_lines" d=" M 150 400 L 650 400" /><path  stroke="black" fill="none" class="poloto_axis_lines" d=" M 150 400 L 150 100.00000000000011" /></svg>