<svg class="poloto" width="800" height="500" viewBox="0 0 800 500" xmlns="http://www.w3.org/2000/svg"><style>.poloto{stroke-linecap:round;stroke-linejoin:round;font-family:Roboto,sans-serif;font-size:16px;}.poloto_background{fill:#262626;}.poloto_scatter{stroke-width:7}.poloto_tick_line{stroke:dimgray;stroke-width:0.5}.poloto_line{stroke-width:2}.poloto_text{fill: white;}.poloto_axis_lines{stroke: white;stroke-width:3;fill:none;stroke-dasharray:none}.poloto_title{font-size:24px;dominant-baseline:start;text-anchor:middle;}.poloto_xname{font-size:24px;dominant-baseline:start;text-anchor:middle;}.poloto_yname{font-size:24px;dominant-baseline:start;text-anchor:middle;}.poloto0stroke{stroke:blue;}.poloto1stroke{stroke:red;}.poloto2stroke{stroke:green;}.poloto3stroke{stroke:gold;}.poloto4stroke{stroke:aqua;}.poloto5stroke{stroke:lime;}.poloto6stroke{stroke:orange;}.poloto7stroke{stroke:chocolate;}.poloto0fill{fill:blue;}.poloto1fill{fill:red;}.poloto2fill{fill:green;}.poloto3fill{fill:gold;}.poloto4fill{fill:aqua;}.poloto5fill{fill:lime;}.poloto6fill{fill:orange;}.poloto7fill{fill:chocolate;}</style><circle  r="1e5" class="poloto_background" /><text  class="poloto_text poloto_legend_text" x="675" y="100" >30 years</text><line  class="poloto_line poloto_legend_icon poloto0stroke poloto0legend" stroke="black" x1="680" x2="730" y1="81.25" y2="81.25" /><path  class="poloto_line poloto0stroke" fill="none" stroke="black" d=" M 150.00 353.85 L 154.72 376.92 L 168.87 353.85 L 173.58 330.77 L 178.30 330.77 L 178.30 330.77 L 187.74 284.62 L 201.89 284.62 L 206.60 307.69 L 211.32 330.77 L 216.04 353.85 L 220.75 307.69 L 234.91 330.77 L 239.62 307.69 L 244.34 284.62 L 249.06 261.54 L 253.77 261.54 L 267.92 261.54 L 272.64 284.62 L 277.36 284.62 L 282.08 284.62 L 286.79 238.46 L 305.66 217.23 L 310.38 215.38 L 315.09 215.38 L 319.81 192.31 L 333.96 215.38 L 338.68 238.46 L 348.11 217.23 L 352.83 217.23 L 366.98 217.23 L 371.70 217.23 L 376.42 217.23 L 381.13 217.23 L 385.85 192.31 L 400.00 215.38 L 404.72 217.23 L 404.72 217.23 L 409.43 217.23 L 414.15 217.23 L 418.87 217.23 L 433.02 217.23 L 437.74 217.23 L 442.45 217.23 L 442.45 217.23 L 447.17 217.23 L 451.89 261.54 L 466.04 261.54 L 470.75 284.62 L 475.47 284.62 L 480.19 307.69 L 484.91 284.62 L 503.77 261.54 L 508.49 238.46 L 513.21 261.54 L 517.92 261.54 L 532.08 238.46 L 536.79 217.23 L 541.51 217.23 L 546.23 217.23 L 565.09 123.08 L 569.81 100.00 L 574.53 100.00 L 579.25 123.08 L 583.96 146.15 L 598.11 123.08 L 602.83 123.08 L 607.55 146.15 L 612.26 169.23 L 631.13 169.23 L 635.85 123.08 L 640.57 146.15 L 645.28 192.31 L 650.00 217.23" /><text  class="poloto_labels poloto_text poloto_title" x="400" y="37.5" >lower.com purchase rates</text><text  class="poloto_labels poloto_text poloto_xname" x="400" y="481.25" >Date</text><text  class="poloto_labels poloto_text poloto_yname" transform="rotate(-90,37.5,250)" x="37.5" y="250" >Rate (%)</text><text  class="poloto_tick_labels poloto_text" dominant-baseline="middle" text-anchor="start" x="150" y="70" ></text><line  class="poloto_axis_lines" stroke="black" x1="150" x2="144" y1="400" y2="400" /><line  class="poloto_tick_line" stroke="black" x1="150" x2="650" y1="400" y2="400" /><text  class="poloto_tick_labels poloto_text" dominant-baseline="middle" text-anchor="end" x="135" y="400" >4</text><line  class="poloto_axis_lines" stroke="black" x1="150" x2="144" y1="376.9230769230769" y2="376.9230769230769" /><line  class="poloto_tick_line" stroke="black" x1="150" x2="650" y1="376.9230769230769" y2="376.9230769230769" /><text  class="poloto_tick_labels poloto_text" dominant-baseline="middle" text-anchor="end" x="135" y="376.9230769230769" >4.125</text><line  class="poloto_axis_lines" stroke="black" x1="150" x2="144" y1="353.8461538461538" y2="353.8461538461538" /><line  class="poloto_tick_line" stroke="black" x1="150" x2="650" y1="353.8461538461538" y2="353.8461538461538" /><text  class="poloto_tick_labels poloto_text" dominant-baseline="middle" text-anchor="end" x="135" y="353.8461538461538" >4.25</text><line  class="poloto_axis_lines" stroke="black" x1="150" x2="144" y1="330.7692307692307" y2="330.7692307692307" /><line  class="poloto_tick_line" stroke="black" x1="150" x2="650" y1="330.7692307692307" y2="330.7692307692307" /><text  class="poloto_tick_labels poloto_text" dominant-baseline="middle" text-anchor="end" x="135" y="330.7692307692307" >4.375</text><line  class="poloto_axis_lines" stroke="black" x1="150" x2="144" y1="307.69230769230774" y2="307.69230769230774" /><line  class="poloto_tick_line" stroke="black" x1="150" x2="650" y1="307.69230769230774" y2="307.69230769230774" /><text  class="poloto_tick_labels poloto_text" dominant-baseline="middle" text-anchor="end" x="135" y="307.69230769230774" >4.5</text><line  class="poloto_axis_lines" stroke="black" x1="150" x2="144" y1="284.61538461538464" y2="284.61538461538464" /><line  class="poloto_tick_line" stroke="black" x1="150" x2="650" y1="284.61538461538464" y2="284.61538461538464" /><text  class="poloto_tick_labels poloto_text" dominant-baseline="middle" text-anchor="end" x="135" y="284.61538461538464" >4.625</text><line  class="poloto_axis_lines" stroke="black" x1="150" x2="144" y1="261.53846153846155" y2="261.53846153846155" /><line  class="poloto_tick_line" stroke="black" x1="150" x2="650" y1="261.53846153846155" y2="261.53846153846155" /><text  class="poloto_tick_labels poloto_text" dominant-baseline="middle" text-anchor="end" x="135" y="261.53846153846155" >4.75</text><line  class="poloto_axis_lines" stroke="black" x1="150" x2="144" y1="238.46153846153845" y2="238.46153846153845" /><line  class="poloto_tick_line" stroke="black" x1="150" x2="650" y1="238.46153846153845" y2="238.46153846153845" /><text  class="poloto_tick_labels poloto_text" dominant-baseline="middle" text-anchor="end" x="135" y="238.46153846153845" >4.875</text><line  class="poloto_axis_lines" stroke="black" x1="150" x2="144" y1="215.38461538461536" y2="215.38461538461536" /><line  class="poloto_tick_line" stroke="black" x1="150" x2="650" y1="215.38461538461536" y2="215.38461538461536" /><text  class="poloto_tick_labels poloto_text" dominant-baseline="middle" text-anchor="end" x="135" y="215.38461538461536" >5</text><line  class="poloto_axis_lines" stroke="black" x1="150" x2="144" y1="192.30769230769226" y2="192.30769230769226" /><line  class="poloto_tick_line" stroke="black" x1="150" x2="650" y1="192.30769230769226" y2="192.30769230769226" /><text  class="poloto_tick_labels poloto_text" dominant-baseline="middle" text-anchor="end" x="135" y="192.30769230769226" >5.125</text><line  class="poloto_axis_lines" stroke="black" x1="150" x2="144" y1="169.23076923076928" y2="169.23076923076928" /><line  class="poloto_tick_line" stroke="black" x1="150" x2="650" y1="169.23076923076928" y2="169.23076923076928" /><text  class="poloto_tick_labels poloto_text" dominant-baseline="middle" text-anchor="end" x="135" y="169.23076923076928" >5.25</text><line  class="poloto_axis_lines" stroke="black" x1="150" x2="144" y1="146.1538461538462" y2="146.1538461538462" /><line  class="poloto_tick_line" stroke="black" x1="150" x2="650" y1="146.1538461538462" y2="146.1538461538462" /><text  class="poloto_tick_labels poloto_text" dominant-baseline="middle" text-anchor="end" x="135" y="146.1538461538462" >5.375</text><line  class="poloto_axis_lines" stroke="black" x1="150" x2="144" y1="123.0769230769231" y2="123.0769230769231" /><line  class="poloto_tick_line" stroke="black" x1="150" x2="650" y1="123.0769230769231" y2="123.0769230769231" /><text  class="poloto_tick_labels poloto_text" dominant-baseline="middle" text-anchor="end" x="135" y="123.0769230769231" >5.5</text><line  class="poloto_axis_lines" stroke="black" x1="150" x2="144" y1="100.00000000000011" y2="100.00000000000011" /><line  class="poloto_tick_line" stroke="black" x1="150" x2="650" y1="100.00000000000011" y2="100.00000000000011" /><text  class="poloto_tick_labels poloto_text" dominant-baseline="middle" text-anchor="end" x="135" y="100.00000000000011" >5.625</text><text  class="poloto_tick_labels poloto_text" dominant-baseline="middle" text-anchor="start" x="440.00000000000006" y="70" >¹2022-04-01 00:00:00 UTC in Months</text><line  class="poloto_axis_lines" stroke="black" x1="220.75471698114416" x2="220.75471698114416" y1="400" y2="405" /><line  class="poloto_tick_line" stroke="black" x1="220.75471698114416" x2="220.75471698114416" y1="400" y2="100.00000000000011" /><text  class="poloto_tick_labels poloto_text" dominant-baseline="start" text-anchor="middle" x="220.75471698114416" y="430" >2022 Apr¹</text><line  class="poloto_axis_lines" stroke="black" x1="362.26415094340337" x2="362.26415094340337" y1="400" y2="405" /><line  class="poloto_tick_line" stroke="black" x1="362.26415094340337" x2="362.26415094340337" y1="400" y2="100.00000000000011" /><text  class="poloto_tick_labels poloto_text" dominant-baseline="start" text-anchor="middle" x="362.26415094340337" y="430" >2022 May</text><line  class="poloto_axis_lines" stroke="black" x1="508.4905660377408" x2="508.4905660377408" y1="400" y2="405" /><line  class="poloto_tick_line" stroke="black" x1="508.4905660377408" x2="508.4905660377408" y1="400" y2="100.00000000000011" /><text  class="poloto_tick_labels poloto_text" dominant-baseline="start" text-anchor="middle" x="508.4905660377408" y="430" >2022 Jun</text><line  class="poloto_axis_lines" stroke="black" x1="650" x2="650" y1="400" y2="405" /><line  class="poloto_tick_line" stroke="black" x1="650" x2="650" y1="400" y2="100.00000000000011" /><text  class="poloto_tick_labels poloto_text" dominant-baseline="start" text-anchor="middle" x="650" y="430" >2022 Jul</text><path  stroke="black" fill="none" class="poloto_axis_lines" d=" M 150 400 L 650 400" /><path  stroke="black" fill="none" class="poloto_axis_lines" d=" M 150 400 L 150 100.00000000000011" /></svg>