<svg class="poloto" width="800" height="500" viewBox="0 0 800 500" xmlns="http://www.w3.org/2000/svg"><style>.poloto{stroke-linecap:round;stroke-linejoin:round;font-family:Roboto,sans-serif;font-size:16px;}.poloto_background{fill:#262626;}.poloto_scatter{stroke-width:7}.poloto_tick_line{stroke:dimgray;stroke-width:0.5}.poloto_line{stroke-width:2}.poloto_text{fill: white;}.poloto_axis_lines{stroke: white;stroke-width:3;fill:none;stroke-dasharray:none}.poloto_title{font-size:24px;dominant-baseline:start;text-anchor:middle;}.poloto_xname{font-size:24px;dominant-baseline:start;text-anchor:middle;}.poloto_yname{font-size:24px;dominant-baseline:start;text-anchor:middle;}.poloto0stroke{stroke:blue;}.poloto1stroke{stroke:red;}.poloto2stroke{stroke:green;}.poloto3stroke{stroke:gold;}.poloto4stroke{stroke:aqua;}.poloto5stroke{stroke:lime;}.poloto6stroke{stroke:orange;}.poloto7stroke{stroke:chocolate;}.poloto0fill{fill:blue;}.poloto1fill{fill:red;}.poloto2fill{fill:green;}.poloto3fill{fill:gold;}.poloto4fill{fill:aqua;}.poloto5fill{fill:lime;}.poloto6fill{fill:orange;}.poloto7fill{fill:chocolate;}</style><circle  r="1e5" class="poloto_background" /><text  class="poloto_text poloto_legend_text" x="675" y="100" >30 years</text><line  class="poloto_line poloto_legend_icon poloto0stroke poloto0legend" stroke="black" x1="680" x2="730" y1="81.25" y2="81.25" /><path  class="poloto_line poloto0stroke" fill="none" stroke="black" d=" M 150.00 212.50 L 167.86 231.25 L 221.43 212.50 L 239.29 193.75 L 257.14 193.75 L 257.14 193.75 L 292.86 156.25 L 346.43 156.25 L 364.29 175.00 L 382.14 193.75 L 400.00 212.50 L 417.86 175.00 L 471.43 193.75 L 489.29 175.00 L 507.14 156.25 L 525.00 137.50 L 542.86 137.50 L 596.43 137.50 L 614.29 156.25 L 632.14 156.25 L 650.00 156.25" /><text  class="poloto_text poloto_legend_text" x="675" y="150" >20 years</text><line  class="poloto_line poloto_legend_icon poloto1stroke poloto1legend" stroke="black" x1="680" x2="730" y1="131.25" y2="131.25" /><path  class="poloto_line poloto1stroke" fill="none" stroke="black" d=" M 150.00 212.50 L 167.86 231.25 L 221.43 193.75 L 239.29 175.00 L 257.14 175.00 L 257.14 175.00 L 292.86 156.25 L 346.43 137.50 L 364.29 156.25 L 382.14 175.00 L 400.00 193.75 L 417.86 156.25 L 471.43 193.75 L 489.29 156.25 L 507.14 156.25 L 525.00 156.25 L 542.86 101.50 L 596.43 100.00 L 614.29 118.75 L 632.14 156.25 L 650.00 175.00" /><text  class="poloto_text poloto_legend_text" x="675" y="200" >15 years</text><line  class="poloto_line poloto_legend_icon poloto2stroke poloto2legend" stroke="black" x1="680" x2="730" y1="181.25" y2="181.25" /><path  class="poloto_line poloto2stroke" fill="none" stroke="black" d=" M 150.00 306.25 L 167.86 306.25 L 221.43 306.25 L 239.29 268.75 L 257.14 268.75 L 257.14 268.75 L 292.86 251.50 L 346.43 268.75 L 364.29 268.75 L 382.14 287.50 L 400.00 287.50 L 417.86 268.75 L 471.43 287.50 L 489.29 268.75 L 507.14 250.00 L 525.00 251.50 L 542.86 250.00 L 596.43 251.50 L 614.29 250.00 L 632.14 251.50 L 650.00 250.00" /><text  class="poloto_labels poloto_text poloto_title" x="400" y="37.5" >lower.com purchase rates</text><text  class="poloto_labels poloto_text poloto_xname" x="400" y="481.25" >Date</text><text  class="poloto_labels poloto_text poloto_yname" transform="rotate(-90,37.5,250)" x="37.5" y="250" >Rate (%)</text><text  class="poloto_tick_labels poloto_text" dominant-baseline="middle" text-anchor="start" x="150" y="70" ></text><line  class="poloto_axis_lines" stroke="black" x1="150" x2="144" y1="400" y2="400" /><line  class="poloto_tick_line" stroke="black" x1="150" x2="650" y1="400" y2="400" /><text  class="poloto_tick_labels poloto_text" dominant-baseline="middle" text-anchor="end" x="135" y="400" >3</text><line  class="poloto_axis_lines" stroke="black" x1="150" x2="144" y1="362.5" y2="362.5" /><line  class="poloto_tick_line" stroke="black" x1="150" x2="650" y1="362.5" y2="362.5" /><text  class="poloto_tick_labels poloto_text" dominant-baseline="middle" text-anchor="end" x="135" y="362.5" >3.25</text><line  class="poloto_axis_lines" stroke="black" x1="150" x2="144" y1="325" y2="325" /><line  class="poloto_tick_line" stroke="black" x1="150" x2="650" y1="325" y2="325" /><text  class="poloto_tick_labels poloto_text" dominant-baseline="middle" text-anchor="end" x="135" y="325" >3.5</text><line  class="poloto_axis_lines" stroke="black" x1="150" x2="144" y1="287.5" y2="287.5" /><line  class="poloto_tick_line" stroke="black" x1="150" x2="650" y1="287.5" y2="287.5" /><text  class="poloto_tick_labels poloto_text" dominant-baseline="middle" text-anchor="end" x="135" y="287.5" >3.75</text><line  class="poloto_axis_lines" stroke="black" x1="150" x2="144" y1="250" y2="250" /><line  class="poloto_tick_line" stroke="black" x1="150" x2="650" y1="250" y2="250" /><text  class="poloto_tick_labels poloto_text" dominant-baseline="middle" text-anchor="end" x="135" y="250" >4</text><line  class="poloto_axis_lines" stroke="black" x1="150" x2="144" y1="212.5" y2="212.5" /><line  class="poloto_tick_line" stroke="black" x1="150" x2="650" y1="212.5" y2="212.5" /><text  class="poloto_tick_labels poloto_text" dominant-baseline="middle" text-anchor="end" x="135" y="212.5" >4.25</text><line  class="poloto_axis_lines" stroke="black" x1="150" x2="144" y1="175" y2="175" /><line  class="poloto_tick_line" stroke="black" x1="150" x2="650" y1="175" y2="175" /><text  class="poloto_tick_labels poloto_text" dominant-baseline="middle" text-anchor="end" x="135" y="175" >4.5</text><line  class="poloto_axis_lines" stroke="black" x1="150" x2="144" y1="137.5" y2="137.5" /><line  class="poloto_tick_line" stroke="black" x1="150" x2="650" y1="137.5" y2="137.5" /><text  class="poloto_tick_labels poloto_text" dominant-baseline="middle" text-anchor="end" x="135" y="137.5" >4.75</text><line  class="poloto_axis_lines" stroke="black" x1="150" x2="144" y1="100" y2="100" /><line  class="poloto_tick_line" stroke="black" x1="150" x2="650" y1="100" y2="100" /><text  class="poloto_tick_labels poloto_text" dominant-baseline="middle" text-anchor="end" x="135" y="100" >5</text><text  class="poloto_tick_labels poloto_text" dominant-baseline="middle" text-anchor="start" x="440.00000000000006" y="70" >ยน2022-03-21 00:00:00 UTC in Days</text><line  class="poloto_axis_lines" stroke="black" x1="221.42857142857974" x2="221.42857142857974" y1="400" y2="405" /><line  class="poloto_tick_line" stroke="black" x1="221.42857142857974" x2="221.42857142857974" y1="400" y2="100" /><text  class="poloto_tick_labels poloto_text" dominant-baseline="start" text-anchor="middle" x="221.42857142857974" y="430" >Mar 21ยน</text><line  class="poloto_axis_lines" stroke="black" x1="310.71428571426077" x2="310.71428571426077" y1="400" y2="405" /><line  class="poloto_tick_line" stroke="black" x1="310.71428571426077" x2="310.71428571426077" y1="400" y2="100" /><text  class="poloto_tick_labels poloto_text" dominant-baseline="start" text-anchor="middle" x="310.71428571426077" y="430" >Mar 26</text><line  class="poloto_axis_lines" stroke="black" x1="400" x2="400" y1="400" y2="405" /><line  class="poloto_tick_line" stroke="black" x1="400" x2="400" y1="400" y2="100" /><text  class="poloto_tick_labels poloto_text" dominant-baseline="start" text-anchor="middle" x="400" y="430" >Mar 31</text><line  class="poloto_axis_lines" stroke="black" x1="489.285714285681" x2="489.285714285681" y1="400" y2="405" /><line  class="poloto_tick_line" stroke="black" x1="489.285714285681" x2="489.285714285681" y1="400" y2="100" /><text  class="poloto_tick_labels poloto_text" dominant-baseline="start" text-anchor="middle" x="489.285714285681" y="430" >Apr 05</text><line  class="poloto_axis_lines" stroke="black" x1="578.5714285714203" x2="578.5714285714203" y1="400" y2="405" /><line  class="poloto_tick_line" stroke="black" x1="578.5714285714203" x2="578.5714285714203" y1="400" y2="100" /><text  class="poloto_tick_labels poloto_text" dominant-baseline="start" text-anchor="middle" x="578.5714285714203" y="430" >Apr 10</text><path  stroke="black" fill="none" class="poloto_axis_lines" d=" M 150 400 L 650 400" /><path  stroke="black" fill="none" class="poloto_axis_lines" d=" M 150 400 L 150 100" /></svg>