<svg class="poloto" width="800" height="500" viewBox="0 0 800 500" xmlns="http://www.w3.org/2000/svg"><style>.poloto{stroke-linecap:round;stroke-linejoin:round;font-family:Roboto,sans-serif;font-size:16px;}.poloto_background{fill:#262626;}.poloto_scatter{stroke-width:7}.poloto_tick_line{stroke:dimgray;stroke-width:0.5}.poloto_line{stroke-width:2}.poloto_text{fill: white;}.poloto_axis_lines{stroke: white;stroke-width:3;fill:none;stroke-dasharray:none}.poloto_title{font-size:24px;dominant-baseline:start;text-anchor:middle;}.poloto_xname{font-size:24px;dominant-baseline:start;text-anchor:middle;}.poloto_yname{font-size:24px;dominant-baseline:start;text-anchor:middle;}.poloto0stroke{stroke:blue;}.poloto1stroke{stroke:red;}.poloto2stroke{stroke:green;}.poloto3stroke{stroke:gold;}.poloto4stroke{stroke:aqua;}.poloto5stroke{stroke:lime;}.poloto6stroke{stroke:orange;}.poloto7stroke{stroke:chocolate;}.poloto0fill{fill:blue;}.poloto1fill{fill:red;}.poloto2fill{fill:green;}.poloto3fill{fill:gold;}.poloto4fill{fill:aqua;}.poloto5fill{fill:lime;}.poloto6fill{fill:orange;}.poloto7fill{fill:chocolate;}</style><circle  r="1e5" class="poloto_background" /><text  class="poloto_text poloto_legend_text" x="675" y="100" >Refinance 15</text><line  class="poloto_line poloto_legend_icon poloto0stroke poloto0legend" stroke="black" x1="680" x2="730" y1="81.25" y2="81.25" /><path  class="poloto_line poloto0stroke" fill="none" stroke="black" d=" M 150.00 392.46 L 151.49 400.00 L 155.95 389.32 L 157.44 380.17 L 158.93 389.32 L 158.93 389.32 L 161.90 358.81 L 166.37 357.20 L 167.86 367.88 L 169.35 344.83 L 170.83 346.44 L 172.32 341.61 L 176.79 343.22 L 178.27 336.78 L 178.27 336.78 L 181.25 337.37 L 182.74 314.32 L 187.20 324.32 L 188.69 327.54 L 190.18 327.54 L 191.67 326.69 L 193.15 321.78 L 199.11 278.73 L 200.60 297.88 L 202.08 283.05 L 203.57 277.29 L 203.57 277.29 L 209.52 299.58 L 212.50 303.64 L 213.99 294.58 L 218.45 283.81 L 219.94 305.25 L 221.43 294.58 L 221.43 294.58 L 224.40 292.88 L 228.87 296.19 L 230.36 306.86 L 230.36 306.86 L 231.85 297.80 L 233.33 308.56 L 234.82 292.88 L 239.29 325.08 L 240.77 324.32 L 242.26 306.86 L 242.26 306.86 L 243.75 314.32 L 245.24 317.63 L 249.70 317.63 L 251.19 329.15 L 252.68 329.15 L 254.17 329.15 L 255.65 329.15 L 261.61 317.63 L 263.10 314.32 L 264.58 315.93 L 266.07 315.93 L 266.07 315.93 L 272.02 305.25 L 273.51 305.25 L 275.00 296.19 L 280.95 281.36 L 282.44 250.76 L 283.93 254.15 L 285.42 254.15 L 286.90 275.59 L 291.37 254.15 L 292.86 254.15 L 294.35 273.90 L 295.83 277.29 L 301.79 277.29 L 303.27 275.59 L 304.76 280.59 L 306.25 285.51 L 307.74 296.19 L 313.69 303.64 L 315.18 294.58 L 316.67 287.12 L 318.15 283.81 L 322.62 285.51 L 325.60 285.51 L 327.08 283.81 L 333.04 282.20 L 333.04 282.20 L 333.04 282.20 L 333.04 282.20 L 333.04 282.20 L 333.04 282.20 L 336.01 282.20 L 336.01 282.20 L 336.01 282.20 L 336.01 282.20 L 336.01 282.20 L 336.01 282.20 L 343.45 294.58 L 346.43 297.80 L 347.92 325.93 L 349.40 329.15 L 353.87 329.15 L 355.36 327.54 L 356.85 305.25 L 358.33 299.49 L 359.82 285.51 L 364.29 296.19 L 364.29 296.19 L 365.77 287.12 L 368.75 296.19 L 368.75 296.19 L 376.19 296.19 L 377.68 262.46 L 379.17 282.20 L 385.12 248.39 L 388.10 248.39 L 388.10 248.39 L 391.07 260.76 L 397.02 254.15 L 397.02 254.15 L 397.02 254.15 L 397.02 254.15 L 397.02 254.15 L 397.02 254.15 L 397.02 254.15 L 397.02 254.15 L 397.02 254.15 L 401.49 254.15 L 410.42 232.63 L 416.37 235.17 L 416.37 235.17 L 420.83 235.17 L 426.79 235.17 L 428.27 235.17 L 428.27 235.17 L 428.27 235.17 L 428.27 235.17 L 428.27 235.17 L 447.62 235.17 L 449.11 235.17 L 458.04 139.75 L 459.52 130.68 L 461.01 130.68 L 514.58 159.15 L 520.54 159.15 L 522.02 159.15 L 523.51 175.51 L 526.49 184.49 L 526.49 184.49 L 532.44 184.49 L 533.93 184.49 L 535.42 184.49 L 536.90 184.49 L 541.37 184.49 L 542.86 184.49 L 545.83 184.49 L 547.32 184.49 L 551.79 184.49 L 553.27 184.49 L 553.27 184.49 L 557.74 184.49 L 562.20 184.49 L 563.69 184.49 L 565.18 184.49 L 566.67 184.49 L 568.15 184.49 L 574.11 209.15 L 575.60 180.68 L 577.08 159.15 L 578.57 169.92 L 583.04 169.92 L 584.52 169.92 L 584.52 169.92 L 587.50 193.05 L 588.99 193.05 L 593.45 193.05 L 594.94 193.05 L 596.43 193.05 L 597.92 193.05 L 599.40 193.05 L 599.40 193.05 L 599.40 193.05 L 599.40 193.05 L 606.85 193.05 L 609.82 193.05 L 614.29 193.05 L 615.77 193.05 L 618.75 193.05 L 620.24 193.05 L 626.19 193.05 L 627.68 193.05 L 629.17 193.05 L 630.65 223.56 L 635.12 230.34 L 636.61 191.36 L 638.10 203.81 L 639.58 202.12 L 641.07 182.37 L 645.54 137.71 L 647.02 137.71 L 648.51 137.71 L 650.00 139.41" /><text  class="poloto_text poloto_legend_text" x="675" y="150" >Refinance 20</text><line  class="poloto_line poloto_legend_icon poloto1stroke poloto1legend" stroke="black" x1="680" x2="730" y1="131.25" y2="131.25" /><path  class="poloto_line poloto1stroke" fill="none" stroke="black" d=" M 150.00 345.68 L 151.49 368.31 L 155.95 334.58 L 157.44 324.24 L 158.93 333.73 L 158.93 333.73 L 161.90 304.07 L 166.37 301.53 L 167.86 312.29 L 169.35 300.25 L 170.83 311.02 L 172.32 290.85 L 176.79 321.69 L 178.27 290.85 L 178.27 290.85 L 181.25 290.85 L 181.25 290.85 L 187.20 250.17 L 188.69 282.71 L 190.18 290.85 L 191.67 301.53 L 193.15 280.59 L 199.11 260.00 L 200.60 257.37 L 202.08 252.12 L 203.57 240.08 L 208.04 245.34 L 209.52 268.14 L 212.50 260.00 L 213.99 257.37 L 218.45 248.81 L 219.94 258.73 L 221.43 258.73 L 221.43 258.73 L 224.40 258.73 L 228.87 260.00 L 230.36 281.44 L 230.36 281.44 L 231.85 269.41 L 233.33 289.58 L 234.82 281.44 L 239.29 282.71 L 240.77 281.44 L 242.26 281.44 L 242.26 281.44 L 243.75 282.71 L 245.24 289.58 L 249.70 290.85 L 251.19 294.66 L 252.68 294.66 L 254.17 294.66 L 255.65 294.66 L 261.61 289.58 L 263.10 278.81 L 264.58 281.44 L 266.07 281.44 L 266.07 281.44 L 272.02 268.14 L 273.51 270.68 L 275.00 261.27 L 280.95 215.85 L 282.44 197.03 L 283.93 207.80 L 285.42 215.85 L 286.90 238.56 L 291.37 225.17 L 292.86 218.47 L 294.35 239.92 L 295.83 250.17 L 301.79 250.17 L 303.27 238.56 L 304.76 249.32 L 306.25 260.00 L 307.74 272.03 L 313.69 280.08 L 315.18 269.41 L 316.67 258.73 L 318.15 251.44 L 322.62 257.37 L 325.60 260.00 L 327.08 258.73 L 333.04 260.00 L 333.04 260.00 L 333.04 260.00 L 333.04 260.00 L 333.04 260.00 L 333.04 260.00 L 333.04 260.00 L 333.04 260.00 L 333.04 260.00 L 333.04 260.00 L 333.04 260.00 L 333.04 260.00 L 343.45 280.08 L 346.43 282.71 L 347.92 301.53 L 349.40 304.07 L 353.87 301.27 L 355.36 301.27 L 356.85 290.85 L 358.33 294.66 L 359.82 278.81 L 364.29 270.68 L 364.29 270.68 L 365.77 270.68 L 368.75 281.44 L 368.75 281.44 L 376.19 278.81 L 377.68 260.00 L 379.17 260.00 L 385.12 246.19 L 388.10 234.58 L 388.10 234.58 L 391.07 247.54 L 397.02 215.85 L 397.02 215.85 L 397.02 215.85 L 397.02 215.85 L 397.02 215.85 L 397.02 215.85 L 397.02 215.85 L 397.02 215.85 L 397.02 215.85 L 401.49 215.85 L 410.42 202.37 L 416.37 203.73 L 419.35 203.73 L 420.83 203.73 L 420.83 203.73 L 428.27 203.73 L 429.76 203.73 L 429.76 203.73 L 429.76 203.73 L 429.76 203.73 L 447.62 203.73 L 449.11 203.73 L 458.04 118.81 L 459.52 102.97 L 459.52 102.97 L 517.56 155.34 L 520.54 155.34 L 522.02 155.34 L 525.00 174.15 L 526.49 175.51 L 526.49 175.51 L 532.44 175.51 L 533.93 175.51 L 535.42 175.51 L 536.90 175.51 L 541.37 175.51 L 542.86 175.51 L 545.83 175.51 L 547.32 175.51 L 551.79 175.51 L 553.27 175.51 L 553.27 175.51 L 557.74 175.51 L 562.20 175.51 L 563.69 175.51 L 565.18 175.51 L 566.67 175.51 L 568.15 175.51 L 574.11 156.36 L 575.60 145.93 L 577.08 144.58 L 578.57 147.37 L 583.04 147.37 L 584.52 147.37 L 584.52 147.37 L 587.50 167.46 L 588.99 167.46 L 593.45 167.46 L 594.94 167.46 L 596.43 167.46 L 597.92 167.46 L 599.40 167.46 L 599.40 167.46 L 605.36 167.46 L 605.36 167.46 L 606.85 167.46 L 609.82 167.46 L 614.29 167.46 L 615.77 167.46 L 618.75 167.46 L 620.24 167.46 L 626.19 167.46 L 627.68 167.46 L 629.17 167.46 L 630.65 190.34 L 635.12 188.98 L 636.61 156.69 L 638.10 158.05 L 638.10 158.05 L 641.07 156.69 L 645.54 135.17 L 647.02 135.17 L 648.51 125.85 L 650.00 115.08" /><text  class="poloto_text poloto_legend_text" x="675" y="200" >Refinance 30</text><line  class="poloto_line poloto_legend_icon poloto2stroke poloto2legend" stroke="black" x1="680" x2="730" y1="181.25" y2="181.25" /><path  class="poloto_line poloto2stroke" fill="none" stroke="black" d=" M 150.00 343.31 L 151.49 351.36 L 155.95 338.81 L 157.44 328.98 L 158.93 330.85 L 158.93 330.85 L 161.90 310.25 L 166.37 308.47 L 167.86 319.15 L 169.35 307.54 L 170.83 318.22 L 172.32 297.71 L 176.79 307.54 L 178.27 286.95 L 179.76 286.95 L 181.25 286.02 L 182.74 260.00 L 187.20 264.58 L 188.69 276.27 L 190.18 286.95 L 191.67 277.20 L 193.15 265.51 L 199.11 256.61 L 200.60 242.12 L 202.08 240.17 L 203.57 238.14 L 208.04 242.12 L 209.52 258.73 L 212.50 256.61 L 213.99 254.66 L 218.45 244.07 L 219.94 255.59 L 221.43 244.07 L 221.43 244.07 L 224.40 244.07 L 228.87 246.02 L 230.36 264.58 L 230.36 264.58 L 231.85 255.59 L 233.33 256.61 L 234.82 257.54 L 239.29 265.51 L 240.77 256.61 L 242.26 256.61 L 242.26 256.61 L 243.75 266.44 L 245.24 267.46 L 249.70 268.39 L 251.19 277.20 L 252.68 277.20 L 254.17 279.07 L 255.65 279.07 L 261.61 275.25 L 263.10 264.58 L 264.58 266.44 L 266.07 265.51 L 266.07 265.51 L 272.02 255.59 L 273.51 255.59 L 275.00 245.00 L 280.95 202.12 L 282.44 171.78 L 283.93 190.34 L 285.42 202.12 L 286.90 212.80 L 291.37 203.05 L 292.86 202.12 L 294.35 221.61 L 295.83 223.56 L 301.79 223.56 L 303.27 211.86 L 304.76 221.61 L 306.25 232.29 L 307.74 255.59 L 313.69 256.61 L 315.18 245.00 L 316.67 224.58 L 318.15 221.61 L 322.62 241.10 L 325.60 223.56 L 327.08 222.54 L 333.04 242.12 L 333.04 242.12 L 333.04 242.12 L 333.04 242.12 L 333.04 242.12 L 333.04 242.12 L 336.01 242.12 L 336.01 242.12 L 336.01 242.12 L 336.01 242.12 L 336.01 242.12 L 336.01 242.12 L 343.45 254.66 L 346.43 256.61 L 347.92 275.25 L 349.40 287.88 L 353.87 286.95 L 355.36 286.95 L 356.85 265.51 L 358.33 268.39 L 359.82 254.66 L 364.29 265.51 L 364.29 265.51 L 365.77 257.54 L 368.75 266.44 L 368.75 266.44 L 376.19 264.58 L 377.68 246.02 L 379.17 245.00 L 385.12 220.59 L 388.10 211.86 L 388.10 211.86 L 391.07 222.54 L 397.02 210.85 L 397.02 210.85 L 397.02 210.85 L 397.02 210.85 L 397.02 210.85 L 397.02 210.85 L 397.02 210.85 L 397.02 210.85 L 401.49 210.85 L 401.49 209.83 L 410.42 197.03 L 416.37 175.51 L 416.37 175.51 L 420.83 175.51 L 420.83 175.51 L 428.27 175.51 L 429.76 175.51 L 429.76 175.51 L 429.76 175.51 L 429.76 175.51 L 447.62 175.51 L 449.11 175.51 L 458.04 127.03 L 459.52 100.00 L 459.52 100.00 L 517.56 146.44 L 520.54 146.44 L 522.02 146.44 L 523.51 150.76 L 526.49 160.59 L 526.49 160.59 L 532.44 160.59 L 533.93 160.59 L 535.42 160.59 L 536.90 160.59 L 541.37 160.59 L 542.86 160.59 L 545.83 160.59 L 547.32 160.59 L 551.79 160.59 L 553.27 160.59 L 553.27 160.59 L 557.74 160.59 L 562.20 160.59 L 563.69 160.59 L 565.18 160.59 L 566.67 160.59 L 568.15 160.59 L 574.11 144.24 L 575.60 152.88 L 577.08 132.37 L 578.57 152.88 L 583.04 152.88 L 584.52 152.88 L 584.52 152.88 L 587.50 152.88 L 588.99 152.88 L 593.45 152.88 L 594.94 152.88 L 596.43 152.88 L 597.92 152.88 L 599.40 152.88 L 599.40 152.88 L 605.36 152.88 L 605.36 152.88 L 606.85 152.88 L 609.82 152.88 L 614.29 152.88 L 615.77 152.88 L 618.75 152.88 L 620.24 152.88 L 626.19 152.88 L 627.68 152.88 L 629.17 152.88 L 630.65 207.80 L 635.12 197.03 L 636.61 153.98 L 638.10 186.27 L 639.58 153.98 L 641.07 143.14 L 645.54 132.37 L 647.02 132.37 L 648.51 122.63 L 650.00 111.86" /><text  class="poloto_labels poloto_text poloto_title" x="400" y="37.5" >lower.com purchase rates</text><text  class="poloto_labels poloto_text poloto_xname" x="400" y="481.25" >Date</text><text  class="poloto_labels poloto_text poloto_yname" transform="rotate(-90,37.5,250)" x="37.5" y="250" >Rate (%)</text><text  class="poloto_tick_labels poloto_text" dominant-baseline="middle" text-anchor="start" x="150" y="70" ></text><line  class="poloto_axis_lines" stroke="black" x1="150" x2="144" y1="390.2542372881356" y2="390.2542372881356" /><line  class="poloto_tick_line" stroke="black" x1="150" x2="650" y1="390.2542372881356" y2="390.2542372881356" /><text  class="poloto_tick_labels poloto_text" dominant-baseline="middle" text-anchor="end" x="135" y="390.2542372881356" >3.625</text><line  class="poloto_axis_lines" stroke="black" x1="150" x2="144" y1="379.66101694915255" y2="379.66101694915255" /><line  class="poloto_tick_line" stroke="black" x1="150" x2="650" y1="379.66101694915255" y2="379.66101694915255" /><text  class="poloto_tick_labels poloto_text" dominant-baseline="middle" text-anchor="end" x="135" y="379.66101694915255" >3.75</text><line  class="poloto_axis_lines" stroke="black" x1="150" x2="144" y1="369.06779661016947" y2="369.06779661016947" /><line  class="poloto_tick_line" stroke="black" x1="150" x2="650" y1="369.06779661016947" y2="369.06779661016947" /><text  class="poloto_tick_labels poloto_text" dominant-baseline="middle" text-anchor="end" x="135" y="369.06779661016947" >3.875</text><line  class="poloto_axis_lines" stroke="black" x1="150" x2="144" y1="358.47457627118644" y2="358.47457627118644" /><line  class="poloto_tick_line" stroke="black" x1="150" x2="650" y1="358.47457627118644" y2="358.47457627118644" /><text  class="poloto_tick_labels poloto_text" dominant-baseline="middle" text-anchor="end" x="135" y="358.47457627118644" >4</text><line  class="poloto_axis_lines" stroke="black" x1="150" x2="144" y1="347.8813559322034" y2="347.8813559322034" /><line  class="poloto_tick_line" stroke="black" x1="150" x2="650" y1="347.8813559322034" y2="347.8813559322034" /><text  class="poloto_tick_labels poloto_text" dominant-baseline="middle" text-anchor="end" x="135" y="347.8813559322034" >4.125</text><line  class="poloto_axis_lines" stroke="black" x1="150" x2="144" y1="337.2881355932203" y2="337.2881355932203" /><line  class="poloto_tick_line" stroke="black" x1="150" x2="650" y1="337.2881355932203" y2="337.2881355932203" /><text  class="poloto_tick_labels poloto_text" dominant-baseline="middle" text-anchor="end" x="135" y="337.2881355932203" >4.25</text><line  class="poloto_axis_lines" stroke="black" x1="150" x2="144" y1="326.6949152542373" y2="326.6949152542373" /><line  class="poloto_tick_line" stroke="black" x1="150" x2="650" y1="326.6949152542373" y2="326.6949152542373" /><text  class="poloto_tick_labels poloto_text" dominant-baseline="middle" text-anchor="end" x="135" y="326.6949152542373" >4.375</text><line  class="poloto_axis_lines" stroke="black" x1="150" x2="144" y1="316.10169491525426" y2="316.10169491525426" /><line  class="poloto_tick_line" stroke="black" x1="150" x2="650" y1="316.10169491525426" y2="316.10169491525426" /><text  class="poloto_tick_labels poloto_text" dominant-baseline="middle" text-anchor="end" x="135" y="316.10169491525426" >4.5</text><line  class="poloto_axis_lines" stroke="black" x1="150" x2="144" y1="305.50847457627117" y2="305.50847457627117" /><line  class="poloto_tick_line" stroke="black" x1="150" x2="650" y1="305.50847457627117" y2="305.50847457627117" /><text  class="poloto_tick_labels poloto_text" dominant-baseline="middle" text-anchor="end" x="135" y="305.50847457627117" >4.625</text><line  class="poloto_axis_lines" stroke="black" x1="150" x2="144" y1="294.91525423728814" y2="294.91525423728814" /><line  class="poloto_tick_line" stroke="black" x1="150" x2="650" y1="294.91525423728814" y2="294.91525423728814" /><text  class="poloto_tick_labels poloto_text" dominant-baseline="middle" text-anchor="end" x="135" y="294.91525423728814" >4.75</text><line  class="poloto_axis_lines" stroke="black" x1="150" x2="144" y1="284.3220338983051" y2="284.3220338983051" /><line  class="poloto_tick_line" stroke="black" x1="150" x2="650" y1="284.3220338983051" y2="284.3220338983051" /><text  class="poloto_tick_labels poloto_text" dominant-baseline="middle" text-anchor="end" x="135" y="284.3220338983051" >4.875</text><line  class="poloto_axis_lines" stroke="black" x1="150" x2="144" y1="273.728813559322" y2="273.728813559322" /><line  class="poloto_tick_line" stroke="black" x1="150" x2="650" y1="273.728813559322" y2="273.728813559322" /><text  class="poloto_tick_labels poloto_text" dominant-baseline="middle" text-anchor="end" x="135" y="273.728813559322" >5</text><line  class="poloto_axis_lines" stroke="black" x1="150" x2="144" y1="263.135593220339" y2="263.135593220339" /><line  class="poloto_tick_line" stroke="black" x1="150" x2="650" y1="263.135593220339" y2="263.135593220339" /><text  class="poloto_tick_labels poloto_text" dominant-baseline="middle" text-anchor="end" x="135" y="263.135593220339" >5.125</text><line  class="poloto_axis_lines" stroke="black" x1="150" x2="144" y1="252.54237288135596" y2="252.54237288135596" /><line  class="poloto_tick_line" stroke="black" x1="150" x2="650" y1="252.54237288135596" y2="252.54237288135596" /><text  class="poloto_tick_labels poloto_text" dominant-baseline="middle" text-anchor="end" x="135" y="252.54237288135596" >5.25</text><line  class="poloto_axis_lines" stroke="black" x1="150" x2="144" y1="241.94915254237287" y2="241.94915254237287" /><line  class="poloto_tick_line" stroke="black" x1="150" x2="650" y1="241.94915254237287" y2="241.94915254237287" /><text  class="poloto_tick_labels poloto_text" dominant-baseline="middle" text-anchor="end" x="135" y="241.94915254237287" >5.375</text><line  class="poloto_axis_lines" stroke="black" x1="150" x2="144" y1="231.35593220338984" y2="231.35593220338984" /><line  class="poloto_tick_line" stroke="black" x1="150" x2="650" y1="231.35593220338984" y2="231.35593220338984" /><text  class="poloto_tick_labels poloto_text" dominant-baseline="middle" text-anchor="end" x="135" y="231.35593220338984" >5.5</text><line  class="poloto_axis_lines" stroke="black" x1="150" x2="144" y1="220.7627118644068" y2="220.7627118644068" /><line  class="poloto_tick_line" stroke="black" x1="150" x2="650" y1="220.7627118644068" y2="220.7627118644068" /><text  class="poloto_tick_labels poloto_text" dominant-baseline="middle" text-anchor="end" x="135" y="220.7627118644068" >5.625</text><line  class="poloto_axis_lines" stroke="black" x1="150" x2="144" y1="210.16949152542372" y2="210.16949152542372" /><line  class="poloto_tick_line" stroke="black" x1="150" x2="650" y1="210.16949152542372" y2="210.16949152542372" /><text  class="poloto_tick_labels poloto_text" dominant-baseline="middle" text-anchor="end" x="135" y="210.16949152542372" >5.75</text><line  class="poloto_axis_lines" stroke="black" x1="150" x2="144" y1="199.5762711864407" y2="199.5762711864407" /><line  class="poloto_tick_line" stroke="black" x1="150" x2="650" y1="199.5762711864407" y2="199.5762711864407" /><text  class="poloto_tick_labels poloto_text" dominant-baseline="middle" text-anchor="end" x="135" y="199.5762711864407" >5.875</text><line  class="poloto_axis_lines" stroke="black" x1="150" x2="144" y1="188.98305084745766" y2="188.98305084745766" /><line  class="poloto_tick_line" stroke="black" x1="150" x2="650" y1="188.98305084745766" y2="188.98305084745766" /><text  class="poloto_tick_labels poloto_text" dominant-baseline="middle" text-anchor="end" x="135" y="188.98305084745766" >6</text><line  class="poloto_axis_lines" stroke="black" x1="150" x2="144" y1="178.38983050847457" y2="178.38983050847457" /><line  class="poloto_tick_line" stroke="black" x1="150" x2="650" y1="178.38983050847457" y2="178.38983050847457" /><text  class="poloto_tick_labels poloto_text" dominant-baseline="middle" text-anchor="end" x="135" y="178.38983050847457" >6.125</text><line  class="poloto_axis_lines" stroke="black" x1="150" x2="144" y1="167.7966101694915" y2="167.7966101694915" /><line  class="poloto_tick_line" stroke="black" x1="150" x2="650" y1="167.7966101694915" y2="167.7966101694915" /><text  class="poloto_tick_labels poloto_text" dominant-baseline="middle" text-anchor="end" x="135" y="167.7966101694915" >6.25</text><line  class="poloto_axis_lines" stroke="black" x1="150" x2="144" y1="157.2033898305085" y2="157.2033898305085" /><line  class="poloto_tick_line" stroke="black" x1="150" x2="650" y1="157.2033898305085" y2="157.2033898305085" /><text  class="poloto_tick_labels poloto_text" dominant-baseline="middle" text-anchor="end" x="135" y="157.2033898305085" >6.375</text><line  class="poloto_axis_lines" stroke="black" x1="150" x2="144" y1="146.61016949152543" y2="146.61016949152543" /><line  class="poloto_tick_line" stroke="black" x1="150" x2="650" y1="146.61016949152543" y2="146.61016949152543" /><text  class="poloto_tick_labels poloto_text" dominant-baseline="middle" text-anchor="end" x="135" y="146.61016949152543" >6.5</text><line  class="poloto_axis_lines" stroke="black" x1="150" x2="144" y1="136.01694915254234" y2="136.01694915254234" /><line  class="poloto_tick_line" stroke="black" x1="150" x2="650" y1="136.01694915254234" y2="136.01694915254234" /><text  class="poloto_tick_labels poloto_text" dominant-baseline="middle" text-anchor="end" x="135" y="136.01694915254234" >6.625</text><line  class="poloto_axis_lines" stroke="black" x1="150" x2="144" y1="125.42372881355936" y2="125.42372881355936" /><line  class="poloto_tick_line" stroke="black" x1="150" x2="650" y1="125.42372881355936" y2="125.42372881355936" /><text  class="poloto_tick_labels poloto_text" dominant-baseline="middle" text-anchor="end" x="135" y="125.42372881355936" >6.75</text><line  class="poloto_axis_lines" stroke="black" x1="150" x2="144" y1="114.83050847457628" y2="114.83050847457628" /><line  class="poloto_tick_line" stroke="black" x1="150" x2="650" y1="114.83050847457628" y2="114.83050847457628" /><text  class="poloto_tick_labels poloto_text" dominant-baseline="middle" text-anchor="end" x="135" y="114.83050847457628" >6.875</text><line  class="poloto_axis_lines" stroke="black" x1="150" x2="144" y1="104.23728813559319" y2="104.23728813559319" /><line  class="poloto_tick_line" stroke="black" x1="150" x2="650" y1="104.23728813559319" y2="104.23728813559319" /><text  class="poloto_tick_labels poloto_text" dominant-baseline="middle" text-anchor="end" x="135" y="104.23728813559319" >7</text><text  class="poloto_tick_labels poloto_text" dominant-baseline="middle" text-anchor="start" x="440.00000000000006" y="70" >¹2022-05-01 00:00:00 UTC in Months</text><line  class="poloto_axis_lines" stroke="black" x1="216.9642857142826" x2="216.9642857142826" y1="400" y2="405" /><line  class="poloto_tick_line" stroke="black" x1="216.9642857142826" x2="216.9642857142826" y1="400" y2="100" /><text  class="poloto_tick_labels poloto_text" dominant-baseline="start" text-anchor="middle" x="216.9642857142826" y="430" >2022 May¹</text><line  class="poloto_axis_lines" stroke="black" x1="307.7380952380954" x2="307.7380952380954" y1="400" y2="405" /><line  class="poloto_tick_line" stroke="black" x1="307.7380952380954" x2="307.7380952380954" y1="400" y2="100" /><text  class="poloto_tick_labels poloto_text" dominant-baseline="start" text-anchor="middle" x="307.7380952380954" y="430" >2022 Jul</text><line  class="poloto_axis_lines" stroke="black" x1="400" x2="400" y1="400" y2="405" /><line  class="poloto_tick_line" stroke="black" x1="400" x2="400" y1="400" y2="100" /><text  class="poloto_tick_labels poloto_text" dominant-baseline="start" text-anchor="middle" x="400" y="430" >2022 Sep</text><line  class="poloto_axis_lines" stroke="black" x1="490.7738095238092" x2="490.7738095238092" y1="400" y2="405" /><line  class="poloto_tick_line" stroke="black" x1="490.7738095238092" x2="490.7738095238092" y1="400" y2="100" /><text  class="poloto_tick_labels poloto_text" dominant-baseline="start" text-anchor="middle" x="490.7738095238092" y="430" >2022 Nov</text><line  class="poloto_axis_lines" stroke="black" x1="581.5476190476184" x2="581.5476190476184" y1="400" y2="405" /><line  class="poloto_tick_line" stroke="black" x1="581.5476190476184" x2="581.5476190476184" y1="400" y2="100" /><text  class="poloto_tick_labels poloto_text" dominant-baseline="start" text-anchor="middle" x="581.5476190476184" y="430" >2023 Jan</text><path  stroke="black" fill="none" class="poloto_axis_lines" d=" M 150 400 L 650 400" /><path  stroke="black" fill="none" class="poloto_axis_lines" d=" M 150 400 L 150 100" /></svg>