<svg class="poloto" width="800" height="500" viewBox="0 0 800 500" xmlns="http://www.w3.org/2000/svg"><style>.poloto{stroke-linecap:round;stroke-linejoin:round;font-family:Roboto,sans-serif;font-size:16px;}.poloto_background{fill:#262626;}.poloto_scatter{stroke-width:7}.poloto_tick_line{stroke:dimgray;stroke-width:0.5}.poloto_line{stroke-width:2}.poloto_text{fill: white;}.poloto_axis_lines{stroke: white;stroke-width:3;fill:none;stroke-dasharray:none}.poloto_title{font-size:24px;dominant-baseline:start;text-anchor:middle;}.poloto_xname{font-size:24px;dominant-baseline:start;text-anchor:middle;}.poloto_yname{font-size:24px;dominant-baseline:start;text-anchor:middle;}.poloto0stroke{stroke:blue;}.poloto1stroke{stroke:red;}.poloto2stroke{stroke:green;}.poloto3stroke{stroke:gold;}.poloto4stroke{stroke:aqua;}.poloto5stroke{stroke:lime;}.poloto6stroke{stroke:orange;}.poloto7stroke{stroke:chocolate;}.poloto0fill{fill:blue;}.poloto1fill{fill:red;}.poloto2fill{fill:green;}.poloto3fill{fill:gold;}.poloto4fill{fill:aqua;}.poloto5fill{fill:lime;}.poloto6fill{fill:orange;}.poloto7fill{fill:chocolate;}</style><circle  r="1e5" class="poloto_background" /><text  class="poloto_text poloto_legend_text" x="675" y="100" >Refinance 15</text><line  class="poloto_line poloto_legend_icon poloto0stroke poloto0legend" stroke="black" x1="680" x2="730" y1="81.25" y2="81.25" /><path  class="poloto_line poloto0stroke" fill="none" stroke="black" d=" M 150.00 390.09 L 152.69 400.00 L 160.75 385.96 L 163.44 373.93 L 166.13 385.96 L 166.13 385.96 L 171.51 345.86 L 179.57 343.74 L 182.26 357.78 L 184.95 327.48 L 187.63 329.60 L 190.32 323.25 L 198.39 325.36 L 201.08 316.90 L 201.08 316.90 L 206.45 317.68 L 209.14 287.37 L 217.20 300.52 L 219.89 304.75 L 222.58 304.75 L 225.27 303.64 L 227.96 297.18 L 238.71 240.59 L 241.40 265.76 L 244.09 246.27 L 246.77 238.69 L 246.77 238.69 L 257.53 267.99 L 262.90 273.34 L 265.59 261.42 L 273.66 247.27 L 276.34 275.45 L 279.03 261.42 L 279.03 261.42 L 284.41 259.19 L 292.47 263.54 L 295.16 277.57 L 295.16 277.57 L 297.85 265.65 L 300.54 279.80 L 303.23 259.19 L 311.29 301.52 L 313.98 300.52 L 316.67 277.57 L 316.67 277.57 L 319.35 287.37 L 322.04 291.72 L 330.11 291.72 L 332.80 306.87 L 335.48 306.87 L 338.17 306.87 L 340.86 306.87 L 351.61 291.72 L 354.30 287.37 L 356.99 289.49 L 359.68 289.49 L 359.68 289.49 L 370.43 275.45 L 373.12 275.45 L 375.81 263.54 L 386.56 244.04 L 389.25 203.82 L 391.94 208.28 L 394.62 208.28 L 397.31 236.46 L 405.38 208.28 L 408.06 208.28 L 410.75 234.24 L 413.44 238.69 L 424.19 238.69 L 426.88 236.46 L 429.57 243.04 L 432.26 249.50 L 434.95 263.54 L 445.70 273.34 L 448.39 261.42 L 451.08 251.62 L 453.76 247.27 L 461.83 249.50 L 467.20 249.50 L 469.89 247.27 L 480.65 245.15 L 480.65 245.15 L 480.65 245.15 L 480.65 245.15 L 480.65 245.15 L 480.65 245.15 L 486.02 245.15 L 486.02 245.15 L 486.02 245.15 L 486.02 245.15 L 486.02 245.15 L 486.02 245.15 L 499.46 261.42 L 504.84 265.65 L 507.53 302.64 L 510.22 306.87 L 518.28 306.87 L 520.97 304.75 L 523.66 275.45 L 526.34 267.88 L 529.03 249.50 L 537.10 263.54 L 537.10 263.54 L 539.78 251.62 L 545.16 263.54 L 545.16 263.54 L 558.60 263.54 L 561.29 219.20 L 563.98 245.15 L 574.73 200.71 L 580.11 200.71 L 580.11 200.71 L 585.48 216.97 L 596.24 208.28 L 596.24 208.28 L 596.24 208.28 L 596.24 208.28 L 596.24 208.28 L 596.24 208.28 L 596.24 208.28 L 596.24 208.28 L 596.24 208.28 L 604.30 208.28 L 620.43 179.99 L 631.18 183.33 L 631.18 183.33 L 639.25 183.33 L 650.00 183.33" /><text  class="poloto_text poloto_legend_text" x="675" y="150" >Refinance 20</text><line  class="poloto_line poloto_legend_icon poloto1stroke poloto1legend" stroke="black" x1="680" x2="730" y1="131.25" y2="131.25" /><path  class="poloto_line poloto1stroke" fill="none" stroke="black" d=" M 150.00 328.59 L 152.69 358.34 L 160.75 314.00 L 163.44 300.41 L 166.13 312.89 L 166.13 312.89 L 171.51 273.90 L 179.57 270.55 L 182.26 284.70 L 184.95 268.88 L 187.63 283.03 L 190.32 256.52 L 198.39 297.07 L 201.08 256.52 L 201.08 256.52 L 206.45 256.52 L 206.45 256.52 L 217.20 203.04 L 219.89 245.82 L 222.58 256.52 L 225.27 270.55 L 227.96 243.04 L 238.71 215.97 L 241.40 212.51 L 244.09 205.61 L 246.77 189.79 L 254.84 196.70 L 257.53 226.66 L 262.90 215.97 L 265.59 212.51 L 273.66 201.26 L 276.34 214.30 L 279.03 214.30 L 279.03 214.30 L 284.41 214.30 L 292.47 215.97 L 295.16 244.15 L 295.16 244.15 L 297.85 228.33 L 300.54 254.85 L 303.23 244.15 L 311.29 245.82 L 313.98 244.15 L 316.67 244.15 L 316.67 244.15 L 319.35 245.82 L 322.04 254.85 L 330.11 256.52 L 332.80 261.53 L 335.48 261.53 L 338.17 261.53 L 340.86 261.53 L 351.61 254.85 L 354.30 240.70 L 356.99 244.15 L 359.68 244.15 L 359.68 244.15 L 370.43 226.66 L 373.12 230.00 L 375.81 217.64 L 386.56 157.93 L 389.25 133.20 L 391.94 147.34 L 394.62 157.93 L 397.31 187.78 L 405.38 170.18 L 408.06 161.38 L 410.75 189.57 L 413.44 203.04 L 424.19 203.04 L 426.88 187.78 L 429.57 201.93 L 432.26 215.97 L 434.95 231.79 L 445.70 242.37 L 448.39 228.33 L 451.08 214.30 L 453.76 204.72 L 461.83 212.51 L 467.20 215.97 L 469.89 214.30 L 480.65 215.97 L 480.65 215.97 L 480.65 215.97 L 480.65 215.97 L 480.65 215.97 L 480.65 215.97 L 480.65 215.97 L 480.65 215.97 L 480.65 215.97 L 480.65 215.97 L 480.65 215.97 L 480.65 215.97 L 499.46 242.37 L 504.84 245.82 L 507.53 270.55 L 510.22 273.90 L 518.28 270.22 L 520.97 270.22 L 523.66 256.52 L 526.34 261.53 L 529.03 240.70 L 537.10 230.00 L 537.10 230.00 L 539.78 230.00 L 545.16 244.15 L 545.16 244.15 L 558.60 240.70 L 561.29 215.97 L 563.98 215.97 L 574.73 197.81 L 580.11 182.55 L 580.11 182.55 L 585.48 199.59 L 596.24 157.93 L 596.24 157.93 L 596.24 157.93 L 596.24 157.93 L 596.24 157.93 L 596.24 157.93 L 596.24 157.93 L 596.24 157.93 L 596.24 157.93 L 604.30 157.93 L 620.43 140.22 L 631.18 142.00 L 636.56 142.00 L 639.25 142.00 L 639.25 142.00" /><text  class="poloto_text poloto_legend_text" x="675" y="200" >Refinance 30</text><line  class="poloto_line poloto_legend_icon poloto2stroke poloto2legend" stroke="black" x1="680" x2="730" y1="181.25" y2="181.25" /><path  class="poloto_line poloto2stroke" fill="none" stroke="black" d=" M 150.00 325.47 L 152.69 336.06 L 160.75 319.57 L 163.44 306.65 L 166.13 309.10 L 166.13 309.10 L 171.51 282.03 L 179.57 279.69 L 182.26 293.72 L 184.95 278.46 L 187.63 292.50 L 190.32 265.54 L 198.39 278.46 L 201.08 251.39 L 203.76 251.39 L 206.45 250.17 L 209.14 215.97 L 217.20 221.98 L 219.89 237.36 L 222.58 251.39 L 225.27 238.58 L 227.96 223.21 L 238.71 211.51 L 241.40 192.46 L 244.09 189.90 L 246.77 187.23 L 254.84 192.46 L 257.53 214.30 L 262.90 211.51 L 265.59 208.95 L 273.66 195.02 L 276.34 210.17 L 279.03 195.02 L 279.03 195.02 L 284.41 195.02 L 292.47 197.59 L 295.16 221.98 L 295.16 221.98 L 297.85 210.17 L 300.54 211.51 L 303.23 212.74 L 311.29 223.21 L 313.98 211.51 L 316.67 211.51 L 316.67 211.51 L 319.35 224.43 L 322.04 225.77 L 330.11 227.00 L 332.80 238.58 L 335.48 238.58 L 338.17 241.03 L 340.86 241.03 L 351.61 236.02 L 354.30 221.98 L 356.99 224.43 L 359.68 223.21 L 359.68 223.21 L 370.43 210.17 L 373.12 210.17 L 375.81 196.25 L 386.56 139.88 L 389.25 100.00 L 391.94 124.40 L 394.62 139.88 L 397.31 153.92 L 405.38 141.11 L 408.06 139.88 L 410.75 165.50 L 413.44 168.07 L 424.19 168.07 L 426.88 152.69 L 429.57 165.50 L 432.26 179.54 L 434.95 210.17 L 445.70 211.51 L 448.39 196.25 L 451.08 169.40 L 453.76 165.50 L 461.83 191.13 L 467.20 168.07 L 469.89 166.73 L 480.65 192.46 L 480.65 192.46 L 480.65 192.46 L 480.65 192.46 L 480.65 192.46 L 480.65 192.46 L 486.02 192.46 L 486.02 192.46 L 486.02 192.46 L 486.02 192.46 L 486.02 192.46 L 486.02 192.46 L 499.46 208.95 L 504.84 211.51 L 507.53 236.02 L 510.22 252.62 L 518.28 251.39 L 520.97 251.39 L 523.66 223.21 L 526.34 227.00 L 529.03 208.95 L 537.10 223.21 L 537.10 223.21 L 539.78 212.74 L 545.16 224.43 L 545.16 224.43 L 558.60 221.98 L 561.29 197.59 L 563.98 196.25 L 574.73 164.17 L 580.11 152.69 L 580.11 152.69 L 585.48 166.73 L 596.24 151.36 L 596.24 151.36 L 596.24 151.36 L 596.24 151.36 L 596.24 151.36 L 596.24 151.36 L 596.24 151.36 L 596.24 151.36 L 604.30 151.36 L 604.30 150.02 L 620.43 133.20 L 631.18 104.90 L 631.18 104.90 L 639.25 104.90 L 639.25 104.90" /><text  class="poloto_labels poloto_text poloto_title" x="400" y="37.5" >lower.com purchase rates</text><text  class="poloto_labels poloto_text poloto_xname" x="400" y="481.25" >Date</text><text  class="poloto_labels poloto_text poloto_yname" transform="rotate(-90,37.5,250)" x="37.5" y="250" >Rate (%)</text><text  class="poloto_tick_labels poloto_text" dominant-baseline="middle" text-anchor="start" x="150" y="70" ></text><line  class="poloto_axis_lines" stroke="black" x1="150" x2="144" y1="387.18900854066095" y2="387.18900854066095" /><line  class="poloto_tick_line" stroke="black" x1="150" x2="650" y1="387.18900854066095" y2="387.18900854066095" /><text  class="poloto_tick_labels poloto_text" dominant-baseline="middle" text-anchor="end" x="135" y="387.18900854066095" >3.625</text><line  class="poloto_axis_lines" stroke="black" x1="150" x2="144" y1="373.26401782398807" y2="373.26401782398807" /><line  class="poloto_tick_line" stroke="black" x1="150" x2="650" y1="373.26401782398807" y2="373.26401782398807" /><text  class="poloto_tick_labels poloto_text" dominant-baseline="middle" text-anchor="end" x="135" y="373.26401782398807" >3.75</text><line  class="poloto_axis_lines" stroke="black" x1="150" x2="144" y1="359.33902710731525" y2="359.33902710731525" /><line  class="poloto_tick_line" stroke="black" x1="150" x2="650" y1="359.33902710731525" y2="359.33902710731525" /><text  class="poloto_tick_labels poloto_text" dominant-baseline="middle" text-anchor="end" x="135" y="359.33902710731525" >3.875</text><line  class="poloto_axis_lines" stroke="black" x1="150" x2="144" y1="345.41403639064237" y2="345.41403639064237" /><line  class="poloto_tick_line" stroke="black" x1="150" x2="650" y1="345.41403639064237" y2="345.41403639064237" /><text  class="poloto_tick_labels poloto_text" dominant-baseline="middle" text-anchor="end" x="135" y="345.41403639064237" >4</text><line  class="poloto_axis_lines" stroke="black" x1="150" x2="144" y1="331.4890456739695" y2="331.4890456739695" /><line  class="poloto_tick_line" stroke="black" x1="150" x2="650" y1="331.4890456739695" y2="331.4890456739695" /><text  class="poloto_tick_labels poloto_text" dominant-baseline="middle" text-anchor="end" x="135" y="331.4890456739695" >4.125</text><line  class="poloto_axis_lines" stroke="black" x1="150" x2="144" y1="317.56405495729666" y2="317.56405495729666" /><line  class="poloto_tick_line" stroke="black" x1="150" x2="650" y1="317.56405495729666" y2="317.56405495729666" /><text  class="poloto_tick_labels poloto_text" dominant-baseline="middle" text-anchor="end" x="135" y="317.56405495729666" >4.25</text><line  class="poloto_axis_lines" stroke="black" x1="150" x2="144" y1="303.6390642406238" y2="303.6390642406238" /><line  class="poloto_tick_line" stroke="black" x1="150" x2="650" y1="303.6390642406238" y2="303.6390642406238" /><text  class="poloto_tick_labels poloto_text" dominant-baseline="middle" text-anchor="end" x="135" y="303.6390642406238" >4.375</text><line  class="poloto_axis_lines" stroke="black" x1="150" x2="144" y1="289.71407352395096" y2="289.71407352395096" /><line  class="poloto_tick_line" stroke="black" x1="150" x2="650" y1="289.71407352395096" y2="289.71407352395096" /><text  class="poloto_tick_labels poloto_text" dominant-baseline="middle" text-anchor="end" x="135" y="289.71407352395096" >4.5</text><line  class="poloto_axis_lines" stroke="black" x1="150" x2="144" y1="275.7890828072781" y2="275.7890828072781" /><line  class="poloto_tick_line" stroke="black" x1="150" x2="650" y1="275.7890828072781" y2="275.7890828072781" /><text  class="poloto_tick_labels poloto_text" dominant-baseline="middle" text-anchor="end" x="135" y="275.7890828072781" >4.625</text><line  class="poloto_axis_lines" stroke="black" x1="150" x2="144" y1="261.86409209060525" y2="261.86409209060525" /><line  class="poloto_tick_line" stroke="black" x1="150" x2="650" y1="261.86409209060525" y2="261.86409209060525" /><text  class="poloto_tick_labels poloto_text" dominant-baseline="middle" text-anchor="end" x="135" y="261.86409209060525" >4.75</text><line  class="poloto_axis_lines" stroke="black" x1="150" x2="144" y1="247.93910137393243" y2="247.93910137393243" /><line  class="poloto_tick_line" stroke="black" x1="150" x2="650" y1="247.93910137393243" y2="247.93910137393243" /><text  class="poloto_tick_labels poloto_text" dominant-baseline="middle" text-anchor="end" x="135" y="247.93910137393243" >4.875</text><line  class="poloto_axis_lines" stroke="black" x1="150" x2="144" y1="234.0141106572595" y2="234.0141106572595" /><line  class="poloto_tick_line" stroke="black" x1="150" x2="650" y1="234.0141106572595" y2="234.0141106572595" /><text  class="poloto_tick_labels poloto_text" dominant-baseline="middle" text-anchor="end" x="135" y="234.0141106572595" >5</text><line  class="poloto_axis_lines" stroke="black" x1="150" x2="144" y1="220.08911994058667" y2="220.08911994058667" /><line  class="poloto_tick_line" stroke="black" x1="150" x2="650" y1="220.08911994058667" y2="220.08911994058667" /><text  class="poloto_tick_labels poloto_text" dominant-baseline="middle" text-anchor="end" x="135" y="220.08911994058667" >5.125</text><line  class="poloto_axis_lines" stroke="black" x1="150" x2="144" y1="206.16412922391385" y2="206.16412922391385" /><line  class="poloto_tick_line" stroke="black" x1="150" x2="650" y1="206.16412922391385" y2="206.16412922391385" /><text  class="poloto_tick_labels poloto_text" dominant-baseline="middle" text-anchor="end" x="135" y="206.16412922391385" >5.25</text><line  class="poloto_axis_lines" stroke="black" x1="150" x2="144" y1="192.23913850724102" y2="192.23913850724102" /><line  class="poloto_tick_line" stroke="black" x1="150" x2="650" y1="192.23913850724102" y2="192.23913850724102" /><text  class="poloto_tick_labels poloto_text" dominant-baseline="middle" text-anchor="end" x="135" y="192.23913850724102" >5.375</text><line  class="poloto_axis_lines" stroke="black" x1="150" x2="144" y1="178.3141477905681" y2="178.3141477905681" /><line  class="poloto_tick_line" stroke="black" x1="150" x2="650" y1="178.3141477905681" y2="178.3141477905681" /><text  class="poloto_tick_labels poloto_text" dominant-baseline="middle" text-anchor="end" x="135" y="178.3141477905681" >5.5</text><line  class="poloto_axis_lines" stroke="black" x1="150" x2="144" y1="164.38915707389526" y2="164.38915707389526" /><line  class="poloto_tick_line" stroke="black" x1="150" x2="650" y1="164.38915707389526" y2="164.38915707389526" /><text  class="poloto_tick_labels poloto_text" dominant-baseline="middle" text-anchor="end" x="135" y="164.38915707389526" >5.625</text><line  class="poloto_axis_lines" stroke="black" x1="150" x2="144" y1="150.46416635722244" y2="150.46416635722244" /><line  class="poloto_tick_line" stroke="black" x1="150" x2="650" y1="150.46416635722244" y2="150.46416635722244" /><text  class="poloto_tick_labels poloto_text" dominant-baseline="middle" text-anchor="end" x="135" y="150.46416635722244" >5.75</text><line  class="poloto_axis_lines" stroke="black" x1="150" x2="144" y1="136.53917564054962" y2="136.53917564054962" /><line  class="poloto_tick_line" stroke="black" x1="150" x2="650" y1="136.53917564054962" y2="136.53917564054962" /><text  class="poloto_tick_labels poloto_text" dominant-baseline="middle" text-anchor="end" x="135" y="136.53917564054962" >5.875</text><line  class="poloto_axis_lines" stroke="black" x1="150" x2="144" y1="122.61418492387668" y2="122.61418492387668" /><line  class="poloto_tick_line" stroke="black" x1="150" x2="650" y1="122.61418492387668" y2="122.61418492387668" /><text  class="poloto_tick_labels poloto_text" dominant-baseline="middle" text-anchor="end" x="135" y="122.61418492387668" >6</text><line  class="poloto_axis_lines" stroke="black" x1="150" x2="144" y1="108.68919420720385" y2="108.68919420720385" /><line  class="poloto_tick_line" stroke="black" x1="150" x2="650" y1="108.68919420720385" y2="108.68919420720385" /><text  class="poloto_tick_labels poloto_text" dominant-baseline="middle" text-anchor="end" x="135" y="108.68919420720385" >6.125</text><text  class="poloto_tick_labels poloto_text" dominant-baseline="middle" text-anchor="start" x="440.00000000000006" y="70" >¹2022-04-01 00:00:00 UTC in Months</text><line  class="poloto_axis_lines" stroke="black" x1="190.32258064515918" x2="190.32258064515918" y1="400" y2="405" /><line  class="poloto_tick_line" stroke="black" x1="190.32258064515918" x2="190.32258064515918" y1="400" y2="100" /><text  class="poloto_tick_labels poloto_text" dominant-baseline="start" text-anchor="middle" x="190.32258064515918" y="430" >2022 Apr¹</text><line  class="poloto_axis_lines" stroke="black" x1="270.96774193547753" x2="270.96774193547753" y1="400" y2="405" /><line  class="poloto_tick_line" stroke="black" x1="270.96774193547753" x2="270.96774193547753" y1="400" y2="100" /><text  class="poloto_tick_labels poloto_text" dominant-baseline="start" text-anchor="middle" x="270.96774193547753" y="430" >2022 May</text><line  class="poloto_axis_lines" stroke="black" x1="354.3010752688133" x2="354.3010752688133" y1="400" y2="405" /><line  class="poloto_tick_line" stroke="black" x1="354.3010752688133" x2="354.3010752688133" y1="400" y2="100" /><text  class="poloto_tick_labels poloto_text" dominant-baseline="start" text-anchor="middle" x="354.3010752688133" y="430" >2022 Jun</text><line  class="poloto_axis_lines" stroke="black" x1="434.9462365591389" x2="434.9462365591389" y1="400" y2="405" /><line  class="poloto_tick_line" stroke="black" x1="434.9462365591389" x2="434.9462365591389" y1="400" y2="100" /><text  class="poloto_tick_labels poloto_text" dominant-baseline="start" text-anchor="middle" x="434.9462365591389" y="430" >2022 Jul</text><line  class="poloto_axis_lines" stroke="black" x1="518.2795698924674" x2="518.2795698924674" y1="400" y2="405" /><line  class="poloto_tick_line" stroke="black" x1="518.2795698924674" x2="518.2795698924674" y1="400" y2="100" /><text  class="poloto_tick_labels poloto_text" dominant-baseline="start" text-anchor="middle" x="518.2795698924674" y="430" >2022 Aug</text><line  class="poloto_axis_lines" stroke="black" x1="601.6129032258032" x2="601.6129032258032" y1="400" y2="405" /><line  class="poloto_tick_line" stroke="black" x1="601.6129032258032" x2="601.6129032258032" y1="400" y2="100" /><text  class="poloto_tick_labels poloto_text" dominant-baseline="start" text-anchor="middle" x="601.6129032258032" y="430" >2022 Sep</text><path  stroke="black" fill="none" class="poloto_axis_lines" d=" M 150 400 L 650 400" /><path  stroke="black" fill="none" class="poloto_axis_lines" d=" M 150 400 L 150 100" /></svg>