<svg class="poloto" width="800" height="500" viewBox="0 0 800 500" xmlns="http://www.w3.org/2000/svg"><style>.poloto{stroke-linecap:round;stroke-linejoin:round;font-family:Roboto,sans-serif;font-size:16px;}.poloto_background{fill:#262626;}.poloto_scatter{stroke-width:7}.poloto_tick_line{stroke:dimgray;stroke-width:0.5}.poloto_line{stroke-width:2}.poloto_text{fill: white;}.poloto_axis_lines{stroke: white;stroke-width:3;fill:none;stroke-dasharray:none}.poloto_title{font-size:24px;dominant-baseline:start;text-anchor:middle;}.poloto_xname{font-size:24px;dominant-baseline:start;text-anchor:middle;}.poloto_yname{font-size:24px;dominant-baseline:start;text-anchor:middle;}.poloto0stroke{stroke:blue;}.poloto1stroke{stroke:red;}.poloto2stroke{stroke:green;}.poloto3stroke{stroke:gold;}.poloto4stroke{stroke:aqua;}.poloto5stroke{stroke:lime;}.poloto6stroke{stroke:orange;}.poloto7stroke{stroke:chocolate;}.poloto0fill{fill:blue;}.poloto1fill{fill:red;}.poloto2fill{fill:green;}.poloto3fill{fill:gold;}.poloto4fill{fill:aqua;}.poloto5fill{fill:lime;}.poloto6fill{fill:orange;}.poloto7fill{fill:chocolate;}</style><circle  r="1e5" class="poloto_background" /><text  class="poloto_text poloto_legend_text" x="675" y="100" >Refinance 15</text><line  class="poloto_line poloto_legend_icon poloto0stroke poloto0legend" stroke="black" x1="680" x2="730" y1="81.25" y2="81.25" /><path  class="poloto_line poloto0stroke" fill="none" stroke="black" d=" M 150.00 393.13 L 151.30 400.00 L 155.19 390.27 L 156.49 381.94 L 157.79 390.27 L 157.79 390.27 L 160.39 362.48 L 164.29 361.01 L 165.58 370.74 L 166.88 349.74 L 168.18 351.21 L 169.48 346.81 L 173.38 348.28 L 174.68 342.41 L 174.68 342.41 L 177.27 342.95 L 178.57 321.95 L 182.47 331.06 L 183.77 333.99 L 185.06 333.99 L 186.36 333.22 L 187.66 328.74 L 192.86 289.53 L 194.16 306.97 L 195.45 293.46 L 196.75 288.21 L 196.75 288.21 L 201.95 308.52 L 204.55 312.22 L 205.84 303.96 L 209.74 294.16 L 211.04 313.69 L 212.34 303.96 L 212.34 303.96 L 214.94 302.42 L 218.83 305.43 L 220.13 315.16 L 220.13 315.16 L 221.43 306.90 L 222.73 316.70 L 224.03 302.42 L 227.92 331.76 L 229.22 331.06 L 230.52 315.16 L 230.52 315.16 L 231.82 321.95 L 233.12 324.96 L 237.01 324.96 L 238.31 335.46 L 239.61 335.46 L 240.91 335.46 L 242.21 335.46 L 247.40 324.96 L 248.70 321.95 L 250.00 323.42 L 251.30 323.42 L 251.30 323.42 L 256.49 313.69 L 257.79 313.69 L 259.09 305.43 L 264.29 291.92 L 265.58 264.05 L 266.88 267.14 L 268.18 267.14 L 269.48 286.67 L 273.38 267.14 L 274.68 267.14 L 275.97 285.13 L 277.27 288.21 L 282.47 288.21 L 283.77 286.67 L 285.06 291.22 L 286.36 295.70 L 287.66 305.43 L 292.86 312.22 L 294.16 303.96 L 295.45 297.17 L 296.75 294.16 L 300.65 295.70 L 303.25 295.70 L 304.55 294.16 L 309.74 292.69 L 309.74 292.69 L 309.74 292.69 L 309.74 292.69 L 309.74 292.69 L 309.74 292.69 L 312.34 292.69 L 312.34 292.69 L 312.34 292.69 L 312.34 292.69 L 312.34 292.69 L 312.34 292.69 L 318.83 303.96 L 321.43 306.90 L 322.73 332.53 L 324.03 335.46 L 327.92 335.46 L 329.22 333.99 L 330.52 313.69 L 331.82 308.44 L 333.12 295.70 L 337.01 305.43 L 337.01 305.43 L 338.31 297.17 L 340.91 305.43 L 340.91 305.43 L 347.40 305.43 L 348.70 274.70 L 350.00 292.69 L 355.19 261.89 L 357.79 261.89 L 357.79 261.89 L 360.39 273.16 L 365.58 267.14 L 365.58 267.14 L 365.58 267.14 L 365.58 267.14 L 365.58 267.14 L 365.58 267.14 L 365.58 267.14 L 365.58 267.14 L 365.58 267.14 L 369.48 267.14 L 377.27 247.53 L 382.47 249.85 L 382.47 249.85 L 386.36 249.85 L 391.56 249.85 L 392.86 249.85 L 392.86 249.85 L 392.86 249.85 L 392.86 249.85 L 392.86 249.85 L 409.74 249.85 L 411.04 249.85 L 418.83 162.92 L 420.13 154.66 L 421.43 154.66 L 468.18 180.60 L 473.38 180.60 L 474.68 180.60 L 475.97 195.50 L 478.57 203.68 L 478.57 203.68 L 483.77 203.68 L 485.06 203.68 L 486.36 203.68 L 487.66 203.68 L 491.56 203.68 L 492.86 203.68 L 495.45 203.68 L 496.75 203.68 L 500.65 203.68 L 501.95 203.68 L 501.95 203.68 L 505.84 203.68 L 509.74 203.68 L 511.04 203.68 L 512.34 203.68 L 513.64 203.68 L 514.94 203.68 L 520.13 226.15 L 521.43 200.21 L 522.73 180.60 L 524.03 190.40 L 527.92 190.40 L 529.22 190.40 L 529.22 190.40 L 531.82 211.48 L 533.12 211.48 L 537.01 211.48 L 538.31 211.48 L 539.61 211.48 L 540.91 211.48 L 542.21 211.48 L 542.21 211.48 L 542.21 211.48 L 542.21 211.48 L 548.70 211.48 L 551.30 211.48 L 555.19 211.48 L 556.49 211.48 L 559.09 211.48 L 560.39 211.48 L 565.58 211.48 L 566.88 211.48 L 568.18 211.48 L 569.48 239.27 L 573.38 245.45 L 574.68 209.93 L 575.97 221.28 L 577.27 219.74 L 578.57 201.75 L 582.47 161.07 L 583.77 161.07 L 585.06 161.07 L 586.36 162.61 L 587.66 170.79 L 591.56 162.61 L 592.86 162.61 L 594.16 151.26 L 595.45 161.07 L 596.75 141.46 L 601.95 151.26 L 603.25 152.80 L 604.55 143.08 L 605.84 149.64 L 609.74 155.97 L 611.04 152.80 L 612.34 151.26 L 613.64 151.26 L 614.94 162.61 L 618.83 161.07 L 620.13 152.80 L 624.03 240.81 L 627.92 180.60 L 629.22 182.14 L 630.52 172.41 L 631.82 209.93 L 633.12 239.27 L 637.01 191.95 L 638.31 190.40 L 639.61 180.60 L 640.91 180.60 L 642.21 183.53 L 646.10 197.43 L 647.40 185.15 L 648.70 221.13 L 650.00 221.13" /><text  class="poloto_text poloto_legend_text" x="675" y="150" >Refinance 20</text><line  class="poloto_line poloto_legend_icon poloto1stroke poloto1legend" stroke="black" x1="680" x2="730" y1="131.25" y2="131.25" /><path  class="poloto_line poloto1stroke" fill="none" stroke="black" d=" M 150.00 350.51 L 151.30 371.13 L 155.19 340.40 L 156.49 330.98 L 157.79 339.63 L 157.79 339.63 L 160.39 312.61 L 164.29 310.29 L 165.58 320.10 L 166.88 309.14 L 168.18 318.94 L 169.48 300.57 L 173.38 328.67 L 174.68 300.57 L 174.68 300.57 L 177.27 300.57 L 177.27 300.57 L 182.47 263.51 L 183.77 293.15 L 185.06 300.57 L 186.36 310.29 L 187.66 291.22 L 192.86 272.47 L 194.16 270.07 L 195.45 265.29 L 196.75 254.32 L 200.65 259.11 L 201.95 279.88 L 204.55 272.47 L 205.84 270.07 L 209.74 262.27 L 211.04 271.31 L 212.34 271.31 L 212.34 271.31 L 214.94 271.31 L 218.83 272.47 L 220.13 292.00 L 220.13 292.00 L 221.43 281.03 L 222.73 299.41 L 224.03 292.00 L 227.92 293.15 L 229.22 292.00 L 230.52 292.00 L 230.52 292.00 L 231.82 293.15 L 233.12 299.41 L 237.01 300.57 L 238.31 304.04 L 239.61 304.04 L 240.91 304.04 L 242.21 304.04 L 247.40 299.41 L 248.70 289.60 L 250.00 292.00 L 251.30 292.00 L 251.30 292.00 L 256.49 279.88 L 257.79 282.19 L 259.09 273.62 L 264.29 232.24 L 265.58 215.11 L 266.88 224.91 L 268.18 232.24 L 269.48 252.93 L 273.38 240.74 L 274.68 234.64 L 275.97 254.17 L 277.27 263.51 L 282.47 263.51 L 283.77 252.93 L 285.06 262.74 L 286.36 272.47 L 287.66 283.43 L 292.86 290.76 L 294.16 281.03 L 295.45 271.31 L 296.75 264.67 L 300.65 270.07 L 303.25 272.47 L 304.55 271.31 L 309.74 272.47 L 309.74 272.47 L 309.74 272.47 L 309.74 272.47 L 309.74 272.47 L 309.74 272.47 L 309.74 272.47 L 309.74 272.47 L 309.74 272.47 L 309.74 272.47 L 309.74 272.47 L 309.74 272.47 L 318.83 290.76 L 321.43 293.15 L 322.73 310.29 L 324.03 312.61 L 327.92 310.06 L 329.22 310.06 L 330.52 300.57 L 331.82 304.04 L 333.12 289.60 L 337.01 282.19 L 337.01 282.19 L 338.31 282.19 L 340.91 292.00 L 340.91 292.00 L 347.40 289.60 L 348.70 272.47 L 350.00 272.47 L 355.19 259.88 L 357.79 249.31 L 357.79 249.31 L 360.39 261.12 L 365.58 232.24 L 365.58 232.24 L 365.58 232.24 L 365.58 232.24 L 365.58 232.24 L 365.58 232.24 L 365.58 232.24 L 365.58 232.24 L 365.58 232.24 L 369.48 232.24 L 377.27 219.97 L 382.47 221.20 L 385.06 221.20 L 386.36 221.20 L 386.36 221.20 L 392.86 221.20 L 394.16 221.20 L 394.16 221.20 L 394.16 221.20 L 394.16 221.20 L 409.74 221.20 L 411.04 221.20 L 418.83 143.85 L 420.13 129.41 L 420.13 129.41 L 470.78 177.12 L 473.38 177.12 L 474.68 177.12 L 477.27 194.26 L 478.57 195.50 L 478.57 195.50 L 483.77 195.50 L 485.06 195.50 L 486.36 195.50 L 487.66 195.50 L 491.56 195.50 L 492.86 195.50 L 495.45 195.50 L 496.75 195.50 L 500.65 195.50 L 501.95 195.50 L 501.95 195.50 L 505.84 195.50 L 509.74 195.50 L 511.04 195.50 L 512.34 195.50 L 513.64 195.50 L 514.94 195.50 L 520.13 178.05 L 521.43 168.55 L 522.73 167.32 L 524.03 169.87 L 527.92 169.87 L 529.22 169.87 L 529.22 169.87 L 531.82 188.16 L 533.12 188.16 L 537.01 188.16 L 538.31 188.16 L 539.61 188.16 L 540.91 188.16 L 542.21 188.16 L 542.21 188.16 L 547.40 188.16 L 547.40 188.16 L 548.70 188.16 L 551.30 188.16 L 555.19 188.16 L 556.49 188.16 L 559.09 188.16 L 560.39 188.16 L 565.58 188.16 L 566.88 188.16 L 568.18 188.16 L 569.48 209.01 L 573.38 207.77 L 574.68 178.36 L 575.97 179.59 L 575.97 179.59 L 578.57 178.36 L 582.47 158.75 L 583.77 158.75 L 585.06 150.26 L 586.36 140.45 L 587.66 149.02 L 591.56 140.45 L 592.86 130.65 L 594.16 140.45 L 595.45 150.26 L 596.75 139.22 L 601.95 140.45 L 603.25 129.41 L 604.55 100.00 L 605.84 129.41 L 609.74 150.26 L 611.04 169.17 L 612.34 140.45 L 613.64 139.22 L 614.94 167.32 L 618.83 160.06 L 620.13 150.26 L 624.03 210.24 L 627.92 168.55 L 629.22 158.75 L 630.52 160.06 L 631.82 188.16 L 633.12 189.40 L 637.01 169.87 L 638.31 160.06 L 639.61 160.06 L 640.91 160.06 L 640.91 160.06 L 640.91 160.06 L 640.91 160.06 L 640.91 160.06 L 640.91 160.06" /><text  class="poloto_text poloto_legend_text" x="675" y="200" >Refinance 30</text><line  class="poloto_line poloto_legend_icon poloto2stroke poloto2legend" stroke="black" x1="680" x2="730" y1="181.25" y2="181.25" /><path  class="poloto_line poloto2stroke" fill="none" stroke="black" d=" M 150.00 348.35 L 151.30 355.69 L 155.19 344.26 L 156.49 335.31 L 157.79 337.00 L 157.79 337.00 L 160.39 318.24 L 164.29 316.62 L 165.58 326.35 L 166.88 315.77 L 168.18 325.50 L 169.48 306.82 L 173.38 315.77 L 174.68 297.01 L 175.97 297.01 L 177.27 296.17 L 178.57 272.47 L 182.47 276.63 L 183.77 287.29 L 185.06 297.01 L 186.36 288.14 L 187.66 277.48 L 192.86 269.38 L 194.16 256.18 L 195.45 254.40 L 196.75 252.55 L 200.65 256.18 L 201.95 271.31 L 204.55 269.38 L 205.84 267.60 L 209.74 257.95 L 211.04 268.45 L 212.34 257.95 L 212.34 257.95 L 214.94 257.95 L 218.83 259.73 L 220.13 276.63 L 220.13 276.63 L 221.43 268.45 L 222.73 269.38 L 224.03 270.23 L 227.92 277.48 L 229.22 269.38 L 230.52 269.38 L 230.52 269.38 L 231.82 278.33 L 233.12 279.26 L 237.01 280.11 L 238.31 288.14 L 239.61 288.14 L 240.91 289.84 L 242.21 289.84 L 247.40 286.36 L 248.70 276.63 L 250.00 278.33 L 251.30 277.48 L 251.30 277.48 L 256.49 268.45 L 257.79 268.45 L 259.09 258.80 L 264.29 219.74 L 265.58 192.10 L 266.88 209.01 L 268.18 219.74 L 269.48 229.46 L 273.38 220.59 L 274.68 219.74 L 275.97 237.49 L 277.27 239.27 L 282.47 239.27 L 283.77 228.62 L 285.06 237.49 L 286.36 247.22 L 287.66 268.45 L 292.86 269.38 L 294.16 258.80 L 295.45 240.20 L 296.75 237.49 L 300.65 255.25 L 303.25 239.27 L 304.55 238.34 L 309.74 256.18 L 309.74 256.18 L 309.74 256.18 L 309.74 256.18 L 309.74 256.18 L 309.74 256.18 L 312.34 256.18 L 312.34 256.18 L 312.34 256.18 L 312.34 256.18 L 312.34 256.18 L 312.34 256.18 L 318.83 267.60 L 321.43 269.38 L 322.73 286.36 L 324.03 297.86 L 327.92 297.01 L 329.22 297.01 L 330.52 277.48 L 331.82 280.11 L 333.12 267.60 L 337.01 277.48 L 337.01 277.48 L 338.31 270.23 L 340.91 278.33 L 340.91 278.33 L 347.40 276.63 L 348.70 259.73 L 350.00 258.80 L 355.19 236.57 L 357.79 228.62 L 357.79 228.62 L 360.39 238.34 L 365.58 227.69 L 365.58 227.69 L 365.58 227.69 L 365.58 227.69 L 365.58 227.69 L 365.58 227.69 L 365.58 227.69 L 365.58 227.69 L 369.48 227.69 L 369.48 226.76 L 377.27 215.11 L 382.47 195.50 L 382.47 195.50 L 386.36 195.50 L 386.36 195.50 L 392.86 195.50 L 394.16 195.50 L 394.16 195.50 L 394.16 195.50 L 394.16 195.50 L 409.74 195.50 L 411.04 195.50 L 418.83 151.34 L 420.13 126.71 L 420.13 126.71 L 470.78 169.02 L 473.38 169.02 L 474.68 169.02 L 475.97 172.95 L 478.57 181.91 L 478.57 181.91 L 483.77 181.91 L 485.06 181.91 L 486.36 181.91 L 487.66 181.91 L 491.56 181.91 L 492.86 181.91 L 495.45 181.91 L 496.75 181.91 L 500.65 181.91 L 501.95 181.91 L 501.95 181.91 L 505.84 181.91 L 509.74 181.91 L 511.04 181.91 L 512.34 181.91 L 513.64 181.91 L 514.94 181.91 L 520.13 167.01 L 521.43 174.88 L 522.73 156.20 L 524.03 174.88 L 527.92 174.88 L 529.22 174.88 L 529.22 174.88 L 531.82 174.88 L 533.12 174.88 L 537.01 174.88 L 538.31 174.88 L 539.61 174.88 L 540.91 174.88 L 542.21 174.88 L 542.21 174.88 L 547.40 174.88 L 547.40 174.88 L 548.70 174.88 L 551.30 174.88 L 555.19 174.88 L 556.49 174.88 L 559.09 174.88 L 560.39 174.88 L 565.58 174.88 L 566.88 174.88 L 568.18 174.88 L 569.48 224.91 L 573.38 215.11 L 574.68 175.89 L 575.97 205.30 L 577.27 175.89 L 578.57 166.01 L 582.47 156.20 L 583.77 156.20 L 585.06 147.32 L 586.36 137.52 L 587.66 146.40 L 591.56 146.40 L 592.86 135.59 L 594.16 127.71 L 595.45 137.52 L 596.75 128.72 L 601.95 127.71 L 603.25 116.91 L 604.55 116.91 L 605.84 126.71 L 609.74 127.71 L 611.04 117.91 L 612.34 125.78 L 613.64 117.91 L 614.94 147.32 L 618.83 147.32 L 620.13 127.71 L 624.03 206.23 L 627.92 147.32 L 629.22 146.40 L 630.52 146.40 L 631.82 176.81 L 633.12 176.81 L 637.01 157.21 L 638.31 157.21 L 639.61 156.20 L 640.91 156.20 L 642.21 148.02 L 646.10 149.02 L 647.40 157.05 L 648.70 187.31 L 650.00 177.66" /><text  class="poloto_labels poloto_text poloto_title" x="400" y="37.5" >lower.com purchase rates</text><text  class="poloto_labels poloto_text poloto_xname" x="400" y="481.25" >Date</text><text  class="poloto_labels poloto_text poloto_yname" transform="rotate(-90,37.5,250)" x="37.5" y="250" >Rate (%)</text><text  class="poloto_tick_labels poloto_text" dominant-baseline="middle" text-anchor="start" x="150" y="70" ></text><line  class="poloto_axis_lines" stroke="black" x1="150" x2="144" y1="391.12197632527017" y2="391.12197632527017" /><line  class="poloto_tick_line" stroke="black" x1="150" x2="650" y1="391.12197632527017" y2="391.12197632527017" /><text  class="poloto_tick_labels poloto_text" dominant-baseline="middle" text-anchor="end" x="135" y="391.12197632527017" >3.625</text><line  class="poloto_axis_lines" stroke="black" x1="150" x2="144" y1="381.4719505918682" y2="381.4719505918682" /><line  class="poloto_tick_line" stroke="black" x1="150" x2="650" y1="381.4719505918682" y2="381.4719505918682" /><text  class="poloto_tick_labels poloto_text" dominant-baseline="middle" text-anchor="end" x="135" y="381.4719505918682" >3.75</text><line  class="poloto_axis_lines" stroke="black" x1="150" x2="144" y1="371.8219248584663" y2="371.8219248584663" /><line  class="poloto_tick_line" stroke="black" x1="150" x2="650" y1="371.8219248584663" y2="371.8219248584663" /><text  class="poloto_tick_labels poloto_text" dominant-baseline="middle" text-anchor="end" x="135" y="371.8219248584663" >3.875</text><line  class="poloto_axis_lines" stroke="black" x1="150" x2="144" y1="362.17189912506433" y2="362.17189912506433" /><line  class="poloto_tick_line" stroke="black" x1="150" x2="650" y1="362.17189912506433" y2="362.17189912506433" /><text  class="poloto_tick_labels poloto_text" dominant-baseline="middle" text-anchor="end" x="135" y="362.17189912506433" >4</text><line  class="poloto_axis_lines" stroke="black" x1="150" x2="144" y1="352.5218733916624" y2="352.5218733916624" /><line  class="poloto_tick_line" stroke="black" x1="150" x2="650" y1="352.5218733916624" y2="352.5218733916624" /><text  class="poloto_tick_labels poloto_text" dominant-baseline="middle" text-anchor="end" x="135" y="352.5218733916624" >4.125</text><line  class="poloto_axis_lines" stroke="black" x1="150" x2="144" y1="342.87184765826044" y2="342.87184765826044" /><line  class="poloto_tick_line" stroke="black" x1="150" x2="650" y1="342.87184765826044" y2="342.87184765826044" /><text  class="poloto_tick_labels poloto_text" dominant-baseline="middle" text-anchor="end" x="135" y="342.87184765826044" >4.25</text><line  class="poloto_axis_lines" stroke="black" x1="150" x2="144" y1="333.2218219248585" y2="333.2218219248585" /><line  class="poloto_tick_line" stroke="black" x1="150" x2="650" y1="333.2218219248585" y2="333.2218219248585" /><text  class="poloto_tick_labels poloto_text" dominant-baseline="middle" text-anchor="end" x="135" y="333.2218219248585" >4.375</text><line  class="poloto_axis_lines" stroke="black" x1="150" x2="144" y1="323.5717961914565" y2="323.5717961914565" /><line  class="poloto_tick_line" stroke="black" x1="150" x2="650" y1="323.5717961914565" y2="323.5717961914565" /><text  class="poloto_tick_labels poloto_text" dominant-baseline="middle" text-anchor="end" x="135" y="323.5717961914565" >4.5</text><line  class="poloto_axis_lines" stroke="black" x1="150" x2="144" y1="313.92177045805454" y2="313.92177045805454" /><line  class="poloto_tick_line" stroke="black" x1="150" x2="650" y1="313.92177045805454" y2="313.92177045805454" /><text  class="poloto_tick_labels poloto_text" dominant-baseline="middle" text-anchor="end" x="135" y="313.92177045805454" >4.625</text><line  class="poloto_axis_lines" stroke="black" x1="150" x2="144" y1="304.2717447246526" y2="304.2717447246526" /><line  class="poloto_tick_line" stroke="black" x1="150" x2="650" y1="304.2717447246526" y2="304.2717447246526" /><text  class="poloto_tick_labels poloto_text" dominant-baseline="middle" text-anchor="end" x="135" y="304.2717447246526" >4.75</text><line  class="poloto_axis_lines" stroke="black" x1="150" x2="144" y1="294.62171899125065" y2="294.62171899125065" /><line  class="poloto_tick_line" stroke="black" x1="150" x2="650" y1="294.62171899125065" y2="294.62171899125065" /><text  class="poloto_tick_labels poloto_text" dominant-baseline="middle" text-anchor="end" x="135" y="294.62171899125065" >4.875</text><line  class="poloto_axis_lines" stroke="black" x1="150" x2="144" y1="284.9716932578487" y2="284.9716932578487" /><line  class="poloto_tick_line" stroke="black" x1="150" x2="650" y1="284.9716932578487" y2="284.9716932578487" /><text  class="poloto_tick_labels poloto_text" dominant-baseline="middle" text-anchor="end" x="135" y="284.9716932578487" >5</text><line  class="poloto_axis_lines" stroke="black" x1="150" x2="144" y1="275.32166752444675" y2="275.32166752444675" /><line  class="poloto_tick_line" stroke="black" x1="150" x2="650" y1="275.32166752444675" y2="275.32166752444675" /><text  class="poloto_tick_labels poloto_text" dominant-baseline="middle" text-anchor="end" x="135" y="275.32166752444675" >5.125</text><line  class="poloto_axis_lines" stroke="black" x1="150" x2="144" y1="265.67164179104475" y2="265.67164179104475" /><line  class="poloto_tick_line" stroke="black" x1="150" x2="650" y1="265.67164179104475" y2="265.67164179104475" /><text  class="poloto_tick_labels poloto_text" dominant-baseline="middle" text-anchor="end" x="135" y="265.67164179104475" >5.25</text><line  class="poloto_axis_lines" stroke="black" x1="150" x2="144" y1="256.0216160576428" y2="256.0216160576428" /><line  class="poloto_tick_line" stroke="black" x1="150" x2="650" y1="256.0216160576428" y2="256.0216160576428" /><text  class="poloto_tick_labels poloto_text" dominant-baseline="middle" text-anchor="end" x="135" y="256.0216160576428" >5.375</text><line  class="poloto_axis_lines" stroke="black" x1="150" x2="144" y1="246.37159032424086" y2="246.37159032424086" /><line  class="poloto_tick_line" stroke="black" x1="150" x2="650" y1="246.37159032424086" y2="246.37159032424086" /><text  class="poloto_tick_labels poloto_text" dominant-baseline="middle" text-anchor="end" x="135" y="246.37159032424086" >5.5</text><line  class="poloto_axis_lines" stroke="black" x1="150" x2="144" y1="236.7215645908389" y2="236.7215645908389" /><line  class="poloto_tick_line" stroke="black" x1="150" x2="650" y1="236.7215645908389" y2="236.7215645908389" /><text  class="poloto_tick_labels poloto_text" dominant-baseline="middle" text-anchor="end" x="135" y="236.7215645908389" >5.625</text><line  class="poloto_axis_lines" stroke="black" x1="150" x2="144" y1="227.07153885743696" y2="227.07153885743696" /><line  class="poloto_tick_line" stroke="black" x1="150" x2="650" y1="227.07153885743696" y2="227.07153885743696" /><text  class="poloto_tick_labels poloto_text" dominant-baseline="middle" text-anchor="end" x="135" y="227.07153885743696" >5.75</text><line  class="poloto_axis_lines" stroke="black" x1="150" x2="144" y1="217.42151312403502" y2="217.42151312403502" /><line  class="poloto_tick_line" stroke="black" x1="150" x2="650" y1="217.42151312403502" y2="217.42151312403502" /><text  class="poloto_tick_labels poloto_text" dominant-baseline="middle" text-anchor="end" x="135" y="217.42151312403502" >5.875</text><line  class="poloto_axis_lines" stroke="black" x1="150" x2="144" y1="207.771487390633" y2="207.771487390633" /><line  class="poloto_tick_line" stroke="black" x1="150" x2="650" y1="207.771487390633" y2="207.771487390633" /><text  class="poloto_tick_labels poloto_text" dominant-baseline="middle" text-anchor="end" x="135" y="207.771487390633" >6</text><line  class="poloto_axis_lines" stroke="black" x1="150" x2="144" y1="198.12146165723107" y2="198.12146165723107" /><line  class="poloto_tick_line" stroke="black" x1="150" x2="650" y1="198.12146165723107" y2="198.12146165723107" /><text  class="poloto_tick_labels poloto_text" dominant-baseline="middle" text-anchor="end" x="135" y="198.12146165723107" >6.125</text><line  class="poloto_axis_lines" stroke="black" x1="150" x2="144" y1="188.47143592382912" y2="188.47143592382912" /><line  class="poloto_tick_line" stroke="black" x1="150" x2="650" y1="188.47143592382912" y2="188.47143592382912" /><text  class="poloto_tick_labels poloto_text" dominant-baseline="middle" text-anchor="end" x="135" y="188.47143592382912" >6.25</text><line  class="poloto_axis_lines" stroke="black" x1="150" x2="144" y1="178.82141019042717" y2="178.82141019042717" /><line  class="poloto_tick_line" stroke="black" x1="150" x2="650" y1="178.82141019042717" y2="178.82141019042717" /><text  class="poloto_tick_labels poloto_text" dominant-baseline="middle" text-anchor="end" x="135" y="178.82141019042717" >6.375</text><line  class="poloto_axis_lines" stroke="black" x1="150" x2="144" y1="169.17138445702523" y2="169.17138445702523" /><line  class="poloto_tick_line" stroke="black" x1="150" x2="650" y1="169.17138445702523" y2="169.17138445702523" /><text  class="poloto_tick_labels poloto_text" dominant-baseline="middle" text-anchor="end" x="135" y="169.17138445702523" >6.5</text><line  class="poloto_axis_lines" stroke="black" x1="150" x2="144" y1="159.52135872362328" y2="159.52135872362328" /><line  class="poloto_tick_line" stroke="black" x1="150" x2="650" y1="159.52135872362328" y2="159.52135872362328" /><text  class="poloto_tick_labels poloto_text" dominant-baseline="middle" text-anchor="end" x="135" y="159.52135872362328" >6.625</text><line  class="poloto_axis_lines" stroke="black" x1="150" x2="144" y1="149.87133299022133" y2="149.87133299022133" /><line  class="poloto_tick_line" stroke="black" x1="150" x2="650" y1="149.87133299022133" y2="149.87133299022133" /><text  class="poloto_tick_labels poloto_text" dominant-baseline="middle" text-anchor="end" x="135" y="149.87133299022133" >6.75</text><line  class="poloto_axis_lines" stroke="black" x1="150" x2="144" y1="140.22130725681933" y2="140.22130725681933" /><line  class="poloto_tick_line" stroke="black" x1="150" x2="650" y1="140.22130725681933" y2="140.22130725681933" /><text  class="poloto_tick_labels poloto_text" dominant-baseline="middle" text-anchor="end" x="135" y="140.22130725681933" >6.875</text><line  class="poloto_axis_lines" stroke="black" x1="150" x2="144" y1="130.57128152341744" y2="130.57128152341744" /><line  class="poloto_tick_line" stroke="black" x1="150" x2="650" y1="130.57128152341744" y2="130.57128152341744" /><text  class="poloto_tick_labels poloto_text" dominant-baseline="middle" text-anchor="end" x="135" y="130.57128152341744" >7</text><line  class="poloto_axis_lines" stroke="black" x1="150" x2="144" y1="120.92125579001544" y2="120.92125579001544" /><line  class="poloto_tick_line" stroke="black" x1="150" x2="650" y1="120.92125579001544" y2="120.92125579001544" /><text  class="poloto_tick_labels poloto_text" dominant-baseline="middle" text-anchor="end" x="135" y="120.92125579001544" >7.125</text><line  class="poloto_axis_lines" stroke="black" x1="150" x2="144" y1="111.27123005661343" y2="111.27123005661343" /><line  class="poloto_tick_line" stroke="black" x1="150" x2="650" y1="111.27123005661343" y2="111.27123005661343" /><text  class="poloto_tick_labels poloto_text" dominant-baseline="middle" text-anchor="end" x="135" y="111.27123005661343" >7.25</text><line  class="poloto_axis_lines" stroke="black" x1="150" x2="144" y1="101.62120432321154" y2="101.62120432321154" /><line  class="poloto_tick_line" stroke="black" x1="150" x2="650" y1="101.62120432321154" y2="101.62120432321154" /><text  class="poloto_tick_labels poloto_text" dominant-baseline="middle" text-anchor="end" x="135" y="101.62120432321154" >7.375</text><text  class="poloto_tick_labels poloto_text" dominant-baseline="middle" text-anchor="start" x="440.00000000000006" y="70" >¹2022-05-01 00:00:00 UTC in Months</text><line  class="poloto_axis_lines" stroke="black" x1="208.4415584415583" x2="208.4415584415583" y1="400" y2="405" /><line  class="poloto_tick_line" stroke="black" x1="208.4415584415583" x2="208.4415584415583" y1="400" y2="100.00000000000006" /><text  class="poloto_tick_labels poloto_text" dominant-baseline="start" text-anchor="middle" x="208.4415584415583" y="430" >2022 May¹</text><line  class="poloto_axis_lines" stroke="black" x1="287.66233766233927" x2="287.66233766233927" y1="400" y2="405" /><line  class="poloto_tick_line" stroke="black" x1="287.66233766233927" x2="287.66233766233927" y1="400" y2="100.00000000000006" /><text  class="poloto_tick_labels poloto_text" dominant-baseline="start" text-anchor="middle" x="287.66233766233927" y="430" >2022 Jul</text><line  class="poloto_axis_lines" stroke="black" x1="368.18181818181984" x2="368.18181818181984" y1="400" y2="405" /><line  class="poloto_tick_line" stroke="black" x1="368.18181818181984" x2="368.18181818181984" y1="400" y2="100.00000000000006" /><text  class="poloto_tick_labels poloto_text" dominant-baseline="start" text-anchor="middle" x="368.18181818181984" y="430" >2022 Sep</text><line  class="poloto_axis_lines" stroke="black" x1="447.40259740259717" x2="447.40259740259717" y1="400" y2="405" /><line  class="poloto_tick_line" stroke="black" x1="447.40259740259717" x2="447.40259740259717" y1="400" y2="100.00000000000006" /><text  class="poloto_tick_labels poloto_text" dominant-baseline="start" text-anchor="middle" x="447.40259740259717" y="430" >2022 Nov</text><line  class="poloto_axis_lines" stroke="black" x1="526.6233766233781" x2="526.6233766233781" y1="400" y2="405" /><line  class="poloto_tick_line" stroke="black" x1="526.6233766233781" x2="526.6233766233781" y1="400" y2="100.00000000000006" /><text  class="poloto_tick_labels poloto_text" dominant-baseline="start" text-anchor="middle" x="526.6233766233781" y="430" >2023 Jan</text><line  class="poloto_axis_lines" stroke="black" x1="603.2467532467526" x2="603.2467532467526" y1="400" y2="405" /><line  class="poloto_tick_line" stroke="black" x1="603.2467532467526" x2="603.2467532467526" y1="400" y2="100.00000000000006" /><text  class="poloto_tick_labels poloto_text" dominant-baseline="start" text-anchor="middle" x="603.2467532467526" y="430" >2023 Mar</text><path  stroke="black" fill="none" class="poloto_axis_lines" d=" M 150 400 L 650 400" /><path  stroke="black" fill="none" class="poloto_axis_lines" d=" M 150 400 L 150 100.00000000000006" /></svg>