<svg class="poloto" width="800" height="500" viewBox="0 0 800 500" xmlns="http://www.w3.org/2000/svg"><style>.poloto{stroke-linecap:round;stroke-linejoin:round;font-family:Roboto,sans-serif;font-size:16px;}.poloto_background{fill:#262626;}.poloto_scatter{stroke-width:7}.poloto_tick_line{stroke:dimgray;stroke-width:0.5}.poloto_line{stroke-width:2}.poloto_text{fill: white;}.poloto_axis_lines{stroke: white;stroke-width:3;fill:none;stroke-dasharray:none}.poloto_title{font-size:24px;dominant-baseline:start;text-anchor:middle;}.poloto_xname{font-size:24px;dominant-baseline:start;text-anchor:middle;}.poloto_yname{font-size:24px;dominant-baseline:start;text-anchor:middle;}.poloto0stroke{stroke:blue;}.poloto1stroke{stroke:red;}.poloto2stroke{stroke:green;}.poloto3stroke{stroke:gold;}.poloto4stroke{stroke:aqua;}.poloto5stroke{stroke:lime;}.poloto6stroke{stroke:orange;}.poloto7stroke{stroke:chocolate;}.poloto0fill{fill:blue;}.poloto1fill{fill:red;}.poloto2fill{fill:green;}.poloto3fill{fill:gold;}.poloto4fill{fill:aqua;}.poloto5fill{fill:lime;}.poloto6fill{fill:orange;}.poloto7fill{fill:chocolate;}</style><circle  r="1e5" class="poloto_background" /><text  class="poloto_text poloto_legend_text" x="675" y="100" >Refinance 15</text><line  class="poloto_line poloto_legend_icon poloto0stroke poloto0legend" stroke="black" x1="680" x2="730" y1="81.25" y2="81.25" /><path  class="poloto_line poloto0stroke" fill="none" stroke="black" d=" M 150.00 392.46 L 152.39 400.00 L 159.57 389.32 L 161.96 380.17 L 164.35 389.32 L 164.35 389.32 L 169.14 358.81 L 176.32 357.20 L 178.71 367.88 L 181.10 344.83 L 183.49 346.44 L 185.89 341.61 L 193.06 343.22 L 195.45 336.78 L 195.45 336.78 L 200.24 337.37 L 202.63 314.32 L 209.81 324.32 L 212.20 327.54 L 214.59 327.54 L 216.99 326.69 L 219.38 321.78 L 228.95 278.73 L 231.34 297.88 L 233.73 283.05 L 236.12 277.29 L 236.12 277.29 L 245.69 299.58 L 250.48 303.64 L 252.87 294.58 L 260.05 283.81 L 262.44 305.25 L 264.83 294.58 L 264.83 294.58 L 269.62 292.88 L 276.79 296.19 L 279.19 306.86 L 279.19 306.86 L 281.58 297.80 L 283.97 308.56 L 286.36 292.88 L 293.54 325.08 L 295.93 324.32 L 298.33 306.86 L 298.33 306.86 L 300.72 314.32 L 303.11 317.63 L 310.29 317.63 L 312.68 329.15 L 315.07 329.15 L 317.46 329.15 L 319.86 329.15 L 329.43 317.63 L 331.82 314.32 L 334.21 315.93 L 336.60 315.93 L 336.60 315.93 L 346.17 305.25 L 348.56 305.25 L 350.96 296.19 L 360.53 281.36 L 362.92 250.76 L 365.31 254.15 L 367.70 254.15 L 370.10 275.59 L 377.27 254.15 L 379.67 254.15 L 382.06 273.90 L 384.45 277.29 L 394.02 277.29 L 396.41 275.59 L 398.80 280.59 L 401.20 285.51 L 403.59 296.19 L 413.16 303.64 L 415.55 294.58 L 417.94 287.12 L 420.33 283.81 L 427.51 285.51 L 432.30 285.51 L 434.69 283.81 L 444.26 282.20 L 444.26 282.20 L 444.26 282.20 L 444.26 282.20 L 444.26 282.20 L 444.26 282.20 L 449.04 282.20 L 449.04 282.20 L 449.04 282.20 L 449.04 282.20 L 449.04 282.20 L 449.04 282.20 L 461.00 294.58 L 465.79 297.80 L 468.18 325.93 L 470.57 329.15 L 477.75 329.15 L 480.14 327.54 L 482.54 305.25 L 484.93 299.49 L 487.32 285.51 L 494.50 296.19 L 494.50 296.19 L 496.89 287.12 L 501.67 296.19 L 501.67 296.19 L 513.64 296.19 L 516.03 262.46 L 518.42 282.20 L 527.99 248.39 L 532.78 248.39 L 532.78 248.39 L 537.56 260.76 L 547.13 254.15 L 547.13 254.15 L 547.13 254.15 L 547.13 254.15 L 547.13 254.15 L 547.13 254.15 L 547.13 254.15 L 547.13 254.15 L 547.13 254.15 L 554.31 254.15 L 568.66 232.63 L 578.23 235.17 L 578.23 235.17 L 585.41 235.17 L 594.98 235.17 L 597.37 235.17 L 597.37 235.17 L 597.37 235.17 L 597.37 235.17 L 597.37 235.17 L 628.47 235.17 L 630.86 235.17 L 645.22 139.75 L 647.61 130.68 L 650.00 130.68" /><text  class="poloto_text poloto_legend_text" x="675" y="150" >Refinance 20</text><line  class="poloto_line poloto_legend_icon poloto1stroke poloto1legend" stroke="black" x1="680" x2="730" y1="131.25" y2="131.25" /><path  class="poloto_line poloto1stroke" fill="none" stroke="black" d=" M 150.00 345.68 L 152.39 368.31 L 159.57 334.58 L 161.96 324.24 L 164.35 333.73 L 164.35 333.73 L 169.14 304.07 L 176.32 301.53 L 178.71 312.29 L 181.10 300.25 L 183.49 311.02 L 185.89 290.85 L 193.06 321.69 L 195.45 290.85 L 195.45 290.85 L 200.24 290.85 L 200.24 290.85 L 209.81 250.17 L 212.20 282.71 L 214.59 290.85 L 216.99 301.53 L 219.38 280.59 L 228.95 260.00 L 231.34 257.37 L 233.73 252.12 L 236.12 240.08 L 243.30 245.34 L 245.69 268.14 L 250.48 260.00 L 252.87 257.37 L 260.05 248.81 L 262.44 258.73 L 264.83 258.73 L 264.83 258.73 L 269.62 258.73 L 276.79 260.00 L 279.19 281.44 L 279.19 281.44 L 281.58 269.41 L 283.97 289.58 L 286.36 281.44 L 293.54 282.71 L 295.93 281.44 L 298.33 281.44 L 298.33 281.44 L 300.72 282.71 L 303.11 289.58 L 310.29 290.85 L 312.68 294.66 L 315.07 294.66 L 317.46 294.66 L 319.86 294.66 L 329.43 289.58 L 331.82 278.81 L 334.21 281.44 L 336.60 281.44 L 336.60 281.44 L 346.17 268.14 L 348.56 270.68 L 350.96 261.27 L 360.53 215.85 L 362.92 197.03 L 365.31 207.80 L 367.70 215.85 L 370.10 238.56 L 377.27 225.17 L 379.67 218.47 L 382.06 239.92 L 384.45 250.17 L 394.02 250.17 L 396.41 238.56 L 398.80 249.32 L 401.20 260.00 L 403.59 272.03 L 413.16 280.08 L 415.55 269.41 L 417.94 258.73 L 420.33 251.44 L 427.51 257.37 L 432.30 260.00 L 434.69 258.73 L 444.26 260.00 L 444.26 260.00 L 444.26 260.00 L 444.26 260.00 L 444.26 260.00 L 444.26 260.00 L 444.26 260.00 L 444.26 260.00 L 444.26 260.00 L 444.26 260.00 L 444.26 260.00 L 444.26 260.00 L 461.00 280.08 L 465.79 282.71 L 468.18 301.53 L 470.57 304.07 L 477.75 301.27 L 480.14 301.27 L 482.54 290.85 L 484.93 294.66 L 487.32 278.81 L 494.50 270.68 L 494.50 270.68 L 496.89 270.68 L 501.67 281.44 L 501.67 281.44 L 513.64 278.81 L 516.03 260.00 L 518.42 260.00 L 527.99 246.19 L 532.78 234.58 L 532.78 234.58 L 537.56 247.54 L 547.13 215.85 L 547.13 215.85 L 547.13 215.85 L 547.13 215.85 L 547.13 215.85 L 547.13 215.85 L 547.13 215.85 L 547.13 215.85 L 547.13 215.85 L 554.31 215.85 L 568.66 202.37 L 578.23 203.73 L 583.01 203.73 L 585.41 203.73 L 585.41 203.73 L 597.37 203.73 L 599.76 203.73 L 599.76 203.73 L 599.76 203.73 L 599.76 203.73 L 628.47 203.73 L 630.86 203.73 L 645.22 118.81 L 647.61 102.97 L 647.61 102.97" /><text  class="poloto_text poloto_legend_text" x="675" y="200" >Refinance 30</text><line  class="poloto_line poloto_legend_icon poloto2stroke poloto2legend" stroke="black" x1="680" x2="730" y1="181.25" y2="181.25" /><path  class="poloto_line poloto2stroke" fill="none" stroke="black" d=" M 150.00 343.31 L 152.39 351.36 L 159.57 338.81 L 161.96 328.98 L 164.35 330.85 L 164.35 330.85 L 169.14 310.25 L 176.32 308.47 L 178.71 319.15 L 181.10 307.54 L 183.49 318.22 L 185.89 297.71 L 193.06 307.54 L 195.45 286.95 L 197.85 286.95 L 200.24 286.02 L 202.63 260.00 L 209.81 264.58 L 212.20 276.27 L 214.59 286.95 L 216.99 277.20 L 219.38 265.51 L 228.95 256.61 L 231.34 242.12 L 233.73 240.17 L 236.12 238.14 L 243.30 242.12 L 245.69 258.73 L 250.48 256.61 L 252.87 254.66 L 260.05 244.07 L 262.44 255.59 L 264.83 244.07 L 264.83 244.07 L 269.62 244.07 L 276.79 246.02 L 279.19 264.58 L 279.19 264.58 L 281.58 255.59 L 283.97 256.61 L 286.36 257.54 L 293.54 265.51 L 295.93 256.61 L 298.33 256.61 L 298.33 256.61 L 300.72 266.44 L 303.11 267.46 L 310.29 268.39 L 312.68 277.20 L 315.07 277.20 L 317.46 279.07 L 319.86 279.07 L 329.43 275.25 L 331.82 264.58 L 334.21 266.44 L 336.60 265.51 L 336.60 265.51 L 346.17 255.59 L 348.56 255.59 L 350.96 245.00 L 360.53 202.12 L 362.92 171.78 L 365.31 190.34 L 367.70 202.12 L 370.10 212.80 L 377.27 203.05 L 379.67 202.12 L 382.06 221.61 L 384.45 223.56 L 394.02 223.56 L 396.41 211.86 L 398.80 221.61 L 401.20 232.29 L 403.59 255.59 L 413.16 256.61 L 415.55 245.00 L 417.94 224.58 L 420.33 221.61 L 427.51 241.10 L 432.30 223.56 L 434.69 222.54 L 444.26 242.12 L 444.26 242.12 L 444.26 242.12 L 444.26 242.12 L 444.26 242.12 L 444.26 242.12 L 449.04 242.12 L 449.04 242.12 L 449.04 242.12 L 449.04 242.12 L 449.04 242.12 L 449.04 242.12 L 461.00 254.66 L 465.79 256.61 L 468.18 275.25 L 470.57 287.88 L 477.75 286.95 L 480.14 286.95 L 482.54 265.51 L 484.93 268.39 L 487.32 254.66 L 494.50 265.51 L 494.50 265.51 L 496.89 257.54 L 501.67 266.44 L 501.67 266.44 L 513.64 264.58 L 516.03 246.02 L 518.42 245.00 L 527.99 220.59 L 532.78 211.86 L 532.78 211.86 L 537.56 222.54 L 547.13 210.85 L 547.13 210.85 L 547.13 210.85 L 547.13 210.85 L 547.13 210.85 L 547.13 210.85 L 547.13 210.85 L 547.13 210.85 L 554.31 210.85 L 554.31 209.83 L 568.66 197.03 L 578.23 175.51 L 578.23 175.51 L 585.41 175.51 L 585.41 175.51 L 597.37 175.51 L 599.76 175.51 L 599.76 175.51 L 599.76 175.51 L 599.76 175.51 L 628.47 175.51 L 630.86 175.51 L 645.22 127.03 L 647.61 100.00 L 647.61 100.00" /><text  class="poloto_labels poloto_text poloto_title" x="400" y="37.5" >lower.com purchase rates</text><text  class="poloto_labels poloto_text poloto_xname" x="400" y="481.25" >Date</text><text  class="poloto_labels poloto_text poloto_yname" transform="rotate(-90,37.5,250)" x="37.5" y="250" >Rate (%)</text><text  class="poloto_tick_labels poloto_text" dominant-baseline="middle" text-anchor="start" x="150" y="70" ></text><line  class="poloto_axis_lines" stroke="black" x1="150" x2="144" y1="390.2542372881356" y2="390.2542372881356" /><line  class="poloto_tick_line" stroke="black" x1="150" x2="650" y1="390.2542372881356" y2="390.2542372881356" /><text  class="poloto_tick_labels poloto_text" dominant-baseline="middle" text-anchor="end" x="135" y="390.2542372881356" >3.625</text><line  class="poloto_axis_lines" stroke="black" x1="150" x2="144" y1="379.66101694915255" y2="379.66101694915255" /><line  class="poloto_tick_line" stroke="black" x1="150" x2="650" y1="379.66101694915255" y2="379.66101694915255" /><text  class="poloto_tick_labels poloto_text" dominant-baseline="middle" text-anchor="end" x="135" y="379.66101694915255" >3.75</text><line  class="poloto_axis_lines" stroke="black" x1="150" x2="144" y1="369.06779661016947" y2="369.06779661016947" /><line  class="poloto_tick_line" stroke="black" x1="150" x2="650" y1="369.06779661016947" y2="369.06779661016947" /><text  class="poloto_tick_labels poloto_text" dominant-baseline="middle" text-anchor="end" x="135" y="369.06779661016947" >3.875</text><line  class="poloto_axis_lines" stroke="black" x1="150" x2="144" y1="358.47457627118644" y2="358.47457627118644" /><line  class="poloto_tick_line" stroke="black" x1="150" x2="650" y1="358.47457627118644" y2="358.47457627118644" /><text  class="poloto_tick_labels poloto_text" dominant-baseline="middle" text-anchor="end" x="135" y="358.47457627118644" >4</text><line  class="poloto_axis_lines" stroke="black" x1="150" x2="144" y1="347.8813559322034" y2="347.8813559322034" /><line  class="poloto_tick_line" stroke="black" x1="150" x2="650" y1="347.8813559322034" y2="347.8813559322034" /><text  class="poloto_tick_labels poloto_text" dominant-baseline="middle" text-anchor="end" x="135" y="347.8813559322034" >4.125</text><line  class="poloto_axis_lines" stroke="black" x1="150" x2="144" y1="337.2881355932203" y2="337.2881355932203" /><line  class="poloto_tick_line" stroke="black" x1="150" x2="650" y1="337.2881355932203" y2="337.2881355932203" /><text  class="poloto_tick_labels poloto_text" dominant-baseline="middle" text-anchor="end" x="135" y="337.2881355932203" >4.25</text><line  class="poloto_axis_lines" stroke="black" x1="150" x2="144" y1="326.6949152542373" y2="326.6949152542373" /><line  class="poloto_tick_line" stroke="black" x1="150" x2="650" y1="326.6949152542373" y2="326.6949152542373" /><text  class="poloto_tick_labels poloto_text" dominant-baseline="middle" text-anchor="end" x="135" y="326.6949152542373" >4.375</text><line  class="poloto_axis_lines" stroke="black" x1="150" x2="144" y1="316.10169491525426" y2="316.10169491525426" /><line  class="poloto_tick_line" stroke="black" x1="150" x2="650" y1="316.10169491525426" y2="316.10169491525426" /><text  class="poloto_tick_labels poloto_text" dominant-baseline="middle" text-anchor="end" x="135" y="316.10169491525426" >4.5</text><line  class="poloto_axis_lines" stroke="black" x1="150" x2="144" y1="305.50847457627117" y2="305.50847457627117" /><line  class="poloto_tick_line" stroke="black" x1="150" x2="650" y1="305.50847457627117" y2="305.50847457627117" /><text  class="poloto_tick_labels poloto_text" dominant-baseline="middle" text-anchor="end" x="135" y="305.50847457627117" >4.625</text><line  class="poloto_axis_lines" stroke="black" x1="150" x2="144" y1="294.91525423728814" y2="294.91525423728814" /><line  class="poloto_tick_line" stroke="black" x1="150" x2="650" y1="294.91525423728814" y2="294.91525423728814" /><text  class="poloto_tick_labels poloto_text" dominant-baseline="middle" text-anchor="end" x="135" y="294.91525423728814" >4.75</text><line  class="poloto_axis_lines" stroke="black" x1="150" x2="144" y1="284.3220338983051" y2="284.3220338983051" /><line  class="poloto_tick_line" stroke="black" x1="150" x2="650" y1="284.3220338983051" y2="284.3220338983051" /><text  class="poloto_tick_labels poloto_text" dominant-baseline="middle" text-anchor="end" x="135" y="284.3220338983051" >4.875</text><line  class="poloto_axis_lines" stroke="black" x1="150" x2="144" y1="273.728813559322" y2="273.728813559322" /><line  class="poloto_tick_line" stroke="black" x1="150" x2="650" y1="273.728813559322" y2="273.728813559322" /><text  class="poloto_tick_labels poloto_text" dominant-baseline="middle" text-anchor="end" x="135" y="273.728813559322" >5</text><line  class="poloto_axis_lines" stroke="black" x1="150" x2="144" y1="263.135593220339" y2="263.135593220339" /><line  class="poloto_tick_line" stroke="black" x1="150" x2="650" y1="263.135593220339" y2="263.135593220339" /><text  class="poloto_tick_labels poloto_text" dominant-baseline="middle" text-anchor="end" x="135" y="263.135593220339" >5.125</text><line  class="poloto_axis_lines" stroke="black" x1="150" x2="144" y1="252.54237288135596" y2="252.54237288135596" /><line  class="poloto_tick_line" stroke="black" x1="150" x2="650" y1="252.54237288135596" y2="252.54237288135596" /><text  class="poloto_tick_labels poloto_text" dominant-baseline="middle" text-anchor="end" x="135" y="252.54237288135596" >5.25</text><line  class="poloto_axis_lines" stroke="black" x1="150" x2="144" y1="241.94915254237287" y2="241.94915254237287" /><line  class="poloto_tick_line" stroke="black" x1="150" x2="650" y1="241.94915254237287" y2="241.94915254237287" /><text  class="poloto_tick_labels poloto_text" dominant-baseline="middle" text-anchor="end" x="135" y="241.94915254237287" >5.375</text><line  class="poloto_axis_lines" stroke="black" x1="150" x2="144" y1="231.35593220338984" y2="231.35593220338984" /><line  class="poloto_tick_line" stroke="black" x1="150" x2="650" y1="231.35593220338984" y2="231.35593220338984" /><text  class="poloto_tick_labels poloto_text" dominant-baseline="middle" text-anchor="end" x="135" y="231.35593220338984" >5.5</text><line  class="poloto_axis_lines" stroke="black" x1="150" x2="144" y1="220.7627118644068" y2="220.7627118644068" /><line  class="poloto_tick_line" stroke="black" x1="150" x2="650" y1="220.7627118644068" y2="220.7627118644068" /><text  class="poloto_tick_labels poloto_text" dominant-baseline="middle" text-anchor="end" x="135" y="220.7627118644068" >5.625</text><line  class="poloto_axis_lines" stroke="black" x1="150" x2="144" y1="210.16949152542372" y2="210.16949152542372" /><line  class="poloto_tick_line" stroke="black" x1="150" x2="650" y1="210.16949152542372" y2="210.16949152542372" /><text  class="poloto_tick_labels poloto_text" dominant-baseline="middle" text-anchor="end" x="135" y="210.16949152542372" >5.75</text><line  class="poloto_axis_lines" stroke="black" x1="150" x2="144" y1="199.5762711864407" y2="199.5762711864407" /><line  class="poloto_tick_line" stroke="black" x1="150" x2="650" y1="199.5762711864407" y2="199.5762711864407" /><text  class="poloto_tick_labels poloto_text" dominant-baseline="middle" text-anchor="end" x="135" y="199.5762711864407" >5.875</text><line  class="poloto_axis_lines" stroke="black" x1="150" x2="144" y1="188.98305084745766" y2="188.98305084745766" /><line  class="poloto_tick_line" stroke="black" x1="150" x2="650" y1="188.98305084745766" y2="188.98305084745766" /><text  class="poloto_tick_labels poloto_text" dominant-baseline="middle" text-anchor="end" x="135" y="188.98305084745766" >6</text><line  class="poloto_axis_lines" stroke="black" x1="150" x2="144" y1="178.38983050847457" y2="178.38983050847457" /><line  class="poloto_tick_line" stroke="black" x1="150" x2="650" y1="178.38983050847457" y2="178.38983050847457" /><text  class="poloto_tick_labels poloto_text" dominant-baseline="middle" text-anchor="end" x="135" y="178.38983050847457" >6.125</text><line  class="poloto_axis_lines" stroke="black" x1="150" x2="144" y1="167.7966101694915" y2="167.7966101694915" /><line  class="poloto_tick_line" stroke="black" x1="150" x2="650" y1="167.7966101694915" y2="167.7966101694915" /><text  class="poloto_tick_labels poloto_text" dominant-baseline="middle" text-anchor="end" x="135" y="167.7966101694915" >6.25</text><line  class="poloto_axis_lines" stroke="black" x1="150" x2="144" y1="157.2033898305085" y2="157.2033898305085" /><line  class="poloto_tick_line" stroke="black" x1="150" x2="650" y1="157.2033898305085" y2="157.2033898305085" /><text  class="poloto_tick_labels poloto_text" dominant-baseline="middle" text-anchor="end" x="135" y="157.2033898305085" >6.375</text><line  class="poloto_axis_lines" stroke="black" x1="150" x2="144" y1="146.61016949152543" y2="146.61016949152543" /><line  class="poloto_tick_line" stroke="black" x1="150" x2="650" y1="146.61016949152543" y2="146.61016949152543" /><text  class="poloto_tick_labels poloto_text" dominant-baseline="middle" text-anchor="end" x="135" y="146.61016949152543" >6.5</text><line  class="poloto_axis_lines" stroke="black" x1="150" x2="144" y1="136.01694915254234" y2="136.01694915254234" /><line  class="poloto_tick_line" stroke="black" x1="150" x2="650" y1="136.01694915254234" y2="136.01694915254234" /><text  class="poloto_tick_labels poloto_text" dominant-baseline="middle" text-anchor="end" x="135" y="136.01694915254234" >6.625</text><line  class="poloto_axis_lines" stroke="black" x1="150" x2="144" y1="125.42372881355936" y2="125.42372881355936" /><line  class="poloto_tick_line" stroke="black" x1="150" x2="650" y1="125.42372881355936" y2="125.42372881355936" /><text  class="poloto_tick_labels poloto_text" dominant-baseline="middle" text-anchor="end" x="135" y="125.42372881355936" >6.75</text><line  class="poloto_axis_lines" stroke="black" x1="150" x2="144" y1="114.83050847457628" y2="114.83050847457628" /><line  class="poloto_tick_line" stroke="black" x1="150" x2="650" y1="114.83050847457628" y2="114.83050847457628" /><text  class="poloto_tick_labels poloto_text" dominant-baseline="middle" text-anchor="end" x="135" y="114.83050847457628" >6.875</text><line  class="poloto_axis_lines" stroke="black" x1="150" x2="144" y1="104.23728813559319" y2="104.23728813559319" /><line  class="poloto_tick_line" stroke="black" x1="150" x2="650" y1="104.23728813559319" y2="104.23728813559319" /><text  class="poloto_tick_labels poloto_text" dominant-baseline="middle" text-anchor="end" x="135" y="104.23728813559319" >7</text><text  class="poloto_tick_labels poloto_text" dominant-baseline="middle" text-anchor="start" x="440.00000000000006" y="70" >¹2022-04-01 00:00:00 UTC in Months</text><line  class="poloto_axis_lines" stroke="black" x1="185.88516746411915" x2="185.88516746411915" y1="400" y2="405" /><line  class="poloto_tick_line" stroke="black" x1="185.88516746411915" x2="185.88516746411915" y1="400" y2="100" /><text  class="poloto_tick_labels poloto_text" dominant-baseline="start" text-anchor="middle" x="185.88516746411915" y="430" >2022 Apr¹</text><line  class="poloto_axis_lines" stroke="black" x1="257.6555023923429" x2="257.6555023923429" y1="400" y2="405" /><line  class="poloto_tick_line" stroke="black" x1="257.6555023923429" x2="257.6555023923429" y1="400" y2="100" /><text  class="poloto_tick_labels poloto_text" dominant-baseline="start" text-anchor="middle" x="257.6555023923429" y="430" >2022 May</text><line  class="poloto_axis_lines" stroke="black" x1="331.8181818181838" x2="331.8181818181838" y1="400" y2="405" /><line  class="poloto_tick_line" stroke="black" x1="331.8181818181838" x2="331.8181818181838" y1="400" y2="100" /><text  class="poloto_tick_labels poloto_text" dominant-baseline="start" text-anchor="middle" x="331.8181818181838" y="430" >2022 Jun</text><line  class="poloto_axis_lines" stroke="black" x1="403.5885167464148" x2="403.5885167464148" y1="400" y2="405" /><line  class="poloto_tick_line" stroke="black" x1="403.5885167464148" x2="403.5885167464148" y1="400" y2="100" /><text  class="poloto_tick_labels poloto_text" dominant-baseline="start" text-anchor="middle" x="403.5885167464148" y="430" >2022 Jul</text><line  class="poloto_axis_lines" stroke="black" x1="477.75119617224846" x2="477.75119617224846" y1="400" y2="405" /><line  class="poloto_tick_line" stroke="black" x1="477.75119617224846" x2="477.75119617224846" y1="400" y2="100" /><text  class="poloto_tick_labels poloto_text" dominant-baseline="start" text-anchor="middle" x="477.75119617224846" y="430" >2022 Aug</text><line  class="poloto_axis_lines" stroke="black" x1="551.9138755980894" x2="551.9138755980894" y1="400" y2="405" /><line  class="poloto_tick_line" stroke="black" x1="551.9138755980894" x2="551.9138755980894" y1="400" y2="100" /><text  class="poloto_tick_labels poloto_text" dominant-baseline="start" text-anchor="middle" x="551.9138755980894" y="430" >2022 Sep</text><line  class="poloto_axis_lines" stroke="black" x1="623.6842105263204" x2="623.6842105263204" y1="400" y2="405" /><line  class="poloto_tick_line" stroke="black" x1="623.6842105263204" x2="623.6842105263204" y1="400" y2="100" /><text  class="poloto_tick_labels poloto_text" dominant-baseline="start" text-anchor="middle" x="623.6842105263204" y="430" >2022 Oct</text><path  stroke="black" fill="none" class="poloto_axis_lines" d=" M 150 400 L 650 400" /><path  stroke="black" fill="none" class="poloto_axis_lines" d=" M 150 400 L 150 100" /></svg>