<svg class="poloto" width="800" height="500" viewBox="0 0 800 500" xmlns="http://www.w3.org/2000/svg"><style>.poloto{stroke-linecap:round;stroke-linejoin:round;font-family:Roboto,sans-serif;font-size:16px;}.poloto_background{fill:#262626;}.poloto_scatter{stroke-width:7}.poloto_tick_line{stroke:dimgray;stroke-width:0.5}.poloto_line{stroke-width:2}.poloto_text{fill: white;}.poloto_axis_lines{stroke: white;stroke-width:3;fill:none;stroke-dasharray:none}.poloto_title{font-size:24px;dominant-baseline:start;text-anchor:middle;}.poloto_xname{font-size:24px;dominant-baseline:start;text-anchor:middle;}.poloto_yname{font-size:24px;dominant-baseline:start;text-anchor:middle;}.poloto0stroke{stroke:blue;}.poloto1stroke{stroke:red;}.poloto2stroke{stroke:green;}.poloto3stroke{stroke:gold;}.poloto4stroke{stroke:aqua;}.poloto5stroke{stroke:lime;}.poloto6stroke{stroke:orange;}.poloto7stroke{stroke:chocolate;}.poloto0fill{fill:blue;}.poloto1fill{fill:red;}.poloto2fill{fill:green;}.poloto3fill{fill:gold;}.poloto4fill{fill:aqua;}.poloto5fill{fill:lime;}.poloto6fill{fill:orange;}.poloto7fill{fill:chocolate;}</style><circle  r="1e5" class="poloto_background" /><text  class="poloto_text poloto_legend_text" x="675" y="100" >Refinance 15</text><line  class="poloto_line poloto_legend_icon poloto0stroke poloto0legend" stroke="black" x1="680" x2="730" y1="81.25" y2="81.25" /><path  class="poloto_line poloto0stroke" fill="none" stroke="black" d=" M 150.00 393.13 L 151.39 400.00 L 155.54 390.27 L 156.93 381.94 L 158.31 390.27 L 158.31 390.27 L 161.08 362.48 L 165.24 361.01 L 166.62 370.74 L 168.01 349.74 L 169.39 351.21 L 170.78 346.81 L 174.93 348.28 L 176.32 342.41 L 176.32 342.41 L 179.09 342.95 L 180.47 321.95 L 184.63 331.06 L 186.01 333.99 L 187.40 333.99 L 188.78 333.22 L 190.17 328.74 L 195.71 289.53 L 197.09 306.97 L 198.48 293.46 L 199.86 288.21 L 199.86 288.21 L 205.40 308.52 L 208.17 312.22 L 209.56 303.96 L 213.71 294.16 L 215.10 313.69 L 216.48 303.96 L 216.48 303.96 L 219.25 302.42 L 223.41 305.43 L 224.79 315.16 L 224.79 315.16 L 226.18 306.90 L 227.56 316.70 L 228.95 302.42 L 233.10 331.76 L 234.49 331.06 L 235.87 315.16 L 235.87 315.16 L 237.26 321.95 L 238.64 324.96 L 242.80 324.96 L 244.18 335.46 L 245.57 335.46 L 246.95 335.46 L 248.34 335.46 L 253.88 324.96 L 255.26 321.95 L 256.65 323.42 L 258.03 323.42 L 258.03 323.42 L 263.57 313.69 L 264.96 313.69 L 266.34 305.43 L 271.88 291.92 L 273.27 264.05 L 274.65 267.14 L 276.04 267.14 L 277.42 286.67 L 281.58 267.14 L 282.96 267.14 L 284.35 285.13 L 285.73 288.21 L 291.27 288.21 L 292.66 286.67 L 294.04 291.22 L 295.43 295.70 L 296.81 305.43 L 302.35 312.22 L 303.74 303.96 L 305.12 297.17 L 306.51 294.16 L 310.66 295.70 L 313.43 295.70 L 314.82 294.16 L 320.36 292.69 L 320.36 292.69 L 320.36 292.69 L 320.36 292.69 L 320.36 292.69 L 320.36 292.69 L 323.13 292.69 L 323.13 292.69 L 323.13 292.69 L 323.13 292.69 L 323.13 292.69 L 323.13 292.69 L 330.06 303.96 L 332.83 306.90 L 334.21 332.53 L 335.60 335.46 L 339.75 335.46 L 341.14 333.99 L 342.52 313.69 L 343.91 308.44 L 345.29 295.70 L 349.45 305.43 L 349.45 305.43 L 350.83 297.17 L 353.60 305.43 L 353.60 305.43 L 360.53 305.43 L 361.91 274.70 L 363.30 292.69 L 368.84 261.89 L 371.61 261.89 L 371.61 261.89 L 374.38 273.16 L 379.92 267.14 L 379.92 267.14 L 379.92 267.14 L 379.92 267.14 L 379.92 267.14 L 379.92 267.14 L 379.92 267.14 L 379.92 267.14 L 379.92 267.14 L 384.07 267.14 L 392.38 247.53 L 397.92 249.85 L 397.92 249.85 L 402.08 249.85 L 407.62 249.85 L 409.00 249.85 L 409.00 249.85 L 409.00 249.85 L 409.00 249.85 L 409.00 249.85 L 427.01 249.85 L 428.39 249.85 L 436.70 162.92 L 438.09 154.66 L 439.47 154.66 L 489.34 180.60 L 494.88 180.60 L 496.26 180.60 L 497.65 195.50 L 500.42 203.68 L 500.42 203.68 L 505.96 203.68 L 507.34 203.68 L 508.73 203.68 L 510.11 203.68 L 514.27 203.68 L 515.65 203.68 L 518.42 203.68 L 519.81 203.68 L 523.96 203.68 L 525.35 203.68 L 525.35 203.68 L 529.50 203.68 L 533.66 203.68 L 535.04 203.68 L 536.43 203.68 L 537.81 203.68 L 539.20 203.68 L 544.74 226.15 L 546.12 200.21 L 547.51 180.60 L 548.89 190.40 L 553.05 190.40 L 554.43 190.40 L 554.43 190.40 L 557.20 211.48 L 558.59 211.48 L 562.74 211.48 L 564.13 211.48 L 565.51 211.48 L 566.90 211.48 L 568.28 211.48 L 568.28 211.48 L 568.28 211.48 L 568.28 211.48 L 575.21 211.48 L 577.98 211.48 L 582.13 211.48 L 583.52 211.48 L 586.29 211.48 L 587.67 211.48 L 593.21 211.48 L 594.60 211.48 L 595.98 211.48 L 597.37 239.27 L 601.52 245.45 L 602.91 209.93 L 604.29 221.28 L 605.68 219.74 L 607.06 201.75 L 611.22 161.07 L 612.60 161.07 L 613.99 161.07 L 615.37 162.61 L 616.76 170.79 L 620.91 162.61 L 622.30 162.61 L 623.68 151.26 L 625.07 161.07 L 626.45 141.46 L 631.99 151.26 L 633.38 152.80 L 634.76 143.08 L 636.15 149.64 L 640.30 155.97 L 641.69 152.80 L 643.07 151.26 L 644.46 151.26 L 645.84 162.61 L 650.00 161.07" /><text  class="poloto_text poloto_legend_text" x="675" y="150" >Refinance 20</text><line  class="poloto_line poloto_legend_icon poloto1stroke poloto1legend" stroke="black" x1="680" x2="730" y1="131.25" y2="131.25" /><path  class="poloto_line poloto1stroke" fill="none" stroke="black" d=" M 150.00 350.51 L 151.39 371.13 L 155.54 340.40 L 156.93 330.98 L 158.31 339.63 L 158.31 339.63 L 161.08 312.61 L 165.24 310.29 L 166.62 320.10 L 168.01 309.14 L 169.39 318.94 L 170.78 300.57 L 174.93 328.67 L 176.32 300.57 L 176.32 300.57 L 179.09 300.57 L 179.09 300.57 L 184.63 263.51 L 186.01 293.15 L 187.40 300.57 L 188.78 310.29 L 190.17 291.22 L 195.71 272.47 L 197.09 270.07 L 198.48 265.29 L 199.86 254.32 L 204.02 259.11 L 205.40 279.88 L 208.17 272.47 L 209.56 270.07 L 213.71 262.27 L 215.10 271.31 L 216.48 271.31 L 216.48 271.31 L 219.25 271.31 L 223.41 272.47 L 224.79 292.00 L 224.79 292.00 L 226.18 281.03 L 227.56 299.41 L 228.95 292.00 L 233.10 293.15 L 234.49 292.00 L 235.87 292.00 L 235.87 292.00 L 237.26 293.15 L 238.64 299.41 L 242.80 300.57 L 244.18 304.04 L 245.57 304.04 L 246.95 304.04 L 248.34 304.04 L 253.88 299.41 L 255.26 289.60 L 256.65 292.00 L 258.03 292.00 L 258.03 292.00 L 263.57 279.88 L 264.96 282.19 L 266.34 273.62 L 271.88 232.24 L 273.27 215.11 L 274.65 224.91 L 276.04 232.24 L 277.42 252.93 L 281.58 240.74 L 282.96 234.64 L 284.35 254.17 L 285.73 263.51 L 291.27 263.51 L 292.66 252.93 L 294.04 262.74 L 295.43 272.47 L 296.81 283.43 L 302.35 290.76 L 303.74 281.03 L 305.12 271.31 L 306.51 264.67 L 310.66 270.07 L 313.43 272.47 L 314.82 271.31 L 320.36 272.47 L 320.36 272.47 L 320.36 272.47 L 320.36 272.47 L 320.36 272.47 L 320.36 272.47 L 320.36 272.47 L 320.36 272.47 L 320.36 272.47 L 320.36 272.47 L 320.36 272.47 L 320.36 272.47 L 330.06 290.76 L 332.83 293.15 L 334.21 310.29 L 335.60 312.61 L 339.75 310.06 L 341.14 310.06 L 342.52 300.57 L 343.91 304.04 L 345.29 289.60 L 349.45 282.19 L 349.45 282.19 L 350.83 282.19 L 353.60 292.00 L 353.60 292.00 L 360.53 289.60 L 361.91 272.47 L 363.30 272.47 L 368.84 259.88 L 371.61 249.31 L 371.61 249.31 L 374.38 261.12 L 379.92 232.24 L 379.92 232.24 L 379.92 232.24 L 379.92 232.24 L 379.92 232.24 L 379.92 232.24 L 379.92 232.24 L 379.92 232.24 L 379.92 232.24 L 384.07 232.24 L 392.38 219.97 L 397.92 221.20 L 400.69 221.20 L 402.08 221.20 L 402.08 221.20 L 409.00 221.20 L 410.39 221.20 L 410.39 221.20 L 410.39 221.20 L 410.39 221.20 L 427.01 221.20 L 428.39 221.20 L 436.70 143.85 L 438.09 129.41 L 438.09 129.41 L 492.11 177.12 L 494.88 177.12 L 496.26 177.12 L 499.03 194.26 L 500.42 195.50 L 500.42 195.50 L 505.96 195.50 L 507.34 195.50 L 508.73 195.50 L 510.11 195.50 L 514.27 195.50 L 515.65 195.50 L 518.42 195.50 L 519.81 195.50 L 523.96 195.50 L 525.35 195.50 L 525.35 195.50 L 529.50 195.50 L 533.66 195.50 L 535.04 195.50 L 536.43 195.50 L 537.81 195.50 L 539.20 195.50 L 544.74 178.05 L 546.12 168.55 L 547.51 167.32 L 548.89 169.87 L 553.05 169.87 L 554.43 169.87 L 554.43 169.87 L 557.20 188.16 L 558.59 188.16 L 562.74 188.16 L 564.13 188.16 L 565.51 188.16 L 566.90 188.16 L 568.28 188.16 L 568.28 188.16 L 573.82 188.16 L 573.82 188.16 L 575.21 188.16 L 577.98 188.16 L 582.13 188.16 L 583.52 188.16 L 586.29 188.16 L 587.67 188.16 L 593.21 188.16 L 594.60 188.16 L 595.98 188.16 L 597.37 209.01 L 601.52 207.77 L 602.91 178.36 L 604.29 179.59 L 604.29 179.59 L 607.06 178.36 L 611.22 158.75 L 612.60 158.75 L 613.99 150.26 L 615.37 140.45 L 616.76 149.02 L 620.91 140.45 L 622.30 130.65 L 623.68 140.45 L 625.07 150.26 L 626.45 139.22 L 631.99 140.45 L 633.38 129.41 L 634.76 100.00 L 636.15 129.41 L 640.30 150.26 L 641.69 169.17 L 643.07 140.45 L 644.46 139.22 L 645.84 167.32 L 650.00 160.06" /><text  class="poloto_text poloto_legend_text" x="675" y="200" >Refinance 30</text><line  class="poloto_line poloto_legend_icon poloto2stroke poloto2legend" stroke="black" x1="680" x2="730" y1="181.25" y2="181.25" /><path  class="poloto_line poloto2stroke" fill="none" stroke="black" d=" M 150.00 348.35 L 151.39 355.69 L 155.54 344.26 L 156.93 335.31 L 158.31 337.00 L 158.31 337.00 L 161.08 318.24 L 165.24 316.62 L 166.62 326.35 L 168.01 315.77 L 169.39 325.50 L 170.78 306.82 L 174.93 315.77 L 176.32 297.01 L 177.70 297.01 L 179.09 296.17 L 180.47 272.47 L 184.63 276.63 L 186.01 287.29 L 187.40 297.01 L 188.78 288.14 L 190.17 277.48 L 195.71 269.38 L 197.09 256.18 L 198.48 254.40 L 199.86 252.55 L 204.02 256.18 L 205.40 271.31 L 208.17 269.38 L 209.56 267.60 L 213.71 257.95 L 215.10 268.45 L 216.48 257.95 L 216.48 257.95 L 219.25 257.95 L 223.41 259.73 L 224.79 276.63 L 224.79 276.63 L 226.18 268.45 L 227.56 269.38 L 228.95 270.23 L 233.10 277.48 L 234.49 269.38 L 235.87 269.38 L 235.87 269.38 L 237.26 278.33 L 238.64 279.26 L 242.80 280.11 L 244.18 288.14 L 245.57 288.14 L 246.95 289.84 L 248.34 289.84 L 253.88 286.36 L 255.26 276.63 L 256.65 278.33 L 258.03 277.48 L 258.03 277.48 L 263.57 268.45 L 264.96 268.45 L 266.34 258.80 L 271.88 219.74 L 273.27 192.10 L 274.65 209.01 L 276.04 219.74 L 277.42 229.46 L 281.58 220.59 L 282.96 219.74 L 284.35 237.49 L 285.73 239.27 L 291.27 239.27 L 292.66 228.62 L 294.04 237.49 L 295.43 247.22 L 296.81 268.45 L 302.35 269.38 L 303.74 258.80 L 305.12 240.20 L 306.51 237.49 L 310.66 255.25 L 313.43 239.27 L 314.82 238.34 L 320.36 256.18 L 320.36 256.18 L 320.36 256.18 L 320.36 256.18 L 320.36 256.18 L 320.36 256.18 L 323.13 256.18 L 323.13 256.18 L 323.13 256.18 L 323.13 256.18 L 323.13 256.18 L 323.13 256.18 L 330.06 267.60 L 332.83 269.38 L 334.21 286.36 L 335.60 297.86 L 339.75 297.01 L 341.14 297.01 L 342.52 277.48 L 343.91 280.11 L 345.29 267.60 L 349.45 277.48 L 349.45 277.48 L 350.83 270.23 L 353.60 278.33 L 353.60 278.33 L 360.53 276.63 L 361.91 259.73 L 363.30 258.80 L 368.84 236.57 L 371.61 228.62 L 371.61 228.62 L 374.38 238.34 L 379.92 227.69 L 379.92 227.69 L 379.92 227.69 L 379.92 227.69 L 379.92 227.69 L 379.92 227.69 L 379.92 227.69 L 379.92 227.69 L 384.07 227.69 L 384.07 226.76 L 392.38 215.11 L 397.92 195.50 L 397.92 195.50 L 402.08 195.50 L 402.08 195.50 L 409.00 195.50 L 410.39 195.50 L 410.39 195.50 L 410.39 195.50 L 410.39 195.50 L 427.01 195.50 L 428.39 195.50 L 436.70 151.34 L 438.09 126.71 L 438.09 126.71 L 492.11 169.02 L 494.88 169.02 L 496.26 169.02 L 497.65 172.95 L 500.42 181.91 L 500.42 181.91 L 505.96 181.91 L 507.34 181.91 L 508.73 181.91 L 510.11 181.91 L 514.27 181.91 L 515.65 181.91 L 518.42 181.91 L 519.81 181.91 L 523.96 181.91 L 525.35 181.91 L 525.35 181.91 L 529.50 181.91 L 533.66 181.91 L 535.04 181.91 L 536.43 181.91 L 537.81 181.91 L 539.20 181.91 L 544.74 167.01 L 546.12 174.88 L 547.51 156.20 L 548.89 174.88 L 553.05 174.88 L 554.43 174.88 L 554.43 174.88 L 557.20 174.88 L 558.59 174.88 L 562.74 174.88 L 564.13 174.88 L 565.51 174.88 L 566.90 174.88 L 568.28 174.88 L 568.28 174.88 L 573.82 174.88 L 573.82 174.88 L 575.21 174.88 L 577.98 174.88 L 582.13 174.88 L 583.52 174.88 L 586.29 174.88 L 587.67 174.88 L 593.21 174.88 L 594.60 174.88 L 595.98 174.88 L 597.37 224.91 L 601.52 215.11 L 602.91 175.89 L 604.29 205.30 L 605.68 175.89 L 607.06 166.01 L 611.22 156.20 L 612.60 156.20 L 613.99 147.32 L 615.37 137.52 L 616.76 146.40 L 620.91 146.40 L 622.30 135.59 L 623.68 127.71 L 625.07 137.52 L 626.45 128.72 L 631.99 127.71 L 633.38 116.91 L 634.76 116.91 L 636.15 126.71 L 640.30 127.71 L 641.69 117.91 L 643.07 125.78 L 644.46 117.91 L 645.84 147.32 L 650.00 147.32" /><text  class="poloto_labels poloto_text poloto_title" x="400" y="37.5" >lower.com purchase rates</text><text  class="poloto_labels poloto_text poloto_xname" x="400" y="481.25" >Date</text><text  class="poloto_labels poloto_text poloto_yname" transform="rotate(-90,37.5,250)" x="37.5" y="250" >Rate (%)</text><text  class="poloto_tick_labels poloto_text" dominant-baseline="middle" text-anchor="start" x="150" y="70" ></text><line  class="poloto_axis_lines" stroke="black" x1="150" x2="144" y1="391.12197632527017" y2="391.12197632527017" /><line  class="poloto_tick_line" stroke="black" x1="150" x2="650" y1="391.12197632527017" y2="391.12197632527017" /><text  class="poloto_tick_labels poloto_text" dominant-baseline="middle" text-anchor="end" x="135" y="391.12197632527017" >3.625</text><line  class="poloto_axis_lines" stroke="black" x1="150" x2="144" y1="381.4719505918682" y2="381.4719505918682" /><line  class="poloto_tick_line" stroke="black" x1="150" x2="650" y1="381.4719505918682" y2="381.4719505918682" /><text  class="poloto_tick_labels poloto_text" dominant-baseline="middle" text-anchor="end" x="135" y="381.4719505918682" >3.75</text><line  class="poloto_axis_lines" stroke="black" x1="150" x2="144" y1="371.8219248584663" y2="371.8219248584663" /><line  class="poloto_tick_line" stroke="black" x1="150" x2="650" y1="371.8219248584663" y2="371.8219248584663" /><text  class="poloto_tick_labels poloto_text" dominant-baseline="middle" text-anchor="end" x="135" y="371.8219248584663" >3.875</text><line  class="poloto_axis_lines" stroke="black" x1="150" x2="144" y1="362.17189912506433" y2="362.17189912506433" /><line  class="poloto_tick_line" stroke="black" x1="150" x2="650" y1="362.17189912506433" y2="362.17189912506433" /><text  class="poloto_tick_labels poloto_text" dominant-baseline="middle" text-anchor="end" x="135" y="362.17189912506433" >4</text><line  class="poloto_axis_lines" stroke="black" x1="150" x2="144" y1="352.5218733916624" y2="352.5218733916624" /><line  class="poloto_tick_line" stroke="black" x1="150" x2="650" y1="352.5218733916624" y2="352.5218733916624" /><text  class="poloto_tick_labels poloto_text" dominant-baseline="middle" text-anchor="end" x="135" y="352.5218733916624" >4.125</text><line  class="poloto_axis_lines" stroke="black" x1="150" x2="144" y1="342.87184765826044" y2="342.87184765826044" /><line  class="poloto_tick_line" stroke="black" x1="150" x2="650" y1="342.87184765826044" y2="342.87184765826044" /><text  class="poloto_tick_labels poloto_text" dominant-baseline="middle" text-anchor="end" x="135" y="342.87184765826044" >4.25</text><line  class="poloto_axis_lines" stroke="black" x1="150" x2="144" y1="333.2218219248585" y2="333.2218219248585" /><line  class="poloto_tick_line" stroke="black" x1="150" x2="650" y1="333.2218219248585" y2="333.2218219248585" /><text  class="poloto_tick_labels poloto_text" dominant-baseline="middle" text-anchor="end" x="135" y="333.2218219248585" >4.375</text><line  class="poloto_axis_lines" stroke="black" x1="150" x2="144" y1="323.5717961914565" y2="323.5717961914565" /><line  class="poloto_tick_line" stroke="black" x1="150" x2="650" y1="323.5717961914565" y2="323.5717961914565" /><text  class="poloto_tick_labels poloto_text" dominant-baseline="middle" text-anchor="end" x="135" y="323.5717961914565" >4.5</text><line  class="poloto_axis_lines" stroke="black" x1="150" x2="144" y1="313.92177045805454" y2="313.92177045805454" /><line  class="poloto_tick_line" stroke="black" x1="150" x2="650" y1="313.92177045805454" y2="313.92177045805454" /><text  class="poloto_tick_labels poloto_text" dominant-baseline="middle" text-anchor="end" x="135" y="313.92177045805454" >4.625</text><line  class="poloto_axis_lines" stroke="black" x1="150" x2="144" y1="304.2717447246526" y2="304.2717447246526" /><line  class="poloto_tick_line" stroke="black" x1="150" x2="650" y1="304.2717447246526" y2="304.2717447246526" /><text  class="poloto_tick_labels poloto_text" dominant-baseline="middle" text-anchor="end" x="135" y="304.2717447246526" >4.75</text><line  class="poloto_axis_lines" stroke="black" x1="150" x2="144" y1="294.62171899125065" y2="294.62171899125065" /><line  class="poloto_tick_line" stroke="black" x1="150" x2="650" y1="294.62171899125065" y2="294.62171899125065" /><text  class="poloto_tick_labels poloto_text" dominant-baseline="middle" text-anchor="end" x="135" y="294.62171899125065" >4.875</text><line  class="poloto_axis_lines" stroke="black" x1="150" x2="144" y1="284.9716932578487" y2="284.9716932578487" /><line  class="poloto_tick_line" stroke="black" x1="150" x2="650" y1="284.9716932578487" y2="284.9716932578487" /><text  class="poloto_tick_labels poloto_text" dominant-baseline="middle" text-anchor="end" x="135" y="284.9716932578487" >5</text><line  class="poloto_axis_lines" stroke="black" x1="150" x2="144" y1="275.32166752444675" y2="275.32166752444675" /><line  class="poloto_tick_line" stroke="black" x1="150" x2="650" y1="275.32166752444675" y2="275.32166752444675" /><text  class="poloto_tick_labels poloto_text" dominant-baseline="middle" text-anchor="end" x="135" y="275.32166752444675" >5.125</text><line  class="poloto_axis_lines" stroke="black" x1="150" x2="144" y1="265.67164179104475" y2="265.67164179104475" /><line  class="poloto_tick_line" stroke="black" x1="150" x2="650" y1="265.67164179104475" y2="265.67164179104475" /><text  class="poloto_tick_labels poloto_text" dominant-baseline="middle" text-anchor="end" x="135" y="265.67164179104475" >5.25</text><line  class="poloto_axis_lines" stroke="black" x1="150" x2="144" y1="256.0216160576428" y2="256.0216160576428" /><line  class="poloto_tick_line" stroke="black" x1="150" x2="650" y1="256.0216160576428" y2="256.0216160576428" /><text  class="poloto_tick_labels poloto_text" dominant-baseline="middle" text-anchor="end" x="135" y="256.0216160576428" >5.375</text><line  class="poloto_axis_lines" stroke="black" x1="150" x2="144" y1="246.37159032424086" y2="246.37159032424086" /><line  class="poloto_tick_line" stroke="black" x1="150" x2="650" y1="246.37159032424086" y2="246.37159032424086" /><text  class="poloto_tick_labels poloto_text" dominant-baseline="middle" text-anchor="end" x="135" y="246.37159032424086" >5.5</text><line  class="poloto_axis_lines" stroke="black" x1="150" x2="144" y1="236.7215645908389" y2="236.7215645908389" /><line  class="poloto_tick_line" stroke="black" x1="150" x2="650" y1="236.7215645908389" y2="236.7215645908389" /><text  class="poloto_tick_labels poloto_text" dominant-baseline="middle" text-anchor="end" x="135" y="236.7215645908389" >5.625</text><line  class="poloto_axis_lines" stroke="black" x1="150" x2="144" y1="227.07153885743696" y2="227.07153885743696" /><line  class="poloto_tick_line" stroke="black" x1="150" x2="650" y1="227.07153885743696" y2="227.07153885743696" /><text  class="poloto_tick_labels poloto_text" dominant-baseline="middle" text-anchor="end" x="135" y="227.07153885743696" >5.75</text><line  class="poloto_axis_lines" stroke="black" x1="150" x2="144" y1="217.42151312403502" y2="217.42151312403502" /><line  class="poloto_tick_line" stroke="black" x1="150" x2="650" y1="217.42151312403502" y2="217.42151312403502" /><text  class="poloto_tick_labels poloto_text" dominant-baseline="middle" text-anchor="end" x="135" y="217.42151312403502" >5.875</text><line  class="poloto_axis_lines" stroke="black" x1="150" x2="144" y1="207.771487390633" y2="207.771487390633" /><line  class="poloto_tick_line" stroke="black" x1="150" x2="650" y1="207.771487390633" y2="207.771487390633" /><text  class="poloto_tick_labels poloto_text" dominant-baseline="middle" text-anchor="end" x="135" y="207.771487390633" >6</text><line  class="poloto_axis_lines" stroke="black" x1="150" x2="144" y1="198.12146165723107" y2="198.12146165723107" /><line  class="poloto_tick_line" stroke="black" x1="150" x2="650" y1="198.12146165723107" y2="198.12146165723107" /><text  class="poloto_tick_labels poloto_text" dominant-baseline="middle" text-anchor="end" x="135" y="198.12146165723107" >6.125</text><line  class="poloto_axis_lines" stroke="black" x1="150" x2="144" y1="188.47143592382912" y2="188.47143592382912" /><line  class="poloto_tick_line" stroke="black" x1="150" x2="650" y1="188.47143592382912" y2="188.47143592382912" /><text  class="poloto_tick_labels poloto_text" dominant-baseline="middle" text-anchor="end" x="135" y="188.47143592382912" >6.25</text><line  class="poloto_axis_lines" stroke="black" x1="150" x2="144" y1="178.82141019042717" y2="178.82141019042717" /><line  class="poloto_tick_line" stroke="black" x1="150" x2="650" y1="178.82141019042717" y2="178.82141019042717" /><text  class="poloto_tick_labels poloto_text" dominant-baseline="middle" text-anchor="end" x="135" y="178.82141019042717" >6.375</text><line  class="poloto_axis_lines" stroke="black" x1="150" x2="144" y1="169.17138445702523" y2="169.17138445702523" /><line  class="poloto_tick_line" stroke="black" x1="150" x2="650" y1="169.17138445702523" y2="169.17138445702523" /><text  class="poloto_tick_labels poloto_text" dominant-baseline="middle" text-anchor="end" x="135" y="169.17138445702523" >6.5</text><line  class="poloto_axis_lines" stroke="black" x1="150" x2="144" y1="159.52135872362328" y2="159.52135872362328" /><line  class="poloto_tick_line" stroke="black" x1="150" x2="650" y1="159.52135872362328" y2="159.52135872362328" /><text  class="poloto_tick_labels poloto_text" dominant-baseline="middle" text-anchor="end" x="135" y="159.52135872362328" >6.625</text><line  class="poloto_axis_lines" stroke="black" x1="150" x2="144" y1="149.87133299022133" y2="149.87133299022133" /><line  class="poloto_tick_line" stroke="black" x1="150" x2="650" y1="149.87133299022133" y2="149.87133299022133" /><text  class="poloto_tick_labels poloto_text" dominant-baseline="middle" text-anchor="end" x="135" y="149.87133299022133" >6.75</text><line  class="poloto_axis_lines" stroke="black" x1="150" x2="144" y1="140.22130725681933" y2="140.22130725681933" /><line  class="poloto_tick_line" stroke="black" x1="150" x2="650" y1="140.22130725681933" y2="140.22130725681933" /><text  class="poloto_tick_labels poloto_text" dominant-baseline="middle" text-anchor="end" x="135" y="140.22130725681933" >6.875</text><line  class="poloto_axis_lines" stroke="black" x1="150" x2="144" y1="130.57128152341744" y2="130.57128152341744" /><line  class="poloto_tick_line" stroke="black" x1="150" x2="650" y1="130.57128152341744" y2="130.57128152341744" /><text  class="poloto_tick_labels poloto_text" dominant-baseline="middle" text-anchor="end" x="135" y="130.57128152341744" >7</text><line  class="poloto_axis_lines" stroke="black" x1="150" x2="144" y1="120.92125579001544" y2="120.92125579001544" /><line  class="poloto_tick_line" stroke="black" x1="150" x2="650" y1="120.92125579001544" y2="120.92125579001544" /><text  class="poloto_tick_labels poloto_text" dominant-baseline="middle" text-anchor="end" x="135" y="120.92125579001544" >7.125</text><line  class="poloto_axis_lines" stroke="black" x1="150" x2="144" y1="111.27123005661343" y2="111.27123005661343" /><line  class="poloto_tick_line" stroke="black" x1="150" x2="650" y1="111.27123005661343" y2="111.27123005661343" /><text  class="poloto_tick_labels poloto_text" dominant-baseline="middle" text-anchor="end" x="135" y="111.27123005661343" >7.25</text><line  class="poloto_axis_lines" stroke="black" x1="150" x2="144" y1="101.62120432321154" y2="101.62120432321154" /><line  class="poloto_tick_line" stroke="black" x1="150" x2="650" y1="101.62120432321154" y2="101.62120432321154" /><text  class="poloto_tick_labels poloto_text" dominant-baseline="middle" text-anchor="end" x="135" y="101.62120432321154" >7.375</text><text  class="poloto_tick_labels poloto_text" dominant-baseline="middle" text-anchor="start" x="440.00000000000006" y="70" >¹2022-05-01 00:00:00 UTC in Months</text><line  class="poloto_axis_lines" stroke="black" x1="212.32686980609287" x2="212.32686980609287" y1="400" y2="405" /><line  class="poloto_tick_line" stroke="black" x1="212.32686980609287" x2="212.32686980609287" y1="400" y2="100.00000000000006" /><text  class="poloto_tick_labels poloto_text" dominant-baseline="start" text-anchor="middle" x="212.32686980609287" y="430" >2022 May¹</text><line  class="poloto_axis_lines" stroke="black" x1="296.8144044321307" x2="296.8144044321307" y1="400" y2="405" /><line  class="poloto_tick_line" stroke="black" x1="296.8144044321307" x2="296.8144044321307" y1="400" y2="100.00000000000006" /><text  class="poloto_tick_labels poloto_text" dominant-baseline="start" text-anchor="middle" x="296.8144044321307" y="430" >2022 Jul</text><line  class="poloto_axis_lines" stroke="black" x1="382.68698060941824" x2="382.68698060941824" y1="400" y2="405" /><line  class="poloto_tick_line" stroke="black" x1="382.68698060941824" x2="382.68698060941824" y1="400" y2="100.00000000000006" /><text  class="poloto_tick_labels poloto_text" dominant-baseline="start" text-anchor="middle" x="382.68698060941824" y="430" >2022 Sep</text><line  class="poloto_axis_lines" stroke="black" x1="467.17451523545606" x2="467.17451523545606" y1="400" y2="405" /><line  class="poloto_tick_line" stroke="black" x1="467.17451523545606" x2="467.17451523545606" y1="400" y2="100.00000000000006" /><text  class="poloto_tick_labels poloto_text" dominant-baseline="start" text-anchor="middle" x="467.17451523545606" y="430" >2022 Nov</text><line  class="poloto_axis_lines" stroke="black" x1="551.6620498614939" x2="551.6620498614939" y1="400" y2="405" /><line  class="poloto_tick_line" stroke="black" x1="551.6620498614939" x2="551.6620498614939" y1="400" y2="100.00000000000006" /><text  class="poloto_tick_labels poloto_text" dominant-baseline="start" text-anchor="middle" x="551.6620498614939" y="430" >2023 Jan</text><line  class="poloto_axis_lines" stroke="black" x1="633.3795013850395" x2="633.3795013850395" y1="400" y2="405" /><line  class="poloto_tick_line" stroke="black" x1="633.3795013850395" x2="633.3795013850395" y1="400" y2="100.00000000000006" /><text  class="poloto_tick_labels poloto_text" dominant-baseline="start" text-anchor="middle" x="633.3795013850395" y="430" >2023 Mar</text><path  stroke="black" fill="none" class="poloto_axis_lines" d=" M 150 400 L 650 400" /><path  stroke="black" fill="none" class="poloto_axis_lines" d=" M 150 400 L 150 100.00000000000006" /></svg>