<svg class="poloto" width="800" height="500" viewBox="0 0 800 500" xmlns="http://www.w3.org/2000/svg"><style>.poloto{stroke-linecap:round;stroke-linejoin:round;font-family:Roboto,sans-serif;font-size:16px;}.poloto_background{fill:#262626;}.poloto_scatter{stroke-width:7}.poloto_tick_line{stroke:dimgray;stroke-width:0.5}.poloto_line{stroke-width:2}.poloto_text{fill: white;}.poloto_axis_lines{stroke: white;stroke-width:3;fill:none;stroke-dasharray:none}.poloto_title{font-size:24px;dominant-baseline:start;text-anchor:middle;}.poloto_xname{font-size:24px;dominant-baseline:start;text-anchor:middle;}.poloto_yname{font-size:24px;dominant-baseline:start;text-anchor:middle;}.poloto0stroke{stroke:blue;}.poloto1stroke{stroke:red;}.poloto2stroke{stroke:green;}.poloto3stroke{stroke:gold;}.poloto4stroke{stroke:aqua;}.poloto5stroke{stroke:lime;}.poloto6stroke{stroke:orange;}.poloto7stroke{stroke:chocolate;}.poloto0fill{fill:blue;}.poloto1fill{fill:red;}.poloto2fill{fill:green;}.poloto3fill{fill:gold;}.poloto4fill{fill:aqua;}.poloto5fill{fill:lime;}.poloto6fill{fill:orange;}.poloto7fill{fill:chocolate;}</style><circle  r="1e5" class="poloto_background" /><text  class="poloto_text poloto_legend_text" x="675" y="100" >Refinance 15</text><line  class="poloto_line poloto_legend_icon poloto0stroke poloto0legend" stroke="black" x1="680" x2="730" y1="81.25" y2="81.25" /><path  class="poloto_line poloto0stroke" fill="none" stroke="black" d=" M 150.00 392.46 L 151.44 400.00 L 155.75 389.32 L 157.18 380.17 L 158.62 389.32 L 158.62 389.32 L 161.49 358.81 L 165.80 357.20 L 167.24 367.88 L 168.68 344.83 L 170.11 346.44 L 171.55 341.61 L 175.86 343.22 L 177.30 336.78 L 177.30 336.78 L 180.17 337.37 L 181.61 314.32 L 185.92 324.32 L 187.36 327.54 L 188.79 327.54 L 190.23 326.69 L 191.67 321.78 L 197.41 278.73 L 198.85 297.88 L 200.29 283.05 L 201.72 277.29 L 201.72 277.29 L 207.47 299.58 L 210.34 303.64 L 211.78 294.58 L 216.09 283.81 L 217.53 305.25 L 218.97 294.58 L 218.97 294.58 L 221.84 292.88 L 226.15 296.19 L 227.59 306.86 L 227.59 306.86 L 229.02 297.80 L 230.46 308.56 L 231.90 292.88 L 236.21 325.08 L 237.64 324.32 L 239.08 306.86 L 239.08 306.86 L 240.52 314.32 L 241.95 317.63 L 246.26 317.63 L 247.70 329.15 L 249.14 329.15 L 250.57 329.15 L 252.01 329.15 L 257.76 317.63 L 259.20 314.32 L 260.63 315.93 L 262.07 315.93 L 262.07 315.93 L 267.82 305.25 L 269.25 305.25 L 270.69 296.19 L 276.44 281.36 L 277.87 250.76 L 279.31 254.15 L 280.75 254.15 L 282.18 275.59 L 286.49 254.15 L 287.93 254.15 L 289.37 273.90 L 290.80 277.29 L 296.55 277.29 L 297.99 275.59 L 299.43 280.59 L 300.86 285.51 L 302.30 296.19 L 308.05 303.64 L 309.48 294.58 L 310.92 287.12 L 312.36 283.81 L 316.67 285.51 L 319.54 285.51 L 320.98 283.81 L 326.72 282.20 L 326.72 282.20 L 326.72 282.20 L 326.72 282.20 L 326.72 282.20 L 326.72 282.20 L 329.60 282.20 L 329.60 282.20 L 329.60 282.20 L 329.60 282.20 L 329.60 282.20 L 329.60 282.20 L 336.78 294.58 L 339.66 297.80 L 341.09 325.93 L 342.53 329.15 L 346.84 329.15 L 348.28 327.54 L 349.71 305.25 L 351.15 299.49 L 352.59 285.51 L 356.90 296.19 L 356.90 296.19 L 358.33 287.12 L 361.21 296.19 L 361.21 296.19 L 368.39 296.19 L 369.83 262.46 L 371.26 282.20 L 377.01 248.39 L 379.89 248.39 L 379.89 248.39 L 382.76 260.76 L 388.51 254.15 L 388.51 254.15 L 388.51 254.15 L 388.51 254.15 L 388.51 254.15 L 388.51 254.15 L 388.51 254.15 L 388.51 254.15 L 388.51 254.15 L 392.82 254.15 L 401.44 232.63 L 407.18 235.17 L 407.18 235.17 L 411.49 235.17 L 417.24 235.17 L 418.68 235.17 L 418.68 235.17 L 418.68 235.17 L 418.68 235.17 L 418.68 235.17 L 437.36 235.17 L 438.79 235.17 L 447.41 139.75 L 448.85 130.68 L 450.29 130.68 L 502.01 159.15 L 507.76 159.15 L 509.20 159.15 L 510.63 175.51 L 513.51 184.49 L 513.51 184.49 L 519.25 184.49 L 520.69 184.49 L 522.13 184.49 L 523.56 184.49 L 527.87 184.49 L 529.31 184.49 L 532.18 184.49 L 533.62 184.49 L 537.93 184.49 L 539.37 184.49 L 539.37 184.49 L 543.68 184.49 L 547.99 184.49 L 549.43 184.49 L 550.86 184.49 L 552.30 184.49 L 553.74 184.49 L 559.48 209.15 L 560.92 180.68 L 562.36 159.15 L 563.79 169.92 L 568.10 169.92 L 569.54 169.92 L 569.54 169.92 L 572.41 193.05 L 573.85 193.05 L 578.16 193.05 L 579.60 193.05 L 581.03 193.05 L 582.47 193.05 L 583.91 193.05 L 583.91 193.05 L 583.91 193.05 L 583.91 193.05 L 591.09 193.05 L 593.97 193.05 L 598.28 193.05 L 599.71 193.05 L 602.59 193.05 L 604.02 193.05 L 609.77 193.05 L 611.21 193.05 L 612.64 193.05 L 614.08 223.56 L 618.39 230.34 L 619.83 191.36 L 621.26 203.81 L 622.70 202.12 L 624.14 182.37 L 628.45 137.71 L 629.89 137.71 L 631.32 137.71 L 632.76 139.41 L 634.20 148.39 L 638.51 139.41 L 639.94 139.41 L 641.38 126.95 L 642.82 137.71 L 644.25 116.19 L 650.00 126.95" /><text  class="poloto_text poloto_legend_text" x="675" y="150" >Refinance 20</text><line  class="poloto_line poloto_legend_icon poloto1stroke poloto1legend" stroke="black" x1="680" x2="730" y1="131.25" y2="131.25" /><path  class="poloto_line poloto1stroke" fill="none" stroke="black" d=" M 150.00 345.68 L 151.44 368.31 L 155.75 334.58 L 157.18 324.24 L 158.62 333.73 L 158.62 333.73 L 161.49 304.07 L 165.80 301.53 L 167.24 312.29 L 168.68 300.25 L 170.11 311.02 L 171.55 290.85 L 175.86 321.69 L 177.30 290.85 L 177.30 290.85 L 180.17 290.85 L 180.17 290.85 L 185.92 250.17 L 187.36 282.71 L 188.79 290.85 L 190.23 301.53 L 191.67 280.59 L 197.41 260.00 L 198.85 257.37 L 200.29 252.12 L 201.72 240.08 L 206.03 245.34 L 207.47 268.14 L 210.34 260.00 L 211.78 257.37 L 216.09 248.81 L 217.53 258.73 L 218.97 258.73 L 218.97 258.73 L 221.84 258.73 L 226.15 260.00 L 227.59 281.44 L 227.59 281.44 L 229.02 269.41 L 230.46 289.58 L 231.90 281.44 L 236.21 282.71 L 237.64 281.44 L 239.08 281.44 L 239.08 281.44 L 240.52 282.71 L 241.95 289.58 L 246.26 290.85 L 247.70 294.66 L 249.14 294.66 L 250.57 294.66 L 252.01 294.66 L 257.76 289.58 L 259.20 278.81 L 260.63 281.44 L 262.07 281.44 L 262.07 281.44 L 267.82 268.14 L 269.25 270.68 L 270.69 261.27 L 276.44 215.85 L 277.87 197.03 L 279.31 207.80 L 280.75 215.85 L 282.18 238.56 L 286.49 225.17 L 287.93 218.47 L 289.37 239.92 L 290.80 250.17 L 296.55 250.17 L 297.99 238.56 L 299.43 249.32 L 300.86 260.00 L 302.30 272.03 L 308.05 280.08 L 309.48 269.41 L 310.92 258.73 L 312.36 251.44 L 316.67 257.37 L 319.54 260.00 L 320.98 258.73 L 326.72 260.00 L 326.72 260.00 L 326.72 260.00 L 326.72 260.00 L 326.72 260.00 L 326.72 260.00 L 326.72 260.00 L 326.72 260.00 L 326.72 260.00 L 326.72 260.00 L 326.72 260.00 L 326.72 260.00 L 336.78 280.08 L 339.66 282.71 L 341.09 301.53 L 342.53 304.07 L 346.84 301.27 L 348.28 301.27 L 349.71 290.85 L 351.15 294.66 L 352.59 278.81 L 356.90 270.68 L 356.90 270.68 L 358.33 270.68 L 361.21 281.44 L 361.21 281.44 L 368.39 278.81 L 369.83 260.00 L 371.26 260.00 L 377.01 246.19 L 379.89 234.58 L 379.89 234.58 L 382.76 247.54 L 388.51 215.85 L 388.51 215.85 L 388.51 215.85 L 388.51 215.85 L 388.51 215.85 L 388.51 215.85 L 388.51 215.85 L 388.51 215.85 L 388.51 215.85 L 392.82 215.85 L 401.44 202.37 L 407.18 203.73 L 410.06 203.73 L 411.49 203.73 L 411.49 203.73 L 418.68 203.73 L 420.11 203.73 L 420.11 203.73 L 420.11 203.73 L 420.11 203.73 L 437.36 203.73 L 438.79 203.73 L 447.41 118.81 L 448.85 102.97 L 448.85 102.97 L 504.89 155.34 L 507.76 155.34 L 509.20 155.34 L 512.07 174.15 L 513.51 175.51 L 513.51 175.51 L 519.25 175.51 L 520.69 175.51 L 522.13 175.51 L 523.56 175.51 L 527.87 175.51 L 529.31 175.51 L 532.18 175.51 L 533.62 175.51 L 537.93 175.51 L 539.37 175.51 L 539.37 175.51 L 543.68 175.51 L 547.99 175.51 L 549.43 175.51 L 550.86 175.51 L 552.30 175.51 L 553.74 175.51 L 559.48 156.36 L 560.92 145.93 L 562.36 144.58 L 563.79 147.37 L 568.10 147.37 L 569.54 147.37 L 569.54 147.37 L 572.41 167.46 L 573.85 167.46 L 578.16 167.46 L 579.60 167.46 L 581.03 167.46 L 582.47 167.46 L 583.91 167.46 L 583.91 167.46 L 589.66 167.46 L 589.66 167.46 L 591.09 167.46 L 593.97 167.46 L 598.28 167.46 L 599.71 167.46 L 602.59 167.46 L 604.02 167.46 L 609.77 167.46 L 611.21 167.46 L 612.64 167.46 L 614.08 190.34 L 618.39 188.98 L 619.83 156.69 L 621.26 158.05 L 621.26 158.05 L 624.14 156.69 L 628.45 135.17 L 629.89 135.17 L 631.32 125.85 L 632.76 115.08 L 634.20 124.49 L 638.51 115.08 L 639.94 104.32 L 641.38 115.08 L 642.82 125.85 L 644.25 113.73 L 650.00 115.08" /><text  class="poloto_text poloto_legend_text" x="675" y="200" >Refinance 30</text><line  class="poloto_line poloto_legend_icon poloto2stroke poloto2legend" stroke="black" x1="680" x2="730" y1="181.25" y2="181.25" /><path  class="poloto_line poloto2stroke" fill="none" stroke="black" d=" M 150.00 343.31 L 151.44 351.36 L 155.75 338.81 L 157.18 328.98 L 158.62 330.85 L 158.62 330.85 L 161.49 310.25 L 165.80 308.47 L 167.24 319.15 L 168.68 307.54 L 170.11 318.22 L 171.55 297.71 L 175.86 307.54 L 177.30 286.95 L 178.74 286.95 L 180.17 286.02 L 181.61 260.00 L 185.92 264.58 L 187.36 276.27 L 188.79 286.95 L 190.23 277.20 L 191.67 265.51 L 197.41 256.61 L 198.85 242.12 L 200.29 240.17 L 201.72 238.14 L 206.03 242.12 L 207.47 258.73 L 210.34 256.61 L 211.78 254.66 L 216.09 244.07 L 217.53 255.59 L 218.97 244.07 L 218.97 244.07 L 221.84 244.07 L 226.15 246.02 L 227.59 264.58 L 227.59 264.58 L 229.02 255.59 L 230.46 256.61 L 231.90 257.54 L 236.21 265.51 L 237.64 256.61 L 239.08 256.61 L 239.08 256.61 L 240.52 266.44 L 241.95 267.46 L 246.26 268.39 L 247.70 277.20 L 249.14 277.20 L 250.57 279.07 L 252.01 279.07 L 257.76 275.25 L 259.20 264.58 L 260.63 266.44 L 262.07 265.51 L 262.07 265.51 L 267.82 255.59 L 269.25 255.59 L 270.69 245.00 L 276.44 202.12 L 277.87 171.78 L 279.31 190.34 L 280.75 202.12 L 282.18 212.80 L 286.49 203.05 L 287.93 202.12 L 289.37 221.61 L 290.80 223.56 L 296.55 223.56 L 297.99 211.86 L 299.43 221.61 L 300.86 232.29 L 302.30 255.59 L 308.05 256.61 L 309.48 245.00 L 310.92 224.58 L 312.36 221.61 L 316.67 241.10 L 319.54 223.56 L 320.98 222.54 L 326.72 242.12 L 326.72 242.12 L 326.72 242.12 L 326.72 242.12 L 326.72 242.12 L 326.72 242.12 L 329.60 242.12 L 329.60 242.12 L 329.60 242.12 L 329.60 242.12 L 329.60 242.12 L 329.60 242.12 L 336.78 254.66 L 339.66 256.61 L 341.09 275.25 L 342.53 287.88 L 346.84 286.95 L 348.28 286.95 L 349.71 265.51 L 351.15 268.39 L 352.59 254.66 L 356.90 265.51 L 356.90 265.51 L 358.33 257.54 L 361.21 266.44 L 361.21 266.44 L 368.39 264.58 L 369.83 246.02 L 371.26 245.00 L 377.01 220.59 L 379.89 211.86 L 379.89 211.86 L 382.76 222.54 L 388.51 210.85 L 388.51 210.85 L 388.51 210.85 L 388.51 210.85 L 388.51 210.85 L 388.51 210.85 L 388.51 210.85 L 388.51 210.85 L 392.82 210.85 L 392.82 209.83 L 401.44 197.03 L 407.18 175.51 L 407.18 175.51 L 411.49 175.51 L 411.49 175.51 L 418.68 175.51 L 420.11 175.51 L 420.11 175.51 L 420.11 175.51 L 420.11 175.51 L 437.36 175.51 L 438.79 175.51 L 447.41 127.03 L 448.85 100.00 L 448.85 100.00 L 504.89 146.44 L 507.76 146.44 L 509.20 146.44 L 510.63 150.76 L 513.51 160.59 L 513.51 160.59 L 519.25 160.59 L 520.69 160.59 L 522.13 160.59 L 523.56 160.59 L 527.87 160.59 L 529.31 160.59 L 532.18 160.59 L 533.62 160.59 L 537.93 160.59 L 539.37 160.59 L 539.37 160.59 L 543.68 160.59 L 547.99 160.59 L 549.43 160.59 L 550.86 160.59 L 552.30 160.59 L 553.74 160.59 L 559.48 144.24 L 560.92 152.88 L 562.36 132.37 L 563.79 152.88 L 568.10 152.88 L 569.54 152.88 L 569.54 152.88 L 572.41 152.88 L 573.85 152.88 L 578.16 152.88 L 579.60 152.88 L 581.03 152.88 L 582.47 152.88 L 583.91 152.88 L 583.91 152.88 L 589.66 152.88 L 589.66 152.88 L 591.09 152.88 L 593.97 152.88 L 598.28 152.88 L 599.71 152.88 L 602.59 152.88 L 604.02 152.88 L 609.77 152.88 L 611.21 152.88 L 612.64 152.88 L 614.08 207.80 L 618.39 197.03 L 619.83 153.98 L 621.26 186.27 L 622.70 153.98 L 624.14 143.14 L 628.45 132.37 L 629.89 132.37 L 631.32 122.63 L 632.76 111.86 L 634.20 121.61 L 638.51 121.61 L 639.94 109.75 L 641.38 101.10 L 642.82 111.86 L 644.25 102.20 L 650.00 101.10" /><text  class="poloto_labels poloto_text poloto_title" x="400" y="37.5" >lower.com purchase rates</text><text  class="poloto_labels poloto_text poloto_xname" x="400" y="481.25" >Date</text><text  class="poloto_labels poloto_text poloto_yname" transform="rotate(-90,37.5,250)" x="37.5" y="250" >Rate (%)</text><text  class="poloto_tick_labels poloto_text" dominant-baseline="middle" text-anchor="start" x="150" y="70" ></text><line  class="poloto_axis_lines" stroke="black" x1="150" x2="144" y1="390.2542372881356" y2="390.2542372881356" /><line  class="poloto_tick_line" stroke="black" x1="150" x2="650" y1="390.2542372881356" y2="390.2542372881356" /><text  class="poloto_tick_labels poloto_text" dominant-baseline="middle" text-anchor="end" x="135" y="390.2542372881356" >3.625</text><line  class="poloto_axis_lines" stroke="black" x1="150" x2="144" y1="379.66101694915255" y2="379.66101694915255" /><line  class="poloto_tick_line" stroke="black" x1="150" x2="650" y1="379.66101694915255" y2="379.66101694915255" /><text  class="poloto_tick_labels poloto_text" dominant-baseline="middle" text-anchor="end" x="135" y="379.66101694915255" >3.75</text><line  class="poloto_axis_lines" stroke="black" x1="150" x2="144" y1="369.06779661016947" y2="369.06779661016947" /><line  class="poloto_tick_line" stroke="black" x1="150" x2="650" y1="369.06779661016947" y2="369.06779661016947" /><text  class="poloto_tick_labels poloto_text" dominant-baseline="middle" text-anchor="end" x="135" y="369.06779661016947" >3.875</text><line  class="poloto_axis_lines" stroke="black" x1="150" x2="144" y1="358.47457627118644" y2="358.47457627118644" /><line  class="poloto_tick_line" stroke="black" x1="150" x2="650" y1="358.47457627118644" y2="358.47457627118644" /><text  class="poloto_tick_labels poloto_text" dominant-baseline="middle" text-anchor="end" x="135" y="358.47457627118644" >4</text><line  class="poloto_axis_lines" stroke="black" x1="150" x2="144" y1="347.8813559322034" y2="347.8813559322034" /><line  class="poloto_tick_line" stroke="black" x1="150" x2="650" y1="347.8813559322034" y2="347.8813559322034" /><text  class="poloto_tick_labels poloto_text" dominant-baseline="middle" text-anchor="end" x="135" y="347.8813559322034" >4.125</text><line  class="poloto_axis_lines" stroke="black" x1="150" x2="144" y1="337.2881355932203" y2="337.2881355932203" /><line  class="poloto_tick_line" stroke="black" x1="150" x2="650" y1="337.2881355932203" y2="337.2881355932203" /><text  class="poloto_tick_labels poloto_text" dominant-baseline="middle" text-anchor="end" x="135" y="337.2881355932203" >4.25</text><line  class="poloto_axis_lines" stroke="black" x1="150" x2="144" y1="326.6949152542373" y2="326.6949152542373" /><line  class="poloto_tick_line" stroke="black" x1="150" x2="650" y1="326.6949152542373" y2="326.6949152542373" /><text  class="poloto_tick_labels poloto_text" dominant-baseline="middle" text-anchor="end" x="135" y="326.6949152542373" >4.375</text><line  class="poloto_axis_lines" stroke="black" x1="150" x2="144" y1="316.10169491525426" y2="316.10169491525426" /><line  class="poloto_tick_line" stroke="black" x1="150" x2="650" y1="316.10169491525426" y2="316.10169491525426" /><text  class="poloto_tick_labels poloto_text" dominant-baseline="middle" text-anchor="end" x="135" y="316.10169491525426" >4.5</text><line  class="poloto_axis_lines" stroke="black" x1="150" x2="144" y1="305.50847457627117" y2="305.50847457627117" /><line  class="poloto_tick_line" stroke="black" x1="150" x2="650" y1="305.50847457627117" y2="305.50847457627117" /><text  class="poloto_tick_labels poloto_text" dominant-baseline="middle" text-anchor="end" x="135" y="305.50847457627117" >4.625</text><line  class="poloto_axis_lines" stroke="black" x1="150" x2="144" y1="294.91525423728814" y2="294.91525423728814" /><line  class="poloto_tick_line" stroke="black" x1="150" x2="650" y1="294.91525423728814" y2="294.91525423728814" /><text  class="poloto_tick_labels poloto_text" dominant-baseline="middle" text-anchor="end" x="135" y="294.91525423728814" >4.75</text><line  class="poloto_axis_lines" stroke="black" x1="150" x2="144" y1="284.3220338983051" y2="284.3220338983051" /><line  class="poloto_tick_line" stroke="black" x1="150" x2="650" y1="284.3220338983051" y2="284.3220338983051" /><text  class="poloto_tick_labels poloto_text" dominant-baseline="middle" text-anchor="end" x="135" y="284.3220338983051" >4.875</text><line  class="poloto_axis_lines" stroke="black" x1="150" x2="144" y1="273.728813559322" y2="273.728813559322" /><line  class="poloto_tick_line" stroke="black" x1="150" x2="650" y1="273.728813559322" y2="273.728813559322" /><text  class="poloto_tick_labels poloto_text" dominant-baseline="middle" text-anchor="end" x="135" y="273.728813559322" >5</text><line  class="poloto_axis_lines" stroke="black" x1="150" x2="144" y1="263.135593220339" y2="263.135593220339" /><line  class="poloto_tick_line" stroke="black" x1="150" x2="650" y1="263.135593220339" y2="263.135593220339" /><text  class="poloto_tick_labels poloto_text" dominant-baseline="middle" text-anchor="end" x="135" y="263.135593220339" >5.125</text><line  class="poloto_axis_lines" stroke="black" x1="150" x2="144" y1="252.54237288135596" y2="252.54237288135596" /><line  class="poloto_tick_line" stroke="black" x1="150" x2="650" y1="252.54237288135596" y2="252.54237288135596" /><text  class="poloto_tick_labels poloto_text" dominant-baseline="middle" text-anchor="end" x="135" y="252.54237288135596" >5.25</text><line  class="poloto_axis_lines" stroke="black" x1="150" x2="144" y1="241.94915254237287" y2="241.94915254237287" /><line  class="poloto_tick_line" stroke="black" x1="150" x2="650" y1="241.94915254237287" y2="241.94915254237287" /><text  class="poloto_tick_labels poloto_text" dominant-baseline="middle" text-anchor="end" x="135" y="241.94915254237287" >5.375</text><line  class="poloto_axis_lines" stroke="black" x1="150" x2="144" y1="231.35593220338984" y2="231.35593220338984" /><line  class="poloto_tick_line" stroke="black" x1="150" x2="650" y1="231.35593220338984" y2="231.35593220338984" /><text  class="poloto_tick_labels poloto_text" dominant-baseline="middle" text-anchor="end" x="135" y="231.35593220338984" >5.5</text><line  class="poloto_axis_lines" stroke="black" x1="150" x2="144" y1="220.7627118644068" y2="220.7627118644068" /><line  class="poloto_tick_line" stroke="black" x1="150" x2="650" y1="220.7627118644068" y2="220.7627118644068" /><text  class="poloto_tick_labels poloto_text" dominant-baseline="middle" text-anchor="end" x="135" y="220.7627118644068" >5.625</text><line  class="poloto_axis_lines" stroke="black" x1="150" x2="144" y1="210.16949152542372" y2="210.16949152542372" /><line  class="poloto_tick_line" stroke="black" x1="150" x2="650" y1="210.16949152542372" y2="210.16949152542372" /><text  class="poloto_tick_labels poloto_text" dominant-baseline="middle" text-anchor="end" x="135" y="210.16949152542372" >5.75</text><line  class="poloto_axis_lines" stroke="black" x1="150" x2="144" y1="199.5762711864407" y2="199.5762711864407" /><line  class="poloto_tick_line" stroke="black" x1="150" x2="650" y1="199.5762711864407" y2="199.5762711864407" /><text  class="poloto_tick_labels poloto_text" dominant-baseline="middle" text-anchor="end" x="135" y="199.5762711864407" >5.875</text><line  class="poloto_axis_lines" stroke="black" x1="150" x2="144" y1="188.98305084745766" y2="188.98305084745766" /><line  class="poloto_tick_line" stroke="black" x1="150" x2="650" y1="188.98305084745766" y2="188.98305084745766" /><text  class="poloto_tick_labels poloto_text" dominant-baseline="middle" text-anchor="end" x="135" y="188.98305084745766" >6</text><line  class="poloto_axis_lines" stroke="black" x1="150" x2="144" y1="178.38983050847457" y2="178.38983050847457" /><line  class="poloto_tick_line" stroke="black" x1="150" x2="650" y1="178.38983050847457" y2="178.38983050847457" /><text  class="poloto_tick_labels poloto_text" dominant-baseline="middle" text-anchor="end" x="135" y="178.38983050847457" >6.125</text><line  class="poloto_axis_lines" stroke="black" x1="150" x2="144" y1="167.7966101694915" y2="167.7966101694915" /><line  class="poloto_tick_line" stroke="black" x1="150" x2="650" y1="167.7966101694915" y2="167.7966101694915" /><text  class="poloto_tick_labels poloto_text" dominant-baseline="middle" text-anchor="end" x="135" y="167.7966101694915" >6.25</text><line  class="poloto_axis_lines" stroke="black" x1="150" x2="144" y1="157.2033898305085" y2="157.2033898305085" /><line  class="poloto_tick_line" stroke="black" x1="150" x2="650" y1="157.2033898305085" y2="157.2033898305085" /><text  class="poloto_tick_labels poloto_text" dominant-baseline="middle" text-anchor="end" x="135" y="157.2033898305085" >6.375</text><line  class="poloto_axis_lines" stroke="black" x1="150" x2="144" y1="146.61016949152543" y2="146.61016949152543" /><line  class="poloto_tick_line" stroke="black" x1="150" x2="650" y1="146.61016949152543" y2="146.61016949152543" /><text  class="poloto_tick_labels poloto_text" dominant-baseline="middle" text-anchor="end" x="135" y="146.61016949152543" >6.5</text><line  class="poloto_axis_lines" stroke="black" x1="150" x2="144" y1="136.01694915254234" y2="136.01694915254234" /><line  class="poloto_tick_line" stroke="black" x1="150" x2="650" y1="136.01694915254234" y2="136.01694915254234" /><text  class="poloto_tick_labels poloto_text" dominant-baseline="middle" text-anchor="end" x="135" y="136.01694915254234" >6.625</text><line  class="poloto_axis_lines" stroke="black" x1="150" x2="144" y1="125.42372881355936" y2="125.42372881355936" /><line  class="poloto_tick_line" stroke="black" x1="150" x2="650" y1="125.42372881355936" y2="125.42372881355936" /><text  class="poloto_tick_labels poloto_text" dominant-baseline="middle" text-anchor="end" x="135" y="125.42372881355936" >6.75</text><line  class="poloto_axis_lines" stroke="black" x1="150" x2="144" y1="114.83050847457628" y2="114.83050847457628" /><line  class="poloto_tick_line" stroke="black" x1="150" x2="650" y1="114.83050847457628" y2="114.83050847457628" /><text  class="poloto_tick_labels poloto_text" dominant-baseline="middle" text-anchor="end" x="135" y="114.83050847457628" >6.875</text><line  class="poloto_axis_lines" stroke="black" x1="150" x2="144" y1="104.23728813559319" y2="104.23728813559319" /><line  class="poloto_tick_line" stroke="black" x1="150" x2="650" y1="104.23728813559319" y2="104.23728813559319" /><text  class="poloto_tick_labels poloto_text" dominant-baseline="middle" text-anchor="end" x="135" y="104.23728813559319" >7</text><text  class="poloto_tick_labels poloto_text" dominant-baseline="middle" text-anchor="start" x="440.00000000000006" y="70" >¹2022-05-01 00:00:00 UTC in Months</text><line  class="poloto_axis_lines" stroke="black" x1="214.65517241379348" x2="214.65517241379348" y1="400" y2="405" /><line  class="poloto_tick_line" stroke="black" x1="214.65517241379348" x2="214.65517241379348" y1="400" y2="100" /><text  class="poloto_tick_labels poloto_text" dominant-baseline="start" text-anchor="middle" x="214.65517241379348" y="430" >2022 May¹</text><line  class="poloto_axis_lines" stroke="black" x1="302.29885057471256" x2="302.29885057471256" y1="400" y2="405" /><line  class="poloto_tick_line" stroke="black" x1="302.29885057471256" x2="302.29885057471256" y1="400" y2="100" /><text  class="poloto_tick_labels poloto_text" dominant-baseline="start" text-anchor="middle" x="302.29885057471256" y="430" >2022 Jul</text><line  class="poloto_axis_lines" stroke="black" x1="391.3793103448261" x2="391.3793103448261" y1="400" y2="405" /><line  class="poloto_tick_line" stroke="black" x1="391.3793103448261" x2="391.3793103448261" y1="400" y2="100" /><text  class="poloto_tick_labels poloto_text" dominant-baseline="start" text-anchor="middle" x="391.3793103448261" y="430" >2022 Sep</text><line  class="poloto_axis_lines" stroke="black" x1="479.02298850574516" x2="479.02298850574516" y1="400" y2="405" /><line  class="poloto_tick_line" stroke="black" x1="479.02298850574516" x2="479.02298850574516" y1="400" y2="100" /><text  class="poloto_tick_labels poloto_text" dominant-baseline="start" text-anchor="middle" x="479.02298850574516" y="430" >2022 Nov</text><line  class="poloto_axis_lines" stroke="black" x1="566.6666666666679" x2="566.6666666666679" y1="400" y2="405" /><line  class="poloto_tick_line" stroke="black" x1="566.6666666666679" x2="566.6666666666679" y1="400" y2="100" /><text  class="poloto_tick_labels poloto_text" dominant-baseline="start" text-anchor="middle" x="566.6666666666679" y="430" >2023 Jan</text><path  stroke="black" fill="none" class="poloto_axis_lines" d=" M 150 400 L 650 400" /><path  stroke="black" fill="none" class="poloto_axis_lines" d=" M 150 400 L 150 100" /></svg>