<svg class="poloto" width="800" height="500" viewBox="0 0 800 500" xmlns="http://www.w3.org/2000/svg"><style>.poloto{stroke-linecap:round;stroke-linejoin:round;font-family:Roboto,sans-serif;font-size:16px;}.poloto_background{fill:#262626;}.poloto_scatter{stroke-width:7}.poloto_tick_line{stroke:dimgray;stroke-width:0.5}.poloto_line{stroke-width:2}.poloto_text{fill: white;}.poloto_axis_lines{stroke: white;stroke-width:3;fill:none;stroke-dasharray:none}.poloto_title{font-size:24px;dominant-baseline:start;text-anchor:middle;}.poloto_xname{font-size:24px;dominant-baseline:start;text-anchor:middle;}.poloto_yname{font-size:24px;dominant-baseline:start;text-anchor:middle;}.poloto0stroke{stroke:blue;}.poloto1stroke{stroke:red;}.poloto2stroke{stroke:green;}.poloto3stroke{stroke:gold;}.poloto4stroke{stroke:aqua;}.poloto5stroke{stroke:lime;}.poloto6stroke{stroke:orange;}.poloto7stroke{stroke:chocolate;}.poloto0fill{fill:blue;}.poloto1fill{fill:red;}.poloto2fill{fill:green;}.poloto3fill{fill:gold;}.poloto4fill{fill:aqua;}.poloto5fill{fill:lime;}.poloto6fill{fill:orange;}.poloto7fill{fill:chocolate;}</style><circle  r="1e5" class="poloto_background" /><text  class="poloto_text poloto_legend_text" x="675" y="100" >30 years</text><line  class="poloto_line poloto_legend_icon poloto0stroke poloto0legend" stroke="black" x1="680" x2="730" y1="81.25" y2="81.25" /><path  class="poloto_line poloto0stroke" fill="none" stroke="black" d=" M 150.00 333.33 L 157.94 366.67 L 181.75 333.33 L 189.68 300.00 L 197.62 300.00 L 197.62 300.00 L 213.49 233.33 L 237.30 233.33 L 245.24 266.67 L 253.17 300.00 L 261.11 333.33 L 269.05 266.67 L 292.86 300.00 L 300.79 266.67 L 308.73 233.33 L 316.67 200.00 L 324.60 200.00 L 348.41 200.00 L 356.35 233.33 L 364.29 233.33 L 372.22 233.33 L 380.16 166.67 L 411.90 136.00 L 419.84 133.33 L 427.78 133.33 L 435.71 100.00 L 459.52 133.33 L 467.46 166.67 L 483.33 136.00 L 491.27 136.00 L 515.08 136.00 L 523.02 136.00 L 530.95 136.00 L 538.89 136.00 L 546.83 100.00 L 570.63 133.33 L 578.57 136.00 L 578.57 136.00 L 586.51 136.00 L 594.44 136.00 L 602.38 136.00 L 626.19 136.00 L 634.13 136.00 L 642.06 136.00 L 642.06 136.00 L 650.00 136.00" /><text  class="poloto_labels poloto_text poloto_title" x="400" y="37.5" >lower.com purchase rates</text><text  class="poloto_labels poloto_text poloto_xname" x="400" y="481.25" >Date</text><text  class="poloto_labels poloto_text poloto_yname" transform="rotate(-90,37.5,250)" x="37.5" y="250" >Rate (%)</text><text  class="poloto_tick_labels poloto_text" dominant-baseline="middle" text-anchor="start" x="150" y="70" ></text><line  class="poloto_axis_lines" stroke="black" x1="150" x2="144" y1="400" y2="400" /><line  class="poloto_tick_line" stroke="black" x1="150" x2="650" y1="400" y2="400" /><text  class="poloto_tick_labels poloto_text" dominant-baseline="middle" text-anchor="end" x="135" y="400" >4</text><line  class="poloto_axis_lines" stroke="black" x1="150" x2="144" y1="366.66666666666674" y2="366.66666666666674" /><line  class="poloto_tick_line" stroke="black" x1="150" x2="650" y1="366.66666666666674" y2="366.66666666666674" /><text  class="poloto_tick_labels poloto_text" dominant-baseline="middle" text-anchor="end" x="135" y="366.66666666666674" >4.125</text><line  class="poloto_axis_lines" stroke="black" x1="150" x2="144" y1="333.33333333333326" y2="333.33333333333326" /><line  class="poloto_tick_line" stroke="black" x1="150" x2="650" y1="333.33333333333326" y2="333.33333333333326" /><text  class="poloto_tick_labels poloto_text" dominant-baseline="middle" text-anchor="end" x="135" y="333.33333333333326" >4.25</text><line  class="poloto_axis_lines" stroke="black" x1="150" x2="144" y1="300" y2="300" /><line  class="poloto_tick_line" stroke="black" x1="150" x2="650" y1="300" y2="300" /><text  class="poloto_tick_labels poloto_text" dominant-baseline="middle" text-anchor="end" x="135" y="300" >4.375</text><line  class="poloto_axis_lines" stroke="black" x1="150" x2="144" y1="266.66666666666674" y2="266.66666666666674" /><line  class="poloto_tick_line" stroke="black" x1="150" x2="650" y1="266.66666666666674" y2="266.66666666666674" /><text  class="poloto_tick_labels poloto_text" dominant-baseline="middle" text-anchor="end" x="135" y="266.66666666666674" >4.5</text><line  class="poloto_axis_lines" stroke="black" x1="150" x2="144" y1="233.33333333333326" y2="233.33333333333326" /><line  class="poloto_tick_line" stroke="black" x1="150" x2="650" y1="233.33333333333326" y2="233.33333333333326" /><text  class="poloto_tick_labels poloto_text" dominant-baseline="middle" text-anchor="end" x="135" y="233.33333333333326" >4.625</text><line  class="poloto_axis_lines" stroke="black" x1="150" x2="144" y1="200" y2="200" /><line  class="poloto_tick_line" stroke="black" x1="150" x2="650" y1="200" y2="200" /><text  class="poloto_tick_labels poloto_text" dominant-baseline="middle" text-anchor="end" x="135" y="200" >4.75</text><line  class="poloto_axis_lines" stroke="black" x1="150" x2="144" y1="166.66666666666674" y2="166.66666666666674" /><line  class="poloto_tick_line" stroke="black" x1="150" x2="650" y1="166.66666666666674" y2="166.66666666666674" /><text  class="poloto_tick_labels poloto_text" dominant-baseline="middle" text-anchor="end" x="135" y="166.66666666666674" >4.875</text><line  class="poloto_axis_lines" stroke="black" x1="150" x2="144" y1="133.33333333333326" y2="133.33333333333326" /><line  class="poloto_tick_line" stroke="black" x1="150" x2="650" y1="133.33333333333326" y2="133.33333333333326" /><text  class="poloto_tick_labels poloto_text" dominant-baseline="middle" text-anchor="end" x="135" y="133.33333333333326" >5</text><line  class="poloto_axis_lines" stroke="black" x1="150" x2="144" y1="100" y2="100" /><line  class="poloto_tick_line" stroke="black" x1="150" x2="650" y1="100" y2="100" /><text  class="poloto_tick_labels poloto_text" dominant-baseline="middle" text-anchor="end" x="135" y="100" >5.125</text><text  class="poloto_tick_labels poloto_text" dominant-baseline="middle" text-anchor="start" x="440.00000000000006" y="70" >ยน2022-03-22 00:00:00 UTC in Days</text><line  class="poloto_axis_lines" stroke="black" x1="189.6825396825443" x2="189.6825396825443" y1="400" y2="405" /><line  class="poloto_tick_line" stroke="black" x1="189.6825396825443" x2="189.6825396825443" y1="400" y2="100" /><text  class="poloto_tick_labels poloto_text" dominant-baseline="start" text-anchor="middle" x="189.6825396825443" y="430" >Mar 22ยน</text><line  class="poloto_axis_lines" stroke="black" x1="245.23809523810633" x2="245.23809523810633" y1="400" y2="405" /><line  class="poloto_tick_line" stroke="black" x1="245.23809523810633" x2="245.23809523810633" y1="400" y2="100" /><text  class="poloto_tick_labels poloto_text" dominant-baseline="start" text-anchor="middle" x="245.23809523810633" y="430" >Mar 29</text><line  class="poloto_axis_lines" stroke="black" x1="300.79365079363924" x2="300.79365079363924" y1="400" y2="405" /><line  class="poloto_tick_line" stroke="black" x1="300.79365079363924" x2="300.79365079363924" y1="400" y2="100" /><text  class="poloto_tick_labels poloto_text" dominant-baseline="start" text-anchor="middle" x="300.79365079363924" y="430" >Apr 05</text><line  class="poloto_axis_lines" stroke="black" x1="356.34920634920127" x2="356.34920634920127" y1="400" y2="405" /><line  class="poloto_tick_line" stroke="black" x1="356.34920634920127" x2="356.34920634920127" y1="400" y2="100" /><text  class="poloto_tick_labels poloto_text" dominant-baseline="start" text-anchor="middle" x="356.34920634920127" y="430" >Apr 12</text><line  class="poloto_axis_lines" stroke="black" x1="411.9047619047633" x2="411.9047619047633" y1="400" y2="405" /><line  class="poloto_tick_line" stroke="black" x1="411.9047619047633" x2="411.9047619047633" y1="400" y2="100" /><text  class="poloto_tick_labels poloto_text" dominant-baseline="start" text-anchor="middle" x="411.9047619047633" y="430" >Apr 19</text><line  class="poloto_axis_lines" stroke="black" x1="467.4603174603253" x2="467.4603174603253" y1="400" y2="405" /><line  class="poloto_tick_line" stroke="black" x1="467.4603174603253" x2="467.4603174603253" y1="400" y2="100" /><text  class="poloto_tick_labels poloto_text" dominant-baseline="start" text-anchor="middle" x="467.4603174603253" y="430" >Apr 26</text><line  class="poloto_axis_lines" stroke="black" x1="523.0158730158582" x2="523.0158730158582" y1="400" y2="405" /><line  class="poloto_tick_line" stroke="black" x1="523.0158730158582" x2="523.0158730158582" y1="400" y2="100" /><text  class="poloto_tick_labels poloto_text" dominant-baseline="start" text-anchor="middle" x="523.0158730158582" y="430" >May 03</text><line  class="poloto_axis_lines" stroke="black" x1="578.5714285714203" x2="578.5714285714203" y1="400" y2="405" /><line  class="poloto_tick_line" stroke="black" x1="578.5714285714203" x2="578.5714285714203" y1="400" y2="100" /><text  class="poloto_tick_labels poloto_text" dominant-baseline="start" text-anchor="middle" x="578.5714285714203" y="430" >May 10</text><line  class="poloto_axis_lines" stroke="black" x1="634.1269841269823" x2="634.1269841269823" y1="400" y2="405" /><line  class="poloto_tick_line" stroke="black" x1="634.1269841269823" x2="634.1269841269823" y1="400" y2="100" /><text  class="poloto_tick_labels poloto_text" dominant-baseline="start" text-anchor="middle" x="634.1269841269823" y="430" >May 17</text><path  stroke="black" fill="none" class="poloto_axis_lines" d=" M 150 400 L 650 400" /><path  stroke="black" fill="none" class="poloto_axis_lines" d=" M 150 400 L 150 100" /></svg>