<svg class="poloto" width="800" height="500" viewBox="0 0 800 500" xmlns="http://www.w3.org/2000/svg"><style>.poloto{stroke-linecap:round;stroke-linejoin:round;font-family:Roboto,sans-serif;font-size:16px;}.poloto_background{fill:#262626;}.poloto_scatter{stroke-width:7}.poloto_tick_line{stroke:dimgray;stroke-width:0.5}.poloto_line{stroke-width:2}.poloto_text{fill: white;}.poloto_axis_lines{stroke: white;stroke-width:3;fill:none;stroke-dasharray:none}.poloto_title{font-size:24px;dominant-baseline:start;text-anchor:middle;}.poloto_xname{font-size:24px;dominant-baseline:start;text-anchor:middle;}.poloto_yname{font-size:24px;dominant-baseline:start;text-anchor:middle;}.poloto0stroke{stroke:blue;}.poloto1stroke{stroke:red;}.poloto2stroke{stroke:green;}.poloto3stroke{stroke:gold;}.poloto4stroke{stroke:aqua;}.poloto5stroke{stroke:lime;}.poloto6stroke{stroke:orange;}.poloto7stroke{stroke:chocolate;}.poloto0fill{fill:blue;}.poloto1fill{fill:red;}.poloto2fill{fill:green;}.poloto3fill{fill:gold;}.poloto4fill{fill:aqua;}.poloto5fill{fill:lime;}.poloto6fill{fill:orange;}.poloto7fill{fill:chocolate;}</style><circle  r="1e5" class="poloto_background" /><text  class="poloto_text poloto_legend_text" x="675" y="100" >30 years</text><line  class="poloto_line poloto_legend_icon poloto0stroke poloto0legend" stroke="black" x1="680" x2="730" y1="81.25" y2="81.25" /><path  class="poloto_line poloto0stroke" fill="none" stroke="black" d=" M 150.00 353.85 L 153.85 376.92 L 165.38 353.85 L 169.23 330.77 L 173.08 330.77 L 173.08 330.77 L 180.77 284.62 L 192.31 284.62 L 196.15 307.69 L 200.00 330.77 L 203.85 353.85 L 207.69 307.69 L 219.23 330.77 L 223.08 307.69 L 226.92 284.62 L 230.77 261.54 L 234.62 261.54 L 246.15 261.54 L 250.00 284.62 L 253.85 284.62 L 257.69 284.62 L 261.54 238.46 L 276.92 217.23 L 280.77 215.38 L 284.62 215.38 L 288.46 192.31 L 300.00 215.38 L 303.85 238.46 L 311.54 217.23 L 315.38 217.23 L 326.92 217.23 L 330.77 217.23 L 334.62 217.23 L 338.46 217.23 L 342.31 192.31 L 353.85 215.38 L 357.69 217.23 L 357.69 217.23 L 361.54 217.23 L 365.38 217.23 L 369.23 217.23 L 380.77 217.23 L 384.62 217.23 L 388.46 217.23 L 388.46 217.23 L 392.31 217.23 L 396.15 261.54 L 407.69 261.54 L 411.54 284.62 L 415.38 284.62 L 419.23 307.69 L 423.08 284.62 L 438.46 261.54 L 442.31 238.46 L 446.15 261.54 L 450.00 261.54 L 461.54 238.46 L 465.38 217.23 L 469.23 217.23 L 473.08 217.23 L 488.46 123.08 L 492.31 100.00 L 496.15 100.00 L 500.00 123.08 L 503.85 146.15 L 515.38 123.08 L 519.23 123.08 L 523.08 146.15 L 526.92 169.23 L 542.31 169.23 L 546.15 123.08 L 550.00 146.15 L 553.85 192.31 L 557.69 217.23 L 573.08 217.23 L 576.92 217.23 L 580.77 192.31 L 584.62 146.15 L 596.15 192.31 L 603.85 146.15 L 607.69 192.31 L 623.08 192.31 L 623.08 192.31 L 623.08 192.31 L 623.08 192.31 L 623.08 192.31 L 630.77 192.31 L 630.77 192.31 L 630.77 192.31 L 630.77 192.31 L 630.77 192.31 L 630.77 192.31 L 638.46 217.23 L 650.00 217.23" /><text  class="poloto_labels poloto_text poloto_title" x="400" y="37.5" >lower.com purchase rates</text><text  class="poloto_labels poloto_text poloto_xname" x="400" y="481.25" >Date</text><text  class="poloto_labels poloto_text poloto_yname" transform="rotate(-90,37.5,250)" x="37.5" y="250" >Rate (%)</text><text  class="poloto_tick_labels poloto_text" dominant-baseline="middle" text-anchor="start" x="150" y="70" ></text><line  class="poloto_axis_lines" stroke="black" x1="150" x2="144" y1="400" y2="400" /><line  class="poloto_tick_line" stroke="black" x1="150" x2="650" y1="400" y2="400" /><text  class="poloto_tick_labels poloto_text" dominant-baseline="middle" text-anchor="end" x="135" y="400" >4</text><line  class="poloto_axis_lines" stroke="black" x1="150" x2="144" y1="376.9230769230769" y2="376.9230769230769" /><line  class="poloto_tick_line" stroke="black" x1="150" x2="650" y1="376.9230769230769" y2="376.9230769230769" /><text  class="poloto_tick_labels poloto_text" dominant-baseline="middle" text-anchor="end" x="135" y="376.9230769230769" >4.125</text><line  class="poloto_axis_lines" stroke="black" x1="150" x2="144" y1="353.8461538461538" y2="353.8461538461538" /><line  class="poloto_tick_line" stroke="black" x1="150" x2="650" y1="353.8461538461538" y2="353.8461538461538" /><text  class="poloto_tick_labels poloto_text" dominant-baseline="middle" text-anchor="end" x="135" y="353.8461538461538" >4.25</text><line  class="poloto_axis_lines" stroke="black" x1="150" x2="144" y1="330.7692307692307" y2="330.7692307692307" /><line  class="poloto_tick_line" stroke="black" x1="150" x2="650" y1="330.7692307692307" y2="330.7692307692307" /><text  class="poloto_tick_labels poloto_text" dominant-baseline="middle" text-anchor="end" x="135" y="330.7692307692307" >4.375</text><line  class="poloto_axis_lines" stroke="black" x1="150" x2="144" y1="307.69230769230774" y2="307.69230769230774" /><line  class="poloto_tick_line" stroke="black" x1="150" x2="650" y1="307.69230769230774" y2="307.69230769230774" /><text  class="poloto_tick_labels poloto_text" dominant-baseline="middle" text-anchor="end" x="135" y="307.69230769230774" >4.5</text><line  class="poloto_axis_lines" stroke="black" x1="150" x2="144" y1="284.61538461538464" y2="284.61538461538464" /><line  class="poloto_tick_line" stroke="black" x1="150" x2="650" y1="284.61538461538464" y2="284.61538461538464" /><text  class="poloto_tick_labels poloto_text" dominant-baseline="middle" text-anchor="end" x="135" y="284.61538461538464" >4.625</text><line  class="poloto_axis_lines" stroke="black" x1="150" x2="144" y1="261.53846153846155" y2="261.53846153846155" /><line  class="poloto_tick_line" stroke="black" x1="150" x2="650" y1="261.53846153846155" y2="261.53846153846155" /><text  class="poloto_tick_labels poloto_text" dominant-baseline="middle" text-anchor="end" x="135" y="261.53846153846155" >4.75</text><line  class="poloto_axis_lines" stroke="black" x1="150" x2="144" y1="238.46153846153845" y2="238.46153846153845" /><line  class="poloto_tick_line" stroke="black" x1="150" x2="650" y1="238.46153846153845" y2="238.46153846153845" /><text  class="poloto_tick_labels poloto_text" dominant-baseline="middle" text-anchor="end" x="135" y="238.46153846153845" >4.875</text><line  class="poloto_axis_lines" stroke="black" x1="150" x2="144" y1="215.38461538461536" y2="215.38461538461536" /><line  class="poloto_tick_line" stroke="black" x1="150" x2="650" y1="215.38461538461536" y2="215.38461538461536" /><text  class="poloto_tick_labels poloto_text" dominant-baseline="middle" text-anchor="end" x="135" y="215.38461538461536" >5</text><line  class="poloto_axis_lines" stroke="black" x1="150" x2="144" y1="192.30769230769226" y2="192.30769230769226" /><line  class="poloto_tick_line" stroke="black" x1="150" x2="650" y1="192.30769230769226" y2="192.30769230769226" /><text  class="poloto_tick_labels poloto_text" dominant-baseline="middle" text-anchor="end" x="135" y="192.30769230769226" >5.125</text><line  class="poloto_axis_lines" stroke="black" x1="150" x2="144" y1="169.23076923076928" y2="169.23076923076928" /><line  class="poloto_tick_line" stroke="black" x1="150" x2="650" y1="169.23076923076928" y2="169.23076923076928" /><text  class="poloto_tick_labels poloto_text" dominant-baseline="middle" text-anchor="end" x="135" y="169.23076923076928" >5.25</text><line  class="poloto_axis_lines" stroke="black" x1="150" x2="144" y1="146.1538461538462" y2="146.1538461538462" /><line  class="poloto_tick_line" stroke="black" x1="150" x2="650" y1="146.1538461538462" y2="146.1538461538462" /><text  class="poloto_tick_labels poloto_text" dominant-baseline="middle" text-anchor="end" x="135" y="146.1538461538462" >5.375</text><line  class="poloto_axis_lines" stroke="black" x1="150" x2="144" y1="123.0769230769231" y2="123.0769230769231" /><line  class="poloto_tick_line" stroke="black" x1="150" x2="650" y1="123.0769230769231" y2="123.0769230769231" /><text  class="poloto_tick_labels poloto_text" dominant-baseline="middle" text-anchor="end" x="135" y="123.0769230769231" >5.5</text><line  class="poloto_axis_lines" stroke="black" x1="150" x2="144" y1="100.00000000000011" y2="100.00000000000011" /><line  class="poloto_tick_line" stroke="black" x1="150" x2="650" y1="100.00000000000011" y2="100.00000000000011" /><text  class="poloto_tick_labels poloto_text" dominant-baseline="middle" text-anchor="end" x="135" y="100.00000000000011" >5.625</text><text  class="poloto_tick_labels poloto_text" dominant-baseline="middle" text-anchor="start" x="440.00000000000006" y="70" >¹2022-04-01 00:00:00 UTC in Months</text><line  class="poloto_axis_lines" stroke="black" x1="207.69230769229762" x2="207.69230769229762" y1="400" y2="405" /><line  class="poloto_tick_line" stroke="black" x1="207.69230769229762" x2="207.69230769229762" y1="400" y2="100.00000000000011" /><text  class="poloto_tick_labels poloto_text" dominant-baseline="start" text-anchor="middle" x="207.69230769229762" y="430" >2022 Apr¹</text><line  class="poloto_axis_lines" stroke="black" x1="323.07692307692196" x2="323.07692307692196" y1="400" y2="405" /><line  class="poloto_tick_line" stroke="black" x1="323.07692307692196" x2="323.07692307692196" y1="400" y2="100.00000000000011" /><text  class="poloto_tick_labels poloto_text" dominant-baseline="start" text-anchor="middle" x="323.07692307692196" y="430" >2022 May</text><line  class="poloto_axis_lines" stroke="black" x1="442.30769230768783" x2="442.30769230768783" y1="400" y2="405" /><line  class="poloto_tick_line" stroke="black" x1="442.30769230768783" x2="442.30769230768783" y1="400" y2="100.00000000000011" /><text  class="poloto_tick_labels poloto_text" dominant-baseline="start" text-anchor="middle" x="442.30769230768783" y="430" >2022 Jun</text><line  class="poloto_axis_lines" stroke="black" x1="557.6923076922976" x2="557.6923076922976" y1="400" y2="405" /><line  class="poloto_tick_line" stroke="black" x1="557.6923076922976" x2="557.6923076922976" y1="400" y2="100.00000000000011" /><text  class="poloto_tick_labels poloto_text" dominant-baseline="start" text-anchor="middle" x="557.6923076922976" y="430" >2022 Jul</text><path  stroke="black" fill="none" class="poloto_axis_lines" d=" M 150 400 L 650 400" /><path  stroke="black" fill="none" class="poloto_axis_lines" d=" M 150 400 L 150 100.00000000000011" /></svg>