<svg class="poloto" width="800" height="500" viewBox="0 0 800 500" xmlns="http://www.w3.org/2000/svg"><style>.poloto{stroke-linecap:round;stroke-linejoin:round;font-family:Roboto,sans-serif;font-size:16px;}.poloto_background{fill:#262626;}.poloto_scatter{stroke-width:7}.poloto_tick_line{stroke:dimgray;stroke-width:0.5}.poloto_line{stroke-width:2}.poloto_text{fill: white;}.poloto_axis_lines{stroke: white;stroke-width:3;fill:none;stroke-dasharray:none}.poloto_title{font-size:24px;dominant-baseline:start;text-anchor:middle;}.poloto_xname{font-size:24px;dominant-baseline:start;text-anchor:middle;}.poloto_yname{font-size:24px;dominant-baseline:start;text-anchor:middle;}.poloto0stroke{stroke:blue;}.poloto1stroke{stroke:red;}.poloto2stroke{stroke:green;}.poloto3stroke{stroke:gold;}.poloto4stroke{stroke:aqua;}.poloto5stroke{stroke:lime;}.poloto6stroke{stroke:orange;}.poloto7stroke{stroke:chocolate;}.poloto0fill{fill:blue;}.poloto1fill{fill:red;}.poloto2fill{fill:green;}.poloto3fill{fill:gold;}.poloto4fill{fill:aqua;}.poloto5fill{fill:lime;}.poloto6fill{fill:orange;}.poloto7fill{fill:chocolate;}</style><circle  r="1e5" class="poloto_background" /><text  class="poloto_text poloto_legend_text" x="675" y="100" >Refinance 15</text><line  class="poloto_line poloto_legend_icon poloto0stroke poloto0legend" stroke="black" x1="680" x2="730" y1="81.25" y2="81.25" /><path  class="poloto_line poloto0stroke" fill="none" stroke="black" d=" M 150.00 392.46 L 151.69 400.00 L 156.78 389.32 L 158.47 380.17 L 160.17 389.32 L 160.17 389.32 L 163.56 358.81 L 168.64 357.20 L 170.34 367.88 L 172.03 344.83 L 173.73 346.44 L 175.42 341.61 L 180.51 343.22 L 182.20 336.78 L 182.20 336.78 L 185.59 337.37 L 187.29 314.32 L 192.37 324.32 L 194.07 327.54 L 195.76 327.54 L 197.46 326.69 L 199.15 321.78 L 205.93 278.73 L 207.63 297.88 L 209.32 283.05 L 211.02 277.29 L 211.02 277.29 L 217.80 299.58 L 221.19 303.64 L 222.88 294.58 L 227.97 283.81 L 229.66 305.25 L 231.36 294.58 L 231.36 294.58 L 234.75 292.88 L 239.83 296.19 L 241.53 306.86 L 241.53 306.86 L 243.22 297.80 L 244.92 308.56 L 246.61 292.88 L 251.69 325.08 L 253.39 324.32 L 255.08 306.86 L 255.08 306.86 L 256.78 314.32 L 258.47 317.63 L 263.56 317.63 L 265.25 329.15 L 266.95 329.15 L 268.64 329.15 L 270.34 329.15 L 277.12 317.63 L 278.81 314.32 L 280.51 315.93 L 282.20 315.93 L 282.20 315.93 L 288.98 305.25 L 290.68 305.25 L 292.37 296.19 L 299.15 281.36 L 300.85 250.76 L 302.54 254.15 L 304.24 254.15 L 305.93 275.59 L 311.02 254.15 L 312.71 254.15 L 314.41 273.90 L 316.10 277.29 L 322.88 277.29 L 324.58 275.59 L 326.27 280.59 L 327.97 285.51 L 329.66 296.19 L 336.44 303.64 L 338.14 294.58 L 339.83 287.12 L 341.53 283.81 L 346.61 285.51 L 350.00 285.51 L 351.69 283.81 L 358.47 282.20 L 358.47 282.20 L 358.47 282.20 L 358.47 282.20 L 358.47 282.20 L 358.47 282.20 L 361.86 282.20 L 361.86 282.20 L 361.86 282.20 L 361.86 282.20 L 361.86 282.20 L 361.86 282.20 L 370.34 294.58 L 373.73 297.80 L 375.42 325.93 L 377.12 329.15 L 382.20 329.15 L 383.90 327.54 L 385.59 305.25 L 387.29 299.49 L 388.98 285.51 L 394.07 296.19 L 394.07 296.19 L 395.76 287.12 L 399.15 296.19 L 399.15 296.19 L 407.63 296.19 L 409.32 262.46 L 411.02 282.20 L 417.80 248.39 L 421.19 248.39 L 421.19 248.39 L 424.58 260.76 L 431.36 254.15 L 431.36 254.15 L 431.36 254.15 L 431.36 254.15 L 431.36 254.15 L 431.36 254.15 L 431.36 254.15 L 431.36 254.15 L 431.36 254.15 L 436.44 254.15 L 446.61 232.63 L 453.39 235.17 L 453.39 235.17 L 458.47 235.17 L 465.25 235.17 L 466.95 235.17 L 466.95 235.17 L 466.95 235.17 L 466.95 235.17 L 466.95 235.17 L 488.98 235.17 L 490.68 235.17 L 500.85 139.75 L 502.54 130.68 L 504.24 130.68 L 565.25 159.15 L 572.03 159.15 L 573.73 159.15 L 575.42 175.51 L 578.81 184.49 L 578.81 184.49 L 585.59 184.49 L 587.29 184.49 L 588.98 184.49 L 590.68 184.49 L 595.76 184.49 L 597.46 184.49 L 600.85 184.49 L 602.54 184.49 L 607.63 184.49 L 609.32 184.49 L 609.32 184.49 L 614.41 184.49 L 619.49 184.49 L 621.19 184.49 L 622.88 184.49 L 624.58 184.49 L 626.27 184.49 L 633.05 209.15 L 634.75 180.68 L 636.44 159.15 L 638.14 169.92 L 643.22 169.92 L 644.92 169.92 L 644.92 169.92 L 648.31 193.05 L 650.00 193.05" /><text  class="poloto_text poloto_legend_text" x="675" y="150" >Refinance 20</text><line  class="poloto_line poloto_legend_icon poloto1stroke poloto1legend" stroke="black" x1="680" x2="730" y1="131.25" y2="131.25" /><path  class="poloto_line poloto1stroke" fill="none" stroke="black" d=" M 150.00 345.68 L 151.69 368.31 L 156.78 334.58 L 158.47 324.24 L 160.17 333.73 L 160.17 333.73 L 163.56 304.07 L 168.64 301.53 L 170.34 312.29 L 172.03 300.25 L 173.73 311.02 L 175.42 290.85 L 180.51 321.69 L 182.20 290.85 L 182.20 290.85 L 185.59 290.85 L 185.59 290.85 L 192.37 250.17 L 194.07 282.71 L 195.76 290.85 L 197.46 301.53 L 199.15 280.59 L 205.93 260.00 L 207.63 257.37 L 209.32 252.12 L 211.02 240.08 L 216.10 245.34 L 217.80 268.14 L 221.19 260.00 L 222.88 257.37 L 227.97 248.81 L 229.66 258.73 L 231.36 258.73 L 231.36 258.73 L 234.75 258.73 L 239.83 260.00 L 241.53 281.44 L 241.53 281.44 L 243.22 269.41 L 244.92 289.58 L 246.61 281.44 L 251.69 282.71 L 253.39 281.44 L 255.08 281.44 L 255.08 281.44 L 256.78 282.71 L 258.47 289.58 L 263.56 290.85 L 265.25 294.66 L 266.95 294.66 L 268.64 294.66 L 270.34 294.66 L 277.12 289.58 L 278.81 278.81 L 280.51 281.44 L 282.20 281.44 L 282.20 281.44 L 288.98 268.14 L 290.68 270.68 L 292.37 261.27 L 299.15 215.85 L 300.85 197.03 L 302.54 207.80 L 304.24 215.85 L 305.93 238.56 L 311.02 225.17 L 312.71 218.47 L 314.41 239.92 L 316.10 250.17 L 322.88 250.17 L 324.58 238.56 L 326.27 249.32 L 327.97 260.00 L 329.66 272.03 L 336.44 280.08 L 338.14 269.41 L 339.83 258.73 L 341.53 251.44 L 346.61 257.37 L 350.00 260.00 L 351.69 258.73 L 358.47 260.00 L 358.47 260.00 L 358.47 260.00 L 358.47 260.00 L 358.47 260.00 L 358.47 260.00 L 358.47 260.00 L 358.47 260.00 L 358.47 260.00 L 358.47 260.00 L 358.47 260.00 L 358.47 260.00 L 370.34 280.08 L 373.73 282.71 L 375.42 301.53 L 377.12 304.07 L 382.20 301.27 L 383.90 301.27 L 385.59 290.85 L 387.29 294.66 L 388.98 278.81 L 394.07 270.68 L 394.07 270.68 L 395.76 270.68 L 399.15 281.44 L 399.15 281.44 L 407.63 278.81 L 409.32 260.00 L 411.02 260.00 L 417.80 246.19 L 421.19 234.58 L 421.19 234.58 L 424.58 247.54 L 431.36 215.85 L 431.36 215.85 L 431.36 215.85 L 431.36 215.85 L 431.36 215.85 L 431.36 215.85 L 431.36 215.85 L 431.36 215.85 L 431.36 215.85 L 436.44 215.85 L 446.61 202.37 L 453.39 203.73 L 456.78 203.73 L 458.47 203.73 L 458.47 203.73 L 466.95 203.73 L 468.64 203.73 L 468.64 203.73 L 468.64 203.73 L 468.64 203.73 L 488.98 203.73 L 490.68 203.73 L 500.85 118.81 L 502.54 102.97 L 502.54 102.97 L 568.64 155.34 L 572.03 155.34 L 573.73 155.34 L 577.12 174.15 L 578.81 175.51 L 578.81 175.51 L 585.59 175.51 L 587.29 175.51 L 588.98 175.51 L 590.68 175.51 L 595.76 175.51 L 597.46 175.51 L 600.85 175.51 L 602.54 175.51 L 607.63 175.51 L 609.32 175.51 L 609.32 175.51 L 614.41 175.51 L 619.49 175.51 L 621.19 175.51 L 622.88 175.51 L 624.58 175.51 L 626.27 175.51 L 633.05 156.36 L 634.75 145.93 L 636.44 144.58 L 638.14 147.37 L 643.22 147.37 L 644.92 147.37 L 644.92 147.37 L 648.31 167.46 L 650.00 167.46" /><text  class="poloto_text poloto_legend_text" x="675" y="200" >Refinance 30</text><line  class="poloto_line poloto_legend_icon poloto2stroke poloto2legend" stroke="black" x1="680" x2="730" y1="181.25" y2="181.25" /><path  class="poloto_line poloto2stroke" fill="none" stroke="black" d=" M 150.00 343.31 L 151.69 351.36 L 156.78 338.81 L 158.47 328.98 L 160.17 330.85 L 160.17 330.85 L 163.56 310.25 L 168.64 308.47 L 170.34 319.15 L 172.03 307.54 L 173.73 318.22 L 175.42 297.71 L 180.51 307.54 L 182.20 286.95 L 183.90 286.95 L 185.59 286.02 L 187.29 260.00 L 192.37 264.58 L 194.07 276.27 L 195.76 286.95 L 197.46 277.20 L 199.15 265.51 L 205.93 256.61 L 207.63 242.12 L 209.32 240.17 L 211.02 238.14 L 216.10 242.12 L 217.80 258.73 L 221.19 256.61 L 222.88 254.66 L 227.97 244.07 L 229.66 255.59 L 231.36 244.07 L 231.36 244.07 L 234.75 244.07 L 239.83 246.02 L 241.53 264.58 L 241.53 264.58 L 243.22 255.59 L 244.92 256.61 L 246.61 257.54 L 251.69 265.51 L 253.39 256.61 L 255.08 256.61 L 255.08 256.61 L 256.78 266.44 L 258.47 267.46 L 263.56 268.39 L 265.25 277.20 L 266.95 277.20 L 268.64 279.07 L 270.34 279.07 L 277.12 275.25 L 278.81 264.58 L 280.51 266.44 L 282.20 265.51 L 282.20 265.51 L 288.98 255.59 L 290.68 255.59 L 292.37 245.00 L 299.15 202.12 L 300.85 171.78 L 302.54 190.34 L 304.24 202.12 L 305.93 212.80 L 311.02 203.05 L 312.71 202.12 L 314.41 221.61 L 316.10 223.56 L 322.88 223.56 L 324.58 211.86 L 326.27 221.61 L 327.97 232.29 L 329.66 255.59 L 336.44 256.61 L 338.14 245.00 L 339.83 224.58 L 341.53 221.61 L 346.61 241.10 L 350.00 223.56 L 351.69 222.54 L 358.47 242.12 L 358.47 242.12 L 358.47 242.12 L 358.47 242.12 L 358.47 242.12 L 358.47 242.12 L 361.86 242.12 L 361.86 242.12 L 361.86 242.12 L 361.86 242.12 L 361.86 242.12 L 361.86 242.12 L 370.34 254.66 L 373.73 256.61 L 375.42 275.25 L 377.12 287.88 L 382.20 286.95 L 383.90 286.95 L 385.59 265.51 L 387.29 268.39 L 388.98 254.66 L 394.07 265.51 L 394.07 265.51 L 395.76 257.54 L 399.15 266.44 L 399.15 266.44 L 407.63 264.58 L 409.32 246.02 L 411.02 245.00 L 417.80 220.59 L 421.19 211.86 L 421.19 211.86 L 424.58 222.54 L 431.36 210.85 L 431.36 210.85 L 431.36 210.85 L 431.36 210.85 L 431.36 210.85 L 431.36 210.85 L 431.36 210.85 L 431.36 210.85 L 436.44 210.85 L 436.44 209.83 L 446.61 197.03 L 453.39 175.51 L 453.39 175.51 L 458.47 175.51 L 458.47 175.51 L 466.95 175.51 L 468.64 175.51 L 468.64 175.51 L 468.64 175.51 L 468.64 175.51 L 488.98 175.51 L 490.68 175.51 L 500.85 127.03 L 502.54 100.00 L 502.54 100.00 L 568.64 146.44 L 572.03 146.44 L 573.73 146.44 L 575.42 150.76 L 578.81 160.59 L 578.81 160.59 L 585.59 160.59 L 587.29 160.59 L 588.98 160.59 L 590.68 160.59 L 595.76 160.59 L 597.46 160.59 L 600.85 160.59 L 602.54 160.59 L 607.63 160.59 L 609.32 160.59 L 609.32 160.59 L 614.41 160.59 L 619.49 160.59 L 621.19 160.59 L 622.88 160.59 L 624.58 160.59 L 626.27 160.59 L 633.05 144.24 L 634.75 152.88 L 636.44 132.37 L 638.14 152.88 L 643.22 152.88 L 644.92 152.88 L 644.92 152.88 L 648.31 152.88 L 650.00 152.88" /><text  class="poloto_labels poloto_text poloto_title" x="400" y="37.5" >lower.com purchase rates</text><text  class="poloto_labels poloto_text poloto_xname" x="400" y="481.25" >Date</text><text  class="poloto_labels poloto_text poloto_yname" transform="rotate(-90,37.5,250)" x="37.5" y="250" >Rate (%)</text><text  class="poloto_tick_labels poloto_text" dominant-baseline="middle" text-anchor="start" x="150" y="70" ></text><line  class="poloto_axis_lines" stroke="black" x1="150" x2="144" y1="390.2542372881356" y2="390.2542372881356" /><line  class="poloto_tick_line" stroke="black" x1="150" x2="649.9999999999964" y1="390.2542372881356" y2="390.2542372881356" /><text  class="poloto_tick_labels poloto_text" dominant-baseline="middle" text-anchor="end" x="135" y="390.2542372881356" >3.625</text><line  class="poloto_axis_lines" stroke="black" x1="150" x2="144" y1="379.66101694915255" y2="379.66101694915255" /><line  class="poloto_tick_line" stroke="black" x1="150" x2="649.9999999999964" y1="379.66101694915255" y2="379.66101694915255" /><text  class="poloto_tick_labels poloto_text" dominant-baseline="middle" text-anchor="end" x="135" y="379.66101694915255" >3.75</text><line  class="poloto_axis_lines" stroke="black" x1="150" x2="144" y1="369.06779661016947" y2="369.06779661016947" /><line  class="poloto_tick_line" stroke="black" x1="150" x2="649.9999999999964" y1="369.06779661016947" y2="369.06779661016947" /><text  class="poloto_tick_labels poloto_text" dominant-baseline="middle" text-anchor="end" x="135" y="369.06779661016947" >3.875</text><line  class="poloto_axis_lines" stroke="black" x1="150" x2="144" y1="358.47457627118644" y2="358.47457627118644" /><line  class="poloto_tick_line" stroke="black" x1="150" x2="649.9999999999964" y1="358.47457627118644" y2="358.47457627118644" /><text  class="poloto_tick_labels poloto_text" dominant-baseline="middle" text-anchor="end" x="135" y="358.47457627118644" >4</text><line  class="poloto_axis_lines" stroke="black" x1="150" x2="144" y1="347.8813559322034" y2="347.8813559322034" /><line  class="poloto_tick_line" stroke="black" x1="150" x2="649.9999999999964" y1="347.8813559322034" y2="347.8813559322034" /><text  class="poloto_tick_labels poloto_text" dominant-baseline="middle" text-anchor="end" x="135" y="347.8813559322034" >4.125</text><line  class="poloto_axis_lines" stroke="black" x1="150" x2="144" y1="337.2881355932203" y2="337.2881355932203" /><line  class="poloto_tick_line" stroke="black" x1="150" x2="649.9999999999964" y1="337.2881355932203" y2="337.2881355932203" /><text  class="poloto_tick_labels poloto_text" dominant-baseline="middle" text-anchor="end" x="135" y="337.2881355932203" >4.25</text><line  class="poloto_axis_lines" stroke="black" x1="150" x2="144" y1="326.6949152542373" y2="326.6949152542373" /><line  class="poloto_tick_line" stroke="black" x1="150" x2="649.9999999999964" y1="326.6949152542373" y2="326.6949152542373" /><text  class="poloto_tick_labels poloto_text" dominant-baseline="middle" text-anchor="end" x="135" y="326.6949152542373" >4.375</text><line  class="poloto_axis_lines" stroke="black" x1="150" x2="144" y1="316.10169491525426" y2="316.10169491525426" /><line  class="poloto_tick_line" stroke="black" x1="150" x2="649.9999999999964" y1="316.10169491525426" y2="316.10169491525426" /><text  class="poloto_tick_labels poloto_text" dominant-baseline="middle" text-anchor="end" x="135" y="316.10169491525426" >4.5</text><line  class="poloto_axis_lines" stroke="black" x1="150" x2="144" y1="305.50847457627117" y2="305.50847457627117" /><line  class="poloto_tick_line" stroke="black" x1="150" x2="649.9999999999964" y1="305.50847457627117" y2="305.50847457627117" /><text  class="poloto_tick_labels poloto_text" dominant-baseline="middle" text-anchor="end" x="135" y="305.50847457627117" >4.625</text><line  class="poloto_axis_lines" stroke="black" x1="150" x2="144" y1="294.91525423728814" y2="294.91525423728814" /><line  class="poloto_tick_line" stroke="black" x1="150" x2="649.9999999999964" y1="294.91525423728814" y2="294.91525423728814" /><text  class="poloto_tick_labels poloto_text" dominant-baseline="middle" text-anchor="end" x="135" y="294.91525423728814" >4.75</text><line  class="poloto_axis_lines" stroke="black" x1="150" x2="144" y1="284.3220338983051" y2="284.3220338983051" /><line  class="poloto_tick_line" stroke="black" x1="150" x2="649.9999999999964" y1="284.3220338983051" y2="284.3220338983051" /><text  class="poloto_tick_labels poloto_text" dominant-baseline="middle" text-anchor="end" x="135" y="284.3220338983051" >4.875</text><line  class="poloto_axis_lines" stroke="black" x1="150" x2="144" y1="273.728813559322" y2="273.728813559322" /><line  class="poloto_tick_line" stroke="black" x1="150" x2="649.9999999999964" y1="273.728813559322" y2="273.728813559322" /><text  class="poloto_tick_labels poloto_text" dominant-baseline="middle" text-anchor="end" x="135" y="273.728813559322" >5</text><line  class="poloto_axis_lines" stroke="black" x1="150" x2="144" y1="263.135593220339" y2="263.135593220339" /><line  class="poloto_tick_line" stroke="black" x1="150" x2="649.9999999999964" y1="263.135593220339" y2="263.135593220339" /><text  class="poloto_tick_labels poloto_text" dominant-baseline="middle" text-anchor="end" x="135" y="263.135593220339" >5.125</text><line  class="poloto_axis_lines" stroke="black" x1="150" x2="144" y1="252.54237288135596" y2="252.54237288135596" /><line  class="poloto_tick_line" stroke="black" x1="150" x2="649.9999999999964" y1="252.54237288135596" y2="252.54237288135596" /><text  class="poloto_tick_labels poloto_text" dominant-baseline="middle" text-anchor="end" x="135" y="252.54237288135596" >5.25</text><line  class="poloto_axis_lines" stroke="black" x1="150" x2="144" y1="241.94915254237287" y2="241.94915254237287" /><line  class="poloto_tick_line" stroke="black" x1="150" x2="649.9999999999964" y1="241.94915254237287" y2="241.94915254237287" /><text  class="poloto_tick_labels poloto_text" dominant-baseline="middle" text-anchor="end" x="135" y="241.94915254237287" >5.375</text><line  class="poloto_axis_lines" stroke="black" x1="150" x2="144" y1="231.35593220338984" y2="231.35593220338984" /><line  class="poloto_tick_line" stroke="black" x1="150" x2="649.9999999999964" y1="231.35593220338984" y2="231.35593220338984" /><text  class="poloto_tick_labels poloto_text" dominant-baseline="middle" text-anchor="end" x="135" y="231.35593220338984" >5.5</text><line  class="poloto_axis_lines" stroke="black" x1="150" x2="144" y1="220.7627118644068" y2="220.7627118644068" /><line  class="poloto_tick_line" stroke="black" x1="150" x2="649.9999999999964" y1="220.7627118644068" y2="220.7627118644068" /><text  class="poloto_tick_labels poloto_text" dominant-baseline="middle" text-anchor="end" x="135" y="220.7627118644068" >5.625</text><line  class="poloto_axis_lines" stroke="black" x1="150" x2="144" y1="210.16949152542372" y2="210.16949152542372" /><line  class="poloto_tick_line" stroke="black" x1="150" x2="649.9999999999964" y1="210.16949152542372" y2="210.16949152542372" /><text  class="poloto_tick_labels poloto_text" dominant-baseline="middle" text-anchor="end" x="135" y="210.16949152542372" >5.75</text><line  class="poloto_axis_lines" stroke="black" x1="150" x2="144" y1="199.5762711864407" y2="199.5762711864407" /><line  class="poloto_tick_line" stroke="black" x1="150" x2="649.9999999999964" y1="199.5762711864407" y2="199.5762711864407" /><text  class="poloto_tick_labels poloto_text" dominant-baseline="middle" text-anchor="end" x="135" y="199.5762711864407" >5.875</text><line  class="poloto_axis_lines" stroke="black" x1="150" x2="144" y1="188.98305084745766" y2="188.98305084745766" /><line  class="poloto_tick_line" stroke="black" x1="150" x2="649.9999999999964" y1="188.98305084745766" y2="188.98305084745766" /><text  class="poloto_tick_labels poloto_text" dominant-baseline="middle" text-anchor="end" x="135" y="188.98305084745766" >6</text><line  class="poloto_axis_lines" stroke="black" x1="150" x2="144" y1="178.38983050847457" y2="178.38983050847457" /><line  class="poloto_tick_line" stroke="black" x1="150" x2="649.9999999999964" y1="178.38983050847457" y2="178.38983050847457" /><text  class="poloto_tick_labels poloto_text" dominant-baseline="middle" text-anchor="end" x="135" y="178.38983050847457" >6.125</text><line  class="poloto_axis_lines" stroke="black" x1="150" x2="144" y1="167.7966101694915" y2="167.7966101694915" /><line  class="poloto_tick_line" stroke="black" x1="150" x2="649.9999999999964" y1="167.7966101694915" y2="167.7966101694915" /><text  class="poloto_tick_labels poloto_text" dominant-baseline="middle" text-anchor="end" x="135" y="167.7966101694915" >6.25</text><line  class="poloto_axis_lines" stroke="black" x1="150" x2="144" y1="157.2033898305085" y2="157.2033898305085" /><line  class="poloto_tick_line" stroke="black" x1="150" x2="649.9999999999964" y1="157.2033898305085" y2="157.2033898305085" /><text  class="poloto_tick_labels poloto_text" dominant-baseline="middle" text-anchor="end" x="135" y="157.2033898305085" >6.375</text><line  class="poloto_axis_lines" stroke="black" x1="150" x2="144" y1="146.61016949152543" y2="146.61016949152543" /><line  class="poloto_tick_line" stroke="black" x1="150" x2="649.9999999999964" y1="146.61016949152543" y2="146.61016949152543" /><text  class="poloto_tick_labels poloto_text" dominant-baseline="middle" text-anchor="end" x="135" y="146.61016949152543" >6.5</text><line  class="poloto_axis_lines" stroke="black" x1="150" x2="144" y1="136.01694915254234" y2="136.01694915254234" /><line  class="poloto_tick_line" stroke="black" x1="150" x2="649.9999999999964" y1="136.01694915254234" y2="136.01694915254234" /><text  class="poloto_tick_labels poloto_text" dominant-baseline="middle" text-anchor="end" x="135" y="136.01694915254234" >6.625</text><line  class="poloto_axis_lines" stroke="black" x1="150" x2="144" y1="125.42372881355936" y2="125.42372881355936" /><line  class="poloto_tick_line" stroke="black" x1="150" x2="649.9999999999964" y1="125.42372881355936" y2="125.42372881355936" /><text  class="poloto_tick_labels poloto_text" dominant-baseline="middle" text-anchor="end" x="135" y="125.42372881355936" >6.75</text><line  class="poloto_axis_lines" stroke="black" x1="150" x2="144" y1="114.83050847457628" y2="114.83050847457628" /><line  class="poloto_tick_line" stroke="black" x1="150" x2="649.9999999999964" y1="114.83050847457628" y2="114.83050847457628" /><text  class="poloto_tick_labels poloto_text" dominant-baseline="middle" text-anchor="end" x="135" y="114.83050847457628" >6.875</text><line  class="poloto_axis_lines" stroke="black" x1="150" x2="144" y1="104.23728813559319" y2="104.23728813559319" /><line  class="poloto_tick_line" stroke="black" x1="150" x2="649.9999999999964" y1="104.23728813559319" y2="104.23728813559319" /><text  class="poloto_tick_labels poloto_text" dominant-baseline="middle" text-anchor="end" x="135" y="104.23728813559319" >7</text><text  class="poloto_tick_labels poloto_text" dominant-baseline="middle" text-anchor="start" x="440.00000000000006" y="70" >¹2022-05-01 00:00:00 UTC in Months</text><line  class="poloto_axis_lines" stroke="black" x1="226.2711864406774" x2="226.2711864406774" y1="400" y2="405" /><line  class="poloto_tick_line" stroke="black" x1="226.2711864406774" x2="226.2711864406774" y1="400" y2="100" /><text  class="poloto_tick_labels poloto_text" dominant-baseline="start" text-anchor="middle" x="226.2711864406774" y="430" >2022 May¹</text><line  class="poloto_axis_lines" stroke="black" x1="329.6610169491505" x2="329.6610169491505" y1="400" y2="405" /><line  class="poloto_tick_line" stroke="black" x1="329.6610169491505" x2="329.6610169491505" y1="400" y2="100" /><text  class="poloto_tick_labels poloto_text" dominant-baseline="start" text-anchor="middle" x="329.6610169491505" y="430" >2022 Jul</text><line  class="poloto_axis_lines" stroke="black" x1="434.7457627118638" x2="434.7457627118638" y1="400" y2="405" /><line  class="poloto_tick_line" stroke="black" x1="434.7457627118638" x2="434.7457627118638" y1="400" y2="100" /><text  class="poloto_tick_labels poloto_text" dominant-baseline="start" text-anchor="middle" x="434.7457627118638" y="430" >2022 Sep</text><line  class="poloto_axis_lines" stroke="black" x1="538.1355932203369" x2="538.1355932203369" y1="400" y2="405" /><line  class="poloto_tick_line" stroke="black" x1="538.1355932203369" x2="538.1355932203369" y1="400" y2="100" /><text  class="poloto_tick_labels poloto_text" dominant-baseline="start" text-anchor="middle" x="538.1355932203369" y="430" >2022 Nov</text><line  class="poloto_axis_lines" stroke="black" x1="641.5254237288136" x2="641.5254237288136" y1="400" y2="405" /><line  class="poloto_tick_line" stroke="black" x1="641.5254237288136" x2="641.5254237288136" y1="400" y2="100" /><text  class="poloto_tick_labels poloto_text" dominant-baseline="start" text-anchor="middle" x="641.5254237288136" y="430" >2023 Jan</text><path  stroke="black" fill="none" class="poloto_axis_lines" d=" M 150 400 L 649.9999999999964 400" /><path  stroke="black" fill="none" class="poloto_axis_lines" d=" M 150 400 L 150 100" /></svg>